<svg width="800" height="514.83" version="1.1" viewBox="0 0 800 514.83" xml:space="preserve" xmlns="http://www.w3.org/2000/svg">
<g transform="matrix(2.5461 0 0 2.5461 -359.26 -717.5)" fill="#544e4a">
	<polygon points="199.1 484 199.1 466.4 206.7 466.4 206.7 462 187 462 187 466.4 194.7 466.4 194.7 484"/>
	<polygon points="216.4 479.6 216.4 475.2 229.6 475.2 229.6 470.8 216.4 470.8 216.4 466.4 230.7 466.4 230.7 462 212 462 212 484 230.7 484 230.7 479.6"/>
	<polygon points="240.7 470.8 245.1 466.4 251.7 466.4 251.7 484 256.1 484 256.1 462 242.9 462 236.3 468.6 236.3 484 240.7 484"/>
	<polygon points="266.7 479.6 266.7 475.2 279.9 475.2 279.9 470.8 266.7 470.8 266.7 466.4 281 466.4 281 462 262.3 462 262.3 484 281 484 281 479.6"/>
	<polygon points="291.4 462 286.9 462 286.9 484 291.4 484 291.4 475.2 297.9 475.2 302.3 479.6 302.3 484 306.7 484 306.7 477.4 302.3 473 306.7 468.6 306.7 462 302.3 462 302.3 466.4 297.9 470.8 291.4 470.8"/>
	<path d="m312.3 468.6v15.4h4.4v-6.6h11v6.6h4.4v-22h-13.2zm15.4-2.2v6.6h-11v-2.2l4.4-4.4z"/>
	<polygon points="338.3 462 338.3 484 342.7 484 342.7 475.2 353.7 475.2 353.7 484 358.1 484 358.1 462 353.7 462 353.7 470.8 342.7 470.8 342.7 462"/>
	<path d="m364 468.6v15.4h4.4v-6.6h11v6.6h4.4v-22h-13.2zm15.4-2.2v6.6h-11v-2.2l4.4-4.4z"/>
	<polygon points="394.1 470.8 398.5 466.4 405.1 466.4 405.1 484 409.4 484 409.4 462 396.3 462 389.7 468.6 389.7 484 394.1 484"/>
	<polygon points="352.8 403.4 352.8 421.2 333.3 421.2 333.3 403.4 321.8 403.4 321.8 450.4 333.3 450.4 333.3 432.7 352.8 432.7 352.8 450.4 364.2 450.4 364.2 403.4"/>
	<path d="m141.1 417.5v32.9h11.5v-13.3h19.5v13.3h11.5v-47h-28.4zm31-2.6v10.7h-19.5v-2.6l8-8.2h11.5z"/>
	<path d="m198.8 437.2h25.8l5.1-5.2v-23.3l-5.1-5.3h-37.3v47h11.5zm0-22.3h19.5v10.7h-19.5z"/>
	<polygon points="278.4 450.4 318.7 450.4 318.7 438.9 289.9 438.9 289.9 432.7 316.5 432.7 316.5 421.2 289.9 421.2 289.9 414.9 318.7 414.9 318.7 403.4 278.4 403.4"/>
	<polygon points="263.8 434.5 263.8 438.9 244.4 438.9 244.4 414.9 263.8 414.9 263.8 419.3 275.3 419.3 275.3 408.7 270.2 403.4 238 403.4 232.8 408.7 232.8 445.3 238 450.4 270.2 450.4 275.3 445.3 275.3 434.5"/>
	<path d="m367.3 417.5v32.9h11.5v-13.3h19.5v13.3h11.5v-47h-28.4zm31-2.6v10.7h-19.5v-2.6l8-8.2h11.5z"/>
	<polygon points="424.3 450.4 424.3 423 432.4 414.9 443.8 414.9 443.8 450.4 455.3 450.4 455.3 403.4 426.9 403.4 412.8 417.5 412.8 450.4"/>
	<path d="m277 326v32.9h11.5v-13.3h19.5v13.3h11.5v-47h-28.5zm31-2.6v10.7h-19.5v-2.6l8-8.2h11.5z"/>
	<path d="m342.4 287.6h-31.4v-5.8h-11.5v5.8h-16.6l-28.9 27.8v65.1h88.4zm-11.5 81.4h-65.5v-48.7l22-21.2h12v5.7h11.6v-5.7h20v69.9z"/>
</g>
</svg>
