<svg enable-background="new 0 0 283.464 283.464" version="1.1" viewBox="0 0 234.35 88.981" xml:space="preserve" xmlns="http://www.w3.org/2000/svg"><g transform="translate(-24.559,-97.242)"><polygon points="179.39 186.22 24.559 186.21 66.613 97.242 258.91 97.242 232.06 153.56 184.27 153.56 191.08 161.08" fill="#fff"/><polygon points="47.324 178.09 56.085 159.71 64.203 159.71 55.402 178.12 63.186 178.12 74.869 153.67 51.204 153.67 39.472 178.12" fill="#ec2227"/><polygon points="66.839 178.13 75.473 178.16 88.883 162.86 87.139 178.16 94.387 178.13 97.081 153.64 88.329 153.64" fill="#ec2227"/><path d="m183.56 116.1-14.261 29.608h-12.899l14.264-29.608h-12.901l4.841-9.831h37.878l-4.837 9.831z"/><path d="m231.4 105.81h-13.461c-6.924 0-14.578 4.223-17.098 9.426l-10.354 21.375c-2.52 5.204 1.048 9.425 7.973 9.425h13.462c6.921 0 14.58-4.221 17.104-9.425l10.354-21.375c2.52-5.204-1.056-9.426-7.98-9.426zm-14.219 29.906-13.874 0.017 9.299-19.613 13.745-6e-3z"/><path d="m143.53 125.46c1.872-0.807 5.014-1.825 7.293-6.531l2.679-5.743c2.751-5.864-1.467-7.037-12.022-6.992l-20.446-9e-3 -18.888 39.484h21.055c15.387 0 16.92-3.326 19.049-7.725l2.787-5.753c2.39-4.94 0.089-5.698-1.507-6.731zm-12.71 10.614h-11.799l2.813-5.837h11.782zm6.005-14.257h-10.936l2.729-5.72h10.737z"/><path d="m165.34 160.15" fill="#010101"/><linearGradient id="a" x1="198.94" x2="217.65" y1="132.6" y2="121.8" gradientUnits="userSpaceOnUse"><stop stop-color="#B6191F" offset=".0012"/><stop stop-color="#DF2327" offset=".9765"/><stop stop-color="#E42326" offset="1"/></linearGradient><polygon points="208.71 137.2 216.52 119.85 212.28 114.66 201.59 137.2" fill="url(#a)"/><path d="m160.78 169.54-1.078 2.335h-8.2l5.766-12.053h8.134l-1.127 2.367h7.631l1.43-2.979c1.567-3.225-0.651-5.85-4.953-5.85h-8.056c-4.302 0-9.053 2.625-10.62 5.85l-6.427 13.275c-1.561 3.231 0.653 5.85 4.956 5.85h8.059c4.297 0 9.128-2.618 10.693-5.85l1.394-2.945z" fill="#ec2227"/><path d="m139.42 152.95h-8.104c-4.301 0-8.774 1.824-10.62 5.851l-1.88 3.997h-4.812l4.451-9.194h-7.777l-11.925 24.627h7.778l4.516-9.332h4.813l-2.179 4.498c-1.566 3.229 0.746 5.346 5.042 5.346h8.108c4.301 0 8.959-2.116 10.523-5.346l7.013-14.596c1.567-3.227-0.646-5.851-4.947-5.851zm-8.931 18.924h-8.206l5.776-12.053h8.205z" fill="#ec2227"/><path d="m86.069 145.64 0.61-5.488h-17.62l-4.786 5.488h-10.937l34.396-39.439h14.414l-4.339 39.439zm3.114-28.661-12.782 14.705 11.174-5e-3z"/><polygon points="228.04 114.66 212.24 114.67 216.48 119.85 208.68 137.2 217.5 137.18" fill="#fff"/></g></svg>
