<svg enable-background="new 0 0 841.89 595.28" version="1.1" viewBox="0 0 164.4 163.42" xml:space="preserve" xmlns="http://www.w3.org/2000/svg"><g transform="translate(-.003 -16.192)" fill="#d2a85e"><path d="m36.27 171.55h-2.961v-3.076h1.982c0.987 0 1.774 0.188 2.361 0.563 0.587 0.378 1.096 1.069 1.525 2.076l1.683-0.606-1.481-4.11h-10.855v1.798h0.442c0.5 0 0.814 0.072 0.943 0.214 0.119 0.143 0.185 0.441 0.185 0.894v7.149c0 0.479-0.048 0.788-0.152 0.933-0.097 0.144-0.361 0.212-0.785 0.212h-0.633v1.799h7.629c1.731 0 2.988-0.393 3.769-1.178 0.777-0.788 1.165-1.7 1.165-2.736 0-1.119-0.426-2.053-1.281-2.8-0.852-0.755-2.032-1.132-3.536-1.132zm0.926 5.195c-0.342 0.358-0.911 0.534-1.701 0.534h-2.187v-3.699h1.853c0.595 0 1.049 0.054 1.365 0.16 0.313 0.104 0.588 0.308 0.831 0.608 0.238 0.295 0.359 0.67 0.359 1.123 0 0.492-0.174 0.918-0.52 1.274z"/><path d="m52.5 175.83c-0.437 0.523-0.937 0.901-1.491 1.131-0.56 0.235-1.25 0.352-2.064 0.352h-1.087c-0.298 0-0.495-0.018-0.581-0.054-0.092-0.036-0.153-0.089-0.185-0.158-0.03-0.068-0.045-0.265-0.045-0.58v-2.991h0.584c0.538 0 0.879 0.035 1.037 0.096 0.155 0.061 0.277 0.18 0.365 0.356 0.091 0.17 0.139 0.45 0.139 0.832v0.564h1.655v-5.507h-1.655v0.491c0 0.453-0.037 0.757-0.112 0.912-0.076 0.148-0.198 0.259-0.368 0.333-0.174 0.075-0.503 0.107-0.995 0.107h-0.649v-3.244h1.985c0.612 0 1.155 0.071 1.613 0.2 0.462 0.137 0.889 0.407 1.268 0.815 0.38 0.408 0.713 0.954 1 1.624l1.689-0.606-1.486-4.11h-10.847v1.798h0.575c0.329 0 0.551 0.03 0.658 0.089 0.116 0.063 0.198 0.146 0.252 0.265 0.049 0.123 0.079 0.37 0.079 0.754v7.081c0 0.438-0.018 0.7-0.046 0.793-0.062 0.157-0.168 0.268-0.32 0.326-0.146 0.061-0.438 0.094-0.873 0.094h-0.325v1.799h11.24l1.71-4.835-1.704-0.587c-0.239 0.721-0.574 1.338-1.016 1.86z"/><path d="m65.48 176.78c-0.677 0.411-1.368 0.623-2.098 0.623-1.144 0-2.067-0.481-2.77-1.442-0.708-0.968-1.058-2.113-1.058-3.449 0-0.876 0.152-1.639 0.461-2.291 0.306-0.655 0.723-1.147 1.246-1.483 0.525-0.337 1.087-0.504 1.689-0.504 0.831 0 1.597 0.323 2.3 0.96 0.515 0.467 1.058 1.254 1.635 2.366l1.734-0.5-1.278-4.671h-1.318l-0.312 0.555c-0.932-0.518-2.014-0.78-3.246-0.78-1.22 0-2.325 0.289-3.314 0.858-0.989 0.571-1.77 1.37-2.344 2.394-0.572 1.021-0.858 2.152-0.858 3.395s0.292 2.4 0.878 3.452c0.592 1.061 1.382 1.88 2.373 2.464 0.99 0.591 2.096 0.883 3.318 0.883 1.47 0 2.809-0.386 4.002-1.163 0.777-0.503 1.635-1.394 2.571-2.678l-1.445-1.068c-0.604 0.87-1.326 1.56-2.166 2.079z"/><path d="m79.87 165.96-0.159 0.437h-7.322l-0.131-0.437h-1.233l-1.602 4.558 1.706 0.602c0.402-0.799 0.667-1.284 0.79-1.463 0.315-0.44 0.669-0.781 1.066-1.024 0.399-0.241 0.758-0.36 1.083-0.36 0.156 0 0.262 0.026 0.311 0.083 0.052 0.054 0.078 0.192 0.078 0.413v7.638c0 0.422-0.033 0.698-0.093 0.83-0.063 0.135-0.156 0.232-0.271 0.279-0.122 0.054-0.393 0.081-0.819 0.081h-0.384v1.799h6.345v-1.799c-0.566 0-0.921-0.011-1.052-0.034-0.126-0.019-0.235-0.062-0.307-0.13-0.072-0.065-0.125-0.152-0.161-0.266-0.03-0.109-0.048-0.39-0.048-0.828v-7.47c0-0.256 0.03-0.418 0.083-0.488 0.06-0.073 0.161-0.108 0.31-0.108 0.316 0 0.636 0.098 0.96 0.298 0.428 0.259 0.806 0.615 1.134 1.069 0.173 0.23 0.444 0.727 0.828 1.48l1.735-0.602-1.61-4.558z"/><path d="m92.95 176.78c-0.676 0.411-1.373 0.623-2.104 0.623-1.144 0-2.064-0.481-2.771-1.442-0.702-0.968-1.055-2.113-1.055-3.449 0-0.876 0.155-1.639 0.459-2.291 0.31-0.655 0.721-1.147 1.248-1.483 0.527-0.337 1.091-0.504 1.692-0.504 0.825 0 1.591 0.323 2.3 0.96 0.51 0.467 1.055 1.254 1.63 2.366l1.733-0.5-1.275-4.671h-1.322l-0.304 0.555c-0.933-0.518-2.014-0.78-3.253-0.78-1.213 0-2.318 0.289-3.307 0.858-0.992 0.571-1.77 1.37-2.348 2.394-0.575 1.021-0.861 2.152-0.861 3.395s0.295 2.4 0.885 3.452c0.59 1.061 1.383 1.88 2.372 2.464 0.985 0.591 2.091 0.883 3.318 0.883 1.472 0 2.806-0.386 4.004-1.163 0.771-0.503 1.632-1.394 2.564-2.678l-1.438-1.068c-0.612 0.87-1.33 1.56-2.167 2.079z"/><path d="m107.83 175.83c-0.435 0.523-0.936 0.901-1.492 1.131-0.561 0.235-1.249 0.352-2.059 0.352h-1.094c-0.301 0-0.494-0.018-0.587-0.054-0.086-0.036-0.143-0.089-0.179-0.158-0.029-0.068-0.051-0.265-0.051-0.58v-2.991h0.59c0.54 0 0.882 0.035 1.037 0.096 0.152 0.061 0.277 0.18 0.369 0.356 0.087 0.17 0.131 0.45 0.131 0.832v0.564h1.659v-5.507h-1.659v0.491c0 0.453-0.032 0.757-0.109 0.912-0.072 0.148-0.194 0.259-0.37 0.333-0.17 0.075-0.5 0.107-0.988 0.107h-0.659v-3.244h1.993c0.61 0 1.15 0.071 1.614 0.2 0.462 0.137 0.883 0.407 1.267 0.815s0.715 0.954 0.998 1.624l1.688-0.606-1.483-4.11h-10.854v1.798h0.583c0.325 0 0.549 0.03 0.658 0.089 0.114 0.063 0.197 0.146 0.251 0.265 0.054 0.123 0.074 0.37 0.074 0.754v7.081c0 0.438-0.015 0.7-0.048 0.793-0.057 0.157-0.163 0.268-0.315 0.326-0.144 0.061-0.441 0.094-0.873 0.094h-0.33v1.799h11.248l1.71-4.835-1.704-0.587c-0.238 0.721-0.572 1.338-1.016 1.86z"/><path d="m122.87 176.43-3.924-10.034h-2.907l-4.013 10.243c-0.161 0.398-0.331 0.659-0.501 0.783-0.169 0.114-0.471 0.173-0.896 0.173v1.799h5.011v-1.799c-0.527 0-0.876-0.034-1.052-0.107-0.176-0.065-0.256-0.197-0.256-0.378 0-0.099 0.045-0.283 0.146-0.55l2.503-6.744 2.329 6.614c0.122 0.337 0.179 0.569 0.179 0.689 0 0.303-0.304 0.454-0.92 0.465l-0.375 0.011v1.799h6.148v-1.799c-0.48 0-0.802-0.081-0.963-0.235-0.157-0.162-0.333-0.471-0.509-0.93z"/><path d="m136.62 176.43-3.926-10.034h-2.898l-4.019 10.243c-0.161 0.398-0.331 0.659-0.501 0.783-0.17 0.114-0.468 0.173-0.896 0.173v1.799h5.014v-1.799c-0.53 0-0.882-0.034-1.055-0.107-0.17-0.065-0.262-0.197-0.262-0.378 0-0.099 0.048-0.283 0.154-0.55l2.493-6.744 2.339 6.614c0.116 0.337 0.176 0.569 0.176 0.689 0 0.303-0.304 0.454-0.92 0.465l-0.376 0.011v1.799h6.151v-1.799c-0.482 0-0.81-0.081-0.965-0.235-0.157-0.162-0.327-0.471-0.509-0.93z"/><path d="m149.06 175.83c-0.44 0.523-0.936 0.901-1.495 1.131-0.563 0.235-1.245 0.352-2.062 0.352h-1.091c-0.294 0-0.491-0.018-0.584-0.054-0.086-0.036-0.151-0.089-0.178-0.158-0.033-0.068-0.048-0.265-0.048-0.58v-2.991h0.587c0.533 0 0.882 0.035 1.033 0.096 0.158 0.061 0.28 0.18 0.373 0.356 0.086 0.17 0.131 0.45 0.131 0.832v0.564h1.659v-5.507h-1.659v0.491c0 0.453-0.039 0.757-0.11 0.912-0.08 0.148-0.2 0.259-0.366 0.333-0.176 0.075-0.51 0.107-0.992 0.107h-0.655v-3.244h1.983c0.617 0 1.153 0.071 1.621 0.2 0.455 0.137 0.882 0.407 1.266 0.815 0.379 0.408 0.715 0.954 0.998 1.624l1.692-0.606-1.486-4.11h-10.855v1.798h0.577c0.331 0 0.549 0.03 0.662 0.089 0.116 0.063 0.193 0.146 0.247 0.265 0.054 0.123 0.08 0.37 0.08 0.754v7.081c0 0.438-0.018 0.7-0.044 0.793-0.061 0.157-0.167 0.268-0.319 0.326-0.148 0.061-0.44 0.094-0.879 0.094h-0.324v1.799h11.242l1.707-4.835-1.701-0.587c-0.233 0.721-0.569 1.338-1.01 1.86z"/><path d="m164.07 168.74c-0.22-0.495-0.548-0.918-0.953-1.279-0.414-0.359-0.908-0.63-1.486-0.805-0.578-0.178-1.296-0.268-2.163-0.268h-6.875v1.798h0.629c0.307 0 0.515 0.03 0.622 0.089 0.11 0.063 0.188 0.154 0.238 0.281 0.054 0.125 0.078 0.389 0.078 0.787v7.145c0 0.378-0.03 0.624-0.087 0.754-0.054 0.116-0.146 0.205-0.268 0.262-0.132 0.057-0.385 0.084-0.772 0.084h-0.44v1.799h6.345v-1.799h-0.658c-0.276 0-0.471-0.027-0.587-0.084-0.112-0.057-0.199-0.142-0.253-0.262-0.045-0.077-0.063-0.274-0.063-0.578v-2.428h2.213c1.505 0 2.682-0.377 3.539-1.129 0.853-0.754 1.278-1.685 1.278-2.795-1e-3 -0.553-0.114-1.078-0.337-1.572zm-3.331 2.611c-0.199 0.287-0.453 0.505-0.763 0.642-0.321 0.14-0.819 0.21-1.495 0.21h-1.105v-3.692h1.442c0.673 0 1.173 0.131 1.516 0.396 0.456 0.342 0.691 0.817 0.691 1.415 1e-3 0.398-0.098 0.737-0.286 1.029z"/></g><path d="m137.5 68.745c0-37.965-30.775-68.745-68.747-68.745-37.965 0-68.75 30.78-68.75 68.745 0 37.973 30.785 68.753 68.75 68.753 37.972 0 68.747-30.78 68.747-68.753zm-135.5 0c0-36.863 29.893-66.752 66.754-66.752 36.873 0 66.758 29.89 66.758 66.752 0 36.872-29.885 66.757-66.758 66.757-36.862 0-66.754-29.885-66.754-66.757z" fill="#d2a85e"/><path d="m130.36 68.825c0-34.027-27.583-61.611-61.612-61.611-34.022 0-61.607 27.584-61.607 61.611 0 34.023 27.585 61.605 61.607 61.605 34.029 0 61.612-27.582 61.612-61.605zm-112.28 0c0-10.334 3.1-19.941 8.41-27.953h6.725c3.278 0 5.259 0.519 6.23 1.63 0.93 1.069 1.364 2.93 1.364 5.865v40.541c0 3.036-0.339 4.941-1.065 5.978-0.827 1.194-2.566 1.749-5.478 1.749h-7.866c-5.254-7.984-8.32-17.537-8.32-27.81zm55.898 35.568c9.468 0 16.367-2.121 20.502-6.318 4.221-4.263 6.273-9.055 6.273-14.659 0-6.028-2.246-10.93-6.863-15-4.597-4.048-11.077-6.095-19.258-6.095h-18.018v-19.871h12.47c5.797 0 10.524 1.139 14.059 3.392 3.307 2.112 6.211 5.898 8.645 11.254l7.344-2.633-7.698-21.367h-58.608c9.175-9.23 21.883-14.947 35.926-14.947 27.985 0 50.673 22.692 50.673 50.675 0 27.985-22.688 50.667-50.673 50.667-14.12 0-26.886-5.779-36.075-15.098zm-17.365-9.559v-23.412h11.725c3.503 0 6.239 0.322 8.135 0.959 1.987 0.669 3.757 1.954 5.258 3.82 1.532 1.909 2.31 4.319 2.31 7.158 0 3.09-1.097 5.804-3.266 8.067-2.198 2.26-5.739 3.406-10.524 3.406h-13.638z" fill="#d2a85e"/></svg>
