<svg width="600pt" height="153.93pt" version="1.1" viewBox="0 0 600 153.93" xmlns="http://www.w3.org/2000/svg">
 <defs>
  <clipPath id="a">
   <path d="m0 0h839.06v595.28h-839.06z"/>
  </clipPath>
 </defs>
 <g transform="matrix(9.4371 0 0 -9.4371 -267.51 3512.4)">
  <g clip-path="url(#a)">
   <g transform="translate(37.697 357.41)">
    <path d="m0 0c0-0.236-0.011-0.433-0.031-0.591-0.02-0.159-0.05-0.287-0.091-0.384s-0.091-0.169-0.152-0.214c-0.062-0.044-0.129-0.067-0.202-0.067h-7.923c-0.269 0-0.494 0.08-0.677 0.238s-0.274 0.416-0.274 0.774v13.751c0 0.358 0.091 0.615 0.274 0.774s0.408 0.238 0.677 0.238h7.874c0.074 0 0.139-0.02 0.195-0.061 0.058-0.041 0.106-0.112 0.147-0.214 0.041-0.101 0.071-0.231 0.091-0.39 0.02-0.158 0.031-0.359 0.031-0.603 0-0.228-0.011-0.421-0.031-0.579s-0.05-0.287-0.091-0.384c-0.041-0.098-0.089-0.169-0.147-0.213-0.056-0.045-0.121-0.068-0.195-0.068h-5.632v-3.852h4.767c0.073 0 0.14-0.022 0.201-0.067 0.061-0.044 0.112-0.114 0.153-0.207 0.04-0.094 0.07-0.219 0.09-0.378 0.022-0.158 0.032-0.352 0.032-0.579 0-0.236-0.01-0.431-0.032-0.585-0.02-0.155-0.05-0.278-0.09-0.372-0.041-0.093-0.092-0.16-0.153-0.201-0.061-0.04-0.128-0.061-0.201-0.061h-4.767v-4.449h5.681c0.073 0 0.14-0.023 0.202-0.067 0.061-0.045 0.111-0.116 0.152-0.214 0.041-0.097 0.071-0.225 0.091-0.384 0.02-0.158 0.031-0.356 0.031-0.591" fill="#0072bb"/>
   </g>
   <g transform="translate(48.712 370.6)">
    <path d="m0 0c0-0.244-0.011-0.449-0.031-0.616-0.02-0.166-0.051-0.3-0.091-0.402-0.041-0.101-0.091-0.175-0.152-0.219-0.062-0.045-0.133-0.067-0.214-0.067h-5.229v-12.727c0-0.082-0.027-0.153-0.08-0.213-0.053-0.061-0.14-0.113-0.262-0.153-0.122-0.041-0.284-0.071-0.488-0.091-0.203-0.02-0.462-0.031-0.78-0.031-0.308 0-0.567 0.011-0.774 0.031s-0.371 0.05-0.493 0.091c-0.123 0.04-0.21 0.092-0.263 0.153-0.052 0.06-0.079 0.131-0.079 0.213v14.348c0 0.341 0.088 0.595 0.262 0.762 0.175 0.166 0.404 0.25 0.69 0.25h7.496c0.163 0 0.285-0.102 0.366-0.305s0.122-0.545 0.122-1.024" fill="#0072bb"/>
   </g>
   <g transform="translate(60.58 364.16)">
    <path d="m0 0c0-1.406-0.161-2.628-0.481-3.663-0.322-1.037-0.789-1.896-1.403-2.579-0.613-0.683-1.365-1.193-2.255-1.53-0.889-0.337-1.916-0.506-3.078-0.506-0.398 0-0.806 0.031-1.225 0.092-0.418 0.061-0.812 0.142-1.182 0.244-0.37 0.101-0.699 0.221-0.987 0.359-0.289 0.138-0.49 0.262-0.604 0.372s-0.189 0.201-0.226 0.275c-0.036 0.073-0.067 0.168-0.091 0.286-0.025 0.118-0.043 0.26-0.055 0.427-0.012 0.166-0.018 0.376-0.018 0.627 0 0.399 0.037 0.687 0.109 0.866 0.074 0.178 0.179 0.268 0.317 0.268 0.098 0 0.232-0.063 0.403-0.189s0.402-0.262 0.695-0.408c0.292-0.146 0.659-0.281 1.103-0.402 0.443-0.123 0.985-0.183 1.627-0.183 0.577 0 1.097 0.091 1.56 0.274 0.464 0.183 0.864 0.461 1.202 0.835 0.337 0.374 0.603 0.841 0.798 1.402s0.309 1.215 0.341 1.963h-6.546c-0.081 0-0.15 0.022-0.208 0.067-0.057 0.044-0.105 0.115-0.146 0.213-0.04 0.098-0.071 0.225-0.091 0.384-0.021 0.158-0.03 0.351-0.03 0.579 0 0.227 9e-3 0.422 0.03 0.585 0.02 0.162 0.051 0.29 0.091 0.384 0.041 0.093 0.089 0.163 0.146 0.207 0.058 0.045 0.127 0.067 0.208 0.067h6.51c-0.057 0.667-0.191 1.254-0.403 1.762-0.211 0.508-0.487 0.937-0.829 1.286-0.341 0.349-0.751 0.611-1.23 0.786-0.481 0.175-1.009 0.262-1.585 0.262-0.529 0-0.996-0.061-1.403-0.182-0.406-0.123-0.757-0.257-1.054-0.403s-0.538-0.282-0.725-0.408-0.325-0.189-0.415-0.189c-0.049 0-0.095 0.018-0.14 0.055-0.044 0.037-0.083 0.097-0.116 0.183-0.032 0.085-0.059 0.201-0.079 0.347-0.021 0.146-0.031 0.329-0.031 0.548 0 0.244 7e-3 0.452 0.019 0.622 0.012 0.171 0.03 0.311 0.055 0.421 0.024 0.11 0.054 0.203 0.092 0.28 0.036 0.078 0.093 0.153 0.17 0.226s0.233 0.176 0.469 0.31c0.235 0.135 0.535 0.261 0.896 0.379 0.361 0.117 0.772 0.219 1.231 0.304 0.46 0.086 0.961 0.128 1.506 0.128 1.081 0 2.058-0.169 2.932-0.506 0.873-0.337 1.615-0.843 2.224-1.517 0.61-0.675 1.079-1.514 1.409-2.518 0.329-1.003 0.493-2.168 0.493-3.492" fill="#0072bb"/>
   </g>
   <g transform="translate(79.33 370.6)">
    <path d="m0 0c0-0.237-0.011-0.439-0.031-0.606s-0.051-0.302-0.092-0.404-0.091-0.178-0.152-0.227c-0.062-0.048-0.129-0.073-0.203-0.073h-3.967v-12.772c0-0.082-0.027-0.155-0.079-0.22-0.054-0.066-0.142-0.119-0.265-0.16-0.122-0.041-0.287-0.073-0.495-0.098-0.208-0.024-0.468-0.037-0.777-0.037-0.311 0-0.57 0.013-0.778 0.037-0.208 0.025-0.374 0.057-0.496 0.098-0.123 0.041-0.211 0.094-0.263 0.16-0.053 0.065-0.08 0.138-0.08 0.22v12.772h-3.967c-0.082 0-0.152 0.025-0.209 0.073-0.057 0.049-0.106 0.125-0.147 0.227s-0.071 0.237-0.091 0.404c-0.021 0.167-0.031 0.369-0.031 0.606 0 0.245 0.01 0.453 0.031 0.625 0.02 0.171 0.05 0.307 0.091 0.41 0.041 0.102 0.09 0.175 0.147 0.22s0.127 0.068 0.209 0.068h11.167c0.074 0 0.141-0.023 0.203-0.068 0.061-0.045 0.111-0.118 0.152-0.22 0.041-0.103 0.072-0.239 0.092-0.41 0.02-0.172 0.031-0.38 0.031-0.625" fill="#ff1520"/>
   </g>
   <g transform="translate(91.926 360.83)">
    <path d="m0 0c0-0.563-0.078-1.074-0.233-1.531s-0.37-0.861-0.643-1.212-0.6-0.653-0.98-0.906c-0.379-0.253-0.798-0.461-1.255-0.625-0.457-0.163-0.945-0.283-1.463-0.361s-1.095-0.116-1.732-0.116h-4.213c-0.269 0-0.496 0.079-0.68 0.239-0.183 0.159-0.275 0.418-0.275 0.777v13.813c0 0.359 0.092 0.618 0.275 0.778 0.184 0.159 0.411 0.238 0.68 0.238h3.98c0.972 0 1.794-0.081 2.467-0.245 0.673-0.163 1.241-0.41 1.702-0.741 0.462-0.33 0.814-0.748 1.06-1.254 0.245-0.507 0.367-1.103 0.367-1.788 0-0.384-0.049-0.745-0.147-1.084s-0.241-0.647-0.429-0.925c-0.188-0.277-0.418-0.522-0.691-0.734-0.274-0.213-0.586-0.384-0.937-0.515 0.448-0.081 0.863-0.224 1.243-0.428 0.379-0.205 0.71-0.468 0.992-0.79 0.281-0.323 0.503-0.701 0.666-1.133 0.164-0.433 0.246-0.918 0.246-1.457m-4.164 6.674c0 0.318-0.049 0.604-0.147 0.857s-0.245 0.463-0.441 0.631c-0.195 0.167-0.442 0.295-0.74 0.385-0.299 0.09-0.696 0.135-1.194 0.135h-1.629v-4.114h1.8c0.466 0 0.837 0.054 1.115 0.165 0.277 0.11 0.508 0.261 0.691 0.453 0.184 0.192 0.321 0.417 0.41 0.674 0.091 0.257 0.135 0.528 0.135 0.814m0.821-6.784c0 0.367-0.062 0.696-0.184 0.986-0.122 0.289-0.302 0.532-0.539 0.728s-0.539 0.347-0.906 0.453-0.845 0.16-1.433 0.16h-1.91v-4.507h2.327c0.448 0 0.826 0.047 1.132 0.141 0.307 0.094 0.572 0.233 0.797 0.416 0.224 0.184 0.399 0.413 0.526 0.686 0.126 0.273 0.19 0.586 0.19 0.937" fill="#ff1520"/>
   </g>
  </g>
 </g>
 <path d="m332.85 152.05h4.7091v-150h-4.7091z" fill="#ff1520"/>
</svg>
