<svg enable-background="new 0 0 283.464 283.464" version="1.1" viewBox="0 0 232.2 70.813" xml:space="preserve" xmlns="http://www.w3.org/2000/svg"><g transform="translate(-25.631 -106.33)"><path d="m155.32 139.23 19.918-15.331-21.229 2.871-1.656-20.44-3.207 5.582-9.494 17.07-17.745 2.573 10.854 7.881c-18.261 19.841-42.232 28.23-61.407 35.768 24.58-4.862 51.6-14.354 72.9-27.766l13.722 10.09z" clip-rule="evenodd" fill="#da2128" fill-rule="evenodd"/><g fill="#da2128"><path d="m225.19 157.88-18.284-51.084h14.046l6.75 21.187 4.71 15.852h0.311l4.63-15.927 6.671-21.111h13.811l-18.205 51.084h-14.44z"/><path d="m191.19 157.88h-12.948v-40.254h-14.213v-10.83h42.1l-3.86 10.83h-11.078v40.254z"/></g><path d="m56.723 107.99c-3.843-0.068-10.333-0.051-15.814 1.115-3.714 0.793-6.89 2.535-8.214 4.84-0.579 1.005-1.147 2.554-0.895 4.013 0.271 1.568 1.155 2.084 1.956 2.99-2.427 1.372-4.784 2.008-6.855 5.527-1.994 3.386-1.598 6.811 0.899 9.011 5.034 4.426 13.655 1.435 20.324 0.665l1.678-6.027c-4.386 0.706-16.32 2.734-16.051-0.949 0.373-5.13 9.392-5.542 14.06-5.571l1.668-5.392-7.645 0.516c-1.095-0.057-2.558-0.206-2.726-1.296-0.684-4.457 12.964-4.084 15.933-4.114z" clip-rule="evenodd" fill="#9d9fa2" fill-rule="evenodd"/><path d="m76.565 114.23-7.009 0.467-4.841 14.582c-1.194 0.091-4.302 0.98-5.187-0.442-0.58-0.926 0.688-3.633 1.015-4.63l3.019-9.063-7.366 0.515-2.786 8.289c-0.777 2.328-2.564 6.304-1.211 8.762 1.384 2.519 5.161 2.433 8.529 1.986 1.744-0.229 8.512-0.85 9.586-1.313z" clip-rule="evenodd" fill="#9d9fa2" fill-rule="evenodd"/><path d="m53.306 146.09c3.522-0.595 6.633-0.494 4.306 3.496-1.08 1.849-3.741 2.669-6.538 3.021zm-5.068 16.151 1.427-4.482c4.098-0.666 8.126-1.419 11.499-4.011 2.558-1.956 4.959-6.89 3.53-9.975-1.482-3.2-6.718-3.005-11.137-2.379-1.453 0.206-5.125 0.509-6.143 0.974l-6.972 21.566z" clip-rule="evenodd" fill="#9d9fa2" fill-rule="evenodd"/><path d="m31.781 177.14c31.362-2.483 76.066-15.942 95.477-34.195-21.708 11.347-65.412 27.691-95.477 34.195z" clip-rule="evenodd" fill="#9d9fa2" fill-rule="evenodd"/><path d="m99.255 134.8-6.717 0.985-4.249 13.137c-2.21 1.194-4.077 1.327-4.367-0.179-0.153-0.804 0.347-2.083 1.027-3.894 0.545-1.436 2.766-7.333 3.047-8.401l-6.905 0.978-3.457 10.785c-0.69 2.148-2.067 7.98 6.713 6.046l8.949-1.972z" clip-rule="evenodd" fill="#9d9fa2" fill-rule="evenodd"/><path d="m99.343 116.37c4.248-1.486 2.007 8.694-2.478 9.753-3.394 0.799-2.164-3.484-1.476-5.191 0.716-1.771 2.258-3.967 3.954-4.562zm8.473 1.903c0.77-6.976-6.502-7.241-11.475-4.738-6.689 3.367-11.947 14.636-4.375 16.784 4.632 1.313 14.842-2.952 15.85-12.046z" clip-rule="evenodd" fill="#9d9fa2" fill-rule="evenodd"/><path d="m132.93 121.8c-6.631 0.289-2.729-8.133 2.501-8.158zm9.016-12.232-6.265 0.403c-6.4 0.41-9.311 3.468-10.613 6.903-2.062 5.442 0.963 9.398 6.337 8.717l5.313-0.789z" clip-rule="evenodd" fill="#9d9fa2" fill-rule="evenodd"/><path d="m115.91 114.82c2.709-0.128 4.038 0.384 2.877 3.192-0.819 1.974-2.184 2.239-4.679 2.253zm-3.203 9.411c3.214 0.019 5.307-0.479 7.465-2.031 3.518-2.526 6.841-10.036 0.063-10.85-2.085-0.252-6.563 0.077-8.711 0.384l-5.669 17.117 5.579-0.689z" clip-rule="evenodd" fill="#9d9fa2" fill-rule="evenodd"/><path d="m114.53 132.65-7.087 1.015c-3.044 0.436-4.452 0.664-6.183 2.397-1.045 1.051-2.989 3.867-1.481 5.779 1.491 1.896 4.799 1.703 5.531 2.651 0.732 0.943-1.398 1.594-2.238 1.733l-6.447 1.077-1.331 4.53 10.477-2.377c3.563-0.805 7.194-5.156 4.758-7.717-1.784-1.872-4.969-1.303-5.517-2.627-0.224-0.548 0.965-1.329 3.452-1.753l5.257-0.901z" clip-rule="evenodd" fill="#9d9fa2" fill-rule="evenodd"/><path d="m91.554 113.17c-6.73 0.229-9.941 0.358-13.651 5.884-1.579 2.351-4.191 10.845-5.301 14.04l7.106-0.838 2.987-8.794c0.578-1.7 1.514-5.736 7.129-5.529z" clip-rule="evenodd" fill="#9d9fa2" fill-rule="evenodd"/><path d="m72.435 148.86 3.453-10.695-6.785 0.994-4.247 12.898c-0.827 2.6 0.284 4.884 2.203 5.448 1.917 0.565 6.413-0.813 7.363-1.197l1.495-4.362c-2.946 0.519-4.979 1.558-3.482-3.086z" clip-rule="evenodd" fill="#9d9fa2" fill-rule="evenodd"/></g></svg>
