<svg width="800" height="326.18" version="1.1" viewBox="0 0 800 326.18" xml:space="preserve" xmlns="http://www.w3.org/2000/svg"><g transform="matrix(1.3333 0 0 -1.3333 -26.534 384.37)"><g transform="matrix(1.023 0 0 1.023 90.803 288.28)"><path d="m0 0v-239.14" fill="none" stroke="#1080b2" stroke-miterlimit="10" stroke-width="4"/></g><g transform="matrix(1.023 0 0 1.023 19.9 110.95)"><path d="m0 0h586.54" fill="none" stroke="#1080b2" stroke-miterlimit="10" stroke-width="4"/></g><g transform="matrix(1.023 0 0 -1.023 110.34 141.89)" fill="#1080b2" aria-label="FlixSnip"><path d="m10.54-90.14h44.733v16.729h-27.759v16.361h27.759v16.484h-27.759v40.566h-16.974z"/><path d="m66.918-92.408h16.729v92.408h-16.729z"/><path d="m105.37-94.123q4.412 0 7.5372 3.1865 3.1865 3.1865 3.1865 7.7211 0 4.4733-3.1252 7.6598-3.1252 3.1252-7.476 3.1252-4.4733 0-7.6598-3.1865-3.1252-3.2477-3.1252-7.8436 0-4.412 3.1252-7.5372t7.5372-3.1252zm-8.3951 27.453h16.79v66.671h-16.79z"/><path d="m122.93-66.671h19.425l13.052 18.2 13.236-18.2h19.241l-22.796 31.558 25.614 35.112h-19.425l-15.871-21.876-15.687 21.876h-19.18l25.247-35.112z"/><path d="m259.09-77.885-12.685 11.214q-6.6793-9.3143-13.604-9.3143-3.3703 0-5.515 1.8383-2.1447 1.7771-2.1447 4.0444t1.532 4.2895q2.0835 2.6962 12.562 11.582 9.8045 8.2113 11.888 10.356 5.2087 5.2699 7.3534 10.111 2.206 4.7797 2.206 10.479 0 11.091-7.6598 18.322-7.6598 7.2308-19.977 7.2308-9.6207 0-16.79-4.7184-7.1083-4.7184-12.194-14.829l14.4-8.7015q6.4955 11.949 14.952 11.949 4.412 0 7.4147-2.5737 3.0026-2.5737 3.0026-5.944 0-3.0639-2.2673-6.1278t-9.9884-9.3756q-14.707-12.011-18.996-18.506-4.2895-6.5568-4.2895-13.052 0-9.3756 7.1083-16.055 7.1696-6.7406 17.648-6.7406 6.7406 0 12.807 3.1252 6.1278 3.1252 13.236 11.398z"/><path d="m275.26-66.671h16.668v6.8019q5.6989-4.7797 10.295-6.6181 4.6572-1.8996 9.4981-1.8996 9.9271 0 16.852 6.9244 5.8214 5.8827 5.8214 17.403v44.059h-16.545v-29.23q0-11.949-1.103-15.871-1.0417-3.9218-3.738-5.944-2.635-2.0835-6.5568-2.0835-5.0861 0-8.7628 3.4316-3.6154 3.3703-5.0248 9.3756-0.73534 3.1252-0.73534 13.542v26.779h-16.668z"/><path d="m357.12-94.123q4.412 0 7.5372 3.1865 3.1865 3.1865 3.1865 7.7211 0 4.4733-3.1252 7.6598-3.1252 3.1252-7.476 3.1252-4.4733 0-7.6598-3.1865-3.1252-3.2477-3.1252-7.8436 0-4.412 3.1252-7.5372t7.5372-3.1252zm-8.3951 27.453h16.79v66.671h-16.79z"/><path d="m397.29-66.671v7.3534q4.5346-4.5346 9.8045-6.8019t11.275-2.2673q13.052 0 22.183 9.8658t9.1305 25.308q0 14.891-9.4368 24.94-9.4369 9.9884-22.367 9.9884-5.7602 0-10.724-2.0222-4.9635-2.0835-9.8658-6.7406v31.436h-16.606v-91.06zm17.587 13.726q-7.9049 0-13.114 5.3925-5.2086 5.3925-5.2086 14.094 0 8.8854 5.2086 14.4 5.2087 5.4538 13.114 5.4538 7.6598 0 12.868-5.5763 5.2699-5.5763 5.2699-14.217 0-8.579-5.1474-14.033-5.1474-5.515-12.991-5.515z"/></g></g></svg>
