<svg width="800" height="230.61" xmlns:cc="http://creativecommons.org/ns#" xmlns:dc="http://purl.org/dc/elements/1.1/" xmlns:rdf="http://www.w3.org/1999/02/22-rdf-syntax-ns#" space="preserve" version="1.1" viewBox="0 0 800 230.61" xmlns="http://www.w3.org/2000/svg">
 <metadata>
  <rdf:RDF>
   <cc:Work rdf:about="">
    <dc:format>image/svg+xml</dc:format>
    <dc:type rdf:resource="http://purl.org/dc/dcmitype/StillImage"/>
    <dc:title/>
   </cc:Work>
  </rdf:RDF>
 </metadata>
 <link href="" rel="stylesheet" type="text/css"/>
 <style type="text/css"/>
 <style type="text/css">.st0{fill-rule:evenodd;clip-rule:evenodd;fill:#BCBBBC;}
	.st1{fill-rule:evenodd;clip-rule:evenodd;fill:#4B79BB;}</style>
 <g transform="scale(1.9282)" clip-rule="evenodd" fill-rule="evenodd">
  <path class="st0" d="m272.4 0c0.1 0.3 0.2 0.8 0.6 0.7 0.5-0.1 1-0.1 1.4-0.1 0.2 0.1 0.3 0.3 0.4 0.4 0.4-0.2 0.5 0.2 0.6 0.5 0.1 0 0.2 0 0.3-0.1 0 0.1 0.1 0.3 0.1 0.4 0.3-0.3 0.7-0.5 1.2-0.5-0.1 0.4-0.4 0.8-0.2 1.2 0.3 0.6 0.9 1 1.5 1.2 2.2 1.2 4.5 2.4 6.6 3.8 1.4 0.8 2 2.7 1.4 4.2-0.4 0.9-1 1.8-1.9 2.2-0.4 0.2-0.8 0.4-1.3 0.4-0.6 0-0.9-0.8-1.6-0.8-0.8-0.1-1.5 0.1-2.2 0.4-0.5 0.2-0.7 0.7-1.2 0.9-0.6 0.3-1.2 0.2-1.8 0-0.5-0.1-0.9-0.3-1.4-0.1-0.6 1.3 0 2.8 0.5 4 0.7 1.6 1 3.4 1.5 5 0.2 0.7 0.5 1.4 1 1.9 0.9 1 1.8 2 2.8 2.9 0.4 0.3 0.8 0.6 1.1 0.9 0.5 0.5 0.9 1.1 1.5 1.6 0.3 0.2 0.6 0.4 1 0.2 1.2-0.4 2.1-1.4 3.4-1.8 1-0.3 2.1-0.4 3.1-0.1 0.7 0.2 1.3 0.6 1.7 1.3s0.6 1.4 0.7 2.1c0.1 0.6 0 1.3 0 1.9 0.7 0.3 1.4 0.1 2.1 0.2 0.9 0 1.8 0.4 2.3 1.2 0.6 0.8 0.9 1.8 1.1 2.8 0.3 1.3 1 2.5 1.7 3.5s1.3 2.2 1.2 3.4c0 0.5-0.3 0.9-0.3 1.3 0 0.5 0.3 0.9 0.5 1.4 0.2 0.8 0.1 1.5 0.1 2.3-0.5-0.2-0.8-0.6-1.3-0.8-0.7-0.5-1.5-0.9-2.3-0.8 0.3-0.2 0.6-0.4 0.7-0.7 0.1-0.4 0-0.9-0.3-1.2-0.1-0.2-0.3-0.3-0.4-0.5-0.1-0.8-0.3-1.6-0.4-2.4-0.1-1.6-0.8-3.1-1.6-4.5-0.3-0.5-0.6-1-1.2-1.2-0.5-0.1-1.1-0.2-1.4 0.3-0.2 1 0.3 2.1-0.2 3-0.6 0.9-1.5 1.4-2 2.4-0.1 0.3-0.2 0.6-0.4 0.8-0.3 0.2-0.5 0.5-0.7 0.8-0.2 0.4-0.7 0.5-1.1 0.3-0.2-0.1-0.3-0.3-0.5-0.5-0.2 0.5 0 1.1-0.3 1.6-0.3 0.4-0.5 0.9-1.1 0.9-0.5 0-1.1-0.3-1.1-0.8 0.1-0.7 0.1-1.4 0-2.1 0-0.4 0-0.8-0.2-1.1-1.1 0.6-1.7 1.8-2.7 2.5-0.5 0.2-1 0-1.5 0.1-0.7 0.1-1.1 0.8-1.5 1.3-1.6 2.4-2.7 5.1-4 7.6-0.5 0.9-1.1 1.7-1.7 2.5-1.7 2.2-3.5 4.2-5.5 6.2-0.9 0.9-1.8 1.8-2.8 2.6-0.6 0.5-1.1 1-1.4 1.7-0.4 0.8-0.4 1.7-0.1 2.6 0.4 1.4 1.3 2.6 1.7 4 0.4 1.3 0 2.7-0.6 3.9-0.7 1.5-1.6 3-2 4.6-0.3 1.2-0.7 2.5-1.4 3.6-0.8 1.4-2 2.6-2.9 3.9-0.7 1.1-1.4 2.2-1.5 3.5-0.1 0.8 0.4 1.5 1 2 0.9 0.8 2 1.3 2.9 2.1 1.1 0.8 1.9 1.8 2.9 2.8 0.9 0.9 1.8 1.8 2.6 2.7 0.3 0.4 0.6 0.7 0.7 1.2-0.1 0.1-0.2 0.2-0.4 0.2-0.9 0.1-1.8 0.1-2.7 0.2-0.5 0-0.9 0.1-1.4-0.1-0.2-0.2-0.4-0.5-0.5-0.8-0.3-0.5-0.7-0.9-1.1-1.3-2-1.9-4.1-3.6-6.2-5.4-0.7-0.6-1.4-1.2-2.1-1.7s-1.5-1.1-2.1-1.8c-0.3-0.4-0.6-0.9-0.5-1.4s0.4-0.8 0.7-1.2c1-1.4 1.9-2.8 2.5-4.3 0.4-0.9 0.6-1.8 0.6-2.8 0-0.5-0.2-1.1-0.7-1.3-0.4-0.2-0.7-0.5-1.1-0.6s-0.9-0.2-1.1 0.1-0.2 0.7-0.4 1.1c-0.3 0.6-0.7 1.1-1 1.8-0.6 1.2-0.9 2.5-1.4 3.7-0.6 1.3-1.2 2.6-1.9 3.9-0.3 0.7-0.7 1.3-0.9 2.1-0.5 1.8-0.6 3.7-0.5 5.5s0.5 3.7 1.1 5.4c0.4 1.3 1.1 2.5 2 3.5-0.3 0.3-0.7 0.2-1.1 0.3-0.9 0-1.8 0-2.6-0.1-0.3-0.9-0.7-1.8-0.8-2.8-0.2-0.7-0.1-1.5-0.3-2.2-0.3-1.7-0.9-3.3-1.5-4.9-0.5-1.1-1-2.2-1.6-3.2-0.5-0.7-0.7-1.7-0.6-2.5 0.2-1.6 1.2-2.9 2-4.3s1.5-2.9 1.7-4.5c0.1-1.1-0.2-2.1-0.8-3-0.9-1.3-1.9-2.5-2.7-3.9-0.5-0.9-0.9-1.9-1-2.9-0.1-1.2 0.1-2.4 0.1-3.5 0-0.2 0-0.6-0.3-0.7-0.6 0.2-1.1 0.8-1.5 1.2-1.2 1.5-2.2 3.1-3.1 4.8-0.8 1.3-1.9 2.4-2.7 3.7-0.9 1.3-1.5 2.8-1.8 4.4-0.5 2.2-1.4 4.2-2.5 6.1-0.7 1.2-1.4 2.4-2.3 3.4-0.3 0.3-0.6 0.6-1 0.8 0-0.4 0.1-0.8-0.3-1.1-0.2 0.1-0.5 0.3-0.7 0.4 0.1-0.3 0.2-0.7 0.1-1s-0.3-0.5-0.6-0.6c-0.5-0.3-0.9 0.2-1.4 0.1-0.3 0.4-0.3 0.9-0.4 1.3-0.3-0.5-0.3-1.2-0.2-1.7 0.1-0.3 0.4-0.6 0.6-0.8 0.2-0.3 0.2-0.7 0.3-1.1-0.1-0.2-0.3-0.3-0.5-0.3-0.4 0-0.7 0.3-1 0.5-0.4 0.2-0.8 0.1-1.2 0.3-0.1 0-0.2 0.1-0.1 0.2 0.4 0.3 0.9 0.5 1.4 0.7-0.3-0.1-0.6-0.1-1-0.1 0 0-0.1-0.1-0.1-0.2-0.2 0-0.5 0-0.7-0.1-0.1-0.1-0.1-0.3-0.1-0.5-0.2-0.1-0.3-0.1-0.5-0.2 0-0.1-0.1-0.2-0.1-0.4-0.5-0.2-0.6-1-0.2-1.2 0.3-0.1 0.7-0.2 1.1-0.3-0.2-0.8-1-1.2-1.5-1.8 0.2-0.2 0.6-0.1 0.9 0 0.5 0.1 0.7 0.6 1.2 0.6 1 0.1 2 0 2.9-0.2 0.4-0.1 0.8-0.3 0.9-0.6 0.1-0.2-0.1-0.4-0.2-0.6-0.2-0.4-0.2-0.8-0.2-1.2 0.3 0.4 0.9 0.2 1.3 0-0.3-0.2-0.7-0.4-1-0.7-0.4-0.4-0.6-0.9-1.1-1.1-0.5-0.4-0.9-1.1-0.7-1.8 0.4-0.1 0.9-0.1 1.3-0.2-0.2-0.2-0.3-0.4-0.4-0.6-0.2 0-0.4 0.1-0.7 0.1 0.1-0.3 0.3-0.4 0.6-0.5-0.2-0.4-0.4-0.7-0.4-1.1 0 0 0.1 0 0.1-0.1l0.3 0.6c0.2 0.2 0.6 0.1 0.8-0.1 0.2-0.3-0.1-0.7-0.4-0.8-0.3-0.2-0.7-0.3-0.8-0.7-0.1-0.9-0.1-1.8 0.1-2.7 0.2 0.6 0.1 1.2 0.2 1.8s0.6 1.1 1.1 1.3c0.3 0.2 0.7-0.1 0.8-0.4-0.3-0.6-0.9-1.1-1.5-1.3 0.5 0 0.9 0.1 1.4-0.2 0.1-1.1 0.6-2.1 0.7-3.2 0 0.7 0.2 1.5-0.2 2.2 0.2 0.2 0.5 0.6 0.8 0.5 0.4-0.1 0.6-0.5 1-0.6 0.2-0.1 0.5-0.1 0.8-0.1-0.2-0.4-0.6-0.6-0.9-0.9 0.6 0.3 1.2 0.5 1.8 0.4 0-0.1-0.1-0.3-0.1-0.4h1c0-0.1-0.1-0.3-0.1-0.4 0.3-0.2 0.7-0.3 1.1-0.4-0.1-0.2-0.2-0.4-0.4-0.4-0.9-0.2-1.9-0.1-2.9-0.2 1.1-0.1 2.2-0.1 3.3-0.1 0.5 0 0.9-0.2 1.3-0.3-0.1-0.2-0.5-0.5-0.2-0.7 0.2-0.1 0.5-0.2 0.7-0.3-0.2-0.6-0.9-0.5-1.4-0.5 0.3-0.1 0.6-0.1 0.8-0.2s0.2-0.4 0.2-0.5c0.4 0 0.7 0.1 1.1 0.1 0-0.1-0.1-0.3-0.1-0.4 0.1-0.1 0.2-0.1 0.2-0.2 0.2 0 0.5 0 0.7-0.2 0-0.4 0-0.8-0.1-1.1 0.2 0 0.4 0.1 0.6-0.1 0-0.2-0.1-0.4-0.1-0.6 0.3 0 0.6 0 0.9-0.2 0.1-0.1 0.2-0.3 0.3-0.4 0.6 0 1.1 0 1.7-0.2 0.6-0.3 1.2 0.3 1.8 0 0.3-0.2 0.7-0.1 1.1-0.1 0.2 0.1 0.5-0.1 0.6-0.3 0.3-0.6 1-0.8 1.4-1.4 0.1-0.3 0.1-0.7 0.2-1.1 0.2-1 0.9-1.9 1.3-2.8s0.6-1.9 1.1-2.8c0.8-1.5 2-2.7 3.3-3.6 2.9-2 5.6-4.1 7.9-6.8 0.7-0.9 1.4-1.8 1.8-2.9 0.5-1.5 1.1-2.9 1.6-4.3 0.5-1.3 1-2.6 1.1-4 0-0.5 0.1-1.1-0.2-1.6-0.6 0.2-1.1 0.6-1.8 0.5 0.5-0.1 0.8-0.7 0.9-1.2s0.1-1-0.2-1.4c-0.2-0.4-0.8-0.1-0.9-0.6v-1.6c0-0.4 0.3-0.7 0.5-1-0.1-0.3-0.4-0.2-0.6-0.2-0.6-0.1-1.1 0.2-1.5 0.4 0.3-0.6 1.2-0.6 1.5-1.1-0.2-0.6-0.9-0.3-1.3-0.3 0.3-0.1 0.5-0.3 0.8-0.4-0.5-0.2-1-0.2-1.5-0.3 0.8-0.2 1.3-0.8 1.8-1.4 0.5-0.5 0.1-1.4-0.5-1.5-0.6 0.2-0.5 0.9-0.6 1.4-0.5-0.7-0.1-1.5 0-2.2-0.4 0.4-0.7 0.9-1.1 1.3 0.2-0.7 0.6-1.3 1.1-1.8-0.1-0.5-0.3-0.9-0.6-1.4 0.3 0.2 0.5 0.4 0.9 0.5 0.3 0 0.5-0.4 0.6-0.6 0.1-0.3 0.1-0.8-0.2-1-0.4 0.1-0.7 0.5-1.1 0.7 0.2-0.7 0.8-1.1 1.4-1.5-0.3-0.2-0.7-0.2-1-0.4 0.4 0 0.8 0.1 1.1-0.1-0.2-0.3-0.5-0.6-0.3-1 0.2-0.3 0.5-0.4 0.7-0.7 0.2-0.2 0.2-0.6 0.3-0.9 0-0.3-0.2-0.6-0.1-0.9 0.1-0.2 0.3-0.4 0.4-0.6-0.1-0.2-0.4-0.4-0.5-0.6 0.3-0.2 0.7-0.4 0.9-0.8 0.2-0.3-0.3-0.6-0.6-0.5-0.4 0.2-0.5 0.6-0.6 1 0-0.6 0.1-1.4 0.7-1.8 0.3-0.2 0.5-0.5 0.7-0.7 0.1-0.3 0-0.6 0-0.9 0.4-0.3 0.7-0.8 0.8-1.3 0-0.2-0.3-0.2-0.4-0.3 0.5-0.1 1-0.3 1.4-0.6-0.3-0.3-0.1-0.6 0-1-0.2-0.1-0.4-0.2-0.6-0.2 0.1-0.4 0.4-0.6 0.7-0.9-0.4-0.3-0.9-0.1-1.3-0.2 0.6-0.2 1.3-0.3 2-0.3 0-0.2 0-0.6 0.2-0.7 0.4-0.3 0.9-0.1 1.3-0.4-0.2-0.4-0.5-0.6-0.8-0.8 0.5 0 1.2 0.2 1.7-0.1 0.2-0.4 0.7-0.1 1-0.2 0.2 0 0.2-0.2 0.2-0.3 0-0.3-0.3-0.6-0.5-0.8 0.4 0.2 0.9 0.5 1.3 0.3 0.3-0.1 0.3-0.4 0.5-0.6 0.1-0.1 0.3-0.1 0.4-0.2 0.1-0.3 0-0.8-0.2-1-0.3-0.3-0.8-0.3-1.2-0.4 0.8-0.1 1.6 0.1 2.3 0.5 1.3-0.9 2.4-2 3.8-2.7 0.2 0.1 0.4 0.3 0.5 0.4-0.3-0.8 0-1.2 0.3-1.7zm16.4 32.9c-0.8 0.3-1.3 0.9-1.8 1.6-0.5 0.8-1.2 1.4-1.7 2.2-0.1 0.2-0.3 0.4-0.2 0.6 0.4 0.1 0.6-0.4 1-0.5 0.3-0.1 0.6 0.1 0.8 0.2 0.4-0.1 0.6-0.4 0.9-0.6 0.4-0.3 0.9-0.2 1.3-0.2 0.3 0 0.7-0.2 0.9-0.4 0.4-0.3 0.1-0.9-0.1-1.2-0.3-0.5-0.2-1.1-0.6-1.5-0.1-0.2-0.3-0.2-0.5-0.2zm8.9 16.6c0.1 0.6 0.1 1.2-0.1 1.8-0.1 0.3-0.5 0.5-0.4 0.9s0.3 0.8 0.7 1c0.5 0.1 1 0.3 1.3 0.6 0.5 0.4 1 0.9 1.6 0.8 0.4 0 0.7-0.4 0.9-0.8 0.2-0.5 0.4-1.1 0.2-1.7-0.2-0.4-0.8-0.2-1.1-0.5s-0.7-0.5-1.1-0.7c0.4-0.5 1-0.2 1.5 0-0.5-0.4-1.1-0.7-1.7-1.1-0.5-0.3-1.2-0.4-1.8-0.3zm-34 57.5c0 0.3 0 0.6 0.2 0.7 0.4 0.4 0.9 0.3 1.3 0.4 0.6 0.2 1.1 0.5 1.7 0.6 0.2 0 0.4 0 0.5-0.2 0.1-0.6 0.1-1.2 0.1-1.8-1-0.1-2.1 0-3.1-0.1-0.2 0.1-0.5 0.2-0.7 0.4zm-17.6 4.3c0.8-0.1 1.6-0.1 2.4 0 0.7 0.1 1.4 0.3 1.8 0.9 0.1 0.2 0.3 0.7 0 0.8-0.4 0.1-0.7 0-1.1 0.1h-2.4c-0.5-0.1-1.1-0.5-1-1.1-0.1-0.3 0-0.6 0.3-0.7z" fill="#bcbbbc"/>
  <path class="st1" d="m0 47.2h204.3v4.4h-204.3v-4.4zm309.3 0h105.6v4.4h-105.6v-4.4zm-20.7 13.5h11.4c3.9 7.4 7.8 14.7 11.6 22.1 2.1-3.9 4.2-7.7 6.2-11.6 1.9-3.5 3.8-7 5.6-10.5h10.8v2.9h-4.5v29h4.5v2.9h-14.5v-2.9h4.5v-19.1c0-1.1 0-2.3 0.1-3.4 0.1-1.7 0.1-3.5 0.2-5.2-0.1 0-0.3 0.1-0.4 0.1-0.5 1.1-0.9 2.3-1.4 3.4-0.4 0.8-0.6 1.6-1 2.4-3.3 5.8-6.6 11.6-9.8 17.4h-3.1c-3.3-6-6.6-11.9-9.9-17.9-0.8-1.9-1.5-3.9-2.2-5.8h-0.4c0 3.2 0.1 6.5 0 9.7v18.5h4.3v2.9h-12.1v-2.9h4.5v-29h-4.5c0.1-1.1 0.1-2.1 0.1-3zm-99.1 1h5.7v3.9c1 0.7 2.3 0.7 3.5 0.8 1.3 0 2.7 0 4-0.6v-4.1h5.5v2.6c0 0.9-0.6 1.6-1.2 2.2-1.3 1-2.9 1.5-4.5 1.9-2.5 0.5-5.2 0.5-7.7-0.2-1.4-0.4-2.9-1-4-2-0.6-0.5-1.3-1.2-1.2-2.1-0.1-0.7-0.1-1.5-0.1-2.4zm-180.5 4.3v-2.9h14.3v2.9h-4.1v12.8h3.1c3.6-4.3 7.1-8.6 10.7-12.8h-3.9v-2.9h12.3v2.9h-3.9c-3.9 4.4-7.8 8.8-11.7 13.2 4.6 5.2 9.2 10.5 13.9 15.8h3.1v2.9h-8.1c-4-5.1-8.1-10.2-12.1-15.3-0.3-0.4-0.6-0.8-0.9-1.1h-2.5v13.5h4.1v2.9h-14.3v-2.9h4.5v-28.9c-1.5-0.1-3-0.1-4.5-0.1zm375.5 3.8c1.8-0.9 4-1.1 6-0.8 2.1 0.2 4.1 1 5.6 2.5 1.8 1.7 2.5 4.1 2.8 6.4 0.3 2.5 0.4 5.1-0.1 7.7-0.4 1.9-1.1 3.7-2.1 5.3-1.2 1.7-2.8 3.1-4.8 4s-4.3 1.2-6.5 1.2c-1.3 0-2.6-0.1-3.9-0.5-0.4-0.1-0.7-0.3-1.1-0.4v7.7h3.6v2.6h-12.6v-2.6h3.7v-30.8h-3.7v-2.6h9v5c1-2 2.3-3.8 4.1-4.7zm-1.6 3.9c-0.8 0.7-1.3 1.6-1.8 2.6-0.3 0.7-0.6 1.5-0.6 2.3v13.9c1.5 1 3.4 1 5.1 1.1 1.4 0 2.7-0.3 3.9-1.1 1.6-1.1 2.7-2.9 3.2-4.8 0.8-2.5 0.9-5.2 0.7-7.8-0.1-1.4-0.4-2.7-0.9-4s-1.5-2.4-2.7-3c-1.1-0.6-2.4-0.6-3.6-0.6-1.2 0.1-2.4 0.5-3.3 1.4zm-45.1-4.4h12v2.6h-3.3v13.1c0 1.3 0 2.5-0.1 3.8 0 1.2-0.2 2.4-0.2 3.6 0.3-0.1 0.3-0.4 0.4-0.7 0.6-1.3 1.1-2.6 1.7-3.9 3.2-6.2 6.5-12.4 9.7-18.5h9.7v2.6h-3.6v20.9h3.6v2.6h-12v-2.6h3.2v-15.8c0.2-1.7 0.4-3.4 0.5-5.1-0.2 0.1-0.3 0.3-0.4 0.5-0.6 1.5-1.2 3-1.9 4.4-3.3 6.2-6.6 12.3-9.9 18.5h-9.7v-2.6h3.7v-20.9h-3.7c0.3-0.7 0.3-1.6 0.3-2.5zm-283.9 2.1c-2.4 0.3-4.9 1.1-6.7 2.7-1.7 1.4-2.9 3.3-3.5 5.4-0.7 2.2-0.8 4.6-0.7 6.9 0.2 1.9 0.6 3.9 1.4 5.6s2.1 3.1 3.6 4.1c1.9 1.3 4.2 1.9 6.5 2.1 2.1 0.2 4.3 0 6.4-0.6 1.5-0.5 3-1.2 4.2-2.2s2.1-2.2 2.8-3.6c1-2.1 1.4-4.4 1.4-6.7 0-2.2-0.2-4.4-0.9-6.4-0.6-1.8-1.6-3.4-3.1-4.7-1.8-1.5-4-2.4-6.3-2.7-1.7 0-3.4-0.1-5.1 0.1zm0.4 2.4c1.9-0.3 4 0 5.6 1.1 1.4 0.9 2.2 2.4 2.8 3.9 0.5 1.5 0.8 3.2 0.8 4.8 0.1 2.5 0 5-0.8 7.4-0.6 1.8-1.7 3.4-3.4 4.3-1.3 0.7-2.8 0.7-4.2 0.4-2-0.3-3.8-1.6-4.8-3.3-1.2-1.9-1.5-4.1-1.7-6.3-0.1-2.2 0-4.4 0.5-6.5 0.3-1.4 0.9-2.8 1.9-3.9 0.8-0.9 2-1.6 3.3-1.9zm19.2-2h12.2v2.6h-3.3v8.8h12v-8.8h-3.3v-2.6h12.2v2.6h-3.7v20.9h3.7v2.6h-12.2v-2.6h3.3v-9.2h-12v9.2h3.3v2.6h-12.2v-2.6h3.7v-20.9h-3.7v-2.6zm34.1 0h12.2v2.6h-3.2v8.8h12v-8.8h-3.2v-2.6h12.2v2.6h-3.7v20.9h3.7v2.6h-12.2v-2.6h3.2v-9.2h-12v9.2h3.2v2.6h-12.2v-2.6h3.6v-20.9h-3.6v-2.6zm34 0h12.2v2.6h-3.3v7.9c1.3-0.1 2.6-0.4 3.9-0.4s2.5-0.1 3.8 0.1c1.9 0.3 3.9 1 5.2 2.4 1.5 1.6 1.9 4 1.7 6.1-0.2 2-1.2 4-2.9 5.2-1.6 1.3-3.6 1.9-5.7 2.1-2.9 0.3-5.8 0-8.6-0.1h-6.4v-2.6h3.7v-20.9h-3.7c0.1-0.7 0.1-1.6 0.1-2.4zm9 12.8v10.8c1.3 0.1 2.6 0.3 4 0.1 1.2-0.1 2.4-0.5 3.3-1.3 0.8-0.7 1.3-1.7 1.5-2.8 0.2-1 0.2-2 0.1-3-0.2-1.3-0.9-2.5-2.1-3.2-0.9-0.6-2-0.8-3.1-0.9-1.2 0-2.5 0.1-3.7 0.3zm16.3-12.8h12.3v2.6h-3.7v20.9h3.7v2.6h-12.2v-2.6h3.3v-20.9h-3.3c-0.1-0.9-0.1-1.8-0.1-2.6zm16.4 0h12v2.6h-3.3v13.3c0 2.4-0.2 4.8-0.3 7.2 0.2 0 0.3-0.3 0.3-0.4 0.5-1.2 1-2.3 1.5-3.5 0.3-0.7 0.7-1.3 1-2 3-5.7 6-11.5 9-17.2h9.7v2.6h-3.7v20.9h3.7v2.6h-12v-2.6h3.3v-13.8c0-1-0.1-1.9 0.1-2.9 0.1-1.4 0.3-2.8 0.4-4.2-0.1 0-0.2 0.1-0.2 0.2-0.9 2-1.6 4.2-2.8 6.1-3.1 5.7-6.2 11.5-9.2 17.2h-9.6v-2.6h3.7v-20.9h-3.7c0.1-0.9 0.1-1.8 0.1-2.6zm-183.3 43.4h414.9v4.4h-414.9v-4.4z" fill="#4b79bb"/>
 </g>
</svg>
