<svg version="1.1" viewBox="0 0 141 45.004" xmlns="http://www.w3.org/2000/svg">
 <defs>
  <radialGradient id="b" cx="72.317" cy="59.312" r="61.768" gradientUnits="userSpaceOnUse">
   <stop stop-color="#7DC0EA" offset="0"/>
   <stop stop-color="#78BFE2" offset="0"/>
   <stop stop-color="#74BEDD" offset="0"/>
   <stop stop-color="#73BEDC" offset="0"/>
   <stop stop-color="#3D92C4" offset=".2328"/>
   <stop stop-color="#2887BF" offset=".3006"/>
   <stop stop-color="#2A84BA" offset=".393"/>
   <stop stop-color="#2B7BAE" offset=".4971"/>
   <stop stop-color="#2B6C9C" offset=".6069"/>
   <stop stop-color="#295B86" offset=".7199"/>
   <stop stop-color="#254871" offset=".8221"/>
   <stop stop-color="#254972" offset=".8669"/>
   <stop stop-color="#254D76" offset=".8998"/>
   <stop stop-color="#25527C" offset=".9289"/>
   <stop stop-color="#265A84" offset=".9557"/>
   <stop stop-color="#246591" offset=".9808"/>
   <stop stop-color="#20709F" offset="1"/>
  </radialGradient>
  <radialGradient id="a" cx="72.317" cy="59.313" r="61.767" gradientUnits="userSpaceOnUse">
   <stop stop-color="#7DC0EA" offset="0"/>
   <stop stop-color="#78BFE2" offset="0"/>
   <stop stop-color="#74BEDD" offset="0"/>
   <stop stop-color="#73BEDC" offset="0"/>
   <stop stop-color="#3D92C4" offset=".2328"/>
   <stop stop-color="#2887BF" offset=".3006"/>
   <stop stop-color="#2A84BA" offset=".393"/>
   <stop stop-color="#2B7BAE" offset=".4971"/>
   <stop stop-color="#2B6C9C" offset=".6069"/>
   <stop stop-color="#295B86" offset=".7199"/>
   <stop stop-color="#254871" offset=".8221"/>
   <stop stop-color="#254972" offset=".8669"/>
   <stop stop-color="#254D76" offset=".8998"/>
   <stop stop-color="#25527C" offset=".9289"/>
   <stop stop-color="#265A84" offset=".9557"/>
   <stop stop-color="#246591" offset=".9808"/>
   <stop stop-color="#20709F" offset="1"/>
  </radialGradient>
 </defs>
 <g transform="translate(425.93 -352.49)">
  <g transform="matrix(.62635 0 0 .62635 -457.74 324.68)" fill="#fff">
   <path d="m134.77 79.124c0-0.539 0.328-0.598 0.598-0.598h2.873c0.539 0 0.6 0.329 0.6 0.598v8.618c0 1.405-0.061 0.778-0.121 4.188h0.121c0.478-1.196 1.524-3.65 1.974-4.637l3.771-8.138c0.179-0.39 0.238-0.629 0.777-0.629h2.843c0.539 0 0.599 0.329 0.599 0.598v19.301c0 0.27-0.06 0.597-0.599 0.597h-2.872c-0.539 0-0.6-0.327-0.6-0.597v-9.517c0-0.809 0.061-2.244 0.119-3.289h-0.119c-0.747 2.093-1.227 3.05-1.674 4.009l-4.131 8.887c-0.148 0.327-0.24 0.507-0.688 0.507h-2.873c-0.539 0-0.598-0.327-0.598-0.597z"/>
   <path d="m158.39 87.712c0 1.766-0.031 3.382-0.15 4.966-0.121 1.646-0.359 3.473-1.646 4.938-1.347 1.528-3.262 1.797-4.101 1.797-0.208 0-0.508-0.03-0.567-0.269l-0.659-2.365c-0.029-0.088-0.029-0.15-0.029-0.209 0-0.329 0.27-0.39 0.449-0.419l0.448-0.06c3.201-0.479 2.723-5.567 2.723-9.427v-3.381c0-0.328 0.149-0.478 0.479-0.478h9.216c0.24 0 0.45 0.118 0.45 0.478v15.261c0 0.269-0.06 0.478-0.45 0.478h-2.871c-0.301 0-0.51-0.118-0.51-0.478v-12.657h-2.781v1.825z"/>
   <path d="m174.38 87.712c0 1.766-0.029 3.382-0.148 4.966-0.121 1.646-0.359 3.473-1.646 4.938-1.346 1.528-3.262 1.797-4.1 1.797-0.209 0-0.508-0.03-0.568-0.269l-0.658-2.365c-0.031-0.088-0.031-0.15-0.031-0.209 0-0.329 0.271-0.39 0.449-0.419l0.449-0.06c3.201-0.479 2.723-5.567 2.723-9.427v-3.381c0-0.328 0.148-0.478 0.479-0.478h9.217c0.24 0 0.449 0.118 0.449 0.478v15.261c0 0.269-0.061 0.478-0.449 0.478h-2.873c-0.299 0-0.508-0.118-0.508-0.478v-12.657h-2.783v1.825z"/>
   <path d="m203.63 90.883c0 1.857-0.09 4.939-2.096 6.912-1.375 1.376-3.051 1.617-4.518 1.617-1.525 0-3.141-0.269-4.488-1.735-1.348-1.437-1.795-3.591-1.855-5.565h-1.885v6.433c0 0.39-0.15 0.478-0.479 0.478h-2.873c-0.391 0-0.479-0.148-0.479-0.478v-15.262c0-0.328 0.088-0.478 0.479-0.478h2.873c0.418 0 0.479 0.299 0.479 0.478v5.986h1.914c0.061-1.316 0.42-3.262 1.557-4.698 1.316-1.678 3.111-2.156 4.818-2.156 6.194 0 6.553 5.446 6.553 8.468zm-9.098 0.032c0 3.679 0.748 5.475 2.545 5.475 1.795 0 2.543-1.796 2.543-5.475 0-3.682-0.748-5.478-2.543-5.478-1.797 1e-3 -2.545 1.796-2.545 5.478z"/>
   <path d="m208.34 89.716c0-0.209 0-0.447 0.479-0.447h0.898c0.928 0 2.453-0.329 2.453-1.916 0-0.628-0.357-1.945-2.244-1.945-1.525 0-2.482 1.138-3.201 1.138-0.119 0-0.211-0.062-0.27-0.181l-0.838-1.525c-0.09-0.151-0.15-0.269-0.15-0.388 0-0.66 2.305-2.037 4.969-2.037 1.676 0 5.297 0.72 5.297 4.49 0 1.677-0.809 2.871-2.215 3.532 2.395 0.746 2.723 2.78 2.723 3.917 0 1.107-0.18 2.425-1.258 3.503-1.436 1.438-3.65 1.556-4.758 1.556-1.764 0-5.145-0.6-5.145-1.767 0-0.088 0-0.149 0.059-0.238l0.928-1.825c0.09-0.211 0.24-0.27 0.359-0.27s0.238 0.059 0.328 0.12l0.449 0.267c0.449 0.271 1.436 0.72 2.662 0.72 1.887 0 2.604-1.048 2.604-2.213 0-1.496-0.986-2.095-2.543-2.095h-1.107c-0.449 0-0.479-0.271-0.479-0.479z"/>
   <path d="m219.39 83.283c0-0.328 0.148-0.478 0.479-0.478h2.604c0.328 0 0.479 0.088 0.479 0.478v6.525c0 1.375 0 2.153-0.09 3.438h0.09c0.598-1.644 1.047-2.603 1.584-3.65l3.324-6.402c0.09-0.15 0.238-0.389 0.598-0.389h2.873c0.389 0 0.479 0.149 0.479 0.478v15.261c0 0.329-0.15 0.478-0.479 0.478h-2.604c-0.33 0-0.479-0.088-0.479-0.478v-7.212c0-0.629 0.059-2.124 0.088-2.722h-0.088c-0.48 1.525-0.809 2.154-1.316 3.172l-3.502 6.791c-0.09 0.15-0.268 0.448-0.658 0.448h-2.902c-0.33 0-0.479-0.088-0.479-0.478v-15.26z"/>
   <path d="m241.44 99.412c-4.34 0-6.463-2.872-6.463-8.738 0-3.92 1.285-8.259 6.553-8.259 4.309 0 6.523 2.814 6.523 8.259 1e-3 5.775-2.214 8.738-6.613 8.738zm0.09-13.974c-1.527 0-2.574 1.615-2.574 5.536 0 3.92 1.018 5.416 2.574 5.416 1.496 0 2.514-1.525 2.514-5.507 0-3.979-0.959-5.445-2.514-5.445z"/>
   <path d="m262.8 99.021h-2.574c-0.537 0-0.629-0.118-0.629-0.627v-6.283h-4.547v6.283c0 0.509-0.18 0.627-0.688 0.627h-2.484c-0.537 0-0.658-0.118-0.658-0.627v-14.991c0-0.479 0.121-0.598 0.658-0.598h2.484c0.508 0 0.688 0.118 0.688 0.598v5.805h4.547v-5.805c0-0.479 0.092-0.598 0.629-0.598h2.574c0.539 0 0.627 0.118 0.627 0.598v14.992c0 0.508-0.088 0.626-0.627 0.626z"/>
   <path d="m272.61 91.854c0 0.596-0.24 0.507-0.51 0.507h-1.975c-0.598 0-0.508-0.239-0.508-0.507v-2.772h-2.771c-0.6 0-0.508-0.239-0.508-0.507v-1.976c0-0.6 0.357-0.511 0.508-0.511h2.771v-2.769c0-0.598 0.238-0.51 0.508-0.51h1.975c0.27 0 0.51-0.088 0.51 0.51v2.769h2.77c0.27 0 0.508-0.089 0.508 0.511v1.976c0 0.268 0.092 0.507-0.508 0.507h-2.77z"/>
  </g>
  <g transform="matrix(.62635 0 0 .62635 -457.74 324.68)">
   <path d="m119.08 95.541-2e-3 -6e-3c-4.73 3.089-11.504 4.593-16.023 4.923-4.611 0.337-9.737-1.025-12.265-2.867-2.123-1.547-2.595-1.283-4.942-0.28-3.44 1.468-9.441 3.727-14.203 1.831-4.761-1.896-7.379-7.537-4.423-13.734 2.79-5.852 6.404-11.039 7.541-12.681 1.139-1.644 2.437-4.963-1.432-4.677-2.865 0.21-7.289 3.454-9.48 4.802-2.19 1.348-6.506 4.572-9.943 3.54-1.38-0.415-2.03-1.302-2.3-2.228l-1e-3 2e-3c-0.057-0.221-0.261-0.213-0.304-0.014-0.347 2.002-0.529 4.061-0.529 6.162 0 19.84 16.083 35.926 35.924 35.926 14.367 0 26.761-8.437 32.509-20.621 0.021-0.073-0.013-0.153-0.127-0.078z" fill="url(#b)"/>
   <path d="m59.199 65.484c4.724 1.234 10.797-1.588 17.544-4.111 6.748-2.525 11.248-2.536 13.833-2.3 3.007 0.273 8.7 3.251 2.587 10.008-5.295 5.854-8 11.402-8.788 13.989-0.788 2.586-0.66 5.466 0.578 6.704 1.237 1.238 3.711-0.112 4.948-3.374 1.236-3.261 4.153-11.252 8.211-14.619 3.923-3.256 6.754-3.072 9.055 0.278 2.469 3.595 2.885 8.255-0.172 11.866-3.607 4.266-6.521 9.899-1.91 10.911 4.609 1.012 9.791-2.346 12.482-5.175 3.164-3.324 5.629-8.47 4.496-15.712h2e-3c-3.006-16.805-17.694-29.56-35.363-29.56-12.889 0-24.189 6.789-30.528 16.985-0.816 1.588 0.545 3.459 3.025 4.11z" fill="url(#a)"/>
  </g>
 </g>
</svg>
