<svg width="584.28pt" height="327.16pt" version="1.1" viewBox="0 0 584.28 327.16" xmlns="http://www.w3.org/2000/svg">
 <defs>
  <linearGradient id="a" x1="65.715" x2="649.99" y1="479.14" y2="479.14" gradientUnits="userSpaceOnUse">
   <stop stop-color="#4ad39b" offset="0"/>
   <stop stop-color="#46bfd4" offset="1"/>
  </linearGradient>
 </defs>
 <g transform="translate(-65.715 -196.07)">
  <path d="m332.57 202.25c17.54-6.5 36.88-7.68 55.23-4.44 14.68 2.8 29.45 10.09 37.56 23.12 8.84 14.18 9.71 32.05 5.78 47.96-4.48 17.83-15.43 33.18-27.71 46.52-9.05 9.6-18.73 17.47-28.87 25.91h62.83c-0.06 12.66-0.07 25.35-0.01 38.02h-130.62v-25.44c16.42-14.58 33.505-28.56 48.215-44.94 9.24-10.47 17.76-21.93 22.87-35.03 3.09-9.04 4.7-19.2 1.46-28.43-3.25-8.79-13.93-11.81-22.45-10.6-12.09 0.93-22.52 8.17-31 16.36l-22.64-30.38c8.7-7.72 18.34-14.64 29.35-18.63z"/>
  <path d="m138.75 199.53h51.915v70.04h9.615l46.64-70.04h55.03l-58.82 81.38c12.95 14.97 18 35.05 30.88 50.06 4.49 5.31 11.73 6.83 18.39 6.45v41.925c-14.62-0.75-29.77 1.915-43.88-3.065-12.45-4.72-19.86-16.63-26.09-27.69-4.1-7.65-8.01-15.4-12.08-23.06-2.71-4.97-5.61-10.09-10.14-13.63-2.68-2.15-6.265-2.3-9.545-2.36v69.805h-51.915z"/>
  <path d="m536.93 199.48h44.14v109.13h26.655v36.105h-26.655v34.605h-48.59v-34.605h-82.235v-30.505l86.685-114.73m-39.37 109.13h36.045v-47.65z"/>
 </g>
 <g transform="translate(-65.715 -196.07)">
  <path d="m257.94 456.91c9.47-6.27 17.09-14.83 26.06-21.72 8.05 6.16 15.06 13.62 23.42 19.39 13.9 9.87 29.4 18.43 46.51 20.79 10.74 0.84 21.32-2.76 30.92-7.27 11.15-5.38 21.63-12.19 30.89-20.42 4.89-4.08 9.17-8.83 14.3-12.62 8.25 6.69 15.75 14.3 24.52 20.35 13.65 9.41 28.75 17.73 45.42 19.94 12.59 1.08 24.73-4.01 35.71-9.65 7.02-3.73 13.69-8.1 20.03-12.89 7.1-5.53 13.24-12.15 20.28-17.75 9.03 6.92 16.81 15.42 26.42 21.6 14.22 9.71 30.07 17.95 47.57 19v47.55c-25.36-0.45-49.68-10.75-70.57-24.54-1.32-0.85-2.94-2.14-4.47-0.93-17.77 11.99-37.73 21.57-59.14 24.54-14.84 2.44-30.06-0.06-44.23-4.68-14.04-4.53-27.16-11.56-39.45-19.65-1.17-1.1-2.75-0.58-3.87 0.27-18.13 12.03-38.46 21.81-60.3 24.27-16.14 2.18-32.52-1.14-47.67-6.7-11.88-4.55-23.17-10.55-33.79-17.54-1.16-0.99-2.91-1.26-4.13-0.2-15.99 10.79-33.74 19.55-52.76 23.33-13.27 2.64-27.05 2.24-40.18-0.96-17.76-4.19-34.27-12.49-49.44-22.48-2.14-1.75-4.32 0.69-6.12 1.74-17.12 11.23-36.31 20-56.74 22.74-3.81-0.02-7.755 1.67-11.415 0.07v-46.81c17.13-1.37 32.845-9.52 46.695-19.23 9.29-6.18 16.84-14.5 25.54-21.41 9.13 7.52 17.5 16 27.51 22.39 13.68 9.01 28.92 17.03 45.56 18.12 17.26-0.56 32.91-9.24 46.92-18.64z" fill="url(#a)"/>
 </g>
</svg>
