<svg enable-background="new 0 0 283.464 283.464" version="1.1" viewBox="0 0 233.86 142.3" xml:space="preserve" xmlns="http://www.w3.org/2000/svg"><g transform="translate(-24.802,-70.58)"><g fill="#282828"><polygon points="24.802 70.58 80.124 70.58 104.82 114.77 49.507 114.77"/><polygon points="24.802 165.41 80.124 165.41 104.82 121.22 49.507 121.22"/><polygon points="101.72 70.58 157.03 70.58 181.73 114.77 126.42 114.77"/><polygon points="101.72 165.41 157.03 165.41 181.73 121.22 126.42 121.22"/><polygon points="178.62 70.58 233.94 70.58 258.66 114.77 203.34 114.77"/><polygon points="178.62 165.41 233.94 165.41 258.66 121.22 203.34 121.22"/></g><g fill="#282828"><path d="m30.23 199.58h-1.129v9.378h-4.299v-21.956h4.299v9.727l1.005-0.442 6.053-9.284h4.895l-6.4 9.222-1.692 1.192 1.756 1.225 7.308 10.317h-5.302z"/><path d="m56.2 196.79 0.254-2.855h-0.16l-1.472 2.948-8.186 12.076h-3.23v-21.956h4.295v11.952l-0.313 2.948h0.188l1.538-3.045 8.186-11.855h3.2v21.956h-4.3z"/><path d="m76.997 199.77h-8.029v9.188h-4.298v-21.956h4.298v8.939h8.029v-8.939h4.296v21.956h-4.296z"/><path d="m84.18 197.98c0-3.657 0.804-6.477 2.413-8.454 1.608-1.976 3.91-2.962 6.901-2.962 1.567 0 2.936 0.271 4.108 0.815 1.171 0.543 2.143 1.318 2.917 2.319 0.772 1.004 1.349 2.209 1.726 3.608 0.376 1.4 0.561 2.958 0.561 4.673 0 3.659-0.807 6.479-2.429 8.453-1.62 1.974-3.915 2.967-6.883 2.967-1.59 0-2.97-0.273-4.141-0.819-1.171-0.541-2.139-1.316-2.897-2.319-0.769-1.006-1.337-2.206-1.713-3.609-0.376-1.399-0.563-2.957-0.563-4.672zm4.515 0c0 1.109 0.097 2.128 0.281 3.06 0.191 0.93 0.477 1.729 0.864 2.399 0.39 0.668 0.883 1.19 1.49 1.568 0.604 0.378 1.328 0.562 2.164 0.562 1.525 0 2.707-0.596 3.542-1.785 0.838-1.192 1.258-3.126 1.258-5.804 0-1.065-0.09-2.06-0.268-2.98-0.177-0.917-0.454-1.724-0.832-2.414s-0.868-1.229-1.475-1.616c-0.608-0.387-1.346-0.579-2.226-0.579-1.527 0-2.707 0.611-3.546 1.833-0.835 1.224-1.252 3.141-1.252 5.756z"/><path d="m120.44 208.07c-0.668 0.478-1.519 0.817-2.555 1.026-1.032 0.208-2.095 0.313-3.185 0.313-1.315 0-2.564-0.208-3.749-0.615-1.18-0.406-2.22-1.063-3.12-1.973-0.896-0.912-1.613-2.092-2.148-3.547-0.532-1.45-0.8-3.216-0.8-5.285 0-2.152 0.298-3.957 0.895-5.411 0.595-1.453 1.369-2.623 2.321-3.513 0.953-0.889 2.014-1.526 3.184-1.912 1.171-0.386 2.34-0.58 3.515-0.58 1.256 0 2.313 0.082 3.182 0.249 0.869 0.169 1.588 0.368 2.147 0.598l-0.845 3.638c-0.482-0.229-1.051-0.396-1.71-0.503-0.657-0.103-1.459-0.155-2.398-0.155-1.738 0-3.132 0.616-4.189 1.853-1.056 1.236-1.581 3.157-1.581 5.751 0 1.136 0.12 2.165 0.373 3.096 0.254 0.935 0.634 1.733 1.147 2.393 0.512 0.657 1.148 1.173 1.913 1.539 0.761 0.365 1.646 0.548 2.649 0.548 0.94 0 1.735-0.092 2.385-0.279 0.646-0.189 1.213-0.432 1.696-0.722z"/><path d="m137.88 192.12c0 0.546-0.069 1.088-0.205 1.634-0.134 0.539-0.36 1.039-0.669 1.488-0.313 0.45-0.719 0.846-1.217 1.192-0.5 0.343-1.101 0.601-1.809 0.769v0.186c0.629 0.107 1.217 0.286 1.781 0.536 0.561 0.25 1.051 0.594 1.466 1.035 0.417 0.438 0.744 0.971 0.983 1.599 0.24 0.627 0.357 1.37 0.357 2.229 0 1.13-0.239 2.106-0.719 2.933-0.481 0.825-1.127 1.501-1.934 2.021-0.804 0.524-1.714 0.91-2.742 1.159-1.022 0.25-2.08 0.378-3.166 0.378h-1.366c-0.553 0-1.152-0.018-1.788-0.047-0.636-0.033-1.285-0.081-1.942-0.145-0.659-0.06-1.263-0.154-1.804-0.279v-21.642c0.396-0.064 0.85-0.126 1.361-0.19 0.514-0.062 1.063-0.113 1.647-0.156 0.586-0.042 1.189-0.074 1.805-0.092 0.617-0.022 1.228-0.032 1.834-0.032 1.025 0 2.025 0.079 2.998 0.235 0.97 0.157 1.839 0.434 2.604 0.829 0.763 0.398 1.371 0.955 1.836 1.663 0.459 0.71 0.689 1.609 0.689 2.697zm-9.189 4.109c0.292 0 0.631-0.01 1.019-0.031 0.385-0.021 0.705-0.052 0.961-0.093 0.79-0.247 1.475-0.62 2.051-1.119 0.573-0.494 0.861-1.146 0.861-1.954 0-0.539-0.105-0.98-0.311-1.334-0.213-0.353-0.489-0.632-0.832-0.836-0.346-0.21-0.737-0.355-1.18-0.437-0.438-0.081-0.901-0.125-1.378-0.125-0.547 0-1.044 0.013-1.507 0.033-0.459 0.019-0.816 0.049-1.065 0.092v5.804zm1.359 9.442c0.512 0 1.012-0.063 1.491-0.187 0.483-0.125 0.912-0.314 1.28-0.573 0.371-0.26 0.666-0.589 0.893-0.981 0.226-0.394 0.338-0.856 0.338-1.396 0-0.683-0.131-1.223-0.398-1.613-0.268-0.394-0.62-0.698-1.048-0.916-0.432-0.217-0.913-0.358-1.45-0.419-0.532-0.063-1.066-0.095-1.601-0.095h-2.245v5.994c0.1 0.039 0.266 0.07 0.491 0.092 0.229 0.021 0.468 0.036 0.724 0.048 0.258 0.01 0.525 0.021 0.8 0.031 0.281 0.012 0.52 0.015 0.725 0.015z"/><path d="m154.81 196.79 0.254-2.855h-0.158l-1.471 2.948-8.188 12.076h-3.231v-21.956h4.296v11.952l-0.313 2.948h0.186l1.539-3.045 8.186-11.855h3.197v21.956h-4.297z"/><path d="m182.16 212.88h-3.039l-0.475-3.922h-14.113l-0.471 3.922h-3.043v-7.747h2.322c0.146-0.231 0.387-0.743 0.721-1.539 0.334-0.791 0.67-1.917 1.002-3.372 0.338-1.452 0.619-3.272 0.848-5.456 0.234-2.186 0.338-4.772 0.314-7.764h13.145v18.131h2.789zm-7.088-7.747v-14.302h-4.861c-0.125 3.721-0.42 6.769-0.895 9.142-0.471 2.373-0.945 4.093-1.426 5.16z"/><path d="m195.34 204.1h-6.746l-1.658 4.859h-4.299l7.9-22.111h3.17l7.908 22.111h-4.518zm-5.646-3.448h4.707l-1.633-4.897-0.656-3.45h-0.16l-0.656 3.483z"/><path d="m215.76 199.77h-8.033v9.188h-4.293v-21.956h4.293v8.939h8.033v-8.939h4.299v21.956h-4.299z"/><path d="m237.02 196.79 0.244-2.855h-0.154l-1.475 2.948-8.188 12.076h-3.227v-21.956h4.299v11.952l-0.318 2.948h0.189l1.539-3.045 8.182-11.855h3.203v21.956h-4.295v-12.169z"/><path d="m245.49 187.01h13.016v3.829h-8.723v5.11h7.936v3.828h-7.936v5.363h8.877v3.825h-13.17z"/></g></g></svg>
