<svg width="307.41mm" height="114.56mm" version="1.1" viewBox="0 0 307.41 114.56" xmlns="http://www.w3.org/2000/svg">
 <defs>
  <linearGradient id="c" x1="-167.71" x2="-164.87" y1="497.89" y2="497.89" gradientTransform="matrix(0,-493.73,-493.73,0,245955,-81971)" gradientUnits="userSpaceOnUse">
   <stop stop-color="#efd620" offset="0"/>
   <stop stop-color="#e5a000" offset="1"/>
  </linearGradient>
  <clipPath id="d">
   <path width="100%" height="100%" d="m175.82 98.792h-174.96l-0.857 7.082h177.78c7.568-11.114 20.181-18.408 34.5-18.408 23.146 0 41.896 19.047 41.896 42.53 0 23.502-18.751 42.541-41.896 42.541-14.319 0-26.932-7.302-34.5-18.41h-6.862c7.461 13.15 20.832 22.426 36.427 24.067h9.875c24.033-2.517 42.779-23.143 42.779-48.198 0-26.741-21.368-48.44-47.719-48.44-14.642 0-27.708 6.692-36.462 17.236"/>
  </clipPath>
 </defs>
 <path transform="matrix(1.1823 0 0 1.1823 .00056408 -96.427)" d="m3e-3 81.556h260v96.639h-260z" clip-path="url(#d)" fill="url(#c)"/>
 <path d="m0.0050328 0.0085511h307.41v114.56h-307.41z" fill="none" stroke-width="1.1823"/>
 <g transform="matrix(1.1823 0 0 1.1823 -7.8153 -88.606)" fill="#fff">
  <path d="m127.02 107.98h7.193l-1.503 12.327h11.897l1.513-12.327h7.208l-3.93 31.943h-7.203l1.64-13.312h-11.908l-1.622 13.312h-7.214z"/>
  <path d="m244.67 132.67h-4.433l2.622-21.349h-10.793l-15.81 21.349h-8.854l0.031-0.121 3.811-2.895c6.066-4.838 11.175-9.846 11.952-16.128 0.835-6.821-3.165-11.77-11.704-11.77-5.017 0-9.679 1.716-12.7 3.86l1.717 6.225c2.147-1.442 5.163-3.06 8.395-3.06 4.314 0 5.811 2.428 5.444 5.478-0.605 4.39-5.095 8.599-14.25 15.983l-5.326 4.324-0.643 5.307h36.911l-1.088 8.938h8.297l1.098-8.938h4.451l0.796-6.575zm-10.877-14.648h0.179c-0.424 2.412-0.823 4.719-1.104 6.965l-0.94 7.684h-8.097l5.581-7.684c1.562-2.362 2.869-4.553 4.381-6.965"/>
  <path d="m27.079 107.98-10.404 13.321h-0.658l1.628-13.321h-7.108l-3.927 31.943h7.111l1.644-13.357h1.374c3.892 0 5.022 2.743 5.667 6.343 0.464 2.372 0.785 4.842 1.602 7.015h7.771c-1.123-3.162-1.739-6.629-2.463-10.05-0.855-3.839-2.356-6.678-6.354-7.669l12.887-14.224h-8.77z"/>
  <path d="m57.272 107.95-4.858 11.385c-1.136 2.733-1.929 4.878-2.525 6.242h-0.138c-0.468-1.941-0.908-3.888-1.532-6.105l-3.227-11.521h-8.095l8.029 22.18c0.17 0.521 0.215 0.944-0.091 1.512-0.795 1.419-2.448 2.937-4.675 2.937-1.085 0-1.786-0.094-2.386-0.24l-1.186 5.792c0.86 0.321 1.83 0.509 3.441 0.509 3.794 0 6.598-1.609 9.005-4.215 2.778-2.941 5.322-7.771 7.91-12.701l7.911-15.772h-7.583z"/>
  <path d="m86.146 121.68c-2.206-1.761-5.463-2.57-8.69-2.57-1.228 0-2.802 0.106-3.912 0.245l0.672-5.495h14.029l0.725-5.88h-21.185l-3.91 31.799c1.588 0.232 4.117 0.475 7.667 0.475 4.88 0 10.021-0.94 13.433-3.652 2.058-1.651 3.537-4.117 3.926-7.243 0.432-3.506-0.729-6.076-2.755-7.679m-4.844 7.815c-0.188 1.569-0.967 2.844-2.022 3.743-1.315 1.044-3.14 1.623-4.892 1.623-0.994 0-1.933-0.048-2.726-0.199l1.235-10.048c0.867-0.094 1.728-0.186 2.531-0.186 1.708 0 3.457 0.419 4.615 1.424 0.943 0.806 1.458 2.001 1.259 3.643"/>
  <path d="m103.32 107.98-13.674 31.943h7.486l3.224-8.194h9.195l1.458 8.194h7.772l-6.026-31.943zm-1.252 18.345 2.777-6.775c0.698-1.849 1.52-4.271 2.175-6.158h0.144c0.247 1.842 0.514 4.263 0.812 6.158l1.149 6.775z"/>
  <path d="m168.81 118.84c-1.324 0-2.906 0.143-3.92 0.276l1.372-11.13h-7.16l-3.903 31.799c1.586 0.232 4.158 0.475 7.761 0.475 4.931 0 10.403-0.94 13.862-4.08 1.765-1.604 3.04-3.876 3.418-6.965 0.868-7.11-4.564-10.375-11.43-10.375m3.804 10.718c-0.449 3.599-3.492 5.311-7.001 5.311-1.036 0-1.848-0.048-2.638-0.199l1.256-10.092c0.865-0.103 1.725-0.188 2.757-0.188 3.464-1e-3 6.076 1.509 5.626 5.168"/>
 </g>
 <g transform="matrix(.26973 0 0 .26973 59.819 78.542)" fill="#fff">
  <path d="m69.39 27.52c11.67-2.21 24.57-0.44 34.22 6.84 8.77 6.49 13.64 17.09 15.07 27.71 1.77 15.01-0.95 31.13-10.04 43.51-5.53 7.76-14.01 13.1-23.09 15.74-5.35 1.66-11.03 1.45-16.57 1.41-9.39 0.18-18.55-4.01-25.3-10.4-8.49-8.35-12.87-20.51-12.33-32.34-0.42-13.39 3.53-27.14 12.03-37.61 6.54-7.87 16.03-12.95 26.01-14.86m5.01 16.04c-4.93 0.7-9.5 3.34-12.74 7.1-5.24 6.26-7.75 14.33-8.81 22.31-0.89 8.23-0.66 17.14 3.76 24.42 3.43 6.05 10.58 9.34 17.4 9.05 7.28-0.18 14.05-4.62 17.67-10.84 6-10.26 6.85-22.62 5.67-34.2-0.84-4.92-2.87-9.79-6.44-13.36-4.37-4.03-10.73-5.36-16.51-4.48z"/>
  <path d="m139.7 29.8c8.93-1.97 18.16-2.54 27.29-2.18 9.41 0.59 19.41 3.21 26.01 10.37 6.52 6.68 7.55 16.92 5.68 25.69-1.87 8.73-8.29 15.88-16.06 19.97-9.72 4.82-20.85 5.27-31.49 4.55-1.44 11.02-2.93 22.05-3.93 33.12-6.52 0.37-13.05 0.26-19.56 0.08 3.24-29.51 7.16-58.95 10.6-88.44l0.31844-2.8932 1.1416-0.26683m16.75 14.28c-0.97 9.24-2.38 18.43-3.21 27.69 7.43 1.42 16.16 0.9 21.83-4.68 5.6-5.14 6.4-15.43 0.38-20.53-5.47-3.96-12.68-3.39-19-2.48z"/>
  <path d="m213.53 28.37 61.58-0.11c-0.28054 6.0358-1.2378 11.825-1.8641 17.037-13.907 0.37105-28.756 0.09893-40.866 0.13336-0.69 5.31-1.48 10.61-1.91 15.96 11.66-1.11 24.41-1.17 34.6 5.44 5.12 3.09 8.69 8.39 9.86 14.23 1.99 10.55-1.8 21.93-9.57 29.31-6.01 5.65-14.04 8.43-21.93 10.25-13.48 2.87-27.36 1.93-40.97 0.71 0.46-9.14 2.03-18.2 3.06-27.29 2.49-21.91 5.64-43.75 8.01-65.67m15.14 48.28-3.55 29.86c5.7369 0.38617 12.899 0.53279 17.47-1.8298 4.95-2.1 8.93-6.44 10.14-11.73 1.39-4.74 0.03-10.63-4.43-13.25-5.72-4.05-13.01-3.6-19.63-3.05z"/>
  <path d="m298.35 28.27 18.67 0.03-8.96 67.96 41.36-67.92 21.49-0.05-10.954 93.28h-18.686l8.53-65.64-39.37 65.64h-23.21z"/>
  <path d="m383.38 28.31 68.91-0.19-1.69 17.55-25.08 0.35-9.13 75.44-19.71-0.04 8.86-75.71-24.4-0.03z"/>
  <path d="m481.59 28.45 27.67 0.02 17.49 93.06-22.45 0.06-4.19-22.51c-0.23-2.02-2.74-1.3-4.08-1.5l-21.1 0.01c-1.7-0.36-2.26 1.49-2.8 2.65l-8.45 21.33-21.6-0.06 39.51-93.06m11.1 15.56-14.36 37.31 20.44 0.02z"/>
 </g>
</svg>
