<svg width="601pt" height="184.85pt" version="1.1" viewBox="0 0 601 184.85" xmlns="http://www.w3.org/2000/svg">
 <g transform="matrix(.40268 0 0 .40268 -12.808 -10.671)" fill="#c1291e">
  <path d="m1189.4 59.41c21.227-21.01 51.022-32.91 80.91-32.91 50.976 0 85.407 34.348 101.31 64.7 19.664 37.682 23.439 94.447-9.08 129.62l-171.08 182.89h-75.232l205.04-219.42c12.097-13.456 13.799-37.482 7.67-54.36-10.415-28.014-32.534-47.055-60.622-47.116-17.692 0-28.776 5.8621-39.862 15.598-19.598 19.766-23.403 36.269-22.166 61.113h-53.77c-1.7881-40.536 6.2976-69.533 36.88-100.12z"/>
  <path d="m1524.3 115.1v80.23l-143.58 152.22h143.58v138.02h-53.865v-81.855h-218.34z"/>
 </g>
 <g transform="matrix(.40268 0 0 .40268 -12.808 -10.671)" fill="#3c3c3c">
  <path d="m110.08 158.65h136.56v245.05h-52.96v-198.43l-42.815-0.05-14.288 82.63c-9.1553 47.657-17.353 120.46-76.148 120.46-8.1994 0-19.256-0.0412-26.144-4.0279l9.69-49.55c3.208 0.94352 6.4005 1.6547 10.255 1.626 23.74 0 29.514-52.106 32.705-68.506z"/>
  <path d="m280.12 158.65h146.44v46.56l-93.7-2.5e-4v49.225h79.805v46.395h-79.805v56.375h97.36v46.5h-150.1z"/>
  <path transform="scale(.75)" d="m606.99 211.54v326.74h70.832l0.0137-136.48h106.97v136.48h70.839v-326.74h-70.839v126.1h-106.97l1e-5 -126.1z" stroke-width="1.3333"/>
  <path transform="scale(.75)" d="m934.13 211.54v62.201h85.613v264.54h71.215v-264.54h85.613v-62.202z" stroke-width="1.3333"/>
  <path d="m901.28 158.65h77.7c55.439 0 87.95 9.2829 87.95 70.471 0 23.376-17.488 39.891-29.97 44.785 26.783 8.0163 42.26 24.334 42.26 55.325 0 56.854-41.436 74.475-91.28 74.475h-86.61m52.995-202.16v55.15h25.685c20.375 0 35.914-7.6532 35.914-27.575 0-19.111-11.299-27.574-28.47-27.574m-33.128 96.06v63.25h35.485c18.765 0 37.626-10.549 37.626-31.625 0-19.809-10.755-31.624-28.016-31.624z"/>
 </g>
</svg>
