<svg enable-background="new 0 0 841.89 595.28" version="1.1" viewBox="0 0 290.73 280.01" xml:space="preserve" xmlns="http://www.w3.org/2000/svg" xmlns:xlink="http://www.w3.org/1999/xlink"><g transform="translate(-275.58 -167.72)"><defs><path id="j" d="m349.7 199.99c-14.087 15.577-19.816 34.311-20.601 55.304 0.397 8.106 1.258 16.551 3.908 24.682 1.72 5.273 4.541 6.267 8.99 3.176 6.425-4.462 12.736-9.089 19.008-13.762 3.584-2.672 5.209-6.122 4.539-10.847-2.637-18.615-5.019-37.265-7.571-55.891-0.309-2.246-0.389-4.999-3.085-5.818-0.355-0.109-0.683-0.159-0.989-0.159-1.95 0-3.014 2.006-4.199 3.315"/></defs><clipPath id="i"><use width="100%" height="100%" overflow="visible" xlink:href="#j"/></clipPath><linearGradient id="h" x2="1" y1="595.28" y2="595.28" gradientTransform="matrix(54.321 -50.833 -50.833 -54.321 30580 32604)" gradientUnits="userSpaceOnUse"><stop stop-color="#338801" offset="0"/><stop stop-color="#57AC04" offset="1"/></linearGradient><polygon points="410.9 244.43 346.43 304.76 284.42 238.5 348.89 178.16" clip-path="url(#i)" fill="url(#h)"/></g><g transform="translate(-275.58 -167.72)"><defs><path id="g" d="m499.68 258.98c-15.75 11.985-31.489 23.984-47.248 35.957-3 2.283-4.645 5.155-4.6 9.048 1.299 7.872 2.513 15.758 3.923 23.605 1.239 6.903 3.759 7.947 10 4.393 14.833-8.445 26.409-20.152 34.392-35.204 5.575-10.509 9.396-21.664 10.033-33.695 0.107-1.986 0.195-4.159-1.952-5.27-0.467-0.243-0.914-0.345-1.344-0.345-1.172 0-2.218 0.761-3.204 1.511"/></defs><clipPath id="f"><use width="100%" height="100%" overflow="visible" xlink:href="#g"/></clipPath><linearGradient id="e" x1="-.00097656" x2=".999" y1="595.27" y2="595.27" gradientTransform="matrix(58.393 0 0 -58.393 447.81 35056)" gradientUnits="userSpaceOnUse"><stop stop-color="#01C459" offset="0"/><stop stop-color="#01AA3A" offset="1"/></linearGradient><rect x="447.78" y="257.47" width="58.588" height="78.069" clip-path="url(#f)" fill="url(#e)"/></g><g transform="translate(-275.58 -167.72)"><defs><path id="d" d="m402.85 265.74c-7.334 1.422-14.802 2.18-22.226 3.115-4.58 0.577-8.649 2.24-12.351 4.965-7.505 5.521-15.073 10.958-22.573 16.485-5.558 4.092-6.032 6.656-2.081 12.537 17.867 26.598 43.096 39.598 74.813 40.483 6.274 0.147 12.368-0.53 18.411-1.896 6.615-1.497 8.2-3.313 7.298-10.018-1.349-10.052-3.036-20.061-4.62-30.082-0.421-2.665-1.402-5.171-3.009-7.332-5.253-7.079-10.619-14.074-15.876-21.149-3.654-4.914-8.064-7.523-13.712-7.523-1.292 1e-3 -2.648 0.137-4.074 0.415"/></defs><clipPath id="c"><use width="100%" height="100%" overflow="visible" xlink:href="#d"/></clipPath><linearGradient id="b" x2="1" y1="595.28" y2="595.28" gradientTransform="matrix(103.34 0 0 -103.34 341 61823)" gradientUnits="userSpaceOnUse"><stop stop-color="#16B317" offset="0"/><stop stop-color="#4BC802" offset="1"/></linearGradient><rect x="339.67" y="265.33" width="105.38" height="78.146" clip-path="url(#c)" fill="url(#b)"/></g><g transform="translate(-275.58 -167.72)"><defs><path id="q" d="m454.22 184.98c-3.669 7.659-7.154 15.407-10.627 23.159-6.331 14.135-12.616 28.29-18.874 42.459-2.701 6.118-2.504 11.773 2.122 17.197 4.642 5.441 8.75 11.333 13.154 16.979 3.608 4.627 6.465 5.182 10.979 1.579 16.404-13.09 32.119-26.989 47.576-41.178 2.453-2.251 3.899-4.959 3.647-9.323 0.029 0.275 0.019-0.398-0.115-1.047-4.809-23.282-16.962-41.375-37.831-53.214-1.707-0.968-3.168-1.464-4.45-1.464-2.286 0-4.012 1.575-5.581 4.853"/></defs><clipPath id="p"><use width="100%" height="100%" overflow="visible" xlink:href="#q"/></clipPath><linearGradient id="o" x2="1" y1="595.22" y2="595.22" gradientTransform="matrix(67.157 -62.844 -62.844 -67.157 37832 40243)" gradientUnits="userSpaceOnUse"><stop stop-color="#AAD501" offset="0"/><stop stop-color="#B9E202" offset="1"/></linearGradient><polygon points="557.25 238.69 459.57 330.09 367.23 231.41 464.9 140" clip-path="url(#p)" fill="url(#o)"/></g><g transform="translate(-275.58 -167.72)"><defs><path id="n" d="m415.34 167.79c-14.668-0.582-27.654 3.496-40.074 10.151-6.475 3.469-8.805 8.405-7.939 15.577 0.917 7.582 1.188 15.243 1.826 22.862 1.025 12.26 1.999 24.526 3.233 36.766 0.619 6.138 3.35 8.025 9.436 7.264 7.096-0.888 14.174-1.965 21.29-2.625 6.57-0.609 10.635-4.016 13.009-9.992 8.905-22.424 17.912-44.808 26.807-67.235 2.129-5.365 0.765-8.135-4.869-9.724-6.656-1.88-13.431-3.113-20.052-3.113-0.893 0-1.782 0.023-2.667 0.069"/></defs><clipPath id="m"><use width="100%" height="100%" overflow="visible" xlink:href="#n"/></clipPath><linearGradient id="l" x2="1" y1="595.21" y2="595.21" gradientTransform="matrix(79.076 -73.998 -73.998 -79.076 44411 47318)" gradientUnits="userSpaceOnUse"><stop stop-color="#87D801" offset="0"/><stop stop-color="#A3E401" offset="1"/></linearGradient><polygon points="491.94 217.3 403.16 300.38 319.59 211.08 408.37 128" clip-path="url(#m)" fill="url(#l)"/></g><g transform="translate(-275.58 -167.72)"><defs><rect id="k" width="841.89" height="595.28"/></defs><clipPath id="a"><use width="100%" height="100%" overflow="visible" xlink:href="#k"/></clipPath><path d="m299.5 402.54 6.451-9.787h-4.608l-5.442 9.041-2.764-0.045 0.131-2.324v-6.672h-4.125v6.672l0.132 2.324-2.765 0.045-5.398-9.041h-4.652l6.452 9.787c-0.659 0.264-1.229 0.701-1.756 1.623l-5.573 10.533h4.695l4.257-8.338c0.307-0.658 0.79-1.229 1.492-1.229l3.116-0.045v9.611h4.125v-9.611l3.116 0.045c0.702 0 1.185 0.57 1.492 1.229l4.257 8.338h4.74l-5.618-10.533c-0.526-0.922-1.053-1.359-1.755-1.623" clip-path="url(#a)" fill="#727272"/><path d="m314.38 392.62h-3.818v22.072h3.554l10.884-15.886-0.264 3.861v12.025h3.818v-22.072h-3.554l-10.884 16.061 0.264-3.731z" clip-path="url(#a)" fill="#727272"/><path d="m348.26 403.1c2.107-0.482 3.818-2.457 3.818-4.74 0-3.422-2.984-5.66-8.996-5.66h-8.645v21.986h8.426c6.538 0 10.137-2.414 10.137-6.451 0-2.765-2.019-4.607-4.74-5.135m-9.874-7.373h4.696c3.467 0 5.003 1.273 5.003 2.984 0 1.844-1.448 3.203-4.652 3.203h-5.047zm4.564 15.756h-4.564v-6.803h5.047c3.247 0 5.266 1.186 5.266 3.336 0 2.063-1.799 3.467-5.749 3.467" clip-path="url(#a)" fill="#727272"/><path d="m371.26 412.72 0.395 1.975h3.028v-13.692c0-5.75-2.15-8.865-8.469-8.865-3.994 0-7.636 1.229-7.636 1.229v3.248s3.818-1.055 7.241-1.055c3.862 0 4.783 1.668 4.783 5.092v0.613h-3.906c-5.792 0-9.83 2.063-9.83 7.021 0 4.213 2.941 6.846 7.724 6.846 2.721 0 4.959-0.965 6.67-2.412m-10.4-4.696c0-3.117 3.028-3.818 5.705-3.818h3.993v5.617c-1.492 1.271-3.291 1.93-5.134 1.93-2.633 0-4.564-1.359-4.564-3.729" clip-path="url(#a)" fill="#727272"/><path d="m380.3 399.6c0 3.027 2.15 5.266 4.695 6.055-1.36 0.307-1.974 1.361-2.589 2.457l-3.379 6.584h4.301l2.677-5.617c0.702-1.404 1.623-2.063 3.028-2.063h5.178v7.68h3.906v-21.986h-8.952c-6.188 0.042-8.865 3.159-8.865 6.89m13.911-3.512v7.68h-5.003c-3.028 0-4.783-1.799-4.783-3.906 0-2.105 1.799-3.773 4.827-3.773h4.959z" clip-path="url(#a)" fill="#727272"/><path d="m427.22 414.69h4.125v-21.986h-18.08v21.986h4.125v-18.388h9.83z" clip-path="url(#a)" fill="#727272"/><path d="m455 414.69v-21.986h-15.447l-0.922 11.716c-0.439 5.442-1.317 6.935-3.774 6.935v3.336c5.486 0 7.241-2.766 7.812-9.787l0.657-8.602h7.594v18.389h4.08z" clip-path="url(#a)" fill="#727272"/><path d="m469.31 392.13c-3.994 0-7.636 1.229-7.636 1.229v3.248s3.818-1.055 7.241-1.055c3.861 0 4.783 1.668 4.783 5.092v0.613h-3.905c-5.793 0-9.83 2.063-9.83 7.021 0 4.213 2.938 6.846 7.722 6.846 2.723 0 4.959-0.965 6.671-2.413l0.396 1.976h3.027v-13.691c0-5.75-2.15-8.866-8.469-8.866m4.344 17.686c-1.492 1.271-3.291 1.93-5.136 1.93-2.633 0-4.563-1.359-4.563-3.729 0-3.117 3.027-3.818 5.705-3.818h3.993v5.617z" clip-path="url(#a)" fill="#727272"/><path d="m487.88 392.7h-3.949v21.986h3.949v-9.435h9.786v9.435h3.993v-21.986h-3.993v8.908h-9.786z" clip-path="url(#a)" fill="#727272"/><path d="m516.19 392.14c-6.32 0-9.699 4.432-9.699 11.498 0 7.197 2.679 11.715 10.095 11.715 4.476 0 6.976-1.314 6.976-1.314v-3.203c-0.174 0.043-2.895 1.096-6.713 1.096-4.212 0-6.012-2.238-6.1-6.275l14.351-0.043c0.041-0.57 0.041-1.404 0.041-1.887-1e-3 -6.892-2.675-11.587-8.951-11.587m-5.53 10.443c0-4.301 1.843-6.889 5.441-6.889 3.643 0 5.09 3.072 5.09 6.889z" clip-path="url(#a)" fill="#727272"/><path d="m534.71 414.69h4.125v-18.388h7.155v-3.598h-18.389v3.598h7.109z" clip-path="url(#a)" fill="#727272"/><path d="m557.84 392.13c-3.993 0-7.635 1.229-7.635 1.229v3.248s3.818-1.055 7.241-1.055c3.86 0 4.783 1.668 4.783 5.092v0.613h-3.906c-5.792 0-9.83 2.063-9.83 7.021 0 4.213 2.94 6.846 7.724 6.846 2.722 0 4.959-0.965 6.67-2.413l0.396 1.976h3.028v-13.691c0-5.75-2.15-8.866-8.471-8.866m4.346 17.686c-1.492 1.271-3.291 1.93-5.135 1.93-2.634 0-4.563-1.359-4.563-3.729 0-3.117 3.026-3.818 5.705-3.818h3.993z" clip-path="url(#a)" fill="#727272"/><path d="m365.95 447.36h2.349v-10.472h4.075v-2.049h-10.473v2.049h4.049z" clip-path="url(#a)" fill="#727272"/><path d="m379.5 434.51c-3.599 0-5.524 2.525-5.524 6.549 0 4.1 1.525 6.674 5.749 6.674 2.549 0 3.974-0.75 3.974-0.75v-1.824c-0.1 0.023-1.649 0.625-3.824 0.625-2.399 0-3.424-1.275-3.474-3.574l8.173-0.025c0.025-0.326 0.025-0.801 0.025-1.074 1e-3 -3.927-1.524-6.601-5.099-6.601m-3.148 5.949c0-2.449 1.05-3.924 3.099-3.924 2.075 0 2.9 1.748 2.9 3.924z" clip-path="url(#a)" fill="#727272"/><path d="m388.08 441.51c-0.25 3.1-0.75 3.949-2.15 3.949v1.9c3.125 0 4.124-1.574 4.449-5.574l0.375-4.898h4.324v10.473h2.324v-12.521h-8.798z" clip-path="url(#a)" fill="#727272"/><path d="m405.7 434.51c-3.599 0-5.524 2.525-5.524 6.549 0 4.1 1.525 6.674 5.749 6.674 2.549 0 3.974-0.75 3.974-0.75v-1.824c-0.1 0.023-1.649 0.625-3.824 0.625-2.399 0-3.424-1.275-3.474-3.574l8.173-0.025c0.025-0.326 0.025-0.801 0.025-1.074 0-3.927-1.525-6.601-5.099-6.601m-3.149 5.949c0-2.449 1.05-3.924 3.099-3.924 2.075 0 2.9 1.748 2.9 3.924z" clip-path="url(#a)" fill="#727272"/><path d="m419.9 440.43 4.024-5.648h-2.624l-3.474 5.223-2.074-0.023 0.074-1.35v-3.85h-2.349v12.572h2.349v-5.475l2.275 0.025c0.4 0 0.674 0.35 0.875 0.699l2.774 4.75h2.699l-3.549-5.998c-0.324-0.5-0.625-0.775-1-0.925" clip-path="url(#a)" fill="#727272"/><path d="m431.17 434.51c-2.273 0-4.348 0.699-4.348 0.699v1.85s2.175-0.6 4.124-0.6c2.199 0 2.724 0.951 2.724 2.9v0.35h-2.224c-3.299 0-5.6 1.174-5.6 3.998 0 2.4 1.676 3.9 4.4 3.9 1.548 0 2.824-0.551 3.798-1.375l0.226 1.125h1.725v-7.799c0-3.273-1.225-5.048-4.825-5.048m2.475 10.072c-0.851 0.725-1.875 1.1-2.925 1.1-1.5 0-2.599-0.773-2.599-2.123 0-1.775 1.724-2.176 3.249-2.176h2.274v3.199z" clip-path="url(#a)" fill="#727272"/><path d="m441.75 434.84h-2.25v12.521h2.25v-5.375h5.573v5.375h2.274v-12.521h-2.274v5.072h-5.573z" clip-path="url(#a)" fill="#727272"/><path d="m457.72 434.51c-2.273 0-4.348 0.699-4.348 0.699v1.85s2.174-0.6 4.123-0.6c2.199 0 2.724 0.951 2.724 2.9v0.35h-2.224c-3.299 0-5.599 1.174-5.599 3.998 0 2.4 1.675 3.9 4.399 3.9 1.548 0 2.824-0.551 3.798-1.375l0.226 1.125h1.725v-7.799c0-3.273-1.225-5.048-4.824-5.048m2.474 10.072c-0.851 0.725-1.874 1.1-2.925 1.1-1.5 0-2.599-0.773-2.599-2.123 0-1.775 1.724-2.176 3.25-2.176h2.273v3.199z" clip-path="url(#a)" fill="#727272"/><path d="m466.85 441.51c-0.25 3.1-0.75 3.949-2.149 3.949v1.9c3.125 0 4.125-1.574 4.449-5.574l0.375-4.898h4.323v10.473h2.324v-12.521h-8.797z" clip-path="url(#a)" fill="#727272"/></g></svg>
