<svg enable-background="new 0 0 283.464 283.464" version="1.1" viewBox="0 0 800 433.02" xml:space="preserve" xmlns="http://www.w3.org/2000/svg"><g transform="matrix(8.0445 0 0 8.0445 .032178 .040223)" fill="#929191"><polygon transform="translate(-24.803,-128.25)" points="115.3 128.36 123.48 128.36 123.48 139.46 115.3 144.39"/><path d="m99.437 22.13c0.116-2.095-1.633-4.748-4.806-4.803-2.705-0.043-4.93 2.062-4.937 4.668-8e-3 2.835 2.275 4.947 4.819 4.966 2.831 0.018 4.91-2.213 4.924-4.831"/><path d="m78.747 0.01v13.407h-4.537v-13.407h-38.439l-7.722 12.374v-12.389h-8.308l-5.718 7.5-5.72-7.5h-8.307v26.61h8.257v-14.203l5.769 7.445 5.769-7.445v14.203h8.257v-8e-3h4e-3l3.527-5.623h9.012l-0.021 5.671h8.19v-18.958h4.508v18.929h8.263v-18.936h4.5v13.301h12.716v5.635h8.176v-26.606zm-38.156 13.421-4.278-3e-3 4.282-6.82z"/></g><g transform="matrix(6.3359 0 0 6.3359 -681.73 264.35)"><rect x="107.6" width="100.92" height="26.621" fill="#6bbe45"/><path d="m125.58 6.48v1.167h2.668c1.883 0 2.834 0.931 2.834 2.774v5.696c0 1.861-0.951 2.773-2.834 2.773h-2.668v1.247h-3.832v-1.247h-2.691c-1.885 0-2.816-0.935-2.816-2.796v-5.674c0-1.844 0.931-2.774 2.816-2.774h2.691v-1.167h3.832zm-5.867 9.721h2.035v-5.845h-2.035zm5.867 0h1.988v-5.845h-1.988z" fill="#fff"/><path d="m136.08 19.55 1.926-3.748h-0.676c-0.828 0-1.189-0.149-1.422-0.869l-2.689-7.729v-0.298h3.98l1.738 6.863h0.191l1.988-6.863h3.941v0.298l-5.086 12.665h-3.893v-0.319z" fill="#fff"/><polygon transform="translate(-24.803,-128.25)" points="171.55 138.02 171.55 135.15 182.12 135.15 182.12 138.02 178.67 138.02 178.67 148.12 175.03 148.12 175.03 138.02" fill="#fff"/><path d="m170.98 16.88c0 1.992-0.699 2.987-2.498 2.987h-8.193v-12.963h10.309v2.861h-6.5v1.904h3.854c1.949 0 3.029 0.637 3.029 2.523v2.688zm-3.811-2.37h-3.072v2.497h3.072z" fill="#fff"/><path d="m185.4 17.34c0 1.676-0.826 2.522-2.502 2.522h-5.842c-1.672 0-2.479-0.847-2.479-2.522v-7.834c0-1.737 0.807-2.606 2.479-2.606h5.842c1.676 0 2.502 0.829 2.502 2.523zm-3.854-7.579h-3.178v7.241h3.178z" fill="#fff"/><path d="m199.86 6.9v12.963h-3.811v-10.102h-2.395v3.599c0 3.476-0.738 6.333-4.445 6.671l-1.168-2.857c2.08-0.426 2.291-1.378 2.291-3.897v-6.376h9.528z" fill="#fff"/><path d="m214.1 4.59c0-3.027 1.598-4.595 4.627-4.595h10.51c3.027 0 4.627 1.567 4.627 4.595v3.13c0 1.498-0.17 2.298-1.494 3.621l-9.016 9.149h10.441v6.126h-20.045v-4.035l13.643-14.269v-2.991h-6.824v3.341h-2.605l-3.863-0.35v-3.722z" fill="#6bbe45"/></g></svg>
