<svg version="1.1" viewBox="0 0 400 400" xmlns="http://www.w3.org/2000/svg">
 <circle cx="200" cy="200" r="125" fill="#fff" style="paint-order:stroke fill markers"/>
 <g transform="matrix(.87597 0 0 .87597 -423.88 -20.608)">
  <g transform="rotate(-3,712.22,251.84)">
   <path d="m712.22 23.531c-30.963 0-60.482 6.1767-87.406 17.344l38.062 91.844c15.199-6.3014 31.866-9.8125 49.344-9.8125 17.467 0 34.121 3.5182 49.312 9.8125l38.062-91.875c-26.914-11.157-56.426-17.312-87.375-17.312z" fill="#8ec244"/>
   <path d="m501.22 164.47c-11.158 26.915-17.312 56.425-17.312 87.375s6.1544 60.46 17.312 87.375l91.875-38.031c-6.3014-15.199-9.8125-31.866-9.8125-49.344s3.5112-34.145 9.8125-49.344z" fill="#229ed4"/>
   <path d="m923.19 164.47-91.844 38.031c6.3014 15.199 9.7812 31.866 9.7812 49.344s-3.4799 34.145-9.7812 49.344l91.844 38.031c11.16-26.917 17.344-56.422 17.344-87.375s-6.1837-60.458-17.344-87.375z" fill="#8ec244"/>
   <path d="m662.84 370.97-38.031 91.844c26.924 11.167 56.443 17.344 87.406 17.344 30.953 0 60.458-6.1837 87.375-17.344l-38.031-91.844c-15.199 6.3014-31.866 9.7812-49.344 9.7812-17.488 0-34.169-3.4729-49.375-9.7812z" fill="#229ed4"/>
   <path d="m799.59 40.844-38.062 91.875c31.533 13.065 56.74 38.252 69.812 69.781l91.844-38.031c-23.145-55.824-67.768-100.48-123.59-123.62z" fill="#b2ce3b"/>
   <path d="m624.81 40.875c-55.811 23.148-100.45 67.778-123.59 123.59l91.875 38.031c13.068-31.52 38.261-56.713 69.781-69.781z" fill="#2ea86f"/>
   <path d="m593.09 301.19-91.875 38.031c23.139 55.815 67.783 100.45 123.59 123.59l38.031-91.844c-31.508-13.071-56.685-38.27-69.75-69.781z" fill="#207ab8"/>
   <path d="m831.34 301.19c-13.068 31.52-38.261 56.713-69.781 69.781l38.031 91.844c55.821-23.144 100.45-67.773 123.59-123.59z" fill="#2ea86f"/>
  </g>
  <path d="m712.22 23.531c-30.963 0-60.482 6.1767-87.406 17.344l38.062 91.844c15.199-6.3014 31.866-9.8127 49.344-9.8127 17.467 0 34.121 3.5184 49.312 9.8127l38.062-91.875c-26.914-11.157-56.426-17.312-87.375-17.312z" fill="#8ec244"/>
  <path d="m501.22 164.47c-11.158 26.915-17.312 56.425-17.312 87.375s6.1544 60.46 17.312 87.375l91.875-38.031c-6.3014-15.199-9.8124-31.866-9.8124-49.344s3.5111-34.145 9.8124-49.344z" fill="#229ed4"/>
  <path d="m923.19 164.47-91.844 38.031c6.3014 15.199 9.7816 31.866 9.7816 49.344s-3.4803 34.145-9.7816 49.344l91.844 38.031c11.16-26.917 17.344-56.422 17.344-87.375s-6.1837-60.458-17.344-87.375z" fill="#8ec244"/>
  <path d="m662.84 370.97-38.031 91.844c26.924 11.167 56.443 17.344 87.406 17.344 30.953 0 60.458-6.1837 87.375-17.344l-38.031-91.844c-15.199 6.3014-31.866 9.7813-49.344 9.7813-17.488 0-34.169-3.473-49.375-9.7813z" fill="#229ed4"/>
  <path d="m799.59 40.844-38.062 91.875c31.533 13.065 56.74 38.252 69.812 69.781l91.844-38.031c-23.145-55.824-67.768-100.48-123.59-123.62z" fill="#b2ce3b"/>
  <path d="m624.81 40.875c-55.811 23.148-100.45 67.778-123.59 123.59l91.875 38.031c13.068-31.52 38.261-56.713 69.781-69.781z" fill="#2ea86f"/>
  <path d="m593.09 301.19-91.875 38.031c23.139 55.815 67.783 100.45 123.59 123.59l38.031-91.844c-31.508-13.071-56.685-38.27-69.75-69.781z" fill="#207ab8"/>
  <path d="m831.34 301.19c-13.068 31.52-38.261 56.713-69.781 69.781l38.031 91.844c55.821-23.144 100.45-67.773 123.59-123.59z" fill="#2ea86f"/>
 </g>
 <path d="m108.81 157.8v56.198h18.451v-30.632l9.2798 14.043h4.9273l9.2798-14.043v30.632h18.451v-56.198h-18.861l-11.333 17.931-11.333-17.931zm123.86 56.197h-17.679v-27.479l-17.136 27.479h-18.217v-56.185h18.487v27.685l16.403-27.685h18.141zm36.852-42.783h-7.6554v17.177h7.6554c8.481 0 8.6901-17.177 0-17.177zm1.7811 30.336h-9.4365v12.447h-18.789v-56.185h28.227c31.453-0.30435 30.307 43.989 0 43.739z" stroke-width="1.3333"/>
 <g transform="matrix(1.0931 0 0 1.0931 361.42 486.11)">
  <path d="m-221.99-238.29h-4.0723v9.6h3.9523c1.84 0 3.2133-0.44 4.12-1.32s1.36-2.0533 1.36-3.52c0-1.4933-0.45333-2.6533-1.36-3.48-0.90667-0.85333-2.24-1.28-4-1.28zm0.56 13.68h-4.6323v9.16h-5.04v-26.96h9.5523c3.04 0 5.4667 0.82667 7.28 2.48 1.84 1.6533 2.76 3.8133 2.76 6.48s-0.94667 4.8133-2.84 6.44c-1.8667 1.6-4.2267 2.4-7.08 2.4z"/>
  <path d="m-203.79-215.45h-5.04v-26.96h10.062c3.0667 0 5.4667 0.77333 7.2 2.32 1.76 1.5467 2.64 3.6133 2.64 6.2-0.0267 1.92-0.49333 3.5467-1.4 4.88-0.90667 1.3067-2.1467 2.28-3.72 2.92l5.1784 10.64h-6.04l-4.3784-9.84h-4.5016zm5.0216-22.8h-5.0216v8.8h5.1016c1.5467 0 2.7067-0.38667 3.48-1.16 0.77333-0.8 1.16-1.8933 1.16-3.28 0-1.4133-0.41333-2.4933-1.24-3.24-0.8-0.74667-1.96-1.12-3.48-1.12z"/>
  <path d="m-169.16-215.45h-16.08v-26.96h15.443v4.12h-10.363v7.32h9.1633v4.08h-9.1633v7.32h11z"/>
  <path d="m-159.59-215.45h-5.04l2.16-26.96h5.76q4.92 13.12 5.6 15.16 0.72 2.04 1.44 4.48 1.24-4.16 3.44-9.84l3.76-9.8h5.76l2.64 26.96h-5.04l-0.96-10.52-0.72-9.44q-1.08 3.04-7.2 19.56h-3.44l-3.68-10.12-3.16-9.32q0 2.48-1.32 19.84z"/>
  <path d="m-123.55-215.45h-5.04v-26.96h5.04z"/>
  <path d="m-96.741-225.81q0 5.24-2.84 8-2.8 2.72-7.68 2.72-4.84 0-7.72-2.68-2.84-2.72-2.84-7.76v-16.88h5.04v16.84q0 3.08 1.52 4.48 1.52 1.36 3.96 1.36 5.52 0 5.52-6.04v-16.64h5.04z"/>
  <path d="m-86.773-215.45h-5.04l2.16-26.96h5.76q4.92 13.12 5.6 15.16 0.72 2.04 1.44 4.48 1.24-4.16 3.44-9.84l3.76-9.8h5.76l2.64 26.96h-5.04l-0.96-10.52-0.72-9.44q-1.08 3.04-7.2 19.56h-3.44l-3.68-10.12-3.16-9.32q0 2.48-1.32 19.84z"/>
 </g>
</svg>
