<svg width="800" height="106.5" space="preserve" version="1.1" viewBox="0 0 800 106.5" xmlns="http://www.w3.org/2000/svg">
 <g transform="translate(0 -6.6964)" fill="#fff">
  <polygon class="st0" transform="matrix(.94084 0 0 .94084 0 6.6964)" points="27.7 56.2 48.7 110.8 73.8 110.8 94.3 56.2 94.3 110.8 121.9 110.8 121.9 2.6 88.6 2.6 61 74.1 33.3 2.6 0 2.6 0 110.8 27.7 110.8"/>
  <path class="st0" d="m172.55 8.1077c-15.43 0-27.943 4.7983-38.104 14.865-9.5966 9.6907-14.959 22.204-14.959 37.54 0 14.865 4.7983 27.379 14.959 37.446 10.161 10.067 22.674 14.865 38.104 14.865s27.943-5.2687 38.104-14.865c9.5966-10.067 14.959-22.58 14.959-37.916s-4.7983-28.319-14.959-37.916c-10.161-9.6907-23.145-14.489-38.104-14.019zm19.758 73.574c-5.2687 5.2687-12.043 8.1853-20.228 8.1853-8.1853 0-14.489-2.4462-19.758-8.1853-5.2687-5.7392-7.7149-12.984-7.7149-21.639s2.9166-15.9 7.7149-21.639c4.7983-5.2687 11.572-8.1853 19.758-8.1853 8.6558 0 14.959 2.4462 20.228 8.1853s7.7149 12.984 7.7149 21.639-2.9166 15.806-7.7149 21.639z" stroke-width=".94084"/>
  <path class="st0" d="m284.32 29.747c4.3279 0 8.6558 1.4113 12.513 3.8575 3.8575 2.4462 6.7741 5.7392 8.6558 9.5966l0.94084 1.8817 21.734-10.537-0.94084-1.8817c-9.1262-16.371-23.615-25.026-42.903-25.026-15.43 0-28.414 4.7983-38.575 14.865-10.161 9.5966-15.43 22.58-15.43 37.916s5.2687 27.849 15.43 37.916c10.161 9.5966 23.145 14.865 38.575 14.865 18.817 0 33.212-8.6558 42.903-25.026l0.94084-1.8817-21.734-11.572-0.94084 1.8817c-1.8817 3.8575-4.7983 7.2445-8.6558 9.5966-3.8575 2.4462-8.1854 3.8575-12.513 3.8575-8.1854 0-14.959-2.9166-20.699-8.6558-5.2687-5.7392-8.1853-12.984-8.1853-21.639 0-8.6558 2.9166-15.9 8.1853-21.639 5.3628-5.4569 12.043-8.3735 20.699-8.3735z" stroke-width=".94084"/>
  <polygon class="st0" transform="matrix(.94084 0 0 .94084 0 6.6964)" points="357.6 110.8 384.2 110.8 384.2 77.6 389.8 70.5 420.6 110.8 453.4 110.8 407.8 53.6 450.8 2.6 417.5 2.6 384.2 44.9 384.2 2.6 357.6 2.6"/>
  <path class="st0" d="m512.85 64.841c-2.9166-2.9166-5.2687-5.2687-8.6558-6.7741 2.9166-1.4113 5.2687-3.387 7.2445-5.7392 3.387-4.3279 5.2687-10.067 5.2687-16.371 0-7.7149-2.9166-13.924-8.1854-19.193s-12.513-7.7149-22.204-7.7149h-53.534v101.89h54.945c9.5966 0 17.312-2.9166 22.674-8.1853 5.2687-5.2687 8.1854-12.043 8.1854-20.228 0-6.68-1.8817-12.419-5.7392-17.688zm-54.945-33.682h24.086c2.9166 0 4.7983 0.94084 6.7741 2.4462 1.4113 1.4113 2.4462 3.8575 2.4462 6.2096s-0.47043 4.3279-2.4462 6.2096c-1.4113 1.4113-3.8575 2.4462-6.7741 2.4462h-24.086zm32.271 55.322c-1.8817 1.4113-4.3279 2.4462-7.7149 2.4462h-24.556v-18.817h24.556c3.387 0 5.7392 0.94084 7.7149 2.9166 1.8817 1.8817 2.9166 3.8575 2.9166 6.7741 0 2.8225-1.0349 5.2687-2.9166 6.68z" stroke-width=".94084"/>
  <path class="st0" d="m557.64 9.1426-39.515 101.89h28.414l6.3037-16.371h39.045l5.7392 16.371h28.414l-39.515-101.89zm1.9758 62.942 12.513-33.682 12.513 33.682z" stroke-width=".94084"/>
 </g>
 <g transform="translate(0 -6.6964)" fill="#0fc3c3" stroke-width=".94084">
  <path class="st1" d="m787.58 68.228v-59.085h-31.801l-40.08 62.472v19.193h46.76v20.228h25.026v-20.228h12.513v-22.58zm-25.121 0h-20.699l20.699-31.706z"/>
  <path class="st1" d="m711.37 45.177c0-21.169-17.312-38.481-38.575-38.481-21.734 0-34.247 15.9-38.575 25.497l20.699 10.067c1.8817-4.3279 7.7149-12.513 17.312-12.513 8.6558 0 15.43 6.7741 15.43 14.865 0 4.7983-3.387 9.5966-9.5966 13.924-15.43 11.008-42.903 30.766-43.373 30.766l-0.94085 0.47042v21.169h77.62v-22.11h-37.634c3.387-2.4462 9.1262-5.7392 17.312-11.572 12.607-8.0913 20.322-20.134 20.322-32.083z"/>
 </g>
</svg>
