<svg width="800" height="426.67" version="1.1" viewBox="0 0 800 426.67" xml:space="preserve" xmlns="http://www.w3.org/2000/svg"><g transform="matrix(1.3333 0 0 -1.3333 -87.984 1008.8)"><g fill="#7f379f" fill-rule="evenodd"><path d="m551.67 476.18c0.0799 5.0123-3.4554 8.6783-8.4574 8.752-4.9046 0.082-8.6479-3.5089-8.7028-8.3048-0.0667-5.0316 3.4498-8.7617 8.36-8.864 4.9753-0.10494 8.7399 3.5036 8.8002 8.4168zm-28.022-30.309 0.0302 0.10267c0.82681 3.1634 3.9488 5.1272 7.1311 4.542 2.2427-0.43096 4.4419-0.78478 6.6483-0.94735 2.9636-0.18119 6.0846 0.20472 8.9487 0.97617 3.4843 0.92558 5.2641 3.8989 5.1461 7.3878-0.23329-0.0788-0.46078-0.0949-0.65481-0.21113-13.804-8.1528-30.389 0.43083-31.64 16.363-0.63882 8.2556 1.5858 15.368 8.4353 20.558 6.2365 4.712 17.407 5.9628 24.058 0.80743 0.13237-0.10947 0.33923-0.12948 0.63203-0.24612 0.12771 0.82756 0.24763 1.6118 0.37773 2.4404 0.58535 0.0507 1.0736 0.10594 1.5584 0.10594 3.841 8e-3 7.6995 3e-3 11.712 3e-3 0.0346-0.77471 0.1106-1.39 0.1106-1.9989 6e-3 -11.227 0.14256-22.483-0.0807-33.717-0.0556-3.728-0.51891-7.6133-1.6768-11.141-2.6059-7.9799-8.7948-12.107-16.799-13.557-6.5509-1.2199-12.954-0.7152-19.382 0.8745-3.382 0.82932-5.4268 4.2859-4.5547 7.6586"/><path d="m447.25 476.35c0 4.8393-3.9352 8.6808-8.8876 8.644-4.8465-0.0357-8.7067-3.845-8.7067-8.6162 0-4.8696 3.9223-8.7891 8.7916-8.7831 4.8875 1e-3 8.7866 3.8845 8.8027 8.7553zm0.1666 18.467c0.32161 2.9323 0.32161 2.9401 3.1398 2.9323 3.6003-3e-3 7.2116-0.0196 10.825-0.0445 0.10846 0 0.22976-0.10129 0.44416-0.20472v-42.432h-14.159c-0.0643 0.84241-0.0995 1.5722-0.15703 2.1076-2.6897-0.98975-5.2994-2.4079-8.0636-2.9243-12.193-2.2578-22.836 5.512-24.636 17.777-1.1756 7.9171 0.38453 15.122 6.19 20.935 6.7419 6.7585 17.546 7.738 25.471 2.4803 0.24927-0.18622 0.50281-0.34816 0.94484-0.62674"/><path d="m512.83 497.75v-42.688h-14.999v14.062h-8.0782c-4.3989 0-4.3989-7.6e-4 -4.3989-4.3194v-9.7546h-15.016v42.703h6.8456c2.1468 0 4.2994-0.0564 6.4433 0.0199 1.3354 0.0725 1.7709-0.36452 1.7495-1.6992-0.0842-3.6092-0.0228-7.2098-0.0228-10.801v-2.2125h12.41v3.865c0 3.0962-0.0707 6.1794 0.0346 9.2874 0.0126 0.51929 0.65984 1.4678 1.0378 1.4777 4.6097 0.0963 9.2218 0.0603 13.994 0.0603"/><path d="m574.3 497.62h15.24v-4.4484c0-5.953-0.0396-11.888 0.0126-17.819 0.0696-5.058 2.5774-7.824 6.8568-7.7612 4.4402 0.0432 7.5272 3.2319 7.5572 7.9924 0.0674 6.6238 0.0189 13.268 0.0221 19.905v2.1422h15.088v-42.567h-14.649v5.3632c-3.8442-4.6717-8.5088-6.6255-14.037-6.6117-8.1504 0.0279-14.411 5.3865-15.668 13.436-0.2733 1.8728-0.39698 3.7708-0.40919 5.6558-0.0652 7.6046-0.0128 15.168-0.0128 22.77v1.9442z"/><path d="m651.59 486.18c-2.5769-0.23114-4.9038-0.24826-7.1488-0.67091-2.1368-0.43548-3.1148-1.9628-3.0702-3.9776 0.0702-1.9124 1.2423-3.4098 3.4016-3.666 1.8508-0.21894 3.7667-0.0873 5.6426 0.07 0.43083 0.0616 1.0871 0.84002 1.1089 1.3175 0.11664 2.1308 0.0659 4.2659 0.0659 6.9256v1e-3zm14.402 4.6285v-35.793h-14.33v11.011c-3.3485 0.82492-4.9699 0.1783-6.5828-2.4546-1.5162-2.4885-3.0114-4.9934-4.598-7.4202-0.31709-0.51652-0.97189-1.1735-1.4916-1.181-4.9571-0.0741-9.9495-0.0446-15.343-0.0446 3.2158 4.7798 6.2176 9.2675 9.2924 13.845-4.9132 3.0942-6.7404 7.6189-6.7804 12.992-0.056 7.3003 3.7505 12.452 10.925 14.545 2.406 0.67984 4.9748 1.1686 7.4741 1.2384 4.8436 0.10166 9.7136 0.081 14.639 0.0606 3.7498-0.0128 6.7954-3.0456 6.7954-6.7989"/><path d="m388.94 481.67c-1.2419-3.9006-2.3238-7.2869-3.4105-10.678-1.5322-4.8772-3.0398-9.7604-4.6428-14.592-0.17591-0.58358-0.87349-1.4089-1.3265-1.4178-5.2549-0.0885-10.506-0.0521-16.004-0.0521 0.31356 0.90734 0.50972 1.6632 0.79359 2.3934 4.92 12.831 9.8574 25.688 14.71 38.538 0.55754 1.5487 1.3226 1.9643 2.8677 1.9392 4.8597-0.0902 9.7425-0.0727 14.618-0.0303 1.1824 0.0367 1.8016-0.27959 2.2398-1.4495 4.8612-13.332 9.7662-26.667 14.663-39.977 0.14231-0.39661 0.17791-0.81322 0.32136-1.4135-5.4046 0-10.628-0.0364-15.873 0.0521-0.47185 9e-3 -1.1517 0.84241-1.3336 1.427-2.3044 7.5851-4.549 15.217-6.8149 22.837-0.20045 0.63279-0.40957 1.263-0.80794 2.4237"/></g><g fill="#f36717" fill-rule="evenodd"><path d="m65.988 497.56c3.8114 0 7.4556 0.0393 11.087-0.0817 0.59277-4e-3 1.2755-0.67669 1.7174-1.2316 4.055-4.8904 8.0472-9.8171 12.068-14.735 0.53539-0.67669 1.0889-1.334 1.7691-2.1247 4.0622 4.9484 8.1802 9.6387 11.903 14.605 2.0448 2.751 4.2537 4.0529 7.6923 3.6102 2.267-0.26827 4.6186-0.0424 7.0294-0.0424v-42.474h-14.383v16.041c-0.15087 0.046-0.29896 0.11412-0.43058 0.16055-1.4114-1.5448-2.8394-3.0785-4.2562-4.6485-0.66122-0.74829-1.4231-1.4178-1.9913-2.2614-1.575-2.3815-3.6851-3.2043-6.5474-2.9536-1.5051 0.12884-2.5292 0.51652-3.5122 1.6636-2.3847 2.8014-4.896 5.5152-7.7337 8.659v-16.68h-14.412z"/><path d="m125.06 446.64c1.9395 5.2563 5.6494 3.9455 6.7418 3.6988 4.1345-0.91891 7.9075 0.83461 9.7226 4.6441 0.28739 0.59353 0.0963 1.583-0.18874 2.2318-5.5213 12.514-11.099 24.993-16.668 37.495-0.36087 0.78893-0.6855 1.6107-1.1527 2.663 0.6587 0.0881 1.1752 0.19578 1.6982 0.19578 4.6645 0.0101 9.3181-0.0642 13.973 0.0328 1.3094 0.016 1.8882-0.46556 2.309-1.62 2.2606-6.1235 4.5929-12.203 6.8868-18.316 0.27845-0.72829 0.59126-1.4474 1.0785-2.6551 1.4952 4.3589 2.83 8.2434 4.1652 12.122 1.0276 3.0297 2.011 6.08 3.1313 9.0742 0.21215 0.54597 0.9198 1.2812 1.4231 1.2911 4.9841 0.10456 9.9577 0.0717 15.205 0.0717-0.18837-0.69091-0.31029-1.2059-0.49538-1.6839-5.4058-13.707-10.697-27.476-16.294-41.085-1.6004-3.8935-3.7964-7.7152-6.3834-11.016-5.5238-7.0276-15.442-9.0396-23.412-5.3377-1.2559 0.56961-3.653 2.955-1.7398 8.1942"/><path d="m343.04 497.48h14.988v-35.504c0-3.8068-3.1098-6.9119-6.9152-6.9119h-7.4708v5.3597c-0.47084-0.37849-0.67518-0.48972-0.80328-0.63593-4.559-5.3127-12.123-7.386-18.689-5.0574-6.3934 2.2728-9.7425 7.1303-10.298 13.607-0.53351 6.1719-0.34099 12.415-0.4063 18.606-0.0531 3.4539-8e-3 6.8916-8e-3 10.474h15.212v-2.1002c0-6.1026-8e-3 -12.191 4e-3 -18.293 3e-3 -1.003 0.05-2.0063 0.15199-3.0071 0.42505-4.207 2.7638-6.4776 6.6287-6.4566 3.9856 0.0161 7.1607 2.6848 7.4128 6.5782 0.25253 3.6295 0.16257 7.2772 0.18685 10.916 0.02 4.0772 5e-3 8.15 5e-3 12.426"/><path d="m235.22 473.86c0.0567-0.74867-0.0101-1.5151 0.12054-2.2482 0.38239-2.2288 1.3265-4.1274 3.7016-4.752 2.0812-0.55137 4.1845-0.48644 5.7734 1.2537 1.6653 1.8523 1.8027 4.0779 1.0276 6.3496-0.76868 2.1867-2.6212 2.9279-4.7491 3.0719-0.86606 0.0771-1.7596 0.0282-2.634-0.078-3.2372-0.36666-3.234-0.38842-3.24-3.5971zm-14.741 23.57h14.731v-8.3583c2.8837 0.37911 5.6365 1.0743 8.3925 1.0515 9.2998-0.0464 16.887-7.0382 17.399-15.757 0.6309-10.764-5.4567-18.864-15.4-20.024-3.6338-0.40793-7.4683-0.47361-11.04 0.21227-7.4599 1.4071-12.376 7.1232-13.576 15.038-0.37068 2.4111-0.56999 4.8704-0.60032 7.3079-0.0845 6.2107-0.0218 12.423-0.0142 18.652 0 0.59667 0.0471 1.2005 0.10909 1.8775"/><path d="m218.88 454.97c-5.4557 0-10.674-0.0339-15.89 0.0836-0.46393 0.0113-1.1585 0.95804-1.3399 1.6043-2.4212 7.9022-4.756 15.831-7.1189 23.757-0.071 0.23366-0.14797 0.45876-0.37987 1.1923-0.99302-3.0338-1.8432-5.608-2.6479-8.2131-1.7963-5.6611-3.5596-11.35-5.4019-17.022-0.19365-0.54886-0.89702-1.3218-1.376-1.3265-5.2199-0.10733-10.427-0.0756-15.938-0.0756 1.5472 4.0843 3.0217 7.9154 4.4958 11.766 3.6938 9.7265 7.4424 19.444 11.086 29.182 0.49186 1.2773 1.1142 1.6992 2.4731 1.6836 4.951-0.0863 9.9355-0.0845 14.899-6e-3 1.2049 0.0126 1.7616-0.39195 2.176-1.5087 4.8294-13.255 9.7123-26.478 14.581-39.735 0.12947-0.33319 0.21541-0.69053 0.38125-1.3822"/><path d="m293.02 484.31v-29.212h-15.007v29.212h-13.181v13.483h41.366v-13.483z"/><path d="m285.89 624.27-14.349 4e-3c-8.9932 3e-3 -15.67 8.2931-13.764 17.075l21.727 99.992c1.5758 7.206 6.9947 12.832 14.155 14.666 7.1403 1.8212 14.589-0.51186 19.438-6.0973l51.549-59.503c0.68299-0.80706 1.921-0.80706 2.6315 0l51.607 59.514c4.855 5.594 12.301 7.9078 19.444 6.0983 7.1599-1.8422 12.571-7.4673 14.151-14.67l21.73-100.02c1.8985-8.7706-4.7685-17.059-13.741-17.1l-12.7-0.0231c-1.2831 0-2.4029 0.90771-2.6612 2.1832l-17.414 83.087c-0.2821 1.4046-2.0544 1.8751-3.0107 0.77836l-57.427-65.722c-0.69796-0.79107-1.9379-0.79787-2.6191-0.0128l-56.897 65.659c-0.93099 1.0922-2.7418 0.60888-3.0147-0.80101l-16.155-82.926c-0.25153-1.2708-1.3558-2.1821-2.6807-2.1821"/></g><g fill="#231f20" fill-rule="evenodd"><path d="m339.06 573.75c0.0181 14.224-11.56 25.499-26.102 25.425-14.271-0.092-25.611-11.342-25.617-25.343 0-14.286 11.569-25.832 25.853-25.813 14.366 9e-3 25.84 11.423 25.866 25.731"/><path d="m444.64 573.75c0.0303 14.224-11.566 25.499-26.108 25.425-14.243-0.092-25.608-11.342-25.617-25.343-6e-3 -14.286 11.574-25.832 25.853-25.813 14.386 9e-3 25.838 11.423 25.871 25.731"/></g><g fill="#fff"><path d="m421.42 588.17c-1.554 0.54684-2.3022 2.2304-1.6624 3.7334 0.64914 1.4984 2.4692 2.2641 4.0219 1.7006 2.3576-0.81422 4.5169-1.9894 6.4607-3.429 1.9371-1.4581 3.6092-3.1786 4.9689-5.1332l-0.0113-4e-3c1.38-1.977 2.4043-4.1248 3.0503-6.3644 0.67153-2.2581 0.95766-4.6153 0.84844-6.9926-0.0471-1.6008-1.504-2.9169-3.2008-2.9169-1.7067 0-3.0342 1.3162-2.9657 2.9169 0.0927 1.8112-0.13476 3.5803-0.62913 5.2769-0.4979 1.6982-1.2613 3.3143-2.2799 4.778h-6e-3c-1.049 1.4771-2.3156 2.7818-3.7344 3.8378-1.4425 1.0936-3.087 1.9713-4.8612 2.5962"/><path d="m315.47 588.17c-1.5883 0.54684-2.3352 2.2304-1.6828 3.7334 0.65631 1.4984 2.456 2.2641 4.0443 1.7006 2.3234-0.81422 4.5115-1.9894 6.4358-3.429 1.9279-1.4581 3.617-3.1786 4.9753-5.1332l-6e-3 -4e-3c1.3792-1.977 2.4082-4.1248 3.0577-6.3644 0.64851-2.2581 0.9413-4.6153 0.85209-6.9926-0.0848-1.6008-1.508-2.9169-3.2268-2.9169-1.6988 0-3.0206 1.3162-2.9586 2.9169 0.0739 1.8112-0.14622 3.5803-0.64021 5.2769-0.48544 1.6982-1.2652 3.3143-2.2775 4.778h-0.0142c-1.0172 1.4771-2.2781 2.7818-3.7301 3.8378-1.4281 1.0936-3.0616 1.9713-4.8282 2.5962"/></g></g></svg>
