<svg width="800" height="260.62" space="preserve" version="1.1" viewBox="0 0 800 260.62" xmlns="http://www.w3.org/2000/svg">
 <path class="st0" d="m555 71.562c2.6562 0.15625 5.3125-0.625 7.6562-1.875 2.3438-1.5625 4.5312-3.4375 6.25-5.625l12.812 9.2188c-1.875 2.6562-4.0625 5-6.5625 7.0312-2.6562 2.0312-5.625 3.5938-8.75 4.6875-3.75 1.25-7.8125 1.875-11.719 1.875-5.4688 0-10.938-1.4062-15.781-4.0625-4.6875-2.6562-8.75-6.5625-11.406-11.406-4.8438-8.9062-5.4688-19.375-1.7188-28.75 3.125-7.6562 9.2188-13.75 16.875-16.875 4.0625-1.7188 8.4375-2.5 12.812-2.5 10.938 0 19.375 4.2188 25.625 12.812l-12.344 9.6875c-3.75-4.8438-8.2812-7.1875-13.438-7.1875-4.0625-0.15625-7.8125 1.7188-10.469 4.8438-2.8125 3.125-4.0625 7.0312-4.0625 11.719s1.4062 8.5938 4.0625 11.719c2.3438 2.9688 6.0938 4.6875 10.156 4.6875zm225-47.188h19.219l-20.312 29.844 21.094 31.25h-19.688l-11.719-18.281-11.875 18.438h-19.219l21.094-31.094-20.312-30h19.688l10.938 17.188zm-282.97 0h16.875v61.094h-16.875zm-33.281 62.188c-5.3125 0-10.625-0.78125-15.781-2.6562-4.8438-1.5625-9.2188-4.2188-12.969-7.5l9.5312-11.25c6.0938 4.8438 12.812 7.3438 19.844 7.3438 2.1875 0 3.9062-0.3125 5.1562-1.0938 1.0938-0.625 1.875-1.875 1.7188-3.2812 0-1.25-0.625-2.3438-2.0312-3.125s-4.0625-1.7188-8.125-2.6562c-2.0312-0.46875-3.9062-0.9375-5.3125-1.4062s-3.125-0.9375-4.8438-1.5625c-1.5625-0.46875-2.9688-1.25-4.375-2.0312-1.25-0.78125-2.3438-1.5625-3.4375-2.5s-2.0312-1.875-2.8125-3.125-1.25-2.5-1.7188-3.9062c-0.46875-1.5625-0.625-3.2812-0.625-5 0-5.7812 2.1875-10.469 6.4062-14.062s10-5.4688 17.344-5.4688c10 0 18.438 2.6562 25.156 8.125l-8.4375 12.031c-5.7812-4.0625-11.406-5.9375-17.031-5.9375-2.0312 0-3.4375 0.3125-4.5312 1.0938-0.9375 0.625-1.5625 1.7188-1.5625 2.9688 0 1.4062 0.78125 2.6562 2.0312 3.2812 1.4062 0.78125 4.2188 1.7188 8.4375 2.6562 3.2812 0.625 6.4062 1.5625 9.5312 2.6562 2.5 0.9375 4.8438 2.1875 7.0312 3.75 2.0312 1.4062 3.5938 3.2812 4.6875 5.3125 1.0938 2.3438 1.5625 4.8438 1.5625 7.5 0 6.0938-2.1875 11.094-6.7188 14.531-4.5312 3.5938-10.625 5.3125-18.125 5.3125zm-41.875-6.5625c-2.6562 2.3438-5.625 4.0625-9.0625 5.1562-3.75 1.25-7.8125 1.7188-11.875 1.7188-8.9062 0-15.938-2.3438-20.781-7.0312-5-4.6875-7.3438-11.719-7.3438-20.938v-34.375h17.188v34.062c0 4.2188 0.9375 7.5 2.9688 9.6875s4.6875 3.2812 8.2812 3.2812 6.25-1.0938 8.2812-3.125 2.9688-5.3125 2.9688-9.375v-34.375h17.188v33.906c0.15625 4.375-0.625 8.5938-2.0312 12.812-1.0938 3.125-3.125 6.0938-5.7812 8.5938zm231.56-26.406c4.0625 1.25 7.0312 3.125 9.0625 5.625 2.0312 2.3438 3.125 5.625 3.125 9.6875 0 5.1562-2.0312 9.2188-6.25 12.188-4.0625 2.9688-9.8438 4.375-17.188 4.375h-31.719v-61.094h31.562c7.5 0 13.125 1.875 16.875 5.4688 2.6562 2.6562 4.0625 5.9375 4.0625 9.8438 0 6.5625-3.2812 11.094-9.5312 13.906zm-9.375-14.375c-1.25-0.9375-3.2812-1.4062-5.7812-1.4062h-11.094v10.938h10.781c5.3125 0 8.125-1.875 8.125-5.625 0-1.5625-0.78125-2.9688-2.0312-3.9062zm2.3438 22.969c-1.4062-0.9375-3.4375-1.5625-6.25-1.5625h-12.969v11.562h13.125c2.6562 0 4.6875-0.46875 6.0938-1.5625 1.4062-0.9375 2.1875-2.6562 2.1875-4.375 0-1.5625-0.78125-3.125-2.1875-4.0625zm-300.47-11.719-15.625 23.906h-0.3125l-15.625-23.75v34.844h-16.562v-61.094h17.969l14.531 23.594 14.531-23.594h17.969v61.094h-16.875zm-29.531 80.938c5.9375-5.7812 12.969-10.312 20.781-13.281 8.2812-3.2812 17.031-5 25.938-4.8438 10.156 0 19.219 1.5625 27.031 4.5312 7.9688 3.125 15.469 7.6562 21.875 13.281l-19.688 23.594c-4.0625-3.5938-8.75-6.4062-13.594-8.4375-5-1.875-10.156-2.8125-15.469-2.8125-8.4375-0.15625-16.406 3.2812-22.031 9.5312-5.9375 6.4062-8.9062 14.219-8.9062 23.438 0 9.8438 3.125 17.969 9.2188 24.531 6.0938 6.4062 14.062 9.6875 23.594 9.6875 7.8125 0 14.219-1.7188 19.375-5.3125v-15.156h-24.062v-24.219h55.625v54.688c-15.156 12.344-32.656 18.594-52.344 18.594-12.5 0-23.594-2.6562-33.594-7.9688-9.8438-5.1562-17.969-12.969-23.594-22.5-5.7812-9.6875-8.5938-20.469-8.5938-32.656 0-8.4375 1.5625-16.875 5-24.688 2.9688-7.5 7.6562-14.219 13.438-20zm-61.562 100.31-44.062-43.125c-1.5625-1.5625-2.8125-5.4688-2.8125-8.9062v-97.188c0-3.2812 1.25-7.3438 2.8125-8.9062l44.062-43.125c5.3125-5.3125 10.156-4.375 10.156 2.3438v196.41c0 6.875-4.8438 7.6562-10.156 2.5zm-64.375-177.81c-1.5625 1.5625-5.625 2.8125-8.9062 2.8125h-97.656c-3.4375 0-7.3438-1.25-8.9062-2.8125l-45-43.594c-5.4688-5.4688-4.8438-10.312 2.0312-10.312h201.25c6.875 0 7.6562 4.8438 2.0312 10.312zm-133.44 28.594v97.188c0 3.2812-1.25 7.3438-2.8125 8.9062l-43.75 45.781c-5.4688 5.7812-10.469 5.3125-10.469-1.7188v-203.12c0-7.0312 5-7.5 10.469-1.7188l43.906 45.781c1.5625 1.5625 2.6562 5.625 2.6562 8.9062zm119.38 97.344h-88.125c-3.125 0-5.625-2.5-5.625-5.625v-87.812c0-3.125 2.5-5.625 5.625-5.625h88.125c3.125 0 5.625 2.5 5.625 5.625v87.656c0 3.125-2.5 5.7812-5.625 5.7812zm-100.94 26.562c1.7188-1.5625 5.625-2.8125 9.0625-2.8125h97.5c3.4375 0 7.3438 1.25 9.0625 2.8125l45.938 43.75c5.7812 5.4688 5.3125 10.469-1.7188 10.469h-204.06c-7.0312 0-7.5-4.8438-1.7188-10.469zm373.75-74.688c5.9375-5.7812 12.969-10.312 20.781-13.438 16.562-6.5625 35.156-6.7188 51.719 0 7.6562 3.125 14.688 7.6562 20.625 13.281 5.7812 5.7812 10.312 12.5 13.438 20 3.2812 7.8125 5 16.25 4.8438 24.688 0 8.4375-1.7188 16.719-5 24.531-3.125 7.5-7.8125 14.375-13.594 20.156-5.9375 5.7812-12.969 10.312-20.625 13.438-8.125 3.2812-17.031 5-25.781 5-12.188 0-23.281-2.8125-33.281-8.4375-9.6875-5.3125-17.812-13.281-23.281-22.812-5.625-9.5312-8.4375-20.156-8.4375-31.719 0-8.4375 1.7188-16.719 5-24.531 3.2812-7.6562 7.8125-14.375 13.594-20.156zm24.531 67.656c5.7812 6.4062 13.281 9.6875 22.188 9.6875 9.0625 0 16.406-3.125 22.188-9.5312s8.5938-14.062 8.5938-23.281c0-8.9062-2.9688-16.719-8.75-23.125s-13.281-9.6875-22.344-9.6875c-8.9062 0-16.25 3.125-22.031 9.5312s-8.5938 14.062-8.5938 23.281c0 9.0625 2.9688 16.719 8.75 23.125zm243.75-115.16c-4.2188 1.7188-8.5938 2.5-13.125 2.5-5.9375 0-11.719-1.4062-16.875-4.2188-10-5.4688-16.25-16.094-16.094-27.5 0-4.2188 0.78125-8.4375 2.5-12.344 1.5625-3.75 4.0625-7.1875 6.875-10.156 3.125-2.9688 6.5625-5.1562 10.625-6.7188 8.4375-3.2812 17.812-3.2812 26.406 0 3.9062 1.5625 7.5 3.9062 10.469 6.7188s5.3125 6.25 6.875 10.156c1.7188 3.9062 2.5 8.125 2.5 12.5 0 4.2188-0.78125 8.4375-2.5 12.344-1.5625 3.75-3.9062 7.1875-6.875 10.156-3.2812 2.8125-6.7188 5-10.781 6.5625zm-1.7188-40.781c-2.9688-3.2812-6.7188-4.8438-11.406-4.8438-4.5312 0-8.2812 1.5625-11.25 4.8438-5.9375 6.7188-5.7812 16.719 0.15625 23.438 2.8125 3.125 7.0312 5 11.25 4.8438 4.6875 0 8.4375-1.5625 11.25-4.8438 5.9375-6.875 5.9375-16.875 0-23.438zm-104.06 163.91h58.594v29.531h-92.188v-121.25h33.438zm148.28-87.188c8.5938 2.9688 15.781 7.1875 21.562 12.5s10.312 11.875 13.281 19.062c3.125 7.6562 4.6875 16.094 4.6875 24.375s-1.5625 16.562-4.6875 24.219c-2.9688 7.3438-7.6562 13.906-13.438 19.219-5.7812 5.4688-12.969 9.6875-21.719 12.656-8.75 3.125-18.438 4.5312-29.062 4.5312h-45.938v-121.09h46.562c10.625 0 20.156 1.5625 28.75 4.5312zm-41.875 87.188h13.594c10.156 0 18.281-2.6562 24.219-8.125 6.0938-5.4688 9.0625-13.125 9.0625-22.969 0-9.6875-2.9688-17.188-9.0625-22.656s-14.062-8.2812-24.219-8.2812h-13.594z" clip-rule="evenodd" fill-rule="evenodd" stroke-width="1.5625"/>
</svg>
