<svg version="1.1" viewBox="0 0 451.75 557.58" xmlns="http://www.w3.org/2000/svg">
 <linearGradient id="a" x1="8.4282" x2="442.24" y1="342.93" y2="7.2178" gradientUnits="userSpaceOnUse">
  <stop stop-color="#683693" offset="0"/>
  <stop stop-color="#ee4925" offset="1"/>
 </linearGradient>
 <g fill="url(#a)">
  <path d="m54.018 26.6c0 14.7-11.9 26.6-26.6 26.6s-26.6-11.9-26.6-26.6 11.9-26.6 26.6-26.6 26.6 11.9 26.6 26.6z"/>
  <path d="m54.018 126c0 14.7-11.9 26.6-26.6 26.6s-26.6-11.9-26.6-26.6 11.9-26.6 26.6-26.6c14.7-0.1 26.6 11.9 26.6 26.6z"/>
  <path d="m54.018 225.3c0 14.7-11.9 26.6-26.6 26.6s-26.6-11.9-26.6-26.6 11.9-26.6 26.6-26.6 26.6 11.9 26.6 26.6z"/>
  <path d="m54.018 324.7c0 14.7-11.9 26.6-26.6 26.6s-26.6-11.9-26.6-26.6 11.9-26.6 26.6-26.6 26.6 11.9 26.6 26.6z"/>
  <path d="m450.93 26.6c0 14.7-11.9 26.6-26.6 26.6s-26.6-11.9-26.6-26.6 11.9-26.6 26.6-26.6 26.6 11.9 26.6 26.6z"/>
  <path d="m450.93 126c0 14.7-11.9 26.6-26.6 26.6s-26.6-11.9-26.6-26.6 11.9-26.6 26.6-26.6c14.7-0.1 26.6 11.9 26.6 26.6z"/>
  <path d="m450.93 225.3c0 14.7-11.9 26.6-26.6 26.6s-26.6-11.9-26.6-26.6 11.9-26.6 26.6-26.6 26.6 11.9 26.6 26.6z"/>
  <path d="m450.93 324.7c0 14.7-11.9 26.6-26.6 26.6s-26.6-11.9-26.6-26.6 11.9-26.6 26.6-26.6 26.6 11.9 26.6 26.6z"/>
  <path d="m153.25 126c0 14.7-11.9 26.6-26.6 26.6s-26.6-11.9-26.6-26.6 11.9-26.6 26.6-26.6c14.7-0.1 26.6 11.9 26.6 26.6z"/>
  <path d="m153.25 225.3c0 14.7-11.9 26.6-26.6 26.6s-26.6-11.9-26.6-26.6 11.9-26.6 26.6-26.6 26.6 11.9 26.6 26.6z"/>
  <path d="m153.25 324.7c0 14.7-11.9 26.6-26.6 26.6s-26.6-11.9-26.6-26.6 11.9-26.6 26.6-26.6 26.6 11.9 26.6 26.6z"/>
  <path d="m252.48 225.3c0 14.7-11.9 26.6-26.6 26.6s-26.6-11.9-26.6-26.6 11.9-26.6 26.6-26.6 26.6 11.9 26.6 26.6z"/>
  <path d="m252.48 324.7c0 14.7-11.9 26.6-26.6 26.6s-26.6-11.9-26.6-26.6 11.9-26.6 26.6-26.6 26.6 11.9 26.6 26.6z"/>
  <path d="m351.7 126c0 14.7-11.9 26.6-26.6 26.6s-26.6-11.9-26.6-26.6 11.9-26.6 26.6-26.6c14.7-0.1 26.6 11.9 26.6 26.6z"/>
  <path d="m351.7 225.3c0 14.7-11.9 26.6-26.6 26.6s-26.6-11.9-26.6-26.6 11.9-26.6 26.6-26.6 26.6 11.9 26.6 26.6z"/>
  <path d="m351.7 324.7c0 14.7-11.9 26.6-26.6 26.6s-26.6-11.9-26.6-26.6 11.9-26.6 26.6-26.6 26.6 11.9 26.6 26.6z"/>
 </g>
 <g transform="translate(-174.09 -121.1)" fill="#fff">
  <path d="m174.2 579.9c0.4-7.4 10.1-11.7 15.8-7l52.8 42.9 53-43.1c5.8-4.4 15.2 0.1 15.5 7.3v88c0.4 5.6-4.6 10.8-10.3 10.5-5.3-0.1-10-5-9.6-10.3v-66.2l-58.8 47.6c-3.4 2.7-6.8 6.4-11.6 5.9-2.7-0.1-5-1.5-6.7-3.5-2.8-3.4-4.1-8.8-0.7-12.3l12.9-10.8-32.6-26.7v66.8c-0.1 5.2-4.8 9.5-9.9 9.4-5.5 0.1-10.1-4.9-9.9-10.3v-88.2z"/>
  <path d="m336.2 573.2c3.5-2.9 8.9-2.6 12.4 0.3l42.7 30.4 42.8-28.7c4.3-3.1 9.6-4.8 14.9-4.5 9.7 0.4 18.6 7.8 20.7 17.2 2.5 9-1.5 19.3-9.3 24.4l-65.2 43.8c-0.9 6.7 2.2 15.3-3.7 20.3-5.2 4.7-14.4 1.7-16-5.1-0.7-6.1-0.1-12.3-0.3-18.4-0.3-3.7 0.6-7.7 3.8-10l70.5-47.6c3-2-0.8-6.5-3.4-4.4-15 10-29.9 20.1-44.9 30.2-2.9 1.8-5.6 4.6-9.2 4.5-2.4 0.2-5-0.3-6.9-1.9l-49.1-34.7c-5.1-3.7-5-12.3 0.2-15.8z"/>
  <path d="m488.1 578.9c0.9-4.5 5.2-8.2 9.9-8h91c7.5 0.1 15.4-0.8 22.4 2.6 7.8 3.3 13.2 11.1 13.9 19.5 0.8 7.7-2.6 15.7-8.7 20.5l-16.4 11.5 13.8 8.9c5.8 3.6 10.1 9.5 11.4 16.2 1.6 7.7-1.2 16-6.9 21.4-4.6 4.5-11 7-17.5 6.9h-104c-6.5-0.2-11.3-8-8.3-13.9 1.7-4 6-6.4 10.3-6h102c2.4 0.2 5.1-1.8 4.8-4.3-0.2-2.1-2.3-3.1-3.8-4.2l-45-30c-3.9-2.6-5.5-8.2-3.4-12.4 2.2-5.3 9.4-7.6 14.2-4.4l14.4 9.5 21.8-14.7c1.5-0.8 1.6-2.6 1.3-4.1-1.4-2.7-4.7-3-7.3-3h-100c-6.1 0.4-11.5-6-9.9-12z"/>
 </g>
</svg>
