<svg width="542.07pt" height="112.85pt" version="1.1" viewBox="0 0 542.07 112.85" xmlns="http://www.w3.org/2000/svg">
 <defs>
  <linearGradient id="a" x2="542.07" y1="56.427" y2="56.427" gradientUnits="userSpaceOnUse">
   <stop stop-color="#00acd1" offset="0"/>
   <stop stop-color="#00b78c" offset="1"/>
  </linearGradient>
 </defs>
 <g fill="url(#a)">
  <path d="m442.77 0.36989c-0.36693 0.0018-0.73815 0.070928-1.1148 0.20361l-45.996 26.47c-2.35 1.14-2.0698 3.9867-2.0698 6.1597l0.0426 48.94c0 2.3122 1.1722 3.663 2.8301 4.6201 14.56 8.5404 29.409 16.818 43.913 25.378 0.71217 0.45785 1.491 0.6842 2.2808 0.70313 0.0617 4e-3 0.12291 8e-3 0.18458 9e-3 0.0616-7.5e-4 0.12292-5e-3 0.18457-9e-3 0.78972-0.0189 1.5686-0.24528 2.2808-0.70313 14.573-8.4429 29.295-16.933 43.913-25.378 1.7943-1.0359 2.8301-2.1902 2.8301-4.6201l0.0426-48.94c0-2.1701 0.28018-5.0197-2.0698-6.1597l-45.996-26.47c-0.40074-0.14119-0.79525-0.20508-1.185-0.19922-0.0235-3.525e-4 -0.0468-0.0045-0.0703-0.004425zm0.0703 20.691c0.44712 0.02503 0.89121 0.16558 1.3286 0.37207l27.693 15.97c0.48227 0.38014 1.1558 0.73618 1.6099 1.2173 0.25777 0.31084 0.43906 0.66656 0.47022 1.1016l-0.0133 33.482 5e-3 0.12012c0.0493 1.6424-1.7863 2.2276-2.8814 3.0293l-26.877 15.463c-0.43874 0.20461-0.88495 0.34235-1.3345 0.36767-0.44952-0.02535-0.89573-0.16306-1.3345-0.36767l-26.877-15.463c-1.095-0.80171-2.9306-1.3869-2.8814-3.0293l5e-3 -0.12012-0.0133-33.482c0.0311-0.435 0.21243-0.79071 0.47021-1.1016 0.45405-0.4811 1.1276-0.83715 1.6099-1.2173l27.693-15.97c0.43739-0.20649 0.88149-0.34704 1.3286-0.37207z"/>
  <path d="m174.73 1.2513c2.3058-1.4801 5.3063-1.7621 7.6725-0.22152l41.494 23.954c2.4669 1.2385 4.5914 3.5644 4.4102 6.5045l0.0604 41.111 13.402 12.949-11.579 7.451c-3.8463 1.4801-7.5819-0.69476-10.482-3.0509l-37.376 21.537c-2.3058 1.4701-5.2358 1.2586-7.4812-0.20138l-42.128-24.367c-2.5776-1.319-3.7255-4.1988-3.5443-6.9778v-47.264c-0.19131-2.779 0.876-5.7091 3.4536-7.0483l42.098-24.377m0.57393 20.702-26.109 15.164c-2.2655 0.91627-1.6916 3.5946-1.7923 5.5278l0.0806 30.257c-0.17117 1.7923 1.8326 2.4266 3.0006 3.2724l27.107 15.591c1.4185 0.87811 2.8562-0.29991 4.1575-0.95055l22.947-13.311c2.8998-1.8326 6.424-1.752 9.646-0.89613-2.3964-3.071-4.0578-6.7663-4.1081-10.703l-0.1309-26.33c0.16111-1.6916-1.6714-2.3259-2.779-3.1113l-27.098-15.665c-1.6452-1.0735-3.395 0.41619-4.9217 1.1558z" stroke-width="1.0069"/>
  <path d="m528.08 7.5709h4.6175c2.74 0 5.4405 0.38041 7.4075 2.462 3.33 3.99 2.42 11.48-2.67 13.62-1.5945 0.66034-3.2812 0.811-4.9828 0.811h-4.3722v-16.893m3.51 2.912v11.06c1.75 0 2.7742 0.12018 4.215-0.7 2.88-1.47 3.09-5.65 1.66-8.21-1.5466-2.4455-3.6983-2.15-5.875-2.15z"/>
  <path d="m509.44 24.208v-16.42h3.56v6.555h6.425v-6.555h3.515v16.42h-3.515v-6.765l-6.425 0.04v6.725z"/>
  <path d="m1.595 27.673c2.27-2.79 6.22-2.34 9.43-2.38 3.19-0.19 5.69 2.06 8.34 3.47l60.975 35.23v-31.84c-0.13-3.1 2.145-6.12 5.265-6.59 4.26-0.5 8.55-0.11 12.82-0.21v55.82c0.17 3.5-2.85 6.71-6.36 6.66-2.92 0.01-6.15 0.61-8.8-0.93l-65.17-37.66v31.96c0.13 3.14-2.31 6.13-5.45 6.52-4.19 0.44-8.435 0.11-12.645 0.19v-53.75c0.04-2.23-0.045-4.76 1.595-6.49z"/>
  <path d="m265.63 27.673c2.27-2.79 6.22-2.34 9.43-2.38 3.19-0.19 5.69 2.06 8.34 3.47l60.975 35.23v-31.84c-0.13-3.1 2.145-6.12 5.265-6.59 4.26-0.5 8.55-0.11 12.82-0.21v55.82c0.17 3.5-2.85 6.71-6.36 6.66-2.92 0.01-6.15 0.61-8.8-0.93l-65.17-37.66v31.96c0.13 3.14-2.31 6.13-5.45 6.52-4.19 0.44-8.435 0.11-12.645 0.19v-53.75c0.04-2.23-0.045-4.76 1.595-6.49z"/>
 </g>
</svg>
