<svg width="800" height="167.41" version="1.1" viewBox="0 0 800 167.41" xml:space="preserve" xmlns="http://www.w3.org/2000/svg">
<path d="m285.52 0h-285.52v150.67h497.27v-150.67zm-263.85 140.03h-8.2705v-12.311h8.2705zm0-117.12h-8.2705v-12.311h8.2705zm25.382 117.12h-8.2704v-12.311h8.2704zm0-117.12h-8.2704v-12.311h8.2704zm25.334 117.12h-8.2704v-12.311h8.2704zm0-117.12h-8.2704v-12.311h8.2704zm25.382 117.12h-8.2705v-12.311h8.2705zm0-117.12h-8.2705v-12.311h8.2705zm25.382 117.12h-8.2704v-12.311h8.2704zm0-117.12h-8.2704v-12.311h8.2704zm25.382 117.12h-8.2704v-12.311h8.2704zm0-117.12h-8.2704v-12.311h8.2704zm25.334 117.12h-8.2704v-12.311h8.2704zm0-117.12h-8.2704v-12.311h8.2704zm25.382 117.12h-8.2705v-12.311h8.2705zm0-117.12h-8.2705v-12.311h8.2705zm25.382 117.12h-8.2704v-12.311h8.2704zm0-117.12h-8.2704v-12.311h8.2704zm27.901 117.12h-8.2704v-12.311h8.2704zm0-117.12h-8.2704v-12.311h8.2704zm25.334 117.12h-8.2704v-12.311h8.2704zm0-117.12h-8.2704v-12.311h8.2704zm25.382 117.12h-8.2705v-12.311h8.2705zm0-117.12h-8.2705v-12.311h8.2705zm25.382 117.12h-8.2705v-12.311h8.2705zm0-117.12h-8.2705v-12.311h8.2705zm25.382 117.12h-8.2704v-12.311h8.2704zm0-117.12h-8.2704v-12.311h8.2704zm25.334 117.12h-8.2229v-12.311h8.2705v12.311zm0-117.12h-8.2229v-12.311h8.2705v12.311zm25.382 117.12h-8.2705v-12.311h8.2705zm0-117.12h-8.2705v-12.311h8.2705zm25.382 117.12h-8.2704v-12.311h8.2704zm0-117.12h-8.2704v-12.311h8.2704zm28.947 117.12h-8.2705v-12.311h8.2705zm0-117.12h-8.2705v-12.311h8.2705zm25.334 117.12h-8.2229v-12.311h8.2704v12.311zm0-117.12h-8.2229v-12.311h8.2704v12.311z" clip-rule="evenodd" fill="#70308f" fill-rule="evenodd" stroke-width=".47531"/>
<rect x="521.66" y="127.76" width="277.63" height="12.311" clip-rule="evenodd" fill="#70308f" fill-rule="evenodd" stroke-width=".47531"/>
<g transform="matrix(.47531 0 0 .47531 -3023.6 -3338.4)" fill="#70308f">
	<path d="m7458.4 7236.8v-109.8h103.9v109.8h-36.9v-78.9h-30.1v78.9z"/>
	<path d="m7680.5 7223.6c-11.6 10.9-26.2 16.3-43.7 16.3-17.6 0-32.1-5.4-43.7-16.3-11.5-10.9-17.3-25-17.3-42.3s5.7-31.1 17.2-41.6 26.1-15.7 43.7-15.7c17.7 0 32.3 5.3 43.8 15.7 11.5 10.5 17.3 24.4 17.3 41.6 0.1 17.4-5.7 31.5-17.3 42.3zm-43.7-17.8c6.2 0 11.4-2.3 15.5-6.9s6.2-10.5 6.2-17.6c0-7-2-12.7-6.1-17.1-4.1-4.3-9.3-6.5-15.6-6.5s-11.5 2.2-15.6 6.5-6.1 10-6.1 17.1 2 13 6.1 17.6 9.3 6.9 15.6 6.9z"/>
	<path d="m7711.1 7236.8v-109.8h36v40.5h0.2l29.3-40.5h43.4l-41.3 50.2 43.3 59.6h-45.3l-29.3-43.7h-0.3v43.7z"/>
	<path d="m7823.9 7236.8 43.3-109.8h39.2l42.8 109.8h-40.2l-5.7-16.1h-34.9l-5.4 16.1zm53.4-44.3h17.8l-8.8-27.1z"/>
	<path d="m7998.9 7239.9c-11.9 0-21.5-1.4-28.7-4.1s-14-6.9-20.2-12.5l20-24c3 3.3 6.2 5.8 9.7 7.6s8 2.6 13.6 2.6c3.7 0 6.7-0.7 9.1-2 2.3-1.3 3.5-3.4 3.5-6 0-3.1-1.3-5.2-4-6.4-2.7-1.1-6.7-1.7-11.9-1.7h-10.5v-25.4h12.6c8.7 0 13-2.5 13-7.4 0-4.2-3.4-6.4-10.2-6.4-8.8 0-16.1 2.8-21.9 8.5l-19.2-22.3c11.9-11 27-16.4 45.4-16.4 13.1 0 23.6 2.7 31.4 8s11.7 12.6 11.7 21.8c0 6.3-1.7 11.7-5.1 16.1s-7.5 7.4-12.4 8.8v0.6c13 4.1 19.5 12.9 19.5 26.4 0 5.7-1.4 10.8-4.1 15.3s-6.3 8.1-10.8 10.8c-4.4 2.7-9.3 4.7-14.4 6.1s-10.6 2-16.1 2z"/>
</g>
<g transform="matrix(.47531 0 0 .47531 -3023.6 -3338.4)" fill="#fff">
	<path d="m6865.5 7236.8v-109.8h36v40.5h0.2l29.3-40.5h43.4l-41.3 50.2 43.3 59.6h-45.3l-29.3-43.7h-0.3v43.7z"/>
	<path d="m6984.6 7236.8v-109.8h35v58.8h0.6l32.3-58.8h38.3v109.8h-35v-55.5h-0.6l-31.3 55.5z"/>
	<path d="m7109.6 7236.8v-109.8h36.9v37.2h30.1v-37.2h36.9v109.8h-36.9v-41.7h-30.1v41.7z"/>
	<path d="m7331.7 7223.6c-11.6 10.9-26.2 16.3-43.7 16.3-17.6 0-32.1-5.4-43.7-16.3-11.5-10.9-17.3-25-17.3-42.3s5.7-31.1 17.2-41.6 26.1-15.7 43.7-15.7c17.7 0 32.3 5.3 43.8 15.7 11.5 10.5 17.3 24.4 17.3 41.6 0 17.4-5.7 31.5-17.3 42.3zm-43.8-17.8c6.2 0 11.4-2.3 15.5-6.9s6.2-10.5 6.2-17.6c0-7-2-12.7-6.1-17.1-4.1-4.3-9.3-6.5-15.6-6.5s-11.5 2.2-15.6 6.5-6.1 10-6.1 17.1 2 13 6.1 17.6 9.3 6.9 15.6 6.9z"/>
</g>
<g transform="matrix(.47531 0 0 .47531 -3023.6 -3338.4)" fill="#d9aa28">
		<path d="m6541.7 7234.2c8.1 0.5 13.5 4.6 17.2 9.3-5.3 1.9-12.4 3.9-18.4 6.8-1.2 24.9-1.8 52.1-1.3 80 0.2 3.7-1.8 4.9-4.8 2.9-6.9-4.4-13.6-12.3-16.1-34.3-0.7-7.3-1-20.5-0.7-36.2-21.1 12.2-33.4 22.4-48.4 28.6-0.8 24.6-1.9 58.6-0.4 84.5 0 0-31.4-3.6-35.3-74.6-9-0.3-13.9-3.9-16.5-6-3.9-3.2-3.9-0.7 2.1-2.8 5.3-1.7 10.3-3 14.7-4.8 0.9-53.5 5.4-124.1 10.1-148.7 1.1-5.1 4.4-5.4 8.1-2.2 9.1 8 25.6 21.6 24.2 49.7-1 22.2-3.7 50.9-5.5 84.1 20.5-11.9 27.5-21.2 47.2-30.6 1.7-49.6 6.2-111.5 10.8-133.1 1.2-5.3 4-5.8 7.6-2.1 8.1 8.2 13.5 24 11.3 52.7-1.5 20.8-3.9 46.8-5.9 76.8z"/>
		<path d="m6628.1 7130.9c0.8-3.9 2.7-5 5.6-3.5 6.1 2.9 13.2 12.3 13 26.1-0.3 12.4-4.3 34.4-4.2 48.9 0.2 15.3 5 25.1 13.5 21.2 10.1-4.6 16-25.2 16.8-44.1 0.2-2.5 1.8-3.4 3.8-1.7s4.8 7.3 4.8 14.8c-0.2 14.8-9.5 33.2-23.6 38.1-14.2 4.9-25.3 0.5-31-10.2-3.5 12.7-10.9 26-23.9 31.2-25.7 10.4-47.8-17.6-40-55.5 7.6-36.6 24-54.9 37.7-59.4 11.7-3.8 21.1 2.3 25.3 11.7 0.6-6.8 1.2-12.8 2.2-17.6zm-15.8 16.9c-8.6 2.2-19.9 24.7-23.6 51.3-3.6 25.8 3.7 47.9 14.1 43.9 10.7-4.2 16.5-24.4 19.2-49.9 3-31.8-1.9-47.2-9.7-45.3z"/>
		<path d="m6677 7111.6c7.6 2.6 16 19.6 9.1 85.7-0.4 2 0.5 2.7 1.3 2.7 2.3-0.1 9.3-5.7 17.7-26.1 10.6-25.6 9.2-76.6 12.5-75.3 21.9 5.9 0.5 82 13.8 85 3.2 0.7 11.6-10.2 18.7-30.7 6.6-18.7 4.4-70.2 7.2-69.1 6.8 2.6 16.5 20.5 12 64.2-2.6 25 31.3 14.5 29.7-18.3 0.2-2.3 1.8-2.9 3.5-1.8s4.2 8.2 4.1 13.9c-0.4 14.1-8.8 29.7-21 34.6-15.9 6.4-28.3-1.3-31.8-15.2-4.6 14.7-15.3 34.1-23.7 37.2-7.9 2.9-17.9-7-19.6-17.8-6.2 14.8-17.1 31.5-25.2 34.5-9 3.3-19.8-9-18.4-22.3 2.9-27.5 6.7-59.3 10.1-81.2z"/>
	<path d="m6688.6 7253.5c8.9-12 13.2-22.3 24.6-31.9 23.5-18.6 89.5-33.8 117.9-53.3-7.3 12.6-21.2 21.7-33 27.5-12.1 5.6-66.9 33.3-109.5 57.7z"/>
</g>
</svg>
