<!DOCTYPE svg  PUBLIC '-//W3C//DTD SVG 1.1//EN'  'http://www.w3.org/Graphics/SVG/1.1/DTD/svg11.dtd'>
<svg enable-background="new 0 0 234.561 74.182" version="1.1" viewBox="0 0 234.56 74.182" xml:space="preserve" xmlns="http://www.w3.org/2000/svg">
<rect x="116.57" y="36.856" width=".5" height=".468" fill="#11AA4B"/>
<circle cx="116.83" cy="37.133" r=".034" fill="none"/>
<path d="m116.83 37.094" fill="#57AB46"/>
<path d="m116.81 37.116c0-4e-3 3e-3 -6e-3 7e-3 -6e-3 3e-3 0 6e-3 2e-3 6e-3 6e-3 0 3e-3 -3e-3 6e-3 -6e-3 6e-3 -4e-3 0-7e-3 -3e-3 -7e-3 -6e-3zm0.109-0.011h-0.017v-0.021h0.017c5e-3 0 0.011 5e-3 0.011 0.011-1e-3 6e-3 -6e-3 0.01-0.011 0.01zm3e-3 0.041h-0.02v-0.021h0.02c8e-3 0 0.013 4e-3 0.013 0.012-1e-3 6e-3 -7e-3 9e-3 -0.013 9e-3zm4e-3 0.021c0.021 0 0.033-0.012 0.033-0.03 0-0.012-6e-3 -0.021-0.016-0.024 8e-3 -5e-3 9e-3 -0.013 9e-3 -0.021 0-0.018-0.014-0.026-0.033-0.026h-0.059v0.02h0.017v0.063h-0.017v0.021h0.066zm-0.131-0.103h-0.039v0.041h-0.022v-0.041h-0.039v0.02h0.017v0.063h-0.017v0.021h0.039v-0.042h0.022v0.042h0.039v-0.021h-0.017v-0.063h0.017v-0.02zm0.173 0.047c9e-3 5e-3 0.014 0.015 0.014 0.026 0 0.017-5e-3 0.026-0.016 0.036-0.01 0.011-0.023 0.016-0.043 0.016h-0.083v-0.024c0.014-5e-3 0.022-0.018 0.022-0.032s-9e-3 -0.026-0.022-0.031v-0.077h0.021v0.019h0.021v-0.037h-0.109v0.037h0.021v-0.019h0.021v0.077c-0.014 5e-3 -0.022 0.017-0.022 0.031 0 0.016 9e-3 0.027 0.022 0.032v0.024h-0.146v-0.064h0.018v-0.02h-0.018v-0.063h0.08v-0.057h0.154v0.057h0.011c0.017 0 0.032 4e-3 0.042 0.012 0.011 8e-3 0.019 0.019 0.019 0.034 0 7e-3 -1e-3 0.017-7e-3 0.023z" fill="#fff"/>
<polygon points="117.87 37.33 117.99 37.2 117.99 36.86 117.07 36.86 117.07 37.33" fill="#3D65B0"/>
<path d="M117.29,37.219V36.98h-0.032v0.238h-0.028v-0.267h0.091v0.267H117.29z" fill="#fff"/>
<path d="m117.37 37.219v-0.267h0.046c9e-3 0 0.025 1e-3 0.035 0.017 9e-3 0.012 0.01 0.026 0.01 0.036v0.045c0 0.014-3e-3 0.027-0.01 0.036-7e-3 0.011-0.017 0.014-0.027 0.015-7e-3 0-0.019 0-0.023-1e-3v0.12l-0.031-1e-3zm0.044-0.149c5e-3 0 0.013 1e-3 0.017-7e-3 1e-3 -1e-3 2e-3 -5e-3 2e-3 -0.019v-0.042c0-2e-3 0-0.012-4e-3 -0.017-5e-3 -4e-3 -0.011-5e-3 -0.015-5e-3h-0.013v0.09h0.013z" fill="#fff"/>
<path d="m117.55 37.219-5e-3 -0.05h-0.033l-6e-3 0.05h-0.03l0.033-0.267h0.038l0.033 0.267h-0.03zm-8e-3 -0.078-0.014-0.131-0.014 0.132 0.028-1e-3z" fill="#fff"/>
<path d="m117.62 36.952h0.045c0.02 0 0.029 8e-3 0.034 0.014 0.01 0.013 0.01 0.028 0.01 0.043v0.027c0 9e-3 0 0.021-5e-3 0.029s-0.012 0.012-0.019 0.014v1e-3c0.013 4e-3 0.02 0.012 0.021 0.021 3e-3 8e-3 3e-3 0.019 3e-3 0.028v0.038c0 0.012 0 0.024-6e-3 0.035-5e-3 8e-3 -0.015 0.018-0.032 0.018h-0.053l2e-3 -0.268zm0.042 0.112c4e-3 0 0.01 0 0.015-5e-3 5e-3 -4e-3 6e-3 -0.013 6e-3 -0.021v-0.032c0-5e-3 0-0.014-6e-3 -0.019-3e-3 -3e-3 -9e-3 -6e-3 -0.017-6e-3h-9e-3v0.083h0.011zm0 0.126c4e-3 0 0.012 0 0.017-6e-3 2e-3 -3e-3 3e-3 -0.01 3e-3 -0.019v-0.04c0-0.01 0-0.019-5e-3 -0.024-5e-3 -0.01-0.014-0.01-0.019-0.01h-9e-3v0.1l0.013-1e-3z" fill="#fff"/>
<path d="m117.76 37.206c-0.011-0.014-0.01-0.033-0.01-0.047v-0.149c0-0.015-1e-3 -0.032 0.01-0.047 5e-3 -5e-3 0.016-0.016 0.035-0.016 0.021 0 0.031 0.01 0.036 0.016 0.011 0.015 0.01 0.033 0.01 0.047v0.148c0 0.014 1e-3 0.033-0.01 0.047-4e-3 5e-3 -0.015 0.017-0.036 0.017s-0.031-0.01-0.035-0.016zm0.019-0.04c0 0.014 1e-3 0.019 2e-3 0.021 2e-3 4e-3 6e-3 7e-3 0.013 7e-3s0.013-3e-3 0.014-7e-3c2e-3 -2e-3 2e-3 -7e-3 2e-3 -0.021v-0.162c0-0.013 0-0.018-2e-3 -0.021-1e-3 -4e-3 -7e-3 -7e-3 -0.014-7e-3s-0.011 3e-3 -0.013 7e-3c-1e-3 3e-3 -2e-3 7e-3 -2e-3 0.021v0.162z" fill="#fff"/>
<rect y=".001" width="74.18" height="74.181" fill="#11AA4B"/>
<rect x="74.179" width="160.38" height="74.18" fill="#EF5190"/>
<path d="m34.727 41.59c0-0.566 0.46-1.025 1.024-1.025 0.565 0 1.024 0.459 1.024 1.025 0 0.567-0.459 1.022-1.024 1.022-0.564 0-1.024-0.455-1.024-1.022m17.292-1.665h-2.633v-3.327h2.682c0.83 0 1.569 0.739 1.569 1.618-1e-3 1.016-0.785 1.709-1.618 1.709m0.463 6.517h-3.098v-3.467h3.098c1.015 0 1.802 0.738 1.802 1.711 0 1.061-0.739 1.756-1.802 1.756m0.646 3.283c3.283 0 5.271-1.896 5.271-4.854 0-1.757-0.878-3.188-2.494-3.881 1.248-0.834 1.525-2.035 1.525-3.283 0-2.866-2.175-4.301-5.225-4.301h-9.291v3.191h2.683v9.845h-2.683v3.283h10.214zm-20.847-16.32h-6.194v6.52h-3.742v-6.52h-6.193v3.191h2.68v9.845h-2.68v3.283h6.193v-6.75h3.742v6.75h6.194v-3.283h-2.588v-9.845h2.588v-3.191zm27.549 7.49c1.201 0.877 2.081 2.402 2.081 4.162 0 2.681-0.833 4.296-2.312 5.775s-3.929 2.4-6.842 2.4h-13.265v-3.82c2.076-0.77 3.557-2.769 3.557-5.113s-1.479-4.346-3.557-5.114v-12.155h3.421v3.05h3.375v-5.824h-17.38v5.824h3.373v-3.05h3.42v12.152c-2.077 0.771-3.56 2.771-3.56 5.117s1.482 4.347 3.56 5.117v3.816h-22.97v-10.258h2.725v-3.051h-2.725v-10.027h12.664v-9.018h24.5v9.018h1.708c2.541 0 4.992 0.599 6.563 1.755 1.71 1.247 2.774 3.096 2.774 5.639 1e-3 1.06-0.232 2.635-1.11 3.605" fill="#fff"/>
<path d="m116.17 43.623c0.529 0.244 0.729 0.904 0.41 1.395-2.078 3.21-5.362 4.463-8.133 4.463-4.732 0-9.5-2.759-9.5-8.24v-8.309c0-5.446 4.767-8.239 9.602-8.239 2.728 0 5.972 1.067 7.985 4.581 0.289 0.502 0.056 1.146-0.482 1.364l-3.281 1.324c-0.382 0.155-0.826 0.054-1.091-0.265-1.954-2.342-6.639-1.561-6.639 1.233v8.309c0 2.668 4.629 3.571 6.394 1.084 0.271-0.384 0.771-0.529 1.198-0.333l3.537 1.633z" fill="#fff"/>
<path d="m132.51 31.876v16.423c0 0.534-0.432 0.967-0.964 0.967h-4.234c-0.532 0-0.964-0.433-0.964-0.967v-16.423c0-0.532-0.433-0.966-0.966-0.966h-4.473c-0.532 0-0.964-0.432-0.964-0.964v-3.857c0-0.533 0.432-0.966 0.964-0.966h17.036c0.533 0 0.964 0.433 0.964 0.966v3.857c0 0.532-0.431 0.964-0.964 0.964h-4.471c-0.531 0-0.964 0.434-0.964 0.966z" fill="#fff"/>
<path d="m157.09 34.973c-0.025-0.035-0.115-0.049-0.153-0.03-0.021 9e-3 -0.037 0.051-0.046 0.068-1.791 3.474-5.695 10.166-7.745 13.652-0.173 0.294-0.489 0.476-0.83 0.476h-4.246c-0.532 0-0.965-0.433-0.965-0.965v-22.178c0-0.532 0.433-0.964 0.965-0.964h4.193c0.54 0 0.976 0.443 0.965 0.983-0.079 3.581-0.38 10.161-0.502 13.51 0 0.011-2e-3 0.046 5e-3 0.054 0.021 0.028 0.092 0.045 0.122 0.027 0.012-7e-3 0.025-0.034 0.031-0.043 1.958-3.498 5.787-10.463 7.863-14.052 0.172-0.299 0.489-0.479 0.834-0.479h4.068c0.533 0 0.965 0.432 0.965 0.964v22.179c0 0.532-0.432 0.965-0.965 0.965h-4.19c-0.543 0-0.978-0.444-0.965-0.986 0.088-3.48 0.354-9.859 0.601-13.101 2e-3 -0.02 7e-3 -0.067-5e-3 -0.08z" fill="#fff"/>
<path d="m176.76 34.976c-0.021 0.016-0.027 0.038-0.03 0.05-1.038 3.405-4.169 13.751-4.169 13.751-0.071 0.26-0.31 0.439-0.577 0.439h-4.74c-0.659 0-1.125-0.646-0.915-1.271l7.456-22.179c0.133-0.395 0.5-0.658 0.914-0.658h4.236c0.411 0 0.776 0.262 0.911 0.649l7.645 22.18c0.215 0.626-0.25 1.278-0.912 1.278h-4.737c-0.266 0-0.5-0.176-0.574-0.431 0 0-3.19-10.322-4.267-13.765-4e-3 -0.011-0.011-0.03-0.032-0.046-0.044-0.028-0.167-0.028-0.209 3e-3z" fill="#fff"/>
<path d="m201.28 49.139h-8.944c-0.531 0-0.965-0.433-0.965-0.965v-22.178c0-0.532 0.434-0.964 0.965-0.964h4.2c0.533 0 0.965 0.432 0.965 0.964v6.277c0 0.533 0.433 0.965 0.964 0.965h2.646c6.538 0 8.681 3.029 8.681 7.627-1e-3 4.733-3.167 8.274-8.512 8.274zm-0.17-5.347c2.078 0 2.688-1.464 2.688-2.995 0-1.771-1.021-2.724-2.688-2.724h-2.646c-0.531 0-0.964 0.432-0.964 0.964v3.791c0 0.532 0.433 0.964 0.964 0.964h2.646z" fill="#fff"/>
</svg>
