<svg width="609.2pt" height="801.18pt" version="1.1" viewBox="0 0 609.2 801.18" xmlns="http://www.w3.org/2000/svg">
 <path d="m470.55 0.47318c9.01-0.85 18.09-0.26 27.14-0.43 21.54 1.41 43.42 6.16 62.01 17.57 14.97 8.96 27.3 22.17 35.21 37.72 8.23 15.48 12.17 32.89 13.7 50.26 2.47 35.41-3.06 70.99-13.24 104.88-12.31 41.05-31.19 79.89-53.66 116.3-38.19 61.46-86.7 116.28-141.78 163.1-31.37 26.47-65.02 50.33-100.92 70.27-36.4 20.21-75.29 36.38-116 45.46-17.25 3.71-34.79 6.33-52.45 6.71-5.97 0.9-12.02 0.73-18-0.05-22.11-0.56-44.46-5.84-63.49-17.39-9.02-5.28-16.5-12.67-23.45-20.38-17.14-20.95-24.31-48.3-25.55-74.91 0.25-9.65-0.65-19.36 0.79-28.94 2.66-30.9 10.99-61.08 22.14-89.93 11.14-28.97 25.52-56.6 41.88-82.94 40.74-64.88 92.39-122.58 150.36-172.51 47.64-40.53 100.03-76.39 158.13-100.19 31.04-12.63 63.71-21.74 97.18-24.6m-35 36.53c-19.68 1.18-39.16 4.91-57.96 10.86-29.34 9.07-57.17 22.57-83.42 38.44-47.86 29.19-90.91 65.81-129.4 106.45-41.15 44.38-77.89 93.76-102.46 149.34-13.2 30.54-23.08 63.05-24.33 96.48-0.66 20.64 2.24 41.99 12.24 60.34 8.28 15.34 21.99 27.65 38.13 34.23 12.08 5.16 25.22 7.42 38.28 8.05 31.71 0.98 63.14-6.2 92.83-16.91 37.77-13.8 73.03-33.82 105.72-57.1 28.36-20.2 54.7-43.14 79.16-67.88 43.78-44.92 81.83-96.15 107.79-153.46 15.51-34.41 26.45-71.39 27.85-109.27 0.31-21.25-3.13-43.42-14.81-61.6-8.96-14.04-22.72-24.75-38.26-30.62-16.29-6.3-34.01-8.01-51.36-7.35z" fill="#818286"/>
 <path d="m294.02 118.04c5.76-5.39 12.55-10.47 20.52-11.7 10.096-1.2738 7.3356 3.7336 5.75 8.66l-41.28 117.8c-2.53 6.65-4.15 13.8-8.45 19.63-6.11 8.54-14.41 16.08-24.56 19.35-3.97 0.92-9.61 1.27-11.62-3.15-0.96-3.76-0.43-7.77 0.94-11.36l32.88-85.6c-6.95 6.18-13.98 13.49-23.62 14.96-2.9369 0.64885-6.0852-1.6543-6.3458-4.5572-0.15138-8.0778 5.8437-14.018 8.8358-17.063 15.64-15.67 31.31-31.31 46.95-46.97z" fill="#818286"/>
 <path d="m316.01 611.96h30.405v57.24h-8.145v-49.3h-14.33v49.3h-7.93z" fill="#818286"/>
 <path d="m352 612h25.87v8.015h-17.865v14.985h15.91v7.835h-15.91v18.345h17.94v7.995h-25.945z" fill="#818286"/>
 <path d="m382.91 611.91h11.56c4.402 0 8.6692 0.61801 12.26 3.528 4.7073 3.3427 6.9613 9.0298 6.744 14.608 0 9.6562-7.0065 16.683-15.196 16.792h-7.3733v22.35h-7.995v-57.278m7.47 8.1495v17.918h8.1664c4.7255-0.58216 7.242-5.4845 6.6983-9.5327-0.63133-4.2994-3.4351-8.2209-8.1609-8.3856z" fill="#818286"/>
 <path d="m418.23 612.04c5.42-0.01 10.855-0.27 16.265 0.05 6.6712 0.84067 12.288 6.6822 12.929 13.336 0.19131 1.515 0.16928 3.1082-0.0474 4.5366-0.49625 3.1774-2.4586 5.9842-4.2916 8.5971 2.67 2.79 5.41 5.98 5.93 9.96 0.54286 3.7971 0.53 8.4-1.64 12-2.75 4.88-7.94 8.98-13.77 8.72-5.12 0.05-10.255 0-15.375-0.07v-57.13m8.105 8.1397v14.89h5.3c5.0546 0 7.8478-4.1002 7.67-8.5102 0.0271-3.1729-2.6979-6.3803-6.19-6.3803h-6.78m0 22.73v19.07h6.4872c5.1213 0 8.5769-5.7779 8.5463-9.6942-0.18504-5.2388-3.4679-9.376-8.6054-9.376z" fill="#818286"/>
 <path d="m455.14 611.99h8.04v22.86h1.04c4.3346 0.0159 9.1213 7e-3 12.992 2.0822 2.4917 1.5681 4.0967 3.0128 5.5155 4.9065 4.5675 6.1555 4.6462 15.492-0.49722 21.371-2.89 3.37-7 6.18-11.62 5.98h-15.47v-57.2m8.04 30.93v18.25c3.7413 0.0533 6.5668 0.15651 8.42-0.16 4.0114-1.0177 6.6078-5.1887 6.5885-9.211-0.39351-8.0913-7.63-9.4839-15.009-8.879z" fill="#818286"/>
 <path d="m489.23 612h7.955v57.205h-7.955z" fill="#818286"/>
 <g transform="matrix(.54607 0 0 .54607 137.75 224.9)" fill="#818286">
  <path d="m683.39 692.42h10.9c0 3.1326 2.2512 5.1631 5.1501 5.1755 2.9319 0 5.5799-2.3642 5.5799-5.1755h10.59c0 10.739-7.7685 16.246-16.519 16.246-8.3673 0-15.701-5.4978-15.701-16.246z"/>
  <path d="m669.27 708.36h14.335v64.52l32.165-64.52h11.54v105.38h-14.67v-65.19l-31.98 65.19h-11.39z"/>
 </g>
 <path d="m24.18 692.46c15.32-2.61 31.33 9.81 32.05 25.44v57.39c-0.6 14.5-14.36 26.33-28.66 25.85-13.51-0.11-25.91-11.07-27.46-24.51l-0.07-56.09c-0.81-13.71 10.72-26.37 24.14-28.08m-0.19 14.73c-6.04 1.92-10.15 8.1-9.9 14.39l0.02 51.02c-0.03 4.28 2.18 8.37 5.52 10.98 3.71 3.3 9.27 3.47 13.79 2.03 4.65-2.12 8.23-6.81 8.56-11.96l0.2-52.05c0.3-5.13-2.39-10.28-6.8-12.92-3.27-2.38-7.61-2.05-11.39-1.49z" fill="#818286"/>
 <path d="m287.27 703.18c6.88-9.05 19.52-13.25 30.4-9.8 12.1 3.14 20.53 15.21 20.51 27.54h-13.84c-1.23-4.8-2.98-10.18-7.81-12.47-8.01-4.9-19.8 0.8-20.55 10.23l-0.08 53.86c-0.52 7.56 6.42 13.87 13.66 14.34 7.26-0.26 14.04-6.475 13.86-13.975h14.88c-0.72 7.29-3.04 14.715-8.59 19.805-5.67 5.84-14.03 9.06-22.15 8.35-8.69-0.73-16.91-5.54-21.6-12.92-3.69-5.44-4.53-12.16-4.78-18.57l-0.01-45c0.14-7.48 1.27-15.39 6.1-21.39z" fill="#818286"/>
 <path d="m506.41 692.48c15.32-2.61 31.33 9.81 32.05 25.44v57.39c-0.6 14.5-14.36 26.33-28.66 25.85-13.51-0.11-25.91-11.07-27.46-24.51l-0.07-56.09c-0.81-13.71 10.72-26.37 24.14-28.08m-0.19 14.73c-6.04 1.92-10.15 8.1-9.9 14.39l0.02 51.02c-0.03 4.28 2.18 8.37 5.52 10.98 3.71 3.3 9.27 3.47 13.79 2.03 4.65-2.12 8.23-6.81 8.56-11.96l0.2-52.05c0.3-5.13-2.39-10.28-6.8-12.92-3.27-2.38-7.61-2.05-11.39-1.49z" fill="#818286"/>
 <path d="m68.165 693.33h46.84v14.785h-32.195v27.215c8.37 0.42 17.31 0.02 24.9 4.16 8.12 4.23 14.42 12.05 16.29 21.08 3.58 13.35-3.35 28.26-15.27 34.96-5.4246 3.1658-11.764 4.1795-17.992 4.118h-22.573v-106.32m14.645 91.92c7.2507 0 15.916 0.61428 21.24-4.24 8.24-6.47 8.46-20.54-0.05-26.89-5.1714-4.399-14.001-4.05-21.19-4.05z" fill="#818286"/>
 <path d="m149.35 693.36h48.5v105.87h-14.765v-91.11h-19.075v34.625c-0.16141 11.74-3.18 30.59-10.35 44.07-3.72 7.25-11.105 13.1-19.565 12.67v-13.95c7.75-2.08 9.825-10.81 11.565-17.58 5.21-24.5 3.69-40.894 3.69-74.595z" fill="#818286"/>
 <path d="m415.26 693.98h14.06v42.25h28.52v-42.25h14.27v105.33h-14.27v-48.385h-28.52v48.385h-14.06z" fill="#818286"/>
 <path d="m205.95 799.3c8.01-35.07 15.37-70.29 23.14-105.41 6.93 0.04 13.85 0.01 20.78 0.03 5.19 22.55 9.82 45.23 14.91 67.81 2.83 12.49 5.18 25.09 8.38 37.49-4.94 0.78-9.94 0.49-14.9 0.13-2.24-9.22-4.17-18.51-6.11-27.8-8.55 0.03-17.24-0.91-25.68 0.57-1.22 9.16-3.81 18.07-5.48 27.16-5.01 0.3-10.05 0.78-15.04 0.02m24.02-42.17c6.17 0.09 12.35 0 18.52 0.06-0.22-3.26-0.73-6.49-1.55-9.65-2.64-11.08-4.6-22.31-7.48-33.33-3.14 14.31-6.06 28.68-9.49 42.92z" fill="#818286"/>
 <path d="m348.02 693.91h58.88v14.2h-21.99v91.195h-14.58v-91.195h-22.31z" fill="#818286"/>
 <g transform="translate(-118.41 -14.427)" fill="#818286">
  <path d="m683.39 692.42h10.9c0 3.1326 2.2512 5.1631 5.1501 5.1755 2.9319 0 5.5799-2.3642 5.5799-5.1755h10.59c0 10.739-7.7685 16.246-16.519 16.246-8.3673 0-15.701-5.4978-15.701-16.246z"/>
  <path d="m669.27 708.36h14.335v64.52l32.165-64.52h11.54v105.38h-14.67v-65.19l-31.98 65.19h-11.39z"/>
 </g>
 <g transform="translate(-118.41 -14.427)">
  <path d="m466.47 119.38c5.5168-6.5756 12.472-11.96 20.321-15.411 6.0236-3.0402 10.921-2.638 19.259-2.6923 10.53-0.0536 21.045 0.8602 30.999 4.5932 14.64 5.32 27.05 16.73 32.84 31.28 2.94 6.61 4.06 13.8 5.28 20.87 1.39 14.37-0.18 28.88-3.29 42.93-0.81 4.05-1.86 8.04-3 12.01-0.57 2.05-1.17 4.08-1.73 6.13-2.06 5.96-4.09 11.94-6.35 17.83-2.23 5.39-4.51 10.76-7 16.03-20.85 44.29-51.31 83.51-85.85 117.95-36.91 35.63-79.11 66.8-127.02 85.93-0.99 0.35-1.97 0.7-2.95 1.07-2 0.74-4 1.5-5.97 2.32-0.53 0.14-1.58 0.4-2.11 0.54-8.4 3.12-17.13 5.27-25.87 7.18-10.53 2.42-21.32 3.08-32.09 2.78-14.12 0.46-28.57-3.35-40.12-11.62-11.61-8.43-19.27-21.58-22.15-35.52-2.16-8.34-1.35-17.02-1.52-25.53 0.18-5.34-0.27-10.77 0.97-16.01 2.75-19.83 9.54-38.89 17.74-57.08 20.67-44.5 51.05-83.86 85.15-118.88 6.42-6.3 12.76-13.12 20.98-17.07 2.86-1.24 6.75-2.76 9.38-0.24 3.3225 2.6788 0.14741 8.333-1.3787 11.193-3.8011 7.062-10.275 12.483-15.961 18.047-29.14 29.82-54.88 63.93-70.24 102.98-0.14 0.51-0.42 1.52-0.56 2.03-1.39 3.22-2.4 6.58-3.44 9.93-1.43 5.32-2.81 10.66-3.71 16.1-1.77 10.21-2.06 20.75-0.08 30.95 2.31 9.81 7.04 19.43 15.12 25.74 5.16 4.17 11.37 6.83 17.77 8.45 10.88 2.4 22.23 1.71 33.15-0.06 6.74-1.44 13.42-3.11 19.95-5.32 0.52-0.13 1.55-0.41 2.07-0.54 2.93-1.29 5.95-2.36 8.97-3.43 34.42-14.15 65.15-36.22 91.97-61.82 29.74-28.59 55.5-61.96 72.2-99.88 1.69-4.02 3.22-8.11 4.69-12.22 1.06-2.99 2.06-5.99 3.01-9.02 1.62-5.92 3.32-11.85 4.07-17.96 2.61-15.01 1.97-31.48-6.16-44.79-5.69-9.32-15.4-15.47-25.81-18.28-8.45-2.78-17.47-0.39-25.97-2.62-4.8229-2.0945-0.8953-12.76 4.44-18.87z" fill="#e5413f"/>
 </g>
</svg>
