<svg width="800" height="700.51" version="1.1" viewBox="0 0 800 700.51" xml:space="preserve" xmlns="http://www.w3.org/2000/svg">
<g transform="matrix(1.0945 0 0 1.0945 -649.94 -235.11)">
			<linearGradient id="SVGID_1_" x1="476.58" x2="1428.7" y1="321.36" y2="598.29" gradientUnits="userSpaceOnUse">
				<stop stop-color="#E2E193" offset="0"/>
				<stop stop-color="#D9CE83" offset=".2211"/>
				<stop stop-color="#C9AA65" offset=".7383"/>
				<stop stop-color="#C39D59" offset="1"/>
			</linearGradient>
			<polygon points="951.9 214.8 865.9 410.6 951.9 704.4" fill="url(#SVGID_1_)"/>
			<linearGradient id="SVGID_2_" x1="445.1" x2="1397.2" y1="429.58" y2="706.51" gradientUnits="userSpaceOnUse">
				<stop stop-color="#E2E193" offset="0"/>
				<stop stop-color="#D9CE83" offset=".2211"/>
				<stop stop-color="#C9AA65" offset=".7383"/>
				<stop stop-color="#C39D59" offset="1"/>
			</linearGradient>
			<polygon points="852.3 416.1 655.9 363.8 936.6 704.4" fill="url(#SVGID_2_)"/>
			<linearGradient id="SVGID_3_" x1="442.91" x2="1395" y1="437.11" y2="714.04" gradientUnits="userSpaceOnUse">
				<stop stop-color="#E2E193" offset="0"/>
				<stop stop-color="#D9CE83" offset=".2211"/>
				<stop stop-color="#C9AA65" offset=".7383"/>
				<stop stop-color="#C39D59" offset="1"/>
			</linearGradient>
			<polygon points="780.9 637.8 917 704.4 635.6 363.8" fill="url(#SVGID_3_)"/>
			<linearGradient id="SVGID_4_" x1="477.73" x2="1429.9" y1="317.41" y2="594.34" gradientUnits="userSpaceOnUse">
				<stop stop-color="#E2E193" offset="0"/>
				<stop stop-color="#D9CE83" offset=".2211"/>
				<stop stop-color="#C9AA65" offset=".7383"/>
				<stop stop-color="#C39D59" offset="1"/>
			</linearGradient>
			<polygon points="966.6 214.8 1052.6 410.6 966.6 704.4" fill="url(#SVGID_4_)"/>
			<linearGradient id="SVGID_5_" x1="469.89" x2="1422" y1="344.37" y2="621.29" gradientUnits="userSpaceOnUse">
				<stop stop-color="#E2E193" offset="0"/>
				<stop stop-color="#D9CE83" offset=".2211"/>
				<stop stop-color="#C9AA65" offset=".7383"/>
				<stop stop-color="#C39D59" offset="1"/>
			</linearGradient>
			<polygon points="1066.1 416.2 1262.5 363.8 982 704.4" fill="url(#SVGID_5_)"/>
			<linearGradient id="SVGID_6_" x1="471.45" x2="1423.6" y1="338.99" y2="615.91" gradientUnits="userSpaceOnUse">
				<stop stop-color="#E2E193" offset="0"/>
				<stop stop-color="#D9CE83" offset=".2211"/>
				<stop stop-color="#C9AA65" offset=".7383"/>
				<stop stop-color="#C39D59" offset="1"/>
			</linearGradient>
			<polygon points="1137.7 637.8 1001.6 704.4 1282.9 363.8" fill="url(#SVGID_6_)"/>
		<linearGradient id="SVGID_7_" x1="502.5" x2="1186.2" y1="785.01" y2="983.86" gradientUnits="userSpaceOnUse">
			<stop stop-color="#E2E193" offset="0"/>
			<stop stop-color="#D9CE83" offset=".2211"/>
			<stop stop-color="#C9AA65" offset=".7383"/>
			<stop stop-color="#C39D59" offset="1"/>
		</linearGradient>
		<path d="m593.8 784.7h47.3v67.5h-7.3v-59.9h-32.6v59.9h-7.3v-67.5z" fill="url(#SVGID_7_)"/>
		<linearGradient id="SVGID_8_" x1="507.19" x2="1190.9" y1="768.9" y2="967.75" gradientUnits="userSpaceOnUse">
			<stop stop-color="#E2E193" offset="0"/>
			<stop stop-color="#D9CE83" offset=".2211"/>
			<stop stop-color="#C9AA65" offset=".7383"/>
			<stop stop-color="#C39D59" offset="1"/>
		</linearGradient>
		<path d="m667.3 784.7h12.9c3.2 0 6 0.2 8.6 0.5 2.5 0.3 4.9 1.3 6.9 2.9 2 1.5 3.5 3.6 4.6 6.3 1.1 2.6 1.7 5.6 1.7 8.9 0 3.4-0.6 6.4-1.7 9s-2.6 4.7-4.6 6.2c-2.1 1.6-4.4 2.6-6.9 2.9s-5.4 0.5-8.6 0.5h-5.7v30.3h-7.1v-67.5zm26.7 19c0-2.4-0.3-4.4-1-5.9s-1.6-2.7-3-3.6c-1.3-0.8-3-1.4-5-1.8-2-0.3-4.3-0.5-7-0.5h-3.7v22.6h3.7c2.6 0 4.9-0.1 6.9-0.4 2-0.2 3.6-0.8 5-1.6 1.3-0.8 2.3-1.9 3-3.3 0.8-1.3 1.1-3.1 1.1-5.5z" fill="url(#SVGID_8_)"/>
		<linearGradient id="SVGID_9_" x1="511.99" x2="1195.7" y1="752.38" y2="951.24" gradientUnits="userSpaceOnUse">
			<stop stop-color="#E2E193" offset="0"/>
			<stop stop-color="#D9CE83" offset=".2211"/>
			<stop stop-color="#C9AA65" offset=".7383"/>
			<stop stop-color="#C39D59" offset="1"/>
		</linearGradient>
		<path d="m722.9 784.7h32.4v7.3h-25.1v19.4h25.1v7.5h-25.1v25.9h25.1v7.5h-32.4z" fill="url(#SVGID_9_)"/>
		<linearGradient id="SVGID_10_" x1="517.34" x2="1201" y1="733.99" y2="932.85" gradientUnits="userSpaceOnUse">
			<stop stop-color="#E2E193" offset="0"/>
			<stop stop-color="#D9CE83" offset=".2211"/>
			<stop stop-color="#C9AA65" offset=".7383"/>
			<stop stop-color="#C39D59" offset="1"/>
		</linearGradient>
		<path d="m790.3 806.3-7.7 45.9h-7.1l12.5-70.2 21.5 55.9 21.5-55.9 12.5 70.2h-7.1l-7.8-45.9-19 48.5z" fill="url(#SVGID_10_)"/>
		<linearGradient id="SVGID_11_" x1="523.71" x2="1207.4" y1="712.1" y2="910.96" gradientUnits="userSpaceOnUse">
			<stop stop-color="#E2E193" offset="0"/>
			<stop stop-color="#D9CE83" offset=".2211"/>
			<stop stop-color="#C9AA65" offset=".7383"/>
			<stop stop-color="#C39D59" offset="1"/>
		</linearGradient>
		<path d="m864.4 784.7h7.1v50.5l42.5-53.2v70.2h-7v-50.6l-42.5 53.2v-70.1z" fill="url(#SVGID_11_)"/>
		<linearGradient id="SVGID_12_" x1="528.63" x2="1212.3" y1="695.18" y2="894.04" gradientUnits="userSpaceOnUse">
			<stop stop-color="#E2E193" offset="0"/>
			<stop stop-color="#D9CE83" offset=".2211"/>
			<stop stop-color="#C9AA65" offset=".7383"/>
			<stop stop-color="#C39D59" offset="1"/>
		</linearGradient>
		<path d="m961.8 782 27.9 70.2h-7.9l-8-20.7h-24l-8 20.7h-7.9zm0 17.8-9.8 24.9h19.5z" fill="url(#SVGID_12_)"/>
		<linearGradient id="SVGID_13_" x1="534.16" x2="1217.9" y1="676.16" y2="875.02" gradientUnits="userSpaceOnUse">
			<stop stop-color="#E2E193" offset="0"/>
			<stop stop-color="#D9CE83" offset=".2211"/>
			<stop stop-color="#C9AA65" offset=".7383"/>
			<stop stop-color="#C39D59" offset="1"/>
		</linearGradient>
		<polygon points="1032.7 799.8 1052.7 852.2 1060.6 852.2 1032.7 782 1004.8 852.2 1012.8 852.2" fill="url(#SVGID_13_)"/>
		<linearGradient id="SVGID_14_" x1="538.6" x2="1222.3" y1="660.88" y2="859.73" gradientUnits="userSpaceOnUse">
			<stop stop-color="#E2E193" offset="0"/>
			<stop stop-color="#D9CE83" offset=".2211"/>
			<stop stop-color="#C9AA65" offset=".7383"/>
			<stop stop-color="#C39D59" offset="1"/>
		</linearGradient>
		<path d="m1076.8 784.7h7.1v29.3h8.3c2.6 0 5.1 0.2 7.4 0.6s4.4 1.4 6.3 2.8c2.3 1.8 4 4.1 5.1 6.9s1.7 5.7 1.7 8.7-0.5 5.9-1.6 8.8-2.7 5.2-5 6.9c-2.2 1.6-4.6 2.6-7.1 3-2.6 0.4-5.1 0.5-7.7 0.5h-14.6v-67.5zm7.1 60.4h5.3c2.7 0 5.1-0.1 7.1-0.3s3.6-0.8 4.9-1.9c1.2-0.9 2.1-2.3 2.8-4s1-3.7 1-5.7c0-5-1.6-8.5-4.7-10.6-1.3-0.8-2.6-1.3-4.1-1.5s-3.1-0.2-4.9-0.2h-7.4z" fill="url(#SVGID_14_)"/>
		<linearGradient id="SVGID_15_" x1="544.61" x2="1228.3" y1="640.21" y2="839.07" gradientUnits="userSpaceOnUse">
			<stop stop-color="#E2E193" offset="0"/>
			<stop stop-color="#D9CE83" offset=".2211"/>
			<stop stop-color="#C9AA65" offset=".7383"/>
			<stop stop-color="#C39D59" offset="1"/>
		</linearGradient>
		<path d="m1133.8 784.7h7.3v26h32.6v-26h7.3v67.5h-7.3v-33.9h-32.6v33.9h-7.3z" fill="url(#SVGID_15_)"/>
		<linearGradient id="SVGID_16_" x1="550.76" x2="1234.5" y1="619.08" y2="817.94" gradientUnits="userSpaceOnUse">
			<stop stop-color="#E2E193" offset="0"/>
			<stop stop-color="#D9CE83" offset=".2211"/>
			<stop stop-color="#C9AA65" offset=".7383"/>
			<stop stop-color="#C39D59" offset="1"/>
		</linearGradient>
		<path d="m1269.4 818.6c0 4.9-0.8 9.4-2.5 13.7-1.6 4.2-4 8-7.1 11.4-3.2 3.4-6.8 6-10.8 7.7-4 1.8-8.2 2.7-12.5 2.7-4.4 0-8.5-0.9-12.5-2.7s-7.5-4.4-10.7-7.7c-3.2-3.4-5.5-7.2-7.2-11.4-1.6-4.2-2.4-8.7-2.4-13.6s0.8-9.4 2.4-13.7c1.6-4.2 4-8.1 7.2-11.5 3.1-3.3 6.7-5.9 10.7-7.6 4-1.8 8.2-2.7 12.5-2.7s8.6 0.9 12.6 2.7 7.6 4.3 10.7 7.6c3.2 3.4 5.5 7.2 7.1 11.5 1.7 4.2 2.5 8.7 2.5 13.6zm-7.6 0c0-3.8-0.6-7.4-1.9-10.8s-3.1-6.4-5.5-9.1c-4.9-5.4-10.8-8.1-17.8-8.1-3.4 0-6.7 0.7-9.7 2.1s-5.7 3.4-8.1 6c-2.4 2.7-4.2 5.7-5.5 9.1s-1.9 6.9-1.9 10.7 0.6 7.3 1.9 10.6 3.1 6.3 5.5 9c5 5.5 10.9 8.2 17.8 8.2 3.4 0 6.6-0.7 9.6-2.1s5.7-3.4 8.2-6.1c4.9-5.3 7.4-11.8 7.4-19.5z" fill="url(#SVGID_16_)"/>
		<linearGradient id="SVGID_17_" x1="556.4" x2="1240.1" y1="599.69" y2="798.55" gradientUnits="userSpaceOnUse">
			<stop stop-color="#E2E193" offset="0"/>
			<stop stop-color="#D9CE83" offset=".2211"/>
			<stop stop-color="#C9AA65" offset=".7383"/>
			<stop stop-color="#C39D59" offset="1"/>
		</linearGradient>
		<path d="m1292.3 784.7h32.4v7.3h-25.1v19.4h25.1v7.5h-25.1v25.9h25.1v7.5h-32.4z" fill="url(#SVGID_17_)"/>
</g>
</svg>
