<svg width="800" height="253.98" version="1.1" viewBox="0 0 800 253.98" xml:space="preserve" xmlns="http://www.w3.org/2000/svg">
<g transform="matrix(5.0761 0 0 5.0761 -271.07 -246.52)">
			<path d="m134.1 57.9c-0.4-1-0.9-1.9-1.6-2.6s-1.5-1.3-2.5-1.7-2-0.6-3.2-0.6c-1.9 0-3.5 0.5-4.8 1.5v-1.6h-4.5v18.8h4.5v-10.3c0-1.3 0.4-2.4 1.2-3.3s1.8-1.3 3-1.3 2.2 0.4 3 1.3 1.2 1.9 1.2 3.3v10.4h4.2v-10.4c0-1.3-0.1-2.4-0.5-3.5z" fill="#7741a2"/>
			<path d="m137.7 62.9v-0.7c0-1.4 0.2-2.7 0.7-3.8 0.4-1.1 1-2.1 1.8-2.9s1.7-1.4 2.8-1.9c1.1-0.4 2.3-0.7 3.6-0.7s2.5 0.2 3.6 0.7 2 1.1 2.8 2l-2.9 2.9c-0.4-0.5-0.9-1-1.5-1.3s-1.3-0.4-2.1-0.4-1.4 0.1-2 0.4-1.1 0.7-1.5 1.2-0.7 1.1-0.9 1.8-0.3 1.4-0.3 2.2v0.4c0 0.8 0.1 1.5 0.3 2.2s0.5 1.3 0.9 1.8 0.9 0.9 1.5 1.2 1.3 0.4 2 0.4 1.4-0.1 2-0.4 1.1-0.7 1.6-1.2l2.8 2.8c-0.8 0.8-1.7 1.5-2.8 2s-2.3 0.7-3.6 0.7-2.5-0.2-3.6-0.7c-1.1-0.4-2-1.1-2.8-1.9s-1.4-1.8-1.8-2.9c-0.4-1.3-0.6-2.6-0.6-3.9z" fill="#7741a2"/>
			<path d="m172.5 71.8h-4.5v-1.3c-0.6 0.5-1.3 0.9-2.1 1.2s-1.7 0.5-2.6 0.5c-1.2 0-2.2-0.2-3.2-0.6-0.9-0.4-1.7-0.9-2.4-1.7s-1.2-1.5-1.5-2.5-0.5-2-0.5-3.2v-11h4.5v11.1c0 1.1 0.4 2 1.1 2.7 0.8 0.7 1.7 1.1 2.8 1.1s2-0.4 2.8-1.1 1.1-1.6 1.1-2.7v-11.1h4.5z" fill="#7741a2"/>
			<path d="m187.6 53.2h5l-6.7 9.3 6.7 9.3h-5l-4.2-5.9-4.2 5.9h-5l6.7-9.3-6.7-9.3h5l4.2 5.9z" fill="#7741a2"/>
			<path d="m211 62.1v0.7c0 1.4-0.2 2.7-0.6 3.8s-1 2.1-1.8 2.9-1.7 1.4-2.8 1.9c-1.1 0.4-2.3 0.7-3.6 0.7s-2.5-0.2-3.6-0.7-2-1.1-2.8-1.9-1.4-1.8-1.8-2.9-0.6-2.4-0.6-3.8v-0.7c0-1.4 0.2-2.7 0.6-3.8s1-2.1 1.8-2.9 1.7-1.4 2.8-1.9c1.1-0.4 2.3-0.7 3.6-0.7s2.5 0.2 3.6 0.7c1.1 0.4 2 1.1 2.8 1.9s1.4 1.8 1.8 2.9c0.4 1.2 0.6 2.4 0.6 3.8zm-4.1 0.8v-0.7c0-0.8-0.1-1.5-0.3-2.2s-0.5-1.3-0.9-1.8-0.9-0.9-1.5-1.2-1.3-0.4-2-0.4c-0.8 0-1.4 0.1-2 0.4s-1.1 0.7-1.5 1.2-0.7 1.1-0.9 1.8-0.3 1.4-0.3 2.2v0.7c0 0.8 0.1 1.5 0.3 2.2s0.5 1.3 0.9 1.8 0.9 0.9 1.5 1.2 1.3 0.4 2 0.4c0.8 0 1.4-0.1 2-0.4s1.1-0.7 1.5-1.2 0.7-1.1 0.9-1.8 0.3-1.4 0.3-2.2z" fill="#7741a2"/>
			<path d="m154.8 84.2v0.7c0 1.4-0.2 2.7-0.6 3.8s-1 2.1-1.8 2.9-1.7 1.4-2.8 1.9c-1.1 0.4-2.3 0.7-3.6 0.7s-2.5-0.2-3.6-0.7-2-1.1-2.8-1.9-1.4-1.8-1.8-2.9-0.6-2.4-0.6-3.8v-0.7c0-1.4 0.2-2.7 0.6-3.8s1-2.1 1.8-2.9 1.7-1.4 2.8-1.9c1.1-0.4 2.3-0.7 3.6-0.7s2.5 0.2 3.6 0.7c1.1 0.4 2 1.1 2.8 1.9s1.4 1.8 1.8 2.9c0.3 1.1 0.6 2.4 0.6 3.8zm-4.2 0.7v-0.7c0-0.8-0.1-1.5-0.3-2.2s-0.5-1.3-0.9-1.8-0.9-0.9-1.5-1.2-1.3-0.4-2-0.4c-0.8 0-1.4 0.1-2 0.4s-1.1 0.7-1.5 1.2-0.7 1.1-0.9 1.8-0.3 1.4-0.3 2.2v0.7c0 0.8 0.1 1.5 0.3 2.2s0.5 1.3 0.9 1.8 0.9 0.9 1.5 1.2 1.3 0.4 2 0.4c0.8 0 1.4-0.1 2-0.4s1.1-0.7 1.5-1.2 0.7-1.1 0.9-1.8 0.3-1.4 0.3-2.2z" fill="#f38da0"/>
			<path d="m161.2 93.7c-0.9-0.3-1.7-0.7-2.4-1.2s-1.2-1.1-1.6-1.8-0.6-1.5-0.6-2.3v-0.8c0.1-0.9 0.3-1.6 0.8-2.1 0.4-0.5 1-1 1.6-1.4s1.3-0.7 2.1-0.9 1.5-0.4 2.2-0.6c0.5-0.1 1-0.3 1.5-0.4s0.9-0.3 1.2-0.5 0.6-0.4 0.8-0.7c0.2-0.2 0.3-0.5 0.3-0.9 0-0.6-0.3-1.1-0.9-1.5s-1.3-0.5-2.2-0.5c-0.8 0-1.5 0.2-2.3 0.5s-1.4 0.7-1.9 1.3l-2.3-2.6c0.8-0.8 1.7-1.5 2.9-1.9 1.1-0.4 2.4-0.6 3.7-0.6 1 0 1.9 0.1 2.8 0.4s1.6 0.6 2.3 1.1c0.6 0.5 1.2 1 1.5 1.7 0.4 0.7 0.6 1.4 0.7 2.2v0.8c-0.1 0.9-0.3 1.6-0.8 2.2-0.4 0.6-1 1-1.6 1.4s-1.3 0.7-2.1 0.9-1.5 0.4-2.2 0.6c-0.5 0.1-1 0.3-1.5 0.4s-0.9 0.3-1.2 0.5-0.6 0.4-0.8 0.6-0.3 0.5-0.3 0.9 0.1 0.7 0.3 1 0.5 0.5 0.8 0.7 0.7 0.3 1 0.4c0.4 0.1 0.7 0.1 1 0.1 0.9 0 1.7-0.2 2.6-0.5s1.7-0.9 2.6-1.6l2.6 2.7c-0.4 0.5-0.9 0.9-1.5 1.3s-1.2 0.7-2 0.9c-0.7 0.2-1.4 0.4-2.2 0.6s-1.5 0.2-2.2 0.2c-0.7-0.2-1.8-0.3-2.7-0.6z" fill="#f38da0"/>
			<path d="m191.9 93.8h-4.5v-1.3c-0.6 0.5-1.3 0.9-2.1 1.2s-1.7 0.5-2.6 0.5c-1.2 0-2.2-0.2-3.2-0.6-0.9-0.4-1.7-0.9-2.4-1.7-0.7-0.7-1.2-1.5-1.5-2.5s-0.5-2-0.5-3.2v-11h4.5v11.1c0 1.1 0.4 2 1.1 2.7 0.8 0.7 1.7 1.1 2.8 1.1s2-0.4 2.8-1.1 1.1-1.6 1.1-2.7v-11.1h4.5z" fill="#f38da0"/>
			<path d="m202.1 75.5h7.4v18.6h-4.2v-6.5h-1.6l-4.3 6.5h-4.5l4.6-7c-1.2-0.4-2.1-1.1-2.8-2.1s-1-2.1-1-3.5c0-0.9 0.2-1.7 0.5-2.5 0.3-0.7 0.7-1.4 1.3-1.9s1.2-0.9 2-1.2c0.8-0.2 1.6-0.4 2.6-0.4zm-2.5 6c0 0.8 0.3 1.4 0.8 1.8 0.5 0.5 1.2 0.7 2.1 0.7h2.8v-5h-2.8c-0.9 0-1.6 0.2-2.1 0.7s-0.8 1.1-0.8 1.8z" fill="#f38da0"/>
			<path d="m124.2 75.4h3.7l7.6 18.5h-4.9l-4.5-12.7-4.5 12.7h-4.9z" fill="#f38da0"/>
				<path d="m55.9 98.6c-0.3 0-0.6-0.1-0.9-0.2-1-0.4-1.6-1.3-1.6-2.3l0.1-0.4 3.4-10.7c-0.7-1.9-2.3-6.7-2.5-11.9v-0.1c0-13.5 11-24.4 24.4-24.4l1.3 1.3v46.8l-1.3 1.3c-4 0-8-1-11.5-2.9l-9.9 3c-0.4 0.3-1 0.5-1.5 0.5zm1.1-25.7c0.2 5 1.7 9.6 2.3 11.3l0.1 1.1-3.4 10.7 0.4-0.3 10.5-3.1h1.1c2.9 1.7 6.2 2.6 9.6 2.8v-44.2c-11.5 0.6-20.6 10.1-20.6 21.7z" fill="#f38da0"/>
			<path d="m83.6 97.9h-0.4l-1.2-1.2v-46.7l1-1.2c3.2-0.6 9.5-0.4 11.4 4.9 3.3 0.2 8.5 2 9.5 8.2 1.4 8.9-6.1 11-6.1 11l-0.6-2.3c0.2-0.1 5.5-1.6 4.4-8.3-1-6.4-7.7-6.2-7.9-6.2l-1.2-0.9c-1.1-4.3-5.8-4.3-7.9-4.1v44.5c7.9-0.3 8.6-4.5 8.6-4.7l2.4 0.3c-0.2 0.2-1.1 6.7-12 6.7z" fill="#7741a2"/>
			<path d="m93.7 81.3c-0.5-1.8-1.4-3-2.7-3.5-2.8-1.1-6.5 0.9-6.5 0.9l-1.2-2.1c0.2-0.1 4.8-2.6 8.6-1 2 0.8 3.4 2.5 4.2 5.1z" fill="#7741a2"/>
			<path d="m89.8 66.2c-1.8-2.6-2.4-5.1-1.8-7.3 1.1-3.5 4.9-5.1 5.1-5.1l0.9 2.2-0.4-1.1 0.4 1.1s-2.9 1.2-3.6 3.6c-0.4 1.5 0 3.2 1.4 5.2z" fill="#7741a2"/>
			<path d="m96.1 92.3c-0.8 0-1.6-0.1-2.4-0.3-3.1-0.7-6.1-2.8-6.7-4.7l2.3-0.8c0.3 0.8 2.2 2.5 5 3.2 1.7 0.4 4.2 0.5 6.2-1.5 3.1-3 1.8-6.8 1.1-8l0.7-1.8c2.6-0.8 4.5-3.2 4.5-6 0-2.6-1.6-4.9-4-5.8l0.9-2.3c3.3 1.3 5.6 4.5 5.6 8.1 0 3.4-2 6.4-4.9 7.8 1 2.6 1.1 6.6-2.1 9.7-1.8 1.5-3.9 2.4-6.2 2.4z" fill="#7741a2"/>
</g>
</svg>
