<svg width="800" height="301.48" version="1.1" viewBox="0 0 800 301.48" xml:space="preserve" xmlns="http://www.w3.org/2000/svg">
<rect x="361.8" y="2008.2" width="192.5" height="306.7" display="none" fill="#edd36f"/>
<rect x="361.8" y="2008.2" width="184.2" height="306.7" display="none" fill="#e5a628"/>
<rect x="361.8" y="2008.2" width="157.7" height="306.7" display="none" fill="#dc5f16"/>
<rect x="361.8" y="2008.2" width="117.5" height="306.7" display="none" fill="#c33935"/>
<rect x="337" y="2008.2" width="83.6" height="306.7" display="none" fill="#80234f"/>
<g transform="matrix(1.358 0 0 1.358 -101.71 609.74)">
				<path d="m572.5-379.2c-14.5 0-26.9 5.3-37.1 15.8s-15.2 23.1-15.2 37.6c0 14.7 5 27.3 15.1 37.7 10.2 10.7 22.6 16 37.2 16 14.8 0 27.2-5.3 37.3-15.9 10-10.4 15-23 15-37.8 0-14.7-5-27.3-15.1-37.7-10.1-10.5-22.5-15.7-37.2-15.7zm24 78.3c-6.4 7.3-14.4 11-23.9 11-9.6 0-17.5-3.7-23.9-11-6-7-9.1-15.4-9.1-25.1s3.1-18 9.2-25c6.3-7.2 14.3-10.9 23.8-10.9 9.6 0 17.5 3.6 23.9 10.9 6 7 9.1 15.3 9.1 25-0.1 9.7-3.1 18.1-9.1 25.1z" fill="#e4a840"/>
				<path d="m572.5-271.1c-14.8 0-27.5-5.5-37.9-16.3-10.2-10.6-15.3-23.5-15.3-38.4 0-14.7 5.2-27.6 15.5-38.3s23-16.1 37.7-16.1c14.9 0 27.6 5.4 37.8 16s15.4 23.5 15.4 38.4c0 15-5.1 27.9-15.2 38.5-10.3 10.8-23 16.2-38 16.2zm0-107.2c-14.2 0-26.5 5.2-36.4 15.5s-15 22.8-15 37c0 14.4 5 26.9 14.8 37.1 10 10.4 22.3 15.7 36.6 15.7 14.4 0 26.8-5.3 36.7-15.6 9.8-10.2 14.7-22.7 14.7-37.2 0-14.4-5-26.9-14.9-37.1-9.8-10.2-22.1-15.4-36.5-15.4zm0 89.3c-9.8 0-18.1-3.8-24.6-11.3-6.2-7.2-9.3-15.8-9.3-25.7s3.2-18.5 9.4-25.6c6.5-7.4 14.7-11.2 24.5-11.2s18.1 3.8 24.6 11.2c6.2 7.1 9.3 15.7 9.3 25.6s-3.1 18.5-9.3 25.7c-6.5 7.5-14.8 11.3-24.6 11.3zm0-71.9c-9.2 0-17 3.5-23.1 10.5-5.9 6.8-8.9 15-8.9 24.4s3 17.7 8.8 24.5c6.2 7.1 14 10.6 23.2 10.6s17.1-3.6 23.2-10.6c5.9-6.8 8.8-15.1 8.8-24.5s-3-17.6-8.8-24.4c-6.1-6.9-13.9-10.5-23.2-10.5z" fill="#222321"/>
				<path d="m483.8-364c-9.6-10.1-22.1-15.2-37.4-15.2-12.7 0-23.8 3.8-33.2 11.4s-15.2 17.6-17.5 30c-0.9 4.8-1.4 11.6-1.4 20.4v80.9c0 4.7 3.8 8.5 8.5 8.5h1.6c3.7-0.1 17.9-9.1 17.9-9.1l-9.4-88.4c0-10.4 2.8-19 8.5-25.7 6-7.1 14.2-10.6 24.5-10.6 10 0 18.2 3.4 24.5 10.3 6 6.7 9 15.1 9 25.3 0 10.4-3.1 19-9.2 25.8-6.3 7.1-14.6 10.6-24.9 10.6-5.1 0-10-1-14.7-2.9-5.5-2.2-11.4 2.1-11.4 8 0 3.4 2 6.5 5.1 7.8 7 3 14.6 4.5 23 4.5 14.5 0 26.7-5.3 36.6-16 9.6-10.4 14.4-22.9 14.4-37.5-0.1-15.2-4.9-28-14.5-38.1z" fill="#e4a840"/>
				<path d="m402.8-227c-5.2 0-9.4-4.2-9.4-9.4v-80.9c0-8.9 0.5-15.8 1.4-20.6 2.3-12.6 8.3-22.9 17.8-30.6s20.9-11.6 33.8-11.6c15.5 0 28.3 5.2 38.1 15.5 9.7 10.2 14.7 23.3 14.7 38.9 0 14.8-4.9 27.6-14.7 38.1-10 10.8-22.5 16.3-37.2 16.3-8.4 0-16.3-1.6-23.3-4.6-3.4-1.5-5.6-4.9-5.6-8.7 0-3.2 1.6-6.1 4.2-7.9 2.6-1.7 5.6-2.1 8.5-0.9 4.6 1.9 9.5 2.8 14.4 2.8 9.9 0 18.1-3.5 24.2-10.3 5.9-6.6 8.9-15.1 8.9-25.2 0-9.9-2.9-18.2-8.7-24.7-6-6.7-14-10-23.8-10-9.9 0-17.9 3.5-23.8 10.3-5.5 6.5-8.3 15-8.3 25.1l9.4 88.9-0.5 0.3c-1.5 0.9-14.6 9.1-18.4 9.2zm43.6-151.3c-12.4 0-23.4 3.8-32.6 11.2s-15 17.3-17.2 29.5c-0.9 4.7-1.4 11.5-1.4 20.3v80.9c0 4.2 3.4 7.6 7.6 7.6h1.6c2.4-0.1 11.3-5.1 16.9-8.6l-9.3-87.9c0-10.7 2.9-19.5 8.7-26.4 6.2-7.3 14.7-11 25.1-11 10.3 0 18.7 3.6 25.1 10.6 6.1 6.8 9.2 15.5 9.2 25.9 0 10.6-3.2 19.5-9.4 26.4-6.5 7.3-15.1 10.9-25.6 10.9-5.2 0-10.2-1-15.1-2.9-2.3-0.9-4.7-0.6-6.8 0.8s-3.4 3.8-3.4 6.4c0 3.1 1.8 5.8 4.5 7 6.8 3 14.4 4.5 22.6 4.5 14.2 0 26.3-5.3 35.9-15.7 9.4-10.2 14.2-22.6 14.2-36.9 0-15.1-4.8-27.7-14.2-37.6-9.1-10-21.4-15-36.4-15z" fill="#222321"/>
				<path d="m370.8-377.3h-62.4c-4.8 0-8.7 3.9-8.7 8.7s3.9 8.7 8.7 8.7h21.3v79.7c0 4.8 3.9 8.7 8.7 8.7l0.7-0.1c2.9-0.3 5.7-1.2 8.2-2.6l10.7-6.3-9.8-79.5h22.6c4.8 0 8.7-3.9 8.7-8.7 0-4.7-3.9-8.6-8.7-8.6z" fill="#e4a840"/>
				<path d="m338.5-270.4c-5.4 0-9.7-4.3-9.7-9.7v-78.8h-20.4c-5.3 0-9.7-4.3-9.7-9.7s4.3-9.7 9.7-9.7h62.4c5.3 0 9.7 4.3 9.7 9.7s-4.3 9.7-9.7 9.7h-21.5l9.8 79-11.2 6.6c-2.6 1.5-5.6 2.5-8.6 2.8l-0.8 0.1zm-30.1-106c-4.3 0-7.8 3.5-7.8 7.8s3.5 7.8 7.8 7.8h22.2v80.6c0 4.3 3.5 7.8 7.8 7.8l0.6-0.1c2.7-0.3 5.5-1.1 7.8-2.5l10.2-6-9.9-79.9h23.6c4.3 0 7.8-3.5 7.8-7.8s-3.5-7.8-7.8-7.8h-62.3z" fill="#222321"/>
				<path d="m238.5-379.4c-15.3 0-28.2 5.8-38.7 17.4-8.9 9.9-13.8 22.9-13.8 36.3 0 14.7 5 27.3 15.1 37.9 10.2 10.8 22.6 16.1 37.2 16.1 14 0 25.7-4.6 35.1-13.7 6.5-6.3 11.2-14.1 14.3-23.5 1.8-5.5 8.7-16 3-16.8h-5.6l-9.5 5.1c-2.4 1-5 3.1-5.9 6-1.8 6.1-4.7 11.2-8.6 15.3-5.9 6.3-13.5 9.5-22.9 9.5-9.6 0-17.6-3.7-23.9-11-6-7-9.1-15.3-9.1-25.1s3-18.2 9-25.2c6.3-7.2 14.3-10.9 24-10.9 9.1 0 16.8 3.5 23.1 10.4l-43.3 24.1c-3.9 2.2-5.3 7-3.1 10.9s7 5.3 10.9 3.1l50.6-28c6-3.3 7.6-11.1 3.7-16.6-10.1-14.2-24-21.3-41.6-21.3z" fill="#e4a840"/>
				<path d="m238.3-270.9c-14.8 0-27.6-5.5-37.9-16.4-10.2-10.7-15.3-23.6-15.3-38.5 0-13.7 5-26.8 14.1-36.9 10.6-11.7 23.8-17.7 39.3-17.7 17.8 0 32.1 7.3 42.5 21.8 2.1 2.9 2.8 6.5 2 9.9s-3 6.3-6 8l-50.6 28c-4.3 2.4-9.8 0.8-12.1-3.5-2.4-4.3-0.8-9.8 3.5-12.2l42.3-23.6c-5.9-6.2-13.2-9.3-21.6-9.3-9.4 0-17.2 3.5-23.4 10.5-5.8 6.7-8.7 15-8.7 24.6 0 9.5 3 17.7 8.8 24.5 6.1 7.1 13.9 10.6 23.2 10.6 9 0 16.5-3.1 22.2-9.2 3.8-4 6.6-9.1 8.4-15 1-3.4 4-5.7 6.4-6.6l9.8-5.1h5.6c1.3 0.2 2.2 0.7 2.7 1.7 1.4 2.5-0.7 7.1-2.8 11.5-0.8 1.8-1.6 3.5-2 4.8-3.1 9.5-8 17.5-14.5 23.9-9.7 9.5-21.8 14.2-35.9 14.2zm0.2-107.6c-15 0-27.8 5.7-38 17.1-8.8 9.7-13.6 22.4-13.6 35.7 0 14.4 5 26.9 14.8 37.2 10 10.5 22.3 15.8 36.6 15.8 13.7 0 25.3-4.5 34.5-13.4 6.3-6.2 11.1-14 14.1-23.1 0.5-1.5 1.3-3.2 2.1-5 1.7-3.7 3.8-8.2 2.8-9.9-0.1-0.2-0.4-0.6-1.2-0.7h-5.2l-9.3 5c-2 0.8-4.6 2.7-5.4 5.5-1.9 6.2-4.8 11.4-8.8 15.7-6.1 6.5-14 9.8-23.5 9.8-9.9 0-18.1-3.8-24.6-11.3-6.2-7.1-9.3-15.7-9.3-25.7s3.1-18.7 9.2-25.8c6.5-7.4 14.8-11.2 24.7-11.2 9.4 0 17.4 3.6 23.8 10.7l0.8 0.8-44.3 24.7c-3.4 1.9-4.7 6.3-2.8 9.7s6.2 4.7 9.7 2.8l50.6-28c2.6-1.4 4.4-3.9 5.1-6.8s0-6-1.7-8.5c-10.1-14-23.9-21.1-41.1-21.1z" fill="#222321"/>
				<path d="m160.9-413.4c-9.7-9.5-21.4-14.2-35.1-14.2-12 0-22.5 3.6-31.4 10.8s-14.6 16.6-17 28.4c-1.1 5.6-1.7 13.3-1.7 23.3v83.8c0 5.5 4.5 10 10 10 4.8 0.1 15.6-7.2 15.6-7.2l-5.6-95.9c0-10 2.4-18 7.2-24 5.3-6.7 12.8-10.1 22.5-10.1 8.4 0 15.4 2.8 21 8.5 5.7 5.7 8.5 12.7 8.5 21.1 0 9.4-3.2 16.8-9.5 22.2-6 5.1-13.7 7.7-23.3 7.7h-9.2c-5.3 0-9.5 4.3-9.5 9.5 0 5.3 4.3 9.5 9.5 9.5h11.9c14.4 0 26.4-4.5 35.9-13.4 9.8-9.2 14.8-20.9 14.8-35.2 0-13.7-4.9-25.3-14.6-34.8z" fill="#e4a840"/>
				<path d="m85.9-270.4c-6.1 0-11-4.9-11-10.9v-83.8c0-10 0.6-17.9 1.7-23.5 2.4-11.9 8.2-21.6 17.3-28.9 9-7.3 19.8-11 32-11 13.9 0 25.9 4.9 35.7 14.5s14.8 21.5 14.8 35.4c0 14.5-5.1 26.5-15 35.9-9.7 9-22 13.6-36.6 13.6h-11.9c-5.8 0-10.4-4.7-10.4-10.4 0-5.8 4.7-10.4 10.4-10.4h9.2c9.3 0 16.9-2.5 22.7-7.5 6.1-5.2 9.2-12.5 9.2-21.6 0-8.1-2.8-15-8.2-20.4-5.5-5.5-12.3-8.3-20.4-8.3-9.4 0-16.7 3.3-21.7 9.8-4.6 5.9-7 13.8-7 23.5l5.6 96.4-0.4 0.3c-0.5 0.2-11 7.3-16 7.3zm39.9-156.3c-11.7 0-22.1 3.5-30.8 10.6-8.7 7-14.3 16.4-16.7 27.8-1.1 5.5-1.7 13.2-1.7 23.1v83.8c0 5 4.1 9.1 9.1 9.1h0.1c3.5 0 11.3-4.6 14.6-6.7l-5.6-95.4c0-10.2 2.5-18.5 7.4-24.6 5.4-6.9 13.2-10.5 23.2-10.5 8.6 0 15.9 3 21.7 8.8s8.8 13.2 8.8 21.7c0 9.7-3.3 17.4-9.8 22.9-6.1 5.2-14.1 7.9-23.9 7.9h-9.2c-4.8 0-8.6 3.9-8.6 8.6 0 4.8 3.9 8.6 8.6 8.6h11.9c14.1 0 26-4.4 35.3-13.1 9.6-9 14.5-20.6 14.5-34.5 0-13.4-4.8-24.9-14.3-34.1-9.6-9.3-21.2-14-34.6-14z" fill="#222321"/>
				<path d="m585.5-386c-14.5 0-26.9 5.3-37.1 15.8s-15.2 23.1-15.2 37.6c0 14.7 5 27.3 15.1 37.7 10.2 10.7 22.6 16 37.2 16 14.8 0 27.2-5.3 37.3-15.9 10-10.4 15-23 15-37.8 0-14.7-5-27.3-15.1-37.7-10.1-10.5-22.5-15.7-37.2-15.7zm23.9 78.3c-6.4 7.3-14.4 11-23.9 11-9.6 0-17.5-3.7-23.9-11-6-7-9.1-15.4-9.1-25.1s3.1-18 9.2-25c6.3-7.2 14.3-10.9 23.8-10.9 9.6 0 17.5 3.6 23.9 10.9 6 7 9.1 15.3 9.1 25s-3 18.1-9.1 25.1z" fill="#c53936"/>
				<path d="m585.5-277.9c-14.8 0-27.5-5.5-37.9-16.3-10.2-10.6-15.3-23.5-15.3-38.4 0-14.7 5.2-27.6 15.5-38.3s23-16.1 37.7-16.1c14.9 0 27.6 5.4 37.8 16s15.4 23.5 15.4 38.4c0 15-5.1 27.9-15.2 38.5-10.3 10.7-23 16.2-38 16.2zm0-107.2c-14.2 0-26.5 5.2-36.4 15.5s-15 22.8-15 37c0 14.4 5 26.9 14.8 37.1 10 10.4 22.3 15.7 36.6 15.7 14.4 0 26.8-5.3 36.7-15.6 9.8-10.2 14.7-22.7 14.7-37.2 0-14.4-5-26.9-14.9-37.1-9.8-10.2-22.1-15.4-36.5-15.4zm0 89.3c-9.8 0-18.1-3.8-24.6-11.3-6.2-7.2-9.3-15.8-9.3-25.7s3.2-18.5 9.4-25.6c6.5-7.4 14.7-11.2 24.5-11.2s18.1 3.8 24.6 11.2c6.2 7.1 9.3 15.7 9.3 25.6s-3.1 18.5-9.3 25.7c-6.5 7.5-14.8 11.3-24.6 11.3zm0-71.9c-9.2 0-17 3.5-23.1 10.5-5.9 6.8-8.9 15-8.9 24.4s3 17.7 8.8 24.5c6.2 7.1 14 10.6 23.2 10.6s17.1-3.6 23.2-10.6c5.9-6.8 8.8-15.1 8.8-24.5s-3-17.6-8.8-24.4c-6.1-7-13.9-10.5-23.2-10.5z" fill="#222321"/>
				<path d="m496.8-370.8c-9.6-10.1-22.1-15.2-37.4-15.2-12.7 0-23.8 3.8-33.2 11.4s-15.2 17.6-17.5 30c-0.9 4.8-1.4 11.6-1.4 20.4v80.9c0 4.7 3.8 8.5 8.5 8.5l2.4 0.2 15.7-8.7-8-89.1c0-10.4 2.8-19 8.5-25.7 6-7.1 14.2-10.6 24.5-10.6 10 0 18.2 3.4 24.5 10.3 6 6.7 9 15.1 9 25.3 0 10.4-3.1 19-9.2 25.8-6.3 7.1-14.6 10.6-24.9 10.6-5.1 0-10-1-14.7-2.9-5.5-2.2-11.4 2.1-11.4 8 0 3.4 2 6.5 5.1 7.8 7 3 14.6 4.5 23 4.5 14.5 0 26.7-5.3 36.6-16 9.6-10.4 14.4-22.9 14.4-37.5-0.1-15.2-4.9-27.9-14.5-38z" fill="#c53936"/>
				<path d="m418.4-233.6-2.7-0.3c-5.1 0-9.3-4.2-9.3-9.4v-80.9c0-8.9 0.5-15.8 1.4-20.6 2.3-12.6 8.3-22.9 17.8-30.6s20.9-11.6 33.8-11.6c15.5 0 28.3 5.2 38.1 15.5 9.7 10.2 14.7 23.3 14.7 38.9 0 14.8-4.9 27.6-14.7 38.1-10 10.8-22.5 16.3-37.2 16.3-8.4 0-16.3-1.6-23.3-4.6-3.4-1.5-5.6-4.9-5.6-8.7 0-3.2 1.6-6.1 4.2-7.9 2.6-1.7 5.6-2.1 8.5-0.9 4.6 1.9 9.5 2.8 14.4 2.8 9.9 0 18.1-3.5 24.2-10.3 5.9-6.6 8.9-15.1 8.9-25.2 0-9.9-2.9-18.2-8.7-24.7-6-6.7-14-10-23.8-10-9.9 0-17.9 3.5-23.8 10.3-5.5 6.5-8.3 15-8.3 25.1l8 89.6zm41-151.5c-12.4 0-23.4 3.8-32.6 11.2s-15 17.3-17.2 29.5c-0.9 4.7-1.4 11.5-1.4 20.3v80.9c0 4.2 3.4 7.6 7.6 7.6l2.2 0.2 14.9-8.2-7.9-88.5c0-10.7 2.9-19.5 8.7-26.4 6.2-7.3 14.7-11 25.1-11 10.3 0 18.7 3.6 25.1 10.6 6.1 6.8 9.2 15.5 9.2 25.9 0 10.6-3.2 19.5-9.4 26.4-6.5 7.3-15.1 10.9-25.6 10.9-5.2 0-10.2-1-15.1-2.9-2.3-0.9-4.7-0.6-6.8 0.8s-3.4 3.8-3.4 6.4c0 3.1 1.8 5.8 4.5 7 6.8 3 14.4 4.5 22.6 4.5 14.2 0 26.3-5.3 35.9-15.7 9.4-10.2 14.2-22.6 14.2-36.9 0-15.1-4.8-27.7-14.2-37.6-9.1-10-21.4-15-36.4-15z" fill="#222321"/>
				<path d="m383.8-384.1-50.8-7-15.3 7.9c-3 1.4-5 4.4-5 7.9 0 4.8 3.9 8.7 8.7 8.7h21.3v79.7c0 4.8 3.9 8.7 8.7 8.7h2.7l16.6-9.1-9.5-79.4h25.5l16.7-9.5-10.9 0.8c0-4.8-3.9-8.7-8.7-8.7z" fill="#c53936"/>
				<path d="m354.3-277.2h-2.9c-5.3 0-9.6-4.3-9.6-9.7v-78.8h-20.4c-5.3 0-9.7-4.3-9.7-9.7 0-3.7 2.2-7.1 5.5-8.7l15.5-8 51 7.1c5 0 9.1 3.8 9.5 8.7l14-1.1-20.4 11.7h-24.7l9.4 79zm-21.2-113-15 7.7c-2.8 1.3-4.5 4.1-4.5 7.1 0 4.3 3.5 7.8 7.8 7.8h22.2v80.6c0 4.3 3.5 7.8 7.8 7.8h2.5l15.8-8.7-9.5-79.8h26.3l13-7.4-7.9 0.6v-1c0-4.3-3.5-7.8-7.8-7.8h-0.1z" fill="#222321"/>
				<path d="m251.5-386.2c-15.3 0-28.2 5.8-38.7 17.4-8.9 9.9-13.8 22.9-13.8 36.3 0 14.7 5 27.3 15.1 37.9 10.2 10.8 22.6 16.1 37.2 16.1 14 0 25.7-4.6 35.1-13.7 6.5-6.3 11.2-14.1 14.3-23.5 1.8-5.5 3.8-13-1.9-13.8l0.7-4-11 5.9c-2.6 1.5-4.8 3.1-5.7 6.2-1.8 6.1-4.7 11.2-8.6 15.3-5.9 6.3-13.5 9.5-22.9 9.5-9.6 0-17.6-3.7-23.9-11-6-7-9.1-15.3-9.1-25.1s3-18.2 9-25.2c6.3-7.2 14.3-10.9 24-10.9 9.1 0 16.8 3.5 23.1 10.4l-43.3 24.1c-3.9 2.2-5.3 7-3.1 10.9s7 5.3 10.9 3.1l50.6-28c6-3.3 7.6-11.1 3.7-16.6-10.2-14.2-24.1-21.3-41.7-21.3z" fill="#c53936"/>
				<path d="m251.3-277.7c-14.8 0-27.6-5.5-37.9-16.4-10.2-10.7-15.3-23.6-15.3-38.5 0-13.7 5-26.8 14.1-36.9 10.6-11.7 23.8-17.7 39.3-17.7 17.8 0 32.1 7.3 42.5 21.8 2.1 2.9 2.8 6.5 2 9.9s-3 6.3-6 8l-50.6 28c-4.3 2.4-9.8 0.8-12.1-3.5-2.4-4.3-0.8-9.8 3.5-12.2l42.3-23.6c-5.9-6.2-13.2-9.3-21.6-9.3-9.4 0-17.2 3.5-23.4 10.5-5.8 6.7-8.7 15-8.7 24.6 0 9.5 3 17.7 8.8 24.5 6.1 7.1 13.9 10.6 23.2 10.6 9 0 16.5-3.1 22.2-9.2 3.8-4 6.6-9.1 8.4-15 1.1-3.5 3.6-5.3 6.1-6.7l12.7-6.8-0.9 5c1.2 0.4 2.1 1 2.8 2.1 1.8 3 0.5 8.1-1 12.8-3.1 9.5-8 17.5-14.5 23.9-9.8 9.4-21.8 14.1-35.9 14.1zm0.2-107.6c-15 0-27.8 5.7-38 17.1-8.8 9.7-13.6 22.4-13.6 35.7 0 14.4 5 26.9 14.8 37.2 10 10.5 22.3 15.8 36.6 15.8 13.7 0 25.3-4.5 34.5-13.4 6.3-6.2 11.1-14 14.1-23.1 0.8-2.6 2.8-8.6 1.2-11.2-0.5-0.8-1.3-1.2-2.4-1.4l-0.9-0.1 0.6-3-9.3 5c-2.6 1.4-4.4 2.9-5.3 5.7-1.9 6.2-4.8 11.4-8.8 15.7-6.1 6.5-14 9.8-23.5 9.8-9.9 0-18.1-3.8-24.6-11.3-6.2-7.1-9.3-15.7-9.3-25.7s3.1-18.7 9.2-25.8c6.5-7.4 14.8-11.2 24.7-11.2 9.4 0 17.4 3.6 23.8 10.7l0.8 0.8-44.3 24.7c-3.4 1.9-4.7 6.3-2.8 9.7s6.2 4.7 9.7 2.8l50.6-28c2.6-1.4 4.4-3.9 5.1-6.8s0-6-1.7-8.5c-10.2-14.2-24-21.2-41.2-21.2z" fill="#222321"/>
				<path d="m173.9-420.2c-9.7-9.5-21.4-14.2-35.1-14.2-12 0-22.5 3.6-31.4 10.8s-14.6 16.6-17 28.4c-1.1 5.6-1.7 13.3-1.7 23.3v83.8c0 5.5 4.5 10 10 10l1.8 0.1 15.3-8.2-7-95c0-10 2.4-18 7.2-24 5.3-6.7 12.8-10.1 22.5-10.1 8.4 0 15.4 2.8 21 8.5 5.7 5.7 8.5 12.7 8.5 21.1 0 9.4-3.2 16.8-9.5 22.2-6 5.1-13.7 7.7-23.3 7.7h-9.2c-5.3 0-9.5 4.3-9.5 9.5 0 5.3 4.3 9.5 9.5 9.5h11.9c14.4 0 26.4-4.5 35.9-13.4 9.8-9.2 14.8-20.9 14.8-35.2-0.1-13.7-5-25.3-14.7-34.8z" fill="#c53936"/>
				<path d="m100.8-277.2-2-0.1c-6 0-10.9-4.9-10.9-10.9v-83.8c0-10 0.6-17.9 1.7-23.5 2.4-11.9 8.2-21.6 17.3-28.9 9-7.3 19.8-11 32-11 13.9 0 25.9 4.9 35.7 14.5s14.8 21.5 14.8 35.4c0 14.5-5.1 26.5-15 35.9-9.7 9-22 13.6-36.6 13.6h-11.9c-5.8 0-10.4-4.7-10.4-10.4 0-5.8 4.7-10.4 10.4-10.4h9.2c9.3 0 16.9-2.5 22.7-7.5 6.1-5.2 9.2-12.5 9.2-21.6 0-8.1-2.8-15-8.2-20.4-5.5-5.5-12.3-8.3-20.4-8.3-9.4 0-16.7 3.3-21.7 9.8-4.6 5.9-7 13.8-7 23.5l7.1 95.5zm38-156.3c-11.7 0-22.1 3.5-30.8 10.6-8.7 7-14.3 16.4-16.7 27.8-1.1 5.5-1.7 13.2-1.7 23.1v83.8c0 5 4.1 9.1 9.1 9.1l1.6 0.1 14.5-7.8-7-94.4c0-10.2 2.5-18.5 7.4-24.7 5.4-6.9 13.2-10.5 23.2-10.5 8.6 0 15.9 3 21.7 8.8s8.8 13.2 8.8 21.7c0 9.7-3.3 17.4-9.8 22.9-6.1 5.2-14.1 7.9-23.9 7.9h-9.2c-4.8 0-8.6 3.9-8.6 8.6 0 4.8 3.9 8.6 8.6 8.6h11.9c14.1 0 26-4.4 35.3-13.1 9.6-9 14.5-20.6 14.5-34.5 0-13.4-4.8-24.9-14.3-34.1-9.6-9.2-21.2-13.9-34.6-13.9z" fill="#222321"/>
				<path d="m598.5-392.9c-14.5 0-26.9 5.3-37.1 15.8s-15.2 23.1-15.2 37.6c0 14.7 5 27.3 15.1 37.7 10.2 10.7 22.6 16 37.2 16 14.8 0 27.2-5.3 37.3-15.9 10-10.4 15-23 15-37.8 0-14.7-5-27.3-15.1-37.7s-22.5-15.7-37.2-15.7zm23.9 78.4c-6.4 7.3-14.4 11-23.9 11-9.6 0-17.5-3.7-23.9-11-6-7-9.1-15.4-9.1-25.1s3.1-18 9.2-25c6.3-7.2 14.3-10.9 23.8-10.9 9.6 0 17.5 3.6 23.9 10.9 6 7 9.1 15.3 9.1 25s-3 18-9.1 25.1z" fill="#83224f"/>
				<path d="m598.5-284.7c-14.8 0-27.5-5.5-37.9-16.3-10.2-10.6-15.3-23.5-15.3-38.4 0-14.7 5.2-27.6 15.5-38.3s23-16.1 37.7-16.1c14.9 0 27.6 5.4 37.8 16s15.4 23.5 15.4 38.4c0 15-5.1 27.9-15.2 38.5-10.3 10.7-23 16.2-38 16.2zm0-107.2c-14.2 0-26.5 5.2-36.4 15.5s-15 22.8-15 37c0 14.4 5 26.9 14.8 37.1 10 10.4 22.3 15.7 36.6 15.7 14.4 0 26.8-5.3 36.7-15.6 9.8-10.2 14.7-22.7 14.7-37.2 0-14.4-5-26.9-14.9-37.1-9.8-10.3-22.1-15.4-36.5-15.4zm0 89.2c-9.8 0-18.1-3.8-24.6-11.3-6.2-7.2-9.3-15.8-9.3-25.7s3.2-18.5 9.4-25.6c6.5-7.4 14.7-11.2 24.5-11.2s18.1 3.8 24.6 11.2c6.2 7.1 9.3 15.7 9.3 25.6s-3.1 18.5-9.3 25.7c-6.5 7.5-14.8 11.3-24.6 11.3zm0-71.9c-9.2 0-17 3.5-23.1 10.5-5.9 6.8-8.9 15-8.9 24.4s3 17.7 8.8 24.5c6.2 7.1 14 10.6 23.2 10.6s17.1-3.6 23.2-10.6c5.9-6.8 8.8-15.1 8.8-24.5s-3-17.6-8.8-24.4c-6.1-6.9-13.9-10.5-23.2-10.5z" fill="#222321"/>
				<path d="m509.8-377.7c-9.6-10.1-22.1-15.2-37.4-15.2-12.7 0-23.8 3.8-33.2 11.4s-15.2 17.6-17.5 30c-0.9 4.8-1.4 11.6-1.4 20.4v80.9c0 4.7 3.8 8.5 8.5 8.5l2.5 0.2 13.9-7.3-6.3-90.3c0-10.4 2.8-19 8.5-25.7 6-7.1 14.2-10.6 24.5-10.6 10 0 18.2 3.4 24.5 10.3 6 6.7 9 15.1 9 25.3 0 10.4-3.1 19-9.2 25.8-6.3 7.1-14.6 10.6-24.9 10.6-5.1 0-4.7-6.9-9.5-8.8l-10.2 5.6c-3.6 0.9-6.5 4.2-6.5 8.4 0 3.4 2 6.5 5.1 7.8 7 3 14.6 4.5 23 4.5 14.5 0 26.7-5.3 36.6-16 9.6-10.4 14.4-22.9 14.4-37.5 0-15.4-4.8-28.2-14.4-38.3z" fill="#83224f"/>
				<path d="m431.5-240.5-2.7-0.2c-5.1 0-9.4-4.2-9.4-9.4v-80.9c0-8.9 0.5-15.8 1.4-20.6 2.3-12.6 8.3-22.9 17.8-30.6s20.9-11.6 33.8-11.6c15.5 0 28.3 5.2 38.1 15.5 9.8 10.2 14.7 23.3 14.7 38.9 0 14.8-4.9 27.6-14.7 38.1-10 10.8-22.5 16.3-37.2 16.3-8.4 0-16.3-1.6-23.3-4.6-3.4-1.5-5.6-4.9-5.6-8.7 0-4.3 3-8.1 7.1-9.2l10.4-5.8 0.4 0.2c2.5 1 3.7 3.1 4.8 5 1.3 2.3 2.2 3.7 4.3 3.7 9.9 0 18.1-3.5 24.2-10.3 5.9-6.6 8.9-15.1 8.9-25.2 0-9.9-2.9-18.2-8.7-24.7-6-6.7-14-10-23.8-10-9.9 0-17.9 3.5-23.8 10.3-5.5 6.5-8.3 15-8.3 25.1l6.3 90.9zm40.9-151.4c-12.4 0-23.4 3.8-32.6 11.2s-15 17.3-17.2 29.5c-0.9 4.7-1.4 11.5-1.4 20.3v80.9c0 4.2 3.4 7.6 7.6 7.6l2.3 0.2 13.2-6.9-6.3-89.7c0-10.6 2.9-19.5 8.8-26.4 6.2-7.3 14.7-11 25.1-11 10.3 0 18.7 3.6 25.1 10.6 6.1 6.8 9.2 15.5 9.2 25.9 0 10.6-3.2 19.5-9.4 26.4-6.5 7.3-15.1 10.9-25.6 10.9-3.3 0-4.7-2.5-5.9-4.6-1-1.7-1.9-3.3-3.5-4.1l-10 5.5c-3.4 0.8-5.8 4-5.8 7.5 0 3.1 1.8 5.8 4.5 7 6.8 3 14.4 4.5 22.6 4.5 14.2 0 26.3-5.3 35.9-15.7 9.4-10.2 14.2-22.6 14.2-36.9 0-15.1-4.8-27.7-14.2-37.6-9.3-10.1-21.6-15.1-36.6-15.1z" fill="#222321"/>
				<path d="m396.8-391-53.7-6.1-13.2 7.3c-2.6 1.5-4.3 4.3-4.3 7.5 0 4.8 3.9 8.7 8.7 8.7h21.3v79.7c0 4.8 3.9 8.7 8.7 8.7l1.7 0.1 15.5-7.8-7.4-80.8h24.2l14.2-7.8-7.2-1c0.2-4.5-3.7-8.5-8.5-8.5z" fill="#83224f"/>
				<path d="m366.3-284-2-0.1c-5.3 0-9.6-4.3-9.6-9.7v-78.8h-20.4c-5.3 0-9.7-4.3-9.7-9.7 0-3.4 1.8-6.6 4.7-8.3l13.4-7.5h0.3l53.6 6.1c5 0 9.2 3.9 9.6 8.9l9.1 1.3-17.1 9.2h-23.2l7.4 80.4zm-23-112.1-12.9 7.2c-2.3 1.4-3.8 4-3.8 6.7 0 4.3 3.5 7.8 7.8 7.8h22.2v80.6c0 4.3 3.5 7.8 7.8 7.8l1.5 0.1 14.7-7.4-7.5-81.2 25 0.1 11.6-6.4-5.2-0.7v-0.8c0-4.3-3.5-7.8-7.8-7.8h-0.1z" fill="#222321"/>
				<path d="m264.5-393.1c-15.3 0-28.2 5.8-38.7 17.4-8.9 9.9-13.8 22.9-13.8 36.3 0 14.7 5 27.3 15.1 37.9 10.2 10.8 22.6 16.1 37.2 16.1 14 0 25.7-4.6 35.1-13.7 6.5-6.3 11.2-14.1 14.3-23.5 1.8-5.5 4.7-11.9-1-12.7l-0.4-5.1-11.7 6.5c-2.2 1.1-4 3.1-4.8 5.6-1.8 6.1-4.7 11.2-8.6 15.3-5.9 6.3-13.5 9.5-22.9 9.5-9.6 0-17.6-3.7-23.9-11-6-7-9.1-15.3-9.1-25.1s3-18.2 9-25.2c6.3-7.2 14.3-10.9 24-10.9 9.1 0 16.8 3.5 23.1 10.4l-43.3 24.1c-3.9 2.2-5.3 7-3.1 10.9s7 5.3 10.9 3.1l50.6-28c6-3.3 7.6-11.1 3.7-16.6-10.2-14.1-24.1-21.3-41.7-21.3z" fill="#83224f"/>
				<path d="m264.3-284.5c-14.8 0-27.6-5.5-37.9-16.4-10.2-10.7-15.3-23.6-15.3-38.5 0-13.7 5-26.8 14.1-36.9 10.5-11.7 23.8-17.7 39.3-17.7 17.8 0 32.1 7.3 42.5 21.8 2.1 2.9 2.8 6.5 2 9.9s-3 6.3-6 8l-50.6 28c-4.3 2.4-9.8 0.8-12.1-3.5-2.4-4.3-0.8-9.8 3.5-12.2l42.3-23.6c-5.9-6.2-13.2-9.3-21.6-9.3-9.4 0-17.2 3.5-23.4 10.5-5.8 6.7-8.7 15-8.7 24.6 0 9.5 3 17.7 8.8 24.5 6.1 7.1 13.9 10.6 23.2 10.6 9 0 16.5-3.1 22.2-9.2 3.8-4 6.6-9.1 8.4-15 0.8-2.7 2.7-4.9 5.3-6.2l12.7-6.9 0.5 5.9c1.3 0.3 2.2 1 2.8 1.9 1.5 2.4 0.1 6.3-1.2 10.1l-0.6 1.8c-3.1 9.5-8 17.5-14.5 23.9-9.6 9.2-21.6 13.9-35.7 13.9zm0.2-107.7c-15 0-27.8 5.7-38 17.1-8.8 9.7-13.6 22.4-13.6 35.7 0 14.4 5 26.9 14.8 37.3 10 10.5 22.3 15.8 36.6 15.8 13.7 0 25.3-4.5 34.5-13.4 6.3-6.2 11.1-14 14.1-23.1l0.6-1.8c1.1-3.2 2.4-6.8 1.3-8.5-0.4-0.6-1.1-1-2.2-1.2l-0.7-0.1-0.4-4.5-10.5 5.8c-2.1 1-3.7 2.9-4.4 5.1-1.9 6.2-4.8 11.4-8.8 15.7-6.1 6.5-14 9.8-23.5 9.8-9.9 0-18.1-3.8-24.6-11.3-6.2-7.1-9.3-15.7-9.3-25.7s3.1-18.7 9.2-25.8c6.5-7.4 14.8-11.2 24.7-11.2 9.4 0 17.4 3.6 23.8 10.7l0.8 0.8-44.3 24.7c-3.4 1.9-4.7 6.3-2.8 9.7s6.2 4.7 9.7 2.8l50.6-28c2.6-1.4 4.4-3.9 5.1-6.8s0-6-1.7-8.5c-10-14-23.8-21.1-41-21.1z" fill="#222321"/>
				<path d="m186.9-427c-9.7-9.5-21.4-14.2-35.1-14.2-12 0-22.5 3.6-31.4 10.8s-14.6 16.6-17 28.4c-1.1 5.6-1.7 13.3-1.7 23.3v83.8c0 5.5 5.2 10.5 10.7 10.5l15.1-7.9-5.9-95.8c0-10 2.4-18 7.2-24 5.3-6.7 12.8-10.1 22.5-10.1 8.4 0 15.4 2.8 21 8.5 5.7 5.7 8.5 12.7 8.5 21.1 0 9.4-3.2 16.8-9.5 22.2-6 5.1-13.7 7.7-23.3 7.7l-0.6-5.9-12 6.5c-3.6 1.4-6.1 4.8-6.1 8.9 0 5.3 4.3 9.5 9.5 9.5h11.9c14.4 0 26.4-4.5 35.9-13.4 9.8-9.2 14.8-20.9 14.8-35.2 0.1-13.6-4.8-25.2-14.5-34.7z" fill="#83224f"/>
				<path d="m112.7-283.5h-0.2c-6.1 0-11.7-5.5-11.7-11.5v-83.8c0-10 0.6-17.9 1.7-23.5 2.4-11.9 8.2-21.6 17.3-28.9 9-7.3 19.8-11 32-11 13.9 0 25.9 4.9 35.7 14.5s14.8 21.5 14.8 35.4c0 14.5-5.1 26.5-15 35.9-9.7 9-22 13.6-36.6 13.6h-11.9c-5.8 0-10.4-4.7-10.4-10.4 0-4.3 2.7-8.2 6.7-9.8l13.1-7.1 0.7 6.4c8.9-0.1 16.3-2.7 21.9-7.5 6.1-5.2 9.2-12.5 9.2-21.6 0-8.1-2.8-15-8.2-20.4-5.5-5.5-12.3-8.3-20.4-8.3-9.4 0-16.7 3.3-21.7 9.8-4.6 5.9-7 13.8-7 23.5l5.9 96.3zm39.1-156.8c-11.7 0-22.1 3.5-30.8 10.6-8.7 7-14.3 16.4-16.7 27.8-1.1 5.5-1.7 13.2-1.7 23.1v83.8c0 4.9 4.6 9.5 9.6 9.6l14.4-7.5-5.8-95.2c0-10.2 2.5-18.5 7.4-24.7 5.4-6.9 13.2-10.5 23.2-10.5 8.6 0 15.9 3 21.7 8.8s8.8 13.2 8.8 21.7c0 9.7-3.3 17.4-9.8 22.9-6.1 5.2-14.1 7.9-23.9 7.9h-0.8l-0.6-5.3-10.8 5.8c-3.4 1.3-5.6 4.6-5.6 8.1 0 4.8 3.9 8.6 8.6 8.6h11.9c14.1 0 26-4.4 35.3-13.1 9.6-9 14.5-20.6 14.5-34.5 0-13.4-4.8-24.9-14.3-34.1-9.6-9.1-21.2-13.8-34.6-13.8z" fill="#222321"/>
				<path d="m610.8-399.7c-14.5 0-26.9 5.3-37.1 15.8s-15.2 23.1-15.2 37.6c0 14.7 5 27.3 15.1 37.7 10.2 10.7 22.6 16 37.2 16 14.8 0 27.2-5.3 37.3-15.9 10-10.4 15-23 15-37.8 0-14.7-5-27.3-15.1-37.7s-22.5-15.7-37.2-15.7zm24 78.3c-6.4 7.3-14.4 11-23.9 11-9.6 0-17.5-3.7-23.9-11-6-7-9.1-15.4-9.1-25.1s3.1-18 9.2-25c6.3-7.2 14.3-10.9 23.8-10.9 9.6 0 17.5 3.6 23.9 10.9 6 7 9.1 15.3 9.1 25-0.1 9.7-3.1 18.1-9.1 25.1z" fill="#eee6d5"/>
				<path d="m610.8-291.6c-14.8 0-27.5-5.5-37.9-16.3-10.2-10.6-15.3-23.5-15.3-38.4 0-14.7 5.2-27.6 15.5-38.3s23-16.1 37.7-16.1c14.9 0 27.6 5.4 37.8 16s15.4 23.5 15.4 38.4c0 15-5.1 27.9-15.2 38.5-10.2 10.8-23 16.2-38 16.2zm0-107.2c-14.2 0-26.5 5.2-36.4 15.5s-15 22.8-15 37c0 14.4 5 26.9 14.8 37.1 10 10.4 22.3 15.7 36.6 15.7 14.4 0 26.8-5.3 36.7-15.6 9.8-10.2 14.7-22.7 14.7-37.2 0-14.4-5-26.9-14.9-37.1-9.8-10.2-22.1-15.4-36.5-15.4zm0 89.3c-9.8 0-18.1-3.8-24.6-11.3-6.2-7.2-9.3-15.8-9.3-25.7s3.2-18.5 9.4-25.6c6.5-7.4 14.7-11.2 24.5-11.2s18.1 3.8 24.6 11.2c6.2 7.1 9.3 15.7 9.3 25.6s-3.1 18.5-9.3 25.7c-6.5 7.5-14.8 11.3-24.6 11.3zm0-71.9c-9.2 0-17 3.5-23.1 10.5-5.9 6.8-8.9 15-8.9 24.4s3 17.7 8.8 24.5c6.2 7.1 14 10.6 23.2 10.6s17.1-3.6 23.2-10.6c5.9-6.8 8.8-15.1 8.8-24.5s-3-17.6-8.8-24.4c-6.1-6.9-13.9-10.5-23.2-10.5z" fill="#222321"/>
				<path d="m522.1-384.5c-9.6-10.1-22.1-15.2-37.4-15.2-12.7 0-23.8 3.8-33.2 11.4s-15.2 17.6-17.5 30c-0.9 4.8-1.4 11.6-1.4 20.4v80.9c0 4.7 3.8 8.5 8.5 8.5h1.6c4.7 0 8.5-3.8 8.5-8.5v-89c0-10.4 2.8-19 8.5-25.7 6-7.1 14.2-10.6 24.5-10.6 10 0 18.2 3.4 24.5 10.3 6 6.7 9 15.1 9 25.3 0 10.4-3.1 19-9.2 25.8-6.3 7.1-14.6 10.6-24.9 10.6-5.1 0-10-1-14.7-2.9-5.5-2.2-11.4 2.1-11.4 8 0 3.4 2 6.5 5.1 7.8 7 3 14.6 4.5 23 4.5 14.5 0 26.7-5.3 36.6-16 9.6-10.4 14.4-22.9 14.4-37.5 0-15.2-4.8-28-14.5-38.1z" fill="#eee6d5"/>
				<path d="m442.8-247.5h-1.6c-5.2 0-9.4-4.2-9.4-9.4v-80.9c0-8.9 0.5-15.8 1.4-20.6 2.3-12.6 8.3-22.9 17.8-30.6s20.9-11.6 33.8-11.6c15.5 0 28.3 5.2 38.1 15.5 9.7 10.2 14.7 23.3 14.7 38.9 0 14.8-4.9 27.6-14.7 38.1-10 10.8-22.5 16.3-37.2 16.3-8.4 0-16.3-1.6-23.3-4.6-3.4-1.5-5.6-4.9-5.6-8.7 0-3.2 1.6-6.1 4.2-7.9 2.6-1.7 5.6-2.1 8.5-0.9 4.6 1.9 9.5 2.8 14.4 2.8 9.9 0 18.1-3.5 24.2-10.3 5.9-6.6 8.9-15.1 8.9-25.2 0-9.9-2.9-18.2-8.7-24.7-6-6.7-14-10-23.8-10-9.9 0-17.9 3.5-23.8 10.3-5.5 6.5-8.3 15-8.3 25.1v89c-0.2 5.2-4.4 9.4-9.6 9.4zm41.9-151.3c-12.4 0-23.4 3.8-32.6 11.2s-15 17.3-17.2 29.5c-0.9 4.7-1.4 11.5-1.4 20.3v80.9c0 4.2 3.4 7.6 7.6 7.6h1.6c4.2 0 7.6-3.4 7.6-7.6v-89c0-10.6 2.9-19.4 8.8-26.3 6.2-7.3 14.7-11 25.1-11 10.3 0 18.7 3.6 25.1 10.6 6.1 6.8 9.2 15.5 9.2 25.9 0 10.6-3.2 19.5-9.4 26.4-6.5 7.3-15.1 10.9-25.6 10.9-5.2 0-10.2-1-15.1-2.9-2.3-0.9-4.7-0.6-6.8 0.8s-3.4 3.8-3.4 6.4c0 3.1 1.8 5.8 4.5 7 6.8 3 14.4 4.5 22.6 4.5 14.2 0 26.3-5.3 35.9-15.7 9.4-10.2 14.2-22.6 14.2-36.9 0-15.1-4.8-27.7-14.2-37.6-9.1-10-21.5-15-36.5-15z" fill="#222321"/>
				<path d="m409.1-397.8h-62.4c-4.8 0-8.7 3.9-8.7 8.7s3.9 8.7 8.7 8.7h21.3v79.7c0 4.8 3.9 8.7 8.7 8.7h1.1c4.8 0 8.7-3.9 8.7-8.7v-79.7h22.6c4.8 0 8.7-3.9 8.7-8.7s-3.9-8.7-8.7-8.7z" fill="#eee6d5"/>
				<path d="m377.8-290.9h-1.1c-5.3 0-9.7-4.3-9.7-9.7v-78.8h-20.4c-5.3 0-9.7-4.3-9.7-9.7s4.3-9.7 9.7-9.7h62.4c5.3 0 9.7 4.3 9.7 9.7s-4.3 9.7-9.7 9.7h-21.6v78.8c0 5.4-4.3 9.7-9.6 9.7zm-31.1-106c-4.3 0-7.8 3.5-7.8 7.8s3.5 7.8 7.8 7.8h22.2v80.6c0 4.3 3.5 7.8 7.8 7.8h1.1c4.3 0 7.8-3.5 7.8-7.8v-80.6h23.5c4.3 0 7.8-3.5 7.8-7.8s-3.5-7.8-7.8-7.8z" fill="#222321"/>
				<path d="m276.8-399.9c-15.3 0-28.2 5.8-38.7 17.4-8.9 9.9-13.8 22.9-13.8 36.3 0 14.7 5 27.3 15.1 37.9 10.2 10.8 22.6 16.1 37.2 16.1 14 0 25.7-4.6 35.1-13.7 6.5-6.3 11.2-14.1 14.3-23.5 1.8-5.5-1.8-11.3-7.6-12.2-4.6-0.7-9 2-10.3 6.5-1.8 6.1-4.7 11.2-8.6 15.3-5.9 6.3-13.5 9.5-22.9 9.5-9.6 0-17.6-3.7-23.9-11-6-7-9.1-15.3-9.1-25.1s3-18.2 9-25.2c6.3-7.2 14.3-10.9 24-10.9 9.1 0 16.8 3.5 23.1 10.4l-43.3 24.1c-3.9 2.2-5.3 7-3.1 10.9s7 5.3 10.9 3.1l50.6-28c6-3.3 7.6-11.1 3.7-16.6-10.2-14.2-24.1-21.3-41.7-21.3z" fill="#eee6d5"/>
				<path d="m276.6-291.4c-14.8 0-27.6-5.5-37.9-16.4-10.2-10.7-15.3-23.6-15.3-38.5 0-13.7 5-26.8 14.1-36.9 10.6-11.7 23.8-17.7 39.3-17.7 17.8 0 32.1 7.3 42.5 21.8 2.1 2.9 2.8 6.5 2 9.9s-3 6.3-6 8l-50.6 28c-4.3 2.4-9.8 0.8-12.1-3.5-2.4-4.3-0.8-9.8 3.5-12.2l42.3-23.6c-5.9-6.2-13.2-9.3-21.6-9.3-9.4 0-17.2 3.5-23.4 10.5-5.8 6.7-8.7 15-8.7 24.6 0 9.5 3 17.7 8.8 24.5 6.1 7.1 13.9 10.6 23.2 10.6 9 0 16.5-3.1 22.2-9.2 3.8-4 6.6-9.1 8.4-15 1.5-4.8 6.3-7.8 11.4-7.1 3 0.5 5.7 2.2 7.3 4.8s2 5.7 1 8.5c-3.1 9.5-8 17.5-14.5 23.9-9.7 9.6-21.8 14.3-35.9 14.3zm0.2-107.6c-15 0-27.8 5.7-38 17.1-8.8 9.7-13.6 22.4-13.6 35.7 0 14.4 5 26.9 14.8 37.3 10 10.5 22.3 15.8 36.6 15.8 13.7 0 25.3-4.5 34.5-13.4 6.3-6.2 11.1-14 14.1-23.1 0.8-2.3 0.5-4.9-0.8-7-1.3-2.2-3.5-3.6-6-4-4.1-0.6-8.1 1.9-9.3 5.8-1.9 6.2-4.8 11.4-8.8 15.7-6.1 6.5-14 9.8-23.5 9.8-9.9 0-18.1-3.8-24.6-11.3-6.2-7.1-9.3-15.7-9.3-25.7s3.1-18.7 9.2-25.8c6.5-7.4 14.8-11.2 24.7-11.2 9.4 0 17.4 3.6 23.8 10.7l0.8 0.8-44.3 24.7c-3.4 1.9-4.7 6.3-2.8 9.7s6.2 4.7 9.7 2.8l50.6-28c2.6-1.4 4.4-3.9 5.1-6.8s0-6-1.7-8.5c-10.2-14-24-21.1-41.2-21.1z" fill="#222321"/>
				<path d="m199.3-433.8c-9.7-9.5-21.4-14.2-35.1-14.2-12 0-22.5 3.6-31.4 10.8s-14.6 16.6-17 28.4c-1.1 5.6-1.7 13.3-1.7 23.3v83.8c0 5.5 4.5 10 10 10s10-4.5 10-10v-93.1c0-10 2.4-18 7.2-24 5.3-6.7 12.8-10.1 22.5-10.1 8.4 0 15.4 2.8 21 8.5 5.7 5.7 8.5 12.7 8.5 21.1 0 9.4-3.2 16.8-9.5 22.2-6 5.1-13.7 7.7-23.3 7.7h-9.2c-5.3 0-9.5 4.3-9.5 9.5 0 5.3 4.3 9.5 9.5 9.5h11.9c14.4 0 26.4-4.5 35.9-13.4 9.8-9.2 14.8-20.9 14.8-35.2-0.1-13.8-4.9-25.3-14.6-34.8z" fill="#eee6d5"/>
				<path d="m124.1-290.9c-6 0-10.9-4.9-10.9-10.9v-83.8c0-10 0.6-17.9 1.7-23.5 2.4-11.9 8.2-21.6 17.3-28.9 9-7.3 19.8-11 32-11 13.9 0 25.9 4.9 35.7 14.5s14.8 21.5 14.8 35.4c0 14.5-5.1 26.5-15 35.9-9.7 9-22 13.6-36.6 13.6h-11.9c-5.8 0-10.4-4.7-10.4-10.4 0-5.8 4.7-10.4 10.4-10.4h9.2c9.3 0 16.9-2.5 22.7-7.5 6.1-5.2 9.2-12.5 9.2-21.6 0-8.1-2.8-15-8.2-20.4-5.5-5.5-12.3-8.3-20.4-8.3-9.4 0-16.7 3.3-21.7 9.8-4.6 5.9-7 13.8-7 23.5v93.1c0 6-4.9 10.9-10.9 10.9zm40.1-156.3c-11.7 0-22.1 3.5-30.8 10.6-8.7 7-14.3 16.4-16.7 27.8-1.1 5.5-1.7 13.2-1.7 23.1v83.8c0 5 4.1 9.1 9.1 9.1s9.1-4.1 9.1-9.1v-93.1c0-10.1 2.5-18.4 7.4-24.6 5.4-6.9 13.2-10.5 23.2-10.5 8.6 0 15.9 3 21.7 8.8s8.8 13.2 8.8 21.7c0 9.7-3.3 17.4-9.8 22.9-6.1 5.2-14.1 7.9-23.9 7.9h-9.2c-4.8 0-8.6 3.9-8.6 8.6 0 4.8 3.9 8.6 8.6 8.6h11.9c14.1 0 26-4.4 35.3-13.1 9.6-9 14.5-20.6 14.5-34.5 0-13.4-4.8-24.9-14.3-34.1-9.7-9.2-21.2-13.9-34.6-13.9z" fill="#222321"/>
			<path d="m332.5-254.6v0.2-0.2z" fill="#eee6d5"/>
				<rect transform="matrix(.8739 -.4861 .4861 .8739 202.04 93.08)" x="244.2" y="-343.8" width="72.4" height="1.8" fill="#222321"/>
				<rect transform="matrix(.882 -.4713 .4713 .882 168.51 98.41)" x="259" y="-288.2" width="43.4" height="1.8" fill="#222321"/>
				<rect transform="matrix(.8788 -.4773 .4773 .8788 179.42 139.59)" x="345" y="-284.3" width="39" height="1.8" fill="#222321"/>
				<rect transform="matrix(.8816 -.4721 .4721 .8816 222.73 109.08)" x="314.3" y="-390.2" width="29" height="1.8" fill="#222321"/>
				<rect transform="matrix(.8747 -.4847 .4847 .8747 231.2 146.85)" x="384.2" y="-374.6" width="30.9" height="1.8" fill="#222321"/>
				<rect transform="matrix(.8788 -.4773 .4773 .8788 251.73 224.23)" x="546.4" y="-384.3" width="41.7" height="1.8" fill="#222321"/>
			<polygon points="446.3 -248.3 408.5 -228.4 407.7 -230 445.4 -249.9" fill="#222321"/>
			<polygon points="461.9 -311.4 452.2 -305.7 451.3 -307.2 460.9 -313" fill="#222321"/>
				<rect transform="matrix(.8836 -.4683 .4683 .8836 206.37 64.097)" x="211.9" y="-383.9" width="40.4" height="1.8" fill="#222321"/>
				<rect transform="matrix(.8828 -.4698 .4698 .8828 216.51 5.527)" x="99.4" y="-432" width="39.9" height="1.8" fill="#222321"/>
				<rect transform="matrix(.8828 -.4698 .4698 .8828 145.69 18.294)" x="88" y="-283.7" width="43" height="1.8" fill="#222321"/>
				<rect transform="matrix(.8701 -.4929 .4929 .8701 197.8 21.62)" x="133.2" y="-365.4" width="13.4" height="1.8" fill="#222321"/>
				<rect transform="matrix(.8812 -.4727 .4727 .8812 191.02 99.411)" x="271.8" y="-331.3" width="43" height="1.8" fill="#222321"/>
				<rect transform="matrix(.8828 -.4698 .4698 .8828 206.94 254.86)" x="592" y="-288.1" width="44.4" height="1.8" fill="#222321"/>
			<line x1="189.1" x2="150" y1="-356.5" y2="-335.8" fill="#972b1e"/>
				<rect transform="matrix(.8836 -.4683 .4683 .8836 181.86 39.089)" x="147.4" y="-347.1" width="44.2" height="1.8" fill="#222321"/>
			<line x1="470.7" x2="510.9" y1="-277.8" y2="-299.3" fill="#972b1e"/>
				<rect transform="matrix(.8828 -.4698 .4698 .8828 193.09 196.74)" x="468" y="-289.5" width="45.6" height="1.8" fill="#222321"/>
			<line x1="458.9" x2="418.7" y1="-393.4" y2="-371.8" fill="#972b1e"/>
				<rect transform="matrix(.8808 -.4735 .4735 .8808 233.48 162.17)" x="416" y="-383.5" width="45.7" height="1.8" fill="#222321"/>
</g>
</svg>
