<svg width="800" height="652.04" version="1.1" viewBox="0 0 800 652.04" xml:space="preserve" xmlns="http://www.w3.org/2000/svg">
<radialGradient id="SVGID_2_" cx="347.2" cy="-489.06" r="2122.7" fx="402" fy="-595.17" gradientTransform="matrix(.56697 0 0 .56697 -169.24 -263.57)" gradientUnits="userSpaceOnUse">
	<stop stop-color="#E0C977" offset=".5874"/>
	<stop stop-color="#EFE397" offset=".6173"/>
	<stop stop-color="#F9F4AD" offset=".6444"/>
	<stop stop-color="#FDFBB5" offset=".6618"/>
	<stop stop-color="#F4ECA4" offset=".6888"/>
	<stop stop-color="#DBC577" offset=".7422"/>
	<stop stop-color="#D6BD6E" offset=".7522"/>
	<stop stop-color="#D8C073" offset=".7684"/>
	<stop stop-color="#DDC880" offset=".7866"/>
	<stop stop-color="#E6D697" offset=".8058"/>
	<stop stop-color="#F3E9B6" offset=".8255"/>
	<stop stop-color="#FFFCD4" offset=".841"/>
	<stop stop-color="#D6B869" offset=".9093"/>
</radialGradient>
<path d="m327.26 463.46c-2.1545-7.9376-5.3862-15.422-9.4685-22.282-4.5925-8.0511-10.206-15.478-16.159-22.509-12.077-14.061-25.627-26.818-39.631-39.575-13.948-12.757-28.008-25.797-41.276-40.142-13.267-14.401-26.194-29.823-37.023-47.626-5.4429-8.9015-10.319-18.37-14.174-28.519-1.9277-5.0461-3.5719-10.319-4.9894-15.648-1.3607-5.3295-2.3813-10.829-3.1184-16.386-0.73706-5.5564-1.0206-11.169-1.0772-16.782 0.0567-5.7265 0.34019-10.943 0.90716-16.329 1.0772-10.716 3.1184-21.488 6.3501-32.091 3.2884-10.546 7.7108-20.865 13.381-30.56 5.7831-9.6385 12.7-18.653 20.751-26.534 7.9943-7.9376 17.066-14.741 26.704-20.354 4.8193-2.7782 9.8654-5.1595 14.968-7.3707 5.1028-2.0978 10.376-3.9121 15.648-5.4429 21.262-5.8966 43.657-6.6903 65.145-2.438s42.126 13.664 59.362 27.782c17.236 14.061 30.673 32.771 38.894 53.125 1.0772 2.5514 1.9277 5.1028 2.8916 7.6542 0.85046 2.6648 1.7009 5.1028 2.4947 7.8809 1.5875 5.5564 2.7215 11.169 3.4018 16.952 1.3607 11.51 1.1339 23.586-2.5514 36.173-1.871 6.2934-4.7059 12.7-9.0716 18.653-4.309 5.8965-10.149 11.113-16.669 14.628-3.2318 1.8143-6.6336 3.1751-9.9787 4.2523-1.6442 0.5103-3.3452 0.9639-5.2729 1.3608-1.8143 0.3969-3.7987 0.6236-5.7264 0.8504-7.7675 0.6804-15.989-0.7937-22.849-3.9121-6.9171-3.0049-12.53-7.314-17.236-11.793-4.6492-4.5358-8.4479-9.4118-11.736-14.401-6.4068-10.035-10.886-20.524-13.948-31.58-0.73707-2.7782-1.4174-5.6131-1.9844-8.5046-0.28349-1.4175-0.51028-2.8916-0.73707-4.4224s-0.34018-2.7782-0.56697-4.1956c-0.62367-5.5564-0.96386-11.113-0.96386-16.669-0.0567-11.113 1.1906-22.225 3.6286-33.054 2.438-10.772 6.0099-21.262 10.546-31.24 4.5358-9.9787 9.9787-19.561 16.272-28.462 12.587-17.86 28.462-33.395 46.775-45.585 9.185-6.0666 18.937-11.339 29.142-15.648 10.262-4.2523 20.978-7.4841 31.921-9.6386s22.169-3.2318 33.395-3.0617c11.283 0.22679 22.509 1.5875 33.451 4.0255 21.885 4.9894 42.807 14.174 61.233 27.101 9.2417 6.4635 17.86 13.721 25.741 21.828 7.8242 8.1077 14.911 17.009 21.091 26.478 12.417 18.937 21.035 40.255 25.797 62.14 2.2679 10.943 3.6286 22.055 4.1389 33.055l0.22679 8.2778-0.17009 8.2211c-0.0567 2.8349-0.22679 5.2729-0.39688 7.881-0.17009 2.5513-0.39688 5.1594-0.62367 7.7108-1.8143 20.694-5.5564 41.389-11.396 61.347-5.8965 19.957-13.664 39.348-23.246 57.604-9.6386 18.2-20.808 35.436-33.281 51.424-25.06 31.921-54.996 58.852-87.144 81.304-32.147 22.509-66.563 40.709-101.94 55.734-31.467 13.267-63.728 24.096-96.442 32.488-1.5875 0.3969-2.438-1.871-0.96385-2.6081 30.163-15.082 59.759-30.9 88.108-48.306 31.864-19.617 62.197-41.162 89.752-65.315 27.442-24.21 52.162-50.971 71.779-80.624 9.8086-14.798 18.483-30.22 25.514-46.208 7.1439-15.989 12.757-32.488 16.726-49.327s6.4635-33.962 7.2573-51.368c0.1134-2.1545 0.1701-4.3657 0.22679-6.5769 0.0567-2.1545 0.1134-4.4791 0.0567-6.4068v-6.0666l-0.34018-6.01c-0.56698-7.9943-1.7009-15.932-3.5152-23.586-3.4585-15.365-9.6952-29.766-18.086-42.693-4.1956-6.4635-9.0149-12.473-14.344-18.03-5.2729-5.5563-11.113-10.659-17.349-15.138-12.473-8.9582-26.591-15.762-41.389-19.561-7.3707-1.9277-14.911-3.175-22.509-3.5719-7.5974-0.5103-15.308-0.3969-22.962 0.6237-15.252 1.9844-30.333 6.9738-44.167 14.741-13.834 7.7108-26.421 18.313-36.626 30.843-5.1028 6.2367-9.6953 12.984-13.437 20.128-3.742 7.1439-6.8037 14.685-8.9582 22.396-2.2112 7.7108-3.5152 15.648-3.9121 23.586-0.17009 3.9688-0.11339 7.9376 0.17009 11.906 0.1134 0.9638 0.1701 2.0411 0.28349 2.8915 0.1134 0.8505 0.22679 1.7576 0.39688 2.6648 0.28349 1.8143 0.68037 3.6286 1.134 5.4429 1.8143 7.314 4.8193 14.628 8.5613 20.638 1.871 3.005 3.9688 5.6697 6.0666 7.7675 2.0978 2.0411 4.1389 3.572 5.8965 4.3657 0.85046 0.4536 1.6442 0.6804 2.438 0.7938 0.73706 0.2268 1.4741 0.1701 2.3246 0.1701 1.4174-0.057 4.309-0.7938 5.9532-1.7576 0.90715-0.4536 1.7009-1.0206 2.438-1.6443 0.73707-0.6236 1.4174-1.3607 2.0978-2.2112 1.304-1.7009 2.4947-4.0822 3.4018-6.8603 1.8143-5.6698 2.0411-13.097 1.134-20.524-0.51028-3.6853-1.2474-7.4273-2.3246-11.056-0.51027-1.8143-1.304-3.7987-1.871-5.7264-0.73707-1.871-1.4174-3.7987-2.2679-5.6131-6.2934-14.855-15.989-27.782-28.235-37.534-12.247-9.752-27.101-16.272-42.636-19.107-15.535-2.8349-31.807-1.9844-46.889 2.4947-15.025 4.479-28.802 12.53-39.688 23.473-10.943 10.886-18.824 24.663-23.643 39.972-2.3246 7.6542-3.9121 15.705-4.7626 23.926-0.45358 4.0822-0.62367 8.3912-0.79376 12.247 0 3.9122 0.17009 7.881 0.51027 11.793 1.5308 15.705 6.747 31.467 14.344 46.945 7.7108 15.422 17.86 30.446 29.029 45.074 11.226 14.685 23.076 29.369 34.642 44.734 5.7264 7.7108 11.453 15.535 17.009 23.586 5.4996 8.051 10.886 16.272 15.535 24.947 4.6492 8.6747 8.8448 17.69 11.793 27.158 2.438 8.1644 4.0822 16.556 4.1956 24.89 0.51028 1.1907-0.17009 1.3041-0.51028 0.057z" fill="url(#SVGID_2_)" stroke-width=".56697"/>
<g transform="matrix(.56697 0 0 .56697 -169.24 -263.57)">
	<linearGradient id="SVGID_3_" x1="298.46" x2="356.27" y1="1552" y2="1552" gradientUnits="userSpaceOnUse">
		<stop stop-color="#FF77B6" offset="0"/>
		<stop stop-color="#fff" offset="0"/>
		<stop stop-color="#DEB06F" offset="0"/>
		<stop stop-color="#E3BC78" offset="1"/>
	</linearGradient>
	<path d="m298.5 1613.1v-122.3h12.5c32.5 0 45.2 21.1 45.2 40.2 0 19.9-15.4 39.3-43 42.3v39.8zm14.8-53.8c16.8-1.6 27.2-13.1 27.2-28.5 0-14.5-9.8-26-27.2-26z" fill="url(#SVGID_3_)"/>
	<linearGradient id="SVGID_4_" x1="382.64" x2="507.34" y1="1552" y2="1552" gradientUnits="userSpaceOnUse">
		<stop stop-color="#FF77B6" offset="0"/>
		<stop stop-color="#fff" offset="0"/>
		<stop stop-color="#E5C07C" offset="0"/>
		<stop stop-color="#FFFDB9" offset=".9925"/>
		<stop stop-color="#D8BC6D" offset="1"/>
	</linearGradient>
	<path d="m445 1489.1c35.5 0 62.4 25.7 62.4 62.9 0 36.3-26.9 62.9-62.4 62.9s-62.4-25.7-62.4-62.9c0-35.5 26.1-62.9 62.4-62.9zm0 111.8c27.9 0 46.6-21.3 46.6-48.9 0-28.5-20.4-48.9-46.6-48.9-26.5 0-46.6 20.4-46.6 48.9 0 27.7 20.4 48.9 46.6 48.9z" fill="url(#SVGID_4_)"/>
	<linearGradient id="SVGID_5_" x1="539.1" x2="651.23" y1="1551.1" y2="1551.1" gradientUnits="userSpaceOnUse">
		<stop stop-color="#EFDFB3" offset="0"/>
		<stop stop-color="#FFFCBA" offset="1"/>
	</linearGradient>
	<path d="m539.1 1489.1 56.9 51.5 55.2-51.5v124h-14.8v-91l-40.3 39.3-42.1-39.5v91.2h-14.8v-124z" fill="url(#SVGID_5_)"/>
	<linearGradient id="SVGID_6_" x1="679.43" x2="797.32" y1="1551.6" y2="1551.6" gradientUnits="userSpaceOnUse">
		<stop stop-color="#FCF7C8" offset="0"/>
		<stop stop-color="#E9CA86" offset="1"/>
	</linearGradient>
	<path d="m732 1490.1h12.7l52.6 123h-15.9l-15.7-37h-55.7l-15.5 37h-15zm-16.1 72h44l-22-52.2z" fill="url(#SVGID_6_)"/>
	<linearGradient id="SVGID_7_" x1="825.44" x2="938.09" y1="1552" y2="1552" gradientUnits="userSpaceOnUse">
		<stop stop-color="#EED698" offset="0"/>
		<stop stop-color="#E0B777" offset="1"/>
	</linearGradient>
	<path d="m923.2 1557.7h-83v55.4h-14.8v-122.3h14.8v52.9h83v-52.9h14.8v122.3h-14.8z" fill="url(#SVGID_7_)"/>
	<linearGradient id="SVGID_8_" x1="965.9" x2="1066.3" y1="1552" y2="1552" gradientUnits="userSpaceOnUse">
		<stop stop-color="#FF77B6" offset="0"/>
		<stop stop-color="#E0B878" offset="0"/>
		<stop stop-color="#DCAD69" offset="0"/>
		<stop stop-color="#D8BC6D" offset="1"/>
		<stop stop-color="#DDAF6C" offset="1"/>
	</linearGradient>
	<path d="m965.9 1490.8h100.4v14h-42.8v108.3h-14.8v-108.3h-42.8z" fill="url(#SVGID_8_)"/>
	<linearGradient id="SVGID_9_" x1="1094" x2="1196.2" y1="1552" y2="1552" gradientUnits="userSpaceOnUse">
		<stop stop-color="#FF77B6" offset="0"/>
		<stop stop-color="#fff" offset="0"/>
		<stop stop-color="#E0B878" offset="0"/>
		<stop stop-color="#EDD496" offset="1"/>
	</linearGradient>
	<path d="m1094 1614.8v-124h14.8v90.3l87.3-92v124h-14.8v-89.4z" fill="url(#SVGID_9_)"/>
	<linearGradient id="SVGID_10_" x1="1228.3" x2="1312.1" y1="1552" y2="1552" gradientUnits="userSpaceOnUse">
		<stop stop-color="#FF77B6" offset="0"/>
		<stop stop-color="#fff" offset="0"/>
		<stop stop-color="#EDD395" offset="0"/>
		<stop stop-color="#F5E6AF" offset=".9925"/>
	</linearGradient>
	<path d="m1312.1 1613.1h-14.8v-53.4c-6.3 4.5-18.2 9.4-32.3 9.4-19.4 0-36.7-10.5-36.7-38.9v-39.3h14.8v35.3c0 21.1 10.8 29 25.7 29 11.9 0 22-4.9 28.5-9.3v-55h14.8z" fill="url(#SVGID_10_)"/>
	<linearGradient id="SVGID_11_" x1="1351.8" x2="1464.5" y1="1552" y2="1552" gradientUnits="userSpaceOnUse">
		<stop stop-color="#FF77B6" offset="0"/>
		<stop stop-color="#fff" offset="0"/>
		<stop stop-color="#F5E5AE" offset="0"/>
		<stop stop-color="#FEFABA" offset="1"/>
	</linearGradient>
	<path d="m1449.6 1557.7h-83v55.4h-14.8v-122.3h14.8v52.9h83v-52.9h14.8v122.3h-14.8z" fill="url(#SVGID_11_)"/>
	<linearGradient id="SVGID_12_" x1="1496.2" x2="1620.9" y1="1552" y2="1552" gradientUnits="userSpaceOnUse">
		<stop stop-color="#FF77B6" offset="0"/>
		<stop stop-color="#fff" offset="0"/>
		<stop stop-color="#FDF9B5" offset="0"/>
		<stop stop-color="#E3BC78" offset="1"/>
	</linearGradient>
	<path d="m1558.6 1489.1c35.5 0 62.4 25.7 62.4 62.9 0 36.3-26.9 62.9-62.4 62.9s-62.3-25.7-62.3-62.9c-0.1-35.5 26-62.9 62.3-62.9zm0 111.8c27.9 0 46.6-21.3 46.6-48.9 0-28.5-20.4-48.9-46.6-48.9-26.5 0-46.6 20.4-46.6 48.9 0 27.7 20.4 48.9 46.6 48.9z" fill="url(#SVGID_12_)"/>
	<linearGradient id="SVGID_13_" x1="1652.7" x2="1709.5" y1="1552" y2="1552" gradientUnits="userSpaceOnUse">
		<stop stop-color="#FF77B6" offset="0"/>
		<stop stop-color="#fff" offset="0"/>
		<stop stop-color="#E3BD79" offset="0"/>
		<stop stop-color="#DEAF6E" offset=".9925"/>
	</linearGradient>
	<path d="m1652.7 1490.8h55.9v14h-41v39.5h34.9v14h-34.9v40.9h41.9v14h-56.8z" fill="url(#SVGID_13_)"/>
</g>
</svg>
