<svg enable-background="new 0 0 800 652" version="1.1" viewBox="0 0 800 652" xml:space="preserve" xmlns="http://www.w3.org/2000/svg">
<linearGradient id="SVGID_1_" x1="1233.2" x2="1233.2" y1="384.47" y2="-1164.1" gradientTransform="matrix(.567 0 0 -.567 -291.35 82.546)" gradientUnits="userSpaceOnUse">
	<stop stop-color="#FF77B6" offset="0"/>
	<stop stop-color="#fff" offset="0"/>
	<stop stop-color="#FF76BA" offset="0"/>
	<stop stop-color="#FF74B8" offset=".2906"/>
	<stop stop-color="#FF6FB1" offset=".417"/>
	<stop stop-color="#FF68A7" offset=".495"/>
	<stop stop-color="#FF65A3" offset=".7558"/>
	<stop stop-color="#FF5E98" offset="1"/>
</linearGradient>
<path d="m327.3 463.5c-2.2-7.9-5.4-15.4-9.5-22.3-4.6-8.1-10.2-15.5-16.2-22.5-12.1-14.1-25.6-26.8-39.6-39.6-13.9-12.8-28-25.8-41.3-40.1-13.3-14.4-26.2-29.8-37-47.6-5.4-8.9-10.3-18.4-14.2-28.5-1.9-5-3.6-10.3-5-15.6s-2.4-10.8-3.1-16.4-1-11.2-1.1-16.8c0.1-5.7 0.3-10.9 0.9-16.3 1.1-10.7 3.1-21.5 6.4-32.1 3.3-10.5 7.7-20.9 13.4-30.6 5.8-9.6 12.7-18.7 20.8-26.5 8-7.9 17.1-14.7 26.7-20.4 4.8-2.8 9.9-5.2 15-7.4 5.1-2.1 10.4-3.9 15.6-5.4 21.3-5.9 43.7-6.7 65.1-2.4 21.5 4.3 42.1 13.7 59.4 27.8 17.2 14.1 30.7 32.8 38.9 53.1 1.1 2.6 1.9 5.1 2.9 7.7 0.9 2.7 1.7 5.1 2.5 7.9 1.6 5.6 2.7 11.2 3.4 17 1.4 11.5 1.1 23.6-2.6 36.2-1.9 6.3-4.7 12.7-9.1 18.7-4.3 5.9-10.1 11.1-16.7 14.6-3.2 1.8-6.6 3.2-10 4.3-1.6 0.5-3.3 1-5.3 1.4-1.8 0.4-3.8 0.6-5.7 0.9-7.8 0.7-16-0.8-22.8-3.9-6.9-3-12.5-7.3-17.2-11.8-4.6-4.5-8.4-9.4-11.7-14.4-6.4-10-10.9-20.5-13.9-31.6-0.7-2.8-1.4-5.6-2-8.5-0.3-1.4-0.5-2.9-0.7-4.4s-0.3-2.8-0.6-4.2c-0.6-5.6-1-11.1-1-16.7-0.1-11.1 1.2-22.2 3.6-33.1 2.4-10.8 6-21.3 10.5-31.2 4.5-10 10-19.6 16.3-28.5 12.6-17.9 28.5-33.4 46.8-45.6 9.2-6.1 18.9-11.3 29.1-15.6 10.3-4.3 21-7.5 31.9-9.6s22.2-3.2 33.4-3.1c11.3 0.2 22.5 1.6 33.5 4 21.9 5 42.8 14.2 61.2 27.1 9.2 6.5 17.9 13.7 25.7 21.8s14.9 17 21.1 26.5c12.4 18.9 21 40.3 25.8 62.1 2.3 10.9 3.6 22.1 4.1 33.1l0.2 8.3-0.2 8.2c-0.1 2.8-0.2 5.3-0.4 7.9s-0.4 5.2-0.6 7.7c-1.8 20.7-5.6 41.4-11.4 61.3-5.9 20-13.7 39.3-23.2 57.6-9.6 18.2-20.8 35.4-33.3 51.4-25.1 31.9-55 58.9-87.1 81.3-32.1 22.5-66.6 40.7-101.9 55.7-31.5 13.3-63.7 24.1-96.4 32.5-1.6 0.4-2.4-1.9-1-2.6 30.2-15.1 59.8-30.9 88.1-48.3 31.9-19.6 62.2-41.2 89.8-65.3 27.4-24.2 52.2-51 71.8-80.6 9.8-14.8 18.5-30.2 25.5-46.2 7.1-16 12.8-32.5 16.7-49.3s6.5-34 7.3-51.4c0.1-2.2 0.2-4.4 0.2-6.6 0.1-2.2 0.1-4.5 0.1-6.4v-6.1l-0.3-6c-0.6-8-1.7-15.9-3.5-23.6-3.5-15.4-9.7-29.8-18.1-42.7-4.2-6.5-9-12.5-14.3-18-5.3-5.6-11.1-10.7-17.3-15.1-12.5-9-26.6-15.8-41.4-19.6-7.4-1.9-14.9-3.2-22.5-3.6-7.6-0.5-15.3-0.4-23 0.6-15.3 2-30.3 7-44.2 14.7-13.8 7.7-26.4 18.3-36.6 30.8-5.1 6.2-9.7 13-13.4 20.1s-6.8 14.7-9 22.4-3.5 15.6-3.9 23.6c-0.2 4-0.1 7.9 0.2 11.9 0.1 1 0.2 2 0.3 2.9s0.2 1.8 0.4 2.7c0.3 1.8 0.7 3.6 1.1 5.4 1.8 7.3 4.8 14.6 8.6 20.6 1.9 3 4 5.7 6.1 7.8 2.1 2 4.1 3.6 5.9 4.4 0.9 0.5 1.6 0.7 2.4 0.8 0.7 0.2 1.5 0.2 2.3 0.2 1.4-0.1 4.3-0.8 6-1.8 0.9-0.5 1.7-1 2.4-1.6s1.4-1.4 2.1-2.2c1.3-1.7 2.5-4.1 3.4-6.9 1.8-5.7 2-13.1 1.1-20.5-0.5-3.7-1.2-7.4-2.3-11.1-0.5-1.8-1.3-3.8-1.9-5.7-0.7-1.9-1.4-3.8-2.3-5.6-6.3-14.9-16-27.8-28.2-37.5-12.2-9.8-27.1-16.3-42.6-19.1s-31.8-2-46.9 2.5c-15 4.5-28.8 12.5-39.7 23.5-10.9 10.9-18.8 24.7-23.6 40-2.3 7.7-3.9 15.7-4.8 23.9-0.5 4.1-0.6 8.4-0.8 12.2 0 3.9 0.2 7.9 0.5 11.8 1.5 15.7 6.7 31.5 14.3 46.9 7.7 15.4 17.9 30.4 29 45.1 11.2 14.7 23.1 29.4 34.6 44.7 5.7 7.7 11.5 15.5 17 23.6s10.9 16.3 15.5 24.9c4.6 8.7 8.8 17.7 11.8 27.2 2.4 8.2 4.1 16.6 4.2 24.9 0.5 1-0.2 1.1-0.5-0.1z" fill="url(#SVGID_1_)"/>
<g transform="matrix(.56697 0 0 .56697 -169.24 -263.57)">
		<linearGradient id="SVGID_2_" x1="1255.7" x2="1255.7" y1="1143" y2="-405.62" gradientTransform="matrix(.567 0 0 -.567 -384.62 874.04)" gradientUnits="userSpaceOnUse">
		<stop stop-color="#FF77B6" offset="0"/>
		<stop stop-color="#fff" offset="0"/>
		<stop stop-color="#FF76BA" offset="0"/>
		<stop stop-color="#FF74B8" offset=".2906"/>
		<stop stop-color="#FF6FB1" offset=".417"/>
		<stop stop-color="#FF68A7" offset=".495"/>
		<stop stop-color="#FF65A3" offset=".7558"/>
		<stop stop-color="#FF5E98" offset="1"/>
	</linearGradient>
	<path d="m298.5 1613.1v-122.3h12.5c32.5 0 45.2 21.1 45.2 40.2 0 19.9-15.4 39.3-43 42.3v39.8h-14.7zm14.8-53.8c16.8-1.6 27.2-13.1 27.2-28.5 0-14.5-9.8-26-27.2-26v54.5z" fill="url(#SVGID_2_)"/>
		<linearGradient id="SVGID_3_" x1="1463.3" x2="1463.3" y1="1143" y2="-405.62" gradientTransform="matrix(.567 0 0 -.567 -384.62 874.04)" gradientUnits="userSpaceOnUse">
		<stop stop-color="#FF77B6" offset="0"/>
		<stop stop-color="#fff" offset="0"/>
		<stop stop-color="#FF76BA" offset="0"/>
		<stop stop-color="#FF74B8" offset=".2906"/>
		<stop stop-color="#FF6FB1" offset=".417"/>
		<stop stop-color="#FF68A7" offset=".495"/>
		<stop stop-color="#FF65A3" offset=".7558"/>
		<stop stop-color="#FF5E98" offset="1"/>
	</linearGradient>
	<path d="m445 1489.1c35.5 0 62.4 25.7 62.4 62.9 0 36.3-26.9 62.9-62.4 62.9s-62.4-25.7-62.4-62.9c0-35.5 26.1-62.9 62.4-62.9zm0 111.8c27.9 0 46.6-21.3 46.6-48.9 0-28.5-20.4-48.9-46.6-48.9-26.5 0-46.6 20.4-46.6 48.9 0 27.7 20.4 48.9 46.6 48.9z" fill="url(#SVGID_3_)"/>
		<linearGradient id="SVGID_4_" x1="1728.1" x2="1728.1" y1="1143" y2="-405.62" gradientTransform="matrix(.567 0 0 -.567 -384.62 874.04)" gradientUnits="userSpaceOnUse">
		<stop stop-color="#FF77B6" offset="0"/>
		<stop stop-color="#fff" offset="0"/>
		<stop stop-color="#FF76BA" offset="0"/>
		<stop stop-color="#FF74B8" offset=".2906"/>
		<stop stop-color="#FF6FB1" offset=".417"/>
		<stop stop-color="#FF68A7" offset=".495"/>
		<stop stop-color="#FF65A3" offset=".7558"/>
		<stop stop-color="#FF5E98" offset="1"/>
	</linearGradient>
	<path d="m539.1 1489.1 56.9 51.5 55.2-51.5v124h-14.8v-91l-40.3 39.3-42.1-39.5v91.2h-14.8v-124h-0.1z" fill="url(#SVGID_4_)"/>
		<linearGradient id="SVGID_5_" x1="1980.7" x2="1980.7" y1="1143" y2="-405.62" gradientTransform="matrix(.567 0 0 -.567 -384.62 874.04)" gradientUnits="userSpaceOnUse">
		<stop stop-color="#FF77B6" offset="0"/>
		<stop stop-color="#fff" offset="0"/>
		<stop stop-color="#FF76BA" offset="0"/>
		<stop stop-color="#FF74B8" offset=".2906"/>
		<stop stop-color="#FF6FB1" offset=".417"/>
		<stop stop-color="#FF68A7" offset=".495"/>
		<stop stop-color="#FF65A3" offset=".7558"/>
		<stop stop-color="#FF5E98" offset="1"/>
	</linearGradient>
	<path d="m732 1490.1h12.7l52.6 123h-15.9l-15.7-37h-55.7l-15.5 37h-15l52.5-123zm-16.1 72h44l-22-52.2-22 52.2z" fill="url(#SVGID_5_)"/>
		<linearGradient id="SVGID_6_" x1="2233.5" x2="2233.5" y1="1143" y2="-405.62" gradientTransform="matrix(.567 0 0 -.567 -384.62 874.04)" gradientUnits="userSpaceOnUse">
		<stop stop-color="#FF77B6" offset="0"/>
		<stop stop-color="#fff" offset="0"/>
		<stop stop-color="#FF76BA" offset="0"/>
		<stop stop-color="#FF74B8" offset=".2906"/>
		<stop stop-color="#FF6FB1" offset=".417"/>
		<stop stop-color="#FF68A7" offset=".495"/>
		<stop stop-color="#FF65A3" offset=".7558"/>
		<stop stop-color="#FF5E98" offset="1"/>
	</linearGradient>
	<path d="m923.2 1557.7h-83v55.4h-14.8v-122.3h14.8v52.9h83v-52.9h14.8v122.3h-14.8v-55.4z" fill="url(#SVGID_6_)"/>
		<linearGradient id="SVGID_7_" x1="2470.5" x2="2470.5" y1="1143" y2="-405.62" gradientTransform="matrix(.567 0 0 -.567 -384.62 874.04)" gradientUnits="userSpaceOnUse">
		<stop stop-color="#FF77B6" offset="0"/>
		<stop stop-color="#fff" offset="0"/>
		<stop stop-color="#FF76BA" offset="0"/>
		<stop stop-color="#FF74B8" offset=".2906"/>
		<stop stop-color="#FF6FB1" offset=".417"/>
		<stop stop-color="#FF68A7" offset=".495"/>
		<stop stop-color="#FF65A3" offset=".7558"/>
		<stop stop-color="#FF5E98" offset="1"/>
	</linearGradient>
	<path d="m965.9 1490.8h100.4v14h-42.8v108.3h-14.8v-108.3h-42.8v-14z" fill="url(#SVGID_7_)"/>
		<linearGradient id="SVGID_8_" x1="2698" x2="2698" y1="1143" y2="-405.62" gradientTransform="matrix(.567 0 0 -.567 -384.62 874.04)" gradientUnits="userSpaceOnUse">
		<stop stop-color="#FF77B6" offset="0"/>
		<stop stop-color="#fff" offset="0"/>
		<stop stop-color="#FF76BA" offset="0"/>
		<stop stop-color="#FF74B8" offset=".2906"/>
		<stop stop-color="#FF6FB1" offset=".417"/>
		<stop stop-color="#FF68A7" offset=".495"/>
		<stop stop-color="#FF65A3" offset=".7558"/>
		<stop stop-color="#FF5E98" offset="1"/>
	</linearGradient>
	<path d="m1094 1614.8v-124h14.8v90.3l87.3-92v124h-14.8v-89.4l-87.3 91.1z" fill="url(#SVGID_8_)"/>
		<linearGradient id="SVGID_9_" x1="2918.7" x2="2918.7" y1="1143" y2="-405.62" gradientTransform="matrix(.567 0 0 -.567 -384.62 874.04)" gradientUnits="userSpaceOnUse">
		<stop stop-color="#FF77B6" offset="0"/>
		<stop stop-color="#fff" offset="0"/>
		<stop stop-color="#FF76BA" offset="0"/>
		<stop stop-color="#FF74B8" offset=".2906"/>
		<stop stop-color="#FF6FB1" offset=".417"/>
		<stop stop-color="#FF68A7" offset=".495"/>
		<stop stop-color="#FF65A3" offset=".7558"/>
		<stop stop-color="#FF5E98" offset="1"/>
	</linearGradient>
	<path d="m1312.1 1613.1h-14.8v-53.4c-6.3 4.5-18.2 9.4-32.3 9.4-19.4 0-36.7-10.5-36.7-38.9v-39.3h14.8v35.3c0 21.1 10.8 29 25.7 29 11.9 0 22-4.9 28.5-9.3v-55h14.8v122.2z" fill="url(#SVGID_9_)"/>
		<linearGradient id="SVGID_10_" x1="3161.9" x2="3161.9" y1="1143" y2="-405.62" gradientTransform="matrix(.567 0 0 -.567 -384.62 874.04)" gradientUnits="userSpaceOnUse">
		<stop stop-color="#FF77B6" offset="0"/>
		<stop stop-color="#fff" offset="0"/>
		<stop stop-color="#FF76BA" offset="0"/>
		<stop stop-color="#FF74B8" offset=".2906"/>
		<stop stop-color="#FF6FB1" offset=".417"/>
		<stop stop-color="#FF68A7" offset=".495"/>
		<stop stop-color="#FF65A3" offset=".7558"/>
		<stop stop-color="#FF5E98" offset="1"/>
	</linearGradient>
	<path d="m1449.6 1557.7h-83v55.4h-14.8v-122.3h14.8v52.9h83v-52.9h14.8v122.3h-14.8v-55.4z" fill="url(#SVGID_10_)"/>
		<linearGradient id="SVGID_11_" x1="3427.5" x2="3427.5" y1="1143" y2="-405.62" gradientTransform="matrix(.567 0 0 -.567 -384.62 874.04)" gradientUnits="userSpaceOnUse">
		<stop stop-color="#FF77B6" offset="0"/>
		<stop stop-color="#fff" offset="0"/>
		<stop stop-color="#FF76BA" offset="0"/>
		<stop stop-color="#FF74B8" offset=".2906"/>
		<stop stop-color="#FF6FB1" offset=".417"/>
		<stop stop-color="#FF68A7" offset=".495"/>
		<stop stop-color="#FF65A3" offset=".7558"/>
		<stop stop-color="#FF5E98" offset="1"/>
	</linearGradient>
	<path d="m1558.6 1489.1c35.5 0 62.4 25.7 62.4 62.9 0 36.3-26.9 62.9-62.4 62.9s-62.3-25.7-62.3-62.9c-0.1-35.5 26-62.9 62.3-62.9zm0 111.8c27.9 0 46.6-21.3 46.6-48.9 0-28.5-20.4-48.9-46.6-48.9-26.5 0-46.6 20.4-46.6 48.9 0 27.7 20.4 48.9 46.6 48.9z" fill="url(#SVGID_11_)"/>
		<linearGradient id="SVGID_12_" x1="3643.4" x2="3643.4" y1="1143" y2="-405.62" gradientTransform="matrix(.567 0 0 -.567 -384.62 874.04)" gradientUnits="userSpaceOnUse">
		<stop stop-color="#FF77B6" offset="0"/>
		<stop stop-color="#fff" offset="0"/>
		<stop stop-color="#FF76BA" offset="0"/>
		<stop stop-color="#FF74B8" offset=".2906"/>
		<stop stop-color="#FF6FB1" offset=".417"/>
		<stop stop-color="#FF68A7" offset=".495"/>
		<stop stop-color="#FF65A3" offset=".7558"/>
		<stop stop-color="#FF5E98" offset="1"/>
	</linearGradient>
	<path d="m1652.7 1490.8h55.9v14h-41v39.5h34.9v14h-34.9v40.9h41.9v14h-56.8v-122.4z" fill="url(#SVGID_12_)"/>
</g>
</svg>
