<svg version="1.1" viewBox="0 0 800 182.5" xmlns="http://www.w3.org/2000/svg">
 <defs>
  <linearGradient id="a" x1="599.75" x2="599.75" y1="181.46" y2="1.0187" gradientTransform="translate(-101.48 3.5957)" gradientUnits="userSpaceOnUse">
   <stop stop-color="#012ba8" offset="0"/>
   <stop stop-color="#0068e3" offset="1"/>
  </linearGradient>
 </defs>
 <g transform="translate(101.48 -3.5957)">
  <rect x="-101.48" y="3.5957" width="600" height="182.5" fill="url(#a)"/>
  <rect x="512.27" y="3.5957" width="186.25" height="182.5" fill="#c40000"/>
  <g transform="matrix(1.6754 0 0 1.6754 -102.35 1.7627)" fill="#fff">
   <path d="m35.185 84.37v-57.652h20.588c5.6342 0 10.198 1.7969 13.701 5.4121 3.5029 3.6069 5.2564 7.9385 5.2564 13.008 0 5.0576-1.7408 9.3516-5.2095 12.876-3.4649 3.521-8.0532 5.295-13.748 5.295h-8.0312v21.06zm20.159-31.473c1.9888 0 3.5996-0.7125 4.8256-2.1304 1.2256-1.4288 1.8355-3.2959 1.8355-5.629 0-2.3339-0.60988-4.2129-1.8355-5.6299-1.226-1.4258-2.8369-2.1284-4.8256-2.1284h-7.6015v15.518z"/>
   <path d="m80.639 61.691v-12.209c0-7.6152 2.1446-13.495 6.4454-17.646 4.3008-4.1528 9.7598-6.2368 16.361-6.2368 6.6592 0 12.139 2.084 16.441 6.2368 4.3002 4.1519 6.4445 10.031 6.4445 17.646v12.209c0 7.6724-2.1442 13.552-6.4445 17.646-4.3018 4.0909-9.7818 6.1382-16.441 6.1382-6.6015 0-12.06-2.0591-16.361-6.1744-4.3008-4.1314-6.4454-9.9951-6.4454-17.61zm22.807 13.123c6.8844 0 10.328-4.6885 10.328-14.064v-10.412c0-9.377-3.4438-14.078-10.328-14.078-6.8418 0-10.248 4.7006-10.248 14.078v10.412c0 9.376 3.4068 14.064 10.248 14.064"/>
   <path d="m172.38 72.518 2.3825 10.317c-5.4575 1.7608-11.009 2.6411-16.646 2.6411-7.0638 0-12.759-2.0342-17.082-6.0914-4.3275-4.0698-6.495-9.9375-6.495-17.611v-12.458c0-7.6739 2.1675-13.541 6.495-17.61 4.3238-4.0709 10.019-6.106 17.082-6.106 5.6375 0 11.189 0.893 16.646 2.6538l-2.3825 10.232c-4.79-1.4741-9.5075-2.2246-14.178-2.2246-7.4 0-11.106 4.7006-11.106 14.078v10.317c0 5.0082 0.955 8.6152 2.8612 10.838 1.9062 2.2139 4.6575 3.3209 8.245 3.3209 5.0012 0 9.7338-0.76175 14.178-2.2969"/>
   <path d="m220.12 72.518 2.395 10.317c-5.4688 1.7608-11.024 2.6411-16.658 2.6411-7.0562 0-12.75-2.0342-17.075-6.0914-4.3375-4.0698-6.495-9.9375-6.495-17.611v-12.458c0-7.6739 2.1575-13.541 6.495-17.61 4.325-4.0709 10.019-6.106 17.075-6.106 5.6338 0 11.189 0.893 16.658 2.6538l-2.395 10.232c-4.7788-1.4741-9.51-2.2246-14.18-2.2246-7.4 0-11.094 4.7006-11.094 14.078v10.317c0 5.0082 0.955 8.6152 2.8612 10.838 1.9062 2.2139 4.645 3.3209 8.2325 3.3209 5.0175 0 9.7362-0.76175 14.18-2.2969"/>
   <path d="m275.2 26.718v57.652h-12.559v-24.562c0-3.0674 0.11875-6.0922 0.34375-9.041l-21.266 33.603h-10.249v-57.652h12.559v24.988c0 2.6182-0.0825 5.5464-0.26125 8.7818l21.268-33.77h10.165"/>
   <path d="m323.54 26.718v57.652h-12.559v-21.06h-4.7912l-9.2212 21.06h-14l10.759-22.858c-3.1912-1.4165-5.67-3.607-7.435-6.5679-1.7612-2.9521-2.6438-6.2231-2.6438-9.8058 0-5.0566 1.7512-9.4009 5.2538-13.008 3.5038-3.6152 8.0662-5.4121 13.704-5.4121zm-12.559 26.179v-15.518h-7.7688c-2 0-3.6475 0.72412-4.955 2.1655-1.3125 1.4521-1.9688 3.3199-1.9688 5.5928 0 2.3331 0.645 4.2002 1.9188 5.629 1.2875 1.4179 2.9438 2.1304 5.005 2.1304z"/>
  </g>
  <path d="m549.07 36.324c6.8955-3.7984 15.02-3.7311 22.632-3.0422 10.057 0.86594 19.533 5.0287 29.645 5.435 5.8136 0.78343 11.64 0.31068 17.344-0.85184 3.854 1.8655-1.8923 4.6505-2.8647 6.8943-8.0848 14.209-10.68 30.687-14.208 46.45 7.2997-1.2842 14.978-3.4204 20.141-9.1118 10.693-12.031 19.034-25.969 29.809-37.92 6.3272-7.0702 16.087-10.084 25.374-8.8002 0.08 0.74344 0.24416 2.2168 0.32415 2.9609-4.8265-0.27132-10.057-0.28458-14.22 2.5275-6.1378 3.8527-9.5182 10.504-13.141 16.52-5.5148 9.6249-11.301 19.156-18.317 27.753-7.6386 8.301-19.819 10.99-30.579 8.463-2.8794 13.898-7.5712 27.551-14.41 40.001-5.5568 9.8278-14.439 18.452-25.78 20.818-7.3818 1.3246-15.898 2.0548-22.347-2.5555-6.4198-4.2844-9.4761-12.355-8.531-19.885 0.77249-10.654 8.7626-19.751 18.63-23.265 4.0287-1.3517 9.4487-3.4343 12.652 0.52706-10.396 1.0408-20.939 6.4215-25.454 16.235-3.6772 7.5577-2.3259 17.817 4.5023 23.117 5.8115 4.8667 15.018 4.5147 20.762-0.25742 4.8938-3.8256 7.9753-9.341 10.747-14.762 5.5568-11.464 9.072-23.752 12.709-35.918 3.8519-14.074 6.9734-28.578 13.762-41.624 3.1089-6.0563 7.9606-11.275 14.14-14.263-11.383 3.2314-23.417 3.5019-35.054 1.6635-8.4763-1.3658-17.75-2.2446-25.618 1.9329-8.11 3.4476-11.909 15.195-6.0704 22.211 6.0031 6.4485 18.563 4.5821 20.807-4.5427 3.5278 3.0965-0.13471 7.4089-3.0563 9.342-8.8531 5.3123-22.385 1.1486-25.766-8.9097-3.6372-10.314 1.7576-22.359 11.436-27.145zm51.169 61.752c1.6755-0.82469 3.2036-2.501 5.2853-1.7974 7.1776 0.39151 14.532 1.5812 20.844 5.2178 3.7046 2.1493 6.7461 5.8 7.4218 10.112 0.91983 9.4769-1.8376 19.156 0.73039 28.483 1.6628 6.5571 8.7878 11.491 15.534 9.5449 10.301-1.96 16.668-12.357 17.167-22.293 0.79774-0.39129 2.3932-1.1897 3.191-1.581 0.67566 11.99-6.1778 24.86-18.062 28.578-8.7583 2.5949-19.952 2.7165-26.549-4.6101-5.0559-5.287-5.9757-12.869-6.9482-19.791-0.9072-6.2866-0.89247-12.668-2.0017-18.913-1.8649-7.4615-9.2193-12.302-16.614-12.951" fill="#fdfdfd"/>
 </g>
</svg>
