<svg enable-background="new 0 0 841.89 595.28" version="1.1" viewBox="0 0 155.91 200.87" xml:space="preserve" xmlns="http://www.w3.org/2000/svg"><g transform="translate(-348.52,-201.12)" fill="#1a4a9c"><path d="m392.93 397.04c-0.593 0-0.966-0.071-1.106-0.214-0.143-0.142-0.212-0.515-0.212-1.118v-7.851c0-0.577 0.063-0.938 0.199-1.084 0.129-0.139 0.45-0.216 0.958-0.216h0.586v-2.001h-12.966v2.001h0.646c0.822 0 1.233 0.289 1.233 0.865 0 0.134-0.032 0.302-0.104 0.521l-2.555 8.028c-0.229 0.711-0.684 1.068-1.37 1.068h-0.53l-1.536 4.274 1.879 0.671c0.33-0.838 0.803-1.537 1.413-2.097 0.608-0.567 1.582-0.842 2.922-0.842h6.274c1.34 0 2.319 0.281 2.931 0.848 0.603 0.563 1.077 1.263 1.396 2.091l1.894-0.671-1.537-4.274h-0.415zm-4.904-0.258h-4.864c-0.676 0-1.012-0.181-1.012-0.544 0-0.107 0.028-0.247 0.08-0.406l2.649-9.013h3.148v9.963z"/><path d="m406.94 395.08c-0.483 0.583-1.04 1-1.66 1.262-0.626 0.266-1.398 0.393-2.3 0.393h-1.218c-0.331 0-0.553-0.024-0.647-0.061-0.1-0.045-0.171-0.104-0.201-0.18-0.038-0.079-0.053-0.295-0.053-0.643v-3.337h0.653c0.595 0 0.979 0.037 1.151 0.104 0.172 0.071 0.307 0.207 0.411 0.397 0.104 0.194 0.154 0.506 0.154 0.934v0.622h1.847v-6.136h-1.847v0.55c0 0.503-0.045 0.842-0.131 1.011-0.081 0.169-0.218 0.296-0.407 0.376-0.191 0.072-0.557 0.119-1.105 0.119h-0.726v-3.618h2.206c0.69 0 1.291 0.074 1.811 0.225 0.514 0.147 0.982 0.453 1.413 0.906 0.422 0.458 0.795 1.064 1.115 1.81l1.877-0.676-1.652-4.576h-12.103v2.001h0.646c0.371 0 0.613 0.03 0.739 0.099 0.121 0.067 0.215 0.163 0.276 0.296 0.055 0.126 0.083 0.414 0.083 0.839v7.902c0 0.483-0.015 0.772-0.051 0.882-0.068 0.167-0.188 0.293-0.354 0.36-0.164 0.07-0.489 0.104-0.976 0.104h-0.363v2.007h12.542l1.899-5.392-1.896-0.652c-0.261 0.8-0.639 1.488-1.133 2.072z"/><path d="m421.73 384.06-0.177 0.497h-8.166l-0.147-0.497h-1.374l-1.784 5.088 1.902 0.675c0.451-0.898 0.748-1.438 0.881-1.634 0.35-0.492 0.739-0.875 1.187-1.142 0.444-0.273 0.843-0.409 1.206-0.409 0.182 0 0.296 0.033 0.35 0.098 0.058 0.062 0.086 0.217 0.086 0.455v8.518c0 0.476-0.038 0.787-0.104 0.933-0.071 0.146-0.174 0.254-0.305 0.312-0.131 0.057-0.434 0.088-0.91 0.088h-0.429v2.007h7.076v-2.007c-0.636 0-1.025-8e-3 -1.171-0.034-0.146-0.027-0.26-0.077-0.345-0.143-0.087-0.076-0.144-0.174-0.177-0.299-0.035-0.126-0.05-0.437-0.05-0.924v-8.334c0-0.281 0.028-0.467 0.088-0.543 0.066-0.086 0.181-0.126 0.343-0.126 0.359 0 0.714 0.11 1.074 0.331 0.479 0.295 0.897 0.694 1.268 1.199 0.188 0.256 0.497 0.808 0.928 1.654l1.928-0.675-1.794-5.088z"/><path d="m437.18 395.08c-0.491 0.583-1.048 1-1.671 1.262-0.623 0.266-1.386 0.393-2.297 0.393h-1.216c-0.331 0-0.55-0.024-0.647-0.061-0.104-0.045-0.171-0.104-0.204-0.18-0.036-0.079-0.053-0.295-0.053-0.643v-3.337h0.65c0.602 0 0.988 0.037 1.155 0.104 0.176 0.071 0.312 0.207 0.414 0.397 0.098 0.194 0.147 0.506 0.147 0.934v0.622h1.849v-6.136h-1.849v0.55c0 0.503-0.04 0.842-0.121 1.011-0.086 0.169-0.225 0.296-0.417 0.376-0.186 0.072-0.556 0.119-1.102 0.119h-0.728v-3.618h2.213c0.687 0 1.286 0.074 1.802 0.225 0.518 0.147 0.992 0.453 1.413 0.906 0.427 0.458 0.797 1.064 1.119 1.81l1.881-0.676-1.653-4.576h-12.101v2.001h0.643c0.366 0 0.614 0.03 0.739 0.099 0.121 0.067 0.215 0.163 0.273 0.296 0.061 0.126 0.088 0.414 0.088 0.839v7.902c0 0.483-0.019 0.772-0.05 0.882-0.071 0.167-0.19 0.293-0.354 0.36-0.166 0.07-0.494 0.104-0.973 0.104h-0.366v2.007h12.535l1.906-5.392-1.901-0.652c-0.264 0.8-0.639 1.488-1.124 2.072z"/><path d="m456.07 396.86c-0.167-0.093-0.428-0.382-0.787-0.858l-4.184-5.646 3.503-3.035c0.273-0.235 0.495-0.399 0.664-0.505 0.169-0.108 0.314-0.171 0.431-0.204 0.119-0.03 0.332-0.047 0.637-0.047h0.212v-2.001h-6.555v2.001h0.584c0.324 0 0.524 0.027 0.611 0.077 0.076 0.041 0.114 0.113 0.114 0.212 0 0.049-0.019 0.105-0.059 0.179-0.046 0.06-0.164 0.188-0.369 0.373l-4.515 4.189v-3.854c0-0.385 0.036-0.643 0.107-0.782s0.192-0.248 0.359-0.317c0.102-0.05 0.378-0.077 0.827-0.077h0.471v-2.001h-7.078v2.001h0.597c0.361 0 0.614 0.037 0.751 0.109 0.144 0.066 0.245 0.18 0.31 0.332 0.06 0.141 0.093 0.427 0.093 0.858v7.915c0 0.448-0.03 0.729-0.086 0.851-0.06 0.147-0.166 0.253-0.302 0.316-0.143 0.069-0.418 0.101-0.825 0.101h-0.537v2.007h7.078v-2.007h-0.597c-0.385 0-0.645-0.031-0.769-0.088-0.129-0.058-0.23-0.152-0.299-0.298-0.069-0.136-0.101-0.381-0.101-0.739v-1.461l2.192-1.902 2.554 3.635c0.213 0.312 0.322 0.511 0.322 0.596 0 0.074-0.057 0.137-0.169 0.186-0.118 0.048-0.444 0.072-0.975 0.072h-0.292v2.007h7.316v-2.007h-0.28c-0.412-1e-3 -0.728-0.063-0.954-0.188z"/><path d="m468.97 384.06-0.181 0.497h-8.166l-0.148-0.497h-1.365l-1.786 5.088 1.896 0.675c0.45-0.898 0.747-1.438 0.883-1.634 0.348-0.492 0.742-0.875 1.188-1.142 0.444-0.273 0.845-0.409 1.203-0.409 0.183 0 0.298 0.033 0.354 0.098 0.058 0.062 0.083 0.217 0.083 0.455v8.518c0 0.476-0.033 0.787-0.103 0.933s-0.176 0.254-0.304 0.312c-0.138 0.057-0.436 0.088-0.909 0.088h-0.436v2.007h7.086v-2.007c-0.637 0-1.037-8e-3 -1.177-0.034-0.147-0.027-0.262-0.077-0.345-0.143-0.086-0.076-0.139-0.174-0.182-0.299-0.027-0.126-0.05-0.437-0.05-0.924v-8.334c0-0.281 0.033-0.467 0.098-0.543 0.058-0.086 0.172-0.126 0.343-0.126 0.35 0 0.709 0.11 1.067 0.331 0.479 0.295 0.9 0.694 1.269 1.199 0.19 0.256 0.493 0.808 0.925 1.654l1.93-0.675-1.796-5.088z"/><path d="m481.79 386.56h0.545c0.497 0 0.822 0.047 0.975 0.143 0.162 0.102 0.235 0.439 0.235 1.021l-5.277 4.944v-4.808c0-0.587 0.071-0.955 0.206-1.094 0.138-0.136 0.436-0.206 0.893-0.206h0.654v-2.001h-7.08v2.001h0.641c0.461 0 0.757 0.08 0.895 0.232 0.133 0.152 0.207 0.54 0.207 1.163v7.874c0 0.496-0.074 0.822-0.207 0.973-0.138 0.163-0.487 0.24-1.061 0.24h-0.475v2.007h7.08v-2.007h-0.486c-0.466 0-0.771-0.031-0.913-0.101-0.147-0.063-0.238-0.162-0.282-0.295-0.043-0.133-0.066-0.444-0.071-0.937l5.277-4.875v4.875c0 0.578-0.069 0.941-0.209 1.092-0.147 0.163-0.507 0.24-1.087 0.24h-0.459v2.007h7.079v-2.007h-0.41c-0.606 0-0.976-0.071-1.118-0.214-0.142-0.142-0.214-0.515-0.214-1.118v-7.851c0-0.577 0.066-0.938 0.202-1.084 0.129-0.139 0.445-0.216 0.951-0.216h0.589v-2.001h-7.079v2.003z"/><path d="m503.97 393.19c-0.309-0.526-0.723-0.933-1.239-1.223-0.354-0.205-0.883-0.397-1.558-0.57 0.63-0.214 1.142-0.483 1.526-0.816 0.389-0.331 0.678-0.707 0.886-1.138 0.206-0.428 0.311-0.884 0.311-1.362 0-0.656-0.192-1.259-0.582-1.81-0.39-0.55-0.938-0.974-1.657-1.269-0.722-0.292-1.714-0.438-2.975-0.438h-8.234v2.001h0.573c0.378 0 0.64 0.03 0.773 0.104 0.14 0.069 0.23 0.158 0.287 0.281 0.053 0.119 0.086 0.388 0.086 0.822v8.081c0 0.421-0.033 0.697-0.086 0.815-0.057 0.121-0.147 0.215-0.287 0.278-0.134 0.069-0.396 0.101-0.773 0.101h-0.573v2.007h7.598c1.63 0 2.871-0.173 3.723-0.511 0.842-0.341 1.495-0.831 1.964-1.478 0.464-0.649 0.692-1.352 0.692-2.127-1e-3 -0.647-0.153-1.228-0.455-1.748zm-8.221-6.288h1.594c0.926 0 1.568 0.048 1.929 0.167 0.359 0.113 0.636 0.305 0.823 0.577 0.192 0.268 0.288 0.595 0.288 0.974 0 0.368-0.102 0.696-0.302 0.975-0.202 0.278-0.5 0.49-0.897 0.628-0.398 0.137-1.011 0.207-1.841 0.207h-1.594zm4.489 8.952c-0.291 0.361-0.628 0.597-1.033 0.713-0.402 0.117-0.915 0.17-1.529 0.17h-1.054c-0.359 0-0.571-0.024-0.647-0.053-0.087-0.045-0.137-0.106-0.176-0.21-0.026-0.073-0.045-0.333-0.05-0.772v-3.142h1.874c0.826 0 1.433 0.076 1.839 0.232 0.397 0.149 0.692 0.374 0.901 0.673 0.193 0.298 0.3 0.659 0.3 1.093 0 0.504-0.142 0.933-0.425 1.296z"/><path d="m386.56 376.29c1.357 0 2.424-0.338 3.196-1.021 0.772-0.672 1.156-1.521 1.156-2.524 0-0.501-0.101-0.975-0.301-1.415-0.202-0.444-0.49-0.835-0.863-1.156-0.375-0.328-0.82-0.573-1.342-0.732-0.514-0.159-1.17-0.238-1.955-0.238h-6.208v1.623h0.565c0.278 0 0.465 0.026 0.566 0.08 0.098 0.056 0.17 0.139 0.217 0.258 0.043 0.113 0.067 0.349 0.067 0.706v6.458c0 0.342-0.028 0.563-0.081 0.676-0.05 0.109-0.131 0.192-0.245 0.242-0.108 0.046-0.338 0.073-0.689 0.073h-0.401v1.626h5.733v-1.626h-0.599c-0.247 0-0.419-0.027-0.523-0.073-0.107-0.05-0.186-0.133-0.235-0.238-0.038-0.076-0.061-0.245-0.061-0.521v-2.197h2.003zm-2.003-5.169h1.307c0.605 0 1.062 0.119 1.372 0.354 0.419 0.315 0.625 0.746 0.625 1.279 0 0.354-0.088 0.666-0.26 0.935-0.177 0.255-0.408 0.45-0.691 0.576-0.288 0.126-0.739 0.189-1.349 0.189h-1.004z"/><path d="m395.61 378.86c-0.125 0.136-0.293 0.202-0.49 0.202-0.147 0-0.29-0.09-0.442-0.265-0.328-0.398-0.711-0.594-1.135-0.594-0.292 0-0.558 0.126-0.807 0.375-0.247 0.251-0.373 0.563-0.373 0.944 0 0.529 0.218 0.944 0.651 1.252 0.431 0.312 0.948 0.464 1.556 0.464 1.412 0 2.484-0.729 3.201-2.177l3.718-7.442c0.259-0.53 0.636-0.799 1.119-0.799l0.21 7e-3h0.217v-1.623h-4.767v1.623h0.587c0.364 0 0.553 0.086 0.553 0.262 0 0.103-0.08 0.306-0.225 0.62l-1.415 3.009-1.872-2.913c-0.176-0.269-0.255-0.487-0.255-0.655 0-0.216 0.144-0.322 0.44-0.322h0.696v-1.623h-5.835v1.623c0.423 0 0.709 0.04 0.855 0.119 0.149 0.08 0.34 0.306 0.586 0.673l3.943 5.882-0.225 0.514c-0.194 0.43-0.358 0.711-0.491 0.844z"/><path d="m408.21 371.33c0.47-0.302 0.984-0.454 1.524-0.454 0.749 0 1.443 0.289 2.084 0.868 0.454 0.421 0.946 1.127 1.468 2.134l1.567-0.453-1.15-4.215h-1.194l-0.278 0.503c-0.844-0.47-1.823-0.702-2.941-0.702-1.09 0-2.094 0.255-2.987 0.772-0.89 0.517-1.599 1.235-2.116 2.157-0.52 0.924-0.778 1.944-0.778 3.067 0 1.134 0.268 2.171 0.8 3.122 0.537 0.954 1.238 1.696 2.139 2.227 0.896 0.533 1.895 0.799 2.995 0.799 1.331 0 2.533-0.352 3.619-1.054 0.702-0.454 1.471-1.263 2.319-2.419l-1.306-0.965c-0.55 0.785-1.199 1.412-1.955 1.876-0.61 0.374-1.245 0.56-1.896 0.56-1.034 0-1.867-0.431-2.512-1.299-0.629-0.875-0.948-1.912-0.948-3.118 0-0.785 0.139-1.478 0.411-2.064 0.283-0.593 0.661-1.037 1.135-1.342z"/><path d="m428.03 377.68-1.299-0.965c-0.552 0.785-1.201 1.412-1.96 1.876-0.606 0.374-1.24 0.56-1.894 0.56-1.032 0-1.867-0.431-2.501-1.299-0.643-0.875-0.956-1.912-0.956-3.118 0-0.785 0.139-1.478 0.411-2.064 0.285-0.593 0.66-1.037 1.13-1.342 0.479-0.302 0.981-0.454 1.527-0.454 0.744 0 1.44 0.289 2.076 0.868 0.462 0.421 0.953 1.127 1.477 2.134l1.567-0.453-1.155-4.215h-1.197l-0.271 0.503c-0.847-0.47-1.826-0.702-2.94-0.702-1.092 0-2.094 0.255-2.987 0.772-0.896 0.517-1.601 1.235-2.122 2.157-0.514 0.924-0.772 1.944-0.772 3.067 0 1.134 0.267 2.171 0.792 3.122 0.537 0.954 1.246 1.696 2.146 2.227 0.893 0.533 1.897 0.799 2.995 0.799 1.327 0 2.533-0.352 3.619-1.054 0.703-0.454 1.478-1.263 2.314-2.419z"/><path d="m436.43 379.32h-0.244v1.63h5.928v-1.63h-0.229c-0.337 0-0.594-0.05-0.771-0.153-0.14-0.075-0.352-0.308-0.644-0.698l-3.383-4.566 2.842-2.452c0.214-0.198 0.397-0.335 0.531-0.421 0.14-0.083 0.254-0.136 0.347-0.162 0.1-0.026 0.275-0.04 0.517-0.04h0.176v-1.623h-5.313v1.623h0.475c0.261 0 0.427 0.021 0.491 0.06 0.065 0.04 0.095 0.103 0.095 0.18 0 0.036-0.014 0.086-0.046 0.136-0.032 0.053-0.135 0.159-0.295 0.305l-3.663 3.403v-3.128c0-0.312 0.029-0.518 0.091-0.633 0.058-0.113 0.155-0.196 0.29-0.263 0.084-0.039 0.31-0.06 0.673-0.06h0.381v-1.623h-5.732v1.623h0.483c0.29 0 0.495 0.03 0.608 0.086 0.11 0.066 0.198 0.153 0.247 0.266 0.046 0.123 0.077 0.357 0.077 0.702v6.415c0 0.361-0.027 0.59-0.074 0.686-0.048 0.12-0.126 0.203-0.243 0.259-0.111 0.053-0.328 0.08-0.668 0.08h-0.431v1.63h5.732v-1.63h-0.48c-0.315 0-0.522-0.027-0.626-0.066-0.108-0.054-0.185-0.136-0.237-0.245-0.062-0.113-0.091-0.315-0.091-0.604v-1.176l1.782-1.544 2.066 2.945c0.175 0.248 0.262 0.414 0.262 0.48 0 0.06-0.05 0.109-0.142 0.152-0.093 0.036-0.356 0.056-0.782 0.056z"/><path d="m454.36 371.01c0.105-0.12 0.359-0.18 0.767-0.18h0.487v-1.623h-5.739v1.623h0.436c0.408 0 0.672 0.04 0.791 0.119 0.131 0.08 0.197 0.355 0.197 0.825l-4.279 4.007v-3.897c0-0.477 0.054-0.769 0.165-0.881 0.112-0.113 0.352-0.173 0.723-0.173h0.535v-1.623h-5.744v1.623h0.523c0.381 0 0.614 0.066 0.73 0.192 0.102 0.123 0.164 0.438 0.164 0.941v6.375c0 0.4-0.063 0.669-0.164 0.795-0.116 0.126-0.399 0.189-0.861 0.189h-0.393v1.626h5.744v-1.626h-0.396c-0.371 0-0.624-0.027-0.743-0.08-0.118-0.056-0.196-0.136-0.225-0.238-0.029-0.109-0.059-0.361-0.059-0.756l4.279-3.953v3.953c0 0.461-0.066 0.759-0.173 0.885-0.117 0.126-0.412 0.189-0.88 0.189h-0.371v1.626h5.739v-1.626h-0.338c-0.49 0-0.79-0.057-0.904-0.173-0.116-0.116-0.175-0.421-0.175-0.901v-6.365c1e-3 -0.466 0.058-0.758 0.164-0.873z"/><path d="m463.29 368.24c1.405 0 2.464-0.237 3.183-0.714 0.723-0.48 1.082-1.004 1.082-1.581 0-0.367-0.131-0.662-0.393-0.88-0.254-0.224-0.54-0.333-0.861-0.333-0.196 0-0.39 0.049-0.567 0.14-0.179 0.095-0.31 0.195-0.384 0.3-0.09 0.104-0.19 0.293-0.311 0.555-0.2 0.411-0.398 0.687-0.603 0.839-0.205 0.148-0.59 0.222-1.146 0.222-0.57 0-0.956-0.073-1.16-0.222-0.2-0.152-0.397-0.428-0.588-0.842-0.121-0.271-0.227-0.452-0.308-0.552-0.08-0.098-0.207-0.197-0.394-0.293-0.182-0.098-0.369-0.146-0.56-0.146-0.319 0-0.609 0.109-0.865 0.333-0.262 0.218-0.386 0.511-0.386 0.874 0 0.576 0.358 1.1 1.07 1.583 0.714 0.48 1.776 0.717 3.191 0.717z"/><path d="m468.49 371.01c0.107-0.12 0.362-0.18 0.77-0.18h0.481v-1.623h-5.738v1.623h0.441c0.404 0 0.671 0.04 0.793 0.119 0.12 0.076 0.186 0.355 0.186 0.825l-4.274 4.007v-3.897c0-0.477 0.061-0.769 0.168-0.881 0.117-0.113 0.356-0.173 0.727-0.173h0.523v-1.623h-5.736v1.623h0.526c0.374 0 0.611 0.066 0.726 0.192 0.111 0.123 0.164 0.438 0.164 0.941v6.375c0 0.4-0.053 0.673-0.164 0.795-0.114 0.126-0.404 0.189-0.865 0.189h-0.387v1.626h5.736v-1.626h-0.391c-0.376 0-0.626-0.027-0.74-0.08-0.119-0.056-0.197-0.136-0.227-0.238-0.034-0.109-0.057-0.361-0.061-0.756l4.274-3.953v3.953c0 0.461-0.055 0.763-0.172 0.885-0.107 0.126-0.402 0.189-0.87 0.189h-0.378v1.626h5.738v-1.626h-0.332c-0.492 0-0.795-0.057-0.904-0.173-0.113-0.119-0.179-0.421-0.179-0.901v-6.365c1e-3 -0.466 0.056-0.758 0.165-0.873z"/><path d="m501.46 277.58c0-42.226-34.237-76.464-76.473-76.464-42.231 0-76.469 34.238-76.469 76.464 0 42.235 34.238 76.472 76.469 76.472 42.236 0 76.473-34.237 76.473-76.472zm-150.72 3e-3c0-41.003 33.248-74.249 74.249-74.249 41.013 0 74.257 33.246 74.257 74.249 0 41.008-33.244 74.249-74.257 74.249-41.001 0-74.249-33.24-74.249-74.249z"/><path d="m493.52 277.59c0-37.845-30.676-68.523-68.531-68.523-37.842 0-68.522 30.678-68.522 68.523s30.68 68.521 68.522 68.521c37.855-1e-3 68.531-30.676 68.531-68.521zm-68.532 56.358c-14.879 0-28.402-5.775-38.475-15.195 1.664-3.173 3.734-6.4 6.218-8.706 2.979-2.777 7.769-4.186 14.235-4.186h29.046c6.467 0 11.273 1.415 14.286 4.201 1.914 1.776 5.313 7.851 7.939 13.029-9.322 6.821-20.811 10.857-33.249 10.857zm-20.141-40.013c0-0.6 0.128-1.312 0.386-2.174l12.492-42.497h16.41v48.236h-23.561c-4.735 0-5.727-1.942-5.727-3.565zm58.794 24.657-6.692-19.897h-1.171c-3.18 0-4.988-0.406-5.858-1.297-0.901-0.891-1.306-2.717-1.306-5.921v-36.351c0-3.007 0.385-4.821 1.201-5.708 0.838-0.924 2.502-1.355 5.224-1.355h1.648v-7.174h-57.895v7.174h1.922c5.6 0 6.773 2.752 6.773 5.064 0 0.747-0.172 1.642-0.524 2.715l-11.831 37.159c-1.196 3.725-3.738 5.694-7.354 5.694h-1.726l-5.305 13.787c-7.578-9.598-12.114-21.711-12.114-34.89 0-31.127 25.231-56.362 56.356-56.362 31.13 0 56.367 25.235 56.367 56.362 0 16.162-6.814 30.721-17.715 41z"/></g></svg>
