<svg enable-background="new 0 0 595.28 841.89" space="preserve" version="1.1" viewBox="0 0 942.91 215.49" xmlns="http://www.w3.org/2000/svg">
 <link href="" rel="stylesheet" type="text/css"/>
 <style type="text/css"/>
 <rect y=".00022888" width="706.64" height="215.21" fill="url(#a)" stroke-width="1.1785"/>
 <defs>
  <linearGradient id="a" x1="599.75" x2="599.75" y1="181.46" y2="1.0187" gradientTransform="matrix(1.1777 0 0 1.1792 5.6582e-6 .00021431)" gradientUnits="userSpaceOnUse">
   <stop stop-color="#0029a6" offset="0"/>
   <stop stop-color="#0069e4" offset="1"/>
  </linearGradient>
 </defs>
 <rect x="723.85" width="219.07" height="215.49" fill="#c40000" stroke-width="4.8205"/>
 <g fill="#fff">
  <polygon transform="matrix(4.8205 0 0 4.8205 -963.33 -1064.1)" points="377.97 233.76 377.97 224.73 361.12 233.14 361.12 242.17"/>
  <polygon transform="matrix(4.8205 0 0 4.8205 -963.33 -1064.1)" points="377.97 235.65 369.56 239.85 369.56 260.39 377.97 260.39"/>
  <g transform="matrix(4.8205 0 0 4.8205 -19.282 -19.282)" font-size="35px" font-weight="bold" letter-spacing="-.33px" word-spacing="0px">
   <path d="m18.187 38.244v-23.66h8.4349c2.31 2.4e-5 4.1824 0.74076 5.6172 2.2222 1.4348 1.4815 2.1522 3.2606 2.1523 5.3374-1.9e-5 2.0768-0.71156 3.8385-2.1346 5.285-1.4231 1.4466-3.3014 2.1699-5.6348 2.1699h-3.2898v8.6453zm5.1451-12.915h3.1146c0.81674 1.3e-5 1.4759-0.29176 1.9776-0.87532 0.50164-0.58353 0.75247-1.3536 0.75249-2.3103-1.3e-5 -0.95666-0.25084-1.7266-0.75249-2.3098-0.50167-0.58317-1.1609-0.87477-1.9776-0.87479h-3.1146z"/>
   <path d="m36.813 28.934v-5.0052c-2e-6 -3.1267 0.88084-5.5417 2.6425-7.245 1.7617-1.7033 3.9958-2.5549 6.7024-2.5549 2.7301 2.4e-5 4.976 0.85167 6.7377 2.5549 1.7617 1.7033 2.6425 4.1183 2.6425 7.245v5.0052c-2.1e-5 3.1495-0.88086 5.5644-2.6425 7.2445-1.7617 1.6801-4.0076 2.5202-6.7377 2.5202-2.7066-1e-6 -4.9408-0.84577-6.7024-2.5373-1.7617-1.6915-2.6425-4.1007-2.6425-7.2274zm9.3449 5.3897c2.8234 4e-6 4.2351-1.9251 4.2351-5.7753v-4.2693c-1.6e-5 -3.8502-1.4117-5.7753-4.2351-5.7753-2.7999 2e-5 -4.1998 1.9251-4.1998 5.7753v4.2693c-7e-6 3.8502 1.3999 5.7753 4.1998 5.7753z"/>
   <path d="m74.409 33.379 0.97946 4.2351c-2.2395 0.72347-4.5142 1.0852-6.8242 1.0852-2.8939-1e-6 -5.2274-0.8342-7.0004-2.5026-1.7731-1.6684-2.6596-4.0777-2.6596-7.2279v-5.1099c-2e-6 -3.1495 0.88653-5.5585 2.6596-7.2269 1.7731-1.6684 4.1065-2.5026 7.0004-2.5026 2.31 2.4e-5 4.5847 0.36176 6.8242 1.0852l-0.97946 4.1998c-1.9604-0.60667-3.8972-0.91001-5.8105-0.91003-3.0327 2e-5 -4.5491 1.9251-4.5491 5.7753v4.234c-7e-6 2.0536 0.39074 3.5355 1.1723 4.4455 0.7815 0.91004 1.9071 1.3651 3.3768 1.3651 2.0536 4e-6 3.9905-0.31509 5.8105-0.94528z"/>
   <path d="m93.972 33.379 0.97946 4.2351c-2.2395 0.72347-4.5142 1.0852-6.8242 1.0852-2.8939-1e-6 -5.2274-0.8342-7.0004-2.5026-1.7731-1.6684-2.6596-4.0777-2.6596-7.2279v-5.1099c-2e-6 -3.1495 0.88653-5.5585 2.6596-7.2269 1.7731-1.6684 4.1065-2.5026 7.0004-2.5026 2.31 2.4e-5 4.5847 0.36176 6.8242 1.0852l-0.97946 4.1998c-1.9604-0.60667-3.8972-0.91001-5.8105-0.91003-3.0327 2e-5 -4.5491 1.9251-4.5491 5.7753v4.234c-7e-6 2.0536 0.39074 3.5355 1.1723 4.4455 0.7815 0.91004 1.9071 1.3651 3.3768 1.3651 2.0536 4e-6 3.9905-0.31509 5.8105-0.94528z"/>
   <path d="m116.54 14.584v23.66h-5.1451v-10.08c-1e-5 -1.2604 0.0466-2.4972 0.13992-3.7106l-8.7148 13.79h-4.1998v-23.66h5.1451v10.255c0 1.0731-0.0352 2.2747-0.10574 3.6049l8.7158-13.86z"/>
   <path d="m136.35 14.584v23.66h-5.1451v-8.6453h-1.96l-3.7801 8.6453h-5.74l4.4102-9.3802c-1.3067-0.58318-2.3217-1.4815-3.0452-2.6949-0.72347-1.2134-1.0852-2.5549-1.0852-4.0247 0-2.0771 0.71759-3.8564 2.1528-5.3379 1.4352-1.4815 3.3078-2.2222 5.6178-2.2222zm-8.3302 10.745h3.1851v-6.3702h-3.1851c-0.81676 2e-5 -1.4934 0.29749-2.03 0.89241-0.53655 0.59496-0.80483 1.3592-0.80482 2.2927-1e-5 0.95633 0.26239 1.7263 0.7872 2.3098 0.52479 0.58356 1.2073 0.87533 2.0476 0.87532z"/>
  </g>
 </g>
</svg>
