<svg width="664.63" height="800" version="1.1" viewBox="0 0 664.63 800" xml:space="preserve" xmlns="http://www.w3.org/2000/svg">
<g transform="matrix(3.6986 0 0 3.6986 -157.19 -149.05)" fill="#fff">
	<path d="m52.4 213.6c3.4 0 5.9 0.9 7.5 2.7s2.5 4.4 2.5 7.8v5.5c0 3.4-0.8 6-2.5 7.8-1.6 1.8-4.1 2.7-7.5 2.7h-3.2v16h-6.7v-42.5zm-3.2 6.1v14.4h3.2c1.1 0 1.9-0.3 2.4-0.8 0.6-0.6 0.8-1.6 0.8-3.2v-6.4c0-1.5-0.3-2.6-0.8-3.2-0.6-0.6-1.4-0.8-2.4-0.8z"/>
	<path d="m65.4 256.1v-42.5h6.6v16h3.2c3.4 0 5.9 0.9 7.5 2.7s2.5 4.4 2.5 7.8v5.5c0 3.4-0.8 6-2.5 7.8-1.6 1.8-4.1 2.7-7.5 2.7zm9.8-6.1c1.1 0 1.9-0.3 2.4-0.8 0.6-0.6 0.8-1.6 0.8-3.2v-6.4c0-1.5-0.3-2.6-0.8-3.2-0.6-0.6-1.4-0.8-2.4-0.8h-3.2v14.4zm13.2-36.4h6.7v42.5h-6.7z"/>
	<path d="m106.6 229.6h3.2c3.4 0 5.9 0.9 7.5 2.7s2.5 4.4 2.5 7.8v5.5c0 3.4-0.8 6-2.5 7.8-1.6 1.8-4.1 2.7-7.5 2.7h-9.8v-42.5h17.6v6.1h-11zm3.1 20.4c1.1 0 1.9-0.3 2.4-0.8 0.6-0.6 0.8-1.6 0.8-3.2v-6.4c0-1.5-0.3-2.6-0.8-3.2-0.6-0.6-1.4-0.8-2.4-0.8h-3.2v14.4z"/>
	<path d="m123 223.8c0-3.4 0.9-6.1 2.6-7.9s4.2-2.8 7.5-2.8 5.8 0.9 7.5 2.8c1.7 1.8 2.6 4.5 2.6 7.9v22.1c0 3.4-0.9 6.1-2.6 7.9s-4.2 2.8-7.5 2.8-5.8-0.9-7.5-2.8c-1.7-1.8-2.6-4.5-2.6-7.9zm6.7 22.5c0 1.5 0.3 2.6 0.9 3.2s1.5 0.9 2.5 0.9c1.1 0 1.9-0.3 2.5-0.9s0.9-1.7 0.9-3.2v-22.9c0-1.5-0.3-2.6-0.9-3.2s-1.5-0.9-2.5-0.9c-1.1 0-1.9 0.3-2.5 0.9s-0.9 1.7-0.9 3.2z"/>
	<path d="m166.3 219.7h-7.8v25.8c0 2.1-0.3 3.9-0.8 5.3s-1.2 2.5-2.1 3.2c-0.9 0.8-1.9 1.3-3.1 1.7-1.2 0.3-2.4 0.5-3.6 0.5h-1.6c-0.5 0-1 0-1.6-0.1v-6.1c0.4 0 0.7 0.1 1.2 0.1h1.2c1.1 0 1.9-0.3 2.7-0.8 0.7-0.5 1.1-1.6 1.1-3.3v-32.4h21.1v42.5h-6.7z"/>
	<path d="m177.2 223.8c0-3.4 0.9-6.1 2.6-7.9s4.2-2.8 7.5-2.8 5.8 0.9 7.5 2.8c1.7 1.8 2.6 4.5 2.6 7.9v22.1c0 3.4-0.9 6.1-2.6 7.9s-4.2 2.8-7.5 2.8-5.8-0.9-7.5-2.8c-1.7-1.8-2.6-4.5-2.6-7.9zm6.6 22.5c0 1.5 0.3 2.6 0.9 3.2s1.5 0.9 2.5 0.9c1.1 0 1.9-0.3 2.5-0.9s0.9-1.7 0.9-3.2v-22.9c0-1.5-0.3-2.6-0.9-3.2s-1.5-0.9-2.5-0.9c-1.1 0-1.9 0.3-2.5 0.9s-0.9 1.7-0.9 3.2z"/>
	<path d="m211.7 213.6c3.5 0 6 0.8 7.6 2.4s2.3 4.1 2.3 7.3v1.5c0 2.2-0.3 4-1 5.4s-1.8 2.5-3.3 3.2c1.8 0.7 3.1 1.8 3.8 3.4s1.1 3.5 1.1 5.7v3.5c0 3.3-0.8 5.8-2.5 7.5s-4.2 2.6-7.6 2.6h-10.5v-42.5zm-3.4 6.1v11.2h2.6c1.3 0 2.2-0.3 2.9-1 0.7-0.6 1.1-1.8 1.1-3.5v-2.4c0-1.5-0.3-2.6-0.8-3.3s-1.4-1-2.6-1zm0 17.3v13h3.8c1.1 0 2-0.3 2.6-0.9s0.9-1.7 0.9-3.3v-3.7c0-2-0.3-3.3-1-4.1-0.7-0.7-1.8-1.1-3.3-1.1h-3z"/>
</g>
<path d="m585.85 188.63c0-1.1096 0.36986-2.2191 0.36986-2.9589l0.36986-4.0684c0-2.589 0.36985-5.178 0.36985-8.1368v-8.1368c0-2.589-0.36985-5.178-0.36985-8.1368 0-1.1096 0-2.2191-0.36986-3.3287-1.1096 0-2.2191-0.36986-2.9588-0.73971-1.4794-0.36986-2.589-1.1096-3.3287-1.4794-0.73972-0.36986-1.4794-0.73971-1.4794-0.73971h1.4794c1.1096 0 2.2191 0 3.3287-0.36986s1.8493-0.73971 2.589-1.1096v-0.36986l-1.1096-7.767c-0.36985-2.589-1.1096-5.178-1.4794-7.767-0.36986-1.4794-0.73972-2.9588-1.1096-4.4383-1.4794 0.36986-3.6986 1.1096-5.5479 1.4794-2.2191 0.36985-4.8081 0.73971-6.6574 0.73971h-2.9588s1.1096-0.36986 2.589-0.73971c1.4794-0.36986 3.6986-1.4794 5.5478-2.2191 1.8493-1.1096 3.6986-2.2191 4.8081-2.9589l0.36985-0.36985c-0.73971-2.2191-1.1096-4.4383-1.8493-6.6574l-2.589-7.3971-1.4794-3.6986-0.73971-2.2191s-0.36986 0-0.36986 0.36985c-2.2191 1.1096-5.178 1.8493-8.1368 2.589-2.9589 0.73971-6.2876 1.1096-8.5067 1.1096h-3.6986s1.4794-0.36986 3.6986-0.73971c2.2191-0.73972 4.8081-1.4794 7.767-2.9589 2.589-1.1096 5.178-2.9588 6.6574-4.0684 0.36986-0.36986 0.73972-0.73971 1.1096-0.73971-0.73971-1.4794-1.1096-2.9589-1.8493-4.4383l-3.6986-7.0273c-1.1096-2.589-2.589-4.8081-4.0684-7.0273-0.36986 0.36986-1.1096 0.73972-1.4794 1.1096-1.1096 0.73972-2.589 1.8493-4.0684 2.589s-3.3287 1.8493-4.8081 2.589c-3.3287 1.4794-7.0273 2.589-9.6163 2.9588-0.73971 0-1.4794 0.36986-1.8493 0.36986h-2.589s0.36986 0 1.1096-0.36986c0.36986 0 0.73971-0.36986 1.4794-0.36986 0.36985 0 1.1096-0.36985 1.8493-0.73971 2.589-1.1096 5.5478-2.589 8.5067-4.8081 1.4794-1.1096 2.9589-2.2191 4.0684-2.9588l2.9588-2.9588c0.36986-0.36986 0.73971-0.73972 1.1096-1.1096 0.36986-0.36986 0.36986-0.73972 0.73971-1.1096 0-0.36986 0.36986-0.36986 0.36986-0.73972-0.36986-0.73971-0.73971-1.4794-1.4794-1.8493l-4.4383-6.6574c-0.73971-1.1096-1.4794-2.2191-2.589-3.3287l-2.589-3.3287c-0.36986 0.36986-1.1096 0.73971-1.8493 1.1096-2.589 1.8493-5.9177 4.0684-9.6163 5.9177s-7.3971 3.3287-10.356 4.4383-4.8081 1.4794-4.8081 1.4794 1.8493-0.73971 4.4383-2.2191c2.589-1.4794 5.9177-3.6986 9.2464-5.9177 2.9588-2.589 5.9177-5.178 7.767-7.0273 0.73971-0.73971 1.4794-1.4794 1.8493-2.2191-2.2191-2.9588-4.8081-5.5478-7.3971-8.1368-1.8493-1.8493-4.0684-3.6986-5.9177-5.9177l-2.2191-2.2191c-0.36986 0.73972-1.1096 1.1096-1.4794 1.8493-2.2191 2.589-5.178 5.9177-8.8766 8.5067-3.3287 2.589-7.3971 5.178-10.356 6.6574-1.4794 0.73972-2.589 1.4794-3.6986 1.8493-0.73971 0.36985-1.4794 0.73971-1.4794 0.73971s0.36986-0.36986 1.1096-0.73971c0.73972-0.36986 1.8493-1.1096 3.3287-2.2191 2.589-1.8493 5.9177-4.8081 8.5067-7.767 2.9588-2.9589 5.178-6.6574 6.6574-9.2464 0.73971-1.4794 1.1096-2.2191 1.4794-3.3287l-6.2876-5.178c-2.2191-1.8493-4.4383-3.3287-6.6574-5.178-1.8493-1.1096-3.3287-2.2191-5.178-3.3287-0.73972 0.73971-1.4794 1.8493-2.589 2.9588-2.2191 2.589-5.5478 5.9177-9.2464 8.8766s-7.767 5.178-11.096 6.6574c-1.4794 0.73972-2.9588 1.1096-4.0684 1.4794s-1.4794 0.36986-1.4794 0.36986 0.36986-0.36986 1.4794-0.73972c0.73971-0.36985 2.2191-1.1096 3.6986-2.2191 2.9589-1.8493 6.2876-4.8081 9.2464-7.767 2.9589-3.3287 5.5478-6.6574 7.0273-9.6163 0.73971-1.4794 1.4794-2.589 1.8493-3.3287-1.4794-0.73971-2.9588-1.8493-4.0684-2.589-4.8081-2.9588-9.9861-5.5478-15.164-7.767-0.73971 0.73972-1.4794 1.8493-2.589 2.9589-1.1096 1.4794-2.9589 2.9588-4.4383 4.4383-1.8493 1.4794-3.6986 2.9588-5.9177 4.4383-2.2191 1.4794-4.0684 2.589-6.2876 3.6986s-4.0684 1.8493-5.9177 2.589-3.3287 1.1096-4.0684 1.4794c-1.1096 0.36985-1.4794 0.36985-1.4794 0.36985s0.36986-0.36985 1.4794-0.73971 2.2191-1.1096 3.6986-2.2191c1.4794-0.73971 3.3287-2.2191 5.178-3.3287 1.8493-1.4794 3.6986-2.9588 5.178-4.4383 1.8493-1.4794 3.3287-3.3287 4.8081-4.8081s2.589-3.3287 3.3287-4.8081c0.73971-0.73972 1.1096-1.4794 1.4794-2.2191-8.1368-3.3287-17.013-5.5478-25.52-7.0273-0.73971 0.73971-1.1096 1.8493-1.8493 2.589-1.1096 1.4794-2.2191 2.589-3.3287 4.0684-1.4794 1.1096-2.589 2.589-3.6986 3.6986-1.4794 1.1096-2.589 2.2191-4.0684 3.3287s-2.9588 1.8493-4.4383 2.589c-1.4794 0.73972-2.9588 1.8493-4.8081 2.2191l-2.589 1.1096-1.1096 0.36986-1.4794 0.36986c-1.8493 0.36985-3.3287 1.1096-5.178 1.4794h-0.73972c-22.561-7.767-45.123-11.835-66.944-12.575-17.013-0.73972-71.382-3.6986-119.09 23.301-36.246 20.712-48.821 36.616-73.601 52.89-1.1096 0.73972-0.73971 2.9589 0.73972 2.9589 28.479 5.178 58.067 30.698 84.697 56.588 15.904 15.164 40.314 37.725 58.807 37.356 27-0.36985 44.753-36.616 44.013-57.328-1.1096-42.903-40.314-94.313-40.314-94.313s9.2464 5.5478 22.561 22.561c17.383 22.191 25.15 52.15 26.63 60.656 0 0 11.835 2.2191 17.753 4.0684 5.5478 1.4794 11.835 4.0684 19.233 6.6574 7.3971 2.9588 15.534 6.6574 24.041 11.466 4.4383 2.2191 8.5067 5.178 12.945 7.767 1.4794 0.73971 3.6986 2.589 6.2876 4.4383 1.8493-0.73971 3.6986-1.1096 5.5478-1.4794 2.589-0.73971 5.5478-1.1096 8.5067-1.4794 2.9588-0.36986 5.5478-0.36986 8.5067-0.36986s5.9177 0.36986 8.5067 0.36986c2.9589 0.36985 5.5478 0.73971 8.5067 1.4794 2.9588 0.73972 5.5478 1.4794 8.5067 2.2191 1.4794 0.36986 2.589 1.1096 4.0684 1.4794l8.1368 3.6986 7.3971 4.4383 3.6986 2.589 2.9589 1.8493-3.3287 6.6574-2.2191 3.6986-2.2191 3.3287-5.178 6.6574-2.589 2.9589-2.9589 2.9588-2.9588 2.589-3.3287 2.589-2.9589 2.2191c2.9589 4.8081 5.5478 9.2464 7.3971 12.575 5.9177 11.466 10.726 23.671 14.424 36.616 3.3287 12.575 5.5478 25.52 6.6574 38.465 0.73971 12.945 0.73971 25.52-0.73971 37.725-1.4794 12.205-3.6986 23.671-6.6574 34.397-3.3287 10.726-6.6574 20.342-11.096 29.219-1.8493 4.4383-4.4383 8.1368-6.2876 12.205-2.2191 3.6986-4.4383 7.0273-6.6574 10.356-4.4383 6.2876-8.8766 11.096-12.945 14.794-1.8493 1.8493-3.6986 3.3287-5.5478 4.8081-1.4794 1.4794-2.9589 2.2191-4.0684 3.3287-2.2191 1.8493-3.6986 2.589-3.6986 2.589s1.1096-1.1096 3.3287-2.589c1.1096-0.73971 2.589-1.8493 4.0684-3.3287s3.3287-2.9588 5.178-4.8081c3.6986-3.6986 8.1368-8.8766 12.575-15.164 2.2191-3.3287 4.4383-6.6574 6.2876-10.356s4.4383-7.767 5.9177-12.205c4.0684-8.5067 7.3971-18.493 10.356-29.219 2.589-10.726 4.8081-22.191 5.9177-34.027 1.1096-11.835 0.73971-24.411 0-36.986-1.1096-12.575-3.6986-25.15-7.3971-37.725-3.6986-12.205-8.8766-24.041-14.794-35.136-2.2191-4.0684-4.8081-8.1368-7.3971-11.835l-2.589 1.4794-6.6574 3.3287 0.36986 0.36985 2.9588 4.8081c1.8493 3.3287 4.0684 6.2876 5.5478 9.2464 1.4794 3.3287 3.3287 6.2876 4.8081 9.6163 1.8493 2.9589 2.589 6.2876 4.0684 9.6163 1.1096 3.3287 2.2191 6.2876 3.3287 9.2464 1.4794 6.2876 3.3287 12.205 4.8081 17.383 0.73972 5.5478 1.8493 10.726 2.589 15.164s0.73971 8.5067 1.1096 11.835c0.36986 6.6574 0.73971 10.356 0.73971 10.356s-0.36985-3.6986-1.1096-9.9861c-0.36985-3.3287-0.36985-7.0273-1.4794-11.466-0.73972-4.4383-1.8493-9.6163-2.9589-14.794-1.4794-5.178-3.3287-11.096-5.178-17.013-1.1096-2.9588-2.589-5.9177-3.6986-8.8766-1.4794-2.9588-2.589-6.2876-4.0684-9.2464s-3.3287-6.2876-4.8081-9.2464c-1.8493-2.9589-4.0684-5.9177-5.9177-8.8766l-2.9588-4.4383c-0.36986-0.36985-0.73971-0.73971-0.73971-1.1096l-1.4794 0.73972-3.6986 1.4794-3.6986 1.1096-4.0684 1.1096-4.0684 0.73972-8.1368 0.73971h-8.1368l-8.1368-0.73971-8.1368-1.4794-7.3971-2.2191-7.3971-2.9588-3.6986-1.8493 11.096 3.3287 7.3971 1.4794 7.3971 0.73971h7.3971l7.3971-0.73971h0.73972c-1.8493 0-3.6986-0.36986-5.5478-0.36986-1.8493-0.36985-4.0684-0.36985-5.9177-0.73971s-3.6986-0.73971-5.178-1.1096c-1.4794-0.36986-2.9589-0.73971-4.0684-1.1096s-2.2191-0.73971-3.3287-1.1096c-1.8493-0.73971-2.589-1.1096-2.589-1.1096s1.1096 0.36986 2.9588 0.73971c0.73971 0.36986 1.8493 0.73972 3.3287 0.73972 1.1096 0.36985 2.589 0.73971 4.4383 0.73971 1.4794 0.36986 3.3287 0.36986 5.178 0.73971 1.8493 0.36986 3.6986 0.36986 5.5478 0.36986h5.9177c2.2191 0 4.0684-0.36986 6.2876-0.73971 2.2191-0.36986 4.0684-0.73972 5.9177-1.1096 1.8493-0.36986 4.0684-1.1096 5.9177-1.4794 1.8493-0.73971 3.6986-1.1096 5.178-1.8493 1.4794-0.73972 2.9588-1.4794 4.4383-2.2191 1.4794-0.73972 2.589-1.4794 3.6986-2.2191 1.1096-0.73972 1.8493-1.1096 2.589-1.8493 2.589-1.4794 9.9861-8.1368 9.9861-8.1368l4.0684-4.0684 2.589-2.9588 2.2191-2.9588 1.4794-2.2191c-1.1096 0.73971-2.2191 1.4794-3.3287 2.2191-1.8493 1.1096-4.0684 2.2191-6.2876 3.6986-2.2191 1.1096-4.8081 2.2191-7.0273 3.6986-2.589 1.1096-5.178 2.2191-7.767 3.3287s-5.5478 1.8493-8.1368 2.9588c-2.9588 0.73972-5.5478 1.8493-8.5067 2.2191-2.9588 0.73972-5.5478 1.1096-8.1368 1.8493-2.589 0.36985-5.178 0.73971-7.767 1.1096-2.589 0.36985-4.8081 0.36985-7.0273 0.36985h-14.424 4.0684c1.1096 0 2.9588 0 4.4383-0.36985 1.8493 0 3.6986-0.36986 5.9177-0.36986 2.2191-0.36986 4.4383-0.73971 7.0273-1.1096 2.589-0.36986 4.8081-1.1096 7.767-1.4794 2.589-0.73971 5.178-1.4794 8.1368-2.2191 2.589-0.73971 5.5478-1.8493 8.1368-2.589 2.589-1.1096 5.178-2.2191 7.767-3.3287s5.178-2.589 7.3971-3.6986c2.2191-1.4794 4.4383-2.589 6.6574-4.0684s4.0684-2.589 5.9177-3.6986 3.3287-2.2191 4.8081-3.3287 2.589-1.8493 3.6986-2.9588l0.73972-0.73972-2.2191-1.4794-7.3971-3.6986-3.6986-1.4794c-1.1096-0.36985-2.589-1.1096-3.6986-1.4794-1.1096-0.36986-2.589-0.73972-3.6986-1.1096-0.73971 0-1.1096-0.36986-1.8493-0.36986l-0.36986 0.36986c-1.4794 1.4794-4.0684 3.3287-7.0273 5.5478-1.4794 1.1096-2.9588 2.2191-4.8081 3.3287s-3.3287 2.589-5.5478 3.6986c-3.6986 2.589-7.767 4.8081-12.205 7.3971-4.0684 2.2191-8.5067 4.4383-12.575 6.2876-2.2191 0.73971-4.0684 1.8493-5.9177 2.589-1.8493 0.73971-3.6986 1.4794-5.5478 2.2191-3.3287 1.1096-6.2876 2.2191-8.1368 2.589-1.8493 0.73972-2.9589 1.1096-2.9589 1.1096s1.1096-0.36985 2.9589-1.1096c1.8493-0.73971 4.8081-1.8493 7.767-3.3287 1.4794-0.73971 3.3287-1.4794 5.178-2.589 1.8493-0.73972 3.6986-1.8493 5.5478-2.9589 4.0684-2.2191 7.767-4.4383 11.835-7.0273 4.0684-2.589 7.767-5.178 11.466-8.1368 1.8493-1.4794 3.3287-2.589 4.8081-4.0684s2.9588-2.589 4.4383-3.6986c1.4794-1.1096 2.589-2.589 3.6986-3.3287-1.1096-0.36986-2.2191-0.36986-3.3287-0.73971-2.589-0.36986-5.178-0.73972-7.767-0.73972h-8.8765c-0.36985 0.36986-0.73971 0.73972-1.1096 1.1096-1.1096 1.1096-2.589 2.589-4.8081 4.0684-1.8493 1.8493-4.4383 3.6986-7.0273 5.5478-2.589 1.8493-5.5478 3.6986-8.5067 5.5478-5.9177 3.6986-11.835 6.6574-16.644 8.8766-2.2191 1.1096-4.4383 1.8493-5.5478 2.2191-1.4794 0.36985-2.2191 0.73971-2.2191 0.73971s0.73971-0.36986 2.2191-1.1096c1.4794-0.73971 3.3287-1.8493 5.5478-2.9588 4.4383-2.589 9.9861-6.2876 15.534-10.356 5.178-4.0684 10.356-8.8766 13.685-12.575 0.36986-0.36985 0.36986-0.36985 0.73972-0.73971-2.2191 0.36986-4.0684 1.1096-6.2876 1.4794-2.589 0.73971-5.178 1.8493-7.3971 2.9588-4.8081 2.2191-9.9861 4.4383-14.794 7.0273-2.589 1.1096-4.8081 2.589-7.3971 3.6986-2.2191 1.4794-4.8081 2.589-7.0273 4.0684-4.8081 2.589-9.2464 5.5478-14.055 8.5067 2.2191-1.8493 4.0684-3.6986 6.2876-5.178 2.2191-1.8493 4.4383-3.3287 6.6574-5.178s4.4383-3.3287 6.6574-4.8081 4.4383-2.9589 7.0273-4.4383l0.36986-0.36986c-11.466-6.2876-27-17.383-57.328-18.863-0.73971 5.5478-4.4383 16.644-6.2876 20.342-20.342 40.314-52.15 35.876-72.862 24.411-22.191-12.205-76.56-65.095-98.752-78.41-1.8493-1.1096-11.466-7.3971-17.753-8.5067-6.2876-1.4794-12.945 0.36985-16.274 6.2876-4.4383 7.3971-2.589 19.233 2.2191 28.109 4.8081 8.8766 2.2191 0.36986 1.1096-5.178-1.1096-5.5478 1.1096-11.466 5.5478-11.835 2.9589 0 5.9177 2.589 8.5067 4.8081 13.685 12.945 27 25.52 40.684 38.465-2.9588 0-9.6163 0.36986-15.164 1.8493-7.3971 2.2191-14.055 8.1368-19.972 13.685-5.178 4.8081-10.726 9.9861-16.644 12.575-1.8493 0.73971-1.4794 3.3287 0.36985 4.0684 38.465 14.055 77.67 21.082 116.14 20.712-0.73971 0.36985 24.411-1.1096 34.767-2.2191 7.0273 0 14.794 0 23.301 0.73971 8.8766 0.73971 18.123 2.2191 28.109 4.4383 4.8081 1.1096 9.9861 2.589 15.164 4.4383-0.36986 2.9589-0.73971 5.9177-1.1096 9.2464-0.36986 2.2191-0.36986 4.4383-0.36986 6.6574s0 4.4383 0.36986 6.6574 0.73971 4.4383 1.1096 6.6574 1.1096 4.4383 1.8493 6.2876c0.73972 2.2191 1.4794 4.0684 2.589 6.2876 0.73971 1.8493 1.8493 4.0684 2.9588 5.9177 1.1096 1.8493 2.2191 3.6986 3.6986 5.5478 0.73971 0.73972 1.4794 1.8493 1.8493 2.589l4.4383 5.178 2.2191 2.2191 5.178 4.4383 1.8493 1.4794 1.4794-1.8493 1.8493-2.2191 3.6986-5.178 2.9588-5.178 1.4794-2.9588 1.1096-2.9589 1.1096-2.9588 0.73971-2.9588 1.4794-5.9177 0.36986-2.9588 0.36985-2.9589 0.36986-2.589c7.3971 7.3971 13.685 15.534 19.233 25.15 6.2876 9.9861 11.466 21.082 15.534 31.808 2.9588 8.8766 5.5478 17.383 7.0273 26.26-0.36985 0.36986-1.1096 0.73971-1.4794 1.1096-0.73972 0.73971-1.4794 1.1096-2.589 1.8493-1.4794 1.4794-2.9588 2.9589-4.4383 4.4383-2.9588 3.3287-5.5478 7.0273-7.3971 11.466-8.1368 17.013-4.4383 27-4.4383 27s11.835-1.1096 21.822-7.0273c-1.1096 10.356-3.3287 19.972-5.9177 28.479-5.178 17.383-12.205 31.068-17.383 40.314-2.9588 5.178-5.178 8.8766-6.6574 11.466-10.356-7.3971-34.397-33.287-49.931-45.123-2.2191-1.8493-4.8081-3.3287-7.0273-4.8081-2.589-1.4794-4.8081-2.9588-7.3971-4.4383-1.1096-0.73972-2.589-1.4794-3.6986-2.2191-1.1096-0.73972-2.589-1.4794-3.6986-1.8493-2.589-1.1096-5.178-2.589-7.767-3.6986s-5.5478-2.2191-8.1368-2.9589c-2.589-0.73971-5.5478-1.8493-8.1368-2.589-2.589-0.73972-5.5478-1.4794-8.5067-2.2191-1.4794-0.36986-2.9589-0.73972-4.0684-0.73972-1.4794-0.36985-2.9588-0.36985-4.0684-0.73971-4.0684-0.73971-21.082-2.9588-31.068-2.9588-4.8081 0-17.753 1.1096-21.082 1.4794h-0.73972l0.36986 0.36986s0.36986 0.36986 0.73971 0.36986c7.3971 5.5478 46.602 38.095 43.643 82.478-1.8493 27-31.068 49.191-48.821 48.451-5.178-0.36985-11.835-2.2191-12.575-2.589-62.506-23.671-114.66-73.232-140.18-140.55-18.863-49.191-21.082-96.533-8.5067-143.5l36.986 21.452c-27.369-47.342-10.356-103.93-10.356-103.93-52.52 42.164-67.314 142.39-33.657 230.42 29.958 78.41 93.574 133.89 168.28 156.08 24.411 7.3971 49.561 11.096 74.711 11.096 29.589 0 57.698-4.8081 84.327-13.685 1.1096-0.36986 2.589-0.73971 3.6986-1.1096 34.027-11.466 65.834-29.958 92.834-55.109 54.739-49.561 89.135-121.31 89.135-200.46 0.73971-28.479-3.6986-55.848-11.835-81.738zm-312.53-96.902c-1.4794 1.4794-5.9177 7.0273-6.2876 2.2191-0.36985-2.2191 0.73972-5.5478 0-7.767-0.36985-1.4794-1.4794-2.9589-2.589-4.0684-0.36986-0.36985-3.3287-3.6986-3.6986-1.8493 0 0.36986 4.4383 5.9177 1.4794 8.8766-3.6986 3.3287-7.0273-4.4383-8.5067-6.2876-7.0273-7.767-3.6986-15.904 1.1096-17.383 11.096-3.6986 21.822 10.726 22.561 15.534 0.73971 3.3287 1.1096 5.9177-4.0684 10.726z" fill="#fff" stroke-width="3.6986"/>
</svg>
