<!DOCTYPE svg  PUBLIC '-//W3C//DTD SVG 1.1//EN'  'http://www.w3.org/Graphics/SVG/1.1/DTD/svg11.dtd'>
<svg enable-background="new 0 0 375.8 135.6" version="1.1" viewBox="0 0 375.8 135.6" xml:space="preserve" xmlns="http://www.w3.org/2000/svg">
<g display="none">
		<rect x="-38.1" y="-38.6" width="450.6" height="210.3" display="inline" fill="#E6E7E8" stroke="#D1D3D4" stroke-miterlimit="10"/>
</g>
		<path d="M1.4,127.3v-1.6h6.8v1.6H5.7v6.5H3.8v-6.5H1.4z"/>
		<path d="m29.4 128.9v1.5h-4v1.8h4.6v1.6h-6.5v-8.1h6.4v1.6h-4.5v1.6h4z"/>
		<path d="m44.8 132.2c1.8 0.2 1.9-1.3 1.9-2.7l0.1-3.9h6v8.1h-1.9v-6.5h-2.3l-0.1 2.8c0 1.6-0.3 4.2-3.7 3.7v-1.5z"/>
		<path d="m74.7 128.9v1.5h-4v1.8h4.6v1.6h-6.5v-8.1h6.4v1.6h-4.5v1.6h4z"/>
		<path d="m94.6 125.7c1.6 0 3 0.6 3 2.6 0 2.5-2.1 2.7-3.1 2.7h-1.8v2.8h-1.9v-8.1h3.8zm-1.9 3.7h1.5c0.9 0 1.4-0.3 1.4-1.1 0-1.1-0.9-1.1-1.4-1.1h-1.5v2.2z"/>
		<path d="m116.8 125.7 3 8.1h-2l-0.5-1.5h-2.9l-0.5 1.5h-2l3-8.1h1.9zm0.1 5.2-1-3.1-1.1 3.1h2.1z"/>
		<path d="m143.1 132.2-0.1 3.4h-1.7v-1.8h-5.5v1.8h-1.7l-0.1-3.4h0.8c0.9-1.4 1.2-2.9 1.2-4.6v-1.9h5.9v6.5h1.2zm-5.2-4.9v1c0 1.8-0.3 3-0.9 4h3.1v-4.9h-2.2z"/>
		<path d="m163.6 125.7h1.9v8.1h-1.9v-5.3l-3.2 5.3h-1.9v-8.1h1.9v5.2l3.2-5.2z"/>
		<path d="m181.2 129.7c0-1.9 0.9-4.3 4.1-4.3 2.8 0 4.1 1.8 4.1 4.3 0 2.4-1.3 4.3-4.1 4.3-3.2 0-4.1-2.4-4.1-4.3zm6.1 0c0-0.7-0.1-2.7-2-2.7-1.3 0-2 0.9-2 2.7 0 2.1 1 2.7 2 2.7 1.9 0 2-2 2-2.7z"/>
		<path d="m209.8 125.7h2.2l-3.2 3.7 3.4 4.4h-2.3l-2.9-4v4h-1.9v-8.1h1.9v3.4l2.8-3.4z"/>
		<path d="m226.9 129.7c0-1.9 0.9-4.3 4.1-4.3 2.8 0 4.1 1.8 4.1 4.3 0 2.4-1.3 4.3-4.1 4.3-3.2 0-4.1-2.4-4.1-4.3zm6.2 0c0-0.7-0.1-2.7-2-2.7-1.3 0-2 0.9-2 2.7 0 2.1 1 2.7 2 2.7 1.9 0 2-2 2-2.7z"/>
		<path d="m252.8 128v5.8h-1.9v-8.1h2.7l1.9 5.6 1.9-5.6h2.7v8.1h-1.9v-5.8l-2 5.8h-1.3l-2.1-5.8z"/>
		<path d="m278.1 133.8h-1.9v-8.1h6.9v8.1h-1.9v-6.5h-3v6.5z"/>
		<path d="m303.1 125.7 3 8.1h-2l-0.5-1.5h-2.9l-0.5 1.5h-2l3-8.1h1.9zm0.1 5.2-1-3.1-1.1 3.1h2.1z"/>
		<path d="m323.2 133.8h-1.9v-8.1h1.9v3h2.9v-3h1.9v8.1h-1.9v-3.5h-2.9v3.5z"/>
		<path d="m349.2 125.7h1.9v8.1h-1.9v-5.3l-3.2 5.3h-1.9v-8.1h1.9v5.2l3.2-5.2z"/>
		<path d="m370.9 131-1.6 2.8h-2.3l1.9-2.9c-0.9-0.1-2.1-0.7-2.1-2.5 0-2.3 2-2.6 2.9-2.6h4.1v8.1h-1.9v-2.9h-1zm-0.8-3.7c-1 0-1.2 0.6-1.2 1.1s0.2 1.1 1.3 1.1h1.7v-2.1h-1.8z"/>
		<linearGradient id="p" x1="4.22" x2="4.22" y1="125.23" y2="133.32" gradientUnits="userSpaceOnUse">
			<stop stop-color="#00BFF3" stop-opacity=".95" offset="0"/>
			<stop stop-color="#3FC7F4" stop-opacity=".95" offset=".0071995"/>
			<stop stop-color="#79D2F7" stop-opacity=".95" offset=".019186"/>
			<stop stop-color="#A0DDF9" stop-opacity=".95" offset=".032673"/>
			<stop stop-color="#BEE7FB" stop-opacity=".95" offset=".047574"/>
			<stop stop-color="#D5EFFC" stop-opacity=".95" offset=".064409"/>
			<stop stop-color="#E7F6FD" stop-opacity=".95" offset=".084071"/>
			<stop stop-color="#F3FAFE" stop-opacity=".95" offset=".1084"/>
			<stop stop-color="#FCFEFF" stop-opacity=".95" offset=".1425"/>
			<stop stop-color="#fff" stop-opacity=".95" offset=".2371"/>
			<stop stop-color="#F8F8F9" stop-opacity=".9633" offset=".6937"/>
			<stop stop-color="#F8F8F8" stop-opacity=".9641" offset=".7194"/>
			<stop stop-color="#F0F1F2" stop-opacity=".9717" offset=".7788"/>
			<stop stop-color="#DEDFE1" stop-opacity=".9834" offset=".8707"/>
			<stop stop-color="#C1C3C5" stop-opacity=".9978" offset=".983"/>
			<stop stop-color="#BCBEC0" offset="1"/>
		</linearGradient>
		<path d="M0.8,126.8v-1.6h6.8v1.6H5.2v6.5H3.3v-6.5H0.8z" fill="url(#p)"/>
		<linearGradient id="h" x1="26.227" x2="26.227" y1="125.23" y2="133.32" gradientUnits="userSpaceOnUse">
			<stop stop-color="#00BFF3" stop-opacity=".95" offset="0"/>
			<stop stop-color="#3FC7F4" stop-opacity=".95" offset=".0071995"/>
			<stop stop-color="#79D2F7" stop-opacity=".95" offset=".019186"/>
			<stop stop-color="#A0DDF9" stop-opacity=".95" offset=".032673"/>
			<stop stop-color="#BEE7FB" stop-opacity=".95" offset=".047574"/>
			<stop stop-color="#D5EFFC" stop-opacity=".95" offset=".064409"/>
			<stop stop-color="#E7F6FD" stop-opacity=".95" offset=".084071"/>
			<stop stop-color="#F3FAFE" stop-opacity=".95" offset=".1084"/>
			<stop stop-color="#FCFEFF" stop-opacity=".95" offset=".1425"/>
			<stop stop-color="#fff" stop-opacity=".95" offset=".2371"/>
			<stop stop-color="#F8F8F9" stop-opacity=".9633" offset=".6937"/>
			<stop stop-color="#F8F8F8" stop-opacity=".9641" offset=".7194"/>
			<stop stop-color="#F0F1F2" stop-opacity=".9717" offset=".7788"/>
			<stop stop-color="#DEDFE1" stop-opacity=".9834" offset=".8707"/>
			<stop stop-color="#C1C3C5" stop-opacity=".9978" offset=".983"/>
			<stop stop-color="#BCBEC0" offset="1"/>
		</linearGradient>
		<path d="M28.8,128.4v1.5h-4v1.8h4.6v1.6H23v-8.1h6.4v1.6h-4.5v1.6H28.8z" fill="url(#h)"/>
		<linearGradient id="g" x1="48.201" x2="48.201" y1="125.23" y2="133.37" gradientUnits="userSpaceOnUse">
			<stop stop-color="#00BFF3" stop-opacity=".95" offset="0"/>
			<stop stop-color="#3FC7F4" stop-opacity=".95" offset=".0071995"/>
			<stop stop-color="#79D2F7" stop-opacity=".95" offset=".019186"/>
			<stop stop-color="#A0DDF9" stop-opacity=".95" offset=".032673"/>
			<stop stop-color="#BEE7FB" stop-opacity=".95" offset=".047574"/>
			<stop stop-color="#D5EFFC" stop-opacity=".95" offset=".064409"/>
			<stop stop-color="#E7F6FD" stop-opacity=".95" offset=".084071"/>
			<stop stop-color="#F3FAFE" stop-opacity=".95" offset=".1084"/>
			<stop stop-color="#FCFEFF" stop-opacity=".95" offset=".1425"/>
			<stop stop-color="#fff" stop-opacity=".95" offset=".2371"/>
			<stop stop-color="#F8F8F9" stop-opacity=".9633" offset=".6937"/>
			<stop stop-color="#F8F8F8" stop-opacity=".9641" offset=".7194"/>
			<stop stop-color="#F0F1F2" stop-opacity=".9717" offset=".7788"/>
			<stop stop-color="#DEDFE1" stop-opacity=".9834" offset=".8707"/>
			<stop stop-color="#C1C3C5" stop-opacity=".9978" offset=".983"/>
			<stop stop-color="#BCBEC0" offset="1"/>
		</linearGradient>
		<path d="m44.2 131.7c1.8 0.2 1.9-1.3 1.9-2.7l0.1-3.9h6v8.1h-1.9v-6.5h-2.3l-0.1 2.8c0 1.6-0.3 4.2-3.7 3.7v-1.5z" fill="url(#g)"/>
		<linearGradient id="f" x1="71.526" x2="71.526" y1="125.23" y2="133.32" gradientUnits="userSpaceOnUse">
			<stop stop-color="#00BFF3" stop-opacity=".95" offset="0"/>
			<stop stop-color="#3FC7F4" stop-opacity=".95" offset=".0071995"/>
			<stop stop-color="#79D2F7" stop-opacity=".95" offset=".019186"/>
			<stop stop-color="#A0DDF9" stop-opacity=".95" offset=".032673"/>
			<stop stop-color="#BEE7FB" stop-opacity=".95" offset=".047574"/>
			<stop stop-color="#D5EFFC" stop-opacity=".95" offset=".064409"/>
			<stop stop-color="#E7F6FD" stop-opacity=".95" offset=".084071"/>
			<stop stop-color="#F3FAFE" stop-opacity=".95" offset=".1084"/>
			<stop stop-color="#FCFEFF" stop-opacity=".95" offset=".1425"/>
			<stop stop-color="#fff" stop-opacity=".95" offset=".2371"/>
			<stop stop-color="#F8F8F9" stop-opacity=".9633" offset=".6937"/>
			<stop stop-color="#F8F8F8" stop-opacity=".9641" offset=".7194"/>
			<stop stop-color="#F0F1F2" stop-opacity=".9717" offset=".7788"/>
			<stop stop-color="#DEDFE1" stop-opacity=".9834" offset=".8707"/>
			<stop stop-color="#C1C3C5" stop-opacity=".9978" offset=".983"/>
			<stop stop-color="#BCBEC0" offset="1"/>
		</linearGradient>
		<path d="m74.1 128.4v1.5h-4v1.8h4.6v1.6h-6.5v-8.1h6.4v1.6h-4.5v1.6h4z" fill="url(#f)"/>
		<linearGradient id="e" x1="93.66" x2="93.66" y1="125.23" y2="133.32" gradientUnits="userSpaceOnUse">
			<stop stop-color="#00BFF3" stop-opacity=".95" offset="0"/>
			<stop stop-color="#3FC7F4" stop-opacity=".95" offset=".0071995"/>
			<stop stop-color="#79D2F7" stop-opacity=".95" offset=".019186"/>
			<stop stop-color="#A0DDF9" stop-opacity=".95" offset=".032673"/>
			<stop stop-color="#BEE7FB" stop-opacity=".95" offset=".047574"/>
			<stop stop-color="#D5EFFC" stop-opacity=".95" offset=".064409"/>
			<stop stop-color="#E7F6FD" stop-opacity=".95" offset=".084071"/>
			<stop stop-color="#F3FAFE" stop-opacity=".95" offset=".1084"/>
			<stop stop-color="#FCFEFF" stop-opacity=".95" offset=".1425"/>
			<stop stop-color="#fff" stop-opacity=".95" offset=".2371"/>
			<stop stop-color="#F8F8F9" stop-opacity=".9633" offset=".6937"/>
			<stop stop-color="#F8F8F8" stop-opacity=".9641" offset=".7194"/>
			<stop stop-color="#F0F1F2" stop-opacity=".9717" offset=".7788"/>
			<stop stop-color="#DEDFE1" stop-opacity=".9834" offset=".8707"/>
			<stop stop-color="#C1C3C5" stop-opacity=".9978" offset=".983"/>
			<stop stop-color="#BCBEC0" offset="1"/>
		</linearGradient>
		<path d="m94 125.2c1.6 0 3 0.6 3 2.6 0 2.5-2.1 2.7-3.1 2.7h-1.8v2.8h-1.9v-8.1h3.8zm-1.8 3.8h1.5c0.9 0 1.4-0.3 1.4-1.1 0-1.1-0.9-1.1-1.4-1.1h-1.5v2.2z" fill="url(#e)"/>
		<linearGradient id="d" x1="115.32" x2="115.32" y1="125.23" y2="133.32" gradientUnits="userSpaceOnUse">
			<stop stop-color="#00BFF3" stop-opacity=".95" offset="0"/>
			<stop stop-color="#3FC7F4" stop-opacity=".95" offset=".0071995"/>
			<stop stop-color="#79D2F7" stop-opacity=".95" offset=".019186"/>
			<stop stop-color="#A0DDF9" stop-opacity=".95" offset=".032673"/>
			<stop stop-color="#BEE7FB" stop-opacity=".95" offset=".047574"/>
			<stop stop-color="#D5EFFC" stop-opacity=".95" offset=".064409"/>
			<stop stop-color="#E7F6FD" stop-opacity=".95" offset=".084071"/>
			<stop stop-color="#F3FAFE" stop-opacity=".95" offset=".1084"/>
			<stop stop-color="#FCFEFF" stop-opacity=".95" offset=".1425"/>
			<stop stop-color="#fff" stop-opacity=".95" offset=".2371"/>
			<stop stop-color="#F8F8F9" stop-opacity=".9633" offset=".6937"/>
			<stop stop-color="#F8F8F8" stop-opacity=".9641" offset=".7194"/>
			<stop stop-color="#F0F1F2" stop-opacity=".9717" offset=".7788"/>
			<stop stop-color="#DEDFE1" stop-opacity=".9834" offset=".8707"/>
			<stop stop-color="#C1C3C5" stop-opacity=".9978" offset=".983"/>
			<stop stop-color="#BCBEC0" offset="1"/>
		</linearGradient>
		<path d="m116.3 125.2 3 8.1h-2l-0.5-1.5h-2.9l-0.5 1.5h-2l3-8.1h1.9zm0.1 5.2-1-3.1-1.1 3.1h2.1z" fill="url(#d)"/>
		<linearGradient id="c" x1="138.04" x2="138.04" y1="125.23" y2="135.14" gradientUnits="userSpaceOnUse">
			<stop stop-color="#00BFF3" stop-opacity=".95" offset="0"/>
			<stop stop-color="#3FC7F4" stop-opacity=".95" offset=".0071995"/>
			<stop stop-color="#79D2F7" stop-opacity=".95" offset=".019186"/>
			<stop stop-color="#A0DDF9" stop-opacity=".95" offset=".032673"/>
			<stop stop-color="#BEE7FB" stop-opacity=".95" offset=".047574"/>
			<stop stop-color="#D5EFFC" stop-opacity=".95" offset=".064409"/>
			<stop stop-color="#E7F6FD" stop-opacity=".95" offset=".084071"/>
			<stop stop-color="#F3FAFE" stop-opacity=".95" offset=".1084"/>
			<stop stop-color="#FCFEFF" stop-opacity=".95" offset=".1425"/>
			<stop stop-color="#fff" stop-opacity=".95" offset=".2371"/>
			<stop stop-color="#F8F8F9" stop-opacity=".9633" offset=".6937"/>
			<stop stop-color="#F8F8F8" stop-opacity=".9641" offset=".7194"/>
			<stop stop-color="#F0F1F2" stop-opacity=".9717" offset=".7788"/>
			<stop stop-color="#DEDFE1" stop-opacity=".9834" offset=".8707"/>
			<stop stop-color="#C1C3C5" stop-opacity=".9978" offset=".983"/>
			<stop stop-color="#BCBEC0" offset="1"/>
		</linearGradient>
		<path d="m142.6 131.7-0.1 3.4h-1.7v-1.8h-5.5v1.8h-1.7l-0.1-3.4h0.8c0.9-1.4 1.2-2.9 1.2-4.6v-1.9h5.9v6.5h1.2zm-5.3-4.9v1c0 1.8-0.3 3-0.9 4h3.1v-4.9h-2.2z" fill="url(#c)"/>
		<linearGradient id="b" x1="161.43" x2="161.43" y1="125.23" y2="133.32" gradientUnits="userSpaceOnUse">
			<stop stop-color="#00BFF3" stop-opacity=".95" offset="0"/>
			<stop stop-color="#3FC7F4" stop-opacity=".95" offset=".0071995"/>
			<stop stop-color="#79D2F7" stop-opacity=".95" offset=".019186"/>
			<stop stop-color="#A0DDF9" stop-opacity=".95" offset=".032673"/>
			<stop stop-color="#BEE7FB" stop-opacity=".95" offset=".047574"/>
			<stop stop-color="#D5EFFC" stop-opacity=".95" offset=".064409"/>
			<stop stop-color="#E7F6FD" stop-opacity=".95" offset=".084071"/>
			<stop stop-color="#F3FAFE" stop-opacity=".95" offset=".1084"/>
			<stop stop-color="#FCFEFF" stop-opacity=".95" offset=".1425"/>
			<stop stop-color="#fff" stop-opacity=".95" offset=".2371"/>
			<stop stop-color="#F8F8F9" stop-opacity=".9633" offset=".6937"/>
			<stop stop-color="#F8F8F8" stop-opacity=".9641" offset=".7194"/>
			<stop stop-color="#F0F1F2" stop-opacity=".9717" offset=".7788"/>
			<stop stop-color="#DEDFE1" stop-opacity=".9834" offset=".8707"/>
			<stop stop-color="#C1C3C5" stop-opacity=".9978" offset=".983"/>
			<stop stop-color="#BCBEC0" offset="1"/>
		</linearGradient>
		<path d="m163 125.2h1.9v8.1h-1.9v-5.3l-3.2 5.3h-1.9v-8.1h1.9v5.2l3.2-5.2z" fill="url(#b)"/>
		<linearGradient id="a" x1="184.77" x2="184.77" y1="125" y2="133.55" gradientUnits="userSpaceOnUse">
			<stop stop-color="#00BFF3" stop-opacity=".95" offset="0"/>
			<stop stop-color="#3FC7F4" stop-opacity=".95" offset=".0071995"/>
			<stop stop-color="#79D2F7" stop-opacity=".95" offset=".019186"/>
			<stop stop-color="#A0DDF9" stop-opacity=".95" offset=".032673"/>
			<stop stop-color="#BEE7FB" stop-opacity=".95" offset=".047574"/>
			<stop stop-color="#D5EFFC" stop-opacity=".95" offset=".064409"/>
			<stop stop-color="#E7F6FD" stop-opacity=".95" offset=".084071"/>
			<stop stop-color="#F3FAFE" stop-opacity=".95" offset=".1084"/>
			<stop stop-color="#FCFEFF" stop-opacity=".95" offset=".1425"/>
			<stop stop-color="#fff" stop-opacity=".95" offset=".2371"/>
			<stop stop-color="#F8F8F9" stop-opacity=".9633" offset=".6937"/>
			<stop stop-color="#F8F8F8" stop-opacity=".9641" offset=".7194"/>
			<stop stop-color="#F0F1F2" stop-opacity=".9717" offset=".7788"/>
			<stop stop-color="#DEDFE1" stop-opacity=".9834" offset=".8707"/>
			<stop stop-color="#C1C3C5" stop-opacity=".9978" offset=".983"/>
			<stop stop-color="#BCBEC0" offset="1"/>
		</linearGradient>
		<path d="m180.7 129.3c0-1.9 0.9-4.3 4.1-4.3 2.8 0 4.1 1.8 4.1 4.3 0 2.4-1.3 4.3-4.1 4.3-3.2-0.1-4.1-2.4-4.1-4.3zm6.1 0c0-0.7-0.1-2.7-2-2.7-1.3 0-2 0.9-2 2.7 0 2.1 1 2.7 2 2.7 1.9 0 2-2 2-2.7z" fill="url(#a)"/>
		<linearGradient id="z" x1="208.14" x2="208.14" y1="125.23" y2="133.32" gradientUnits="userSpaceOnUse">
			<stop stop-color="#00BFF3" stop-opacity=".95" offset="0"/>
			<stop stop-color="#3FC7F4" stop-opacity=".95" offset=".0071995"/>
			<stop stop-color="#79D2F7" stop-opacity=".95" offset=".019186"/>
			<stop stop-color="#A0DDF9" stop-opacity=".95" offset=".032673"/>
			<stop stop-color="#BEE7FB" stop-opacity=".95" offset=".047574"/>
			<stop stop-color="#D5EFFC" stop-opacity=".95" offset=".064409"/>
			<stop stop-color="#E7F6FD" stop-opacity=".95" offset=".084071"/>
			<stop stop-color="#F3FAFE" stop-opacity=".95" offset=".1084"/>
			<stop stop-color="#FCFEFF" stop-opacity=".95" offset=".1425"/>
			<stop stop-color="#fff" stop-opacity=".95" offset=".2371"/>
			<stop stop-color="#F8F8F9" stop-opacity=".9633" offset=".6937"/>
			<stop stop-color="#F8F8F8" stop-opacity=".9641" offset=".7194"/>
			<stop stop-color="#F0F1F2" stop-opacity=".9717" offset=".7788"/>
			<stop stop-color="#DEDFE1" stop-opacity=".9834" offset=".8707"/>
			<stop stop-color="#C1C3C5" stop-opacity=".9978" offset=".983"/>
			<stop stop-color="#BCBEC0" offset="1"/>
		</linearGradient>
		<path d="m209.3 125.2h2.2l-3.2 3.7 3.4 4.4h-2.3l-2.9-4v4h-1.9v-8.1h1.9v3.4l2.8-3.4z" fill="url(#z)"/>
		<linearGradient id="y" x1="230.49" x2="230.49" y1="125" y2="133.55" gradientUnits="userSpaceOnUse">
			<stop stop-color="#00BFF3" stop-opacity=".95" offset="0"/>
			<stop stop-color="#3FC7F4" stop-opacity=".95" offset=".0071995"/>
			<stop stop-color="#79D2F7" stop-opacity=".95" offset=".019186"/>
			<stop stop-color="#A0DDF9" stop-opacity=".95" offset=".032673"/>
			<stop stop-color="#BEE7FB" stop-opacity=".95" offset=".047574"/>
			<stop stop-color="#D5EFFC" stop-opacity=".95" offset=".064409"/>
			<stop stop-color="#E7F6FD" stop-opacity=".95" offset=".084071"/>
			<stop stop-color="#F3FAFE" stop-opacity=".95" offset=".1084"/>
			<stop stop-color="#FCFEFF" stop-opacity=".95" offset=".1425"/>
			<stop stop-color="#fff" stop-opacity=".95" offset=".2371"/>
			<stop stop-color="#F8F8F9" stop-opacity=".9633" offset=".6937"/>
			<stop stop-color="#F8F8F8" stop-opacity=".9641" offset=".7194"/>
			<stop stop-color="#F0F1F2" stop-opacity=".9717" offset=".7788"/>
			<stop stop-color="#DEDFE1" stop-opacity=".9834" offset=".8707"/>
			<stop stop-color="#C1C3C5" stop-opacity=".9978" offset=".983"/>
			<stop stop-color="#BCBEC0" offset="1"/>
		</linearGradient>
		<path d="m226.4 129.3c0-1.9 0.9-4.3 4.1-4.3 2.8 0 4.1 1.8 4.1 4.3 0 2.4-1.3 4.3-4.1 4.3-3.2-0.1-4.1-2.4-4.1-4.3zm6.1 0c0-0.7-0.1-2.7-2-2.7-1.3 0-2 0.9-2 2.7 0 2.1 1 2.7 2 2.7 1.9 0 2-2 2-2.7z" fill="url(#y)"/>
		<linearGradient id="x" x1="254.91" x2="254.91" y1="125.23" y2="133.32" gradientUnits="userSpaceOnUse">
			<stop stop-color="#00BFF3" stop-opacity=".95" offset="0"/>
			<stop stop-color="#3FC7F4" stop-opacity=".95" offset=".0071995"/>
			<stop stop-color="#79D2F7" stop-opacity=".95" offset=".019186"/>
			<stop stop-color="#A0DDF9" stop-opacity=".95" offset=".032673"/>
			<stop stop-color="#BEE7FB" stop-opacity=".95" offset=".047574"/>
			<stop stop-color="#D5EFFC" stop-opacity=".95" offset=".064409"/>
			<stop stop-color="#E7F6FD" stop-opacity=".95" offset=".084071"/>
			<stop stop-color="#F3FAFE" stop-opacity=".95" offset=".1084"/>
			<stop stop-color="#FCFEFF" stop-opacity=".95" offset=".1425"/>
			<stop stop-color="#fff" stop-opacity=".95" offset=".2371"/>
			<stop stop-color="#F8F8F9" stop-opacity=".9633" offset=".6937"/>
			<stop stop-color="#F8F8F8" stop-opacity=".9641" offset=".7194"/>
			<stop stop-color="#F0F1F2" stop-opacity=".9717" offset=".7788"/>
			<stop stop-color="#DEDFE1" stop-opacity=".9834" offset=".8707"/>
			<stop stop-color="#C1C3C5" stop-opacity=".9978" offset=".983"/>
			<stop stop-color="#BCBEC0" offset="1"/>
		</linearGradient>
		<path d="m252.2 127.5v5.8h-1.9v-8.1h2.7l1.9 5.6 1.9-5.6h2.7v8.1h-1.9v-5.8l-2 5.8h-1.3l-2.1-5.8z" fill="url(#x)"/>
		<linearGradient id="w" x1="279.06" x2="279.06" y1="125.23" y2="133.32" gradientUnits="userSpaceOnUse">
			<stop stop-color="#00BFF3" stop-opacity=".95" offset="0"/>
			<stop stop-color="#3FC7F4" stop-opacity=".95" offset=".0071995"/>
			<stop stop-color="#79D2F7" stop-opacity=".95" offset=".019186"/>
			<stop stop-color="#A0DDF9" stop-opacity=".95" offset=".032673"/>
			<stop stop-color="#BEE7FB" stop-opacity=".95" offset=".047574"/>
			<stop stop-color="#D5EFFC" stop-opacity=".95" offset=".064409"/>
			<stop stop-color="#E7F6FD" stop-opacity=".95" offset=".084071"/>
			<stop stop-color="#F3FAFE" stop-opacity=".95" offset=".1084"/>
			<stop stop-color="#FCFEFF" stop-opacity=".95" offset=".1425"/>
			<stop stop-color="#fff" stop-opacity=".95" offset=".2371"/>
			<stop stop-color="#F8F8F9" stop-opacity=".9633" offset=".6937"/>
			<stop stop-color="#F8F8F8" stop-opacity=".9641" offset=".7194"/>
			<stop stop-color="#F0F1F2" stop-opacity=".9717" offset=".7788"/>
			<stop stop-color="#DEDFE1" stop-opacity=".9834" offset=".8707"/>
			<stop stop-color="#C1C3C5" stop-opacity=".9978" offset=".983"/>
			<stop stop-color="#BCBEC0" offset="1"/>
		</linearGradient>
		<path d="m277.5 133.3h-1.9v-8.1h6.9v8.1h-1.9v-6.5h-3v6.5z" fill="url(#w)"/>
		<linearGradient id="v" x1="301.63" x2="301.63" y1="125.23" y2="133.32" gradientUnits="userSpaceOnUse">
			<stop stop-color="#00BFF3" stop-opacity=".95" offset="0"/>
			<stop stop-color="#3FC7F4" stop-opacity=".95" offset=".0071995"/>
			<stop stop-color="#79D2F7" stop-opacity=".95" offset=".019186"/>
			<stop stop-color="#A0DDF9" stop-opacity=".95" offset=".032673"/>
			<stop stop-color="#BEE7FB" stop-opacity=".95" offset=".047574"/>
			<stop stop-color="#D5EFFC" stop-opacity=".95" offset=".064409"/>
			<stop stop-color="#E7F6FD" stop-opacity=".95" offset=".084071"/>
			<stop stop-color="#F3FAFE" stop-opacity=".95" offset=".1084"/>
			<stop stop-color="#FCFEFF" stop-opacity=".95" offset=".1425"/>
			<stop stop-color="#fff" stop-opacity=".95" offset=".2371"/>
			<stop stop-color="#F8F8F9" stop-opacity=".9633" offset=".6937"/>
			<stop stop-color="#F8F8F8" stop-opacity=".9641" offset=".7194"/>
			<stop stop-color="#F0F1F2" stop-opacity=".9717" offset=".7788"/>
			<stop stop-color="#DEDFE1" stop-opacity=".9834" offset=".8707"/>
			<stop stop-color="#C1C3C5" stop-opacity=".9978" offset=".983"/>
			<stop stop-color="#BCBEC0" offset="1"/>
		</linearGradient>
		<path d="m302.6 125.2 3 8.1h-2l-0.5-1.5h-2.9l-0.5 1.5h-2l3-8.1h1.9zm0.1 5.2-1-3.1-1.1 3.1h2.1z" fill="url(#v)"/>
		<linearGradient id="u" x1="324.08" x2="324.08" y1="125.23" y2="133.32" gradientUnits="userSpaceOnUse">
			<stop stop-color="#00BFF3" stop-opacity=".95" offset="0"/>
			<stop stop-color="#3FC7F4" stop-opacity=".95" offset=".0071995"/>
			<stop stop-color="#79D2F7" stop-opacity=".95" offset=".019186"/>
			<stop stop-color="#A0DDF9" stop-opacity=".95" offset=".032673"/>
			<stop stop-color="#BEE7FB" stop-opacity=".95" offset=".047574"/>
			<stop stop-color="#D5EFFC" stop-opacity=".95" offset=".064409"/>
			<stop stop-color="#E7F6FD" stop-opacity=".95" offset=".084071"/>
			<stop stop-color="#F3FAFE" stop-opacity=".95" offset=".1084"/>
			<stop stop-color="#FCFEFF" stop-opacity=".95" offset=".1425"/>
			<stop stop-color="#fff" stop-opacity=".95" offset=".2371"/>
			<stop stop-color="#F8F8F9" stop-opacity=".9633" offset=".6937"/>
			<stop stop-color="#F8F8F8" stop-opacity=".9641" offset=".7194"/>
			<stop stop-color="#F0F1F2" stop-opacity=".9717" offset=".7788"/>
			<stop stop-color="#DEDFE1" stop-opacity=".9834" offset=".8707"/>
			<stop stop-color="#C1C3C5" stop-opacity=".9978" offset=".983"/>
			<stop stop-color="#BCBEC0" offset="1"/>
		</linearGradient>
		<path d="m322.6 133.3h-1.9v-8.1h1.9v3h2.9v-3h1.9v8.1h-1.9v-3.5h-2.9v3.5z" fill="url(#u)"/>
		<linearGradient id="t" x1="347.08" x2="347.08" y1="125.23" y2="133.32" gradientUnits="userSpaceOnUse">
			<stop stop-color="#00BFF3" stop-opacity=".95" offset="0"/>
			<stop stop-color="#3FC7F4" stop-opacity=".95" offset=".0071995"/>
			<stop stop-color="#79D2F7" stop-opacity=".95" offset=".019186"/>
			<stop stop-color="#A0DDF9" stop-opacity=".95" offset=".032673"/>
			<stop stop-color="#BEE7FB" stop-opacity=".95" offset=".047574"/>
			<stop stop-color="#D5EFFC" stop-opacity=".95" offset=".064409"/>
			<stop stop-color="#E7F6FD" stop-opacity=".95" offset=".084071"/>
			<stop stop-color="#F3FAFE" stop-opacity=".95" offset=".1084"/>
			<stop stop-color="#FCFEFF" stop-opacity=".95" offset=".1425"/>
			<stop stop-color="#fff" stop-opacity=".95" offset=".2371"/>
			<stop stop-color="#F8F8F9" stop-opacity=".9633" offset=".6937"/>
			<stop stop-color="#F8F8F8" stop-opacity=".9641" offset=".7194"/>
			<stop stop-color="#F0F1F2" stop-opacity=".9717" offset=".7788"/>
			<stop stop-color="#DEDFE1" stop-opacity=".9834" offset=".8707"/>
			<stop stop-color="#C1C3C5" stop-opacity=".9978" offset=".983"/>
			<stop stop-color="#BCBEC0" offset="1"/>
		</linearGradient>
		<path d="m348.7 125.2h1.9v8.1h-1.9v-5.3l-3.2 5.3h-1.9v-8.1h1.9v5.2l3.2-5.2z" fill="url(#t)"/>
		<linearGradient id="s" x1="369.74" x2="369.74" y1="125.23" y2="133.32" gradientUnits="userSpaceOnUse">
			<stop stop-color="#00BFF3" stop-opacity=".95" offset="0"/>
			<stop stop-color="#3FC7F4" stop-opacity=".95" offset=".0071995"/>
			<stop stop-color="#79D2F7" stop-opacity=".95" offset=".019186"/>
			<stop stop-color="#A0DDF9" stop-opacity=".95" offset=".032673"/>
			<stop stop-color="#BEE7FB" stop-opacity=".95" offset=".047574"/>
			<stop stop-color="#D5EFFC" stop-opacity=".95" offset=".064409"/>
			<stop stop-color="#E7F6FD" stop-opacity=".95" offset=".084071"/>
			<stop stop-color="#F3FAFE" stop-opacity=".95" offset=".1084"/>
			<stop stop-color="#FCFEFF" stop-opacity=".95" offset=".1425"/>
			<stop stop-color="#fff" stop-opacity=".95" offset=".2371"/>
			<stop stop-color="#F8F8F9" stop-opacity=".9633" offset=".6937"/>
			<stop stop-color="#F8F8F8" stop-opacity=".9641" offset=".7194"/>
			<stop stop-color="#F0F1F2" stop-opacity=".9717" offset=".7788"/>
			<stop stop-color="#DEDFE1" stop-opacity=".9834" offset=".8707"/>
			<stop stop-color="#C1C3C5" stop-opacity=".9978" offset=".983"/>
			<stop stop-color="#BCBEC0" offset="1"/>
		</linearGradient>
		<path d="m370.3 130.5-1.6 2.8h-2.3l1.9-2.9c-0.9-0.1-2.1-0.7-2.1-2.5 0-2.3 2-2.6 2.9-2.6h4.1v8.1h-1.9v-2.8h-1zm-0.7-3.7c-1 0-1.2 0.6-1.2 1.1s0.2 1.1 1.3 1.1h1.7v-2.1h-1.8z" fill="url(#s)"/>
		<polygon points="285.7 104.5 284.5 104.5 284.5 73.6 275.3 73.6 275.3 112.1 291.2 112.1 314.3 81.3 315.5 81.3 315.5 112.1 324.8 112.1 324.8 73.6 309.2 73.6"/>
		<path d="m117.7 88h-16.8v-7.1h21.5c-3.2-2.1-6.7-4.5-10.5-7.3h-20.3v38.5h29c6.3 0 11.2-2.2 11.2-12-0.1-8.7-3.7-12.1-14.1-12.1zm0.4 16.5h-17.2v-8.8h17.2c2.9 0 4.4 0.9 4.4 4.4-0.1 3.6-1.8 4.4-4.4 4.4z"/>
		<polygon points="2.5 112.1 11.8 112.1 11.8 81.3 35.6 81.3 35.6 73.6 2.5 73.6"/>
		<path d="m64.2 95.1h-0.2l-12.7-21.5h-11l18.4 28s2.3 3.5-7 3.3l0.1 7.1c7.9 0.5 11.8 0 16-6.8l19.5-31.6h-11l-12.1 21.5z"/>
		<polygon points="261 88.4 237 88.4 237 73.6 227.9 73.6 227.9 112.1 237 112.1 237 96.1 261 96.1 261 112.1 270.1 112.1 270.1 73.6 261 73.6"/>
		<path d="m211.2 73.6h-27.2v38.4h9.2v-11.3h18.7c7 0 12-3.3 12-13.6 0-13.5-8.7-13.5-12.7-13.5zm-1.8 19.5h-16.2v-11.9h15.6c2.8 0 5.8 0.7 5.8 5.9 0 3.3-1.2 6-5.2 6z"/>
		<path d="m137.7 80.3v31.8h39.3v-7.2h-30.2v-8.8h29.3v-6.7h-29.3v-8.5h30.2v-7.2h-23.6c-2.7 1.1-10.5 4.4-15.7 6.6z"/>
		<path d="m345.8 73.6c-8.8 0-12.9 4.1-12.9 13.2 0 9.6 7.3 11.8 8.4 11.8l-11.2 13.4h12.1l9.2-12.1h15.3v12.1h9.2v-38.4h-30.1zm20.9 19h-19.7c-1.8 0-4.8-0.5-4.8-5.9 0-5 2.1-5.9 4.8-5.9h19.7v11.8z"/>
	<g stroke="#D1D3D4" stroke-miterlimit="10">
		<linearGradient id="r" x1="298.07" x2="298.07" y1="72.646" y2="111.06" gradientUnits="userSpaceOnUse">
			<stop stop-color="#fff" stop-opacity=".95" offset=".4106"/>
			<stop stop-color="#F3F3F4" stop-opacity=".9536" offset=".4283"/>
			<stop stop-color="#DBDCDD" stop-opacity=".9655" offset=".4856"/>
			<stop stop-color="#CACBCD" stop-opacity=".9772" offset=".5426"/>
			<stop stop-color="#BFC1C3" stop-opacity=".9888" offset=".5987"/>
			<stop stop-color="#BCBEC0" offset=".6531"/>
		</linearGradient>
		<polygon points="283.7 103.5 282.5 103.5 282.5 72.6 273.3 72.6 273.3 111.1 289.2 111.1 312.3 80.3 313.5 80.3 313.5 111.1 322.8 111.1 322.8 72.6 307.2 72.6" fill="url(#r)"/>
		<linearGradient id="q" x1="109.59" x2="109.59" y1="72.646" y2="111.06" gradientUnits="userSpaceOnUse">
			<stop stop-color="#fff" stop-opacity=".95" offset=".4106"/>
			<stop stop-color="#F3F3F4" stop-opacity=".9536" offset=".4283"/>
			<stop stop-color="#DBDCDD" stop-opacity=".9655" offset=".4856"/>
			<stop stop-color="#CACBCD" stop-opacity=".9772" offset=".5426"/>
			<stop stop-color="#BFC1C3" stop-opacity=".9888" offset=".5987"/>
			<stop stop-color="#BCBEC0" offset=".6531"/>
		</linearGradient>
		<path d="m115.7 87h-16.8v-7.1h21.5c-3.2-2.1-6.7-4.5-10.5-7.3h-20.3v38.5h29c6.3 0 11.2-2.2 11.2-12-0.1-8.7-3.7-12.1-14.1-12.1zm0.4 16.5h-17.2v-8.8h17.2c2.9 0 4.4 0.9 4.4 4.4-0.1 3.6-1.8 4.4-4.4 4.4z" fill="url(#q)"/>
		<linearGradient id="o" x1="17.062" x2="17.062" y1="72.646" y2="111.06" gradientUnits="userSpaceOnUse">
			<stop stop-color="#fff" stop-opacity=".95" offset=".4106"/>
			<stop stop-color="#F3F3F4" stop-opacity=".9536" offset=".4283"/>
			<stop stop-color="#DBDCDD" stop-opacity=".9655" offset=".4856"/>
			<stop stop-color="#CACBCD" stop-opacity=".9772" offset=".5426"/>
			<stop stop-color="#BFC1C3" stop-opacity=".9888" offset=".5987"/>
			<stop stop-color="#BCBEC0" offset=".6531"/>
		</linearGradient>
		<polygon points="0.5 111.1 9.8 111.1 9.8 80.3 33.6 80.3 33.6 72.6 0.5 72.6" fill="url(#o)"/>
		<linearGradient id="n" x1="61.797" x2="61.797" y1="72.646" y2="111.22" gradientUnits="userSpaceOnUse">
			<stop stop-color="#fff" stop-opacity=".95" offset=".4106"/>
			<stop stop-color="#F3F3F4" stop-opacity=".9536" offset=".4283"/>
			<stop stop-color="#DBDCDD" stop-opacity=".9655" offset=".4856"/>
			<stop stop-color="#CACBCD" stop-opacity=".9772" offset=".5426"/>
			<stop stop-color="#BFC1C3" stop-opacity=".9888" offset=".5987"/>
			<stop stop-color="#BCBEC0" offset=".6531"/>
		</linearGradient>
		<path d="m62.2 94.1h-0.2l-12.7-21.5h-11l18.4 28s2.3 3.5-7 3.3l0.1 7.1c7.9 0.5 11.8 0 16-6.8l19.5-31.6h-11l-12.1 21.5z" fill="url(#n)"/>
		<linearGradient id="m" x1="247" x2="247" y1="72.646" y2="111.06" gradientUnits="userSpaceOnUse">
			<stop stop-color="#fff" stop-opacity=".95" offset=".4106"/>
			<stop stop-color="#F3F3F4" stop-opacity=".9536" offset=".4283"/>
			<stop stop-color="#DBDCDD" stop-opacity=".9655" offset=".4856"/>
			<stop stop-color="#CACBCD" stop-opacity=".9772" offset=".5426"/>
			<stop stop-color="#BFC1C3" stop-opacity=".9888" offset=".5987"/>
			<stop stop-color="#BCBEC0" offset=".6531"/>
		</linearGradient>
		<polygon points="259 87.4 235 87.4 235 72.6 225.9 72.6 225.9 111.1 235 111.1 235 95.1 259 95.1 259 111.1 268.1 111.1 268.1 72.6 259 72.6" fill="url(#m)"/>
		<linearGradient id="l" x1="201.94" x2="201.94" y1="72.646" y2="111.06" gradientUnits="userSpaceOnUse">
			<stop stop-color="#fff" stop-opacity=".95" offset=".4106"/>
			<stop stop-color="#F3F3F4" stop-opacity=".9536" offset=".4283"/>
			<stop stop-color="#DBDCDD" stop-opacity=".9655" offset=".4856"/>
			<stop stop-color="#CACBCD" stop-opacity=".9772" offset=".5426"/>
			<stop stop-color="#BFC1C3" stop-opacity=".9888" offset=".5987"/>
			<stop stop-color="#BCBEC0" offset=".6531"/>
		</linearGradient>
		<path d="m209.2 72.6h-27.2v38.4h9.2v-11.2h18.7c7 0 12-3.3 12-13.6 0-13.6-8.7-13.6-12.7-13.6zm-1.8 19.5h-16.2v-11.9h15.6c2.8 0 5.8 0.7 5.8 5.9 0 3.3-1.2 6-5.2 6z" fill="url(#l)"/>
		<linearGradient id="k" x1="155.34" x2="155.34" y1="72.646" y2="111.06" gradientUnits="userSpaceOnUse">
			<stop stop-color="#fff" stop-opacity=".95" offset=".4106"/>
			<stop stop-color="#F3F3F4" stop-opacity=".9536" offset=".4283"/>
			<stop stop-color="#DBDCDD" stop-opacity=".9655" offset=".4856"/>
			<stop stop-color="#CACBCD" stop-opacity=".9772" offset=".5426"/>
			<stop stop-color="#BFC1C3" stop-opacity=".9888" offset=".5987"/>
			<stop stop-color="#BCBEC0" offset=".6531"/>
		</linearGradient>
		<path d="m135.7 79.3v31.8h39.3v-7.2h-30.2v-8.8h29.3v-6.7h-29.3v-8.5h30.2v-7.2h-23.6c-2.7 1.1-10.5 4.4-15.7 6.6z" fill="url(#k)"/>
		<linearGradient id="j" x1="350.98" x2="350.98" y1="72.646" y2="111.06" gradientUnits="userSpaceOnUse">
			<stop stop-color="#fff" stop-opacity=".95" offset=".4106"/>
			<stop stop-color="#F3F3F4" stop-opacity=".9536" offset=".4283"/>
			<stop stop-color="#DBDCDD" stop-opacity=".9655" offset=".4856"/>
			<stop stop-color="#CACBCD" stop-opacity=".9772" offset=".5426"/>
			<stop stop-color="#BFC1C3" stop-opacity=".9888" offset=".5987"/>
			<stop stop-color="#BCBEC0" offset=".6531"/>
		</linearGradient>
		<path d="m343.8 72.6c-8.8 0-12.9 4.1-12.9 13.2 0 9.6 7.3 11.8 8.4 11.8l-11.2 13.4h12.1l9.2-12.1h15.3v12.1h9.2v-38.4h-30.1zm20.9 19h-19.7c-1.8 0-4.8-0.5-4.8-5.9 0-5 2.1-5.9 4.8-5.9h19.7v11.8z" fill="url(#j)"/>
	</g>
		<path d="m39.4 14.1c1.7 2.5 21.1 16.7 40 30.3 17.5 12.6 32.6 25 43.5 32 2.3 1.5 5.9 1.9 9.1 0.8 3.1-1.1 16.3-6.8 17.4-7.3l46.5-20.9c53.2-23.8 104.2-45 104.2-47.7-0.6-0.1-11.8 0.2-13.3 0.2-1.9 0-33.2 9.4-34 9.7-12.4 3.5-12.9 3.6-37.2 10.2-27.5 7.4-47.1 13.4-64.7 18.4-9.6 2.7-17.4 4.9-21.8 4.9-3 0-4.6-0.8-7.3-1.8-7.6-2.8-14.5-5.7-27.2-11.1-16.4-6.9-49.2-20.3-51.9-20.9-0.4 0-3.2 2-3.3 3.2z"/>
		<linearGradient id="i" x1="168.7" x2="168.7" y1="75.988" y2=".4999" gradientUnits="userSpaceOnUse">
			<stop stop-color="#fff" stop-opacity=".95" offset=".482"/>
			<stop stop-color="#F2F3F3" stop-opacity=".9612" offset=".5983"/>
			<stop stop-color="#D9DADB" stop-opacity=".9812" offset=".8051"/>
			<stop stop-color="#BCBEC0" offset="1"/>
		</linearGradient>
		<path d="m127.3 76c-1.9 0-3.7-0.5-5-1.3-6.3-4-14-9.9-22.9-16.6-6.2-4.8-13.2-10.1-20.5-15.4-10.2-7.4-37.1-26.7-39.8-30 0.3-0.8 2.3-2.3 2.9-2.6 3.4 1 35.9 14.2 51.7 20.8l3.4 1.4c10.5 4.4 16.9 7.1 23.8 9.7l1 0.4c2.1 0.8 3.7 1.4 6.5 1.4 4.3 0 11.7-2.1 21-4.7l0.9-0.3c6.4-1.8 13.2-3.8 20.3-5.8 12.6-3.7 26.9-7.8 44.4-12.5 23.6-6.4 24.8-6.7 36.2-9.9l1-0.3c0.1 0 0.8-0.2 1.9-0.6 25.2-7.5 31.3-9.1 32-9.1 0.5 0 1.9 0 3.6-0.1 2.7-0.1 6.4-0.1 8.4-0.1h0.3c-3.7 2.9-28.2 13.6-56.2 25.9-14.4 6.3-30.8 13.5-47.2 20.9l-46.5 20.9c-0.2 0.1-0.8 0.3-1.6 0.7-4 1.7-13.3 5.7-15.8 6.6-1.3 0.4-2.5 0.6-3.8 0.6z" fill="url(#i)"/>
		<path d="m296.5 1c-6.7 3.9-30.1 14.2-54.6 24.9-14.4 6.3-30.8 13.5-47.2 20.9l-46.5 20.8c-0.2 0.1-0.8 0.3-1.6 0.7-3.6 1.6-13.2 5.7-15.8 6.6-1.1 0.4-2.3 0.6-3.5 0.6-1.8 0-3.5-0.4-4.7-1.2-6.3-4-14-9.8-22.9-16.6-6.2-4.7-13.3-10.1-20.6-15.3-10-7.2-35.9-25.9-39.5-29.7 0.4-0.6 1.7-1.6 2.3-2 4 1.3 34.4 13.6 51.5 20.8l3.4 1.4c10.5 4.4 16.9 7.1 23.8 9.7 0.3 0.1 0.7 0.3 1 0.4 2.1 0.8 3.8 1.4 6.6 1.4 4.4 0 11.8-2.1 21.1-4.7l0.9-0.3c6.4-1.8 13.2-3.8 20.3-5.8 12.6-3.7 26.9-7.8 44.4-12.5 23.6-6.4 24.8-6.7 36.2-9.9l1-0.3c0.1 0 0.8-0.2 1.9-0.6 26.2-7.8 31.2-9 31.9-9.1 0.5 0 1.9 0 3.6-0.1 2.3 0 5-0.1 7-0.1m1.5-1c-3.1 0-10.8 0.2-12 0.2-1.9 0-33.2 9.4-34 9.7-12.4 3.5-12.9 3.6-37.2 10.2-27.5 7.4-47.1 13.4-64.7 18.4-9.6 2.7-17.4 4.9-21.8 4.9-3 0-4.6-0.8-7.3-1.8-7.6-2.8-14.5-5.7-27.2-11.1-16.4-7-49.2-20.3-51.9-20.9-0.4 0-3.3 2.1-3.4 3.2 1.7 2.5 21.1 16.7 40 30.3 17.5 12.6 32.6 25 43.5 32 1.4 0.9 3.3 1.4 5.3 1.4 1.3 0 2.6-0.2 3.8-0.6 3.1-1.1 16.3-6.8 17.4-7.3l46.5-20.9c53.2-23.8 104.3-45 104.3-47.7h-1.3z" fill="#D1D3D4"/>
	<g display="none">
		<path d="m38.6 12.8c1.7 2.5 21.1 16.7 40 30.3 17.5 12.6 32.6 25 43.5 32 2.3 1.5 5.9 1.9 9.1 0.8 3.1-1.1 16.3-6.8 17.4-7.3l46.5-20.9c53.1-23.8 104.2-45 104.2-47.7-0.6-0.1-11.8 0.2-13.3 0.2-1.9 0-33.2 9.4-34 9.7-12.4 3.5-12.9 3.6-37.2 10.2-27.5 7.4-47.1 13.4-64.7 18.4-9.6 2.7-17.4 4.9-21.8 4.9-3 0-4.6-0.8-7.3-1.8-7.6-2.8-14.5-5.7-27.2-11.1-16.4-7-49.2-20.3-51.9-20.9-0.4 0-3.2 2-3.3 3.2z" display="inline" fill="#005BAA"/>
	</g>
</svg>
