<svg width="800" height="416.25" version="1.1" viewBox="0 0 800 416.25" xml:space="preserve" xmlns="http://www.w3.org/2000/svg">
<g transform="matrix(2.3454 0 0 2.3454 -1200.8 -694.04)">
	<path d="m530 436c0.2-1.7 0.5-3.4 1-5 0.4-1.6 1-3.1 1.6-4.6 1.3-3.1 3-5.4 5-7 2.1-1.6 4.4-2.5 7.1-2.5 3.6 0 6.7 1.4 9.2 4.2 2.2 2.5 3.9 6.2 5.1 11l2.8-0.1v-18.2l-4-0.3h-0.1c-2.9-0.5-5.7-0.8-8.4-1-2.6-0.2-5.1-0.3-7.4-0.3-4.1 0-7.7 0.8-10.8 2.5-3.1 1.6-5.8 4.1-8 7.4-1.3 2-2.4 4.2-3.3 6.6s-1.5 4.9-1.9 7.6l-0.1 0.4-5.8 5.8 5.1 5.2 0.3 0.3v0.4c0.3 3.1 1 6.1 2.1 8.8s2.5 5.1 4.3 7.4c2.4 2.9 5.1 5.1 8.2 6.6s6.6 2.2 10.6 2.2c2.7 0 5.3-0.5 7.7-1.4s4.8-2.3 7-4.1c2.2-1.9 3.9-3.9 5.1-6.2 1.1-2 1.8-4.1 2.2-6.5l-3.9-1.5c-0.4 1.5-0.9 2.9-1.6 4.2-0.9 1.7-2 3.3-3.4 4.6-1.5 1.5-3.1 2.7-4.9 3.5s-3.7 1.2-5.7 1.2c-2.8 0-5.3-0.8-7.4-2.4s-3.8-3.9-5.2-7c-0.6-1.4-1.2-2.8-1.6-4.3s-0.7-3-0.9-4.6l-0.1-0.6 0.4-0.4 5.1-5.5-5.3-5.4-0.4-0.4z" fill="#4d289e"/>
	<path d="m571.9 419.5c1.3 1.3 2.1 3.1 2.1 5.1v12.1l-0.3 0.4-5.3 5.4 5.3 5.6 0.3 0.3v23.6h4.5l27.9-32.2 2.1-2.4v22.9c-0.1 2.7-0.8 4.7-2 6.1-1.2 1.3-2.7 2-4.8 2.2v3.9c0.6 0.1 1.4 0.1 2.5 0.2 1.9 0.1 4.5 0.1 7.8 0h9.7v-4.1c-1.6-0.4-2.9-1.2-3.9-2.4-1.2-1.4-1.9-3.3-1.9-5.4v-13.8l1.1 0.6 5-5-4.7-4.8-1.4 1.4v-9.5c0-1.7 0.2-3.2 0.6-4.5 0.4-1.4 1.1-2.6 1.9-3.7 1-1.2 2.1-2.1 3.5-2.7 1-0.4 2.1-0.7 3.3-0.8v-5.1h-12.6l-29.9 34.4-2.1 2.4v-23c0-3 0.6-5.3 1.8-6.8 1.1-1.4 2.6-2.2 4.5-2.4v-4.5c-0.6 0-1.3 0-2.3-0.1h-7c-3 0-5.5-0.1-7.5-0.1h-2v4.8c1.4 0.1 2.8 0.8 3.8 1.9z" fill="#4d289e"/>
	<path d="m639.8 448.4v10.3c0 1-0.1 2-0.3 3s-0.5 1.9-0.9 2.8c-0.5 1.2-1.2 2.1-2 2.8-0.6 0.4-1.2 0.7-1.8 0.9v4l46.2 0.2 1.3-18.1-4.4-0.5c-0.4 4-2.1 7.3-4.7 9.6-2.9 2.6-7 4.1-11.7 4.1-2.4 0-4.3-0.7-5.8-2.2-1.4-1.4-2.5-3.5-3.1-6.3-0.2-1-0.4-2.5-0.5-4.6s-0.1-4.6-0.1-7.7v-0.4l0.2-0.3c0.4-0.6 1-1.1 1.7-1.3 0.6-0.3 1.4-0.4 2.2-0.4 1.1 0 2.1 0.1 2.9 0.4 0.9 0.3 1.7 0.7 2.2 1.4 0.4 0.4 0.7 1 1.1 1.7 0.3 0.5 0.5 1.1 0.8 1.8h4.7l-0.7-18-3.6-0.2c-0.2 2.4-0.9 4.3-1.8 5.7-1.2 1.7-3 2.6-5.3 2.6-0.7 0-1.3-0.1-1.9-0.2s-1.2-0.3-1.8-0.6l-0.7-0.3v-2.3c-0.1-1.1-0.1-1.8-0.1-2v-3.4c0-2 0.2-3.8 0.5-5.3 0.4-1.6 0.9-2.9 1.6-3.8 0.9-1.2 2.1-2.1 3.6-2.7s3.3-0.8 5.3-0.8c3.2 0 6.3 1 8.8 2.9 2 1.5 3.6 3.6 4.4 6l2.8-0.9 0.4-13c-18.7 0-34.5 0-46.6 0.1v3.7c1 0 1.9 0.3 2.7 0.7 1.1 0.6 2.1 1.7 2.8 3.1 0.5 1.1 0.9 2.2 1.2 3.4s0.4 2.6 0.4 4v9.1l-0.3 0.4-5 5 5.1 5.1 0.3 0.4v0.1z" fill="#4d289e"/>
	<path d="m700.3 436c0.2-1.7 0.5-3.4 1-5 0.4-1.6 1-3.1 1.6-4.6 1.3-3.1 3-5.4 5-7 2.1-1.6 4.4-2.5 7.1-2.5 3.6 0 6.7 1.4 9.2 4.2 2.2 2.5 3.9 6.2 5.1 11l2.8-0.1v-18.2l-4-0.3h-0.1c-2.9-0.5-5.7-0.8-8.4-1-2.6-0.2-5.1-0.3-7.4-0.3-4.1 0-7.7 0.8-10.8 2.5-3.1 1.6-5.8 4.1-8 7.4-1.3 2-2.4 4.2-3.3 6.6s-1.5 4.9-1.9 7.6l-0.1 0.4-5.8 5.8 5.1 5.2 0.3 0.3v0.4c0.3 3.1 1 6.1 2.1 8.8s2.5 5.1 4.3 7.4c2.4 2.9 5.1 5.1 8.2 6.6s6.6 2.2 10.6 2.2c2.7 0 5.3-0.5 7.7-1.4s4.8-2.3 7-4.1c2.2-1.9 3.9-3.9 5.1-6.2 1.1-2 1.8-4.1 2.2-6.5l-3.9-1.5c-0.4 1.5-0.9 2.9-1.6 4.2-0.9 1.7-2 3.3-3.4 4.6-1.5 1.5-3.1 2.7-4.9 3.5s-3.7 1.2-5.7 1.2c-2.8 0-5.3-0.8-7.4-2.4s-3.8-3.9-5.2-7c-0.6-1.4-1.2-2.8-1.6-4.3s-0.7-3-0.9-4.6l-0.1-0.6 0.4-0.4 5.1-5.5-5.3-5.4-0.4-0.4z" fill="#4d289e"/>
	<path d="m769.3 425.7c0-1.8 0.9-3.5 2.2-4.7s3.2-2 5-2 3.3 0.7 4.5 2.2c1.1 1.3 2 3.2 2.6 5.7 0.2 0.7 0.4 1.9 0.6 3.6 0.2 1.3 0.3 2.8 0.5 4.7l3.9-2.2v-20.5l-50.9 0.1v21.3l3.3 1.8c0.1-1.3 0.3-2.6 0.5-3.8 0.4-1.8 0.9-3.6 1.5-5.2 1-2.4 2.1-4.2 3.5-5.5 1.5-1.3 3.1-2 5-2 1.8 0 3.2 0.6 4.2 1.7 0.9 1.1 1.4 2.6 1.4 4.6v11.2l-0.4 0.4-5.7 5.4 5.7 5.5 0.4 0.4v13c0 1.9-0.7 3.7-1.8 5-0.9 1.1-2.2 1.9-3.7 2.4v3.7h21.6c0.6 0 1.1 0 1.6-0.1 0.1 0 0.3 0 0.4-0.1l-0.1-3.8c-0.7-0.1-1.3-0.3-1.9-0.6-0.9-0.5-1.8-1.2-2.4-2.2-0.5-0.9-0.9-1.8-1.2-2.8s-0.4-2-0.4-3v-11.7l0.3-0.3 5.1-5.4-5.1-5.2-0.3-0.4v-11.2z" fill="#4d289e"/>
	<path d="m805.6 446.9 7.6-18.9 1-2.5 10.7 21.4 0.9 1.7h-1.9l-17.1-0.1h-1.8zm21.7-21.2c-0.3-0.6-0.6-1.2-0.7-1.8-0.2-0.6-0.2-1.1-0.2-1.7 0-0.9 0.2-1.7 0.6-2.4s1-1.3 1.8-1.7c0.6-0.4 1.2-0.7 1.9-0.9 0.4-0.1 0.7-0.2 1.1-0.3v-4.4h-28.1l-0.1 4.8h0.9c1.4 0 2.5 0.3 3.3 0.9 0.9 0.7 1.3 1.6 1.3 2.9 0 0.7-0.5 2.5-1.5 5.1-0.9 2.4-2.2 5.7-4 9.9l-0.1 0.3-0.3 0.2-8.6 5.9 3.8 3.9 0.6 0.6-0.3 0.7-6.4 14.7c-0.9 2-2.1 3.5-3.7 4.6-1.3 0.9-2.9 1.4-4.6 1.6v3.3l23.2 0.2v-3c-2.3-0.1-4-0.6-5.3-1.4-1.6-1.1-2.4-2.6-2.4-4.7v-0.1c0-0.6 0.2-1.5 0.6-2.7 0.4-1.1 0.9-2.6 1.7-4.3l0.3-0.7h27.5l0.4 0.6c1 1.6 1.6 2.7 2 3.4l0.2 0.4c0.5 0.9 0.9 1.8 1.2 2.5 0.3 0.8 0.5 1.5 0.5 2.1 0 1-0.4 1.9-1.1 2.6-0.6 0.6-1.5 1.2-2.7 1.6-0.8 0.3-1.6 0.5-2.5 0.6-0.5 0.1-1 0.1-1.4 0.2v3.2l26.9 0.3v-3.5c-1-0.2-2.1-0.7-3-1.5-1.3-1.1-2.5-2.7-3.6-5l-7.8-15.1-0.4-0.7 0.6-0.6 3.2-3.5-8-4.6-0.3-0.2-0.2-0.3z" fill="#4d289e"/>
	<path d="m634.4 371.9c2.6-5.2 6.5-7.7 11.1-11.8 7.9-7 26.9-14.2 36.4-16.2 1.8-0.4 3.4-0.3 5.2-0.7 12.4-2.4 22.1-2 34.4 1.9 4.1 1.3 14.1 4.9 14.1 9.5 0 3.6 0 4.1-2.1 6.4l-3.9 3.3c-6.1 3.4-7.6-2.9-20.4-6.1-12.1-3-25.4-2.9-37.5 0.3-8.3 2.2-18.7 5.5-25.8 9.2-2.7 1.2-9.5 5.5-11.5 4.2z" clip-rule="evenodd" fill="#f48200" fill-rule="evenodd"/>
	<path d="m666.8 379.3c0-5.1 0-8.2 4.4-12.9 5.5-5.7 7.7-5.1 14.2-5.1 2.7 0 8.2 2.9 9.7 4.4 8.2 8.1 5.7 21.3-3.5 26.2-13 7.1-24.8-5.5-24.8-12.6z" clip-rule="evenodd" fill="#f48200" fill-rule="evenodd"/>
	<path d="m625.4 314.3c2.8-1.1 3.2-1.1 6-1.3l19.5 31.3c1.8 2.6 1.9 1.6 1.3 4.1-7.1-1.9-3.7-0.2-11.2-4.8-4.1-2.5-6.7-5.3-10-8.3-4.1-3.7-8.3-8.8-11.3-13.7-1-1.7-1.2-1.5-0.3-3 1-1.2 4.3-3.6 6-4.3z" clip-rule="evenodd" fill="#f48200" fill-rule="evenodd"/>
	<path d="m659.7 303c2.5 9.5 2.1 12.1 3.5 21.9 0.8 5.8 3.6 11.6 2.3 16.4-3.5-0.4-6.9-5.9-8.6-8.7-2.2-3.9-11.8-22.9-10.5-26.3 0.6-1.6 4.4-2.6 5.5-2.7 2.6-0.5 5.1-0.4 7.8-0.6z" clip-rule="evenodd" fill="#f48200" fill-rule="evenodd"/>
	<path d="m701.3 297.1c4.5-1 9-1 14.1 1.7 0 6.1-4.9 19-7.5 24.7-1.3 2.9-4.7 10.6-8 10.9-1.6-2.6-1.2-3.1-1-8.2 0.1-1.9 0.2-3 0.5-4.9 0.7-3.4 1.1-21.6 1.9-24.2z" clip-rule="evenodd" fill="#f48200" fill-rule="evenodd"/>
	<path d="m672.3 298.9c0-0.2-0.6-1.2 2.1-2.3 3.4-1.4 8.6-0.3 11.8 0.3 0.9 6.6-0.7 15.4-1.4 22.9l-2.4 12.7c-0.5 1.4-1.1 2.3-3.1 2.3-2.1-2.8-3.8-12.6-4.6-17.1l-2.1-14.8c-0.1-0.9-0.2-1.9-0.3-2.8-0.2-1.6-0.7-1 0-1.2z" clip-rule="evenodd" fill="#f48200" fill-rule="evenodd"/>
	<path d="m725.3 307.9c4.3 0.2 10.3 3.6 12.6 7.2l-12.1 15.3c-0.9 0.8-1.8 2-2.8 2.9-2.2 2.2-3.3 4-6.2 3.6-1.8-6.3 5.7-24.1 8.5-29z" clip-rule="evenodd" fill="#f48200" fill-rule="evenodd"/>
</g>
</svg>
