<svg version="1.1" viewBox="0 0 600 158.6" xmlns="http://www.w3.org/2000/svg">
 <g transform="translate(122.84 -120.86)">
  <g transform="matrix(1.5119 0 0 1.5119 -122.84 120.71)" fill="#ffcd44">
   <path class="st0" d="m46.5 61.3c-2.3 2.3-5.7 4-9.1 4-7.1 0-13-6-13-13.3s5.7-13.3 13-13.3c3.7 0 6.8 1.4 9.1 4l17.3-17.7c-7.1-6.8-16.2-11-26.7-11-20.4 0-37.1 17-37.1 38s16.7 38 37.1 38c10.2 0 19.6-4.3 26.4-11.1z"/>
   <path class="st0" d="m161 61.3c-2.3 2.3-5.7 4-9.1 4-7.4 0-13-6-13-13.3s5.7-13.3 13-13.3c3.7 0 6.8 1.4 9.1 4l17.3-17.7c-7.1-6.8-16.4-11.1-26.6-11.1-20.4 0-37.1 17-37.1 38s16.7 38 37.1 38c10.2 0 19.6-4.3 26.4-11.1z"/>
   <path class="st0" d="m77.1 38.7v50.2h25.8v-50.2h13.9v-23.9h-53.6v23.8h13.9z"/>
  </g>
  <path class="st1" d="m354.62 206.59c0 2.5703-0.45358 4.687-1.6631 6.5013-1.3607 1.6631-3.0238 2.5703-4.687 2.5703-3.0238 0-4.687-1.3607-6.0477-3.931s-1.6631-6.8036-1.6631-12.851c0-6.5013 0.45357-11.188 1.6631-13.758 1.3607-2.5703 3.0238-3.931 6.0477-3.931 2.1167 0 3.4774 0.90715 4.687 2.1167 1.3607 1.3607 1.6631 3.0238 1.6631 5.5941zm117.02 24.493c-3.4774-3.931-9.8275-5.5941-19.655-5.5941h-11.944c-6.8036 0-10.735 0-11.944-0.45358-1.3607-0.45357-2.1167-1.6631-2.1167-3.931s0.90715-3.4774 2.1167-4.2334c1.6631-0.45358 5.5941-0.90715 12.398-0.90715 11.944 0 22.225 0.45357 31.297 1.6631v-30.692c-12.398-1.3607-28.273-2.1167-44.602-2.1167-10.281 0-17.538 0.90715-22.225 2.5703-4.687 1.6631-9.0715 5.5941-10.735 10.735v-77.108h-39.461v42.787c-1.6631-3.4774-4.687-6.5013-9.0715-8.618-3.931-2.1167-9.8275-3.0238-15.875-3.0238-13.758 0-19.655 5.1405-21.923 7.7108-1.3607 1.3607-2.5703 3.0238-3.4774 4.687 0.45357-2.1167 0.90715-4.2334 0.90715-6.8036 0-14.212-11.188-25.249-24.796-25.249-13.607 0-24.796 11.642-24.796 25.249 0 14.212 11.188 25.249 24.796 25.249 9.3739 0 17.538-5.5941 21.923-13.305-1.3607 3.931-2.5703 11.944-2.5703 17.538h-39.008v86.935l-28.424-44.904 26.912-42.031h-41.578l-21.016 34.774v-101.15h-39.461v155.12h39.461v-36.891l23.132 36.891h80.737v-60.023c1.3607 10.281 4.2334 18.445 7.2572 21.469 3.4774 3.4774 8.618 7.7108 22.225 7.7108 10.735 0 18.445-3.931 24.796-11.642v9.3739h39.461v-17.085c0.90715 3.0238 2.1167 5.1405 3.4774 6.5013 3.4774 3.4774 10.281 5.1405 20.562 5.1405h11.642c5.5941 0 11.944 0.45358 13.305 0.90716 1.3607 0.45357 2.1167 1.6631 2.1167 4.2334 0 2.1167-0.90716 3.4774-2.5703 4.2334-1.6631 0.45358-6.0477 0.90716-12.851 0.90716-12.398 0-23.586-0.45358-33.867-1.6631v31.75c10.735 1.3607 23.586 1.6631 39.008 1.6631 16.329 0 27.366-1.6631 33.413-5.1405 5.5941-3.4774 8.618-10.735 8.618-21.923-0.45358-10.735-2.2679-17.992-5.5941-21.318z" fill="#e5007e" stroke-width="1.5119"/>
 </g>
</svg>
