<svg width="800" height="261.99" version="1.1" viewBox="0 0 800 261.99" xmlns="http://www.w3.org/2000/svg">
 <g fill="#fede07" stroke-width="5.1105">
  <path d="m785.87 174.51a3.2196 3.2196 0 0 1 3.4292 3.5774 3.2196 3.2196 0 0 1-3.4292 3.5773h-13.16v-7.1138zm0.90967 13.568a3.746 3.746 0 0 1 3.9351 4.2366 3.746 3.746 0 0 1-3.9351 4.2366h-14.069v-8.4732zm-23.35 12.812a2.3099 2.3099 0 0 0 2.3202 2.3151h21.183c6.9094 0 13.062-3.5774 13.062-10.589a8.7952 8.7952 0 0 0-4.7425-8.1768 7.7731 7.7731 0 0 0 3.332-6.5312c0-7.3387-6.5057-10.063-12.812-10.063h-49.602a2.2844 2.2844 0 0 0-2.3202 2.3202v2.3202a2.2793 2.2793 0 0 0 2.3202 2.3202h10.998v26.12a2.3099 2.3099 0 0 0 2.3202 2.2742h4.6403a2.3099 2.3099 0 0 0 2.3202-2.2742v-26.12h6.986z" data-name="Path 246"/>
  <path d="m698.47-2.2665e-6h-45.325a16.497 16.497 0 0 0-16.451 16.451v16.451h61.776z" fill-rule="evenodd" data-name="Path 248"/>
  <path d="m715.11-2.2665e-6h45.325a16.497 16.497 0 0 1 16.451 16.451v16.451h-61.776z" fill-rule="evenodd" data-name="Path 249"/>
 </g>
 <g fill="#fefefe" stroke-width="5.1105">
  <path d="m78.298 46.618h88.923v35.927h-88.923a42.151 42.151 0 0 0-8.2381 0.81257 41.865 41.865 0 0 0-7.8957 2.4019 42.616 42.616 0 0 0-7.3182 3.9351 43.291 43.291 0 0 0-6.4546 5.3149 43.179 43.179 0 0 0-5.3149 6.4546 42.284 42.284 0 0 0-3.93 7.3182 41.763 41.763 0 0 0-2.4019 7.8957 42.172 42.172 0 0 0-0.81257 8.2381 42.177 42.177 0 0 0 0.81257 8.2432 41.768 41.768 0 0 0 2.4019 7.8957 42.417 42.417 0 0 0 3.93 7.3182 43.179 43.179 0 0 0 5.3149 6.4546 42.898 42.898 0 0 0 6.4546 5.3149 42.279 42.279 0 0 0 7.3131 3.9351 42.284 42.284 0 0 0 7.8957 2.4019 42.151 42.151 0 0 0 8.2381 0.80746h89.694v35.927h-89.689a77.92 77.92 0 0 1-15.24-1.4974 77.787 77.787 0 0 1-14.636-4.4564 78.569 78.569 0 0 1-13.538-7.2518 79.259 79.259 0 0 1-11.897-9.7713 78.748 78.748 0 0 1-9.7713-11.897 78.191 78.191 0 0 1-7.2569-13.538 77.731 77.731 0 0 1-4.4615-14.636 77.92 77.92 0 0 1-1.4974-15.24 77.889 77.889 0 0 1 1.4974-15.24 77.797 77.797 0 0 1 4.4615-14.636 78.405 78.405 0 0 1 7.2569-13.538 78.87 78.87 0 0 1 9.7713-11.892 79.08 79.08 0 0 1 11.897-9.7764 78.334 78.334 0 0 1 13.533-7.2518 77.746 77.746 0 0 1 14.642-4.4615 78.094 78.094 0 0 1 15.24-1.4974" fill-rule="evenodd" data-name="Path 244"/>
  <path d="m522.43 81.86h-60.59a42.315 42.315 0 0 0-16.287 3.2401 43.092 43.092 0 0 0-13.895 9.3318 43.122 43.122 0 0 0-9.3318 13.895 42.315 42.315 0 0 0-3.24 16.287 42.315 42.315 0 0 0 3.24 16.287 43.122 43.122 0 0 0 9.3318 13.895 43.127 43.127 0 0 0 13.895 9.3318 42.315 42.315 0 0 0 16.287 3.2401h60.6a42.315 42.315 0 0 0 16.287-3.2401 43.127 43.127 0 0 0 13.895-9.3164 43.036 43.036 0 0 0 9.3164-13.895 42.315 42.315 0 0 0 3.2452-16.287 42.315 42.315 0 0 0-3.2452-16.287 43.036 43.036 0 0 0-9.3164-13.895 43.127 43.127 0 0 0-13.895-9.3318 42.315 42.315 0 0 0-16.287-3.2401m-60.6-35.339h60.6a77.501 77.501 0 0 1 29.804 5.9384 78.528 78.528 0 0 1 25.363 16.987 78.538 78.538 0 0 1 16.987 25.369 77.475 77.475 0 0 1 5.9384 29.799 77.49 77.49 0 0 1-5.9384 29.799 78.543 78.543 0 0 1-16.987 25.369 78.441 78.441 0 0 1-25.363 16.982 77.506 77.506 0 0 1-29.804 5.9435h-60.6a77.48 77.48 0 0 1-29.799-5.9435 78.487 78.487 0 0 1-25.369-16.982 78.543 78.543 0 0 1-16.987-25.369 77.49 77.49 0 0 1-5.9384-29.799 77.475 77.475 0 0 1 5.9384-29.799 78.538 78.538 0 0 1 16.987-25.369 78.538 78.538 0 0 1 25.369-16.987 77.475 77.475 0 0 1 29.799-5.9537z" fill-rule="evenodd" data-name="Path 245"/>
  <path d="m266.85 102.23h47.712a29.401 29.401 0 0 0-7.8906-14.202 29.206 29.206 0 0 0-20.692-8.6214h-68.138v90.553h91.268a29.206 29.206 0 0 0 20.692-8.6214 29.206 29.206 0 0 0 8.6214-20.692v-4.9368h-88.315v-16.737a16.793 16.793 0 0 1 16.737-16.742m-82.483-55.878h101.62a62.185 62.185 0 0 1 44.058 18.306 62.277 62.277 0 0 1 17.969 37.567h6.7305a16.793 16.793 0 0 1 16.737 16.742v21.679a62.185 62.185 0 0 1-18.306 44.058 62.179 62.179 0 0 1-44.058 18.306h-124.74v-156.66z" fill-rule="evenodd" data-name="Path 247"/>
  <path d="m691.86 46.613h29.825a77.68 77.68 0 0 1 29.881 5.9588 78.732 78.732 0 0 1 25.43 17.028 78.763 78.763 0 0 1 17.028 25.43 77.68 77.68 0 0 1 5.9588 29.881c0 1.0936-0.0358 2.3457-0.10221 3.7511-0.0562 1.2418-0.14821 2.499-0.27086 3.7562l-0.35263 3.7h-4.2366v0.0307h-112.66v-16.67a16.722 16.722 0 0 1 16.676-16.676h59.318a43.363 43.363 0 0 0-6.4086-8.1461 43.225 43.225 0 0 0-13.936-9.3522 42.417 42.417 0 0 0-16.354-3.2503h-29.825a42.417 42.417 0 0 0-16.354 3.2503 43.214 43.214 0 0 0-13.931 9.3522 43.25 43.25 0 0 0-9.3573 13.936 42.417 42.417 0 0 0-3.2503 16.328 42.504 42.504 0 0 0 1.4974 11.207 42.33 42.33 0 0 0 1.758 5.1105 43.225 43.225 0 0 0 9.3522 13.936 43.24 43.24 0 0 0 13.936 9.3522 42.417 42.417 0 0 0 16.328 3.2503h35.819v35.431h-35.819a77.68 77.68 0 0 1-29.876-5.9588 78.666 78.666 0 0 1-25.435-17.028 78.671 78.671 0 0 1-17.028-25.43 77.71 77.71 0 0 1-5.1463-18.669 78.16 78.16 0 0 1-0.80235-11.207 77.68 77.68 0 0 1 5.9537-29.881 78.732 78.732 0 0 1 17.028-25.43 78.702 78.702 0 0 1 25.435-17.028 77.68 77.68 0 0 1 29.876-5.9588" data-name="Path 250"/>
  <path d="m778.51 240.22c0-2.4479 0.87901-3.4036 4.2008-3.4036h9.5924c1.758 0 2.3304 0.61326 2.3304 2.1771v1.6047c0 0.51105-0.18909 0.64903-0.64903 0.64903h-15.48zm3.6693-7.6657c-6.8787 0-9.0967 2.2128-9.0967 7.7577v5.504c0 5.5449 2.218 7.722 9.0967 7.722h16.471a0.60815 0.60815 0 0 0 0.68481-0.6848v-3.2094a0.60815 0.60815 0 0 0-0.68481-0.68991h-15.94c-3.3218 0-4.2008-0.99655-4.2008-3.3985v-0.91477h19.297c1.4923 0 2.1771-0.51105 2.1771-2.1771v-3.6131c0-4.625-1.3747-6.2655-6.613-6.2655zm-40.475 0a0.78702 0.78702 0 0 0-0.87901 0.879v16.149c0 3.097 1.1499 3.976 3.4802 3.976h2.0442a4.809 4.809 0 0 0 4.6608-2.2537l11.504-13.415a0.55704 0.55704 0 0 1 0.51105-0.26575h0.3424c0.22998 0 0.30663 0.11243 0.30663 0.37818v14.713a0.73591 0.73591 0 0 0 0.83812 0.84324h3.746c0.57238 0 0.87901-0.26575 0.87901-0.84324v-16.129c0-3.1378-1.109-4.0117-3.4394-4.0117h-2.1413a4.9061 4.9061 0 0 0-4.7017 2.2537l-11.468 13.415a0.51105 0.51105 0 0 1-0.51105 0.26574h-0.3424c-0.18909 0-0.30663-0.11754-0.30663-0.37817v-14.677c0-0.57237-0.26574-0.879-0.84323-0.879zm-33.136 0a0.78702 0.78702 0 0 0-0.87901 0.879v19.261c0 0.57238 0.30663 0.84323 0.87901 0.84323h3.746a0.73591 0.73591 0 0 0 0.83812-0.84323v-7.6044h17.427v7.6044a0.73591 0.73591 0 0 0 0.84324 0.84323h3.746c0.57238 0 0.87901-0.26574 0.87901-0.84323v-19.261a0.78702 0.78702 0 0 0-0.87901-0.879h-3.746c-0.57238 0-0.84324 0.30663-0.84324 0.879v7.1547h-17.427v-7.1547c0-0.57237-0.26574-0.879-0.83812-0.879zm-26.411 7.6657c0-2.4479 0.87901-3.4036 4.2059-3.4036h9.5924c1.758 0 2.3304 0.61326 2.3304 2.1771v1.6047c0 0.51105-0.18908 0.64903-0.64903 0.64903h-15.48zm3.6693-7.6657c-6.8787 0-9.0967 2.2128-9.0967 7.7577v5.504c0 5.5449 2.2128 7.722 9.0967 7.722h16.471a0.60815 0.60815 0 0 0 0.68991-0.6848v-3.2094a0.60815 0.60815 0 0 0-0.68991-0.68991h-15.935c-3.3269 0-4.2059-0.99655-4.2059-3.3985v-0.91477h19.302c1.4872 0 2.1771-0.51105 2.1771-2.1771v-3.6131c0-4.625-1.3747-6.2655-6.613-6.2655zm-35.084 16.471a73.642 73.642 0 0 0 2.1413-10.778c0.0766-0.45994 0.18908-0.84323 0.99143-0.84323h8.2943c0.51105 0 0.72569 0.1942 0.72569 0.61326v11.054zm1.1448-16.471c-2.2537 0-2.867 1.0221-3.097 2.6012a60.595 60.595 0 0 1-2.2128 11.616c-0.76657 1.9522-1.758 2.2537-2.7137 2.2537h-3.286c-0.57238 0-0.87901 0.26575-0.87901 0.84324v9.9757c0 0.57237 0.30663 0.84323 0.87901 0.84323h3.0663a0.73591 0.73591 0 0 0 0.84324-0.84323v-6.3064h24.995v6.3064c0 0.57237 0.30151 0.84323 0.879 0.84323h3.0663a0.73591 0.73591 0 0 0 0.84323-0.84323v-9.9552a0.73591 0.73591 0 0 0-0.84323-0.84323h-5.085v-13.415c0-1.9522-0.91478-3.0663-3.2094-3.0663zm-42.882 0a0.78702 0.78702 0 0 0-0.87901 0.879v16.149c0 3.097 1.1499 3.976 3.4802 3.976h2.0442a4.8141 4.8141 0 0 0 4.6659-2.2537l11.504-13.415a0.55704 0.55704 0 0 1 0.51105-0.26575h0.34751c0.22997 0 0.30663 0.11243 0.30663 0.37818v14.713a0.73591 0.73591 0 0 0 0.83812 0.84324h3.746c0.57237 0 0.879-0.26575 0.879-0.84324v-16.129c0-3.1378-1.109-4.0117-3.4394-4.0117h-2.1413a4.9061 4.9061 0 0 0-4.7017 2.2537l-11.468 13.415a0.51105 0.51105 0 0 1-0.51105 0.26574h-0.30663c-0.1942 0-0.30663-0.11754-0.30663-0.37817v-14.677c0-0.57237-0.26574-0.879-0.84323-0.879zm-27.137 4.8141c0-0.38329 0.15331-0.51105 0.51105-0.51105h13.911c1.5638 0 2.1822 0.57237 2.1822 1.7989v0.83812c0 1.109-0.57238 1.7171-2.1004 1.7171h-14.488zm14.447 7.2211c1.6047 0 2.1771 0.64903 2.1771 1.8756v1.109c0 1.109-0.57238 1.6814-2.1413 1.6814h-13.987c-0.34241 0-0.51105-0.15332-0.51105-0.51105v-4.1702zm-18.802-12.035a1.0221 1.0221 0 0 0-1.109 1.1448v18.73a0.99144 0.99144 0 0 0 1.109 1.109h20.483c4.395 0 5.8822-2.0442 5.8822-5.1974v-1.7171a4.1548 4.1548 0 0 0-2.1771-3.8993 4.2213 4.2213 0 0 0 1.988-3.746v-1.4514c0-3.3269-1.7171-4.9674-6.3421-4.9674zm-26.641 7.6657c0-2.4479 0.879-3.4036 4.2008-3.4036h9.5975c1.758 0 2.3304 0.61326 2.3304 2.1771v1.6047c0 0.51105-0.1942 0.64903-0.65415 0.64903h-15.48zm3.6693-7.6657c-6.8787 0-9.0967 2.2128-9.0967 7.7577v5.504c0 5.5449 2.2128 7.722 9.0967 7.722h16.471a0.60815 0.60815 0 0 0 0.68481-0.6848v-3.2094a0.60815 0.60815 0 0 0-0.68481-0.68991h-15.94c-3.3218 0-4.2008-0.99655-4.2008-3.3985v-0.91477h19.297c1.4923 0 2.1771-0.51105 2.1771-2.1771v-3.6131c0-4.625-1.3747-6.2655-6.613-6.2655zm-29.503 0c-2.2537 0-2.867 1.0221-3.097 2.6012a60.529 60.529 0 0 1-2.218 11.616c-0.76658 1.9522-1.758 2.2537-2.7137 2.2537h-2.7137c-0.51105 0-0.76658 0.26575-0.76658 0.87901v2.7903c0 0.57238 0.26575 0.84323 0.76658 0.84323h3.6284a5.2025 5.2025 0 0 0 5.6216-3.5774 62.317 62.317 0 0 0 2.4888-11.693c0.0767-0.45994 0.18909-0.84323 0.99144-0.84323h8.2943c0.51105 0 0.72569 0.1942 0.72569 0.61326v14.636c0 0.57238 0.26575 0.879 0.80235 0.879h3.8635c0.51105 0 0.76147-0.30662 0.76147-0.91477v-17.008c0-1.9522-0.91478-3.0663-3.2094-3.0663zm-35.544 7.6657c0-2.4479 0.879-3.4036 4.2008-3.4036h9.5975c1.758 0 2.3304 0.61326 2.3304 2.1771v1.6047c0 0.51105-0.1942 0.64903-0.65414 0.64903h-15.48zm3.6693-7.6657c-6.8787 0-9.0967 2.2128-9.0967 7.7577v5.504c0 5.5449 2.2128 7.722 9.0967 7.722h16.471a0.60815 0.60815 0 0 0 0.68481-0.6848v-3.2094a0.60815 0.60815 0 0 0-0.68481-0.68991h-15.94c-3.3218 0-4.2008-0.99655-4.2008-3.3985v-0.91477h19.297c1.4923 0 2.1822-0.51105 2.1822-2.1771v-3.6131c0-4.625-1.3747-6.2655-6.613-6.2655zm-40.245 0a0.60815 0.60815 0 0 0-0.68481 0.6848v3.2094c0 0.51105 0.22998 0.68991 0.68481 0.68991h11.274v15.551c0 0.57238 0.30663 0.84323 0.87901 0.84323h3.746a0.73591 0.73591 0 0 0 0.84323-0.84323v-15.526h11.274c0.45484 0 0.68481-0.1942 0.68481-0.68992v-3.2094a0.60815 0.60815 0 0 0-0.68481-0.68481zm-37.532 7.6657c0-2.4479 0.87901-3.4036 4.2059-3.4036h9.5924c1.758 0 2.3304 0.61326 2.3304 2.1771v1.6047c0 0.51105-0.18909 0.64903-0.64903 0.64903h-15.48zm3.6693-7.6657c-6.8787 0-9.0967 2.2128-9.0967 7.7577v5.504c0 5.5449 2.2128 7.722 9.0967 7.722h16.471a0.60815 0.60815 0 0 0 0.68992-0.6848v-3.2094a0.60815 0.60815 0 0 0-0.68992-0.68991h-15.935c-3.3269 0-4.2059-0.99655-4.2059-3.3985v-0.91477h19.302c1.4923 0 2.1771-0.51105 2.1771-2.1771v-3.6131c0-4.625-1.3747-6.2655-6.613-6.2655zm-36.285 8.6878c0-3.2094 0.879-4.165 4.165-4.165h9.7457c3.3269 0 4.2008 0.95566 4.2008 4.165v3.6336c0 3.2094-0.87901 4.2008-4.2008 4.2008h-9.7457c-3.286 0-4.165-0.99144-4.165-4.2008zm3.6336-8.6878c-6.8787 0-9.0967 2.2128-9.0967 7.7577v5.504c0 5.5449 2.218 7.722 9.0967 7.722h10.819c6.8787 0 9.0967-2.1771 9.0967-7.722v-5.4836c0-5.5398-2.218-7.7577-9.0967-7.7577zm-36.423 0a0.78702 0.78702 0 0 0-0.87901 0.879v19.261c0 0.57238 0.30663 0.84323 0.87901 0.84323h3.746a0.73591 0.73591 0 0 0 0.84323-0.84323v-7.7117h5.5398c2.1004 0 2.9028 0.3424 3.8226 1.6047l4.6608 6.4239a1.1141 1.1141 0 0 0 1.1499 0.51105h4.3184a0.57238 0.57238 0 0 0 0.45994-0.95566l-5.4631-7.3387a8.6878 8.6878 0 0 0-2.6779-2.4479 11.897 11.897 0 0 0 2.3304-2.4428l4.9316-6.7663c0.38329-0.51105 0.1942-1.0221-0.37818-1.0221h-4.2826a1.247 1.247 0 0 0-1.1856 0.64903l-4.2417 6.0355c-0.99143 1.4156-1.6405 1.6047-3.8226 1.6047h-5.1565v-7.4153c0-0.57237-0.26575-0.879-0.84323-0.879zm-20.524 0c-6.8787 0-9.0967 2.2128-9.0967 7.7577v5.504c0 5.5449 2.2128 7.722 9.0967 7.722h15.367a0.60815 0.60815 0 0 0 0.6848-0.6848v-3.2094a0.60815 0.60815 0 0 0-0.6848-0.68991h-14.82c-3.3269 0-4.165-0.99655-4.165-4.2059v-3.3985c0-3.2094 0.83812-4.2008 4.165-4.2008h14.82c0.45994 0 0.6848-0.19419 0.6848-0.68991v-3.2094a0.60815 0.60815 0 0 0-0.6848-0.6848zm-20.902 10.431c2.2946 0 3.097 0.76658 3.097 2.407v1.4514c0 1.6456-0.80235 2.407-3.097 2.407h-13.062c-0.26574 0-0.38328-0.15332-0.38328-0.45995v-5.8106zm-18.081-10.431c-0.51105 0-0.80235 0.30663-0.80235 0.91478v18.955a0.96077 0.96077 0 0 0 1.0681 1.109h18.883c5.3507 0 7.4511-2.0442 7.4511-6.0406v-2.5552c0-3.8993-2.1004-6.0048-7.4511-6.0048h-14.488v-5.4631q0-0.91478-0.80235-0.91478zm-22.016 0c-2.2537 0-2.867 1.0221-3.097 2.6012a60.304 60.304 0 0 1-2.218 11.616c-0.76658 1.9522-1.758 2.2537-2.7137 2.2537h-2.7137c-0.51105 0-0.76657 0.26575-0.76657 0.87901v2.7903c0 0.57238 0.26574 0.84323 0.76657 0.84323h3.6336a5.1974 5.1974 0 0 0 5.6216-3.5774 62.072 62.072 0 0 0 2.4888-11.693c0.0766-0.45994 0.18908-0.84323 0.99143-0.84323h8.2943c0.51105 0 0.72569 0.1942 0.72569 0.61326v14.636c0 0.57238 0.27086 0.879 0.80746 0.879h3.8584c0.51105 0 0.76657-0.30662 0.76657-0.91477v-17.008c0-1.9522-0.91478-3.0663-3.2094-3.0663zm-38.027 8.6878c0-3.2094 0.879-4.165 4.165-4.165h9.7508c3.3218 0 4.2008 0.95566 4.2008 4.165v3.6336c0 3.2094-0.87901 4.2008-4.2008 4.2008h-9.7508c-3.286 0-4.165-0.99144-4.165-4.2008zm3.6336-8.6878c-6.8787 0-9.0967 2.2128-9.0967 7.7577v5.504c0 5.5449 2.2128 7.722 9.0967 7.722h10.819c6.8787 0 9.0967-2.1771 9.0967-7.722v-5.4836c0-5.5398-2.2128-7.7577-9.0967-7.7577zm-38.329 0c-2.5552 0-3.5773 1.0221-3.5773 3.2503v16.89c0 0.57238 0.30663 0.84323 0.879 0.84323h3.746a0.73591 0.73591 0 0 0 0.84323-0.84323v-14.483c0-0.57238 0.22997-0.80235 0.80235-0.80235h15.843c0.57238 0 0.80235 0.22997 0.80235 0.80235v14.483a0.73591 0.73591 0 0 0 0.84323 0.84323h3.746c0.57237 0 0.879-0.26574 0.879-0.84323v-16.89c0-2.218-0.99654-3.2503-3.5774-3.2503zm-31.568 8.6878c0-3.2094 0.87901-4.165 4.1651-4.165h9.7457c3.3269 0 4.2059 0.95566 4.2059 4.165v3.6336c0 3.2094-0.879 4.2008-4.2059 4.2008h-9.7457c-3.286 0-4.1651-0.99144-4.1651-4.2008zm3.6336-8.6878c-6.8787 0-9.0967 2.2128-9.0967 7.7577v5.504c0 5.5449 2.218 7.722 9.0967 7.722h10.819c6.8787 0 9.0967-2.1771 9.0967-7.722v-5.4836c0-5.5398-2.218-7.7577-9.0967-7.7577zm-36.688 8.79c0-3.2094 0.87901-4.2008 4.1651-4.2008h9.6333c3.3269 0 4.2008 0.99144 4.2008 4.2008v3.3985c0 3.2503-0.87901 4.2059-4.2008 4.2059h-13.798zm3.6284-8.79c-6.8787 0-9.0967 2.2128-9.0967 7.7577v20.83c0 0.57237 0.30663 0.83812 0.879 0.83812h3.746a0.73591 0.73591 0 0 0 0.84323-0.83812v-7.6044h14.309c6.8787 0 9.0967-2.1771 9.0967-7.722v-5.4836c0-5.5398-2.218-7.7577-9.0967-7.7577zm-35.237 4.8141c0-0.38329 0.1482-0.51105 0.51105-0.51105h13.911c1.5689 0 2.1771 0.57237 2.1771 1.7989v0.83812c0 1.109-0.57238 1.7171-2.1004 1.7171h-14.483zm14.447 7.2211c1.6047 0 2.1771 0.64903 2.1771 1.8756v1.109c0 1.109-0.57238 1.6814-2.1413 1.6814h-13.987c-0.34752 0-0.51105-0.15332-0.51105-0.51105v-4.1702zm-18.802-12.035a1.0221 1.0221 0 0 0-1.109 1.1448v18.73a0.99144 0.99144 0 0 0 1.109 1.109h20.483c4.395 0 5.8873-2.0442 5.8873-5.1974v-1.7171a4.1548 4.1548 0 0 0-2.1822-3.8993 4.2162 4.2162 0 0 0 1.988-3.746v-1.4514c0-3.3269-1.7222-4.9674-6.3472-4.9674zm-11.754 16.778h-12.878c-1.5638 0-2.1413-0.60815-2.1413-1.988v-0.80235c0-1.2214 0.57238-1.8704 2.1413-1.8704h13.987v3.3627c-0.02044 0.9761-0.32196 1.3185-1.1243 1.3185zm-19.037-16.778a0.60815 0.60815 0 0 0-0.68481 0.6848v3.2094c0 0.51105 0.22997 0.68991 0.68481 0.68991h15.975c3.3269 0 4.1651 0.95567 4.1651 3.3985v0.72569h-15.551c-4.5126 0-5.8873 1.7938-5.8873 5.0032v1.8398c0 3.7818 1.3747 5.4274 5.8873 5.4274h18.193c2.2128 0 2.8261-0.57237 2.8261-3.0663v-10.17c0-5.5398-2.2128-7.7577-9.0967-7.7577zm-32.447 0a0.60815 0.60815 0 0 0-0.68481 0.6848v3.2094c0 0.51105 0.22997 0.68991 0.68481 0.68991h11.274v15.551c0 0.57238 0.30663 0.84323 0.87901 0.84323h3.746a0.73591 0.73591 0 0 0 0.84323-0.84323v-15.526h11.274c0.45994 0 0.68481-0.1942 0.68481-0.68992v-3.2094a0.60815 0.60815 0 0 0-0.68481-0.68481zm-21.209-5.7698c-7.722 0-10.701 2.7494-10.701 10.088v6.5772c0 7.3387 2.9794 10.088 10.701 10.088h17.238a0.73591 0.73591 0 0 0 0.83812-0.84323v-3.746a0.7308 0.7308 0 0 0-0.83812-0.83813h-17.008c-3.9351 0-5.0798-1.1856-5.0798-5.2383v-5.4018c0-4.0526 1.1499-5.2025 5.0798-5.2025h17.008c0.57238 0 0.83812-0.30152 0.83812-0.87901v-3.746a0.7308 0.7308 0 0 0-0.83812-0.84323z" fill-rule="evenodd" data-name="Path 251"/>
 </g>
</svg>
