<svg width="552.63" height="800" version="1.1" viewBox="0 0 146.22 211.67" xmlns="http://www.w3.org/2000/svg">
 <defs>
  <clipPath id="a">
   <path d="m169.77 207.82h22.114v-22.114h-22.114z" clip-rule="evenodd"/>
  </clipPath>
 </defs>
 <g transform="translate(19.374 59.409)">
  <g transform="matrix(10.902 0 0 -10.902 -1917.6 2191.5)">
   <g clip-path="url(#a)">
    <path d="m176.41 206.47h0.2237c0.4334-0.1051 0.8237-0.3328 1.1916-0.578 0.1307-0.0844 0.2515-0.1851 0.3912-0.2548 0.1582-0.0403 0.3303-0.0329 0.4811-0.1037 0.392-0.1704 0.7089-0.5596 0.7183-0.9984 3e-3 -0.0887 0.0105-0.1871-0.0482-0.2619-0.0527-0.0885-0.1701-0.078-0.2571-0.0593-0.2489 0.0703-0.4363 0.2583-0.6279 0.421 0.22-0.2654 0.5006-0.4771 0.8084-0.6305 0.1474-0.0737 0.3286-0.1006 0.4816-0.0292 0.0502 9e-3 0.1083 0.0672 0.1571 0.029 0.1732-0.131 0.2806-0.3252 0.4053-0.4987 0.1463-0.2298 0.2999-0.4801 0.298-0.7628 5e-4 -0.0799-0.0522-0.1516-0.1143-0.1975-0.1238-0.046-0.2613-0.0445-0.3878-9e-3 -0.3719 0.1023-0.7185 0.2806-1.0431 0.4862-0.2194 0.138-0.4431 0.2704-0.6511 0.4254-0.1157 0.0868-0.216 0.1917-0.328 0.2832 0.1945-0.2401 0.4397-0.4291 0.6749-0.6264-4e-3 -8e-3 -0.0119-0.0241-0.0158-0.0321-0.0579-0.0153-0.1191-0.0178-0.1746-0.0402-0.1012-0.0814-0.1721-0.1916-0.2535-0.2914-0.091 0.0113-0.1817 0.0244-0.2721 0.0365-0.0164-0.0601-0.0629-0.1468 7e-3 -0.1904 0.1392-0.0834 0.3223-0.0754 0.4416-0.1982 0.1021-0.1219 0.0837-0.2928 0.0916-0.4405 0.0144-0.311-0.0442-0.6199-0.025-0.9303 0.0457-0.2004 0.2138-0.3549 0.2285-0.565 0.0193-0.1715-0.0476-0.3679-0.2055-0.4544-0.125-0.0609-0.2699-0.0584-0.4059-0.053 0.2681-0.4634 0.5964-0.8881 0.8872-1.3368 0.2384-0.3761 0.4003-0.8028 0.4564-1.2452 0.0777-0.5548-0.015-1.1115-0.0385-1.6668-0.038-1.0687-0.0287-2.1385-0.0635-3.2074-0.0105-0.4198-0.0732-0.8362-0.0828-1.2563-0.0111-0.4539-9e-4 -0.908-5e-3 -1.3621-0.0666 7e-3 -0.1327 0.0159-0.1987 0.0284 4e-3 -0.1248 0.0215-0.2557-0.0264-0.3748-0.0796-0.1644-0.2738-0.2248-0.36-0.3844-0.1023-0.1666-0.1752-0.3563-0.3212-0.4923-0.1612-0.1559-0.3404-0.3011-0.5485-0.3884-0.1516-0.0561-0.322-0.032-0.4736 0.0131-0.0193 0.4986 0.0153 0.9969 0.011 1.4955-1e-3 0.2259 5e-3 0.4516 9e-3 0.6772-0.0757-0.1613-0.1488-0.3245-0.2095-0.4924-0.1023-0.3656-0.1139-0.7483-0.1772-1.1211-0.0348-0.1788-0.1253-0.3458-0.1295-0.5303-0.019-0.277 0.019-0.5706-0.0935-0.8328-0.0797-0.201-0.2563-0.3623-0.4672-0.4142h-0.0249c-0.131 0.1517-0.2518 0.3234-0.2861 0.525-0.0195 0.1502-6e-3 0.3095 0.0655 0.445 0.1041 0.2033 0.1982 0.4133 0.2515 0.6364 0.0771 0.3285 0.1751 0.6537 0.21 0.9901 0.036 0.3447 0.059 0.6909 0.0561 1.0372-9e-3 0.5012 0.0329 1.0035 0.1219 1.4967-0.5712 3e-3 -1.1426-8e-4 -1.7138-2e-3 -0.0456 6e-3 -0.1352-0.0144-0.1534 0.0505-0.0439 0.1667 3e-3 0.3421 0.0791 0.4918 0.1364 4e-3 0.273 5e-3 0.4091 0.0139 0.0139 0.2934 9e-3 0.5873 0.01 0.8807-3e-3 1.7416 4e-3 3.4829-4e-3 5.2246-0.1057-4e-3 -0.2202 0.0127-0.3183-0.0377-0.1182-0.0652-0.2197-0.1662-0.2634-0.296-0.085-0.2472-0.0861-0.5122-0.1227-0.7687-0.0371-0.2495-0.032-0.5029-0.0601-0.7535-8e-3 -0.072-0.0907-0.1009-0.1516-0.1108-0.1222-0.0298-0.2753-0.0116-0.3592 0.0913v2.3898c0.313-2e-4 0.6259-5e-4 0.9388 1e-3 -0.0853 0.068-0.2012 0.1187-0.2347 0.2296-0.0124 0.1598-0.0229 0.3203-0.0243 0.4804 3e-3 0.2279 0.2111 0.3714 0.2727 0.5777 0.0198 0.1389 0.026 0.279 0.0385 0.4184 0.0153 0.2211-0.0153 0.4431 4e-3 0.6642 0.0139 0.2344 0.0686 0.4643 0.1409 0.6868 0.0352 0.0978 0.0805 0.1945 0.1469 0.275 0.1241 0.1463 0.3424 0.1443 0.5161 0.1193 0.0961-0.0263 0.1205-0.1397 0.1565-0.2185 0.1182-0.3742 0.1089-0.7742 0.0697-1.1602-7e-3 -0.0834-0.0184-0.2348 0.0978-0.2424 0.3637 0.0193 0.7509 0.0669 1.0891-0.1009 0.178-0.0726 0.3101-0.2163 0.4164-0.3716-0.0944 0.3132-0.3997 0.4997-0.6967 0.5907-0.2092 0.0751-0.4346 0.0714-0.6529 0.0884-0.0498 0.0125-0.1425-5e-4 -0.1542 0.0686-6e-3 0.2432 0.0236 0.487 6e-3 0.7305-6e-3 0.1996-0.0873 0.3952-0.0434 0.5959 0.0151 0.0524 0.0618 0.0867 0.1083 0.11 0.144 0.0705 0.2977 0.1179 0.4462 0.1768 0.1928 0.0822 0.3617 0.2265 0.4569 0.415 0.0811 0.1412 0.0976 0.3195 0.2203 0.4357 0.138-0.195 0.1451-0.4484 0.1698-0.6769 3e-3 -0.193 0.015-0.4156-0.1208-0.572-0.0637-0.0712-0.1664-0.0675-0.2531-0.0822 0.1208-0.0148 0.265-0.0122 0.3305 0.1133 0.1508 0.1937 0.1162 0.4499 0.1551 0.6761 0.0156 0.1582 0.1162 0.303 0.0822 0.4657-0.0732 0.1684-0.2001 0.3065-0.3195 0.4437-0.3257 0.3364-0.6505 0.6777-0.9144 1.0658-0.1361 0.1964-0.2611 0.4048-0.3348 0.6333-0.0241 0.0878-0.0508 0.1808-0.0247 0.2715 9e-3 0.1108 0.1211 0.1573 0.2061 0.2021zm-0.7968-6.7249c-0.0371-0.0706-0.0995-0.1216-0.1653-0.1647-0.0864-0.057-0.1434-0.146-0.2131-0.2205 0.3761-2e-3 0.7523-2e-3 1.1284 8e-4 -0.1159 0.1789-0.2437 0.3546-0.3183 0.5562-0.0601 0.1531-0.0918 0.3158-0.1548 0.4677-0.1491-0.1857-0.1692-0.4328-0.2769-0.6395zm0.5757-0.9116c-6e-4 -1.9514-3e-4 -3.9025-6e-4 -5.8536 0.0162-0.0739-0.0212-0.189 0.0519-0.242 0.0958-0.0179 0.1948-3e-3 0.2917-0.0117 0.0465-4e-3 0.1236 8e-3 0.1386-0.0589 0.0629-0.0842 0.0955-0.1851 0.1344-0.2815 0.0431 0.2367 0.1253 0.4632 0.2103 0.6874 0.0465 0.1939 0.049 0.3954 0.057 0.5939-0.01 0.3483-4e-3 0.6978-0.0377 1.0451-0.025 0.3197-0.0746 0.6367-0.1075 0.9556-0.0345 0.3109-1e-3 0.6273-0.062 0.9357-0.0683 0.3727-0.1457 0.7523-0.0967 1.133 3e-3 0.1936 0.1171 0.3756 0.07 0.5712-0.034 0.2089-0.1488 0.4215-0.3532 0.5059-0.0913 0.0499-0.1978 0.0219-0.2962 0.0199zm2.4565 3.4668c0.1894-0.1129 0.2585-0.3442 0.2534-0.5531-0.0144-0.2585-0.0482-0.5156-0.0655-0.7741-0.0124-0.0729 0.0196-0.1398 0.0423-0.2064 0.0896-0.2415 0.1349-0.4966 0.1689-0.7512 0.0108-0.0946 0.0476-0.1831 0.0905-0.2673 0.1502-0.2885 0.2454-0.6006 0.36-0.9042 0.157-0.4215 0.2939-0.8507 0.4606-1.2691 0.0845-0.22 0.1579-0.4518 0.1411-0.6905-0.0187-0.1318-0.0351-0.2653-0.0751-0.3929-0.0419-0.1494-0.2154-0.2316-0.3603-0.1865 4e-3 0.1916-4e-3 0.3858 0.0383 0.5737 0.0114 0.0658 0.0332 0.1349 0.0131 0.2016-0.0865 0.3058-0.129 0.625-0.2518 0.9198-0.1272 0.328-0.3191 0.625-0.5264 0.9074-0.1094 0.1488-0.2233 0.2973-0.2962 0.4683-0.0399 0.1088-0.0555 0.2497 0.034 0.3381 0.0919 0.1245 0.2356 0.2305 0.2381 0.3997 0.0516 0.3325-0.2256 0.589-0.2256 0.9133-0.0167 0.3274 0.0428 0.6565-4e-3 0.9831-0.01 0.0969-0.0402 0.1919-0.0357 0.2903zm7.4648-2.9912c0.1831 0.2027 0.4804 0.2279 0.7356 0.1962 0.1136-0.0213 0.2327-0.0522 0.32-0.1332 0.2217-0.1729 0.3067-0.4581 0.3603-0.7223v-0.453c-0.0374-0.18-0.0834-0.3838-0.2506-0.4895-0.131-0.114-0.3439-0.087-0.4547 0.0416-0.1763 0.1837-0.1984 0.4578-0.1729 0.6982 0.01 0.1134 0.0706 0.2129 0.0924 0.3229 0.0136 0.0624-0.0456 0.1069-0.0893 0.1392-0.1131 0.0161-0.1859-0.0839-0.2117-0.1789-0.1914-0.6233-0.0457-1.2872-0.1695-1.9202-0.0531-0.2832-0.2039-0.5547-0.4542-0.7086 0.1565-0.078 0.3178-0.1503 0.457-0.258 0.2112-0.1831 0.3387-0.4416 0.4178-0.7055 0.1888-0.6095 0.1874-1.2538 0.205-1.8854 6e-3 -0.2032 0.0972-0.4254 0.2942-0.5122 0.0916-0.0436 0.2208-0.0334 0.2733-0.1349 0.0677-0.0958 0.0569-0.2288 1e-3 -0.3274-0.0516-0.1032-0.1551-0.1681-0.2588-0.2098-0.1837-0.0689-0.3884-0.038-0.5703 0.0199-0.2685 0.1057-0.459 0.3591-0.5378 0.6307-0.1258 0.4076-0.1236 0.8382-0.1607 1.2594-0.0312 0.3498-0.0334 0.703-0.089 1.0505-0.0374 0.241-0.1511 0.485-0.364 0.6185-0.1239 0.093-0.2897 0.0871-0.4362 0.1032-1e-3 -1.0063-9e-4 -2.0126 0-3.0189 0.1567-5e-4 0.3138-3e-4 0.4711-1e-3 0.0524-0.1757 0.0445-0.362 0.01-0.5406-0.6032-0.01-1.2064-3e-3 -1.8096-4e-3 -0.0561 0.1491-0.0712 0.3152-0.0303 0.47 8e-3 0.0283 0.0266 0.0567 0.0561 0.0657 0.1528 0.0165 0.3064 0.0117 0.4598 0.0134 8e-4 2.0262 8e-4 4.0524 2e-4 6.0783-0.1644-3e-4 -0.3288-1e-3 -0.4932-2e-3 -0.0606 0.1542-0.1015 0.332-0.0434 0.4921 0.036 0.0885 0.1528 0.0465 0.2246 0.059 0.5507-6e-3 1.1012 2e-3 1.652-7e-3 0.0646-0.1777 0.0589-0.3722-0.0196-0.544-0.1593 6e-4 -0.3186 2e-3 -0.4773 2e-3 -6e-4 -0.8348-2e-3 -1.6696 5e-4 -2.5047 0.1378 0.0142 0.2923 0.023 0.3977 0.125 0.165 0.1738 0.2169 0.4207 0.2356 0.652 0.0292 0.462 0.0507 0.9244 0.0969 1.385 0.0321 0.301 0.1245 0.6111 0.3323 0.839zm-5.9956-0.0722c0.0159 0.0609 0.0879 0.0824 0.144 0.0731 0.4158 8e-3 0.832-2e-3 1.2478 2e-3 0.3739-1e-3 0.7645 0.0145 1.1171-0.1318 0.3765-0.1457 0.6767-0.451 0.8626-0.805 0.1704-0.3047 0.2719-0.6421 0.3439-0.9819 0.153-0.7455 0.1559-1.5109 0.1341-2.2686-0.0253-0.4859-0.0783-0.9734-0.2143-1.442-0.0857-0.299-0.2112-0.593-0.4136-0.8325-0.1809-0.2217-0.4054-0.4068-0.6554-0.5457-0.2333-0.1165-0.4915-0.1814-0.7529-0.1808-0.5723-3e-3 -1.1446-3e-3 -1.7166-1e-3 -0.0987 3e-4 -0.1202 0.1253-0.1296 0.1996-0.0275 0.1193 5e-3 0.2426 0.0632 0.3475 0.1678-2e-3 0.3357-1e-3 0.5038-1e-3 0 2.0273 2e-4 4.0547-3e-4 6.082-0.163-3e-4 -0.326-6e-4 -0.489-2e-3 -0.0669 0.1522-0.0933 0.326-0.0448 0.4879zm1.3765-0.4865c-6e-4 -2.0273-3e-4 -4.0546 0-6.082 0.2645 9e-3 0.5417-0.0346 0.7954 0.0615 0.2968 0.1219 0.4612 0.4269 0.5355 0.7237 0.1428 0.5545 0.178 1.1296 0.2069 1.6994 0.0235 0.8847 5e-3 1.777-0.1621 2.6487-0.0633 0.3192-0.1866 0.6715-0.4873 0.8387-0.2659 0.1653-0.5933 0.0978-0.8884 0.11" fill="#ed1c2a" fill-rule="evenodd"/>
   </g>
  </g>
 </g>
</svg>
