<svg width="800" height="177.16" version="1.1" viewBox="0 0 800 177.16" xml:space="preserve" xmlns="http://www.w3.org/2000/svg">
<g transform="matrix(1.8698 0 0 1.8698 -181.63 -162.95)">
	<g fill="#6ac07a">
		<path d="m182.7 93.8c-0.1-0.8-0.6-1.5-1.2-2-0.7-0.5-1.5-0.7-2.3-0.5l-19.7 3.4c-1.6 0.3-2.7 1.8-2.5 3.5 0.3 1.6 1.8 2.6 3.4 2.3l2.1-0.4c1.8 4.7 2.5 11.7 0.3 17-1.3 3.2-3.5 5.6-6.5 6.6-3.8 1.2-10.7 3.1-14.5 4.1l-2.2-7.6 13.5-3.9c1.6-0.5 2.5-2.1 2.1-3.7-0.2-0.6-0.5-1.1-0.9-1.4-0.7-0.7-1.8-0.9-2.8-0.6l-13.5 3.9-2.1-7.4 13.5-3.9c1.6-0.5 2.6-2 2.1-3.6s-2.1-2.5-3.7-2.1l-16.4 4.7c-1.6 0.5-2.5 2.1-2.1 3.7l7.6 26.2c0.4 1.3 1.5 2.1 2.8 2.2 0.3 0 0.6 0 0.9-0.1 0.5-0.1 12.1-3.2 17.7-5 4.7-1.5 8.2-4.9 10.2-9.8 2.6-6.3 2.2-14.6 0-20.3l8.8-1.5 3.8 23.7c0.2 1.4 1.4 2.5 2.9 2.5h0.6c1.6-0.3 2.8-1.8 2.5-3.4z"/>
		<path d="m253.4 114.6h-3.3l0.1-24.2c0-0.8-0.3-1.6-0.9-2.1-0.6-0.6-1.3-0.9-2.1-0.9l-24.3-0.1c-1.7 0-3 1.3-3 3 0 1.6 1.3 2.8 2.9 2.9h2.2l0.2 24.4c0 1.6 1.3 2.9 2.9 3h0.1c1.7 0 3-1.4 3-3l-0.2-24.4h13.3l-0.1 24.4c0 0.8 0.3 1.6 0.9 2.1 0.5 0.5 1.3 0.8 2 0.9h0.1l6.3-0.1c1.7 0 3-1.4 3-3-0.1-1.6-1.5-2.9-3.1-2.9z"/>
		<path d="m284.2 89.1c-1.5-0.8-3.3-0.2-3.8 1l-11.5 22.1-7.2-23c-0.5-1.6-2.2-2.4-3.8-1.9s-2.4 2.2-1.9 3.8l9.4 27.6v0.1l-1.8 3.4c-1 1.7-0.4 3.5 1.1 4.3 0.4 0.2 0.8 0.3 1.3 0.3 1.1 0 2.2-0.6 2.8-1.6l16.6-32.1c0.8-1.4 0.3-3.2-1.2-4z"/>
		<path d="m213.7 115.2-14 0.9-0.5-7.6 14-0.9c1.7-0.1 2.9-1.5 2.8-3.2-0.1-1.4-1.2-2.6-2.6-2.8h-0.6l-14 0.9-0.5-7.9 14.1-0.9c1.7-0.1 2.8-1.5 2.7-3.1-0.1-1.7-1.4-2.8-3.1-2.7l-21.8 1.3c-1.7 0.1-2.8 1.4-2.7 3.1 0.1 1.6 1.3 2.7 2.8 2.7h0.3l1.7-0.1 1.6 24.5c0.1 1.6 1.4 2.7 2.9 2.8h0.3l17-1.1c1.7-0.1 2.9-1.5 2.8-3.2-0.2-1.6-1.6-2.8-3.2-2.7z"/>
		<path d="m363.2 101.2-21.8-3.6c-1.6-0.3-3.2 0.8-3.4 2.5-0.3 1.6 0.9 3.1 2.5 3.4l1.9 0.3-4 24c-0.3 1.6 0.8 3.2 2.5 3.4l17 2.8h0.4c1.5 0.1 2.8-1 3.1-2.5 0.3-1.6-0.9-3.1-2.5-3.3l-14.1-2.3 1.3-7.6 13.5 2.2h0.4c1.5 0.1 2.8-1 3.1-2.5 0.3-1.6-0.8-3.1-2.4-3.3l-13.5-2.2 1.3-7.7 13.9 2.3h0.4c1.5 0.1 2.8-0.9 3-2.4 0.1-1.7-1-3.2-2.6-3.5z"/>
		<path d="m332.2 122.7-3 0.2-1.5-25.2c-0.1-1.4-1.1-2.6-2.5-2.8l-26.4-4.4c-1.3-0.2-2.5 0.4-3.1 1.6l-13.3 25.1c-0.4 0.7-0.5 1.5-0.2 2.3 0.2 0.8 0.8 1.4 1.5 1.8l5.5 2.9c1.5 0.8 3.3 0.2 4.1-1.3s0.2-3.3-1.3-4.1l-2.8-1.5 10.8-20.5 7.4 1.2-4.2 25.6c-0.1 0.8 0.1 1.6 0.5 2.2 0.5 0.6 1.2 1.1 2 1.2l6 1h0.4c1.5 0.1 2.8-1 3.1-2.5 0.3-1.6-0.8-3.2-2.5-3.4l-3.1-0.5 3.8-22.6 8.6 1.4 1.5 25.8c0 0.8 0.4 1.5 1 2.1 0.5 0.5 1.2 0.7 1.9 0.8h0.3l6-0.4c1.7-0.1 2.9-1.5 2.8-3.2-0.2-1.6-1.6-2.9-3.3-2.8z"/>
		<path d="m125.5 133.5-2.7 1.1-8.2-20 5.3-2.2 1 2.5c0.6 1.5 2.4 2.2 3.9 1.6s2.2-2.4 1.6-3.9l-2.1-5c-0.6-1.5-2.4-2.2-3.9-1.6l-21.4 8.9c-1.5 0.6-2.2 2.3-1.7 3.8l1.8 5c0.4 1.2 1.5 1.9 2.7 2 0.4 0 0.8 0 1.1-0.2 1.6-0.6 2.4-2.3 1.8-3.9l-0.9-2.5 5.3-2.2 9.3 22.8c0.3 0.7 0.9 1.3 1.6 1.6 0.3 0.1 0.7 0.2 1 0.2 0.4 0 0.9-0.1 1.3-0.2l5.5-2.3c1.5-0.6 2.3-2.4 1.6-3.9-0.6-1.5-2.3-2.2-3.9-1.6z"/>
	</g>
	<g fill="#a3cf62">
		<path d="m524.8 156.4-8.4-23.1 1.3-0.5c1.6-0.6 2.4-2.2 1.9-3.7-0.6-1.6-2.3-2.3-3.9-1.8l-16.6 6.2c-2.6 0.9-4.6 2.8-5.8 5.3s-1.3 5.3-0.4 7.8c0.9 2.6 2.8 4.6 5.3 5.8 0.9 0.4 2 0.7 2.9 0.8 0.2 3-0.6 5.6-1.9 7.5-1.6 2.3-4.3 4.2-8.2 5.2-1.9-9-5.4-23.5-5.5-24.2-0.3-1.2-1.3-2.1-2.6-2.3-1.3-0.1-2.5 0.5-3 1.7l-11.2 23.8-3.5-18.8c-0.3-1.6-1.9-2.7-3.5-2.4l-4.9 0.9c-1.6 0.3-2.7 1.9-2.4 3.5s1.9 2.7 3.5 2.4l1.9-0.4 4.6 23.8c0.2 1.3 1.3 2.2 2.6 2.4h0.3c1.2 0 2.3-0.6 2.8-1.7l11.4-24.3c1.4 6 3.3 14.7 4.2 19.3 0.3 1.6 1.8 2.7 3.4 2.4 7.1-1.2 12.2-3.9 15.1-8.1 2.2-3.2 3-7.2 2.5-11.9l9-3.3 3.4 9.4c0.4 1.2 1.5 1.9 2.7 2 0.4 0 0.8 0 1.1-0.2 1.7-0.2 2.5-1.9 1.9-3.5zm-20.6-9c-1.3 0.5-4.4 0.4-5.4-2.7-1.1-3.3 0.9-5.2 2.3-5.7l9.7-3.6 3.1 8.4z"/>
		<path d="m356.4 145.2-16.8-2.8c-0.8-0.1-1.6 0.1-2.2 0.5-0.6 0.5-1.1 1.2-1.2 1.9l-4 24-1.9-0.3c-1.6-0.3-3.2 0.7-3.5 2.4-0.3 1.6 0.8 3.2 2.5 3.4l22.3 3.7h0.4c1.5 0.1 2.8-1 3.1-2.5 0.3-1.6-0.8-3.1-2.5-3.3l-14.4-2.4 1.3-7.8 13.5 2.3h0.4c1.5 0.1 2.8-0.9 3-2.4 0.3-1.6-0.8-3.2-2.5-3.5l-13.5-2.3 1.3-7.7 13.9 2.3c1.6 0.3 3.2-0.7 3.4-2.3 0.1-1.4-1-2.9-2.6-3.2z"/>
		<path d="m450.9 162.2c1.9-1.5 3-4.1 2.5-7.5-0.9-6-6.2-8.1-10.4-7.8l-13.3 1.1h-0.3c-1.7 0.1-2.9 1.6-2.8 3.2l2 27.2c0.1 0.8 0.4 1.5 1 2.1 0.5 0.4 1.2 0.7 1.8 0.7h0.4l15-1.2c5.4-0.4 9.5-5.1 9.1-10.5-0.1-3.1-2.2-6.7-5-7.3zm-18-8.7 10.6-0.9c1.3-0.1 3.7 0.6 4.1 3.8 0.2 2-0.5 4.2-3.2 4.5-2.5 0.2-10.9 0.9-10.9 0.9zm13.6 20.6-12 1-0.5-8s10.4-0.9 12.1-1c2.5-0.2 3.8 1.4 4.1 3.8 0.1 2.1-1.2 3.9-3.7 4.2z"/>
		<path d="m331.6 146.7c0.6-1.5-0.1-3.3-1.6-3.9l-5.5-2.3c-0.7-0.3-1.6-0.3-2.3 0s-1.3 0.9-1.6 1.6l-9.8 23.9-8.6-1.5 3.8-22.6 3.1 0.5c1.6 0.3 3.2-0.8 3.5-2.5 0.3-1.6-0.8-3.2-2.5-3.5l-6-1c-0.8-0.1-1.6 0.1-2.2 0.5-0.6 0.5-1.1 1.2-1.2 1.9l-4.3 25.6-7.4-1.2-3.6-22.9 3.1-0.5c1.6-0.3 2.8-1.8 2.5-3.4s-1.8-2.8-3.4-2.5l-6.1 0.9c-0.8 0.1-1.5 0.6-2 1.2s-0.7 1.4-0.5 2.2l4.4 28c0.2 1.3 1.2 2.3 2.5 2.5l26.4 4.5h0.4c1.2 0 2.4-0.7 2.9-1.9l9.6-23.4 2.7 1.1c1.3 1 3.1 0.2 3.7-1.3z"/>
		<path d="m419.1 148.5-23.3 0.5c-1.6 0-2.9 1.3-2.9 3l-0.1 5.3c0 1.6 1.3 3 2.9 3h0.1c1.7 0 3-1.4 3-3.1v-2.7l5.8-0.1 0.6 24.6c0 0.8 0.4 1.6 0.9 2.1s1.2 0.8 2 0.8h0.2l5.9-0.2c1.7 0 3-1.4 2.9-3.1s-1.4-2.8-3.1-2.8l-2.8 0.1-0.5-21.8 5.7-0.1 0.1 2.8c0.1 1.7 1.4 3 3.1 2.9s3-1.4 2.9-3.1l-0.2-5.4c-0.2-1.4-1.6-2.7-3.2-2.7z"/>
		<path d="m385.1 172.3c-2.1 2.3-5 3.5-8.4 3.5-2.9 0-5.4-1-7.1-2.8-1.9-2-2.9-5-2.8-8.6 0.2-7.1 3.9-11.4 10.2-11.6 3.3-0.1 5.5 1.4 6.7 2.6l-2.1 3c-0.9 1.4-0.5 3.2 0.9 4.2 1.4 0.9 3.2 0.5 4.2-0.9l3.1-4.7c0.6-0.9 0.6-2.1 0.1-3.1-0.2-0.3-4.1-7.2-13-6.9-9.5 0.3-15.7 7.1-16 17.3-0.1 5.3 1.4 9.8 4.5 12.9 2.7 2.8 6.6 4.4 10.8 4.6h0.6c5.1 0 9.7-1.9 12.9-5.5 1.1-1.2 1-3.1-0.2-4.2-1.4-1.1-3.3-1-4.4 0.2z"/>
	</g>
</g>
</svg>
