<svg width="800" height="339.34" version="1.1" viewBox="0 0 211.67 89.783" xmlns="http://www.w3.org/2000/svg">
 <g transform="translate(34.194 -66.339)">
  <g fill="#fff">
   <g transform="matrix(1.6295 0 0 1.6295 -33.705 -55.707)">
    <path class="st2" d="m62 84.7h-0.4v0.4l-2.1 11.7h-2.9l2-11.8c0-0.1 0.1-0.2 0.1-0.3v-0.1h-2.5l0.5-2.6h7.8l-0.5 2.7z"/>
    <path class="st2" d="m72 92c-0.5 3.1-2 4.9-5.3 4.9-3.1 0-4.1-1.8-3.6-4.8l1-5.5c0.5-3.1 2.2-4.8 5.3-4.8 3.3 0 4.1 1.9 3.5 4.9zm-1.9-5.6c0.2-1.1 0.3-2.3-1.1-2.3s-1.7 1.2-1.9 2.3l-1.1 6c-0.2 1.1-0.3 2.3 1.1 2.3s1.7-1.2 1.9-2.3z"/>
    <path class="st2" d="m78.1 96.7 0.7-3.9c0.1-0.5 0.2-0.9 0.3-1.1 0-0.1 0.1-0.2 0.1-0.3l-0.6 0.3c-0.4 0.1-1 0.3-1.6 0.3-2.1 0-3.7-0.7-3.3-3.1l1.2-6.8h2.9l-1.1 6c-0.2 0.9 0.1 1.7 1.1 1.7 1.1 0 1.1-0.1 1.6-0.2l1.3-7.4h2.9l-2.6 14.7h-2.9z"/>
    <path class="st2" d="m88.5 96.7c-0.2-0.7-0.3-1-0.2-2.1l0.4-3.3c0.1-0.9-0.3-1.3-1.2-1.3h-1.1v0.3l-1.1 6.4h-2.9l2.6-14.7h2.9l-0.9 5.4c0 0.1 0 0.2-0.1 0.2 0 0 0 0.1-0.1 0.1h1.2c1.4 0 1.5-1.4 1.7-2.4l0.3-1.3c0.1-0.5 0.4-1.2 0.7-1.7l0.3-0.3h3l-0.3 0.3c-0.5 0.6-0.7 1.4-0.9 2.3l-0.2 1.2c-0.2 1.3-0.7 2.6-1.9 2.8-0.2 0.1-0.3 0-0.5 0v0.1c0.2 0 0.4 0.1 0.5 0.1 1.2 0.5 1.1 1.6 1 2.8l-0.5 2.4c-0.1 0.9-0.2 1.8 0.2 2.5 0 0.1 0.1 0.2 0.2 0.2z"/>
    <path class="st2" d="m97.9 96.7v-3.9h-2.4l-1.5 3.9h-3l5.8-14.7h3.7l0.5 14.7zm0.2-6.2v-2.8c0-1.3 0.2-2.4 0.3-3.7h-0.1c-0.4 1.3-0.6 2.4-1.1 3.7l-0.7 2c-0.1 0.4-0.2 0.5-0.3 0.8h1.5c0.2-0.1 0.1 0 0.4 0z"/>
   </g>
   <g transform="matrix(1.6295 0 0 1.6295 -33.705 -55.707)">
    <path class="st2" d="m69.2 113.3c-0.7 4-2.6 6.3-6.5 6.3-3.8 0-5-2.3-4.3-6.2l1.2-7.1c0.7-4 2.7-6.2 6.5-6.2 4 0 5 2.4 4.3 6.3zm-2.3-7.2c0.2-1.4 0.4-3-1.3-3s-2.1 1.6-2.4 3l-1.4 7.7c-0.2 1.4-0.4 2.9 1.3 2.9s2.1-1.5 2.3-2.9z"/>
    <path class="st2" d="m78.5 103.8h-0.6v0.4l-2.7 15.1h-3.6l2.7-15.1c0-0.1 0.1-0.2 0.1-0.3v-0.1h-3l0.6-3.3h9.6l-0.6 3.3z"/>
    <path class="st2" d="m91.1 106c-0.7 4.2-2.3 5.7-5.3 5.7h-2c0 0.3 0 0.3-0.1 0.6l-1.2 7h-3.6l3.3-18.9h4.9c4.2 0.1 4.7 1.8 4 5.6zm-3.7 0c0.3-1.7 0.1-2.2-0.9-2.2h-1.4c0 0.3 0 0.3-0.1 0.6l-0.6 3.5c-0.1 0.3 0 0.3-0.2 0.6 0.3-0.1 0.3 0 0.6 0h0.8c1.3 0 1.5-1.2 1.6-2.1z"/>
    <path class="st2" d="m100.5 113.7c-0.7 3.9-1.8 5.6-5.8 5.6h-4.9l3.3-18.9h3.6l-1.2 7c0 0.3 0 0.3-0.2 0.6 0.3-0.1 0.3 0 0.6 0h1.4c2.9 0.1 4 1.5 3.2 5.7zm-3.6-0.3c0.2-0.9 0.4-2.1-0.9-2.1h-1.4c0 0.3 0 0.3-0.1 0.6l-0.6 3.5c0 0.3 0 0.3-0.2 0.6 0.3-0.1 0.3 0 0.6 0h0.8c1 0 1.4-0.5 1.7-2.2zm4.9 5.9 3.3-18.9h3.6l-3.3 18.9z"/>
    <path class="st2" d="m118.2 114.2c-0.7 3.7-2.2 5.1-5.4 5.1h-5.8l3.3-18.9h4.5c1.6 0 2.1 0.1 2.7 0.2 1.6 0.4 2.2 1.9 1.9 4.3s-1 3.8-2.6 4.7v0.1c1.5 0.7 1.9 1.9 1.4 4.5zm-2.5-8.4c0.3-1.5 0-2-1-2h-1.4c0 0.3 0 0.3-0.1 0.6l-0.5 3.1c0 0.3 0 0.3-0.2 0.6 0.3-0.1 0.3 0 0.6 0h0.8c0.5 0 1-0.2 1.2-0.6 0.3-0.4 0.4-0.6 0.6-1.7zm-1.1 8c0.3-1.9 0.1-2.5-1-2.5h-1.7c0 0.3 0 0.3-0.1 0.6l-0.6 3.6c0 0.3 0 0.3-0.2 0.6 0.3-0.1 0.3 0 0.6 0h1c1.3-0.1 1.8-0.8 2-2.3z"/>
    <path class="st2" d="m125.9 119.3v-5h-3l-1.8 5h-3.7l7.2-18.9h4.5l0.5 18.9zm0.3-8.1v-3.5c0-1.7 0.2-3.1 0.4-4.8h-0.1c-0.5 1.7-0.8 3.2-1.4 4.8l-0.9 2.5c-0.2 0.5-0.2 0.6-0.4 1z"/>
   </g>
  </g>
  <g transform="matrix(1.6295 0 0 1.6295 -33.705 -55.707)">
   <path class="st1" d="m30.3 83.4c0 4.6 3.6 8.3 8 8.3s8-3.7 8-8.3v-0.8c-3.3-3.1-7.3-5.4-11.6-6.6l-0.1 0.1c-2.7 1.4-4.3 4.2-4.3 7.3z" fill="#fff"/>
  </g>
  <path class="st3" d="m52.819 96.647c0 0.16295 0 0.16295 0.16295 0.32589l0.16294 0.16295c-2.2812-6.8437-6.1919-13.036-11.406-18.25l-0.16295-0.16295v1.3036c0 7.4955-5.8661 13.525-13.036 13.525-7.1696 0-13.036-6.029-13.036-13.525 0-5.0513 2.6071-9.6138 6.8437-11.895l0.16295-0.16295h-0.16295c-3.9107-1.1406-7.8214-1.6295-11.895-1.6295-24.605 0.16295-44.647 20.205-44.647 44.973 0 14.013 6.5178 26.56 16.62 34.87-0.16295-0.16295-0.32589-0.16295-0.32589-0.32589-2.2812-1.9554-1.3036-5.7031 1.6295-6.1919 3.5848-0.65179 7.4955-1.6295 11.406-3.096 8.6361-3.096 11.732-5.7031 15.48-11.569 2.6071-4.0736 0.97768-8.1473-1.4665-8.962-5.8661-1.6295-10.266-3.2589-13.85-4.8884-7.0067-3.2589-8.962-12.384-3.9107-18.413l2.2812-2.7701c0.97768-1.3036 2.7701-1.7924 4.2366-0.97768 34.707 17.435 47.417 7.9843 48.884 6.5178 1.9554-2.1183 5.2143-1.4665 6.029 1.1406z" fill="#009ad6" stroke-width="1.6295"/>
  <path class="st3" d="m55.264 113.59c-0.16295 0.97767-0.81473 1.7924-1.7924 2.2812-3.4219 1.9554-7.6585 3.5848-12.71 4.3995-1.3036 0.16294-2.4442 1.1406-2.7701 2.2812-2.4442 6.6808-6.029 12.547-11.08 17.761-6.1919 6.3549-14.176 11.406-23.953 15.154h-0.32589c2.6071 0.48884 5.2143 0.65179 7.8214 0.65179 24.116 0 43.995-19.228 44.81-43.181 0.16294 0.32589 0 0.48883 0 0.65178z" fill="#009ad6" stroke-width="1.6295"/>
  <path class="st1" d="m55.427 111.31c0-5.2143-0.81473-10.103-2.4442-14.665-0.81473-2.6071-4.0736-3.2589-6.029-1.3036-1.4665 1.4665-14.176 10.917-48.884-6.5178-1.4665-0.65178-3.2589-0.16295-4.2366 0.97768l-2.2812 2.7701c-5.0513 5.8661-3.096 14.991 3.9107 18.413 3.4219 1.6295 7.8214 3.2589 13.85 4.8884 2.4442 0.65178 4.0736 4.8884 1.4665 8.962-3.7478 5.866-6.8437 8.4732-15.48 11.569-3.9107 1.4665-7.8214 2.4442-11.406 3.096-2.933 0.48884-3.9107 4.3995-1.6295 6.1919 5.8661 4.8884 13.199 8.3102 21.02 9.6138 9.7768-3.5848 17.761-8.7991 23.953-15.154 5.0513-5.2143 8.6361-11.08 11.08-17.761 0.48884-1.3036 1.4665-2.1183 2.7701-2.2812 5.0513-0.81473 9.2879-2.4442 12.71-4.3995 1.1406-0.65178 1.7924-1.7924 1.7924-3.096-0.16295-0.16294-0.16295-0.65178-0.16295-1.3036z" fill="#fff" stroke-width="1.6295"/>
 </g>
</svg>
