<svg width="885.82pt" height="502.55pt" version="1.1" viewBox="0 0 885.82 502.55" xmlns="http://www.w3.org/2000/svg">
 <g transform="translate(-56.7,-48.55)" fill="#e32024">
  <path d="m56.7 48.63 242.7 166.55-242.7 166.55z"/>
  <path d="m343.58 48.55h279.8v64.79h-100.42v268.36h-78.48v-268.36h-100.89z"/>
  <path d="m633.19 48.55h89.92l66.25 237.66 66.25-237.66h86.91l-113.2 333.15h-83.34z"/>
 </g>
 <path d="m90.78 0.11 151.82 104.26-151.82 104.26z" fill="#2e3d6b"/>
 <path d="m0.01 377.33h82.15l-0.01 23.87-53.18 0.01-0.01 98.99-28.95 0.01z" fill="#e32024"/>
 <path d="m84.85 377.33 34.52-0.01 26.46 59.07 0.79-0.12 20.87-58.94 31.4 0.01-38.79 94.81c-4.46 11.61-11.23 24.22-23.83 28.37-11 3.21-22.86 2.23-33.9-0.3-0.02-7.94 0.01-15.89-0.02-23.83 6.07 1.37 12.6 2.67 18.69 0.73 4.82-1.54 8.08-5.98 9.29-10.74z" fill="#e32024"/>
 <path d="m205.49 377.34 95.52 0.08-0.03 23.78-66.53 0.01 0.01 21.76c10.27-0.01 20.54-0.02 30.81 0 11.25 0.11 23.12 2.23 32.25 9.23 7 5.27 11.28 13.55 12.59 22.12 1.43 9.16 0.93 19.06-3.67 27.31-3.64 6.57-9.86 11.45-16.77 14.22-8.02 3.27-16.76 4.32-25.37 4.36h-58.81v-122.87m28.97 69.5-0.01 29.49c8.96-0.04 17.91 0.11 26.87-0.08 5.03-0.31 10.51-0.94 14.48-4.36 4.52-4.03 4.58-11.11 2.42-16.36-2.7-6.13-9.9-8.29-16.06-8.58-9.23-0.25-18.47-0.04-27.7-0.11z" fill="#e32024"/>
 <path d="m322.38 377.33 97.07 0.01v23.86l-68.14 0.02 0.01 24.91 60.04 0.01v22.62l-60.04 0.01-0.01 27.56 69.91 0.01-0.01 23.87h-98.82z" fill="#e32024"/>
 <path d="m432.63 377.47c15.87-0.34 31.76-0.05 47.64-0.14 11.44-0.09 23.29-0.34 34.09 4.06 8.37 3.21 15.58 9.73 18.84 18.18 3.57 9.07 3.75 19.2 1.99 28.7-1.64 8.5-6.28 16.57-13.51 21.5-8.82 6.14-19.84 7.93-30.37 8.11-9.88 0.07-19.77 0.01-29.65 0.03l0.04 42.21-29 0.07-0.07-122.72m29.03 56.55c8.22-0.02 16.45 0.06 24.68-0.04 5.14-0.21 10.77-1.15 14.58-4.92 4.65-4.83 4.85-12.44 3.11-18.55-1.72-5.92-7.99-8.95-13.77-9.15-9.51-0.37-19.03-0.02-28.54-0.19z" fill="#e32024"/>
 <path d="m545.91 377.34 29 0.09-0.03 46.05h44.58v-46.15h28.96l-0.03 122.88h-28.92l-0.01-52.83h-44.58l-0.02 52.81-28.94 0.02z" fill="#e32024"/>
 <path d="m661.39 377.33h28.91l0.02 79.3 49.05-79.31 28.93 0.01-0.01 122.88h-28.95l-0.04-80.12-49.08 80.17-28.82-0.04z" fill="#e32024"/>
 <path d="m792.33 386.61c8.71-6.9 20.14-9.21 31.03-9.27 20.81-0.03 41.62-0.01 62.43-0.01l0.02 122.87-28.98-0.04 0.03-42.43-15.41-0.02-24.21 42.54-34.24-0.04 28.86-44.71c-9.57-1.36-19-5.87-24.85-13.75-6.65-8.81-8.17-20.44-7.04-31.16 0.9-9.15 4.98-18.26 12.36-23.98m20.84 21.78c-3.1 5.24-3.03 12.16-0.27 17.53 3.2 5.79 10.25 7.79 16.45 7.89 9.16 0.09 18.33 0 27.49 0.04l-0.02-32.66c-9.51 0.06-19.01-0.05-28.51 0.05-5.69 0.13-12 2.03-15.14 7.15z" fill="#e32024"/>
</svg>
