<svg width="1128.5pt" height="1128.6pt" version="1.1" viewBox="0 0 1128.5 1128.6" xmlns="http://www.w3.org/2000/svg">
 <path d="m1127.9 564.28a563.63 563.66 0 0 1-563.63 563.66 563.63 563.66 0 0 1-563.63-563.66 563.63 563.66 0 0 1 563.63-563.66 563.63 563.66 0 0 1 563.63 563.66z" fill="#732281" stroke="#000" stroke-width="1.2319" style="paint-order:normal"/>
 <g transform="translate(-18.951 -18.938)" fill="#fff">
  <path d="m518.48 273.25h402.92l-122.25 225.54c28.08 16.43 53.46 37.94 72.77 64.23 15.47 21.02 26.72 45.14 32.66 70.56 6.97 29.63 7 60.65 1.99 90.59-6.45 38.06-22.54 74.5-46.77 104.59-22.76 28.48-52.48 51.15-85.49 66.51-47.77 22.34-102.1 30.09-154.27 22.61-62.91-8.77-121.88-38.9-168.39-81.79l73.8-136.11c13.47 25.39 33.03 48.27 58.62 61.98 15.37 8.44 32.64 12.77 49.94 14.99 19.52 2.39 39.75 1.17 58.37-5.47 15.08-5.35 28.96-14.55 38.95-27.13 12.64-15.77 18.73-36.3 18.02-56.39-0.67-18.68-7.37-36.92-18.22-52.06-18.12-25.48-46.88-41.85-77.01-48.71-21.3-5.21-43.35-4.06-65.08-4.2l89.71-165.36h-160.26z"/>
  <path d="m142.82 461.86h270.2c17.8 0.32 36.98 3.135 51.04 14.985 11.69 9.74 16.45 25.42 16.4 40.21 0.43 14.24-4.89 28.87-15.63 38.47 11.26 7.59 19.6 19.31 22.64 32.58 3.92 16.81 2.21 35.5-7.11 50.31-7.19 11.57-18.73 19.98-31.38 24.72-11.79 4.47-24.49 6.125-37.05 5.945h-99.18v-153.36h-53.15v153.25l-60.435 0.11v-153.36h-56.35v-53.855m230.34 51.16v25.07h31.83c4.19-0.06 8.68-0.365 12.24-2.815 2.73-1.81 4.04-5.13 4.11-8.32 0.17-3.6 0.26-7.94-2.87-10.39-4.08-3.09-9.5-3.315-14.41-3.545h-30.9m0 72.235v32.735h34.82c5.34-0.12 11.01-0.405 15.71-3.235 3.39-1.97 5.13-5.9 5.25-9.71 0.31-5.18-0.06-11.11-3.98-14.97-4.21-4.02-10.36-4.74-15.92-4.82z"/>
 </g>
</svg>
