<svg version="1.1" viewBox="0 0 126 35.28" xmlns="http://www.w3.org/2000/svg">
 <g fill="#0168b5" fill-rule="evenodd">
  <path d="m97.177 0.010122v15.328l20.878-15.328h7.9492v5.1882l-16.816 11.851 16.816 12.018v6.2104h-8.575l-20.252-15.3v15.3h-10.202v-35.267zm-71.563 7.7265v27.541h-9.5834v-23.576s0.28494-1.9891-0.92492-3.067c-1.3424-1.1822-2.8586-0.89724-2.8586-0.89724h-12.247v-7.7265h43.063v7.3651s0.21532-2.5941 4.263-5.6264c2.6498-1.9891 5.8071-1.7388 5.8071-1.7388h18.423c4.4647-0.048793 6.5441 1.6065 7.8588 2.754 1.7802 1.8083 2.1002 4.2286 2.2043 5.6126l-0.0068 2.3992c0 0.88336 0.3129 3.22-1.4117 4.4928-0.85539 0.82068-1.8222 1.3283-3.5955 1.53 1.7107 0.13914 3.0739 0.55628 4.2701 1.836 1.4186 1.523 1.7385 1.989 1.7385 5.689v2.9628c0 1.7664-1.0641 3.8596-2.5591 5.4523-2.5594 2.7263-8.144 2.5384-8.144 2.5384h-28.848v-27.541zm43.953-0.013787h-16.323v7.0241h16.691c0.59813 0 1.2727-0.06258 1.7525-0.50054 0.36864-0.3129 0.73033-0.87642 0.73033-1.8152v-2.3926c0-0.6258-0.06258-1.377-0.84835-1.8776-0.66775-0.43816-1.6345-0.43816-2.003-0.43816zm-0.41049 12.651h-15.996v6.92h15.996c0.73727 0 1.7526 0.06258 2.4899-0.77199 0.56322-0.5774 0.70237-1.0782 0.70237-1.7806v-1.4255c0-0.70266-0.13914-1.5927-0.70237-2.1701-0.73727-0.83457-1.7526-0.77189-2.4899-0.77189z" fill="#0168b5"/>
 </g>
</svg>
