<svg width="800" height="532.75" version="1.1" viewBox="0 0 800 532.75" xml:space="preserve" xmlns="http://www.w3.org/2000/svg">
<g transform="matrix(.73839 0 0 .73839 -4917 -5049.2)">
		<g display="none" opacity=".14">
			<g display="inline">
				<path d="m7646.6 7030.7c-8.3 0-13.3-0.8-15.1-1.1-0.3-0.1-0.6-0.2-0.8-0.5-2-2.3-12.2-14.8-15.6-34.9s2-35.3 3.1-38.1c0.1-0.3 0.3-0.5 0.6-0.7 2.3-1.4 15.3-8.6 41.7-13.1 10.4-1.8 20-2.7 28.7-2.7 8.4 0 13.3 0.8 15 1.2 0.3 0.1 0.5 0.2 0.7 0.4 1.9 1.9 11.8 12.5 15.6 35 3.8 22.4-1.9 35.7-3.1 38.2-0.1 0.3-0.3 0.5-0.6 0.6-2.4 1.4-15.8 8.7-41.8 13.2-10 1.6-19.6 2.5-28.4 2.5z" fill="#fff"/>
				<path d="m7689.2 6941c8.4 0 13.3 0.9 14.8 1.1 1.9 1.9 11.4 12.2 15.2 34.2 3.8 21.9-1.8 34.9-3 37.3-2.4 1.4-15.6 8.6-41.3 13-11.8 2-21.2 2.6-28.4 2.6-8.2 0-13.2-0.8-14.8-1.1-2.1-2.4-11.9-14.6-15.3-34.2-3.4-19.7 1.9-34.5 3-37.4 2.5-1.5 15.2-8.5 41.2-12.9 12.1-2 21.6-2.6 28.6-2.6m0-2.9c-8.8 0-18.6 0.9-29 2.7-26.6 4.6-39.8 11.9-42.2 13.3-0.5 0.3-1 0.8-1.2 1.4-1.1 2.9-6.7 18.4-3.2 38.9s13.9 33.3 15.9 35.6c0.4 0.5 1 0.8 1.6 0.9 1.8 0.3 7 1.1 15.4 1.1 8.9 0 18.6-0.9 28.8-2.6 26.2-4.5 39.8-11.9 42.3-13.3 0.5-0.3 0.9-0.7 1.1-1.2 1.2-2.5 7.1-16.3 3.2-39-3.9-22.9-14-33.8-16-35.8-0.4-0.4-0.9-0.6-1.4-0.8-1.8-0.3-6.8-1.2-15.3-1.2z" fill="#3c448f"/>
			</g>
			<g display="inline">
				<path d="m6873.8 7379.8c-9.4 0-15.2-0.8-17.2-1.2-0.3-0.1-0.6-0.2-0.8-0.4-2.4-2.6-14.3-16.7-18.2-39.7s2.8-40.3 4.1-43.5c0.1-0.3 0.3-0.5 0.6-0.7 2.8-1.6 18.3-9.9 49.7-15.3 12.6-2.1 24.4-3.2 34.9-3.2 9.8 0 15.6 1 17.1 1.3 0.3 0.1 0.5 0.2 0.7 0.4 2.3 2.1 13.9 14.1 18.2 39.8 4.3 25.6-2.7 40.8-4.1 43.6-0.1 0.2-0.3 0.4-0.6 0.6-2.9 1.6-18.8 10.1-49.8 15.3-12.2 1.9-23.9 3-34.6 3z" fill="#fff"/>
				<path d="m6927 7277.1c9.7 0 15.3 0.9 16.8 1.2 2.1 2 13.5 13.7 17.8 39 4.3 25.2-2.6 40.1-4 42.7-2.7 1.5-18.5 9.9-49.3 15.1-14.4 2.4-26 3.1-34.5 3.1-9.5 0-15.2-0.9-16.9-1.2-2.3-2.5-14.1-16.4-17.9-39s2.7-39.6 4-42.8c2.8-1.6 18.1-9.8 49.2-15.1 14.8-2.2 26.3-3 34.8-3m0-2.8c-10.6 0-22.5 1.1-35.2 3.2-31.7 5.4-47.4 13.8-50.2 15.4-0.5 0.3-0.9 0.8-1.2 1.3-1.4 3.3-8.2 21-4.2 44.3 4 23.4 16.2 37.8 18.6 40.5 0.4 0.5 1 0.8 1.6 0.9 2.1 0.4 7.9 1.2 17.4 1.2 10.7 0 22.5-1.1 35-3.2 31.2-5.3 47.3-13.8 50.2-15.5 0.5-0.3 0.9-0.7 1.1-1.2 1.5-2.9 8.6-18.4 4.2-44.5-4.4-26.2-16.3-38.4-18.7-40.6-0.4-0.4-0.9-0.6-1.4-0.7-1.4-0.1-7.2-1.1-17.2-1.1z" fill="#3c448f"/>
			</g>
		</g>
		<path d="m7695.9 7018.4s-11.1 6.9-35.5 11.1c-10.4 1.8-18.7 2.3-24.8 2.3-8.1 0-12.3-0.9-12.3-0.9s-10.2-10.2-13.3-28.4 3.1-31.2 3.1-31.2 10.5-6.8 35.5-11.1c10.6-1.8 18.9-2.3 24.9-2.3 8.2 0 12.2 0.9 12.2 0.9s9.8 8.2 13.3 28.4c3.5 20.3-3.1 31.2-3.1 31.2z" fill="#fff"/>
			<path d="m6959.2 7393s-10.2 8.1-34 15.2c-17.4 5.2-29 5.9-34 5.9-1.8 0-2.7-0.1-2.7-0.1s-11.3-8.9-16.5-26.6c-5.3-17.7-0.6-31.3-0.6-31.3s9.7-8 34-15.2c17.3-5.1 28.7-5.9 33.7-5.9 2 0 3 0.1 3 0.1s10.7 6.9 16.5 26.6 0.6 31.3 0.6 31.3z" fill="#fff"/>
			<path d="m7740.9 6980.1c-5.7-33.1-22.9-49.6-28-53.9-5.1-4.2-11-7.1-17.3-8.7-3.3-0.8-10.6-2.1-22-2.1-9.9 0-20.7 1-32.1 3-3.7 0.6-7.1 1.3-10.4 2 1.1-3.3 1.9-6.4 2.4-9.1 3.1-17.6-4.3-35.4-19-45.6-28.1-19.5-66.6-25.5-87-27.4-1.4-0.1-2.8-0.2-4.1-0.2-14.7 0-28.6 7.1-37.3 19.2-8.3-8.3-19.7-13.2-32-13.3h-2.8c-29.8 0-58.3 3.5-84.7 10.4-20.9 5.5-35.2 24.8-34.2 46.4v1c-4.6-0.2-9.1-0.4-13.6-0.4-4.1 0-8.1 0.1-12.1 0.3l-3.6 0.3c-7.2 0.7-14.1 3.1-20.2 7-5.6-6.2-13-10.9-21.5-13.4-21.2-6-42.9-8.9-66.3-8.9-2.1 0-4.2 0-6.3 0.1-19.4 0.4-36.5 13.1-42.5 31.5-0.3 1-0.7 2.5-1.1 4.3-8.5-0.9-17-1.5-25.6-1.5-13.6 0-27.6 1.1-41.9 3.3-7.9 1.2-15.1 4.4-21.1 9.1-7.1-4.5-15.4-7.1-24.2-7.2h-2.9c-21.7 0-42.8 2.3-62.8 6.6-5.8-21.8-11.1-39.4-14.3-46.1-7.7-16.1-23.9-26-41.3-26-2.2 0-4.5 0.2-6.7 0.5-29.8 4.4-60.7 13.8-87 26.6-9.3 4.5-16.5 11.8-20.9 20.5-6.2-3-13.1-4.6-20.1-4.6-4.6 0-9.3 0.7-13.9 2.1-27.9 8.9-57.9 22.9-82.3 38.4-18.7 11.9-26.1 35.5-17.7 56l26.7 65.2c3.5 8.7 27.7 65.6 79.3 91.9l-11.7 46.7c-6 23.9 8.1 48.4 31.8 55.1 15.2 4.4 31 6.6 47 6.6 13.1 0 26.2-1.5 39-4.5 9.6-2.2 18.8-5.1 27.6-8.6 2 10.8 5.8 26.9 12.8 41.9-6.4 1.2-13.7 2.8-21.8 5.3-30.2 9-45.1 20-49 23.1-6.1 5-10.7 11.7-13.2 19.1-1.5 4.4-8.5 27.9 0.1 57s27.3 45 30.9 47.9c6.4 5 14.1 8.2 22.2 8.9 1.3 0.1 3.6 0.3 6.9 0.3 9.3 0 24.9-1.3 46.1-7.6 29.4-8.7 44.5-19.5 48.4-22.7 2.2-1.8 4.2-3.8 6.1-6 6 6.9 12.7 13.5 20.3 19.4l-19.4 43.1c-10.1 22.5-0.6 49 21.6 59.9 23.1 11.4 49 17.3 74.9 17.3 2.9 0 5.8-0.1 8.7-0.2 48.6-2.5 91.1-21.6 119.6-54 15.1-17 25.5-36.8 31.4-58.3 11.2 1.5 22.7 2.5 34.7 2.7h0.6c18.1 0 34.5-10.7 41.8-27.1l3.6 0.9c-0.5 19.5 11.5 37.3 29.9 44.2 25.3 9.4 50.7 15.3 75.5 17.6 1.4 0.1 2.9 0.2 4.3 0.2 19.9 0 37.7-12.9 43.7-32.2 6.7-21.5 40.8-132.6 55.6-211.7 3.9-20.8-7-41.6-26.3-50.2-8.1-3.6-16.3-6.6-24.7-9.3 9.1-2.4 17-7.4 22.9-14.1 8.5 8 19.7 12.5 31.5 12.5 1.5 0 3-0.1 4.6-0.2 23.4-2.3 62.4-14.8 88.7-33.2 14.9-10.4 22.2-28.7 18.6-46.5-1.4-6.8-5.2-16-10.7-26.7 7.8-0.4 16-1.3 24.4-2.7 30.2-5.2 46.5-14.2 50.7-16.8 5.8-3.6 10.6-8.5 14.1-14.3 3.5-5.7 14.2-27 8.6-60.1zm-781.7 412.9s-10.2 8.1-34 15.2c-17.4 5.2-29 5.9-34 5.9-1.8 0-2.7-0.1-2.7-0.1s-11.3-8.9-16.5-26.6c-5.3-17.7-0.6-31.3-0.6-31.3s9.7-8 34-15.2c17.3-5.1 28.7-5.9 33.7-5.9 2 0 3 0.1 3 0.1s7.9 5.1 13.8 19c0.9 2.8 1.9 5.8 3.1 9 5.1 18.8 0.2 29.9 0.2 29.9zm736.7-374.6s-11.1 6.9-35.5 11.1c-10.4 1.8-18.7 2.3-24.8 2.3-8.1 0-12.3-0.9-12.3-0.9s-10.2-10.2-13.3-28.4 3.1-31.2 3.1-31.2 10.5-6.8 35.5-11.1c10.6-1.8 18.9-2.3 24.9-2.3 8.2 0 12.2 0.9 12.2 0.9s9.8 8.2 13.3 28.4c3.5 20.3-3.1 31.2-3.1 31.2z" fill="#0d3b99"/>
			<path d="m7082.7 7111.3 2-0.1v2c1 46.6 2.3 67.6 3.3 72.3 23 1.9 45 1 65.5-2.7 0.5-14.9 3.9-134.3-3-213.5-21-3.2-42.4-3-65.2 0.5-0.8 4.3-1.5 24.4-1.4 69.2v1.9l-1.9 0.1c-12.9 0.3-26.3 0.8-38.8 1.3l-1.8 0.1-0.2-1.8c-4.3-43.9-7.1-63.7-8.5-68.2-23.1-0.2-44.9 2.4-65.1 7.7 0.7 14.9 6.4 134.2 19.3 212.6 21.2 1.5 42.5-0.3 65-5.5 0.4-4.5-0.4-25.6-4.2-72.8l-0.2-2h2c11.5-0.4 22.6-0.7 33.2-1.1z" fill="#fff"/>
			<path d="m7376 7424.9c21.6 8 43.1 13 63.8 15 4.4-14.3 39.7-128.3 54.3-206.5-19.6-8.8-40.5-14.4-63.8-17.1-3.5 1.1-34 25.2-69.4 55l-1.9 1.6-1-2.3c-14.3-31.6-27.7-58.2-40-79l-0.8 0.2-0.1-0.9c-22.3-5.6-44.2-8.3-65.1-8-2.9 14.7-25.6 131.9-31.8 211.1 20.2 6.5 41.3 9.8 64.5 10.1 1.7-4.6 6.4-28.3 15-82.6l1.2-7.6 2.5 7.3c7.6 21.9 23.2 43.9 35.5 57.5 12.3-5.5 45.2-30 55.8-42.9l6.5-7.9-3.2 9.8c-13.7 41.9-21.7 80.3-22 87.2z" fill="#fff"/>
			<path d="m7368.9 6952.8c-20.4-4.4-40.4-6.1-59.3-5.2v0.3l-1.5-0.2c-4.2 3.3-30.3 34.4-61.8 73.5l-4.1 5.1 0.7-6.5c3.5-31.3 5.7-58.2 6.6-79.9-18.6-5.3-37.9-7.6-59.1-7.1-4.8 14.6-23.9 180.3-22.6 196 20.8 4.5 41.1 6.2 60.3 5.2l0.1-0.2c4.6-5.2 32-36.6 62.1-73.5l4.1-5-0.7 6.5c-3.5 31.3-5.7 58.3-6.6 80 18.6 5.3 37.9 7.6 59.1 7.1 4.8-14.7 23.9-180.4 22.7-196.1z" fill="#fff"/>
			<path d="m7488.5 7056.1 1.8-2.1 1.3 2.4c25.7 46.3 47 73.6 50.9 78.4 17.6-1.8 48.6-12.3 67-25.1-1.6-8.2-24-50.6-72.6-113.2l-0.9-1.1 0.8-1.2c34.7-48.8 50.8-83.5 52.1-90.9-20.5-14.2-53.6-18.4-65-19.4-4.2 6.3-28.8 43.2-55.8 89.5l-3 5.1-0.6-5.9c-5.3-54-8.7-77.9-10.2-82.9-26.6-0.2-52.2 2.8-75.6 8.9 0.7 16.2 7.4 154.7 22.3 245.6 24.6 1.8 49.3-0.3 75.4-6.4 0.5-4.1-0.1-22.6-3.2-63.7l-0.1-0.8 0.5-0.6c5.3-5.5 10.2-11.1 14.9-16.6z" fill="#fff"/>
			<path d="m6864.9 7216.9c35.6-8.3 64.1-27.4 80.2-54 14.8-24.4 18.6-53.3 10.8-83.4l-0.1-0.3c-16.2-71.3-39-161.7-44.2-172.4-25.4 3.7-51.5 11.7-73.8 22.5 2.3 8.8 14.6 54.9 29.6 113.3l0.4 1.4-1.3 0.7c-20.4 11.7-36.3 6.4-50.2-16.8-18.6-37.7-35.2-70.5-39.5-78.2-24.1 7.7-50.6 20-71.5 33.4l26.8 65.5c0.2 0.6 23.3 58.2 69 72.9 23.5 7.6 49.1 2.6 76-14.7l3.7-2.4-0.8 4.3c-3.2 17.7-16.5 32-33.8 36.4-8.3 2.1-17.8 2-26.9-0.3l-17.6 70.5c20.6 5.9 42.3 6.4 63.2 1.6z" fill="#fff"/>
			<path d="m7183.8 7475.4c18.7-21.2 27.4-48.7 25.2-79.4v-0.1c-3.3-72.3-9.8-164.5-12.9-175.9-25.4-0.8-52.2 2.4-75.8 9 0.7 9.1 4.6 56.1 9 115.5l0.1 1.5-1.4 0.5c-21.9 7.9-36.5-0.1-46-25.1-11.5-39.9-21.9-74.8-24.8-83.1-24.8 3.3-52.8 10.7-75.5 20l14.7 68.5c0.1 0.6 12.6 60.8 54.5 83.1 21.6 11.5 47.3 11.1 76.6-1l4.1-1.7-1.5 4.1c-6.2 16.7-21.7 28.3-39.3 29.6-8.5 0.6-17.7-1.1-26.1-5l-29.5 65.6c18.8 9.2 39.9 13.6 61.1 12.5 36-1.9 67.1-15.6 87.5-38.6z" fill="#fff"/>
</g>
</svg>
