<svg version="1.1" viewBox="0 0 793.09 126.77" xmlns="http://www.w3.org/2000/svg" xmlns:xlink="http://www.w3.org/1999/xlink">
 <defs>
  <linearGradient id="b" x1="629.01" x2="629.01" y1="193.01" y2="112.57" gradientUnits="userSpaceOnUse">
   <stop stop-color="#533289" offset="0"/>
   <stop stop-color="#964b90" offset="1"/>
  </linearGradient>
  <mask id="f" x="297.77011" y="-1.48406" width="497.52" height="129.84" maskUnits="userSpaceOnUse"/>
  <linearGradient id="i" x1="134.43" x2="134.43" y1="43.885" y2="1.6495" xlink:href="#b"/>
  <linearGradient id="a" x1="216.94" x2="216.94" y1="209.49" y2="88.828" gradientUnits="userSpaceOnUse">
   <stop stop-color="#3260a0" offset=".3706"/>
   <stop stop-color="#184b7f" offset="1"/>
  </linearGradient>
  <linearGradient id="h" x1="292.14" x2="292.14" y1="209.49" y2="88.828" gradientTransform="translate(-82.51 -84.017)" xlink:href="#a"/>
  <linearGradient id="g" x1="135.44" x2="135.44" y1="209.49" y2="88.828" gradientTransform="translate(-82.51 -84.017)" xlink:href="#a"/>
  <linearGradient id="d" x1="629.01" x2="629.01" y1="193.01" y2="112.57" gradientUnits="userSpaceOnUse" xlink:href="#b"/>
  <linearGradient id="c" x1="216.94" x2="216.94" y1="209.49" y2="88.828" gradientTransform="translate(-82.51 -84.017)" gradientUnits="userSpaceOnUse" xlink:href="#a"/>
  <filter id="e" x="-.013649" y="-.099348" width="1.0273" height="1.1987" color-interpolation-filters="sRGB">
   <feGaussianBlur stdDeviation="1.8691486"/>
  </filter>
 </defs>
 <g style="isolation:isolate">
  <path transform="translate(-82.51 -84.017)" d="m875.6 84.541v-1.9e-4h-367.46a125.72 125.72 0 0 0-125.72 125.72v1.2e-4h367.46a125.72 125.72 0 0 0 125.72-125.72z" fill="url(#d)"/>
  <g mask="url(#f)">
   <g opacity=".17" style="mix-blend-mode:screen">
    <path transform="translate(-82.51 -84.017)" d="m875.6 84.541v-1.9e-4h-367.46a125.72 125.72 0 0 0-125.72 125.72v1.2e-4h367.46a125.72 125.72 0 0 0 125.72-125.72z" fill="#fff"/>
   </g>
  </g>
 </g>
 <g fill="#fff" filter="url(#e)" style="isolation:isolate">
  <path transform="translate(-82.51 -84.017)" d="m462.25 129.69a3.7864 3.7864 0 0 1 1.038-2.9842 5.5646 5.5646 0 0 1 2.5309-1.2314q1.0356-0.19494 3.7623-0.42236 2.7242-0.22662 7.7845-0.22743 10.38 0 15.441 4.0872a13.3 13.3 0 0 1 5.0602 10.9 16.24 16.24 0 0 1-1.0705 5.9358 11.906 11.906 0 0 1-3.4049 4.7678 16.557 16.557 0 0 1-6.0983 3.1466 31.999 31.999 0 0 1-9.1474 1.1355q-1.3621 0-2.7584-0.0975-1.3938-0.0974-2.5618-0.19493-1.1672-0.0975-2.0111-0.22743a10.355 10.355 0 0 0-1.038-0.13v15.831h-7.5262zm7.5262 17.907q0.45324 0.0658 2.5293 0.35576a39.452 39.452 0 0 0 5.3202 0.29241 23.296 23.296 0 0 0 5.9683-0.64817 9.8736 9.8736 0 0 0 3.7964-1.8162 6.5768 6.5768 0 0 0 1.9786-2.6934 9.0981 9.0981 0 0 0 0.58319-3.275 9.7336 9.7336 0 0 0-0.51821-3.1466 5.9683 5.9683 0 0 0-1.9478-2.6934 10.899 10.899 0 0 0-3.9247-1.8812 23.776 23.776 0 0 0-6.3891-0.71315q-3.1141 0-4.9953 0.13a18.424 18.424 0 0 0-2.401 0.25829z"/>
  <path transform="translate(-82.51 -84.017)" d="m506.18 129.69a3.7864 3.7864 0 0 1 1.038-2.9842 5.5646 5.5646 0 0 1 2.5309-1.2314q0.97224-0.19494 3.6323-0.42236 2.6609-0.22662 7.7211-0.22743 10.183 0 15.246 3.8922a13.902 13.902 0 0 1 2.8217 18.295 14.609 14.609 0 0 1-6.1308 4.737q1.3621 1.8811 2.7567 4.1522 1.3938 2.271 2.7567 4.7029 1.3621 2.4318 2.6284 4.8328 1.2646 2.4026 2.3669 4.542h-8.9525q-0.519-1.1038-1.6862-3.3416-1.1672-2.2369-2.5309-4.7354-1.3621-2.4976-2.7242-4.802-1.3621-2.3003-2.271-3.5349-1.1038 0.1316-2.3019 0.19494-1.2013 0.0658-2.2385 0.065-2.271 0-4.2821-0.16245-2.0103-0.16081-2.8542-0.2924v16.609h-7.5262zm7.5262 17.064q0.84309 0.12915 2.5293 0.32327a45.55 45.55 0 0 0 4.8669 0.19494 25.048 25.048 0 0 0 5.8709-0.58319 11.201 11.201 0 0 0 3.8273-1.6228 5.8436 5.8436 0 0 0 2.0761-2.4968 8.1719 8.1719 0 0 0 0.61568-3.2116 7.9673 7.9673 0 0 0-0.58319-3.0491 6.1849 6.1849 0 0 0-2.0111-2.5309 10.908 10.908 0 0 0-3.8598-1.7512 24.321 24.321 0 0 0-6.1308-0.64817q-3.2457 0-4.9628 0.13a17.167 17.167 0 0 0-2.2385 0.25829z"/>
  <path transform="translate(-82.51 -84.017)" d="m550.76 129.88q0-4.4105 4.737-4.4105h24.911q3.8939 0 3.8922 3.5024a6.1774 6.1774 0 0 1-0.38825 2.2385 10.362 10.362 0 0 1-0.58481 1.3304h-24.716v11.159h20.889q3.8281 0 3.8273 3.5024a6.6718 6.6718 0 0 1-0.35576 2.2385 5.2219 5.2219 0 0 1-0.61731 1.3304h-23.743v12.132h25.301v7.0714h-33.152z"/>
  <path transform="translate(-82.51 -84.017)" d="m592.81 169.98q0.0634-1.6862 0.22581-4.8653 0.16326-3.1799 0.38987-7.1038 0.22662-3.9256 0.45485-8.1744 0.22662-4.2496 0.45323-8.1744 0.22662-3.9255 0.42237-7.0714 0.19494-3.1458 0.32327-4.8344a3.9974 3.9974 0 0 1 1.5579-3.3074 5.6114 5.6114 0 0 1 3.2441-0.97306 8.0818 8.0818 0 0 1 3.3074 0.58319 6.3843 6.3843 0 0 1 1.8178 1.103q0.77731 1.5571 2.3669 4.7678 1.5887 3.2116 3.439 6.9414 1.8495 3.733 3.6973 7.3638 1.8495 3.6356 3.0816 6.0333 1.1038-2.2052 2.7567-5.481 1.6545-3.275 3.3091-6.6181 1.6545-3.3407 3.1141-6.2932 1.4596-2.9509 2.2385-4.5729a7.3025 7.3025 0 0 1 2.271-2.8542 5.8777 5.8777 0 0 1 3.5024-0.97306 9.094 9.094 0 0 1 3.1791 0.48572 5.3829 5.3829 0 0 1 1.6228 0.81062q0.12915 1.8178 0.32327 5.2552 0.19494 3.4406 0.42237 7.6237 0.22661 4.1838 0.48572 8.7576 0.25829 4.5737 0.51983 8.7576 0.25829 4.1863 0.42074 7.5912 0.16326 3.4065 0.2924 5.2227h-7.5896q-0.0658-1.038-0.19493-3.6015-0.13159-2.561-0.3249-5.9358-0.19494-3.3724-0.38987-7.1038-0.19251-3.7306-0.38825-7.0714-0.19494-3.3407-0.35739-5.9034-0.16326-2.561-0.22743-3.5365-0.58238 1.1696-1.5562 3.1141-0.97224 1.9469-2.1086 4.2496-1.1355 2.3051-2.3685 4.8328-1.233 2.5318-2.3669 4.8344-1.1355 2.3027-2.0761 4.2805-0.943 1.981-1.5254 3.1466h-6.3566q-0.77974-1.752-2.271-4.8328-1.4937-3.08-3.2116-6.584-1.7203-3.504-3.439-6.943-1.7179-3.4358-3.0816-5.9683-0.0634 1.5571-0.2258 4.1522-0.16326 2.5951-0.3249 5.775-0.16326 3.1775-0.35738 6.584-0.19494 3.4065-0.35576 6.5856-0.16326 3.1775-0.29241 5.7734-0.13158 2.5951-0.19494 4.1522z"/>
  <path transform="translate(-82.51 -84.017)" d="m652.24 129.04a3.2261 3.2261 0 0 1 1.103-2.6918 4.6646 4.6646 0 0 1 2.9842-0.8756 7.5894 7.5894 0 0 1 2.271 0.32327c0.692 0.21768 1.1453 0.36876 1.3629 0.45486v43.726h-7.7211z"/>
  <path transform="translate(-82.51 -84.017)" d="m670.41 129.88q0-4.4105 4.737-4.4105h24.911q3.8939 0 3.8922 3.5024a6.1774 6.1774 0 0 1-0.38825 2.2385 10.362 10.362 0 0 1-0.58481 1.3304h-24.716v11.159h20.889q3.8281 0 3.8273 3.5024a6.6718 6.6718 0 0 1-0.35576 2.2385 5.2219 5.2219 0 0 1-0.61731 1.3304h-23.743v12.132h25.301v7.0714h-33.152z"/>
  <path transform="translate(-82.51 -84.017)" d="m712.79 129.69a3.7864 3.7864 0 0 1 1.038-2.9842 5.5645 5.5645 0 0 1 2.5309-1.2314q0.97226-0.19494 3.6323-0.42236 2.6609-0.22662 7.7211-0.22743 10.183 0 15.246 3.8922a13.902 13.902 0 0 1 2.8217 18.295 14.609 14.609 0 0 1-6.1308 4.737q1.3621 1.8811 2.7567 4.1522 1.3938 2.271 2.7567 4.7029 1.3621 2.4318 2.6284 4.8328 1.2646 2.4026 2.3669 4.542h-8.9525q-0.519-1.1038-1.6862-3.3416-1.1672-2.2369-2.5309-4.7354-1.3621-2.4976-2.7242-4.802-1.3621-2.3003-2.271-3.5349-1.1038 0.1316-2.3019 0.19494-1.2013 0.0658-2.2385 0.065-2.271 0-4.2821-0.16245-2.0103-0.16081-2.8542-0.2924v16.609h-7.5262zm7.5262 17.064q0.8431 0.12915 2.5293 0.32327a45.55 45.55 0 0 0 4.8669 0.19494 25.048 25.048 0 0 0 5.8709-0.58319 11.201 11.201 0 0 0 3.8273-1.6228 5.8436 5.8436 0 0 0 2.0761-2.4968 8.1717 8.1717 0 0 0 0.61568-3.2116 7.9671 7.9671 0 0 0-0.58319-3.0491 6.1848 6.1848 0 0 0-2.0111-2.5309 10.908 10.908 0 0 0-3.8598-1.7512 24.321 24.321 0 0 0-6.1308-0.64817q-3.2457 0-4.9628 0.13a17.167 17.167 0 0 0-2.2385 0.25829z"/>
  <path transform="translate(-82.51 -84.017)" d="m757.37 129.88q0-4.4105 4.737-4.4105h24.911q3.8939 0 3.8922 3.5024a6.1771 6.1771 0 0 1-0.38825 2.2385 10.359 10.359 0 0 1-0.58481 1.3304h-24.716v11.159h20.889q3.8281 0 3.8273 3.5024a6.6718 6.6718 0 0 1-0.35576 2.2385 5.2224 5.2224 0 0 1-0.6173 1.3304h-23.743v12.132h25.301v7.0714h-33.152z"/>
 </g>
 <g fill="#fff" style="isolation:isolate">
  <path transform="translate(-82.51 -84.017)" d="m462.25 129.69a3.7864 3.7864 0 0 1 1.038-2.9842 5.5646 5.5646 0 0 1 2.5309-1.2314q1.0356-0.19494 3.7623-0.42236 2.7242-0.22662 7.7845-0.22743 10.38 0 15.441 4.0872a13.3 13.3 0 0 1 5.0602 10.9 16.24 16.24 0 0 1-1.0705 5.9358 11.906 11.906 0 0 1-3.4049 4.7678 16.557 16.557 0 0 1-6.0983 3.1466 31.999 31.999 0 0 1-9.1474 1.1355q-1.3621 0-2.7584-0.0975-1.3938-0.0974-2.5618-0.19493-1.1672-0.0975-2.0111-0.22743a10.355 10.355 0 0 0-1.038-0.13v15.831h-7.5262zm7.5262 17.907q0.45324 0.0658 2.5293 0.35576a39.452 39.452 0 0 0 5.3202 0.29241 23.296 23.296 0 0 0 5.9683-0.64817 9.8736 9.8736 0 0 0 3.7964-1.8162 6.5768 6.5768 0 0 0 1.9786-2.6934 9.0981 9.0981 0 0 0 0.58319-3.275 9.7336 9.7336 0 0 0-0.51821-3.1466 5.9683 5.9683 0 0 0-1.9478-2.6934 10.899 10.899 0 0 0-3.9247-1.8812 23.776 23.776 0 0 0-6.3891-0.71315q-3.1141 0-4.9953 0.13a18.424 18.424 0 0 0-2.401 0.25829z"/>
  <path transform="translate(-82.51 -84.017)" d="m506.18 129.69a3.7864 3.7864 0 0 1 1.038-2.9842 5.5646 5.5646 0 0 1 2.5309-1.2314q0.97224-0.19494 3.6323-0.42236 2.6609-0.22662 7.7211-0.22743 10.183 0 15.246 3.8922a13.902 13.902 0 0 1 2.8217 18.295 14.609 14.609 0 0 1-6.1308 4.737q1.3621 1.8811 2.7567 4.1522 1.3938 2.271 2.7567 4.7029 1.3621 2.4318 2.6284 4.8328 1.2646 2.4026 2.3669 4.542h-8.9525q-0.519-1.1038-1.6862-3.3416-1.1672-2.2369-2.5309-4.7354-1.3621-2.4976-2.7242-4.802-1.3621-2.3003-2.271-3.5349-1.1038 0.1316-2.3019 0.19494-1.2013 0.0658-2.2385 0.065-2.271 0-4.2821-0.16245-2.0103-0.16081-2.8542-0.2924v16.609h-7.5262zm7.5262 17.064q0.84309 0.12915 2.5293 0.32327a45.55 45.55 0 0 0 4.8669 0.19494 25.048 25.048 0 0 0 5.8709-0.58319 11.201 11.201 0 0 0 3.8273-1.6228 5.8436 5.8436 0 0 0 2.0761-2.4968 8.1719 8.1719 0 0 0 0.61568-3.2116 7.9673 7.9673 0 0 0-0.58319-3.0491 6.1849 6.1849 0 0 0-2.0111-2.5309 10.908 10.908 0 0 0-3.8598-1.7512 24.321 24.321 0 0 0-6.1308-0.64817q-3.2457 0-4.9628 0.13a17.167 17.167 0 0 0-2.2385 0.25829z"/>
  <path transform="translate(-82.51 -84.017)" d="m550.76 129.88q0-4.4105 4.737-4.4105h24.911q3.8939 0 3.8922 3.5024a6.1774 6.1774 0 0 1-0.38825 2.2385 10.362 10.362 0 0 1-0.58481 1.3304h-24.716v11.159h20.889q3.8281 0 3.8273 3.5024a6.6718 6.6718 0 0 1-0.35576 2.2385 5.2219 5.2219 0 0 1-0.61731 1.3304h-23.743v12.132h25.301v7.0714h-33.152z"/>
  <path transform="translate(-82.51 -84.017)" d="m592.81 169.98q0.0634-1.6862 0.22581-4.8653 0.16326-3.1799 0.38987-7.1038 0.22662-3.9256 0.45485-8.1744 0.22662-4.2496 0.45323-8.1744 0.22662-3.9255 0.42237-7.0714 0.19494-3.1458 0.32327-4.8344a3.9974 3.9974 0 0 1 1.5579-3.3074 5.6114 5.6114 0 0 1 3.2441-0.97306 8.0818 8.0818 0 0 1 3.3074 0.58319 6.3843 6.3843 0 0 1 1.8178 1.103q0.77731 1.5571 2.3669 4.7678 1.5887 3.2116 3.439 6.9414 1.8495 3.733 3.6973 7.3638 1.8495 3.6356 3.0816 6.0333 1.1038-2.2052 2.7567-5.481 1.6545-3.275 3.3091-6.6181 1.6545-3.3407 3.1141-6.2932 1.4596-2.9509 2.2385-4.5729a7.3025 7.3025 0 0 1 2.271-2.8542 5.8777 5.8777 0 0 1 3.5024-0.97306 9.094 9.094 0 0 1 3.1791 0.48572 5.3829 5.3829 0 0 1 1.6228 0.81062q0.12915 1.8178 0.32327 5.2552 0.19494 3.4406 0.42237 7.6237 0.22661 4.1838 0.48572 8.7576 0.25829 4.5737 0.51983 8.7576 0.25829 4.1863 0.42074 7.5912 0.16326 3.4065 0.2924 5.2227h-7.5896q-0.0658-1.038-0.19493-3.6015-0.13159-2.561-0.3249-5.9358-0.19494-3.3724-0.38987-7.1038-0.19251-3.7306-0.38825-7.0714-0.19494-3.3407-0.35739-5.9034-0.16326-2.561-0.22743-3.5365-0.58238 1.1696-1.5562 3.1141-0.97224 1.9469-2.1086 4.2496-1.1355 2.3051-2.3685 4.8328-1.233 2.5318-2.3669 4.8344-1.1355 2.3027-2.0761 4.2805-0.943 1.981-1.5254 3.1466h-6.3566q-0.77974-1.752-2.271-4.8328-1.4937-3.08-3.2116-6.584-1.7203-3.504-3.439-6.943-1.7179-3.4358-3.0816-5.9683-0.0634 1.5571-0.2258 4.1522-0.16326 2.5951-0.3249 5.775-0.16326 3.1775-0.35738 6.584-0.19494 3.4065-0.35576 6.5856-0.16326 3.1775-0.29241 5.7734-0.13158 2.5951-0.19494 4.1522z"/>
  <path transform="translate(-82.51 -84.017)" d="m652.24 129.04a3.2261 3.2261 0 0 1 1.103-2.6918 4.6646 4.6646 0 0 1 2.9842-0.8756 7.5894 7.5894 0 0 1 2.271 0.32327c0.692 0.21768 1.1453 0.36876 1.3629 0.45486v43.726h-7.7211z"/>
  <path transform="translate(-82.51 -84.017)" d="m670.41 129.88q0-4.4105 4.737-4.4105h24.911q3.8939 0 3.8922 3.5024a6.1774 6.1774 0 0 1-0.38825 2.2385 10.362 10.362 0 0 1-0.58481 1.3304h-24.716v11.159h20.889q3.8281 0 3.8273 3.5024a6.6718 6.6718 0 0 1-0.35576 2.2385 5.2219 5.2219 0 0 1-0.61731 1.3304h-23.743v12.132h25.301v7.0714h-33.152z"/>
  <path transform="translate(-82.51 -84.017)" d="m712.79 129.69a3.7864 3.7864 0 0 1 1.038-2.9842 5.5645 5.5645 0 0 1 2.5309-1.2314q0.97226-0.19494 3.6323-0.42236 2.6609-0.22662 7.7211-0.22743 10.183 0 15.246 3.8922a13.902 13.902 0 0 1 2.8217 18.295 14.609 14.609 0 0 1-6.1308 4.737q1.3621 1.8811 2.7567 4.1522 1.3938 2.271 2.7567 4.7029 1.3621 2.4318 2.6284 4.8328 1.2646 2.4026 2.3669 4.542h-8.9525q-0.519-1.1038-1.6862-3.3416-1.1672-2.2369-2.5309-4.7354-1.3621-2.4976-2.7242-4.802-1.3621-2.3003-2.271-3.5349-1.1038 0.1316-2.3019 0.19494-1.2013 0.0658-2.2385 0.065-2.271 0-4.2821-0.16245-2.0103-0.16081-2.8542-0.2924v16.609h-7.5262zm7.5262 17.064q0.8431 0.12915 2.5293 0.32327a45.55 45.55 0 0 0 4.8669 0.19494 25.048 25.048 0 0 0 5.8709-0.58319 11.201 11.201 0 0 0 3.8273-1.6228 5.8436 5.8436 0 0 0 2.0761-2.4968 8.1717 8.1717 0 0 0 0.61568-3.2116 7.9671 7.9671 0 0 0-0.58319-3.0491 6.1848 6.1848 0 0 0-2.0111-2.5309 10.908 10.908 0 0 0-3.8598-1.7512 24.321 24.321 0 0 0-6.1308-0.64817q-3.2457 0-4.9628 0.13a17.167 17.167 0 0 0-2.2385 0.25829z"/>
  <path transform="translate(-82.51 -84.017)" d="m757.37 129.88q0-4.4105 4.737-4.4105h24.911q3.8939 0 3.8922 3.5024a6.1771 6.1771 0 0 1-0.38825 2.2385 10.359 10.359 0 0 1-0.58481 1.3304h-24.716v11.159h20.889q3.8281 0 3.8273 3.5024a6.6718 6.6718 0 0 1-0.35576 2.2385 5.2224 5.2224 0 0 1-0.6173 1.3304h-23.743v12.132h25.301v7.0714h-33.152z"/>
 </g>
 <path d="m146.37 1.6495h3e-3v18.358a23.877 23.877 0 0 1-23.877 23.877h-3e-3v-18.358a23.877 23.877 0 0 1 23.877-23.877z" fill="url(#i)" style="isolation:isolate"/>
 <path d="m84.751 42.6a156.8 156.8 0 0 0 21.104 10.444l9.2027-23.156v-28.239c-9.1262 1.1246-19.414 13.309-22.583 22.121l-7.7242 18.829z" fill="#184b7f" style="isolation:isolate"/>
 <path d="m122.49 59.011-5.1e-4 10.268v33.61a23.879 23.879 0 0 0 23.88 23.88v-61.625a194.87 194.87 0 0 1-23.879-6.1332z" fill="url(#c)" style="isolation:isolate"/>
 <path d="m226.13 65.66c-12.474 4.3652-32.177 5.4825-48.437 3.5945v-3e-3c-6.6837-0.53748-14.848-1.4448-23.88-2.9638v60.371a23.88 23.88 0 0 0 23.88-23.88v-9.656c9.9758 0.54 18.709 0.59876 24.495 0.59876 16.779 0 34.08-3.5403 46.728-13.31a41.374 41.374 0 0 0 16.537-32.649 142.44 142.44 0 0 1-39.323 17.897z" fill="url(#h)" style="isolation:isolate"/>
 <path d="m177.69 69.251v-27.152c0-10.662 4.4959-17.905 11.243-18.311l41.609 1.8e-4c5.0618 0.39829 8.8199 4.6862 10.328 11.375a72.857 72.857 0 0 1 0.73476 11.278c0 6.4405-2.3166 11.23-7.2907 15.073a29.39 29.39 0 0 1-8.187 4.1462 142.44 142.44 0 0 0 39.323-17.897c0.0118-0.4404 0.0344-0.87669 0.0344-1.3215a109.49 109.49 0 0 0-0.49858-11.268h0.0673c-0.0975-0.79486-0.21755-1.577-0.34815-2.353a49.741 49.741 0 0 0-3.6444-13.463c-5.1568-11.619-15.052-18.398-28.055-19.357l-46.715-3e-5c-13.003 0.95907-22.899 7.7384-28.055 19.357a49.233 49.233 0 0 0-3.5698 12.994 54.907 54.907 0 0 0-0.81723 7.8356h-0.0368v26.101c9.0313 1.5189 17.196 2.4263 23.88 2.9637z" fill="#184b7f" style="isolation:isolate"/>
 <path d="m55.144 126.65h4.7698a24.615 24.615 0 0 0 23.162-16.285l22.779-57.316a156.8 156.8 0 0 1-21.104-10.444h-9e-5l-23.851 58.142a3.0706 3.0706 0 0 1-2.5862 2.0115h-1.5682a3.0706 3.0706 0 0 1-2.5863-2.0115l-31.957-77.997c-3.1686-8.8117-13.075-19.971-22.202-21.096v28.239l31.982 80.471a24.615 24.615 0 0 0 23.162 16.285z" fill="url(#g)" style="isolation:isolate"/>
</svg>
