<svg width="516.49pt" height="338.25pt" version="1.1" viewBox="0 0 516.49 338.25" xmlns="http://www.w3.org/2000/svg">
 <g transform="translate(1.09e-7 -199.8)" fill="#fff">
  <g transform="matrix(.62866 0 0 .62866 -6.8947e-8 199.8)">
   <path d="m567.23 200.52 2.8e-4 22.837h42.718v112.33h24.688v-112.33h42.719v-22.837z" stroke-width=".99507"/>
   <path d="m689.6 200.52 55.278 135.17h21.417l55.279-135.17h-26.352l-39.636 98.938-39.636-98.938h-0.16766z" stroke-width=".98694"/>
  </g>
  <g transform="matrix(.62866 0 0 .62866 -6.8947e-8 199.8)">
   <path d="m155.48 200.78h109.95v22.808l-74.745 86.795h74.81l0.0366 25.567h-112.35v-22.821l74.531-86.742h-72.229z"/>
   <path d="m349.28 201.47 51.495 0.0586v25.52h-73.729v28.931h73.729v25.624h-73.729v29.147h73.729v25.89h-102.88v-135.11z"/>
   <path d="m488.54 200.52-51.381 0.0571v135.11l91.607-2.1e-4c2.1843-8.538 3.9482-17.178 5.2852-25.89h-67.745v-29.147h70.607c0.27765-3.8718 0.47153-7.7492 0.58155-11.629-0.0435-4.6681-0.2088-9.3342-0.49507-13.994h-70.693v-28.932l67.619 1.9e-4c-1.3987-8.5938-3.2133-17.115-5.4375-25.532z"/>
  </g>
  <path transform="matrix(.75 0 0 .75 0 -.001353)" d="m225.27 266.4a225.27 225.5 0 0 0-225.27 225.5 225.27 225.5 0 0 0 225.27 225.5 225.27 225.5 0 0 0 218.06-169.62h-9.8867a215.78 216 0 0 1-208.17 160.12 215.78 216 0 0 1-215.78-216 215.78 216 0 0 1 215.78-216 215.78 216 0 0 1 208.01 158.62h9.5644a225.27 225.5 0 0 0-217.57-168.12z" stroke-width=".83821"/>
 </g>
</svg>
