<svg width="516.49pt" height="338.25pt" version="1.1" viewBox="0 0 516.49 338.25" xmlns="http://www.w3.org/2000/svg">
 <defs>
  <linearGradient id="linearGradient1026" x1="-3.1075e-5" x2="516.49" y1="-.0013581" y2="338.25" gradientUnits="userSpaceOnUse">
   <stop stop-color="#ab19a8" offset="0"/>
   <stop stop-color="#ec326f" offset="1"/>
  </linearGradient>
 </defs>
 <g fill="url(#linearGradient1026)">
  <path d="m356.6 126.06 1.8e-4 14.357h26.855v70.618h15.52v-70.618h26.856v-14.357z" stroke-width=".62556"/>
  <path d="m433.53 126.06 34.751 84.976h13.464l34.752-84.976h-16.566l-24.918 62.199-24.918-62.199h-0.1054z" stroke-width=".62045"/>
  <path d="m97.744 126.22h69.121v14.339l-46.989 54.565h47.03l0.023 16.073h-70.63v-14.347l46.855-54.531h-45.408z" stroke-width=".62866"/>
  <path d="m219.58 126.66 32.373 0.0368v16.043h-46.351v18.188h46.351v16.109h-46.351v18.324h46.351v16.276h-64.677v-84.939z" stroke-width=".62866"/>
  <path d="m307.13 126.06-32.301 0.0359v84.939l57.59-1.3e-4c1.3732-5.3675 2.4821-10.799 3.3226-16.276h-42.589v-18.324h44.388c0.17455-2.434 0.29644-4.8716 0.3656-7.3107-0.0273-2.9347-0.13126-5.8681-0.31123-8.7975h-44.442v-18.188l42.51 1.2e-4c-0.87931-5.4026-2.0201-10.759-3.4184-16.051z" stroke-width=".62866"/>
  <path d="m168.95-0.001353a168.95 169.12 0 0 0-168.95 169.12 168.95 169.12 0 0 0 168.95 169.13 168.95 169.12 0 0 0 163.54-127.22h-7.4151a161.84 162 0 0 1-156.13 120.09 161.84 162 0 0 1-161.84-162 161.84 162 0 0 1 161.84-162 161.84 162 0 0 1 156.01 118.96h7.1734a168.95 169.12 0 0 0-163.18-126.09z" stroke-width=".62866"/>
 </g>
</svg>
