<svg version="1.1" viewBox="0 0 525.6 454.74" xmlns="http://www.w3.org/2000/svg">
 <defs>
  <linearGradient id="a" x1="263.46" x2="263.46" y1="15.903" y2="305.72" gradientUnits="userSpaceOnUse">
   <stop stop-color="#f00" offset="0"/>
   <stop stop-color="#a90000" offset=".47505"/>
   <stop stop-color="#f00" offset="1"/>
  </linearGradient>
 </defs>
 <g transform="translate(-274.42 262.93)" fill="#e20001" fill-rule="evenodd" stroke-width="3.5088">
  <path d="m290.66 174.76c-11.066 0-16.233-2.0842-16.233-12.997v-13.49h15.74v8.8288c0 3.4332 0.49351 3.5548 5.1674 3.5548h30.992c4.546 0 5.0397-0.12158 5.0397-3.5548v-15.823c0-3.5548-0.85927-3.6765-5.0397-3.6765h-21.766v-14.103h21.644c4.546 0 5.0397-0.12158 5.0397-3.5548v-15.944c0-3.5548-0.85927-3.6765-5.0397-3.6765h-30.87c-4.3021 0-5.1674 0.12158-5.1674 3.6765v8.7074h-15.74v-13.49c0-10.913 5.1674-12.997 16.233-12.997h40.092c11.072 0 16.233 2.0842 16.233 12.997v20.113c0 6.6232-1.7185 9.9348-5.7769 11.649 4.0583 1.5979 5.7769 5.0253 5.7769 11.527v19.256c0 10.913-5.1614 12.997-16.233 12.997z"/>
  <path d="m421.83 141.29c0-3.5548-0.85927-3.6821-5.1674-3.6821h-35.66v23.06h35.66c4.552 0 5.1674-0.12158 5.1674-3.5607zm0-37.277c0-3.5607-0.85927-3.6821-5.1674-3.6821h-35.66v23.181h35.66c4.552 0 5.1674-0.12737 5.1674-3.5548zm-56.572 70.758v-88.545h55.958c11.072 0 16.233 2.0842 16.233 12.997v20.119c0 6.6176-1.7244 9.9292-5.9046 11.649 4.1804 1.5921 6.0267 5.0253 6.0267 11.527v19.25c0 10.919-5.1614 13.003-16.233 13.003z"/>
  <path d="m471.48 137.49v23.176h50.667v14.103h-66.408v-88.538h66.408v14.103h-50.667v23.054h41.078v14.103z"/>
  <path d="m550.85 174.76c-11.066 0-16.233-2.0842-16.233-12.997v-13.49h15.74v8.8288c0 3.4332 0.49352 3.5548 5.1674 3.5548h30.992c4.546 0 5.0397-0.12158 5.0397-3.5548v-15.823c0-3.5548-0.8593-3.6765-5.0397-3.6765h-21.772v-14.103h21.65c4.546 0 5.0397-0.12158 5.0397-3.5548v-15.944c0-3.5548-0.85927-3.6765-5.0397-3.6765h-30.87c-4.3021 0-5.1674 0.12158-5.1674 3.6765v8.7074h-15.74v-13.49c0-10.913 5.1674-12.997 16.233-12.997h40.092c11.072 0 16.233 2.0842 16.233 12.997v20.113c0 6.6232-1.7185 9.9348-5.7769 11.649 4.0583 1.5979 5.7769 5.0253 5.7769 11.527v19.256c0 10.913-5.1614 12.997-16.233 12.997z"/>
  <path d="m686.25 100.33h-33.326l-8.9818 52.73c-0.60962 3.3116-1.225 5.7664-2.2121 7.6015h44.52zm9.5913 91.485v-17.05h-64.074v17.05h-15.618v-31.153h4.552c6.6418 0 6.8857-2.6979 7.5011-6.2527l10.822-68.183h62.965v74.436h9.5913v31.153z"/>
  <path d="m760.67 101.31-12.79 41.695h25.581zm22.626 73.457-5.2892-17.415h-34.551l-5.2892 17.415h-16.849l28.896-88.538h20.907l28.902 88.538z"/>
 </g>
 <g fill="url(#a)" fill-rule="evenodd" stroke-width="5.0395">
  <path d="m282.61 150.61h115.05l36.273-26.708h-130.41l-40.735-123.91-40.718 123.91h-130.42l36.273 26.708h114.06l20.805-62.223z"/>
  <path d="m196.68 201.1-39.659 123.51 105.77-76.061 105.78 76.061-39.651-123.51 31.879-23.407h-69.545l24.007 75.25-52.466-38.774-54.961 38.774 25.124-75.25h-68.159z"/>
 </g>
 <path d="m282.61 150.61h115.05l-36.867 27.072h-69.544l24.007 75.252-52.466-38.773-54.959 38.773 25.124-75.252h-68.16l-36.864-27.072h114.06l20.805-62.222z" fill="#fff" fill-rule="evenodd" stroke-width="1.4362"/>
</svg>
