<?xml version="1.0" encoding="UTF-8"?>
<!-- Generator: Adobe Illustrator 16.0.0, SVG Export Plug-In . SVG Version: 6.00 Build 0)  -->
<svg id="Layer_1" width="426.25" height="426.19" enable-background="new 0 0 595.277 841.891" version="1.1" viewBox="0 0 426.25 426.19" xml:space="preserve" xmlns="http://www.w3.org/2000/svg" xmlns:cc="http://creativecommons.org/ns#" xmlns:dc="http://purl.org/dc/elements/1.1/" xmlns:rdf="http://www.w3.org/1999/02/22-rdf-syntax-ns#"><metadata id="metadata28"><rdf:RDF><cc:Work rdf:about=""><dc:format>image/svg+xml</dc:format><dc:type rdf:resource="http://purl.org/dc/dcmitype/StillImage"/><dc:title/></cc:Work></rdf:RDF></metadata><g id="g21" transform="translate(-84.513 -199.87)"><linearGradient id="SVGID_1_" x1="1.9961" x2="2.9961" y1="841.89" y2="841.89" gradientTransform="matrix(196.53 -243.41 243.41 196.53 -205117 -164437)" gradientUnits="userSpaceOnUse"><stop id="stop2" stop-color="#8AE4DC" offset="0"/><stop id="stop4" stop-color="#97F040" offset="1"/></linearGradient><rect id="rect7" x="84.513" y="199.87" width="426.25" height="426.19" clip-rule="evenodd" fill="url(#SVGID_1_)" fill-rule="evenodd"/><path id="path9" d="m156.58 376.99c0-11.579 2.89-19.32 12.57-31.89l26.09-32.86c3.881-5.8 5.8-8.71 5.8-13.54v-20.311c0-3.86-1.919-5.8-5.8-5.8h-1.94c-3.86 0-5.8 1.94-5.8 5.8v27.081h-30.92v-30.941c0-20.289 10.651-29.949 29.992-29.949h16.429c20.29 0 29.929 9.66 29.929 29.949v25.141c0 11.621-2.869 19.319-12.55 31.911l-26.089 32.859c-3.881 5.779-5.8 8.711-5.8 13.52v1.961h44.439v28.979h-76.35z" fill="#fff"/><path id="path11" d="m291.94 355.73v-69.58l-20.31 69.58zm0 53.169v-25.119h-47.37v-32.881l31.89-104.4h44.481v109.23h13.54v28.051h-13.54v25.119z" fill="#fff"/><path id="path13" d="m204.92 550.06v-88.941c0-6.748-2.911-9.701-9.681-9.701h-5.8v107.33h5.8c6.77 0 9.681-2.91 9.681-8.689zm-48.341 36.718v-162.42h45.43c23.221 0 34.8 10.63 34.8 34.843v92.759c0 23.221-11.579 34.82-34.8 34.82z" fill="#fff"/><path id="path15" d="m301.58 553.92v-97.652c0-3.86-1.919-5.8-5.779-5.8h-4.83c-3.881 0-5.8 1.939-5.8 5.8v97.652c0 3.838 1.919 5.8 5.8 5.8h4.83c3.86 0 5.779-1.962 5.779-5.8zm-49.269 3.838v-105.35c0-19.34 10.63-29.948 29.95-29.948h21.28c20.311 0 29.95 10.608 29.95 29.948v105.35c0 20.311-9.64 29.992-29.95 29.992h-21.28c-19.32 0-29.95-9.682-29.95-29.992z" fill="#fff"/><path id="path17" d="m348.97 557.76v-105.35c0-19.34 10.651-29.948 30.961-29.948h19.32c20.331 0 29.97 10.608 29.97 29.948v30.92h-31.89v-27.06c0-3.86-1.94-5.8-5.8-5.8h-3.901c-3.839 0-5.778 1.939-5.778 5.8v97.652c0 3.838 1.939 5.8 5.778 5.8h3.901c3.859 0 5.8-1.962 5.8-5.8v-31.91h31.89v35.749c0 20.311-9.639 29.992-29.97 29.992h-19.32c-20.31 0-30.961-9.682-30.961-29.992z" fill="#fff"/><rect id="rect19" x="350.91" y="383.78" width="79.302" height="25.119" fill="#fff"/></g></svg>
