<?xml version="1.0" encoding="UTF-8"?>
<!-- Generator: Adobe Illustrator 16.0.0, SVG Export Plug-In . SVG Version: 6.00 Build 0)  -->
<svg id="Layer_1" width="273.63" height="343.17" enable-background="new 0 0 595.277 841.891" version="1.1" viewBox="0 0 273.63 343.17" xml:space="preserve" xmlns="http://www.w3.org/2000/svg" xmlns:cc="http://creativecommons.org/ns#" xmlns:dc="http://purl.org/dc/elements/1.1/" xmlns:rdf="http://www.w3.org/1999/02/22-rdf-syntax-ns#"><metadata id="metadata28"><rdf:RDF><cc:Work rdf:about=""><dc:format>image/svg+xml</dc:format><dc:type rdf:resource="http://purl.org/dc/dcmitype/StillImage"/><dc:title/></cc:Work></rdf:RDF></metadata><g id="g21" transform="translate(-156.58 -244.58)"><linearGradient id="SVGID_1_" x1="1.9961" x2="2.9961" y1="841.89" y2="841.89" gradientTransform="matrix(196.53 -243.41 243.41 196.53 -205202 -164637)" gradientUnits="userSpaceOnUse"><stop id="stop2" stop-color="#8AE4DC" offset="0"/><stop id="stop4" stop-color="#97F040" offset="1"/></linearGradient><path id="rect7" transform="translate(84.513 199.87)" d="m102.06 44.713h16.428c20.29 0 29.93 9.6602 29.93 29.949v25.141c0 11.621-2.8698 19.32-12.551 31.912l-26.088 32.857c-3.881 5.779-5.8008 8.7125-5.8008 13.521v1.9609h44.439v28.979h-76.35v-31.91c0-11.579 2.8903-19.321 12.57-31.891l26.09-32.859c3.881-5.8 5.7988-8.711 5.7988-13.541v-20.311c0-3.86-1.9178-5.7988-5.7988-5.7988h-1.9414c-3.86 0-5.7988 1.9388-5.7988 5.7988v27.082h-30.92v-30.941c0-20.289 10.651-29.949 29.992-29.949zm89.889 1.918h44.482v109.23h13.539v28.051h-13.539v25.119h-29.002v-25.119h-47.369v-32.881zm15.48 39.652-20.311 69.58h20.311zm58.971 97.631h79.303v25.119h-79.303zm-68.65 38.682h21.279c20.311 0 29.951 10.607 29.951 29.947v105.35c0 20.311-9.6412 29.992-29.951 29.992h-21.279c-19.32 0-29.949-9.6822-29.949-29.992v-105.35c0-19.34 10.629-29.947 29.949-29.947zm97.672 0h19.32c20.331 0 29.971 10.607 29.971 29.947v30.92h-31.891v-27.061c0-3.86-1.9408-5.7988-5.8008-5.7988h-3.9004c-3.839 0-5.7773 1.9378-5.7773 5.7988v97.652c0 3.838 1.9383 5.8008 5.7773 5.8008h3.9004c3.859 0 5.8008-1.9628 5.8008-5.8008v-31.91h31.891v35.75c0 20.311-9.6397 29.992-29.971 29.992h-19.32c-20.31 0-30.961-9.6822-30.961-29.992v-105.35c0-19.34 10.651-29.947 30.961-29.947zm-223.35 1.8965h45.43c23.221 0 34.801 10.631 34.801 34.844v92.758c0 23.221-11.58 34.82-34.801 34.82h-45.43zm134.39 26.111c-3.881 0-5.8008 1.9398-5.8008 5.8008v97.652c0 3.838 1.9198 5.7988 5.8008 5.7988h4.8281c3.86 0 5.7793-1.9608 5.7793-5.7988v-97.652c0-3.86-1.9193-5.8008-5.7793-5.8008zm-101.53 0.95117v107.33h5.8008c6.77 0 9.6797-2.9105 9.6797-8.6895v-88.939c0-6.748-2.9097-9.7012-9.6797-9.7012z" clip-rule="evenodd" fill="url(#SVGID_1_)" fill-rule="evenodd"/></g></svg>
