<?xml version="1.0" encoding="UTF-8"?>
<!-- Created with Inkscape (http://www.inkscape.org/) -->
<svg id="svg3081" width="218.45" height="65.547" version="1.1" viewBox="0 0 204.8 61.45" xmlns="http://www.w3.org/2000/svg" xmlns:cc="http://creativecommons.org/ns#" xmlns:dc="http://purl.org/dc/elements/1.1/" xmlns:rdf="http://www.w3.org/1999/02/22-rdf-syntax-ns#">
 <metadata id="metadata3086">
  <rdf:RDF>
   <cc:Work rdf:about="">
    <dc:format>image/svg+xml</dc:format>
    <dc:type rdf:resource="http://purl.org/dc/dcmitype/StillImage"/>
    <dc:title/>
   </cc:Work>
  </rdf:RDF>
 </metadata>
 <g id="layer1" transform="translate(-187.03 -379.64)" fill="#fff">
  <path id="path316" d="m187.03 441.09s0.12379-27.761 0-27.197c0.30127-7.6015 5.3667-10.625 10.501-11.074 0.28581-0.0249 35.494 0 35.494 0v-7.7175h-45.996v-15.334h50.782c10.169 0.3019 10.54 11.012 10.54 11.012v27.367l-45.996 5e-3v7.6092h45.996v15.327h-61.322z"/>
  <path id="path316-5" d="m330.51 440.96s0.12379-27.761 0-27.197c0.30127-7.6015 5.3667-10.625 10.494-11.074 0.28582-0.0249 35.494 0 35.494 0v-7.7175h-45.988v-15.334s50.543-5e-3 50.79 0c10.161 0.30127 10.532 11.012 10.532 11.012v27.367l-45.996 5e-3v7.6092h45.988l5e-3 15.327h-61.322z"/>
  <path id="path316-3" d="m321.56 436.99-24.297-26.114 24.057-26.045-13.943-0.0618-0.07 0.0309c-0.22393-0.0309-0.43304-0.0433-0.67277-0.0433-1.6394 0-3.1009 0.75781-4.0753 1.9255l-0.0371 0.0185-13.881 14.971-13.803-14.971c-0.96662-1.1754-2.4436-1.9332-4.0985-1.9332-0.0128 0-0.0371 5e-3 -0.062 5e-3l-0.0249-0.0249-14.901-0.0373 24.343 26.168-23.988 25.975 14.499 0.12379 0.0371-0.0249h0.0774c1.7012 0 3.2092-0.79648 4.1758-2.0492l13.741-14.731 13.919 14.932h5e-3c0.96662 1.1445 2.405 1.8714 4.0289 1.8714 0.0433 0 0.0927 0 0.1472-0.0128l0.0433 0.0309h14.77z"/>
 </g>
</svg>
