<svg id="a" width="1676.5" height="1075.9" clip-rule="evenodd" fill-rule="evenodd" image-rendering="optimizeQuality" shape-rendering="geometricPrecision" text-rendering="geometricPrecision" space="preserve" version="1.1" viewBox="0 0 47316 30364" xmlns="http://www.w3.org/2000/svg">
 <link id="b" href="" rel="stylesheet" type="text/css"/>
 <style id="c" type="text/css"/>
 <defs id="d">
  <style id="e" type="text/css"><![CDATA[
    .fil0 {fill:#2B2A29}
   ]]></style>
 </defs>
 <g id="f" transform="matrix(325.87 0 0 325.87 -60.958 0)">
  <rect id="g" class="st8" x="121.19" y="62" width="24.2" height="5.2" fill="#0000f2"/>
  <rect id="h" class="st9" x="96.987" y="62" width="24.2" height="5.2" fill="#d30100" stroke-width=".99794"/>
  <rect id="i" class="st10" x="72.787" y="62" width="24.2" height="5.2" fill="#d300f2" stroke-width="1.0021"/>
  <rect id="j" class="st11" x="48.587" y="62" width="24.2" height="5.2" fill="#88ff3c"/>
  <rect id="k" class="st12" x="24.387" y="62" width="24.2" height="5.2" fill="#8ff" stroke-width=".99794"/>
  <rect id="l" class="st13" x=".18655" y="62" width="24.2" height="5.2" fill="#ffff3c" stroke-width="1.0021"/>
 </g>
 <g id="m" transform="matrix(325.87 0 0 325.87 2.016 0)" fill="#fff">
  <path id="n" class="st14" d="m34.721 38.106c-0.78815 8.277-8.5122 13.394-17.134 13.394-10.9 0-15.8-5.8-17.5-11.8-0.2-0.8-0.1-1.4 0.8-1.7l5.2-1.9c1.1-0.5 1.9-0.1 2.2 0.9 1.3 3.6 3.8 6 9 6 4.6 0 7.7-2.5 7.7-6.4v-0.3c0-4.5-3-7-7.7-7h-3.8c-0.5 0-0.7-0.3-0.7-0.7v-6.4c0-0.4 0.1-0.8 0.7-0.8h3.8c4.5 0 7.2-2.3 7.2-5.8v-0.7c0-2.9-1.9-5.7-7-5.7-4.8 0-7 1.7-8.5 5.4-0.3 0.7-0.9 0.9-1.6 0.7l-5.6-1.9c-0.6-0.2-0.9-0.7-0.6-1.5 2.3-7.5 8.6-11.1 16.5-11.1 10.8 0 16.6 5.3 16.6 13.5v0.7c0 5.2-3.1 9-7.2 10.3 3.426 0.97885 6.4527 3.5546 7.452 7.5644 0.43106 2.1386 0.29146 3.4799 0.18193 5.242z"/>
  <path id="o" class="st14" d="m76.487 35.4c0 9-6.8 16.1-17.4 16.1-12.1 0-18.2-7-18.2-17.4v-15.6c0-9.9 6.6-17.7 18.2-17.7 11.2 0 14.5 6.6 15.8 9.9 0.3 0.9-0.3 1.3-1 1.6l-6.1 2.1c-0.7 0.3-1.1-0.1-1.6-1.1-0.9-2.3-3.1-4-7-4-5.4 0-8.6 3-8.6 9.4v2.5l0.1 0.1c2.3-2.1 5.2-3.6 10-3.6 9.5 0 15.8 6.1 15.8 16.1zm-10.03-4.0586c-0.88875-3.5833-3.5342-5.8414-7.47-5.8414-5.2 0-8.4 3.4-8.4 8.7v0.5c0 4.9 2.9 8.3 8.5 8.3 4.5917 0 7.4272-3.0734 7.7658-7.41 0.05961-1.4171-0.06969-2.9043-0.39582-4.2487z"/>
  <path id="p" class="st14" d="m118.29 34.2c0 10.4-4.7 17.2-17.9 17.2-13.1 0-17.8-6.8-17.8-17.3v-16.1c0-10.4 4.7-17.2 17.8-17.2 13.2 0 17.9 6.8 17.9 17.2zm-9.7-15c0-6.3-1.2-9.9-8.2-9.9-5.9 0-8.2 3.6-8.2 9.9v13.8c0 6.3 2.3 10 8.2 10 7 0 8.2-3.7 8.2-9.9z"/>
  <path id="q" class="st14" d="m133.39 22.8c-6.8 0-11.7-4.8-11.7-11.3 0-6.7 5.1-11.5 11.7-11.5s11.8 4.4 11.8 11.5c0 6.4-5.2 11.3-11.8 11.3m5.7-11.3c0-3.5-2.3-5.6-5.6-5.6-3.2 0-5.5 2.4-5.5 5.6 0 3 2.1 5.4 5.5 5.4 3 0 5.6-2.5 5.6-5.4"/>
 </g>
 <path id="r" d="m9356 24307c-761.2 0-1309.1 191.48-1643.8 574.5-329.31 383.02-494.01 933.94-494.01 1652.8v1833.8c0 577.15 186.27 1031.1 558.77 1361.6 377.9 330.55 904.27 495.8 1579 495.8 761.2 0 1306.5-188.86 1635.8-566.64 334.71-377.77 502.04-928.7 502.04-1652.8v-1825.9c0-571.91-191.64-1025.7-574.94-1361.5-377.9-341.05-898.89-511.56-1562.9-511.56zm14256 0c-761.2 0-1309.1 191.48-1643.8 574.5-329.31 383.02-493.96 933.94-493.96 1652.8v1833.8c0 577.15 186.21 1031.1 558.71 1361.6 377.9 330.55 904.27 495.8 1579 495.8 761.2 0 1306.5-188.86 1635.8-566.64 334.71-377.77 502.05-928.7 502.05-1652.8v-1825.9c0-571.91-191.64-1025.7-574.94-1361.5-377.9-341.05-898.89-511.56-1562.9-511.56zm7206.2 0c-631.64 0-1128.3 167.91-1490 503.71s-542.54 794.9-542.54 1377.3v2156.5c0 1254 669.45 1881 2008.3 1881 469.67 0 871.82-120.66 1206.5-362.02 334.71-246.6 553.4-532.56 655.97-857.87 37.791-120.67 16.173-194.1-64.806-220.34l-396.8-149.55c-102.58-31.481-170.06-0.02-202.44 94.422-70.182 251.85-207.83 456.5-412.98 613.9-199.75 157.4-458.86 236.11-777.39 236.11-426.49 0-745.02-112.83-955.57-338.44-205.15-230.86-307.69-548.29-307.69-952.3v-2062c0-409.26 113.35-724.07 340.09-944.43 226.74-220.37 537.16-330.59 931.26-330.59 615.44 0 1015 280.74 1198.5 842.15 21.594 99.691 80.956 133.76 178.13 102.28l412.98-141.63c86.376-31.481 113.37-97.067 80.979-196.75-124.16-388.27-342.8-692.63-655.92-913-313.11-225.62-715.32-338.39-1206.6-338.39zm-30582 165.27c-64.783 0-97.153 26.234-97.153 78.703v5587.9c0 57.714 32.369 86.561 97.153 86.561h558.77c64.784 0 97.208-28.847 97.208-86.561v-2487h2680.4v2487c0 57.714 32.369 86.561 97.153 86.561h550.68c64.782 0 97.153-28.847 97.153-86.561v-5587.9c0-52.469-32.369-78.703-97.153-78.703h-558.77c-59.385 0-89.065 26.234-89.065 78.703v2455.5h-2680.4v-2455.5c0-52.469-32.424-78.703-97.208-78.703zm14381 0v5753.1h1975.9c561.45 0 993.34-136.4 1295.6-409.24 307.72-278.09 461.56-640.14 461.56-1086.2v-173.12c0-346.3-97.164-637.49-291.51-873.59-194.35-241.35-439.97-385.64-736.9-432.87 259.14-68.209 469.7-212.5 631.66-432.87s242.94-477.49 242.94-771.31v-173.12c0-430.24-145.77-771.29-437.3-1023.1-291.52-251.85-707.22-377.79-1247.1-377.79zm21237 0c-59.384 0-89.067 31.459-89.067 94.422v440.78c0 68.21 29.683 102.28 89.067 102.28h1635.8v5029.1c0 57.714 26.993 86.561 80.98 86.561h574.94c59.383 0 89.065-28.847 89.065-86.561v-5029.1h1652c53.987 0 80.979-34.073 80.979-102.28v-440.78c0-62.963-26.992-94.422-80.979-94.422zm7046.8 0c-59.383 0-89.066 28.847-89.066 86.563v5556.4c0 73.458 37.803 110.19 113.39 110.19h825.96c59.386 0 102.56-28.847 129.55-86.561l1595.3-3014.4c32.391-68.21 180.85-351.51 445.38-849.96s448.05-850.01 550.62-1054.6h24.316c-26.992 341.05-40.489 891.96-40.489 1652.8v3266.2c0 57.714 26.992 86.561 80.979 86.561h550.62c59.387 0 89.121-28.847 89.121-86.561v-5572.2c0-62.963-35.112-94.422-105.29-94.422h-825.96c-48.586 0-91.819 28.847-129.61 86.563l-1773.3 3242.6c-485.87 944.43-761.23 1487.4-826.02 1629.1h-24.26c26.992-330.55 40.49-821.11 40.49-1471.8v-3400c0-57.716-29.736-86.563-89.123-86.563zm-33546 480.08c442.69 0 785.53 115.44 1028.5 346.31 242.94 230.86 364.41 545.68 364.41 944.43v2062c0 398.76-121.47 710.96-364.41 936.58s-585.78 338.44-1028.5 338.44c-442.69 0-785.47-112.83-1028.4-338.44-237.54-230.86-356.32-545.68-356.32-944.43v-2062c0-398.76 118.78-710.96 356.32-936.58 242.94-230.86 585.72-346.31 1028.4-346.31zm14256 0c442.69 0 785.53 115.44 1028.5 346.31 242.94 230.86 364.41 545.68 364.41 944.43v2062c0 398.76-121.47 710.96-364.41 936.58s-585.78 338.44-1028.5 338.44c-442.69 0-785.47-112.83-1028.4-338.44-237.54-230.86-356.32-545.68-356.32-944.43v-2062c0-398.76 118.78-710.96 356.32-936.58 242.94-230.86 585.72-346.31 1028.4-346.31zm-8241.2 141.69h947.43c761.2 0 1141.7 296.42 1141.7 889.31v110.19c0 288.58-94.476 508.96-283.43 661.12-183.55 146.92-437.24 220.39-761.15 220.39h-1044.6zm0 2471.3h1109.4c356.3 0 631.67 83.928 826.02 251.83 194.35 167.9 294.2 411.9 299.6 731.96 0 388.27-97.164 658.45-291.51 810.61-194.35 152.16-496.71 228.25-906.99 228.25h-1036.5z" fill="#fff" font-size="8077.5px" letter-spacing="0px" stroke="#fff" stroke-linecap="square" stroke-width="277.68" text-align="end" word-spacing="0px"/>
</svg>
