<?xml version="1.0" encoding="UTF-8"?>
<!-- Generator: Adobe Illustrator 16.0.0, SVG Export Plug-In . SVG Version: 6.00 Build 0)  -->
<svg id="svg10" width="232.7" height="193.79" enable-background="new 0 0 283.464 283.464" version="1.1" viewBox="0 0 232.7 193.79" xml:space="preserve" xmlns="http://www.w3.org/2000/svg" xmlns:cc="http://creativecommons.org/ns#" xmlns:dc="http://purl.org/dc/elements/1.1/" xmlns:rdf="http://www.w3.org/1999/02/22-rdf-syntax-ns#"><metadata id="metadata16"><rdf:RDF><cc:Work rdf:about=""><dc:format>image/svg+xml</dc:format><dc:type rdf:resource="http://purl.org/dc/dcmitype/StillImage"/><dc:title/></cc:Work></rdf:RDF></metadata><g id="Logo" transform="translate(-24.966 -44.838)"><g id="g6" clip-rule="evenodd" fill="#ce652e" fill-rule="evenodd"><path id="path2" d="m201.07 97.458h-41.09l-2.567 14.448c3.57-0.821 7.806-1.245 12.726-1.245 7.383 0 13.733 1.483 19.078 4.446 5.345 2.937 9.395 7.037 12.145 12.25 2.778 5.213 4.155 11.087 4.155 17.569 0 5.662-1.086 11.035-3.229 16.141-2.17 5.135-5.343 9.659-9.552 13.63-4.181 3.967-9.29 7.063-15.267 9.284-5.98 2.224-12.623 3.335-19.899 3.335-12.541 0-24.026-3.28-34.477-9.843l2.407-26.672h3.335c4.762 5.054 9.234 8.52 13.441 10.397 4.208 1.854 8.705 2.78 13.548 2.78 6.563 0 11.854-1.667 15.876-5.028 4.021-3.332 6.032-8.229 6.032-14.658 0-3.837-1.056-7.04-3.148-9.577-2.089-2.543-4.975-4.448-8.704-5.691-3.704-1.243-7.94-1.852-12.729-1.852-6.111 0-12.488 1.587-19.076 4.735h-5.239l12.224-58.901h60.011v24.452zm-84.936 66.521c4.843 0 8.654-1.588 11.485-4.765 2.832-3.201 4.259-7.168 4.259-11.905 0-4.71-1.427-8.653-4.259-11.802-2.859-3.147-6.668-4.736-11.485-4.736-4.814 0-8.599 1.589-11.378 4.763-2.777 3.151-4.181 7.092-4.181 11.775 0 4.71 1.376 8.679 4.155 11.88 2.752 3.202 6.562 4.79 11.404 4.79zm-4.63-90.972h32.891l-27.123 38.872c2.778-0.952 5.848-1.43 9.183-1.43 6.667 0 12.516 1.589 17.543 4.763 5.053 3.177 8.917 7.567 11.615 13.125 2.7 5.583 4.049 11.801 4.049 18.653 0 7.543-1.695 14.344-5.106 20.456-3.413 6.111-8.389 10.952-14.924 14.525-6.509 3.572-14.262 5.345-23.206 5.345-8.467 0-15.929-1.693-22.412-5.054-6.456-3.385-11.431-8.123-14.898-14.235-3.466-6.113-5.212-13.124-5.212-21.037 0-6.825 0.953-13.149 2.857-18.891 1.933-5.768 5.028-11.801 9.368-18.099zm-55.697 31.912h-27.785c1.879-14.183 6.828-23.575 14.819-28.179 7.964-4.604 16.379-6.909 25.19-6.909 6.722 0 12.965 1.113 18.733 3.336 5.769 2.223 10.4 5.609 13.866 10.16s5.186 10.161 5.186 16.802c0 3.837-0.661 7.329-1.958 10.504-1.296 3.202-3.202 5.822-5.663 7.912s-5.371 3.546-8.732 4.313v0.45c5.584 1.667 10.268 4.817 14.104 9.5 3.836 4.657 5.742 11.033 5.742 19.129 0 10.506-2.964 18.392-8.865 23.63-5.926 5.24-11.985 8.52-18.205 9.817-6.192 1.296-11.298 1.931-15.295 1.931-10.795 0-19.235-2.274-25.269-6.8-6.059-4.55-10.161-9.711-12.304-15.533-2.143-5.819-3.334-11.351-3.572-16.591h27.757c0 3.837 1.006 7.383 2.99 10.665 1.985 3.28 5.662 4.922 11.007 4.922 9.288 0 13.945-5.134 13.945-15.427 0-8.255-4.922-12.356-14.765-12.356-1.773 0-3.202 0.052-4.26 0.133v-19.025h3.492c2.725 0 5.531-0.82 8.415-2.46 2.858-1.667 4.288-4.975 4.288-9.923 0-4.445-1.138-7.515-3.387-9.208-2.275-1.694-4.789-2.54-7.568-2.54-3.307 0-6.139 1.111-8.44 3.359-2.302 2.223-3.466 5.028-3.466 8.388z" stroke="#fff" stroke-miterlimit="2.6131" stroke-width="1.5933"/><path id="path4" d="m242.76 64.888 0.67 0.852-13.414 13.105-0.67-0.85zm-4.046-4.293 0.303 0.277-7.724 8.458-0.3-0.277zm-4.473-3.529 0.341 0.231-7.255 8.832-0.341-0.232zm-4.999-2.888 0.379 0.186-6.737 9.137-0.375-0.186zm-5.483-2.223 0.408 0.137-6.162 9.371-0.41-0.137zm-5.933-1.544 0.442 0.086-5.541 9.536-0.442-0.087zm-13.013-1.011 0.492-0.013-4.18 9.647-0.492 0.013zm-6.982 0.544 0.513-0.064-3.452 9.593-0.511 0.062zm-7.232 1.236 0.527-0.113-2.694 9.466-0.526 0.111zm-7.424 1.924 0.538-0.163-1.917 9.267-0.538 0.16zm-15.205 5.837 0.551-0.255-0.323 8.659-0.551 0.255zm-7.663 3.872 0.55-0.3 0.48 8.256-0.552 0.298zm-7.626 4.468 0.546-0.342 0.463 2.816h-0.602zm-74.64 128.6-0.077-0.465 9.129-5.68 0.077 0.466zm1.4 6.262-0.125-0.436 8.986-6.334 0.124 0.435zm2.049 5.8-0.171-0.4 8.773-6.945 0.169 0.399zm2.685 5.296-0.215-0.362 8.493-7.504 0.215 0.363zm7.187 8.919-0.3-0.278 7.746-8.44 0.298 0.277zm4.45 3.557-0.34-0.233 7.281-8.815 0.339 0.232zm4.976 2.918-0.376-0.188 6.761-9.123 0.375 0.187zm5.463 2.255-0.41-0.138 6.19-9.363 0.41 0.14zm12.223 2.464-0.468-0.039 4.913-9.626 0.466 0.04zm6.667 0.189-0.492 0.011 4.216-9.647 0.49-0.011zm6.97-0.51-0.511 0.062 3.486-9.596 0.511-0.062zm7.223-1.206-0.527 0.111 2.729-9.473 0.527-0.11zm14.972-4.452-0.548 0.208 1.162-9.012 0.548-0.207zm7.639-3.216-0.552 0.254 0.362-8.676 0.552-0.254zm7.664-3.842-0.553 0.299-0.439-8.277 0.548-0.297zm7.629-4.441-0.547 0.339-1.239-7.813 0.543-0.339zm14.925-10.539-0.525 0.417-2.803-6.714 0.522-0.415zm7.183-6.016-0.509 0.449-3.558-6.085 0.507-0.447zm6.923-6.456-0.487 0.478-4.285-5.408 0.486-0.479zm6.61-6.848-0.46 0.505-4.98-4.692 0.461-0.504zm12.088-14.654-0.404 0.547-6.247-3.159 0.403-0.546zm5.385-7.695-0.369 0.561-6.816-2.355 0.372-0.558zm4.891-7.865-0.331 0.572-7.331-1.532 0.333-0.567zm4.357-7.97-0.292 0.575-7.788-0.697 0.293-0.573zm6.991-16.03-0.209 0.574-8.522 0.983 0.209-0.571zm2.58-7.935-0.163 0.567-8.797 1.816 0.163-0.567zm1.942-7.802-0.115 0.555-9.004 2.634 0.119-0.555zm1.291-7.608-0.07 0.538-9.141 3.432 0.069-0.538zm0.586-14.41 0.025 0.496-9.205 4.943-0.024-0.497zm-0.707-6.692 0.074 0.468-9.135 5.646-0.073-0.468zm-1.367-6.28 0.122 0.435-8.994 6.306-0.122-0.437zm-2.024-5.822 0.17 0.4-8.784 6.92-0.167-0.403zm-2.653-5.321 0.214 0.363-8.508 7.478-0.212-0.365zm-35.104-20.405 1.224 0.099-8.018 15.813-1.226-0.099zm-35.927 6.323 1.435-0.545-1.854 14.778-1.432 0.547zm-97.891 133.65-0.07-1.296 1.703-0.918h2.471zm10.299 28.668-0.672-0.848 13.396-13.127 0.672 0.847zm24.772 14.346-1.148-0.239 9.173-15.648 1.148 0.238zm34.621-2.655-1.409 0.412 3.236-15.245 1.41-0.413zm38.006-19.16-1.407 0.988-3.305-11.997 1.411-0.988zm34.295-32.085-1.145 1.378-9.224-6.51 1.144-1.378zm24.18-39.023-0.667 1.511-13.426 0.194 0.666-1.509zm9.55-38.672-0.062 1.361-15.122 6.862 0.063-1.362zm-14.003-40.144c26.46 24.425 14.838 80.712-25.869 125.3-40.709 44.587-95.492 61.031-121.95 36.605-9.239-8.529-13.83-20.948-14.163-35.394h-0.669v-11.157c-2.297 19.59 2.073 36.699 13.878 47.598 26.897 24.83 82.466 8.248 123.7-36.916 41.236-45.164 52.931-102.25 26.031-127.08-20.59-19.007-57.98-13.747-92.882 10.024h1.985c33.969-22.574 69.998-27.385 89.942-8.976zm1.931-2.117c27.249 25.156 15.404 82.988-26.368 128.74-41.772 45.751-98.067 62.552-125.32 37.398-13.42-12.389-17.352-32.708-12.901-55.602v-7.894c-7.378 26.833-4.175 51.184 11.191 65.367 27.864 25.724 85.426 8.543 128.14-38.24 42.714-46.785 54.826-105.92 26.963-131.64-22.054-20.359-62.713-13.836-99.89 12.966h2.733c35.737-24.875 74.32-30.594 95.446-11.093z"/></g></g></svg>
