<svg id="a" enable-background="new 0 0 283.464 283.464" version="1.1" viewBox="0 0 231.86 193.78" xml:space="preserve" xmlns="http://www.w3.org/2000/svg"><path id="b" d="m175.27 52.623h-41.09l-2.567 14.448c3.57-0.821 7.806-1.245 12.726-1.245 7.383 0 13.733 1.483 19.078 4.446 5.345 2.937 9.395 7.037 12.145 12.25 2.778 5.213 4.155 11.087 4.155 17.569 0 5.662-1.086 11.035-3.229 16.141-2.17 5.135-5.343 9.659-9.552 13.63-4.181 3.967-9.29 7.063-15.267 9.284-5.98 2.224-12.623 3.335-19.899 3.335-12.541 0-24.026-3.28-34.477-9.843l2.407-26.672h3.335c4.762 5.054 9.234 8.52 13.441 10.397 4.208 1.854 8.705 2.78 13.548 2.78 6.563 0 11.854-1.667 15.876-5.028 4.021-3.332 6.032-8.229 6.032-14.658 0-3.837-1.056-7.04-3.148-9.577-2.089-2.543-4.975-4.448-8.704-5.691-3.704-1.243-7.94-1.852-12.729-1.852-6.111 0-12.488 1.587-19.076 4.735h-5.239l12.224-58.901h60.011v24.452zm-84.936 66.521c4.843 0 8.654-1.588 11.485-4.765 2.832-3.201 4.259-7.168 4.259-11.905 0-4.71-1.427-8.653-4.259-11.802-2.859-3.147-6.668-4.736-11.485-4.736-4.814 0-8.599 1.589-11.378 4.763-2.777 3.151-4.181 7.092-4.181 11.775 0 4.71 1.376 8.679 4.155 11.88 2.752 3.202 6.562 4.79 11.404 4.79zm-4.63-90.972h32.891l-27.123 38.872c2.778-0.952 5.848-1.43 9.183-1.43 6.667 0 12.516 1.589 17.543 4.763 5.053 3.177 8.917 7.567 11.615 13.125 2.7 5.583 4.049 11.801 4.049 18.653 0 7.543-1.695 14.344-5.106 20.456-3.413 6.111-8.389 10.952-14.924 14.525-6.509 3.572-14.262 5.345-23.206 5.345-8.467 0-15.929-1.693-22.412-5.054-6.456-3.385-11.431-8.123-14.898-14.235-3.466-6.113-5.212-13.124-5.212-21.037 0-6.825 0.953-13.149 2.857-18.891 1.933-5.768 5.028-11.801 9.368-18.099zm-55.697 31.912h-27.785c1.879-14.183 6.828-23.575 14.819-28.179 7.964-4.604 16.379-6.909 25.19-6.909 6.722 0 12.965 1.113 18.733 3.336 5.769 2.223 10.4 5.609 13.866 10.16s5.186 10.161 5.186 16.802c0 3.837-0.661 7.329-1.958 10.504-1.296 3.202-3.202 5.822-5.663 7.912s-5.371 3.546-8.732 4.313v0.45c5.584 1.667 10.268 4.817 14.104 9.5 3.836 4.657 5.742 11.033 5.742 19.129 0 10.506-2.964 18.392-8.865 23.63-5.926 5.24-11.985 8.52-18.205 9.817-6.192 1.296-11.298 1.931-15.295 1.931-10.795 0-19.235-2.274-25.269-6.8-6.059-4.55-10.161-9.711-12.304-15.533-2.143-5.819-3.334-11.351-3.572-16.591h27.757c0 3.837 1.006 7.383 2.99 10.665 1.985 3.28 5.662 4.922 11.007 4.922 9.288 0 13.945-5.134 13.945-15.427 0-8.255-4.922-12.356-14.765-12.356-1.773 0-3.202 0.052-4.26 0.133v-19.025h3.492c2.725 0 5.531-0.82 8.415-2.46 2.858-1.667 4.288-4.975 4.288-9.923 0-4.445-1.138-7.515-3.387-9.208-2.275-1.694-4.789-2.54-7.568-2.54-3.307 0-6.139 1.111-8.44 3.359-2.302 2.223-3.466 5.028-3.466 8.388z" clip-rule="evenodd" fill="#ce652e" fill-rule="evenodd" stroke-miterlimit="2.6131"/><path id="c" d="m182.26 0.0047803c-19.906 0.23327-43.207 8.9984-65.281 24.912h2.7344c35.737-24.875 74.319-30.595 95.445-11.094l6e-3 -2e-3c27.249 25.156 15.405 82.988-26.367 128.74-41.772 45.751-98.067 62.552-125.32 37.398-9.7502-9.0011-14.487-22.191-14.645-37.51h-2.043c-0.04394 16.102 4.7892 29.978 14.977 39.381 27.864 25.724 85.427 8.5428 128.14-38.24 42.714-46.785 54.826-105.92 26.963-131.64-8.9594-8.2708-20.99-12.105-34.609-11.945zm-0.1875 3.3535c-18.44-0.14252-40.041 7.4465-60.764 21.561h1.9863c1.2002-0.79759 2.4029-1.5673 3.6074-2.3203l-0.0254-0.15234 0.54688-0.3418 0.0254 0.1582c2.3508-1.4557 4.7071-2.8225 7.0644-4.1055l-0.01-0.17969 0.54882-0.29883 0.01 0.17969c2.3674-1.2748 4.7346-2.4696 7.0957-3.5664l8e-3 -0.18555 0.55078-0.25586-8e-3 0.18555c2.2314-1.0238 4.4554-1.963 6.6699-2.8242l0.0254-0.19726 1.4355-0.54492-0.0254 0.20117c2.1854-0.81665 4.3588-1.553 6.5156-2.207l0.041-0.19531 0.53711-0.16211-0.0391 0.18945c2.314-0.68791 4.6087-1.2829 6.877-1.7793l0.0488-0.17188 0.52735-0.11328-0.0508 0.17773c2.2626-0.48104 4.4974-0.86257 6.7012-1.1484l0.0547-0.15234 0.51368-0.0625-0.0547 0.14844c2.1929-0.26983 4.3532-0.44581 6.4746-0.51758l0.0488-0.11133 0.49218-0.013672-0.0449 0.10547c1.9816-0.052659 3.9282-0.013157 5.8359 0.11133l0.0391-0.078125 1.2227 0.099609-0.041 0.080078c1.8688 0.16109 3.6975 0.41034 5.4824 0.74805l0.0254-0.042969 0.44335 0.085937-0.0215 0.037109c2.0273 0.40209 3.9985 0.91659 5.9023 1.5527l-0.39062-0.13086-6.1641 9.3711 0.41015 0.13672 6.1621-9.3711c5.5767 1.8659 10.597 4.7382 14.873 8.6855 26.455 24.427 14.832 80.711-25.873 125.3-40.709 44.587-95.491 61.031-121.95 36.605-9.239-8.529-13.829-20.949-14.162-35.395h-1.2383c0.26977 14.872 4.9467 27.67 14.447 36.441 26.897 24.83 82.465 8.248 123.7-36.916 41.236-45.164 52.931-102.25 26.031-127.08-8.3647-7.7216-19.502-11.44-32.119-11.537zm10.371 2.3398c-0.14805-0.029363-0.2986-0.051951-0.44727-0.080078l-5.5156 9.4922 0.44336 0.08789zm-5.9297-0.82812c-0.40659-0.035048-0.81042-0.074791-1.2207-0.10156l-7.9824 15.736 1.2266 0.09766zm-7.0566-0.21289c-0.16457 0.00437-0.33105 0.013947-0.49609 0.019531l-4.1309 9.5352 0.49023-0.01367zm-6.9707 0.53711c-0.17089 0.021027-0.34239 0.044188-0.51367 0.066406l-3.3965 9.4395 0.51172-0.0625zm-7.2148 1.2148c-0.17573 0.037361-0.34935 0.068895-0.5254 0.10742l-2.6445 9.293 0.52735-0.11133zm-7.4024 1.8867c-0.17927 0.053294-0.35956 0.11354-0.53906 0.16797l-1.875 9.0684 0.53711-0.16016zm-7.0547 2.375c-0.47804 0.17864-0.95642 0.35468-1.4355 0.54102l-1.8262 14.582 1.4316-0.54688zm-8.1055 3.3652c-0.18351 0.08419-0.3672 0.17058-0.55079 0.25586l-0.31445 8.4727 0.55078-0.25391zm-7.6465 3.8223c-0.18296 0.09852-0.36587 0.19925-0.54883 0.29883l0.4668 8.0742 0.55273-0.29688zm-7.6133 4.4043c-0.18235 0.11292-0.3646 0.22199-0.54688 0.33594l0.38086 2.3223h0.60352zm75.988-12.92-6.7324 9.1367 0.375 0.18555 6.7363-9.1367zm5 2.8887-7.2559 8.8301 0.3418 0.23242 7.2539-8.832zm4.4727 3.5293-7.7207 8.457 0.29883 0.27734 7.7246-8.459zm4.0469 4.293-13.414 13.105 0.66992 0.85156 13.414-13.105zm3.4785 5.043-8.5059 7.4746 0.21094 0.36524 8.5078-7.4785zm2.6523 5.3203-8.7812 6.916 0.16797 0.4043 8.7832-6.9199zm2.0234 5.8223-8.9941 6.3027 0.12304 0.4375 8.9942-6.3047zm1.3672 6.2793-9.1328 5.6465 0.0723 0.46875 9.1348-5.6465zm0.70703 6.6914-9.2031 4.9434 0.0234 0.49609 9.2051-4.9434zm0.0508 6.873-15.121 6.8613-0.0625 1.3613 15.121-6.8613zm-0.63672 7.5371-9.1406 3.4336-0.0703 0.53711 9.1406-3.4316zm-1.291 7.6094-9 2.6328-0.11914 0.55469 9.0039-2.6328zm-1.9414 7.8008-8.7969 1.8164-0.16406 0.56641 8.7988-1.8145zm-2.5801 7.9355-8.5215 0.98633-0.20899 0.57031 8.5215-0.98242zm-3.1016 7.7891-13.426 0.19531-0.66602 1.5098 13.426-0.19336zm-11.676 7.5469-0.29297 0.57226 7.7871 0.69727 0.29297-0.57617zm-3.9004 7.1367-0.33204 0.56836 7.3301 1.5312 0.33203-0.57227zm-4.375 7.041-0.3711 0.55664 6.8164 2.3555 0.36914-0.56055zm-4.8184 6.8887-0.4043 0.54493 6.248 3.1602 0.40429-0.54687zm-8.6348 3.9004-1.1445 1.377 9.2246 6.5098 1.1445-1.377zm-2.1856 9.2207-0.46093 0.5039 4.9805 4.6914 0.45899-0.50391zm-128.95 5.9609-1.7031 0.91796 0.07031 1.2949 4.1035-2.2129zm123.03 0.16796-0.48633 0.48047 4.2852 5.4082 0.48632-0.47852zm-114.89 2.2832-9.1289 5.6797 0.07617 0.46485 9.1289-5.6797zm108.69 3.5-0.50781 0.44726 3.5586 6.084 0.50977-0.44922zm-107.48 2.1367-8.9863 6.334 0.125 0.43555 8.9863-6.334zm101.05 3.25-0.52148 0.41406 2.8027 6.7148 0.52539-0.41797zm-7.6426 0.0781-1.4102 0.98828 3.3047 11.996 1.4062-0.98828zm-91.621 1.8965-8.7734 6.9453 0.16992 0.40039 8.7715-6.9473zm10.246 3.5938-13.395 13.127 0.67188 0.84765 13.396-13.127zm-7.8867 1.1816-8.4922 7.5039 0.21484 0.36133 8.4922-7.502zm83.543 2.6875-0.54297 0.33984 1.2383 7.8125 0.54687-0.33984zm-6.8301 3.9785-0.54883 0.29688 0.43945 8.2773 0.55274-0.29883zm-70.357 1.4004-7.7461 8.4414 0.30078 0.27734 7.7441-8.4414zm51.438 1.1719-1.4102 0.41406-3.2344 15.244 1.4082-0.41211zm12.062 0.86914-0.55274 0.2539-0.36133 8.6758 0.55079-0.25391zm-41.895 1.1445-9.1738 15.648 1.1484 0.24023 9.1738-15.65zm-17.66 0.041-7.2812 8.8164 0.33984 0.23242 7.2812-8.8164zm52.715 1.6953-0.54883 0.20703-1.1602 9.0117 0.54687-0.20703zm-48.295 0.96094-6.7617 9.123 0.37695 0.1875 6.7598-9.123zm4.8574 2.0644-6.1895 9.3633 0.41016 0.13867 6.1895-9.3613zm30.033 0.96679-0.52735 0.10938-2.7285 9.4727 0.52539-0.11133zm-6.4668 1.082-0.51172 0.0605-3.4844 9.5977 0.50976-0.0625zm-12.678 0.25195-4.9141 9.625 0.46875 0.0391 4.9121-9.625zm6.4355 0.20703-0.49023 0.01-4.2148 9.6484 0.49219-0.0117z" clip-rule="evenodd" fill="#ce652e" fill-rule="evenodd"/></svg>
