<svg width="537.54pt" height="364.44pt" version="1.1" viewBox="0 0 537.54 364.44" xmlns="http://www.w3.org/2000/svg">
 <g transform="translate(-184.31 -116.27)">
  <path d="m366.24 116.4c16.65-0.31 33.31 0.02 49.96 0.08l-108.22 181.92 68.2-0.02 43.66-72.79h126.97l-152.85 254.69h-127.44l54.73-90.84h-91.24c-12.22-0.07-25.41-3.14-34.09-12.33-6.54-6.26-9.79-15.14-11.13-23.92-2.19-18.5 3.24-37.16 12.28-53.19l62.61-104.31c12.4-19.56 22.47-41.36 40.59-56.5 17.95-16 42.48-21.95 65.97-22.79z" fill="#4f8ec1"/>
 </g>
 <g transform="translate(-184.31 -116.27)">
  <path d="m386.94 207.71 54.81-91.23h233.21c11.33-0.01 23.21 3.0398 31.78 10.82 9.66 8.37 14.07 21.21 14.98 33.66 0.94 17.15-3.29 34.66-12.54 49.19l-127.24 211.84c-8.57 14.83-18.79 29.12-32.5 39.63-14.4 11.09-32.48 16.35-50.37 18.03-13.63 1.51-27.35 0.93-41.02 1.04-12.99-0.07-25.99 0.15-38.97-0.1l164.29-272.88z" fill="#3f327a"/>
 </g>
</svg>
