<?xml version="1.0" encoding="UTF-8"?>
<!-- Created with Inkscape (http://www.inkscape.org/) -->
<svg id="svg4503" width="137.83mm" height="211.67mm" version="1.1" viewBox="0 0 137.83 211.67" xmlns="http://www.w3.org/2000/svg" xmlns:cc="http://creativecommons.org/ns#" xmlns:dc="http://purl.org/dc/elements/1.1/" xmlns:rdf="http://www.w3.org/1999/02/22-rdf-syntax-ns#">
 <metadata id="metadata4500">
  <rdf:RDF>
   <cc:Work rdf:about="">
    <dc:format>image/svg+xml</dc:format>
    <dc:type rdf:resource="http://purl.org/dc/dcmitype/StillImage"/>
    <dc:title/>
   </cc:Work>
  </rdf:RDF>
 </metadata>
 <g id="layer1" transform="translate(24.417 51.456)" stroke-width="2.4612">
  <path id="path4" class="st0" d="m-8.9114 129.94v-24.366h-9.845v24.366h-5.6609v-29.535h21.413v29.535zm17.721 0h-6.8915l6.1531-12.306c-3.1996-1.4767-4.9225-4.1841-4.9225-8.122 0-5.6608 3.938-9.1066 9.5988-9.1066h11.322v29.535h-5.6609v-11.076h-4.6764zm9.3527-24.366h-5.4147c-2.4612 0-4.1841 1.7228-4.1841 3.938 0 2.4612 1.7229 4.1841 4.1841 4.1841h5.4147zm23.874 0v24.366h-5.6609v-24.366h-7.6298v-5.1686h20.921v5.1686zm23.628 24.366h-11.568v-29.535h5.6609v11.076h5.907c5.6609 0 9.5988 3.6918 9.5988 9.1065 0 5.6609-3.938 9.3527-9.5988 9.3527zm-0.49228-13.291h-5.4147v8.1221h5.4147c2.7074 0 4.1841-1.7229 4.1841-3.938 0-2.4612-1.4767-4.1841-4.1841-4.1841zm13.291 13.291v-29.535h5.6609v29.535zm28.797 0v-18.952l-11.322 18.952h-5.1686v-29.535h5.6609v18.952l11.322-18.952h5.1686v29.535zm-5.1686-31.012c-3.1996 0-6.3992-1.4767-6.6454-5.907h3.938c0 1.7229 1.2306 2.4612 2.7074 2.4612 1.4767 0 2.4612-0.7386 2.7074-2.4612h3.938c-0.24614 4.4302-3.4457 5.907-6.6453 5.907zm-126.51 61.285v-23.874h2.4612v11.322l10.091-11.322h3.1996l-10.337 11.322 11.322 12.552h-3.1996l-11.076-12.552v12.552zm43.564 0-1.7229-5.4148h-10.337l-1.969 5.4148h-2.7074l8.8605-23.874h2.2151l8.6143 23.874zm-6.8915-20.182-4.4302 12.552h8.8605zm36.426 20.182v-10.829h-11.322v10.829h-2.4612v-23.874h2.4612v10.829h11.322v-10.829h2.4612v23.874zm32.734 0-1.969-5.4148h-10.337l-1.969 5.4148h-2.7074l8.8605-23.874h2.2151l8.6143 23.874zm-7.1376-20.182-4.4302 12.552h8.8605zm36.18 20.182v-21.659h-8.1221v8.1221c0 10.091-2.4612 13.537-6.8915 13.537h-1.2306v-2.2152h0.73842c2.9535 0 5.1686-1.969 5.1686-11.814v-9.5988h13.045v23.628zm-134.88-167.61v94.512h137.83v-138.57h-93.773z" fill="#b4002d"/>
  <path id="path4-9" class="st0" d="m79.201-26.844v19.444h-46.271v13.291c0.98449-0.49209 1.969-1.2306 2.9535-1.4767 3.938-1.4767 9.845-2.4612 15.014-2.4612 19.936 0 35.196 12.798 35.196 31.258 0 9.1065-3.6919 17.967-9.845 24.12-10.091 10.583-24.612 11.076-32.242 11.076-4.9225 0-20.428 0-30.766-10.583-5.6609-5.907-7.1376-12.06-8.6143-18.952h27.566c0 1.2306 0.24614 1.9689 0.49228 2.9535 1.4767 5.4147 6.1531 7.8759 11.568 7.8759 9.845 0 13.537-7.1376 13.537-14.521 0-8.3682-4.4302-14.275-14.029-14.275-7.6298 0-9.845 3.4458-11.322 5.907h-23.382v-37.657l15.752-15.752h54.393z" fill="#fff"/>
 </g>
</svg>
