<svg width="205.29mm" height="211.67mm" version="1.1" viewBox="0 0 205.29 211.67" xmlns="http://www.w3.org/2000/svg">
 <g transform="translate(24.263 55.354)">
  <g fill="#e20a7d">
   <path d="m97.285-30.773-22.564-0.02496v23.568c0 78.54 84.087 66.045 84.087 66.045l-0.01-23.887s-60.863 11.577-61.512-50.115c-0.01498-2.541 0-15.585 0-15.585"/>
   <path d="m158.91 14.442c-4.4629 3.6792-11.482 6.7493-16.394 2.1915-13.489-14.182 9.2104-21.995 9.0756-8.2569-4.2682-6.1802-8.806 0.90856-5.2417 4.6127 2.3113 2.3962 6.7393 2.1516 7.578-2.2464 1.283-7.3184-3.6842-13.309-10.279-12.455-6.1802 0.7588-10.239 6.5546-6.9789 13.948-3.6891-2.9204-3.2598-8.172-6.4548-11.322-1.7173-1.6923-4.1983-2.2514-6.4148-0.23463-0.0499 0.054913-0.17473 0.19968-0.22964 0.26458-1.8121 2.3862-1.0683 4.8723 0.77877 6.4448 3.4146 2.9403 8.5115 2.0717 11.701 5.5162-7.553-2.6308-12.91 1.9769-13.124 8.2868-0.23462 6.7044 6.0554 11.222 13.144 9.2703 4.2782-1.258 4.1484-5.7159 1.5575-7.8475-3.9487-3.2349-10.518 1.9319-4.0935 5.686-13.469 1.3479-7.7377-22.23 7.3633-9.8544 5.2567 4.8723 4.7525 10.558 0.5092 15.226-0.68392 0.7588-3.0602 1.6074-3.0602 1.6074s10.533 1.887 20.463-0.26458c0 0 0.48922-15.635 0.0998-20.572"/>
  </g>
  <g fill="#403d3b">
   <path d="m158.69 156.31 22.335-0.22964v-144.65c0-78.55-84.097-66.065-84.097-66.065v23.887s64.243-11.587 61.877 50.031c-0.26458 7.3733-0.11482 137.02-0.11482 137.02"/>
   <path d="m-21.582 92.248h-2.6807v-7.6179l1.1432-0.17472c0.33447-0.19968 0.64897-0.49422 0.86862-0.86862 0.28455-0.3794 0.49921-0.85364 0.66894-1.4926 0.21466-0.61403 0.35444-1.3978 0.45927-2.3313 0.10483-0.93352 0.18471-2.0418 0.24461-3.3497l0.4443-16.104h11.377v24.182h1.3429v7.7577h-2.6907v-5.1269h-11.177zm9.4899-7.7577v-21.531h-5.6361l-0.42932 13.623c-0.03994 1.9269-0.1897 3.5294-0.42433 4.7874-0.20967 1.253-0.62401 2.3063-1.1532 3.12z"/>
   <path d="m-0.29663 84.544c0.7588 0 1.2979-0.22964 1.6923-0.72385 0.36941-0.49422 0.60903-1.1981 0.64398-2.0967l3.0701 0.57908c-0.099842 1.6274-0.57908 2.9104-1.4976 3.789-0.91854 0.84366-2.2764 1.283-4.1384 1.283-0.80372 0-1.5276-0.11482-2.0867-0.31949-0.629-0.22964-1.1082-0.51918-1.5076-0.84366-0.40436-0.35444-0.74881-0.7588-0.98843-1.1981s-0.40935-0.87361-0.51918-1.283c-0.079873-0.32948-0.13479-0.70388-0.20468-1.1632-0.049921-0.46926-0.079873-0.99342-0.11482-1.5126-0.014976-0.55911-0.039937-1.1132-0.049921-1.6723v-3.5594c0.00998-0.63899 0.049921-1.253 0.11482-1.8371 0.034945-0.57908 0.094849-1.1632 0.17472-1.6624 0.079873-0.49921 0.1897-0.90357 0.30452-1.253 0.37441-0.98843 0.95349-1.8121 1.7872-2.3962 0.82868-0.57908 1.9719-0.87361 3.3946-0.87361 1.882 0 3.2798 0.52417 4.1135 1.6025 0.82868 1.0284 1.283 2.4861 1.283 4.3181v4.7325h-8.182c0 0.84366 0.019968 1.6574 0.064897 2.506 0.034944 0.8187 0.11482 1.4327 0.22464 1.862 0.37441 1.1382 1.1881 1.7223 2.4212 1.7223m2.4062-8.5714v-1.6025c0-0.5042-0.034944-0.96347-0.069889-1.4028-0.084865-0.46426-0.21965-0.87861-0.38938-1.1981-0.17472-0.31949-0.42932-0.58906-0.7538-0.78875-0.33946-0.19968-0.7538-0.25959-1.253-0.25959-0.46426 0-0.89358 0.08487-1.288 0.3145-0.38938 0.20967-0.69889 0.59406-0.92853 1.1981-0.14477 0.38439-0.21466 0.84366-0.27456 1.4577-0.059905 0.61403-0.09485 1.3778-0.11981 2.2814z"/>
   <path d="m8.3337 87.12v-19.025h5.057c2.1017 0 3.6193 0.4393 4.6127 1.3429 0.97346 0.92853 1.4627 2.1915 1.4627 3.8239 0 0.90357-0.15975 1.6574-0.44929 2.2414-0.29453 0.57908-0.7588 1.0783-1.4028 1.5126h0.03494c0.7588 0.35943 1.3079 0.91355 1.5975 1.6674 0.29453 0.7588 0.44929 1.6324 0.44929 2.6558 0 1.9868-0.51918 3.4795-1.5975 4.3781-1.0483 0.93352-2.6608 1.4028-4.8323 1.4028zm8.0922-13.858c0-0.85364-0.2546-1.4677-0.72385-1.867-0.46426-0.41434-1.3029-0.61402-2.4361-0.61402h-1.8221v5.042h1.7722c1.1681 0 1.9819-0.22464 2.4511-0.66894 0.5042-0.40935 0.7588-1.0783 0.7588-1.892m0.32448 7.8475c0-0.8786-0.20468-1.5475-0.65396-2.0517-0.42932-0.45927-1.288-0.6939-2.5759-0.6939h-2.0767v5.8407h2.1616c0.67393 0 1.243-0.0649 1.6574-0.24461 0.40436-0.13978 0.73384-0.34945 0.96347-0.61403 0.21466-0.25959 0.37441-0.57908 0.45428-0.98344 0.03495-0.38439 0.06989-0.78875 0.06989-1.253"/>
   <path d="m22.898 73.723c0-1.7772 0.47924-3.15 1.4527-4.1384 0.97346-0.99342 2.4311-1.4926 4.4579-1.4926h5.3715v19.03h-3.0352v-8.0323h-1.6723c-0.74382 0-1.3129 0.20967-1.7323 0.63898-0.45428 0.38439-0.79873 1.1731-1.0683 2.3363l-1.268 5.057h-3.0751l1.6074-5.9805c0.14477-0.59406 0.37441-1.1731 0.66395-1.6973 0.29453-0.55412 0.68891-0.96846 1.1881-1.2281-1.0833-0.40935-1.8521-0.98843-2.2714-1.8021-0.40935-0.79374-0.61902-1.7023-0.61902-2.6907m6.4398-2.9403c-1.2081 0-2.0667 0.28455-2.5759 0.84366-0.47924 0.60903-0.7538 1.3429-0.7538 2.2714 0 0.81371 0.27456 1.4627 0.77377 1.922 0.54913 0.44929 1.2929 0.70388 2.2614 0.70388h2.1017v-5.7409z"/>
   <path d="m42.85 70.783v16.339h-3.0352v-16.339h-4.0086v-2.6907h11.092v2.6907z"/>
   <path d="m54.525 85.454c-0.50919 0.69889-1.1032 1.1632-1.7472 1.4577-0.63899 0.29453-1.3978 0.4393-2.2165 0.4393-0.79873 0-1.4677-0.17472-1.9868-0.46926-0.5691-0.34445-0.99342-0.78875-1.3279-1.288-0.30951-0.52417-0.53914-1.1032-0.68392-1.7722-0.13479-0.67393-0.21466-1.3429-0.21466-2.0118 0-0.73384 0.07987-1.4677 0.23463-2.1616 0.15975-0.73384 0.42932-1.3728 0.8187-1.9868 0.36941-0.57908 0.89358-1.0833 1.5725-1.4277 0.66894-0.3794 1.5326-0.55412 2.6009-0.55412h2.9952v-2.5609c0-0.73384-0.17472-1.3229-0.52417-1.7872-0.34945-0.40436-1.0134-0.61402-1.9868-0.61402-0.51418 0-1.0134 0.15475-1.4976 0.4393-0.48922 0.31949-0.79873 0.78875-0.93851 1.5176l-2.8804-0.8187c0.29453-1.283 0.88859-2.2464 1.8471-2.9703 0.95349-0.73384 2.1616-1.0883 3.6193-1.0883 1.7223 0 3.0402 0.40935 3.9937 1.1731 0.9435 0.79374 1.4178 2.1865 1.4178 4.1085v14.043h-3.0502v-1.6674zm0.04493-7.1437h-2.2414c-0.80372 0-1.4926 0.2546-2.1067 0.72385-0.59905 0.49422-0.88859 1.3429-0.88859 2.5659 0 0.90357 0.19968 1.5775 0.55911 2.0767 0.39437 0.46426 1.0184 0.69889 1.8321 0.69889 0.95349 0 1.6324-0.26458 2.1216-0.78875 0.48922-0.55911 0.72385-1.3129 0.72385-2.2464z"/>
   <path d="m60.957 73.723c0-1.7772 0.48922-3.15 1.4577-4.1384 0.97346-0.99342 2.4711-1.4926 4.4679-1.4926h5.3865v19.03h-3.0552v-8.0323h-1.6524c-0.74881 0-1.3329 0.20967-1.7622 0.63898-0.41933 0.38439-0.77876 1.1731-1.0733 2.3363l-1.258 5.057h-3.0801l1.6224-5.9805c0.14976-0.59406 0.36941-1.1731 0.65896-1.6973 0.30951-0.55412 0.70388-0.96846 1.1831-1.2281-1.0933-0.40935-1.8221-0.98843-2.2564-1.8021-0.42932-0.79374-0.63899-1.7023-0.63899-2.6907m6.4398-2.9403c-1.2131 0-2.0567 0.28455-2.5659 0.84366-0.48922 0.60903-0.74382 1.3429-0.74382 2.2714 0 0.81371 0.2546 1.4627 0.78875 1.922 0.51418 0.44929 1.278 0.70388 2.2664 0.70388h2.0717v-5.7409z"/>
   <path d="m92.551 73.054c1.1981 0.34944 1.9918 1.0783 2.4112 2.1616 0.42932 1.1082 0.629 2.4162 0.629 3.9937 0 2.7656-0.53914 4.7824-1.7123 6.0354-1.1332 1.2281-2.9054 1.877-5.3365 1.877h-5.1468v-26.817h5.646c2.3313 0 3.9637 0.60903 4.9172 1.8421 0.93352 1.1881 1.4227 2.9653 1.4227 5.2167 0 1.4277-0.20967 2.5659-0.62401 3.3896-0.41434 0.84366-1.1282 1.5675-2.2065 2.1266zm-0.11482-5.691c0-1.3978-0.28954-2.4511-0.89358-3.15-0.60404-0.72385-1.6274-1.1082-3.0152-1.1082h-2.1116v8.5464h2.0717c1.3978 0 2.4311-0.3794 3.0402-1.1082 0.59905-0.72385 0.90856-1.8121 0.90856-3.18m0.22964 11.527c0-1.4577-0.26957-2.5659-0.81371-3.3896-0.54913-0.78376-1.6124-1.1931-3.1899-1.1931h-2.2464v10.069h2.4012c0.84865 0 1.5376-0.14976 2.0168-0.4443 0.5042-0.31949 0.90856-0.6939 1.1731-1.1981 0.2546-0.48922 0.44929-1.0683 0.53415-1.7472 0.08986-0.64398 0.1248-1.3379 0.1248-2.0967"/>
   <path d="m104.49 67.799c1.0733 0 1.9719 0.15475 2.6458 0.44929 0.67892 0.28455 1.233 0.66894 1.6374 1.1532 0.40935 0.5042 0.73883 1.0883 0.89358 1.7772 0.17473 0.67892 0.29953 1.4377 0.34945 2.2265 0.0399 0.72884 0.0799 1.5475 0.10483 2.3912 0.0549 0.81371 0.0549 1.5825 0.0549 2.2714 0 1.4627-0.0799 2.9204-0.23962 4.3781-0.10983 1.0184-0.38439 1.867-0.77378 2.511-0.38938 0.63899-0.85863 1.1332-1.4178 1.4826-0.54413 0.38439-1.1232 0.61902-1.7872 0.73384-0.65396 0.14477-1.273 0.19968-1.887 0.19968-0.80872 0-1.4926-0.10983-2.0767-0.3145-0.57908-0.17972-1.0933-0.46426-1.4976-0.8187-0.40935-0.3145-0.73384-0.67393-0.98843-1.1382-0.2546-0.46926-0.44929-0.92853-0.58407-1.3728-0.07987-0.32448-0.15975-0.69889-0.19469-1.1582-0.0599-0.47425-0.09485-0.99842-0.09485-1.5176-0.02496-0.55911-0.03494-1.1082-0.03494-1.6674-0.02995-0.58407-0.02995-1.1082-0.02995-1.6025 0-0.64897 0-1.283 0.03994-1.9619 0.02496-0.6939 0.05991-1.3628 0.11981-1.9519 0.03495-0.60903 0.11482-1.1981 0.19469-1.6923 0.05491-0.52417 0.17972-0.90856 0.30452-1.2281 0.37441-0.96347 0.95848-1.7123 1.8121-2.2714 0.85864-0.58407 2.0068-0.87861 3.4495-0.87861m-0.0799 2.8006c-0.52417 0-0.97346 0.14976-1.4028 0.34944-0.39936 0.26458-0.73383 0.64398-0.97345 1.258-0.15476 0.31949-0.26957 1.1132-0.30452 2.2215-0.0699 1.1681-0.0749 2.506-0.1248 4.0236 0 0.84366 0.02 1.6574 0.0499 2.4811 5e-3 0.81371 0.0849 1.4277 0.22464 1.862 0.36443 1.1681 1.2081 1.7472 2.531 1.7472 0.53415 0 1.0134-0.14477 1.4078-0.42932 0.40436-0.34945 0.72385-0.76379 0.93352-1.253 0.0549-0.14976 0.0799-0.3794 0.1298-0.73384 0.0549-0.34944 0.11481-0.7538 0.13977-1.2281 0.0399-0.48922 0.0749-0.98843 0.0749-1.5126 0.025-0.52417 0.025-1.0783 0.025-1.6025 0-0.55911 0-1.0833-0.025-1.6025 0-0.52916-0.015-1.0533-0.0349-1.5226-0.02-0.49422-0.0399-0.93352-0.0649-1.3179-0.0599-0.37441-0.11481-0.66894-0.16474-0.93352-0.35443-1.1931-1.1781-1.8071-2.4212-1.8071"/>
   <path d="m111.07 85.486c0.53415-0.35943 0.95848-0.69889 1.3279-1.0284 0.34945-0.34445 0.60404-0.6939 0.8187-1.1332 0.18471-0.4393 0.34945-0.96347 0.42932-1.5475 0.0799-0.63399 0.11482-1.4028 0.11482-2.3363v-11.347h10.084v19.025h-3.0402v-16.334h-4.2632v8.7761c0 1.1981-0.0948 2.2514-0.22964 3.0951-0.13978 0.87361-0.35444 1.6324-0.67892 2.2714-0.33447 0.63899-0.74382 1.1632-1.273 1.6124-0.53915 0.46426-1.1881 0.86862-1.9419 1.2181z"/>
   <path d="m135.13 87.12v-8.4616h-5.0021v8.4616h-3.13v-19.025h3.13v7.9873h5.0021v-7.9873h3.14v19.025z"/>
   <path d="m149.23 85.454c-0.51418 0.69889-1.0733 1.1632-1.7372 1.4577-0.65397 0.29453-1.4028 0.4393-2.2015 0.4393-0.80872 0-1.4976-0.17472-2.0218-0.46926-0.54414-0.34445-0.96846-0.78875-1.3029-1.288-0.30452-0.52417-0.53915-1.1032-0.67893-1.7722-0.15475-0.67393-0.21965-1.3429-0.21965-2.0118 0-0.73384 0.0649-1.4677 0.22964-2.1616 0.16474-0.73384 0.43431-1.3728 0.82369-1.9868 0.36442-0.57908 0.89358-1.0833 1.5775-1.4277 0.65895-0.3794 1.5176-0.55412 2.5709-0.55412h2.9952v-2.5609c0-0.73384-0.17472-1.3229-0.5042-1.7872-0.34944-0.40436-1.0134-0.61402-1.9818-0.61402-0.52916 0-1.0134 0.15475-1.4876 0.4393-0.5042 0.31949-0.80872 0.78875-0.94849 1.5176l-2.8804-0.8187c0.26957-1.283 0.88859-2.2464 1.8471-2.9703 0.95348-0.73384 2.1666-1.0883 3.6242-1.0883 1.7123 0 3.0402 0.40935 3.9887 1.1731 0.93352 0.79374 1.4028 2.1865 1.4028 4.1085v14.043h-3.0602v-1.6674zm0.0349-7.1437h-2.2165c-0.79873 0-1.4976 0.2546-2.1017 0.72385-0.60404 0.49422-0.89358 1.3429-0.89358 2.5659 0 0.90357 0.19469 1.5775 0.57908 2.0767 0.35443 0.46426 0.97345 0.69889 1.7872 0.69889 0.95848 0 1.6823-0.26458 2.1416-0.78875 0.49921-0.55911 0.70388-1.3129 0.70388-2.2464z"/>
  </g>
 </g>
</svg>
