<svg id="a" enable-background="new 0 0 89 80" version="1.1" viewBox="0 0 800 719.1" xml:space="preserve" xmlns="http://www.w3.org/2000/svg"><path id="b" d="m709.27 441.85c-2.9936 0-5.9423-0.1798-8.855-0.49444-36.867 154.13-175.44 268.75-340.86 268.75-193.61 0-350.56-156.95-350.56-350.56s156.95-350.56 350.56-350.56c165.42 0 303.98 114.62 340.86 268.74 2.9127-0.31465 5.8614-0.48545 8.855-0.48545 45.767 0 82.869 36.849 82.869 82.302s-37.101 82.302-82.869 82.302z" clip-rule="evenodd" fill="#fff" fill-rule="evenodd" stroke-width="8.9899"/><path id="c" d="m710.11 449.44c-0.78212 0-1.5373-0.10787-2.3104-0.12585-39.879 155.14-180.68 269.79-348.25 269.79-198.58 0-359.55-160.97-359.55-359.55s160.97-359.55 359.55-359.55c167.58 0 308.38 114.64 348.25 269.78 0.77313-0.018 1.5283-0.11687 2.3104-0.11687 49.642 0 89.89 40.248 89.89 89.89 0 49.651-40.248 89.89-89.89 89.89zm-404.36-179.8h-58.551c-1.1417 1.8609-1.7261 1.5642-3.3442 2.697-1.1147 1.2586-2.2295 2.5172-3.3442 3.7758h-1.1147c-1.1148 1.2586-2.2385 2.5172-3.3532 3.7847h-1.1147c-0.36859 0.53939-0.74616 1.0788-1.1148 1.6182-0.74616 0.53939-1.4833 1.0878-2.2295 1.6272v0.5394h-1.1147c-1.1148 1.2586-2.2295 2.5262-3.3442 3.7757h-1.1148c-1.1147 1.2586-2.2295 2.5262-3.3442 3.7847-6.7334 4.7197-12.226 10.401-18.96 15.121-1.1147 1.2676-2.2295 2.5172-3.3442 3.7758h-1.1148c-1.1147 1.2586-2.2295 2.5262-3.3442 3.7847h-1.1148c-1.1147 1.2586-2.2295 2.5172-3.3442 3.7757h-1.1237c-1.3035 1.4384-2.5981 2.8858-3.9016 4.3241h-1.1147c-1.1148 1.2586-2.2295 2.5172-3.3442 3.7758h-1.1147c-0.37758 0.53939-0.74616 1.0788-1.1148 1.6182-0.74616 0.53939-1.4923 1.0788-2.2295 1.6272v0.53939h-1.1148c-1.1147 1.2676-2.2295 2.5262-3.3442 3.7758h-1.1237c-0.36858 0.53939-0.74616 1.0878-1.1147 1.6182-0.74616 0.5394-1.4833 1.0878-2.2295 1.6272v0.53939h-1.1148c-1.1147 1.2586-2.2295 2.5172-3.3442 3.7847h-1.1147c-1.1148 1.2586-2.2295 2.5172-3.3442 3.7758-6.7334 4.7197-12.226 10.41-18.96 15.13-1.1148 1.2586-2.2385 2.5172-3.3532 3.7758h-1.1147c-1.1148 1.2676-2.2295 2.5172-3.3442 3.7757h-1.1147c-1.1147 1.2676-2.2295 2.5262-3.3442 3.7847h-1.1148c-1.1147 1.2586-2.2295 2.5172-3.3442 3.7847h-1.1237c-1.1147 1.2676-2.2295 2.5172-3.3442 3.7847h-1.1147c-1.3035 1.4294-2.6071 2.8678-3.9016 4.3062h-1.1147c-1.1148 1.2676-2.2295 2.5262-3.3442 3.7937h-1.1147c-1.1148 1.2586-2.2385 2.5082-3.3442 3.7758h-1.1237c-1.1147 1.2676-2.2295 2.5262-3.3442 3.7847h-1.1147c-1.1147 1.2586-2.2295 2.5172-3.3442 3.7847h-1.1147c-1.1147 1.2496-2.2385 2.5082-3.3532 3.7757h-1.1147c-1.1147 1.2676-2.2295 2.5172-3.3442 3.7758-9.9158 6.9492-17.962 15.732-27.878 22.681-0.37758 0.54838-0.74616 1.0878-1.1237 1.6272-0.74616 0.5394-1.4833 1.0788-2.2295 1.6272v0.53939h-1.1147c-1.3035 1.4384-2.5981 2.8768-3.9016 4.3241h-1.1147c-1.1147 1.2496-2.2295 2.5082-3.3442 3.7758h-1.1147c-1.1147 1.2676-2.2385 2.5172-3.3532 3.7758h-1.1147c-1.1147 1.2676-2.2295 2.5262-3.3442 3.7847h-1.1147c-0.36858 0.5304-0.73717 1.0698-1.1058 1.6182h91.454c0.36859-0.54838 0.74616-1.0878 1.1148-1.6272h1.1147c1.1148-1.2586 2.2295-2.5172 3.3442-3.7847h1.1148c1.3035-1.4384 2.6071-2.8768 3.9016-4.3151h1.1148c1.1147-1.2676 2.2385-2.5172 3.3532-3.7758h1.1148c1.1147-1.2676 2.2295-2.5262 3.3442-3.7847h1.1148c1.1147-1.2586 2.2295-2.5172 3.3442-3.7847h1.1147c1.1148-1.2586 2.2385-2.5082 3.3442-3.7758h1.1237c0.92596-1.0788 1.8609-2.1576 2.7869-3.2364 0.55738-0.18878 1.1148-0.35959 1.6721-0.54838 1.1147-1.2586 2.2295-2.5172 3.3442-3.7847h1.1148c1.1147-1.2586 2.2295-2.5082 3.3442-3.7757h1.1237c0.36858-0.54839 0.74616-1.0788 1.1147-1.6182 0.74616-0.54838 1.4833-1.0878 2.2295-1.6362v-0.53939h1.1147c1.1148-1.2586 2.2295-2.5172 3.3442-3.7847h1.1147c1.1148-1.2586 2.2295-2.5082 3.3442-3.7758 6.7334-4.7197 12.226-10.401 18.96-15.121 1.3035-1.4474 2.6071-2.8768 3.9106-4.3151h1.1147c1.1148-1.2676 2.2295-2.5262 3.3442-3.7847h1.1147c1.1147-1.2676 2.2295-2.5172 3.3442-3.7847h1.1148c1.1147-1.2676 2.2295-2.5262 3.3442-3.7847 6.7424-4.7107 12.226-10.401 18.96-15.121 0.36858-0.53939 0.74616-1.0788 1.1147-1.6182 0.74616-0.53939 1.4923-1.0788 2.2295-1.6182v-0.54839h1.1148c0.18878-0.35959 0.37757-0.71919 0.55737-1.0788 1.4654-1.3395 2.697-2.7239 5.0164-3.2364v56.717c-3.3892 1.1956-9.5832 0.53939-13.943 0.53939h-28.435c-0.55737 0.71919-1.1148 1.4384-1.6811 2.1576h-1.1147c-1.1148 1.2676-2.2295 2.5172-3.3442 3.7847h-1.1147c-1.1148 1.2676-2.2295 2.5172-3.3442 3.7757h-1.1148c-1.1147 1.2676-2.2295 2.5262-3.3532 3.7937h-1.1148c-1.1237 1.2496-2.2385 2.5082-3.3532 3.7758h-1.1148c-1.1147 1.2586-2.2295 2.5172-3.3442 3.7758h-1.1147c-1.3035 1.4384-2.6071 2.8858-3.9016 4.3151h-1.1147c-1.1148 1.2676-2.2295 2.5262-3.3532 3.7847h-1.1147c-1.1148 1.2586-2.2295 2.5172-3.3442 3.7847h-1.1147c-1.1147 1.2676-2.2295 2.5082-3.3442 3.7758h-1.1148c-1.1147 1.2676-2.2295 2.5172-3.3442 3.7847h-1.1148c-1.1147 1.2676-2.2295 2.5172-3.3532 3.7847h151.68c0.018-59.935 0.018-119.9 0.018-179.84zm170.72 0h-65.914c-1.6901 1.3575-7.4886 0.33263-10.06 1.0788v0.53939c-1.8609 0.1798-3.7308 0.36858-5.5917 0.53939v0.53939c-1.4923 0.18879-2.9756 0.3596-4.468 0.54839v0.53939h-2.2295v0.53939h-1.6811v0.53939h-1.6811v0.54839h-1.6811v0.53939c-1.1148 0.1798-2.2385 0.35959-3.3532 0.53939v0.54838h-1.1237v0.5394h-1.6811v0.53939h-1.1147v0.53939h-1.6811v0.53939c-1.1147 0.36859-2.2385 0.72818-3.3532 1.0878v0.53939h-1.1237v0.53939h-1.1148v0.5394h-1.1237v0.53939c-1.1148 0.36858-2.2385 0.72818-3.3532 1.0878-0.18878 0.3596-0.37757 0.71919-0.56636 1.0788-0.74616 0.1798-1.4923 0.35959-2.2385 0.53939-0.18879 0.36859-0.37757 0.72818-0.55737 1.0878-0.74616 0.17979-1.4923 0.35959-2.2385 0.53939v0.53939c-0.55737 0.1798-1.1237 0.3596-1.6811 0.53939-0.18878 0.3596-0.37757 0.71919-0.55737 1.0788h-1.1147c-0.37758 0.53939-0.74616 1.0878-1.1237 1.6272h-1.1237c-0.36859 0.53939-0.74616 1.0788-1.1148 1.6182h-1.1147c-0.37758 0.5394-0.74616 1.0788-1.1237 1.6182h-1.1237c-0.92596 1.0788-1.8609 2.1576-2.7958 3.2364h-1.1147c-1.6811 1.798-3.3532 3.596-5.0343 5.4029-1.1148 0.89899-2.2385 1.798-3.3532 2.697v1.0788c-0.93495 0.71919-1.8609 1.4384-2.7958 2.1666-0.18879 0.53939-0.37757 1.0788-0.56636 1.6182-0.36859 0.17979-0.74616 0.35959-1.1148 0.53939v1.0788c-0.55737 0.3596-1.1147 0.71919-1.6811 1.0788v1.0788c-0.37758 0.18879-0.74616 0.3596-1.1148 0.54839-0.18878 0.53939-0.37757 1.0788-0.56636 1.6182h-0.55737v1.0788c-0.37758 0.1798-0.74616 0.35959-1.1148 0.53939-0.18878 0.72818-0.37757 1.4474-0.56636 2.1666-0.36858 0.1798-0.74616 0.3596-1.1147 0.53939-0.37758 1.0788-0.74616 2.1576-1.1148 3.2364h-0.56636v1.0878h-0.55737v1.0878h-0.55737c-0.37758 1.0788-0.74616 2.1576-1.1237 3.2364h-0.55737v1.6182h-0.55737v1.0878h-0.55738c-0.37757 1.6182-0.74615 3.2453-1.1237 4.8635h-0.55737v2.1576c-6.7694 18.6-2.1666 42.666 5.5827 56.708v1.0788h0.56636v1.0788h0.55737v1.0878h0.56637v1.0698h0.55737v1.0878h0.55737v1.0698c0.37758 0.18879 0.74616 0.36859 1.1237 0.54838 0.18878 0.71919 0.37757 1.4384 0.55737 2.1576 0.37757 0.1798 0.74616 0.3596 1.1237 0.54839v1.0698h0.55737c0.18879 0.54838 0.37758 1.0788 0.55738 1.6272 0.37757 0.18879 0.74616 0.35959 1.1237 0.53939v1.0878c0.55737 0.35959 1.1148 0.71919 1.6721 1.0698v1.0878c0.74616 0.54838 1.4923 1.0788 2.2385 1.6182v1.0788c2.7958 2.5172 5.5917 5.0523 8.3786 7.5695 0.93495 1.0788 1.8699 2.1576 2.7958 3.2364h1.1237c0.55737 0.71919 1.1147 1.4384 1.6811 2.1576h1.1148c0.37757 0.54838 0.74616 1.0788 1.1237 1.6182h1.1148c0.37757 0.54838 0.74616 1.0878 1.1237 1.6272h1.1148c0.18878 0.3596 0.37757 0.71919 0.56636 1.0788 0.74616 0.1798 1.4923 0.35959 2.2295 0.54838 0.18878 0.35061 0.37757 0.71919 0.56636 1.0788 0.55737 0.17979 1.1147 0.35959 1.6811 0.53939v0.54838h1.1147v0.53939h1.1237v0.5394h1.1148v0.54838h1.1237c0.18879 0.36858 0.36859 0.71919 0.55738 1.0878 1.6811 0.53041 3.3532 1.0698 5.0253 1.6182v0.54838h1.1237v0.5394c0.74616 0.18878 1.4923 0.35959 2.2385 0.53939v0.54838c0.93495 0.1798 1.8609 0.35061 2.7958 0.54838v0.5394c1.1147 0.18878 2.2385 0.35959 3.3532 0.53939 11.327 4.7377 25.927 7.4436 41.893 7.5695v-43.754h-15.085c-4.6568-1.0698-9.3135-2.1576-13.97-3.2274v-0.54839h-1.1148v-0.54838h-1.6811v-0.54838c-1.1147-0.35061-2.2385-0.71919-3.3532-1.0698v-0.54838h-1.1147v-0.54838c-1.1148-0.35061-2.2385-0.71919-3.3532-1.0698v-0.54838l-1.6721-0.53939c-0.18879-0.3596-0.37758-0.72818-0.55738-1.0788h-1.1237c-0.37758-0.54838-0.74616-1.0788-1.1237-1.6182h-1.1147c-1.6811-1.807-3.3532-3.6049-5.0253-5.4119-1.1237-0.89899-2.2385-1.798-3.3532-2.706v-1.0698c-0.37758-0.18878-0.74616-0.36858-1.1148-0.54838-0.18879-0.54838-0.37757-1.0878-0.56636-1.6182h-0.55737v-1.0878c-0.37758-0.1798-0.74616-0.3596-1.1148-0.53939-0.18878-0.72818-0.37757-1.4474-0.56636-2.1576-4.1533-7.4976-6.8772-19.059-3.3532-29.172v-2.1666h0.55737c0.18879-1.0788 0.37757-2.1576 0.55737-3.2364h0.56636v-1.0788h0.55738v-1.6182h0.55737v-1.0788h0.55737v-1.0878c0.37758-0.17979 0.74616-0.35959 1.1237-0.53939 0.18878-0.71919 0.37757-1.4384 0.55737-2.1576h0.55737c0.18879-0.53939 0.37757-1.0878 0.56636-1.6272 0.36859-0.17979 0.74616-0.35959 1.1148-0.5304v-1.0878l2.2385-1.6182v-1.0788c1.3035-1.0878 2.6071-2.1666 3.9106-3.2453 0.37758-0.53939 0.74616-1.0788 1.1237-1.6182h1.1147c0.55737-0.71919 1.1147-1.4384 1.6811-2.1576h1.1147c0.18879-0.36858 0.37758-0.72818 0.56636-1.0878h1.1148c0.18879-0.3596 0.37757-0.71919 0.55737-1.0788h1.1237c0.18879-0.35959 0.36859-0.72818 0.55738-1.0878l2.2385-0.5394v-0.53939h1.1147v-0.54838c1.1237-0.3596 2.2385-0.71919 3.3532-1.0788v-0.53939c1.1148-0.1798 2.2385-0.35959 3.3532-0.53939 9.5382-3.6229 20.002-3.7847 33.523-3.7758 16.748-14.222 33.514-28.453 50.271-42.666 0.036-0.23373 0.036-0.41353 0.036-0.59333zm125.64 50.973c-9e-3 -8.864-2.3733-15.804-5.5018-21.567v-1.0788h-0.56636v-1.0788h-0.54838v-1.0788h-0.55737v-1.0788l-1.1058-0.53939v-1.0788c-0.35959-0.1798-0.72818-0.36859-1.0968-0.54839v-1.0788c-0.55737-0.3596-1.1058-0.71919-1.6541-1.0788-7.3268-10.096-16.407-15.283-29.783-19.418h-2.7599c-4.9804-1.4564-12.253-1.0788-18.735-1.0788h-40.248c-16.721 14.384-33.451 28.759-50.164 43.133v136.44h52.357v-136.44h36.391v0.53939h2.2025c3.9376 0.0899 10.32-0.96192 13.242 0.53939v0.5394c0.54838 0.17979 1.0968 0.35959 1.6541 0.53939 0.1798 0.35959 0.36858 0.71919 0.54838 1.0788 1.0788 0.99788 1.735 0.97091 2.2115 2.697 0.96192 0.91696 2.5262 7.093 1.6541 9.7091-0.40455 1.1957-1.3035 2.2744-1.6541 3.7758-0.92596 0.71919-1.8429 1.4384-2.7599 2.1576v0.53939h-1.1058v0.53939h-1.1058v0.54839h-1.6541v0.53939h-39.142v45.848h38.027c1.6631 0.53041 3.3173 1.0698 4.9714 1.6182 0.54838 0.7102 1.0968 1.4294 1.6541 2.1486h0.55737v1.0788c0.36858 0.18878 0.72818 0.35959 1.0968 0.54838v1.6182c1.8429 4.7287 0.37758 6.9042-0.54838 11.327-2.4273 1.3844-3.6319 3.9196-6.6166 4.8455h-39.142v43.682h33.083c5.7266 0 11.597 0.1798 15.975-1.0878h3.3083v-0.53939h2.2025v-0.5394h2.2115v-0.54838h1.6541v-0.53939h1.6541v-0.53939h1.6631v-0.54839c1.0968-0.3506 2.2025-0.71919 3.3083-1.0698v-0.54838h1.0968v-0.54839c0.73717-0.17979 1.4654-0.3506 2.2025-0.53939 12.415-7.6774 22.897-23.607 20.946-45.291-0.73717-3.7758-1.4654-7.5515-2.2025-11.327h-0.55738v-1.6182h-0.54838v-1.6182h-0.55737c-0.36858-1.0878-0.73717-2.1576-1.0968-3.2453h-0.56637v-1.0698h-0.54838v-1.0788h-0.55737l-1.1058-3.2364c-0.35959-0.17979-0.72818-0.3506-1.0968-0.5304v-1.0878c-0.36859-0.1798-0.73717-0.3596-1.1058-0.54839v-1.0698c-0.73717-0.54838-1.4743-1.0788-2.2025-1.6182v-1.0878c-3.1285-2.8678-6.248-5.7445-9.3674-8.6213 1.9328-0.39556 3.0026-1.3844 4.405-2.1576h1.1058c0.1798-0.3596 0.35959-0.72818 0.54838-1.0788h1.1058c0.54838-0.71919 1.1058-1.4384 1.6541-2.1576h1.1058c0.54838-0.71919 1.1058-1.4384 1.6541-2.1576h0.55738v-1.0788c0.72818-0.5394 1.4654-1.0788 2.2025-1.6182v-1.0788c0.36858-0.18878 0.73717-0.35959 1.1058-0.53939 0.1798-0.71919 0.36859-1.4384 0.54838-2.1576l1.1058-0.53939v-1.0788h0.55737v-1.0788h0.55737v-1.6182h0.54838v-1.0788h0.55738v-1.6182h0.55737v-1.6182h0.55737v-2.1576h0.55737v-2.697h0.54839v-3.7758h0.55737c-9e-3 -2.4722-9e-3 -4.9984-9e-3 -7.5066zm108-32.975c-39.708 0-71.91 32.202-71.91 71.91s32.202 71.919 71.91 71.919c39.717 0 71.91-32.202 71.91-71.919s-32.193-71.91-71.91-71.91zm52.384 50.065h-0.51242v1.0069h-0.51242v1.5103h-0.52142v1.0069h-0.52141v1.5103h-0.51242v1.0069h-0.51243v1.5103h-0.52141c-0.17081 0.66525-0.34161 1.3395-0.52141 2.0137h-0.51242c-0.1798 0.84505-0.34162 1.6811-0.51243 2.5262h-0.52141v1.5103h-0.52141v1.0069h-0.51243v1.5103h-0.51242v1.0069h-0.52141v1.5103h-0.52141v1.0069h-0.51243v1.5013h-0.51242c-0.1798 0.84505-0.35061 1.6811-0.52141 2.5172h-0.52142v1.0069h-0.51242v1.5013h-0.51242v1.0069h-0.52141v1.5103h-0.52142v1.0069h-0.51242v1.5103h-0.51242v1.0069h-0.52142v1.5103h-0.52141v0.99787h-0.51242v1.5103h-0.51242v1.0159h-0.52142v1.5103h-0.52141c-0.17081 0.83606-0.33262 1.6721-0.51242 2.5082h-0.51243v1.0069h-0.52141v1.5103h-0.52141c-0.17081 0.83606-0.33263 1.6811-0.51242 2.5082h-0.51243c-0.17979 0.67424-0.3506 1.3395-0.52141 2.0317h-0.52141v1.5103h-0.51242v0.99788h-0.51243v1.5103h-0.52141c-0.52141 1.6901-1.0248 3.3532-1.5373 5.0433h-16.955c-0.52142-1.5103-1.0248-3.0206-1.5373-4.5309h-0.52142v-1.5103h-0.52141v-1.0158h-0.51242c-0.1798-0.83606-0.34162-1.6721-0.51242-2.5082h-0.52142v-1.5193h-0.52141v-0.99787h-0.51242v-1.5103h-0.51242v-1.0069h-0.52142v-1.5103h-0.52141v-1.0069h-0.51242v-1.5013h-0.51243v-1.0159h-0.52141v-1.5103h-0.52141c-0.17081-0.83606-0.33263-1.6811-0.51242-2.5082h-0.51243v-1.0069h-0.52141v-1.5103h-0.52141c-0.17081-0.67424-0.33263-1.3395-0.51243-2.0227h-0.51242v-1.5013h-0.52141v-1.0158h-0.52141v-1.5103h-0.51243v-1.0069h-0.51242v-1.5103h-0.51242v-1.0069h-0.53041v-1.5103h-0.51242v-1.0069h-0.51242c-1.0248-3.0206-2.0587-6.0412-3.0835-9.0618h-9.754v46.828c-3.8297 1.3844-12.541 0.5304-17.467 0.51242-1.3665-3.7038-0.51242-10.491-0.51242-15.112v-32.229h-18.996v-15.112h60.088c0.40454 2.4183 1.735 4.5129 2.5621 6.5446 0.1798 1.0069 0.34162 2.0137 0.51242 3.0206h0.52142v1.0069h0.52141v1.5103h0.51242v1.5103h0.51242v1.5103h0.52142v1.5013h0.52141v1.0069h0.51242c0.1798 1.0159 0.34162 2.0227 0.51243 3.0206h0.52141v1.5103h0.52141v1.0069h0.51242c0.1798 1.0069 0.34162 2.0137 0.51243 3.0206h0.52141v1.5103h0.52141v1.5103h0.51243v1.0069h0.51242v1.5103h0.52141v1.5103h0.52141v1.5193h0.51243v1.5103h0.51242c0.1798 0.83606 0.3506 1.6811 0.52141 2.5172h0.52142v-1.0069c1.2496-1.1507 0.40454-1.0428 1.0158-2.5172h0.52141v-1.5103h0.52142v-1.5103h0.51242v-1.0069h0.51242c0.1798-1.0069 0.35061-2.0137 0.52142-3.0206h0.52141v-1.5103h0.51242v-1.5103h0.51242v-1.0069h0.52142c0.1708-1.0069 0.34161-2.0137 0.52141-3.0206h0.51242c0.1798-1.0069 0.34162-2.0137 0.51242-3.0206h0.52142v-1.0069h0.52141v-1.5103h0.51242v-1.5103h0.51243v-1.5103h0.52141v-1.5103c1.4114-3.1914 3.6319-7.093 4.1084-11.076h19.517c-0.40454 1.6901-0.91697 3.3712-1.4384 5.0523z" clip-rule="evenodd" fill="#bb1818" fill-rule="evenodd" stroke-width="8.9899"/></svg>
