<svg id="a" width="396.6pt" height="458.31pt" version="1.1" viewBox="0 0 396.6 458.31" xmlns="http://www.w3.org/2000/svg">
 <g id="b" transform="translate(-50.505,-20.13)" fill="#ea4f93">
  <path id="c" d="m118.15 31.572 33.368 13.028-45.5 36.88-33.14-12.69z"/>
  <path id="d" d="m50.505 433.89h396.6v44.545h-396.6v-44.545"/>
 </g>
 <path id="e" d="m195.42 59.45 73.13-59.45 83.17 32.68-112.27 92.21-82.09-31.56-38.84 31.46-58.57-22.77c26.581-21.48 52.77-43.447 79.618-64.592z" fill="#0189e1"/>
 <path id="f" d="m57.514 157.75 37.121 14.666-94.635 76.67v-49.26z" fill="#0189e1"/>
 <path id="g" d="m0 335.76h91.345v68.27h-91.345v-68.27" fill="#0189e1"/>
 <path id="h" d="m101.6 335.76h40.17v13.635l16.373-13.635h34.777v68.27h-91.32v-68.27" fill="#0189e1"/>
 <path id="i" d="m203.25 335.76h91.375v68.27h-91.375v-68.27" fill="#0189e1"/>
 <path id="j" d="m304.8 335.76h91.792v68.27h-91.792v-68.27" fill="#0189e1"/>
 <path id="k" d="m38.596 342.68-30.816 54.423h16.501l5.8027-10.903h29.454l6.0392 10.903h17.989l-31.233-54.423zm6.2997 16.199 7.5458 13.981h-15.091z" fill="#fff" stroke-width=".29942"/>
 <path id="l" d="m115.51 342.63v54.526h10.866l37.896-32.329v32.329h14.747v-54.526h-10.876l-37.89 31.915v-31.915z" fill="#fff" stroke-width=".29995"/>
 <path id="m" d="m225.62 343.16c-2.3006 0.46493-4.6583 1.4308-6.0951 3.3745-2.0097 2.6636-2.3681 6.1281-2.4821 9.3556v25.469c-0.048 3.5484 0.0375 7.2619 1.6152 10.519 1.3228 2.6306 4.0854 4.2204 6.9019 4.7603 3.9564 0.76188 8.0058 0.42743 12.01 0.50242h29.108c3.3865-0.048 6.9949-0.29545 9.8925-2.2422 2.4926-1.6768 3.6234-4.7033 4.0014-7.5708 0.44993-3.7074 0.17997-7.4524 0.25496-11.175h-15.853c-0.048 2.1807-0.25497 4.7528-2.1417 6.1806-2.0127 1.4638-4.6343 1.1443-6.9769 1.1803h-16.779c-1.8027-0.054-3.8934-0.38244-5.0212-1.9542-1.2628-1.7967-1.0603-4.1124-1.0813-6.197v-12.604c0-1.8327 0.0735-3.8814 1.3513-5.3272 1.2718-1.3828 3.2725-1.6422 5.0512-1.6812h18.297c1.9107-3e-3 4.0494 0.10048 5.5581 1.4353 1.4998 1.3648 1.6857 3.532 1.7427 5.4367h15.859c-0.10799-3.8964 0.29695-7.8603-0.54292-11.7-0.52792-2.4566-1.8447-4.8292-3.9954-6.209-2.7416-1.8117-6.146-2.0007-9.3286-2.0907h-31.792c-3.1885 0.015-6.416-0.13498-9.5535 0.53691z" fill="#fff" stroke-width=".29995"/>
 <path id="n" d="m319.59 342.63v13.139h23.084v41.385h15.941v-41.385h23.201v-13.139z" fill="#fff" stroke-width=".29995"/>
 <g id="o" transform="translate(-50.505,-20.13)" fill="#fff">
  <path id="p" d="m61.19 441.25h16.6l8.74 18.91 8.78-18.91h15.87v30.28l-9.21 0.02v-23.08l-11.8 23.095h-7.28l-12.57-23.825v23.79l-9.13 0.01z"/>
  <path id="q" d="m137.78 440.59c-3.9015-3e-3 -7.8022 0.1414-11.64 0.87891-2.35 0.46999-5.0694 1.6292-5.6294 4.2392-1.37 5.31-1.0611 10.88-0.85108 16.31 0.31 2.79 0.47993 6.3107 3.1699 7.9307 3.64 1.95 7.9312 1.75 11.931 1.96 6.11 0 12.279 0.34051 18.319-0.72948 2.67-0.44001 5.5397-2.0107 5.9898-4.9307 1.03-5.04 0.69033-10.23 0.59033-15.34-0.24-3-0.31996-6.9304-3.46-8.4404-3.54-1.67-7.5797-1.5991-11.41-1.8091-2.3288-0.0113-4.6699-0.0669-7.0107-0.0688zm2.1841 7.7871c0.83803 9e-3 1.6752 0.0226 2.5093 0.0264 2.0577 0.10548 4.2285 0.0708 6.1304 0.90967 1.687 0.75847 1.7299 2.7324 1.8589 4.2393 0.0537 2.5668 0.23697 5.1735-0.3164 7.7051-0.24177 1.4667-1.7838 2.2546-3.2183 2.4756-3.245 0.53747-6.5597 0.36768-9.8423 0.36768-2.149-0.10548-4.4546-6e-3 -6.4102-0.98584-1.4452-0.81372-1.5356-2.5815-1.7022-3.9829-0.11283-2.7275-0.28046-5.5242 0.45556-8.1914 0.30088-1.311 1.7624-1.8938 3.0249-2.1299 2.474-0.44453 4.9962-0.4602 7.5102-0.4336z"/>
  <path id="r" d="m166.21 441.17h9.29v10.585h20.295v-10.585h9.105v30.33h-9.105v-11.595h-20.295v11.595h-9.29z"/>
  <path id="s" d="m213.17 441.21h30.315v7.81h-21.04v22.5l-9.275-0.04z"/>
  <path id="t" transform="scale(.75)" d="m355.97 587.48c-5.202-4e-3 -10.403 0.18854-15.52 1.1719-3.1333 0.62666-6.7592 2.1723-7.5058 5.6523-1.8267 7.08-1.4148 14.506-1.1348 21.746 0.41333 3.72 0.6399 8.4142 4.2266 10.574 4.8533 2.6 10.575 2.3333 15.908 2.6133 8.1467 0 16.372 0.45401 24.426-0.97265 3.56-0.58667 7.3863-2.6809 7.9863-6.5742 1.3733-6.72 0.92044-13.64 0.7871-20.453-0.32-4-0.42661-9.2406-4.6133-11.254-4.72-2.2267-10.106-2.1321-15.213-2.4121-3.105-0.015-6.2265-0.0892-9.3476-0.0918zm2.9121 10.383c1.1174 0.0118 2.2336 0.0301 3.3457 0.0352 2.7436 0.14064 5.638 0.0944 8.1738 1.2129 2.2493 1.0113 2.3066 3.6432 2.4785 5.6523 0.0716 3.4223 0.31595 6.898-0.42187 10.273-0.32236 1.9556-2.3784 3.0061-4.291 3.3008-4.3267 0.71662-8.7462 0.49024-13.123 0.49024-2.8654-0.14064-5.9394-8e-3 -8.5469-1.3145-1.927-1.085-2.0475-3.442-2.2695-5.3105-0.15044-3.6366-0.37395-7.3656 0.60742-10.922 0.40116-1.748 2.3498-2.5251 4.0332-2.8398 3.2987-0.59271 6.6616-0.6136 10.014-0.57813z" stroke-width="1.3333"/>
  <path id="u" d="m299.21 441.26h35.43v30.265l-9.23-0.02v-22.405h-16.62v5.3202c0 12.725-2.528 17.18-14.03 17.125v-6.16c4.0474 0.22091 4.461-2.8617 4.4503-6.33z"/>
  <path id="v" d="m344.26 441.25h9.0751v23.645l17-23.645h14.85l-0.13 30.285h-9.0601v-22.84l-16.68 22.84h-15.055z"/>
  <path id="w" d="m407.33 441.32h16.09l14.74 30.17h-10.896l-2.9041-4.765h-17.66l-2.9283 4.765h-11.032l14.59-30.17m2.51 17.195h11.12l-5.56-11.085z"/>
 </g>
 <g id="x" transform="translate(-50.505,-20.13)" fill="#6ac335">
  <path id="y" d="m415.05 107.24 32.052 12.14v138.35l-95.182-36.89-158 125.48h-143.42v-56.396l145.68-117.49 93.77 36.52z"/>
  <path id="z" d="m356.04 236.88 91.062 36.08v73.355h-225.11z"/>
 </g>
</svg>
