<?xml version="1.0" encoding="UTF-8"?>
<svg id="svg40" width="1334.9pt" height="313.37pt" version="1.1" viewBox="0 0 1334.9 313.37" xmlns="http://www.w3.org/2000/svg" xmlns:cc="http://creativecommons.org/ns#" xmlns:dc="http://purl.org/dc/elements/1.1/" xmlns:rdf="http://www.w3.org/1999/02/22-rdf-syntax-ns#">
 <metadata id="metadata46">
  <rdf:RDF>
   <cc:Work rdf:about="">
    <dc:format>image/svg+xml</dc:format>
    <dc:type rdf:resource="http://purl.org/dc/dcmitype/StillImage"/>
    <dc:title/>
   </cc:Work>
  </rdf:RDF>
 </metadata>
 <g id="#ffffffff" transform="translate(-200.9 -200.46)" fill="#b01c0e">
  <path id="path5" d="m377.01 201.23 64.85 0.01-0.01 14.04h-24v40.39h-16.75v-40.38h-24.07z"/>
  <path id="path7" d="m455.45 201.22 58.66 0.02-0.01 13.14-41.93 0.01 0.01 7.55h40.01l0.01 13.1h-40.02l0.01 7.49 41.91-0.01-0.03 13.17-58.62-0.02z"/>
  <path id="path9" d="m535.11 201.23 63.33 0.03-0.01 54.39-16.76-0.01 0.01-40.35-29.81-0.03c-0.18 9.31-0.17 18.75-2.43 27.84-1.16 4.49-3.32 9.37-7.81 11.38-4.57 1.92-9.64 0.98-14.44 1.18-0.02-4.63 0-9.27-0.03-13.91 1.92-0.33 4.51 0.07 5.72-1.87 1.66-2.97 1.61-6.52 1.9-9.82 0.38-9.6 0.28-19.22 0.33-28.83z"/>
  <path id="path11" d="m614.24 201.23h58.64v13.14l-41.9 0.01-0.02 7.55h40.01v13.11l-40.01 0.01 0.06 7.48 41.86-0.01v13.14h-58.65z"/>
  <path id="path13" d="m687.02 201.23 16.72-0.01 0.01 19.13 8.9-0.22 18.83-18.86 23.1-0.03-27.21 25.94 30.54 28.49-24.26-0.04-21.08-21.2-8.84 0.02 0.01 21.23h-16.71z"/>
  <path id="path15" d="m780.53 201.72c8.06-1.42 16.28-1.18 24.42-1.26 7.65 0.06 15.35-0.09 22.93 1.14 4.21 0.71 8.88 2.52 10.64 6.77 2.16 5.22 1.9 11.04 2.04 16.58-0.08 6.89 0.36 13.88-1.05 20.68-0.76 3.87-3.48 7.31-7.29 8.52-6.81 2.31-14.14 2.03-21.23 2.28-9.72-0.01-19.5 0.33-29.15-0.98-4.48-0.64-9.58-2.41-11.35-7.01-2.27-5.84-1.73-12.27-1.92-18.41 0.17-6.94-0.5-14.12 1.65-20.82 1.39-4.47 5.98-6.77 10.31-7.49m8.81 13.78c-2.04 0.55-3.4 2.44-3.63 4.49-0.65 4.32-0.37 8.72-0.36 13.08 0.16 2.53 0.09 5.57 2.17 7.39 2.76 1.89 6.31 1.66 9.5 1.88 6.68-0.01 13.39 0.31 20.04-0.34 2.52-0.21 5.54-1.29 6.14-4.08 1.01-4.59 0.58-9.35 0.6-14.02-0.14-2.94-0.21-6.91-3.43-8.19-4.62-1.58-9.61-1.03-14.41-1.18-5.54 0.16-11.21-0.47-16.62 0.97z"/>
  <path id="path17" d="m852.43 201.23c10.03 0.01 20.06-0.03 30.1 0.02 4.47 9.64 8.97 19.26 13.5 28.87 1.34 2.64 1.07 5.74 2.25 8.44 0.65-2.76 0.65-5.69 1.89-8.29 4.5-9.65 9.12-19.25 13.5-28.96 9.54-0.18 19.1-0.04 28.65-0.07 0.02 18.14 0 36.28 0.01 54.42-5.59 0.02-11.17 0.01-16.75 0 0-11.88 0.02-23.76-0.02-35.64-0.06-2.46 0.47-4.87 0.81-7.29-0.84 0.62-1.6 1.35-1.94 2.36-6.43 13.56-12.95 27.07-19.47 40.58-4.56-0.01-9.12 0-13.67 0-6.46-12.52-12.95-25.03-19.37-37.57-1.03-1.91-1.74-4.1-3.49-5.49 0.28 2.44 0.75 4.88 0.73 7.35-0.01 11.88-0.06 23.77 0.03 35.65-5.6 0.12-11.18 0.03-16.77 0.06 0.01-18.15 0-36.3 0.01-54.44z"/>
  <path id="path19" d="m958.51 201.23h71.24v54.43l-16.74 0.02-0.01-40.4-37.74 0.01 0.02 40.34-16.78 0.03z"/>
  <path id="path21" d="m1066.1 201.24h28.59l27.08 54.42-19.54 0.01-5.18-9.07h-33.25l-5.16 9.05h-19.57l27.03-54.41m13.09 12.12-9.16 19.175h20.71l-8.97-19.175z"/>
  <path id="path23" d="m1130.3 201.23 16.72 0.01 0.01 19.19h36.24l0.01-19.2h16.72l-0.01 54.44h-16.71l-0.01-21.18h-36.23l-0.02 21.18h-16.72z"/>
  <path id="path25" d="m1215.9 201.23h16.72c-0.02 11.94-0.01 23.89 0 35.83 0.01 2.76-1.14 5.32-1.6 8.01 10.15-14.76 20.65-29.29 31.05-43.87 9.11 0.06 18.23 0.01 27.35 0.02 0.02 18.15-0.01 36.29 0.01 54.44-5.59 0.02-11.17 0.01-16.75 0 0.01-11.88 0-23.75 0-35.63-0.1-2.76 1.11-5.3 1.73-7.94-10.42 14.44-20.7 29.05-31.06 43.56-9.15 0.05-18.29 0-27.42 0.03-0.08-18.15-0.02-36.3-0.03-54.45z"/>
  <path id="path27" d="m1308.4 205.36c3.97-4.26 10.29-4.15 15.67-4.14 15.45 0.03 30.9-0.01 46.36 0.02 0.01 18.14-0.03 36.28 0.01 54.42-5.59 0.01-11.18 0.02-16.77-0.01 0.02-5.07 0.01-10.13 0.01-15.2-8.9 0.04-17.81-0.06-26.71 0.03-2.61-0.18-5.1 1.87-5.23 4.52-0.28 3.55-0.07 7.11-0.1 10.67-5.57 0.01-11.13-0.02-16.69 0.02 0.12-5.64-0.51-11.34 0.43-16.92 0.65-3.38 4.03-4.99 6.89-6.2-3.43-1.68-6.24-4.69-6.77-8.58-0.92-6.19-1.4-13.53 2.9-18.63m13.92 11.91c-1.53 3.22-0.99 9.29 3.73 9.05 9.2 0.15 18.42 0 27.63 0.06 0-3.7 0-7.4 0.01-11.09-8.58-0.02-17.15 0-25.71-0.02-1.99 0.04-4.64-0.11-5.66 2z"/>
  <path id="path29" d="m231.01 289.97c9.61-5.74 20.82-8.77 32.01-8.59h247.56v232.44h-309.64c-0.02-53.93-0.01-107.87-0.01-161.8 0.03-7.04-0.33-14.15 1.15-21.09 3.23-16.95 14.1-32.19 28.94-40.96m0.05 198.61h55.11l19.38-36.415h98.37l20.17 36.415h60.08l-104.31-181.76h-45.88z"/>
  <path id="path31" d="m542.42 281.38h309.9v232.44h-309.9v-232.44m49.095 25.43v181.78h36.225l126.34-107.78v107.78h49.165v-181.78h-36.26l-126.32 106.4v-106.4z"/>
  <path id="path33" d="m883.94 281.38h309.88v232.44h-309.88v-232.44m77.22 27.24c-7.67 1.55-15.53 4.77-20.32 11.25-6.7 8.88-7.895 20.43-8.275 31.19v84.91c-0.16 11.83 0.125 24.21 5.385 35.07 4.41 8.77 13.62 14.07 23.01 15.87 13.19 2.54 26.69 1.425 40.04 1.675h97.04c11.29-0.16 23.32-0.985 32.98-7.475 8.31-5.59 12.08-15.68 13.34-25.24 1.5-12.36 0.6-24.845 0.85-37.255h-52.85c-0.16 7.27-0.85 15.845-7.14 20.605-6.71 4.88-15.45 3.815-23.26 3.935h-55.94c-6.01-0.18-12.98-1.275-16.74-6.515-4.21-5.99-3.535-13.71-3.605-20.66v-42.02c0-6.11 0.245-12.94 4.505-17.76 4.24-4.61 10.91-5.475 16.84-5.605h61c6.37-0.01 13.5 0.335 18.53 4.785 5 4.55 5.62 11.775 5.81 18.125h52.87c-0.36-12.99 0.99-26.205-1.81-39.005-1.76-8.19-6.15-16.1-13.32-20.7-9.14-6.04-20.49-6.67-31.1-6.97h-105.99c-10.63 0.05-21.39-0.45-31.85 1.79z"/>
  <path id="path35" d="m1225.9 281.38h309.86v171.68c0.15 25.54-17.635 49.74-41.875 57.58-6.72 2.28-13.82 3.27-20.9 3.18h-247.09v-232.44m51.185 25.405v43.805h76.96v137.97h53.145v-137.97h77.35v-43.805z"/>
  <path id="path37" d="m355.03 360.92 25.2 46.695h-50.4z"/>
 </g>
</svg>
