<svg id="a" width="600pt" height="570.53pt" version="1.1" viewBox="0 0 600 570.53" xmlns="http://www.w3.org/2000/svg">
 <path id="b" d="m324.93 28.529c10.059-6.7613 17.51-16.971 21.093-28.529-0.92949 11.394 0.83954 23.132 6.7613 33.057 11.499 19.684 28.529 35.92 37.449 57.149 5.5469 12.848 6.7463 27.87 1.754 41.092-5.457 14.437-21.003 24.242-36.415 22.877-15.516-0.7346-29.624-12.488-33.072-27.66-1.3642-4.2876 0.0899-8.7702-0.59967-13.133-3.7779 10.404-11.694 19.639-22.443 23.282-16.371 6.4315-36.385-1.2443-44.72-16.626-2.0389 13.762-12.203 25.951-25.561 29.998-13.822 4.3776-29.864-0.23987-39.024-11.544 5.457 11.814 4.5875 26.251-2.9984 36.91-8.8901 13.163-26.445 18.71-41.527 14.272 7.5708 9.8496 9.4748 23.567 5.1572 35.171-3.4481 9.5947-11.199 17.54-20.719 21.243-5.6219 2.3387-11.814 2.5186-17.825 2.6985 16.851 4.1227 27.795 22.698 25.021 39.518-1.5142 11.828-9.2649 22.518-19.969 27.75 17.016 1.0344 31.708 15.531 33.327 32.442 1.5591 12.158-3.7479 24.586-13.163 32.337 12.698-6.0417 28.904-4.5425 39.623 4.8124 11.094 9.115 15.981 25.111 11.514 38.814 8.2904-5.8318 18.725-9.01 28.829-7.0461 12.098 2.0239 22.967 10.449 27.57 21.873 2.5936 5.8618 2.8934 12.398 3.1633 18.725 1.6191-8.7252 7.8857-15.906 15.292-20.449 13.043-8.0506 31.153-6.5814 42.712 3.4931 8.3054 6.9712 13.298 17.81 12.773 28.694-0.58467 14.497-8.1705 28.035-18.83 37.599-16.521 15.037-37.854 22.952-56.144 35.426-9.7896 6.6114-16.926 16.581-20.659 27.75-0.045-7.0611 0.41976-14.287-1.859-21.093-4.2726-14.047-14.302-25.186-22.757-36.85-10.239-13.867-20.973-28.484-23.837-45.905-1.0044-8.0206-0.83954-16.296 1.4992-24.077-10.554 7.7058-23.702 11.514-36.73 10.884-18.515-0.9145-36.07-7.3909-53.82-12.143-15.142-4.8124-32.277-5.1572-46.384 2.9384 5.0672-4.8723 10.479-9.6097 13.822-15.921 6.3265-11.064 7.6008-23.957 9.5048-36.31 2.2788-15.741 4.1227-31.902 10.884-46.474 5.0072-11.094 13.792-20.434 24.616-26.011-14.467-1.2293-27.675-9.3099-36.895-20.299-13.807-16.101-21.618-36.13-33.207-53.685-6.6413-10.044-16.611-17.705-28.14-21.273 11.259 0.86952 22.832-1.1244 32.577-7.0461 20.209-12.083 36.955-29.879 59.217-38.514 11.619-4.6624 24.646-4.9922 36.64-1.4992-7.8257-10.119-11.529-23.042-11.124-35.77 0.52472-22.862 10.389-43.986 14.572-66.174 2.3837-11.948 0.25486-24.497-5.427-35.231 7.0311 7.9606 15.397 15.112 25.801 18.095 22.698 6.8063 47.239 5.6369 69.382 14.692 12.158 4.7674 22.728 13.568 29.069 25.036 1.5591-15.382 11.169-28.814 23.132-38.109 15.681-12.533 34.571-20.014 51.092-31.258m1.2893 7.1211c-17.93 11.514-38.319 19.684-53.536 35.036-9.2949 9.4298-16.221 22.593-14.512 36.16 1.814 14.257 15.636 25.321 29.879 24.586 9.7446-0.59967 19.894-6.1166 23.432-15.621 1.859-4.3776 0.89951-9.9545-2.9984-12.893-4.8273-4.3626-13.103-3.598-16.956 1.6791-3.8829 4.1077-3.0733 10.239-0.77957 14.917-6.9262 1.2443-14.497-1.3792-18.35-7.4359-4.8873-7.1061-2.5186-16.626 1.9339-23.327 8.1555-13.253 29.429-14.932 39.893-3.7479-1.0794-4.9173-3.673-10.149-0.86952-15.142 5.1572-8.9651 13.957-15.172 22.428-20.779 4.3926 7.9306 9.2199 15.846 11.124 24.826 1.4992 5.9517-1.3942 12.563-6.3865 15.981 7.9906-1.2593 16.791-1.0794 23.642 3.7779 11.139 6.9412 14.737 23.297 7.7807 34.331-5.2921 7.8107-16.461 8.7552-24.152 4.0178 2.0389-3.2532 5.2921-5.9667 5.5619-10.059 0.85453-7.0911-5.6819-13.897-12.818-13.088-5.487 0.015-10.014 4.7974-10.434 10.134-1.2443 11.814 7.9156 22.608 18.725 26.191 11.694 4.2876 25.696-0.40478 32.802-10.539 6.4614-9.3399 7.1661-21.573 4.7074-32.382-3.8529-16.551-14.197-30.463-24.047-43.941-8.2005-11.244-17.6-22.443-20.554-36.415-4.6474 5.1272-9.6397 10.029-15.516 13.732m-187.29 23.402c0.34481 6.8512 0.41977 13.822-1.1544 20.554-4.5725 21.063-13.478 41.512-13.013 63.415 0.11993 12.413 4.3326 25.531 13.882 33.911 7.6008 6.4165 18.695 8.7402 28.05 4.9922 11.694-3.9128 20.299-16.086 19.1-28.514-0.26986-5.9218-3.7929-12.563-10.044-13.762-8.1555-1.6191-16.191 7.181-13.478 15.112 1.1844 4.7374 5.517 7.5708 9.8496 9.145-4.8124 6.9862-14.587 10.524-22.368 6.3865-9.7446-5.2321-13.193-17.99-10.689-28.229 3.0433-10.794 13.328-18.2 24.167-19.669-5.442-1.769-10.254-6.3415-11.019-12.188-0.95947-9.1899-0.10494-18.47 1.7091-27.495 8.9801 2.0389 18.065 4.6175 25.891 9.6247 5.1122 3.1783 7.211 9.5797 6.7613 15.367 5.3071-9.7596 16.821-15.786 27.87-14.137 9.13 1.1544 16.971 8.0206 20.344 16.431 3.3731 9.8346-3.7929 20.749-13.882 22.323 0.49473-5.9217-2.1588-12.548-8.1705-14.542-8.2754-3.7779-18.62 5.487-15.337 14.137 3.4181 8.3654 13.103 12.503 21.738 12.113 14.257-0.075 27.21-12.278 28.14-26.505 1.1993-11.843-6.0866-22.742-14.977-29.864-13.118-10.389-30.058-13.957-46.22-16.491-15.936-2.8934-32.922-3.4781-47.149-12.113m180.59 31.573c2.6985 4.8723 3.688 10.389 4.0328 15.891 1.754-5.5769 5.6369-10.314 10.599-13.388-5.0522 1.4242-10.194-0.02998-14.632-2.5036m-147.5 32.817c5.442 1.2143 10.299 4.3176 13.732 8.7102-2.1588-5.3221-2.6386-11.109-1.9939-16.761-2.6835 4.1827-7.0911 6.6414-11.739 8.0506m-67.583 59.562c-17.525 2.9234-32.262 13.672-46.28 23.912-11.649 8.5303-23.207 18.185-37.629 21.528 13.013 9.8946 19.489 25.351 27.6 39.024 8.5753 15.067 18.305 30.808 33.986 39.368 10.134 5.6669 23.537 7.7208 33.821 1.3193 11.199-6.5364 17.076-21.123 12.833-33.507-2.4586-8.0656-8.8901-15.861-17.69-16.896-8.7702-1.4992-15.696 10.014-10.659 17.241 3.3731 6.7013 11.873 7.4959 18.065 4.5275 2.5186 9.5647-4.7674 20.539-14.872 20.988-8.5003 0.13492-17.061-4.1977-22.038-11.094-7.196-9.9845-5.7418-24.512 2.0089-33.776-5.517 3.3282-13.133 3.0583-18.095-1.2143-6.8962-5.5619-12.323-12.713-17.181-20.059 8.3504-4.8723 16.941-10.104 26.655-11.559 5.1722-0.76458 9.8796 2.0838 13.538 5.442-0.91449-8.0056 0.015-16.656 5.1122-23.192 6.9862-9.9245 21.333-12.923 32.157-7.9906 8.8751 4.6924 11.559 18.14 4.1977 25.366-2.4586-3.0283-5.7418-5.7718-9.8796-5.6519-8.1705-0.94448-15.112 8.4404-11.814 15.981 1.4842 5.0072 7.0161 7.5109 11.933 7.241 10.569-0.1799 19.759-8.2455 23.357-17.87 4.4825-11.199 0.80955-24.916-8.5303-32.502-8.4254-6.8512-20.149-8.3354-30.598-6.6264m-14.602 67.478c4.7374-2.8184 10.254-3.7479 15.696-3.7479-5.3071-1.919-9.9845-5.502-12.893-10.374 0.85453 4.9173-0.31483 9.8496-2.8035 14.122m-1.874 86.622c-11.079 12.923-14.902 30.163-17.51 46.549-3.0733 16.266-3.3731 33.761-12.383 48.243 13.987-1.6491 27.6 2.7435 40.883 6.5214 14.707 4.0328 29.729 8.4703 45.14 7.7507 11.004-0.62965 22.173-4.4076 30.253-12.098 8.3054-8.0656 10.764-21.393 5.9217-31.902-4.4825-10.509-15.666-17.945-27.18-17.226-5.532 0.23986-11.349 2.9534-13.792 8.1555-2.7285 7.241 3.2082 15.756 10.884 15.936 6.0417 0.43476 11.034-4.3926 12.698-9.8796 8.6352 4.2577 11.229 16.701 5.3521 24.227-5.6669 7.0311-15.531 10.104-24.302 8.6652-11.709-1.769-20.359-12.458-22.158-23.792-2.1138 5.0672-6.3115 9.5797-11.963 10.389-9.2349 1.6041-18.695-0.03-27.765-1.904 2.4287-8.9351 4.7374-18.2 9.9545-25.981 3.2232-4.9323 9.4598-6.9412 15.127-5.9967 0.19489-0.88452 0.13493-1.799-0.14992-2.6535l-0.8995 2.3237c-6.6114-5.2771-12.293-12.413-13.193-21.093-1.859-12.008 6.4315-24.392 17.9-27.885 9.6997-2.6236 19.444 5.1122 20.764 14.707-5.7119-0.65964-12.158 1.5591-14.437 7.241-3.538 7.4209 2.5636 16.581 10.614 16.911 9.9096-1.4842 15.531-12.038 15.412-21.348 0.62966-15.037-12.368-28.949-27.375-29.474-10.899-0.79457-20.869 5.7119-27.795 13.613m28.274 50.657-0.88452-2.6685c-1.5741 2.1138 1.3043 3.2832 2.4586 4.6474 2.6835 2.1738 3.718 5.5919 4.9773 8.6652 1.2143-5.2621 4.2876-9.8646 8.3504-13.373-4.7374 1.9339-9.8946 2.1438-14.902 2.7285m66.249 61.211c-3.3881 17.69 4.4076 34.976 14.107 49.308 10.659 16.806 26.026 31.243 31.153 51.047 7.6758-9.9245 18.755-16.221 29.549-22.173 15.771-8.9201 32.502-17.525 43.986-31.977 6.7463-8.8002 11.469-20.044 9.8196-31.288-2.1738-13.657-15.232-24.482-29.069-23.972-11.184-0.10494-23.507 7.4959-25.081 19.219-1.3343 9.3249 11.064 15.397 18.245 9.9395 5.8768-3.733 6.5064-11.858 3.1633-17.51 8.8301-1.829 18.65 3.4331 20.839 12.398 1.814 9.6097-3.2232 19.804-11.154 25.246-9.8346 6.5664-23.822 5.2321-32.727-2.3837 1.904 4.9623 2.9384 10.929-0.16491 15.636-5.2321 8.3354-13.702 13.792-21.423 19.579-5.0372-8.3204-10.074-17.016-11.739-26.73-0.70461-5.457 2.3837-10.449 6.0866-14.152-9.3548 2.5636-20.014-0.16491-26.91-7.0311-7.7208-7.5558-9.3249-20.329-4.6624-29.894 4.9473-8.9051 17.54-10.524 25.411-4.5725-6.2815 4.2427-8.3804 13.852-2.3987 19.279 5.8168 6.4015 17.9 3.4631 19.444-5.2921 2.9684-17.735-16.806-32.652-33.417-28.619-11.709 2.1738-21.213 12.203-23.057 23.942m53.296 28.574c4.9173-0.5397 9.8796 0.26985 14.062 2.9834-2.8934-4.8273-3.9278-10.434-3.5231-15.996-2.3537 5.1122-5.6819 9.9695-10.539 13.013z" fill="#c03" stroke-width="1.4992"/>
 <path id="c" d="m361.36 177.77c17.39-3.9278 35.396-0.015 51.437 7.0911l-8.6352 20.719c-10.374-4.3476-21.558-8.3954-32.982-7.0012-5.9367 0.56969-11.469 5.5919-11.214 11.814-0.43476 5.6669 4.1977 9.8196 8.6952 12.353 12.248 7.1211 26.535 11.409 36.49 21.978 8.7702 9.13 9.9995 23.357 6.2366 34.991-4.2277 12.068-16.131 19.834-28.319 22.068-16.791 3.1333-34.661 1.3942-50.222-5.8018v-24.781c12.293 5.517 25.396 10.659 39.098 10.239 6.1016-0.1949 13.672-2.7885 15.097-9.5348 1.6941-5.367-1.2743-10.929-5.7268-13.912-12.428-8.8451-28.664-12.068-38.904-24.002-9.6547-10.629-10.824-27.285-4.2726-39.803 4.7674-8.6203 13.762-14.242 23.222-16.416z" fill="#c03" stroke-width="1.4992"/>
 <path id="d" d="m437.29 178.2h26.453v123.19h-26.453z" fill="#c03" stroke-width="1.4992"/>
 <path id="e" d="m523.75 177.85h32.847c14.167 41.302 29.039 82.29 43.401 123.53-9.4148-0.16491-18.845 0.43476-28.259 0l-8.9051-29.009h-44.96l-8.8152 29.009h-28.589l43.281-123.53m0.85453 72.14h31.633l-15.816-52.629z" fill="#c03" stroke-width="1.4992"/>
 <path id="f" d="m554.47 337.42c10.869-10.194 28.005-9.7746 41.062-4.3926l-4.2277 10.329c-6.4764-2.6985-13.942-4.5425-20.764-1.9639-6.9712 2.6386-10.989 10.209-10.989 17.435-0.34481 6.7313 0.70461 14.632 6.5364 18.95 4.7674 3.658 11.244 2.2937 16.791 2.2038v-12.593h-11.214v-10.936h24.084v31.28c-10.149 3.2682-21.296 4.7824-31.76 2.1438-9.055-2.4137-15.471-10.854-16.971-19.879-1.754-11.139-1.3043-24.302 7.4509-32.577z" fill="#c03" stroke-width="1.4992"/>
 <path id="g" d="m222.66 329.88h16.061c6.9274 20.196 14.199 40.238 21.222 60.404-4.6036-0.0806-9.2146 0.21259-13.818 0l-4.3544-14.185h-21.984l-4.3104 14.185h-13.979l21.163-60.404m0.41784 35.275h15.468l-7.7338-25.734z" fill="#c03" stroke-width=".73306"/>
 <path id="h" d="m267.04 330.12h17.563l14.047 45.395 14.947-45.395h17.638v60.162h-12.106c0-15.427-0.10495-30.883 0.55469-46.295l-15.202 46.295h-12.038l-14.017-46.819c-0.06 15.621 0.3748 31.183 0.1949 46.819h-11.581z" fill="#c03" stroke-width="1.4992"/>
 <path id="i" d="m399.36 330.15h43.328v8.363l-28.434 40.937h29.106v10.832h-44.833v-8.0656l28.589-41.212h-27.757z" fill="#c03" stroke-width="1.4992"/>
 <path id="j" d="m452.77 330.15h12.878v60.192h-12.878z" fill="#c03" stroke-width="1.4992"/>
 <path id="k" d="m480.67 390.27c0.13492-20.074-0.26985-40.073 0-60.147 5.3371 0.09 10.727 0.045 16.064 0 8.6952 14.947 17.405 29.871 25.996 44.878-0.64465-14.947-0.34481-29.931-0.40478-44.878 3.9428-0.015 7.9006-0.045 11.858 0 0.015 19.999-0.03 40.133 0.015 60.147-5.547 0.1799-11.109 0.03-16.656 0-8.7102-15.142-17.375-30.246-26.176-45.343 1.0344 15.112 0.70461 30.201 0.73459 45.343-3.8379 0-7.5933 0.045-11.431 0z" fill="#c03" stroke-width="1.4992"/>
 <path id="l" d="m247.17 177.85h32.847c14.167 41.302 29.039 82.29 43.401 123.53-9.4148-0.16491-18.845 0.43476-28.259 0l-8.9051-29.009h-44.96l-8.8152 29.009h-28.589l43.281-123.53m0.85453 72.14h31.633l-15.816-52.629z" fill="#c03" stroke-width="1.4992"/>
 <path id="m" d="m359.66 329.88h16.061c6.9274 20.196 14.199 40.238 21.222 60.404-4.6036-0.0806-9.2146 0.21259-13.818 0l-4.3544-14.185h-21.984l-4.3104 14.185h-13.979l21.163-60.404m0.41784 35.275h15.468l-7.7338-25.734z" fill="#c03" stroke-width=".73306"/>
</svg>
