<svg enable-background="new 0 0 148.8 68.7" space="preserve" version="1.1" viewBox="0 0 148.8 68.7" xmlns="http://www.w3.org/2000/svg">
 <defs>
  <linearGradient id="a" x1="61.5" x2="61.5" y2="68.094" gradientUnits="userSpaceOnUse">
   <stop stop-color="#9b0624" offset="0"/>
   <stop stop-color="#bd0d31" offset=".34718"/>
   <stop stop-color="#be0b32" offset=".5857"/>
   <stop stop-color="#9b0624" offset="1"/>
  </linearGradient>
 </defs>
 <link href="" rel="stylesheet" type="text/css"/>
 <g fill="url(#a)">
  <g fill="url(#a)">
   <path class="st0" d="m61.5 0h-54.3c-4 0-7.2 3.2-7.2 7.2v54.2c0 4 3.2 7.2 7.2 7.2h54.2c4 0 7.2-3.2 7.2-7.2v-54.2c0.1-4-3.1-7.2-7.1-7.2zm-15.3 56.5-3.8-10.9h-13.1s0.2-0.8 0.5-1.4 0.2-1.2-0.3-1.3-0.4-0.6-0.1-0.8 1.1-0.5 3-1.4 0.7-1.6 0.1-2c-0.3-0.3-0.5-0.7-0.4-1.2h7.3l-5-14.2-4.7 13.3s-0.6 1.4 0.1 2 1.9 1.1-0.1 2-2.7 1.2-3 1.4-0.5 0.7 0.1 0.8 0.5 0.7 0.3 1.3l-0.4 0.9-4 11.4h-8.6l4-11.3 0.4-1c0.2-0.6 0.2-1.2-0.3-1.3s-0.2-0.6 0.1-0.8 1.1-0.5 3-1.4 0.7-1.6 0.1-2-0.1-2-0.1-2l0.1-0.2 8.9-25.4h8.6l9 25.6c0 0.1 0 0.1 0.1 0.2 0.3 0.7 0.8 1.3 1.4 1.7 1.2 0.8 3.7 1.2 1.8 2.1-0.8 0.4-1.6 0.8-2.3 1.3-0.3 0.2-0.3 0.7 0.3 1s1.1 0.4 1.3 1.1 0.3 1 0.3 1v0.1l4 11.4h-8.6z"/>
   <path class="st0" d="M90.1,16.2h-6.1v4.5h-1V11h1v4.3h6.1V11h1v9.8h-1V16.2z"/>
   <path class="st0" d="m98.4 10.8c2.7-0.1 4.9 2 5 4.7v0.3c0 2.8-2.2 5-5 5s-5-2.2-5-5c-0.1-2.7 2.1-4.9 4.8-5h0.2zm0 9.1c2.1 0.1 3.9-1.6 4-3.8v-0.3c0-2.2-1.8-4-4-4s-4 1.8-4 4c0 2.3 1.8 4.1 4 4.1z"/>
   <path class="st0" d="m105.8 11h1l4 5.1 3.8-5.1h0.9v9.8h-1v-8.2l-3.8 5h-0.1l-3.8-5v8.2h-1v-9.8z"/>
   <path class="st0" d="m118.7 11h5.8v1h-4.8v3.3h4.4v1h-4.4v3.5h4.9v1h-5.9v-9.8z"/>
   <path class="st0" d="m135.6 10.8c2.7-0.1 4.9 2 5 4.7v0.3c0 2.8-2.2 5-5 5s-5-2.2-5-5c-0.1-2.7 2.1-4.9 4.8-5h0.2zm0 9.1c2.1 0.1 3.9-1.6 4-3.8v-0.3c0-2.2-1.8-4-4-4s-4 1.8-4 4c0 2.3 1.8 4.1 4 4.1z"/>
   <path class="st0" d="M143,11h5.8v1H144v3.6h4.4v1H144v4.2h-1V11z"/>
   <path class="st0" d="m102.3 56.5h-7.2v-10.3h-4.7v10.3h-7.4v-26.6h7.4v9.9h4.7v-9.9h7.2v26.6zm33 0.1c7.5-0.1 13.5-6.1 13.5-13.6 0-7.4-6-13.5-13.5-13.5-5.2 0-9.9 3-12.2 7.7 0-3.3-3.3-7.2-7.1-7.2h-12.3v26.5h11.5c4.2 0 7.6-3.3 7.9-7.5 2.3 4.6 7 7.6 12.2 7.6zm-21-10.8c1.2 0.2 2.1 1.4 1.9 2.6-0.2 1-0.9 1.7-1.9 1.9h-3.7v-4.5h3.7zm0-10c1.2 0.2 2.1 1.4 1.9 2.6-0.2 1-0.9 1.7-1.9 1.9h-3.7v-4.4l3.7-0.1zm4.8 7.2c1-0.3 2-0.9 2.7-1.7-0.2 1.2-0.2 2.5 0 3.7-0.6-0.9-1.5-1.7-2.7-2zm9.4 0c0-3.7 3-6.8 6.8-6.8s6.8 3 6.8 6.8-3 6.8-6.8 6.8-6.8-3.1-6.8-6.8zm6.8 5.3c2.9 0 5.3-2.4 5.3-5.3s-2.4-5.3-5.3-5.3-5.3 2.4-5.3 5.3 2.4 5.3 5.3 5.3z"/>
  </g>
 </g>
</svg>
