<svg width="469.01pt" height="220.02pt" version="1.1" viewBox="0 0 469.01 220.02" xmlns="http://www.w3.org/2000/svg">
 <g transform="translate(-15 -39.989)" fill="#3fc5be">
  <path d="m443.5 40.67c9.43-1.48 19.57-0.7 28.09 3.86 5.65 3.44 10.57 8.91 11.7 15.61 1.88 9.93 0.18 20.9-6.03 29.07-4.79 6.29-12.45 9.68-20.08 10.94-10.38 1.72-21.59 0.88-30.87-4.38-7.42-4.14-12.06-12.38-12.37-20.79-0.52-11.62 5.49-23.63 15.73-29.4 4.25-2.5 8.99-4.07 13.83-4.91z"/>
  <path d="m74.13 112.5c21.21-3.9 43.28-2.77 64.02 3.12 9.7 2.69 18.72 8.19 25.18 15.96 6.85 8.49 8.67 19.8 8.62 30.41-0.32 16.1-2.62 32.09-3.39 48.17 6.83 1.55 12.84-3.15 19.41-3.81 5.63 0.17 8.37 6.13 9.64 10.83 2.08 8.65 2.69 18.88-2.99 26.34-5.49 6.94-13.87 11.13-22.39 13-12.79 2.74-26.08 3.7-39.05 1.83-7.23-1.25-15.23-3.55-19.61-9.92-3.27-4.7-2.16-10.68-2.44-16.03-2.95 3.96-5.17 8.47-8.68 12.01-5.37 5.55-11.91 10.05-19.18 12.73-8.44 2.89-17.51 3.1-26.34 2.74-10.1-0.43-20.36-3.17-28.61-9.18-7.59-5.58-11.12-14.96-12.69-23.94-2.5-12.69 2.7-25.74 10.92-35.3 8.64-9.86 21.65-14.46 34.24-16.65 10.01-1.61 20.33-1.69 30.3 0.24 4.97 0.9 9.65 2.83 14.52 4.09-0.58-4.7-0.27-9.86-2.69-14.08-6.27-8.37-18.16-9.64-27.71-7.47-9.75 1.91-16.75 10.05-26.3 12.44-5.49 1.45-11.27-0.88-15.16-4.78-5.58-5.44-9-13.43-7.8-21.27 1.13-8.68 6.98-16.17 14.4-20.56 10.26-6.15 22.14-8.75 33.78-10.92m15.26 87.04c-4.44 1.17-8.88 3.55-11.39 7.51-2.81 4.94 0.26 11.5 5.33 13.5 8.51 3.45 19.77-2.23 21.33-11.48 0.64-3.18 1.35-7.74-1.99-9.67-4.21-1.83-8.98-0.78-13.28 0.14z"/>
  <path d="m217.04 112.63c16.44-3.51 33.43-2.61 50.08-1.39 2.98 0.38 7.48 0.17 8.47 3.82 1.31 7.93 0.32 16.03 0.12 24.01 6.12-8.46 12.46-17.41 22.02-22.27 11.39-5.73 24.58-7.19 37.17-6.01 9.3 0.9 18.7 4.08 25.61 10.58 7.28 6.79 11.06 16.52 12.61 26.18 1.75 11.4 1.17 23.02-0.14 34.44-1.4 11.97-2.55 23.98-2.83 36.03 5.7-0.67 11.26-2.17 16.93-2.99 3.27-0.45 5.2 3.04 6.07 5.7 2.17 7.69 1.47 16.03-0.91 23.59-2.62 7.83-10.65 12.14-18.3 13.65-8.55 1.62-17.31 1.23-25.96 1.15-10.72-0.41-21.66-0.74-31.99-3.95-7.31-2.27-10.73-10.25-11.3-17.33-1.61-21.62 0.86-43.33-0.78-64.96-0.13-2.5-0.82-5.22-3-6.74-4.22-3.01-10.15-3.14-14.77-1.01-4.3 2.17-5.24 7.48-5.2 11.84 0.17 22.35-0.1 44.7 0.23 67.05-0.24 3.86 0.68 8.67-2.74 11.43-4.63 3.59-10.79 3.98-16.4 4.35-12.7 0.3-25.83 0.75-37.95-3.7-4.91-1.71-8.49-5.97-10.34-10.71-2.97-7.41-2.97-15.57-2.61-23.43 1.12-23.4 3.56-46.72 4.58-70.12-6.18 1.43-12.27 3.71-18.64 4.03-3.23-1.2-4.37-4.87-5.08-7.92-1.63-8.48-0.59-18.03 4.88-24.99 4.96-6.06 12.85-8.5 20.17-10.33z"/>
  <path d="m435.04 111.76c10-0.51 20.08-0.68 30.04 0.59 4.85 0.85 10.27 2.01 13.42 6.16 3.76 4.98 3.71 11.55 3.85 17.51 0.07 37.33 0 74.66 0.03 111.99-0.05 2.49-0.07 5.42-2.12 7.19-2.62 2.22-6.21 2.54-9.45 3.13-9.87 1.36-19.88 1.12-29.81 0.92-7.29-0.42-15.26-0.42-21.48-4.79-4.92-3.48-6.5-9.81-6.65-15.52-0.9-28.73 1.7-57.45 0.89-86.17-5.29-0.55-9.74 2.91-14.77 3.79-2.94 0.42-5.34-1.98-6.08-4.63-3.09-9.49-1.56-20.6 4.7-28.49 3.45-4.41 8.49-7.33 13.8-8.91 7.65-2.29 15.71-2.36 23.63-2.77z"/>
 </g>
</svg>
