<svg id="a" version="1.1" viewBox="0 0 800 775.49" xml:space="preserve" xmlns="http://www.w3.org/2000/svg">
<g id="b" transform="matrix(3.6546 0 0 3.6546 -485.7 -445.89)" clip-rule="evenodd" fill="#efc138" fill-rule="evenodd">
	<path id="c" d="m257.3 146.3c-9.1-4.9-32.3-2.1-38 6.1 11.2-3.5 24.6-6.2 36-2.5 4.8 1.5 6.4-1.2 2-3.6z"/>
	<path id="d" d="m309.4 181.6c-5-62.6-87-79.6-121.8-33.1-21.7 29-14.8 69.9 15.5 91.5 46.5 33.1 110.9-0.4 106.3-58.4zm-93.6 1.2c-1.5-10.5 6.7-10.6 10.5-2.6 0.6 1.2 1 2.6 1.1 4.2 0.4 4.4-3.4 7-7.3 5.1-2.6-1.4-3.9-4-4.3-6.7zm48.3 48.5c-11.6 5.4-28 7.3-42.2-0.8-5.6-3.2-3.1-7.7 0.9-5.5 16.4 9.1 35.9 6.2 47.4 1.7 0.8-0.2-2.9 3-6.1 4.6zm9.7-17.8c2.9-0.3 6.4-1.8 9.1-2.8 6-2.3 2.5 2.1-0.5 3.9-14.3 8.2-34.4 6.5-45 0-5.2-3.1-9.2-6.9-8.5-13.2 0.4-3.2 2.5-5.9 5.6-7.5 8.8-4.8 20 4.3 28.9 3.7 23.9-1.6 17.2-45.7-22.9-44.1-14.6 0.6-30.1 9.3-34.6 26.6-1.1 4.3-1.6 9.1-1.4 14.4-0.4-1.2-0.8-2.5-1.2-3.8-1-3.4-2.1-4.7-2.9-4.1-0.3 1.3-0.7 2.4-1.1 3.5-1 7.1 1.7 17.4 5.4 24.8 2 3.9 4.6 7.4 7.6 10.5-10.2-6.4-17.3-16.7-18.9-30.8-2.6-17.2 1.7-37.5 15.6-49.1 1.2-1 3.1-2.5 5-2.4 0.4 0 0.8 0.2 0.9 0.5 0.2 0.7-3.3 4-3.9 4.7-1.2 1.4-2.3 2.7-2.6 3.1-0.8 1-1.1 1.5-1.8 2.8-0.3 0.5 0 0.8 0.7 0l0.1-0.1c2.4-2.5 5.2-4.8 8.2-6.8 0.3-0.2 0.5-0.4 0.8-0.5 0.2-0.1 0.3-0.2 0.5-0.3 2.5-1.5 5.1-2.9 8-4.1 37.9-15.4 81.2 21.8 60.3 58.8-2.7 4.7-6.5 8.4-10.9 11.1-1.8 0.9-1 1.2-0.5 1.2zm-46.3-40.4c0.1-12.1 15.2-13.1 13.9 1.6-1.5 16.4-14 8.1-13.9-1.6zm30.7 0.3c-0.1 9.7-12.7 17.7-13.9 1.3-1-14.7 14.1-13.4 13.9-1.3zm0.3 10.9c0.2-1.5 0.6-2.9 1.2-4.2 3.9-7.9 12-7.7 10.5 2.7-0.4 2.7-1.8 5.3-4.4 6.6-4 2-7.8-0.7-7.3-5.1z"/>
</g>
<g id="e" transform="translate(-132.9 441.29)" fill="#79b830" stroke-width="3.6546"><path id="f" d="m288.95 119.67c0-6.9438-0.73093-13.157-1.8273-18.639 6.2129-1.4619 14.619-2.1928 24.852-2.1928h17.908c8.4057 0 15.349 2.1928 20.466 6.2129 5.1165 4.3856 7.6747 9.8675 7.6747 16.446 0 9.502-4.3856 16.811-13.888 21.562 5.482 1.8273 9.8675 4.3856 13.157 8.4057s4.751 8.4057 4.751 13.888c0 8.0402-2.9237 14.253-9.1366 19.004s-14.619 7.3093-24.852 7.3093h-18.639c-6.9438 0-12.791 0.36547-18.273 1.0964-1.4618-4.0201-2.1928-8.4057-2.1928-13.157zm24.121-7.6747v25.582h8.4057c2.9237 0 5.482-1.0964 7.3093-3.6546s2.9237-5.482 2.9237-9.1366-1.0964-6.9438-3.2892-9.1366c-2.1928-2.5582-4.751-3.6546-8.0402-3.6546zm10.233 67.245c4.0201 0 6.9438-1.4619 9.1366-4.0201 2.5582-2.5582 3.6546-5.8474 3.6546-10.233s-1.4619-7.6747-4.0201-10.233c-2.5582-2.5582-5.8474-4.0201-9.8675-4.0201h-9.1366v28.506z"/><path id="g" d="m494.34 137.95-14.253 40.201c-1.8273 5.482-2.5582 9.502-2.5582 12.06-3.6546 1.8273-8.7711 2.9237-15.715 2.9237-2.9237 0-5.1165-1.0964-7.3093-2.9237s-4.0201-5.482-6.2129-10.598l-13.157-39.105-5.1165 37.643c-0.36546 2.5582-0.36546 4.3856-0.36546 5.482 0 2.5582 0.73093 4.751 2.1928 6.2129-4.3856 2.1928-9.8675 3.2892-16.08 3.2892-4.3856 0-6.5784-2.9237-6.5784-8.7711 0-1.4618 0.73093-7.6747 2.1928-18.639l4.3856-31.795 2.1928-15.349c0.36547-5.8474 0.73093-12.06 0.73093-18.273 5.8474-1.4619 14.619-2.1928 25.948-2.1928 2.9237 4.3856 5.1165 8.7711 6.2129 12.791l16.446 52.992 14.619-45.683c1.8273-5.8474 3.2892-12.06 4.3856-19.735 5.482-0.36546 12.426-0.73093 20.466-0.73093h4.751c1.4619 4.751 2.9237 11.695 4.0201 20.101l8.4057 59.571c0.36546 3.2892 1.0964 5.8474 1.8273 7.6747 0.73093 1.4618 1.8273 2.9237 3.2892 4.0201-4.0201 2.1928-10.233 3.2892-17.908 3.2892-2.9237 0-5.482-1.0964-7.6747-2.9237-2.1928-1.8273-3.6546-5.482-4.3856-10.598z"/><path id="h" d="m594.12 130.27-29.603 59.205c-4.3856 2.1928-9.8675 3.2892-17.177 3.2892-2.9237 0-5.1165-1.0964-6.9438-2.9237s-2.5582-5.482-2.5582-10.598v-60.667c0-6.5784-0.73093-12.791-1.8273-18.639 5.482-1.4619 13.888-2.1928 24.852-2.1928 0.73093 5.482 1.0964 12.426 1.0964 20.101v42.759l30.333-60.667c5.482-1.4619 13.522-2.1928 24.486-2.1928 0.73092 4.751 1.0964 11.695 1.0964 20.101v59.571c0 3.2892 0.36546 5.8474 0.73092 7.6747 0.36547 1.4618 1.4619 2.9237 2.9237 4.0201-4.751 2.1928-10.598 3.2892-18.273 3.2892-2.9237 0-5.1165-1.0964-6.9438-2.9237s-2.5582-5.482-2.5582-10.598z"/><path id="i" d="m632.49 120.04c0-6.9438-0.73092-13.157-1.8273-18.639 6.2129-1.4618 14.619-2.1928 24.852-2.1928h9.502c10.964 0 19.37 2.5582 25.948 7.6747 6.5784 5.1165 9.8675 11.695 9.8675 20.1 0 9.1366-3.6546 16.446-11.329 21.928-7.3093 5.482-17.177 8.4057-28.872 8.4057h-4.3856v20.466c0 5.8474 0.73093 9.8675 1.8273 11.695-4.3856 2.1928-9.8675 3.2892-17.177 3.2892-2.9237 0-5.1165-1.0964-6.9438-2.9237s-2.5582-5.482-2.5582-10.598zm24.486-7.6747v32.161h6.9438c3.6546 0 6.9438-1.4619 9.1366-4.3856s3.2892-6.9438 3.2892-11.329c0-4.751-1.4619-8.7711-4.0201-12.06-2.5582-2.9237-5.8474-4.751-9.8675-4.751z"/><path id="j" d="m736.65 150.37v28.506h28.141c5.8474 0 9.502-0.73093 11.695-1.8273 2.1928 2.5582 3.2892 5.8474 3.2892 9.8675 0 3.2892-4.3856 5.1165-13.157 5.1165h-33.257c-6.9438 0-12.791 0.36546-18.273 1.0964-1.4619-4.0201-2.1928-8.4057-2.1928-13.157v-61.398c0-6.5784-0.36546-12.426-1.8273-17.908v-1.0964c4.751-0.73093 11.695-1.0964 20.466-1.0964h32.161c5.8474 0 9.8675-0.36546 11.695-1.0964 2.1928 2.5582 3.2892 5.482 3.2892 9.5021 0 3.2892-4.3856 4.751-13.157 4.751h-28.141v25.582h23.39c5.8474 0 9.8675-0.36547 11.695-1.4619 2.1928 2.5582 3.2892 5.482 3.2892 9.5021 0 3.2892-4.3856 4.751-13.157 4.751z"/><path id="k" d="m212.57 288.52v30.333c0 5.8474 0.73093 9.8675 2.1928 12.06-4.0201 1.8273-9.8675 2.9237-16.811 2.9237-2.9237 0-5.482-1.0964-6.9438-2.9237-1.8273-1.8273-2.5582-5.482-2.5582-10.598v-32.161l-19.37 31.795c-5.8474 9.1366-12.791 13.888-20.466 13.888-6.9438 0-12.426-1.0964-15.715-3.2892 3.2892-1.8273 6.9438-5.8474 10.964-12.06l22.659-36.546-16.811-23.755c-3.2892-4.3856-6.9438-10.598-10.964-18.639 9.8675 0 17.908 0.36546 24.121 0.73092 4.3856 8.4057 7.6747 14.619 10.598 18.639l15.349 21.197v-19.735c0-6.9438-0.36546-12.791-1.0964-18.639 5.1165-1.4619 13.157-2.1928 24.486-2.1928 0.73093 4.751 1.0964 11.695 1.0964 20.1v20.1l15.349-21.197c2.5582-3.2892 6.2129-9.5021 10.964-18.273 5.8474-0.36546 13.888-0.73092 23.755-0.73092-3.2892 6.9438-6.9438 13.157-10.964 18.639l-16.811 23.755 22.659 36.546c3.6546 5.8474 7.3093 9.8675 10.598 12.06-3.2892 2.1928-8.4057 3.2892-15.715 3.2892-7.6747 0-14.253-4.751-20.466-13.888z"/><path id="l" d="m332.08 271.71-29.603 59.205c-4.3856 2.1928-9.8675 3.2892-17.177 3.2892-2.9237 0-5.1165-1.0964-6.9438-2.9237s-2.5582-5.482-2.5582-10.598v-60.667c0-6.5783-0.73093-12.791-1.8273-18.639 5.482-1.4618 13.888-2.1928 24.852-2.1928 0.73093 5.482 1.0964 12.426 1.0964 20.101v42.759l30.333-60.667c5.482-1.4618 13.522-2.1928 24.486-2.1928 0.73092 4.751 1.0964 11.695 1.0964 20.101v59.571c0 3.2892 0.36546 5.8474 0.73092 7.6747 0.36547 1.4619 1.4619 2.9237 2.9237 4.0201-4.751 2.1928-10.598 3.2892-18.273 3.2892-2.9237 0-5.1165-1.0964-6.9438-2.9237s-2.5582-5.482-2.5582-10.598z"/><path id="m" d="m370.45 260.74c0-6.9438-0.73092-13.157-1.8273-18.639 6.2129-1.4618 14.619-2.1928 24.852-2.1928h17.908c8.4057 0 15.349 2.1928 20.466 6.2129 5.1165 4.3856 7.6747 9.8675 7.6747 16.446 0 9.502-4.3856 16.811-13.888 21.562 5.482 1.8273 9.8675 4.3856 13.157 8.4057 3.2892 4.0201 4.751 8.4057 4.751 13.888 0 8.0402-2.9237 14.253-9.1366 19.004s-14.619 7.3093-24.852 7.3093h-18.639c-6.9438 0-12.791 0.36546-18.273 1.0964-1.4619-4.0201-2.1928-8.4057-2.1928-13.157zm24.121-7.6747v25.582h8.4057c2.9237 0 5.482-1.0964 7.3093-3.6546s2.9237-5.482 2.9237-9.1366-1.0964-6.9438-3.2892-9.1366c-2.1928-2.5582-4.751-3.6546-8.0402-3.6546zm10.233 67.245c4.0201 0 6.9438-1.4618 9.1366-4.0201 2.5582-2.5582 3.6546-5.8474 3.6546-10.233s-1.4619-7.6747-4.0201-10.233c-2.5582-2.5582-5.8474-4.0201-9.8675-4.0201h-9.1366v28.506z"/><path id="n" d="m451.95 288.88c0-14.619 4.3856-26.679 12.791-35.815 8.4057-9.1366 19.37-13.888 32.892-13.888 12.426 0 22.659 4.0201 30.333 12.426 7.6747 8.4057 11.695 19.37 11.695 32.892 0 14.619-4.3856 26.679-12.791 35.815-8.4057 9.1366-19.735 13.888-33.257 13.888-12.426 0-22.293-4.3856-29.968-12.791-8.0402-8.4057-12.06-19.37-11.695-32.526zm26.313-2.5582c0 10.233 1.8273 18.639 5.1165 24.852s7.6747 9.502 13.157 9.502c5.1165 0 9.1366-3.2892 12.426-9.502s4.751-14.253 4.751-24.486-1.8273-18.639-5.1165-24.852c-3.2892-6.2129-7.6747-9.502-13.157-9.502-5.1165 0-9.1366 2.9237-12.426 9.1366-3.2892 6.5783-4.751 14.619-4.751 24.852z"/><path id="o" d="m592.29 252.7v66.149c0 3.6546 0.36546 6.2129 0.73093 7.6747 0.36546 1.4619 1.4618 2.9237 2.5582 4.0201-4.3856 2.1928-10.598 3.2892-17.908 3.2892-2.9237 0-5.482-1.0964-6.9438-2.9237-1.8273-1.8273-2.5582-5.482-2.5582-10.598v-67.611h-8.4057c-6.9438 0-13.157 0.36546-18.639 1.0964-1.4618-4.0201-2.1928-8.4057-2.1928-13.157 4.751-0.73093 11.695-1.0964 20.466-1.0964h47.145c5.8474 0 9.8675-0.73093 11.695-1.8273 2.1928 2.5582 3.2892 5.8474 3.2892 9.8675 0 3.2892-4.3856 5.1165-13.157 5.1165z"/><path id="p" d="m684.75 291.81h-29.968v27.41c0 5.8474 0.73093 9.8675 1.8273 11.695-4.3856 2.1928-9.8675 3.2892-17.177 3.2892-2.9237 0-5.1165-1.0964-6.9438-2.9237s-2.5582-5.482-2.5582-10.598v-60.667c0-6.5783-0.73093-12.791-1.8273-18.639 5.482-1.4618 13.888-2.1928 24.852-2.1928 0.73093 5.482 1.0964 12.426 1.0964 20.101v19.004h29.968v-18.639c0-6.9438-0.36546-12.791-1.0964-18.273 5.482-1.4618 13.522-2.1928 24.486-2.1928 0.73093 4.751 1.0964 11.695 1.0964 20.101v59.571c0 3.2892 0.36546 5.8474 0.73093 7.6747 0.36546 1.4619 1.4618 2.9237 2.9237 4.0201-4.751 2.1928-10.598 3.2892-18.273 3.2892-2.9237 0-5.1165-1.0964-6.9438-2.9237s-2.5582-5.482-2.5582-10.598z"/><path id="q" d="m723.85 260.01c0-6.5783-0.73092-12.791-1.8273-18.639 5.482-1.4618 13.888-2.1928 24.852-2.1928 0.73092 5.482 1.0964 12.426 1.0964 20.101v14.253h10.233c10.598 0 19.37 2.5582 25.948 7.6747 6.5784 5.1165 9.8675 12.06 9.8675 20.466 0 9.1366-3.6546 16.811-10.964 22.293-7.3093 5.8474-17.177 8.4057-28.872 8.4057h-9.8675c-6.9438 0-12.791 0.36547-18.273 1.0964-1.4619-4.0201-2.1928-8.4057-2.1928-13.157zm24.121 60.302h9.1366c3.6546 0 6.9438-1.4618 9.1366-4.3856s3.2892-6.9438 3.2892-11.695-1.4618-8.7711-4.0201-12.06c-2.5582-2.9237-5.8474-4.751-9.8675-4.751h-7.6747zm54.82-60.302c0-6.2129-0.73093-12.426-1.8273-18.639 5.482-1.4618 13.888-2.1928 24.852-2.1928 0.73093 4.751 1.0964 11.695 1.0964 20.101v59.571c0 3.2892 0.36547 5.8474 0.73093 7.6747 0.36546 1.4619 1.4618 2.9237 2.9237 4.0201-4.751 2.1928-10.598 3.2892-18.273 3.2892-2.9237 0-5.1165-1.0964-6.9438-2.9237s-2.5582-5.482-2.5582-10.598z"/><path id="r" d="m905.12 239.91c4.751-0.36546 12.426-0.73093 22.293-0.73093-1.4618 4.3856-3.6546 8.4057-6.2129 12.426l-23.39 33.988 23.39 33.257c4.0201 5.8474 8.0402 9.8675 11.695 11.695-3.6546 2.1928-9.5021 3.2892-17.908 3.2892-7.3093 0-14.619-4.3856-21.197-13.157l-14.253-20.466-12.791 19.004c-3.6546 5.1165-6.2129 9.8675-6.9438 13.522-2.9237 0.73092-8.4057 1.0964-16.446 1.0964-2.9237 0-4.3856-1.0964-4.3856-2.9237s1.4619-5.482 4.751-10.233l24.852-36.546-16.811-24.486c-4.3856-6.2129-9.1366-12.426-14.619-18.639 5.482-1.4618 14.253-2.1928 27.044-2.1928 5.1165 5.8474 10.233 12.791 15.349 20.1l6.9438 10.233 6.9438-10.233c5.482-6.9438 9.5021-13.522 11.695-19.004z"/></g>
</svg>
