<?xml version="1.0" encoding="UTF-8"?>
<svg id="svg65" width="911.6pt" height="884.2pt" version="1.1" viewBox="0 0 911.6 884.2" xmlns="http://www.w3.org/2000/svg" xmlns:cc="http://creativecommons.org/ns#" xmlns:dc="http://purl.org/dc/elements/1.1/" xmlns:rdf="http://www.w3.org/1999/02/22-rdf-syntax-ns#">
 <metadata id="metadata71">
  <rdf:RDF>
   <cc:Work rdf:about="">
    <dc:format>image/svg+xml</dc:format>
    <dc:type rdf:resource="http://purl.org/dc/dcmitype/StillImage"/>
    <dc:title/>
   </cc:Work>
  </rdf:RDF>
 </metadata>
 <g id="#efc137ff" transform="translate(-43.87 -57.953)" fill="#efc137">
  <path id="path31" d="m480.35 58.25c13.56-0.41 27.15-0.46 40.71 0.27 25.75 2.27 51.38 7 75.86 15.45 33.66 11.3 65.24 28.88 92.36 51.81 13.89 11.38 26 24.78 37 38.93 24.95 31.98 41.36 70.25 48.95 110.01 8.6 46.63 6.79 95.52-7.72 140.81-10.74 33.6-28.19 65.09-51.19 91.85-24.55 28.76-55.34 52.01-89.29 68.55-40.04 19.31-84.62 29.1-129.05 28.24-26.69-0.75-53.39-4.82-78.83-13.03-37.22-11.43-71.63-31.06-101.66-55.71-28.47-24.28-52.53-53.9-69.39-87.37-14.02-27.87-23.52-58.08-27.16-89.1-1.81-15.56-3.11-31.29-1.75-46.93 2.34-43.21 15.38-85.89 38.14-122.73 21.85-36.31 52.78-66.93 88.72-89.29 36.87-22.54 78.94-36.36 121.93-40.57 4.12-0.47 8.22-1.06 12.37-1.19m-59.32 86.78c-22.87 9.88-44.06 23.71-61.98 41.04-2.67 2.79-5.36 5.69-8.96 7.28 2.12-7.44 7.48-13.22 12.29-19.05 5.93-7.32 12.76-13.84 19.04-20.84 2.01-2.14 5.1163-5.4318 4.06-7.61-3.3255-5.1348-15.885 2.419-20.08 5.6-21.77 16.56-38.4 39.13-50.33 63.58-12.55 27.32-19.81 57-21.62 86.99-0.34 9.32-0.27 18.65-0.2 27.97 0.13 13.01 2.1 25.88 3.96 38.73 4.98 31.2 17.73 61.5 38.52 85.48 10.62 12.11 22.62 23.21 36.44 31.57-5.61-6.72-11.51-13.24-16.44-20.5-12.67-17.24-21.11-37.16-27.49-57.48-6.15-20.53-10.14-42.04-8.52-63.54 0.93587-5.4213 3.1584-10.508 4.9115-15.723 2.0374-6.4123 5.7908-0.93821 6.8885 0.9831 5.05 8.22 6.5 17.96 9.97 26.84 0.75-11.1 0.48-22.28 1.97-33.33 3.66-32.16 16.64-63.79 39.49-87.07 26.93-28.44 65.3-44.67 104.09-47.49 19.88-0.94 40.03-0.09 59.35 5 17.49 4.28 34.32 11.65 48.93 22.21 26.81 19.07 46.31 49.27 49.73 82.29 1.91 18.77-2.07 39.02-14.39 53.78-9.66 11.99-24.62 18.83-39.75 20.38-17.43 1.99-34.25-4.2-50.51-9.55-16.64-5.55-33.62-12.04-51.46-11.26-14.81 0.02-29.33 7.65-37.99 19.63-6.74 8.59-8.49 20.28-6.69 30.85 1.65 10.91 8.28 20.36 16.3 27.65 11.16 9.82 23.99 17.77 37.86 23.16 22.08 8.83 45.88 12.82 69.59 13.56 28.95 0.43 58.34-4.19 84.91-16.06 6.9582-3.2549 14.13-6.4961 20.131-11.344 3.6957-2.9507 11.95-10.043 9.8995-13.016-1.6382-2.6967-4.5-1.7-6.79-0.84-8.8 2.56-17.12 6.5-25.82 9.34-5.7222 1.8123-11.534 3.9041-17.526 4.4133-8.938 1.0338-6.1075-1.7244 0.11612-5.6933 12.29-7.65 23.53-17.1 32.68-28.35 12.18-14.73 20.64-32.22 26.62-50.28 5.06-14.57 7.55-29.97 8.2-45.35 0.51-26.15-5.7-52.39-17.82-75.57-15.93-30.51-40.7-56.1-70-74.01-32.99-20.54-71.76-31.64-110.62-31.73-27.79 0.22-55.57 5.98-80.96 17.36m40.36 88.35c-8.24 2.36-14.77 8.84-18.71 16.27-4.89 9.41-5.25 20.41-3.91 30.71 1.66 7.67 4.77 15.1 9.49 21.4 5 6.5 11.57 12.46 19.84 14.14 6.18 1.42 12.63-1.48 16.56-6.24 6.88-7.92 9.03-18.68 10.48-28.78 0.9-9.86 1.13-20.15-2.41-29.56-2.24-5.84-5.85-11.39-11.16-14.86-5.81-4.01-13.45-5.12-20.18-3.08m69.06 0.29c-7.42 1.63-13.55 7.09-17.08 13.68-5.84 11.09-5.8 24.06-4.61 36.22 1.22 8.33 3.04 16.89 7.68 24.06 3.02 4.71 7.93 8.67 13.7 9 7.59 0.72 14.75-3.31 20.05-8.43 10.18-9.81 16.17-24.05 15.53-38.23 0.14-12.75-5.47-26.21-16.66-33.03-5.42-3.68-12.28-4.4-18.61-3.27m-129.04 43.72c-7.18 1.79-11.1 9.01-12.25 15.82-2.02 12.46-0.13 26.02 7.23 36.52 4.34 5.64 10.65 9.9 17.69 11.27 6.26 1.39 13.21-0.6 17.62-5.3 4.9-4.8 6.44-12.12 5.66-18.75-1.65-13.79-8.7-27.04-19.78-35.53-4.63-3.12-10.56-5.59-16.17-4.03m194.08 0.46c-12.35 3.59-20.41 15.15-25.14 26.48-2.73 7.19-4.19 15.15-2.51 22.76 1.88 8.16 9.75 14.49 18.14 14.44 7.69 0.22 15.06-3.69 20.21-9.23 7.71-8.79 10.15-20.89 10.11-32.29-0.24-7.3-2.04-15.48-8.18-20.13-3.5-2.95-8.39-2.83-12.63-2.03m-191.11 208.61c-3.74 2.38-3.71 7.61-2.04 11.26 2.5 5.21 7.21 8.93 12.05 11.89 11.23 6.45 23.22 11.55 35.61 15.35 42.11 12.68 88.29 9.1 128.96-7.03 13.76-5.3 27.01-12.73 37.13-23.63-12.16 4.06-24.27 8.39-36.84 11.03-16.8 3.86-33.98 6.14-51.22 6.58-37.2 1.21-75.25-5.81-108.09-23.82-4.66-2.32-10.81-5.38-15.56-1.63z"/>
  <path id="path33" d="m458.19 155.22c11.19-2.86 22.67-4.34 34.14-5.47 21.98-0.95 44.81-1.07 65.51 7.4 6.7277 2.8906 17.38 7.9549 14.588 15.929-3.0898 6.6755-16.401 2.1114-21.788 0.34149-20.15-6.41-41.55-6.78-62.49-5.88-28.82 1.76-56.87 9.16-84.52 17.02 4.41-6.55 10.91-11.27 17.55-15.36 11.45-6.7 24.22-10.72 37.01-13.98z"/>
 </g>
 <g id="#78b830ff" transform="translate(-43.87 -57.953)" fill="#78b830">
  <path id="path36" d="m750 673.51c8.69-0.14 17.47 0.61 26.04-1.23 2.01 3.72 4.3 8.17 2.87 12.43-2.63 3.67-7.81 3.57-11.88 3.86-11.58 0.24-23.17 0.03-34.75 0.1-0.01 9.68-0.01 19.36 0.02 29.04 9.58 0 19.17 0.05 28.75-0.01 3.97 0 7.9-0.57 11.79-1.35 2.07 3.93 4.09 8.53 2.57 13.01-2.95 2.95-7.42 3.21-11.34 3.31-10.6 0.07-21.19-0.07-31.78 0.05-0.06 10.65 0.01 21.31-0.02 31.96 11.59-0.02 23.18 0.07 34.77-0.05 3.86 0.01 7.59-1.37 11.45-1.27 1.99 3.14 2.93 6.95 2.84 10.67 0 1.61-0.96 3.18-2.43 3.86-3.65 1.88-7.87 1.93-11.87 2.12-20.06 0.32-40.15-0.56-60.19 0.91-1.27-4.19-2.38-8.49-2.35-12.89 0.01-22.35 0.02-44.69 0.01-67.03 0.11-8.85-0.54-17.7-2.24-26.38 15.86-1.72 31.82-0.94 47.74-1.11z"/>
  <path id="path38" d="m369.97 675.34c9.78-2.03 19.8-2.19 29.75-2.15 3.3 5.08 6.1 10.51 7.71 16.38 5.89 19.22 11.68 38.47 17.86 57.6 6.07-16.86 11.1-34.07 16.8-51.06 2.5-7.24 3.98-14.78 5.19-22.33 9.72-0.53 19.46-0.79 29.2-0.57 2.77 10.73 4.27 21.73 5.78 32.7 2.8 19.47 5.59 38.94 8.36 58.41 0.49 4.86 2.39 9.43 5.33 13.32-7.46 2.84-15.64 3.77-23.56 2.87-5.75-1.02-9.07-6.56-9.92-11.94-2.65-16.23-4.08-32.64-6.82-48.85-5.24 14.17-10.07 28.5-15.19 42.71-1.94 5.11-2.63 10.58-4.36 15.73-5.58 2.8-12.03 2.8-18.13 2.7-4.36 0.02-8.14-2.92-10.35-6.48-4.37-7.07-6.21-15.27-9.01-23-3.4-9.6-6.33-19.36-9.97-28.88-2 10.79-3.12 21.71-4.73 32.55-0.87 7.55-3.37 15.53 0.14 22.79-6.79 2.56-14.27 3.91-21.46 2.55-4.16-2.56-4.08-8.16-3.58-12.43 2.9-24.3 6.79-48.48 10.18-72.71 0.69-6.62 0.31-13.28 0.78-19.91z"/>
  <path id="path40" d="m503.69 675.17c9.44-1.84 19.12-2.52 28.72-2.01 2.55 23.1 0.55 46.4 1.53 69.57 4.09-6.17 6.8-13.09 10.15-19.67 6.52-13.13 13.21-26.18 19.57-39.39 1.5-2.79 2.57-5.88 4.66-8.3 8.93-2.43 18.41-2.4 27.62-2.47 1.22 10.66 0.87 21.39 0.92 32.1 0 17.66-0.01 35.33 0 53 0.26 6.65-0.36 13.87 3.83 19.55-7.42 2.85-15.57 3.85-23.45 2.97-4.94-0.88-7.41-5.87-7.56-10.48-0.66-19.46 0.49-38.97-0.61-58.4-11.08 20.92-21.24 42.33-31.98 63.44-0.68 0.96-1.07 2.32-2.24 2.82-5.3 2.34-11.17 2.93-16.9 3.24-3.51 0.22-7.23-0.87-9.67-3.47-2.27-3.02-2.59-6.99-2.61-10.63 0.06-15.02 0.02-30.03 0.03-45.04-0.11-15.63 0.69-31.36-2.01-46.83z"/>
  <path id="path42" d="m219.39 675.97c16.36-3.23 33.07-2.06 49.63-2.26 9.94-0.14 20.58 3.36 26.84 11.44 5.53 6.89 5.99 16.76 3.13 24.85-2.2 6.33-7.47 10.86-13.07 14.19 6.35 2.74 12.78 6.35 16.3 12.57 4.76 8 4.26 18.45 0.18 26.63-5.28 9.19-15.63 14.37-25.83 15.91-9.14 1.23-18.39 0.61-27.57 0.77-8.37-0.12-16.71 0.4-25.06 0.84-1.46-4.84-2.44-9.85-2.41-14.92 0-22.68 0.04-45.36-0.01-68.04 0-7.38-1.03-14.7-2.13-21.98m30.2 12.88c-0.15 9.66-0.08 19.33-0.04 29 5.91 0.2 13.32 1.49 17.57-3.73 5.28-6.79 4.42-18.32-3.02-23.25-4.41-2.38-9.66-1.95-14.51-2.02m0 44.28c-0.15 10.71-0.09 21.42-0.04 32.13 6.04-0.28 12.55 1.19 18.21-1.52 10.82-5.57 10.33-23.68-0.46-29.03-5.59-2.24-11.81-1.93-17.71-1.58z"/>
  <path id="path44" d="m611.24 676.3c12.76-2.67 25.85-2.19 38.81-2.35 11.76-0.05 24.34 2.5 33.08 10.93 12.25 10.88 11.34 31.97-0.24 43.02-10.95 10.5-26.88 13.35-41.55 12.58 0.4 12.42-1.24 25.02 1.51 37.26-6.64 2.46-13.75 3.44-20.81 2.97-3.18-0.19-6.32-2.19-7.51-5.2-1.09-2.68-1.28-5.6-1.39-8.45-0.16-21.35 0.3-42.71 0.19-64.06 0.21-8.95-0.74-17.87-2.09-26.7m30.09 13.01c0 12.16 0 24.31-0.04 36.47 4.25 0.12 8.76 0.99 12.82-0.72 4.33-1.82 7.14-6.07 8.35-10.48 2.22-8.09 0.33-18.12-6.95-23.08-4.13-2.95-9.43-2.09-14.18-2.19z"/>
  <path id="path46" d="m582.99 834.51c4.82 0.07 9.66-0.55 14.23-2.16 2.05 4.07 4.39 8.94 2.64 13.5-2.61 3.08-7.14 3.28-10.88 3.62-6.94 0.14-13.89-0.02-20.83 0.07-0.25 25.82 0.02 51.65-0.07 77.47-0.25 4.07 1.28 7.87 2.95 11.49-6.98 2.43-14.43 3.74-21.82 3.1-2.89-0.42-5.9-1.86-7.27-4.55-1.8-3.37-1.85-7.3-1.99-11.01-0.1-25.5 0.16-51.01-0.13-76.51-10.32-0.21-20.63 0.11-30.89 1.24-1.45-4.9-2.37-9.96-2.56-15.07 10.13-1.59 20.41-1.14 30.63-1.19 15.33-0.01 30.66 0 45.99 0z"/>
  <path id="path48" d="m50.06 833.85c9.13-0.43 18.25 0.05 27.36 0.59 4.32 7.92 8.43 16.01 13.81 23.29 5.15 7.16 10.4 14.26 15.52 21.45 0.27-14.44 0.24-28.89-0.67-43.3 9.12-1.76 18.44-2.43 27.73-2.12 1.98 15.06 0.34 30.29 1.52 45.39 10.23-14.55 21.67-28.41 29.33-44.59 9.13-0.36 18.26-0.98 27.4-0.78-3.5 8.13-8.23 15.68-13.4 22.85-6.15 8.58-12.1 17.31-18.37 25.81 8.67 14.35 17.71 28.48 26.41 42.82 2.92 5.05 7.23 9.05 11.39 13.05-6.76 4.2-15.14 4.21-22.78 3.32-9.47-2.76-16.03-10.95-20.75-19.18-6.7-10.33-12.4-21.31-19.66-31.26-0.48 9.26-0.13 18.54-0.24 27.8-0.1 6.63 0.52 13.27 2.16 19.71-7.24 2.32-15.09 3.85-22.63 2.31-5.65-1.62-7.05-7.86-7.19-12.98-0.45-12.42 0.17-24.86-0.28-37.28-6.66 10.69-13.2 21.46-19.72 32.24-4.71 7.93-11.09 15.92-20.44 18.33-7.65 1.3-15.77 0.3-22.69-3.32 9.87-7.62 15.16-19.16 21.77-29.38 5.31-8.86 10.92-17.53 16-26.51-10.97-15.78-23.42-30.74-31.58-48.26z"/>
  <path id="path50" d="m205.1 836.05c9.41-1.83 19.02-2.26 28.59-2.31 2.56 23.46 0.08 47.13 1.7 70.64 10.94-22.05 21.87-44.1 32.89-66.11 0.9-2.85 4.3-2.68 6.71-3.24 7.41-0.93 14.89-1.3 22.36-1.29 1.78 17.37 0.92 34.84 1.11 52.26 0.03 13.99-0.06 27.99 0.04 41.99-0.09 3.8 1.7 7.22 3.53 10.42-7.25 2.75-15.12 3.98-22.85 3.2-3.53-0.33-6.61-3.15-7.3-6.61-0.99-4.26-0.99-8.67-1.15-13.01-0.19-16.7 0.16-33.4-0.15-50.1-10.11 19.57-19.83 39.35-29.56 59.12-1.64 2.84-2.38 6.83-5.72 8.19-6.08 2.29-12.72 3.14-19.19 2.69-3.53-0.22-6.93-2.62-7.93-6.07-1.82-6.44-1.31-13.21-1.05-19.81 0.05-15.67-0.01-31.34 0.02-47.01 0.14-11.02-0.44-22.05-2.05-32.95z"/>
  <path id="path52" d="m448.37 834.49c10.41-1.88 21.5-1.3 31.31 2.89 13.12 5.66 22.68 18.16 25.88 31.97 3.12 12.89 2.32 26.71-1.93 39.26-5.51 15.55-18.88 28.24-35.05 32.01-13.68 3.04-29.08 1.89-40.8-6.38-13.48-9.42-20.9-25.94-20.49-42.21-0.34-14.74 3.36-30.18 13.28-41.46 7.05-8.37 17.01-14.18 27.8-16.08m5.02 14.89c-3.35 0.79-6.05 3.22-8.07 5.91-5.11 7.15-6.87 16.09-7.61 24.69-0.64 12.31-0.19 25.36 5.87 36.42 2.55 4.93 6.96 9.45 12.7 10.19 5.12 0.76 10.24-2.08 12.95-6.36 6.5-9.74 7.95-21.84 7.93-33.28-0.42-11.33-2.06-23.53-9.5-32.57-3.36-4.25-9-6.19-14.27-5z"/>
  <path id="path54" d="m609.1 835.94c9.38-1.95 18.99-2.45 28.55-2.17 1.64 14.85 1.45 29.84 1.55 44.76 11.13-0.02 22.27 0.01 33.4-0.04-0.1-14.15 0.77-28.37-1.05-42.44 9.21-1.8 18.62-2.38 27.99-2.28 1.59 13.01 1.03 26.15 1.13 39.23 0.01 18.02-0.01 36.04 0.01 54.07-0.17 4.09 1.62 7.85 3.53 11.35-7.27 2.93-15.24 3.98-23.03 3.16-4.34-0.68-7.24-4.77-7.58-8.96-0.94-12.95 0-25.97-0.8-38.93-11.21 0.05-22.41-0.04-33.62 0.04-0.11 9.76 0.07 19.51-0.07 29.27-0.08 5.23 0.46 10.46 1.67 15.56-6.87 2.59-14.28 3.86-21.61 3.05-3.35-0.58-6.34-3.11-7.19-6.44-1.8-6.58-0.83-13.45-0.83-20.17-0.01-17-0.02-34 0.01-51-0.03-9.39-0.84-18.76-2.06-28.06z"/>
  <path id="path56" d="m715.27 836.38c9.33-2.54 19.11-2.38 28.7-2.66 1.94 13.12 1.19 26.39 1.38 39.6 9.89 0.1 20.09-0.79 29.58 2.63 8.52 2.77 16.45 8.41 20.55 16.54 5.05 10.79 3.35 24.49-4.43 33.57-6.55 7.73-16.18 12.23-26.05 13.85-14.93 2.26-30.07 0.56-45.05 2.15-1.27-4.24-2.42-8.58-2.4-13.04-0.09-15.01 0.16-30.02-0.23-45.02-0.3-15.88 1.12-31.93-2.05-47.62m29.88 52.31c-0.49 12.37-0.47 24.78-0.01 37.15 4.45-0.03 8.94 0.34 13.35-0.34 5.25-1.17 8.6-6.14 9.9-11.06 2.29-7.88 0.75-17.58-5.95-22.89-4.92-3.84-11.5-2.78-17.29-2.86z"/>
  <path id="path58" d="m805.33 836.45c9.45-2.43 19.28-2.36 28.97-2.33 1.51 15.25 0.9 30.58 1.01 45.88 0.03 15.68-0.06 31.36 0.03 47.04-0.17 4.21 1.46 8.14 3.5 11.73-7.81 2.62-16.35 4.25-24.51 2.59-6.11-2.38-6.68-9.71-6.66-15.35 0.22-15.34-0.24-30.67-0.15-46.01-0.1-14.54 0.71-29.2-2.19-43.55z"/>
  <path id="path60" d="m846.78 836.1c8.24-2.07 16.81-2.18 25.26-2.44 2.53 0.13 5.75-0.56 7.46 1.86 8.74 10.23 15.96 21.63 23.79 32.54 7.74-10.75 15.48-21.63 21.11-33.67 8.49-0.67 17.01-0.81 25.52-0.6-3.14 9.64-9.75 17.5-15.32 25.8-6.13 9.12-12.68 17.96-18.58 27.23 7.68 10.72 15.22 21.55 22.76 32.38 4.63 7.16 9.99 13.86 16.69 19.2-7.61 3.19-16.09 3.83-24.23 3.02-8.41-1.74-15.04-7.93-20.08-14.56-5.57-7.53-10.43-15.56-16.19-22.95-5.49 7.3-10.39 15.03-15.62 22.52-2.72 3.81-4.84 7.98-6.62 12.29-0.82 2.71-4.17 2.37-6.41 2.7-5.21 0.03-10.54 0.94-15.67-0.17-2.98-0.53-2.44-4.1-1.57-6.18 2.85-6.42 7.45-11.85 11.27-17.69 7.19-10.89 14.89-21.43 22.04-32.35-10.81-15.28-20.5-31.44-32.91-45.52-0.94-1.13-1.83-2.28-2.7-3.41z"/>
  <path id="path62" d="m312.28 836.88c15.05-2.97 30.46-2.3 45.72-2.39 7.57-0.17 15.42 0.69 22.18 4.36 7.73 4.01 13.49 12.24 13.36 21.12 0.27 6.12-1.32 12.49-5.27 17.28-2.47 3.24-5.92 5.48-9.17 7.84 6.28 2.85 12.51 6.57 16.06 12.73 4.5 7.78 4.32 17.8 0.42 25.79-4.86 9.18-14.74 14.66-24.73 16.33-17.89 2.63-36.04 0.26-54.01 2.05-1.17-4.24-2.37-8.54-2.36-12.96-0.02-22.68 0.03-45.35-0.02-68.02 0-8.1-0.96-16.14-2.18-24.13m29.98 13.26c0.08 9.6 0.04 19.2 0.03 28.8 5.2 0.18 10.98 0.86 15.62-1.98 7.93-6.33 7.18-21.03-2.03-25.86-4.31-1.77-9.1-1.11-13.62-0.96m0.06 44c-0.02 10.6-0.02 21.19-0.03 31.79 5.89 0.32 12.13 1.26 17.76-0.94 11.27-5.08 11.23-23.84 0.23-29.2-5.55-2.82-12-1.29-17.96-1.65z"/>
 </g>
</svg>
