<svg id="a" width="790.89pt" height="165.38pt" version="1.1" viewBox="0 0 790.89 165.38" xmlns="http://www.w3.org/2000/svg">
 <path id="b" d="m82.625 0 82.992 82.69-82.992 82.69-82.625-82.69z" fill="#3eb4e6"/>
 <g id="c" fill="#3eb4e6">
  <path id="d" d="m617.12 42.687h15.19l33.89 41.755 27.24-41.755h13.77l-51.64 80h-14.301l18.101-27.755z"/>
  <path id="e" d="m724.04 52.962c7.33-6.64 17.19-10.535 27.11-10.305h39.745v11.615h-41.535c-13.97 0.51-26.31 12.92-26.68 26.92-0.86 11.32 6.08 22.58 16.39 27.19 6.48 3.44 14.01 2.65 21.07 2.76h30.755v11.475h-39.715c-11.88 0.37-23.64-5.235-31.13-14.385-6.06-7.19-9.27-16.62-9.2-25.99 0.09-11.03 4.97-21.93 13.19-29.28z"/>
 </g>
 <g id="f" transform="translate(-48.83 -49.798)" fill="#1a3668">
  <path id="g" d="m288.81 172.53 40.2-80.04 7.3-0.03 40.31 80.07h-12.99l-11.63-22.74h-38.68l-11.49 22.74h-13.02m30.42-34.54h26.9l-13.45-26.59z"/>
  <path id="h" d="m389.01 92.5h53.04c14.68 0.32 27.49 13.84 27.01 28.52 0.5 14.5-11.79 27.895-26.26 28.695h-42.29v22.665h-11.5v-79.88m11.5 11.515v33.965h40.57c7.41-0.02 14.11-5.78 15.84-12.89 1.89-6.9-1.45-14.73-7.53-18.4-3.08-1.99-6.79-2.705-10.41-2.675z"/>
  <path id="i" d="m481.22 172.51 0.06-80.01h11.73v60.1l60.15-60.1h8.33l0.01 80.01h-11.74v-60.11l-59.861 60.11z"/>
  <path id="j" d="m583.49 92.51h69.02v11.51h-57.28v68.49h-11.74z"/>
 </g>
</svg>
