<svg width="736.74pt" height="685.38pt" version="1.1" viewBox="0 0 736.74 685.38" xmlns="http://www.w3.org/2000/svg">
 <path d="m365.77 365.85 365.74-365.85v45.98l-365.74 365.9-182.94-182.86-182.82 182.86v-45.99l182.82-182.91z" fill="#2eaade"/>
 <path d="m365.77 457.32 365.74-365.85v45.98l-365.74 365.9-182.94-182.86-182.82 182.86v-45.99l182.82-182.91z" fill="#0e71b4"/>
 <path d="m365.77 548.71 365.74-365.85v45.98l-365.74 365.9-182.94-182.86-182.82 182.86v-45.99l182.82-182.91z" fill="#0d2d68"/>
 <g transform="translate(-25.62 .28)" fill="#2eaade">
  <path d="m53.93 604.19c7.47-4.63 16.44-5.99 25.08-6.19 11.7 0 23.4-0.01 35.1 0 3.21-0.31 5.68 2.91 5.39 5.94-0.01 25.01 0.04 50.03-0.03 75.04 0.13 2.96-2.59 5.6-5.54 5.5-3.98 0.06-7.96 0.07-11.94-0.01-2.88 0.05-5.39-2.59-5.33-5.45-0.13-5.13 0.02-10.26-0.05-15.39-14.23 0-28.46 0.01-42.69-0.01-1.39 5.07-2.67 10.17-4.11 15.24-0.86 3.4-4.26 5.93-7.78 5.66-4.32-0.1-8.65 0.19-12.95-0.18-2.52-0.68-3.34-3.68-2.5-5.91 5.09-19.13 10.11-38.27 15.2-57.4 1.75-6.88 6.09-13.1 12.15-16.84m10.13 21.82c-2.02 6.79-3.75 13.67-5.67 20.49 12.74-0.01 25.47-0.01 38.21 0 0.05-10.46 0.01-20.91 0.03-31.36-5.88 0.01-11.76-0.06-17.64 0.01-6.62-0.04-12.98 4.5-14.93 10.86z"/>
  <path d="m139.88 603.9c-0.2-2.87 2.04-5.87 5.03-5.86 16.35-0.09 32.71-0.02 49.06-0.03 9.25 0.2 19.17 2.48 25.85 9.31 6.35 6.41 8.37 15.84 8.23 24.6 0.06 8.78-2.18 18.21-8.73 24.46-6.7 6.47-16.34 8.57-25.37 8.85-10.4 0.07-20.8 0-31.2 0.03-0.05 4.62 0.12 9.24-0.05 13.87-0.03 2.96-2.76 5.61-5.76 5.36-3.97 0.03-7.94 0.08-11.91-0.03-3.19-0.1-5.51-3.34-5.16-6.4 0.01-24.72-0.03-49.44 0.01-74.16m22.87 11.23c0.01 11 0 21.99 0.01 32.99 7.72-0.02 15.44 0.05 23.16-0.03 5.17-0.18 10.92-0.57 14.98-4.18 3.53-3.22 4.38-8.29 4.33-12.85-0.09-4.26-1.08-8.93-4.45-11.85-3.72-3.25-8.92-3.86-13.66-4.05-8.12-0.08-16.25 0-24.37-0.03z"/>
  <path d="m238.12 598.19c4.94-0.43 9.92-0.11 14.88-0.19 3.92-0.15 7.49 2.11 9.86 5.09 5.7 7.11 11.27 14.32 16.95 21.45 5.55-7.07 11.1-14.13 16.68-21.17 2.29-2.91 5.64-5.34 9.49-5.35 5.01-0.01 10.04-0.15 15.04 0.08 2.8 0.44 2.58 3.99 0.96 5.61-9.49 12.13-19.08 24.19-28.62 36.29 10.07 12.82 20.12 25.65 30.17 38.49 1.09 1.3 2.02 3.36 0.88 4.93-1.08 1.33-2.87 1.03-4.37 1.1-4.01-0.06-8.03 0.05-12.04-0.04-4-0.02-7.48-2.52-9.83-5.58-6.13-7.81-12.26-15.62-18.36-23.44-6.21 7.88-12.37 15.79-18.58 23.67-2.44 3.13-6.13 5.53-10.22 5.37-4.67-0.05-9.35 0.14-14.01-0.09-2.85-0.29-2.87-3.93-1.19-5.58 10.11-12.96 20.28-25.88 30.4-38.83-9.54-12.16-19.19-24.24-28.7-36.42-1.47-1.49-1.77-4.65 0.61-5.39z"/>
  <path d="m331.62 604.04c-0.37-3.03 2.13-6.06 5.23-6.01 4.09-0.08 8.19-0.08 12.28 0.01 3.13-0.08 5.58 3 5.34 6.02 0.09 7.77-0.01 15.54 0.04 23.32 8.49-0.01 16.97-0.01 25.46-0.01 8.17 0.04 16.62 2.3 22.96 7.62 12.36 10.19 12.36 31.72-0.01 41.9-6.62 5.5-15.43 7.73-23.91 7.63-14.02-0.05-28.03 0.02-42.05-0.03-2.94 0.11-5.4-2.67-5.32-5.52-0.05-24.98 0-49.95-0.02-74.93m22.88 40.47c0 7.62-0.01 15.24 0.01 22.86 9.18-0.2 18.41 0.41 27.56-0.31 6.8-1.22 8.14-9.5 6.78-15.15-0.62-4.28-4.59-7.5-8.9-7.36-8.48-0.12-16.96-0.02-25.45-0.04z"/>
  <path d="m427.42 598.44c4.44-0.96 9.11-0.24 13.65-0.44 3.36-0.4 6.44 2.65 6.15 6.02 0.06 24.67 0.02 49.34 0.02 74.01 0.32 3.08-2.05 6.3-5.24 6.42-4.02 0.13-8.04 0.06-12.05 0.04-3 0.25-5.86-2.38-5.8-5.39-0.06-25.05-0.02-50.1-0.02-75.15-0.18-2.32 1.17-4.58 3.29-5.51z"/>
  <path d="m471.77 605.97c7.87-6.31 18.22-8.98 28.19-8.48 11.08 0.33 22.48-1.14 33.22 2.3 6.06 1.84 11.75 5.69 14.68 11.43 4.81 9.71 3.65 23.07-5.32 30.02 4.13 2.67 7.6 6.64 8.67 11.55 2.13 9.97-0.65 22.26-10.2 27.46-12.53 6.88-27.34 4.19-40.99 4.75-10.4 0.62-21.36-1.56-29.65-8.17-5.39-4.18-9.32-11.08-8.11-18.04 0.61-3.04 3.79-4.89 6.76-4.66 3.32 0.09 6.86-0.52 10.03 0.74 4.29 1.85 4.7 7.28 8.31 9.87 3.02 2.33 6.92 3.21 10.69 3.13 5.97 0 11.95 0.01 17.93 0 3.73-0.11 7.98-0.29 10.85-3.03 2.5-2.67 2.66-6.86 1.45-10.14-1.47-3.7-5.78-4.91-9.38-5.12-6.25-0.25-12.51 0.11-18.75-0.14-2.89-0.04-5.51-2.53-5.48-5.46-0.27-3.79-0.65-9.12 3.77-10.68 8.09-1.2 16.65 1.11 24.52-1.7 6.44-2.37 6.47-13.2 0-15.54-5.4-2.14-11.35-1.25-17.01-1.43-5.56 0.07-11.79-0.79-16.53 2.81-3.8 2.53-4.33 8.24-8.93 9.8-3.46 0.84-7.09 0.53-10.61 0.43-3.02-0.05-5.63-2.64-5.82-5.63-0.56-6.28 2.95-12.23 7.71-16.07z"/>
  <path d="m598.55 606.69c7.05-5.97 16.37-8.75 25.48-9.17 11.02 0.03 22.65-0.91 32.92 3.92 6.43 2.86 11.29 8.83 12.83 15.7 1.7 7.59 1.66 16.22-2.84 22.89-3.94 5.9-10.34 9.53-16.78 12.11-9.13 3.68-18.93 5.18-28.22 8.36-3.34 1.18-7.16 2.98-7.9 6.83 16.66 0.1 33.33 0 49.99 0.05 2.03-0.13 4.07 0.86 5.15 2.62 1.49 2.71 0.9 6.02 0.88 8.99-0.01 3.12-2.96 5.79-6.06 5.51-22.34 0-44.69 0.04-67.03-0.02-2.89 0.05-5.59-2.5-5.55-5.42-0.06-4.82-0.29-9.68 0.37-14.46 1.05-7.12 5.5-13.43 11.53-17.25 10.77-7.03 23.89-8.33 35.81-12.48 3.43-1.3 7.47-3.07 8.6-6.9 0.92-4.66-0.77-10.68-5.8-12.17-5.79-1.71-12-1.29-17.95-0.88-5.16 0.4-9.63 3.76-11.67 8.47-2.68 5.45-9.45 4.4-14.44 4.32-2.82 0.05-5.64-1.91-6.18-4.74-1.06-6.2 2.21-12.36 6.86-16.28z"/>
  <path d="m715.13 602.11c2.12-2.62 5.41-4.17 8.79-4.1 6.75-0.02 13.5-0.04 20.24 0.01 3.15-0.15 5.9 2.83 5.59 5.95 0.01 16.05-0.01 32.11 0 48.16 4.08 0.19 9.85-1.26 12.02 3.38 0.79 3.33 0.77 7.03 0.02 10.37-2.08 4.72-7.95 3.33-12.04 3.5-0.04 3.22 0.09 6.44-0.04 9.67 0.08 3-2.76 5.57-5.71 5.44-3.96 0.03-7.93 0.08-11.89-0.04-2.81-0.04-5.24-2.63-5.18-5.42-0.17-3.22-0.03-6.44-0.06-9.65-16.26-0.02-32.53 0.03-48.78-0.02-3.42 0.24-6.53-2.91-6.1-6.33 0.08-5.11-0.88-10.99 2.89-15.12 13.36-15.31 26.86-30.51 40.25-45.8m-18.67 50.01c10.14 0 20.27 0.01 30.41-0.01 0-11.52 0.01-23.03-0.01-34.55-10.13 11.51-20.28 23.02-30.4 34.56z"/>
 </g>
</svg>
