<svg id="a" width="634.06pt" height="612.86pt" version="1.1" viewBox="0 0 634.06 612.86" xmlns="http://www.w3.org/2000/svg">
 <g id="b" transform="translate(-67.49,-78.1)">
  <path id="c" d="m384.48 78.1 184.69 319.99-140.11 0.08-114.73-198.49z" fill="#383aa1"/>
 </g>
 <g id="d" transform="translate(-67.49,-78.1)">
  <path id="e" d="m314.33 199.68 70.16 121.39-114.65 198.61-140.23 0.04z" fill="#cc1e28"/>
 </g>
 <g id="f" transform="translate(-67.49,-78.1)">
  <path id="g" d="m314.33 199.68 70.16 121.39-14.23 24.829z" fill="#991419"/>
 </g>
 <g id="h" transform="translate(-67.49,-78.1)">
  <path id="i" d="m419.6 382.05 149.57 16.04-140.11 0.08z" fill="#1a1d50"/>
 </g>
 <g id="j" transform="translate(-67.49,-78.1)">
  <path id="k" d="m340.06 398.13 229.11-0.04 70.23 121.7-369.56-0.11z" fill="#f99231"/>
 </g>
 <g id="l" transform="translate(-67.49,-78.1)">
  <path id="m" d="m340.06 398.13h27.05l-97.27 121.55z" fill="#b6802a"/>
 </g>
 <g id="n" transform="translate(-67.49,-78.1)" fill="#fff">
  <path id="o" d="m118.49 566.18 36.35-0.03 51.22 124.78-40.89 0.01-8.92-23.22h-40.37l-9.08 23.21h-39.31l51-124.75m8.37 72.99h18.22l-9.06-29.47z"/>
  <path id="p" d="m215.46 690.91-0.01-124.05 45.55-0.02c9.18 0.08 18.54-0.55 27.5 1.89 10.4 2.55 19.85 9.09 25.58 18.18 5.61 9 6.65 20.34 4.25 30.54-3.21 13.27-14.42 23.66-27.26 27.62-12.11 3.89-24.98 2.26-37.47 2.61l-0.01 43.23h-38.13m38.17-93.04-0.04 22.15c7.09-0.55 14.77 1.45 21.39-1.79 6.58-3.17 7.54-13.39 1.51-17.59-6.67-4.67-15.3-2.09-22.86-2.77z"/>
  <path id="q" d="m330.88 566.86 37.82 0.12 26.99 44.1 27.39-44.22 37.4-0.03 0.16 124.08-36.52 0.02-0.03-69.51-17.41 29.48-20.65 0.14-18.27-29.54-0.01 69.43h-36.87z"/>
  <path id="r" d="m475.89 566.86 101.53-0.02 0.03 17.92h-41.12v106.17h-19.49v-106.16l-40.93-0.02z"/>
  <path id="s" d="m598.73 566.85 49.27-0.01c11.23-0.34 23.45 0.27 32.75 7.36 10.63 7.74 13.46 23.13 8.55 34.92-2.6 6.24-7.8 11.35-14.14 13.74 7.8 1.46 15.14 5.7 19.87 12.13 6.48 8.73 7.93 20.53 5.24 30.91-2.74 10.41-11.46 18.44-21.4 22.01-9.86 3.73-20.55 2.96-30.87 3.03l-49.27-0.01v-124.08m19.48 17.93 0.02 32.06h33.74c4.92-0.05 10.07-0.84 14.23-3.66 8.3-5.51 8.23-19.86-0.35-25.08-4.13-2.59-9.11-3.31-13.88-3.35l-33.76 0.03m0.01 49.27 0.01 38.98 37.79 0.01c6.01 0 12.33-1.1 17.29-4.71 7.88-5.66 9.3-17.79 4.15-25.71-4.28-6.25-12.29-8.31-19.46-8.55z"/>
 </g>
</svg>
