<svg id="a" width="126.93" height="46.473" version="1.1" viewBox="0 0 119 43.568" xmlns="http://www.w3.org/2000/svg">
 <g id="b" transform="matrix(1.2028 0 0 1.2028 -139.84 -556.8)">
  <path id="c" d="m196.98 462.92c-7.6773 0-14.241 4.7238-16.922 11.406 1.8821 1.4291 3.1115 3.7781 3.1115 6.4355 0 2.7355-1.3007 5.1448-3.2764 6.56 2.5717 6.9011 9.2508 11.821 17.087 11.821 10.061 0 18.217-8.1096 18.217-18.111 0-10.002-8.1564-18.111-18.217-18.111" fill="#db1e26" fill-rule="evenodd"/>
  <path id="d" d="m128.58 482.54h-4.627l2.341-5.4798zm-1.1149-11.972c-0.1166-0.2715-0.3837-0.4475-0.6795-0.4475h-0.8599c-0.2931 0-0.5581 0.1726-0.6763 0.441l-8.9249 20.269c-0.1006 0.2288-0.079 0.4923 0.057 0.7014 0.1362 0.2093 0.3692 0.335 0.619 0.335h2.4726c0.2963 0 0.5637-0.1769 0.6797-0.4495l2.2555-5.3027h7.6741l2.2034 5.2975c0.1145 0.2755 0.3837 0.4547 0.6825 0.4547h2.4997c0.4082 0 0.7389-0.3305 0.7389-0.7384 0-0.1327-0.035-0.2578-0.096-0.3655l-8.6509-20.195" fill="#fff"/>
  <path id="e" d="m141.27 482.46h1.2238c4.2056 0 4.7454 1.53 4.7454 2.8634 0 1.3833-0.5056 2.9714-4.4497 2.9714h-1.5195zm0.1219-3.4129h-0.1219v-5.3502h0.1484c2.9264 0 3.9653 0.4002 3.9653 2.6483 0 2.312-1.2315 2.7019-3.9918 2.7019zm6.419 0.9939c0.8603-0.962 1.3087-2.2179 1.3087-3.6958 0-4.0128-2.6683-6.2227-7.5129-6.2227h-3.3334c-0.4079 0-0.7387 0.3307-0.7387 0.7384v20.269c0 0.4079 0.3308 0.7384 0.7387 0.7384h4.7044c5.0076 0 7.9969-2.386 7.9969-6.3837 0-2.4057-1.2289-4.4544-3.1637-5.444" fill="#fff"/>
  <path id="f" d="m164.36 472.96v-2.0975c0-0.4076-0.3308-0.7383-0.7387-0.7383h-12.635c-0.4085 0-0.7389 0.3307-0.7389 0.7383v2.0975c0 0.4079 0.3304 0.7386 0.7389 0.7386h4.4225v17.433c0 0.4079 0.3313 0.7384 0.7389 0.7384h2.2584c0.4079 0 0.7389-0.3305 0.7389-0.7384v-17.433h4.476c0.4079 0 0.7387-0.3307 0.7387-0.7386" fill="#fff"/>
  <path id="g" d="m173.9 488.64c-4.1729 0-7.5673-3.4306-7.5673-7.6476 0-4.2174 3.3944-7.6485 7.5673-7.6485 4.1732 0 7.5676 3.4311 7.5676 7.6485 0 4.217-3.3944 7.6476-7.5676 7.6476zm0-18.87c-6.2325 0-11.303 5.0462-11.303 11.249 0 6.1729 5.0708 11.196 11.303 11.196 6.2327 0 11.304-5.0226 11.304-11.196 0-6.2029-5.0708-11.249-11.304-11.249" fill="#fff"/>
  <path id="h" d="m192.47 484.66c0.4913-0.5573 0.9907-1.1238 1.5-1.7061 0.1513-0.1729 0.31-0.3506 0.4726-0.5335 1.346-1.5101 3.0213-3.389 3.3645-5.6972v-1.2628c-0.237-2.7147-2.2048-4.3356-5.2645-4.3356-0.2116 0-0.429 0.01-0.6455 0.025-2.893 0.2219-4.9807 2.5504-4.8568 5.4101v0.1843l0.1304 0.011c0.1718 0.015 0.3649 0.01 0.5581 0 0.1059 0 0.2122-0.01 0.3142-0.01 0.1287 0 0.315 0.01 0.4489 0.054l0.184 0.068 0.01-0.196c0.052-1.4459 0.5219-2.5546 1.3579-3.2061 0.6082-0.4749 1.6536-0.7817 2.6632-0.7817 0.7916 0 1.4849 0.1789 2.0045 0.5173 1.015 0.6615 1.5067 1.9192 1.3483 3.4506-0.1348 1.3046-0.9107 2.3794-1.7627 3.4567-1.1341 1.4346-2.4575 2.8982-3.7374 4.3134-1.1477 1.2685-2.2313 2.4668-3.1582 3.6148l-0.032 0.039v1.3331h11.255v-1.534h-8.958c0.9109-1.0662 1.8336-2.1131 2.8064-3.2169" fill="#fff"/>
  <path id="i" d="m205.51 483.42h-6.1376c0.02-0.073 0.082-0.1538 0.161-0.2506 0.036-0.045 0.071-0.087 0.097-0.1265 0.8045-1.2181 1.6767-2.5002 2.5199-3.7402 0.7053-1.0372 1.4132-2.0778 2.0965-3.1024 0.074-0.1114 0.1499-0.2225 0.2257-0.3339 0.2034-0.2991 0.4133-0.6084 0.5933-0.9235 0.118-0.2057 0.2199-0.4321 0.3185-0.6509 0.044-0.099 0.089-0.1994 0.1362-0.2974 0.075 3.0642 0.072 6.384-0.01 9.4254zm1.7969 0c-0.073-2.3674-0.062-4.8588-0.05-7.2696 0.01-1.512 0.014-3.0753 0-4.5928v-0.141h-1.7915l-0.042 0.063c-2.782 4.1455-5.5237 8.3125-8.1487 12.385l-0.023 0.035v1.0537h8.2675c0.065 0.8116 0.054 1.7149 0.043 2.5903-0.01 0.5714-0.015 1.1625 0 1.7242v0.1387h1.6903v-0.1387c0.014-0.5609 0.01-1.1508 0-1.7217-0.011-0.8759-0.023-1.7806 0.043-2.5928h2.7273v-1.5337h-2.7201" fill="#fff"/>
 </g>
</svg>
