<?xml version="1.0" encoding="UTF-8"?>
<svg id="svg36" width="399.97pt" height="81.882pt" version="1.1" viewBox="0 0 399.97 81.882" xmlns="http://www.w3.org/2000/svg" xmlns:cc="http://creativecommons.org/ns#" xmlns:dc="http://purl.org/dc/elements/1.1/" xmlns:rdf="http://www.w3.org/1999/02/22-rdf-syntax-ns#" xmlns:xlink="http://www.w3.org/1999/xlink">
 <metadata id="metadata42">
  <rdf:RDF>
   <cc:Work rdf:about="">
    <dc:format>image/svg+xml</dc:format>
    <dc:type rdf:resource="http://purl.org/dc/dcmitype/StillImage"/>
    <dc:title/>
   </cc:Work>
  </rdf:RDF>
 </metadata>
 <g id="g879" transform="scale(1.0815)">
  <g id="#000000ff" transform="translate(-16.395,-13.1)" fill="#fff">
   <path id="path2-03" d="m16.395 13.1c3.24 0.64 6.13 3.45 6.14 6.88v20.61c5.31-6.95 12.635-12.83 21.495-14.21 13.84-2.63 29.44 3.99 35.67 16.95 5.38 10.58 3.58 24.29-4.35 33.12-9.86 11.39-27.45 14.06-40.94 8.12-10.69-4.68-17.885-15.9-18.015-27.52v-43.95m29.115 18.5c-9.08 1.36-17.54 7.36-20.98 16-3.68 8.66-1.54 19.2 4.66 26.16 10.8 12.32 32.95 11.14 42.49-2.15 6.2-8.29 6.5-20.41 0.57-28.93-5.7-8.6-16.7-12.72-26.74-11.08z"/>
   <path id="path4-0-0" d="m87.75 31.49c11.86-5.27 25.67-7.85 38.22-3.46 7.66 2.71 13.36 10.04 13.75 18.21 0.39 13.47 0.25 16.934 0.25 40.44-1.95-0.24-4.1-0.69-5.22-2.49-1.83-2.18-1-5.16-1.08-7.74-5.82 6.92-14.65 11.06-23.69 11.14-8.37 0.34-17.58-1.92-23.24-8.47-5.22-5.79-4.86-15.38 0.2-21.15 3.54-4.19 8.86-6.36 14.1-7.51 10.79-2.23 21.96-0.92 32.61 1.46 0.16-5.08-0.41-10.66-4.1-14.52-4.95-5.23-12.67-6.34-19.53-6.05-5.53-0.02-10.79 1.75-15.96 3.49-2.62 0.93-5.27-1.02-6.31-3.35m5.92 28.12c-4.63 3.82-5.41 11.44-1.45 16.01 4.78 5.61 12.8 7.02 19.8 6.41 7.72-0.73 16.02-4.01 19.98-11.08 2.47-4.13 1.48-9.13 1.73-13.69-7.13-1.62-14.4-2.83-21.72-2.71-6.36-0.07-13.33 0.76-18.34 5.06z"/>
   <path id="path6-8" d="m217.15 37.16c10.17-12.8 30.85-15.18 43.6-4.94 8.02 6.27 11.54 16.885 11.04 26.825h-54.98c0.71 6.83 3.97 13.485 9.49 17.695 6.92 5.53 16.48 6.52 24.9 4.56 6.21-1.62 11.48-5.6 16.16-9.83 7.54 6.11 16.93 9.85 26.6 10.62 5.53 0.41 11.57-0.48 15.89-4.21 3.31-2.89 4.36-8.58 1.27-11.99-3.68-4.1-9.34-5.19-14.39-6.63-6.92-2.03-14.47-2.98-20.35-7.48-3.39-2.43-5.18-6.64-4.63-10.77 0.56-7.33 7.27-12.55 14-14.15 11.9-2.76 24.63 0.53 34.75 7.08-1.81 1.86-4.39 3.77-7.1 2.52-6.11-2.8-12.61-5.26-19.44-5.14-4.47-0.08-9.24 0.89-12.62 3.98-2.68 2.26-3.88 6.35-2.28 9.56 1.81 3.11 5.29 4.62 8.52 5.81 7.52 2.61 15.54 3.69 22.81 7.01 4.47 2.18 9 6.02 9.14 11.39 0.62 5.95-2.87 11.72-7.94 14.66-6.73 4.15-15.01 4.46-22.63 3.39-7.6-1.37-15.05-4.05-21.4-8.52-5.13 4.02-10.92 7.57-17.49 8.52-6.8 0.94-13.95 0.79-20.37-1.87-7.91-3.03-14.59-9.39-17.52-17.38-3.8-10.16-1.99-22.32 4.97-30.71m8.49-0.43c-5.1 4.36-7.99 10.78-8.85 17.35h48.23c-0.55-6.9-3.45-13.84-8.95-18.23-8.68-6.83-22.11-6.29-30.43 0.88z"/>
  </g>
  <g id="#55d6c5ff" transform="translate(-16.395,-13.1)" fill="#55d6c5">
   <path id="path9" d="m141.91 13.53c3.21-0.35 5.92 3.31 5.99 6.37v20.89c4.49-5.71 9.94-10.93 17.01-13.2 10.46-3.49 22.66-1.6 31.45 5.11 7.74 5.83 12.38 15.55 11.92 25.25-0.44 11.81-8.46 22.72-19.42 27.01-10.85 4.27-24.02 3.61-33.76-3.08-8.1-5.52-13.16-15.11-13.19-24.9v-43.45m30.37 17.92c-6.76 0.75-13.3 3.87-17.81 9.01-5.21 5.71-7.44 13.99-5.69 21.53 1.74 9.25 9.15 17.12 18.3 19.38 9.05 2.22 19.44 0.6 26.47-5.82 9.01-7.67 11.06-21.98 4.75-31.94-5.27-8.77-16-13.36-26.02-12.16z"/>
   <path id="path11" d="m324.15 26.53c2.04 0.29 4.477 1.4636 4.608 3.7002v12.02c5.88 0.07 11.78-0.22 17.66 0 5.47 12.91 11.39 25.72 16.7 38.7 5.58-11.57 10.25-23.58 15.68-35.22 1.31-2.65 4.6-4.03 7.43-3.17-1.4897 0.80091-2.053 1.9161-2.6494 3.2981-5.4951 12.734-10.975 25.467-16.491 38.192-1.09 2.2-2.1 5.56-5.27 4.59-6.96-13.87-12.38-28.47-18.87-42.58h-14.19v23.88c0.13 4.38 1.37 9.57 5.69 11.65 3.43 2.15 9.52 0.38 10.26 5.74-5.02 0.03-10.35-0.57-14.6-3.48-4.08-2.84-6.0478-7.9702-5.9578-12.82-0.02-8.32 0.01-16.65 0-24.97l-9.7322 2.5e-4c0.49326-4.3631 5.0589-3.8102 9.7322-3.8102-0.04-5.24 0.13-10.48 0-15.72z"/>
  </g>
 </g>
</svg>
