<?xml version="1.0" encoding="UTF-8"?>
<svg id="svg68" width="865.26" height="700" version="1.1" viewBox="0 0 865.26 700" xmlns="http://www.w3.org/2000/svg" xmlns:cc="http://creativecommons.org/ns#" xmlns:dc="http://purl.org/dc/elements/1.1/" xmlns:rdf="http://www.w3.org/1999/02/22-rdf-syntax-ns#">
 <metadata id="metadata74">
  <rdf:RDF>
   <cc:Work rdf:about="">
    <dc:format>image/svg+xml</dc:format>
    <dc:type rdf:resource="http://purl.org/dc/dcmitype/StillImage"/>
    <dc:title/>
   </cc:Work>
  </rdf:RDF>
 </metadata>
 <path id="path2" d="m600.73 67.255c-8.959 0-16.224 7.264-16.224 16.223a16.14 16.14 0 0 0 2.772 9.07l-0.088-0.047s-6.37 14.07-14.601 22.83c-8.229 8.76-19.379 23.096-23.359 24.158 0 0-0.216 0.02-0.583 0.039-13.731-9.287-29.721-15.828-46.624-18.65 2.462-8.389 10.231-33.113 21.724-53.062 9.307-16.154 14.197-24.986 16.443-29.117 1.128 0.189 2.28 0.311 3.465 0.311 11.064 0 20.035-8.732 20.035-19.504 0-10.773-8.971-19.506-20.035-19.506-11.065 0-20.034 8.732-20.034 19.506 0 4.271 1.428 8.213 3.821 11.426-4.593 10.902-19.574 46.537-23.604 57.061-3.719 9.711-10.011 25.213-12.617 31.605a112.13 112.13 0 0 0-6.228-0.283c-37.774-0.553-72.464 20.008-90.867 50.652a98.625 98.625 0 0 0-4.603 8.602 93.077 93.077 0 0 0-1.792 3.998c-4.293 10.23-6.873 21.283-7.33 32.844-1.187 30.109 14.135 55.582 38.132 72.789 18.271 13.1 41.562 21.41 66.46 23.303 66.361 5.045 104.79-17.27 108.04-91.315 1.272-29.02-13.114-55.527-35.575-74.082 0.858-5.369 7.545-10.51 17.259-20.684 11.148-11.682 26.016-25.717 26.016-25.717 8.959 0 16.224-7.268 16.224-16.226-1e-3 -8.96-7.265-16.224-16.224-16.224z" fill="#f7b44b"/>
 <g id="g6" transform="translate(-367.37 -100)" fill="#cd3032">
  <path id="path4" d="m556.91 655.17c0-3.453 26.014-4.781 26.014-26.016 0-21.236-24.952-42.207-98.217-42.471-73.264-0.268-117.86 29.729-117.33 54.416 0.531 24.688 33.446 52.56 49.373 22.033 0 0-18.809-7.248-15.396-26.014 5.312-29.201 39.286-34.244 39.286-34.244s0.533 4.514-1.59 8.76c-1.489 2.977-7.434 20.973-6.105 39.021 1.325 18.053 2.652 69.02-5.574 75.654 0 0 13.009 9.889 32.915 9.023 24.422-1.061 28.669-12.209 32.65-12.209 3.982 0 20.705 11.682 55.481 11.682 34.772 0 50.17-20.441 50.17-33.98 0-34.774-41.677-42.206-41.677-45.655zm-37.163 56.807c-12.899 0-23.359-10.459-23.359-23.359s10.46-23.359 23.359-23.359c12.901 0 23.358 10.459 23.358 23.359s-10.457 23.359-23.358 23.359zm0-62.913c-12.899 0-23.359-10.459-23.359-23.359s10.46-23.359 23.359-23.359c12.901 0 23.358 10.459 23.358 23.359s-10.457 23.359-23.358 23.359zm212.1 49.44c-0.165-11.346 0.796-50.371 0.796-52.361s-0.796-3.385-4.182-4.977c-3.385-1.594-8.163-3.982-17.518-3.982-9.357 0-23.096 5.176-23.294 7.168-0.199 1.99 0 5.973-3.187 5.973-2.985 0-7.166-9.557-29.863-9.557-22.695 0-54.059 14.375-46.586 51.365 3.98 19.709 33.611 45.188 60.723 40.812 18.515-2.986 21.301-14.533 25.482-14.533 4.182 0 10.751 13.537 27.674 13.736s26.273-7.611 25.086-15.527c-1.792-11.945-14.933-4.381-15.131-18.117zm-93.705 5.508c-12.9 0-23.358-10.457-23.358-23.357s10.458-23.359 23.358-23.359 23.359 10.459 23.359 23.359-10.459 23.357-23.359 23.357zm183.29-63.244c-14.952 0-17.859 8.56-23.094 8.56-1.593 0-1.991-1.99-1.991-4.777v-49.176c0-7.367-21.103-11.945-25.482-11.945-14.335 0-20.707 11.148-20.707 14.533 0 2.189-0.795 47.184-0.795 63.51 0 16.324-4.71 39.672 20.705 58.334 27.474 20.176 73.795 15 92.907-1.59 17.809-15.461 11.884-41.16 2.726-55.693-9.16-14.534-24.506-21.756-44.269-21.756zm18.052 63.244c-12.9 0-23.358-10.457-23.358-23.357s10.458-23.359 23.358-23.359 23.358 10.459 23.358 23.359-10.457 23.357-23.358 23.357zm159.14-53.291c-2.19-1.193-13.936-7.764-22.099-7.764s-15.53 4.777-18.117 6.57c-2.588 1.791-2.788 5.973-2.788 7.565 0 1.594 0.597 14.732 0 34.842-0.597 20.107-7.565 26.279-14.533 26.279-6.969 0-9.756-6.371-9.756-9.756s0.398-47.781 0.398-51.166-0.398-5.773-2.986-7.166c-2.588-1.395-18.116-7.367-23.094-7.367-11.945 0-15.132 3.783-17.919 6.969-2.001 2.285-1.792 5.973-1.792 8.561v38.225c0 14.137 2.787 29.465 21.503 40.018 18.714 10.551 35.836-0.398 40.216-3.584s7.366-3.186 7.366-3.186 1.593 23.492-1.194 40.217c-2.787 16.723-13.737 18.316-20.308 18.316s-6.969-1.793-6.769-3.783c0.199-1.99 3.583-1.791 6.371-7.168 1.683-3.244-1.991-12.145-9.756-17.32-7.764-5.176-21.102-6.172-26.877 0.996-5.773 7.166-3.185 25.283 27.275 35.039 30.462 9.756 51.565-0.398 62.913-10.75 11.348-10.354 13.937-27.275 13.937-35.836s0.795-77.447 0.795-87.6c0-10.155-0.595-9.956-2.786-11.151z"/>
 </g>
 <path id="path8" d="m686.6 509.9-11.547 32.451h-14.533l-3.784 11.945h13.539s-11.946 34.643-14.732 43.004c-2.787 8.361-6.371 28.072 5.972 35.637 12.345 7.566 27.229 7.92 43.005 1.793 20.506-7.965 32.649-21.502 42.604-46.389l-11.15-3.186s-6.17 15.729-12.342 21.104-12.26 9.32-18.118 7.367c-5.376-1.793-3.783-9.557-0.398-20.109 3.386-10.551 14.336-39.021 14.336-39.021h15.926l4.579-12.145h-13.338c-1.593 0-2.391-0.994-1.194-4.777 1.194-3.783 12.939-34.842 12.939-34.842zm88.594 31.457h49.375s-18.809 49.668-20.108 53.754c-1.394 4.379-4.78 16.723 6.968 17.52 7.195 0.488 15.745-5.145 19.709-10.752 5.774-8.162 1.394-13.139 2.19-21.301 0.797-8.164 7.167-29.068 12.543-34.643 5.376-5.574 17.52-8.76 18.914 1.791 1.394 10.553 0.193 21.104-9.954 39.023-12.743 22.496-36.434 43.002-51.167 47.582-14.732 4.578-29.664 7.166-41.211-2.588-11.547-9.756-10.751-23.295-5.376-39.021 5.376-15.728 18.117-51.365 18.117-51.365z" fill="#f29837"/>
 <circle id="circle10" cx="543.65" cy="18.44" r="13.274" fill="#ec1c24"/>
 <circle id="circle12" cx="600.72" cy="83.478" r="11.679" fill="#ec1c24"/>
 <path id="path14" d="m461.25 177.16c-3.858 13.674-3.29 28.809 4.092 45.682 9.29 21.236 36.748 13.164 40.35 12.213 9.023-2.391 23.358-6.904 23.358-6.904l15.928 11.15s1.593 7.432 15.927 7.699c14.335 0.264 27.608-15.664 27.608-35.836 0-2.215-0.221-4.406-0.608-6.56-59.307-26.844-116.83-27.538-126.66-27.444z" fill="#fff"/>
 <path id="path16" d="m562.5 169.22c-8.496-3.186-16.987 2.389-16.987 2.389s-14.335-28.404-38.491-32.914c-18.991-3.551-33.447 9.82-41.942 28.137a69.269 69.269 0 0 0-3.826 10.328c9.826-0.094 67.348 0.6 126.65 27.443-3.138-17.506-17.843-32.545-25.408-35.383z" fill="#fddd9e"/>
 <path id="path18" d="m549.17 240.22c-1.415 5.541-10.048 8.117-19.281 5.756-9.232-2.365-15.563-8.77-14.148-14.31 1.419-5.537 10.05-8.113 19.282-5.748 9.234 2.36 15.566 8.765 14.147 14.302z" fill="#c63465"/>
 <path id="path20" d="m507.81 195.44c0 7.951-6.268 14.4-14.001 14.4-7.736 0-14.004-6.449-14.004-14.4 0-7.955 6.268-14.402 14.004-14.402 7.733-1e-3 14.001 6.446 14.001 14.402z" fill="#231f20"/>
 <ellipse id="ellipse22" cx="555.33" cy="211.76" rx="11.924" ry="12.266" fill="#231f20"/>
 <circle id="circle24" cx="500.12" cy="196.83" r="4.513" fill="#fff"/>
 <circle id="circle26" cx="560.11" cy="212.49" r="4.107" fill="#fff"/>
 <path id="path28" d="m550.55 277.52c7.431-0.531 13.273-5.574 13.273-5.574s-14.07 8.76-61.32-5.047c-26.603-7.77-53.356-38.754-53.356-38.754s1.324 4.049 11.413 17.254c5.896 7.721 2.454 23.426 14.466 38.041 4.259-0.053 12.098 0.133 21.436 1.711 14.136 2.389 20.806 7.365 20.108 10.949-0.538 2.766-0.796 4.58 0.198 4.58 2.391 0 0.3-6.371 6.172-6.371 2.672 0 5.553 0.867 7.794 1.748 0.572-4.057 1.337-8.99 2.031-11.902 1.329-5.574 11.955-6.22 17.785-6.635z" fill="#cb2f32"/>
 <path id="path30" d="m516.77 300.68c-0.994 0-0.736-1.815-0.198-4.58 0.697-3.584-5.973-8.56-20.108-10.949-9.338-1.578-17.177-1.764-21.436-1.711a36.395 36.395 0 0 0 3.851 4.166c18.316 16.99 51.541 15.238 51.541 15.238s-0.208-3.082 0.316-6.787c-2.241-0.881-5.122-1.748-7.794-1.748-5.872 0-3.781 6.371-6.172 6.371z" fill="#ec748f"/>
 <path id="path32" d="m412.63 395.58c-5.758-10.182-15.42-23.885-26.965-26.918l-2.078 6.814c15.511 5.525 23.592 18.588 27.228 26.576 0.218-0.719 0.442-1.439 0.645-2.152a205.1 205.1 0 0 0 1.17-4.32z" fill="#fddea3"/>
 <path id="path34" d="m384.12 368.31c0.519 0.09 1.032 0.215 1.545 0.352l1.043-3.426z" fill="#c23031"/>
 <path id="path36" d="m396.59 310.97c-4.273-7.637-69.172-98.238-112.53-150.05-0.867-1.154-3.563-4.619-3.563-4.619l-0.226 0.121c-10.717-12.602-19.879-22.457-26.11-27.522-31.392-25.504-56.48-27.115-65.137-26.68-38.847 1.963-58.071 57.287-64.35 76.119-6.278 18.836-19.619 56.506 4.708 96.92 24.328 40.416 74.16 60.035 74.16 60.035l-0.394 3.922s-14.125 8.633-27.466 25.113c-13.34 16.482-25.897 78.084-6.672 106.34 19.227 28.252 57.682 14.518 94.957 1.18 37.277-13.342 96.919-56.896 107.51-65.137 10.594-8.24 11.771-26.682 11.771-26.682s7.455-5.494 14.125-21.582c6.673-16.085 4.709-37.667-0.784-47.475z" fill="#71b951"/>
 <path id="path38" d="m386.62 376.7c-2.034 2.334-3.367 3.328-3.367 3.328s-1.178 18.441-11.771 26.682c-9.081 7.061-54.187 40.055-90.364 57.742-14.257 45.678 19.249 42.465 51.765 34.723 32.842-7.818 66.179-58.113 77.93-97.125-3.394-7.448-10.654-19.303-24.193-25.35zm28.55-95.728-20.252 27.344c0.814 1.232 1.388 2.137 1.675 2.654 2.087 3.723 3.658 9.148 4.446 15.324 3.862 0.855 12.021 3.066 20.353 7.873 0.657-10.844 0.925-18.92 1.743-22.4 2.124-9.027 12.212-15.928 12.212-15.928z" fill="#f7b44b"/>
 <path id="path40" d="m398.2 356.26c4.118 2.355 12.341 7.293 19.699 13.141 1.966-13.152 2.893-25.348 3.494-35.232-8.332-4.807-16.49-7.018-20.353-7.873 1.198 9.362 0.563 20.436-2.84 29.964zm-7.236 14.596c-1.618 2.508-3.107 4.424-4.342 5.846 13.539 6.047 20.799 17.902 24.191 25.35 0.218-0.719 0.442-1.439 0.645-2.152a206.76 206.76 0 0 0 1.17-4.32c-4.85-8.58-12.478-19.631-21.664-24.724z" fill="#fddea3"/>
 <path id="path42" d="m397.38 358.45c-2.149 5.185-4.379 9.254-6.416 12.408 9.187 5.094 16.815 16.145 21.664 24.723 2.314-8.879 4.008-17.723 5.271-26.178-7.358-5.848-15.581-10.785-19.699-13.141-0.264 0.735-0.523 1.473-0.82 2.188z" fill="#c23031"/>
 <path id="path44" d="m219.09 343.63c-3.518 2.75-21.623 17.469-27.534 33.459-3.905 10.576-22.079 64.15 4.114 80.111 6.309 3.846 14.079 5.793 23.093 5.793 23.531 2e-3 51.518-13.121 70.854-24.133l0.56-0.318c24.93-14.197 77.67-44.182 84.241-57.791-65.696-8.994-92.322-14.816-155.33-37.121z" fill="#b4d263"/>
 <path id="path46" d="m330.16 116.37c0.339 0.014 32.142 2.123 57.566 66.195a93.077 93.077 0 0 1 1.792-3.998c-20.769-50.174-47.227-64.881-59.227-65.379-27.058-1.139-45.786 35.82-49.517 43.83 0.748 0.885 1.508 1.787 2.273 2.697 0.427-0.97 19.701-44.476 47.113-43.345z" fill="#d6e3a0"/>
 <path id="path48" d="m192.06 123.3c-44.541 0-50.201 71.578-50.568 102.35-0.471 39.545 31.939 78.893 86.697 105.26 59.801 28.793 135.72 38.107 145.05 39.164 1.905-2.858 8.453-12.824 12.102-20.127 4.382-8.762 2.153-24.008-5.543-37.935-8.769-15.867-74.727-108.52-109.65-144.6-37.144-38.38-64.872-44.11-78.094-44.11zm182.75 250.15-0.945-0.098c-0.824-0.084-83.043-8.746-147.06-39.572-55.904-26.914-88.987-67.35-88.502-108.16 0.378-31.721 6.37-105.5 53.754-105.5 13.729 0 42.424 5.857 80.383 45.08 35.068 36.238 101.33 129.33 110.15 145.27 8.183 14.809 10.435 31.246 5.604 40.904-4.376 8.754-12.503 20.777-12.847 21.283z" fill="#cbde99"/>
 <path id="path50" d="m219.09 343.63c-3.518 2.75-21.623 17.469-27.534 33.459-3.905 10.576-22.079 64.15 4.114 80.111 6.309 3.846 14.079 5.793 23.093 5.793 23.531 2e-3 51.518-13.121 70.854-24.133l0.56-0.318c24.93-14.197 77.67-44.182 84.241-57.791l3.235-0.166-0.523 1.615c-3.824 11.861-46.076 36.732-85.379 59.111l-0.559 0.316c-19.668 11.199-48.199 24.551-72.425 24.551h-5e-3c-9.608 0-17.937-2.106-24.751-6.26-27.615-16.826-11.148-68.498-5.441-83.934 6.852-18.547 25.966-32.355 26.878-33.033z" fill="#d6e3a0"/>
 <g id="g58" transform="translate(-367.37 -100)">
  <path id="path52" d="m697.66 213.19c12 0.498 38.457 15.205 59.227 65.379a98.915 98.915 0 0 1 4.603-8.602c-18.599-48.57-41.699-85.691-67.877-85.691-27.818 0-52.156 44.492-58.752 57.664 4.047 4.377 8.51 9.457 13.283 15.08 3.73-8.009 22.458-44.968 49.516-43.83z" fill="#67b650"/>
  <path id="path54" d="m747.77 315.41c0.457-11.56 3.037-22.613 7.33-32.844-25.425-64.072-57.227-66.182-57.566-66.195-27.411-1.131-46.686 42.375-47.111 43.346a902.19 902.19 0 0 1 7.977 9.631c9.099-7.994 20.304-12.723 32.43-12.723 30.418 0 55.079 29.69 55.079 66.312 0 16.59-5.073 31.742-13.436 43.373 17.153 23.533 29.694 41.445 31.493 44.662 1.148 2.047 2.127 4.629 2.922 7.543 4.842-2.799 10.343-7.133 13.534-13.252 1.758-3.365 4.153-8.576 5.481-17.064-23.999-17.207-39.32-42.679-38.133-72.789z" fill="#67b650"/>
  <path id="path56" d="m732.47 366.31c8.362-11.631 13.436-26.783 13.436-43.373 0-36.623-24.661-66.312-55.079-66.312-12.126 0-23.331 4.729-32.43 12.723" fill="#cb2f32" stroke="#ec1c24" stroke-miterlimit="10" stroke-width="1.823"/>
 </g>
 <circle id="circle60" cx="245.5" cy="407.84" r="33.5" fill="#cb2f32" stroke="#ec1c24" stroke-miterlimit="10" stroke-width="2"/>
 <path id="path62" d="m192.06 123.3c-44.541 0-50.201 71.578-50.568 102.35-0.471 39.545 31.939 78.893 86.697 105.26 59.801 28.793 135.72 38.107 145.05 39.164 1.905-2.858 8.453-12.824 12.102-20.127 4.382-8.762 2.153-24.008-5.543-37.935-8.769-15.867-74.727-108.52-109.65-144.6-37.144-38.38-64.872-44.11-78.094-44.11z" fill="#b5d164"/>
 <circle id="circle64" cx="230.87" cy="239.92" r="66.312" fill="#cb2f32" stroke="#ec1c24" stroke-miterlimit="10" stroke-width="2"/>
 <path id="path66" d="m380.4 215.41c0.457-11.56 3.037-22.613 7.33-32.844-25.425-64.072-57.227-66.182-57.566-66.195-27.411-1.131-46.686 42.375-47.111 43.346a902.19 902.19 0 0 1 7.977 9.631c9.099-7.994 20.304-12.723 32.43-12.723 30.418 0 55.079 29.69 55.079 66.312 0 16.59-5.073 31.742-13.436 43.373 17.153 23.533 29.694 41.445 31.493 44.662 1.148 2.047 2.127 4.629 2.922 7.543 4.842-2.799 10.343-7.133 13.534-13.252 1.758-3.365 4.153-8.576 5.481-17.064-23.999-17.207-39.32-42.679-38.133-72.789z" fill="#b5d164"/>
</svg>
