<?xml version="1.0" encoding="UTF-8"?>
<svg id="svg30" width="361.57" height="212.21" version="1.1" viewBox="0 0 361.57 212.21" xmlns="http://www.w3.org/2000/svg" xmlns:cc="http://creativecommons.org/ns#" xmlns:dc="http://purl.org/dc/elements/1.1/" xmlns:rdf="http://www.w3.org/1999/02/22-rdf-syntax-ns#">
 <metadata id="metadata34">
  <rdf:RDF>
   <cc:Work rdf:about="">
    <dc:format>image/svg+xml</dc:format>
    <dc:type rdf:resource="http://purl.org/dc/dcmitype/StillImage"/>
    <dc:title>Ресурс 1</dc:title>
   </cc:Work>
  </rdf:RDF>
 </metadata>
 <defs id="defs4">
  <style id="style2">.cls-1{fill:#ffcd01;}.cls-2{fill:#e31916;}</style>
 </defs>
 <title id="title6">Ресурс 1</title>
 <g id="Слой_2" data-name="Слой 2">
  <g id="Слой_1-2" data-name="Слой 1">
   <path id="path8" class="cls-1" d="m154.64 104.29a200.73 200.73 0 0 1-9.45-42.07c4.92 9.34 15.19 25.67 34.34 44.29l19.36-6.36c-5.53-27.39-4.7-54.5 5-79.4l-29.6-1.94c-3.42 16.86-4.76 34.09-3.28 49.54a202.29 202.29 0 0 1-23.83-46.49l-20.48 2.48c-3.32 23.24-3.32 52 3 75.8 8.9-0.27 17.2 0.86 24.94 4.15z" fill="#ffcd01"/>
   <path id="path10" class="cls-1" d="m321.46 109.83c24.34 0 40.11-21.3 40.11-48.41 0-26.28-14.39-44.54-37.62-44.54-24.34 0-39.84 21.85-39.84 48.41 0 24.34 13 44.54 37.35 44.54zm1.38-68.05c9.13 0 13 9.13 13 19.92 0 13.56-4.7 26.56-15.22 26.56-9.41 0-12.73-11.07-12.73-21 0.01-14.98 6.11-25.49 14.95-25.49z" fill="#ffcd01"/>
   <path id="path12" class="cls-1" d="m76.91 56.16c15.22-11.62 22.41-12.73 38.73-5.53-6.92-12.45-7.19-20.75 5-34.58-15.52 1.95-23.26-1.94-29.35-16.05-4.15 16.6-8.85 21-27.66 21.3 13.55 9.41 17.43 17.98 13.28 34.86z" fill="#ffcd01"/>
   <path id="path14" class="cls-1" d="m244.55 109.83c18.26 0 35.13-11.9 35.13-37.62 0-15.77-3.87-23.79-3.87-23.79l-34.81 1.38v25.2l17.69-3.07a30.15 30.15 0 0 1 0.29 4.18c-0.05 9.89-4.47 14.89-11.98 14.89-8.58 0-16.6-8.85-16.6-28.49 0-18.81 8.85-25.73 19.09-25.73a25.25 25.25 0 0 1 14.11 4.43l6.92-16.88s-9.13-7.47-26-7.47c-20.75 0-40.67 12.73-40.67 46.75 0.03 27.13 17.15 46.22 40.7 46.22z" fill="#ffcd01"/>
   <path id="path16" class="cls-1" d="m3.32 106.23s11.34 2.49 31.54 2.49c31.54 0 43.16-13.83 42.6-29.32-0.83-21-21.58-20.75-21.58-20.75s11.9-4.43 11.9-19.09c0-13.28-10.24-21.3-28.77-21.3a84 84 0 0 0-39.01 10.23c3.6 21.03 4.7 50.63 3.32 77.74zm46.75-26.83c0 7.19-5.26 11.9-20.47 10 0.21-5.78 0.22-12.32 0-19 13.56-1.94 20.47 0.94 20.47 9zm-5.81-35.14c0.24 6.28-3.32 10.88-15.66 12.49a122.35 122.35 0 0 0-2.87-17.2c10.27-4.42 18.27-2.48 18.53 4.71z" fill="#ffcd01"/>
   <path id="path18" class="cls-1" d="m85.48 61.69c1.66 19.64 6.09 33.75 13.52 48.14 6.92-4.15 13.83-7.19 20.75-8.3a91.12 91.12 0 0 1-6.33-44.53z" fill="#ffcd01"/>
   <path id="path20" class="cls-2" d="m356.59 119.23-21.3-2.49a296.42 296.42 0 0 0-22.41 37.62c-11.07-19.09-26.56-35.69-26.56-35.69l-21.58 7.47c6.09 22.68 8.3 50.63 3.6 84.38l24.66 1.11a216 216 0 0 0-2.59-53.54 166.52 166.52 0 0 1 17.53 30.57h6.92c4.33-11.89 10.71-24.26 16.44-34.32-1.85 18.45-1.15 40.41 1.81 57l27.39-3c-8.34-36.55-3.91-89.11-3.91-89.11z" fill="#e31916"/>
   <path id="path22" class="cls-2" d="m225.18 118.13c-16.6 0-28.49 9.41-35.69 23.51 4.7 12.45 3.32 30.15-2.77 41.5 4.7 16.32 16.88 27.94 36 27.94 24.9 0 40.67-21 40.67-48.41-0.03-26.29-14.69-44.54-38.21-44.54zm-1.11 70c-9.41 0-12.73-11.9-12.73-21.85 0-15.77 6.09-26.83 14.94-26.83 9.41 0 13.28 10.24 13.28 21 0.01 14.11-4.69 27.67-15.48 27.67z" fill="#e31916"/>
   <path id="path24" class="cls-2" d="m132.51 105.68c-29.6 0-53.11 21.58-54.22 54.22 7.75 4.43 11.9 16.88 9.41 28.22a54 54 0 0 0 98.76-29.6c-0.28-29.05-24.07-52.84-53.95-52.84zm-18.26 52.84c-4.7-11.07-13.56-16-22.68-14.39 10.51-6.36 18.81-14.66 16.32-25.73 9.13 4.7 17.43 4.7 29-2.49-3.32 9.68-3.6 18.53 6.92 24.07-18.49 0.83-27.34 12.73-29.56 18.53z" fill="#e31916"/>
   <path id="path26" class="cls-2" d="m59.64 158.47c9.69-3.06 13.39-10 13.39-19.32 0-13.28-9.41-21-30.15-21a132.35 132.35 0 0 0-36 5.53c-5.53 27.94-4.43 62 0.28 82.44 0 0 11.34 6.09 31.26 6.09 26.56 0 44-8.58 44-29.88 0.02-12.58-7.42-22.04-22.78-23.86zm-29.32-20.84a29.05 29.05 0 0 1 7-1c8 0 10.79 3 10.79 8 0 7.26-4.13 12.57-19 12.76a169.73 169.73 0 0 1 1.21-19.76zm2 54.91a152.07 152.07 0 0 1-2.68-20.54c19.1-1.75 24.87 2.35 25.13 9.45 0.28 8.88-7.46 12.47-22.4 11.09z" fill="#e31916"/>
  </g>
 </g>
</svg>
