<svg id="b" width="751.45" height="800" version="1.1" viewBox="0 0 198.82 211.67" xmlns="http://www.w3.org/2000/svg">
 <defs id="c">
  <clipPath id="a">
   <path id="d" d="m71.211 440.79h57.246v60.944h-57.246z"/>
  </clipPath>
 </defs>
 <g id="e" transform="translate(27.106 52.083)">
  <g id="f" transform="matrix(3.4731 0 0 -3.4731 -274.43 1690.5)">
   <g id="g" clip-path="url(#a)">
    <g id="h" transform="translate(126.28 450.16)">
     <path id="i" d="m0 0h-52.891c-1.203 0-2.178 0.975-2.178 2.177v25.616c0 0.611 0.258 1.197 0.711 1.61l26.381 21.602c0.83 0.755 2.098 0.757 2.93 3e-3l26.51-21.602c0.455-0.413 0.714-0.998 0.714-1.613v-25.616c0-1.202-0.975-2.177-2.177-2.177" fill="#a0cc45"/>
    </g>
    <g id="j" transform="translate(106.05 473.87)">
     <path id="k" d="m0 0 4.856 1.184 0.012-8.138-2.429-4e-3z" fill="#fff"/>
    </g>
    <g id="l" transform="translate(117.18 473.88)">
     <path id="m" d="m0 0-4.859 1.168 0.012-8.137 2.429 3e-3z" fill="#fff"/>
    </g>
    <g id="n" transform="translate(93.877 459.66)">
     <path id="o" d="m0 0c0 1.909-1.4 3.501-3.374 3.501s-3.342-1.559-3.342-3.501c0-1.91 1.4-3.502 3.374-3.502 1.973 0 3.342 1.559 3.342 3.502m-9.278 0c0 3.167 2.498 5.761 5.936 5.761 3.437 0 5.904-2.564 5.904-5.761 0-3.168-2.499-5.761-5.936-5.761-3.438 0-5.904 2.562-5.904 5.761" fill="#fff"/>
    </g>
    <g id="p" transform="translate(107.25 465.23)">
     <path id="q" d="m0 0h8.403v-2.181h-5.968v-2.26h5.252v-2.18h-5.252v-2.339h6.047v-2.18h-8.482z" fill="#fff"/>
    </g>
    <g id="r" transform="translate(121.24 459.61)">
     <path id="s" d="m0 0c1.225 0 1.942 0.732 1.942 1.718 0 1.099-0.765 1.688-1.99 1.688h-1.893v-3.406zm-4.392 5.618h4.551c2.658 0 4.264-1.576 4.264-3.883 0-2.578-2.004-3.915-4.503-3.915h-1.861v-3.342h-2.451z" fill="#fff"/>
    </g>
    <g id="t" transform="translate(79.571 456.3)">
     <path id="u" d="m0 0h-1.894v3.406h1.942c1.225 0 1.942-0.733 1.942-1.72 0-1.097-0.764-1.686-1.99-1.686m-0.031 5.586h-1.863v0.892h4.876v2.45h-7.326v-11.14h4.552c2.657 0 4.264 1.575 4.264 3.884 0 2.577-2.005 3.914-4.503 3.914" fill="#fff"/>
    </g>
    <g id="v" transform="translate(101.76 456.3)">
     <path id="w" d="m0 0h-1.894v3.406h1.941c1.227 0 1.943-0.733 1.943-1.72 0-1.097-0.765-1.686-1.99-1.686m-0.031 5.586h-1.863v0.892h4.877v2.45h-7.328v-11.14h4.552c2.658 0 4.266 1.575 4.266 3.884 0 2.577-2.005 3.914-4.504 3.914" fill="#fff"/>
    </g>
    <g id="x" transform="translate(77.254 446.44)">
     <path id="y" d="m0 0v-1.252h-2.071v-4.399h-1.704v4.399h-2.071v1.252z" fill="#a0cc45"/>
    </g>
    <g id="z" transform="translate(82.505 441.92)">
     <path id="aa" d="m0 0v-1.137h-4.26v5.65h4.191v-1.133h-2.487v-1.036h2.373v-1.137h-2.373v-1.207z" fill="#a0cc45"/>
    </g>
    <g id="ab" transform="translate(87.405 440.79)">
     <path id="ac" d="m0 0-1.296 3.266-1.325-3.266h-1.782l2.548 5.728h1.129l2.495-5.728z" fill="#a0cc45"/>
    </g>
    <g id="ad" transform="translate(94.21 441.92)">
     <path id="ae" d="m0 0v-1.137h-4.26v5.65h4.191v-1.133h-2.487v-1.036h2.373v-1.137h-2.373v-1.207z" fill="#a0cc45"/>
    </g>
    <g id="af" transform="translate(100.19 445.1)">
     <path id="ag" d="m0 0c-0.114 0-0.211-6e-3 -0.289-0.018-0.079-0.013-0.151-0.038-0.215-0.076-0.063-0.038-0.126-0.094-0.187-0.169s-0.131-0.176-0.21-0.304c-0.084-0.136-0.162-0.25-0.232-0.344-0.071-0.094-0.144-0.173-0.219-0.237-0.074-0.063-0.154-0.115-0.24-0.153s-0.184-0.069-0.296-0.093c0.115-0.011 0.225-0.038 0.331-0.08s0.212-0.109 0.32-0.2c0.107-0.091 0.219-0.211 0.336-0.36 0.117-0.15 0.242-0.337 0.375-0.563l1.003-1.72h-1.912l-0.893 1.585c-0.065 0.117-0.123 0.215-0.173 0.294s-0.104 0.143-0.161 0.192-0.123 0.083-0.198 0.104c-0.075 0.02-0.168 0.03-0.279 0.03v-2.205h-1.704v5.65h1.704v-2.075c0.084 0 0.157 0.012 0.22 0.035 0.062 0.023 0.126 0.066 0.19 0.13 0.063 0.064 0.134 0.153 0.211 0.267 0.078 0.114 0.174 0.262 0.288 0.444 0.117 0.185 0.223 0.343 0.318 0.474 0.095 0.13 0.19 0.24 0.283 0.33 0.094 0.089 0.191 0.16 0.29 0.212 0.099 0.051 0.212 0.091 0.338 0.118s0.271 0.045 0.432 0.053c0.162 8e-3 0.351 0.012 0.569 0.012z" fill="#a0cc45"/>
    </g>
    <g id="ah" transform="translate(105.03 442.92)">
     <path id="ai" d="m0 0-0.828 2.063-0.835-2.063zm-2.063-0.983-0.469-1.145h-1.745l2.499 5.65h1.884l2.491-5.65h-1.745l-0.461 1.145z" fill="#a0cc45"/>
    </g>
    <g id="aj" transform="translate(110.08 442.99)">
     <path id="ak" d="m0 0v-2.206h-1.704v5.651h1.704v-2.075h2.564v2.075h1.704v-5.651h-1.704v2.206z" fill="#a0cc45"/>
    </g>
    <g id="al" transform="translate(119.37 442.92)">
     <path id="am" d="m0 0-0.828 2.063-0.835-2.063zm-2.063-0.983-0.469-1.145h-1.745l2.499 5.65h1.884l2.491-5.65h-1.745l-0.461 1.145z" fill="#a0cc45"/>
    </g>
    <g id="an" transform="translate(126.48 440.79)">
     <path id="ao" d="m0 0-1.296 3.266-1.325-3.266h-1.782l2.548 5.728h1.129l2.495-5.728z" fill="#a0cc45"/>
    </g>
   </g>
  </g>
 </g>
</svg>
