<?xml version="1.0" encoding="UTF-8"?>
<!-- Generator: Adobe Illustrator 16.0.0, SVG Export Plug-In . SVG Version: 6.00 Build 0)  -->
<svg id="svg34" width="233.95" height="39.617" enable-background="new 0 0 283.464 283.464" version="1.1" viewBox="0 0 233.95 39.617" xml:space="preserve" xmlns="http://www.w3.org/2000/svg" xmlns:cc="http://creativecommons.org/ns#" xmlns:dc="http://purl.org/dc/elements/1.1/" xmlns:rdf="http://www.w3.org/1999/02/22-rdf-syntax-ns#"><metadata id="metadata40"><rdf:RDF><cc:Work rdf:about=""><dc:format>image/svg+xml</dc:format><dc:type rdf:resource="http://purl.org/dc/dcmitype/StillImage"/><dc:title/></cc:Work></rdf:RDF></metadata><g id="Logo" transform="translate(-24.759 -121.92)"><g id="g30"><linearGradient id="SVGID_1_" x1="220.37" x2="220.37" y1="123.49" y2="159.98" gradientUnits="userSpaceOnUse"><stop id="stop2" stop-color="#ED1C24" offset="0"/><stop id="stop4" stop-color="#AB0F14" offset="1"/></linearGradient><path id="path7" d="m251.67 141.73 6.517-7.818v-10.425h-76.161v10.425h13.033v26.065h12.772v-26.065h10.736v26.065h40.138v-10.428zm-7.299 7.819h-13.033v-15.638h12.514v0.523l-5.996 7.295 6.516 7.299v0.521z" fill="url(#SVGID_1_)"/><linearGradient id="SVGID_2_" x1="83.953" x2="83.953" y1="121.92" y2="161.54" gradientUnits="userSpaceOnUse"><stop id="stop9" stop-color="#646464" offset="0"/><stop id="stop11" stop-color="#d2d3d4" offset="1"/></linearGradient><path id="path14" d="m142.63 123.49h-14.334l-8.989 13.981v-13.981h-12.77v10.739c-3.357-6.939-11.185-12.302-20.902-12.302-13.03 0-22.675 9.642-22.675 19.806 0 0.02 3e-3 0.037 3e-3 0.055-2.376-2.848-6.404-4.744-11.876-4.744h-13.553v-3.648h24.344v-9.905h-37.115v36.49h26.324c8.291 0 13.303-4.316 14.158-9.798 3.59 6.475 11.123 11.361 20.39 11.361 9.718 0 17.545-5.363 20.902-12.305v10.741h12.77v-14.163l9.51 14.163h14.334l-12.77-18.247zm-93.107 27.369h-11.989v-4.694h11.989c1.564 0 2.608 1.043 2.608 2.346 0 1.305-1.044 2.348-2.608 2.348zm36.112 0.26c-5.211 0-9.382-4.171-9.382-9.386 0-5.21 4.171-9.381 9.382-9.381 5.214 0 9.385 4.171 9.385 9.381 0 5.215-4.171 9.386-9.385 9.386z" fill="url(#SVGID_2_)"/><linearGradient id="SVGID_3_" x1="157.33" x2="157.33" y1="123.49" y2="159.98" gradientUnits="userSpaceOnUse"><stop id="stop16" stop-color="#646464" offset="0"/><stop id="stop18" stop-color="#d2d3d4" offset="1"/></linearGradient><polygon id="polygon21" points="178.83 159.98 178.83 145.38 166.58 145.38 166.58 149.55 153.81 149.55 149.9 141.73 153.81 133.91 166.58 133.91 166.58 138.08 178.83 138.08 178.83 123.49 145.2 123.49 135.82 141.73 145.2 159.98" fill="url(#SVGID_3_)"/><linearGradient id="SVGID_4_" x1="85.633" x2="85.633" y1="134.64" y2="148.82" gradientUnits="userSpaceOnUse"><stop id="stop23" stop-color="#ED1C24" offset="0"/><stop id="stop25" stop-color="#AB0F14" offset="1"/></linearGradient><path id="path28" d="m85.631 134.64c-3.938 0-7.089 3.152-7.089 7.09 0 3.94 3.151 7.092 7.089 7.092 3.939 0 7.092-3.151 7.092-7.092 0-3.938-3.152-7.09-7.092-7.09z" fill="url(#SVGID_4_)"/></g></g></svg>
