<?xml version="1.0" encoding="UTF-8"?>
<svg id="svg60" width="920.06pt" height="307.67pt" version="1.1" viewBox="0 0 920.06 307.67" xmlns="http://www.w3.org/2000/svg" xmlns:cc="http://creativecommons.org/ns#" xmlns:dc="http://purl.org/dc/elements/1.1/" xmlns:rdf="http://www.w3.org/1999/02/22-rdf-syntax-ns#">
 <metadata id="metadata66">
  <rdf:RDF>
   <cc:Work rdf:about="">
    <dc:format>image/svg+xml</dc:format>
    <dc:type rdf:resource="http://purl.org/dc/dcmitype/StillImage"/>
    <dc:title/>
   </cc:Work>
  </rdf:RDF>
 </metadata>
 <path id="path4" d="m93.651 19.872c16.82-7.47 35.08-12.04 53.51-12.46-6.45 11.71-13.18 23.28-20.03 34.75-25.71 5.83-49.06 21.21-64.94 42.2-12.67 16.65-20.64 36.85-22.73 57.68-0.59 11.7-0.83 23.59 1.78 35.09 4.65 23.06 16.79 44.49 33.98 60.52 20.49 19.41 48.43 30.76 76.66 30.98 22.87 0.48 45.82-6.17 64.89-18.8 19.81-12.95 35.39-32.21 43.97-54.26 8.98-22.93 10.21-48.79 3.65-72.5-10.24-38.18-41.72-69.75-79.95-79.89-1.8-0.61-4.23-0.56-5.15-2.55-6.5-11.02-12.76-22.19-19.25-33.21 27.17 0.67 53.97 9.83 76.35 25.19 26.93 18.53 47.63 46.11 57.3 77.4 11.79 37.07 7.92 78.81-10.68 113-12.53 23.36-31.42 43.28-54.22 56.82-19.03 11.38-40.69 18.34-62.79 20.18-24.73 2.11-49.96-2.23-72.59-12.46-29.58-13.29-54.41-36.77-69.5-65.46-10.97-20.88-17.13-44.44-16.7-68.08-0.45-22.16 4.91-44.26 14.51-64.17 14.91-30.7 40.76-55.99 71.93-69.97z" fill="#f47c2b"/>
 <path id="path6" d="m152.84 12.552c2.04-1.22 2.62 1.96 3.48 3.16 32.94 57.2 66 114.35 98.98 171.52 0.58 1.68-0.7 3.27-1.16 4.83-3.16 8.47-7.59 16.41-12.7 23.86-28.01-48.44-55.95-96.92-83.94-145.37-0.91-1.71-2.66-3.29-4.75-2.91-1.39 0.68-2.32 1.96-3.08 3.26-27.84 48.4-55.83 96.7-83.7 145.09-5.55-8.14-10.26-16.89-13.55-26.18-1.04-3.21 1.76-5.7 3.03-8.35 32.43-56.32 65.1-112.51 97.39-168.91z" fill="#f69d61"/>
 <path id="path14" d="m81.641 73.752c11.6-10.28 25.31-18.54 40.32-22.68-10.79 19.43-22.2 38.53-33.21 57.84-13.4 23.02-26.5 46.22-40.05 69.14-2.73-11.14-2.95-22.67-2.31-34.07 2.47-26.71 15.23-52.35 35.25-70.23z" fill="#f47c2b"/>
 <path id="path16" d="m185.33 51.032c19.21 5.39 36.43 17.07 49.55 32 22.35 25.29 31.56 61.39 24.06 94.29-1.81-1.34-2.79-3.4-3.87-5.3-23.2-40.36-46.61-80.59-69.74-120.99z" fill="#f47c2b"/>
 <path id="path22" d="m153.44 79.322c1.17 0.57 1.59 1.96 2.3 2.97 11.63 20.52 23.8 40.75 35.21 61.4-24.41-6.04-50.32-5.95-74.73 0.01 12.47-21.42 24.78-42.94 37.22-64.38z" fill="#f47c2b"/>
 <path id="path24" d="m111.42 152.62c13.83-3.79 28.11-6.31 42.49-6.11 14.25-0.09 28.45 2.27 42.14 6.18 9.44 16.07 18.44 32.4 28.11 48.33-20.71-15.45-46.56-23.72-72.36-23.33-3.63 0.31-7.23 0.85-10.88 0.79-20.79 2.2-41.04 9.95-57.67 22.69 9.56-16.08 18.73-32.39 28.17-48.55z" fill="#f69d61"/>
 <path id="path30" d="m141.41 185.85c13.95-1.19 28.17-0.57 41.69 3.25 20.31 5.51 39.03 17.07 52.66 33.13 0.38 1.55-1.21 2.56-2.01 3.64-6.53 6.89-13.57 13.49-21.76 18.36-11.48-13.59-27.71-23.05-45.25-26.09-15.03-2.21-30.83-0.78-44.66 5.81-10.1 4.73-19.39 11.49-26.43 20.18-9.6-5.09-17.2-13.27-24.57-21.14 17.31-21.05 43.36-34.22 70.33-37.14z" fill="#f47c2b"/>
 <path id="path32" d="m102.62 246.94c12.68-14.04 31.31-22.83 50.33-22.68 20.03-0.59 39.83 8.71 52.86 23.81-25.4 14.32-56.78 17.45-84.52 8.5-6.7-2.05-13.08-4.96-19.32-8.11 0.16-0.38 0.49-1.14 0.65-1.52z" fill="#f47c2b"/>
 <path id="path35" d="m151.02 0.042378c39.42-0.95 79.05 14.11 107.61 41.39 23.26 21.55 39.6 50.5 45.76 81.62 8.02 38.39 0.46 79.73-20.59 112.83-24.02 38.47-65.84 65.27-110.95 70.53-37.98 5-77.72-5.12-108.76-27.59-28.17-20.19-49.32-50.09-58.48-83.56-5.47-19.14-6.73-39.34-4.69-59.09 3.36-29.93 15.81-58.77 35.39-81.66 28.03-33.51 71.03-53.88 114.71-54.47m-57.37 19.83c-31.17 13.98-57.02 39.27-71.93 69.97-9.6 19.91-14.96 42.01-14.51 64.17-0.43 23.64 5.73 47.2 16.7 68.08 15.09 28.69 39.92 52.17 69.5 65.46 22.63 10.23 47.86 14.57 72.59 12.46 22.1-1.84 43.76-8.8 62.79-20.18 22.8-13.54 41.69-33.46 54.22-56.82 18.6-34.19 22.47-75.93 10.68-113-9.67-31.29-30.37-58.87-57.3-77.4-22.38-15.36-49.18-24.52-76.35-25.19 6.49 11.02 12.75 22.19 19.25 33.21 0.92 1.99 3.35 1.94 5.15 2.55 38.23 10.14 69.71 41.71 79.95 79.89 6.56 23.71 5.33 49.57-3.65 72.5-8.58 22.05-24.16 41.31-43.97 54.26-19.07 12.63-42.02 19.28-64.89 18.8-28.23-0.22-56.17-11.57-76.66-30.98-17.19-16.03-29.33-37.46-33.98-60.52-2.61-11.5-2.37-23.39-1.78-35.09 2.09-20.83 10.06-41.03 22.73-57.68 15.88-20.99 39.23-36.37 64.94-42.2 6.85-11.47 13.58-23.04 20.03-34.75-18.43 0.42-36.69 4.99-53.51 12.46m59.19-7.32c-32.29 56.4-64.96 112.59-97.39 168.91-1.27 2.65-4.07 5.14-3.03 8.35 3.29 9.29 8 18.04 13.55 26.18 27.87-48.39 55.86-96.69 83.7-145.09 0.76-1.3 1.69-2.58 3.08-3.26 2.09-0.38 3.84 1.2 4.75 2.91 27.99 48.45 55.93 96.93 83.94 145.37 5.11-7.45 9.54-15.39 12.7-23.86 0.46-1.56 1.74-3.15 1.16-4.83-32.98-57.17-66.04-114.32-98.98-171.52-0.86-1.2-1.44-4.38-3.48-3.16m-71.2 61.2c-20.02 17.88-32.78 43.52-35.25 70.23-0.64 11.4-0.42 22.93 2.31 34.07 13.55-22.92 26.65-46.12 40.05-69.14 11.01-19.31 22.42-38.41 33.21-57.84-15.01 4.14-28.72 12.4-40.32 22.68m103.69-22.72c23.13 40.4 46.54 80.63 69.74 120.99 1.08 1.9 2.06 3.96 3.87 5.3 7.5-32.9-1.71-69-24.06-94.29-13.12-14.93-30.34-26.61-49.55-32m-31.89 28.29c-12.44 21.44-24.75 42.96-37.22 64.38 24.41-5.96 50.32-6.05 74.73-0.01-11.41-20.65-23.58-40.88-35.21-61.4-0.71-1.01-1.13-2.4-2.3-2.97m-42.02 73.3c-9.44 16.16-18.61 32.47-28.17 48.55 16.63-12.74 36.88-20.49 57.67-22.69 3.65 0.06 7.25-0.48 10.88-0.79 25.8-0.39 51.65 7.88 72.36 23.33-9.67-15.93-18.67-32.26-28.11-48.33-13.69-3.91-27.89-6.27-42.14-6.18-14.38-0.2-28.66 2.32-42.49 6.11m29.99 33.23c-26.97 2.92-53.02 16.09-70.33 37.14 7.37 7.87 14.97 16.05 24.57 21.14 7.04-8.69 16.33-15.45 26.43-20.18 13.83-6.59 29.63-8.02 44.66-5.81 17.54 3.04 33.77 12.5 45.25 26.09 8.19-4.87 15.23-11.47 21.76-18.36 0.8-1.08 2.39-2.09 2.01-3.64-13.63-16.06-32.35-27.62-52.66-33.13-13.52-3.82-27.74-4.44-41.69-3.25m-38.79 61.09c-0.16 0.38-0.49 1.14-0.65 1.52 6.24 3.15 12.62 6.06 19.32 8.11 27.74 8.95 59.12 5.82 84.52-8.5-13.03-15.1-32.83-24.4-52.86-23.81-19.02-0.15-37.65 8.64-50.33 22.68z" fill="#fff"/>
 <path id="path37" d="m455.47 13.072c6.9-1.17 14.15-0.12 20.56 2.65 7.17 3.2 12.2 9.94 14.44 17.34 2.92 8.68 1.98 17.97 2.17 26.97 0.08 8.16 0 16.61-3.45 24.19-3.61 9.08-12.59 15.69-22.34 16.46-7 0.48-14.44 0.63-20.86-2.6-7.65-3.43-12.69-10.91-14.86-18.8-2.73-9.51-1.34-19.5-1.7-29.24-0.34-9.25 1.43-18.95 7.06-26.51 4.46-6.05 11.63-9.54 18.98-10.46m0.11 9.81c-5.53 1.08-10.18 5.05-12.41 10.17-4.13 9.1-2.55 19.29-2.86 28.96-0.22 7.96 0.41 16.65 5.49 23.17 5.09 6.42 14.42 7.49 21.91 5.49 5.85-1.29 10.15-6.31 11.96-11.82 3.04-8.61 1.74-17.85 2.04-26.78 0.17-8.23-0.38-17.28-5.87-23.89-4.91-5.69-13.27-6.63-20.26-5.3z" fill="#f47c2b"/>
 <path id="path39" d="m534.94 13.232c6.11-2.14 14.02 1.03 15.62 7.65 6.24 22.05 12.5 44.09 18.76 66.13 0.94 4.1 2.71 8.01 3.14 12.22-1.06 1.58-3.02 1.03-4.6 1.15-2.24-0.22-5.61 0.83-6.45-2.08-7.17-25.3-13.67-50.82-21.08-76.05-1.2 0.01-2.37 0.19-3.51 0.49-5.8 22.54-12.19 44.93-18.22 67.41-1.08 3.43-1.41 7.21-3.56 10.21-3.3-0.22-6.73 0.49-9.89-0.69 0.25-2.62 0.91-5.17 1.74-7.66 6.68-23.55 13.41-47.08 20.06-70.64 0.97-3.91 4.05-7.16 7.99-8.14z" fill="#f47c2b"/>
 <path id="path41" d="m354.6 13.662c14.44-0.12 28.88 0 43.33-0.07 1.45 0.17 3.34-0.41 4.37 0.98 0.79 2.52 0.32 5.22 0.12 7.8-1.44 0.59-2.93 1.12-4.5 1.01-11.17-0.05-22.33 0-33.5-0.03-0.04 8.83 0.01 17.65-0.02 26.48 12.07-0.3 25.21-1.6 36.09 4.71 7.19 4.02 10.87 12.43 10.16 20.48 0.67 7.62-2.07 15.86-8.67 20.19-8.72 6.15-19.85 5.75-30.03 5.69-5.78-0.21-11.72 0.23-17.31-1.55-0.55-1.37-1.14-2.77-1.04-4.28 0-25.66 0.03-51.32-0.02-76.97-0.14-1.57 0.37-3.04 1.02-4.44m9.76 45.6c0.1 10.78 0.02 21.56 0.04 32.34 8.77 0.43 17.79 1.43 26.32-1.27 3.94-1.21 7.21-4.35 8.6-8.23 0.73-3.92 0.6-7.97 0.28-11.93-0.69-5.4-5.55-9.31-10.67-10.33-8.04-1.74-16.47-1.82-24.57-0.58z" fill="#f47c2b"/>
 <path id="path43" d="m798.58 18.502c3.78-6.62 14.01-7.94 19.42-2.6 2.64 2.36 3.33 5.97 4.23 9.22 4.69 16.68 9.44 33.33 14.17 50 2.11 8.17 5.06 16.16 6.51 24.49-3.17 1.36-6.71 0.51-10.04 0.72-3.77-9.22-5.38-19.19-8.69-28.58-9.9-0.03-19.79 0.1-29.68-0.07-3.17 8.81-4.94 18.09-7.87 26.98-1.46 2.78-5.2 1.37-7.69 1.7-1.65 0.43-3.94-0.7-3.22-2.64 6.7-23.53 13.38-47.07 20.08-70.59 0.84-2.9 1.45-5.9 2.78-8.63m9.21 4.2c-1.3 2.32-1.66 4.99-2.4 7.51-3.05 10.69-5.82 21.47-9.01 32.13 8.52 0.06 17.04 0.04 25.56 0.02-3.4-13.3-7.31-26.47-10.82-39.74-1.12-0.2-2.38-0.83-3.33 0.08z" fill="#f47c2b"/>
 <path id="path45" d="m867.89 20.042c5.95-5.46 14.31-6.54 22.01-7.36 7.14-0.15 14.29-0.11 21.39 0.77 2.03 0.27 5.48-0.37 5.68 2.55 0.09 4.33 0.12 8.7 0.18 13.04-0.76 6.01 0.31 12.01-0.02 18.04-0.3 17.5 0.53 35.05-0.53 52.52-3.23 1.11-7.03 1.29-10.13-0.25-0.32-11.87-0.04-23.74-0.15-35.61-5.22 0.02-10.42 0.83-15.64 0.41-7.5 11.81-14.18 24.17-21.87 35.84-3.38 0.84-7.1 0.08-10.59 0.43-0.16-1.06-0.14-2.11 0.06-3.15 6.66-11.76 14.21-23.07 20.56-35-8.48-2.16-16.14-8.97-17.4-17.91-1.64-8.41-0.33-18.39 6.45-24.32m12.32 4.24c-3.96 1.32-7.37 4.56-8.21 8.73-0.91 4.38-0.88 9.14 0.8 13.34 2.09 4.81 7.25 7.44 12.25 8.03 7.06 0.7 14.18 0.41 21.26 0.26 0.02-10.67 0.05-21.34-0.01-32-8.69-0.11-17.71-1.26-26.09 1.64z" fill="#f47c2b"/>
 <path id="path47" d="m590.51 16.962c-0.33-1.94 1.28-3.77 3.29-3.35 2.45 0.26 5.79-0.99 7.46 1.38 0.29 11.61 0.04 23.23 0.11 34.84 11.1-0.3 22.8-1.31 33.27 3.21 6.87 2.91 12.19 9.49 12.82 17.03 0.35 6.76 0.82 14.22-3.41 19.99-5.97 8.63-17.28 10.83-27.12 10.82-8.37-0.17-16.95 0.65-25.14-1.43-0.75-1.37-1.44-2.79-1.29-4.39 0-26.04-0.02-52.07 0.01-78.1m11.05 41.85c-0.42 10.92-0.05 21.86-0.2 32.78 6.83 0.26 13.69 0.6 20.51 0.02 5.32-0.54 11.07-2.68 13.64-7.72 2.08-5.29 2.28-11.38 0.12-16.68-1.82-4.25-6.19-6.79-10.59-7.56-7.7-1.84-15.66-1.02-23.48-0.84z" fill="#f47c2b"/>
 <path id="path49" d="m666.49 17.972c-0.25-1.63 0.49-3.03 1.38-4.32 3.05 0.51 8.37-1.71 9.5 2.27 0.35 24.4-0.28 48.84 0.31 73.23 0.49 0.34 1.48 1.03 1.98 1.37 8.96 0.15 17.93-0.02 26.9 0.09 0.06-24.53-0.01-49.07 0.03-73.61-0.16-1.38 0.59-3.23 2.17-3.28 2.87-0.12 6.17-0.79 8.63 1.15 0.03 25.24 0.01 50.48 0.01 75.72 8.51-0.05 17.02 0.05 25.53-0.03 2 0.27 3.93-1.42 3.58-3.5 0.07-23.73 0-47.46 0.03-71.19 0.34-0.53 1.04-1.6 1.38-2.14 3.06 0.25 7.02-1.31 9.35 1.29 0.44 23.98 0.08 48 0.18 71.99 0.33 6.92-5.57 13.16-12.5 13.21-20.68 0.28-41.37-0.01-62.05 0.13-3.96 0.07-8.24-0.29-11.44-2.87-3.55-2.61-4.95-7.21-4.94-11.46 0-22.68 0.04-45.37-0.03-68.05z" fill="#f47c2b"/>
 <path id="path51" d="m506.04 143.26c20.89-6.39 43.35-8.95 64.94-4.79 10.05 2.01 20.13 6.79 26.06 15.47 5.37 7.54 7.07 17.02 6.7 26.11 0.92 13.53-6.7 26.76-18 33.93 9.59 5.21 16.61 15.03 17.81 25.95 0.41 9.8 0.79 20.1-3.44 29.23-3.6 8.5-10.46 15.42-18.76 19.4-8.49 4.19-18.02 5.97-27.43 6.15-16.16 0.54-32.45-1.15-47.97-5.72-1.31-0.69-3.39-1.28-3.41-3.06-0.21-5.65-0.03-11.31-0.09-16.95-0.29-2.05 1.44-3.67 3.23-4.29 15.34 1.7 30.82 2.08 46.25 1.85 5.19-0.23 10.91-1.92 13.86-6.53 3.43-4.93 2.75-11.24 2.7-16.93-0.01-5.27-2.16-11.05-7.03-13.66-2.88-1.72-6.28-2.07-9.55-2.04-12.03 0-24.06 0.01-36.09 0.01-2.37 0.21-4.83-1.89-4.5-4.36-0.06-5.99-0.08-11.99 0-17.98-0.29-2.03 1.53-3.79 3.53-3.53 12.03-0.07 24.06-0.03 36.1-0.01 5.49-0.05 11.51-1.97 14.68-6.76 3.44-4.83 3-11.09 2.81-16.71-0.21-5.51-4.19-10.81-9.63-12.09-11.46-2.91-23.26-0.39-34.86-0.31-5.72 0.51-11.46 0.8-17.13 1.65-1.07-0.3-2.12-0.65-3.15-1.03-1.91-4.87-0.65-10.18-1.03-15.26-0.25-2.93-0.09-6.87 3.4-7.74z" fill="#f47c2b"/>
 <path id="path53" d="m835.75 140.93c15.88-5.12 32.8-4.75 49.27-4.11 10.11 1.39 20.68 0.42 30.44 3.83 5.06 1.88 4.28 8.05 4.6 12.38-0.07 42.69-0.2 85.36-0.13 128.01-0.4 3.38 0.86 6.99-0.76 10.17-1.45 2.02-4.1 1.59-6.23 1.66-8.33-0.09-16.67 0.08-24.99-0.08-1.96 0.1-3.84-1.75-3.68-3.71-0.11-17.45 0.06-34.91-0.08-52.36-0.29-0.2-0.85-0.62-1.13-0.82-5.36 0.66-10.76 0.38-16.13 0.69-6.65 13.39-13.93 26.47-20.76 39.77-2.99 5.41-5.6 11.02-8.83 16.29-12.31 0.64-24.67 0.52-36.96-0.17-0.02-1.51-0.43-3.16 0.46-4.51 10.02-18.6 20.02-37.22 30.07-55.8 0.6-0.97 0.86-2.09 0.6-3.2-13.72-5.06-24.28-18.31-25.7-32.96-0.88-11.13-1.01-22.92 3.97-33.2 4.92-10.7 14.92-18.31 25.97-21.88m13.01 30.09c-4.69 2.5-7.73 7.74-7.55 13.06-0.05 5.57-0.62 11.9 3.19 16.49 4 5.07 10.81 6.19 16.83 6.99 7.65 0.38 15.33 0.2 22.99-0.08 0.02-13.26 0.03-26.52 0-39.77-5.43-0.3-10.87-0.25-16.27-0.94-6.52 0.53-13.41 0.81-19.19 4.25z" fill="#f47c2b"/>
 <path id="path55" d="m380.94 138.83c12.61-1.24 25.31-1.3 37.98-0.93 5.38 0.63 10.88 0.28 16.14 1.8 3.08 5.64 3.75 12.14 5.19 18.3 10.42 43.33 20.82 86.66 31.25 129.99 0.2 1.4 0.55 3.23-0.64 4.32-1.57 0.59-3.28 0.51-4.92 0.56-8.33-0.05-16.67-0.01-25-0.01-1.78-0.19-4.24 0.35-5.13-1.66-1.63-2.83-1.66-6.22-2.5-9.3-2.11-8.78-3.69-17.7-5.92-26.44-0.33-0.15-1.01-0.45-1.34-0.6-7.03 0.7-14.11 0.44-21.15 0.14-6.74 0.85-13.65-0.89-20.29 0.53-2 10.95-4.78 21.74-6.98 32.65-0.44 1.95-1.27 4.67-3.76 4.55-10.29 0.2-20.62 0.23-30.91-0.03-2.68 0-2.92-3.05-2.16-4.98 10.32-42.51 20.46-85.07 30.71-127.6 1.6-6.24 2.26-12.77 4.76-18.75 0.64-1.96 2.94-2.17 4.67-2.54m23.58 27.57c-2.02 4.72-2.52 9.89-3.83 14.82-3.1 15.12-6.94 30.1-9.74 45.28 10.2 0.04 20.41 0.03 30.61 0-3.88-17.22-7.6-34.48-11.47-51.71-0.57-2.86-1.12-5.73-2.17-8.46-1.14 0.02-2.27 0.04-3.4 0.07z" fill="#f47c2b"/>
 <path id="path57" d="m649.28 138.43c8.24-0.11 16.48-0.09 24.72 0 2.34-0.17 4.47 2.16 4.16 4.49 0.05 29.69-0.12 59.38 0.07 89.07 1.92 0.1 2.63-1.81 3.51-3.15 15.13-26.41 30.33-52.79 45.49-79.18 2.55-3.95 4.28-9.34 9.08-11.05 7.88-0.51 15.8-0.17 23.7-0.2 4.04-0.17 8.03 3.5 7.65 7.64 0.01 45.67 0 91.35 0.01 137.03-0.2 3.41 1.4 9.49-3.72 9.73-8.35 0.07-16.69 0.07-25.03 0-2.62 0.36-4.41-2.41-4.28-4.75-0.04-28.35 0.13-56.71-0.07-85.07-2.64 0.4-3.32 3.28-4.61 5.2-15.27 26.37-30.46 52.78-45.79 79.11-2.1 4.18-6.71 5.95-11.16 5.88-6.97-0.72-14 0.44-20.97-0.42-3.87-0.13-7.17-3.91-6.78-7.77-0.04-48.05-0.01-96.11-0.02-144.16 1.09-1.18 2.21-2.66 4.04-2.4z" fill="#f47c2b"/>
</svg>
