<svg id="e" version="1.1" viewBox="0 0 335.9 112.2" xml:space="preserve" xmlns="http://www.w3.org/2000/svg" xmlns:xlink="http://www.w3.org/1999/xlink">
<path id="f" d="m54 2.5c-14.1 0.6-27.1 6.5-36.8 16.9-2.1 2.2-4 4.7-5.7 7.2-5.8 8.8-8.8 18.9-8.8 29.4 0 8.7 2 17.1 6.1 24.8 0.4 0.7 0.7 1.3 1.1 2 2.2 3.8 4.9 7.4 7.9 10.5l0.5 0.6 1.4 1.4c3.3 3 6.9 5.7 10.8 7.8 7.8 4.3 16.7 6.5 25.7 6.5s17.8-2.3 25.7-6.5c3.9-2.1 7.5-4.8 10.8-7.8 0.5-0.5 1-0.9 1.4-1.4l0.5-0.6c3.1-3.1 5.7-6.7 7.9-10.5 0.4-0.7 0.7-1.3 1.1-2 4-7.7 6.1-16.1 6.1-24.8 0-10.5-3-20.7-8.8-29.4-1.7-2.5-3.6-5-5.7-7.2-9.7-10.4-22.7-16.3-36.8-16.9zc-14.1 0.6-27.1 6.5-36.8 16.9-2.1 2.2-4 4.7-5.7 7.2-5.8 8.8-8.8 18.9-8.8 29.4 0 8.7 2 17.1 6.1 24.8 0.4 0.7 0.7 1.3 1.1 2 2.2 3.8 4.9 7.4 7.9 10.5l0.5 0.6 1.4 1.4c3.3 3 6.9 5.7 10.8 7.8 7.8 4.3 16.7 6.5 25.7 6.5s17.8-2.3 25.7-6.5c3.9-2.1 7.5-4.8 10.8-7.8 0.5-0.5 1-0.9 1.4-1.4l0.5-0.6c3.1-3.1 5.7-6.7 7.9-10.5 0.4-0.7 0.7-1.3 1.1-2 4-7.7 6.1-16.1 6.1-24.8 0-10.5-3-20.7-8.8-29.4-1.7-2.5-3.6-5-5.7-7.2-9.7-10.4-22.7-16.3-36.8-16.9z" fill="#f47b29"/><g id="g" transform="translate(-219.55 -319.42)" fill="#f47b29"><path id="h" d="m369.65 347.22c0 1.8-0.3 3.3-1 4.4-0.7 1.2-1.6 2.1-2.7 2.8-1.2 0.7-2.5 1.2-4 1.4-1.5 0.3-3.1 0.4-4.7 0.4-1.4 0-2.7 0-3.9-0.1s-2.2-0.1-3-0.3c-0.5-0.1-0.8-0.2-1.1-0.4-0.2-0.2-0.3-0.6-0.3-1.2v-29.2c0-0.2 0.1-0.4 0.2-0.6s0.3-0.2 0.6-0.2h16.3c0.2 0 0.4 0.1 0.6 0.3s0.3 0.4 0.3 0.6v1.8c0 0.2-0.1 0.4-0.3 0.6s-0.4 0.3-0.6 0.3h-13.2v9.8c0.7-0.1 1.4-0.1 2.1-0.1h2.4c1.6 0 3.2 0.1 4.7 0.4s2.8 0.8 4 1.5c1.1 0.7 2.1 1.6 2.7 2.8 0.7 1.2 1 2.6 1 4.4v0.6zm-3.9-0.8c0-1.1-0.2-2.1-0.6-2.8-0.4-0.8-1-1.3-1.7-1.8-0.7-0.4-1.6-0.7-2.7-0.9s-2.2-0.3-3.6-0.3h-2.2c-0.8 0-1.5 0.1-2.2 0.1v12.1c0.7 0 1.5 0.1 2.2 0.1 0.8 0 1.5 0.1 2.3 0.1 1.3 0 2.5-0.1 3.6-0.3s2-0.5 2.7-0.9 1.3-1 1.7-1.7 0.6-1.7 0.6-2.9v-0.8z"/><path id="i" d="m399.55 342.82c0 2.4-0.3 4.4-0.9 6.1s-1.4 3.1-2.4 4.2-2.2 1.9-3.7 2.4c-1.4 0.5-3 0.8-4.6 0.8-1.7 0-3.2-0.3-4.6-0.8s-2.6-1.3-3.6-2.4-1.8-2.5-2.4-4.2-0.9-3.7-0.9-6.1v-5.5c0-2.4 0.3-4.4 0.9-6.1s1.4-3.1 2.4-4.2 2.2-1.9 3.6-2.4 3-0.8 4.6-0.8c1.7 0 3.2 0.3 4.6 0.8s2.6 1.3 3.7 2.4c1 1.1 1.8 2.5 2.4 4.2s0.9 3.7 0.9 6.1zm-4-5.5c0-1.8-0.2-3.3-0.5-4.6-0.4-1.3-0.9-2.3-1.5-3.1s-1.4-1.4-2.4-1.7c-0.9-0.4-2-0.5-3.1-0.5-1.2 0-2.2 0.2-3.1 0.5-0.9 0.4-1.7 0.9-2.4 1.7s-1.2 1.8-1.5 3.1c-0.4 1.2-0.5 2.8-0.5 4.6v5.5c0 1.8 0.2 3.3 0.5 4.6 0.4 1.3 0.9 2.3 1.5 3.1 0.7 0.8 1.5 1.4 2.4 1.7 0.9 0.4 2 0.5 3.2 0.5s2.2-0.2 3.1-0.5 1.7-0.9 2.4-1.7 1.2-1.8 1.5-3.1c0.4-1.2 0.5-2.8 0.5-4.6v-5.5z"/><path id="j" d="m417.25 328.12c-0.1-0.5-0.4-0.8-0.8-0.8s-0.7 0.3-0.9 0.8l-7.4 27.2c-0.1 0.2-0.2 0.3-0.3 0.4s-0.3 0.2-0.5 0.2h-2.5c-0.5 0-0.7-0.2-0.7-0.7v-0.3l7.9-27.8c0.2-0.7 0.4-1.2 0.7-1.6s0.7-0.7 1.1-1c0.4-0.2 0.8-0.4 1.3-0.5 0.4-0.1 0.9-0.2 1.3-0.2s0.8 0 1.2 0.1 0.8 0.3 1.2 0.5 0.8 0.6 1.1 1 0.6 0.9 0.7 1.6l7.9 27.8v0.3c0 0.5-0.2 0.7-0.7 0.7h-2.5c-0.2 0-0.4-0.1-0.5-0.2s-0.2-0.3-0.3-0.4z"/><path id="k" d="m456.15 347.22c0 1.8-0.3 3.3-1 4.4-0.7 1.2-1.6 2.1-2.7 2.8-1.2 0.7-2.5 1.2-4 1.4-1.5 0.3-3.1 0.4-4.7 0.4-1.4 0-2.7 0-3.9-0.1s-2.2-0.1-3-0.3c-0.5-0.1-0.8-0.2-1.1-0.4-0.2-0.2-0.3-0.6-0.3-1.2v-29.2c0-0.2 0.1-0.4 0.2-0.6s0.3-0.2 0.6-0.2h2.3c0.2 0 0.4 0.1 0.5 0.2 0.1 0.2 0.2 0.3 0.2 0.6v12.5c0.7-0.1 1.4-0.1 2.1-0.1h2.4c1.6 0 3.2 0.1 4.7 0.4s2.8 0.8 4 1.5 2.1 1.6 2.7 2.8c0.7 1.2 1 2.6 1 4.4zm-3.9-0.8c0-1.1-0.2-2.1-0.6-2.8-0.4-0.8-1-1.3-1.7-1.8-0.7-0.4-1.6-0.7-2.7-0.9s-2.2-0.3-3.6-0.3h-2.2c-0.8 0-1.5 0.1-2.2 0.1v12.1c0.7 0 1.4 0.1 2.2 0.1s1.5 0.1 2.3 0.1c1.3 0 2.5-0.1 3.6-0.3s2-0.5 2.7-0.9 1.3-1 1.7-1.7 0.6-1.7 0.6-2.9v-0.8z"/><path id="l" d="m492.35 325.12c0-0.2 0.1-0.4 0.3-0.6s0.4-0.3 0.6-0.3h2.2c0.2 0 0.4 0.1 0.6 0.3s0.3 0.4 0.3 0.6v25.5c0 1.2-0.2 2.2-0.6 2.9s-0.9 1.2-1.5 1.6-1.2 0.6-1.9 0.7-1.3 0.1-1.8 0.1h-21.5c-0.5 0-1.1 0-1.8-0.1s-1.3-0.3-1.9-0.7-1.1-0.9-1.5-1.6-0.6-1.7-0.6-2.9v-25.5c0-0.2 0.1-0.4 0.3-0.6s0.4-0.3 0.6-0.3h2.2c0.2 0 0.4 0.1 0.6 0.3s0.3 0.4 0.3 0.6v26.3c0 0.2 0.1 0.4 0.2 0.6 0.1 0.1 0.3 0.2 0.6 0.3s0.6 0.1 1.1 0.1h8.8v-27.3c0-0.2 0.1-0.4 0.3-0.6s0.4-0.3 0.6-0.3h2.2c0.2 0 0.4 0.1 0.6 0.3s0.3 0.4 0.3 0.6v27.3h8.8c0.9 0 1.4-0.1 1.6-0.4s0.3-0.8 0.3-1.4v-25.5z"/><path id="m" d="m527.45 355.22c0 0.5-0.2 0.7-0.7 0.7h-2.5c-0.2 0-0.4-0.1-0.5-0.2s-0.2-0.3-0.3-0.4l-2.8-9.8h-11l-2.7 9.8c-0.1 0.2-0.2 0.3-0.3 0.4s-0.3 0.2-0.5 0.2h-2.5c-0.5 0-0.7-0.2-0.7-0.7v-0.3l7.9-27.8c0.2-0.7 0.4-1.2 0.7-1.6s0.7-0.7 1.1-1c0.4-0.2 0.8-0.4 1.3-0.5 0.4-0.1 0.9-0.2 1.3-0.2s0.8 0 1.2 0.1 0.8 0.3 1.2 0.5 0.8 0.6 1.1 1 0.6 0.9 0.7 1.6l7.9 27.8c0.1 0.2 0.1 0.3 0.1 0.4m-11.4-27.1c-0.1-0.5-0.4-0.8-0.8-0.8s-0.7 0.3-0.8 0.8l-3.9 14h9.4z"/><path id="n" d="m554.55 355.12c0 0.2-0.1 0.4-0.2 0.6s-0.3 0.3-0.6 0.3h-2.3c-0.2 0-0.4-0.1-0.6-0.3-0.1-0.2-0.2-0.4-0.2-0.6v-12.5c-0.9 0.1-1.6 0.1-2.3 0.1h-3.5l-7.6 12.7c-0.2 0.3-0.3 0.4-0.5 0.5-0.2 0-0.4 0.1-0.6 0.1h-2.7c-0.3 0-0.4-0.1-0.5-0.3s-0.1-0.4 0.1-0.6l7.8-13c-1-0.3-1.9-0.6-2.7-1.1s-1.5-1.1-2.1-1.8-1.1-1.5-1.4-2.5-0.5-2-0.5-3.2v-0.3c0-1.7 0.3-3.2 0.9-4.3 0.6-1.2 1.5-2.1 2.5-2.8 1.1-0.7 2.3-1.2 3.8-1.5s3-0.5 4.7-0.5h2c0.7 0 1.4 0 2 0.1 0.7 0 1.3 0.1 1.9 0.1s1.1 0.1 1.6 0.1c0.4 0.1 0.7 0.2 0.8 0.3s0.2 0.4 0.2 0.7zm-3.9-27.5c-0.3 0-0.6-0.1-1-0.1h-3.7c-2.7 0-4.7 0.4-6.1 1.2s-2 2.3-2 4.4v0.3c0 1.2 0.2 2.1 0.5 2.9 0.4 0.8 0.9 1.4 1.6 1.8 0.7 0.5 1.5 0.8 2.5 1s2.2 0.3 3.5 0.3h2.8c0.5 0 1.1 0 1.9-0.1z"/></g><g id="o" transform="translate(-219.55 -319.42)" fill="#f47b29"><path id="p" d="m391.95 425.02c0 0.8-0.4 1.2-1.3 1.2h-10.6c-0.4 0-0.7-0.1-1-0.4s-0.4-0.6-0.5-1l-2.7-12.5h-15.6l-2.7 12.5c-0.1 0.4-0.3 0.7-0.5 1-0.3 0.2-0.6 0.4-1 0.4h-10.6c-0.9 0-1.3-0.4-1.3-1.2v-0.3l11.3-47.1c0.5-1.8 1.1-6 2-7.1s20.3-1.1 21.2 0 1.5 5.3 2 7.1l11.3 47.1v0.3m-23-43.9c-0.1-0.4-0.2-0.7-0.3-0.9s-0.3-0.3-0.7-0.3c-0.6 0-0.9 0.4-1.1 1.1l-4.6 21h11.4z"/><path id="q" d="m438.75 417.72c-1 2.1-2.3 3.9-4.1 5.2-1.8 1.4-3.8 2.4-6.3 3-2.4 0.6-5.1 1-8.1 1s-5.9-0.2-8.6-0.6c-2.8-0.4-5.1-0.9-7.1-1.5-0.4-0.1-0.7-0.3-1-0.5s-0.4-0.5-0.4-0.9v-6c0-0.4 0.1-0.7 0.4-1s0.6-0.4 1-0.4h0.2c2.7 0.3 5.4 0.4 8 0.5 2.7 0.1 5 0.1 7.1 0.1 2.7 0 4.7-0.5 5.8-1.6s1.7-2.7 1.7-4.9v-1.3c0-0.9-0.1-1.7-0.3-2.5s-0.5-1.5-1-2.1-1.1-1.1-1.9-1.5-1.8-0.5-3-0.5h-13.4c-0.4 0-0.8-0.1-1-0.5-0.3-0.3-0.4-0.7-0.4-1.1v-6.5c0-1 0.5-1.4 1.4-1.4h13.1c1.2 0 2.2-0.2 3.1-0.6 0.8-0.4 1.5-0.9 2-1.5s0.9-1.3 1.1-2.1 0.3-1.6 0.3-2.5v-1.1c0-1.7-0.5-3.1-1.6-4.2-1-1-3-1.6-6-1.6-1.3 0-2.6 0-3.8 0.1-1.2 0-2.4 0.1-3.6 0.2l-3.6 0.3c-1.2 0.1-2.6 0.2-4 0.4h-0.1c-0.4 0-0.7-0.1-1-0.4-0.3-0.2-0.4-0.6-0.4-1v-6c0-0.4 0.2-0.7 0.5-0.9s0.7-0.4 1.1-0.5c2-0.6 4.3-1.1 7-1.6s5.5-0.7 8.5-0.7c3.1 0 5.9 0.3 8.3 0.8 2.5 0.6 4.5 1.5 6.2 2.7s3 2.8 3.9 4.8 1.4 4.4 1.4 7.2v1.1c0 2.2-0.6 4.4-1.9 6.6-1.2 2.2-2.9 3.8-4.9 5 2.1 1.1 3.8 2.7 5 4.7s1.8 4.2 1.8 6.7v1.4c0 3-0.5 5.6-1.4 7.7"/><path id="r" d="m455.25 371.32c0-0.4 0.2-0.7 0.5-1s0.7-0.4 1.1-0.4h9c0.4 0 0.8 0.1 1.1 0.4s0.5 0.6 0.5 1v32.1c0 0.5 0.1 0.7 0.4 0.7 0.2 0 0.4-0.2 0.6-0.6l18-31.3c0.5-0.8 0.9-1.4 1.4-1.8s1.1-0.6 1.8-0.6h7.7c0.8 0 1.5 0.3 2.1 0.8 0.6 0.6 0.8 1.2 0.8 2v52c0 0.4-0.2 0.8-0.5 1.1s-0.7 0.5-1.1 0.5h-9c-0.4 0-0.8-0.2-1.1-0.5s-0.5-0.7-0.5-1.1v-30.8c0-0.4-0.1-0.6-0.4-0.6-0.2 0-0.4 0.2-0.7 0.6l-17.3 30.1c-0.6 1-1.2 1.7-1.8 1.9-0.6 0.3-1.3 0.4-2.1 0.4h-7.5c-0.8 0-1.5-0.3-2.1-0.8-0.6-0.6-0.9-1.2-0.9-2.1z"/><path id="s" d="m511.85 425.32c0-0.2 0.1-0.5 0.2-0.8l11.5-21.4c-2.8-1.1-5.1-2.9-7-5.4s-2.8-5.8-2.8-9.8v-1c0-3.3 0.6-6.1 1.7-8.4 1.2-2.3 2.8-4.1 4.8-5.5 2.1-1.4 4.5-2.4 7.3-3s5.8-0.9 9.1-0.9c1.4 0 2.8 0 4.2 0.1 1.4 0 2.9 0.1 4.2 0.2 1.4 0.1 2.7 0.2 3.9 0.3s2.3 0.2 3.1 0.4c1.2 0.2 2 0.5 2.6 1s0.8 1.3 0.8 2.7v51c0 0.4-0.2 0.8-0.5 1.1s-0.7 0.4-1.1 0.4h-9.9c-0.4 0-0.8-0.1-1.1-0.4s-0.5-0.7-0.5-1.1v-19.3c-0.7 0-1.6 0-2.6 0.1s-2 0.1-2.8 0.1l-0.8-0.1-10.1 19.2c-0.2 0.4-0.4 0.8-0.6 1.1s-0.5 0.4-0.9 0.4h-11.7c-0.6 0-1-0.3-1-1m14.9-37.3c0 1.3 0.2 2.4 0.5 3.3 0.4 0.9 0.9 1.6 1.7 2.2s1.9 1 3.2 1.3 3 0.4 4.9 0.4h2.7c0.6 0 1.1-0.1 1.6-0.1h1.1v-14.6h-1.2c-0.5 0-1.1 0-1.7-0.1-0.6 0-1.2-0.1-1.8-0.1h-1.3c-3.2 0-5.6 0.5-7.3 1.6s-2.6 2.8-2.6 5.1v1z"/></g><g id="t" transform="translate(-252.9,-241.6)" opacity=".3">
				<g id="u">
					<defs id="v"><rect id="d" x="270.4" y="242.8" width="77.5" height="80.1"/></defs>
					<clipPath id="c">
						<use id="w" width="100%" height="100%" xlink:href="#d"/>
					</clipPath>
					<g id="x" clip-path="url(#c)">
						<defs id="y"><rect id="b" x="270.4" y="242.8" width="77.5" height="80.1"/></defs>
						<clipPath id="a">
							<use id="z" width="100%" height="100%" xlink:href="#b"/>
						</clipPath>
						<path id="aa" d="m317.9 258-8.8-15.2-8.8 15.2-30 51.9c1.5 4.8 3.9 9.1 6.9 12.9l11.8-20.4 3.7-6.4 7.7-13.4 8.7-15.1 8.7 15.1 7.7 13.4 3.7 6.4 11.8 20.4c3-3.8 5.4-8.2 6.9-12.9z" clip-path="url(#a)" fill="#f2f3f2"/>
						<path id="ab" d="m341 322.8-11.8-20.4-3.7-6.4c-4.4-1.4-9.1-2.2-13.9-2.4-0.8 0-1.7-0.1-2.5-0.1-0.9 0-1.7 0-2.5 0.1-4.8 0.2-9.5 1.1-13.9 2.4l-3.7 6.4-11.8 20.4c7.4-9.3 19-15 31.9-15s24.5 5.8 31.9 15" clip-path="url(#a)" fill="#f2f3f2"/>
					</g>
				</g>
			</g><path id="ac" d="m56.2 112.2c-9.4 0-18.7-2.4-26.9-6.8-4.1-2.3-8-5-11.4-8.2-0.5-0.5-1-0.9-1.5-1.4l-0.6-0.6c-3.2-3.3-6-7-8.3-11-0.4-0.7-0.8-1.4-1.1-2.1-4.2-8-6.4-17-6.4-26 0-11 3.2-21.7 9.2-30.8 1.8-2.7 3.8-5.2 6-7.5 10.6-11.3 25.5-17.8 41-17.8 15.7 0 30.2 6.3 41 17.8 2.2 2.3 4.2 4.9 6 7.5 6 9.2 9.2 19.8 9.2 30.8 0 9-2.2 18-6.4 26-0.4 0.7-0.8 1.4-1.1 2.1-2.3 4-5.1 7.7-8.3 11l-0.6 0.6c-0.5 0.5-1 1-1.5 1.4-3.4 3.2-7.3 6-11.3 8.2-8.3 4.4-17.6 6.8-27 6.8m-2.2-109.7c-14.1 0.6-27.1 6.5-36.8 16.9-2.1 2.2-4 4.7-5.7 7.2-5.8 8.8-8.8 18.9-8.8 29.4 0 8.7 2 17.1 6.1 24.8 0.4 0.7 0.7 1.3 1.1 2 2.2 3.8 4.9 7.4 7.9 10.5l0.5 0.6 1.4 1.4c3.3 3 6.9 5.7 10.8 7.8 7.8 4.3 16.7 6.5 25.7 6.5s17.8-2.3 25.7-6.5c3.9-2.1 7.5-4.8 10.8-7.8 0.5-0.5 1-0.9 1.4-1.4l0.5-0.6c3.1-3.1 5.7-6.7 7.9-10.5 0.4-0.7 0.7-1.3 1.1-2 4-7.7 6.1-16.1 6.1-24.8 0-10.5-3-20.7-8.8-29.4-1.7-2.5-3.6-5-5.7-7.2-9.7-10.4-22.7-16.3-36.8-16.9l7.4 12.7c7.6 1.8 14.5 5.6 20.1 11.2 4 4 7.1 8.7 9.2 13.9 2 5 3.1 10.3 3.1 15.7 0 4.2-0.6 8.4-1.9 12.4l-0.1 0.2c-1.5 4.8-3.9 9.3-7.1 13.4l-0.2 0.2c-3.1 3.9-6.8 7.1-11 9.7-2.9 1.8-6.1 3.2-9.4 4.2-1.9 0.6-3.9 1-5.8 1.3-4.3 0.7-8.6 0.7-12.9 0-2-0.3-3.9-0.8-5.8-1.3-3.3-1-6.5-2.4-9.4-4.2-4.2-2.6-7.9-5.8-11-9.7l-0.2-0.2c-3.2-4-5.6-8.5-7.1-13.3l1.1-0.6-1.2 0.4c-1.2-4-1.9-8.2-1.9-12.4 0-5.4 1-10.7 3.1-15.7 2.1-5.2 5.2-9.9 9.2-13.9 5.5-5.5 12.5-9.4 20.1-11.2zm-14.2 53.3c-0.4 0-0.8-0.2-1-0.5-0.3-0.4-0.4-1-0.1-1.4l16.4-28.5c0.5-0.8 1.8-0.8 2.2 0l16.4 28.4c0.3 0.5 0.2 1-0.1 1.4s-0.9 0.6-1.4 0.4c-4.4-1.4-8.9-2.2-13.6-2.4-1.6-0.1-3.3-0.1-5 0-4.6 0.2-9.2 1-13.6 2.4 0.1 0.1-0.1 0.2-0.2 0.2m16.4-5.1c0.9 0 1.7 0 2.6 0.1 3.8 0.2 7.5 0.7 11.1 1.6l-13.7-23.8-13.7 23.8c3.6-0.9 7.4-1.5 11.1-1.6 0.9-0.1 1.8-0.1 2.6-0.1m-16.4 5.1c-0.4 0-0.8-0.2-1-0.5-0.3-0.4-0.4-1-0.1-1.4l16.4-28.5c0.5-0.8 1.8-0.8 2.2 0l16.4 28.4c0.3 0.5 0.2 1-0.1 1.4s-0.9 0.6-1.4 0.4c-4.4-1.4-8.9-2.2-13.6-2.4-1.6-0.1-3.3-0.1-5 0-4.6 0.2-9.2 1-13.6 2.4 0.1 0.1-0.1 0.2-0.2 0.2m16.4-5.1c0.9 0 1.7 0 2.6 0.1 3.8 0.2 7.5 0.7 11.1 1.6l-13.7-23.8-13.7 23.8c3.6-0.9 7.4-1.5 11.1-1.6 0.9-0.1 1.8-0.1 2.6-0.1m38.8 18.9c-0.5 0-0.9-0.2-1.1-0.6l-30-51.9c-0.3-0.4-0.2-1 0.1-1.4s0.8-0.6 1.3-0.5c7.8 1.7 15 5.6 20.6 11.3 4 4 7.1 8.7 9.2 13.9 2 5 3.1 10.3 3.1 15.7 0 4.2-0.6 8.4-1.9 12.4l-0.1 0.2c-0.2 0.5-0.6 0.8-1.1 0.9h-0.1m-27.4-51.2 26.9 46.6c0.7-3 1-5.9 1-9 0-5.1-1-10.1-2.9-14.8-2-4.9-4.9-9.3-8.6-13-4.5-4.6-10.2-8-16.4-9.8m27.4 51.2c-0.5 0-0.9-0.2-1.1-0.6l-30-51.9c-0.3-0.4-0.2-1 0.1-1.4s0.8-0.6 1.3-0.5c7.8 1.7 15 5.6 20.6 11.3 4 4 7.1 8.7 9.2 13.9 2 5 3.1 10.3 3.1 15.7 0 4.2-0.6 8.4-1.9 12.4l-0.1 0.2c-0.2 0.5-0.6 0.8-1.1 0.9h-0.1m-27.4-51.2 26.9 46.6c0.7-3 1-5.9 1-9 0-5.1-1-10.1-2.9-14.8-2-4.9-4.9-9.3-8.6-13-4.5-4.6-10.2-8-16.4-9.8m-50.1 51.2h-0.2c-0.5-0.1-0.9-0.4-1.1-0.9l1.2-0.4-1.2 0.3c-1.3-4.1-1.9-8.3-1.9-12.6 0-5.4 1-10.7 3.1-15.7 2.1-5.2 5.2-9.9 9.2-13.9 5.7-5.7 12.8-9.6 20.6-11.3 0.5-0.1 1 0.1 1.3 0.5s0.3 1 0.1 1.4l-30 51.9c-0.2 0.4-0.7 0.7-1.1 0.7m27.3-51.2c-6.2 1.9-11.8 5.2-16.5 9.9-3.7 3.7-6.6 8.1-8.6 13-1.9 4.7-2.9 9.7-2.9 14.8 0 3 0.3 6 1 9zm-27.3 51.2h-0.2c-0.5-0.1-0.9-0.4-1.1-0.9l1.2-0.4-1.2 0.3c-1.3-4.1-1.9-8.3-1.9-12.6 0-5.4 1-10.7 3.1-15.7 2.1-5.2 5.2-9.9 9.2-13.9 5.7-5.7 12.8-9.6 20.6-11.3 0.5-0.1 1 0.1 1.3 0.5s0.3 1 0.1 1.4l-30 51.9c-0.2 0.4-0.7 0.7-1.1 0.7m27.3-51.2c-6.2 1.9-11.8 5.2-16.5 9.9-3.7 3.7-6.6 8.1-8.6 13-1.9 4.7-2.9 9.7-2.9 14.8 0 3 0.3 6 1 9zm-20.4 64.1c-0.4 0-0.8-0.2-1-0.5-3.2-4-5.6-8.5-7.1-13.3-0.1-0.3-0.1-0.7 0.1-1l38.8-67.1c0.5-0.8 1.8-0.8 2.2 0l38.8 67.1c0.2 0.3 0.2 0.7 0.1 1-1.5 4.8-3.9 9.3-7.1 13.3-0.3 0.3-0.7 0.5-1.1 0.5s-0.8-0.3-1-0.6l-30.8-53.3-30.8 53.3c-0.2 0.4-0.6 0.6-1.1 0.6m31.8-57.7c0.5 0 0.9 0.2 1.1 0.6l30.9 53.5c2.3-3.2 4.1-6.7 5.3-10.5l-37.4-64.7-37.2 64.7c1.2 3.7 3 7.3 5.3 10.5l30.9-53.5c0.3-0.4 0.7-0.6 1.1-0.6m-31.8 57.7c-0.4 0-0.8-0.2-1-0.5-3.2-4-5.6-8.5-7.1-13.3-0.1-0.3-0.1-0.7 0.1-1l38.8-67.1c0.5-0.8 1.8-0.8 2.2 0l38.8 67.1c0.2 0.3 0.2 0.7 0.1 1-1.5 4.8-3.9 9.3-7.1 13.3-0.3 0.3-0.7 0.5-1.1 0.5s-0.8-0.3-1-0.6l-30.8-53.3-30.8 53.3c-0.2 0.4-0.6 0.6-1.1 0.6m31.8-57.7c0.5 0 0.9 0.2 1.1 0.6l30.9 53.5c2.3-3.2 4.1-6.7 5.3-10.5l-37.4-64.7-37.2 64.7c1.2 3.7 3 7.3 5.3 10.5l30.9-53.5c0.3-0.4 0.7-0.6 1.1-0.6m-31.8 57.7c-0.4 0-0.8-0.2-1-0.5-3.2-4-5.6-8.5-7.1-13.3-0.1-0.3-0.1-0.7 0.1-1l38.8-67.1c0.5-0.8 1.8-0.8 2.2 0l38.8 67.1c0.2 0.3 0.2 0.7 0.1 1-1.5 4.8-3.9 9.3-7.1 13.3-0.3 0.3-0.7 0.5-1.1 0.5s-0.8-0.3-1-0.6l-30.8-53.3-30.8 53.3c-0.2 0.4-0.6 0.6-1.1 0.6m31.8-57.7c0.5 0 0.9 0.2 1.1 0.6l30.9 53.5c2.3-3.2 4.1-6.7 5.3-10.5l-37.4-64.7-37.2 64.7c1.2 3.7 3 7.3 5.3 10.5l30.9-53.5c0.3-0.4 0.7-0.6 1.1-0.6m31.9 57.7c-0.4 0-0.7-0.2-1-0.5-7.4-9.3-18.7-14.6-30.9-14.6s-23.5 5.3-30.9 14.6c-0.4 0.5-1.2 0.6-1.7 0.3-0.6-0.4-0.7-1.1-0.4-1.7l15.5-26.8c0.2-0.3 0.4-0.5 0.7-0.6 4.6-1.4 9.4-2.3 14.2-2.5 1.7-0.1 3.5-0.1 5.2 0 4.8 0.2 9.6 1.1 14.2 2.5 0.3 0.1 0.6 0.3 0.7 0.6l15.4 26.8c0.3 0.6 0.2 1.3-0.4 1.7-0.1 0.2-0.3 0.2-0.6 0.2m-31.9-17.6c9.7 0 18.8 3.1 26.1 8.8l-10.5-18.2c-4.2-1.3-8.6-2-13.1-2.2-1.6-0.1-3.3-0.1-5 0-4.5 0.2-8.9 1-13.1 2.2l-10.5 18.2c7.4-5.6 16.5-8.8 26.1-8.8m31.9 17.6c-0.4 0-0.7-0.2-1-0.5-7.4-9.3-18.7-14.6-30.9-14.6s-23.5 5.3-30.9 14.6c-0.4 0.5-1.2 0.6-1.7 0.3-0.6-0.4-0.7-1.1-0.4-1.7l15.5-26.8c0.2-0.3 0.4-0.5 0.7-0.6 4.6-1.4 9.4-2.3 14.2-2.5 1.7-0.1 3.5-0.1 5.2 0 4.8 0.2 9.6 1.1 14.2 2.5 0.3 0.1 0.6 0.3 0.7 0.6l15.4 26.8c0.3 0.6 0.2 1.3-0.4 1.7-0.1 0.2-0.3 0.2-0.6 0.2m-31.9-17.6c9.7 0 18.8 3.1 26.1 8.8l-10.5-18.2c-4.2-1.3-8.6-2-13.1-2.2-1.6-0.1-3.3-0.1-5 0-4.5 0.2-8.9 1-13.1 2.2l-10.5 18.2c7.4-5.6 16.5-8.8 26.1-8.8m-31.8 17.6c-0.4 0-0.8-0.2-1-0.5-3.2-4-5.6-8.5-7.1-13.3-0.1-0.3-0.1-0.7 0.1-1l38.8-67.1c0.5-0.8 1.8-0.8 2.2 0l38.8 67.1c0.2 0.3 0.2 0.7 0.1 1-1.5 4.8-3.9 9.3-7.1 13.3-0.3 0.3-0.7 0.5-1.1 0.5s-0.8-0.3-1-0.6l-30.8-53.3-30.8 53.3c-0.2 0.4-0.6 0.6-1.1 0.6m31.8-57.7c0.5 0 0.9 0.2 1.1 0.6l30.9 53.5c2.3-3.2 4.1-6.7 5.3-10.5l-37.4-64.7-37.2 64.7c1.2 3.7 3 7.3 5.3 10.5l30.9-53.5c0.3-0.4 0.7-0.6 1.1-0.6m31.9 57.7c-0.4 0-0.7-0.2-1-0.5-7.4-9.3-18.7-14.6-30.9-14.6s-23.5 5.3-30.9 14.6c-0.4 0.5-1.2 0.6-1.7 0.3-0.6-0.4-0.7-1.1-0.4-1.7l15.5-26.8c0.2-0.3 0.4-0.5 0.7-0.6 4.6-1.4 9.4-2.3 14.2-2.5 1.7-0.1 3.5-0.1 5.2 0 4.8 0.2 9.6 1.1 14.2 2.5 0.3 0.1 0.6 0.3 0.7 0.6l15.4 26.8c0.3 0.6 0.2 1.3-0.4 1.7-0.1 0.2-0.3 0.2-0.6 0.2m-31.9-17.6c9.7 0 18.8 3.1 26.1 8.8l-10.5-18.2c-4.2-1.3-8.6-2-13.1-2.2-1.6-0.1-3.3-0.1-5 0-4.5 0.2-8.9 1-13.1 2.2l-10.5 18.2c7.4-5.6 16.5-8.8 26.1-8.8m-21 27.2c-0.2 0-0.5-0.1-0.7-0.2-4.1-2.5-8-5.9-11.2-9.9-0.4-0.5-0.4-1.1 0-1.6 7.9-9.9 19.9-15.5 32.9-15.5s25 5.7 32.9 15.5c0.4 0.5 0.4 1.1 0 1.6-3.2 4-7 7.4-11.2 9.9-0.6 0.3-1.3 0.2-1.7-0.3-4.2-5.5-10.6-9.1-17.5-9.8-1.6-0.2-3.3-0.2-5 0-6.9 0.7-13.3 4.2-17.5 9.8-0.2 0.3-0.6 0.5-1 0.5m21-13c0.9 0 1.8 0 2.7 0.1 7.2 0.7 13.9 4.3 18.6 9.9 3.3-2.1 6.3-4.8 8.9-7.9-7.4-8.8-18.4-13.8-30.2-13.8s-22.8 5-30.2 13.8c2.6 3.1 5.7 5.8 8.9 7.9 4.6-5.6 11.3-9.2 18.6-9.9 0.9 0 1.8-0.1 2.7-0.1m-21 13c-0.2 0-0.5-0.1-0.7-0.2-4.1-2.5-8-5.9-11.2-9.9-0.4-0.5-0.4-1.1 0-1.6 7.9-9.9 19.9-15.5 32.9-15.5s25 5.7 32.9 15.5c0.4 0.5 0.4 1.1 0 1.6-3.2 4-7 7.4-11.2 9.9-0.6 0.3-1.3 0.2-1.7-0.3-4.2-5.5-10.6-9.1-17.5-9.8-1.6-0.2-3.3-0.2-5 0-6.9 0.7-13.3 4.2-17.5 9.8-0.2 0.3-0.6 0.5-1 0.5m21-13c0.9 0 1.8 0 2.7 0.1 7.2 0.7 13.9 4.3 18.6 9.9 3.3-2.1 6.3-4.8 8.9-7.9-7.4-8.8-18.4-13.8-30.2-13.8s-22.8 5-30.2 13.8c2.6 3.1 5.7 5.8 8.9 7.9 4.6-5.6 11.3-9.2 18.6-9.9 0.9 0 1.8-0.1 2.7-0.1m0 33.1c-9.4 0-18.7-2.4-26.9-6.8-4.1-2.3-8-5-11.4-8.2-0.5-0.5-1-0.9-1.5-1.4l-0.6-0.6c-3.2-3.3-6-7-8.3-11-0.4-0.7-0.8-1.4-1.1-2.1-4.2-8-6.4-17-6.4-26 0-11 3.2-21.7 9.2-30.8 1.8-2.7 3.8-5.2 6-7.5 10.6-11.3 25.5-17.8 41-17.8 15.7 0 30.2 6.3 41 17.8 2.2 2.3 4.2 4.9 6 7.5 6 9.2 9.2 19.8 9.2 30.8 0 9-2.2 18-6.4 26-0.4 0.7-0.8 1.4-1.1 2.1-2.3 4-5.1 7.7-8.3 11l-0.6 0.6c-0.5 0.5-1 1-1.5 1.4-3.4 3.2-7.3 6-11.3 8.2-8.3 4.4-17.6 6.8-27 6.8m-2.2-109.7c-14.1 0.6-27.1 6.5-36.8 16.9-2.1 2.2-4 4.7-5.7 7.2-5.8 8.8-8.8 18.9-8.8 29.4 0 8.7 2 17.1 6.1 24.8 0.4 0.7 0.7 1.3 1.1 2 2.2 3.8 4.9 7.4 7.9 10.5l0.5 0.6 1.4 1.4c3.3 3 6.9 5.7 10.8 7.8 7.8 4.3 16.7 6.5 25.7 6.5s17.8-2.3 25.7-6.5c3.9-2.1 7.5-4.8 10.8-7.8 0.5-0.5 1-0.9 1.4-1.4l0.5-0.6c3.1-3.1 5.7-6.7 7.9-10.5 0.4-0.7 0.7-1.3 1.1-2 4-7.7 6.1-16.1 6.1-24.8 0-10.5-3-20.7-8.8-29.4-1.7-2.5-3.6-5-5.7-7.2-9.7-10.4-22.7-16.3-36.8-16.9l7.4 12.7c7.6 1.8 14.5 5.6 20.1 11.2 4 4 7.1 8.7 9.2 13.9 2 5 3.1 10.3 3.1 15.7 0 4.2-0.6 8.4-1.9 12.4l-0.1 0.2c-1.5 4.8-3.9 9.3-7.1 13.4l-0.2 0.2c-3.1 3.9-6.8 7.1-11 9.7-2.9 1.8-6.1 3.2-9.4 4.2-1.9 0.6-3.9 1-5.8 1.3-4.3 0.7-8.6 0.7-12.9 0-2-0.3-3.9-0.8-5.8-1.3-3.3-1-6.5-2.4-9.4-4.2-4.2-2.6-7.9-5.8-11-9.7l-0.2-0.2c-3.2-4-5.6-8.5-7.1-13.3l1.1-0.6-1.2 0.4c-1.2-4-1.9-8.2-1.9-12.4 0-5.4 1-10.7 3.1-15.7 2.1-5.2 5.2-9.9 9.2-13.9 5.5-5.5 12.5-9.4 20.1-11.2zm-28.5 78.1c2.9 3.6 6.4 6.7 10.4 9.1 2.8 1.7 5.7 3 8.8 3.9 1.8 0.5 3.6 1 5.5 1.2 4 0.6 8.1 0.6 12.1 0 1.8-0.3 3.7-0.7 5.5-1.2 3.1-0.9 6.1-2.3 8.8-3.9 4-2.4 7.4-5.5 10.4-9.1l1.2 0.6-1-0.8c3-3.8 5.2-8 6.7-12.5l1.3 0.2-1.2-0.4c1.2-3.8 1.8-7.7 1.8-11.7 0-5.1-1-10.1-2.9-14.8-2-4.9-4.9-9.3-8.6-13-5.3-5.3-12-9-19.4-10.6-0.4-0.1-0.7-0.3-0.8-0.6l-7.7-13.3-7.7 13.3c-0.2 0.3-0.5 0.5-0.8 0.6-7.3 1.6-14 5.3-19.4 10.6-3.7 3.7-6.6 8.1-8.6 13-1.9 4.7-2.9 9.7-2.9 14.8 0 4 0.6 7.9 1.8 11.7l-1.2 0.6 1.2-0.4c1.4 4.5 3.7 8.8 6.7 12.5l-0.8 1zm30.7 17.4c-2.1 0-4.3-0.2-6.4-0.5-2-0.3-3.9-0.8-5.8-1.3-3.3-1-6.5-2.4-9.4-4.2-0.3-0.2-0.5-0.5-0.6-0.9s0-0.7 0.2-1c4.7-6.1 11.7-10 19.3-10.8 1.8-0.2 3.7-0.2 5.5 0 7.6 0.7 14.6 4.7 19.3 10.8 0.2 0.3 0.3 0.7 0.2 1-0.1 0.4-0.3 0.7-0.6 0.9-3 1.8-6.1 3.2-9.4 4.2-1.9 0.6-3.9 1-5.8 1.3-2.2 0.3-4.3 0.5-6.5 0.5m-19-7.5c2.4 1.3 4.9 2.4 7.6 3.2 1.8 0.5 3.6 1 5.5 1.2 4 0.6 8.1 0.6 12.1 0 1.8-0.3 3.7-0.7 5.5-1.2 2.6-0.8 5.2-1.9 7.6-3.2-4.2-4.9-10.2-8-16.6-8.6-1.6-0.2-3.3-0.2-5 0-6.6 0.6-12.5 3.7-16.7 8.6m19 7.5c-2.1 0-4.3-0.2-6.4-0.5-2-0.3-3.9-0.8-5.8-1.3-3.3-1-6.5-2.4-9.4-4.2-0.3-0.2-0.5-0.5-0.6-0.9s0-0.7 0.2-1c4.7-6.1 11.7-10 19.3-10.8 1.8-0.2 3.7-0.2 5.5 0 7.6 0.7 14.6 4.7 19.3 10.8 0.2 0.3 0.3 0.7 0.2 1-0.1 0.4-0.3 0.7-0.6 0.9-3 1.8-6.1 3.2-9.4 4.2-1.9 0.6-3.9 1-5.8 1.3-2.2 0.3-4.3 0.5-6.5 0.5m-19-7.5c2.4 1.3 4.9 2.4 7.6 3.2 1.8 0.5 3.6 1 5.5 1.2 4 0.6 8.1 0.6 12.1 0 1.8-0.3 3.7-0.7 5.5-1.2 2.6-0.8 5.2-1.9 7.6-3.2-4.2-4.9-10.2-8-16.6-8.6-1.6-0.2-3.3-0.2-5 0-6.6 0.6-12.5 3.7-16.7 8.6m-11.7-9.9c2.9 3.6 6.4 6.7 10.4 9.1 2.8 1.7 5.7 3 8.8 3.9 1.8 0.5 3.6 1 5.5 1.2 4 0.6 8.1 0.6 12.1 0 1.8-0.3 3.7-0.7 5.5-1.2 3.1-0.9 6.1-2.3 8.8-3.9 4-2.4 7.4-5.5 10.4-9.1l1.2 0.6-1-0.8c3-3.8 5.2-8 6.7-12.5l1.3 0.2-1.2-0.4c1.2-3.8 1.8-7.7 1.8-11.7 0-5.1-1-10.1-2.9-14.8-2-4.9-4.9-9.3-8.6-13-5.3-5.3-12-9-19.4-10.6-0.4-0.1-0.7-0.3-0.8-0.6l-7.7-13.3-7.7 13.3c-0.2 0.3-0.5 0.5-0.8 0.6-7.3 1.6-14 5.3-19.4 10.6-3.7 3.7-6.6 8.1-8.6 13-1.9 4.7-2.9 9.7-2.9 14.8 0 4 0.6 7.9 1.8 11.7l-1.2 0.6 1.2-0.4c1.4 4.5 3.7 8.8 6.7 12.5l-0.8 1z" fill="#fff"/>
</svg>
