<?xml version="1.0" encoding="UTF-8"?>
<!-- Generator: Adobe Illustrator 16.0.0, SVG Export Plug-In . SVG Version: 6.00 Build 0)  -->
<svg id="Layer_1" width="334.96" height="122.3" enable-background="new 0 0 725.67 408.19" version="1.1" viewBox="0 0 334.96 122.3" xml:space="preserve" xmlns="http://www.w3.org/2000/svg" xmlns:cc="http://creativecommons.org/ns#" xmlns:dc="http://purl.org/dc/elements/1.1/" xmlns:rdf="http://www.w3.org/1999/02/22-rdf-syntax-ns#"><metadata id="metadata105"><rdf:RDF><cc:Work rdf:about=""><dc:format>image/svg+xml</dc:format><dc:type rdf:resource="http://purl.org/dc/dcmitype/StillImage"/><dc:title/></cc:Work></rdf:RDF></metadata><g id="g98" transform="translate(-209.48,-56.448)"><g id="g67"><g id="g65"><path id="path53" d="m465.75 110.17h78.389v-53.69h-78.389zm56.447-6.908h-9.84l-11.174-29.713h-6.846v29.713h-10.781v-29.713h-10.932v-10.169h36.691l0.072 0.22 7.992 23.882 8.117-24.102h11.756z" fill="#debd00"/><path id="path55" d="m244.98 82.043c4.598-2.491 6.932-6.405 6.932-11.646v-0.149c0-4.755-1.941-8.377-5.753-10.782-3.104-2.004-7.097-3.018-11.851-3.018h-24.825v53.744h24.975c5.32 0 9.769-1.061 13.21-3.151 4.299-2.609 6.483-6.617 6.483-11.921v-0.149c0-6.098-3.089-10.444-9.171-12.928m-20.385-4.628v-8.102h6.577c5.839 0 5.839 2.963 5.839 3.938v0.157c0 0.982 0 4.008-6.129 4.008h-6.287zm14.444 15.528v0.149c0 2.853-2.02 4.244-6.177 4.244h-8.267v-8.558h8.125c6.319 0 6.319 3.136 6.319 4.165" fill="#fff"/><path id="path57" d="m291.78 91.513c6.704-3.183 10.106-8.691 10.106-16.385v-0.157c0-6.279-2.169-11.081-6.444-14.287-3.787-2.806-8.856-4.236-15.064-4.236h-21.973v53.744h15.12v-15.929h2.806l10.185 15.929h17.563zm-5.084-15.67v0.149c0 3.796-2.279 5.635-6.971 5.635h-6.2v-11.112h6.13c4.738 0 7.041 1.54 7.041 5.328" fill="#fff"/><path id="polygon59" d="m433.49 96.134v-6.759h20.551v-12.636h-20.551v-6.224h22.727v-14.067h-37.627v53.744h37.98v-14.058z" fill="#fff"/><path id="path61" d="m306.05 110.19h15.183v-35.072h-15.183zm0-39.677h15.183v-14.067h-15.183z" fill="#fff"/><path id="path63" d="m385.34 73.682c2.082-1.871 4.912-2.869 8.338-3.081 0 0 3.623-0.086 5.193-0.086h15.113v-14.067h-18.523c-8.377 0-15.324 2.271-20.652 6.743-1.918 1.626-3.488 3.481-4.777 5.517-1.313-2.114-2.947-4.023-4.943-5.666-5.227-4.377-12.102-6.593-20.431-6.593h-18.806v53.744h18.515c8.376 0 15.332-2.263 20.66-6.734 1.918-1.627 3.488-3.481 4.777-5.517 1.313 2.114 2.939 4.016 4.936 5.666 5.234 4.37 12.109 6.585 20.439 6.585h18.807v-26.24h-15.113v12.181h-3.912c-3.992 0-7.262-1.116-9.73-3.324-2.436-2.177-3.67-5.344-3.67-9.415v-0.149c-2e-3 -4.063 1.271-7.285 3.779-9.564zm-27.065 9.721c0 4.063-1.273 7.277-3.781 9.564-2.342 2.098-5.578 3.167-9.618 3.167h-3.914v-25.619h3.914c3.983 0 7.26 1.116 9.721 3.316 2.443 2.185 3.678 5.352 3.678 9.415z" fill="#fff"/></g></g><g id="g74"><rect id="XMLID_84_" x="482.67" y="118.93" width="61.477" height="15.858" fill="#0098ff"/><rect id="XMLID_83_" x="414.38" y="118.93" width="61.477" height="15.858" fill="#debd00"/><rect id="XMLID_82_" x="346.08" y="118.93" width="61.476" height="15.858" fill="#ff4800"/><rect id="XMLID_81_" x="277.78" y="118.93" width="61.478" height="15.858" fill="#f40000"/><rect id="XMLID_80_" x="209.48" y="118.93" width="61.478" height="15.858" fill="#ff0082"/></g><g id="g96" fill="#fff"><path id="path76" d="m234.15 157.86c0 3.534-1.253 6.281-3.745 8.239-2.282 1.812-5.237 2.718-8.859 2.718h-5.215v9.35h-6.853v-31.171h12.735c3.504 0 6.322 0.907 8.459 2.719 2.318 1.959 3.478 4.646 3.478 8.057zm-6.95 0.136v-0.091c0-3.142-1.855-4.719-5.564-4.719h-5.305v9.53h5.435c1.552 0 2.81-0.402 3.784-1.204 1.099-0.858 1.65-2.033 1.65-3.516z"/><path id="path78" d="m266.83 147-12.067 23.96c-1.332 2.668-2.479 4.543-3.426 5.611-1.277 1.452-2.656 2.181-4.146 2.181-1.721 0-3.662-0.476-5.835-1.428l-0.703-5.431c0.734 0.21 1.922 0.431 3.552 0.668 1.159 0.031 2.169-0.565 3.034-1.78 0.412-0.563 0.978-1.682 1.697-3.34l-12.924-20.441h8.012l8.373 14.088 6.637-14.088z"/><path id="path80" d="m298.5 173.14c-3.478 3.712-7.737 5.566-12.786 5.566-4.565 0-8.373-1.526-11.418-4.586-3.05-3.059-4.563-6.872-4.563-11.441v-0.091c0-4.631 1.549-8.476 4.648-11.536 3.108-3.055 6.975-4.587 11.6-4.587 4.931 0 9.025 1.605 12.295 4.811l-4.366 5.034c-2.577-2.346-5.237-3.518-7.968-3.518-2.641 0-4.811 0.947-6.508 2.848-1.686 1.901-2.534 4.187-2.534 6.858v0.09c0 2.701 0.817 4.99 2.452 6.856 1.717 1.963 3.922 2.939 6.59 2.939 2.789 0 5.52-1.216 8.191-3.65z"/><path id="path82" d="m331.36 173.14c-3.474 3.712-7.733 5.566-12.778 5.566-4.577 0-8.385-1.526-11.422-4.586-3.046-3.059-4.57-6.872-4.57-11.441v-0.091c0-4.631 1.552-8.476 4.656-11.536 3.101-3.055 6.963-4.587 11.604-4.587 4.923 0 9.021 1.605 12.286 4.811l-4.361 5.034c-2.589-2.346-5.245-3.518-7.977-3.518-2.641 0-4.809 0.947-6.494 2.848-1.698 1.901-2.543 4.187-2.543 6.858v0.09c0 2.701 0.817 4.99 2.448 6.856 1.725 1.963 3.917 2.939 6.589 2.939 2.794 0 5.521-1.216 8.197-3.65z"/><path id="path84" d="m365.23 178.17h-8.26l-9.686-13.293-3.587 3.734v9.559h-6.857v-31.171h6.857v13.626l12.64-13.626h8.203l-12.615 13.204z"/><path id="path86" d="m397.04 178.17h-6.77v-19.776l-15.105 19.776h-5.822v-31.171h6.766v19.194l14.609-19.194h6.322z"/><path id="path88" d="m432.22 178.17h-6.77v-19.815l-15.104 19.815h-5.828v-31.171h6.768v19.144l14.584-19.144h6.35zm-7.885-37.405c-0.598 3.088-2.523 4.676-5.789 4.766-1.896 0.057-3.441-0.534-4.633-1.782-0.623-0.652-1.041-1.648-1.244-2.984l2.486-0.446c0.24 1.487 1.355 2.228 3.348 2.228 1.152 0 2.047-0.294 2.672-0.892 0.209-0.177 0.412-0.621 0.621-1.336z"/><path id="path90" d="m480.54 178.17h-7.977l-7.049-10.737-7.037 10.737h-7.771l10.863-15.853-10.416-15.318h8.02l6.559 10.113 6.596-10.113h7.773l-10.424 15.231z"/><path id="path92" d="m513.36 178.17h-6.77v-19.776l-15.104 19.776h-5.828v-31.171h6.775v19.194l14.605-19.194h6.32v31.171z"/><path id="path94" d="m544.44 153.32h-9.486v24.849h-6.859v-24.849h-9.486v-6.322h25.832v6.322z"/></g></g></svg>
