<svg width="1094.3" height="509.39" version="1.1" viewBox="0 0 1094.3 509.39" xml:space="preserve" xmlns="http://www.w3.org/2000/svg">
<path d="m935.2 430.6-738.9 77.8c-104.9 11-196.3-71.2-196.3-176.6v-76.1c0-91 68.6-167.3 159.1-176.8l738.9-77.9c104.9-11.1 196.3 71.2 196.3 176.6v76.1c0 91-68.6 167.4-159.1 176.9z" fill="#450047"/>
<g transform="translate(-135.7 -129.2)">
	<polygon points="619.9 410 903 380.2 903 490.4 620 520.2" fill="#fff"/>
		<path d="m926.9 411.8 203.9-21.5-0.1-141.7-203.9 21.5zm146.8-33.7-25.6 2.7-29.1-75.4-17.8 1.9v78.4l-28 3v-78.4l-28.4 3v-26.8l64.3-6.8 20.7-2.2 10.4-1.1 0.2 0.6 20.8 60.8 21.1-65.8 30.6-3.2z" fill="#ff0082"/>
		<path d="m352.7 398.1c12-7.8 18-18.8 18-32.7v-0.4c0-12.5-5.1-21.6-15-26.9-8.1-4.5-18.5-6-30.8-4.7l-64.6 6.8 0.1 141.9 65-6.8c13.8-1.5 25.4-5.5 34.4-12 11.2-8 16.9-19.2 16.8-33.2v-0.4c-0.1-16.1-8.1-26.7-23.9-31.6m-53.1-6.7v-21.4l17.1-1.8c15.2-1.6 15.2 6.2 15.2 8.8v0.4c0 2.6 0 10.6-15.9 12.3zm37.6 37v0.4c0 7.5-5.2 11.7-16.1 12.9l-21.5 2.3v-22.6l21.1-2.2c16.5-1.7 16.5 6.5 16.5 9.2" fill="#fff"/>
		<path d="m474.4 410.2c17.4-10.2 26.3-25.7 26.3-46v-0.4c0-16.6-5.7-28.6-16.8-35.9-9.9-6.4-23-8.8-39.2-7.1l-57.2 6 0.1 141.9 39.3-4.1v-42.1l7.3-0.8 26.5 39.3 45.7-4.8zm-13.2-39.9v0.4c0 10-5.9 15.5-18.1 16.8l-16.1 1.7v-29.3l15.9-1.7c12.3-1.4 18.3 2.1 18.3 12.1" fill="#fff"/>
		<polygon points="896.4 360.1 896.4 326.8 843 332.4 843 316 902.1 309.7 902 272.6 804.2 282.9 804.3 424.8 903 414.4 903 377.3 843 383.6 843 365.8" fill="#fff"/>
		<path d="m511.6 455.6 39.5-4.2v-92.6l-39.5 4.2zm-0.1-104.7 39.5-4.2v-37.1l-39.5 4.2z" fill="#fff"/>
		<path d="m717.7 337.5c5.4-5.5 12.8-8.9 21.7-10.4 0 0 9.4-1.2 13.5-1.7l39.3-4.1v-37.1l-48.2 5.1c-21.8 2.3-39.9 10.2-53.7 23.5-5 4.8-9.1 10.1-12.4 15.8-3.4-5.2-7.7-9.8-12.9-13.6-13.6-10.1-31.5-14.1-53.2-11.8l-48.9 5.2 0.1 141.9 48.2-5.1c21.8-2.3 39.9-10.2 53.7-23.5 5-4.8 9.1-10.1 12.4-15.9 3.4 5.2 7.6 9.8 12.8 13.6 13.6 10.1 31.5 14.1 53.2 11.8l48.9-5.2v-69.3l-39.3 4.1v32.1l-10.2 1.1c-10.4 1.1-18.9-1-25.3-6.1-6.3-5.1-9.6-13.1-9.6-23.8v-0.4c0.1-10.6 3.4-19.5 9.9-26.2zm-70.4 33.1c0 10.7-3.3 19.6-9.8 26.3-6.1 6.2-14.5 9.9-25 11l-10.2 1.1v-67.6l10.2-1.1c10.4-1.1 18.9 1 25.3 6.1s9.6 13.1 9.6 23.9v0.3z" fill="#fff"/>
	<g fill="#ff0082">
		<path d="m631.3 509v-82.5l22.5-2.4v30.9l28.9-3v-30.9l22.5-2.4v82.5l-22.5 2.4v-31.4l-28.9 3v31.4z"/>
		<path d="m717.9 499.9v-82.5l22.7-2.4v82.5z"/>
		<path d="m774.1 494v-62.5l-24.4 2.6v-20l71.3-7.5v20l-24.4 2.6v62.5z"/>
		<path d="m861.3 486.2c-15.3 1.6-28-1.6-38.1-9.7l12.5-16.5c8.1 5.7 16.9 8.1 26.4 7.1 6.2-0.7 9.3-2.9 9.3-6.6v-0.2c0-2.3-1.8-4-5.5-5.1-1.4-0.4-4.1-0.9-8.3-1.4-10.2-1.3-17.5-3.2-21.9-5.8-5.9-3.5-8.8-9.1-8.8-16.9v-0.2c0-8.6 3.2-15.6 9.7-21.1 5.7-4.8 13-7.7 21.7-8.7 13.3-1.4 24.5 1.1 33.5 7.4l-11.3 17.3c-7.6-4.6-15.2-6.5-22.8-5.7-5.4 0.6-8.1 2.6-8.1 6.2v0.2c0 2.4 1.9 4.2 5.6 5.2 1.3 0.4 4.1 0.9 8.5 1.3 9.3 1.1 16.1 2.8 20.5 5.3 6.6 3.6 9.9 9.4 9.9 17.2v0.2c0 9-3.4 16.2-10.1 21.7-5.9 4.9-13.5 7.8-22.7 8.8z"/>
	</g>
</g>
</svg>
