<svg version="1.1" viewBox="0 0 800 268.66" xml:space="preserve" xmlns="http://www.w3.org/2000/svg">
<style type="text/css">
	.st0{fill:#DEBD00;}
</style>
<path class="st0" d="m612.3 128.48h187.22v-128.24h-187.22zm134.69-16.478h-23.403l-26.746-70.925h-16.239v70.925h-25.791v-70.925h-26.03v-24.119h87.642l0.23881 0.47761 19.104 57.075 19.343-57.552h28.179z" fill="#debd00" stroke-width="2.3881"/><g transform="scale(2.3881)" fill="#fff"><path d="m35.6 25.7c4.6-2.5 6.9-6.4 6.9-11.6v-0.1c0-4.8-1.9-8.4-5.8-10.8-3.1-2-7.1-3-11.9-3h-24.8v53.7h25c5.3 0 9.8-1.1 13.2-3.2 4.3-2.6 6.5-6.6 6.5-11.9v-0.1c0-6.2-3-10.5-9.1-13m-20.4-4.6v-8.1h6.6c5.8 0 5.8 3 5.8 3.9v0.2c0 1 0 4-6.1 4zm14.4 15.5v0.1c0 2.9-2 4.2-6.2 4.2h-8.3v-8.6h8.1c6.4 0.2 6.4 3.3 6.4 4.3"/><path d="m82.4 35.2c6.7-3.2 10.1-8.7 10.1-16.4v-0.2c0-6.3-2.2-11.1-6.4-14.3-3.8-2.8-8.9-4.2-15.1-4.2h-22v53.7h15.1v-15.9h2.8l10.2 15.9h17.6zm-5.1-15.7v0.1c0 3.8-2.3 5.6-7 5.6h-6.2v-11.1h6.1c4.8 0.1 7.1 1.6 7.1 5.4"/><polygon transform="translate(-209.4,-139.9)" points="456.6 179.7 433.5 179.7 433.5 172.9 454 172.9 454 160.3 433.5 160.3 433.5 154.1 456.2 154.1 456.2 140 418.6 140 418.6 193.8 456.6 193.8"/><path d="m96.7 53.9h15.2v-35.1h-15.2zm0-39.7h15.2v-14.1h-15.2z"/><path d="m175.9 17.4c2.1-1.9 4.9-2.9 8.3-3.1 0 0 3.6-0.1 5.2-0.1h15.2v-14.1h-18.5c-8.4 0-15.3 2.3-20.7 6.7-1.9 1.6-3.5 3.5-4.8 5.5-1.3-2.1-2.9-4-4.9-5.7-5.2-4.4-12.1-6.6-20.4-6.6h-18.8v53.7h18.5c8.4 0 15.3-2.3 20.7-6.7 1.9-1.6 3.5-3.5 4.8-5.5 1.3 2.1 2.9 4 4.9 5.7 5.2 4.4 12.1 6.6 20.4 6.6h18.8v-26.2h-15.1v12.2h-3.9c-4 0-7.3-1.1-9.7-3.3s-3.7-5.3-3.7-9.4v-0.1c0-4.1 1.2-7.4 3.7-9.6zm-27 9.7c0 4.1-1.3 7.3-3.8 9.6-2.3 2.1-5.6 3.2-9.6 3.2h-3.9v-25.6h3.9c4 0 7.3 1.1 9.7 3.3s3.7 5.4 3.7 9.4z"/><g transform="translate(-209.4,-139.9)">
		<path d="m234.2 231.4c0 3.5-1.3 6.3-3.7 8.2-2.3 1.8-5.2 2.7-8.9 2.7h-5.2v9.3h-6.9v-31.2h12.7c3.5 0 6.3 0.9 8.5 2.7 2.3 2.1 3.5 4.8 3.5 8.3zm-7 0.2c0-3.2-1.9-4.8-5.6-4.8h-5.3v9.5h5.4c1.6 0 2.8-0.4 3.8-1.2 1.2-0.9 1.7-2 1.7-3.5z"/>
		<path d="m266.8 220.6-12.1 24c-1.3 2.7-2.5 4.5-3.4 5.6-1.3 1.5-2.7 2.2-4.1 2.2-1.7 0-3.7-0.5-5.8-1.4l-0.7-5.4c0.7 0.2 1.9 0.4 3.6 0.7 1.2 0 2.2-0.6 3-1.8 0.4-0.6 1-1.7 1.7-3.3l-13-20.6h8l8.4 14.1 6.6-14.1z"/>
		<path d="m298.5 246.7c-3.5 3.7-7.7 5.6-12.8 5.6-4.6 0-8.4-1.5-11.4-4.6s-4.6-6.9-4.6-11.4v-0.1c0-4.6 1.5-8.5 4.6-11.5 3.1-3.1 7-4.6 11.6-4.6 4.9 0 9 1.6 12.3 4.8l-4.4 5c-2.6-2.3-5.2-3.5-8-3.5-2.6 0-4.8 0.9-6.5 2.8s-2.5 4.2-2.5 6.9v0.1c0 2.7 0.8 5 2.5 6.9 1.7 2 3.9 2.9 6.6 2.9 2.8 0 5.5-1.2 8.2-3.7z"/>
		<path d="m331.4 246.7c-3.5 3.7-7.7 5.6-12.8 5.6-4.6 0-8.4-1.5-11.4-4.6s-4.6-6.9-4.6-11.4v-0.1c0-4.6 1.6-8.5 4.7-11.5 3.1-3.1 7-4.6 11.6-4.6 4.9 0 9 1.6 12.3 4.8l-4.4 5c-2.6-2.3-5.2-3.5-8-3.5-2.6 0-4.8 0.9-6.5 2.8s-2.5 4.2-2.5 6.9v0.1c0 2.7 0.8 5 2.4 6.9 1.7 2 3.9 2.9 6.6 2.9 2.8 0 5.5-1.2 8.2-3.7z"/>
		<path d="m365.2 251.7h-8.2l-9.7-13.3-3.6 3.7v9.6h-6.9v-31.2h6.9v13.6l12.6-13.6h8.2l-12.6 13.2z"/>
		<path d="m397 251.7h-6.8v-19.7l-15.1 19.8h-5.8v-31.2h6.8v19.2l14.6-19.2h6.3z"/>
		<path d="m432.2 251.7h-6.8v-19.8l-15.1 19.8h-5.8v-31.2h6.8v19.1l14.6-19.1h6.3zm-7.9-37.4c-0.6 3.1-2.5 4.7-5.8 4.8-1.9 0.1-3.4-0.5-4.6-1.8-0.6-0.7-1-1.6-1.2-3l2.5-0.4c0.2 1.5 1.4 2.2 3.3 2.2 1.2 0 2-0.3 2.7-0.9 0.2-0.2 0.4-0.6 0.6-1.3z"/>
		<path d="m480.5 251.7h-8l-7-10.7-7 10.7h-7.8l10.9-15.9-10.4-15.3h8l6.6 10.1 6.6-10.1h7.8l-10.4 15.2z"/>
		<path d="m513.4 251.7h-6.8v-19.7l-15.1 19.8h-5.8v-31.2h6.8v19.2l14.6-19.2h6.3z"/>
		<path d="m544.4 226.9h-9.4v24.8h-6.9v-24.8h-9.5v-6.3h25.8z"/>
	</g></g>
</svg>
