<?xml version="1.0" encoding="UTF-8"?>
<!-- Generator: Adobe Illustrator 22.1.0, SVG Export Plug-In . SVG Version: 6.00 Build 0)  -->
<svg id="Layer_1" width="800" height="125.87" version="1.1" viewBox="0 0 800 125.87" xml:space="preserve" xmlns="http://www.w3.org/2000/svg" xmlns:cc="http://creativecommons.org/ns#" xmlns:dc="http://purl.org/dc/elements/1.1/" xmlns:rdf="http://www.w3.org/1999/02/22-rdf-syntax-ns#"><metadata id="metadata27"><rdf:RDF><cc:Work rdf:about=""><dc:format>image/svg+xml</dc:format><dc:type rdf:resource="http://purl.org/dc/dcmitype/StillImage"/><dc:title/></cc:Work></rdf:RDF></metadata>
<g id="g861" transform="matrix(9.324 0 0 9.324 -128.67 -455.01)" fill="#fff"><path id="path4" d="m22.6 55.1c1.1-0.6 1.7-1.6 1.7-2.9 0-1.2-0.5-2.1-1.4-2.7-0.8-0.5-1.8-0.7-2.9-0.7h-6.2v13.4h6.2c1.3 0 2.4-0.3 3.3-0.8 1.1-0.6 1.6-1.6 1.6-3 0-1.6-0.7-2.6-2.3-3.3m-5-1.1v-2h1.6c1.5 0 1.5 0.7 1.5 1 0 0.2 0 1-1.5 1zm3.6 3.9c0 0.7-0.5 1.1-1.5 1.1h-2.1v-2.1h2c1.6-0.1 1.6 0.7 1.6 1"/><path id="path6" d="m34.3 57.5c1.7-0.8 2.5-2.2 2.5-4.1 0-1.6-0.5-2.8-1.6-3.5-0.9-0.7-2.2-1.1-3.7-1.1h-5.5v13.4h3.8v-4h0.7l2.5 4h4.4zm-1.3-3.9c0 1-0.6 1.4-1.7 1.4h-1.5v-2.8h1.5c1.1 0.1 1.7 0.5 1.7 1.4"/><polygon id="polygon8" points="75.1 48.8 65.8 48.8 65.8 62.1 75.2 62.1 75.2 58.6 69.5 58.6 69.5 57 74.6 57 74.6 53.8 69.5 53.8 69.5 52.3 75.1 52.3"/><path id="path10" d="m37.8 62.1h3.8v-8.7h-3.8zm0-9.8h3.8v-3.5h-3.8z"/><path id="path12" d="m57.5 53.1c0.5-0.5 1.2-0.7 2.1-0.8h5.1v-3.5h-4.7c-2.1 0-3.8 0.6-5.1 1.7-0.5 0.4-0.9 0.9-1.2 1.4-0.3-0.5-0.7-1-1.2-1.4-1.3-1.1-3-1.6-5.1-1.6h-4.7v13.4h4.6c2.1 0 3.8-0.6 5.1-1.7 0.5-0.4 0.9-0.9 1.2-1.4 0.3 0.5 0.7 1 1.2 1.4 1.3 1.1 3 1.6 5.1 1.6h4.7v-6.5h-3.8v3h-1c-1 0-1.8-0.3-2.4-0.8s-0.9-1.3-0.9-2.3c0.1-1.2 0.4-2 1-2.5zm-6.7 2.4c0 1-0.3 1.8-0.9 2.4-0.6 0.5-1.4 0.8-2.4 0.8h-1v-6.4h1c1 0 1.8 0.3 2.4 0.8s0.9 1.3 0.9 2.4z"/></g><g id="g854" transform="matrix(9.324 0 0 9.324 -128.67 -455.01)" fill="#0b99ff"><path id="path14" class="st0" d="m92.8 53h-0.9v4.8h0.9c1.5 0 2.4-0.9 2.4-2.4 0-1.4-0.9-2.4-2.4-2.4"/><path id="path16" class="st0" d="m77.5 62.1h22.1v-13.3h-22.1zm10.2-1.7h-2.7v-3.7h-3.1v3.7h-2.7v-9.9h2.7v3.7h3.1v-3.7h2.7zm10.3-5c0 3-2.1 5-5.3 5h-3.6v-9.9h3.6c3.2 0 5.3 1.9 5.3 4.9z"/></g>
</svg>
