<svg width="800" height="128.68" version="1.1" viewBox="0 0 800 128.68" xml:space="preserve" xmlns="http://www.w3.org/2000/svg" xmlns:xlink="http://www.w3.org/1999/xlink">
<g transform="matrix(1.5674 0 0 1.5674 -168.65 -255.64)" fill="#fff">
		<path d="m161.8 202.1c7-3.8 10.6-9.8 10.6-17.8v-0.2c0-7.2-3-12.8-8.8-16.4-4.7-3.1-10.8-4.6-18.1-4.6h-37.9v81.9h38.1c8.1 0 14.9-1.6 20.1-4.8 6.6-4 9.9-10.1 9.9-18.2v-0.2c0.1-9.3-4.6-15.9-13.9-19.7m-31-7v-12.4h10c8.9 0 8.9 4.5 8.9 6v0.2c0 1.5 0 6.1-9.4 6.1h-9.5zm22 23.7v0.2c0 4.4-3.1 6.5-9.4 6.5h-12.6v-13h12.4c9.6-0.1 9.6 4.7 9.6 6.3"/>
		<path d="m233.2 216.6c10.2-4.9 15.4-13.3 15.4-25v-0.2c0-9.6-3.3-16.9-9.8-21.8-5.8-4.3-13.5-6.5-23-6.5h-33.5v81.9h23v-24.3h4.3l15.5 24.3h26.8zm-7.8-23.9v0.2c0 5.8-3.5 8.6-10.6 8.6h-9.5v-16.9h9.3c7.3 0 10.8 2.3 10.8 8.1"/>
		<polygon points="449.2 184.6 483.9 184.6 483.9 163.1 426.5 163.1 426.5 245.1 484.4 245.1 484.4 223.6 449.2 223.6 449.2 213.3 480.6 213.3 480.6 194.1 449.2 194"/>
		<path d="m255 245.1h23.2v-53.5h-23.2zm0-60.5h23.2v-21.4h-23.2z"/>
		<path d="m375.8 189.4c3.2-2.9 7.5-4.4 12.7-4.7 0 0 5.5-0.1 7.9-0.1h23v-21.4h-28.2c-12.8 0-23.4 3.5-31.5 10.3-2.9 2.5-5.3 5.3-7.3 8.4-2-3.2-4.5-6.1-7.5-8.6-8-6.7-18.5-10-31.2-10h-28.7v81.9h28.2c12.8 0 23.4-3.5 31.5-10.3 2.9-2.5 5.3-5.3 7.3-8.4 2 3.2 4.5 6.1 7.5 8.6 8 6.7 18.5 10 31.2 10h28.7v-40h-23v18.6h-6c-6.1 0-11.1-1.7-14.8-5.1-3.7-3.3-5.6-8.2-5.6-14.4v-0.2c0.1-6.2 2-11.1 5.8-14.6zm-41.2 14.8c0 6.2-1.9 11.1-5.8 14.6-3.6 3.2-8.5 4.8-14.7 4.8h-6v-39.1h6c6.1 0 11.1 1.7 14.8 5.1 3.7 3.3 5.6 8.2 5.6 14.4v0.2z"/>
	</g><g transform="matrix(1.5674 0 0 1.5674 -168.65 -255.64)">
		<defs>
			<path id="SVGID_1_" d="m498.4 245.1h119.6v-81.9h-119.6zm86.1-10.6h-15l-17-45.3h-10.5v45.3h-16.4v-45.3h-16.7v-15.5h55.9l0.1 0.3 12.2 36.4 12.4-36.7h17.9z"/>
		</defs>
		<clipPath id="SVGID_2_">
			<use width="100%" height="100%" xlink:href="#SVGID_1_"/>
		</clipPath>
		<g clip-path="url(#SVGID_2_)">
			<path d="m685.5 197.8c-3.8 0.5-7.5 1.6-11.2 2.8-3.4 1.1-6.8 2.2-10.2 3.2-6.9 2.2-13.8 4.5-20.7 6.8-13.8 4.6-27.6 9.2-41.5 13.6-17.7 5.7-35.5 11.4-53.2 16.9-1.4-1.1-3.4-1.4-5.5-0.9-2.9 0.7-5.9 1.6-8.8 2.5-1 0.2-2 0.5-3.1 0.9-0.7 0.2-1.3 0.5-1.9 0.8-5.4 1.9-10.8 4-16.2 6-10.3 3.8-20.7 7.3-30.9 11.5-3.1 1.3-5.3 4.2-4.9 7.4-4 3.4-7.3 7.8-4.8 12.7 0.8 1.7 3.1 3 5.1 2.7 1.6-0.3 3.3-0.5 4.9-0.8-0.3 0.3-0.6 0.7-0.8 1-0.8 0.8-1.4 1.8-1.7 2.8-0.5 1.6-0.4 3.3 0.4 4.7 1.3 2.3 4.1 3.3 6.8 2.4 6.8-2.3 13.4-5.3 20.1-8 1.4-0.6 2.8-1.1 4.1-1.7 0.4 1.2 1.3 2.2 2.4 2.8 1.5 0.8 2.9 0.7 4.6 0.3 1.1-0.2 2.1-0.5 3.2-0.7-4.8 2.8-9.7 5.4-14.8 7.4-2.4 0.6-4.7 1.2-6.9 2.4-1.3 0.7-1.9 2.3-1.6 3.6 0.4 1.7 2 2.4 3.7 1.9 2.1-0.6 4.2-1.3 6.2-2.1 1.3-0.3 2.7-0.6 4-1 3.5-0.8 6.9-1.6 10.4-2.4 6.9-1.6 13.9-3.1 20.8-4.8 14-3.4 28-7.2 41.9-11.3s27.7-8.6 41.4-13.6c5.8-2.1 11.6-4.3 17.3-6.7 3.7-0.7 7.5-1.2 11-2.7 3.7-1.6 6.9-3.8 10.2-6.1 1.2-0.8 2.1-1.9 2.6-3.1 4.5-2.8 8.8-6 12.9-9.6 1.3-1.2 1.3-3.3 0.2-4.4-1.2-1.2-3-0.9-4.4 0.3-3 2.7-6.2 5.1-9.5 7.2-1.8-1.8-5-2.3-7.4-0.5-2.4 1.7-4.8 3.4-7.3 4.7-1.2 0.5-2.5 1-3.8 1.3 3.6-1.9 7.1-3.9 10.5-6 5.4-3.4 10.7-7.3 15-12.1 2-2.3 3.9-4.7 5.4-7.3 1.4-2.3 1.2-5.1-0.3-6.9 4.2-2.3 8.2-5 11-8.9 2.9-4-0.2-9.5-4.7-9zm-174.3 66.4c-1.7 0.6-3.4 1.1-5.1 1.6 1.7-0.6 3.5-1.3 5.2-1.9 0 0.1-0.1 0.2-0.1 0.3zm91.6 5.4c-13.8 4.5-27.8 8.5-41.7 12.2-10.3 2.7-20.5 5.2-30.8 7.6 3.1-1.8 6.2-3.6 9.3-5.3l3-1.5c15.5-3.8 30.9-8.1 46.2-12.6 4.5-0.6 9-1.2 13.4-1.9 3.3-0.5 6.6-1 9.9-1.6-3.1 1-6.2 2-9.3 3.1zm61.5-45.9c-1.1 1.1-2.2 2.1-3.4 3.1-0.4 0.3-0.7 0.6-1.1 0.8-0.7 0.5-1.4 1-2 1.5-6 4.2-12.4 7.8-18.9 10.9-12.4 5.8-25.2 10.1-38.1 14.1-4.3 1.3-8.7 2.7-13.1 4-0.2 0-0.4 0-0.5 0.1-2.8 0.4-5.5 0.7-8.3 0.9 18.8-7.3 37.6-14.8 56.2-22.9 2.4-0.8 4.7-1.7 7.1-2.5 2.8-1 5.4-2.5 8.3-3.1-0.2 0-0.3 0.1-0.5 0.1 1.4-0.3 2.6-0.8 3.7-2 0.4-0.5 0.8-1 1.1-1.5 3.1-1.4 6.2-2.9 9.2-4.4 0.6-0.3 1.2-0.6 1.8-0.8-0.4 0.6-0.9 1.1-1.5 1.7z" fill="#0098ff"/>
			<path d="m701.1 193.7c-3.9 1.9-7.9 3.4-12 4.8-3.7 1.2-7.5 2.6-11.2 3.9-7.6 2.6-15.2 5.2-22.8 7.7-15.3 5.1-30.5 10.2-45.8 15.4-19.5 6.7-39 13.4-58.5 20.3-0.9 1.6-2.8 3.1-5 3.9-3.2 1.3-6.3 2.4-9.5 3.5-1.1 0.4-2.2 0.9-3.3 1.2l-2.1 0.6c-6 1.9-12.1 3.7-18.2 5.6-11.5 3.5-23 7.3-34.6 10.5-3.5 1-6.8 0.2-7.7-2.2-5.2 0-10.2-1.1-9.8-5.9 0.1-1.7 1.8-4 3.9-5l5.1-2.4c-0.4-0.1-0.8-0.1-1.2-0.2-1.1-0.1-2-0.4-2.8-0.9-1.2-0.8-1.7-2.1-1.5-3.5 0.3-2.3 2.7-4.7 5.6-5.7 7.5-2.5 15.1-4.4 22.7-6.5 1.6-0.4 3.1-0.9 4.7-1.3-0.1-1.1 0.4-2.3 1.2-3.4 1.1-1.4 2.6-2.2 4.3-3 1.1-0.5 2.3-1 3.4-1.4-5.8 1-11.6 2.1-17.4 3.8-2.5 1-5 2-7.7 2.5-1.5 0.3-2.8-0.5-3-1.5-0.3-1.4 1-2.9 2.8-3.5 2.3-0.9 4.6-1.6 6.8-2.3 1.4-0.6 2.9-1.2 4.3-1.7 3.7-1.5 7.4-3 11.1-4.6 7.4-3.1 14.7-6.2 22.1-9.2 15-6.1 30.1-11.8 45.3-17.4 15.1-5.5 30.4-10.7 45.7-15.4 6.5-2 13-3.9 19.5-5.7 3.9-1.8 7.7-3.7 11.8-4.7 4.2-1.1 8.2-1.5 12.3-1.9 1.5-0.1 2.8 0.1 3.8 0.6 5.5-0.7 11-1.1 16.3-1 1.8 0 2.6 1.6 1.9 2.9-0.7 1.5-2.6 2.4-4.4 2.4-4 0-8.1 0.2-12.2 0.7-1 2.3-3.9 4.6-7 4.8-3 0.2-6 0.5-9 1.1-1.4 0.4-2.8 0.8-4.2 1.4 4.2-0.9 8.4-1.6 12.6-2.1 6.6-0.9 13.8-4.1 19.9-3.3 2.9 0.4 13.2-1.9 15.7-1 2.3 0.8 10.5 5.1 9.7 7.2 2.5-0.5-18.4 6-19.7 7.7s16.5-5.2 18.7-4.7c4.8 0.8 3.9 6.6-0.6 8.9zm-196 58.6c-1.9 0.6-3.8 1.3-5.6 2 1.9-0.6 3.9-1.2 5.8-1.8 0-0.1-0.1-0.2-0.2-0.2zm87-59.1c-15.2 5.2-30.4 10.8-45.4 16.6-11.1 4.3-22.1 8.7-33 13.2 3.7-0.6 7.4-1.2 11.1-1.9 1.2-0.2 2.3-0.5 3.5-0.7 16.6-6.6 33.2-12.9 50-19 4.6-2.3 9.2-4.5 13.8-6.7 3.4-1.6 6.8-3.3 10.3-4.9-3.5 1.1-6.9 2.3-10.3 3.4zm78.1-4.9c-1.5-0.1-3-0.1-4.5-0.1-0.5 0-0.9 0-1.4 0.1-0.9 0-1.7 0.1-2.6 0.2-7.5 0.7-15.2 2-22.8 3.8-14.4 3.4-28.6 8.1-42.7 13.1-4.8 1.7-9.5 3.4-14.3 5.1l-0.6 0.3c-2.8 1.4-5.6 2.9-8.4 4.3 21.2-6.3 42.5-12.3 63.8-17.8 2.6-0.8 5.3-1.7 7.9-2.5 3.1-1 6.3-1.6 9.3-2.9-0.2 0.1-0.3 0.1-0.5 0.2 1.5-0.6 2.8-1 4.4-0.9 0.6 0.1 1.2 0.2 1.7 0.4 3.6-0.8 7.2-1.7 10.7-2.5 0.7-0.2 1.4-0.3 2.1-0.5-0.6-0.1-1.3-0.2-2.1-0.3z" fill="#ff0082"/>
			<path d="m650.6 140.2c-3.6 0.5-7.1 1.6-10.7 2.8-3.2 1.1-6.5 2.1-9.7 3.1-6.6 2.1-13.2 4.3-19.8 6.5-13.2 4.4-26.4 8.8-39.7 13.1-17 5.5-33.9 10.9-50.9 16.2-1.3-0.9-3.3-1.1-5.2-0.6-2.8 0.7-5.6 1.5-8.4 2.4-1 0.2-2 0.5-2.9 0.9-0.6 0.2-1.2 0.5-1.8 0.7-5.2 1.8-10.4 3.8-15.5 5.7-9.8 3.6-19.8 7-29.6 10.9-3 1.2-5.1 3.8-4.8 6.5-3.9 3-7.1 6.9-4.9 11.1 0.8 1.4 2.9 2.5 4.8 2.2 1.6-0.3 3.1-0.6 4.7-0.9-0.3 0.3-0.5 0.6-0.8 0.9-0.8 0.7-1.3 1.6-1.7 2.5-0.5 1.4-0.4 2.9 0.3 4.1 1.2 1.9 3.8 2.7 6.4 1.8 6.5-2.2 12.8-5 19.2-7.5 1.3-0.5 2.7-1 4-1.6 0.4 1 1.2 1.9 2.2 2.3 1.4 0.6 2.7 0.5 4.3 0.1 1-0.2 2-0.5 3.1-0.7-4.7 2.5-9.3 4.9-14.3 6.8-2.3 0.6-4.5 1.2-6.6 2.3-1.2 0.6-1.8 2.1-1.6 3.1 0.3 1.4 1.9 2 3.4 1.6 2-0.6 4-1.2 5.9-2 1.3-0.3 2.6-0.6 3.8-1 3.3-0.8 6.6-1.6 9.9-2.4 6.6-1.6 13.2-3.1 19.9-4.8 13.4-3.4 26.8-7.1 40.1-11 13.3-4 26.5-8.3 39.6-13.1 5.5-2 11.1-4.1 16.6-6.4 3.5-0.7 7.1-1.2 10.5-2.7 3.5-1.5 6.7-3.5 9.8-5.6 1.1-0.8 2-1.7 2.6-2.8 4.4-2.6 8.5-5.5 12.4-8.7 1.3-1.1 1.3-2.9 0.3-3.8-1.1-1-2.9-0.6-4.2 0.4-2.9 2.4-6 4.6-9.2 6.6-1.7-1.5-4.7-1.8-7-0.2s-4.6 3.1-7.1 4.3c-1.2 0.5-2.4 0.9-3.6 1.2 3.4-1.7 6.8-3.6 10.1-5.5 5.2-3.1 10.3-6.6 14.5-10.9 2-2 3.8-4.2 5.3-6.5 1.4-2.1 1.3-4.5-0.1-6 4-2.1 7.9-4.6 10.6-8 2.9-3.3 0.1-8.1-4.2-7.4zm-167 62.7c-1.6 0.5-3.3 1-4.9 1.6 1.7-0.6 3.3-1.2 5-1.8 0 0 0 0.1-0.1 0.2zm87 1.9c-13.2 4.3-26.5 8.2-39.9 11.8-9.8 2.7-19.6 5.1-29.5 7.5 3-1.6 6-3.3 8.9-4.8 1-0.5 1.9-1 2.9-1.4 14.8-3.8 29.5-7.9 44.2-12.3 4.3-0.7 8.5-1.3 12.8-2.1 3.2-0.5 6.3-1.1 9.4-1.7-2.8 1.1-5.8 2.1-8.8 3zm59.4-41.6c-1 1-2.1 1.9-3.3 2.8-0.3 0.3-0.7 0.5-1.1 0.8-0.6 0.5-1.3 0.9-2 1.3-5.8 3.8-12 7.1-18.2 10-11.9 5.4-24.2 9.5-36.5 13.4-4.2 1.3-8.3 2.6-12.5 3.8-0.2 0-0.3 0.1-0.5 0.1-2.6 0.4-5.2 0.7-7.9 1.1 18.1-6.8 36.1-13.9 53.9-21.6 2.3-0.8 4.5-1.6 6.8-2.4 2.7-0.9 5.2-2.3 8-2.9-0.1 0-0.3 0.1-0.4 0.1 1.3-0.3 2.5-0.8 3.6-1.8 0.4-0.4 0.8-0.9 1.1-1.3 3-1.3 5.9-2.7 8.9-4.1 0.6-0.3 1.2-0.5 1.7-0.8-0.6 0.5-1.1 1-1.6 1.5z" fill="#ffdb00"/>
			<path d="m449.4 210.6c4.2-0.6 8.3-1.8 12.4-3.2 3.8-1.3 7.5-2.4 11.3-3.6 7.7-2.4 15.3-5 23-7.5 15.4-5.1 30.7-10.2 46.1-15.2 19.7-6.4 39.4-12.7 59.2-18.9 1.5 1.1 3.8 1.3 6.1 0.7 3.3-0.8 6.5-1.8 9.7-2.8 1.1-0.3 2.3-0.6 3.4-1 0.7-0.3 1.4-0.5 2.1-0.8 6-2.1 12-4.4 18.1-6.6 11.4-4.2 23-8.1 34.3-12.7 3.4-1.4 5.9-4.4 5.5-7.6 4.5-3.5 8.2-8.1 5.6-12.9-0.9-1.7-3.3-2.9-5.6-2.5-1.8 0.3-3.6 0.6-5.4 1 0.3-0.3 0.6-0.7 0.9-1 0.9-0.9 1.5-1.8 2-2.9 0.6-1.7 0.5-3.4-0.3-4.7-1.3-2.2-4.4-3.1-7.4-2.1-7.6 2.5-14.9 5.8-22.3 8.7-1.5 0.6-3.1 1.2-4.6 1.8-0.5-1.2-1.4-2.2-2.6-2.7-1.6-0.7-3.2-0.6-5-0.1-1.2 0.3-2.4 0.5-3.6 0.8 5.4-2.9 10.9-5.7 16.6-7.9 2.6-0.7 5.2-1.4 7.7-2.7 1.4-0.7 2.1-2.4 1.9-3.6-0.4-1.7-2.2-2.3-4-1.8-2.3 0.7-4.6 1.4-6.9 2.3-1.5 0.4-3 0.7-4.5 1.1-3.8 1-7.7 1.9-11.5 2.8-7.7 1.8-15.4 3.7-23.1 5.6-15.6 3.9-31.1 8.2-46.6 12.8-15.4 4.6-30.8 9.6-46 15.2-6.4 2.4-12.9 4.8-19.3 7.4-4.1 0.8-8.3 1.4-12.2 3.1-4.1 1.7-7.7 4-11.4 6.5-1.3 0.9-2.3 2-3 3.2-5.1 3-9.9 6.4-14.4 10.1-1.5 1.2-1.5 3.4-0.3 4.4 1.3 1.1 3.3 0.8 4.8-0.5 3.4-2.8 7-5.3 10.7-7.6 1.9 1.7 5.4 2.1 8.1 0.3s5.3-3.6 8.2-5c1.4-0.6 2.8-1.1 4.2-1.4-4 2-7.9 4.1-11.8 6.4-6 3.6-12 7.7-16.8 12.7-2.3 2.4-4.4 4.9-6.2 7.6-1.6 2.4-1.5 5.2 0.1 6.9-4.6 2.4-9.1 5.3-12.3 9.3-3.2 3.8 0.1 9.4 5.1 8.6zm194-72.8 5.7-1.8c-1.9 0.7-3.9 1.4-5.8 2.1 0-0.2 0-0.2 0.1-0.3zm-101.1-2.3c15.4-5 30.8-9.5 46.3-13.7 11.4-3.1 22.8-6 34.2-8.8-3.5 1.9-6.9 3.8-10.4 5.6-1.1 0.6-2.2 1.1-3.3 1.7-17.2 4.4-34.3 9.2-51.3 14.3-5 0.8-9.9 1.6-14.9 2.4-3.7 0.6-7.3 1.3-11 1.9 3.5-1.1 6.9-2.3 10.4-3.4zm-69 48.4c1.2-1.1 2.5-2.2 3.8-3.2l1.2-0.9c0.8-0.5 1.5-1 2.3-1.6 6.7-4.4 13.9-8.3 21.2-11.7 13.8-6.3 28.1-11.1 42.4-15.5 4.8-1.5 9.7-3 14.5-4.4 0.2 0 0.4-0.1 0.6-0.1 3-0.5 6.1-0.8 9.1-1.2-21 8-41.9 16.2-62.6 25-2.6 0.9-5.3 1.9-7.9 2.8-3.1 1.1-6.1 2.7-9.2 3.4 0.2 0 0.3-0.1 0.5-0.1-1.5 0.4-2.9 0.9-4.2 2.1-0.5 0.5-0.9 1-1.3 1.5-3.4 1.6-6.9 3.2-10.3 4.8-0.7 0.3-1.3 0.6-2 0.9 0.7-0.7 1.3-1.3 1.9-1.8z" fill="#ff4800"/>
		</g>
	</g>
</svg>
