<?xml version="1.0" encoding="UTF-8"?>
<!-- Generator: Adobe Illustrator 16.0.0, SVG Export Plug-In . SVG Version: 6.00 Build 0)  -->
<svg id="Layer_1" width="85.758" height="19.57" enable-background="new 0 0 113.39 113.39" version="1.1" viewBox="0 0 85.758 19.57" xml:space="preserve" xmlns="http://www.w3.org/2000/svg" xmlns:cc="http://creativecommons.org/ns#" xmlns:dc="http://purl.org/dc/elements/1.1/" xmlns:rdf="http://www.w3.org/1999/02/22-rdf-syntax-ns#"><metadata id="metadata32"><rdf:RDF><cc:Work rdf:about=""><dc:format>image/svg+xml</dc:format><dc:type rdf:resource="http://purl.org/dc/dcmitype/StillImage"/><dc:title/></cc:Work></rdf:RDF></metadata><g id="g25" transform="translate(-13.816,-48.782)"><g id="g16"><path id="path2" d="m22.638 55.145c1.144-0.619 1.723-1.592 1.723-2.895v-0.039c0-1.181-0.481-2.082-1.429-2.679-0.772-0.497-1.764-0.749-2.946-0.749h-6.17v13.357h6.207c1.323 0 2.428-0.264 3.283-0.785 1.07-0.646 1.612-1.643 1.612-2.961v-0.037c0-1.517-0.767-2.595-2.28-3.212m-5.066-1.151v-2.016h1.634c1.452 0 1.452 0.738 1.452 0.98v0.037c0 0.246 0 0.998-1.524 0.998h-1.562zm3.59 3.859v0.036c0 0.71-0.501 1.055-1.535 1.055h-2.055v-2.127h2.019c1.571-1e-3 1.571 0.78 1.571 1.036" fill="#fff"/><path id="path4" d="m34.271 57.498c1.667-0.791 2.512-2.162 2.512-4.074v-0.038c0-1.56-0.539-2.753-1.602-3.55-0.941-0.699-2.201-1.054-3.743-1.054h-5.461v13.358h3.757v-3.959h0.697l2.533 3.959h4.364zm-1.263-3.894v0.037c0 0.941-0.566 1.4-1.732 1.4h-1.542v-2.763h1.524c1.178 0 1.75 0.382 1.75 1.326" fill="#fff"/><path id="polygon6" d="m74.598 56.966v-3.14l-5.107-2e-3v-1.546h5.648v-3.495h-9.351v13.358h9.44v-3.496h-5.737v-1.678z" fill="#fff"/><path id="path8" d="m37.818 62.141h3.774v-8.718h-3.774zm0-9.862h3.774v-3.496h-3.774z" fill="#fff"/><path id="path10" d="m57.523 53.066c0.518-0.465 1.221-0.715 2.073-0.766 0 0 0.899-0.021 1.29-0.021h3.757v-3.496h-4.603c-2.082 0-3.81 0.563-5.134 1.675-0.477 0.403-0.867 0.864-1.188 1.371-0.325-0.526-0.73-0.999-1.227-1.409-1.3-1.086-3.008-1.637-5.079-1.637h-4.674v13.357h4.603c2.082 0 3.809-0.563 5.134-1.675 0.477-0.403 0.867-0.864 1.188-1.371 0.325 0.526 0.73 0.999 1.226 1.409 1.301 1.086 3.01 1.637 5.08 1.637h4.675v-6.523h-3.757v3.028h-0.973c-0.991 0-1.805-0.278-2.418-0.825-0.605-0.542-0.912-1.33-0.912-2.34v-0.038c0-1.01 0.316-1.809 0.939-2.376zm-6.725 2.414c0 1.012-0.317 1.811-0.941 2.377-0.582 0.523-1.386 0.787-2.391 0.787h-0.972v-6.366h0.972c0.991 0 1.806 0.278 2.417 0.825 0.606 0.542 0.914 1.329 0.914 2.339v0.038z" fill="#fff"/><path id="path12" d="m92.787 53.042h-0.949v4.826h0.949c1.533 0 2.445-0.896 2.445-2.394v-0.027c0-1.483-0.936-2.405-2.445-2.405" fill="#f40000"/><path id="path14" d="m77.51 62.135h22.064v-13.346h-22.064zm10.191-1.706h-2.686v-3.714h-3.082v3.714h-2.686v-9.935h2.686v3.658h3.082v-3.658h2.686zm10.269-4.995c0 2.988-2.113 4.995-5.261 4.995h-3.556v-9.935h3.608c3.164 0 5.208 1.928 5.208 4.911v0.029z" fill="#f40000"/></g><g id="g23"><rect id="XMLID_104_" x="83.709" y="64.312" width="15.662" height="4.04" fill="#0098ff"/><rect id="XMLID_103_" x="66.31" y="64.312" width="15.661" height="4.04" fill="#debd00"/><rect id="XMLID_102_" x="48.91" y="64.312" width="15.662" height="4.04" fill="#ff4800"/><rect id="XMLID_101_" x="31.51" y="64.312" width="15.662" height="4.04" fill="#f40000"/><rect id="XMLID_100_" x="14.111" y="64.312" width="15.661" height="4.04" fill="#ff0082"/></g></g></svg>
