<svg width="800" height="225.29" version="1.1" viewBox="0 0 800 225.29" xml:space="preserve" xmlns="http://www.w3.org/2000/svg"><g transform="matrix(1.3333 0 0 -1.3333 1.1879e-6 225.29)"><g transform="matrix(0 -2.6143 2.6143 0 560.66 84.972)"><path d="m0 0v-6.746l-20.377-7.666v-4.695h20.377v-7.393h-20.377v-7.494h-6.974v25.161l0.151 0.049 16.379 5.48-16.53 5.57v8.058zm4.74 15.047h-36.823v-53.758h36.823z" fill="#488ecb"/></g><g transform="matrix(0 -2.6143 2.6143 0 52.988 103.53)"><path d="m0 0h0.102c1.959 0 2.91-1.383 2.91-4.233v-5.671h-5.869v5.57c0 4.334 2.153 4.334 2.857 4.334m-10.647-9.904h-5.56v4.509c0 4.006 2.035 4.006 2.703 4.006h0.104c0.68 0 2.753 0 2.753-4.205zm3.176 13.979c-1.711 3.157-4.395 4.754-7.991 4.754h-0.103c-3.258 0-5.746-1.328-7.391-3.942-1.375-2.133-2.07-4.867-2.07-8.129v-17.027h36.857v17.128c0 3.65-0.727 6.702-2.167 9.06-1.783 2.951-4.531 4.446-8.17 4.446h-0.102c-4.184 0-7.165-2.114-8.863-6.29"/></g><g transform="matrix(0 -2.6143 2.6143 0 138.44 134.18)"><path d="m0 0h0.102c2.6 0 3.863-1.562 3.863-4.777v-4.257h-7.622v4.205c0 3.25 1.056 4.829 3.657 4.829m10.746 3.485c-2.183 4.601-5.965 6.933-11.243 6.933h-0.102c-4.303 0-7.599-1.488-9.797-4.422-1.927-2.597-2.909-6.073-2.909-10.327v-15.07h36.861v10.367h-10.925v1.923l10.925 6.989v12.042z"/></g><g transform="matrix(0 -2.6143 2.6143 0 401.62 97.816)"><path d="m0 0h-4.632v14.092h-8.667l-5e-3 -14.092h-4.264v15.583h-9.645v-25.8h36.858v26.044h-9.645z"/></g><path d="m200.37 143.74v25.214h-27.23v-25.214zm0-71.142v62.881h-27.23v-62.881z"/><g transform="matrix(0 -2.6143 2.6143 0 266.77 120.65)"><path d="m0 0c2.789 0 4.996-0.874 6.562-2.596 1.442-1.606 2.171-3.824 2.171-6.595v-2.684h-17.568v2.684c0 2.734 0.768 4.982 2.277 6.67 1.498 1.672 3.67 2.521 6.455 2.521zm-6.66 18.559c-1.283 1.43-1.971 3.367-2.112 5.722 0 0-0.063 2.481-0.063 3.559v10.367h-9.644v-12.704c0-5.745 1.551-10.51 4.625-14.165 1.109-1.316 2.38-2.394 3.782-3.279-1.456-0.899-2.76-2.016-3.888-3.385-3-3.587-4.519-8.301-4.519-14.014v-12.897h36.857v12.698c0 5.746-1.553 10.512-4.623 14.167-1.11 1.314-2.383 2.396-3.78 3.28 1.451 0.896 2.754 2.015 3.887 3.381 2.996 3.59 4.516 8.305 4.516 14.016v12.902h-18v-10.367h8.355v-2.684c0-2.737-0.767-4.979-2.277-6.671-1.495-1.672-3.667-2.52-6.456-2.52h-0.103c-2.792 0-4.995 0.876-6.557 2.594"/></g><g transform="matrix(0 -2.6143 2.6143 0 39.682 28.75)"><path d="m0 0h-0.062c-1.921 0-3.479-0.599-4.673-1.792-1.194-1.196-1.792-2.753-1.792-4.672v-3.645h12.928v3.645c0 1.919-0.586 3.476-1.762 4.672-1.173 1.193-2.721 1.792-4.639 1.792m-0.062 4.932c3.206 0 5.81-1.114 7.812-3.338 1.939-2.146 2.91-4.829 2.91-8.058v-8.363h-21.447v8.363c0 3.229 0.961 5.912 2.881 8.058 2.002 2.224 4.596 3.338 7.782 3.338z"/></g><g transform="matrix(0 -2.6143 2.6143 0 104.23 .88152)"><path d="m0 0v-16.327h-21.447v16.175h4.197v-11.52h4.352v10.142h4.197v-10.142h4.506v11.672z"/></g><g transform="matrix(0 -2.6143 2.6143 0 154.7 .88152)"><path d="m0 0v-15.41h-21.447v4.719h17.188v10.691z"/></g><g transform="matrix(0 -2.6143 2.6143 0 211.16 25.309)"><path d="m0 0c3.084 0 5.452-0.795 7.107-2.388 1.715-1.615 2.574-3.953 2.574-7.016 0-3.003-0.831-5.302-2.496-6.893-1.665-1.592-4.01-2.39-7.034-2.39h-12.255v4.718h12.134c1.615 0 2.881 0.355 3.8 1.073 1 0.794 1.5 1.979 1.5 3.554 0 3.082-1.717 4.627-5.145 4.627h-12.289v4.715z"/></g><g transform="matrix(0 -2.6143 2.6143 0 272.35 .88152)"><path d="m0 0v-5.486l-7.387-4.85 7.387-4.842v-5.349l-10.906 7.477-10.541-7.171v5.522l6.957 4.51-6.957 4.539v5.343l10.479-7.167z"/></g><g transform="matrix(0 -2.6143 2.6143 0 323.45 .88152)"><path d="m0 0v-16.329h-21.447v16.176h4.197v-11.52h4.352v10.143h4.197v-10.143h4.506v11.673z"/></g></g></svg>
