<svg id="a" version="1.1" viewBox="0 0 800 253.85" xml:space="preserve" xmlns="http://www.w3.org/2000/svg">
<style id="b" type="text/css">
	.st0{fill:#FF0082;}
</style>
<path id="c" class="st0" d="m612.5 128.85h187.5v-127.88h-187.5zm134.62-16.346h-23.077l-26.923-71.154h-16.346v71.154h-25.962v-71.154h-25.962v-24.038h87.5v0.96154l19.231 56.731 19.231-57.692h27.885z" fill="#ff0082" stroke-width="9.6154"/><g id="d" fill="#fff"><path id="e" d="m84.615 61.538c10.577-5.7692 16.346-15.385 16.346-27.885 0-11.538-4.8077-20.192-13.462-25.962-7.6923-4.8077-17.308-6.7308-27.885-6.7308h-59.615v128.85h59.615c12.5 0 23.077-2.8846 31.731-7.6923 10.577-5.7692 15.385-15.385 15.385-28.846 0-15.385-7.6923-25.962-22.115-31.731m-48.077-10.577v-19.231h15.385c14.423 0 14.423 6.7308 14.423 9.6154 0 1.9231 0 9.6154-14.423 9.6154zm34.615 36.538c0 6.7308-4.8077 10.577-14.423 10.577h-20.192v-20.192h19.231c15.385 0 15.385 7.6923 15.385 9.6154" stroke-width="9.6154"/><path id="f" d="m197.12 84.615c16.346-7.6923 24.038-21.154 24.038-39.423 0-15.385-4.8077-26.923-15.385-33.654-8.6538-6.7308-21.154-10.577-35.577-10.577h-52.885v128.85h35.577v-38.462h6.7308l24.038 38.462h42.308zm-12.5-37.5c0 9.6154-5.7692 13.462-16.346 13.462h-15.385v-25.962h14.423c11.538 0 17.308 2.8846 17.308 12.5" stroke-width="9.6154"/><polygon id="g" transform="matrix(9.6154 0 0 9.6154 -145.19 -455.77)" points="70.8 51 76.4 51 76.4 47.5 67.1 47.5 67.1 60.8 76.5 60.8 76.5 57.3 70.8 57.3 70.8 55.6 75.9 55.6 75.9 52.5 70.8 52.5"/><path id="h" d="m230.77 128.85h36.538v-83.654h-36.538zm0-94.231h36.538v-33.654h-36.538z" stroke-width="9.6154"/><path id="i" d="m420.19 41.346c4.8077-4.8077 11.538-6.7308 20.192-7.6923h49.038v-33.654h-44.231c-20.192 0-36.538 5.7692-49.038 16.346-4.8077 3.8462-8.6538 8.6538-11.538 13.462-2.8846-4.8077-6.7308-9.6154-11.538-13.462-12.5-10.577-28.846-15.385-49.038-15.385h-46.154v128.85h44.231c20.192 0 36.538-5.7692 49.038-16.346 4.8077-3.8462 8.6538-8.6538 11.538-13.462 2.8846 4.8077 6.7308 9.6154 11.538 13.462 12.5 10.577 28.846 15.385 49.038 15.385h45.192v-62.5h-36.538v28.846h-9.6154c-9.6154 0-17.308-2.8846-23.077-7.6923s-8.6538-12.5-8.6538-22.115c0.96154-10.577 3.8462-18.269 9.6154-24.038zm-64.423 24.038c0 9.6154-2.8846 17.308-8.6538 23.077-5.7692 4.8077-13.462 7.6923-23.077 7.6923h-9.6154v-61.538h9.6154c9.6154 0 17.308 2.8846 23.077 7.6923 5.7692 4.8077 8.6538 12.5 8.6538 23.077z" stroke-width="9.6154"/><g id="j" transform="matrix(9.6154 0 0 9.6154 -145.19 -455.77)">
		<path id="k" d="m43.9 69.8c0 1.2-0.4 2.1-1.2 2.8s-1.7 1-2.9 1h-3v-7.6h3c1.2 0 2.1 0.3 2.9 1s1.2 1.7 1.2 2.8zm-1.7 0c0-0.7-0.2-1.3-0.6-1.7s-1-0.6-1.7-0.6h-1.3v4.7h1.3c0.7 0 1.3-0.2 1.7-0.6 0.4-0.5 0.6-1.1 0.6-1.8z"/>
		<path id="l" d="m53 73.7h-1.8l-0.7-1.7h-3.3l-0.7 1.7h-1.7l3.3-7.8h1.6zm-3.1-3.3-1-2.5-1 2.5z"/>
		<path id="m" d="m61 73.7h-1.4l-3.8-4.9v4.9h-1.7v-7.7h1.6l3.6 4.8v-4.8h1.7z"/>
		<path id="n" d="m69.7 72.4c-0.9 0.9-1.9 1.4-3.2 1.4-1.1 0-2.1-0.4-2.8-1.1-0.8-0.8-1.1-1.7-1.1-2.8s0.4-2.1 1.2-2.9 1.7-1.1 2.9-1.1 2.2 0.4 3 1.2l-1.1 1.2c-0.6-0.6-1.3-0.9-2-0.9s-1.2 0.2-1.6 0.7-0.6 1-0.6 1.7 0.2 1.2 0.6 1.7 1 0.7 1.6 0.7c0.7 0 1.4-0.3 2-0.9z"/>
		<path id="o" d="m76.9 73.7h-5.9v-7.7h5.8v1.5h-4.1v1.5h3.7v1.5h-3.7v1.6h4.2z"/>
	</g></g>
</svg>
