<svg id="a" version="1.1" viewBox="0 0 800 129.81" xml:space="preserve" xmlns="http://www.w3.org/2000/svg">
<path id="b" class="st0" d="m612.5 128.85h187.5v-127.88h-187.5zm134.62-16.346h-23.077l-26.923-71.154h-16.346v71.154h-25.962v-71.154h-25.962v-24.038h87.5v0.96154l19.231 56.731 19.231-57.692h27.885z" fill="#f47a20" stroke-width="9.6154"/><g id="c" fill="#fff"><path id="d" d="m84.615 61.538c10.577-5.7692 16.346-15.385 16.346-27.885 0-11.538-4.8077-20.192-13.462-25.962-7.6923-4.8077-17.308-7.6923-27.885-7.6923h-59.615v128.85h59.615c12.5 0 23.077-2.8846 31.731-7.6923 10.577-5.7692 15.385-15.385 15.385-28.846 0-14.423-7.6923-25-22.115-30.769m-48.077-10.577v-19.231h15.385c14.423 0 14.423 6.7308 14.423 9.6154 0 1.9231 0 9.6154-14.423 9.6154zm34.615 36.538c0 6.7308-4.8077 10.577-14.423 10.577h-20.192v-20.192h19.231c15.385 0 15.385 7.6923 15.385 9.6154" stroke-width="9.6154"/><path id="e" d="m197.12 84.615c16.346-7.6923 24.038-21.154 24.038-39.423 0-15.385-4.8077-26.923-15.385-33.654-8.6538-6.7308-21.154-10.577-35.577-10.577h-52.885v128.85h35.577v-38.462h6.7308l24.038 38.462h42.308zm-12.5-37.5c0 9.6154-5.7692 13.462-16.346 13.462h-15.385v-26.923h14.423c11.538 0.96154 17.308 3.8462 17.308 13.462" stroke-width="9.6154"/><polygon id="f" transform="matrix(9.6154 0 0 9.6154 -145.19 -439.42)" points="76.5 55.6 70.8 55.6 70.8 54 75.9 53.9 75.9 50.8 70.8 50.8 70.8 49.3 76.4 49.3 76.4 45.8 67.1 45.8 67.1 59.1 76.5 59.1"/><path id="g" d="m230.77 128.85h36.538v-83.654h-36.538zm0-94.231h36.538v-33.654h-36.538z" stroke-width="9.6154"/><path id="h" d="m420.19 41.346c4.8077-4.8077 11.538-6.7308 20.192-7.6923h49.038v-33.654h-44.231c-20.192 0-36.538 5.7692-49.038 16.346-4.8077 3.8462-8.6538 8.6538-11.538 13.462-2.8846-4.8077-6.7308-9.6154-11.538-13.462-12.5-10.577-28.846-15.385-49.038-15.385h-46.154v128.85h44.231c20.192 0 36.538-5.7692 49.038-16.346 4.8077-3.8462 8.6538-8.6538 11.538-13.462 2.8846 4.8077 6.7308 9.6154 11.538 13.462 12.5 10.577 28.846 15.385 49.038 15.385h45.192v-62.5h-36.538v28.846h-9.6154c-9.6154 0-17.308-2.8846-23.077-7.6923s-8.6538-12.5-8.6538-22.115c0.96154-10.577 3.8462-18.269 9.6154-24.038zm-64.423 24.038c0 9.6154-2.8846 17.308-8.6538 23.077-5.7692 4.8077-13.462 7.6923-23.077 7.6923h-9.6154v-61.538h9.6154c9.6154 0 17.308 2.8846 23.077 7.6923 5.7692 4.8077 8.6538 12.5 8.6538 23.077z" stroke-width="9.6154"/></g>
</svg>
