<?xml version="1.0" encoding="UTF-8"?>
<!-- Generator: Adobe Illustrator 19.0.0, SVG Export Plug-In . SVG Version: 6.00 Build 0)  -->
<svg id="Layer_2" width="255.1" height="59.7" version="1.1" viewBox="0 -.2 255.1 59.7" xml:space="preserve" xmlns="http://www.w3.org/2000/svg" xmlns:cc="http://creativecommons.org/ns#" xmlns:dc="http://purl.org/dc/elements/1.1/" xmlns:rdf="http://www.w3.org/1999/02/22-rdf-syntax-ns#"><metadata id="metadata23"><rdf:RDF><cc:Work rdf:about=""><dc:format>image/svg+xml</dc:format><dc:type rdf:resource="http://purl.org/dc/dcmitype/StillImage"/><dc:title/></cc:Work></rdf:RDF></metadata><style id="style2" type="text/css">
	.st0{fill:#FFFFFF;}
	.st1{fill:#FF4800;}
	.st2{fill:#0098FF;}
	.st3{fill:#FFDB00;}
	.st4{fill:#F40000;}
	.st5{fill:#FF0082;}
</style><g id="g4524"><path id="XMLID_44_" class="st0" d="m27.2 19.3c3.5-1.9 5.3-4.9 5.3-8.9v-0.1c0-3.6-1.5-6.4-4.4-8.2-2.4-1.5-5.4-2.3-9-2.3h-19v40.9h19c4.1 0 7.4-0.8 10.1-2.4 3.3-2 4.9-5 4.9-9.1v-0.1c0.1-4.6-2.3-7.9-6.9-9.8m-15.6-3.5v-6.2h5c4.5 0 4.5 2.3 4.5 3v0.1c0 0.8 0 3.1-4.7 3.1zm11 11.8v0.1c0 2.2-1.5 3.2-4.7 3.2h-6.3v-6.5h6.2c4.8 0 4.8 2.4 4.8 3.2"/><path id="XMLID_39_" class="st0" d="m62.8 26.5c5.1-2.4 7.7-6.6 7.7-12.5v-0.1c0-4.8-1.7-8.4-4.9-10.9-2.9-2.1-6.7-3.2-11.5-3.2h-16.7v40.9h11.5v-12.1h2.1l7.8 12.1h13.4zm-3.8-11.9v0.1c0 2.9-1.7 4.3-5.3 4.3h-4.7v-8.5h4.7c3.5 0 5.3 1.2 5.3 4.1"/><polygon id="XMLID_7_" class="st0" transform="translate(-43.3 -149.5)" points="231.4 160 231.4 149.3 202.7 149.3 202.7 190.3 231.7 190.3 231.7 179.5 214.1 179.5 214.1 174.4 229.7 174.4 229.7 164.8 214.1 164.8 214.1 160"/><path id="XMLID_32_" class="st0" d="m73.7 40.8h11.6v-26.7h-11.6zm0-30.3h11.6v-10.7h-11.6z"/><path id="XMLID_29_" class="st0" d="m134.1 12.9c1.6-1.4 3.7-2.2 6.4-2.3 0 0 2.8-0.1 4-0.1h11.5v-10.7h-14.1c-6.4 0-11.7 1.7-15.7 5.1-1.5 1.2-2.7 2.6-3.6 4.2-1-1.6-2.2-3.1-3.8-4.3-4-3.3-9.2-5-15.6-5h-14.3v40.9h14.1c6.4 0 11.7-1.7 15.7-5.1 1.5-1.2 2.7-2.6 3.6-4.2 1 1.6 2.2 3.1 3.8 4.3 4 3.3 9.2 5 15.6 5h14.3v-20h-11.5v9.3h-3c-3 0-5.5-0.9-7.4-2.5-1.9-1.7-2.8-4.1-2.8-7.2v-0.1c-0.1-3.1 0.9-5.5 2.8-7.3zm-20.6 7.4c0 3.1-1 5.5-2.9 7.3-1.8 1.6-4.2 2.4-7.3 2.4h-3v-19.5h3c3 0 5.5 0.9 7.4 2.5 1.9 1.7 2.8 4.1 2.8 7.2z"/></g><path id="XMLID_24_" class="st1" d="m195.4 40.8h59.7v-40.9h-59.7zm43-5.3h-7.5l-8.5-22.6h-5.2v22.6h-8.2v-22.6h-8.3v-7.7h27.9l0.1 0.2 6 18.1 6.2-18.4h9z" fill="#ff4800"/><g id="XMLID_15_" transform="translate(-43.3 -149.5)"><rect id="XMLID_58_" class="st2" x="251.5" y="196.9" width="46.9" height="12.1" fill="#0098ff"/><rect id="XMLID_57_" class="st3" x="199.5" y="196.9" width="46.8" height="12.1" fill="#ffdb00"/><rect id="XMLID_56_" class="st1" x="147.4" y="196.9" width="46.9" height="12.1" fill="#ff4800"/><rect id="XMLID_55_" class="st4" x="95.4" y="196.9" width="46.9" height="12.1" fill="#f40000"/><rect id="XMLID_54_" class="st5" x="43.3" y="196.9" width="46.9" height="12.1" fill="#ff0082"/></g></svg>
