<?xml version="1.0" encoding="UTF-8"?>
<!-- Generator: Adobe Illustrator 16.0.0, SVG Export Plug-In . SVG Version: 6.00 Build 0)  -->
<svg id="Layer_1" width="83.177" height="30.331" enable-background="new 0 0 113.39 113.39" version="1.1" viewBox="0 0 83.177 30.331" xml:space="preserve" xmlns="http://www.w3.org/2000/svg" xmlns:cc="http://creativecommons.org/ns#" xmlns:dc="http://purl.org/dc/elements/1.1/" xmlns:rdf="http://www.w3.org/1999/02/22-rdf-syntax-ns#"><metadata id="metadata44"><rdf:RDF><cc:Work rdf:about=""><dc:format>image/svg+xml</dc:format><dc:type rdf:resource="http://purl.org/dc/dcmitype/StillImage"/><dc:title/></cc:Work></rdf:RDF></metadata><g id="g37" transform="translate(-15.106,-45.765)"><path id="path2" d="m78.799 59.117h19.482v-13.343h-19.482zm14.029-1.716h-2.445l-2.777-7.385h-1.701v7.385h-2.68v-7.385h-2.717v-2.527h9.119l0.018 0.055 1.986 5.936 2.018-5.99h2.922z" fill="#f40000"/><path id="path4" d="m23.928 52.128c1.143-0.619 1.723-1.592 1.723-2.896v-0.037c0-1.181-0.482-2.082-1.43-2.679-0.771-0.499-1.764-0.751-2.945-0.751h-6.17v13.359h6.207c1.322 0 2.428-0.264 3.283-0.785 1.068-0.647 1.611-1.643 1.611-2.961v-0.037c1e-3 -1.516-0.767-2.595-2.279-3.213m-5.066-1.15v-2.015h1.635c1.451 0 1.451 0.736 1.451 0.979v0.039c0 0.245 0 0.997-1.523 0.997zm3.59 3.858v0.038c0 0.709-0.502 1.054-1.535 1.054h-2.055v-2.127h2.02c1.57 0 1.57 0.78 1.57 1.035" fill="#fff"/><path id="path6" d="m35.561 54.482c1.666-0.791 2.512-2.161 2.512-4.073v-0.039c0-1.56-0.539-2.753-1.602-3.55-0.941-0.698-2.201-1.054-3.744-1.054h-5.461v13.359h3.758v-3.96h0.697l2.531 3.96h4.365zm-1.264-3.896v0.038c0 0.942-0.566 1.4-1.732 1.4h-1.541v-2.763h1.523c1.178 1e-3 1.75 0.384 1.75 1.325" fill="#fff"/><path id="polygon8" d="m75.887 53.95v-3.14l-5.108-1e-3v-1.547h5.649v-3.496h-9.352v13.359h9.44v-3.496h-5.737v-1.678z" fill="#fff"/><path id="path10" d="m39.108 59.125h3.773v-8.718h-3.773zm0-9.863h3.773v-3.496h-3.773z" fill="#fff"/><path id="path12" d="m58.813 50.049c0.518-0.464 1.221-0.713 2.072-0.765 0 0 0.9-0.022 1.291-0.022h3.756v-3.496h-4.604c-2.082 0-3.808 0.564-5.132 1.677-0.477 0.403-0.867 0.864-1.188 1.37-0.326-0.525-0.732-0.999-1.229-1.408-1.299-1.087-3.008-1.639-5.078-1.639h-4.674v13.359h4.602c2.082 0 3.811-0.564 5.135-1.675 0.477-0.403 0.867-0.864 1.188-1.371 0.326 0.525 0.73 0.998 1.227 1.408 1.301 1.087 3.009 1.638 5.08 1.638h4.674v-6.523h-3.756v3.027h-0.973c-0.992 0-1.805-0.277-2.418-0.826-0.605-0.541-0.912-1.328-0.912-2.339v-0.037c0-1.01 0.315-1.81 0.939-2.378zm-6.727 2.416c0 1.01-0.316 1.81-0.939 2.377-0.582 0.522-1.387 0.787-2.391 0.787h-0.973v-6.367h0.973c0.99 0 1.805 0.278 2.416 0.824 0.607 0.543 0.914 1.33 0.914 2.341z" fill="#fff"/><g id="g19"><rect id="XMLID_94_" x="83.004" y="61.273" width="15.279" height="3.941" fill="#0098ff"/><rect id="XMLID_93_" x="66.029" y="61.273" width="15.279" height="3.941" fill="#debd00"/><rect id="XMLID_92_" x="49.055" y="61.273" width="15.279" height="3.941" fill="#ff4800"/><rect id="XMLID_91_" x="32.081" y="61.273" width="15.279" height="3.941" fill="#f40000"/><rect id="XMLID_90_" x="15.106" y="61.273" width="15.279" height="3.941" fill="#ff0082"/></g><g id="g35" fill="#fff"><path id="path21" d="m39.588 74.717c-0.861 0.92-1.916 1.379-3.166 1.379-1.131 0-2.074-0.379-2.828-1.137-0.754-0.756-1.13-1.701-1.13-2.832v-0.023c0-1.146 0.384-2.098 1.152-2.855s1.726-1.137 2.872-1.137c1.221 0 2.234 0.398 3.044 1.191l-1.081 1.246c-0.639-0.58-1.297-0.871-1.974-0.871-0.654 0-1.19 0.236-1.61 0.705-0.418 0.471-0.628 1.037-0.628 1.699v0.021c0 0.67 0.202 1.236 0.606 1.699 0.426 0.484 0.971 0.727 1.632 0.727 0.69 0 1.367-0.301 2.028-0.904z"/><path id="path23" d="m46.491 75.963h-5.547v-7.719h1.698v6.186h3.849z"/><path id="path25" d="m55.29 75.963h-1.785l-0.699-1.73h-3.26l-0.713 1.73h-1.725l3.309-7.785h1.565zm-3.086-3.231-1.035-2.52-1.034 2.52z"/><path id="path27" d="m62.07 73.682c0 0.785-0.283 1.393-0.848 1.818-0.508 0.383-1.17 0.574-1.986 0.574-1.263 0-2.355-0.412-3.274-1.236l1.006-1.201c0.759 0.625 1.53 0.938 2.309 0.938 0.746 0 1.117-0.242 1.117-0.729v-0.021c0-0.279-0.199-0.512-0.598-0.695-0.154-0.066-0.475-0.16-0.961-0.287-0.9-0.227-1.522-0.477-1.869-0.748-0.465-0.361-0.696-0.898-0.696-1.611v-0.021c0-0.734 0.272-1.316 0.815-1.742 0.5-0.389 1.128-0.584 1.886-0.584 1.096 0 2.051 0.326 2.867 0.98l-0.885 1.279c-0.73-0.508-1.4-0.76-2.014-0.76-0.662 0-0.994 0.223-0.994 0.672v0.021c0 0.303 0.212 0.545 0.64 0.729 0.104 0.043 0.445 0.139 1.029 0.287 0.766 0.197 1.334 0.438 1.701 0.717 0.502 0.389 0.752 0.922 0.752 1.598v0.022z"/><path id="path29" d="m69.129 73.682c0 0.785-0.283 1.393-0.85 1.818-0.508 0.383-1.17 0.574-1.984 0.574-1.266 0-2.357-0.412-3.275-1.236l1.006-1.201c0.758 0.625 1.529 0.938 2.311 0.938 0.744 0 1.115-0.242 1.115-0.729v-0.021c0-0.279-0.199-0.512-0.596-0.695-0.156-0.066-0.477-0.16-0.963-0.287-0.898-0.227-1.521-0.477-1.867-0.748-0.465-0.361-0.697-0.898-0.697-1.611v-0.021c0-0.734 0.271-1.316 0.816-1.742 0.5-0.389 1.127-0.584 1.885-0.584 1.096 0 2.051 0.326 2.867 0.98l-0.885 1.279c-0.73-0.508-1.4-0.76-2.012-0.76-0.664 0-0.996 0.223-0.996 0.672v0.021c0 0.303 0.213 0.545 0.641 0.729 0.104 0.043 0.447 0.139 1.029 0.287 0.766 0.197 1.334 0.438 1.703 0.717 0.5 0.389 0.752 0.922 0.752 1.598z"/><path id="path31" d="m72.371 75.963h-1.699v-7.719h1.699z"/><path id="path33" d="m81.082 74.717c-0.861 0.92-1.916 1.379-3.166 1.379-1.131 0-2.074-0.379-2.828-1.137-0.754-0.756-1.131-1.701-1.131-2.832v-0.023c0-1.146 0.385-2.098 1.152-2.855 0.77-0.758 1.727-1.137 2.873-1.137 1.221 0 2.234 0.398 3.043 1.191l-1.08 1.246c-0.639-0.58-1.297-0.871-1.975-0.871-0.654 0-1.189 0.236-1.609 0.705-0.418 0.471-0.629 1.037-0.629 1.699v0.021c0 0.67 0.203 1.236 0.607 1.699 0.426 0.484 0.971 0.727 1.631 0.727 0.691 0 1.367-0.301 2.029-0.904z"/></g></g></svg>
