<?xml version="1.0" encoding="UTF-8"?>
<!-- Generator: Adobe Illustrator 16.0.0, SVG Export Plug-In . SVG Version: 6.00 Build 0)  -->
<svg id="Layer_1" width="83.176" height="30.352" enable-background="new 0 0 113.39 113.39" version="1.1" viewBox="0 0 83.176 30.352" xml:space="preserve" xmlns="http://www.w3.org/2000/svg" xmlns:cc="http://creativecommons.org/ns#" xmlns:dc="http://purl.org/dc/elements/1.1/" xmlns:rdf="http://www.w3.org/1999/02/22-rdf-syntax-ns#"><metadata id="metadata40"><rdf:RDF><cc:Work rdf:about=""><dc:format>image/svg+xml</dc:format><dc:type rdf:resource="http://purl.org/dc/dcmitype/StillImage"/><dc:title/></cc:Work></rdf:RDF></metadata><g id="g33" transform="translate(-15.107,-47.459)"><path id="path2" d="m78.799 60.811h19.484v-13.345h-19.484zm14.029-1.718h-2.443l-2.779-7.384h-1.701v7.384h-2.68v-7.384h-2.715v-2.528h9.118l0.02 0.055 1.984 5.936 2.02-5.99h2.92z" fill="#ff0082"/><path id="path4" d="m23.929 53.821c1.145-0.619 1.723-1.592 1.723-2.896v-0.038c0-1.18-0.48-2.082-1.428-2.679-0.773-0.498-1.764-0.749-2.947-0.749h-6.169v13.358h6.207c1.322 0 2.428-0.264 3.283-0.786 1.07-0.646 1.611-1.643 1.611-2.961v-0.037c-1e-3 -1.516-0.767-2.595-2.28-3.212m-5.067-1.15v-2.016h1.635c1.453 0 1.453 0.737 1.453 0.98v0.037c0 0.246 0 0.998-1.525 0.998h-1.563zm3.59 3.857v0.038c0 0.71-0.502 1.054-1.535 1.054h-2.055v-2.127h2.02c1.57 0 1.57 0.78 1.57 1.035"/><path id="path6" d="m35.562 56.175c1.668-0.791 2.512-2.162 2.512-4.074v-0.038c0-1.56-0.539-2.753-1.602-3.55-0.941-0.699-2.201-1.054-3.742-1.054h-5.461v13.359h3.756v-3.96h0.697l2.533 3.96h4.363zm-1.262-3.895v0.037c0 0.941-0.566 1.4-1.732 1.4h-1.543v-2.764h1.523c1.178 1e-3 1.752 0.384 1.752 1.327"/><path id="polygon8" d="m75.889 55.643v-3.14l-5.108-2e-3v-1.547h5.647v-3.494h-9.35v13.358h9.44v-3.497h-5.737v-1.677z"/><path id="path10" d="m39.108 60.818h3.775v-8.718h-3.775zm0-9.864h3.775v-3.495h-3.775z"/><path id="path12" d="m58.813 51.743c0.52-0.465 1.221-0.715 2.074-0.766 0 0 0.9-0.021 1.289-0.021h3.758v-3.496h-4.604c-2.082 0-3.808 0.563-5.132 1.675-0.479 0.403-0.869 0.864-1.189 1.371-0.326-0.526-0.73-0.999-1.227-1.409-1.3-1.086-3.007-1.637-5.078-1.637h-4.676v13.358h4.604c2.082 0 3.809-0.564 5.132-1.677 0.477-0.403 0.869-0.864 1.189-1.371 0.324 0.526 0.73 1 1.227 1.41 1.301 1.086 3.007 1.638 5.078 1.638h4.676v-6.524h-3.758v3.028h-0.973c-0.99 0-1.803-0.278-2.416-0.825-0.607-0.542-0.914-1.33-0.914-2.34v-0.038c1e-3 -1.011 0.318-1.809 0.94-2.376zm-6.724 2.414c0 1.01-0.316 1.811-0.941 2.377-0.582 0.523-1.387 0.787-2.391 0.787h-0.973v-6.367h0.973c0.992 0 1.807 0.279 2.418 0.826 0.605 0.542 0.914 1.33 0.914 2.34z"/><g id="g19"><rect id="XMLID_99_" x="83.004" y="62.988" width="15.279" height="3.941" fill="#0098ff"/><rect id="XMLID_98_" x="66.029" y="62.988" width="15.279" height="3.941" fill="#debd00"/><rect id="XMLID_97_" x="49.056" y="62.988" width="15.278" height="3.941" fill="#ff4800"/><rect id="XMLID_96_" x="32.081" y="62.988" width="15.279" height="3.941" fill="#f40000"/><rect id="XMLID_95_" x="15.107" y="62.988" width="15.279" height="3.941" fill="#ff0082"/></g><g id="g31"><path id="path21" d="m43.949 73.818c0 1.154-0.401 2.092-1.202 2.813-0.772 0.699-1.739 1.047-2.9 1.047h-3.01v-7.719h3.01c1.162 0 2.128 0.346 2.9 1.037 0.801 0.721 1.202 1.654 1.202 2.801zm-1.776 0.024v-0.023c0-0.691-0.215-1.252-0.645-1.682s-0.991-0.645-1.682-0.645h-1.312v4.652h1.312c0.691 0 1.251-0.211 1.682-0.633 0.43-0.423 0.645-0.98 0.645-1.669z"/><path id="path23" d="m52.98 77.678h-1.785l-0.7-1.73h-3.26l-0.712 1.73h-1.725l3.308-7.785h1.566zm-3.086-3.231-1.035-2.52-1.035 2.52z"/><path id="path25" d="m61.029 77.678h-1.428l-3.755-4.916v4.916h-1.676v-7.719h1.566l3.617 4.754v-4.754h1.676z"/><path id="path27" d="m69.664 76.432c-0.861 0.92-1.916 1.379-3.166 1.379-1.131 0-2.074-0.379-2.828-1.137-0.754-0.756-1.131-1.701-1.131-2.832v-0.023c0-1.146 0.385-2.098 1.152-2.855 0.77-0.758 1.727-1.137 2.873-1.137 1.221 0 2.234 0.398 3.043 1.191l-1.08 1.246c-0.639-0.58-1.297-0.871-1.975-0.871-0.654 0-1.189 0.236-1.609 0.705-0.418 0.471-0.629 1.037-0.629 1.699v0.021c0 0.67 0.203 1.236 0.607 1.699 0.426 0.484 0.971 0.727 1.631 0.727 0.691 0 1.367-0.301 2.029-0.904z"/><path id="path29" d="m76.896 77.678h-5.876v-7.719h5.822v1.512h-4.146v1.564h3.65v1.512h-3.65v1.621h4.201v1.51z"/></g></g></svg>
