<?xml version="1.0" encoding="UTF-8"?>
<!-- Generator: Adobe Illustrator 22.1.0, SVG Export Plug-In . SVG Version: 6.00 Build 0)  -->
<svg id="Layer_1" width="800" height="253.85" version="1.1" viewBox="0 0 800 253.85" xml:space="preserve" xmlns="http://www.w3.org/2000/svg" xmlns:cc="http://creativecommons.org/ns#" xmlns:dc="http://purl.org/dc/elements/1.1/" xmlns:rdf="http://www.w3.org/1999/02/22-rdf-syntax-ns#"><metadata id="metadata39"><rdf:RDF><cc:Work rdf:about=""><dc:format>image/svg+xml</dc:format><dc:type rdf:resource="http://purl.org/dc/dcmitype/StillImage"/><dc:title/></cc:Work></rdf:RDF></metadata>
<style id="style2" type="text/css">
	.st0{fill:#F40000;}
</style>
<path id="path4" class="st0" d="m612.5 128.85h187.5v-127.88h-187.5zm134.62-16.346h-23.077l-26.923-71.154h-16.346v71.154h-25.962v-71.154h-25.962v-24.038h87.5v0.96154l19.231 56.731 19.231-57.692h27.885z" fill="#f40000" stroke-width="9.6154"/><g id="g873"><path id="path6" d="m84.615 61.538c10.577-5.7692 16.346-15.385 16.346-27.885 0-11.538-4.8077-20.192-13.462-25.962-7.6923-4.8077-17.308-7.6923-27.885-7.6923h-59.615v128.85h59.615c12.5 0 23.077-2.8846 31.731-7.6923 10.577-5.7692 15.385-15.385 15.385-28.846 0-14.423-7.6923-25-22.115-30.769m-48.077-10.577v-19.231h15.385c14.423 0 14.423 6.7308 14.423 9.6154 0 1.9231 0 9.6154-14.423 9.6154zm34.615 36.538c0 6.7308-4.8077 10.577-14.423 10.577h-20.192v-20.192h19.231c15.385 0 15.385 7.6923 15.385 9.6154" stroke-width="9.6154"/><path id="path8" d="m197.12 84.615c16.346-7.6923 24.038-21.154 24.038-39.423 0-15.385-4.8077-26.923-15.385-33.654-8.6538-6.7308-21.154-10.577-35.577-10.577h-52.885v128.85h35.577v-38.462h6.7308l24.038 38.462h42.308zm-12.5-37.5c0 9.6154-5.7692 13.462-16.346 13.462h-15.385v-26.923h14.423c11.538 0.96154 17.308 3.8462 17.308 13.462" stroke-width="9.6154"/><polygon id="polygon10" transform="matrix(9.6154 0 0 9.6154 -145.19 -439.42)" points="76.4 45.8 67.1 45.8 67.1 59.1 76.5 59.1 76.5 55.6 70.8 55.6 70.8 54 75.9 53.9 75.9 50.8 70.8 50.8 70.8 49.3 76.4 49.3"/><path id="path12" d="m230.77 128.85h36.538v-83.654h-36.538zm0-94.231h36.538v-33.654h-36.538z" stroke-width="9.6154"/><path id="path14" d="m420.19 41.346c4.8077-4.8077 11.538-6.7308 20.192-7.6923h12.5 36.538v-33.654h-44.231c-20.192 0-36.538 5.7692-49.038 16.346-4.8077 3.8462-8.6538 8.6538-11.538 13.462-2.8846-4.8077-6.7308-9.6154-11.538-13.462-12.5-10.577-28.846-15.385-49.038-15.385h-46.154v128.85h44.231c20.192 0 36.538-5.7692 49.038-16.346 4.8077-3.8462 8.6538-8.6538 11.538-13.462 2.8846 4.8077 6.7308 9.6154 11.538 13.462 12.5 10.577 28.846 15.385 49.038 15.385h45.192v-62.5h-36.538v28.846h-9.6154c-9.6154 0-17.308-2.8846-23.077-7.6923s-8.6538-12.5-8.6538-22.115c0.96154-10.577 3.8462-18.269 9.6154-24.038zm-64.423 24.038c0 9.6154-2.8846 17.308-8.6538 23.077-5.7692 4.8077-13.462 7.6923-23.077 7.6923h-9.6154v-61.538h9.6154c9.6154 0 17.308 2.8846 23.077 7.6923 5.7692 4.8077 8.6538 12.5 8.6538 23.077z" stroke-width="9.6154"/><g id="g30" transform="matrix(9.6154 0 0 9.6154 -145.19 -439.42)">
		<path id="path16" d="m39.6 70.7c-0.9 0.9-1.9 1.4-3.2 1.4-1.1 0-2.1-0.4-2.8-1.1-0.8-0.8-1.1-1.7-1.1-2.8s0.4-2.1 1.2-2.9 1.7-1.1 2.9-1.1 2.2 0.4 3 1.2l-1.1 1.2c-0.6-0.6-1.3-0.9-2-0.9s-1.2 0.2-1.6 0.7-0.6 1-0.6 1.7 0.2 1.2 0.6 1.7 1 0.7 1.6 0.7c0.7 0 1.4-0.3 2-0.9z"/>
		<path id="path18" d="m46.5 72h-5.5v-7.7h1.7v6.2h3.8z"/>
		<path id="path20" d="m55.3 72h-1.8l-0.7-1.7h-3.3l-0.7 1.7h-1.7l3.3-7.8h1.6zm-3.1-3.3-1-2.5-1 2.5z"/>
		<path id="path22" d="m62.1 69.7c0 0.8-0.3 1.4-0.8 1.8s-1.2 0.6-2 0.6c-1.3 0-2.4-0.4-3.3-1.2l1-1.2c0.8 0.6 1.5 0.9 2.3 0.9 0.7 0 1.1-0.2 1.1-0.7 0-0.3-0.2-0.5-0.6-0.7-0.2-0.1-0.5-0.2-1-0.3-0.9-0.2-1.5-0.5-1.9-0.7-0.5-0.4-0.7-0.9-0.7-1.6s0.3-1.3 0.8-1.7 1.1-0.6 1.9-0.6c1.1 0 2.1 0.3 2.9 1l-0.8 1.1c-0.7-0.5-1.4-0.8-2-0.8-0.7 0-1 0.2-1 0.7 0 0.3 0.2 0.5 0.6 0.7 0.1 0 0.4 0.1 1 0.3 0.8 0.2 1.3 0.4 1.7 0.7 0.5 0.4 0.8 1 0.8 1.7z"/>
		<path id="path24" d="m69.1 69.7c0 0.8-0.3 1.4-0.8 1.8s-1.2 0.6-2 0.6c-1.3 0-2.4-0.4-3.3-1.2l1-1.2c0.8 0.6 1.5 0.9 2.3 0.9 0.7 0 1.1-0.2 1.1-0.7 0-0.3-0.2-0.5-0.6-0.7-0.2-0.1-0.5-0.2-1-0.3-0.9-0.2-1.5-0.5-1.9-0.7-0.5-0.4-0.7-0.9-0.7-1.6s0.3-1.3 0.8-1.7 1.1-0.6 1.9-0.6c1.1 0 2.1 0.3 2.9 1l-0.8 1.1c-0.7-0.5-1.4-0.8-2-0.8-0.7 0-1 0.2-1 0.7 0 0.3 0.2 0.5 0.6 0.7 0.1 0 0.4 0.1 1 0.3 0.8 0.2 1.3 0.4 1.7 0.7 0.6 0.4 0.8 1 0.8 1.7z"/>
		<path id="path26" d="m72.4 72h-1.7v-7.7h1.7z"/>
		<path id="path28" d="m81.1 70.7c-0.9 0.9-1.9 1.4-3.2 1.4-1.1 0-2.1-0.4-2.8-1.1-0.8-0.8-1.1-1.7-1.1-2.8s0.4-2.1 1.2-2.9 1.7-1.1 2.9-1.1 2.2 0.4 3 1.2l-1.1 1.2c-0.6-0.6-1.3-0.9-2-0.9s-1.2 0.2-1.6 0.7-0.6 1-0.6 1.7 0.2 1.2 0.6 1.7 1 0.7 1.6 0.7c0.7 0 1.4-0.3 2-0.9z"/>
	</g></g>
</svg>
