<?xml version="1.0" encoding="UTF-8"?>
<!-- Created with Inkscape (http://www.inkscape.org/) -->
<svg id="svg5939" width="211.67mm" height="38.41mm" version="1.1" viewBox="0 0 211.67 38.41" xmlns="http://www.w3.org/2000/svg" xmlns:cc="http://creativecommons.org/ns#" xmlns:dc="http://purl.org/dc/elements/1.1/" xmlns:rdf="http://www.w3.org/1999/02/22-rdf-syntax-ns#">
 <defs id="defs5933">
  <clipPath id="clipPath1278">
   <path id="path1276" d="m0 0h595.28v841.89h-595.28z"/>
  </clipPath>
  <clipPath id="clipPath1258">
   <path id="path1256" d="m0 0h595.28v841.89h-595.28z"/>
  </clipPath>
 </defs>
 <metadata id="metadata5936">
  <rdf:RDF>
   <cc:Work rdf:about="">
    <dc:format>image/svg+xml</dc:format>
    <dc:type rdf:resource="http://purl.org/dc/dcmitype/StillImage"/>
    <dc:title/>
   </cc:Work>
  </rdf:RDF>
 </metadata>
 <g id="layer1" transform="translate(23.787 -111.65)">
  <g id="g1252" transform="matrix(5.5082 0 0 -5.5082 -262.47 3227.5)">
   <g id="g1254" clip-path="url(#clipPath1258)">
    <g id="g1260" transform="translate(53.146 563.81)">
     <path id="path1262" d="m0 0c-0.142 0.172-0.316 0.305-0.523 0.398-0.206 0.092-0.445 0.138-0.716 0.138-0.272 0-0.523-0.052-0.754-0.157s-0.432-0.251-0.601-0.439c-0.17-0.188-0.303-0.412-0.398-0.671-0.096-0.259-0.143-0.539-0.143-0.841 0-0.309 0.047-0.591 0.143-0.847 0.095-0.255 0.227-0.477 0.393-0.666 0.166-0.188 0.362-0.334 0.587-0.439s0.467-0.157 0.726-0.157c0.296 0 0.558 0.061 0.786 0.185 0.229 0.123 0.417 0.296 0.565 0.518l1.202-0.897c-0.277-0.389-0.629-0.675-1.054-0.86-0.426-0.185-0.864-0.278-1.314-0.278-0.512 0-0.983 0.08-1.415 0.241-0.431 0.16-0.804 0.389-1.119 0.689-0.314 0.299-0.559 0.661-0.735 1.086-0.176 0.426-0.264 0.901-0.264 1.425s0.088 0.999 0.264 1.424 0.421 0.788 0.735 1.087c0.315 0.299 0.688 0.528 1.119 0.689 0.432 0.16 0.903 0.24 1.415 0.24 0.185 0 0.378-0.017 0.578-0.051 0.201-0.034 0.398-0.088 0.592-0.162 0.195-0.074 0.381-0.172 0.56-0.296 0.179-0.123 0.339-0.274 0.481-0.453z" fill="#231f20"/>
    </g>
   </g>
  </g>
  <g id="g1264" transform="matrix(5.5082 0 0 -5.5082 54.868 141.4)">
   <path id="path1266" d="m0 0h-2.858v1.165l2.673 4.07h1.517v-4.07h0.841v-1.165h-0.841v-1.313h-1.332zm0 3.422h-0.019l-1.452-2.257h1.471z" fill="#231f20"/>
  </g>
  <g id="g1268" transform="matrix(5.5082 0 0 -5.5082 72.036 112.57)">
   <path id="path1270" d="m0 0h1.443v-2.719l2.543 2.719h1.887l-2.913-3.043 3.163-3.505h-2.016l-2.664 3.107v-3.107h-1.443z" fill="#231f20"/>
  </g>
  <g id="g1272" transform="matrix(5.5082 0 0 -5.5082 -262.47 3227.5)">
   <g id="g1274" clip-path="url(#clipPath1278)">
    <g id="g1280" transform="translate(68.573 562.74)">
     <path id="path1282" d="m0 0h0.24c0.161 0 0.329 0.012 0.504 0.037 0.176 0.025 0.336 0.077 0.481 0.157s0.265 0.196 0.361 0.347 0.143 0.35 0.143 0.597c0 0.332-0.103 0.596-0.309 0.79-0.207 0.195-0.477 0.292-0.81 0.292-0.277 0-0.518-0.062-0.721-0.185-0.204-0.124-0.364-0.306-0.481-0.546l-0.749 0.287c0.16 0.37 0.411 0.647 0.754 0.832 0.342 0.185 0.722 0.277 1.142 0.277 0.259 0 0.507-0.036 0.744-0.11 0.238-0.074 0.446-0.182 0.625-0.324 0.178-0.142 0.32-0.319 0.425-0.532s0.157-0.461 0.157-0.745c0-0.345-0.103-0.655-0.309-0.929-0.207-0.274-0.477-0.464-0.81-0.569v-0.018c0.21-0.037 0.396-0.105 0.56-0.204 0.163-0.098 0.303-0.22 0.421-0.365 0.117-0.145 0.206-0.31 0.268-0.495 0.061-0.185 0.092-0.379 0.092-0.582 0-0.315-0.058-0.589-0.175-0.824-0.118-0.234-0.275-0.431-0.472-0.592-0.197-0.16-0.427-0.28-0.689-0.36s-0.538-0.121-0.828-0.121c-0.499 0-0.934 0.109-1.304 0.324-0.37 0.216-0.638 0.567-0.805 1.055l0.787 0.259c0.11-0.352 0.268-0.602 0.471-0.75 0.204-0.148 0.487-0.222 0.851-0.222 0.185 0 0.358 0.031 0.518 0.093 0.16 0.061 0.301 0.149 0.421 0.263s0.216 0.25 0.287 0.407c0.07 0.158 0.106 0.332 0.106 0.523 0 0.24-0.048 0.442-0.143 0.606-0.096 0.163-0.222 0.292-0.38 0.388-0.157 0.096-0.334 0.165-0.531 0.208-0.198 0.043-0.398 0.065-0.602 0.065h-0.24z" fill="#231f20"/>
    </g>
    <g id="g1284" transform="translate(73.715 562.79)">
     <path id="path1286" d="m0 0 0.019-0.019c0.123 0.068 0.266 0.118 0.43 0.148 0.163 0.031 0.312 0.047 0.448 0.047 0.284 0 0.547-0.05 0.791-0.148 0.243-0.099 0.453-0.239 0.629-0.421s0.313-0.399 0.412-0.652c0.098-0.253 0.147-0.531 0.147-0.833 0-0.32-0.055-0.607-0.166-0.86-0.111-0.252-0.265-0.467-0.463-0.642-0.197-0.176-0.43-0.312-0.698-0.407-0.268-0.096-0.556-0.144-0.865-0.144-0.308 0-0.596 0.048-0.864 0.144-0.269 0.095-0.501 0.231-0.699 0.407-0.197 0.175-0.351 0.39-0.462 0.642-0.111 0.253-0.167 0.54-0.167 0.86 0 0.376 0.059 0.706 0.176 0.99s0.265 0.567 0.444 0.851l1.739 2.765h0.906zm0.684-0.49c-0.197 0-0.382-0.033-0.554-0.097-0.173-0.065-0.323-0.158-0.449-0.278-0.127-0.12-0.227-0.267-0.301-0.439-0.074-0.173-0.111-0.364-0.111-0.574 0-0.216 0.037-0.408 0.111-0.578 0.074-0.169 0.174-0.314 0.301-0.434 0.126-0.12 0.276-0.213 0.449-0.278 0.172-0.065 0.357-0.097 0.554-0.097 0.198 0 0.383 0.032 0.555 0.097 0.173 0.065 0.322 0.158 0.449 0.278 0.126 0.12 0.227 0.265 0.301 0.434 0.074 0.17 0.111 0.362 0.111 0.578 0 0.21-0.037 0.401-0.111 0.574-0.074 0.172-0.175 0.319-0.301 0.439-0.127 0.12-0.276 0.213-0.449 0.278-0.172 0.064-0.357 0.097-0.555 0.097" fill="#231f20"/>
    </g>
    <g id="g1288" transform="translate(77.322 562.24)">
     <path id="path1290" d="m0 0c0 0.37 0.031 0.755 0.092 1.156 0.062 0.401 0.176 0.766 0.343 1.096 0.166 0.33 0.393 0.601 0.68 0.814 0.286 0.213 0.655 0.319 1.105 0.319s0.818-0.106 1.105-0.319 0.513-0.484 0.68-0.814c0.166-0.33 0.28-0.695 0.342-1.096s0.092-0.786 0.092-1.156-0.03-0.755-0.092-1.156-0.176-0.766-0.342-1.096c-0.167-0.33-0.393-0.601-0.68-0.814s-0.655-0.319-1.105-0.319-0.819 0.106-1.105 0.319c-0.287 0.213-0.514 0.484-0.68 0.814-0.167 0.33-0.281 0.695-0.343 1.096-0.061 0.401-0.092 0.786-0.092 1.156m0.777 0c0-0.16 6e-3 -0.339 0.018-0.537 0.013-0.197 0.036-0.396 0.07-0.596s0.083-0.396 0.148-0.587c0.064-0.192 0.151-0.361 0.259-0.509s0.239-0.267 0.393-0.356 0.339-0.134 0.555-0.134 0.4 0.045 0.555 0.134c0.154 0.089 0.285 0.208 0.393 0.356 0.107 0.148 0.194 0.317 0.259 0.509 0.065 0.191 0.114 0.387 0.148 0.587s0.057 0.399 0.069 0.596c0.012 0.198 0.019 0.377 0.019 0.537s-7e-3 0.339-0.019 0.536c-0.012 0.198-0.035 0.396-0.069 0.597-0.034 0.2-0.083 0.396-0.148 0.587s-0.152 0.361-0.259 0.509c-0.108 0.148-0.239 0.267-0.393 0.356-0.155 0.089-0.339 0.134-0.555 0.134s-0.401-0.045-0.555-0.134-0.285-0.208-0.393-0.356-0.195-0.318-0.259-0.509c-0.065-0.191-0.114-0.387-0.148-0.587-0.034-0.201-0.057-0.399-0.07-0.597-0.012-0.197-0.018-0.376-0.018-0.536" fill="#231f20"/>
    </g>
   </g>
  </g>
  <g id="g1292" transform="matrix(5.5082 0 0 -5.5082 -18.797 139.21)">
   <path id="path1294" d="m0 0h-0.906v0.61h0.998l0.186 1.406h-0.907v0.611h0.999l0.278 1.951h0.619l-0.277-1.951h1.165l0.278 1.951h0.619l-0.277-1.951h0.906v-0.611h-0.99l-0.194-1.406h0.907v-0.61h-0.999l-0.278-1.97h-0.619l0.277 1.97h-1.165l-0.278-1.97h-0.619zm2.072 2.016h-1.166l-0.194-1.406h1.166z" fill="#231f20"/>
  </g>
 </g>
</svg>
