<?xml version="1.0" encoding="UTF-8"?>
<svg id="svg32" width="824.32pt" height="413.64pt" version="1.1" viewBox="0 0 824.32 413.64" xmlns="http://www.w3.org/2000/svg" xmlns:cc="http://creativecommons.org/ns#" xmlns:dc="http://purl.org/dc/elements/1.1/" xmlns:rdf="http://www.w3.org/1999/02/22-rdf-syntax-ns#">
 <metadata id="metadata38">
  <rdf:RDF>
   <cc:Work rdf:about="">
    <dc:format>image/svg+xml</dc:format>
    <dc:type rdf:resource="http://purl.org/dc/dcmitype/StillImage"/>
    <dc:title/>
   </cc:Work>
  </rdf:RDF>
 </metadata>
 <defs id="defs36">
  <clipPath id="clipPath81308">
   <path id="path81306" d="m898.02 105.42h23.81v6.576h-23.81z"/>
  </clipPath>
 </defs>
 <g id="layer1" transform="matrix(99.5 0 0 99.5 13500 494.87)">
  <g id="g81302" transform="matrix(.35278 0 0 -.35278 -452.54 34.481)" fill="#bead61">
   <g id="g81304" clip-path="url(#clipPath81308)" fill="#bead61">
    <g id="g81310" transform="translate(920.28,111.76)">
     <path id="path81312" d="m0 0v-3.782l-3.159 3.711c-0.039 0.045-0.095 0.071-0.155 0.071h-1.092v-6.103h1.381v3.845l3.18-3.774c0.038-0.045 0.094-0.071 0.152-0.071h1.077v6.103z" fill="#bead61"/>
    </g>
    <g id="g81314" transform="translate(902.45,106.99)">
     <path id="path81316" d="m0 0c-0.268-0.086-0.554-0.13-0.85-0.13-0.383 0-0.731 0.079-1.035 0.235-0.298 0.153-0.533 0.373-0.697 0.653-0.165 0.282-0.248 0.606-0.248 0.963 0 0.349 0.084 0.671 0.25 0.955 0.166 0.283 0.401 0.506 0.7 0.662 0.304 0.158 0.65 0.238 1.03 0.238 0.307 0 0.606-0.044 0.889-0.13 0.183-0.057 0.371-0.134 0.579-0.236 0.013-7e-3 9e-3 -5e-3 0.023-0.012l0.565 1.1-0.084 0.042c-0.368 0.184-0.716 0.316-1.036 0.393s-0.652 0.116-0.985 0.116c-0.633 0-1.212-0.132-1.719-0.394-0.512-0.263-0.92-0.644-1.212-1.131s-0.44-1.043-0.44-1.653c0-0.57 0.144-1.103 0.427-1.583 0.285-0.48 0.681-0.854 1.178-1.109 0.492-0.254 1.057-0.382 1.68-0.382 0.425 0 0.803 0.044 1.124 0.13 0.319 0.085 0.673 0.23 1.052 0.431l0.067 0.036-0.423 1.175c-0.327-0.171-0.609-0.297-0.835-0.369" fill="#bead61"/>
    </g>
    <g id="g81318" transform="translate(909.54,108.76)">
     <path id="path81320" d="m0 0-0.926-1e-3v1e-3h-0.326v-1.675c-0.214-0.103-0.412-0.158-0.538-0.183-0.148-0.028-0.307-0.042-0.472-0.042-0.592 0-1.073 0.168-1.43 0.501-0.359 0.334-0.533 0.764-0.533 1.316 0 0.361 0.083 0.692 0.247 0.984 0.163 0.289 0.395 0.514 0.691 0.668 0.301 0.157 0.652 0.236 1.042 0.236 0.529 0 1.072-0.12 1.62-0.354l0.563 1.1-0.081 0.037c-0.707 0.325-1.431 0.491-2.151 0.491-0.628 0-1.206-0.134-1.719-0.399-0.517-0.266-0.926-0.645-1.216-1.127-0.289-0.481-0.436-1.026-0.436-1.619 0-0.585 0.145-1.123 0.432-1.599s0.692-0.851 1.203-1.114c0.508-0.262 1.081-0.395 1.703-0.395 0.437 0 0.863 0.059 1.267 0.174 0.408 0.116 0.763 0.281 1.056 0.489l0.064 0.046v2.404c0 0.034-0.027 0.061-0.06 0.061" fill="#bead61"/>
    </g>
    <g id="g81322" transform="translate(914.84,111.76)">
     <path id="path81324" d="m0 0h-4.921v-1.182h1.987v-4.921h1.426v4.921h1.946v1.182h-0.061z" fill="#bead61"/>
    </g>
   </g>
  </g>
 </g>
 <g id="g4535" transform="translate(-347.68 -85.278)" fill="#bead61">
  <path id="path15" d="m1091.6 334.88h14.42c0.92 6.4 6.36 12.025 12.95 12.355 7.4 0.89 14.85-4.775 15.3-12.355h14c-0.88 8.54-4.76 17.365-12.49 21.745-8.75 4.79-19.73 4.86-28.93 1.34-9.29-3.59-14.98-13.355-15.25-23.085z"/>
  <path id="path17" d="m594.04 369.14c12.34-10.08 29.66-12.08 44.83-8.61 14.21 3.2 26.13 13.89 31.42 27.39l-16.24 7.34c-2.42-5.85-6.25-11.26-11.64-14.69-10.63-6.84-25.59-6.4-35.69 1.23-8.59 6.54-12.62 17.6-12.71 28.15-0.02 12.02-0.02 24.05 0 36.07 0.09 9.55 3.05 19.43 9.75 26.44 10.86 11.47 31.14 11.84 42.43 0.8 3.67-3.41 6.18-7.84 8.07-12.44l16.2 7.97c-4.35 11.89-13.93 21.81-25.96 25.95-13.15 4.53-28.1 4.35-40.95-1.1-12.32-5.27-21.22-16.82-24.55-29.64-2.83-9.41-2.03-19.31-2.13-29 0.02-9.34-0.02-18.68 0.01-28.02 0.37-14.17 5.94-28.75 17.16-37.84z"/>
  <path id="path19" d="m706.01 370.96c8.55-8.06 20.41-11.86 32.03-11.97 11.36-0.33 23.09 2.67 32.11 9.79 6.38 4.93 11.12 11.73 14.19 19.15l-16.21 7.32c-2.96-7.22-8.3-13.68-15.57-16.82-10.46-4.52-23.58-3.37-32.52 3.94-7.81 6.43-11.69 16.68-11.9 26.62-0.04 12.34 0 24.68-0.02 37.02-0.01 9.5 2.99 19.33 9.6 26.33 10.51 11.24 30.01 11.98 41.52 1.86 4.16-3.53 7.02-8.33 9.07-13.34l16.23 7.9c-4.67 12.98-15.7 23.42-29.07 26.99-14.05 3.77-29.94 2.92-42.64-4.61-10.87-6.4-17.96-17.93-20.5-30.11-1.94-8.21-1.38-16.68-1.46-25.04 0.02-9.33-0.03-18.65 0.02-27.98 0.23-13.6 4.98-27.64 15.12-37.05z"/>
  <path id="path21" d="m368.12 360h41.875c6.38 0.05 12.83-0.34 19.13 0.92 10.02 1.8 19.86 6.59 26.2 14.75 6.25 7.9 8.54 18.32 7.99 28.24-0.9 13.44-9.1 26.08-20.91 32.54-6.51 3.62-13.99 5.34-21.42 5.31-11.83-0.02-23.665-0.01-35.485-0.01v55h-17.38v-136.75m17.375 16v49.75c11.51-0.02 23.01 0.04 34.52-0.02 6.24-0.1 12.6-2.13 17.24-6.43 9.28-8.35 10.56-23.77 3.38-33.83-4.93-6.73-13.59-9.5-21.66-9.47z"/>
  <path id="path23" d="m468.56 359.94h18.84l32.04 87.615 31.25-87.615h13.2l-35.63 107.2c-3.29 10.2-7.28 21.29-16.45 27.66-8.04 5.47-18.16 3.8-27.31 4.07v-16.26c5.83-0.29 12.46 1.19 17.48-2.6 3.83-3.16 6.58-8.01 7.19-12.85z"/>
  <path id="path25" d="m806.25 360.38h17.5v59.245c7.77-0.01 15.54 0.02 23.32-0.01 5.41-0.05 11.02-1.65 15.04-5.41 4.27-3.84 6.81-9.16 8.56-14.53 4.17-13.1 8.38-26.195 12.57-39.295h17.23c-3.41 11.04-6.85 22.065-10.27 33.105-2.45 8.16-4.96 16.55-10.1 23.49-2.84 3.9-6.59 7.21-11.1 9.01 10.21 3.2 16.21 13.04 19.33 22.69 4.97 15.98 9.65 32.06 14.51 48.07h-18.79c-3.41-11.57-6.77-23.15-10.16-34.73-2.17-7.47-4.07-15.52-9.67-21.28-4.11-4.45-10.33-6.21-16.23-6.23-8.08-0.02-16.16 0.01-24.24 0v62.24h-17.5z"/>
  <path id="path27" d="m930.37 360.04h17.33v108.2l70.7-108.2h14.85v136.71h-17.515v-103.18l-68.335 103.18h-17.03z"/>
  <path id="path29" d="m1069.1 360.04h17.32v108.2l70.865-108.2h14.69v136.71h-17.415v-103.18l-32.405 48.65-36.03 54.53h-17.025z"/>
 </g>
</svg>
