<svg id="a" width="211.67mm" height="211.67mm" version="1.1" viewBox="0 0 211.67 211.67" xmlns="http://www.w3.org/2000/svg">
 <g id="b" transform="translate(32.884 46.958)" fill="#542376" stroke-width="1.7639">
  <path id="c" class="st0" d="m-32.884-46.958v211.67h211.67v-211.67zm191.21 191.21h-170.74v-170.74h170.74z"/>
  <path id="d" class="st0" d="m5.3925 12.132v20.285h42.333l-40.569 86.783h22.931l48.154-107.07zm124.88 40.922c6.1736-5.2917 10.231-11.818 10.231-22.401 0-16.757-12.7-29.633-31.75-29.633-19.403 0-32.103 13.053-32.103 29.281 0 10.936 4.0569 17.639 10.583 22.578-7.4083 5.2917-11.994 12.347-11.994 24.342 0 16.933 13.406 30.339 33.514 30.339s33.514-13.229 33.514-30.692c0-11.642-4.5861-18.697-11.818-23.812zm-21.696 34.925c-8.1139 0-12.876-5.8209-12.876-12.876 0-7.5847 4.9389-13.229 12.7-13.229 7.9375 0 12.876 5.6444 12.876 13.406 0 6.7028-4.7625 12.7-12.876 12.7zm0-41.804c-7.9375 0-12.876-5.6444-12.876-13.229 0-7.0555 4.5861-12.7 12.7-12.7s12.876 6.1736 12.876 12.7c0 7.9375-4.9389 13.406-12.876 13.406z"/>
 </g>
</svg>
