<svg width="800" height="367.19" space="preserve" version="1.1" viewBox="0 0 800 367.19" xmlns="http://www.w3.org/2000/svg">
 <link href="" rel="stylesheet" type="text/css"/>
 <style type="text/css"/>
 <g transform="scale(1.5625)" fill="#fe0000">
  <path class="st0" d="m460.9 170.2c-5.9-7.4-15.1-11.1-27.6-11.1h-3.1c-5.9 0-11.7 1-17.2 3.1-5.1 2-10 4.8-14.2 8.3-4.2 3.4-7.7 7.5-10.5 12.2-2.8 4.5-4.7 9.5-5.7 14.7-0.9 4.7-0.9 9.5 0.2 14.2 0.9 4.4 2.9 8.5 5.7 12 2.8 3.4 6.5 6.2 11.2 8.3s10.2 3.1 16.6 3.1h3.1c5.9 0 11.7-1 17.2-3.1 5.1-2 10-4.8 14.2-8.3 4.1-3.4 7.7-7.4 10.5-12 2.7-4.3 4.6-9.2 5.6-14.2 1.9-10.8-0.1-19.9-6-27.2m-64.8-71.2c-0.9-11.1-4.2-20.8-9.9-29.3s-14-15.2-25-20.1-26.9-7.4-44.6-7.4c-18.7 0-35.1 2.6-49.1 7.7-14.1 5.2-26 12.1-35.9 20.8-9.7 8.6-17.7 19-23.5 30.6-5.9 11.8-10.1 24.4-12.4 37.4-2.2 12-3 23.8-2.2 35.2 0.7 11.4 4.1 21.6 10.3 30.4 6.1 8.8 15.4 16.6 27.8 22s29.3 8.1 50.6 8.1c6.4 0 13.3-0.3 20.8-0.9s15.2-1.7 23.3-3.1c8.1-1.5 16.2-3.5 24.1-5.9 5.6-1.7 11.2-3.7 16.6-6.1l-9.7-45.9c-33.2 5.9-61.8 8-74.3-1.9-2.6-2.1-5.2-6.8-6-10.5s-0.7-8.3 0.4-14h115.1l2.8-18.8c1.2-9.8 1.5-19.3 0.8-28.3m-73.5 22.9h-40.2c1.6-8.7 4.6-16 8.9-22s10.4-9 18.1-8.9c7.4 0 11.9 2.8 13.4 8.5s1.5 13-0.2 22.4"/>
  <path class="st0" d="m413.6 0-7.4 146.6h58.8l47-146.6z"/>
  <path class="st0" d="m197.2 97c3.5-7 7.8-13.7 12.7-19.8 9.5-12.4 21.4-22.6 35-30.1h-37.2l-57.6 0.1-14.1 76c-6.3 1.4-11.4 2-15.5 2-18.2 0-16.6-12.1-15.5-17.9l11.2-60.3h-106.6l-9.6 51.7h17.9l-3.1 17.3c-2.3 12.5-2.3 22.9 0.2 31.1 2.4 8.2 6.4 14.8 12 19.7s12.4 8.3 20.4 10.3c7 1.7 14.5 3 22.4 3 1.1 0 2.1 0 3.2-0.1 31-1.4 47.1-9.4 55.1-13.6l-4.3 23.6c-2.4 13.3 0.2 24 7.8 32.2 7.7 8.2 19.6 11.7 35.7 11.7 5.6 0 13.3 0 22.9-1.2 4.2-0.5 12.9-1.8 22.4-3.7-1.7-1.2-3.3-2.4-4.9-3.7-5.7-4.3-10.5-9.2-14.3-14.7-7.1-10.3-11.2-22.3-12-35.5-0.8-12.2 0-24.9 2.4-37.8 2.5-13.9 7.1-27.5 13.4-40.3"/>
 </g>
</svg>
