<?xml version="1.0" encoding="UTF-8"?>
<svg id="icon-logo" width="800" height="376.37" version="1.1" viewBox="0 0 800 376.37" xmlns="http://www.w3.org/2000/svg" xmlns:cc="http://creativecommons.org/ns#" xmlns:dc="http://purl.org/dc/elements/1.1/" xmlns:rdf="http://www.w3.org/1999/02/22-rdf-syntax-ns#">
 <metadata id="metadata11">
  <rdf:RDF>
   <cc:Work rdf:about="">
    <dc:format>image/svg+xml</dc:format>
    <dc:type rdf:resource="http://purl.org/dc/dcmitype/StillImage"/>
    <dc:title/>
   </cc:Work>
  </rdf:RDF>
 </metadata>
 <path id="path2" d="m315.66 337.02c-12.263-16.526-19.711-35.65-22.11-56.831-2.2224-19.557-1.966-39.901 0.7921-60.461 3.0373-22.743 9.1575-44.454 18.19-64.536a167.71 167.71 0 0 1 39.115-54.41 162.8 162.8 0 0 1 19.022-15.101 14.93 14.93 0 0 0-14.246-10.411h-110.27c-7.4765 0-13.802 5.5276-14.793 12.936l-13.335 99.605c-3.2539 0.79209-6.6787 1.4702-10.303 2.0572-3.6243 0.59834-7.203 0.88897-10.736 0.88897-7.8697 0-14.497-1.8634-19.899-5.596-5.4079-3.7325-7.3397-11.289-5.8125-22.68l9.4026-70.32a14.919 14.919 0 0 0-14.793-16.89h-143.9c-7.4879 0-13.813 5.5276-14.799 12.936l-7.0548 52.666a14.924 14.924 0 0 0 14.81 16.89h16.566l-3.7097 27.695c-2.6897 20.03-1.7551 36.63 2.7752 49.788 4.5303 13.164 11.483 23.672 20.857 31.524 9.357 7.864 20.532 13.357 33.485 16.503 12.941 3.1456 26.698 4.707 41.246 4.707 14.947 0 28.789-1.2708 41.514-3.8294 12.736-2.5529 25.615-5.596 38.687-9.129l-3.8636 28.869c-2.8379 21.216 2.1996 38.408 15.13 51.56 12.919 13.158 32.311 19.74 58.159 19.74 9.0037 0 21.17-0.88327 36.488-2.6498 6.8211-0.7864 20.765-3.214 36.095-6.2912-13.392-8.1888-24.356-17.967-32.71-29.228" clip-rule="evenodd" fill="#d50311" fill-rule="evenodd" stroke-width="5.6985"/>
 <path id="path4" d="m799.79 22.783-15.175 90.886c-0.0741 0.54706-0.17096 1.0941-0.28493 1.6355l-22.925 98.049c-2.4561 11.916-13.62 21.142-25.586 21.142h-60.792c-11.956 0-20.651-9.2259-19.916-21.142l2.5074-98.043c0.0342-0.54706 0.0912-1.0941 0.15956-1.6412l15.187-90.886c1.6811-12.582 13.249-22.783 25.854-22.783h81.215c12.594 0 21.444 10.2 19.757 22.783zm-97.223 232.2c20.059 0 35.103 5.8923 45.132 17.677 10.012 11.785 13.876 26.327 11.557 43.605a62.456 62.456 0 0 1-7.75 22.68 71.22 71.22 0 0 1-15.842 19.153 79.284 79.284 0 0 1-22.122 13.26c-8.3085 3.3336-17.386 5.009-27.216 5.009-10.235 0-19.153-1.6754-26.76-5.0147-7.6132-3.3393-13.808-7.75-18.577-13.255a47.908 47.908 0 0 1-10.126-19.147 56.945 56.945 0 0 1-1.3904-22.686 66.337 66.337 0 0 1 7.8754-23.569 70.246 70.246 0 0 1 15.876-19.449 79.204 79.204 0 0 1 22.133-13.255c8.3028-3.3336 17.381-5.0147 27.21-5.0147zm-191.13-60.102h-48.967c1.4246-10.611 4.5759-19.535 9.488-26.812 4.9007-7.2656 12.075-10.901 21.518-10.901 9.0379 0 14.674 3.4419 16.908 10.314 2.2224 6.8724 2.5757 16.007 1.0542 27.399zm121.69-36.533c-2.3535-17.677-8.4338-33.297-18.213-46.848-9.7901-13.551-23.706-24.247-41.725-32.117-18.03-7.8526-41.183-11.779-69.505-11.779-29.895 0-55.914 4.1257-78.047 12.366-22.15 8.2572-40.745 19.358-55.783 33.297a150.03 150.03 0 0 0-35.154 48.911c-8.3996 18.663-14.013 38.596-16.851 59.812-2.5814 19.25-2.8322 38.004-0.7408 56.267 2.0686 18.264 8.3597 34.47 18.862 48.608 10.491 14.144 25.871 25.547 46.158 34.18 20.275 8.639 47.526 12.964 81.74 12.964 10.223 0 21.301-0.49578 33.234-1.4702a370.78 370.78 0 0 0 36.949-5.0147 338.24 338.24 0 0 0 38.129-9.4254 241.83 241.83 0 0 0 25.552-9.4767 15.529 15.529 0 0 0 9.0436-17.05l-9.4881-51.258a15.546 15.546 0 0 0-12.719-12.485 15.523 15.523 0 0 0-6.2798 0.24504c-9.5336 2.3136-19.136 4.3309-28.795 6.0575-16.321 2.9518-30.972 4.4221-43.953 4.4221-9.0493 0-17.027-0.59264-23.945-1.7665-6.918-1.1796-12.52-3.4362-16.794-6.7813-4.2739-3.3279-7.1916-7.9494-8.7643-13.847-1.5728-5.8866-1.7552-13.346-0.54706-22.384h161.03c7.7842 0 14.36-5.7555 15.397-13.466l0.7978-5.9835c2.6213-19.637 2.7638-38.3 0.41029-55.977" clip-rule="evenodd" fill="#d50311" fill-rule="evenodd" stroke-width="5.6985"/>
</svg>
