<svg id="a" width="1099.2pt" height="1101.1pt" version="1.1" viewBox="0 0 1099.2 1101.1" xmlns="http://www.w3.org/2000/svg">
 <g id="b" transform="translate(-110.72 -50.51)" fill="#e62c1f">
  <path id="c" d="m212.16 51.19c22.59-1.54 45.61-0.71 67.61 5.05 18.73 4.94 36.9 14.51 49.01 29.98 13.87 17.43 19.46 39.94 20.9 61.8 0.04 3.94 0.76 8.44-1.86 11.79-2.16 2.71-5.82 3.19-9.05 3.36-13.24 0.79-26.48 1.99-39.74 2.18-4.7 0.37-8.76-3.67-8.5-8.34 0-13.79-2.47-28.84-12.54-39.07-11.49-11.37-28.36-14.75-43.98-15.18-15.68-0.27-32.57 1.15-45.79 10.46-10.27 7.24-15.19 19.69-17.04 31.72-1.73 10.27-1.24 20.71-1.31 31.08v87.99c-0.15 12.7 0.03 25.73 4.31 37.84 2.86 8.49 8.3 16.25 16 21 11.82 7.39 26.17 9.09 39.83 9.17 15.76 0.03 32.71-2.47 45.26-12.77 10.42-8.51 14.49-22.33 15.05-35.32 0.39-3.86-0.57-8.27 1.93-11.59 2.24-3.01 6.35-3.09 9.76-2.95 13.17 0.57 26.35 1.38 39.5 2.4 4.29 0.26 8.13 3.77 8.17 8.19 0.35 10.8-1.37 21.59-3.79 32.09-4.42 18.69-14.01 36.64-29.28 48.64-18.55 14.7-42.38 20.62-65.55 22.66-21.72 1.71-43.82 1.11-65.12-3.76-18.75-4.33-37.09-12.85-50.35-27.11-13.06-13.86-20.04-32.38-22.9-50.98-1.47-9.41-1.99-18.96-1.95-28.48 0.01-30.37 0.01-60.73 0.01-91.1 0.11-17.36-0.76-34.9 2.51-52.06 3.48-19.9 12.27-39.53 27.77-52.93 19.49-17.14 45.8-23.82 71.13-25.76z"/>
  <path id="d" d="m409.4 56.63c3.45-0.97 7.09-0.55 10.63-0.63 11.67 0.11 23.36-0.22 35.02 0.16 4.57 0.14 7.99 4.3 7.8 8.77 0.07 101.02-0.01 202.05 0.04 303.08 0.07 2.93-0.34 6.17-2.56 8.32-2.47 2.36-6.09 2.38-9.28 2.42-11.69 0-23.38-0.01-35.07 0.01-3.24-0.06-6.92 0.01-9.48-2.32-2.36-2.09-2.73-5.44-2.75-8.4 0.01-100.66-0.02-201.33 0.01-301.99-0.17-3.88 1.59-8.3 5.64-9.42z"/>
  <path id="e" d="m562.07 56.005h647.8v1095.6h-365.64z"/>
  <path id="f" d="m112.63 447.63c1.93-2.58 5.36-3.2 8.39-3.14 11.31 0.03 22.62-0.01 33.93 0.01 3.6 0 7.29 0.99 10.15 3.26 3.33 2.52 5.03 6.45 7.15 9.92 38.76 66.21 77.39 132.49 116.22 198.66 0.36-67.43 0.04-134.87 0.17-202.3 0.02-2.72 0.71-5.68 2.89-7.49 2.05-1.77 4.88-2.07 7.49-2.06 12.67 0.02 25.34 0.01 38.02 0 5.58-0.82 10.79 3.78 10.2 9.48 0.03 101.01-0.01 202.01 0.02 303.01 0.04 2.97-0.62 6.32-3.11 8.24-2.59 2.03-6.05 1.91-9.16 1.93-10.99-0.1-21.99 0.08-32.98-0.09-5.67-0.08-10.91-3.54-13.57-8.48-39.67-67.91-79.38-135.79-119.05-203.7-0.03 67.38-0.02 134.77 0 202.15-0.01 2.74-0.46 5.78-2.58 7.74-2.07 1.96-5.05 2.37-7.78 2.36-12.68-0.01-25.35-0.01-38.03 0-2.71-0.02-5.68-0.42-7.7-2.4-2.06-1.99-2.54-4.99-2.55-7.72-0.01-99.32 0.01-198.64-0.01-297.95 0.1-3.83-0.55-8.16 1.89-11.43z"/>
  <path id="g" d="m409.77 454.06c-0.5-5.25 3.88-10.02 9.22-9.55 61.01-0.02 122.02-0.02 183.03 0 4.87-0.43 9.33 3.6 9.17 8.54 0.16 10.97 0 21.94 0.08 32.91 0.06 3.23-0.51 6.96-3.34 8.97-2.89 2.11-6.64 1.66-10 1.71-43.01-0.03-86.03-0.02-129.05-0.01 0 24.71-0.03 49.41 0.01 74.12 38.04-0.01 76.08 0 114.11 0 2.95-0.05 6.23 0.74 8.06 3.25 1.89 2.58 1.81 5.95 1.83 9-0.06 10.03 0.03 20.07-0.04 30.1-0.03 3-0.82 6.42-3.49 8.17-3.04 2.08-6.87 1.54-10.33 1.62-36.72-0.03-73.43-0.01-110.15-0.01 0 30.66-0.02 61.33 0.01 91.99 43.69 0.01 87.39 0 131.08 0.01 3 0.04 6.38 0.18 8.66 2.41 2.14 1.92 2.61 4.94 2.62 7.67 0.01 10.33-0.02 20.66 0.02 31 0.01 2.84-0.15 5.97-2.08 8.26-1.99 2.39-5.29 2.93-8.22 2.91-60.31-0.01-120.62-0.01-180.92 0-2.95 0.03-6.26-0.55-8.24-2.95-1.9-2.28-2.06-5.38-2.07-8.2 0.04-100.64-0.03-201.28 0.03-301.92z"/>
  <path id="h" d="m118.64 827.49c10.11-0.29 20.23-0.02 30.35-0.12 4.39 0.04 9.03-0.44 13.12 1.53 3.29 1.61 5.25 4.93 6.65 8.18l97.92 233.22 98.32-233.18c1.35-3.11 3.13-6.31 6.19-8.02 3.29-1.8 7.17-1.76 10.82-1.74 10.35 0.04 20.7-0.01 31.05 0.02 2.99-0.02 6.34 0.79 8.09 3.44 2.23 3.27 1.63 7.43 1.73 11.18-0.02 99-0.01 198 0 297-0.01 2.93-0.27 6.23-2.43 8.47-1.92 1.97-4.78 2.53-7.43 2.53-12.32 0.02-24.63-0.03-36.95 0.02-2.98 0.03-6.3-0.26-8.51-2.5-2.19-2.24-2.5-5.53-2.45-8.49 0.05-57.57-0.03-115.15 0.05-172.72-23.81 56.46-47.6 112.92-71.4 169.39-1.69 3.83-2.95 8.05-5.99 11.09-2.82 2.78-7.03 3.17-10.79 3.22-6.99-0.02-13.99-0.01-20.98-0.01-3.49-0.07-7.31-0.42-10.06-2.8-3.42-3.06-4.73-7.62-6.52-11.68-23.65-56.05-47.18-112.15-70.91-168.17-0.03 57.55 0 115.1-0.01 172.65-0.02 2.79-0.57 5.88-2.77 7.83-2.1 1.83-5 2.2-7.68 2.18-12.37-0.02-24.74-0.01-37.1 0-2.68 0.01-5.58-0.44-7.6-2.34-2.07-1.97-2.58-4.96-2.6-7.68 0-100.99-0.02-201.99 0.01-302.98-0.39-4.68 2.96-9.42 7.88-9.52z"/>
  <path id="i" d="m562.08 829.97c3.68-1.86 7.92-1.58 11.92-1.61 12.87 0.12 25.75-0.17 38.61 0.14 5.61 0.01 10.06 4.37 11.47 9.59 31.89 99.32 63.67 198.67 95.54 297.99 1.15 3.69 2.97 7.84 1.04 11.59-1.73 3-5.55 3.4-8.66 3.35-14.01-0.09-28.03 0.08-42.04-0.08-4.44 0.08-8.19-3.24-9.32-7.41-6.07-19.74-12.01-39.52-18.03-59.27-34.84-0.02-69.67 0-104.5-0.01-5.97 19.61-11.84 39.25-17.84 58.85-1.06 4.21-4.68 7.76-9.17 7.81-14.38 0.22-28.77 0.01-43.15 0.1-2.9 0.03-6.31-0.37-8.11-2.95-1.72-2.59-1.16-5.91-0.31-8.69 32.11-100.19 64.24-200.38 96.34-300.58 1.16-3.42 2.85-7.09 6.21-8.82m28.36 82.62-37.42 123.15 74.84-0.01z"/>
 </g>
</svg>
