<svg id="a" version="1.1" viewBox="0 0 800 244.32" xml:space="preserve" xmlns="http://www.w3.org/2000/svg"><g id="b" transform="matrix(1.3333 0 0 -1.3333 -399.7 38.208)"><g id="c" transform="matrix(10.705 0 0 10.705 871.46 -126.47)"><path id="d" d="m0 0h-10.135v11.864h4.546v-8.37h5.589zm-12.801-2.626h15.446v17.117h-15.446zm-28.186 8.601c0-1.189-0.959-2.151-2.148-2.151-1.188 0-2.15 0.962-2.15 2.151 0 1.185 0.962 2.147 2.15 2.147 1.189 0 2.148-0.962 2.148-2.147m-7.663 4.603c0.655 0.5 1.392 0.864 2.212 1.113 0.839 0.25 1.762 0.365 2.783 0.365 0.716 0 1.329-0.038 1.802-0.115 0.47-0.096 0.943-0.174 1.412-0.25v-3.128c-0.186 0.077-0.388 0.134-0.594 0.191-0.184 0.057-0.39 0.098-0.593 0.133-0.204 0.04-0.409 0.06-0.573 0.078-0.164 0.038-0.348 0.038-0.513 0.038-1.022 0-1.863-0.249-2.478-0.766-0.613-0.519-0.92-1.248-0.92-2.208 0-0.979 0.307-1.729 0.9-2.266 0.595-0.538 1.372-0.806 2.358-0.806 0.223 0 0.427 0.019 0.613 0.039 0.184 0 0.369 0.037 0.593 0.095 0.244 0.039 0.449 0.077 0.613 0.116 0.186 0.057 0.388 0.114 0.636 0.211v-3.13c-0.391-0.114-0.9-0.229-1.556-0.326-0.308-0.058-0.594-0.096-0.88-0.115-0.289-0.039-0.554-0.039-0.82-0.039-2.089 0-3.769 0.52-5.035 1.557-1.394 1.131-2.07 2.706-2.07 4.74 0 1.882 0.696 3.38 2.11 4.473m-4.752-13.204h15.625v17.117h-15.625zm21.64 14.49h6.819l2.19-8.37 0.041 8.37h3.912v-11.864h-6.696l-2.312 8.601-0.042-8.601h-3.912zm-2.621-14.49h18.183v17.117h-18.183z" fill="#2a4a9b" fill-rule="evenodd"/></g></g></svg>
