<svg width="181.43mm" height="42.413mm" version="1.1" viewBox="0 0 181.43 42.413" xmlns="http://www.w3.org/2000/svg">
 <g transform="translate(107.73 -127.63)" stroke-width=".35278">
  <g transform="translate(-115.28 117.17)">
   <path d="m21.143 22.275c1.5558 0.254 2.7728 1.337 4.1381 2.0426 4.1487 2.48 12.586 7.3737 12.586 7.3737s-9.6513 5.5768-14.4 8.4167c-0.74436 0.41275-1.4887 1.0019-2.3954 0.8643 1.9861-3.2985 6.8227-9.3169 6.8227-9.3169s-3.9899-5.2564-5.9972-7.874c-0.34925-0.45156-0.55033-0.98425-0.75494-1.5064z" fill="#f05"/>
   <g fill="#1f9bde">
    <path d="m24.741 10.722c4.4238-0.70908 9.0805-0.0035 13.053 2.0708 5.0553 2.5612 9.007 7.2582 10.569 12.704 0.15988 0.5573 0.34816 1.3891-0.29986 1.7533-1.8839 1.0589-3.7068 2.2292-5.6021 3.2597-0.64854 0.3526-1.206-0.25658-1.2876-0.93133-0.61874-5.1124-4.7343-9.5144-9.7261-10.795-3.9017-1.0407-8.2691-0.18697-11.451 2.3072-2.8046 2.1096-4.6678 5.3748-5.1259 8.8336-0.09971 0.75289-1.0353 0.75795-1.5522 0.42686-1.8209-1.1662-3.8512-2.0329-5.5598-3.3584-0.1234-0.095736-0.22687-0.43998-0.19403-0.59267 1.7392-8.0851 9.0064-14.542 17.177-15.677z"/>
    <path d="m13.46 32.908c0.44768-0.26213 1.2716-0.39192 1.3652 0.05292 0.84119 3.9956 2.7411 7.8952 6.2477 10.022 3.9793 2.5329 9.3028 2.667 13.402 0.33867 3.6266-2.0073 6.2572-5.7382 6.7592-9.8496 0.09456-0.7744 0.92612-0.88224 1.4887-0.53975 1.7743 1.0801 3.5941 2.0965 5.3622 3.1856 0.62113 0.38258 0.43611 1.1961 0.27164 1.7568-1.5926 5.4301-5.528 10.1-10.569 12.672-5.3234 2.7587-11.822 3.0515-17.41 0.91017-6.1524-2.3354-10.979-7.762-12.739-14.111-0.18229-0.65756 0.19441-1.1675 0.71967-1.457 1.7234-0.94965 3.4018-1.986 5.1012-2.981z"/>
   </g>
  </g>
  <g transform="translate(-115.28 117.17)" fill="#042b45">
   <path d="m68.472 12.387c2.3954-1.2277 5.1682-1.7004 7.8317-1.2947 1.8098 0.29281 3.5207 1.4393 4.2263 3.1715 0.99836 2.3742 0.74083 5.013 0.77611 7.5248 0.04939 2.8892-0.17286 5.7961 0.29281 8.6607-1.5699 0.01058-3.1397 0.0071-4.7061 0.0035-0.07408-0.59267-0.14817-1.1818-0.21519-1.7709-1.5981 2.0814-4.7519 2.8293-6.9815 1.3194-2.9669-2.0884-3.1609-6.7945-0.88194-9.4615 1.8098-2.0391 4.6355-2.7058 7.2566-2.8293 0.02117-1.1007-0.40217-2.3389-1.5452-2.7093-1.7392-0.4833-3.5631 0.0882-5.0976 0.92781-0.29633-1.1853-0.62794-2.3636-0.95603-3.5419m4.9424 9.5391c-1.4852 1.0054-1.6087 3.4396-0.34219 4.6567 1.1994 0.98778 2.988-0.22578 3.0833-1.6157 0.09172-1.2735 0.01764-2.5541 0.02822-3.8312-0.94544 0.14464-1.972 0.20461-2.7693 0.79022z"/>
   <path d="m84.361 13.498c1.4534-1.6616 3.6548-2.5118 5.8385-2.5188 4.9989-0.03175 10.001 0 15.004-0.01411 4e-3 1.4993 4e-3 2.9986 4e-3 4.4979h-4.0569v14.993h-5.2917v-14.993c-1.9368 0.01411-3.8947-0.0635-5.8067 0.254-1.711 0.33161-2.7799 2.0108-2.9704 3.6477-0.37747 2.2825-0.07761 5.0588 1.8732 6.5793 1.2206 0.89253 2.8328 0.52564 4.1875 0.19756 0.29633 1.2876 0.6103 2.5753 0.90311 3.8629-2.4095 0.81844-5.1153 1.21-7.5248 0.16933-2.7764-1.1042-4.3603-4.0181-4.6814-6.8756-0.36689-3.3937 0.10936-7.2002 2.5224-9.8002z"/>
   <path d="m110.12 11.12c2.6247-0.75847 5.7926-0.34925 7.7435 1.6969 2.0602 2.1802 2.5576 5.3411 2.4836 8.2303-0.0917 2.6811-0.61384 5.5774-2.5259 7.5953-2.0743 2.1378-5.4222 2.5612-8.1774 1.718-2.6035-0.8255-4.2792-3.3443-4.8401-5.9126-0.65264-3.0374-0.5962-6.3359 0.69497-9.204 0.87842-1.9438 2.5612-3.5137 4.6214-4.124m1.7745 3.8135c-1.1924 0.6597-1.6651 2.0673-1.9262 3.3232-0.41275 2.2825-0.35278 4.7449 0.59972 6.8933 0.39511 0.81139 1.1748 1.8027 2.1908 1.5487 1.1712-0.49036 1.6263-1.7992 1.9015-2.9386 0.50094-2.473 0.51153-5.1611-0.52564-7.5036-0.36336-0.81844-1.2629-1.838-2.2401-1.3229z"/>
   <path d="m162.74 12.838c2.4941-2.5118 7.2884-2.667 9.4827 0.31397 2.0285 2.7199 1.8627 6.3218 1.711 9.5391-3.0621 0.01411-6.1242-0.01764-9.1828 0.01764 0.16228 1.33 0.55739 2.8434 1.8627 3.489 1.8486 0.90664 4.0005 0.40569 5.8949-0.10583 0.23989 1.2629 0.48331 2.5224 0.71967 3.7888-2.9669 0.87489-6.3288 1.337-9.2287 0.01411-2.6458-1.2524-3.9158-4.2192-4.1275-7.0026-0.30339-3.5101 0.25753-7.4683 2.8681-10.054m2.0673 6.2406c1.5134 0.0035 3.0304 0.0035 4.5473 0-0.20109-1.5028-0.13406-3.7253-1.8803-4.3145-2.1943-0.08114-2.48 2.6846-2.667 4.3145z"/>
   <path d="m177.81 12.743c2.4836-2.4165 7.1579-2.5188 9.331 0.35983 2.0073 2.734 1.9791 6.35 1.7427 9.5814-3.041 0.02117-6.0854 0.0035-9.1264 0.01058 0.0353 1.5064 0.70203 3.1468 2.219 3.7006 1.7886 0.5962 3.7359 0.20461 5.4963-0.32456 0.22931 1.2735 0.47625 2.54 0.70909 3.8135-3.0798 0.889-6.6181 1.4005-9.5638-0.16228-2.7693-1.5416-3.8418-4.9036-3.8312-7.9022-0.14464-3.2314 0.56797-6.7839 3.0233-9.077m3.4078 2.3319c-1.1465 0.98425-1.2876 2.6035-1.4534 4.004 1.5028 0.0035 3.0021 0.0035 4.505-0.0035-0.0811-1.2524-0.10936-2.6211-0.87489-3.6795-0.47625-0.6738-1.5452-0.89606-2.1766-0.32103z"/>
   <path d="m52.29 11.23h5.2035v7.2319h3.8806v-7.2319h5.2035l-0.0035 19.226h-5.1999v-7.4965h-3.8806v7.4965h-5.2035v-19.226z"/>
   <path d="m121.68 13.406c1.3652-1.6051 3.5701-2.0144 5.5633-2.2084 2.4412-0.13758 4.9036-0.08819 7.3342 0.23283-0.0141 6.3429 4e-3 12.686-7e-3 19.029-1.6757-0.0071-3.3479-0.0035-5.0236-0.0035-7e-3 -2.5224 0.0106-5.0447-0.0106-7.5671-0.93486 0.09878-1.9614 0.32103-2.5118 1.1677-1.2771 1.9156-1.2806 4.3321-2.1872 6.4029-1.8168-0.0071-3.6336-0.01058-5.4469 0.0035 1.397-2.3213 1.3582-5.2529 3.0198-7.4436 0.59619-0.83256 1.5416-1.2771 2.473-1.6298-1.7639-0.39511-3.6089-1.4252-4.1628-3.2597-0.41275-1.5981-0.22931-3.4854 0.95956-4.7237m5.0553 1.4922c-1.397 0.93839-1.2982 3.2491 0.0247 4.2086 0.78669 0.70908 1.8803 0.69144 2.8716 0.70556 4e-3 -1.7851 0.0106-3.5666-4e-3 -5.3516-0.9772-0.0635-2.0496-0.16228-2.8928 0.43744z"/>
   <path d="m136.16 11.23h5.1153v14.993l3.6124 0.0035 4e-3 -14.997h5.1153v14.993h3.5278v-14.993h5.1153v15.434h1.7745l-0.1905 9.084-3.9511 0.0071-0.28222-5.3022-19.84 0.0035v-19.226z"/>
   <path d="m52.198 32.774c3.937-0.39158 8.1844-0.94544 11.913 0.71967 2.413 1.0478 2.9986 4.4027 1.5064 6.4347-0.66322 0.98778-1.7709 1.5558-2.8892 1.8768 1.5804 0.23636 3.1997 1.0019 3.9829 2.4659 1.2982 2.2684 0.254 5.4257-2.0779 6.5617-3.8276 1.9368-8.2973 1.5663-12.439 1.2982 0.01764-6.4523 0.01058-12.905 0.0035-19.357m5.0271 3.1362c0.0071 1.5099 0.0035 3.0198 0.0035 4.5297 1.21-0.0071 2.5541 0.02469 3.5419-0.79728 1.0548-0.80786 0.98778-2.6952-0.20814-3.3373-1.0054-0.59972-2.2225-0.48683-3.3373-0.39511m0.0035 7.941c0 1.6581-0.0035 3.3161 0 4.9742 1.3899 0.1023 3.0409 0.20108 4.1346-0.82903 1.0089-0.89253 0.82903-2.6705-0.25047-3.4325-1.1254-0.79375-2.5718-0.70908-3.8841-0.71261z"/>
   <path d="m85.239 34.495c2.48-2.7376 7.5565-2.9669 9.8037 0.16933 1.9791 2.7693 1.9121 6.3923 1.6722 9.6344-3.0727 0.0071-6.1454-0.0071-9.2146 0.0071 0.11289 1.3264 0.53269 2.8081 1.8062 3.4713 1.8803 0.94192 4.0746 0.4198 6.0043-0.10231 0.21872 1.2735 0.46214 2.5435 0.72319 3.8065-2.9281 0.88194-6.2512 1.3617-9.144 0.11994-2.6988-1.1571-4.0711-4.1063-4.3251-6.8898-0.37394-3.5419 0.15875-7.5142 2.6741-10.216m3.6124 2.1731c-1.0372 1.0195-1.1465 2.5647-1.337 3.9264 1.5311 0.0071 3.0621 0.0071 4.5932 0-0.14464-1.2982-0.14817-2.7376-1.0019-3.81-0.51858-0.72672-1.6475-0.71967-2.2542-0.11642z"/>
   <path d="m68.341 32.88c2.9739-0.35631 6.0184-0.51153 8.9852-0.02469 2.0743 0.31044 4.2157 1.464 4.9424 3.5454 0.74083 2.4694-0.05997 5.4575-2.2648 6.9286-1.9226 1.337-4.4132 1.2594-6.6393 0.98072 0.0071 2.5859 0 5.1682 0.0035 7.7541-1.6757-0.0035-3.3514-0.0035-5.0271 0-0.0035-6.3959 0-12.792 0-19.184m5.0341 3.0445c-0.01411 1.8062-0.01058 3.616-0.0035 5.4257 1.0654 0.0247 2.2366-0.09878 3.0304-0.89606 1.0866-0.9772 1.1712-2.8787 0.10936-3.9017-0.86431-0.75494-2.0708-0.66322-3.1362-0.62794z"/>
   <path d="m99.061 32.657 6.4982 0.0035 2.7622 11.913 2.5012-11.903 6.5299-0.01058 1.2806 19.396-4.953 0.0071-0.37748-14.686-3.2314 14.686h-4.1238l-3.2106-14.975-0.26811 14.975-4.7837-0.0071 1.3758-19.399z"/>
   <path d="m121.94 34.474c1.4217-1.3511 3.4749-1.6439 5.3446-1.8486 2.4306-0.13406 4.8754-0.07408 7.2884 0.254-4e-3 6.3923 0 12.788 0 19.184-1.6792 0-3.3549 0-5.0271-0.0035-7e-3 -2.5506 0.0176-5.1047-0.0176-7.6553-0.9278 0.14111-1.9579 0.32456-2.5224 1.1677-1.3688 1.9085-1.3264 4.3886-2.2578 6.4911-1.838 0.0035-3.6759-0.01058-5.5139 0.0071 1.4499-2.3636 1.3758-5.4046 3.1538-7.6024 0.61383-0.80081 1.5522-1.2347 2.4871-1.5381-1.2065-0.28928-2.4412-0.75142-3.302-1.6863-1.7992-1.8203-1.5416-5.1259 0.36689-6.7698m4.9071 1.7815c-1.5522 0.7867-1.5769 3.2138-0.27517 4.251 0.77964 0.77964 1.9297 0.85372 2.9704 0.85725 7e-3 -1.8168 0.0106-3.6371-7e-3 -5.4539-0.90311 0.01764-1.8732-0.12347-2.6882 0.34572z"/>
  </g>
 </g>
</svg>
