<svg id="a" width="1869.7" height="533.33" version="1.1" viewBox="0 0 1752.8 500" xml:space="preserve" xmlns="http://www.w3.org/2000/svg"><g id="b" transform="matrix(1.7826 0 0 1.7826 .0025584 .0024628)" fill="#fff"><path id="c" d="m273.84 104.22c-27.186 0-43.774 15.053-43.774 42.7 0 27.801 16.435 42.546 43.774 42.546 24.575 0 41.01-5.529 41.01-21.504 0-2.61-1.996-4.607-4.608-4.607h-11.212c-3.84 0-6.604 1.536-8.601 3.993-2.611 3.226-8.294 5.069-14.745 5.069-12.595 0-18.124-5.376-19.199-17.664h56.523c2.611 0 4.608-1.996 4.608-4.607v-4.301c-1e-3 -27.034-16.436-41.625-43.776-41.625zm-17.51 34.713c0.614-11.52 6.451-17.664 17.51-17.664 11.366 0 16.896 6.144 17.356 17.664z"/><path id="d" d="m382.44 170.72h-2.765c-3.379 0-6.297 0.921-10.291 0.921-7.833 0-13.209-5.529-13.209-15.974v-27.494h20.889c2.611 0 4.608-1.996 4.608-4.608v-8.908c0-2.611-1.997-4.608-4.608-4.608h-20.889v-25.036c0-2.611-1.997-4.608-4.608-4.608h-16.742c-2.611 0-4.608 1.997-4.608 4.608v70.654c0 23.039 10.752 33.791 32.255 33.791 6.912 0 15.359-0.614 19.967-1.536 2.611-0.461 4.608-2.304 4.608-4.607v-7.987c1e-3 -2.612-1.995-4.608-4.607-4.608z"/><path id="e" d="m435.74 104.22c-27.186 0-43.774 15.053-43.774 42.7 0 27.801 16.435 42.546 43.774 42.546 24.575 0 41.01-5.529 41.01-21.504 0-2.61-1.997-4.607-4.608-4.607h-11.213c-3.84 0-6.604 1.536-8.601 3.993-2.611 3.226-8.294 5.069-14.745 5.069-12.595 0-18.124-5.376-19.199-17.664h56.523c2.611 0 4.607-1.996 4.607-4.607v-4.301c1e-3 -27.034-16.434-41.625-43.774-41.625zm-17.51 34.713c0.614-11.52 6.451-17.664 17.51-17.664 11.366 0 16.896 6.144 17.356 17.664z"/><path id="f" d="m557.54 160.28c-4.607-7.372-9.676-11.673-15.974-13.516 6.604-1.383 12.748-6.759 15.974-13.517l9.677-20.428c1.843-3.994 1.383-7.065-2.611-7.065h-14.131c-4.454 0-8.755 2.765-10.751 7.065l-7.219 15.359c-3.072 6.451-8.909 10.137-17.817 10.137v-53.297c0-2.611-1.997-4.608-4.608-4.608h-16.741c-2.611 0-4.608 1.997-4.608 4.608v98.301c0 2.61 1.997 4.607 4.608 4.607h16.741c2.611 0 4.608-1.997 4.608-4.607v-27.955c6.912 0 13.67 3.226 17.817 9.984l9.522 15.513c2.457 3.993 6.604 7.065 11.52 7.065h14.131c3.993 0 5.068-3.072 2.611-7.065z"/><path id="g" d="m633.26 170.72h-2.765c-3.379 0-6.297 0.921-10.29 0.921-7.834 0-13.21-5.529-13.21-15.974v-27.494h20.89c2.61 0 4.608-1.996 4.608-4.608v-8.908c0-2.611-1.997-4.608-4.608-4.608h-20.89v-25.036c0-2.611-1.996-4.608-4.607-4.608h-16.742c-2.61 0-4.607 1.997-4.607 4.608v70.654c0 23.039 10.752 33.791 32.255 33.791 6.912 0 15.359-0.614 19.967-1.536 2.611-0.461 4.608-2.304 4.608-4.607v-7.987c-1e-3 -2.612-1.998-4.608-4.609-4.608z"/><path id="h" d="m667.21 78.874h-9.369c-5.376 0-8.602 3.225-8.602 8.601v2.611c0 5.375 3.226 8.601 8.602 8.601h9.369c5.376 0 8.602-3.226 8.602-8.601v-2.611c-1e-3 -5.376-3.226-8.601-8.602-8.601z"/><path id="i" d="m670.89 107.6h-16.742c-2.611 0-4.608 1.997-4.608 4.608v71.115c0 2.61 1.997 4.607 4.608 4.607h16.742c2.61 0 4.607-1.997 4.607-4.607v-71.115c1e-3 -2.611-1.996-4.608-4.607-4.608z"/><path id="j" d="m779.48 105.75h-14.438c-4.146 0-8.447 2.611-10.137 6.604l-20.429 46.693-20.428-46.693c-1.69-3.993-5.99-6.604-10.138-6.604h-14.438c-3.533 0-4.762 2.918-3.072 6.604l32.409 68.964c1.843 3.993 5.99 6.604 10.137 6.604h11.059c4.147 0 8.295-2.611 10.138-6.604l32.408-68.964c1.69-3.686 0.461-6.604-3.071-6.604z"/><path id="k" d="m802.37 163.66h-9.216c-6.451 0-10.138 3.685-10.138 10.137v4.762c0 6.451 3.686 10.137 10.138 10.137h9.216c6.451 0 10.137-3.686 10.137-10.137v-4.762c0-6.452-3.686-10.137-10.137-10.137z"/><path id="l" d="m879.78 170.72h-2.765c-3.379 0-6.297 0.921-10.29 0.921-7.834 0-13.21-5.529-13.21-15.974v-27.494h20.89c2.61 0 4.607-1.996 4.607-4.608v-8.908c0-2.611-1.997-4.608-4.607-4.608h-20.89v-25.036c0-2.611-1.996-4.608-4.607-4.608h-16.742c-2.61 0-4.607 1.997-4.607 4.608v70.654c0 23.039 10.752 33.791 32.255 33.791 6.912 0 15.359-0.614 19.967-1.536 2.611-0.461 4.608-2.304 4.608-4.607v-7.987c-1e-3 -2.612-1.998-4.608-4.609-4.608z"/><path id="m" d="m979.47 105.75h-14.439c-4.146 0-8.447 2.611-10.137 6.604l-20.429 46.693-20.428-46.693c-1.689-3.993-5.99-6.604-10.138-6.604h-14.438c-3.533 0-4.762 2.918-3.072 6.604l32.409 68.964c1.843 3.993 5.99 6.604 10.137 6.604h11.059c4.147 0 8.295-2.611 10.138-6.604l32.408-68.964c1.69-3.686 0.462-6.604-3.07-6.604z"/></g><g id="n" transform="matrix(1.7826 0 0 1.7826 .0025584 .0024628)" fill="#ff6d00"><path id="o" d="m172.7 211.5c-0.186-0.102-0.379-0.199-0.57-0.296-0.238-0.117-0.473-0.234-0.699-0.372-1.206-0.739-2.348-1.458-3.531-2.188-2.799 1.838-5.818 3.498-9.049 4.992 1.272 0.768 2.547 1.535 3.802 2.284 1.731 1.04 3.462 2.076 5.188 3.124 1.331 0.808 2.583 1.221 3.721 1.219 1.149 0 2.771-0.432 3.982-2.491 0.584-0.989 0.754-1.958 0.504-2.879-0.428-1.587-2.014-2.646-3.348-3.393z"/><path id="p" d="m153.96 141.55c-2e-3 -2.919-0.089-5.689-0.255-8.325-7.833-8.842-16.108-17.699-26.942-24.048-6.514-3.819-13.484-5.836-20.151-5.836-7.435 0-14.008 2.61-18.505 7.351-9.812 10.352-11.991 22.451-6.306 34.999 5.086 11.221 13.569 20.193 24.739 30.211 5.012 4.497 10.44 8.954 16.368 13.467 4.09-0.836 7.697-1.953 10.849-3.381-8.363-6.134-16.205-12.455-23.638-19.352-10.321-9.571-16.743-18.546-20.216-28.243-2.843-7.952 0.678-17.518 8.373-22.75 2.68-1.82 6.094-2.784 9.875-2.784 4.451 0 9.082 1.296 13.388 3.738 9.9 5.624 17.254 13.646 24.367 21.401l3.681 4.019c1.405 1.534 2.863 3.104 4.284 4.655 0.056-1.662 0.089-3.36 0.089-5.122z"/><path id="q" d="m130.12 95.742c-7.442-2.58-16.981-3.799-29.127-3.789l-9.737 0.011c-8.373 3.601-15.789 9.907-20.689 17.501l0.038 43.578c2.284 4.033 5.187 7.996 8.72 11.871 3.536 3.886 7.393 7.626 11.121 11.244 2.183 2.116 4.367 4.232 6.499 6.389 2.925 2.958 3.572 5.737 1.991 8.685-0.207-0.158-0.418-0.316-0.625-0.475-0.969-0.727-1.884-1.413-2.666-2.202-2.234-2.247-4.49-4.476-6.749-6.701-5.804-5.727-11.805-11.651-17.259-17.78-0.357-0.403-0.684-0.798-1.025-1.199l0.014 14.492c2.838 2.998 5.76 5.89 8.691 8.694 1.83 1.749 3.715 3.475 5.633 5.193l16.131-0.013c3.101-5e-3 6.01-0.097 8.777-0.26-0.102-0.564-0.211-1.127-0.338-1.689-0.209-0.899-0.406-1.749-0.484-2.595-0.373-3.978-2.221-7.46-5.818-10.958-1.39-1.352-2.792-2.698-4.194-4.045-5.102-4.89-10.374-9.943-14.921-15.33-6.634-7.861-9.754-16.609-9.277-25.999 0.385-7.567 3.314-14.421 8.951-20.95 6.492-7.523 14.859-11.664 23.558-11.664 5.597 0 11.333 1.669 17.05 4.967 9.484 5.469 17.875 12.028 24.935 19.494 1.354 1.431 2.575 2.83 3.723 4.217-1.157-8.335-3.514-15.012-7.531-20.193-4.556-3.62-9.665-7.098-15.392-10.494z"/><path id="r" d="m159.75 231.41c-0.316-0.643-1.007-0.928-1.676-1.206-0.254-0.104-0.515-0.209-0.729-0.339-3.852-2.311-7.697-4.625-11.545-6.945-1.751-1.056-3.511-2.098-5.265-3.153-4.36 1.002-9.006 1.789-13.916 2.394 6.659 4.177 13.737 8.365 21.322 12.606 0.551 0.307 1.102 0.63 1.653 0.954 1.881 1.102 3.823 2.243 5.928 2.84 0.341 0.103 0.738 0.15 1.18 0.15 1.665 0 3.855-0.727 4.487-1.904 0.676-1.275-0.263-3.101-1.091-4.707z"/><path id="s" d="m195.67 175.35c-0.831-0.699-1.721-1.326-2.592-1.942-0.9 3.125-1.964 6.093-3.185 8.918 2.606 2.083 5.248 1.971 7.045-0.27 1.011-1.266 2.192-3.816-1.268-6.706z"/><path id="t" d="m23.702 76.224c1.278-0.568 2.512-1.216 3.743-1.863l-2e-3 -3.651c-6e-3 -3.569 1.629-6.7 4.181-8.714-4.298 1.887-8.614 3.962-12.954 6.252-1.316 0.692-2.58 1.514-2.928 2.848-0.232 0.885-0.01 1.857 0.661 2.893 1.736 2.689 4.439 3.518 7.299 2.235z"/><path id="u" d="m217.92 126.71c-0.505-1.02-1.002-2.039-1.497-3.065-1.512-3.117-3.077-6.344-4.902-9.402-8.488-14.185-20.043-28.299-35.333-43.152-7.995-7.764-16.892-14.99-25.317-21.721-4.418-3.518-8.268-3.468-9.926-0.225-1.948 3.807 0.977 5.385 3.113 6.537 0.543 0.291 1.086 0.582 1.555 0.908 2.346 1.621 4.732 3.186 7.121 4.752l0.704 0.465c-0.533-0.21-1.071-0.414-1.611-0.6-2.874-0.992-5.785-2.094-8.601-3.164-6.262-2.377-12.737-4.832-19.315-6.234-10.278-2.185-20.629-3.294-30.771-3.294-18.944 0-37.546 3.726-56.407 11.323 0.484-0.066 0.963-0.15 1.471-0.15l31.723-0.028c7.937-1.464 15.841-2.192 23.771-2.192 9.055 0 18.213 1 27.34 2.952 35.942 3.161 57.992 16.103 68.52 39.71 0.558 0.671 1.162 1.299 1.703 1.986 8.289 10.505 14.436 20.489 18.793 30.519 1.076 2.479 2.453 3.738 4.098 3.738 0.523 0 1.062-0.133 1.604-0.398 1.777-0.867 2.682-3.125 3.33-5.221 0.352-1.123-0.314-2.402-0.903-3.535z"/><path id="v" d="m189.07 184.13c-1.262 2.698-2.669 5.268-4.251 7.68 0.715 0.311 1.443 0.521 2.181 0.521 1.296 0 2.427-0.612 3.362-1.818 0.809-1.043 1.146-2.082 1-3.09-0.183-1.294-1.137-2.348-2.292-3.293z"/><path id="w" d="m153.47 153.08c-2.945-2.886-5.91-5.783-8.799-8.631l-7.386-7.267c-1.079-1.059-2.142-2.135-3.2-3.205-5.236-5.287-10.18-10.285-16.259-12.927-3.194-1.233-6.28-1.861-9.169-1.861-7.118 0-12.492 3.768-14.749 10.337-2.048 5.966 0.454 11.341 2.862 15.359 4.855 8.092 10.56 15.106 17.442 21.437 7.188 6.614 14.437 12.764 21.802 18.554 2.811-1.509 5.227-3.296 7.287-5.385-9.652-7.468-18.095-15.17-25.654-23.367-4.431-4.802-8.821-10.507-13.426-17.445-2.293-3.452-1.935-6.703 0.977-8.923 3.023-2.3 7.199-2.097 11.055 0.537 2.363 1.614 4.286 3.175 5.875 4.78 4.232 4.272 8.418 8.578 12.604 12.887 3.727 3.835 7.455 7.667 11.211 11.476 1.828 1.854 3.644 3.639 5.451 5.388 0.999-3.527 1.673-7.435 2.076-11.744z"/><path id="x" d="m178.73 202.99c-0.362-0.203-0.711-0.429-1.061-0.658-0.332-0.214-0.661-0.428-1.002-0.627-0.011-5e-3 -0.023-0.012-0.033-0.021-2.308 2.224-4.812 4.278-7.532 6.158 1.556 0.942 3.164 1.896 4.831 2.75 1.125 0.576 2.195 0.872 3.185 0.872 1.537 0 2.85-0.713 3.796-2.06 0.757-1.073 1.024-2.132 0.793-3.146-0.277-1.233-1.251-2.3-2.977-3.268z"/><path id="y" d="m148.98 238.51c-0.268-0.155-0.525-0.321-0.782-0.487-0.29-0.186-0.581-0.375-0.888-0.551l-12.212-6.947c-4.571-2.599-9.144-5.202-13.714-7.803-5.121 0.464-10.531 0.727-16.225 0.798 7.012 4.398 14.508 8.833 22.735 13.425 5.41 3.019 10.815 6.039 16.214 9.086 1.229 0.693 2.394 1.046 3.457 1.046 1.562 0 2.911-0.765 3.896-2.219 0.675-0.996 0.91-1.981 0.698-2.926-0.358-1.592-1.886-2.662-3.179-3.422z"/><path id="z" d="m7.329 161.76c0.418 0 0.849-0.021 1.28-0.046l0.951-0.057c2.791-0.17 5.749-0.274 7.967 0.074 3.383 0.533 6.709 1.334 9.997 2.344l-0.01-9.342c-1.051-0.26-2.102-0.5-3.154-0.673-5.796-0.954-11.702-1.204-17.259-1.378-8e-3 0-0.221-5e-3 -0.231-5e-3 -1.693 0-3.034 0.566-3.878 1.637-0.832 1.054-1.079 2.52-0.693 4.136 0.714 2.969 3.212 3.31 5.03 3.31z"/><path id="aa" d="m70.634 191.27 8.526-8e-3c-1.071-1.231-2.122-2.47-3.119-3.742-1.659-2.118-3.508-4.128-5.418-6.097z"/><path id="ab" d="m140.26 248.04c-9.553-4.771-19.79-9.844-29.93-14.64l-1.76-0.821c-5.102-2.376-9.918-4.62-13.309-8.888-0.035-0.047-0.076-0.087-0.111-0.133l-32.299 0.03c0.988 0.394 1.979 0.796 2.97 1.193 10.099 4.028 20.545 8.199 30.694 12.562 8.746 3.759 17.496 7.922 25.958 11.95 3.776 1.8 7.555 3.596 11.344 5.365 0.466 0.22 0.925 0.464 1.382 0.709l0.763 0.402c1.058 0.543 2.077 0.821 3.03 0.821 1.587 0 2.936-0.76 3.9-2.198 0.69-1.029 0.907-2.055 0.642-3.049-0.337-1.275-1.438-2.39-3.274-3.303z"/><path id="ac" d="m8.649 176.93c-3.468-1.414-5.605-0.823-6.79 1.574-0.573 1.173-0.672 2.294-0.29 3.34 0.479 1.31 1.681 2.396 3.567 3.227 2.981 1.306 5.976 2.433 8.256 3.274 4.91 1.805 9.609 3.554 14.157 5.298l-0.01-9.126c-0.727-0.29-1.474-0.594-2.2-0.885-5.571-2.217-11.142-4.434-16.69-6.702z"/><path id="ad" d="m70.556 102.81c1.275-1.65 2.611-3.256 4.044-4.751 2.251-2.35 4.643-4.364 7.155-6.088l-11.209 0.011z"/><path id="ae" d="m7.039 142.17c-2.027 0.677-3.355 1.724-3.844 3.018-0.252 0.674-0.393 1.755 0.383 3.081 0.956 1.647 3.633 2.457 6.068 3.087 0.209 0.054 0.433 0.081 0.668 0.081 1.033 0 2.102-0.522 3.044-0.981l0.388-0.189c5.102-2.422 9.653-5.532 13.758-9.286l-0.023-24.874c-1.371 0.893-2.786 1.714-4.285 2.417-3.177 1.489-6.336 3.101-9.391 4.661-2.479 1.265-4.956 2.529-7.471 3.743-1.521 0.739-2.449 1.69-2.761 2.83-0.312 1.142 0.013 2.442 0.964 3.869 1.685 2.52 3.799 3.05 6.812 1.551 3.281-1.637 6.736-3.131 10.078-4.579 0.732-0.318 1.464-0.637 2.193-0.953-2.468 5.155-8.614 9.841-16.581 12.524z"/><path id="af" d="m221.24 104.69c-3.439-4.24-6.828-8.523-10.214-12.808-6.922-8.75-14.079-17.804-21.623-26.353-14.576-16.521-36.363-36.261-75.775-42.334-3.566-0.549-5.936 0.943-6.056 3.944-0.155 3.688 3.032 4.475 5.36 5.048 1.738 0.432 3.49 0.844 5.241 1.263 7.165 1.7 14.577 3.462 21.399 6.241 14.864 6.062 27.982 15.4 38.986 27.745 8.937 10.025 17.485 20.626 25.754 30.876 3.036 3.766 6.072 7.531 9.135 11.274l0.373 0.462c1.236 1.534 2.519 3.123 4.53 3.123 0.768 0 1.542-0.234 2.376-0.72 1.331-0.774 2.116-1.759 2.33-2.927 0.264-1.424-0.33-3.006-1.816-4.834z"/><path id="ag" d="m114.86 263.58-0.922-0.295c-30.191-10.066-57.575-21.007-83.713-33.446-4.799-2.285-9.636-4.498-14.47-6.706l-5.141-2.35c-1.2-0.557-2.164-0.811-3.031-0.811-1.021 0-2.423 0.388-3.327 2.244-1.279 2.618-0.457 4.913 2.32 6.46 0.445 0.25 0.912 0.472 1.379 0.684 12.379 5.604 62.551 27.979 66.915 29.535l-0.011 0.03 1.913 0.749c1.351 0.541 2.702 1.076 4.071 1.556 10.505 3.666 21.014 7.31 31.531 10.938 0.928 0.321 1.808 0.483 2.616 0.483 2.132 0 3.653-1.11 4.288-3.125 0.363-1.148 0.301-2.192-0.178-3.106-0.648-1.233-2.038-2.161-4.24-2.84z"/><path id="ah" d="m79.776 18.87c0.357 0 0.724-0.013 1.097-0.033 5.073-0.268 9.453-0.35 13.875-0.232 25.292 0.668 47.035 6.757 66.477 18.607 3.617 2.208 7.126 4.732 10.518 7.176l2.633 1.886c1.408 1.002 2.576 1.469 3.672 1.469 1.076 0 2.064-0.459 2.942-1.366 0.94-0.975 1.402-2.025 1.371-3.119-0.032-1.227-0.685-2.439-1.94-3.607-0.377-0.352-0.793-0.668-1.208-0.981-0.245-0.184-0.487-0.367-0.722-0.558-8.906-7.359-19.464-13.238-35.379-19.679-1.055-0.312-2.305-0.704-3.696-1.138-3.7-1.152-8.302-2.59-13.021-3.732-14.53-3.518-29.802-4.773-46.928-3.842-1.989 0.104-3.978 0.391-5.071 1.741-0.643 0.793-0.869 1.841-0.671 3.116 0.603 3.846 3.744 4.292 6.051 4.292z"/><path id="ai" d="m30.787 54.665c1.008 0 2.127-0.258 3.428-0.794 4.594-1.879 9.347-3.824 14.344-5.068 15.405-3.835 32.23-5.293 52.022-4.478 8.995 0.37 18.523 1.025 27.47 4.549l0.543 0.22c1.275 0.51 2.596 1.04 3.863 1.04 1.586 0 2.807-0.839 3.628-2.494 0.54-1.091 0.624-2.139 0.253-3.12-0.571-1.515-2.227-2.81-5.065-3.962l-2.903-1.066c-0.997-0.336-2.089-0.709-3.194-1.04-1.023-0.308-2.063-0.521-2.948-0.684-10.409-1.899-21.149-2.86-31.921-2.86-12.072 0-24.622 1.209-37.296 3.6-6.288 1.186-12.36 3.33-18.235 5.408-1.828 0.645-3.65 1.29-5.482 1.904-1.344 0.454-3.06 1.336-3.598 2.95-0.357 1.079-0.114 2.239 0.725 3.454 1.124 1.622 2.592 2.443 4.366 2.441z"/><path id="aj" d="m119.02 9.046 3.248 0.691c5.342 1.121 10.864 2.279 16.012 4.141 26.144 9.446 46.704 19.475 62.065 37.707 1.41 1.67 2.887 2.521 4.389 2.521 0.852 0 1.705-0.275 2.536-0.816 1.224-0.793 1.958-1.83 2.124-3.001 0.184-1.306-0.339-2.716-1.518-4.071-2.123-2.458-4.402-5.059-6.86-7.425-14.393-13.891-32.373-22.315-52.76-31.157-1.535-0.488-3.128-1.017-4.765-1.561-4.107-1.355-8.356-2.76-12.729-3.977-3.281-0.908-6.863-1.545-11.608-2.061-3.06-0.336-4.981 1.561-5.007 4.633-0.022 3.319 2.923 3.956 4.873 4.376z"/><path id="ak" d="m99.638 271.45-1.293-0.359c-0.997-0.28-1.994-0.563-3.002-0.796-17.367-3.967-34.598-10.32-51.219-18.882-6.604-3.401-13.201-7.088-19.584-10.652-2.332-1.306-4.665-2.607-7.006-3.901-3.422-1.893-6.152-1.402-7.723 1.254-1.988 3.346 1.371 5.405 2.807 6.282 15.217 9.322 31.889 17.695 49.561 24.888l0.846 0.344c0.648 0.266 1.295 0.53 1.963 0.734l1.887 0.571c10.163 3.075 20.326 6.152 30.504 9.179 0.829 0.244 1.606 0.372 2.308 0.372 2.149 0 3.554-1.149 3.957-3.235 0.539-2.803-0.957-4.971-4.006-5.799z"/><path id="al" d="m10.957 217.49c8.592 3.707 34.102 14.253 37.212 15.247l-8e-3 0.015 7.591 2.938c7.684 2.978 15.366 5.951 23.037 8.955 1.193 0.464 2.459 0.923 3.659 0.923 1.597 0 2.776-0.817 3.509-2.428 0.586-1.287 0.668-2.483 0.239-3.544-0.536-1.328-1.811-2.376-3.9-3.203-5.929-2.339-11.849-4.696-17.769-7.054l-11.966-4.771c-0.811-0.321-1.616-0.647-2.427-0.969l-11.787 0.011c-5.324 4e-3 -9.834-3.881-10.619-8.985-3.959-1.586-7.924-3.156-11.881-4.756-1.545-0.624-3.062-1.469-4.529-2.286-1.07-0.595-2.141-1.191-3.245-1.722-2.741-1.315-5.081-0.787-6.46 1.416-0.645 1.032-0.855 2.06-0.62 3.051 0.274 1.168 1.146 2.211 2.713 3.175 2.312 1.416 4.706 2.885 7.251 3.987z"/><path id="am" d="m209.68 152.77c-2.848-7.017-5.793-14.271-8.337-21.479-1.785-5.043-4.003-9.834-6.548-14.416 1.497 7.456 2.238 15.655 2.246 24.641 3e-3 1.613-0.027 3.197-0.071 4.76 1.38 3.524 2.808 7.152 4.357 11.068 0.4 1.015 1.619 4.102 4.842 4.102 0.511 0 1.056-0.078 1.622-0.236 1.504-0.413 2.476-1.102 2.965-2.096 0.722-1.464 0.199-3.197-0.41-4.702z"/><path id="an" d="m183.66 193.49c-1.787 2.529-3.746 4.911-5.913 7.118 0.671 0.455 1.315 0.872 1.991 1.339 0.143 0.1 0.311 0.15 0.479 0.15 0.112 0 0.225-0.024 0.329-0.066 0.44-0.189 0.943-0.342 1.453-0.499 1.354-0.424 2.756-0.859 3.595-1.888 0.742-0.902 1.04-1.83 0.888-2.753-0.234-1.433-1.486-2.501-2.822-3.401z"/><path id="ao" d="m133.34 165.6c2.27 1.985 4.519 3.995 6.77 5.999 1.864 1.662 3.758 3.345 5.666 5.023 1.724-2.289 3.136-4.859 4.265-7.731-3.511-3.1-6.819-6.236-9.923-9.444-2.648-2.748-5.475-3.044-7.845-0.879-0.972 0.885-1.459 1.858-1.448 2.896 0.011 1.328 0.81 2.644 2.515 4.136z"/><path id="ap" d="m164.95 220.22c-1.718-1.071-3.441-2.132-5.168-3.195-1.183-0.727-2.386-1.481-3.582-2.22-3.401 1.42-7.007 2.682-10.866 3.752 1.076 0.715 2.151 1.426 3.232 2.137 2.558 1.683 5.148 3.197 8.146 4.954 1.447 0.85 2.973 1.741 4.597 2.713 0.132 0.079 0.283 0.12 0.434 0.12 0.104 0 0.212-0.02 0.313-0.061 0.275-0.107 0.627-0.206 1.015-0.316 1.171-0.331 2.626-0.744 3.583-1.729 0.988-1.019 1.101-2.024 1.019-2.688-0.153-1.254-1.093-2.453-2.723-3.467z"/><path id="aq" d="m14.373 97.139c0.543 0 1.563-0.056 2.305-0.418 3.59-1.759 7.188-3.56 10.783-5.354l-0.01-11.502c-3.96 1.859-8.08 3.807-12.455 5.898-1.155 0.55-3.963 2.086-5.049 4.405-0.772 1.637-0.018 4.309 1.16 5.945 0.681 0.952 2.672 1.026 3.266 1.026z"/><path id="ar" d="m51.303 35.186c0.708 0 1.45-0.095 2.082-0.181l1.359-0.197c6.346-0.904 12.906-1.843 19.408-2.439 5.504-0.5 11.167-0.689 16.644-0.872l2.458-0.085c4.451-0.154 5.359-2.379 5.339-4.217-0.019-1.18-0.698-2.303-1.247-3.205-0.191-0.311-0.369-0.602-0.489-0.856-0.12-0.256-0.356-0.434-0.635-0.475-0.548-0.087-0.956-0.166-1.277-0.23-0.5-0.095-0.783-0.151-1.318-0.144l-7.983 0.729c-11.569 1.051-23.533 2.137-35.273 3.33-1.808 0.187-2.721 1.051-3.167 1.744-0.688 1.068-0.78 2.509-0.257 4.06 0.689 2.046 2.114 3.038 4.356 3.038z"/><path id="as" d="m8.334 119.22c1.221 0 2.552-0.451 3.959-1.346 4.76-3.021 9.936-6.318 15.181-9.737l-8e-3 -10.958c-2.741 2.06-5.765 3.799-8.74 5.496-2.433 1.387-4.921 2.697-7.409 4.009-1.69 0.89-3.381 1.779-5.053 2.692-1.949 1.062-3.043 2.233-3.343 3.584-0.266 1.186 0.097 2.469 1.078 3.805 1.192 1.631 2.651 2.455 4.335 2.455z"/><path id="at" d="m191.84 49.471c-0.326-0.272-0.69-0.579-1.104-0.942-0.221-0.2-0.535-0.261-0.828-0.164-0.377 0.125-0.816 0.225-1.268 0.324-1.236 0.277-2.641 0.596-3.362 1.562-0.954 1.269-0.847 4.055 0.204 5.318 2.267 2.713 4.739 5.344 7.131 7.889 1.502 1.596 3.004 3.197 4.467 4.824 1.535 1.703 3.034 3.44 4.533 5.176 2.51 2.901 5.102 5.904 7.838 8.722 0.978 1.007 3.243 1.543 4.502 1.543 0.697 0 1.191-0.146 1.52-0.451 1.196-1.125 1.359-3.042 1.502-4.729l0.059-0.648c0.09-0.834-0.609-1.555-1.227-2.188l-0.323-0.342c-7.338-8.153-14.681-16.302-22.046-24.43-0.453-0.5-0.958-0.926-1.598-1.464z"/><path id="au" d="m128.07 256.3c-2.102-1.005-15.861-7.409-18.258-8.256l8e-3 -0.018-3.469-1.553c-2.712-1.222-5.422-2.442-8.166-3.579-2.477-1.031-5.25-0.61-6.501 0.947-0.646 0.807-0.87 1.847-0.63 2.935 0.383 1.714 2.205 3.511 3.674 4.189 11.662 5.423 21.164 9.646 29.912 13.288 0.391 0.164 0.864 0.245 1.41 0.245 1.537 0 3.753-0.709 4.648-1.851 0.698-0.894 0.945-1.893 0.714-2.878-0.316-1.34-1.535-2.605-3.342-3.469z"/><path id="av" d="m3.818 172.33c0.279 0.096 0.562 0.181 0.846 0.267 0.337 0.103 0.676 0.207 1.01 0.321l8.023 2.802c4.613 1.611 9.226 3.224 13.84 4.824l-8e-3 -9.76c-0.75-0.277-1.499-0.554-2.243-0.842l-0.03 0.079c-2.994-1.466-18.934-6.167-19.107-6.218-3.294-0.953-5.423 0-5.966 2.514-0.605 2.801 0.754 5.05 3.635 6.013z"/><path id="aw" d="m3.728 198.12c3.934 1.928 7.848 3.891 11.499 5.719l4.444 2.221 2.365 0.907c1.461 0.556 2.68 1.023 3.884 1.525 0.494 0.209 1.058 0.42 1.64 0.607l-6e-3 -9.76c-6.711-3.049-13.232-6.149-19.303-9.071-3.944-1.895-6.279-1.361-7.685 1.285-0.587 1.103-0.719 2.172-0.394 3.177 0.427 1.314 1.591 2.427 3.556 3.39z"/><path id="ax" d="m204.28 169.05c-0.481-0.836-1.076-1.874-1.807-2.848-0.906-1.217-1.863-2.404-2.819-3.593-1.211-1.509-2.417-3.069-3.541-4.656-0.519 4.379-1.255 8.537-2.233 12.461 0.836 0.864 1.713 1.715 2.631 2.555 0.931 0.849 2.131 1.313 3.384 1.313 2.274 0 4.222-1.443 4.961-3.682 0.076-0.235 0.048-0.495-0.081-0.71-0.151-0.24-0.314-0.527-0.495-0.84z"/><path id="ay" d="m131.43 153.13c-0.057-0.158-0.098-0.375-0.146-0.617-0.162-0.813-0.389-1.927-1.142-2.764-2.919-3.243-5.972-6.466-8.923-9.584-1.604-1.691-3.205-3.381-4.794-5.082-2.14-2.295-4.88-2.723-6.66-1.035-1.284 1.217-2.057 4.299-1.06 5.671l1.279 1.757c3.901 5.388 7.935 10.956 14.084 14.824 0.918 0.572 1.902 0.879 2.851 0.879 1.986 0 3.626-1.262 4.495-3.462 0.074-0.19 0.079-0.398 0.016-0.587z"/></g></svg>
