<svg id="a" version="1.1" viewBox="0 0 118.04 33.576" xmlns="http://www.w3.org/2000/svg">
 <g id="b" transform="translate(425.21 -357.93)">
  <path id="c" d="m-308.46 379.09c-0.11032-0.34845-0.26784-0.68172-0.37379-1.0318-0.0899-0.29065-0.11907-0.58983-0.11907-0.89269v-1.0274c0-0.90673 0.0525-1.8351-0.0393-2.7388l9.2e-4 6.8e-4c-0.0608-0.50092 0.10297-0.89291 0.26163-1.3535 0.17043-0.49816 0.27661-1.0187 0.31184-1.5442l2e-3 6e-3c0.0217-0.49746 0.2439-0.84661 0.48066-1.2667 0.24734-0.44541 0.44173-0.9217 0.56978-1.4162 0.25956-0.99793 0.25242-2.0562-0.0104-3.0534-0.47306-1.79-1.7543-3.2952-3.462-4.0228l2e-3 -4.7e-4c-0.46178-0.17803-0.80516-0.49471-1.131-0.85329-0.31759-0.34915-0.67618-0.66075-1.0668-0.9263-0.78398-0.53339-1.6918-0.8731-2.6334-0.99033-1.944-0.24298-3.9302 0.47789-5.2441 1.9376v-7e-4c-0.16651 0.19669-0.33072 0.38831-0.54283 0.53801-0.28996 0.2052-0.63174 0.31092-0.94542 0.47283-0.62137 0.31897-1.1849 0.74734-1.6582 1.26-3e-3 -1e-3 -5e-3 -3e-3 -5e-3 -3e-3 -0.15661 0.18356-0.33257 0.35353-0.54584 0.47213-0.25403 0.14095-0.53639 0.19945-0.81529 0.27384-0.579 0.15638-1.1391 0.38185-1.6626 0.67181-1.0544 0.58061-1.9618 1.4164-2.6287 2.4171l-1e-3 -3e-3c-0.14901 0.23722-0.40097 0.41571-0.64925 0.53778-0.26646 0.13104-0.52993 0.13173-0.81828 0.16628-0.31184 0.0371-0.54813 0.05-0.84915-0.0576-0.23077-0.0834-0.47144-0.19531-0.66006-0.35376v2e-3c-1.9546-1.561-4.6177-2.049-6.9952-1.2697l2e-3 -4e-3c-0.51796 0.18655-1.0707 0.20336-1.6022 0.0703-0.59421-0.19531-1.2114-0.31369-1.836-0.35721l2e-3 -2e-3c-0.50253-0.0228-0.79364-0.23768-1.0668-0.6527-0.26832-0.40557-0.5744-0.7858-0.91387-1.1343-0.67988-0.69921-1.4913-1.269-2.3828-1.6658-1.8533-0.82727-4.012-0.87771-5.901-0.13611-1.4942 0.58567-2.783 1.6456-3.6559 2.9906 0-2e-3 -4.6e-4 -6e-3 -4.6e-4 -6e-3 -0.2264 0.30308-0.55298 0.54467-0.93529 0.5958-0.20244 0.027-0.40395-0.0152-0.60455-0.0456-0.24943-0.0369-0.50093-0.0656-0.75105-0.0882-0.93527-0.0825-1.8832-0.0562-2.8146 0.0744-1.7619 0.24897-3.4615 0.8807-4.9615 1.8374l2e-3 -2e-3c-0.31944 0.2135-0.72755 0.32105-1.1101 0.2812-0.41409-0.042-0.72524-0.30492-1.0691-0.51266-0.77891-0.46983-1.6149-0.84201-2.4836-1.1069-1.842-0.55942-3.8413-0.62459-5.7186-0.19875l-4.6e-4 -2e-3c-0.40742 0.10204-0.82865 0.14027-1.2483 0.11424-0.5228-0.0325-1.0288-0.18793-1.5465-0.26463-1.0815-0.16121-2.1794-0.15845-3.2614 2e-3l2e-3 -6e-3c-1.0389 0.18793-2.0401-0.0954-3.0792-0.0745-1.0778 0.0209-2.1474 0.28052-3.1156 0.74966v-3e-3c-0.35837 0.19-0.67987 0.30861-1.0815 0.18563-0.4567-0.14095-0.89083-0.3556-1.3466-0.50369-0.98941-0.32267-2.0182-0.52142-3.0553-0.58867-2.0585-0.1345-4.1384 0.2508-6.012 1.1126l2.3e-4 -1e-3c-0.37701 0.18285-0.99332 0.30653-1.2757-0.10277-0.28926-0.41501-0.58936-0.8192-0.92515-1.1978-0.68401-0.77384-1.4774-1.4498-2.3503-2.0014-1.6036-1.0129-3.4431-1.5746-5.33-1.6868-1.9749-0.11724-4.0299 0.34776-5.7616 1.2985-1.8772 1.0115-3.5705 2.6317-4.5039 4.5645-0.4164 0.86389-0.70636 1.79-0.94127 2.719-0.15614 0.61538-0.30631 1.2437-0.34823 1.8791-0.0268 0.41225-8e-3 0.83302-8e-3 1.2464-1e-3 0.62828-1e-3 1.2559-1e-3 1.8835-6.8e-4 0.49448 0.0308 0.98988-0.14555 1.4625-0.19369 0.52141-0.59098 0.89175-0.91294 1.3305-0.31759 0.43298-0.58844 0.90005-0.80815 1.3908-0.43943 0.97789-0.66583 2.0463-0.66583 3.117v2.4127c0 3.6598 2.7665 6.8756 6.389 7.4127 2.1106 0.31437 4.2969-0.30239 5.9279-1.6796v2e-3c0.35352-0.3123 0.72409-0.45117 1.1891-0.45117 0.37655 0 0.69577 0.0543 1.0244 0.26462 0.20428 0.13151 0.38185 0.30423 0.57576 0.45048 0.22409 0.16697 0.45579 0.32244 0.69646 0.46476 0.46337 0.272 0.95532 0.49471 1.4664 0.66169 2.0486 0.66927 4.336 0.41064 6.181-0.70498 0.52671-0.3176 1.0143-0.69991 1.447-1.1361v2e-3c0.27545-0.2842 0.72732-0.2257 1.0661-0.13542 0.44841 0.1193 0.90074 0.21488 1.3577 0.28443 0.84339 0.12782 1.7227 0.18931 2.5744 0.12206 1.7232-0.13656 3.3991-0.55182 4.9917-1.231l-1e-3 1e-3c0.63473-0.31989 1.1852 0.15431 1.7388 0.41248 0.61792 0.28697 1.2754 0.48941 1.9482 0.59743 1.4187 0.22893 2.8952 0.0426 4.2119-0.53524l-2e-3 4e-3c0.4118-0.1937 0.78466-0.0686 1.1785 0.0889 0.42193 0.16905 0.86158 0.29941 1.3065 0.38945 0.87633 0.17596 1.7814 0.19554 2.6658 0.0589 0.52395-0.0608 0.83971 0.24528 1.2243 0.54698 0.41708 0.32842 0.86895 0.61217 1.3471 0.84478 0.97859 0.47812 2.0578 0.73768 3.1458 0.75748 2.0818 0.0373 4.1126-0.81759 5.5491-2.3215 0.0557-0.0585 0.11055-0.11792 0.16352-0.17756v3e-3c0.27453-0.25956 0.6094-0.38024 0.97513-0.24804 0.42216 0.16259 0.85237 0.3017 1.2881 0.41731 0.89452 0.23561 1.813 0.37149 2.7372 0.40488 1.8464 0.0657 3.7022-0.27729 5.3989-1.0094l4.6e-4 1e-3c0.28006-0.10617 0.58106-0.19945 0.88277-0.15108 0.30125 0.0484 0.56863 0.22708 0.84178 0.35076 0.6543 0.29272 1.3485 0.49447 2.0571 0.59512 1.4823 0.2105 3.0099-0.029 4.3611-0.6725v1e-3c0.2492-0.12505 0.51497-0.17342 0.78766-0.0942 0.32105 0.0952 0.62413 0.2591 0.94333 0.36228 0.66399 0.21487 1.357 0.33555 2.0544 0.36249 1.3694 0.0523 2.7414-0.26669 3.9438-0.92744l1e-3 2e-3c0.58176-0.33326 1.1635 0.0287 1.7082 0.24343 0.62829 0.24804 1.281 0.43736 1.9452 0.56541 1.4097 0.2713 2.8632 0.25726 4.2676-0.0283v5e-3c0.44173-0.0942 0.87955 0.0403 1.3123 0.10277 0.53362 0.0774 1.076 0.0954 1.6138 0.0534 1.0461-0.0817 2.0723-0.38761 2.9949-0.88853l-1e-3 5e-3c0.24574-0.14509 0.52164-0.22731 0.8093-0.17986 0.31898 0.0523 0.61907 0.23444 0.91732 0.35282 0.63335 0.25173 1.289 0.44473 1.9588 0.57394 1.4053 0.27268 2.8565 0.26185 4.2598-0.02v4e-3c0.50875-0.10709 1.0274 0.0656 1.529 0.12368 0.60709 0.0716 1.222 0.0659 1.828-0.0143 1.1356-0.15062 2.2312-0.56449 3.1819-1.2006 1.544-1.0313 2.6601-2.629 3.1071-4.4307 0.37678-1.5161 0.269-3.1373-0.31506-4.5868-0.25888-0.81253 0 0 0 0" fill="#fff"/>
  <path id="d" d="m-312.07 379.5c-0.20681-0.35145-0.28328-0.62551-0.28535-1.0325v-1.8885c0-0.53501 0-1.0686 1e-3 -1.6036 0-0.61745 0.0249-1.2328-0.13081-1.8365-0.0108-0.047-0.0235-0.0924-0.0376-0.13796l3e-3 6.9e-4c-0.14832-0.46983-0.2006-0.8936 0.13934-1.2752h-7e-4c0.55505-0.69207 0.63819-1.5083 0.49379-2.3542-0.0808-0.47074 0.12113-0.79387 0.44518-1.1105 0.33326-0.32381 0.59535-0.70129 0.73861-1.1467 0.30216-0.9422 0.035-2.0099-0.67136-2.7011-0.32934-0.32175-0.74298-0.55252-1.1893-0.66583-0.42055-0.10779-0.83832-0.11009-1.1638-0.43966-0.27982-0.2812-0.39383-0.67665-0.63957-0.9848-0.29065-0.36504-0.67872-0.64993-1.1142-0.81552-0.65891-0.2515-1.4097-0.22846-2.052 0.0638-0.59811 0.27452-1.027 0.75034-1.3162 1.3337-0.14464 0.29734-0.36804 0.54952-0.6801 0.67596-0.32935 0.1345-0.7013 0.12528-1.0385 0.25103-0.73838 0.27545-1.3192 0.8814-1.5716 1.6276v-2e-3c-0.0739 0.20475-0.14578 0.4528-0.34961 0.56403-0.29526 0.16191-0.67642 0.0498-0.9924 0.0498-0.67526 0-1.3452 0.16927-1.9406 0.49033-1.1902 0.64347-2.0051 1.8636-2.1343 3.21h-1e-3c-0.11008 0.73469-0.29917 1.0122-1.1543 0.63566v1e-3c-1.2736-0.55252-2.7729-0.41064-3.9212 0.3701v-1e-3c-0.17803 0.11999-0.45347 0.32473-0.67343 0.18217-0.26554-0.17136-0.36226-0.5638-0.51105-0.82497-0.35306-0.61308-0.86319-1.1322-1.471-1.4931-1.3699-0.81414-3.1324-0.73952-4.4344 0.17941l-1e-3 -2e-3c-0.63864 0.43321-0.90718 0.47282-1.564 0.0463v3e-3c-1.1043-0.75979-2.5461-0.94266-3.8072-0.48526-0.25817 0.0899-0.62712 0.27706-0.90557 0.16214-0.31759-0.13105-0.29249-0.57854-0.37171-0.83878-0.25956-1.8095-1.7004-3.2976-3.5018-3.6078-1.8208-0.31299-3.6785 0.61768-4.5272 2.258-0.2568 0.50046-0.41295 1.052-0.45901 1.6131l-3e-3 -8e-3c-0.053 0.38877-0.23814 0.77776-0.62091 0.93253-0.40534 0.16328-0.83717 0.0196-1.213-0.14809-1.0956-0.48895-2.2856-0.75334-3.4846-0.78236-2.1423-0.05-4.2607 0.66789-5.9309 2.0129-0.37747 0.30516-0.70381 0.66583-1.079 0.97236-0.27222 0.2241-0.59903 0.41572-0.96476 0.38324-0.45716-0.0412-0.8374-0.38115-1.1373-0.69783-0.33948-0.37587-0.71535-0.71787-1.1212-1.0207-1.7229-1.2835-3.9383-1.7649-6.0477-1.3782-0.37817 0.07-0.75172 0.17135-1.1117 0.30883-0.64808 0.2386-1.1508 0.2211-1.9268-0.0405l5e-3 5e-3c-1.2932-0.43829-2.6953-0.51705-4.032-0.23054l-6.9e-4 -9.2e-4c-0.42561 0.0882-0.85398 0.15108-1.2904 0.11423-0.459-0.0396-0.89866-0.19508-1.3588-0.23054-0.95508-0.0753-1.9203 0.20452-2.6948 0.76555l3e-3 -4e-3c-0.34661 0.24666-0.71004 0.49608-1.1299 0.59212-0.50162 0.11423-0.99794-0.0396-1.4272-0.30078-0.98481-0.59489-2.1239-0.97882-3.2582-1.1488-2.193-0.32888-4.4678 0.16928-6.3227 1.3832-0.30055 0.19575-0.5889 0.41064-0.86434 0.64048v-6.9e-4c-0.41986 0.36435-1.1681 1.0622-1.7824 0.73883-0.33026-0.17412-0.49862-0.57186-0.61032-0.90719-0.14832-0.43827-0.26693-0.87931-0.45486-1.3052-0.78812-1.7727-2.2524-3.2006-4.0463-3.939-1.7008-0.69967-3.631-0.76186-5.3706-0.16329-1.9496 0.67019-3.6359 2.1741-4.4797 4.0624-0.35836 0.80125-0.53847 1.6912-0.63749 2.561-0.047 0.4194-0.0247 0.85676-0.0247 1.2789-6.9e-4 1.1092-6.9e-4 2.2174-6.9e-4 3.3259-6.9e-4 0.4438-0.0521 0.88115-0.21073 1.2999-0.23676 0.61976-0.66606 1.1345-1.117 1.6094v1e-3c-0.50622 0.51842-0.87794 1.1654-1.0636 1.8669-0.12045 0.4475-0.14278 0.89867-0.14278 1.3577v2.1416c0 1.479 0.82704 2.8717 2.1216 3.5866 1.4832 0.81989 3.36 0.61378 4.6419-0.49355v2e-3c0.5684-0.52786 1.2123-1.024 1.9935-1.167 0.44382-0.0817 0.91802-0.044 1.3664-0.044 0.45809 0 0.92583-0.0249 1.3805 0.0403 0.80884 0.11631 1.4585 0.60202 2.0207 1.1707v-3e-3c1.3164 1.1389 3.2568 1.3215 4.7543 0.42952 0.67388-0.40188 1.2268-0.99769 1.5778-1.6999 0.14901-0.2987 0.24159-0.63588 0.55228-0.81252 0.34385-0.19461 0.75818-0.0771 1.085 0.0933v-7e-4c1.9472 1.0435 4.1594 1.2863 6.3114 0.85767 1.0539-0.2105 2.0871-0.57185 3.0166-1.1156 0.418-0.24366 0.81022-0.57576 1.3072-0.63518 0.50346-0.0606 0.94173 0.20197 1.2761 0.55573l-4.5e-4 -4e-3c0.97006 1.0164 2.4222 1.4747 3.7985 1.1861 0.67227-0.14004 1.3019-0.45371 1.8243-0.90051 0.45578-0.38991 0.96361-0.60226 1.4694-0.17527 0.049 0.0484 0.10456 0.0926 0.15362 0.14279v-2e-3c0.86389 0.76002 2.0134 1.1156 3.1555 1.0018 0.61031-0.0606 1.2015-0.26163 1.7252-0.58176 0.20543-0.12576 0.40188-0.27545 0.65661-0.19024 0.2462 0.0825 0.40994 0.32313 0.51473 0.54813v-1e-3c0.86297 1.7704 2.9323 2.6964 4.8259 2.1435 0.89406-0.26094 1.6833-0.83441 2.2137-1.5979 0.12759-0.18217 0.2409-0.37586 0.33602-0.57669 0.0986-0.20613 0.15914-0.4332 0.27891-0.62828 0.21211-0.34201 0.58083-0.53224 0.97489-0.57854 0.50553-0.0595 1.0408 0.0903 1.4638 0.37011l-2e-3 -1e-3c1.8174 1.0721 3.9832 1.4772 6.0663 1.1467 1.0286-0.16329 2.0279-0.50599 2.9401-1.0101 0.4385-0.24229 0.84108-0.56955 1.3542-0.62736 0.46292-0.053 0.88186 0.14901 1.184 0.49216l-7e-4 -8e-3c1.0511 0.96039 2.5419 1.3418 3.924 0.99148 0.33049-0.0838 0.65177-0.2082 0.95301-0.36941 0.31115-0.16559 0.57231-0.39268 0.86504-0.58153 0.63128-0.40719 1.3984-0.37517 1.9712 0.12229v-5e-3c1.2568 0.95394 2.9901 1.1195 4.4033 0.41272 0.66376-0.3328 1.2011-0.95072 1.9701-1.0442 0.60317-0.073 1.1437 0.20913 1.6548 0.48941l-6.9e-4 -4.6e-4c0.96821 0.57738 2.0629 0.93459 3.1856 1.0389 0.60273 0.0551 1.2124 0.0382 1.8132-0.0511 0.29318-0.0428 0.58407-0.10455 0.8708-0.18171 0.21487-0.0585 0.42468-0.12068 0.65177-0.11285 0.23537 8e-3 0.462 0.0746 0.68701 0.14532 0.30055 0.0954 0.61309 0.15638 0.93068 0.17918 0.56541 0.042 1.1391-0.0382 1.6739-0.23054 0.56679-0.20313 0.99447-0.5502 1.4756-0.89428 0.33464-0.23838 0.7158-0.4491 1.1368-0.44473 0.59374 6e-3 1.1557 0.37011 1.6508 0.66007l-2e-3 -1e-3c1.6974 0.94794 3.7213 1.2061 5.6025 0.71856l-1e-3 2e-3c0.46983-0.13288 0.91433-0.18079 1.3832 0 0.49678 0.19139 1.0871 0.23193 1.6131 0.18587 1.032-0.0899 2.0117-0.58154 2.7006-1.3565 1.1684-1.3137 1.3639-3.2916 0.4666-4.8056l-0.17365-0.2971z" fill="#252422"/>
  <path id="e" d="m-410.55 378.7c-0.10709 1.2602-2.1474 1.2623-2.2418-3e-3l0.0104-7.1483c0-0.60594 0.50461-1.1126 1.1106-1.1156 0.60594 3e-3 1.1096 0.50968 1.1096 1.1156 3e-3 1.9926 6e-3 3.9839 9e-3 5.9763 6.9e-4 0.39198 2e-3 0.78305 2e-3 1.175-6e-3 0.0684 0 0 0 0m7.3231 2.9056c0-0.75472-0.34408-1.4813-0.9286-1.9592-0.29319-0.2409-0.64142-0.41431-1.0108-0.50413-0.33303-0.0794-0.58867-0.29203-0.59396-0.65777l-1e-3 -4.9857h-5e-3l-1e-3 -1.7909c0-1.8913-0.93068-3.7004-2.4689-4.8022-1.6614-1.1916-3.8826-1.435-5.7616-0.62529-0.11423 0.049-0.22731 0.10183-0.33833 0.15753-1.8277 0.93827-3.0728 2.7863-3.2204 4.8411h-4e-3c-0.0695 0.83348-0.0196 1.6875-0.0196 2.5233-1e-3 1.2386-1e-3 2.4777-1e-3 3.717v0.95371c0 0.3671-0.22916 0.54076-0.54123 0.65799-0.37172 0.0815-0.72408 0.24781-1.0223 0.48295-0.6064 0.4772-0.96868 1.2188-0.96868 1.9917v2.4127c0 1.3729 1.2002 2.4864 2.5693 2.3881 0.68586-0.0498 1.3275-0.40397 1.7381-0.95486 0.19554-0.26186 0.2865-0.55781 0.43391-0.8434 0.14348-0.2782 0.34592-0.40625 0.66052-0.40625h6.0848c0.28996 0 0.49425 0.10571 0.63727 0.36088 0.16374 0.29503 0.24942 0.61171 0.45417 0.88716 0.41133 0.5525 1.0532 0.90672 1.7393 0.95647 1.3696 0.0983 2.5707-1.0152 2.5707-2.3881-2e-3 -0.80469 0-1.6094 0-2.4127" fill="#fddc00"/>
  <path id="f" d="m-360.4 374.43c0.7379 0 1.4044 0.30286 1.8858 0.79087l5e-3 -6e-3c0.42998 0.42308 1.0191 0.68471 1.6702 0.68471 1.3174 0 2.3839-1.0677 2.3839-2.3851 0-0.61101-0.23239-1.167-0.61309-1.5884-1.3466-1.397-3.2377-2.2658-5.3321-2.2658-4.0967 0-7.4178 3.3206-7.4178 7.4171s3.321 7.4166 7.4178 7.4166c2.1062 0 4.009-0.8807 5.3584-2.2927 0.36551-0.4187 0.58684-0.96154 0.58684-1.5603 0-1.3164-1.0666-2.3835-2.3839-2.3835-0.67297 0-1.2819 0.28028-1.714 0.73077l-9e-3 -8e-3c-0.47605 0.46061-1.1239 0.74482-1.8376 0.74482-1.4634 0-2.6481-1.1849-2.6481-2.6469 0-1.4627 1.1847-2.6476 2.6481-2.6476" fill="#fddc00"/>
  <path id="g" d="m-343.82 377.24v-9.2e-4c-0.27637-0.31875-0.20774-0.59212 0.0648-0.91387l-6e-3 -4e-3 1.8678-2.2087c0.97858-0.97812 0.97696-2.5636 0-3.5419-0.97928-0.97905-2.5643-0.97905-3.5438 0l-1.9795 2.9549c-0.37126 0.5525-0.60733 0.24873-0.60733-0.13151v7e-4l-4e-3 -5.0762c0-1.4242-1.1532-2.5776-2.5776-2.5776-1.4228 0-2.5758 1.1534-2.5758 2.5776l9.2e-4 13.459c0 1.4233 1.1532 2.5767 2.5769 2.5767 1.4235 0 2.5762-1.1534 2.5762-2.5767v-0.84017c0-0.53156 0.26025-0.51129 0.48895-0.29226l2.5339 2.8653c0.97696 0.97835 2.5652 0.97743 3.5419 0 0.97789-0.97882 0.97789-2.5638 0-3.5419l-2.3572-2.7285z" fill="#fddc00"/>
  <path id="h" d="m-327.71 379.88c-0.17848-0.30585-0.23514-0.56771-0.23514-0.8807v-1.4387l2e-3 -3.3929c0-1.3231-1.0728-2.3954-2.3952-2.3954-1.3227 0-2.395 1.0723-2.395 2.3954l-0.0122 4.4007c0 0.61608-0.49909 1.1156-1.1147 1.1156-0.61745 0-1.1163-0.49953-1.1163-1.1156v-6.4007c0-1.3229-1.0721-2.3945-2.3947-2.3945-1.322 0-2.3945 1.0716-2.3945 2.3945l7e-3 6.2402c0 3.2637 2.6446 5.9084 5.9086 5.9084 0.87771 0 1.7087-0.19508 2.4583-0.53869v2e-3c0.23307-0.11424 0.40581-0.12668 0.69185 0.0479 0 4.6e-4 0 4.6e-4 1e-3 1e-3 0.74782 0.53271 1.7669 0.60941 2.6099 0.11125 1.1366-0.67434 1.512-2.1428 0.83809-3.2814l-0.45901-0.77867z" fill="#fddc00"/>
  <path id="i" d="m-313.82 379.88c-0.17065-0.29365-0.22984-0.54652-0.234-0.84386v-2.4134l2e-3 -2.4652c0-1.3224-1.0718-2.3938-2.3957-2.3938-1.3215 0-2.3943 1.0714-2.3943 2.3938l-0.0122 4.4152c0 0.61607-0.49976 1.1156-1.1151 1.1156-0.61724 0-1.1154-0.49954-1.1154-1.1156v-8.4005c0-1.3231-1.0702-2.3945-2.395-2.3945-1.3215 0-2.3941 1.0714-2.3941 2.3945l6e-3 8.24c0 3.2637 2.6449 5.9083 5.9067 5.9083 0.87749 0 1.71-0.19507 2.4597-0.53869v2e-3c0.23285-0.11424 0.40534-0.12737 0.69093 0.0479 9.2e-4 4.6e-4 9.2e-4 4.6e-4 9.2e-4 1e-3 0.74827 0.53294 1.7692 0.60963 2.6099 0.11124 1.1389-0.67434 1.5143-2.1428 0.83878-3.2814l-0.46015-0.78305z" fill="#fddc00"/>
  <path id="j" d="m-312.33 366.02c-0.10986-0.34109-0.40511-0.58913-0.76002-0.64118l-1.4192-0.20613c-0.21027-0.0311-0.33948-0.11147-0.44196-0.31874l-0.63611-1.29c-0.15868-0.32174-0.4855-0.52557-0.84478-0.52557-0.35951 0-0.68632 0.20383-0.84569 0.52557l-0.64762 1.3139c-0.10016 0.20221-0.22502 0.26508-0.41664 0.29272l-1.4339 0.2082c-0.35468 0.0521-0.64902 0.30009-0.76049 0.64118-0.11078 0.34132-0.0189 0.71649 0.23814 0.9666l1.0792 1.052c0.10245 0.0997 0.15476 0.25656 0.12897 0.40051l-0.25403 1.4836c-0.061 0.35284 0.0852 0.71074 0.3754 0.92193 0.16467 0.11861 0.35814 0.17987 0.55505 0.17987 0.14808 0 0.2994-0.0361 0.4369-0.10824l1.2941-0.68057c0.14762-0.0781 0.34569-0.0808 0.5-6.8e-4l1.2927 0.68125c0.13934 0.072 0.28927 0.10824 0.43943 0.10824 0.19484 0 0.38922-0.0612 0.55389-0.17987 0.29019-0.21119 0.43575-0.56909 0.37494-0.92193l-0.23974-1.4005c-0.032-0.18724 0.0108-0.38231 0.13265-0.50092l1.0617-1.0348c0.25679-0.25011 0.34938-0.62528 0.23699-0.9666" fill="#fddc00"/>
  <path id="k" d="m-374.95 369.81c-1.556-2e-3 -2.3694 0.41064-2.9558 0.84156-2e-3 6.8e-4 -2e-3 1e-3 -3e-3 2e-3 -0.3655 0.24206-0.63151 0.23123-0.9316 0.0325l-9.2e-4 3e-3c-0.90166-0.55527-1.959-0.87909-3.0963-0.87909-0.86941 0-1.6946 0.19161-2.438 0.53063-7e-3 2e-3 -0.0118 4e-3 -0.0173 6e-3 -0.32566 0.13519-0.51911 0.0638-0.69161-0.0463-0.0247-0.0173-0.0509-0.0332-0.0756-0.0498-0.0141-8e-3 -0.0274-0.0182-0.0405-0.0276h-1e-3c-0.73722-0.46269-1.6967-0.51036-2.4956-0.0369-1.1377 0.67526-1.5136 2.1437-0.83948 3.281l0.51636 0.8777c0.11238 0.19231 0.17871 0.51843 0.17871 0.85606v0.51773l-3e-3 6.2402c0 1.3231 1.0723 2.3945 2.3961 2.3945 1.3208 0 2.3943-1.0714 2.3943-2.3945l0.012-6.4007c0-0.61516 0.49931-1.1147 1.1149-1.1147 0.53385 0 1.0143 0.3982 1.0725 0.87609v0.33694c0 0.0203-1e-3 0.0412-1e-3 0.0622l-4.7e-4 6.2402c0 1.3231 1.0709 2.3945 2.3941 2.3945 8e-3 0 0.0154-1e-3 0.0232-1e-3 7e-3 0 0.0143 1e-3 0.0209 1e-3 1.3234 0 2.3948-1.0714 2.3948-2.3945l-6e-3 -6.2402v-0.34485c0.0671-0.53224 0.53754-0.93044 1.0884-0.93044 0.61792 0 1.1163 0.49953 1.1163 1.1147v8.462c0 1.3222 1.0716 2.3938 2.3938 2.3938 1.3224 0 2.3952-1.0716 2.3952-2.3938l-7e-3 -8.3015c0-3.2637-2.6428-5.9046-5.907-5.9083" fill="#fddc00"/>
  <path id="l" d="m-394.03 374.94c-0.23814 0.0916-1.2504 0.12505-1.9942 0.12505-0.74482 0-1.8192-0.0456-2.0293-0.15038-0.20128-0.10047-0.31229-0.24943-0.30999-0.462 4e-3 -0.71719 1.2303-1.167 2.3392-1.167 1.1087 0 2.263 0.4461 2.2948 1.1626 8e-3 0.18493-0.046 0.39337-0.30055 0.49171m-2.0051-5.2743c-4.0951 0-7.4141 3.3201-7.4141 7.415 0 4.0944 3.319 7.4143 7.4141 7.4143 0.14878 0 0.29779-6e-3 0.44496-0.015 9e-3 -6.9e-4 0.0188 0 0.0311-2e-3 0.0104 0 0.0198-2e-3 0.0304-3e-3 0.27361-0.0182 0.54422-0.0511 0.80816-0.0983 2.1495-0.34062 3.2833-1.2156 3.6439-1.5205 0.038-0.0306 0.0751-0.0622 0.11262-0.0954 6e-3 -5e-3 0.015-0.0127 0.0182-0.0141h-3e-3c0.41756-0.38439 0.68011-0.9339 0.68011-1.5449 0-1.1619-0.94104-2.1025-2.1022-2.1025-0.1679 0-0.33074 0.0217-0.48619 0.0608l-0.56034 0.23285c-1.0845 0.68747-1.9763 0.73744-2.6426 0.68378-1.0647-8e-3 -1.9344-0.46038-2.4942-1.2773-0.15269-0.28558-0.0338-0.55458 0.39614-0.55458h5.9832c4.1801 0 3.2225-4.3729 1.7391-6.0219-1.3595-1.5668-3.3639-2.558-5.599-2.558" fill="#fddc00"/>
 </g>
</svg>
