<?xml version="1.0" encoding="UTF-8"?>
<!-- Generator: Adobe Illustrator 22.1.0, SVG Export Plug-In . SVG Version: 6.00 Build 0)  -->
<svg id="Слой_1" width="156.8" height="241.8" version="1.1" viewBox="0 0 156.8 241.8" xml:space="preserve" xmlns="http://www.w3.org/2000/svg" xmlns:cc="http://creativecommons.org/ns#" xmlns:dc="http://purl.org/dc/elements/1.1/" xmlns:rdf="http://www.w3.org/1999/02/22-rdf-syntax-ns#"><metadata id="metadata99"><rdf:RDF><cc:Work rdf:about=""><dc:format>image/svg+xml</dc:format><dc:type rdf:resource="http://purl.org/dc/dcmitype/StillImage"/><dc:title/></cc:Work></rdf:RDF></metadata>
<g id="g6" transform="translate(-14.2,-17.2)">
		<path id="path2" d="m92.6 17.2c-43.2 0-78.4 35.2-78.4 78.4s35.2 78.4 78.4 78.4 78.4-35.2 78.4-78.4-35.2-78.4-78.4-78.4z" fill="#2bade4"/>
		<path id="path4" d="m104.8 138c-1.8 0-3.3-1.3-3.5-3l-7.8-56-4 22.2c-0.3 1.7-1.8 2.9-3.5 2.9h-11.4l-1.3 9.1c-0.2 1.7-1.7 3-3.4 3-1.7 0.1-3.2-1.1-3.6-2.8l-1.6-7.7c-0.6 0.4-1.3 0.6-2 0.6h-11.8c-2 0-3.5-1.6-3.5-3.5s1.6-3.5 3.5-3.5h9l2-8.8c0.4-1.6 1.8-2.7 3.4-2.7 1.7 0 3.1 1.2 3.4 2.8l1.4 6.8c0.5-0.4 0.9-0.4 1.4-0.4h11.5l7.4-40.9c0.3-1.7 1.8-2.9 3.5-2.9s3.2 1.3 3.4 3l6.3 44.9 0.2-3.1c0.1-1.8 1.6-3.2 3.4-3.3l23.3-0.5c2 0 3.6 1.5 3.6 3.5s-1.5 3.6-3.5 3.6l-20 0.4-2.4 32.9c-0.1 1.8-1.6 3.2-3.4 3.3v0.1z" fill="#fff"/>
	</g><g id="g38" transform="translate(-14.2,-17.2)" fill="#444">
		<path id="path8" d="m46.9 238h-4.3v-6.5h-17.4v6.5h-4.4l-0.1-10.2h2.1c1-1 1.9-2.5 2.5-4.4s1-4.1 1.2-6.6l0.7-11.7h16.6v22.6h3.3zm-18.9-10.1h11.3v-18.9h-7.7l-0.4 7.4c-0.4 4.9-1.4 8.7-3.2 11.5"/>
		<path id="path10" d="m70.5 219.1c0 2.6-0.4 4.8-1.3 6.8-0.9 1.9-2.2 3.4-3.8 4.5-1.7 1-3.6 1.6-5.7 1.6s-4-0.5-5.7-1.6c-1.7-1-3-2.5-3.9-4.5-0.9-1.9-1.4-4.2-1.4-6.7v-1.5c0-2.6 0.5-4.8 1.4-6.8s2.2-3.5 3.8-4.5c1.7-1 3.6-1.6 5.7-1.6s4 0.5 5.7 1.5 2.9 2.5 3.8 4.4 1.4 4.2 1.4 6.7zm-4.6-1.4c0-2.9-0.6-5.1-1.7-6.7s-2.7-2.3-4.7-2.3-3.5 0.8-4.6 2.3-1.7 3.7-1.7 6.6v1.5c0 2.9 0.6 5.1 1.7 6.7s2.7 2.4 4.7 2.4 3.6-0.8 4.7-2.3 1.6-3.8 1.6-6.8z"/>
		<polygon id="polygon12" points="74.5 205.3 79.1 205.3 79.1 216.3 81.6 216.3 89.3 205.3 94.9 205.3 85.9 217.9 95.7 231.6 90.2 231.6 82.2 220.3 79.1 220.3 79.1 231.6 74.5 231.6"/>
		<polygon id="polygon14" points="105.2 209 97.1 209 97.1 205.3 117.9 205.3 117.9 209 109.7 209 109.7 231.6 105.2 231.6"/>
		<path id="path16" d="m140.5 219.1c0 2.6-0.4 4.8-1.3 6.8-0.9 1.9-2.2 3.4-3.8 4.5-1.7 1-3.6 1.6-5.7 1.6s-4-0.5-5.7-1.6c-1.7-1-3-2.5-3.9-4.5-0.9-1.9-1.4-4.2-1.4-6.7v-1.5c0-2.6 0.5-4.8 1.4-6.8s2.2-3.5 3.8-4.5c1.7-1 3.6-1.6 5.7-1.6s4 0.5 5.7 1.5 2.9 2.5 3.8 4.4 1.4 4.2 1.4 6.7zm-4.6-1.4c0-2.9-0.6-5.1-1.7-6.7s-2.7-2.3-4.7-2.3-3.5 0.8-4.6 2.3-1.7 3.7-1.7 6.6v1.5c0 2.9 0.6 5.1 1.7 6.7s2.7 2.4 4.7 2.4 3.6-0.8 4.7-2.3 1.6-3.8 1.6-6.8z"/>
		<path id="path18" d="m148.9 221.8v9.8h-4.6v-26.3h10.1c2.9 0 5.3 0.8 7 2.3s2.6 3.6 2.6 6.1c0 2.6-0.8 4.6-2.5 6s-4.1 2.2-7.1 2.2h-5.5zm0-3.7h5.5c1.6 0 2.9-0.4 3.7-1.1 0.9-0.8 1.3-1.9 1.3-3.3s-0.4-2.6-1.3-3.4-2.1-1.3-3.6-1.3h-5.6z"/>
		<polygon id="polygon20" points="49.3 247.9 45.9 247.9 45.9 247 53.6 247 53.6 247.9 50.2 247.9 50.2 259 49.3 259"/>
		<polygon id="polygon22" points="62.9 259 56.7 259 56.7 247 62.9 247 62.9 247.9 57.6 247.9 57.6 252.4 62.2 252.4 62.2 253.2 57.6 253.2 57.6 258.1 62.9 258.1"/>
		<path id="path24" d="m73.5 247v12h-0.9v-11h-4.1l-0.2 5.3c-0.1 1.6-0.2 2.7-0.4 3.5s-0.5 1.3-0.8 1.7c-0.4 0.3-0.8 0.5-1.4 0.5h-0.4v-0.9h0.3c0.4 0 0.8-0.2 1-0.5s0.4-0.8 0.6-1.5c0.1-0.7 0.2-1.7 0.3-3.1l0.3-6z"/>
		<polygon id="polygon26" points="83.7 259 77.5 259 77.5 247 83.7 247 83.7 247.9 78.4 247.9 78.4 252.4 83.1 252.4 83.1 253.2 78.4 253.2 78.4 258.1 83.7 258.1"/>
		<polygon id="polygon28" points="87 247 87.9 247 87.9 252.5 89.2 252.5 93 247 94.2 247 90.1 252.9 94.5 259 93.3 259 89.3 253.4 87.9 253.4 87.9 259 87 259"/>
		<path id="path30" d="m102.8 255.6h-4.5l-1 3.3h-1l3.8-11.9h0.9l3.8 11.9h-1zm-4.2-0.9h3.9l-2-6.4z"/>
		<polygon id="polygon32" points="108.7 259 107.8 259 107.8 247 108.7 247 108.7 252.4 114.3 252.4 114.3 247 115.2 247 115.2 259 114.3 259 114.3 253.2 108.7 253.2"/>
		<path id="path34" d="m124.8 255.6h-4.5l-1 3.3h-1l3.8-11.9h0.9l3.8 11.9h-1zm-4.2-0.9h3.9l-2-6.4z"/>
		<path id="path36" d="m137.2 247v12h-0.9v-11h-4.1l-0.2 5.3c-0.1 1.6-0.2 2.7-0.4 3.5s-0.5 1.3-0.8 1.7c-0.4 0.3-0.8 0.5-1.4 0.5h-0.4v-0.9h0.3c0.4 0 0.8-0.2 1-0.5s0.4-0.8 0.6-1.5c0.1-0.7 0.2-1.7 0.3-3.1l0.3-6z"/>
	</g>
</svg>
