<?xml version="1.0" encoding="UTF-8"?>
<!-- Created with Inkscape (http://www.inkscape.org/) -->
<svg id="svg2" width="140" height="163.09" fill-rule="evenodd" version="1.1" viewBox="0 0 39.511 46.028" xml:space="preserve" xmlns="http://www.w3.org/2000/svg" xmlns:cc="http://creativecommons.org/ns#" xmlns:dc="http://purl.org/dc/elements/1.1/" xmlns:rdf="http://www.w3.org/1999/02/22-rdf-syntax-ns#"><metadata id="metadata34"><rdf:RDF><cc:Work rdf:about=""><dc:format>image/svg+xml</dc:format><dc:type rdf:resource="http://purl.org/dc/dcmitype/StillImage"/><dc:title/></cc:Work></rdf:RDF></metadata><defs id="defs4"><style id="style6" type="text/css"/></defs><g id="g3022" transform="matrix(.35612 0 0 .35612 -33.803 -15.166)" fill="#ca1b52"><path id="path10" transform="matrix(.79248 0 0 .79248 86.994 33.15)" d="m82.75 160.69v14.312h17.406v-14.312h-3.9375v10.875h-2.8125v-7.125h-3.9062v7.125h-2.8125v-10.875z"/><path id="polygon12" d="m179.08 160.5v11.327h-3.119v-5.69h-3.966v5.69h-3.119v-11.327h3.119v2.923h3.966v-2.923z"/><path id="polygon18" d="m189.45 160.5h3.026v11.327h-3.119v-6.22l-4.059 6.22h-3.026v-11.327h3.119v6.219z"/><path id="polygon20" d="m135.94 171.83h-3.119v-6.137l-1.949 3.41-3.126 1e-3 -1.909-3.34v6.066h-3.118v-11.327h3.237l3.353 5.866 3.352-5.866h3.279z"/><path id="path22" d="m142.41 160.5h3.6771l4.5406 11.328h-12.758zm-0.093 8.6136h3.8629l-1.9314-4.8184z"/><path id="path24" d="m195.66 160.5h3.1186v6.2191l4.0591-6.2191h3.0257v11.328h-3.1186v-6.2199l-4.0596 6.2199h-3.0252zm5.1017-5.8157c1.1945 0 2.1632 0.9687 2.1632 2.1632s-0.9687 2.1632-2.1632 2.1632-2.1632-0.9687-2.1632-2.1632 0.9687-2.1632 2.1632-2.1632z"/><path id="path26" d="m114.51 160.5c3.1276 0 5.664 2.5364 5.664 5.6639 0 3.1277-2.5364 5.6641-5.664 5.6641s-5.664-2.5364-5.664-5.6641c0-3.1275 2.5364-5.6639 5.664-5.6639zm-2.5488 5.6636c-2e-4 1.392 1.1565 2.549 2.5485 2.5492 1.3921 0 2.549-1.1564 2.5492-2.5486 2e-4 -1.3338-1.062-2.4581-2.3893-2.543-1.4553-0.0931-2.7084 1.0776-2.7084 2.5424z"/><path id="path28" d="m151 42.587c30.156 0 54.611 24.455 54.611 54.611s-24.455 54.611-54.611 54.611l-56.083 4e-4v-109.22h56.083zm-4.4159 31.795c12.598 0 22.816 10.218 22.816 22.816s-10.218 22.816-22.816 22.816-22.816-10.218-22.816-22.816 10.218-22.816 22.816-22.816z"/><path id="path30" d="m100.69 160.6c3.1028 0 5.619 2.5162 5.619 5.619 0 3.1027-2.5162 5.6189-5.619 5.619h-5.7704v-11.238zm-0.4543 3.2714c1.2962 0 2.3475 1.0513 2.3475 2.3476 0 1.2962-1.0513 2.3475-2.3475 2.3475-1.2963 0-2.3476-1.0513-2.3476-2.3475 0-1.2963 1.0513-2.3476 2.3476-2.3476z"/></g></svg>
