<?xml version="1.0" encoding="UTF-8"?>
<svg id="svg39" width="1155.9pt" height="648.73pt" version="1.1" viewBox="0 0 1155.9 648.73" xmlns="http://www.w3.org/2000/svg" xmlns:cc="http://creativecommons.org/ns#" xmlns:dc="http://purl.org/dc/elements/1.1/" xmlns:rdf="http://www.w3.org/1999/02/22-rdf-syntax-ns#">
 <metadata id="metadata45">
  <rdf:RDF>
   <cc:Work rdf:about="">
    <dc:format>image/svg+xml</dc:format>
    <dc:type rdf:resource="http://purl.org/dc/dcmitype/StillImage"/>
    <dc:title/>
   </cc:Work>
  </rdf:RDF>
 </metadata>
 <g id="#ee7821ff" transform="translate(-156.19 -130.13)" fill="#ee7821">
  <path id="path15" transform="scale(.75)" d="m1536.2 173.5c-0.08-4.8e-4 -0.16 5e-3 -0.2402 6e-3 -0.093-3e-3 -0.1866-8e-3 -0.2793-4e-3 -0.058 2e-3 -0.1142 0.0126-0.1719 0.0156-0.1027 4e-3 -0.2058 2e-3 -0.3086 8e-3 -0.1417 0.01-0.2822 0.0238-0.4238 0.0371-0.1177 0.0104-0.2323 0.0342-0.3496 0.0469-0.1816 0.0204-0.3619 0.0455-0.543 0.0723-0.2906 0.0412-0.579 0.0878-0.8652 0.14648-0.2361 0.0482-0.4692 0.10925-0.7031 0.16797-0.137 0.0364-0.2786 0.0582-0.4141 0.0996-0.04 0.0112-0.079 0.0256-0.1191 0.0371-0.1774 0.051-0.3519 0.10909-0.5274 0.16601-0.2347 0.0757-0.4667 0.15622-0.6972 0.24219-0.1237 0.0465-0.2468 0.0932-0.3692 0.14258-0.3302 0.13236-0.6555 0.27453-0.9746 0.42773-0.039 0.0188-0.079 0.0356-0.1172 0.0547-0.7833 0.38405-1.5252 0.83292-2.2187 1.3379-0.3512 0.25574-0.6873 0.52726-1.0098 0.8125-0.9425 0.83368-1.7553 1.7867-2.3887 2.8555-0.057 0.0946-0.1063 0.19282-0.1601 0.28906-0.1216 0.22005-0.2394 0.44294-0.3457 0.67188-0.082 0.17506-0.1575 0.35322-0.2305 0.5332-0.056 0.14017-0.1062 0.28258-0.1562 0.42578-0.085 0.23867-0.1667 0.47802-0.2344 0.72461-0.2698 0.98234-0.3899 2.0288-0.3555 3.127 1e-3 0.035 0 0.0684 0 0.10351-0.027 0.53029-0.022 1.0656 0.02 1.6035v1.2383c-0.054 1.9369-0.031 3.8776 0 5.8184v822.55c-0.031 1.9408-0.055 3.8815 0 5.8184v1.2384c-0.041 0.5379-0.046 1.0732-0.018 1.6035-7e-4 0.02 7e-4 0.039 0 0.059-0.039 1.1146 0.082 2.1761 0.3555 3.1718 0.07 0.2541 0.1542 0.5005 0.2422 0.7461 0.046 0.1297 0.09 0.2596 0.1406 0.3868 0.078 0.1936 0.161 0.3842 0.25 0.5722 0.099 0.2128 0.2077 0.4199 0.3203 0.625 0.059 0.1061 0.1134 0.2144 0.1758 0.3184 0.6329 1.067 1.4455 2.0189 2.3867 2.8515 0.3222 0.2851 0.6589 0.557 1.0098 0.8126 0.69 0.5025 1.428 0.9491 2.207 1.332 0.055 0.027 0.1109 0.052 0.166 0.078 0.3042 0.1451 0.6135 0.28 0.9278 0.4063 0.1275 0.052 0.2558 0.1 0.3847 0.1484 0.2267 0.084 0.4549 0.1637 0.6856 0.2383 0.1805 0.059 0.3604 0.1176 0.5429 0.1699 0.037 0.011 0.074 0.025 0.1114 0.035 0.128 0.039 0.2613 0.059 0.3906 0.094 0.2417 0.061 0.4825 0.1241 0.7266 0.1738 0.2842 0.058 0.5708 0.1055 0.8593 0.1465 0.1836 0.027 0.3667 0.052 0.5508 0.072 0.1165 0.013 0.2307 0.037 0.3477 0.047 0.1416 0.013 0.282 0.027 0.4238 0.037 0.1021 0.01 0.2046 0 0.3066 0.01 0.057 0 0.1146 0.014 0.1719 0.016 0.093 0 0.1861-7e-4 0.2793 0 0.081 7e-4 0.1611 0.01 0.2422 0.01 0.2315 0 0.4613-0.01 0.6914-0.018 7e-4 0 0 0 0 0 0.102 0 0.2045 0 0.3066-0.01 0.143-0.01 0.2849-0.024 0.4277-0.037 0.1189-0.011 0.2351-0.034 0.3536-0.047 0.1776-0.02 0.3541-0.044 0.5312-0.07 0.2947-0.042 0.5868-0.091 0.877-0.1504 0.2315-0.047 0.46-0.1066 0.6894-0.1641 0.1397-0.037 0.2838-0.059 0.4219-0.1015 0.041-0.011 0.081-0.025 0.1211-0.037 0.178-0.051 0.3532-0.1088 0.5293-0.166 0.2239-0.072 0.4458-0.1488 0.666-0.2304 0.1422-0.053 0.2834-0.1071 0.4238-0.1641 0.3183-0.1282 0.6315-0.2664 0.9395-0.4141 0.041-0.02 0.084-0.038 0.125-0.059 2.3424-1.1482 4.3452-2.8534 5.623-5.0136 0.051-0.085 0.094-0.1736 0.1426-0.2598 0.1292-0.2325 0.2513-0.4685 0.3633-0.7109 0.077-0.1634 0.1485-0.3285 0.2168-0.4961 0.061-0.1516 0.116-0.3059 0.1699-0.461 0.082-0.2323 0.1626-0.4652 0.2285-0.705 0.2703-0.9829 0.3897-2.0301 0.3555-3.129-1e-3 -0.034 0-0.066 0-0.1 0.029-0.5321 0.022-1.0694-0.019-1.6093v-1.1641c0.057-2.0109 0.032-4.026 0-6.041v-822.26c0.032-2.015 0.058-4.0301 0-6.041v-1.1641c0.04-0.5399 0.047-1.0773 0.018-1.6094 7e-4 -0.0179-6e-4 -0.0349 0-0.0527 0.049-1.3968-0.1643-2.7053-0.5957-3.9121-0.048-0.13641-0.095-0.2726-0.1485-0.40625-0.074-0.18218-0.1509-0.36192-0.2343-0.53906-0.1051-0.22618-0.2199-0.44658-0.3399-0.66407-0.056-0.10036-0.1088-0.20224-0.1679-0.30078-0.6327-1.066-1.4443-2.0177-2.3848-2.8496-0.3224-0.28517-0.6587-0.55682-1.0098-0.8125-0.69-0.50253-1.4279-0.94922-2.207-1.332-0.058-0.0286-0.1175-0.0541-0.1758-0.082-0.291-0.13861-0.5864-0.2693-0.8867-0.39063-0.1507-0.0613-0.3024-0.11897-0.4551-0.17578-0.2079-0.0768-0.4176-0.14826-0.6289-0.21679-0.1864-0.0608-0.372-0.12175-0.5605-0.17578-0.038-0.0107-0.074-0.0247-0.1114-0.0352-0.1312-0.0401-0.2677-0.0603-0.4004-0.0957-0.2366-0.0596-0.472-0.12308-0.7109-0.17188-0.2887-0.0593-0.5799-0.10691-0.873-0.14844-0.1791-0.0264-0.3576-0.0501-0.5372-0.0703-0.1176-0.0127-0.2334-0.0365-0.3515-0.0469-0.1428-0.0131-0.2847-0.0264-0.4278-0.0371-0.1007-4e-3 -0.2019-4e-3 -0.3027-8e-3 -6e-4 -2e-5 0 3e-5 0 0 0-1e-4 0 1e-4 -0.01 0-0.2295-8e-3 -0.4586-0.0176-0.6895-0.0176z" stroke-width="1.3333"/>
  <path id="path17" d="m850.05 286.13c37.16-9.19 75.69-14.5 113.99-11.02 16.86 1.44 33.93 4.19 49.37 11.42 12.58 5.9 24.34 14.14 32.81 25.29 11.16 14.3 16.47 32.29 18.35 50.12 1.27 10.64 0.88 21.35 0.93 32.04 0 59.33-0.01 118.66 0 177.99 0.27 8.96-5.97 16.97-13.88 20.59-12.27 5.91-29.08 2.13-36.15-9.94-3.68-5.79-2.24-12.87-3.31-19.3-7.11 3.44-12.66 9.23-19.04 13.78-11.74 9.13-25.29 15.65-39.18 20.79-14.32 5.3-29.82 5.96-44.93 5.87-20.93-0.16-41.65-7.73-57.91-20.86-14.07-11.05-23.84-26.79-29.64-43.56-6.05-17.09-6.92-35.64-4.61-53.51 2.48-18.71 9.87-37.2 23.09-50.92 11.82-12.47 27.24-20.88 43.17-26.89 27.76-10.67 57.62-13.3 86.97-16.18 11.12-1.07 22.27-1.77 33.41-2.61 2.98-0.47 7.4-0.66 8.28-4.26 1.87-11.67-0.23-23.65-4.12-34.7-5.92-14.6-20.7-23.47-35.66-26.35-19.43-3.57-39.49-4.01-59.02-0.95-16.05 2.26-31.83 6.05-47.41 10.45-5.3 1.57-11.44 2.71-16.39-0.48-10.4-5.41-16.15-18.05-13.53-29.45 1.82-7.47 6.39-15.44 14.41-17.36m152.07 145.97c-5.7 0.41-11.4 0.71-17.06 1.35-20.12 2.32-40.44 3.74-60.11 8.8-15.84 3.87-31.18 11.28-42.5 23.22-8.63 9.19-12.05 22.1-12.08 34.46-0.2 14.07 3.06 29.18 13.25 39.5 10.98 11.23 27.19 15.14 42.43 15.55 16.64 0.59 33.59-2.65 48.36-10.51 11.29-6.02 21.87-13.31 31.88-21.26 4.17-3.18 6.32-8.3 6.39-13.47 0.29-22.93-0.23-45.87 0.29-68.79 0.01-3.07-0.74-6.65-3.64-8.27-2.26-1.04-4.83-0.64-7.21-0.58z"/>
  <path id="path19" d="m590.47 282.79c5.06-1.33 10.33-1.01 15.51-1.04 45.68 0.01 91.36 0 137.03 0 6.32 0.05 12.96 2.17 17.19 7.08 4.32 4.59 6.64 10.85 6.32 17.16-0.22 74.01 0.3 148.01 0.23 222.02 0.08 4.99-0.21 10 0.11 15 0.13 3.01 2.38 5.7 5.23 6.6 6.97 1.84 14.53-0.84 21.33 1.83 4.11 1.7 4.68 6.65 4.81 10.53 0.06 28-0.03 56 0.04 83.99 0.13 5.05-0.82 10.29-3.88 14.43-6.76 10.07-21.21 13.43-32 8.2-7.96-3.52-13.63-11.81-13.62-20.57 0.07-15.03-0.42-30.05-0.27-45.08 0.45-4.71-3.79-8.9-8.48-8.44-61.01-0.01-122.03 0.03-183.04-0.02-2.99 0.04-6.02-0.23-8.97 0.32-3.27 0.75-5.72 3.9-5.72 7.25-0.11 14.98-0.4 29.97-0.29 44.97 0.28 9.07-5.28 17.88-13.57 21.54-11.39 5.59-26.95 1.55-33.09-9.85-3.95-6.55-2.65-14.43-2.84-21.68-0.19-24.36 0.38-48.7 0.25-73.06 0.23-3.81 0.08-8.32 2.97-11.22 5.09-3.23 11.53-1.34 17.05-3.14 2.26-0.88 3.51-3.1 4.73-5.05 3.9-6.78 6.69-14.11 9.96-21.2 2.45-5.49 5.65-10.61 7.91-16.19 4.72-11.41 8.24-23.26 11.92-35.04 5.7-17.42 9.94-35.26 13.53-53.22 2.89-14.86 6.14-29.68 7.68-44.75 2.3-21.7 3.3-43.51 5.53-65.21 0.59-5.04 0.67-10.32 2.97-14.95 2.6-5.46 7.66-9.6 13.47-11.21m38 42.73c-3.17 0.62-5.54 3.47-5.86 6.63-2.92 23.53-3.3 47.31-6.59 70.79-3.16 18.78-7.28 37.41-12.17 55.82-5.31 18.27-11.58 36.25-18.03 54.15-3.75 10.55-9.73 20.07-15.14 29.82-0.94 1.9-2.32 3.92-1.69 6.16 1.75 1.22 3.94 1.38 6.02 1.38 43-0.06 86.01 0 129.01-0.02 2.71-0.04 5.75-0.46 7.59-2.68 2.76-2.79 2.06-7 2.17-10.55-0.07-67.35 0-134.69-0.03-202.04-0.05-2.83-0.63-5.99-2.98-7.85-2.68-2.38-6.5-1.83-9.79-1.92-24.16 0.27-48.38-0.37-72.51 0.31z"/>
 </g>
 <g id="#e13028ff" transform="translate(-156.19 -130.13)" fill="#e13028">
  <path id="path22" d="m1198.9 145.98c2.21-3.45 5.8-6.56 10.13-6.45 19.64-0.04 39.29-0.05 58.94 0 6.48-0.03 12.24 5.94 12.05 12.41 0.58 7.11-5.97 13.52-13.01 13.27-12.4-0.12-24.84-0.58-37.23 0.1 7 4.24 14.73 7.07 21.86 11.07 7.46 4.52 7.55 16.78 0.14 21.4-7.13 4.13-14.92 7.02-21.98 11.31 13.08 0.43 26.18-0.05 39.27 0.23 6.27 0.43 11.46 6.49 10.96 12.76 0.14 6.29-5.62 12.13-11.93 11.92-19.37 0.02-38.74-0.03-58.1 0.02-6.99 0.62-13.1-6.19-12.79-12.97 0.02-6.07-1.2-14.08 5.04-17.69 10.78-5.73 21.85-10.92 32.71-16.51-10.5-5.54-21.26-10.59-31.8-16.05-4.02-1.94-6.22-6.43-5.95-10.79 0.22-4.67-0.93-9.84 1.69-14.03z"/>
  <path id="path24" d="m1204.9 240.89c6.2-2.3 12.05 1.78 17.8 3.54 24.34 8.9 48.6 18.06 73 26.81 6.02 2.02 11.07 6.73 13.48 12.61 3.33 7.97 3.16 16.83 2.62 25.29-0.09 4.15-2.62 8.5-6.85 9.51-4.65 1.28-9.96-1.83-10.9-6.59-0.6-4.53 0.75-9.23-0.65-13.67-3.76-8.35-15.07-9.11-22.57-5.8-18.99 7.07-37.95 14.23-56.97 21.23-5.06 2.06-11.3 0.23-14.39-4.27-4.17-5.46-2.39-14.11 3.67-17.4 5.5-2.98 11.74-4.24 17.58-6.42 8.65-2.86 17.28-5.75 25.87-8.8-11.32-4.2-23-7.36-34.47-11.11-4.61-1.56-10.23-2.39-13-6.9-4.17-6.12-1.33-15.6 5.78-18.03z"/>
  <path id="path26" d="m300.47 274.76c32.2-2.59 65.86-0.54 95.61 13.07 21.54 9.71 39.52 26.75 50.8 47.47 14.9 26.93 19.43 58.33 19.07 88.75-0.18 18.18-16.96 33.61-34.88 33.66-54.03 0.09-108.06 0.02-162.09 0.03-3.31 0.06-6.65-0.23-9.94 0.23-2.58 0.73-5.01 3.28-4.75 6.11 1.9 16.42 7.61 33.11 19.59 44.96 13.61 13.72 32.91 19.77 51.64 22.15 22.34 2.51 45.53 1.93 66.93-5.55 7.11-2.19 14-5.05 21.1-7.26 9.75-2.69 20.77-1.83 29.45 3.6 8.02 5.04 14.5 13 16.49 22.4 1.99 10.01 0.62 21.12-5.58 29.49-5.98 8.3-15.59 13.08-25.27 15.65-20.18 5.64-40.66 10.82-61.61 12.41-26.01 1.95-52.27 1.26-78.05-2.85-30.27-4.87-60.3-16.02-83.64-36.39-13.45-11.52-24.6-25.74-32.45-41.62-10.33-20.82-15.17-44.01-16.38-67.12-1.28-27.58 1.15-55.72 10.59-81.83 11.76-33.28 35.83-62.37 67.13-78.94 20.4-10.9 43.3-16.48 66.24-18.42m4.11 62.07c-11.84 1.44-23.59 6.15-32.06 14.74-11.33 10.78-17.12 26.24-18.73 41.54-0.07 3.6 3.88 5.82 7.13 5.63 34.02 0.01 68.05 0.01 102.07 0.01 3 0.21 6.25-1.68 6.64-4.85 0.33-3.96-0.51-7.9-1.12-11.79-2.37-13.66-8.06-27.66-19.49-36.18-12.66-9.29-29.28-10.77-44.44-9.1z"/>
  <path id="path28" d="m1201.3 326.29c2.17-2.48 5.32-4.22 8.7-4.04 18.68-0.02 37.36 0.04 56.04-0.03 3.49-0.26 7.16 0.62 9.64 3.23 5.85 4.89 5.97 15.25-0.31 19.84-3.49 2.82-8.23 2.15-12.39 2.23-10.69 0.08-21.39-0.28-32.07 0.2 12.33 8.22 24.99 15.92 37.48 23.9 4.31 2.79 9.84 5.34 11.08 10.84 0.73 4.57 0.82 9.88-2.44 13.56-2.2 2.64-5.37 4.82-8.92 4.73-18.69 0.03-37.38-0.05-56.07 0.03-3.33 0.02-7.02 0.21-9.76-2.03-6.45-4.57-6.92-15.33-0.8-20.37 2.46-2.57 6.07-3.46 9.54-3.16 9.89-0.02 19.79 0.19 29.68-0.12-9.97-7.07-20.43-13.41-30.61-20.16-4.71-3.1-10.31-6.04-12.28-11.7-1.26-5.73-0.98-12.6 3.49-16.95z"/>
  <path id="path30" d="m1197.4 422.14c1.08-5.84 6.59-10.76 12.65-10.6 18.95-0.06 37.92-0.08 56.88 0.01 6.4-0.25 12.63 4.8 13.07 11.3 1.04 6.72-4.19 13.74-11.02 14.3-13.03 0.43-26.09-0.34-39.11 0.38 6.95 4.15 14.57 6.99 21.65 10.9 7.54 4.44 7.74 16.77 0.34 21.46-7.13 4.14-14.9 7.07-22.02 11.24 12.73 0.98 25.51-0.04 38.26 0.2 6.53 0.03 12.4 6.1 11.95 12.67 0.28 6.46-5.6 12.37-12.04 12.23-19.32 0.05-38.64 0-57.96 0.03-7.03 0.45-13.25-6.38-12.82-13.27 0.08-3.76-0.37-7.6 0.46-11.3 0.77-3.41 3.52-5.95 6.63-7.33 10.35-4.88 20.46-10.25 30.68-15.4-10.36-5.39-20.88-10.45-31.29-15.74-3.63-1.58-6.18-5.19-6.38-9.15-0.17-3.97-0.26-7.97 0.07-11.93z"/>
  <path id="path32" d="m1225.6 514.71c3.15-0.43 6.35-0.61 9.55-0.45 4.22 0.03 8.08 3.63 8.56 7.8 0.46 15.93-0.46 31.92 0.43 47.82 7.17 0.86 14.55-3.99 17.1-10.71 2.64-6.7 2.9-14.2 1.61-21.22-0.79-4.41-3.34-8.42-3.35-12.95-0.19-5.06 4.5-9.64 9.56-9.3 4.04-0.34 7.72 2.53 9.07 6.23 3.52 9.9 4.88 20.53 4.16 31.02-0.53 10.21-2.89 20.81-9.32 29.01-5.43 7.08-13.61 11.81-22.33 13.43-10.21 1.92-21.02 1.42-30.77-2.27-10.44-3.99-18.99-12.76-22.4-23.43-2.82-8.74-3.2-18.17-1.8-27.2 1.23-7.62 4.71-15.09 10.79-20.02 5.38-4.52 12.26-6.8 19.14-7.76m-12.73 33.05c-2.19 6.17-1.53 14.21 3.85 18.59 3.02 2.78 7.14 3.67 11.1 4.15 0.4-10.26 0.34-20.55 0.01-30.81-5.74 0.33-12.65 2.16-14.96 8.07z"/>
  <path id="path34" d="m1199.8 615.86c6.72-8.61 17.64-12.64 28.19-13.87 11.52-1.24 23.75-0.71 34.24 4.73 8.61 4.11 15.68 11.63 18.43 20.87 3.01 9.75 0.7 20.24-4.06 29.02 7.77 0.25 15.56-0.52 23.33 0.05 5.86 0.48 10.94 5.5 11.46 11.37 1.14 7.21-5.06 14.58-12.4 14.46-29.99 0.02-59.98 0.03-89.96-0.01-7.38 0.06-12.95-7.53-12.04-14.57 0.12-5.14 3.96-9.03 8.02-11.66-4.1-5.03-8.25-10.36-9.66-16.84-1.55-7.99-0.74-16.97 4.45-23.55m16.41 20.39c-3.09 6.65-0.69 14.21 2.77 20.21 13.32 0.03 26.65 0.12 39.98-0.02 2.65-0.02 2.36-3.54 2.87-5.41 0.88-6.49 0-14.19-5.66-18.36-6.93-5.11-16.11-4.95-24.31-4.5-5.91 0.5-12.85 2.24-15.65 8.08z"/>
  <path id="path36" d="m1197.2 705.99c-0.45-7.67 7.5-13.61 14.77-12.77 18.34 0.07 36.69-0.01 55.03 0.04 5.6-0.06 10.97 3.95 12.63 9.28 2.21 7.26-2.7 16.21-10.66 16.56-17.72 0.4-35.47-0.04-53.2 0.21-0.08 8.74-0.13 17.48 0.03 26.22 17.39 0.51 34.81 0.07 52.21 0.22 6.69 0.06 12.73 6.52 12 13.27 0.32 6.59-5.49 12.6-12.12 12.4-19.3 0.16-38.62 0.07-57.93 0.05-6.4 0.37-12.59-4.84-12.71-11.35-0.11-18.04 0-36.09-0.05-54.13z"/>
 </g>
</svg>
