<svg width="909.33pt" height="397.26pt" version="1.1" viewBox="0 0 909.33 397.26" xmlns="http://www.w3.org/2000/svg">
 <g transform="translate(-156.19 -273.79)" fill="#ee7821">
  <path d="m850.05 286.13c37.16-9.19 75.69-14.5 113.99-11.02 16.86 1.44 33.93 4.19 49.37 11.42 12.58 5.9 24.34 14.14 32.81 25.29 11.16 14.3 16.47 32.29 18.35 50.12 1.27 10.64 0.88 21.35 0.93 32.04 0 59.33-0.01 118.66 0 177.99 0.27 8.96-5.97 16.97-13.88 20.59-12.27 5.91-29.08 2.13-36.15-9.94-3.68-5.79-2.24-12.87-3.31-19.3-7.11 3.44-12.66 9.23-19.04 13.78-11.74 9.13-25.29 15.65-39.18 20.79-14.32 5.3-29.82 5.96-44.93 5.87-20.93-0.16-41.65-7.73-57.91-20.86-14.07-11.05-23.84-26.79-29.64-43.56-6.05-17.09-6.92-35.64-4.61-53.51 2.48-18.71 9.87-37.2 23.09-50.92 11.82-12.47 27.24-20.88 43.17-26.89 27.76-10.67 57.62-13.3 86.97-16.18 11.12-1.07 22.27-1.77 33.41-2.61 2.98-0.47 7.4-0.66 8.28-4.26 1.87-11.67-0.23-23.65-4.12-34.7-5.92-14.6-20.7-23.47-35.66-26.35-19.43-3.57-39.49-4.01-59.02-0.95-16.05 2.26-31.83 6.05-47.41 10.45-5.3 1.57-11.44 2.71-16.39-0.48-10.4-5.41-16.15-18.05-13.53-29.45 1.82-7.47 6.39-15.44 14.41-17.36m152.07 145.97c-5.7 0.41-11.4 0.71-17.06 1.35-20.12 2.32-40.44 3.74-60.11 8.8-15.84 3.87-31.18 11.28-42.5 23.22-8.63 9.19-12.05 22.1-12.08 34.46-0.2 14.07 3.06 29.18 13.25 39.5 10.98 11.23 27.19 15.14 42.43 15.55 16.64 0.59 33.59-2.65 48.36-10.51 11.29-6.02 21.87-13.31 31.88-21.26 4.17-3.18 6.32-8.3 6.39-13.47 0.29-22.93-0.23-45.87 0.29-68.79 0.01-3.07-0.74-6.65-3.64-8.27-2.26-1.04-4.83-0.64-7.21-0.58z"/>
  <path d="m590.47 282.79c5.06-1.33 10.33-1.01 15.51-1.04 45.68 0.01 91.36 0 137.03 0 6.32 0.05 12.96 2.17 17.19 7.08 4.32 4.59 6.64 10.85 6.32 17.16-0.22 74.01 0.3 148.01 0.23 222.02 0.08 4.99-0.21 10 0.11 15 0.13 3.01 2.38 5.7 5.23 6.6 6.97 1.84 14.53-0.84 21.33 1.83 4.11 1.7 4.68 6.65 4.81 10.53 0.06 28-0.03 56 0.04 83.99 0.13 5.05-0.82 10.29-3.88 14.43-6.76 10.07-21.21 13.43-32 8.2-7.96-3.52-13.63-11.81-13.62-20.57 0.07-15.03-0.42-30.05-0.27-45.08 0.45-4.71-3.79-8.9-8.48-8.44-61.01-0.01-122.03 0.03-183.04-0.02-2.99 0.04-6.02-0.23-8.97 0.32-3.27 0.75-5.72 3.9-5.72 7.25-0.11 14.98-0.4 29.97-0.29 44.97 0.28 9.07-5.28 17.88-13.57 21.54-11.39 5.59-26.95 1.55-33.09-9.85-3.95-6.55-2.65-14.43-2.84-21.68-0.19-24.36 0.38-48.7 0.25-73.06 0.23-3.81 0.08-8.32 2.97-11.22 5.09-3.23 11.53-1.34 17.05-3.14 2.26-0.88 3.51-3.1 4.73-5.05 3.9-6.78 6.69-14.11 9.96-21.2 2.45-5.49 5.65-10.61 7.91-16.19 4.72-11.41 8.24-23.26 11.92-35.04 5.7-17.42 9.94-35.26 13.53-53.22 2.89-14.86 6.14-29.68 7.68-44.75 2.3-21.7 3.3-43.51 5.53-65.21 0.59-5.04 0.67-10.32 2.97-14.95 2.6-5.46 7.66-9.6 13.47-11.21m38 42.73c-3.17 0.62-5.54 3.47-5.86 6.63-2.92 23.53-3.3 47.31-6.59 70.79-3.16 18.78-7.28 37.41-12.17 55.82-5.31 18.27-11.58 36.25-18.03 54.15-3.75 10.55-9.73 20.07-15.14 29.82-0.94 1.9-2.32 3.92-1.69 6.16 1.75 1.22 3.94 1.38 6.02 1.38 43-0.06 86.01 0 129.01-0.02 2.71-0.04 5.75-0.46 7.59-2.68 2.76-2.79 2.06-7 2.17-10.55-0.07-67.35 0-134.69-0.03-202.04-0.05-2.83-0.63-5.99-2.98-7.85-2.68-2.38-6.5-1.83-9.79-1.92-24.16 0.27-48.38-0.37-72.51 0.31z"/>
 </g>
 <g transform="translate(-156.19 -273.79)">
  <path d="m300.47 274.76c32.2-2.59 65.86-0.54 95.61 13.07 21.54 9.71 39.52 26.75 50.8 47.47 14.9 26.93 19.43 58.33 19.07 88.75-0.18 18.18-16.96 33.61-34.88 33.66-54.03 0.09-108.06 0.02-162.09 0.03-3.31 0.06-6.65-0.23-9.94 0.23-2.58 0.73-5.01 3.28-4.75 6.11 1.9 16.42 7.61 33.11 19.59 44.96 13.61 13.72 32.91 19.77 51.64 22.15 22.34 2.51 45.53 1.93 66.93-5.55 7.11-2.19 14-5.05 21.1-7.26 9.75-2.69 20.77-1.83 29.45 3.6 8.02 5.04 14.5 13 16.49 22.4 1.99 10.01 0.62 21.12-5.58 29.49-5.98 8.3-15.59 13.08-25.27 15.65-20.18 5.64-40.66 10.82-61.61 12.41-26.01 1.95-52.27 1.26-78.05-2.85-30.27-4.87-60.3-16.02-83.64-36.39-13.45-11.52-24.6-25.74-32.45-41.62-10.33-20.82-15.17-44.01-16.38-67.12-1.28-27.58 1.15-55.72 10.59-81.83 11.76-33.28 35.83-62.37 67.13-78.94 20.4-10.9 43.3-16.48 66.24-18.42m4.11 62.07c-11.84 1.44-23.59 6.15-32.06 14.74-11.33 10.78-17.12 26.24-18.73 41.54-0.07 3.6 3.88 5.82 7.13 5.63 34.02 0.01 68.05 0.01 102.07 0.01 3 0.21 6.25-1.68 6.64-4.85 0.33-3.96-0.51-7.9-1.12-11.79-2.37-13.66-8.06-27.66-19.49-36.18-12.66-9.29-29.28-10.77-44.44-9.1z" fill="#e13028"/>
 </g>
</svg>
