<?xml version="1.0" encoding="UTF-8"?>
<svg id="svg23" width="531.56pt" height="135.79pt" version="1.1" viewBox="0 0 531.56 135.79" xmlns="http://www.w3.org/2000/svg" xmlns:cc="http://creativecommons.org/ns#" xmlns:dc="http://purl.org/dc/elements/1.1/" xmlns:rdf="http://www.w3.org/1999/02/22-rdf-syntax-ns#">
 <metadata id="metadata29">
  <rdf:RDF>
   <cc:Work rdf:about="">
    <dc:format>image/svg+xml</dc:format>
    <dc:type rdf:resource="http://purl.org/dc/dcmitype/StillImage"/>
    <dc:title/>
   </cc:Work>
  </rdf:RDF>
 </metadata>
 <g id="#0072bbff" transform="translate(-64.98 -261.21)" fill="#0072bb">
  <path id="path9" d="m270.3 261.29c14.69-0.59 30.41 1.84 42.29 11.11 7.31 5.64 12.58 13.55 16.15 21.99 4.91 11.52 5.2 24.3 5.38 36.63-0.45 15.11-2.46 31.12-11.27 43.86-7.07 10.29-18.17 17.63-30.34 20.34-15.05 3.02-31.04 2.33-45.46-3.13-4.59-1.67-8.91-5.82-8.81-11-0.13-4.46-0.45-9.01 0.4-13.41 0.62-2.64 3.7-1.84 5.27-0.58 6.33 4.27 13.56 7.26 21.16 8.21 9.85 1.33 20.87 0.32 28.61-6.53 8.67-7.13 11.55-18.75 12.04-29.48-0.46-1.63-2.4-1.57-3.73-1.62-16.33 0.15-32.67 0.02-49 0.08-2.03 0.12-4.71-0.42-5.1-2.83-0.62-4.89-0.6-9.92-0.06-14.82 0.53-2.27 3.23-2.46 5.14-2.48 16-0.03 32 0.02 47.99-0.01 1.69 0 4.5-0.2 4.14-2.6-0.52-9.24-4.32-18.55-11.41-24.69-4.88-4.35-11.23-6.84-17.71-7.36-10.63-1.21-21.34 2.07-30.28 7.72-1.73 0.9-4.47 2.94-5.94 0.64-2.33-5.8-1.76-12.46 0.06-18.32 0.69-2.51 3.06-3.92 5.21-5.04 7.84-3.96 16.51-6.2 25.27-6.68z"/>
  <path id="path11" d="m68.34 264.49c2.72-1.15 5.75-0.95 8.64-1.01 20.34 0.11 40.69-0.15 61.03 0.21 1.95-0.16 3.76 1.23 3.81 3.24 0.49 4.61 0.63 9.33-0.03 13.94-0.27 2.31-2.69 3.31-4.76 3.21-14.02 0.17-28.06-0.12-42.08 0.14-1.28 0.1-3.62-0.07-3.63 1.79-0.32 8.66 0.15 17.34-0.15 26.01 0.04 1.56-0.35 4.37 1.92 4.49 12.31 0.31 24.63-0.03 36.94 0.14 1.83-0.1 4.04 0.76 4.3 2.81 0.58 4.7 0.89 9.55 0.18 14.25-0.68 2.85-4.01 3.25-6.46 3.18-11.04-0.12-22.09 0.21-33.13 0.06-1.86-0.27-3.97 0.83-3.75 2.96 0.08 10.36 0.09 20.73 0.09 31.1-0.23 1.71 0.75 3.68 2.76 3.43 14.67 0.12 29.35-0.23 44.03-0.03 2.09-0.17 4.17 1.39 4.1 3.6 0.34 4.64 0.64 9.36 0.02 13.99-0.14 2.62-3.05 3.02-5.1 2.98-21.02 0.07-42.05-0.02-63.08 0.04-2.43-0.03-5.2-0.12-7.02-1.97-2.05-2.15-1.91-5.33-1.99-8.09 0.06-37.68-0.01-75.37 0.04-113.05 0.03-2.73 0.52-6.15 3.32-7.42z"/>
  <path id="path13" d="m164.16 264.33c3.5-1.14 7.26-0.6 10.88-0.71 17.97-0.03 35.94-0.2 53.91-0.12 1.96 0 4.69 0.23 5.21 2.58 0.88 3.92 0.53 8 0.55 12-0.18 2.18 0.12 5.2-2.19 6.38-2.06 0.87-4.38 0.6-6.56 0.69-12-0.12-24-0.26-36-0.09-2.18-0.26-3.36 1.9-3.08 3.81-0.06 33.38 0.03 66.76 0.17 100.14-0.1 1.97 0.2 4.98-2.26 5.65-5.51 0.98-11.18 0.55-16.75 0.48-2.18-0.27-4.79 0.06-6.53-1.55-0.77-1.74-0.6-3.71-0.66-5.57 0.18-39-0.26-78-0.06-117 0.03-2.53 0.66-5.73 3.37-6.69z"/>
 </g>
 <path id="path16" d="m296.89 1.1101c-1.035-9e-5 -2.0713 0.57393-2.0713 1.7227v130.29c0 2.2974 4.1411 2.2968 4.1411 0v-130.29c0-1.1484-1.0348-1.7226-2.0698-1.7227z" fill="#ff1520"/>
 <path id="path18" d="m330.33 2.0932c30.53 0.14 61.08-0.11 91.61-0.06 2.01-0.06 3.81 1.59 3.85 3.62 0.43 4.99 0.63 10.06 0.04 15.04-0.32 2.29-2.72 3.47-4.83 3.41-9.96 0.26-19.94-0.15-29.9 0.17-1.78 0-2.23 2.03-2.08 3.45-0.09 33.71 0.21 67.41 0.13 101.12 0.1 2.12-0.45 5.27-3.16 5.32-6.64 0.48-13.32 0.31-19.96-0.02-2.88 0.19-3.93-2.91-3.75-5.26-0.03-33.69 0.01-67.39-0.01-101.08 0.02-1.54-0.14-4.09-2.32-3.72-9.98-0.23-19.98 0.3-29.96 0.05-1.98 0.14-4.17-1.16-4.18-3.32-0.5-5.17-0.62-10.42-0.11-15.59 0.15-2.32 2.66-3.12 4.63-3.13z" fill="#ff1520"/>
 <path id="path20" d="m435.9 9.7732c-0.4-3.73 2.23-7.73 6.26-7.55 14.61-0.13 29.22-0.09 43.83 0.23 9.5 0.2 19.17 2.84 26.91 8.49 6.13 4.52 9.82 11.8 10.6 19.31 0.92 8.14-0.1 17.06-5.32 23.68-2.99 4-7.38 6.56-11.73 8.83 3.83 1.71 8.01 2.69 11.52 5.07 7.55 4.79 12.68 13.16 13.42 22.09 0.79 9.99-1.06 20.72-7.5 28.69-5.85 7.43-14.89 11.58-23.97 13.49-17.38 3.73-35.27 2.38-52.9 2.59-2.84-0.06-5.96 0.15-8.44-1.48-2.34-1.64-2.68-4.74-2.69-7.37 0.02-38.69-0.01-77.38 0.01-116.07m27.42 12.38c-1.78 0.31-1.42 2.34-1.51 3.66 0.18 8.31 0.01 16.63 0.1 24.94 0.11 1.69-0.01 3.61 1.13 5.01 3.07 1.53 6.64 0.8 9.95 0.85 5.91-0.36 12.35-0.01 17.57-3.3 6.58-4.44 8.07-13.71 5.67-20.87-1.69-5.25-6.69-9.05-12.15-9.58-6.88-0.84-13.85-0.74-20.76-0.71m0.02 54.11c-1.57 0.42-1.39 2.26-1.46 3.52-0.07 10.34 0.24 20.68 0.13 31.02-0.01 1.31-0.01 3.77 1.97 3.53 8.04-0.02 16.12 0.01 24.13-0.76 7.53-0.66 14.41-6.47 15.71-14.01 0.98-6.37-0.7-13.58-5.59-18.03-4.87-4.41-11.78-5.09-18.05-5.3-5.61 0.09-11.27-0.43-16.84 0.03z" fill="#ff1520"/>
</svg>
