<?xml version="1.0" encoding="UTF-8"?>
<!-- Created with Inkscape (http://www.inkscape.org/) -->
<svg id="svg5927" width="800mm" height="166.24mm" version="1.1" viewBox="0 0 800 166.24" xmlns="http://www.w3.org/2000/svg" xmlns:cc="http://creativecommons.org/ns#" xmlns:dc="http://purl.org/dc/elements/1.1/" xmlns:rdf="http://www.w3.org/1999/02/22-rdf-syntax-ns#">
 <metadata id="metadata5924">
  <rdf:RDF>
   <cc:Work rdf:about="">
    <dc:format>image/svg+xml</dc:format>
    <dc:type rdf:resource="http://purl.org/dc/dcmitype/StillImage"/>
    <dc:title/>
   </cc:Work>
  </rdf:RDF>
 </metadata>
 <g id="layer1" transform="translate(34.022 13.869)">
  <g id="g5891" transform="matrix(8.2941 0 0 -8.2941 -4915.8 2017.9)">
   <path id="path436" d="m633.28 242.17h-3.703v2.798h3.703z"/>
   <g id="g446" transform="translate(651.8 243.9)">
    <path id="path448" d="m0 0v-3.209c0.905-0.191 2.167-0.027 3.209-0.082v-2.469h-3.209c0.342-2.288-0.934-6.409 1.234-6.664 0.872-0.103 1.075 0.32 1.975 0.328v-2.55c-1.805-0.341-4.164-0.452-5.349 0.247-2.275 1.342-1.088 5.295-1.398 8.557-0.304 0.19-0.959 0.029-1.399 0.082v2.469h1.399v3.291z"/>
   </g>
   <g id="g450" transform="translate(668.83 243.9)">
    <path id="path452" d="m0 0v-3.291h3.209v-2.469h-3.127c0.184-1.392-0.62-4.91 0.165-6.089 0.616-0.925 1.879-0.482 2.962-0.164v-2.633c-1.805-0.341-4.164-0.452-5.348 0.247-2.281 1.345-1.089 5.291-1.399 8.557-0.304 0.19-0.959 0.029-1.399 0.082v2.469h1.399v3.291z"/>
   </g>
   <g id="g454" transform="translate(600.04 234.19)">
    <path id="path456" d="m0 0h-7.899c0.03-2.623 3.247-3.252 5.677-2.304 0.776 0.304 1.339 0.925 2.057 0.905v-2.962c-1.842-0.772-3.59-1.055-5.677-0.905-3.702 0.265-5.836 2.914-5.596 6.5 0.184 2.743 2.064 5.217 5.102 5.514 4.71 0.459 6.685-1.977 6.336-6.748m-7.899 2.222h4.443c0.378 3.034-4.742 2.825-4.443 0"/>
   </g>
   <g id="g458" transform="translate(609.34 240.2)">
    <path id="path460" d="m0 0c0.336-0.062 0.016 0.533 0.411 0.412h3.209c-0.171-3.456 0.229-7.669 0-10.862-0.08-1.127-0.408-2.293-0.987-3.045-1.722-2.234-5.822-1.962-9.133-1.316v2.962c1.531-0.388 3.939-1.193 5.513-0.411 0.864 0.429 1.077 1.202 1.152 2.468-0.826-0.406-1.652-1.042-3.045-1.069-3.787-0.073-5.029 3.362-4.772 6.747 0.106 1.403 0.8 3.014 1.892 3.867 1.303 1.018 4.146 1.416 5.76 0.247m-3.209-2.551c-1.198-1.074-1.186-4.283 0-5.101 0.865-0.597 2.603-0.345 3.374 0.329v5.019c-1.247 0.514-2.571 0.474-3.374-0.247"/>
   </g>
   <g id="g462" transform="translate(620.2 240.85)">
    <path id="path464" d="m0 0c3.422 0.435 5.503-0.99 6.336-2.551 1.555-2.914 0.666-6.48-0.905-7.981-1.636-1.563-4.913-2.095-7.323-0.905-1.473 0.727-2.675 2.338-2.88 4.443-0.298 3.051 0.724 5.196 2.386 6.254 0.553 0.352 1.324 0.605 2.386 0.74m-0.247-2.88c-1.579-1.256-1.122-5.851 0.494-6.418 2.182-0.765 3.093 1.051 3.209 2.798 0.159 2.398-0.568 4.279-2.715 3.949-0.388-0.059-0.729-0.123-0.988-0.329"/>
   </g>
   <g id="g466" transform="translate(645.3 240.11)">
    <path id="path468" d="m0 0v-2.962c-0.667 0.17-1.2 0.656-1.893 0.905-0.852 0.306-4.006 0.894-4.114-0.494-0.066-0.864 1.605-1.112 2.222-1.234 1.802-0.357 3.385-0.637 4.032-1.975 0.734-1.519 0.051-3.327-0.823-4.114-1.949-1.753-6.679-1.672-9.051-0.412v2.962c0.707 0.029 1.133-0.559 1.728-0.822 0.536-0.237 1.292-0.5 1.975-0.576 0.94-0.106 2.896-0.108 2.88 0.905-0.013 0.799-1.377 0.921-2.14 1.069-1.552 0.304-3.014 0.627-3.785 1.646-0.539 0.712-0.863 2.451-0.247 3.621 1.344 2.547 6.179 2.888 9.216 1.481"/>
   </g>
   <g id="g470" transform="translate(633.2 240.61)">
    <path id="path472" d="m0 0v-11.438h-3.456c-0.137 3.621-0.137 7.817 0 11.438z"/>
   </g>
   <g id="g474" transform="translate(672.78 240.61)">
    <path id="path476" d="m0 0h3.703c0.749-2.598 1.643-5.049 2.386-7.652 0.509 1.209 0.913 2.504 1.317 3.784 0.404 1.285 0.789 2.572 1.151 3.868h3.703c-1.424-3.787-2.787-7.636-4.197-11.438h-3.949c-1.348 3.836-2.781 7.587-4.114 11.438"/>
   </g>
  </g>
  <g id="g478" transform="matrix(8.2941 0 0 -8.2941 548.27 47.557)">
   <path id="path480" d="m0 0c3.577 0.572 3.906-5.135 0.411-5.101-1.921 0.018-3.373 2.495-1.974 4.278 0.325 0.416 0.899 0.717 1.563 0.823" fill="#e01e31"/>
  </g>
 </g>
</svg>
