<svg id="a" version="1.1" viewBox="0 0 638.02 800" xml:space="preserve" xmlns="http://www.w3.org/2000/svg"><g id="b" transform="matrix(1.3333 0 0 -1.3333 -53.729 1796.4)" fill="#fff"><path id="c" d="m164.73 788.4h-30.644v26.392h-13.615v-67.247h13.615v28.089h30.644v-28.01l13.615 0.0395v67.543h-13.615z"/><path id="d" d="m259.81 814.79-35.074-46.439v46.439h-12.342v-67.247h10.813l34.304 44.989v-44.989h13.191v67.247z"/><path id="e" d="m508.13 814.79-35.281-46.439v46.439h-12.342v-67.247h11.02l34.521 44.989v-44.989h12.767v67.247z"/><path id="f" d="m330.42 801.76c5.7914 0 10.922-1.7463 15.391-5.2586l8.7709 9.5997c-6.7286 5.8407-14.779 8.7709-24.162 8.7709-9.2938 0-17.088-3.1473-23.363-9.4615-6.2945-6.2945-9.4517-14.059-9.4714-23.294 0-9.4418 3.1473-17.295 9.4418-23.57 6.3044-6.2748 14.099-9.4221 23.392-9.4517 9.4122 0 17.463 2.9302 24.162 8.7709l-8.7709 9.5996c-4.3016-3.4728-9.4023-5.2093-15.302-5.2093-5.9098 0-10.675 1.7956-14.296 5.3869-3.6208 3.6011-5.4559 8.4453-5.4756 14.562 0 5.6927 1.7956 10.369 5.4165 14.03 3.6011 3.6504 8.3664 5.4954 14.266 5.525"/><path id="g" d="m87.101 803.66v11.208l-46.804-0.04933v-67.553h46.804v11.997h-36.001v15.608h36.001v13.191h-36.001v15.598z"/><path id="h" d="m430.3 803.66v11.208l-47.998-0.0493v-67.553h47.998v11.997h-35.991v15.608h35.991v13.191h-35.991v15.598z"/><path id="i" d="m517.91 1216.7v130.61h-477.6v-464.4h477.6v128.41h-349.21v41.99h349.21v122.41h-349.21v40.589z"/><path id="j" d="m478.52 830.57c0 0.13813-0.24665-6.4622-0.15786-9.57 9.0176-5.9394 15.549 4.1832 23.945 0v9.57c-8.396 4.1832-14.769-5.9394-23.787 0"/></g></svg>
