<svg id="a" version="1.1" viewBox="0 0 778.54 800" xml:space="preserve" xmlns="http://www.w3.org/2000/svg">
<g id="b"><path id="c" d="m230.31 737.93c-4.0609-5.2212-9.8622-8.702-18.564-10.442v-1.1603c6.3814-1.1603 11.603-4.0609 15.083-9.2821 4.0609-5.2212 5.8013-11.603 5.8013-19.724 0-11.603-4.0609-20.305-12.763-26.106-8.702-5.2212-22.625-8.1218-41.769-8.1218h-41.769v135.17h50.471c15.083 0 27.266-3.4808 35.968-10.442 8.702-6.9616 13.343-16.244 13.343-29.007 0-8.702-1.7404-15.664-5.8013-20.885zm-65.555-51.632h15.083c8.1218 0 13.923 1.1603 17.984 3.4808 4.0609 2.3205 5.8013 5.8013 5.8013 11.022 0 5.8013-1.7404 9.2821-5.2212 12.183-3.4808 2.3205-9.2821 3.4808-16.824 3.4808h-16.824zm35.968 83.539c-3.4808 2.9006-9.8622 4.641-17.404 4.641h-18.564v-35.388h17.984c16.244 0 23.785 5.8013 23.785 16.824 0 6.3814-1.7404 11.022-5.8013 13.923z" stroke-width="5.8013"/><path id="d" d="m343.44 673.53c-8.702-6.9616-20.885-10.442-37.128-10.442h-42.93v135.17h28.426v-48.151h12.183c16.824 0 29.587-4.0609 38.869-11.603s13.343-18.564 13.343-33.067-4.0609-24.946-12.763-31.907zm-22.625 47.571c-4.641 3.4808-11.022 5.2212-19.724 5.2212h-9.2821v-40.029h12.763c7.5417 0 13.343 1.7404 17.404 4.641 3.4808 3.4808 5.2212 8.1218 5.2212 15.083 0.58013 6.9616-1.7404 11.603-6.3814 15.083z" stroke-width="5.8013"/><path id="e" d="m381.73 663.09h25.526v64.975l-0.58013 17.404-1.1603 19.724h0.58013l62.074-102.68h34.228v135.17h-25.526v-64.975c0-8.702 0.58013-21.465 1.7404-38.869h-0.58013l-62.654 103.26h-34.228v-134.01z" stroke-width="5.8013"/><polygon id="f" transform="matrix(5.8013 0 0 5.8013 -1385.9 -1897.6)" points="331.6 441.4 336.5 441.4 336.5 452.7 344.9 441.4 350.1 441.4 341.6 452.6 350.6 464.7 344.9 464.7 336.5 452.9 336.5 464.7 331.6 464.7"/><path id="g" d="m730.38 662.51h-34.808l-47.571 135.75h30.747l9.8622-31.907h49.311l9.8622 31.907h30.747zm-34.808 79.478c9.8622-31.327 15.664-50.471 17.404-58.593 0.58013 2.3205 1.1603 5.2212 2.3205 9.2821 1.1603 4.0609 6.3814 20.305 15.083 49.311z" stroke-width="5.8013"/><path id="h" d="m44.67 685.13c-6.3814 0-12.183 0.58013-17.984 2.3205-5.8013 1.7404-11.603 4.0609-17.404 6.3814l-9.2821-23.205c14.503-6.3814 29.007-9.2821 45.25-9.2821 19.724 0 35.388 6.3814 46.41 18.564 11.022 12.183 16.244 29.587 16.244 51.051 0 22.045-5.8013 39.449-16.824 51.051-11.022 12.183-27.266 17.984-48.731 17.984-14.503 0-27.846-2.3205-40.029-6.9616v-23.785c15.083 4.641 27.846 6.9616 38.289 6.9616 11.603 0 20.885-2.9006 26.686-8.702 6.3814-5.8013 9.2821-14.503 9.8622-25.526h-58.593v-23.205h58.593c-0.58013-10.442-3.4808-18.564-9.2821-24.365-5.2212-6.3814-13.343-9.2821-23.205-9.2821z" stroke-width="5.8013"/></g><path id="i" d="m633.5 563.89h-488.47c-20.885 0-37.708-16.824-37.708-37.708v-488.47c0-20.885 16.824-37.708 37.708-37.708h488.47c20.885 0 37.708 16.824 37.708 37.708v488.47c0 20.885-16.824 37.708-37.708 37.708z" stroke-width="5.8013"/><g id="j" fill="#fff"><path id="k" d="m367.8 83.539c-8.702-8.702-21.465-12.763-37.708-12.763h-31.327v101.52h28.426c17.404 0 30.747-4.641 40.029-13.343s13.923-21.465 13.923-38.289c0-16.244-4.641-28.426-13.343-37.128zm-40.609 74.257h-11.603v-73.677h14.503c22.625 0 34.228 12.183 34.228 36.548-0.58013 24.946-12.763 37.128-37.128 37.128z" stroke-width="5.8013"/><polygon id="l" transform="matrix(5.8013 0 0 5.8013 -1385.9 -1897.6)" points="272 356.7 272 339.3 274.9 339.3 274.9 346.4 282.9 346.4 282.9 339.3 285.8 339.3 285.8 356.7 282.9 356.7 282.9 348.9 274.9 348.9 274.9 356.7"/></g><g id="m" fill="#fff"><polygon id="n" transform="matrix(5.8013 0 0 5.8013 -1385.9 -1897.6)" points="297.4 385.3 297.4 392.5 308.5 392.5 308.5 398.3 297.4 398.3 297.4 406.8 309.4 406.8 309.4 412.6 290.4 412.6 290.4 379.5 309.4 379.5 309.4 385.3"/><path id="o" d="m549.38 496.01h-56.273c-20.885 0-29.587-5.8013-34.808-11.022-9.2821-9.2821-13.343-22.625-13.343-39.449v-95.722h40.029v85.279c0 13.343 2.9006 18.564 6.9616 21.465 3.4808 2.3205 8.1218 4.0609 16.244 4.0609h31.907v-110.8h40.029v146.19z" stroke-width="5.8013"/></g>
</svg>
