<?xml version="1.0" encoding="UTF-8"?>
<svg id="svg29" width="538.91pt" height="574.27pt" version="1.1" viewBox="0 0 538.91 574.27" xmlns="http://www.w3.org/2000/svg" xmlns:cc="http://creativecommons.org/ns#" xmlns:dc="http://purl.org/dc/elements/1.1/" xmlns:rdf="http://www.w3.org/1999/02/22-rdf-syntax-ns#">
 <metadata id="metadata35">
  <rdf:RDF>
   <cc:Work rdf:about="">
    <dc:format>image/svg+xml</dc:format>
    <dc:type rdf:resource="http://purl.org/dc/dcmitype/StillImage"/>
    <dc:title/>
   </cc:Work>
  </rdf:RDF>
 </metadata>
 <path id="path7" d="m97.02 8.086e-5c-21.372-0.0384-38.038 13.603-38.038 34.809v352.91c0 21.272 17.808 34.809 38.038 34.809h346.23c20.859 0.042 38.037-13.83 38.037-34.809v-352.91c0-21.271-17.825-34.809-38.037-34.809h-346.23z"/>
 <g id="#d70000ff" transform="translate(-458.97 -433.23)" fill="#fff">
  <path id="path2" d="m664.02 643.75h79.48v24.01h-50.25v29.985h46.755v24.26h-46.755v35h50.26v24.505h-79.49z"/>
  <path id="path4" d="m769 676h29v58.045c0.01 5.26-0.42 10.94 2.26 15.7 2.39 4.06 7.29 5.68 11.79 5.73 8.48 0.05 16.96 0 25.44 0.01v-79.485h28.765v105.49h-48.215c-10.1-0.23-20.55 0.965-30.29-2.365-8.9-3.01-15.06-11.38-17.22-20.28-2.02-7.79-1.53-15.274-1.53-23.85z"/>
 </g>
 <g id="g4557">
  <path id="path11" d="m0 485.15c13.18-5.7 28.04-8.09 42.24-5.5 9.49 1.72 18.23 7.18 23.7 15.15 7.27 10.38 8.93 23.56 8.36 35.93-0.42 11.58-3.81 23.7-12.25 32.04-7.32 7.45-17.86 10.75-28.08 11.35-10.88 0.64-21.95-0.78-32.18-4.59l-0.01-16.84c12.18 3.61 25.55 7.18 38.06 3.06 9.01-2.91 13.45-12.6 13.66-21.5l-40.23 0.01v-16.24l40.09-0.01c-0.22-6.62-2.43-13.6-7.77-17.87-4.78-4.09-11.36-5.29-17.49-4.82-7.61 0.42-14.73 3.36-21.79 5.97z"/>
  <path id="path13" d="m96.28 480.02 29.81-0.02c8.82 0.06 18.02 0.64 26.08 4.57 5.76 2.7 9.7 8.55 10.43 14.84 0.74 6.64-0.03 14.09-4.72 19.23-2.42 2.91-6 4.47-9.61 5.29 5.56 1.44 11.54 4.02 14.23 9.47 3.39 6.83 3.52 15.08 1.11 22.26-2.17 6.17-7.28 10.87-13.12 13.58-6.05 2.85-12.83 3.68-19.44 3.78h-34.77v-93m19.76 16.25-0.01 20.5c6.86-0.25 13.99 0.79 20.62-1.42 7.19-2.26 7.95-14.16 1-17.16-6.84-2.83-14.42-1.66-21.61-1.92m-0.01 36.25 0.01 24c7.38-0.36 15.13 1.09 22.19-1.68 7.89-3.26 8.69-16.4 0.88-20.19-7.22-3.33-15.41-1.75-23.08-2.13z"/>
  <path id="path15" d="m185.28 480.02c11.25 0.02 22.51-0.07 33.76 0.04 8.72 0.44 18.15 2.72 24.18 9.5 5.3 5.63 6.66 13.76 6.33 21.23 0 8.87-3.92 18.02-11.51 22.96-9.55 6.56-21.65 6.43-32.76 6.27l-0.01 33-20-0.01 0.01-92.99m20 16.27v27.22c5.88-0.09 12.17 0.69 17.6-2.14 8.21-3.88 8.98-17.03 2.01-22.42-5.82-3.69-13.08-2.47-19.61-2.66z"/>
  <path id="path17" d="m266.78 480.02h18l-0.78 70.39 42.62-70.25 23.91-0.13-0.01 92.99h-17.73l1.26-71.51-43.35 71.51h-23.92z"/>
  <path id="path19" d="m370.79 480.02h19.99v44.41l32.88-44.37 21.39-0.06-33.87 44.63 35.69 48.38-22.74 0.02-33.34-46.66-0.01 46.64-20 0.01z"/>
  <path id="path21" d="m448.81 573.02 32.87-93.52 24.21 0.01 33.02 93.48-21.54 0.03-6.72-22.18-33.57-0.07-6.74 22.24-21.53 0.01m45.02-78.21-11.7 39.17 23.67 0.04z"/>
 </g>
 <g id="#000000ff" transform="translate(-458.97 -433.23)" fill="#fff">
  <path id="path24" d="m592.25 507.5h15.255v27.745h26.99v-27.745h15.26v71.995h-15.26v-30.5h-26.99v30.5h-15.255z"/>
  <path id="path26" d="m663.24 507.5c8.25 0 16.5-0.025 24.75-5e-3 9.29 0.18 19.02 3.01 25.58 9.9 6.6 6.71 9.07 16.43 8.96 25.62 0.04 9.42-2.4 19.4-9.18 26.29-6.83 7-16.8 9.77-26.33 10.11-7.93 0.19-15.86 0.05-23.78 0.08v-71.995m15.26 13.464v45.031c7.17 0.11 15.1 0.22 21.09-4.35 5.98-4.71 7.28-12.92 7.05-20.08-0.26-6.43-2.06-13.7-7.84-17.37-3.9466-2.6707-8.5659-3.2312-13.215-3.2312z"/>
 </g>
</svg>
