<svg width="85.333" height="57.971" version="1.1" viewBox="0 0 80 54.348" xmlns="http://www.w3.org/2000/svg">
 <g transform="translate(361.24 -311.25)">
  <g transform="matrix(.018625 0 0 -.018625 -361.24 365.6)">
   <path d="m0 1154.4v601.73h396.4v-104.79h-278.91v-141.14h237.46v-104.83h-237.46v-146.21h278.91v-104.76h-396.4" fill="#babbbc"/>
   <path d="m755.46 1259.2c48.172 0 78.597 28.74 78.597 74.4 0 45.61-30.425 73.51-78.597 73.51h-122.54v-147.91zm-7.582 253.56c48.156 0 77.746 26.19 77.746 69.3 0 43.12-29.59 69.32-77.746 69.32h-114.96v-138.62zm166.48-81.97c26.207-27.91 37.2-61.71 37.2-104 0-105.6-70.993-172.35-184.25-172.35h-251.87v601.73h241.73c113.24 0 185.94-64.24 185.94-165.64 0-57.48-24.519-99.76-74.383-127.64 23.657-12.66 32.95-19.43 45.629-32.1" fill="#babbbc"/>
   <path d="m1284.9 1486.6c52.4 0 87.05 32.11 87.05 81.99 0 49.87-34.65 82.83-87.05 82.83h-109.86v-164.82zm5.94 269.61c115.77 0 198.6-77.75 198.6-187.62 0-109.85-81.99-187.64-198.6-187.64h-115.8v-226.47h-117.49v601.73h233.29" fill="#babbbc"/>
   <path d="m1869.6 1624.3c-18.6 21.15-44.79 32.13-75.22 32.13-30.42 0-57.48-10.98-76.07-32.13-27.03-29.58-28.72-86.17-28.72-160.58 0-73.53-3.38-145.37 28.72-177.46 20.29-20.26 45.65-32.09 76.07-32.09 30.43 0 56.62 10.95 75.22 32.09 24.49 27.88 29.58 57.48 29.58 180.02 0 98.86-5.92 131.84-29.58 158.02zm87.04-408.98c-42.25-44-97.19-65.98-162.26-65.98-65.08 0-120.87 22.83-163.12 65.98-63.38 65.01-59.17 164.75-59.17 231.51v32.97c0 120.01 12.71 168.18 59.17 215.51 42.25 43.07 98.04 65.93 163.12 65.93 64.23 0 120.01-22.86 162.26-65.93 42.26-43.12 60-100.59 60-197.75v-42.26c0-86.22 4.22-173.26-60-239.98" fill="#babbbc"/>
   <path d="m2490.7 1154.4-154.68 273.81-77.78-92.98v-180.83h-117.45v601.73h117.45v-262.03l212.15 262.03h142.85l-199.49-239.17 213.83-362.56h-136.88" fill="#babbbc"/>
   <path d="m3039.2 1154.4v386.24l-234.1-386.24h-104.81v601.73h117.47v-385.42l234.11 385.42h104.84v-601.73h-117.51" fill="#babbbc"/>
   <path d="m3628.8 1154.4v251.82h-203.67v-251.82h-117.45v601.73h117.45v-245.93h203.67v245.93h117.52v-601.73h-117.52" fill="#babbbc"/>
   <path d="m4148.2 1624.3c-18.6 21.15-44.8 32.13-75.25 32.13-30.37 0-57.47-10.98-76.06-32.13-27.04-29.58-28.69-86.17-28.69-160.58 0-73.53-3.39-145.37 28.69-177.46 20.3-20.26 45.69-32.09 76.06-32.09 30.45 0 56.65 10.95 75.25 32.09 24.48 27.88 29.59 57.48 29.59 180.02 0 98.86-5.93 131.84-29.59 158.02zm87.04-408.98c-42.28-44-97.18-65.98-162.29-65.98-65.06 0-120.85 22.83-163.08 65.98-63.4 65.01-59.2 164.75-59.2 231.51v32.97c0 120.01 12.7 168.18 59.2 215.51 42.23 43.07 98.02 65.93 163.08 65.93 64.25 0 120.01-22.86 162.29-65.93 42.23-43.12 60-100.59 60-197.75v-42.26c0-86.22 4.26-173.26-60-239.98" fill="#babbbc"/>
   <path d="m3486.7 807.25c-50.08-2.609-98.95-3.488-147.48-2.141-30.19-39.75-61.36-78.129-95.08-113.92-7.53 48.008-17.96 94.911-30.77 140.06-45.09 17.449-89.33 35.398-133.88 54.59 37.67 18.808 75.04 40.238 111.99 64.34-3.94 43.929-10.42 86.56-18.88 127.7 42.18-22.87 84.11-46.56 125.72-71.1 43.89 17.75 86.11 39.02 129.06 62.7-7.36-48.58-17.84-96.941-30.45-145.23 30.77-37.09 61.04-76.262 89.77-117" fill="#f8ad0c"/>
   <path d="m3070.6 287.47c-45.99 19.019-90.2 39.16-133.83 62.011-44.12-23.23-89.14-44.082-135.1-61.5 14.36 46.192 24.88 93.692 33.4 139.21-33.06 35.321-65.49 71.348-97.08 107.78 42.11 0.23 85.14 3.23 128.58 9.222 15.63 40.989 28.33 82.18 38.06 123.23 28.29-38.973 55.89-78.563 82.9-118.78 46.92-2.621 94.69-2.25 143.44 0.757-27.97-40.269-57.75-80.007-90.5-117.55 11.97-47.102 22.46-95.774 30.13-144.38" fill="#f8ad0c"/>
   <path d="m2470.2 0c-33.27 37.441-64.24 74.191-93.76 113.8-49.81-1.621-99.34-1.063-148.35 3.058 32.93 35.301 62.91 73.731 90.26 111.2-14.43 45.8-28.14 92.39-40.87 138.94 38.06-17.711 78.25-33.789 120.05-47.211 31.82 30.371 61.39 61.723 88.05 94.641 8.48-47.43 16.16-95.102 23-143.07 41.1-22.621 84.34-43.41 129.47-61.648-42.65-24.32-86.84-46.871-132.57-66.52-9.69-47.46-21.2-96.191-35.28-143.19" fill="#f8ad0c"/>
   <path d="m1804.1 1.1016c-13.8 47.727-25.52 95.078-34.81 143.32-45.72 19.762-89.79 42.582-132.25 67.273 45.16 17.797 88.71 38.899 129.71 60.719 7.1 47.949 15.02 95.68 23.76 143.1 26.49-32.903 55.71-64.621 87.45-94.871 41.8 13.218 81.98 28.961 120.16 46.89-12.9-46.422-26.68-92.652-41.36-138.84 27.14-38.332 57.13-75.543 89.91-111.76-48.95-3.192-98.62-4.621-148.37-2.321-29.46-38.757-60.97-77.168-94.2-113.51" fill="#f8ad0c"/>
   <path d="m1205 291.04c7.75 48.43 18.79 97.582 30.57 144.29-32.59 37.723-62.27 77.5-90.34 117.67 49.23-2.711 96.47-3.621 143.65-0.879 27.03 40.109 54.73 79.578 83.03 118.47 9.83-40.949 22.38-82.199 37.83-123.36 43.6-5.992 86.58-9.21 128.74-9.761-31.74-36.25-64.46-72.36-97.4-107.26 8.23-45.731 18.65-93.152 32.75-139.46-45.95 17.578-90.65 38.809-134.83 61.922-43.75-22.813-87.69-42.391-134-61.633" fill="#f8ad0c"/>
   <path d="m790.44 812.6c28.808 40.539 59.449 79.628 90.457 116.55-12.668 48.282-22.278 96.842-29.989 145.25 43.379-23.72 85.141-45.29 129.02-63.26 41.754 24.29 83.834 47.77 126.2 70.46-8.95-41.22-15.4-83.702-19.77-127.65 36.79-24.289 74.17-45.758 111.51-64.789-44.33-18.808-88.85-36.719-133.95-53.969-13.34-45.242-23.36-91.73-31.39-139.95-33.491 36.012-64.647 74.461-94.635 114.36-48.461-1.024-97.387 0.089-147.46 3" fill="#f8ad0c"/>
   <path d="m793.19 2110.8c50.07 2.59 98.925 3.48 147.49 2.13 30.164 39.76 61.36 78.14 95.06 113.9 7.49-47.98 17.96-94.9 30.76-140.04 45.1-17.47 89.3-35.4 133.83-54.6-37.62-18.8-74.99-40.23-111.99-64.33 4.01-43.93 10.45-86.58 18.94-127.7-42.19 22.85-84.13 46.56-125.76 71.08-43.882-17.74-86.089-38.98-129.06-62.67 7.375 48.57 17.855 96.94 30.465 145.22-30.774 37.09-61.059 76.27-89.742 117.01" fill="#f8ad0c"/>
   <path d="m1209.2 2630.6c46.07-19.02 90.26-39.13 133.87-61.98 44.1 23.19 89.1 44.04 135.08 61.49-14.37-46.24-24.83-93.73-33.4-139.21 33.04-35.34 65.46-71.38 97.13-107.79-42.17-0.24-85.2-3.24-128.62-9.23-15.62-40.97-28.33-82.17-38.07-123.23-28.27 38.97-55.91 78.55-82.88 118.77-46.94 2.6-94.66 2.27-143.47-0.75 28 40.26 57.76 80.02 90.53 117.54-11.95 47.11-22.47 95.78-30.17 144.39" fill="#f8ad0c"/>
   <path d="m1809.7 2918c33.27-37.43 64.28-74.2 93.7-113.82 49.87 1.63 99.37 1.06 148.39-3.03-32.91-35.32-62.89-73.73-90.3-111.25 14.49-45.76 28.15-92.35 40.96-138.92-38.15 17.74-78.28 33.79-120.11 47.21-31.81-30.36-61.37-61.71-88.07-94.61-8.47 47.39-16.13 95.09-22.95 143.04-41.14 22.63-84.36 43.41-129.48 61.66 42.63 24.32 86.81 46.84 132.52 66.5 9.72 47.47 21.21 96.19 35.34 143.22" fill="#f8ad0c"/>
   <path d="m2475.8 2916.9c13.81-47.74 25.52-95.08 34.83-143.32 45.72-19.75 89.78-42.58 132.23-67.26-45.19-17.8-88.7-38.89-129.71-60.71-7.08-47.99-15-95.7-23.77-143.11-26.48 32.89-55.69 64.62-87.45 94.88-41.81-13.24-81.97-28.97-120.19-46.89 12.91 46.36 26.71 92.65 41.39 138.8-27.16 38.32-57.15 75.56-89.91 111.78 48.99 3.21 98.61 4.63 148.37 2.35 29.44 38.74 60.97 77.15 94.21 113.48" fill="#f8ad0c"/>
   <path d="m3074.8 2627c-7.74-48.4-18.79-97.57-30.58-144.27 32.59-37.72 62.33-77.5 90.35-117.69-49.22 2.72-96.49 3.62-143.65 0.89-27.05-40.11-54.73-79.6-83.03-118.46-9.81 40.92-22.37 82.19-37.83 123.34-43.57 6-86.56 9.23-128.74 9.77 31.73 36.24 64.48 72.35 97.44 107.28-8.24 45.72-18.65 93.14-32.75 139.43 45.91-17.56 90.6-38.81 134.79-61.93 43.73 22.83 87.67 42.42 134 61.64" fill="#f8ad0c"/>
   <path d="m3489.4 2105.5c-28.81-40.58-59.4-79.67-90.41-116.6 12.65-48.27 22.24-96.84 29.98-145.25-43.37 23.75-85.18 45.29-129 63.3-41.79-24.33-83.83-47.8-126.22-70.46 8.94 41.21 15.41 83.7 19.73 127.62-36.77 24.3-74.17 45.76-111.46 64.77 44.29 18.84 88.82 36.73 133.96 53.99 13.31 45.25 23.31 91.73 31.35 139.94 33.47-35.97 64.62-74.44 94.65-114.35 48.44 1.01 97.39-0.08 147.42-2.96" fill="#f8ad0c"/>
  </g>
 </g>
</svg>
