<?xml version="1.0" encoding="UTF-8"?>
<!-- Generator: Adobe Illustrator 22.0.1, SVG Export Plug-In . SVG Version: 6.00 Build 0)  -->
<svg id="Layer_1" width="2353.2" height="196" enable-background="new 0 0 1000 81.5803452" space="preserve" version="1.1" viewBox="0 0 2353.2 196" xmlns="http://www.w3.org/2000/svg" xmlns:cc="http://creativecommons.org/ns#" xmlns:dc="http://purl.org/dc/elements/1.1/" xmlns:rdf="http://www.w3.org/1999/02/22-rdf-syntax-ns#">
 <metadata id="metadata41">
  <rdf:RDF>
   <cc:Work rdf:about="">
    <dc:format>image/svg+xml</dc:format>
    <dc:type rdf:resource="http://purl.org/dc/dcmitype/StillImage"/>
    <dc:title/>
   </cc:Work>
  </rdf:RDF>
 </metadata>
 <link id="dark-mode" href="" rel="stylesheet" type="text/css"/>
 <style id="dark-mode-custom-style" type="text/css"/>
 <g id="g4578" transform="translate(0 114.42)" fill="#fff">
  <polygon id="polygon2" transform="matrix(2.4025 0 0 2.4025 0 -114.42)" points="41.612 34.374 69.876 1.2492 69.876 34.374 110.21 34.374 69.876 51.557 69.876 80.149 43.466 62.794 2.6435 80.099 26.683 51.881 0 34.374"/>
  <path id="path4" d="m288.24-72.587c3.3945 0 6.1562-2.7618 6.1562-6.1562l0.012-26.646c0-3.3945-2.7618-6.1566-6.1566-6.1566h-103.9v38.971z" stroke-width="2.4025"/>
  <path id="path6" d="m288.24 78.503c3.3945 0 6.1562-2.7618 6.1562-6.1563l0.012-26.646c0-3.3945-2.7618-6.1566-6.1566-6.1566h-103.9v38.971z" stroke-width="2.4025"/>
  <path id="path8" d="m1682.7-111.62h-129.81c-3.4067 0-6.1809 2.7744-6.1809 6.1689v26.694c0 3.4067 2.7742 6.1807 6.1809 6.1807h45.382v145.1c0 3.3945 2.7739 6.1689 6.1807 6.1689h26.682c3.4067 0 6.1807-2.7744 6.1807-6.1689v-145.1h45.383c3.4067 0 6.1686-2.774 6.1686-6.1807v-26.694c0-3.3945-2.7619-6.1689-6.1686-6.1689" stroke-width="2.4025"/>
  <path id="path10" d="m1165.3-68.956c-3.0786-8.3829-7.6776-15.805-13.651-22.083-5.974-6.2416-13.311-11.279-21.815-14.978-8.541-3.7108-18.25-5.5967-28.872-5.5967h-70.629c-3.3945 0-6.1685 2.774-6.1685 6.1807v177.77c0 3.419 2.774 6.1807 6.1685 6.1807h26.682c3.4067 0 6.1808-2.7618 6.1808-6.1807l-0.012-45.541h37.778c10.609 0 20.27-1.8372 28.714-5.4508 8.4439-3.6258 15.744-8.6265 21.718-14.868 5.9617-6.2416 10.573-13.542 13.736-21.73 3.1391-8.1152 4.733-18.433 4.733-27.448 0-9.1497-1.5331-17.983-4.5625-26.256m-36.805 38.703c-1.4117 3.7234-3.3826 6.9839-5.8766 9.6729-2.4581 2.6767-5.2807 4.3558-8.6507 5.8644-3.3095 1.4967-9.247 2.3971-20.806 2.3971h-29.979v-60.251h39.336c4.1976 0 8.0666 0.76674 11.486 2.2754 3.4553 1.5209 6.4607 3.6135 8.9183 6.2052 2.4454 2.5795 4.3435 5.7426 5.6576 9.4048 1.3627 3.7962 2.0563 7.9207 2.0563 12.264 0 4.2953-0.7181 8.3952-2.1413 12.167" stroke-width="2.4025"/>
  <path id="path12" d="m899.77-57.026c-0.17034 3.9303 0.85146 6.327 2.3481 8.4438 1.6791 2.3971 4.0636 4.4048 7.069 5.9743 3.3458 1.7396 7.3002 3.1145 11.741 4.0881 4.8667 1.0582 9.8429 2.044 14.819 2.9199 9.0038 1.4236 17.91 3.2122 26.427 5.329 8.9061 2.2022 16.802 5.5239 23.506 9.8433 6.9475 4.5017 12.471 10.488 16.438 17.8 4.003 7.3734 5.7794 16.766 5.2926 27.923-0.4745 10.828-3.2485 20.075-8.2493 27.497-4.903 7.2761-11.23 13.201-18.81 17.642-7.4339 4.3435-14.759 7.5557-23.847 9.247-8.9062 1.6545-18.871 2.1536-27.582 1.7763-21.608-0.94907-53.522-13.359-69.534-35.26-1.2653-1.7518-2.8349-4.7449 0.60821-8.2489 3.4309-3.4921 19.881-20.234 19.881-20.234 3.3214-3.504 6.5458-1.0218 7.9207 0.98581 9.3684 13.7 28.02 23.92 42.681 24.553 7.7016 0.34085 8.6262 0.03676 13.432-0.59594 4.3799-0.57182 8.2493-1.7035 11.875-3.3581 3.3217-1.5209 6.1202-3.5285 8.3101-6.3389 2.0318-2.604 3.2122-6.2784 3.504-10.537 0.27992-4.1126-0.86364-7.4098-2.7617-10.062-2.0563-2.8954-4.9157-5.1099-8.3224-6.8862-3.8445-1.9954-8.2612-3.2731-13.128-4.1853-5.2316-0.98582-10.427-1.8495-15.464-2.5795-8.3343-1.0586-16.62-2.7621-24.614-5.0371-8.2612-2.3604-15.647-5.6943-21.961-9.9038-6.558-4.3803-11.851-10.05-15.732-16.864-3.9667-6.9839-5.7794-14.892-5.3412-24.893 0.43772-10.062 2.9441-18.908 7.4339-26.293 4.4408-7.3121 10.269-13.335 17.338-17.91 6.8989-4.4776 14.856-7.7625 23.628-9.7579 17.058-3.869 34.116-3.2244 51.04 2.1291 18.226 5.7794 32.863 19.771 39.616 29.687 1.2408 1.8127 2.4699 4.6844-0.17058 7.6652-2.6399 2.9686-18.737 18.713-18.737 18.713-3.4676 3.3217-7.0207 2.555-8.9915-0.35274-9.8797-14.515-22.594-21.024-37.34-21.998-15.817-1.0463-33.593 2.5063-34.323 19.078" stroke-width="2.4025"/>
  <path id="path14" d="m818.27-88.617c-8.797-8.383-19.151-14.831-30.794-19.199-11.559-4.3194-23.957-6.5216-36.829-6.5216-12.702 0-25.051 2.2022-36.683 6.5216-11.729 4.3554-22.168 10.804-31.038 19.187-8.8817 8.383-16.024 18.785-21.244 30.928-5.2316 12.131-7.872 26.013-7.872 41.282 0 15.428 2.604 29.359 7.7261 41.392 5.1344 12.057 12.191 22.423 20.976 30.806 8.7847 8.3707 19.151 14.831 30.807 19.187 11.558 4.3316 23.944 6.5216 36.817 6.5216 14.101 0 27.254-2.3726 39.104-7.0689 11.912-4.7208 22.29-11.51 30.819-20.185 8.4929-8.6265 15.221-19.078 20.003-31.05 4.7572-11.936 7.1784-25.259 7.1784-39.603 0-15.257-2.6522-29.152-7.872-41.295-5.2317-12.131-12.325-22.533-21.097-30.904m-15.574 98.54c-2.9931 7.337-7.1057 13.542-12.252 18.445-5.1467 4.9276-11.193 8.6871-17.97 11.181-6.8866 2.5427-14.345 3.8322-22.156 3.8322-7.9934 0-15.549-1.2895-22.424-3.8322-6.7525-2.4822-12.69-6.2175-17.642-11.109-5.0003-4.9153-9.052-11.157-12.057-18.518-3.0172-7.4094-4.5504-16.194-4.5504-26.086 0-9.9038 1.5331-18.676 4.5504-26.098 2.9931-7.3489 7.0934-13.566 12.155-18.482 5.0494-4.9153 11.06-8.7116 17.861-11.303 6.8743-2.6158 14.406-3.9299 22.375-3.9299 7.787 0 15.221 1.314 22.095 3.9421 6.777 2.5672 12.775 6.3998 17.824 11.388 5.0858 5.013 9.1861 11.291 12.191 18.652 3.0295 7.422 4.5626 16.109 4.5626 25.831 0 9.8916-1.5331 18.664-4.5626 26.086" stroke-width="2.4025"/>
  <path id="path16" d="m1347.7-88.617c-8.7969-8.383-19.151-14.831-30.795-19.199-11.559-4.3194-23.957-6.5216-36.829-6.5216-12.702 0-25.052 2.2022-36.684 6.5216-11.729 4.3554-22.168 10.804-31.038 19.187-8.8815 8.383-16.024 18.785-21.243 30.928-5.2317 12.131-7.872 26.013-7.872 41.282 0 15.428 2.6039 29.359 7.7261 41.392 5.1344 12.057 12.191 22.423 20.976 30.806 8.7848 8.3707 19.151 14.831 30.807 19.187 11.558 4.3316 23.944 6.5216 36.817 6.5216 14.101 0 27.254-2.3726 39.104-7.0689 11.912-4.7208 22.29-11.51 30.819-20.185 8.4927-8.6265 15.221-19.078 20.002-31.05 4.7571-11.936 7.1784-25.259 7.1784-39.603 0-15.257-2.6523-29.152-7.8721-41.295-5.2316-12.131-12.325-22.533-21.097-30.904m-15.574 98.54c-2.993 7.337-7.1056 13.542-12.252 18.445-5.1466 4.9276-11.193 8.6871-17.97 11.181-6.8866 2.5427-14.345 3.8322-22.156 3.8322-7.9934 0-15.549-1.2895-22.424-3.8322-6.7524-2.4822-12.69-6.2175-17.642-11.109-5.0003-4.9153-9.0521-11.157-12.057-18.518-3.0172-7.4094-4.5503-16.194-4.5503-26.086 0-9.9038 1.5331-18.676 4.5503-26.098 3.0053-7.3489 7.0935-13.566 12.155-18.482 5.0494-4.9153 11.06-8.7116 17.861-11.303 6.8743-2.6158 14.405-3.9299 22.375-3.9299 7.787 0 15.221 1.314 22.095 3.9421 6.7771 2.5672 12.775 6.3998 17.824 11.388 5.0859 5.013 9.1861 11.291 12.192 18.652 3.0296 7.422 4.5627 16.109 4.5627 25.831 0 9.8916-1.5331 18.664-4.5627 26.086" stroke-width="2.4025"/>
  <path id="path18" d="m459.2-111.61h-26.78c-3.3945 0-6.1685 2.7744-6.1685 6.1689v117.69c0 5.0126-0.83949 9.417-2.4944 13.067-1.6545 3.6377-3.9299 6.728-6.7767 9.1616-2.9325 2.5186-6.473 4.4772-10.512 5.8157-4.1612 1.3991-11.194 2.0927-16.097 2.0927-4.9153 0-12.35-0.70548-16.608-2.1049-4.1371-1.3504-7.7625-3.3094-10.78-5.8521-2.9077-2.4335-5.2076-5.4875-6.8499-9.1129-1.6549-3.6626-2.4944-8.0547-2.4944-13.067v-117.69c0-3.3945-2.774-6.1689-6.1808-6.1689h-26.67c-3.4067 0-6.1807 2.7744-6.1807 6.1689v118.63c0 10.877 2.044 20.659 6.059 29.079 4.003 8.3711 9.5875 15.598 16.596 21.487 6.9349 5.828 15.062 10.281 24.163 13.213 8.967 2.8958 18.713 4.3677 28.945 4.3677 10.074 0 19.723-1.4719 28.69-4.3677 9.1252-2.9444 17.192-7.4098 23.981-13.262 6.8012-5.8766 12.276-13.092 16.267-21.438 4.0275-8.4316 6.0593-18.214 6.0593-29.079v-118.63c0-3.3945-2.7618-6.1689-6.1685-6.1689" stroke-width="2.4025"/>
  <path id="path20" d="m646.82 68.191-43.351-53.765s35.004-12.739 35.004-57.136c0-9.1374-1.5331-17.97-4.5626-26.244-3.0785-8.3833-7.6774-15.805-13.664-22.083-5.9617-6.2416-13.298-11.279-21.815-14.978-8.5289-3.7108-18.25-5.5967-28.872-5.5967h-70.544c-3.3945 0-6.1688 2.774-6.1688 6.1685v177.78c0 3.419 2.7744 6.1811 6.1688 6.1811h26.609c3.4071 0 6.1811-2.7621 6.1811-6.1811l-0.012-144.91h39.506c4.2095 0 8.0666 0.76674 11.486 2.2754 3.4554 1.5209 6.4603 3.6135 8.9303 6.2052 2.4335 2.5795 4.3435 5.7426 5.6457 9.3929 1.3627 3.8081 2.0559 7.9326 2.0559 12.276 0 4.2949-0.71773 8.3952-2.1413 12.167-1.4114 3.7231-3.3822 6.9716-5.8767 9.6725-2.4576 2.6767-5.2803 4.3558-8.6507 5.8644-3.3094 1.4967-9.2466 2.3972-20.805 2.3972h-16.523c-3.2731 0-5.7794 2.9441-3.2731 6.9835l61.784 81.275c1.1559 1.6181 3.0299 2.5795 5.0249 2.5795h34.116c5.0249-8e-6 8.3829-4.6116 3.7476-10.33" stroke-width="2.4025"/>
  <path id="path22" d="m1549 68.191-43.351-53.765s35.004-12.739 35.004-57.136c0-9.1374-1.5331-17.97-4.5625-26.244-3.0786-8.3833-7.6775-15.805-13.664-22.083-5.9618-6.2416-13.298-11.279-21.815-14.978-8.5288-3.7108-18.25-5.5967-28.872-5.5967h-70.544c-3.3944 0-6.1688 2.774-6.1688 6.1685v177.78c0 3.419 2.7744 6.1811 6.1688 6.1811h26.609c3.407 0 6.1812-2.7621 6.1812-6.1811l-0.012-144.91h39.506c4.2094 0 8.0666 0.76674 11.486 2.2754 3.4554 1.5209 6.4604 3.6135 8.9304 6.2052 2.4334 2.5795 4.3434 5.7426 5.6456 9.3929 1.3627 3.8081 2.0558 7.9326 2.0558 12.276 0 4.2949-0.7176 8.3952-2.1412 12.167-1.3991 3.7231-3.3822 6.9716-5.8767 9.6725-2.4577 2.6767-5.2803 4.3558-8.6505 5.8644-3.3096 1.4967-9.2467 2.3972-20.805 2.3972h-16.523c-3.273 0-5.7794 2.9441-3.273 6.9835l61.784 81.275c1.156 1.6181 3.0299 2.5795 5.0249 2.5795h34.116c5.0249-8e-6 8.3829-4.6116 3.7475-10.33" stroke-width="2.4025"/>
 </g>
 <path id="path24" d="m2346.9 196h-581.11c-3.5162 0-6.3753-2.8468-6.3753-6.3753v-183.26c0-3.5163 2.8591-6.3631 6.3753-6.3631h581.11c3.5158 0 6.3753 2.8468 6.3753 6.3631v183.26c0 3.5285-2.8595 6.3753-6.3753 6.3753" fill="#d50032" stroke-width="2.4025"/>
 <g id="#ffffffff" transform="matrix(1.0047 0 0 1.0047 1704.4 -52.949)" fill="#fff">
  <path id="path9" d="m148.2 87.18c17.59-6.39 37.73-5.82 54.79 1.96 13.68 6.42 23.76 19.35 28.3 33.59 1.18 2.6 0.22 6.91-3.27 6.75-6.68 0.02-13.36 0.09-20.04-0.03-2.93 0.09-4.56-2.54-5.78-4.77-3.94-6.86-10.49-12.41-18.32-14.12-11.14-2.38-23.46-1.1-33.13 5.23-8.57 5.58-14.15 15.06-15.85 25.05-3.06 16.23 1.78 35.63 16.75 44.49 10.03 6.18 22.73 7.16 33.95 4.07 9.6-2.72 17.35-10.85 19.39-20.66-9.03 0-18.06 0.05-27.09-0.01-2.58 0.17-4.78-2.13-4.63-4.69-0.05-5.7-0.05-11.41 0-17.1-0.14-2.58 2.1-4.87 4.69-4.68 17.03-0.04 34.06 0 51.09-0.01 3.19-0.35 5.99 2.45 5.9 5.61 0.54 18.49-4.03 38.24-17.11 51.95-9.48 10.34-23.12 16.21-36.96 17.54-16.53 1.72-33.87-2.07-47.55-11.68-14.97-10.38-24.46-27.74-26.34-45.73-1.64-15.04 0.29-30.88 7.81-44.21 7.09-13.23 19.26-23.53 33.4-28.55z"/>
  <path id="path11" d="m300.64 83.84c18.46-3.02 38.5 0.5 53.6 11.92 12.92 9.56 21.48 24.4 24.27 40.14 2.83 15.9 1.15 32.9-6.26 47.38-6.09 12.17-16.36 22.23-28.72 27.96-14.7 6.93-31.76 8.16-47.52 4.56-14.81-3.42-28.4-12.22-37.08-24.76-9.25-12.99-12.98-29.32-12.12-45.11 0.72-14.47 5.65-28.92 14.96-40.14 9.62-11.85 23.88-19.51 38.87-21.95m2.8 26.72c-5.62 1.31-11 3.8-15.43 7.53-7.18 5.9-11.51 14.76-12.88 23.86-1.59 10.45-0.44 21.64 4.84 30.93 4.8 8.63 13.44 14.84 23.03 17.04 11.9 2.71 25.31 0.79 34.98-6.99 7.42-5.87 11.95-14.81 13.38-24.06 1.52-9.84 0.63-20.29-3.81-29.3-3.51-7.16-9.49-13.07-16.74-16.39-8.51-3.86-18.29-4.68-27.37-2.62z"/>
  <path id="path13" d="m391.51 88c-0.33-2.67 1.72-5.37 4.54-5.18 6.34-0.13 12.69-0.12 19.03-0.01 2.24-0.08 4.63 1.74 4.41 4.13 0.03 34.26 0.01 68.52 0 102.79 15.53 0.06 31.05-0.02 46.58 0.03 2.42-0.31 4.72 1.84 4.66 4.26 0.05 6.34 0.03 12.68 0.01 19.02 0.31 2.57-2.05 4.93-4.62 4.69-23.05 0.07-46.11-0.02-69.16 0.04-2.01 0.12-4.38-0.64-5.06-2.73-0.71-2.27-0.34-4.71-0.41-7.05 0.03-39.99-0.01-79.99 0.02-119.99z"/>
  <path id="path15" d="m485.13 83.15c1.58-0.53 3.28-0.37 4.93-0.42 13.98 0.05 27.96 0 41.94 0.02 9.35 0.09 18.8 1.38 27.51 4.94 10.93 4.31 20.42 11.98 27.16 21.58 18.57 26.41 16.36 65.82-6.01 89.35-11.68 12.39-28.68 18.86-45.56 19.11-16.02 0.04-32.05 0.04-48.08 0-2.55 0.09-4.73-2.2-4.51-4.75-0.03-41.64 0-83.28-0.01-124.92-0.16-1.95 0.67-4.18 2.63-4.91m25.11 27.37c0.03 26.49 0.01 52.98 0.01 79.47 8.58-0.01 17.17 0.05 25.76-0.01 10.52-0.18 21.06-5.06 27.26-13.69 11.31-15.43 11.16-38.63-1.02-53.52-6.15-7.59-15.78-11.81-25.45-12.11-8.85-0.34-17.71-0.09-26.56-0.14z"/>
 </g>
</svg>
