<svg width="2124.7pt" height="798.52pt" version="1.1" viewBox="0 0 2124.7 798.52" xmlns="http://www.w3.org/2000/svg">
 <g transform="translate(-187.79 -850.97)" fill="#f00">
  <path transform="scale(.75)" d="m882.13 1859.4 87.895 160.26-94.373 171.06h116.23l36.199-65.082 36.199 65.082h116.23l-94.373-171.06 87.894-160.26h-116.52l-29.426 53.371-29.426-53.371z" stroke-width="1.3333"/>
  <path d="m399.68 1394.6 65.921 120.19-70.78 128.3h87.17l27.149-48.812 27.149 48.812h87.17l-70.78-128.3 65.921-120.19h-87.391l-22.069 40.028-22.069-40.028z"/>
  <path d="m923.48 1394.6 65.921 120.19-70.78 128.3h87.17l27.149-48.812 27.149 48.812h87.17l-70.78-128.3 65.921-120.19h-87.391l-22.069 40.028-22.069-40.028z"/>
 </g>
 <path d="m766.19 9.9813c16.43-8.41 35.88-12.95 54.03-7.81 17.24 4.71 30.97 17.62 40.57 32.27 5.34 8.65 11.43 16.82 16.27 25.79 18.78 33.72 32.46 70.02 44.34 106.66 17.19 53.77 29.73 108.91 39.84 164.41-15.35 5.47-30.87 10.48-46.15 16.16-43.49-42.04-90.83-79.93-139.46-115.83-3.5-2.75-7.39-5-10.57-8.12l1.29-32.54-19.16 19.71c-6.19-3.49-11.69-8.09-17.63-11.97-25.11-17.5-50.65-34.34-76.44-50.81 11.86-18.16 23.74-36.32 35.62-54.48 10.95-16.71 23.06-32.64 35.62-48.18 11.45-14.33 25.45-26.85 41.83-35.26z" fill="#460000"/>
 <path d="m405.44 335.25c51.85-44.33 93.74-99.77 124.58-160.48 49 51.48 99.24 101.88 152.57 148.9 25.52 22.12 51.54 44 80.59 61.39-4.3 12.88-3.93 26.73-2.67 40.09 2.16 21.05 8.83 41.67 19.69 59.85 14.62 24.61 37.22 44.76 64.13 54.92 23.83 9.1 50.72 10.01 75.05 2.3 13.65-4.07 25.97-11.41 37.86-19.07 7.95-5.65 14.13-13.28 20.55-20.51 22.94-27.18 34.23-63.14 33.22-98.49 6.25-9.89 13.91-18.91 22.74-26.6 10.18-8.76 22.76-15.52 36.4-16.21 13.76-0.88 27.14 4.69 38.03 12.77 7.35 5.58 14.47 11.45 21.69 17.22 30.09 24.34 61.09 47.66 94.03 68.04 27.89 17.79 58.22 31.81 90.04 40.97 18.1 5.66 37.44 5.12 56.1 3.15 19.84-2.57 40.65-7.99 55.51-22.19 2.24 5.04 4.59 10.07 7.77 14.6 8.43 12.75 22.27 22.57 37.88 23.26 22.12 0.42 44.38-0.21 66.24-3.98 23.36-3.57 47.08-4.11 70.67-3.22 36.12 1.49 72.06 6.37 107.44 13.74 42.14 3 84.44 4.14 126.69 2.95 31.88-1.14 64.01-3.28 95.03-11.21 23.04 0.63 45.39 9.4 64.36 22.21 19.57 13.92 41.97 24.08 65.61 28.61 3.61 0.82 7.3 0.05 10.96-0.2 15.03-1.35 30.08-2.58 45.11-4.01 1.1 2.06 2.06 4.62 0.81 6.87-0.98 2.17-3.33 3.23-5.55 3.58-15.8 3.5-31.54 7.25-47.36 10.66-11.92 2.32-23.34-2.92-34.31-6.77-7.39-3.93-14.78-7.87-22.22-11.67l85.46 225.43h-78.16l-8.48-22.38h-75.08l-8.21 22.38h-78.39l94.29-248.58h23.36c-3.74-2.24-7.73-5.495-12.37-4.515-34.92 2.46-69.91 3.84-104.89 5.33-22.11 0.71-44.22 1.74-66.34 2.07 11.87 4.98 23.97 9.96 34.51 17.55l-39.19 69.07c-6.55-4.74-13.31-9.38-21.05-11.91-16.9-6.86-37.15-7.75-53.4 1.33-14.68 7.83-25.23 23.02-26.92 39.63-1.62 13.06 2.31 26.59 10.45 36.91 9.28 11.97 23.82 19.54 38.87 20.81 20.16 1.85 41.06-5.24 55.8-19.14l39.11 69.15c-10.13 8.05-21.71 14.23-33.93 18.44-11.07 3.81-22.35 7.23-33.98 8.74-31.9 4.13-65.58-0.1-93.87-16.04-23.92-13.06-42.99-34.52-53.28-59.74-8.79-20.85-11.36-43.92-9.58-66.36 2.16-30.41 15.62-59.91 37.45-81.22 10.77-10.59 23.61-18.94 37.42-25.01-41.88-1.01-83.73-2.37-125.6-3.35v246.82h-84.245v-248.56h17.825c-37.44-1.11-74.96-2.18-112.18-6.79-9.27-1.41-18.66-1.06-27.96-1.95-28.08-2.26-55.96-7.43-82.82-15.96-15.25-4.66-29.74-11.37-44.48-17.36-38.45-16.27-76.9-32.56-115.36-48.82-12.31-5.06-26.09-7.54-39.26-4.72-13.61 2.8-25.2 11.71-33.53 22.55-6.39 8.13-11.06 17.4-15.28 26.78-12.36 25.26-35.92 43.25-61.37 54.07-29.32 11.88-61.82 15.55-93.09 10.92-9.31-1.43-18.55-3.43-27.48-6.45-9.71-3.26-19.16-7.3-28.14-12.24-16.36-9.04-31.02-21.4-41.87-36.69-11.52-16.28-18.95-35.64-20.23-55.6l-153.9-136.03 22.58 38.6c-7.64 5.5-14.36 12.19-20.72 19.09-6.04 6.91-12.04 14.34-14.65 23.3-1.55 4.81-0.13 9.81 1.01 14.55 3.22 12.53 8.42 24.44 13.86 36.15 2.26 7.4 2.65 16-1.38 22.89-3.51 5.98-10.28 9.08-16.85 10.32-9.33 2-18.89 0.03-28.27 1.34-20.04 2.44-38.73 11.06-55.87 21.37-12.03 7.33-23.42 15.72-34.04 24.98-8.63 5.33-17.47 10.32-26.16 15.55-7.91 5.32-17.18 8.61-26.72 9.23-4.16 0.16-8.97-0.34-11.86-3.69-1.33-1.5-1.1-3.6-0.68-5.38 20.5-31.17 41.51-62.04 62.19-93.11 8.99-14.04 20.07-26.57 30.17-39.8 7.31-9.37 14.72-18.66 22.01-28.04 20.15-30.8 40.1-61.72 60.24-92.52l-24.06-23.64c-7.4 14.92-17.7 28.23-29.25 40.17-26.85 27.56-59.47 48.74-93.24 66.79-20.39 10.82-41.42 20.4-62.79 29.12-15.25 6.37-31.17 11.25-45.6 19.47-16.21 8.99-31.72 20.35-42.24 35.87-6.39 9.45-10.24 20.69-10.28 32.16 0.21 9.82-1.15 19.94-5.71 28.76-3.66 7.05-9.78 12.8-17.14 15.83-10.33 4.33-21.98 3.96-32.75 1.63-14.99-4.17-30.52-5.99-45.76-9.06-2.52-0.32-5.08-1.47-7.59-0.6-21.12 5.38-42.34 10.39-63.67 14.83-4.48 1.05-7.22-5.53-3.27-7.8 17.3-8.42 34.78-16.48 52.14-24.77 6.61-3.33 13.73-5.72 21.11-6.48 9.43-1.25 18.8 0.9 28.19 1.42 11.86 0.77 24.06 1.04 35.56-2.43 7.14-2.14 13.94-6.39 17.8-12.93 6.2-10.26 8.04-22.34 12.66-33.28 5.05-12.86 13.46-24.25 23.85-33.29 13.55-11.9 29.56-20.57 45.92-27.93 33.23-14.77 63.77-35.15 91.39-58.7m1553.9 379.6h33.33l-16.57-42.935z" fill="#460000"/>
 <path d="m1268.2 269.28c8.94-10.74 19.9-19.78 32.09-26.61-0.35 2.39-2.1 4.16-3.31 6.15-5.23 8.07-9.39 16.89-11.84 26.21-4.36 16.41-2.79 34.1 3.14 49.92 7.79 20.83 23.86 38.42 43.92 48.03 15.83 7.83 34 10.26 51.43 7.8-9.48 8.08-20.65 14.13-32.29 18.5-13.67 5.12-28.85 6.11-42.97 2.34-16.83-4.27-31.88-14.64-42.41-28.37-12.54-16.13-18.86-36.89-17.69-57.27 1.16-17.26 9.1-33.45 19.93-46.7z" fill="#460000"/>
 <path d="m1426.5 295.58c9.71 19.68 20.42 38.97 33.55 56.6 9.5 12.68 20.19 24.86 33.59 33.55 7.9 5.06 17.14 8.63 26.67 8.12 10.85-0.06 22.54-3.43 29.48-12.28 8.41-10.79 10.03-25.3 9.12-38.54 0.17-0.16 0.52-0.48 0.7-0.63 2.87 18.25 4.99 37.37 14.85 53.46 8.82 15.24 25.02 26.55 42.87 27.4 2.59-0.04 4.66 1.7 6.88 2.82 7.76 4.42 15.83 8.32 23.41 13.03-33.21-5.05-66.68-8.37-100.13-11.36-22.38-1.9-44.78-3.85-67.23-4.42-6.12-0.66-10.47-5.72-13.97-10.31-8.04-11.25-13.2-24.21-18.03-37.06-8.27-22.84-14.56-46.35-20.07-69.99-0.7-3.44-1.94-6.83-1.69-10.39z" fill="#460000"/>
 <path d="m1756.4 382.19c5.8-0.85 11.35 2.36 15.26 6.42 9.98 10.17 15.38 24.28 16.28 38.39 0.81 12.35-1.65 24.78-6.03 36.3l-1.36 1.36c-33.35-6.56-66.89-12.19-100.22-18.86-0.77-10.45 1.51-21.91 8.74-29.87 4.38-4.97 11.04-6.42 16.83-9.06 9.08-4.02 18-8.46 26.41-13.76 4.16-3.56 8.26-7.46 13.56-9.29 3.33-1.42 7.03-0.94 10.53-1.63z" fill="#460000"/>
 <path d="m1073.6 538.71c24.45-3.28 49.9 0.13 72.28 10.67 28.12 12.75 51.29 35.86 64.13 63.94 10.08 21.25 13.74 45.31 11.31 68.65-3.75 36.82-24.25 71.53-54.59 92.69-15.93 11.1-34.25 18.93-53.44 22.07-22.25 3.62-45.49 1.74-66.64-6.16-15.58-5.85-30.16-14.47-42.51-25.65-14.15-12.65-25.27-28.56-32.75-45.98-9.84-22.63-12.52-48.12-8.61-72.41 5.51-33.55 24.8-64.63 52.47-84.39 17.21-12.29 37.34-20.64 58.35-23.43m8.11 78.1c-19.02 3.52-35.24 18.47-40.36 37.11-5.12 17.65 0.1 37.77 13.18 50.69 11.6 11.94 29.14 17.67 45.55 14.83 16.52-2.68 31.35-13.86 38.47-29 8.18-16.55 6.39-37.41-4.4-52.38-11.36-16.52-32.76-25.28-52.44-21.25z" fill="#460000"/>
 <path d="m1248 543.55v65.165h45.779v183.42h82.19v-183.42h45.781v-65.165z" fill="#460000"/>
 <g transform="translate(-187.79 -850.97)">
  <path d="m703.99 947.81c13.41-4.4 28.14-4.49 41.62-0.32 9.2 2.69 17.52 7.57 26.02 11.9 23.51 12.4 46.66 25.51 69.28 39.48 25.79 16.47 51.33 33.31 76.44 50.81 16.646 10.981 31.691 21.556 46.07 32.92 48.63 35.9 95.97 73.79 139.46 115.83 15.28-5.68 30.8-10.69 46.15-16.16 23.05-8.39 46.18-16.6 69.26-24.92 8.38-3.06 16.97-5.59 25.71-7.47 22.81-4.85 45.66-9.52 68.46-14.42 15.14-12.13 34.67-17.12 53.67-18.87 30.06-2.88 59.83 5.15 89.88 3.66-10.83 13.25-18.77 29.44-19.93 46.7-1.17 20.38 5.15 41.14 17.69 57.27 10.53 13.73 25.58 24.1 42.41 28.37 14.12 3.77 29.3 2.78 42.97-2.34 11.64-4.37 22.81-10.42 32.29-18.5-17.43 2.46-35.6 0.03-51.43-7.8-20.06-9.61-36.13-27.2-43.92-48.03-5.93-15.82-7.5-33.51-3.14-49.92 2.45-9.32 6.61-18.14 11.84-26.21 1.21-1.99 2.96-3.76 3.31-6.15l0.12-0.46c6.73-3.17 13-7.4 20.04-9.98 17.79-7.49 38.82-9.37 56.65-0.98 11.33 5.13 20.8 13.69 28.43 23.4 3.41 4.64 7.21 9.19 9.13 14.72 3.61 8.86 7.63 17.66 11.79 26.21-0.25 3.56 0.99 6.95 1.69 10.39 5.51 23.64 11.8 47.15 20.07 69.99 4.83 12.85 9.99 25.81 18.03 37.06 3.5 4.59 7.85 9.65 13.97 10.31 22.45 0.57 44.85 2.52 67.23 4.42 33.45 2.99 66.92 6.31 100.13 11.36-7.58-4.71-15.65-8.61-23.41-13.03-2.22-1.12-4.29-2.86-6.88-2.82-17.85-0.85-34.05-12.16-42.87-27.4-9.86-16.09-11.98-35.21-14.85-53.46-0.18 0.15-0.53 0.47-0.7 0.63-1.01-9.71-3.18-20.07 0.96-29.37 2.48-6.03 8.81-10.19 15.37-9.77 5.76 0.39 11.56 1.37 17.01 3.38 1.82-1.69 2.68-4.15 4.16-6.12 6.53-0.86 13.54 0.34 18.8 4.52 3.45-1.84 7.71-2.73 11.42-1.06 3.39 1.34 5.27 4.63 7.72 7.14 3.59-3.02 5.05-8.11 9.45-10.2 5.33-2.74 12.16-0.42 15.64 4.22 6.83 8.85 13.73 17.64 20.47 26.57 4.38 5.38 11.4 8.5 18.33 8.31 9.25-0.23 17.95 3.86 25.47 8.93 12.42 8.52 22.54 20.09 30.4 32.87 0.58-0.06 1.72-0.19 2.29-0.26-3.5 0.69-7.2 0.21-10.53 1.63-5.3 1.83-9.4 5.73-13.56 9.29-8.41 5.3-17.33 9.74-26.41 13.76-5.79 2.64-12.45 4.09-16.83 9.06-7.23 7.96-9.51 19.42-8.74 29.87 33.33 6.67 66.87 12.3 100.22 18.86l1.36-1.36c0.01 0.33 0.02 1 0.03 1.33 47.95 8.34 96 16.3 144.39 21.63 10.25 0.87 20.58 2.43 30.86 1.09 7.63-0.61 15.38-2.41 22.98-0.49 5.28 0.87 9.85 3.87 15.06 5.01 12.75 3.67 25.6 7.02 38.28 10.92 10.63 5.74 21.24 11.53 31.79 17.43 3.91 3.41 5.67 8.83 6.88 13.76 1.18 5.35-4.32 8.89-9.09 8.43 3.41 2.84 7.99 2.83 12.12 3.82 10 2.03 20.03 3.91 30.03 5.99 7.19 1.56 14.11 5.49 18.1 11.83-15.03 1.43-30.08 2.66-45.11 4.01-3.66 0.25-7.35 1.02-10.96 0.2-23.64-4.53-46.04-14.69-65.61-28.61-18.97-12.81-41.32-21.58-64.36-22.21-31.02 7.93-63.15 10.07-95.03 11.21-42.25 1.19-84.55 0.05-126.69-2.95-35.38-7.37-71.32-12.25-107.44-13.74-23.59-0.89-47.31-0.35-70.67 3.22-21.86 3.77-44.12 4.4-66.24 3.98-15.61-0.69-29.45-10.51-37.88-23.26-3.18-4.53-5.53-9.56-7.77-14.6-14.86 14.2-35.67 19.62-55.51 22.19-18.66 1.97-38 2.51-56.1-3.15-31.82-9.16-62.15-23.18-90.04-40.97-32.94-20.38-63.94-43.7-94.03-68.04-7.22-5.77-14.34-11.64-21.69-17.22-10.89-8.08-24.27-13.65-38.03-12.77-13.64 0.69-26.22 7.45-36.4 16.21-8.83 7.69-16.49 16.71-22.74 26.6 1.01 35.35-10.28 71.31-33.22 98.49-6.42 7.23-12.6 14.86-20.55 20.51-11.89 7.66-24.21 15-37.86 19.07-24.33 7.71-51.22 6.8-75.05-2.3-26.91-10.16-49.51-30.31-64.13-54.92-10.86-18.18-17.53-38.8-19.69-59.85-1.26-13.36-1.63-27.21 2.67-40.09-29.05-17.39-55.07-39.27-80.59-61.39-53.33-47.02-103.57-97.42-152.57-148.9-30.84 60.71-72.73 116.15-124.58 160.48-27.62 23.55-58.16 43.93-91.39 58.7-16.36 7.36-32.37 16.03-45.92 27.93-10.39 9.04-18.8 20.43-23.85 33.29-4.62 10.94-6.46 23.02-12.66 33.28-3.86 6.54-10.66 10.79-17.8 12.93-11.5 3.47-23.7 3.2-35.56 2.43-9.39-0.52-18.76-2.67-28.19-1.42-7.38 0.76-14.5 3.15-21.11 6.48-17.36 8.29-34.84 16.35-52.14 24.77-3.95 2.27-1.21 8.85 3.27 7.8l-55.51 7.29c-6.11-0.02-12.83 1.62-18.35-1.84-4.58-2.36-7.32-7.86-5.81-12.89 0.78-3.92 4.16-6.3 6.87-8.87 13.98-13 27.9-26.06 41.93-39 8.94-8.12 19.54-14.02 29.79-20.27 22.46-13.5 45.03-26.88 68.49-38.59 7.96-4.1 15.66-8.74 22.91-13.98 9.16-6.54 18.98-12.1 29.15-16.89 8.27-3.42 14.9-9.63 21.77-15.17 28.14-24.11 54.71-49.97 81.38-75.68 37.34-36.33 74.23-73.11 110.8-110.2 6.2-6.48 12.86-12.54 18.5-19.53 12.67-14.98 25.34-29.97 38.01-44.95 11.84-15.28 27.67-27.97 46.18-34.03z" fill="#955c50"/>
 </g>
 <path d="m24.537 543.57h146.55v65.215h-66.97v27.49h65.835v61.995h-65.835v28.495h69.56v65.225h-149.14z" fill="#460000"/>
</svg>
