<svg width="795pt" height="429.14pt" version="1.1" viewBox="0 0 795 429.14" xmlns="http://www.w3.org/2000/svg">
 <g transform="translate(-102,-34.91)" fill="#0074d9">
  <path d="m102.06 34.91h138.2c-28.78 0.89-57.23 10.83-80.32 28.05-25.09 18.51-43.85 45.44-52.33 75.46-3.39 11.7-5.125 23.85-5.555 36.01z"/>
  <path d="m499.6 34.91 72.755 145.52v179.18l-235.06 2.4e-4 52.45-104.86h105.89l-52.79-105.86z"/>
 </g>
 <g transform="translate(-102,-34.91)">
  <path d="m240.26 34.91h186.52l-59.36 118.81h-91.36c-5.5 0.03-11.07-0.25-16.47 1-14.91 2.99-28.54 12.55-35.8 26-6.74 12.25-7.74 27.37-2.97 40.48 6.51 18.89 25.13 32.86 45.12 33.55h50.95l-52.27 104.86h-162.56v-185.18c0.43-12.16 2.165-24.31 5.555-36.01 8.48-30.02 27.24-56.95 52.33-75.46 23.09-17.22 51.54-27.16 80.32-28.05z" fill="#ff4ca7"/>
 </g>
 <path d="m470.36 0h128.69l80.765 162.39v-162.39h115.18v324.7h-162.38z" fill="#004b8d"/>
 <path d="m470.36 145.52 89.635 179.18h-89.635z" fill="#004b8d"/>
 <g fill="#004b8d">
  <path d="m0.01 377.27h34.41l0.01 8.82h-24.43l0.01 13.12 20.3 0.01-0.01 8.11h-20.29l-0.01 21.19h-10z"/>
  <path d="m50.28 377.28h8.84l19.48 51.24-10.33-0.01-4.83-12.77-17.69 0.04-4.71 12.74h-10.3l19.54-51.24m4.36 11.6-7.21 19.82h14.27z"/>
  <path d="m84.19 377.28 7.69-0.01 26.68 33.56 0.01-33.49 9.99 0.01-0.01 51.18-7.98 0.06-26.38-32.72-0.01 32.65h-10z"/>
  <path d="m134.82 377.28 42.67-0.01v8.82l-16.37 0.01v42.42h-9.94v-42.42l-16.36-0.02z"/>
  <path d="m193.29 377.29 8.81-0.03 19.52 51.26-10.38-0.05-4.58-12.59-17.9-0.1-4.71 12.74h-10.31l19.55-51.23m4.4 11.53-7.25 19.89 14.28-0.01z"/>
  <path d="m232.46 379.53c9.17-4.77 20.72-2.6 28.91 3.22l-4.42 7.97c-4.83-3.52-10.99-5.79-17.01-4.69-2.52 0.36-4.88 2.36-4.9 5.04-0.38 2.44 1.6 4.35 3.69 5.19 6.47 2.68 13.98 3.05 19.75 7.33 7.7 5.93 5.56 19.87-3.47 23.42-10.58 4.29-23.13 1.74-32.41-4.53l4.41-8.58c5.98 4.28 13.52 7.23 20.96 5.85 2.69-0.37 5.02-2.81 4.44-5.64-0.77-3.62-4.9-4.63-7.91-5.66-6.11-2.04-13.39-2.85-17.67-8.19-4.52-6.75-1.63-17.1 5.63-20.73z"/>
  <path d="m265.88 377.28 42.68 0.01 0.01 8.78-16.39 0.03v42.42l-9.87 0.04-0.07-42.46-16.36-0.02z"/>
  <path d="m314.82 377.28h9.99l0.01 51.24h-10z"/>
  <path d="m346.43 379.49c10.56-5.25 25.52-2.32 31.16 8.69l-7.68 5.3c-3.52-7.79-14.68-10.05-21.18-4.72-8.8 7.16-8.24 22.93 1.38 29.16 6.53 4.48 16.73 1.81 19.96-5.51l8.25 4.66c-5.75 11.52-22.23 15.25-32.94 8.62-9.59-5.69-14.92-17.77-12.43-28.68 1.53-7.48 6.56-14.21 13.48-17.52z"/>
  <path d="m414.47 377.31 8.96 0.04 19.4 51.18-10.27 0.01-4.78-12.75h-17.81l-4.7 12.74h-10.3l19.5-51.22m-2.81 31.4h14.26l-6.99-19.91z"/>
  <path d="m448.37 377.29 7.74-0.02 26.63 33.37 0.03-33.31 10.04 0.01 0.01 51.18-8.13 0.03-26.31-32.72-0.01 32.69-9.98 0.01z"/>
  <path d="m503.37 377.29 10-0.01v51.24l-9.98 0.01z"/>
  <path d="m524.01 377.27 10.72 0.02 15.11 29.05 15.29-29.07 10.62 0.01-0.03 51.26-9.96-0.02-0.02-33.73-13.13 25.1-5.45 0.02-13.15-25.1-0.01 33.71h-10z"/>
  <path d="m600.92 377.28h8.84l19.48 51.24h-10.3l-4.79-12.74-17.89 0.09-4.55 12.63-10.34 0.02 19.55-51.24m-2.86 31.44 14.27-0.01-6.97-19.9z"/>
  <path d="m625.44 377.29 42.61-0.01v8.8l-16.29 0.02v42.41l-9.94 0.01v-42.42l-16.39-0.03z"/>
  <path d="m674.37 377.29 9.99-0.02 0.01 51.25-9.98 0.01z"/>
  <path d="m712.26 377.4c5.41-1 11.22-0.36 16.04 2.39 10.21 5.51 15.68 18.28 12.86 29.5-2.53 11.31-13.45 20.31-25.19 19.59-11.89-0.08-22.04-10.14-23.72-21.64-2.49-13.13 6.73-27.41 20.01-29.84m0.11 9.17c-11.58 4.16-13.57 21.24-5.27 29.46 4.81 4.98 13.46 5.4 18.69 0.84 7.95-6.84 8.02-20.73 0.2-27.69-3.65-3.24-9.04-4.1-13.62-2.61z"/>
  <path d="m749.51 377.28 7.91 0.28 26.45 33.25 0.01-33.47h9.99l0.01 51.18-8.13 0.02-26.24-32.64-0.02 32.63-9.98-0.01z"/>
 </g>
</svg>
