<?xml version="1.0" encoding="UTF-8"?>
<!-- Generator: Adobe Illustrator 21.0.0, SVG Export Plug-In . SVG Version: 6.00 Build 0)  -->
<svg id="Ebene_1" width="178" height="22.7" version="1.1" viewBox="0 0 178 22.7" xml:space="preserve" xmlns="http://www.w3.org/2000/svg" xmlns:cc="http://creativecommons.org/ns#" xmlns:dc="http://purl.org/dc/elements/1.1/" xmlns:rdf="http://www.w3.org/1999/02/22-rdf-syntax-ns#"><metadata id="metadata26"><rdf:RDF><cc:Work rdf:about=""><dc:format>image/svg+xml</dc:format><dc:type rdf:resource="http://purl.org/dc/dcmitype/StillImage"/><dc:title/></cc:Work></rdf:RDF></metadata><style id="style2" type="text/css">
	.st0{display:none;}
	.st1{display:inline;opacity:0.1;enable-background:new    ;}
</style><g id="bkp" class="st0" transform="translate(-351.1,-95)" display="none"><path id="path4" class="st1" d="m220 105h105v-105h-105zm0 220h105v-105h-105zm0-110h105v-105h-105zm110 110h105v-105h-105zm0-110h105v-105h-105zm0-110h105v-105h-105zm-220 110h105v-105h-105zm-110 0h105v-105h-105zm0-110h105v-105h-105zm0 220h105v-105h-105zm110 0h105v-105h-105zm0-220h105v-105h-105zm330 220h105v-105h-105zm0-220h105v-105h-105zm220 0h105v-105h-105zm0 110h105v-105h-105zm0 110h105v-105h-105zm-220-110h105v-105h-105zm330-215v105h105v-105zm0 215h105v-105h-105zm0 110h105v-105h-105zm-220-110h105v-105h-105zm0 110h105v-105h-105zm0-220h105v-105h-105z" display="inline" enable-background="new" opacity=".1"/></g><path id="path12" d="m0 22h1.4v-11h7v-1.3h-7v-7.7h7.2v-1.3h-8.6zm127.5-2.7-17.8-18.8v21.5h1.4v-18.3l17.8 19v-22h-1.4zm-83-7.5-4.1-2.1c-0.4-0.2-0.9-0.4-1.3-0.6-0.5-0.2-0.9-0.5-1.2-0.8-0.4-0.3-0.7-0.7-0.9-1.1s-0.4-0.9-0.4-1.5 0.1-1.1 0.3-1.6 0.5-0.9 0.8-1.3c0.4-0.4 0.8-0.7 1.3-0.9s1-0.3 1.6-0.3c1 0 1.9 0.2 2.6 0.7s1.3 1.1 1.8 1.8l1-0.8c-0.5-0.9-1.2-1.6-2.2-2.2-0.9-0.5-1.9-0.8-3-0.8-0.8 0-1.5 0.1-2.2 0.4s-1.2 0.6-1.7 1.1-0.9 1-1.1 1.7c-0.3 0.7-0.4 1.4-0.4 2.2s0.2 1.6 0.6 2.2 0.9 1.2 1.6 1.6l3.8 2c0.5 0.2 0.9 0.5 1.4 0.7 0.5 0.3 1 0.5 1.4 0.9 0.4 0.3 0.8 0.7 1 1.2 0.3 0.4 0.4 1 0.4 1.6 0 0.7-0.1 1.4-0.4 2s-0.7 1.1-1.1 1.6c-0.5 0.5-1 0.8-1.7 1.1-0.6 0.3-1.3 0.4-2 0.4-1.3 0-2.4-0.4-3.2-1.1s-1.5-1.6-1.9-2.8l-1.2 0.5c0.5 1.4 1.3 2.5 2.4 3.3s2.4 1.3 3.9 1.3c0.9 0 1.7-0.2 2.5-0.5s1.5-0.7 2.1-1.3 1.1-1.2 1.5-2 0.5-1.6 0.5-2.5c0-1-0.2-1.8-0.6-2.5-0.4-0.5-1-1.1-1.9-1.6zm22.5-2.1h-12.9v-9h-1.4v21.3h1.4v-11h12.9v11h1.4v-21.3h-1.4zm102.5 0.8 8.1-9.8h-5.1l-6.6 9h-0.1v-9h-4.1v21.3h4.1v-9.6h0.1l6.8 9.6h5.3zm-147.9-10.5-8.9 22h1.4l2.8-7h9.3l2.8 7h1.4zm-4.2 13.7 4.2-10.3 4.1 10.3zm57.8 8.3h1.4v-21.3h-1.4zm80.8-21.7h-3.8l-9.5 16v1.9h9.4v3.8h3.9v-3.8h2.3v-3.3h-2.3zm-3.9 14.6h-4.5l4.5-8.5h0.1v8.5zm-51.2-11.3c-1-1-2.2-1.8-3.5-2.4s-2.8-0.9-4.2-0.9c-1.5 0-2.9 0.3-4.3 0.9-1.3 0.6-2.5 1.4-3.5 2.4s-1.8 2.2-2.4 3.5-0.9 2.7-0.9 4.2 0.3 2.9 0.9 4.2 1.4 2.5 2.4 3.5 2.2 1.8 3.5 2.4 2.8 0.9 4.3 0.9 2.9-0.3 4.2-0.9 2.5-1.4 3.5-2.4 1.8-2.2 2.4-3.5 0.9-2.7 0.9-4.2-0.3-2.9-0.9-4.2c-0.7-1.3-1.5-2.5-2.4-3.5zm1.1 11.4c-0.5 1.2-1.2 2.2-2.1 3.1s-1.9 1.6-3.1 2.1-2.4 0.8-3.7 0.8-2.6-0.3-3.8-0.8-2.2-1.2-3.1-2.1-1.6-1.9-2.1-3.1-0.8-2.4-0.8-3.7 0.3-2.6 0.8-3.7c0.5-1.2 1.2-2.2 2.1-3.1s1.9-1.6 3.1-2.1 2.4-0.8 3.8-0.8c1.3 0 2.6 0.3 3.7 0.8 1.2 0.5 2.2 1.2 3.1 2.1s1.6 1.9 2.1 3.1 0.8 2.4 0.8 3.7-0.3 2.6-0.8 3.7z" fill="#fbfbfb"/></svg>
