<svg version="1.1" viewBox="0 0 294.09 109.74" xml:space="preserve" xmlns="http://www.w3.org/2000/svg"><defs>
		<linearGradient id="a" x1="202.37" x2="202.37" y1="557.14" y2="441.89" gradientTransform="translate(-146.15,-442.7)" gradientUnits="userSpaceOnUse">
			<stop stop-color="#ED4928" offset="0"/>
			<stop stop-color="#F6B327" offset="1"/>
		</linearGradient>
		</defs>
<g transform="matrix(.68909 0 0 -.68909 -131.31 206.22)" fill="#0095da" shape-rendering="auto"><path d="m576.57 174.9c-4.7769 0-8.9108 0.63563-12.496 1.8965-3.6321 1.2558-6.342 3.13-8.2188 5.6973-0.99629 1.3097-1.7489 2.7067-2.1816 4.2031-0.39022 1.3168-0.56585 2.7034-0.51953 4.1055 0.0404 1.3896 0.2128 3.2386 0.50977 5.5469v4e-3c0.38205 2.6642 0.89082 6.009 1.627 9.9082l-2e-3 -2e-3 2.1836 12.193c1.2887 7.2106 2.3871 12.266 3.3887 15.283 0.96214 3.0068 2.792 5.7892 5.4648 8.25 2.6925 2.5201 6.0073 4.4273 10.072 5.7656h2e-3l2e-3 2e-3c2.1482 0.68201 4.3884 1.2381 6.7969 1.5371 2.163 0.31535 4.3965 0.4414 6.752 0.44141 4.776 0 8.9105-0.61178 12.496-1.8555v-2e-3h2e-3c3.5857-1.3013 6.3455-3.1666 8.2188-5.709 1.9132-2.5636 2.7864-5.337 2.7051-8.3418v-2e-3c-0.0865-2.9945-0.81209-8.0854-2.1406-15.467l-2.1836-12.195c-1.3285-7.153-2.4438-12.251-3.3867-15.236-0.96174-3.0314-2.7937-5.7815-5.4648-8.2812-2.6887-2.5225-6.055-4.4233-10.074-5.7617l-2e-3 -2e-3c-2.1088-0.68985-4.3862-1.1993-6.8496-1.5547-2.1075-0.29873-4.3436-0.42383-6.7012-0.42383zm-208.7 1.498 12.932 71.875h23.615l-5.2949-30.053c1.9587 0.0902 3.5404 0.54127 4.7031 1.4121 1.237 0.92646 2.0588 2.2946 2.4726 4.1562l2.9102 13.906c1.068 5.1357 2.9745 8.7173 5.7207 10.533l0.0684 0.0449h22.209l-0.70507-0.5c-1.676-1.1907-3.0291-3.3952-3.9531-6.5742-0.51036 0.1549 7.9e-4 4e-3 -2e-3 -0.01-0.39264-1.184-0.68628-2.4992-0.93555-3.9785l-2.0976-12.211c-0.63158-3.765-2.4741-6.7513-5.4961-8.9023-2.7344-1.9463-6.5554-3.1222-11.186-3.7305 4.3593-0.61619 7.7411-1.7925 9.7793-3.7695 2.2703-2.2022 3.0383-5.2684 2.3203-9.0801l-2.1367-11.332v-2e-3c-1.0248-5.398-0.65015-9.1883 0.9414-11.346l0.32422-0.43945h-21.951l-0.0781 0.0645c-1.1316 0.9459-1.846 2.3322-2.1582 4.1113-0.31223 1.7791-0.23111 3.9581 0.22266 6.5469l2.5195 13.916c0.28502 1.6864-0.0688 2.9809-1.1582 3.9902l-4e-3 4e-3c-1.0004 0.95958-2.4926 1.4784-4.4531 1.5566l-5.5254-30.189zm59.963 0 12.979 71.875h19.77l-5.5547-30.938 17.994 30.938h19.727l-12.971-71.875h-19.77l5.582 31.111-17.061-31.111zm60.574 0 12.943 71.836h23.564l-4.5703-25.479h6.3281l4.5703 25.479 23.529-0.0469-12.885-71.789h-23.576l5.3906 29.93h-6.3281l-5.3906-29.93zm90.299 11.121c1.4706 0 2.4514 0.49991 3.0527 1.5312 0.3527 0.6435 0.78454 1.9508 1.2031 3.8184 4e-3 -9.7e-4 3e-3 8e-3 4e-3 0.0118 0.3084 1.1388 0.55739 2.5077 0.85938 4.0527l5.8984 32.744c0.60168 3.3277 0.70263 5.4334 0.44727 6.2539v2e-3l-2e-3 2e-3c-0.1184 0.40222-0.33829 0.67207-0.70313 0.86719s-0.88737 0.30469-1.5684 0.30469c-1.1899 0-2.0737-0.32567-2.8027-1.0391-0.45612-0.45721-1.0346-1.8083-1.5938-4.0488-1.3e-4 -5.6e-4 1.3e-4 -1e-3 0-2e-3 -5.6e-4 -2e-3 -1e-3 -2e-3 -2e-3 -4e-3 -0.16701-0.72532-0.29161-1.5252-0.46289-2.4336v-2e-3l-5.9844-33.258c-0.38647-2.0753-0.63309-3.7493-0.75586-5.0156-0.12239-1.2625-0.11244-2.1286-0.0215-2.5312 0.11698-0.43067 0.34532-0.71891 0.73438-0.92773 0.38997-0.20932 0.95299-0.32618 1.6973-0.32618z" color="#000000" color-rendering="auto" dominant-baseline="auto" image-rendering="auto" solid-color="#000000" style="font-feature-settings:normal;font-variant-alternates:normal;font-variant-caps:normal;font-variant-ligatures:normal;font-variant-numeric:normal;font-variant-position:normal;isolation:auto;mix-blend-mode:normal;shape-padding:0;text-decoration-color:#000000;text-decoration-line:none;text-decoration-style:solid;text-indent:0;text-orientation:mixed;text-transform:none;white-space:normal"/><path d="m478.52 263.65c-3.6814 0-6.2732 0.92256-7.7559 2.8066-1.3418 1.714-1.6925 4.2002-1.0273 7.377l0.97461 5.1309c0.54091-0.10247 0-0.0191 0 2e-3l2.0059 10.232c0.65307 3.3217 2.0455 5.8541 4.1699 7.5449s4.964 2.5293 8.4668 2.5293c3.4135 0 5.9681-0.65723 7.627-2.0352l2e-3 -2e-3c1.6796-1.3717 2.1152-3.8562 1.457-7.2812l-0.76758-3.959h-8.8652l0.97071 5v2e-3c0.1555 0.73493 0.10692 1.3108-0.0312 1.666-0.14946 0.29022-0.53765 0.49218-1.2832 0.49218-0.72323 0-1.2651-0.18422-1.6797-0.54882-0.41463-0.36461-0.71251-0.92673-0.88086-1.7227l-3.6758-18.957v-2e-3c-0.16332-0.79785-0.0981-1.3445 0.11328-1.666 0.21133-0.32156 0.58707-0.49414 1.2402-0.49414 0.69895 0 1.2348 0.18539 1.6406 0.54883 0.40579 0.36344 0.69334 0.92204 0.83398 1.7148l2e-3 4e-3 1.2305 5.9531h8.8242l-0.95508-4.7754v-2e-3c-0.61097-3.1528-1.9836-5.5587-4.1074-7.1621-2.1242-1.6038-4.981-2.3965-8.5293-2.3965zm97.225 0c-3.5308 0-6.0805 0.83333-7.5801 2.5606-1.4996 1.7272-1.8944 4.2948-1.25 7.6191h2e-3l0.83984 4.2539h-3.2422l-2.6621-13.738h-8.8066c2.2014 11.416 4.4499 22.823 6.6836 34.232h8.8711l-2.957-14.674h3.252l1.0176 5.2949c0.47464 2.4263 1.3964 4.452 2.6348 5.9375v2e-3h2e-3c1.2572 1.4906 2.7565 2.5943 4.4766 3.2109l6e-3 2e-3 4e-3 2e-3c0.67301 0.20935 1.3734 0.44206 2.1211 0.57227 1.092 0.21387 2.2561 0.34765 3.4785 0.34765 2.0318 0 3.7822-0.30586 5.2383-0.92773l4e-3 -2e-3c1.522-0.6258 2.5918-1.7589 3.3086-3.2637l4e-3 -8e-3 2e-3 -8e-3c0.17312-0.42723 0.35411-0.91357 0.43945-1.459v-4e-3c0.17646-1.0266 0.17342-2.209 0-3.5449-0.0397-0.31186-0.0793-0.65843-0.17383-0.98632l6e-3 0.0234-3.002-15.371c-1.0747-5.4685-4.1837-8.76-9.1973-9.7246-1.0782-0.22037-2.2587-0.34766-3.5195-0.34766zm24.305 0c-2.5992 0-4.663 0.45187-6.1758 1.3828-1.511 0.92985-2.4535 2.3488-2.7852 4.1855-3.9e-4 2e-3 -2e-3 4e-3 -2e-3 6e-3h2e-3c-0.21812 1.0774-0.21606 2.3456-2e-3 3.6856 1.9e-4 1e-3 -1.9e-4 3e-3 0 4e-3 0.0451 0.31028 0.085 0.60573 0.13086 0.90429v6e-3l3.0449 15.375c0.65004 3.321 2.0256 5.8537 4.1426 7.5449 2.1169 1.6912 4.9574 2.5293 8.4883 2.5293 3.417 0 5.9535-0.65608 7.5742-2.0352l2e-3 -2e-3c1.6903-1.3705 2.1503-3.8562 1.4629-7.2832l-0.77929-3.957h-8.8477l0.99219 4.9922c0.12703 0.75702 0.10838 1.3402-0.0586 1.6699v2e-3c-0.14951 0.29916-0.52352 0.49609-1.293 0.49609-0.72323 0-1.2508-0.18393-1.6524-0.54687-0.40113-0.36261-0.68817-0.92402-0.85156-1.7207v-2e-3l-3.7207-18.955v-4e-3c-0.146-0.79677-0.0798-1.345 0.13281-1.666 0.21312-0.32175 0.59105-0.49609 1.2656-0.49609 0.69287 0 1.2125 0.18348 1.6113 0.54687 0.39887 0.3634 0.68729 0.92592 0.84766 1.7227l1.207 5.9512h8.8047l-0.91211-4.7754v-2e-3c-0.63083-3.1526-2.0015-5.5583-4.1191-7.1621-2.1177-1.6038-4.9614-2.3965-8.5098-2.3965zm-71.355 0.38086c-0.43908 0-0.83685 0.0117-1.1172 0.041-0.396 0.032-0.63074 0.11378-0.90041 0.2305l1.0547 5.5195h0.22852c0.40059 0.0316 0.71051 0.1725 1.0041 0.31264 0.22354 0.11187 0.47644 0.23607 0.7012 0.37323 0.72092 0.41248 1.3393 1.3704 1.75 2.875l2e-3 6e-3 2e-3 8e-3c0.30485 0.90943 0.81465 2.8826 1.5781 5.8809v2e-3c0.77972 2.995 1.6303 6.5076 2.6621 10.568l2.1445 8.7305h18.641l-6.7402-34.232h-8.6426l5.4766 27.904h-2.6621l-1.7852-6.8105v-2e-3l-2.6445-9.9766v-2e-3c-0.99159-3.5519-1.574-5.6282-1.8906-6.4141-0.76029-1.8899-1.9656-3.2508-3.7051-3.959-1.5265-0.64456-3.1016-1.0139-4.7676-1.0547h-4e-3zm-133.2 0.17793 6.6524 34.369h8.8535l-2.4336-12.496h3.8477l2.4336 12.496h8.8652l-6.6953-34.232h-8.8711l3.1289 15.961h-3.8535l-3.1113-15.957zm57.193 0.13281-8.9043 0.13477 6.7422 34.102h8.8652l-2.7617-14.084 7.6113 14.084h8.5039l-8.625-15.182 1.9024-19.051h-8.7148l-1.5391 15.748zm-77.129 4e-3 6.7012 34.232h17.75l-1.1309-5.6484h-8.8535l-1.3516-6.8477h8.4766l-1.1445-5.6484h-8.4707l-2.0293-10.445h8.9004l-1.0879-5.6426zm44.148 0 6.7715 34.232h8.8652l-2.8652-14.557 5.2285 7.2051 1.4453 7.3516h8.8516l-6.6894-34.232h-8.8633l3.209 16.432-5.2305-7.2441-1.8281-9.1875zm83.584 0 6.6894 34.232h21.568c-2.27-11.406-4.5014-22.82-6.7422-34.232h-8.8535l5.4766 27.904h-3.8535l-5.4316-27.904zm73.531 5.2891c1.016 0 1.7027 0.40368 2.1328 1.332 0.1247 0.35084 0.24709 0.67278 0.32617 1.0684l3.6738 18.92c0.16958 0.86196 0.10376 1.4665-0.11719 1.8262-0.22094 0.3597-0.60066 0.54688-1.2637 0.54688-1.0305 0-1.6796-0.43755-2.1133-1.3848-3e-3 2e-3 -4e-3 -7e-3 -6e-3 -0.01-0.15569-0.30633-0.27072-0.67392-0.3125-1.0606l-2e-3 -0.0117-3.7188-18.934h2e-3c-0.16399-0.84218-0.0979-1.4238 0.1211-1.7676 0.21897-0.34378 0.60258-0.52539 1.2773-0.52539z" color="#000000" color-rendering="auto" dominant-baseline="auto" image-rendering="auto" solid-color="#000000" style="font-feature-settings:normal;font-variant-alternates:normal;font-variant-caps:normal;font-variant-ligatures:normal;font-variant-numeric:normal;font-variant-position:normal;isolation:auto;mix-blend-mode:normal;shape-padding:0;text-decoration-color:#000000;text-decoration-line:none;text-decoration-style:solid;text-indent:0;text-orientation:mixed;text-transform:none;white-space:normal"/><path d="m353.63 264.29 0.6875 3.8672c-2.7042 0.22065-5.9963 1.1339-7.5312 2.7168-1.627 1.6243-2.0647 4.1899-1.4062 7.5762l-2e-3 -4e-3 0.55469 3.0879 0.82227 3.7676-2e-3 -2e-3c0.47478 2.2996 1.3441 4.1485 2.6191 5.6406l4e-3 4e-3c1.2702 1.4391 2.7176 2.4877 4.3672 3.1543 2e-3 7.8e-4 4e-3 1e-3 6e-3 2e-3 1e-3 5.4e-4 3e-3 1e-3 4e-3 2e-3 0.52037 0.23109 1.1239 0.35584 1.7578 0.48047 6.5e-4 1.3e-4 1e-3 -1.3e-4 2e-3 0 2e-3 4.5e-4 4e-3 2e-3 6e-3 2e-3 1.5034 0.33325 3.2925 0.45226 4.4883 0.57618l0.72461 3.5508h7.6191l-0.68945-3.582c2.6573-0.25229 5.9803-1.0343 7.6055-2.623l2e-3 -2e-3c1.6706-1.5829 2.1502-4.1337 1.5371-7.4375l-0.72461-3.7852-0.69531-3.0781v8e-3c-0.47446-2.356-1.3425-4.2462-2.6192-5.7402l-2e-3 -4e-3 -4e-3 -4e-3c-1.3029-1.4188-2.7442-2.5211-4.3965-3.1738l-4e-3 -2e-3c-0.60757-0.29396-1.3444-0.45788-2.125-0.62891l-4e-3 -2e-3h-2e-3c-1.4206-0.28425-2.9987-0.4757-4.1367-0.53125l-0.76758-3.8359zm9.6074 9.9258c0.28651 0.0323 0.59608 0.0635 1.0547 0.13672 0.40834 0.0652 0.83595 0.15262 1.1561 0.24217 0.37554 0.10906 0.51139 0.16539 0.69567 0.287 0.44289 0.31313 0.73301 0.7633 0.83762 1.3674v4e-3l0.99219 4.9277 1.1445 5.7871v2e-3c0.0999 0.48369 0.10521 0.87377 0.0351 1.1523-0.0698 0.27747-0.19653 0.44345-0.40039 0.55469-0.18205 0.0897-0.69282 0.20723-1.2109 0.28516-0.5089 0.0765-1.0319 0.12616-1.3516 0.14648zm-7.709 0.0508 2.9824 14.842c-0.94937-0.0512-2.0527-0.22848-2.7852-0.71484-3.7e-4 -2.6e-4 -2e-3 2.5e-4 -2e-3 0-0.51601-0.35768-0.88109-0.77632-0.98828-1.3223l-1.1621-5.7871-0.97461-4.8691c-0.0852-0.4235-0.0781-0.76551-4e-3 -1.0156s0.20317-0.41215 0.41797-0.52735c0.18915-0.0996 0.70469-0.25097 1.2246-0.36718 0.49034-0.1096 0.97719-0.1938 1.291-0.23829z" color="#000000" color-rendering="auto" dominant-baseline="auto" image-rendering="auto" solid-color="#000000" style="font-feature-settings:normal;font-variant-alternates:normal;font-variant-caps:normal;font-variant-ligatures:normal;font-variant-numeric:normal;font-variant-position:normal;isolation:auto;mix-blend-mode:normal;shape-padding:0;text-decoration-color:#000000;text-decoration-line:none;text-decoration-style:solid;text-indent:0;text-orientation:mixed;text-transform:none;white-space:normal"/></g><path d="m8.05 30.9h37.5l0.5-3.1c6.8-39.3 46-22.5 46-13.7-13.5-3.1-14 5.1-16.1 16.8h26.5c7.4 0 11.4 0.6 9.1 12.1l-5.6 31.8c-0.1 0.8-1.8 10-10.4 10h-26.7s6.7-2.8 8-10l5.6-31.9-8.7 0.1-8.9 50.3c-2.9 16.3-17.5 20.3-45.5 12.8l-0.1-2.3c6.5 1.9 13.5-1.6 15.1-10.5l8.9-50.3h-8.4l-5.6 31.8c-1.8 10 6.7 10 4.3 10h-27.1c-4 0-7.2-5.1-6.3-10z" clip-rule="evenodd" fill="url(#a)" fill-rule="evenodd"/>
</svg>
