<?xml version="1.0" encoding="UTF-8"?>
<svg id="svg23" width="405.63pt" height="74.088pt" version="1.1" viewBox="0 0 405.63 74.088" xmlns="http://www.w3.org/2000/svg" xmlns:cc="http://creativecommons.org/ns#" xmlns:dc="http://purl.org/dc/elements/1.1/" xmlns:rdf="http://www.w3.org/1999/02/22-rdf-syntax-ns#">
 <metadata id="metadata29">
  <rdf:RDF>
   <cc:Work rdf:about="">
    <dc:format>image/svg+xml</dc:format>
    <dc:type rdf:resource="http://purl.org/dc/dcmitype/StillImage"/>
    <dc:title/>
   </cc:Work>
  </rdf:RDF>
 </metadata>
 <g id="g4552">
  <path id="path18" d="m336.65 37.005h8.845v13.42h13.095v-13.42h8.855v35.205h-8.855v-13.655h-13.095v13.655h-8.845z"/>
  <path id="path20" d="m372.34 37.005c5.42-0.06 10.845-0.26 16.265 0.1 5.38 0.39 10.72 2.99 13.88 7.44 4.58 6.33 4.12 15.85-1.23 21.58-3.46 3.82-8.58 5.83-13.66 6.03-5.08 0.19-10.175 0.045-15.255 0.055v-35.205m8.89 7.58v19.92c3.83-0.08 8.135 0.54 11.405-1.94 5.22-3.67 5.11-12.45-0.14-16.05-3.25-2.37-7.495-1.79-11.265-1.93z"/>
 </g>
 <g id="g4516" transform="scale(.62257)">
  <g id="g4562" transform="matrix(.95028 0 0 .95028 -.00036111 -23.536)">
   <path id="path6-5" d="m3.8e-4 27.636v118.81h33.597v-39.5l31.723 0.33569v-31.723h-32.338v-16.197h40.423l-2.4897-31.723h-70.915z"/>
   <path id="path8-9" d="m206.51 27.646 14.295 24.869 14.155-24.981h36.227l-32.338 57.096 35.136 61.907h-37.318l-16.477-29.933-16.477 29.933h-36.702l35.779-61.907-33.597-56.984h37.318z"/>
   <path id="path10-7" d="m138.16 112.55c0 4.1122-3.7765 7.4692-8.4483 7.4692h-1.7624c-4.6437 0-8.4762-3.3569-8.4762-7.4692v-51.025c0-4.1122 3.8325-7.4412 8.4762-7.4412h1.7624c4.6717 0 8.4483 3.329 8.4483 7.4412zm-9.3434-83.056c-31.779 0-57.543 25.792-57.543 57.543 0 31.779 25.764 57.543 57.543 57.543s57.543-25.764 57.543-57.515c0-31.779-25.764-57.571-57.543-57.571"/>
  </g>
  <g id="g4568" transform="matrix(1.0962 0 0 1.0962 -96.483 -34.565)">
   <path id="path14-4" d="m371.3 117.8c0 5.8466 0.61544 7.2454 6.9097 7.2454h4.1402v12.449h-48.424v-12.449h4.1682c6.1264 0 7.2174-1.3987 7.2174-7.2454v-61.935c0-7.8608-0.78329-9.0917-6.9376-9.0917h-4.4479v-12.449h37.374v83.476z"/>
   <path id="path16-3" d="m409.02 33.386c7.0775 0 12.756 5.7068 12.756 12.756 0 7.0775-5.6788 12.784-12.756 12.784-7.2174 0-12.756-5.5389-12.756-12.784 0-7.0495 5.7068-12.756 12.756-12.756m-11.525 52.424c0-6.4341-0.16785-8.1405-6.9097-8.1405h-4.9235v-12.756h37.821v52.872c0 6.0145 1.063 7.2454 6.9097 7.2454h3.8605v12.449h-48.591v-12.449h4.5878c6.1544 0 7.2454-1.3987 7.2454-7.2454v-31.975z"/>
   <path id="path18-4" d="m437.99 124.41h3.6926c7.665 0 7.665-2.6016 7.665-10.91v-35.835h-11.358v-12.756h11.358v-4.1402c0-8.3084 0.47556-14.463 4.4759-19.386 4.7556-5.8466 13.847-9.847 25.065-9.847 15.666 0 25.205 7.3852 25.205 17.092 0 6.9097-4.5878 11.525-11.05 11.525-6.0145 0-10.462-4.1682-10.462-9.847 0-3.3849 2.0142-5.8466 5.6788-7.693-1.8463-0.30772-3.5248-0.44759-4.9235-0.44759-6.7698 0-8.2804 3.8325-8.2804 12.896v9.847h13.204v12.756h-13.204v35.835c0 8.9238 0.30771 10.91 7.8328 10.91h5.3711v13.064h-50.27v-13.064z"/>
   <path id="path20-9" d="m541.73 91.976v-0.61544c0-10.127-4.1682-15.526-12.001-15.526-7.2174 0-11.525 5.5389-11.693 16.141h23.694zm24.757 20.897c-4.6158 18.016-17.064 27.219-36.758 27.219-23.498 0-38.912-15.358-38.912-38.129 0-24.282 14.798-39.36 38.297-39.36 24.31 0 38.605 14.463 38.605 39.052v2.7695h-49.962v1.2309c0 13.372 5.0634 20.002 14.91 20.002 9.0637 0 14.603-4.6158 15.498-12.784h18.323z"/>
  </g>
 </g>
</svg>
