<?xml version="1.0" encoding="UTF-8"?>
<!-- Created with Inkscape (http://www.inkscape.org/) -->
<svg id="svg128210" width="800" height="353.7" version="1.1" viewBox="0 0 211.67 93.583" xmlns="http://www.w3.org/2000/svg" xmlns:cc="http://creativecommons.org/ns#" xmlns:dc="http://purl.org/dc/elements/1.1/" xmlns:rdf="http://www.w3.org/1999/02/22-rdf-syntax-ns#" xmlns:xlink="http://www.w3.org/1999/xlink">
 <defs id="defs128204">
  <clipPath id="clipPath6990">
   <path id="path6988" d="m763.32 689.05 0.304 0.55 0.131-0.23 0.021-0.038-0.152 0.268-0.304-0.55"/>
  </clipPath>
  <clipPath id="clipPath7014">
   <path id="path7012" d="m763.39 675.27 1e-3 1e-3 -1e-3 -1e-3m4.284 0.019 1.666 2.986-1.666-2.986m8.402 0.039v1e-3l-4.191 7.399 4.191-7.4m-6.663 11.764-1.381 2.478-4e-3 9e-3 -4.406 0.016 4.406-0.016 4e-3 -9e-3 1.381-2.478m-5.602 2.171-0.037 0.064-0.021 0.038-0.131 0.23 0.189-0.332"/>
  </clipPath>
  <clipPath id="clipPath7040">
   <path id="path7038" d="m763.39 675.27"/>
  </clipPath>
  <linearGradient id="linearGradient7076" x2="1" gradientTransform="matrix(0 14.325 14.325 0 769.73 675.27)" gradientUnits="userSpaceOnUse">
   <stop id="stop7072" stop-color="#f06800" offset="0"/>
   <stop id="stop7074" stop-color="#f06800" offset="1"/>
  </linearGradient>
  <clipPath id="clipPath7198">
   <path id="path7196" d="m758.63 678.92c-0.076 0.013-0.148 0.035-0.217 0.066-0.119 0.052-0.226 0.127-0.317 0.221-0.09 0.094-0.163 0.205-0.213 0.329-0.051 0.123-0.079 0.259-0.079 0.402 0-0.143 0.028-0.279 0.079-0.402 0.05-0.124 0.123-0.235 0.213-0.329 0.091-0.094 0.198-0.169 0.317-0.221 0.068-0.03 0.141-0.053 0.217-0.066"/>
  </clipPath>
  <clipPath id="clipPath7280">
   <path id="path7278" d="m752.6 685.3-0.23 3.705-0.489 0.657 0.489-0.657 0.23-3.705"/>
  </clipPath>
  <clipPath id="clipPath7304">
   <path id="path7302" d="m743.24 675.18v14.515l8.634-0.033v-1e-3 1e-3l-8.634 0.033v-14.515m8.01 8.659-3.178 2e-3 3.178-2e-3"/>
  </clipPath>
  <linearGradient id="linearGradient129140" x2="1" gradientTransform="matrix(0 14.325 14.325 0 769.73 675.27)" gradientUnits="userSpaceOnUse" xlink:href="#linearGradient7076"/>
  <linearGradient id="linearGradient2760" x2="1" gradientTransform="matrix(-6.2718 7.1948 7.1948 6.2718 767.28 683.8)" gradientUnits="userSpaceOnUse">
   <stop id="stop7000" stop-color="#828e94" offset="0"/>
   <stop id="stop7002" stop-color="#b1b9be" offset="1"/>
  </linearGradient>
  <linearGradient id="linearGradient2762" x2="1" gradientTransform="matrix(0 14.325 14.325 0 769.73 675.27)" gradientUnits="userSpaceOnUse">
   <stop id="stop7024" stop-color="#fff" offset="0"/>
   <stop id="stop7026" stop-color="#fff" offset=".094203"/>
   <stop id="stop7028" stop-color="#fff" offset="1"/>
  </linearGradient>
  <linearGradient id="linearGradient2764" x2="1" gradientTransform="matrix(1.2641 -.7136 -.7136 -1.2641 764.56 679.5)" gradientUnits="userSpaceOnUse">
   <stop id="stop7050" stop-color="#828e94" offset="0"/>
   <stop id="stop7052" stop-color="#f8fcfd" offset="1"/>
  </linearGradient>
  <linearGradient id="linearGradient2766" x2="1" gradientTransform="matrix(2.2951 5.5335 5.5335 -2.2951 768.6 683.89)" gradientUnits="userSpaceOnUse">
   <stop id="stop7094" stop-color="#c05819" offset="0"/>
   <stop id="stop7096" stop-color="#eb6800" offset="1"/>
  </linearGradient>
  <linearGradient id="linearGradient2768" x2="1" gradientTransform="matrix(5.1488 -7.3464 -7.3464 -5.1488 769.52 678.37)" gradientUnits="userSpaceOnUse">
   <stop id="stop7112" stop-color="#3a2414" offset="0"/>
   <stop id="stop7114" stop-color="#b3551c" offset="1"/>
  </linearGradient>
  <linearGradient id="linearGradient2770" x2="1" gradientTransform="matrix(-6.2718 7.1948 7.1948 6.2718 767.28 683.8)" gradientUnits="userSpaceOnUse">
   <stop id="stop7130" stop-color="#844320" offset="0"/>
   <stop id="stop7132" stop-color="#ad521d" offset="1"/>
  </linearGradient>
  <linearGradient id="linearGradient2772" x2="1" gradientTransform="matrix(0 18.836 18.836 0 769.73 671.32)" gradientUnits="userSpaceOnUse">
   <stop id="stop7148" stop-color="#da5f0f" offset="0"/>
   <stop id="stop7150" stop-color="#eb6800" offset="1"/>
  </linearGradient>
  <linearGradient id="linearGradient2774" x2="1" gradientTransform="matrix(1.2641 -.7136 -.7136 -1.2641 764.56 679.5)" gradientUnits="userSpaceOnUse">
   <stop id="stop7184" stop-color="#844320" offset="0"/>
   <stop id="stop7186" stop-color="#eb6800" offset="1"/>
  </linearGradient>
  <linearGradient id="linearGradient2776" x2="1" gradientTransform="matrix(0 -15.905 -15.905 0 758.82 686.75)" gradientUnits="userSpaceOnUse">
   <stop id="stop7208" stop-color="#535967" offset="0"/>
   <stop id="stop7210" stop-color="#f8fcfd" offset="1"/>
  </linearGradient>
  <linearGradient id="linearGradient2778" x2="1" gradientTransform="matrix(0 18.836 18.836 0 758.75 671.32)" gradientUnits="userSpaceOnUse">
   <stop id="stop7226" stop-color="#d35d12" offset="0"/>
   <stop id="stop7228" stop-color="#eb6800" offset="1"/>
  </linearGradient>
  <linearGradient id="linearGradient2780" x2="1" gradientTransform="matrix(0 -15.905 -15.905 0 758.82 686.75)" gradientUnits="userSpaceOnUse">
   <stop id="stop7248" stop-color="#57301c" offset="0"/>
   <stop id="stop7250" stop-color="#eb6800" offset="1"/>
  </linearGradient>
  <linearGradient id="linearGradient2782" x2="1" gradientTransform="matrix(0 13.999 13.999 0 758.75 675.42)" gradientUnits="userSpaceOnUse">
   <stop id="stop7266" stop-color="#f06800" offset="0"/>
   <stop id="stop7268" stop-color="#f06800" offset="1"/>
  </linearGradient>
  <linearGradient id="linearGradient2784" x2="1" gradientTransform="matrix(-.46124 8.7217 8.7217 .46124 752.52 682.05)" gradientUnits="userSpaceOnUse">
   <stop id="stop7290" stop-color="#828e94" offset="0"/>
   <stop id="stop7292" stop-color="#f8fcfd" offset="1"/>
  </linearGradient>
  <linearGradient id="linearGradient2786" x2="1" gradientTransform="matrix(0 14.515 14.515 0 747.69 675.18)" gradientUnits="userSpaceOnUse">
   <stop id="stop7314" stop-color="#fff" offset="0"/>
   <stop id="stop7316" stop-color="#fff" offset=".094203"/>
   <stop id="stop7318" stop-color="#fff" offset="1"/>
  </linearGradient>
  <linearGradient id="linearGradient2788" x2="1" gradientTransform="matrix(-1.8623 -3.4317 -3.4317 1.8623 748.48 679.35)" gradientUnits="userSpaceOnUse">
   <stop id="stop7338" stop-color="#502d19" offset="0"/>
   <stop id="stop7340" stop-color="#aa561f" offset="1"/>
  </linearGradient>
  <linearGradient id="linearGradient2790" x2="1" gradientTransform="matrix(.80025 10.866 10.866 -.80025 751.37 679.82)" gradientUnits="userSpaceOnUse">
   <stop id="stop7356" stop-color="#5e351d" offset="0"/>
   <stop id="stop7358" stop-color="#eb6800" offset="1"/>
  </linearGradient>
  <linearGradient id="linearGradient2792" x2="1" gradientTransform="matrix(0 18.836 18.836 0 747.69 671.32)" gradientUnits="userSpaceOnUse">
   <stop id="stop7374" stop-color="#d35d12" offset="0"/>
   <stop id="stop7376" stop-color="#eb6800" offset="1"/>
  </linearGradient>
  <linearGradient id="linearGradient2794" x2="1" gradientTransform="matrix(-.46124 8.7217 8.7217 .46124 752.52 682.05)" gradientUnits="userSpaceOnUse">
   <stop id="stop7396" stop-color="#844320" offset="0"/>
   <stop id="stop7398" stop-color="#eb6800" offset="1"/>
  </linearGradient>
  <linearGradient id="linearGradient2796" x2="1" gradientTransform="matrix(-1.1178 -1.6297 -1.6297 1.1178 748.14 685.41)" gradientUnits="userSpaceOnUse">
   <stop id="stop7414" stop-color="#482c19" offset="0"/>
   <stop id="stop7416" stop-color="#eb6800" offset="1"/>
  </linearGradient>
  <linearGradient id="linearGradient2798" x2="1" gradientTransform="matrix(14.392 -.014792 -.014792 -14.392 746.17 685.51)" gradientUnits="userSpaceOnUse">
   <stop id="stop7432" stop-color="#3a2414" offset="0"/>
   <stop id="stop7434" stop-color="#b3551c" offset="1"/>
  </linearGradient>
  <linearGradient id="linearGradient2800" x2="1" gradientTransform="matrix(0 14.515 14.515 0 747.69 675.18)" gradientUnits="userSpaceOnUse">
   <stop id="stop7450" stop-color="#f06800" offset="0"/>
   <stop id="stop7452" stop-color="#f06800" offset="1"/>
  </linearGradient>
 </defs>
 <metadata id="metadata128207">
  <rdf:RDF>
   <cc:Work rdf:about="">
    <dc:format>image/svg+xml</dc:format>
    <dc:type rdf:resource="http://purl.org/dc/dcmitype/StillImage"/>
    <dc:title/>
   </cc:Work>
  </rdf:RDF>
 </metadata>
 <g id="layer1" transform="translate(7.7752 -82.19)">
  <g id="g127602" transform="matrix(6.4474 0 0 -6.4474 -4799.7 4528.9)">
   <g id="g6984">
    <g id="g6986" clip-path="url(#clipPath6990)">
     <g id="g6992">
      <g id="g6998">
       <path id="path7006" d="m767.56 682.68-0.686-0.03-3.555 6.395 0.304 0.55 3.937-6.915" fill="url(#linearGradient2760)"/>
      </g>
     </g>
    </g>
   </g>
   <g id="g7008">
    <g id="g7010" clip-path="url(#clipPath7014)">
     <g id="g7016">
      <g id="g7022">
       <path id="path7032" d="m763.67 689.57 3.901-6.884-4e-3 -8e-3 -4.129-7.37 4.211 0.018 2.028 3.633 2.047-3.61 4.293 0.016-4.174 7.369 5e-3 7e-3 3.787 6.783-4.152 0.016-1.754-3.085-0.013 0.025-1.712 3.073-4.334 0.017m-0.286-14.294 4.151 7.41-3.919 6.915 4.406-0.016 4e-3 -9e-3 1.703-3.057 1.736 3.052h9e-3l4.214-0.016-0.013-0.023-3.796-6.798 4.191-7.4-4.364-0.017-5e-3 8e-3 -2.024 3.57-2.009-3.6h-9e-3l-4.275-0.019" fill="url(#linearGradient2762)"/>
      </g>
     </g>
    </g>
   </g>
   <g id="g7034">
    <g id="g7036" clip-path="url(#clipPath7040)">
     <g id="g7042">
      <g id="g7048">
       <path id="path7056" d="m763.39 675.27-0.277 0.646 3.759 6.734 0.686 0.03-4.168-7.41" fill="url(#linearGradient2764)"/>
      </g>
     </g>
    </g>
   </g>
   <g id="g7058" transform="translate(763.39 675.27)">
    <path id="path7060" d="m0 0h1e-3 -1e-3m1e-3 1e-3 -0.277 0.645 0.277-0.645" fill="#f06800"/>
   </g>
   <g id="g7062">
    <g id="g7064">
     <g id="g7070">
      <path id="path7078" d="m763.39 675.27 1e-3 1e-3v-1e-3h-1e-3" fill="url(#linearGradient129140)"/>
     </g>
    </g>
   </g>
   <g id="g7080" transform="translate(771.71 675.32)">
    <path id="path7082" d="m0 0-3e-3 5e-3 2e-3 -4e-3 -2e-3 4e-3 3e-3 -5e-3 4.364 0.017-4.364-0.017m-1e-3 1e-3 -0.996 0.573-1.375 2.39h1e-3l1.374-2.39 0.996-0.573m-2.298 11.78 1.091 1.898-1.091-1.898m1.091 1.898 0.967 0.575-0.967-0.575" fill="#f06800"/>
   </g>
   <g id="g7084">
    <g id="g7086">
     <g id="g7092">
      <path id="path7100" d="m769.73 686.52-0.322 0.579 1.091 1.898 0.967 0.575-1.736-3.052" fill="url(#linearGradient2766)"/>
     </g>
    </g>
   </g>
   <g id="g7102">
    <g id="g7104">
     <g id="g7110">
      <path id="path7118" d="m771.71 675.32-0.996 0.573-1.374 2.39 0.342 0.614 2.024-3.57 2e-3 -3e-3 2e-3 -4e-3" fill="url(#linearGradient2768)"/>
     </g>
    </g>
   </g>
   <g id="g7120">
    <g id="g7122">
     <g id="g7128">
      <path id="path7136" d="m766.87 682.65-3.555 6.395 0.304 0.55 0.152-0.268 3.767-6.647v-1e-3l-0.668-0.029" fill="url(#linearGradient2770)"/>
     </g>
    </g>
   </g>
   <g id="g7138">
    <g id="g7140">
     <g id="g7146">
      <path id="path7154" d="m763.44 675.31 4.129 7.37 4e-3 8e-3 -3.901 6.884 4.334-0.017 1.712-3.073 0.013-0.025 1.754 3.085 4.152-0.016-3.787-6.783-5e-3 -7e-3 4.174-7.369-4.293-0.016-2.047 3.61-2.028-3.633-4.211-0.018" fill="url(#linearGradient2772)"/>
     </g>
    </g>
   </g>
   <g id="g7156">
    <g id="g7158">
     <g id="g7164">
      <path id="path7172" d="m763.39 675.27 4.168 7.41-0.018-1e-3v1e-3l-3.767 6.647 0.037-0.064-0.189 0.332 4.406-0.016 4e-3 -9e-3 1.381-2.478 0.322-0.579 1.736 3.052h9e-3l4.214-0.016-0.013-0.023-3.796-6.798 4.191-7.399v-1e-3l-4.364-0.017-3e-3 5e-3 -2e-3 3e-3 -2.024 3.57-0.342-0.614h-1e-3l-1.666-2.986h-9e-3l-4.274-0.019m0.285 14.294 3.901-6.884-4e-3 -8e-3 -4.129-7.37 4.211 0.018 2.028 3.633 2.047-3.61 4.293 0.016-4.174 7.369 5e-3 7e-3 3.787 6.783-4.152 0.016-1.754-3.085-0.013 0.025-1.712 3.073-4.334 0.017" fill="url(#linearGradient129140)"/>
     </g>
    </g>
   </g>
   <g id="g7174">
    <g id="g7176">
     <g id="g7182">
      <path id="path7190" d="m763.39 675.27v1e-3l-0.277 0.645 3.759 6.734 0.668 0.029 0.018 1e-3 -4.168-7.41" fill="url(#linearGradient2774)"/>
     </g>
    </g>
   </g>
   <g id="g7192">
    <g id="g7194" clip-path="url(#clipPath7198)">
     <g id="g7200">
      <g id="g7206">
       <path id="path7214" d="m758.35 686.43c-0.136-0.065-0.259-0.159-0.362-0.273-0.103-0.113-0.187-0.248-0.245-0.395-0.057-0.147-0.089-0.306-0.089-0.469l-1e-3 -5.726c0-0.163 0.032-0.319 0.09-0.461 0.057-0.141 0.141-0.269 0.245-0.376 0.103-0.107 0.226-0.194 0.362-0.253 0.137-0.06 0.287-0.093 0.444-0.093 0.158 1e-3 0.312 0.033 0.452 0.091 0.142 0.059 0.271 0.144 0.38 0.25 0.109 0.104 0.199 0.23 0.261 0.37 0.063 0.141 0.097 0.296 0.097 0.46v5.734c0 0.163-0.034 0.322-0.097 0.469-0.062 0.147-0.152 0.282-0.261 0.396-0.109 0.115-0.238 0.208-0.38 0.274-0.14 0.065-0.294 0.102-0.452 0.102h-2e-3c-0.156 0-0.306-0.035-0.442-0.1m0.06-7.447c-0.119 0.052-0.226 0.127-0.317 0.221-0.09 0.094-0.163 0.205-0.213 0.329-0.051 0.123-0.079 0.259-0.079 0.402l1e-3 4.997c0 0.142 0.027 0.282 0.078 0.41 0.05 0.128 0.124 0.245 0.214 0.345 0.09 0.099 0.197 0.181 0.316 0.238 0.119 0.056 0.25 0.088 0.387 0.088 0.138 0 0.272-0.033 0.395-0.09s0.236-0.139 0.332-0.239c0.094-0.1 0.173-0.217 0.227-0.345 0.055-0.129 0.085-0.268 0.085-0.41v-5.005c0-0.143-0.03-0.279-0.085-0.401-0.054-0.123-0.133-0.232-0.227-0.324-0.096-0.092-0.209-0.166-0.332-0.217-0.123-0.052-0.257-0.079-0.395-0.08h-1e-3c-0.137 0-0.268 0.029-0.386 0.081" fill="url(#linearGradient2776)"/>
      </g>
     </g>
    </g>
   </g>
   <g id="g7216">
    <g id="g7218">
     <g id="g7224">
      <path id="path7232" d="m758.78 675.45h-0.017c-0.901 0-1.774 0.18-2.599 0.539-0.801 0.348-1.521 0.85-2.141 1.489-0.619 0.641-1.106 1.387-1.446 2.219-0.352 0.862-0.531 1.778-0.531 2.722s0.179 1.859 0.531 2.721c0.34 0.831 0.827 1.578 1.446 2.218 0.62 0.64 1.34 1.141 2.141 1.49 0.822 0.357 1.693 0.538 2.591 0.538h0.025c0.905-3e-3 1.784-0.19 2.609-0.556 0.797-0.353 1.512-0.857 2.125-1.497s1.095-1.383 1.431-2.211c0.347-0.857 0.523-1.766 0.523-2.703s-0.176-1.847-0.523-2.704c-0.336-0.828-0.818-1.572-1.431-2.211-0.613-0.641-1.328-1.144-2.125-1.497-0.825-0.366-1.704-0.553-2.609-0.557m0.017 11.096c-0.155 0-0.305-0.035-0.448-0.103-0.138-0.065-0.261-0.158-0.368-0.276-0.106-0.117-0.189-0.251-0.247-0.4-0.06-0.153-0.091-0.313-0.091-0.475l-1e-3 -5.726c0-0.162 0.031-0.318 0.091-0.467 0.059-0.143 0.142-0.271 0.248-0.381s0.23-0.197 0.368-0.257c0.142-0.062 0.293-0.093 0.448-0.093h3e-3c0.157 0 0.311 0.031 0.458 0.092 0.143 0.06 0.272 0.144 0.384 0.252 0.113 0.109 0.202 0.235 0.264 0.376 0.066 0.148 0.099 0.305 0.099 0.466v5.734c0 0.161-0.033 0.321-0.098 0.476-0.063 0.147-0.152 0.282-0.264 0.4-0.113 0.118-0.243 0.211-0.385 0.277-0.148 0.069-0.302 0.104-0.458 0.105h-3e-3" fill="url(#linearGradient2778)"/>
     </g>
    </g>
   </g>
   <g id="g7234" transform="translate(758.8 678.9)">
    <path id="path7236" d="m0 0h-1e-3c-0.058 0-0.114 5e-3 -0.169 0.015 0.055-0.01 0.112-0.015 0.17-0.015m0.973 0.668c0.043 0.109 0.066 0.229 0.066 0.354 0-0.125-0.023-0.245-0.066-0.354" fill="#f06800"/>
   </g>
   <g id="g7238">
    <g id="g7240">
     <g id="g7246">
      <path id="path7254" d="m758.8 678.4c-0.153 0-0.299 0.03-0.437 0.091-0.134 0.058-0.255 0.142-0.358 0.25-0.104 0.107-0.185 0.232-0.242 0.371-0.059 0.145-0.089 0.298-0.089 0.455l1e-3 5.726c0 0.158 0.03 0.314 0.089 0.464 0.057 0.145 0.138 0.276 0.241 0.39 0.105 0.115 0.225 0.206 0.358 0.269 0.139 0.065 0.285 0.099 0.435 0.099h2e-3c0.152 0 0.302-0.034 0.446-0.101 0.138-0.065 0.265-0.156 0.375-0.27 0.11-0.116 0.196-0.247 0.258-0.392 0.064-0.15 0.096-0.306 0.096-0.463v-5.734c0-0.157-0.032-0.31-0.096-0.453-0.061-0.137-0.147-0.26-0.258-0.366-0.109-0.106-0.235-0.188-0.374-0.246-0.143-0.059-0.293-0.09-0.447-0.09m3e-3 0.502c0.138 1e-3 0.272 0.028 0.395 0.08 0.123 0.051 0.236 0.125 0.332 0.217 0.094 0.092 0.173 0.201 0.227 0.324 7e-3 0.016 0.013 0.031 0.019 0.047 0.043 0.109 0.066 0.229 0.066 0.354v5.005c0 0.142-0.03 0.281-0.085 0.41-0.054 0.128-0.133 0.245-0.227 0.345-0.096 0.1-0.209 0.182-0.332 0.239s-0.257 0.09-0.395 0.09h-3e-3c-0.136 0-0.266-0.032-0.384-0.088-0.119-0.057-0.226-0.139-0.316-0.238-0.09-0.1-0.164-0.217-0.214-0.345-0.051-0.128-0.078-0.268-0.078-0.41l-1e-3 -4.997c0-0.143 0.028-0.279 0.079-0.402 0.05-0.124 0.123-0.235 0.213-0.329 0.091-0.094 0.198-0.169 0.317-0.221 0.069-0.031 0.141-0.053 0.217-0.066 0.055-0.01 0.111-0.015 0.169-0.015h1e-3" fill="url(#linearGradient2780)"/>
     </g>
    </g>
   </g>
   <g id="g7256">
    <g id="g7258">
     <g id="g7264">
      <path id="path7272" d="m758.78 675.42h-0.025c-0.902 0-1.778 0.182-2.603 0.541-0.805 0.351-1.529 0.854-2.151 1.497-0.623 0.643-1.111 1.392-1.453 2.228-0.353 0.866-0.533 1.786-0.533 2.734s0.18 1.868 0.533 2.733c0.342 0.835 0.83 1.585 1.453 2.228 0.622 0.643 1.346 1.146 2.151 1.497 0.825 0.359 1.701 0.541 2.603 0.541h0.025c0.91-4e-3 1.792-0.192 2.622-0.559 0.8-0.355 1.519-0.861 2.135-1.504s1.099-1.39 1.436-2.221c0.349-0.86 0.527-1.774 0.527-2.715 0-0.942-0.178-1.855-0.527-2.716-0.337-0.831-0.82-1.578-1.436-2.221s-1.335-1.149-2.135-1.504c-0.83-0.367-1.712-0.556-2.622-0.559m-0.025 13.967c-0.898 0-1.769-0.181-2.591-0.538-0.801-0.349-1.521-0.85-2.141-1.49-0.619-0.64-1.106-1.387-1.446-2.218-0.352-0.862-0.531-1.777-0.531-2.721s0.179-1.86 0.531-2.722c0.34-0.832 0.827-1.578 1.446-2.219 0.62-0.639 1.34-1.141 2.141-1.489 0.825-0.359 1.698-0.539 2.599-0.539h0.017c0.905 4e-3 1.784 0.191 2.609 0.557 0.797 0.353 1.512 0.856 2.125 1.497 0.613 0.639 1.095 1.383 1.431 2.211 0.347 0.857 0.523 1.767 0.523 2.704s-0.176 1.846-0.523 2.703c-0.336 0.828-0.818 1.571-1.431 2.211s-1.328 1.144-2.125 1.497c-0.825 0.366-1.704 0.553-2.609 0.556h-0.025m0.045-11.018h-3e-3c-0.155 0-0.306 0.031-0.448 0.093-0.138 0.06-0.262 0.147-0.368 0.257s-0.189 0.238-0.248 0.381c-0.06 0.149-0.091 0.305-0.091 0.467l1e-3 5.726c0 0.162 0.031 0.322 0.091 0.475 0.058 0.149 0.141 0.283 0.247 0.4 0.107 0.118 0.23 0.211 0.368 0.276 0.143 0.068 0.293 0.103 0.448 0.103h3e-3c0.156-1e-3 0.31-0.036 0.458-0.105 0.142-0.066 0.272-0.159 0.385-0.277 0.112-0.118 0.201-0.253 0.264-0.4 0.065-0.155 0.098-0.315 0.098-0.476v-5.734c0-0.161-0.033-0.318-0.099-0.466-0.062-0.141-0.151-0.267-0.264-0.376-0.112-0.108-0.241-0.192-0.384-0.252-0.147-0.061-0.301-0.092-0.458-0.092m-3e-3 8.146c-0.15 0-0.296-0.034-0.435-0.099-0.133-0.063-0.253-0.154-0.358-0.269-0.103-0.114-0.184-0.245-0.241-0.39-0.059-0.15-0.089-0.306-0.089-0.464l-1e-3 -5.726c0-0.157 0.03-0.31 0.089-0.455 0.057-0.139 0.138-0.264 0.242-0.371 0.103-0.108 0.224-0.192 0.358-0.25 0.138-0.061 0.284-0.091 0.437-0.091 0.154 0 0.304 0.031 0.447 0.09 0.139 0.058 0.265 0.14 0.374 0.246 0.111 0.106 0.197 0.229 0.258 0.366 0.064 0.143 0.096 0.296 0.096 0.453v5.734c0 0.157-0.032 0.313-0.096 0.463-0.062 0.145-0.148 0.276-0.258 0.392-0.11 0.114-0.237 0.205-0.375 0.27-0.144 0.067-0.294 0.101-0.446 0.101h-2e-3" fill="url(#linearGradient2782)"/>
     </g>
    </g>
   </g>
   <g id="g7274">
    <g id="g7276" clip-path="url(#clipPath7280)">
     <g id="g7282">
      <g id="g7288">
       <path id="path7296" d="m752.13 685.71 0.471-0.404-0.23 3.705-0.489 0.658 0.248-3.959" fill="url(#linearGradient2784)"/>
      </g>
     </g>
    </g>
   </g>
   <g id="g7298">
    <g id="g7300" clip-path="url(#clipPath7304)">
     <g id="g7306">
      <g id="g7312">
       <path id="path7322" d="m743.24 675.18 4.064 0.015v4.672l3.946 5e-3v3.967l-3.917 3e-3v1.854l4.806-9e-3 -0.265 3.975-8.634 0.033v-14.515m0.032 14.484 8.573-0.034 0.26-3.911-4.803 8e-3v-1.916l3.916-3e-3v-3.904l-3.945-6e-3v-4.672l-4.001-0.015v14.453" fill="url(#linearGradient2786)"/>
      </g>
     </g>
    </g>
   </g>
   <g id="g7324" transform="translate(743.24 675.18)">
    <path id="path7326" d="m0 0 4.064 0.015 0.744 0.631v4.042l3.202 4e-3v1e-3l0.565 0.331v3.448-3.448l-0.565-0.331v-1e-3l-3.202-4e-3v-4.042l-0.744-0.631-4.064-0.015m8.01 8.658v1e-3 -1e-3" fill="#f06800"/>
   </g>
   <g id="g7328">
    <g id="g7330">
     <g id="g7336">
      <path id="path7344" d="m747.31 675.2v4.672l0.744 1e-3v-4.042l-0.744-0.631" fill="url(#linearGradient2788)"/>
     </g>
    </g>
   </g>
   <g id="g7346">
    <g id="g7348">
     <g id="g7354">
      <path id="path7362" d="m751.25 679.88v3.966l0.565-0.187v-3.448l-0.565-0.331" fill="url(#linearGradient2790)"/>
     </g>
    </g>
   </g>
   <g id="g7364">
    <g id="g7366">
     <g id="g7372">
      <path id="path7380" d="m743.28 675.22v14.453l8.573-0.034 0.26-3.911-4.803 8e-3v-1.916l3.916-3e-3v-3.904l-3.945-6e-3v-4.672l-4.001-0.015" fill="url(#linearGradient2792)"/>
     </g>
    </g>
   </g>
   <g id="g7382" transform="translate(752.6 685.3)">
    <path id="path7384" d="M 0,0 -0.455,0.39 0,0" fill="#f06800"/>
   </g>
   <g id="g7386">
    <g id="g7388">
     <g id="g7394">
      <path id="path7402" d="m752.6 685.3-0.455 0.39-0.263 3.958-1e-3 0.014 0.489-0.657 0.23-3.705" fill="url(#linearGradient2794)"/>
     </g>
    </g>
   </g>
   <g id="g7404">
    <g id="g7406">
     <g id="g7412">
      <path id="path7420" d="m748.08 683.84-0.739 1e-3v1.854h0.013l0.726-0.391v-1.464" fill="url(#linearGradient2796)"/>
     </g>
    </g>
   </g>
   <g id="g7422">
    <g id="g7424">
     <g id="g7430">
      <path id="path7438" d="m752.6 685.3-4.521 6e-3 -0.726 0.391 4.793-9e-3 -1e-3 2e-3 0.455-0.39" fill="url(#linearGradient2798)"/>
     </g>
    </g>
   </g>
   <g id="g7440">
    <g id="g7442">
     <g id="g7448">
      <path id="path7456" d="m743.24 675.18v14.515l8.634-0.033v-1e-3l1e-3 -0.014 0.263-3.958 1e-3 -2e-3 -4.793 9e-3h-0.013v-1.854l0.739-1e-3 3.178-2e-3v-3.967l-3.946-5e-3v-4.672l-4.064-0.015m0.032 14.484v-14.453l4.001 0.015v4.672l3.945 6e-3v3.904l-3.916 3e-3v1.916l4.803-8e-3 -0.26 3.911-8.573 0.034" fill="url(#linearGradient2800)"/>
     </g>
    </g>
   </g>
  </g>
 </g>
</svg>
