<svg id="a" version="1.1" viewBox="0 0 400 165" xml:space="preserve" xmlns="http://www.w3.org/2000/svg"><path id="b" d="m370.44 113.83c-1.6975 0.13617-2.9844 1.6341-2.9988 3.2892-0.3179 4.9404-0.0261 9.9131-0.13599 14.839 0.0594 2.3748-0.19722 4.8274 0.36023 7.1271 0.60517 1.6667 2.572 2.6467 4.283 2.2014 7.1288-0.88192 14.228-1.7547 21.363-2.6077 1.0023-0.0932 2.0785-0.35743 2.8115-1.1458 1.2239-1.0757 0.99963-2.918 1.123-4.3856 0.017-4.9242-0.0333-9.8474 0.017-14.774-0.0504-1.7701 0.0972-3.5874-0.41875-5.2925-0.56375-1.4455-2.1703-2.2355-3.6644-2.1026-7.58 0.98152-15.16 1.8705-22.74 2.8512zm-260.2-25.194c-0.95368 0.0894-1.9731 0.37183-2.7062 1.0525-0.75466 0.81437-1.1383 1.9798-1.0185 3.0992-0.037 5.9039 0.0198 11.816-0.0243 17.704-2.21 0.39571-4.4298 0.65678-6.6668 0.83726-0.0306-4.8708 0-9.7411 0-14.6-0.0504-1.654 0.13149-3.4545-0.77898-4.9478-0.99601-1.3075-2.7179-1.5626-4.2623-1.2305-6.9417 0.83373-13.896 1.7424-20.854 2.5427-1.2879 0.16535-2.7618 0.20398-3.7018 1.2305-1.2164 1.0754-1.0761 2.8934-1.1401 4.3673 0.03415 20.013 0.03415 40.027 0 60.043 0.08339 1.7033-0.11644 3.5477 0.86291 5.067 0.6058 0.50938 1.2879 1.0916 2.1195 1.1848 1.8596 0.0738 3.6884-0.27333 5.5371-0.48897 5.9454-0.71763 11.91-1.493 17.871-2.1705 1.2815-0.11855 2.7062-0.36937 3.4915-1.4676 0.93928-1.1204 0.77898-2.7284 0.85552-4.0746 0-5.924-0.0306-11.839 0-17.736 2.2235-0.27538 4.4569-0.54032 6.6911-0.81717 0.0198 5.88-0.037 11.714 0 17.536 0.0396 1.1274-0.0837 2.4765 0.79878 3.3419 0.8114 1.3044 2.5513 1.4476 3.9417 1.2594 7.0784-0.88543 14.15-1.7484 21.202-2.6109 1.2031-0.14176 2.5378-0.26383 3.4842-1.0757 0.90505-0.81266 1.1635-2.0991 1.0798-3.2424-0.0136-21.012 0-42.017-0.0136-63.003 0.0532-1.3578-0.0504-3.0119-1.2932-3.8562-1.1914-1.0019-2.8457-0.60328-4.2641-0.53223-7.0586 0.87948-14.16 1.7238-21.211 2.5867zm74.881-9.1452c-1.3499 0.23461-2.0019 1.5837-2.671 2.6594-3.8787 7.0669-7.7808 14.114-11.715 21.164-0.18102-5.9311 0.0405-11.875-0.0973-17.804 0.0802-1.5412-0.89876-3.2234-2.4567-3.6402-2.1334-0.23568-4.2776 0.20505-6.3768 0.44424-5.7644 0.72719-11.495 1.4043-17.239 2.1174-1.0969 0.12239-2.3576 0.49107-2.9961 1.4954-0.57816 0.76935-0.66821 1.7976-0.62498 2.7299 0.0198 19.019 0.0198 38.051 0 57.091 0.0198 2.5849-0.11348 5.2029 0.12967 7.7856 0.14139 1.2823 1.2545 2.2676 2.472 2.6151 2.6467 0.14498 5.2421-0.44182 7.8844-0.71938 5.3619-0.65784 10.743-1.3072 16.106-1.9886 1.3634 0 2.6846-0.79329 3.3303-1.9998 3.9913-7.2319 7.9474-14.464 11.976-21.7 0.0909 5.4646-0.0225 10.942 0.0405 16.393 0.0504 1.2013-0.0837 2.599 0.78528 3.533 0.6457 1.1405 2.1073 1.5618 3.3384 1.3466 3.5194-0.30007 7.0243-0.8323 10.558-1.2597 4.1092-0.5379 8.2644-0.9337 12.397-1.5651 1.5156-0.20685 2.6494-1.6956 2.635-3.2111 0.0144-21.354 0-42.674 0.0144-63.988 0.0296-1.3217-0.0837-3.0102-1.3914-3.7373-1.2104-0.95612-2.8359-0.65425-4.2335-0.51179-7.2747 1.0019-14.598 1.7448-21.864 2.7498zm73.094-9.0258c-1.8714 0-4.0741 0.95278-4.2623 3.0294-0.0783 13.882 0.0828 27.76-0.0783 41.666-2.2721 0.34473-4.546 0.55476-6.8136 0.86003-0.037-12.97 0-25.979 0-38.981 0.0711-1.4493-0.17291-3.3342-1.6084-4.1303-1.0969-0.79699-2.4666-0.52863-3.7274-0.44487-6.3003 0.84021-12.611 1.5642-18.928 2.3568-1.6813 0.26116-3.5104 0.1675-5.0278 1.0983-0.95099 0.90767-1.3887 2.198-1.2518 3.4774 0.0442 21.015 0 41.994 0 63.011 0.091 1.0209-0.0837 2.2335 0.6493 3.1034 0.60248 0.64724 1.3742 1.3244 2.3261 1.3951 1.9767 0.0225 3.9462-0.34266 5.9049-0.5579 6.3129-0.7915 12.629-1.5454 18.928-2.3534 3.1934-0.30961 6.393-0.86536 9.6062-1.0455 0.0333 3.1832-0.13328 6.3837 0.10986 9.5983 0.25846 1.85 2.3586 3.0576 4.1372 2.7174 2.6719-0.25892 5.3493-0.68244 8.0104-0.98495 2.9934-0.41687 5.9887-0.60616 8.9371-1.1665 1.4823-0.37012 2.1271-1.9876 2.5846-3.2881 3.7292-10.89 7.4242-21.786 11.205-32.686 0.4881-1.3262 0.8123-3.0587-0.12968-4.2601-0.86902-1.4968-2.8331-1.6175-4.3263-1.6938-0.0144-12.615-0.0144-25.26 0-37.906-0.0513-1.6723 0.0261-3.6797-1.449-4.8261-1.2437-0.9627-2.8286-0.634-4.2893-0.49261-6.8343 0.8114-13.664 1.684-20.507 2.5018zm54.491-6.6758c-1.6958-0.0244-2.9565 1.3364-3.4086 2.8764-7.598 22.249-15.199 44.483-22.815 66.737-0.41876 1.321-0.19452 2.9451 0.85553 3.9153 0.98611 1.1187 2.6143 1.1187 3.9913 0.96208 8.1554-1.0772 16.37-1.9706 24.526-3.0738 1.3652-0.17309 2.1838-1.473 2.5954-2.6662 0.50072-1.939 0.89515-3.8741 1.34-5.8064 3.8958-0.62939 7.8105-1.0852 11.74-1.4958 0.52772 1.9823 0.91946 4.0167 1.7579 5.925 0.93929 1.3772 2.7629 1.7952 4.3074 1.423 6.3696-0.83832 12.753-1.5594 19.102-2.358 1.9758-0.25676 3.9723-0.37286 5.9184-0.78899 1.6813-0.56006 2.7305-2.5916 2.2154-4.2984-0.45028-1.6712-1.1329-3.2884-1.721-4.9196-6.8784-18.866-13.787-37.767-20.69-56.64-0.31159-0.86272-0.652-1.7732-1.4679-2.2631-1.1599-0.91046-2.7323-0.73035-4.0651-0.49621-8.0492 1.0041-16.12 1.9713-24.181 2.9682zm56.085-6.9505c-1.4184 0.0451-2.9223 0.60157-3.7085 1.8443-0.92306 2.2181-0.22064 4.6361-0.0901 6.9036 1.2311 13.085 2.4981 26.147 3.6436 39.238 0.10449 1.169 0.27827 2.4027 0.90326 3.4555 1.0807 1.3949 3.0322 1.4687 4.6541 1.2524 5.3772-0.71596 10.75-1.3456 16.127-1.9742 1.4364-0.20866 2.9547-0.38031 4.2119-1.1264 1.0933-1.0019 1.1527-2.6018 1.3139-4.0089 0.82942-9.6116 1.7696-19.249 2.6458-28.856 0.4773-5.1845 0.83751-10.36 1.5012-15.517v-1.6336c-0.57275-1.0708-1.1914-2.4027-2.4846-2.6774-2.6278-0.23594-5.2493 0.22872-7.851 0.55293-6.9622 0.84743-13.912 1.7246-20.867 2.5477zm-365.16-30.867c-1.1004 0.11618-2.3502 0.4899-3.0063 1.4967-0.65853 0.815-0.55441 1.9389-0.60506 2.9178-0.013368 20.688 0.023569 41.339-0.026736 62.01 0.11011 1.328-0.22444 2.7949 0.61878 3.9381 0.39822 0.76935 1.2302 1.0993 2.0023 1.3326 2.6482 0.13894 5.2496-0.42498 7.864-0.70353 5.2865-0.60688 10.573-1.3273 15.823-1.8873 0.97899-0.1675 2.066-0.18759 2.8213-0.93225 1.5105-0.93929 1.3765-2.9384 1.4342-4.5056-0.04368-13.088-0.04368-26.202-0.03026-39.307 2.2401-0.25756 4.4676-0.53493 6.6838-0.8177 0.05656 13.231-0.05313 26.498 0.05656 39.732-0.16705 1.8142 1.0701 3.6603 2.9194 3.8914 1.7586 0.0679 3.4911-0.25746 5.1962-0.46955 5.9577-0.69549 11.932-1.4617 17.884-2.1635 0.84913-0.11788 1.698-0.14246 2.4909-0.49251 1.1802-0.44217 1.99-1.6561 1.9787-2.918-0.01225-21.647 0.01126-43.321-0.01225-64.972 0.21064-2.0542-1.8832-3.9381-3.9283-3.4761-3.2279 0.23234-6.4165 0.79969-9.6437 1.1221-16.832 2.1019-33.672 4.1462-50.521 6.2048zm101-12.385c-7.9618 0.79879-16.063 3.3375-22.094 8.7957-5.2 4.917-8.1018 12.107-7.9417 19.242-0.16012 4.3659 0.68244 8.9155 3.1671 12.603 1.5843 2.5882 4.1154 4.456 6.9173 5.6123-4.7346 7.8267-9.4854 15.639-14.27 23.454-0.82635 1.4001-0.97305 3.267 0.11014 4.5496 0.75908 1.2558 2.4505 1.4951 3.8115 1.3076 8.2183-1.0297 16.453-2.058 24.689-3.0323 1.3472-0.1214 2.8683-0.49432 3.5041-1.8205 1.558-2.753 2.8151-5.6637 4.3398-8.4938 0.0324 1.8933-0.0432 3.7743 0.15671 5.6482 0.0568 1.6354 1.5111 3.0292 3.0898 3.172 0.95279 0.021 1.8822-0.0943 2.8088-0.21569 6.5696-0.8583 13.17-1.6006 19.77-2.4238 1.1662-0.16282 2.4675-0.29862 3.3942-1.1478 0.75196-0.85129 1.0356-2.0642 0.93927-3.1913-0.0136-19.033-0.0136-38.074 0-57.088-0.0298-2.5846 0.12338-5.1953-0.12698-7.8105-0.20082-1.5192-1.7092-2.6593-3.2339-2.6107-2.2532 0.02161-4.4839 0.46288-6.7298 0.72044-7.4566 0.91046-14.856 1.8227-22.301 2.7296zm88.189-10.944h1.4112c1.6084 0.38003 3.0196 1.8164 3.0196 3.5293 0.0837 5.2448-0.0837 10.498 0.0136 15.765-0.0207 2.2181 0.14769 4.483-0.25035 6.6722-0.22154 1.6795-2.0308 2.3577-3.5041 2.5621-3.0736 0.4899-6.1625 0.72765-9.2559 1.1653v32.316c-0.0269 2.9403 0.1486 5.8788-0.12696 8.793-0.27738 1.7309-2.0857 2.683-3.7184 2.7284-4.8981 0.56671-9.8061 1.2143-14.708 1.8056-3.1564 0.31241-6.2985 1.0631-9.4657 0.7191-0.88164-0.14563-1.5273-0.86607-1.9659-1.5922-0.61148-1.4391-0.47459-3.0522-0.55115-4.5651 0.0432-12.135 0.0432-24.291 0.0162-36.447-2.6377 0.28639-5.2529 0.67903-7.888 0.9573-1.3634 6e-3 -3.0727 0.18731-3.9606-1.0708-1.1275-1.023-0.95367-2.6584-0.95367-4.012 0.0603-6.2273-0.0297-12.476 0.0333-18.682 0.0775-1.1239-0.10987-2.5008 0.7997-3.3384 1.2176-1.4301 3.2393-1.3238 4.8873-1.6102 15.411-1.8632 30.802-3.6815 46.168-5.696" fill="#ed1c24"/></svg>
