<?xml version="1.0" encoding="UTF-8"?>
<!-- Created with Inkscape (http://www.inkscape.org/) -->
<svg id="svg2" width="799.94" height="799.97" version="1.1" viewBox="0 0 799.94 799.97" xml:space="preserve" xmlns="http://www.w3.org/2000/svg" xmlns:cc="http://creativecommons.org/ns#" xmlns:dc="http://purl.org/dc/elements/1.1/" xmlns:rdf="http://www.w3.org/1999/02/22-rdf-syntax-ns#"><metadata id="metadata8"><rdf:RDF><cc:Work rdf:about=""><dc:format>image/svg+xml</dc:format><dc:type rdf:resource="http://purl.org/dc/dcmitype/StillImage"/><dc:title/></cc:Work></rdf:RDF></metadata><defs id="defs6"><clipPath id="clipPath666"><path id="path664" d="m0 0h839.06v595.28h-839.06z"/></clipPath><clipPath id="clipPath790"><path id="path788" d="m0 0h839.06v595.28h-839.06z"/></clipPath></defs><g id="g10" transform="matrix(1.3333 0 0 -1.3333 -10.476 930.96)"><g id="g300" transform="matrix(10.257,0,0,10.257,607.83,398.24)"><path id="path302" d="m0 0c0-16.152-13.095-29.248-29.248-29.248-16.152 0-29.246 13.096-29.246 29.248s13.094 29.248 29.246 29.248c16.153 0 29.248-13.096 29.248-29.248" fill="#0456a4"/></g><g id="g304" transform="matrix(10.257,0,0,10.257,32.847,291.72)"><path id="path306" d="m0 0c0.098 0 0.176-0.078 0.176-0.176 0-0.095-0.078-0.174-0.176-0.174-0.096 0-0.175 0.079-0.175 0.174 0 0.098 0.079 0.176 0.175 0.176" fill="#fff"/></g><g id="g308" transform="matrix(10.257,0,0,10.257,32.847,291.72)"><path id="path310" d="m0 0c0.098 0 0.176-0.078 0.176-0.176 0-0.095-0.078-0.174-0.176-0.174-0.096 0-0.175 0.079-0.175 0.174 0 0.098 0.079 0.176 0.175 0.176z" fill="none" stroke="#fff" stroke-miterlimit="10" stroke-width=".149"/></g><g id="g312" transform="matrix(10.257,0,0,10.257,34.65,250.65)"><path id="path314" d="m0 0c0.061 0 0.108-0.049 0.108-0.109 0-0.059-0.047-0.108-0.108-0.108s-0.107 0.049-0.107 0.108c0 0.06 0.046 0.109 0.107 0.109" fill="#fff"/></g><g id="g320" transform="matrix(10.257,0,0,10.257,106.15,213.07)"><path id="path322" d="m0 0c0.061 0 0.109-0.049 0.109-0.109 0-0.059-0.048-0.108-0.109-0.108s-0.107 0.049-0.107 0.108c0 0.06 0.046 0.109 0.107 0.109" fill="#fff"/></g><g id="g324" transform="matrix(10.257,0,0,10.257,106.15,213.07)"><path id="path326" d="m0 0c0.061 0 0.109-0.049 0.109-0.109 0-0.059-0.048-0.108-0.109-0.108s-0.107 0.049-0.107 0.108c0 0.06 0.046 0.109 0.107 0.109z" fill="none" stroke="#fff" stroke-miterlimit="10" stroke-width=".149"/></g><g id="g328" transform="matrix(10.257,0,0,10.257,140.49,212.55)"><path id="path330" d="m0 0c0.068 0 0.124-0.055 0.124-0.125 0-0.068-0.056-0.123-0.124-0.123s-0.125 0.055-0.125 0.123c0 0.07 0.057 0.125 0.125 0.125" fill="#fff"/></g><g id="g332" transform="matrix(10.257,0,0,10.257,140.49,212.55)"><path id="path334" d="m0 0c0.068 0 0.124-0.055 0.124-0.125 0-0.068-0.056-0.123-0.124-0.123s-0.125 0.055-0.125 0.123c0 0.07 0.057 0.125 0.125 0.125z" fill="none" stroke="#fff" stroke-miterlimit="10" stroke-width=".149"/></g><g id="g336" transform="matrix(10.257,0,0,10.257,131.04,232.49)"><path id="path338" d="m0 0c0.096 0 0.173-0.078 0.173-0.172 0-0.096-0.077-0.174-0.173-0.174-0.095 0-0.173 0.078-0.173 0.174 0 0.094 0.078 0.172 0.173 0.172" fill="#fff"/></g><g id="g340" transform="matrix(10.257,0,0,10.257,131.04,232.49)"><path id="path342" d="m0 0c0.096 0 0.173-0.078 0.173-0.172 0-0.096-0.077-0.174-0.173-0.174-0.095 0-0.173 0.078-0.173 0.174 0 0.094 0.078 0.172 0.173 0.172z" fill="none" stroke="#fff" stroke-miterlimit="10" stroke-width=".149"/></g><g id="g344" transform="matrix(10.257,0,0,10.257,223.48,254.26)"><path id="path346" d="m0 0c0.152 0 0.276-0.123 0.276-0.275 0-0.153-0.124-0.278-0.276-0.278-0.153 0-0.276 0.125-0.276 0.278 0 0.152 0.123 0.275 0.276 0.275" fill="#fff"/></g><g id="g348" transform="matrix(10.257,0,0,10.257,223.48,254.26)"><path id="path350" d="m0 0c0.152 0 0.276-0.123 0.276-0.275 0-0.153-0.124-0.278-0.276-0.278-0.153 0-0.276 0.125-0.276 0.278 0 0.152 0.123 0.275 0.276 0.275z" fill="none" stroke="#fff" stroke-miterlimit="10" stroke-width=".149"/></g><g id="g352" transform="matrix(10.257,0,0,10.257,264.07,291.58)"><path id="path354" d="m0 0c0.471 0 0.852-0.381 0.852-0.85 0-0.47-0.381-0.851-0.852-0.851-0.469 0-0.85 0.381-0.85 0.851 0 0.469 0.381 0.85 0.85 0.85" fill="#fff"/></g><g id="g356" transform="matrix(10.257,0,0,10.257,264.07,291.58)"><path id="path358" d="m0 0c0.471 0 0.852-0.381 0.852-0.85 0-0.47-0.381-0.851-0.852-0.851-0.469 0-0.85 0.381-0.85 0.851 0 0.469 0.381 0.85 0.85 0.85z" fill="none" stroke="#fff" stroke-miterlimit="10" stroke-width=".149"/></g><g id="g360" transform="matrix(10.257,0,0,10.257,283.36,424.38)"><path id="path362" d="m0 0c0.397 0 0.72-0.322 0.72-0.719 0-0.398-0.323-0.72-0.72-0.72-0.396 0-0.719 0.322-0.719 0.72 0 0.397 0.323 0.719 0.719 0.719" fill="#fff"/></g><g id="g364" transform="matrix(10.257,0,0,10.257,283.36,424.38)"><path id="path366" d="m0 0c0.397 0 0.72-0.322 0.72-0.719 0-0.398-0.323-0.72-0.72-0.72-0.396 0-0.719 0.322-0.719 0.72 0 0.397 0.323 0.719 0.719 0.719z" fill="none" stroke="#fff" stroke-miterlimit="10" stroke-width=".149"/></g><g id="g368" transform="matrix(10.257,0,0,10.257,352.5,559.89)"><path id="path370" d="m0 0c0.221 0 0.4-0.18 0.4-0.4 0-0.221-0.179-0.401-0.4-0.401s-0.4 0.18-0.4 0.401c0 0.22 0.179 0.4 0.4 0.4" fill="#fff"/></g><g id="g372" transform="matrix(10.257,0,0,10.257,352.5,559.89)"><path id="path374" d="m0 0c0.221 0 0.4-0.18 0.4-0.4 0-0.221-0.179-0.401-0.4-0.401s-0.4 0.18-0.4 0.401c0 0.22 0.179 0.4 0.4 0.4z" fill="none" stroke="#fff" stroke-miterlimit="10" stroke-width=".149"/></g><g id="g376" transform="matrix(10.257,0,0,10.257,294.83,572.33)"><path id="path378" d="m0 0c0.222 0 0.399-0.178 0.399-0.4 0-0.221-0.177-0.401-0.399-0.401-0.221 0-0.399 0.18-0.399 0.401 0 0.222 0.178 0.4 0.399 0.4" fill="#fff"/></g><g id="g380" transform="matrix(10.257,0,0,10.257,294.83,572.33)"><path id="path382" d="m0 0c0.222 0 0.399-0.178 0.399-0.4 0-0.221-0.177-0.401-0.399-0.401-0.221 0-0.399 0.18-0.399 0.401 0 0.222 0.178 0.4 0.399 0.4z" fill="none" stroke="#fff" stroke-miterlimit="10" stroke-width=".149"/></g><g id="g384" transform="matrix(10.257,0,0,10.257,270.68,579.96)"><path id="path386" d="m0 0c0.285 0 0.517-0.23 0.517-0.516 0-0.285-0.232-0.517-0.517-0.517s-0.518 0.232-0.518 0.517c0 0.286 0.233 0.516 0.518 0.516" fill="#fff"/></g><g id="g388" transform="matrix(10.257,0,0,10.257,270.68,579.96)"><path id="path390" d="m0 0c0.285 0 0.517-0.23 0.517-0.516 0-0.285-0.232-0.517-0.517-0.517s-0.518 0.232-0.518 0.517c0 0.286 0.233 0.516 0.518 0.516z" fill="none" stroke="#fff" stroke-miterlimit="10" stroke-width=".149"/></g><g id="g392" transform="matrix(10.257,0,0,10.257,235.62,572.33)"><path id="path394" d="m0 0c0.127 0 0.23-0.102 0.23-0.23 0-0.127-0.103-0.229-0.23-0.229s-0.229 0.102-0.229 0.229c0 0.128 0.102 0.23 0.229 0.23" fill="#fff"/></g><g id="g396" transform="matrix(10.257,0,0,10.257,235.62,572.33)"><path id="path398" d="m0 0c0.127 0 0.23-0.102 0.23-0.23 0-0.127-0.103-0.229-0.23-0.229s-0.229 0.102-0.229 0.229c0 0.128 0.102 0.23 0.229 0.23z" fill="none" stroke="#fff" stroke-miterlimit="10" stroke-width=".149"/></g><g id="g400" transform="matrix(10.257,0,0,10.257,152.77,545.05)"><path id="path402" d="m0 0c0.157 0 0.285-0.127 0.285-0.285s-0.128-0.285-0.285-0.285c-0.158 0-0.285 0.127-0.285 0.285s0.127 0.285 0.285 0.285" fill="#fff"/></g><g id="g404" transform="matrix(10.257,0,0,10.257,152.77,545.05)"><path id="path406" d="m0 0c0.157 0 0.285-0.127 0.285-0.285s-0.128-0.285-0.285-0.285c-0.158 0-0.285 0.127-0.285 0.285s0.127 0.285 0.285 0.285z" fill="none" stroke="#fff" stroke-miterlimit="10" stroke-width=".149"/></g><g id="g408" transform="matrix(10.257,0,0,10.257,138.9,559.23)"><path id="path410" d="m0 0c0.068 0 0.123-0.055 0.123-0.123s-0.055-0.123-0.123-0.123-0.123 0.055-0.123 0.123 0.055 0.123 0.123 0.123" fill="#fff"/></g><g id="g412" transform="matrix(10.257,0,0,10.257,138.9,559.23)"><path id="path414" d="m0 0c0.068 0 0.123-0.055 0.123-0.123s-0.055-0.123-0.123-0.123-0.123 0.055-0.123 0.123 0.055 0.123 0.123 0.123z" fill="none" stroke="#fff" stroke-miterlimit="10" stroke-width=".149"/></g><g id="g416" transform="matrix(10.257,0,0,10.257,213.24,551.7)"><path id="path418" d="m0 0c0.068 0 0.123-0.055 0.123-0.123 0-0.066-0.055-0.123-0.123-0.123-0.067 0-0.123 0.057-0.123 0.123 0 0.068 0.056 0.123 0.123 0.123" fill="#fff"/></g><g id="g420" transform="matrix(10.257,0,0,10.257,213.24,551.7)"><path id="path422" d="m0 0c0.068 0 0.123-0.055 0.123-0.123 0-0.066-0.055-0.123-0.123-0.123-0.067 0-0.123 0.057-0.123 0.123 0 0.068 0.056 0.123 0.123 0.123z" fill="none" stroke="#fff" stroke-miterlimit="10" stroke-width=".149"/></g><g id="g424" transform="matrix(10.257,0,0,10.257,119.58,506.02)"><path id="path426" d="m0 0c0.067 0 0.122-0.055 0.122-0.123s-0.055-0.123-0.122-0.123c-0.068 0-0.123 0.055-0.123 0.123s0.055 0.123 0.123 0.123" fill="#fff"/></g><g id="g428" transform="matrix(10.257,0,0,10.257,119.58,506.02)"><path id="path430" d="m0 0c0.067 0 0.122-0.055 0.122-0.123s-0.055-0.123-0.122-0.123c-0.068 0-0.123 0.055-0.123 0.123s0.055 0.123 0.123 0.123z" fill="none" stroke="#fff" stroke-miterlimit="10" stroke-width=".149"/></g><g id="g432" transform="matrix(10.257,0,0,10.257,115.99,484.25)"><path id="path434" d="m0 0c0.066 0 0.122-0.055 0.122-0.123s-0.056-0.123-0.122-0.123c-0.068 0-0.124 0.055-0.124 0.123s0.056 0.123 0.124 0.123" fill="#fff"/></g><g id="g436" transform="matrix(10.257,0,0,10.257,115.99,484.25)"><path id="path438" d="m0 0c0.066 0 0.122-0.055 0.122-0.123s-0.056-0.123-0.122-0.123c-0.068 0-0.124 0.055-0.124 0.123s0.056 0.123 0.124 0.123z" fill="none" stroke="#fff" stroke-miterlimit="10" stroke-width=".149"/></g><g id="g440" transform="matrix(10.257,0,0,10.257,290.74,394.25)"><path id="path442" d="m0 0c0.137 0 0.248-0.111 0.248-0.248s-0.111-0.248-0.248-0.248-0.248 0.111-0.248 0.248 0.111 0.248 0.248 0.248" fill="#fff"/></g><g id="g444" transform="matrix(10.257,0,0,10.257,290.74,394.25)"><path id="path446" d="m0 0c0.137 0 0.248-0.111 0.248-0.248s-0.111-0.248-0.248-0.248-0.248 0.111-0.248 0.248 0.111 0.248 0.248 0.248z" fill="none" stroke="#fff" stroke-miterlimit="10" stroke-width=".149"/></g><g id="g448" transform="matrix(10.257,0,0,10.257,323.68,355.73)"><path id="path450" d="m0 0c0.082 0 0.148-0.066 0.148-0.148s-0.066-0.149-0.148-0.149c-0.083 0-0.148 0.067-0.148 0.149s0.065 0.148 0.148 0.148" fill="#fff"/></g><g id="g452" transform="matrix(10.257,0,0,10.257,323.68,355.73)"><path id="path454" d="m0 0c0.082 0 0.148-0.066 0.148-0.148s-0.066-0.149-0.148-0.149c-0.083 0-0.148 0.067-0.148 0.149s0.065 0.148 0.148 0.148z" fill="none" stroke="#fff" stroke-miterlimit="10" stroke-width=".149"/></g><g id="g456" transform="matrix(10.257,0,0,10.257,371.25,340.83)"><path id="path458" d="m0 0c0.081 0 0.148-0.066 0.148-0.148s-0.067-0.149-0.148-0.149c-0.082 0-0.149 0.067-0.149 0.149s0.067 0.148 0.149 0.148" fill="#fff"/></g><g id="g460" transform="matrix(10.257,0,0,10.257,371.25,340.83)"><path id="path462" d="m0 0c0.081 0 0.148-0.066 0.148-0.148s-0.067-0.149-0.148-0.149c-0.082 0-0.149 0.067-0.149 0.149s0.067 0.148 0.149 0.148z" fill="none" stroke="#fff" stroke-miterlimit="10" stroke-width=".149"/></g><g id="g464" transform="matrix(10.257,0,0,10.257,417.43,347.94)"><path id="path466" d="m0 0c0.081 0 0.148-0.066 0.148-0.148s-0.067-0.149-0.148-0.149c-0.083 0-0.148 0.067-0.148 0.149s0.065 0.148 0.148 0.148" fill="#fff"/></g><g id="g468" transform="matrix(10.257,0,0,10.257,417.43,347.94)"><path id="path470" d="m0 0c0.081 0 0.148-0.066 0.148-0.148s-0.067-0.149-0.148-0.149c-0.083 0-0.148 0.067-0.148 0.149s0.065 0.148 0.148 0.148z" fill="none" stroke="#fff" stroke-miterlimit="10" stroke-width=".149"/></g><g id="g472" transform="matrix(10.257,0,0,10.257,443.95,360.04)"><path id="path474" d="m0 0c0.204 0 0.371-0.168 0.371-0.373s-0.167-0.371-0.371-0.371c-0.207 0-0.373 0.166-0.373 0.371s0.166 0.373 0.373 0.373" fill="#fff"/></g><g id="g476" transform="matrix(10.257,0,0,10.257,443.95,360.04)"><path id="path478" d="m0 0c0.204 0 0.371-0.168 0.371-0.373s-0.167-0.371-0.371-0.371c-0.207 0-0.373 0.166-0.373 0.371s0.166 0.373 0.373 0.373z" fill="none" stroke="#fff" stroke-miterlimit="10" stroke-width=".149"/></g><g id="g480" transform="matrix(10.257,0,0,10.257,432.48,354.21)"><path id="path482" d="m0 0c0.373 0 0.675-0.303 0.675-0.676s-0.302-0.674-0.675-0.674c-0.372 0-0.675 0.301-0.675 0.674s0.303 0.676 0.675 0.676" fill="#fff"/></g><g id="g484" transform="matrix(10.257,0,0,10.257,432.48,354.21)"><path id="path486" d="m0 0c0.373 0 0.675-0.303 0.675-0.676s-0.302-0.674-0.675-0.674c-0.372 0-0.675 0.301-0.675 0.674s0.303 0.676 0.675 0.676z" fill="none" stroke="#fff" stroke-miterlimit="10" stroke-width=".149"/></g><g id="g488" transform="matrix(10.257,0,0,10.257,418.95,374.68)"><path id="path490" d="m0 0c0.372 0 0.674-0.303 0.674-0.676s-0.302-0.676-0.674-0.676c-0.373 0-0.676 0.303-0.676 0.676s0.303 0.676 0.676 0.676" fill="#fff"/></g><g id="g492" transform="matrix(10.257,0,0,10.257,418.95,374.68)"><path id="path494" d="m0 0c0.372 0 0.674-0.303 0.674-0.676s-0.302-0.676-0.674-0.676c-0.373 0-0.676 0.303-0.676 0.676s0.303 0.676 0.676 0.676z" fill="none" stroke="#fff" stroke-miterlimit="10" stroke-width=".149"/></g><g id="g496" transform="matrix(10.257,0,0,10.257,403.05,393.67)"><path id="path498" d="m0 0c0.374 0 0.676-0.303 0.676-0.678 0-0.371-0.302-0.674-0.676-0.674-0.372 0-0.675 0.303-0.675 0.674 0 0.375 0.303 0.678 0.675 0.678" fill="#fff"/></g><g id="g500" transform="matrix(10.257,0,0,10.257,403.05,393.67)"><path id="path502" d="m0 0c0.374 0 0.676-0.303 0.676-0.678 0-0.371-0.302-0.674-0.676-0.674-0.372 0-0.675 0.303-0.675 0.674 0 0.375 0.303 0.678 0.675 0.678z" fill="none" stroke="#fff" stroke-miterlimit="10" stroke-width=".149"/></g><g id="g504" transform="matrix(10.257,0,0,10.257,440.13,424.63)"><path id="path506" d="m0 0c0.251 0 0.453-0.203 0.453-0.453s-0.202-0.453-0.453-0.453c-0.25 0-0.452 0.203-0.452 0.453s0.202 0.453 0.452 0.453" fill="#fff"/></g><g id="g508" transform="matrix(10.257,0,0,10.257,440.13,424.63)"><path id="path510" d="m0 0c0.251 0 0.453-0.203 0.453-0.453s-0.202-0.453-0.453-0.453c-0.25 0-0.452 0.203-0.452 0.453s0.202 0.453 0.452 0.453z" fill="none" stroke="#fff" stroke-miterlimit="10" stroke-width=".149"/></g><g id="g512" transform="matrix(10.257,0,0,10.257,417.43,398.38)"><path id="path514" d="m0 0c0.081 0 0.148-0.066 0.148-0.148s-0.067-0.149-0.148-0.149c-0.083 0-0.148 0.067-0.148 0.149s0.065 0.148 0.148 0.148" fill="#fff"/></g><g id="g516" transform="matrix(10.257,0,0,10.257,417.43,398.38)"><path id="path518" d="m0 0c0.081 0 0.148-0.066 0.148-0.148s-0.067-0.149-0.148-0.149c-0.083 0-0.148 0.067-0.148 0.149s0.065 0.148 0.148 0.148z" fill="none" stroke="#fff" stroke-miterlimit="10" stroke-width=".149"/></g><g id="g520" transform="matrix(10.257,0,0,10.257,452.47,261.65)"><path id="path522" d="m0 0c0.081 0 0.147-0.066 0.147-0.148s-0.066-0.149-0.147-0.149c-0.082 0-0.149 0.067-0.149 0.149s0.067 0.148 0.149 0.148" fill="#fff"/></g><g id="g524" transform="matrix(10.257,0,0,10.257,452.47,261.65)"><path id="path526" d="m0 0c0.081 0 0.147-0.066 0.147-0.148s-0.066-0.149-0.147-0.149c-0.082 0-0.149 0.067-0.149 0.149s0.067 0.148 0.149 0.148z" fill="none" stroke="#fff" stroke-miterlimit="10" stroke-width=".149"/></g><g id="g528" transform="matrix(10.257,0,0,10.257,527.83,357.25)"><path id="path530" d="m0 0c0.082 0 0.148-0.066 0.148-0.148s-0.066-0.149-0.148-0.149-0.148 0.067-0.148 0.149 0.066 0.148 0.148 0.148" fill="#fff"/></g><g id="g532" transform="matrix(10.257,0,0,10.257,527.83,357.25)"><path id="path534" d="m0 0c0.082 0 0.148-0.066 0.148-0.148s-0.066-0.149-0.148-0.149-0.148 0.067-0.148 0.149 0.066 0.148 0.148 0.148z" fill="none" stroke="#fff" stroke-miterlimit="10" stroke-width=".149"/></g><g id="g536" transform="matrix(10.257,0,0,10.257,529.36,388.27)"><path id="path538" d="m0 0c0.082 0 0.148-0.066 0.148-0.148s-0.066-0.149-0.148-0.149-0.148 0.067-0.148 0.149 0.066 0.148 0.148 0.148" fill="#fff"/></g><g id="g540" transform="matrix(10.257,0,0,10.257,529.36,388.27)"><path id="path542" d="m0 0c0.082 0 0.148-0.066 0.148-0.148s-0.066-0.149-0.148-0.149-0.148 0.067-0.148 0.149 0.066 0.148 0.148 0.148z" fill="none" stroke="#fff" stroke-miterlimit="10" stroke-width=".149"/></g><g id="g544" transform="matrix(10.257,0,0,10.257,538.09,425.19)"><path id="path546" d="m0 0c0.154 0 0.279-0.125 0.279-0.279 0-0.153-0.125-0.278-0.279-0.278-0.152 0-0.277 0.125-0.277 0.278 0 0.154 0.125 0.279 0.277 0.279" fill="#fff"/></g><g id="g548" transform="matrix(10.257,0,0,10.257,538.09,425.19)"><path id="path550" d="m0 0c0.154 0 0.279-0.125 0.279-0.279 0-0.153-0.125-0.278-0.279-0.278-0.152 0-0.277 0.125-0.277 0.278 0 0.154 0.125 0.279 0.277 0.279z" fill="none" stroke="#fff" stroke-miterlimit="10" stroke-width=".149"/></g><g id="g552" transform="matrix(10.257,0,0,10.257,504.03,377.17)"><path id="path554" d="m0 0c0.318 0 0.576-0.258 0.576-0.576 0-0.319-0.258-0.576-0.576-0.576-0.317 0-0.576 0.257-0.576 0.576 0 0.318 0.259 0.576 0.576 0.576" fill="#fff"/></g><g id="g556" transform="matrix(10.257,0,0,10.257,504.03,377.17)"><path id="path558" d="m0 0c0.318 0 0.576-0.258 0.576-0.576 0-0.319-0.258-0.576-0.576-0.576-0.317 0-0.576 0.257-0.576 0.576 0 0.318 0.259 0.576 0.576 0.576z" fill="none" stroke="#fff" stroke-miterlimit="10" stroke-width=".149"/></g><g id="g560" transform="matrix(10.257,0,0,10.257,571.5,322.8)"><path id="path562" d="m0 0c0.39 0 0.704-0.314 0.704-0.703s-0.314-0.705-0.704-0.705c-0.389 0-0.704 0.316-0.704 0.705s0.315 0.703 0.704 0.703" fill="#fff"/></g><g id="g564" transform="matrix(10.257,0,0,10.257,571.5,322.8)"><path id="path566" d="m0 0c0.39 0 0.704-0.314 0.704-0.703s-0.314-0.705-0.704-0.705c-0.389 0-0.704 0.316-0.704 0.705s0.315 0.703 0.704 0.703z" fill="none" stroke="#fff" stroke-miterlimit="10" stroke-width=".149"/></g><g id="g568" transform="matrix(10.257,0,0,10.257,545.1,473.23)"><path id="path570" d="m0 0c0.482 0 0.873-0.393 0.873-0.875s-0.391-0.873-0.873-0.873c-0.483 0-0.875 0.391-0.875 0.873s0.392 0.875 0.875 0.875" fill="#fff"/></g><g id="g572" transform="matrix(10.257,0,0,10.257,545.1,473.23)"><path id="path574" d="m0 0c0.482 0 0.873-0.393 0.873-0.875s-0.391-0.873-0.873-0.873c-0.483 0-0.875 0.391-0.875 0.873s0.392 0.875 0.875 0.875z" fill="none" stroke="#fff" stroke-miterlimit="10" stroke-width=".149"/></g><g id="g576" transform="matrix(10.257,0,0,10.257,519.95,455.3)"><path id="path578" d="m0 0c0.247 0 0.448-0.201 0.448-0.449s-0.201-0.449-0.448-0.449c-0.248 0-0.448 0.201-0.448 0.449s0.2 0.449 0.448 0.449" fill="#fff"/></g><g id="g580" transform="matrix(10.257,0,0,10.257,519.95,455.3)"><path id="path582" d="m0 0c0.247 0 0.448-0.201 0.448-0.449s-0.201-0.449-0.448-0.449c-0.248 0-0.448 0.201-0.448 0.449s0.2 0.449 0.448 0.449z" fill="none" stroke="#fff" stroke-miterlimit="10" stroke-width=".149"/></g><g id="g584" transform="matrix(10.257,0,0,10.257,364.12,296.11)"><path id="path586" d="m0 0c0.082 0 0.148-0.066 0.148-0.148s-0.066-0.149-0.148-0.149-0.148 0.067-0.148 0.149 0.066 0.148 0.148 0.148" fill="#fff"/></g><g id="g588" transform="matrix(10.257,0,0,10.257,364.12,296.11)"><path id="path590" d="m0 0c0.082 0 0.148-0.066 0.148-0.148s-0.066-0.149-0.148-0.149-0.148 0.067-0.148 0.149 0.066 0.148 0.148 0.148z" fill="none" stroke="#fff" stroke-miterlimit="10" stroke-width=".149"/></g><g id="g592" transform="matrix(10.257,0,0,10.257,364.62,420.8)"><path id="path594" d="m0 0c0.082 0 0.148-0.066 0.148-0.148s-0.066-0.149-0.148-0.149-0.148 0.067-0.148 0.149 0.066 0.148 0.148 0.148" fill="#fff"/></g><g id="g596" transform="matrix(10.257,0,0,10.257,364.62,420.8)"><path id="path598" d="m0 0c0.082 0 0.148-0.066 0.148-0.148s-0.066-0.149-0.148-0.149-0.148 0.067-0.148 0.149 0.066 0.148 0.148 0.148z" fill="none" stroke="#fff" stroke-miterlimit="10" stroke-width=".149"/></g><g id="g600" transform="matrix(10.257,0,0,10.257,345.79,471.88)"><path id="path602" d="m0 0c0.081 0 0.147-0.066 0.147-0.148 0-0.081-0.066-0.149-0.147-0.149-0.082 0-0.148 0.068-0.148 0.149 0 0.082 0.066 0.148 0.148 0.148" fill="#fff"/></g><g id="g604" transform="matrix(10.257,0,0,10.257,345.79,471.88)"><path id="path606" d="m0 0c0.081 0 0.147-0.066 0.147-0.148 0-0.081-0.066-0.149-0.147-0.149-0.082 0-0.148 0.068-0.148 0.149 0 0.082 0.066 0.148 0.148 0.148z" fill="none" stroke="#fff" stroke-miterlimit="10" stroke-width=".149"/></g><g id="g608" transform="matrix(10.257,0,0,10.257,366.14,538.54)"><path id="path610" d="m0 0c0.082 0 0.148-0.066 0.148-0.148s-0.066-0.149-0.148-0.149c-0.083 0-0.148 0.067-0.148 0.149s0.065 0.148 0.148 0.148" fill="#fff"/></g><g id="g612" transform="matrix(10.257,0,0,10.257,366.14,538.54)"><path id="path614" d="m0 0c0.082 0 0.148-0.066 0.148-0.148s-0.066-0.149-0.148-0.149c-0.083 0-0.148 0.067-0.148 0.149s0.065 0.148 0.148 0.148z" fill="none" stroke="#fff" stroke-miterlimit="10" stroke-width=".149"/></g><g id="g616" transform="matrix(10.257,0,0,10.257,341.93,411.14)"><path id="path618" d="m0 0c0.082 0 0.148-0.064 0.148-0.148 0-0.082-0.066-0.149-0.148-0.149s-0.148 0.067-0.148 0.149c0 0.084 0.066 0.148 0.148 0.148" fill="#fff"/></g><g id="g620" transform="matrix(10.257,0,0,10.257,341.93,411.14)"><path id="path622" d="m0 0c0.082 0 0.148-0.064 0.148-0.148 0-0.082-0.066-0.149-0.148-0.149s-0.148 0.067-0.148 0.149c0 0.084 0.066 0.148 0.148 0.148z" fill="none" stroke="#fff" stroke-miterlimit="10" stroke-width=".149"/></g><g id="g624" transform="matrix(10.257,0,0,10.257,231,367.23)"><path id="path626" d="m0 0c0.152 0 0.277-0.123 0.277-0.275 0-0.153-0.125-0.276-0.277-0.276s-0.275 0.123-0.275 0.276c0 0.152 0.123 0.275 0.275 0.275" fill="#fff"/></g><g id="g628" transform="matrix(10.257,0,0,10.257,231,367.23)"><path id="path630" d="m0 0c0.152 0 0.277-0.123 0.277-0.275 0-0.153-0.125-0.276-0.277-0.276s-0.275 0.123-0.275 0.276c0 0.152 0.123 0.275 0.275 0.275z" fill="none" stroke="#fff" stroke-miterlimit="10" stroke-width=".149"/></g><g id="g632" transform="matrix(10.257,0,0,10.257,227.08,375.56)"><path id="path634" d="m0 0c0.094 0 0.17-0.076 0.17-0.17s-0.076-0.17-0.17-0.17-0.171 0.076-0.171 0.17 0.077 0.17 0.171 0.17" fill="#fff"/></g><g id="g636" transform="matrix(10.257,0,0,10.257,227.08,375.56)"><path id="path638" d="m0 0c0.094 0 0.17-0.076 0.17-0.17s-0.076-0.17-0.17-0.17-0.171 0.076-0.171 0.17 0.077 0.17 0.171 0.17z" fill="none" stroke="#fff" stroke-miterlimit="10" stroke-width=".149"/></g><g id="g640" transform="matrix(10.257,0,0,10.257,219.28,376.55)"><path id="path642" d="m0 0c0.241 0 0.436-0.195 0.436-0.436 0-0.24-0.195-0.435-0.436-0.435-0.24 0-0.435 0.195-0.435 0.435 0 0.241 0.195 0.436 0.435 0.436" fill="#fff"/></g><g id="g644" transform="matrix(10.257,0,0,10.257,219.28,376.55)"><path id="path646" d="m0 0c0.241 0 0.436-0.195 0.436-0.436 0-0.24-0.195-0.435-0.436-0.435-0.24 0-0.435 0.195-0.435 0.435 0 0.241 0.195 0.436 0.435 0.436z" fill="none" stroke="#fff" stroke-miterlimit="10" stroke-width=".149"/></g><g id="g648" transform="matrix(10.257,0,0,10.257,347.49,361.36)"><path id="path650" d="m0 0h-2.543l-0.344-0.928h-3.242v0.311l3.094 7.803h3.539l3.094-7.803v-0.311h-3.243zm-1.741 2.074h0.951l-0.481 2.018z" fill="#fff"/></g><g id="g652" transform="matrix(10.257,0,0,10.257,437.75,422.24)"><path id="path654" d="m0 0 0.756 1.156h3.311v-0.228l-2.382-3.723 2.405-3.908v-0.16h-3.345l-0.631 1.043-0.56 1.283-0.575-1.283-0.618-1.043h-3.356v0.16l2.405 3.908-2.371 3.723v0.228h3.311l0.745-1.156 0.459-1.053z" fill="#fff"/></g><g id="g656" transform="matrix(10.257,0,0,10.257,546.22,380.53)"><path id="path658" d="m0 0v-2.797h-3.128v2.797l-3.196 5.041v0.184h3.437l0.801-1.286 0.527-1.281 0.528 1.281 0.802 1.286h3.437v-0.184z" fill="#fff"/></g><g id="g660" transform="matrix(10.257,0,0,10.257,-341.06,-3353.7)"><g id="g662" clip-path="url(#clipPath666)"><g id="g668" transform="translate(64.808,361.68)"><path id="path670" d="m0 0c0.082 0 0.148-0.066 0.148-0.148s-0.066-0.149-0.148-0.149c-0.083 0-0.148 0.067-0.148 0.149s0.065 0.148 0.148 0.148" fill="#fff"/></g><g id="g672" transform="translate(64.808,361.68)"><path id="path674" d="m0 0c0.082 0 0.148-0.066 0.148-0.148s-0.066-0.149-0.148-0.149c-0.083 0-0.148 0.067-0.148 0.149s0.065 0.148 0.148 0.148z" fill="none" stroke="#c9ba9c" stroke-miterlimit="10" stroke-width=".075"/></g><g id="g676" transform="translate(76.533,362.1)"><path id="path678" d="m0 0c0.204 0 0.371-0.168 0.371-0.373s-0.167-0.371-0.371-0.371c-0.207 0-0.373 0.166-0.373 0.371s0.166 0.373 0.373 0.373" fill="#fff"/></g><g id="g680" transform="translate(76.533,362.1)"><path id="path682" d="m0 0c0.204 0 0.371-0.168 0.371-0.373s-0.167-0.371-0.371-0.371c-0.207 0-0.373 0.166-0.373 0.371s0.166 0.373 0.373 0.373z" fill="none" stroke="#8f9bab" stroke-miterlimit="10" stroke-width=".075"/></g><g id="g684" transform="translate(74.096,363.52)"><path id="path686" d="m0 0c0.372 0 0.674-0.301 0.674-0.674s-0.302-0.676-0.674-0.676c-0.373 0-0.676 0.303-0.676 0.676s0.303 0.674 0.676 0.674" fill="#fff"/></g><g id="g688" transform="translate(74.096,363.52)"><path id="path690" d="m0 0c0.372 0 0.674-0.301 0.674-0.674s-0.302-0.676-0.674-0.676c-0.373 0-0.676 0.303-0.676 0.676s0.303 0.674 0.676 0.674z" fill="none" stroke="#8f9bab" stroke-miterlimit="10" stroke-width=".075"/></g><g id="g692" transform="translate(72.546,365.37)"><path id="path694" d="m0 0c0.374 0 0.676-0.303 0.676-0.676s-0.302-0.676-0.676-0.676c-0.372 0-0.675 0.303-0.675 0.676s0.303 0.676 0.675 0.676" fill="#fff"/></g><g id="g696" transform="translate(72.546,365.37)"><path id="path698" d="m0 0c0.374 0 0.676-0.303 0.676-0.676s-0.302-0.676-0.676-0.676c-0.372 0-0.675 0.303-0.675 0.676s0.303 0.676 0.675 0.676z" fill="none" stroke="#8f9bab" stroke-miterlimit="10" stroke-width=".075"/></g><g id="g700" transform="translate(76.16,368.39)"><path id="path702" d="m0 0c0.251 0 0.453-0.203 0.453-0.453s-0.202-0.453-0.453-0.453c-0.25 0-0.452 0.203-0.452 0.453s0.202 0.453 0.452 0.453" fill="#fff"/></g><g id="g704" transform="translate(76.16,368.39)"><path id="path706" d="m0 0c0.251 0 0.453-0.203 0.453-0.453s-0.202-0.453-0.453-0.453c-0.25 0-0.452 0.203-0.452 0.453s0.202 0.453 0.452 0.453z" fill="none" stroke="#8f9bab" stroke-miterlimit="10" stroke-width=".075"/></g><g id="g708" transform="translate(73.947,365.83)"><path id="path710" d="m0 0c0.081 0 0.148-0.066 0.148-0.148 0-0.081-0.067-0.147-0.148-0.147-0.083 0-0.148 0.066-0.148 0.147 0 0.082 0.065 0.148 0.148 0.148" fill="#fff"/></g><g id="g712" transform="translate(73.947,365.83)"><path id="path714" d="m0 0c0.081 0 0.148-0.066 0.148-0.148 0-0.081-0.067-0.147-0.148-0.147-0.083 0-0.148 0.066-0.148 0.147 0 0.082 0.065 0.148 0.148 0.148z" fill="none" stroke="#8f9bab" stroke-miterlimit="10" stroke-width=".075"/></g><g id="g716" transform="translate(84.711,361.82)"><path id="path718" d="m0 0c0.082 0 0.148-0.066 0.148-0.148s-0.066-0.149-0.148-0.149-0.148 0.067-0.148 0.149 0.066 0.148 0.148 0.148" fill="#fff"/></g><g id="g720" transform="translate(84.711,361.82)"><path id="path722" d="m0 0c0.082 0 0.148-0.066 0.148-0.148s-0.066-0.149-0.148-0.149-0.148 0.067-0.148 0.149 0.066 0.148 0.148 0.148z" fill="none" stroke="#8f9bab" stroke-miterlimit="10" stroke-width=".075"/></g><g id="g724" transform="translate(84.86,364.85)"><path id="path726" d="m0 0c0.082 0 0.148-0.066 0.148-0.148s-0.066-0.149-0.148-0.149-0.148 0.067-0.148 0.149 0.066 0.148 0.148 0.148" fill="#fff"/></g><g id="g728" transform="translate(84.86,364.85)"><path id="path730" d="m0 0c0.082 0 0.148-0.066 0.148-0.148s-0.066-0.149-0.148-0.149-0.148 0.067-0.148 0.149 0.066 0.148 0.148 0.148z" fill="none" stroke="#8f9bab" stroke-miterlimit="10" stroke-width=".075"/></g><g id="g732" transform="translate(85.711,368.45)"><path id="path734" d="m0 0c0.154 0 0.279-0.125 0.279-0.279 0-0.155-0.125-0.278-0.279-0.278-0.152 0-0.277 0.123-0.277 0.278 0 0.154 0.125 0.279 0.277 0.279" fill="#fff"/></g><g id="g736" transform="translate(85.711,368.45)"><path id="path738" d="m0 0c0.154 0 0.279-0.125 0.279-0.279 0-0.155-0.125-0.278-0.279-0.278-0.152 0-0.277 0.123-0.277 0.278 0 0.154 0.125 0.279 0.277 0.279z" fill="none" stroke="#8f9bab" stroke-miterlimit="10" stroke-width=".075"/></g><g id="g740" transform="translate(66.587,367.08)"><path id="path742" d="m0 0c0.082 0 0.148-0.066 0.148-0.148s-0.066-0.149-0.148-0.149-0.148 0.067-0.148 0.149 0.066 0.148 0.148 0.148" fill="#fff"/></g><g id="g744" transform="translate(66.587,367.08)"><path id="path746" d="m0 0c0.082 0 0.148-0.066 0.148-0.148s-0.066-0.149-0.148-0.149-0.148 0.067-0.148 0.149 0.066 0.148 0.148 0.148z" fill="none" stroke="#8f9bab" stroke-miterlimit="10" stroke-width=".075"/></g><g id="g748" transform="translate(55.772,362.8)"><path id="path750" d="m0 0c0.152 0 0.277-0.123 0.277-0.275 0-0.153-0.125-0.276-0.277-0.276s-0.275 0.123-0.275 0.276c0 0.152 0.123 0.275 0.275 0.275" fill="#fff"/></g><g id="g752" transform="translate(55.772,362.8)"><path id="path754" d="m0 0c0.152 0 0.277-0.123 0.277-0.275 0-0.153-0.125-0.276-0.277-0.276s-0.275 0.123-0.275 0.276c0 0.152 0.123 0.275 0.275 0.275z" fill="none" stroke="#8f9bab" stroke-miterlimit="10" stroke-width=".075"/></g><g id="g756" transform="translate(55.39,363.61)"><path id="path758" d="m0 0c0.094 0 0.17-0.076 0.17-0.17s-0.076-0.17-0.17-0.17-0.171 0.076-0.171 0.17 0.077 0.17 0.171 0.17" fill="#fff"/></g><g id="g760" transform="translate(55.39,363.61)"><path id="path762" d="m0 0c0.094 0 0.17-0.076 0.17-0.17s-0.076-0.17-0.17-0.17-0.171 0.076-0.171 0.17 0.077 0.17 0.171 0.17z" fill="none" stroke="#8f9bab" stroke-miterlimit="10" stroke-width=".075"/></g><g id="g764" transform="translate(54.629,363.7)"><path id="path766" d="m0 0c0.241 0 0.436-0.195 0.436-0.436 0-0.24-0.195-0.435-0.436-0.435-0.24 0-0.435 0.195-0.435 0.435 0 0.241 0.195 0.436 0.435 0.436" fill="#fff"/></g><g id="g768" transform="translate(54.629,363.7)"><path id="path770" d="m0 0c0.241 0 0.436-0.195 0.436-0.436 0-0.24-0.195-0.435-0.436-0.435-0.24 0-0.435 0.195-0.435 0.435 0 0.241 0.195 0.436 0.435 0.436z" fill="none" stroke="#8f9bab" stroke-miterlimit="10" stroke-width=".075"/></g><g id="g772" transform="translate(50.924,362.18)"><path id="path774" d="m0 0s7.746 17.869 19.561 21.324c0 0 10.144 3.533 5.859-10.666-4.285-14.197-16.436-23.498-20.443-24.637 0 0-7.743-3.351-6.676 7.01" fill="none" stroke="#0456a4" stroke-miterlimit="10" stroke-width=".149"/></g></g></g><g id="g776" transform="matrix(10.257,0,0,10.257,178.62,361.36)"><path id="path778" d="m0 0h-2.544l-0.344-0.928h-3.242v0.311l3.094 7.803h3.54l3.094-7.803v-0.311h-3.244zm-1.741 2.074h0.951l-0.481 2.018z" fill="#fff"/></g><g id="g780" transform="matrix(10.257,0,0,10.257,251.25,434.12)"><path id="path782" d="m0 0v-5.455h2.91v-2.566h-6.039v8.021z" fill="#fff"/></g><g id="g784" transform="matrix(10.257,0,0,10.257,-341.06,-3353.7)"><g id="g786" clip-path="url(#clipPath790)"><g id="g792" transform="translate(50.541,362.54)"><path id="path794" d="m0 0c0.665 1.506 1.417 2.973 2.212 4.412 0.798 1.44 1.649 2.852 2.559 4.225 0.912 1.371 1.88 2.707 2.919 3.988 1.039 1.279 2.15 2.506 3.348 3.643 1.198 1.136 2.487 2.189 3.883 3.086 1.394 0.896 2.899 1.638 4.495 2.128 0.79 0.266 1.633 0.422 2.479 0.446 0.844 0.021 1.721-0.096 2.509-0.489 0.391-0.195 0.754-0.457 1.057-0.777 0.307-0.314 0.546-0.691 0.734-1.08 0.374-0.789 0.522-1.648 0.569-2.488 0.082-1.692-0.209-3.35-0.596-4.961-0.197-0.805-0.429-1.608-0.678-2.391-0.254-0.795-0.531-1.572-0.836-2.344-1.217-3.084-2.81-6.017-4.714-8.732-0.952-1.357-1.969-2.668-3.07-3.908-1.097-1.242-2.254-2.434-3.478-3.551-1.228-1.113-2.514-2.166-3.876-3.117-0.683-0.473-1.383-0.924-2.113-1.332-0.364-0.201-0.737-0.395-1.12-0.571-0.383-0.175-0.777-0.333-1.196-0.447l0.034 0.012c-0.267-0.106-0.517-0.182-0.779-0.252-0.262-0.068-0.526-0.123-0.792-0.164-0.532-0.084-1.079-0.109-1.622-0.053-0.542 0.061-1.084 0.207-1.569 0.475-0.486 0.265-0.903 0.65-1.216 1.097-0.315 0.448-0.532 0.948-0.679 1.461-0.077 0.256-0.13 0.518-0.179 0.778-0.041 0.261-0.078 0.523-0.097 0.787-0.013 0.131-0.022 0.262-0.026 0.394-9e-3 0.131-0.012 0.262-0.014 0.395-3e-3 0.262-1e-3 0.525 0.012 0.787 4e-3 0.131 0.012 0.262 0.022 0.393 8e-3 0.129 0.017 0.259 0.031 0.39 0.023 0.26 0.055 0.522 0.086 0.78l0.074-8e-3c-0.018-0.26-0.035-0.52-0.043-0.78-0.01-0.259-0.015-0.519-0.012-0.779 0-0.26 8e-3 -0.517 0.025-0.777 7e-3 -0.129 0.014-0.258 0.028-0.385 0.012-0.131 0.025-0.258 0.043-0.387 0.03-0.256 0.077-0.509 0.129-0.759 0.058-0.25 0.119-0.499 0.203-0.739 0.082-0.242 0.177-0.478 0.292-0.703 0.115-0.223 0.245-0.437 0.394-0.637 0.299-0.398 0.68-0.724 1.119-0.947 0.437-0.223 0.924-0.342 1.42-0.381 0.496-0.037 1 4e-3 1.494 0.096 0.248 0.047 0.492 0.107 0.734 0.178 0.238 0.07 0.487 0.156 0.701 0.25l0.013 4e-3 0.023 7e-3c0.742 0.235 1.466 0.612 2.163 1.018 0.698 0.408 1.374 0.863 2.032 1.342 1.318 0.951 2.568 2.004 3.76 3.117 1.193 1.111 2.329 2.285 3.401 3.514 1.068 1.232 2.089 2.506 3.033 3.836 1.888 2.658 3.504 5.515 4.736 8.537 0.308 0.754 0.592 1.521 0.848 2.291 0.259 0.779 0.491 1.554 0.693 2.347 0.396 1.573 0.691 3.19 0.627 4.791-0.036 0.797-0.168 1.592-0.497 2.299-0.32 0.705-0.857 1.295-1.546 1.641-0.688 0.351-1.489 0.473-2.282 0.461-0.397-6e-3 -0.797-0.047-1.191-0.115-0.197-0.034-0.395-0.075-0.588-0.122-0.098-0.023-0.194-0.048-0.289-0.076l-0.294-0.092c-1.555-0.458-3.033-1.169-4.411-2.037-1.379-0.869-2.666-1.888-3.866-2.998-1.201-1.111-2.32-2.312-3.369-3.572-1.048-1.26-2.031-2.578-2.956-3.934-0.924-1.355-1.793-2.75-2.606-4.175-0.813-1.428-1.583-2.881-2.266-4.375z" fill="#fff"/></g><g id="g796" transform="translate(44.707,364.16)"><path id="path798" d="m0 0c-1.1-4.41-8.421-4.08-8.443 1.145 0.022 5.396 7.767 5.638 8.523 0.755h-3.082c-0.561 1.079-2.349 0.803-2.359-0.777 0-1.111 0.664-1.502 1.328-1.502 0.344 0 0.825 0.15 0.973 0.481h-0.888v0.992h4.063c0-0.526 0.011-0.567-0.115-1.094" fill="#fff"/></g></g></g></g></svg>
