<svg id="a" width="58.205mm" height="13.75mm" version="1.1" viewBox="0 0 58.205 13.75" xmlns="http://www.w3.org/2000/svg">
 <g id="b" transform="translate(46.112 -141.96)">
  <g id="c" transform="matrix(.35278 0 0 -.35278 .86801 145.64)">
   <path id="d" d="m0 0-2.741-12.043 6.79-8.076 24.541 1.432 3.231 14.85v0.042l-12.144 7.096zm15.954-2.789h6.04l3.804-5.003-2.29-5.722-8.065-0.546zm-5.043 0h3.123l-0.875-10.949-3.638-0.317v4.505l-1.648-0.36 0.154-4.263h-3.003l-0.631 10.361 3.874 0.808 0.121-4.21 1.862-8e-3z" fill="#ef551f"/>
  </g>
  <g id="e" transform="matrix(.35278 0 0 -.35278 7.4441 149.24)">
   <path id="f" d="m0 0 2.945 0.18 0.111 3.155-2.544 1.021z" fill="#ef551f"/>
  </g>
  <g id="g" transform="matrix(.35278 0 0 -.35278 .86801 145.64)">
   <path id="h" transform="matrix(.75 0 0 -.75 -133.17 10.426)" d="m192.11 17.621-0.88282 5.9102-2.4824-0.011719-0.16016-5.6133-5.166 1.0781 0.8418 13.814h4.0039l-0.20508-5.6836 2.1973-0.48047v6.0059l4.8496-0.42188 1.168-14.598h-4.1641zm6.7226 0-0.67969 15.027 10.752-0.72852 3.0547-7.6289-5.0723-6.6699h-8.0547zm4.2656 4.0879 3.3926 1.3613-0.14843 4.2051-3.9258 0.24023 0.68164-5.8066z" fill="#fff"/>
  </g>
  <g id="i" transform="matrix(.35278 0 0 -.35278 -8.1615 145.85)">
   <path id="j" d="m0 0 0.937-18.162h4.971l0.238 10.671 5.324 2.461 4.208-1.391 2.402 4.656-5.898 2.847-5.298-2.279-1.73 2.12z" fill="#ef551f"/>
  </g>
  <g id="k" transform="matrix(.35278 0 0 -.35278 -3.8638 145.46)">
   <path id="l" d="m0 0-0.712-6.112 4.207-1.391 2.403 4.656z" fill="#f57f19"/>
  </g>
  <g id="m" transform="matrix(.35278 0 0 -.35278 -5.7328 146.27)">
   <path id="n" d="m0 0-0.738-6.294-5.947 3.636-0.199 3.855 5.154 0.923z" fill="#f57f19"/>
  </g>
  <g id="o" transform="matrix(.35278 0 0 -.35278 -7.8309 152.25)">
   <path id="p" d="m0 0h4.97l0.153 6.837-5.384-1.772z" fill="#f57f19"/>
  </g>
  <g id="q" transform="matrix(.35278 0 0 -.35278 -12.599 147.14)">
   <path id="r" d="m0 0h3.318l0.83-2.499-5.096-0.587zm4.108-9.423-4.424-0.128-1.051 1.878 9.07 1.015 2.227 5.026-3.61 5.587-10.032-0.246-3.511-9.007 3.297-9.19h10.749l3.344 3.972-3.147 2.101z" fill="#ef551f"/>
  </g>
  <g id="s" transform="matrix(.35278 0 0 -.35278 -13.904 145.83)">
   <path id="t" d="m0 0 3.699-3.709h3.343l2.978 3.955z" fill="#f57f19"/>
  </g>
  <g id="u" transform="matrix(.35278 0 0 -.35278 -11.136 148.02)">
   <path id="v" d="m0 0 3.555-4.158-9.07-1.016-5.856 2.375 6.275 2.212z" fill="#f57f19"/>
  </g>
  <g id="w" transform="matrix(.35278 0 0 -.35278 -12.699 150.51)">
   <path id="x" d="m0 0-3.644-4.937h10.817l-2.783 5.065z" fill="#f57f19"/>
  </g>
  <g id="y" transform="matrix(.35278 0 0 -.35278 -20.236 150.14)">
   <path id="z" d="m0 0-1.896 3.555 2.133 3.17 4.692-1.38 0.305-4.496zm10.982 12.344h-4.166l-1.203-2.039-2.532 2.669-7.288-0.564-3.298-8.094 0.948-7.865 5.214-2.708 7.347 1.123-1.244-3.437-3.891-1.541-6.543 1.849-1.179-4.634 9.726-2.886 7.711 4.351 1.865 9.16z" fill="#ef551f"/>
  </g>
  <g id="aa" transform="matrix(.35278 0 0 -.35278 -21.72 145.76)">
   <path id="ab" d="m0 0-3.299-8.094 5.61-0.761 2.133 3.17" fill="#f57f19"/>
  </g>
  <g id="ac" transform="matrix(.35278 0 0 -.35278 -20.236 150.14)">
   <path id="ad" d="m0 0-1.343-6.257 7.347 1.123 6.445 2.862-7.215 3.121z" fill="#f57f19"/>
  </g>
  <g id="ae" transform="matrix(.35278 0 0 -.35278 -18.258 146.51)">
   <path id="af" d="m0 0-0.678-4.96 6.571 1.799-0.519 5.2h-4.176z" fill="#f57f19"/>
  </g>
  <g id="ag" transform="matrix(.35278 0 0 -.35278 -19.929 153.71)">
   <path id="ah" d="m0 0 2.004-5.671 7.711 4.351-5.824 2.861z" fill="#f57f19"/>
  </g>
  <g id="ai" transform="matrix(.35278 0 0 -.35278 -30.104 145.78)">
   <path id="aj" d="m0 0 0.857-18.367 4.867 0.088 0.46 9.961 5.622 2.001 0.484-11.89 4.857 0.164 0.888 16.789-5.619 1.837-5.706-2.839-1.538 2.704z" fill="#ef551f"/>
  </g>
  <g id="ak" transform="matrix(.35278 0 0 -.35278 -30.104 145.78)">
   <path id="al" d="m0 0 0.857-18.367 4.867 0.088 0.46 9.961 5.622 2.001 0.122-2.999 5.485-3.693 0.622 11.755-5.619 1.837-5.706-2.839-1.538 2.704z" fill="#f57f19"/>
  </g>
  <g id="am" transform="matrix(.35278 0 0 -.35278 -23.741 146.23)">
   <path id="an" d="m0 0-5.619 1.837-5.706-2.839-1.538 2.703-5.172-0.447 0.857-18.367 4.867 0.088 0.459 9.96 5.623 2.002" fill="#ef551f"/>
  </g>
  <g id="ao" transform="matrix(.35278 0 0 -.35278 -27.737 146.58)">
   <path id="ap" d="m0 0-1.538 2.704-5.172-0.448 0.857-18.367 4.867 0.088 0.46 9.961" fill="#f57f19"/>
  </g>
  <g id="aq" transform="matrix(.35278 0 0 -.35278 -30.029 147.34)">
   <path id="ar" d="m0 0 0.469-10.153 5.348 3.075 0.153 3.179" fill="#ef551f"/>
  </g>
  <g id="as" transform="matrix(.35278 0 0 -.35278 -33.337 145.89)">
   <path id="at" d="m0 0-0.601-18.037 5.949 0.116-0.198 17.921z" fill="#f57f19"/>
  </g>
  <g id="au" transform="matrix(.35278 0 0 -.35278 -33.669 143.07)">
   <path id="av" d="m0 0 0.948-4.974 4.938 0.091 0.668 4.883z" fill="#ef551f"/>
  </g>
  <g id="aw" transform="matrix(.35278 0 0 -.35278 -33.401 147.9)">
   <path id="ax" d="m0 0-0.163-5.018 5.656-3.303-0.102 9.874z" fill="#ef551f"/>
  </g>
  <g id="ay" transform="matrix(.35278 0 0 -.35278 -44.431 143.52)">
   <path id="az" d="m0 0-4.764-14.62 8.778-11.49 19.955 1.671 3.269 13.193-9.906 5.359-7.961-3.477 1.85-6.08h2.684l-0.37 2.819 4.073 0.541 2.962-3.109-4.073-3.797-9.535 0.97-2.314 9.873 6.589 5.196 6.403 0.542 6.53-2.012 0.94 4.286-10.685 4.559z" fill="#f57f19"/>
  </g>
  <g id="ba" transform="matrix(.35278 0 0 -.35278 -44.431 143.52)">
   <path id="bb" d="m0 0-4.764-14.621 8.778-11.489 19.955 1.671 3.269 13.193-9.906 5.359-7.961-3.477 4.164-3.262 4.073 0.542 2.962-3.109-4.073-3.797-9.535 0.97-2.314 9.873 6.589 5.196 6.403 0.542 6.53-2.012 0.94 4.286-10.685 4.559z" fill="#ef551f"/>
  </g>
  <g id="bc" transform="matrix(.35278 0 0 -.35278 -44.431 143.52)">
   <path id="bd" d="m0 0-4.764-14.621 8.778-11.489 19.955 1.671 3.269 13.193-9.906 5.359 0.276-6.197 2.962-3.109-4.073-3.797-9.535 0.97-2.314 9.873 6.589 5.196 6.403 0.542 6.531-2.012 0.939 4.286-10.685 4.559z" fill="#f57f19"/>
  </g>
  <g id="be" transform="matrix(.35278 0 0 -.35278 -44.431 143.52)">
   <path id="bf" d="m0 0-4.764-14.621 8.778-11.489 19.955 1.671 3.269 13.193-6.668-3.947-4.073-3.797-9.535 0.97-2.314 9.873 6.589 5.196 6.403 0.542 6.53-2.013 0.94 4.287-10.685 4.559z" fill="#ef551f"/>
  </g>
  <g id="bg" transform="matrix(.35278 0 0 -.35278 -44.431 143.52)">
   <path id="bh" d="m0 0-4.764-14.621 8.778-11.489 19.955 1.671-7.472 5.449-9.535 0.97-2.314 9.873 6.589 5.196 6.403 0.542 6.53-2.012 0.94 4.286-10.685 4.559z" fill="#f57f19"/>
  </g>
  <g id="bi" transform="matrix(.35278 0 0 -.35278 -44.431 143.52)">
   <path id="bj" d="m0 0-4.764-14.621 8.778-11.489 2.948 8.09-2.314 9.873 6.589 5.196 6.403 0.542 6.531-2.013 0.939 4.287-10.685 4.559z" fill="#ef551f"/>
  </g>
  <g id="bk" transform="matrix(.35278 0 0 -.35278 -44.431 143.52)">
   <path id="bl" d="m0 0-4.764-14.621 9.412 6.474 6.589 5.196 6.403 0.542 6.53-2.013 0.94 4.287-10.685 4.559z" fill="#f57f19"/>
  </g>
  <g id="bm" transform="matrix(.35278 0 0 -.35278 -40.467 144.56)">
   <path id="bn" d="m0 0 6.402 0.542 6.532-2.02 1.002 4.262-10.748 4.591-14.425-4.424" fill="#ef551f"/>
  </g>
  <g id="bo" transform="matrix(.35278 0 0 -.35278 -38.208 144.37)">
   <path id="bp" d="m0 0 6.531-2.02 1.003 4.262-10.749 4.591" fill="#f57f19"/>
  </g>
 </g>
</svg>
