<svg width="800" height="276.19" version="1.1" viewBox="0 0 800 276.19" xml:space="preserve" xmlns="http://www.w3.org/2000/svg">
<rect x="-654.7" y="113.19" width="841.9" height="297.6" display="none"/>
<g transform="matrix(3.7576 0 0 3.7576 -119.12 -92.062)">
	<path d="m96.2 40.3c-4.3-2.6-9.2-4.2-14.6-4.3h-0.6c-3.9 0-7.6 0.8-11 2.2-4.3 1.8-8.1 4.6-11.1 8.1-2.5 3-4.5 6.5-5.6 10.3-0.8 2.6-1.2 5.4-1.2 8.3 0 2.4 0.3 4.7 0.8 6.9 0.8 3.4 2.3 6.6 4.2 9.4 2.9 4.2 6.9 7.6 11.6 9.8 3.1 1.4 6.4 2.4 10 2.7 0.8 0.1 1.6 0.1 2.4 0.1 4.5 0 8.7-1 12.5-2.9 3.1-1.5 6-3.6 8.3-6.1 3.5-3.7 6.1-8.2 7.2-13.3 0.5-2.1 0.8-4.3 0.8-6.6 0-1.2-0.1-2.5-0.2-3.7-0.7-5.2-2.7-10-5.8-14-2.2-2.7-4.8-5-7.7-6.9z" fill="none"/>
	<path d="m81 36h0.6l9.4-11.5h-16.7l-4.3 13.7c3.4-1.4 7.1-2.2 11-2.2z" fill="#f05150"/>
	<path d="m103.8 47.2 19.1 0.1c-0.1-6.4-5.2-11.6-11.6-12l-15.2 5.1c3 1.8 5.6 4.1 7.7 6.8z" fill="#f9a152"/>
	<path d="m96.2 40.3 15.2-5.1h-8.3l-4.4-7.6c-1.1-1.8-3-3-4.7-3h-3l-9.4 11.4c5.3 0.1 10.3 1.7 14.6 4.3z" fill="#f36c21"/>
	<path d="m109.9 64.9c0 2.3-0.3 4.5-0.8 6.6l13.5 16.8c0.2-0.9 0.3-1.8 0.3-2.7v-15.9l-13.3-8.5c0.2 1.2 0.3 2.5 0.3 3.7z" fill="#feee50"/>
	<path d="m122.9 47.3-19.1-0.1c3.1 4 5.2 8.8 5.8 14l13.3 8.5v-22.4z" fill="#ffd219"/>
	<path d="m93.5 90.9-1.5 7.1h11.4l-1.5-13.1c-2.4 2.5-5.2 4.5-8.4 6z" fill="#8ac653"/>
	<path d="m101.9 84.9 1.5 13.1h7.2c5.9 0 10.8-4.1 12-9.6l-13.5-16.8c-1.2 5-3.7 9.6-7.2 13.3z" fill="#89c540"/>
	<path d="m68.7 91-13.8 7h19.5l4.2-4.3c-3.5-0.3-6.9-1.2-9.9-2.7z" fill="#5eccf5"/>
	<path d="m81 93.8c-0.8 0-1.6 0-2.4-0.1l-4.2 4.3h17.6l1.5-7.1c-3.8 1.9-8 2.9-12.5 2.9z" fill="#34bfc5"/>
	<path d="m52.9 71.8-21.2-9.5v16.5l25.4 2.4c-1.9-2.8-3.3-6-4.2-9.4z" fill="#5194d0"/>
	<path d="m57.1 81.2-25.4-2.4v6.9c0 6.8 5.5 12.3 12.3 12.3h10.8l13.8-7c-4.6-2.2-8.6-5.6-11.5-9.8z" fill="#2a86c7"/>
	<path d="m58.9 46.3-2.3-11.1h-4v-0.6c0-1.4-1.1-2.5-2.5-2.5h-8.8c-1.4 0-2.5 1.1-2.5 2.5v0.1l14.5 21.9c1.2-3.8 3.1-7.3 5.6-10.3z" fill="#a054a1"/>
	<path d="m70 38.2 4.3-13.7h-5.9c-1.7 0-3.8 1.6-4.6 3l-4.9 7.6h-2.3l2.3 11.1c3-3.4 6.8-6.2 11.1-8z" fill="#a3227c"/>
	<path d="m52.1 64.9c0-2.9 0.4-5.7 1.2-8.3l-14.5-21.9v0.6c-4 0.5-7.1 3.9-7.1 8v19l21.2 9.5c-0.5-2.2-0.8-4.5-0.8-6.9z" fill="#703d97"/>
	<path d="m90.7 52c-2-1.5-4.5-2.6-7.1-3-0.9-0.1-1.7-0.2-2.6-0.2-1.7 0-3.3 0.3-4.8 0.7-2.3 0.7-4.3 1.9-6 3.4-1.8 1.6-3.3 3.7-4.2 6-0.7 1.9-1.2 3.9-1.2 6 0 0.5 0 1.1 0.1 1.6 0.2 2.3 0.9 4.4 2 6.3 1.3 2.3 3.1 4.2 5.3 5.7 1.8 1.2 3.9 2 6.1 2.4 0.9 0.2 1.8 0.3 2.8 0.3 1.7 0 3.4-0.3 4.9-0.8 2.1-0.7 4.1-1.8 5.7-3.2 1.9-1.7 3.5-3.9 4.4-6.3 0.7-1.8 1.1-3.8 1.1-5.9v-0.6c-0.1-2.7-0.8-5.2-2.1-7.4-1.2-2-2.7-3.7-4.4-5z" fill="none"/>
	<path d="m81 48.7c0.9 0 1.8 0.1 2.6 0.2l5.7-6.5c-2.6-1-5.4-1.5-8.3-1.5h-0.9l-3.8 8.4c1.4-0.3 3-0.6 4.7-0.6z" fill="#f05150"/>
	<path d="m95 56.9 8.7 0.4c-0.9-2.6-2.2-5-3.9-7.2l-9.1 1.9c1.7 1.3 3.2 3 4.3 4.9z" fill="#f9a152"/>
	<path d="m90.7 52 9.1-1.9c-2.7-3.4-6.3-6.1-10.5-7.6l-5.7 6.5c2.6 0.4 5 1.4 7.1 3z" fill="#f36c21"/>
	<path d="m97.1 64.3v0.6c0 2.1-0.4 4-1.1 5.9l5.2 7c1.4-2.3 2.5-4.8 3.1-7.5z" fill="#feee50"/>
	<path d="m97.1 64.3 7.2 5.9c0.4-1.7 0.6-3.5 0.6-5.3 0-2.7-0.5-5.2-1.3-7.6l-8.6-0.4c1.3 2.2 2 4.7 2.1 7.4z" fill="#ffd219"/>
	<path d="m85.9 80.3-2.2 8.4c2.8-0.3 5.4-1.1 7.8-2.3v-9.3c-1.5 1.4-3.5 2.5-5.6 3.2z" fill="#8ac653"/>
	<path d="m91.6 77.1v9.3c4-2 7.3-5 9.6-8.7l-5.2-7c-0.9 2.5-2.4 4.7-4.4 6.4z" fill="#89c540"/>
	<path d="m72.1 78.4-7.9 3.6c1.9 1.9 4.2 3.5 6.7 4.6l7.3-5.8c-2.2-0.3-4.3-1.2-6.1-2.4z" fill="#5eccf5"/>
	<path d="m81 81.1c-0.9 0-1.9-0.1-2.8-0.3l-7.2 5.9c3.1 1.4 6.4 2.2 10 2.2 0.9 0 1.9-0.1 2.8-0.2l2.2-8.4c-1.7 0.5-3.3 0.8-5 0.8z" fill="#34bfc5"/>
	<path d="m64.9 66.5-7.7-3.9c-0.1 0.7-0.1 1.5-0.1 2.2 0 2 0.3 4 0.8 5.9l9.1 2c-1.2-1.8-1.9-3.9-2.1-6.2z" fill="#5194d0"/>
	<path d="m66.8 72.8-9.1-2c1.1 4.3 3.4 8.2 6.4 11.2l7.9-3.6c-2.1-1.4-3.9-3.3-5.2-5.6z" fill="#2a86c7"/>
	<path d="m70.2 52.8-1.4-8.5c-2.7 1.6-5.1 3.8-7 6.3l4.2 8.3c0.9-2.4 2.4-4.4 4.2-6.1z" fill="#a054a1"/>
	<path d="m76.2 49.4 3.8-8.4c-4.1 0.2-7.9 1.3-11.3 3.3l1.4 8.5c1.8-1.5 3.9-2.7 6.1-3.4z" fill="#a3227c"/>
	<path d="m64.8 64.9c0-2.1 0.4-4.2 1.2-6l-4.2-8.3c-2.6 3.4-4.2 7.6-4.7 12.1l7.7 3.9v-1.7z" fill="#703d97"/>
	<path d="m85.9 58.4c-1-0.8-2.3-1.3-3.6-1.5-0.4-0.1-0.9-0.1-1.3-0.1-0.8 0-1.6 0.1-2.4 0.4-1.1 0.4-2.2 1-3 1.7-0.9 0.8-1.7 1.9-2.1 3.1-0.4 0.9-0.6 2-0.6 3v0.8c0.1 1.1 0.5 2.2 1 3.2 0.6 1.2 1.6 2.1 2.7 2.9 0.9 0.6 2 1 3.1 1.2 0.5 0.1 0.9 0.1 1.4 0.1 0.9 0 1.7-0.1 2.5-0.4 1.1-0.3 2.1-0.9 2.9-1.6 1-0.9 1.8-2 2.2-3.2 0.4-0.9 0.6-1.9 0.6-3v-0.3c-0.1-1.4-0.4-2.6-1.1-3.8-0.7-1-1.4-1.9-2.3-2.5z" fill="none"/>
	<path d="m81 56.7c0.4 0 0.9 0 1.3 0.1l2.9-3.3c-1.3-0.5-2.7-0.8-4.2-0.8h-0.5l-1.9 4.3c0.7-0.2 1.5-0.3 2.4-0.3z" fill="#f05150"/>
	<path d="m88.1 60.8 4.4 0.2c-0.5-1.3-1.1-2.6-2-3.6l-4.6 1c0.9 0.6 1.6 1.5 2.2 2.4z" fill="#f9a152"/>
	<path d="m85.9 58.4 4.6-1c-1.4-1.7-3.2-3.1-5.3-3.9l-2.9 3.3c1.3 0.2 2.6 0.8 3.6 1.6z" fill="#f36c21"/>
	<path d="m89.2 64.6v0.3c0 1-0.2 2-0.6 3l2.6 3.5c0.7-1.2 1.3-2.4 1.6-3.8z" fill="#feee50"/>
	<path d="m89.2 64.6 3.6 3c0.2-0.9 0.3-1.8 0.3-2.7 0-1.4-0.2-2.7-0.6-3.9l-4.4-0.2c0.6 1.2 1 2.4 1.1 3.8z" fill="#ffd219"/>
	<path d="m83.5 72.7-1.1 4.2c1.4-0.2 2.7-0.6 4-1.2v-4.7c-0.9 0.8-1.9 1.4-2.9 1.7z" fill="#8ac653"/>
	<path d="m86.4 71.1v4.7c2-1 3.7-2.5 4.9-4.4l-2.6-3.5c-0.6 1.2-1.4 2.3-2.3 3.2z" fill="#89c540"/>
	<path d="m76.5 71.7-4 1.8c1 1 2.1 1.8 3.4 2.3l3.7-2.9c-1.1-0.1-2.2-0.5-3.1-1.2z" fill="#5eccf5"/>
	<path d="m81 73.1c-0.5 0-0.9 0-1.4-0.1l-3.7 2.9c1.5 0.7 3.3 1.1 5.1 1.1 0.5 0 0.9 0 1.4-0.1l1.1-4.2c-0.8 0.3-1.7 0.4-2.5 0.4z" fill="#34bfc5"/>
	<path d="m72.8 65.7-3.9-2c0 0.4-0.1 0.8-0.1 1.1 0 1 0.1 2 0.4 3l4.6 1c-0.5-0.9-0.9-1.9-1-3.1z" fill="#5194d0"/>
	<path d="m73.8 68.9-4.6-1c0.6 2.2 1.7 4.1 3.3 5.7l4-1.8c-1.1-0.8-2-1.8-2.7-2.9z" fill="#2a86c7"/>
	<path d="m75.5 58.8-0.7-4.3c-1.4 0.8-2.6 1.9-3.5 3.2l2.1 4.2c0.5-1.2 1.2-2.3 2.1-3.1z" fill="#a054a1"/>
	<path d="m78.6 57.1 1.9-4.3c-2.1 0.1-4 0.7-5.7 1.7l0.7 4.3c0.9-0.8 1.9-1.4 3.1-1.7z" fill="#a3227c"/>
	<path d="m72.8 64.9c0-1.1 0.2-2.1 0.6-3l-2.1-4.2c-1.3 1.7-2.1 3.8-2.4 6.1l3.9 2v-0.9z" fill="#703d97"/>
</g>
<g transform="matrix(3.7576 0 0 3.7576 -119.12 -92.062)" fill="#703d97">
	<path d="m145.5 47.9c0 0.2-0.1 0.3-0.3 0.3h-4.8c-1.1 0-1.9 0.1-2.3 0.4-0.5 0.3-0.7 1-0.7 2.2v13.4c0 0.1 0 0.3-0.1 0.3-0.1 0.1-0.2 0.1-0.4 0.1h-1.3c-0.1 0-0.3 0-0.3-0.1-0.1-0.1-0.1-0.2-0.1-0.3v-13.4c0-1.6 0.4-2.8 1.3-3.5s2.2-1.1 4-1.1h2.5c1.5 0 2.3 0.1 2.4 0.2s0.1 0.2 0.1 0.3z"/>
	<path d="m158.1 64.3-4.3-15.7c-0.1-0.3-0.2-0.4-0.5-0.4-0.2 0-0.4 0.1-0.5 0.4l-4.3 15.7c-0.1 0.2-0.2 0.4-0.4 0.4h-1.5c-0.3 0-0.4-0.1-0.4-0.4v-0.2l4.6-16.1c0.4-1.3 1.2-1.9 2.5-1.9s2.1 0.6 2.5 1.9l4.6 16.1v0.2c0 0.3-0.1 0.4-0.4 0.4h-1.5c-0.2 0-0.3-0.1-0.4-0.4z"/>
	<path d="m167.2 58.7-1.6 5.7c0 0.1-0.1 0.2-0.2 0.3s-0.2 0.1-0.3 0.1h-1.5c-0.3 0-0.4-0.1-0.4-0.4v-0.2l4.6-16.1c0.4-1.3 1.2-1.9 2.5-1.9s2.1 0.6 2.5 1.9l4.6 16.1v0.2c0 0.3-0.1 0.4-0.4 0.4h-1.5c-0.1 0-0.2 0-0.3-0.1s-0.2-0.4-0.3-0.9l-1.4-5h-6.3zm5.9-2-1.7-6.3c-0.4-1.3-0.5-1.9-0.6-2 0 0 0-0.1-0.1-0.2 0-0.1-0.1-0.1-0.1-0.1h-0.2c-0.1 0-0.2 0-0.2 0.1-0.1 0-0.1 0.1-0.2 0.2 0 0.1-0.2 0.5-0.4 1.4l-1.9 6.9z"/>
	<path d="m191.7 59.6c0 1.7-0.5 3-1.6 3.9s-2.6 1.4-4.5 1.4c-0.9 0-1.9-0.1-2.8-0.2-1-0.2-1.5-0.3-1.6-0.4s-0.2-0.2-0.2-0.3v-0.8c0-0.3 0.2-0.4 0.5-0.4 1.7 0.2 3.1 0.4 4.1 0.4 1.3 0 2.3-0.3 2.9-0.8s0.9-1.4 0.9-2.6v-0.5c0-0.9-0.2-1.6-0.7-2.2s-1.2-0.8-2.1-0.8h-4.6c-0.3 0-0.5-0.1-0.5-0.4v-0.9c0-0.3 0.2-0.5 0.5-0.5h4.5c1 0 1.7-0.3 2.2-0.8s0.7-1.2 0.7-2.2v-0.5c0-1-0.3-1.8-0.9-2.2-0.6-0.5-1.6-0.7-2.9-0.7-0.6 0-1.3 0-2.1 0.1l-2.1 0.2c-0.3 0-0.4-0.1-0.4-0.4v-0.9c0-0.2 0.1-0.3 0.2-0.4s0.7-0.2 1.7-0.4 1.9-0.2 2.8-0.2c2.1 0 3.7 0.4 4.7 1.2s1.5 2 1.5 3.6v0.3c0 1.8-0.8 3-2.3 3.9 1.6 0.8 2.3 2.1 2.3 3.9v0.6z"/>
	<path d="m198.6 58.7-1.6 5.7c0 0.1-0.1 0.2-0.2 0.3s-0.2 0.1-0.3 0.1h-1.5c-0.3 0-0.4-0.1-0.4-0.4v-0.2l4.6-16.1c0.4-1.3 1.2-1.9 2.5-1.9s2.1 0.6 2.5 1.9l4.6 16.1v0.2c0 0.3-0.1 0.4-0.4 0.4h-1.4c-0.1 0-0.2 0-0.3-0.1s-0.2-0.4-0.3-0.9l-1.4-5h-6.4zm5.9-2-1.7-6.3c-0.4-1.3-0.5-1.9-0.6-2 0 0 0-0.1-0.1-0.2 0-0.1-0.1-0.1-0.1-0.1h-0.2c-0.1 0-0.2 0-0.2 0.1-0.1 0-0.1 0.1-0.2 0.2 0 0.1-0.2 0.5-0.4 1.4l-1.9 6.9z"/>
	<path d="m227.4 64.2c0 0.1 0 0.3-0.1 0.3-0.1 0.1-0.2 0.1-0.3 0.1h-1.2c-0.1 0-0.3 0-0.3-0.1-0.1-0.1-0.1-0.2-0.1-0.3v-14.7l-0.1 0.1-2.3 4.8c-0.8 1.8-1.3 2.7-1.4 2.8l-0.3 0.3c-0.1 0.1-0.4 0.1-0.6 0.1h-1.1c-0.3 0-0.5 0-0.7-0.1s-0.3-0.3-0.5-0.6l-2.7-5.5c-0.6-1.3-0.9-1.9-0.9-1.9v14.7c0 0.1 0 0.3-0.1 0.3-0.1 0.1-0.2 0.1-0.4 0.1h-1.2c-0.1 0-0.3 0-0.3-0.1-0.1-0.1-0.1-0.2-0.1-0.3v-17.1c0-0.2 0.1-0.4 0.2-0.5s0.3-0.2 0.5-0.2h1.6c0.4 0 0.7 0.1 0.8 0.4l4.1 8.5c0.1 0.2 0.2 0.3 0.3 0.3s0.2-0.1 0.3-0.3l4.1-8.5c0.1-0.3 0.4-0.4 0.8-0.4h1.6c0.2 0 0.4 0.1 0.5 0.2s0.2 0.3 0.2 0.5v17.1z"/>
	<path d="m231.8 64v-17.2c0-0.3 0.1-0.5 0.4-0.5h1.3c0.1 0 0.2 0 0.3 0.1s0.1 0.2 0.1 0.3v14.5l7.6-14.5c0.1-0.2 0.2-0.3 0.3-0.4s0.3-0.1 0.7-0.1h1.4c0.2 0 0.4 0.1 0.5 0.2s0.2 0.3 0.2 0.5v17.3c0 0.2-0.1 0.3-0.4 0.3h-1.2c-0.1 0-0.2 0-0.3-0.1s-0.1-0.2-0.1-0.3v-14.4s-0.1 0-0.1 0.1l-7.6 14.5c-0.1 0.3-0.4 0.4-0.8 0.4h-1.5c-0.2 0-0.4-0.1-0.5-0.2-0.2-0.2-0.3-0.3-0.3-0.5z"/>
	<path d="m146.4 77.5c0 0.3-0.2 0.4-0.5 0.4h-4.8v15.9c0 0.1 0 0.2-0.1 0.3s-0.2 0.2-0.3 0.2h-1.4c-0.1 0-0.2 0-0.3-0.1s-0.1-0.2-0.1-0.4v-15.9h-4.8c-0.3 0-0.5-0.1-0.5-0.4v-1.1c0-0.1 0-0.2 0.1-0.3s0.2-0.1 0.3-0.1h12c0.3 0 0.5 0.1 0.5 0.4v1.1z"/>
	<path d="m162.2 76.6-5.5 14.1c-0.6 1.6-1.3 2.6-1.9 3.1-0.7 0.5-1.6 0.7-2.8 0.7-1.4 0-2.1-0.2-2.1-0.5v-1.1c0-0.3 0.2-0.4 0.5-0.4 0.5 0 1 0.1 1.5 0.1 0.6 0 1-0.1 1.3-0.3s0.5-0.4 0.7-0.8 0.6-1.5 1.3-3.3h-0.1c-0.5 0-0.9-0.1-1.1-0.4-0.2-0.2-0.5-0.6-0.7-1.2l-3.7-10v-0.3c0-0.2 0.1-0.4 0.4-0.4h1.5c0.2 0 0.4 0.1 0.4 0.3l3.5 9.3c0.1 0.2 0.1 0.3 0.2 0.4s0.2 0.1 0.3 0.1h0.1l3.8-9.7c0.1-0.2 0.2-0.3 0.4-0.3h1.5c0.3 0 0.4 0.1 0.4 0.4 0.2 0 0.1 0.1 0.1 0.2z"/>
	<path d="m177.3 81.5c0 3.7-2.3 5.5-6.9 5.5-0.6 0-1.4 0-2.5-0.1v6.9c0 0.1 0 0.2-0.1 0.3s-0.2 0.2-0.3 0.2h-1.3c-0.1 0-0.2 0-0.3-0.1s-0.1-0.2-0.1-0.4v-17.2c0-0.2 0.1-0.3 0.2-0.5 0.1-0.1 0.7-0.2 1.8-0.3 1.1 0 2-0.1 2.7-0.1 4.6 0 6.9 1.8 6.9 5.3v0.5zm-2.2 0v-0.3c0-1.2-0.4-2.1-1.1-2.6s-1.9-0.8-3.6-0.8c-0.8 0-1.6 0-2.5 0.1v7.1c1.5 0.1 2.3 0.1 2.5 0.1 1.7 0 2.8-0.3 3.6-0.8 0.7-0.6 1.1-1.5 1.1-2.8z"/>
	<path d="m180.9 93.6v-17.2c0-0.3 0.1-0.5 0.4-0.5h1.3c0.1 0 0.2 0 0.3 0.1s0.1 0.2 0.1 0.3v14.5l7.6-14.5c0.1-0.2 0.2-0.3 0.3-0.4s0.3-0.1 0.7-0.1h1.4c0.2 0 0.4 0.1 0.5 0.2s0.2 0.3 0.2 0.5v17.5c0 0.2-0.1 0.3-0.4 0.3h-1.3c-0.1 0-0.2 0-0.3-0.1s-0.1-0.2-0.1-0.3v-14.6s-0.1 0-0.1 0.1l-7.5 14.5c-0.1 0.3-0.4 0.4-0.8 0.4h-1.5c-0.2 0-0.4-0.1-0.5-0.2-0.2-0.1-0.3-0.3-0.3-0.5z"/>
	<path d="m209 93.7c0 0.2-0.1 0.3-0.2 0.4-0.2 0.1-0.6 0.2-1.4 0.3s-1.7 0.1-3 0.1c-2 0-3.6-0.6-4.8-1.9s-1.8-3.2-1.8-5.7v-3.4c0-2.5 0.6-4.4 1.7-5.7 1.2-1.3 2.8-1.9 4.8-1.9 0.8 0 1.7 0.1 2.7 0.2s1.6 0.2 1.7 0.3 0.1 0.1 0.1 0.2v1.3c0 0.2-0.1 0.3-0.4 0.3-1.8-0.1-3.2-0.2-4.1-0.2-2.9 0-4.3 1.9-4.3 5.6v3.4c0 1.8 0.4 3.2 1.1 4.2 0.7 0.9 1.8 1.4 3.2 1.4 0.8 0 1.6 0 2.4-0.1l1.7-0.1c0.3 0 0.4 0.1 0.4 0.4v0.9z"/>
	<path d="m224.8 77.5c0 0.3-0.2 0.4-0.5 0.4h-4.8v15.9c0 0.1 0 0.2-0.1 0.3s-0.2 0.2-0.3 0.2h-1.4c-0.1 0-0.2 0-0.3-0.1s-0.1-0.2-0.1-0.4v-15.9h-4.8c-0.3 0-0.5-0.1-0.5-0.4v-1.1c0-0.1 0-0.2 0.1-0.3s0.2-0.1 0.3-0.1h11.9c0.3 0 0.5 0.1 0.5 0.4z"/>
	<path d="m229.5 88.3-1.6 5.7c0 0.1-0.1 0.2-0.2 0.3s-0.2 0.1-0.3 0.1h-1.4c-0.3 0-0.4-0.1-0.4-0.4v-0.2l4.6-16.1c0.4-1.3 1.2-1.9 2.5-1.9s2.1 0.6 2.5 1.9l4.6 16.1v0.2c0 0.3-0.1 0.4-0.4 0.4h-1.5c-0.1 0-0.2 0-0.3-0.1s-0.2-0.4-0.3-0.9l-1.4-5h-6.4zm5.9-2-1.7-6.3c-0.4-1.3-0.5-1.9-0.6-2 0 0 0-0.1-0.1-0.2 0-0.1-0.1-0.1-0.1-0.1h-0.2c-0.1 0-0.2 0-0.2 0.1-0.1 0-0.1 0.1-0.2 0.2 0 0.1-0.2 0.5-0.4 1.4l-1.9 6.9z"/>
</g><g transform="matrix(3.7576 0 0 3.7576 -119.12 -92.062)">
	<g fill="#703d97">
		<path d="m140.6 27.5h-6.4c-0.2 0-0.3 0.1-0.3 0.3v0.7c0 0.2 0.1 0.3 0.3 0.3h2.4v7.9c0 0.2 0.1 0.3 0.3 0.3h0.9c0.2 0 0.3-0.1 0.3-0.3v-7.9h2.4c0.2 0 0.3-0.1 0.3-0.3v-0.7c0.1-0.1 0-0.3-0.2-0.3z"/>
		<path d="m148.6 35.7h-4.8v-2.9h4.3c0.2 0 0.3-0.1 0.3-0.3v-0.7c0-0.2-0.1-0.3-0.3-0.3h-4.3v-2.6h4.7c0.2 0 0.3-0.1 0.3-0.3v-0.7c0-0.2-0.1-0.3-0.3-0.3h-5.8c-0.2 0-0.3 0.1-0.3 0.3v8.9c0 0.2 0.1 0.3 0.3 0.3h6c0.2 0 0.3-0.1 0.3-0.3v-0.8c-0.1-0.1-0.2-0.3-0.4-0.3z"/>
		<path d="m158.1 27.5h-6c-0.2 0-0.3 0.1-0.3 0.3v4.8c0 0.5 0 1-0.1 1.3-0.1 0.7-0.2 1.2-0.3 1.5-0.1 0.2-0.3 0.3-0.5 0.3s-0.3 0.2-0.3 0.3v0.8c0 0.2 0.1 0.3 0.3 0.3h0.1c0.6 0 1.1-0.3 1.5-0.8s0.6-1.2 0.7-2.3l0.1-0.7c0-0.5 0.1-1 0.1-1.4v-3h3.7v7.8c0 0.2 0.1 0.3 0.3 0.3h0.8c0.2 0 0.3-0.1 0.3-0.3v-8.9c-0.1-0.1-0.2-0.3-0.4-0.3z"/>
		<path d="m167.1 35.7h-4.8v-2.9h4.3c0.2 0 0.3-0.1 0.3-0.3v-0.7c0-0.2-0.1-0.3-0.3-0.3h-4.3v-2.6h4.7c0.2 0 0.3-0.1 0.3-0.3v-0.7c0-0.2-0.1-0.3-0.3-0.3h-5.8c-0.2 0-0.3 0.1-0.3 0.3v8.9c0 0.2 0.1 0.3 0.3 0.3h6c0.2 0 0.3-0.1 0.3-0.3v-0.8c0-0.1-0.2-0.3-0.4-0.3z"/>
		<path d="m173 31.6 3.4-3.5c0.1-0.1 0.1-0.2 0.1-0.3s-0.2-0.2-0.3-0.2h-1.1c-0.1 0-0.2 0-0.2 0.1l-4 4.1v-3.9c0-0.2-0.1-0.3-0.3-0.3h-0.8c-0.2 0-0.3 0.1-0.3 0.3v8.9c0 0.2 0.1 0.3 0.3 0.3h0.8c0.2 0 0.3-0.1 0.3-0.3v-3l1.1-1.2 3.4 4.4c0.1 0.1 0.2 0.1 0.3 0.1h1c0.1 0 0.2-0.1 0.3-0.2s0-0.2 0-0.3z"/>
		<path d="m183.2 27.5h-1c-0.1 0-0.3 0.1-0.3 0.2l-3.4 8.9v0.3c0.1 0.1 0.2 0.1 0.3 0.1h0.9c0.1 0 0.3-0.1 0.3-0.2l0.9-2.5h3.6l0.9 2.5c0 0.1 0.2 0.2 0.3 0.2h0.9c0.1 0 0.2-0.1 0.3-0.1 0.1-0.1 0.1-0.2 0-0.3l-3.4-8.9c0-0.1-0.2-0.2-0.3-0.2zm0.8 5.5h-2.5l1.3-3.4z"/>
		<path d="m195.7 27.5h-0.8c-0.2 0-0.3 0.1-0.3 0.3v3.5h-4.4v-3.5c0-0.2-0.1-0.3-0.3-0.3h-0.9c-0.2 0-0.3 0.1-0.3 0.3v8.9c0 0.2 0.1 0.3 0.3 0.3h0.8c0.2 0 0.3-0.1 0.3-0.3v-4h4.4v4c0 0.2 0.1 0.3 0.3 0.3h0.8c0.2 0 0.3-0.1 0.3-0.3v-8.9c0.1-0.1 0-0.3-0.2-0.3z"/>
		<path d="m202.3 27.5h-1c-0.1 0-0.3 0.1-0.3 0.2l-3.4 8.9v0.3c0.1 0.1 0.2 0.1 0.3 0.1h0.9c0.1 0 0.3-0.1 0.3-0.2l0.9-2.5h3.6l0.9 2.5c0 0.1 0.2 0.2 0.3 0.2h0.9c0.1 0 0.2-0.1 0.3-0.1 0.1-0.1 0.1-0.2 0-0.3l-3.4-8.9c-0.1-0.1-0.2-0.2-0.3-0.2zm0.8 5.5h-2.5l1.3-3.4z"/>
		<path d="m214.9 27.5h-6c-0.2 0-0.3 0.1-0.3 0.3v4.8c0 0.5 0 1-0.1 1.3-0.1 0.7-0.2 1.2-0.3 1.5-0.1 0.2-0.3 0.3-0.5 0.3s-0.3 0.2-0.3 0.3v0.8c0 0.2 0.1 0.3 0.3 0.3h0.1c0.6 0 1.1-0.3 1.5-0.8s0.6-1.2 0.7-2.3l0.1-0.7c0-0.5 0.1-1 0.1-1.4v-3h3.7v7.8c0 0.2 0.1 0.3 0.3 0.3h0.8c0.2 0 0.3-0.1 0.3-0.3v-8.9c-0.1-0.1-0.3-0.3-0.4-0.3z"/>
	</g>
</g>
</svg>
