<svg width="475.19pt" height="600.18pt" version="1.1" viewBox="0 0 475.19 600.18" xmlns="http://www.w3.org/2000/svg">
 <defs>
  <linearGradient id="c" x1="322.4" x2="69.34" y1="36.939" y2="289.44" gradientTransform="matrix(1.8523 0 0 1.8523 -125.45 -64.884)" gradientUnits="userSpaceOnUse">
   <stop stop-color="#24b839" offset="0"/>
   <stop stop-color="#173e1b" offset="1"/>
  </linearGradient>
  <linearGradient id="d" x1="196.73" x2="322.56" y1="289.45" y2="163.45" gradientTransform="matrix(1.8523 0 0 1.8523 -125.45 -64.865)" gradientUnits="userSpaceOnUse">
   <stop stop-color="#9a0d0d" offset="0"/>
   <stop stop-color="#580d0d" offset="1"/>
  </linearGradient>
  <linearGradient id="b" x1="95.07" x2="95.07" y1="127.67" y2="63.4" gradientTransform="matrix(3.7095 0 0 3.7095 .18665 .20202)" gradientUnits="userSpaceOnUse">
   <stop stop-color="#560000" offset="0"/>
   <stop stop-color="#cd0f14" offset=".030425"/>
   <stop stop-color="#af1313" offset=".96864"/>
   <stop stop-color="#f1d5f6" offset="1"/>
  </linearGradient>
  <linearGradient id="a" x1="28.072" x2="28.072" y1="127.52" y2=".12793" gradientTransform="matrix(3.7095 0 0 3.7095 .18437 .18371)" gradientUnits="userSpaceOnUse">
   <stop stop-color="#2e4f2a" offset="0"/>
   <stop stop-color="#509048" offset=".016485"/>
   <stop stop-color="#2ed650" offset=".9844"/>
   <stop stop-color="#2cd34d" offset="1"/>
  </linearGradient>
 </defs>
 <path d="m12.016 3v7e-3c-5.0169 0.14115-9.0102 4.2499-9.0122 9.2687l-0.00362 449.89h0.00724c0.086925 5.0566 4.212 9.1116 9.2694 9.1148h136.8c5.0963-0.0297 9.2152-4.1633 9.2231-9.2597v-294.08l7e-3 0.0145c0.11303-5.0004 4.171-9.0103 9.1724-9.0638h295.57v-0.0145c4.9543-0.079 8.9814-4.0386 9.1317-8.9913h7e-3l-4e-3 -137.61c1.4e-4 -5.0936-4.1071-9.234-9.2005-9.2739z" fill="url(#c)" stroke="url(#a)" stroke-linecap="round" stroke-linejoin="round" stroke-width="6" style="paint-order:stroke fill markers"/>
 <path d="m248.06 237.71c-5.1218 0-9.2676 4.1527-9.2676 9.2745v215.02c0 5.1218 4.1458 9.2703 9.2676 9.2703h214.86c5.1218 0 9.2739-4.1485 9.2739-9.2703v-215.02c0-5.1218-4.1521-9.2745-9.2739-9.2745h-0.0223z" fill="url(#d)" stroke="url(#b)" stroke-linecap="round" stroke-linejoin="round" stroke-width="6" style="paint-order:stroke fill markers"/>
 <g transform="matrix(1.1769 0 0 1.1769 -230.94 398.64)" fill="#25871f" stroke-width=".6723">
  <path d="m563.06 76.645h5.5599c0.37649 2.6556 1.5261 5.6776 4.2489 6.6995 2.0034 0.6723 4.2893 0.6723 6.2994-0.01345 2.6959-1.0353 3.8254-4.0372 4.1817-6.686h5.5666c-0.34959 3.7985-1.2505 7.7684-3.8792 10.673-4.2489 5.0288-12.747 5.3112-17.399 0.69919-3.0724-2.9514-4.222-7.2575-4.5784-11.372z"/>
  <path d="m318.87 95.584c6.9045-1.116 14.542-0.4975 20.505 3.4691 7.4491 4.4103 11.967 12.653 13.601 20.969 2.0438 9.9097 1.8018 20.351-0.995 30.092-1.4118 4.9481-4.175 9.4189-7.4693 13.332-5.1229 5.291-12.545 8.0945-19.887 7.7785-8.5315 0.18152-17.339-3.8523-21.944-11.18-6.5818-9.224-7.523-21.104-6.9919-32.069 0.77986-8.2558 2.938-16.747 8.1819-23.349 3.6439-4.7599 9.0895-8.0273 14.999-9.0424m2.0102 12.7c-5.9499 1.6135-9.9702 7.1466-11.369 12.928-1.6135 6.8776-1.748 14.105-0.52439 21.063 0.90088 5.3851 3.5094 10.817 8.1886 13.89 3.6439 2.6152 8.6054 2.9716 12.78 1.5463 5.5129-2.0774 9.0693-7.4289 10.421-12.969 1.627-7.0457 1.7278-14.434 0.46388-21.547-0.89416-5.0692-3.2875-10.279-7.7785-13.11-3.5094-2.4337-8.1214-2.8102-12.182-1.8018z"/>
  <path d="m366.08 98.959c4.6926-3.3682 10.723-4.2624 16.37-3.785 5.2641 0.38321 10.676 2.3867 14.246 6.4003 5.1767 5.4187 6.1179 14.152 2.9043 20.808-1.6068 3.6708-4.7263 6.36-7.9668 8.5786 3.0522 1.9967 6.6154 3.5968 8.5853 6.8373 5.5868 8.8408 4.2691 22.025-4.0002 28.788-4.8876 3.6573-11.16 4.8876-17.164 4.6321-5.533-0.16807-11.624-1.237-15.638-5.3851-3.4556-3.4018-4.9212-8.1819-6.5348-12.626l11.348-4.6792c1.0286 3.5296 2.2858 7.6373 5.8692 9.3584 3.5296 1.5396 7.7046 1.432 11.274 0.0605 5.5868-2.2993 7.5163-10.333 3.5565-14.918-2.9043-4.0136-8.3231-3.9733-12.787-4.054v-11.039c3.859-0.13446 8.518-0.44372 10.824-4.054 2.6825-4.3767 2.8169-10.925-1.1631-14.596-3.0119-2.353-7.476-2.5144-10.831-0.82021-2.7295 1.7816-4.2355 4.9414-4.9952 8.0205l-11.886-3.3884c1.0622-5.3918 3.5027-10.764 7.9869-14.138z"/>
  <path d="m244.29 170.05v-73.819c9.306 0 18.155-0.09412 27.218 0.20169 3.3413 0.27564 6.8642 0.45716 9.7887 2.2925 5.3112 3.18 8.0273 9.2643 9.0223 15.16 0.94794 7.3819-0.0336 15.497-4.7464 21.507-2.3934 3.2069-6.0574 5.3515-10.004 5.9162-6.3264 0.9345-12.794 0.88071-19.174 0.85382v27.89h-12.105m12.105-61.189v20.788c4.37 0.0202 8.7937 0.0941 13.143-0.35632 2.353-0.20841 4.6658-1.2034 6.2255-3.0186 2.9917-4.054 2.9917-9.9769 0.10757-14.098-1.5799-1.916-4.0136-3.0052-6.481-3.0926-4.3229-0.28909-8.666-0.43699-12.996-0.22186z"/>
  <path d="m411.62 96.249h12.085v29.037h23.927v-29.037h12.29v73.792h-12.29v-32.264h-23.927v32.264h-12.085z"/>
  <path d="m470.16 96.316c4.0741 0.02689 8.1449-0.12774 12.226 0-0.0471 9.7349-0.0134 19.497 0 29.238 6.6134 0 14.849-0.0938 19.103 0.1479 4.7868 0.14791 9.513 2.0841 12.935 5.4456 4.3084 4.5674 6.3267 10.784 6.2615 17.011-0.70033 12.227-6.3199 21.774-19.311 21.774-9.9413 0.12744-12.796 0.0874-31.215 0.0874-7e-3 -24.579-0.0135-49.125 0-73.704m12.226 41.783v19.429h13.223c2.7033 0 4.8365-0.0167 7.0262-0.83688 3.6052-1.57 5.311-5.163 5.4139-8.6922 0.068-4.3483-2.537-7.9089-6.3521-9.1029-2.0257-0.48606-3.4636-0.7835-6.088-0.79802z"/>
  <path d="m530.32 96.29h12.226v73.724h-12.226z"/>
  <path d="m551.66 96.343h11.654v48.863l24.294-48.863h12.387v73.711h-11.611v-47.528l-24.374 47.528h-12.35z"/>
  <path d="m196.23 96.868c14.192-0.02017 28.391 0 42.577 0 7e-3 4.1615 7e-3 8.3231 0 12.485-10.111 7e-3 -20.226-0.0202-30.338 0 0 20.223 7e-3 40.429 0 60.652-4.0809-0.0134-8.1584 0.0941-12.239 0 0.0403-24.371-0.0134-48.765 0-73.133z"/>
 </g>
</svg>
