<svg id="a" width="1459.4pt" height="408.69pt" version="1.1" viewBox="0 0 1459.4 408.69" xmlns="http://www.w3.org/2000/svg">
 <g id="b" fill="#1756a3">
  <path id="c" d="m254.79 31.344 175.21 27.77-25.71 162.36-35.26-5.59 20.03-127.12-139.97-22.16z"/>
  <path id="d" d="m25.74 187.04 35.27 5.63-20.09 126.99 139.96 22.2-5.54 35.3-175.34-27.8z"/>
  <path id="e" d="m344.87 367.85 20.16-127.04 35.29 5.56-25.69 162.32-175.27-27.72 5.61-35.32z"/>
 </g>
 <g id="f" fill="#e5152b">
  <path id="g" d="m29.631 162.26 35.339 5.4712 20.161-127.09 140 22.091 5.5898-35.121-175.21-27.613z"/>
  <path id="h" d="m95.78 133.61c14.73-12.46 34.44-18.22 53.57-17.64 11.71 0.16 23.84 2.63 33.58 9.45 9.22 6.18 15.56 16.41 17.14 27.38 1.37 10.04 0.75 20.71-3.98 29.85-3.75 7.85-10.48 14.13-18.46 17.55 12.92 5.23 21.04 18.28 23.23 31.66 1.95 13.92-0.64 28.88-9.21 40.28-8.54 11.98-22.73 18.8-37.09 20.59-21.16 2.45-43.69-3.19-60.03-17.18l14.57-21.45c11.01 8.59 24.93 14.42 39.1 13.3 7.54-0.56 15.39-3.28 20.34-9.28 5.55-6.63 6.39-16.03 4.73-24.24-2.02-10.1-10.47-18.94-20.91-20.07-8.05-0.71-16.16-0.12-24.23-0.33l0.01-23.49c6.74-0.01 13.49 0 20.23 0.02 8.21 0.12 16.47-4.17 20.7-11.29 3.86-6.11 4.67-13.76 3.27-20.75-1.86-7.88-8.95-13.69-16.72-15.25-15.92-3.54-32.73 2.39-45.02 12.58z"/>
  <path id="i" d="m225.45 133.62c14.73-12.46 34.44-18.22 53.57-17.64 11.71 0.16 23.84 2.63 33.58 9.45 9.22 6.18 15.56 16.41 17.14 27.38 1.37 10.04 0.75 20.71-3.98 29.85-3.75 7.85-10.48 14.13-18.46 17.55 12.92 5.23 21.04 18.28 23.23 31.66 1.95 13.92-0.64 28.88-9.21 40.28-8.54 11.98-22.73 18.8-37.09 20.59-21.16 2.45-43.69-3.19-60.03-17.18l14.57-21.45c11.01 8.59 24.93 14.42 39.1 13.3 7.54-0.56 15.39-3.28 20.34-9.28 5.55-6.63 6.39-16.03 4.73-24.24-2.02-10.1-10.47-18.94-20.91-20.07-8.05-0.70999-16.16-0.12-24.23-0.33l0.01-23.49c6.74-0.01 13.49 0 20.23 0.02 8.21 0.12 16.47-4.17 20.7-11.29 3.86-6.11 4.67-13.76 3.27-20.75-1.86-7.88-8.95-13.69-16.72-15.25-15.92-3.54-32.73 2.39-45.02 12.58z"/>
 </g>
 <g id="j" fill="#1756a3">
  <path id="k" d="m756.28 122.88 46.21-19.2 9.41 22.73-41.81 17.31c-8.91 4.05-17.8 9.22-23.48 17.43-3.74 5.71-6.07 12.41-6.46 19.23 9.12-7 20.67-10.69 32.16-10.17 14.44 0.06 30.02 4.91 38.86 16.99 7.88 10.51 8.9 24.16 8.73 36.84-0.25 10.24 0.61 20.55-0.83 30.73-2.19 13.72-11.63 25.67-23.83 32.02-14.56 7.69-31.9 8.72-47.81 5.38-11.86-2.48-23.29-8.99-29.9-19.36-5.66-8.81-7.14-19.56-6.9-29.84 0.22-18.37-0.62-36.79 1.02-55.11 1.37-15.41 6.17-30.73 15.37-43.29 6.94-10.37 18.21-16.59 29.26-21.69m4.32 73.43c-6.62 1.03-13.06 4.35-17.1 9.8-4.98 6.11-5.66 14.3-5.37 21.87 0.41 10.04-1.69 21.15 4.18 30.07 4.17 6.93 12.46 9.82 20.16 10.33 9.68 0.72 20.82-2.36 26.01-11.23 5.1-7.8 3.37-17.44 3.66-26.22-0.12-8.79 1.18-18.66-4.5-26.14-6.37-7.84-17.49-9.81-27.04-8.48z"/>
  <path id="l" d="m474.64 115h120.51v26.735h-90.755v151.01h-29.755z"/>
  <path id="m" d="m860.13 173.76c13.81-9.97 32.03-11.96 48.39-8.5 12.62 2.65 24.67 9.89 31.34 21.17 4.88 7.92 6.73 17.32 6.78 26.53 0.01 8.26-0.01 16.52-0.01 24.79l-78.22-0.01c0.02 5.05-0.49 10.27 1.2 15.13 1.93 6.03 6.54 11.14 12.45 13.5 9.51 4.02 20.25 2.8 29.9-0.04 5.53-1.77 10.33-5.21 14.65-9.02l16.17 18.95c-6.69 6.84-15.05 12.2-24.35 14.62-10.13 2.73-20.76 3.77-31.2 2.62-10.8-1.13-21.67-4.42-30.31-11.19-9.95-7.57-15.91-19.88-16.02-32.35v-39.05c0.23-14.45 7.22-28.87 19.23-37.15m13.32 24.25c-4.54 5.57-5.12 13.08-4.83 19.98l50.58-0.01c-0.14-5.75-0.2-11.75-2.85-17-2.38-5.06-7.29-8.38-12.37-10.32-10.38-3.83-23.31-1.33-30.53 7.35z"/>
  <path id="n" d="m1021 164.4c15.2-2.53 32.92 1.78 42.19 14.89 5.99 8.63 7.56 19.43 7.75 29.7-0.03 13.69 0.02 27.37-0.03 41.06-0.21 11.48-3.48 23.46-11.65 31.89-7.59 8.21-18.94 11.75-29.86 12.2-13.4 0.38-27.05-1.61-39.21-7.45v56.79h-27.52v-178.49h24.83l2.56 12.51c9.57-5.87 19.79-11.09 30.94-13.1m-3.07 26.25c-9.91 2.24-19.205 6.66-27.745 12.11v58.05c8.35 3.52 17.075 6.46 26.175 7.15 7.03 0.63 15.06 0.48 20.66-4.44 5.1-4.64 6.4-11.93 6.42-18.53-0.03-11.03 0.02-22.06-0.03-33.08-0.24-5.83-0.75-12.45-5.16-16.76-5.32-5.1-13.38-6.05-20.32-4.5z"/>
  <path id="o" d="m583.75 164.74h29.08l26.22 98.2 0.7 0.03 33.4-98.23h29.12l-65.11 179.23h-28.69l19.26-53.93-9.15-7.39z"/>
  <path id="p" d="m1089.1 165.01h27.485v50.975h53.26v-50.975h27.495v127.7h-27.495v-52.675h-53.26v52.675h-27.485z"/>
  <path id="q" d="m1222.9 165.01h27.57v84.325l56.645-84.325h24.825v127.7h-27.565v-84.53l-57.1 84.53h-24.375z"/>
  <path id="r" d="m1368.9 174.5c7.57-6.43 17.57-9.435 27.42-9.505h63.065v127.75h-27.5v-50.495l-23.455 0.06c-5.76 0.52-12.11 2.26-15.67 7.16-3.59 4.89-4.76 10.97-6.11 16.74l-6.38 26.535h-28.61l9.64-36.815c2.38-7.92 6.11-16.67 14.48-19.79-6.25-2.27-12.1-6.32-15.21-12.33-8.98-15.7-5.56-37.56 8.33-49.31m15.86 21.89c-2.78 4.9-2.99 11.39-0.21 16.34 3.2 4.8 9.41 6.275 14.84 6.505h32.495v-30.255h-30.455c-6.23-0.19-13.11 2-16.67 7.41z"/>
 </g>
</svg>
