<?xml version="1.0" encoding="UTF-8"?>
<!-- Generator: Adobe Illustrator 16.0.0, SVG Export Plug-In . SVG Version: 6.00 Build 0)  -->
<svg id="svg339" width="233.28" height="103.9" enable-background="new 0 0 283.464 283.464" version="1.1" viewBox="0 0 233.28 103.9" xml:space="preserve" xmlns="http://www.w3.org/2000/svg" xmlns:cc="http://creativecommons.org/ns#" xmlns:dc="http://purl.org/dc/elements/1.1/" xmlns:rdf="http://www.w3.org/1999/02/22-rdf-syntax-ns#"><metadata id="metadata345"><rdf:RDF><cc:Work rdf:about=""><dc:format>image/svg+xml</dc:format><dc:type rdf:resource="http://purl.org/dc/dcmitype/StillImage"/><dc:title/></cc:Work></rdf:RDF></metadata><g id="Logo" transform="translate(-25.094 -89.78)"><g id="g335"><linearGradient id="SVGID_1_" x1="-157.32" x2="-155.7" y1="563.43" y2="563.43" gradientTransform="matrix(-38.506 -87.157 -87.157 38.506 43154 -35205)" gradientUnits="userSpaceOnUse"><stop id="stop2" stop-color="#fff" offset="0"/><stop id="stop4" stop-color="#242425" offset=".1685"/><stop id="stop6" stop-color="#939598" offset=".2637"/><stop id="stop8" stop-color="#9EA1A3" offset=".3956"/><stop id="stop10" stop-color="#7E8082" offset=".5421"/><stop id="stop12" stop-color="#7B7D7F" offset=".6264"/><stop id="stop14" stop-color="#EAEBEC" offset=".7179"/><stop id="stop16" stop-color="#fff" offset=".7912"/><stop id="stop18" offset="1"/></linearGradient><ellipse id="ellipse21" cx="78.076" cy="141.73" rx="52.982" ry="51.952" clip-rule="evenodd" fill="url(#SVGID_1_)" fill-rule="evenodd"/><linearGradient id="SVGID_2_" x1="-153.42" x2="-151.8" y1="562.25" y2="562.25" gradientTransform="matrix(0 50.117 50.117 0 -28100 7819)" gradientUnits="userSpaceOnUse"><stop id="stop23" stop-color="#fff" offset="0"/><stop id="stop25" stop-color="#242425" offset=".1685"/><stop id="stop27" stop-color="#939598" offset=".2637"/><stop id="stop29" stop-color="#9EA1A3" offset=".3956"/><stop id="stop31" stop-color="#7E8082" offset=".5421"/><stop id="stop33" stop-color="#7B7D7F" offset=".6264"/><stop id="stop35" stop-color="#EAEBEC" offset=".7179"/><stop id="stop37" stop-color="#fff" offset=".7912"/><stop id="stop39" offset="1"/></linearGradient><path id="path42" d="m78.076 90.905c-28.625 0-51.836 22.757-51.836 50.827s23.211 50.826 51.836 50.826c28.627 0 51.835-22.756 51.835-50.826 0-28.069-23.208-50.827-51.835-50.827z" clip-rule="evenodd" fill="url(#SVGID_2_)" fill-rule="evenodd"/><linearGradient id="SVGID_3_" x1="-158.41" x2="-156.79" y1="564.95" y2="564.95" gradientTransform="matrix(-24.842 -33.266 -33.266 24.842 14957 -19135)" gradientUnits="userSpaceOnUse"><stop id="stop44" stop-color="#fff" offset="0"/><stop id="stop46" stop-color="#242425" offset=".1685"/><stop id="stop48" stop-color="#939598" offset=".2637"/><stop id="stop50" stop-color="#9EA1A3" offset=".3956"/><stop id="stop52" stop-color="#fff" offset=".4101"/><stop id="stop54" stop-color="#7E8082" offset=".5421"/><stop id="stop56" stop-color="#7B7D7F" offset=".6264"/><stop id="stop58" stop-color="#EAEBEC" offset=".7179"/><stop id="stop60" stop-color="#fff" offset=".7912"/><stop id="stop62" offset="1"/></linearGradient><ellipse id="ellipse65" cx="78.076" cy="141.73" rx="37.57" ry="36.839" clip-rule="evenodd" fill="url(#SVGID_3_)" fill-rule="evenodd"/><ellipse id="ellipse67" cx="78.076" cy="141.73" rx="36.293" ry="35.588" clip-rule="evenodd" fill="#0054a6" fill-rule="evenodd"/><linearGradient id="SVGID_4_" x1="-170.42" x2="-168.8" y1="564.91" y2="564.91" gradientTransform="matrix(0 -9.667 -9.667 0 5539 -1476.4)" gradientUnits="userSpaceOnUse"><stop id="stop69" stop-color="#2E3192" offset="0"/><stop id="stop71" stop-color="#0071BC" offset="1"/></linearGradient><ellipse id="ellipse74" cx="78.076" cy="141.73" rx="34.876" ry="34.195" clip-rule="evenodd" fill="url(#SVGID_4_)" fill-rule="evenodd"/><linearGradient id="SVGID_5_" x1="-147.64" x2="-146.01" y1="561.97" y2="561.97" gradientTransform="matrix(-1.2019 14.113 14.113 1.2019 -8027.8 1516.4)" gradientUnits="userSpaceOnUse"><stop id="stop76" stop-color="#fff" offset="0"/><stop id="stop78" stop-color="#0072BC" offset="1"/></linearGradient><path id="path81" d="m78.076 129.83c13.103 0 24.846 4.541 32.841 11.723-0.097-18.854-14.757-34.108-32.841-34.108s-32.75 15.256-32.843 34.109c8-7.182 19.743-11.724 32.843-11.724z" clip-rule="evenodd" fill="url(#SVGID_5_)" fill-rule="evenodd"/><linearGradient id="SVGID_6_" x1="-156.81" x2="-155.19" y1="559.13" y2="559.13" gradientTransform="matrix(36.356 0 0 -36.356 5749.1 20471)" gradientUnits="userSpaceOnUse"><stop id="stop83" stop-color="#fff" offset="0"/><stop id="stop85" stop-color="#242425" offset=".1685"/><stop id="stop87" stop-color="#939598" offset=".2637"/><stop id="stop89" stop-color="#9EA1A3" offset=".3956"/><stop id="stop91" stop-color="#7E8082" offset=".5421"/><stop id="stop93" stop-color="#7B7D7F" offset=".6264"/><stop id="stop95" stop-color="#EAEBEC" offset=".7179"/><stop id="stop97" stop-color="#fff" offset=".7912"/><stop id="stop99" offset="1"/></linearGradient><path id="path102" d="m81.624 128.9-1.314 7.803h15.233c1.125 0 1.777 0.148 2.046 0.469 0.182 0.215 0.274 0.589 0.274 1.115 0 0.375-0.048 0.827-0.14 1.358l-0.862 5.396c-0.466 2.518-1.573 3.603-3.689 3.603h-5.444c0.289-1.742 1.795-10.843 1.795-10.843h-9.409l-3.107 18.648h16.381c7.928 0 11.687-3.221 12.976-11.114l0.933-5.375c0.621-3.689 0.18-6.355-1.341-8.155-1.679-1.98-4.596-2.904-9.192-2.904h-15.14zm-11.205 0s-1.227 7.611-1.436 8.901h-7.958c0.278-1.661 1.505-8.901 1.505-8.901h-9.408l-4.695 27.549h9.411s1.569-9.167 1.795-10.483h7.964c-0.3 1.734-1.795 10.483-1.795 10.483h9.338l4.695-27.549z" fill="url(#SVGID_6_)"/><linearGradient id="SVGID_7_" x1="-146.51" x2="-144.88" y1="561.13" y2="561.13" gradientTransform="matrix(0 13.599 13.599 0 -7552.4 2130.6)" gradientUnits="userSpaceOnUse"><stop id="stop104" stop-color="#fff" offset="0"/><stop id="stop106" stop-color="#242425" offset=".1685"/><stop id="stop108" stop-color="#939598" offset=".2637"/><stop id="stop110" stop-color="#9EA1A3" offset=".3956"/><stop id="stop112" stop-color="#7E8082" offset=".5421"/><stop id="stop114" stop-color="#7B7D7F" offset=".6264"/><stop id="stop116" stop-color="#EAEBEC" offset=".7179"/><stop id="stop118" stop-color="#fff" offset=".7912"/><stop id="stop120" offset="1"/></linearGradient><path id="path123" d="m74.362 155.52h-7.467l1.794-10.484h-9.837l-1.793 10.484h-7.54l4.381-25.706h7.535l-1.506 8.904h9.837l1.437-8.904h7.539zm32.026-15.725-0.935 5.384c-1.15 7.037-4.235 10.341-12.064 10.341h-15.291l2.8-16.802h7.539l-1.795 10.842h6.531c2.803 0 4.093-1.652 4.599-4.381l0.862-5.384c0.575-3.303-0.503-4.022-3.09-4.022h-14.145l1.003-5.959h14.361c7.829 0 10.845 2.729 9.625 9.981z" fill="url(#SVGID_7_)"/><linearGradient id="SVGID_8_" x1="-157.62" x2="-155.99" y1="563.5" y2="563.5" gradientTransform="matrix(-53.199 -68.139 -68.139 53.199 30235 -40494)" gradientUnits="userSpaceOnUse"><stop id="stop125" stop-color="#fff" offset="0"/><stop id="stop127" stop-color="#242425" offset=".1685"/><stop id="stop129" stop-color="#939598" offset=".2637"/><stop id="stop131" stop-color="#9EA1A3" offset=".3956"/><stop id="stop133" stop-color="#7E8082" offset=".5421"/><stop id="stop135" stop-color="#7B7D7F" offset=".6264"/><stop id="stop137" stop-color="#EAEBEC" offset=".7179"/><stop id="stop139" stop-color="#fff" offset=".7912"/><stop id="stop141" offset="1"/></linearGradient><path id="path144" d="m150.84 112c-0.836 0.83-1.299 1.989-1.299 3.261v22.766l0.089-0.084-0.101 0.25-0.018 0.422-3e-3 12.908 0.032 0.689v0.485c0.018 0.164 0.055 0.376 0.055 0.376 0.101 1.253 0.373 2.578 0.8 3.856 2.344 7.014 8.871 11.723 16.244 11.723h2.387l0.871-0.075c2.288-0.421 3.77-2.317 3.77-4.73-0.021-0.217-0.036-0.319-1.439-5.067-0.035-0.129-1.015-3.608-3.866-3.608h-0.334c-2.717 0-4.962-2.215-5.004-4.938v-34.309c0-2.753-3.247-3.762-3.617-3.871l-4.803-1.417-0.129-2e-3c-1.448-8e-3 -2.739 0.475-3.635 1.365z" fill="url(#SVGID_8_)"/><linearGradient id="SVGID_9_" x1="-157.61" x2="-155.98" y1="563.45" y2="563.45" gradientTransform="matrix(-53.199 -68.139 -68.139 53.199 30241 -40500)" gradientUnits="userSpaceOnUse"><stop id="stop146" stop-color="#fff" offset="0"/><stop id="stop148" stop-color="#242425" offset=".1685"/><stop id="stop150" stop-color="#939598" offset=".2637"/><stop id="stop152" stop-color="#9EA1A3" offset=".3956"/><stop id="stop154" stop-color="#7E8082" offset=".5421"/><stop id="stop156" stop-color="#7B7D7F" offset=".6264"/><stop id="stop158" stop-color="#EAEBEC" offset=".7179"/><stop id="stop160" stop-color="#fff" offset=".7912"/><stop id="stop162" offset="1"/></linearGradient><path id="path165" d="m182.11 137.3c-2.636 0-4.339 1.693-4.339 4.311v19.438c0 1.999 1.545 3.505 3.594 3.505h4.727c2.602 0 4.418-1.737 4.418-4.227v-18.209c0-1.899-1.645-3.505-3.591-3.505l0.243 0.033-4.928-1.346z" clip-rule="evenodd" fill="url(#SVGID_9_)" fill-rule="evenodd"/><linearGradient id="SVGID_10_" x1="-157.68" x2="-156.06" y1="563.23" y2="563.23" gradientTransform="matrix(-50.801 -65.067 -65.067 50.801 28911 -38693)" gradientUnits="userSpaceOnUse"><stop id="stop167" stop-color="#fff" offset="0"/><stop id="stop169" stop-color="#242425" offset=".1685"/><stop id="stop171" stop-color="#939598" offset=".2637"/><stop id="stop173" stop-color="#9EA1A3" offset=".3956"/><stop id="stop175" stop-color="#7E8082" offset=".5421"/><stop id="stop177" stop-color="#7B7D7F" offset=".6264"/><stop id="stop179" stop-color="#EAEBEC" offset=".7179"/><stop id="stop181" stop-color="#fff" offset=".7912"/><stop id="stop183" offset="1"/></linearGradient><path id="path186" d="m242.3 120.47 0.442-0.146c-4.214 0.21-9.868 1.141-12.881 4.379-3.012 3.233-4.553 7.406-4.334 11.752l0.586 11.831 0.364 2.594c0.734 3.37 2.501 6.367 5.115 8.669 3.309 2.915 7.581 4.396 12.03 4.173l6.728-0.334c1.231-0.061 2.151-0.514 2.587-1.272 0.12-0.206 0.257-0.539 0.257-0.98 0-0.231-0.112-0.528-0.214-0.815l-0.049-0.192-0.045-0.167 0.035 0.148c-0.143-0.358-0.65-1.344-2.493-4.929-1.477-2.865-4.144-3.049-5.222-2.995l-1.477 0.07c-1.512 0.076-2.965-0.426-4.087-1.412-0.213-0.188-0.479-0.682-0.692-1.095 1.238-0.815 15.936-10.528 15.936-10.528 1.815-1.115 2.568-2.331 2.861-4.636l0.613-6.044c0-0.028 8e-3 -0.136 8e-3 -0.305 0-0.97-0.189-3.971-2.395-5.828-2.439-2.058-12.843-2.485-13.673-1.938zm-3.564 12.095c1.024-1.093 2.416-1.738 3.925-1.813l3.91-0.194c0.885-0.112 1.747 0.015 1.887 0.197l0.093 0.292-0.01 0.12c-0.039 0.244-0.275 0.908-1.546 1.767 0 0-6.732 4.527-9.571 6.438-0.063-1.305-0.141-2.862-0.141-2.862-0.074-1.458 0.443-2.86 1.453-3.945z" fill="url(#SVGID_10_)"/><linearGradient id="SVGID_11_" x1="-157.61" x2="-155.99" y1="563.34" y2="563.34" gradientTransform="matrix(-53.201 -68.141 -68.141 53.201 30252 -40510)" gradientUnits="userSpaceOnUse"><stop id="stop188" stop-color="#fff" offset="0"/><stop id="stop190" stop-color="#242425" offset=".1685"/><stop id="stop192" stop-color="#939598" offset=".2637"/><stop id="stop194" stop-color="#9EA1A3" offset=".3956"/><stop id="stop196" stop-color="#7E8082" offset=".5421"/><stop id="stop198" stop-color="#7B7D7F" offset=".6264"/><stop id="stop200" stop-color="#EAEBEC" offset=".7179"/><stop id="stop202" stop-color="#fff" offset=".7912"/><stop id="stop204" offset="1"/></linearGradient><path id="path207" d="m198.23 130.47c-0.438 1.257-0.724 2.645-0.849 4.125l-0.017 0.082-0.028 0.211v0.541l-0.032 0.633-2e-3 13.938 0.036 0.715-2e-3 21.842c0 2.554 1.858 4.338 4.521 4.338 0.97 0 3.961-0.965 5.518-1.602l1.313-0.629c1.558-0.993 1.862-2.077 1.862-2.822v-19.521h4.332c1.825 0 3.368-1.544 3.368-3.37l-0.032 0.25 1.274-4.528v-0.125c0-2.426-1.662-4.054-4.132-4.054h-4.811v-3.016c0.05-3.292 2.773-5.98 6.07-5.98h0.223c2.72 0 3.673-3.433 3.682-3.469l1.332-4.498c0.249-0.934 0.095-1.853-0.434-2.685-0.63-0.993-1.768-1.751-2.965-1.975l-0.827-0.077-2.66-3e-3c-8.165 1e-3 -14.112 4.147-16.74 11.679z" fill="url(#SVGID_11_)"/><linearGradient id="SVGID_12_" x1="-157.61" x2="-155.99" y1="563.38" y2="563.38" gradientTransform="matrix(-53.193 -68.131 -68.131 53.193 30246 -40502)" gradientUnits="userSpaceOnUse"><stop id="stop209" stop-color="#fff" offset="0"/><stop id="stop211" stop-color="#242425" offset=".1685"/><stop id="stop213" stop-color="#939598" offset=".2637"/><stop id="stop215" stop-color="#9EA1A3" offset=".3956"/><stop id="stop217" stop-color="#7E8082" offset=".5421"/><stop id="stop219" stop-color="#7B7D7F" offset=".6264"/><stop id="stop221" stop-color="#EAEBEC" offset=".7179"/><stop id="stop223" stop-color="#fff" offset=".7912"/><stop id="stop225" offset="1"/></linearGradient><path id="path228" d="m181.97 118.94c-2.602 0-4.42 1.739-4.42 4.229v4.51c0 1.998 1.545 3.505 3.594 3.505h4.726c2.603 0 4.419-1.74 4.419-4.228v-4.511c0-1.999-1.542-3.505-3.59-3.505z" fill="url(#SVGID_12_)"/><linearGradient id="SVGID_13_" x1="-151.44" x2="-149.82" y1="563.07" y2="563.07" gradientTransform="matrix(0 28.27 28.27 0 -15756 4415.3)" gradientUnits="userSpaceOnUse"><stop id="stop230" stop-color="#fff" offset="0"/><stop id="stop232" stop-color="#242425" offset=".1685"/><stop id="stop234" stop-color="#939598" offset=".2637"/><stop id="stop236" stop-color="#9EA1A3" offset=".3956"/><stop id="stop238" stop-color="#7E8082" offset=".5421"/><stop id="stop240" stop-color="#7B7D7F" offset=".6264"/><stop id="stop242" stop-color="#EAEBEC" offset=".7179"/><stop id="stop244" stop-color="#fff" offset=".7912"/><stop id="stop246" offset="1"/></linearGradient><path id="path249" d="m150.47 115.26v22.766l-0.014 0.223-0.019 0.404v12.87l0.032 0.645v0.53l0.038 0.212c0.106 1.262 0.365 2.521 0.77 3.73 2.216 6.635 8.392 11.093 15.368 11.093h2.387l0.786-0.071c1.781-0.331 2.933-1.83 2.933-3.814l-1.402-4.806c-0.032-0.117-0.861-2.948-2.981-2.948h-0.334c-3.218 0-5.876-2.622-5.925-5.846v-34.322c0-2.12-2.832-2.949-2.951-2.984l-4.684-1.382c-2.405-0.02-4.004 1.51-4.004 3.7z" fill="url(#SVGID_13_)"/><linearGradient id="SVGID_14_" x1="-151.44" x2="-149.81" y1="563.37" y2="563.37" gradientTransform="matrix(0 28.27 28.27 0 -15742 4415.7)" gradientUnits="userSpaceOnUse"><stop id="stop251" stop-color="#fff" offset="0"/><stop id="stop253" stop-color="#242425" offset=".1685"/><stop id="stop255" stop-color="#939598" offset=".2637"/><stop id="stop257" stop-color="#9EA1A3" offset=".3956"/><stop id="stop259" stop-color="#7E8082" offset=".5421"/><stop id="stop261" stop-color="#7B7D7F" offset=".6264"/><stop id="stop263" stop-color="#EAEBEC" offset=".7179"/><stop id="stop265" stop-color="#fff" offset=".7912"/><stop id="stop267" offset="1"/></linearGradient><path id="path270" d="m186.92 139.53-4.809-1.313c-2.107 0-3.416 1.299-3.416 3.388v19.438c0 1.496 1.125 2.583 2.671 2.583h4.727c2.094 0 3.497-1.328 3.497-3.305v-18.209c0-1.376-1.247-2.582-2.67-2.582z" clip-rule="evenodd" fill="url(#SVGID_14_)" fill-rule="evenodd"/><linearGradient id="SVGID_15_" x1="-151.21" x2="-149.58" y1="564.21" y2="564.21" gradientTransform="matrix(0 26.997 26.997 0 -14990 4217.8)" gradientUnits="userSpaceOnUse"><stop id="stop272" stop-color="#fff" offset="0"/><stop id="stop274" stop-color="#242425" offset=".1685"/><stop id="stop276" stop-color="#939598" offset=".2637"/><stop id="stop278" stop-color="#9EA1A3" offset=".3956"/><stop id="stop280" stop-color="#7E8082" offset=".5421"/><stop id="stop282" stop-color="#7B7D7F" offset=".6264"/><stop id="stop284" stop-color="#EAEBEC" offset=".7179"/><stop id="stop286" stop-color="#fff" offset=".7912"/><stop id="stop288" offset="1"/></linearGradient><path id="path291" d="m255.41 123.08c-2.472-2.083-12.621-1.875-12.621-1.875-4.363 0.217-9.556 1.171-12.281 4.097-2.728 2.93-4.31 6.868-4.096 11.108l0.31 6.269 0.124 2.523 0.152 3.039c0.042 0.837 0.169 1.65 0.343 2.449 0.704 3.228 2.428 6.074 4.839 8.195 3.002 2.646 7.041 4.175 11.402 3.957l4.59-0.228 2.14-0.108c1.488-0.074 2.463-0.851 1.796-2.146v-4e-3l-2.458-4.774c-1.138-2.207-3.113-2.583-4.396-2.52l-1.477 0.072c-1.801 0.09-3.466-0.539-4.712-1.633-0.499-0.438-0.93-1.471-1.268-2.045l16.609-10.973c1.56-0.96 2.205-1.903 2.472-4.014l0.611-6.02c1e-3 1e-3 0.205-3.445-2.079-5.369zm-7.919 10.582c-4.52 3.05-10.87 7.31-10.87 7.31l-0.216-4.421c-0.087-1.751 0.564-3.377 1.688-4.585 1.13-1.207 2.726-2.004 4.524-2.095l3.913-0.194s2.023-0.27 2.637 0.55c0.611 0.825 0.235 2.143-1.676 3.435z" fill="url(#SVGID_15_)"/><linearGradient id="SVGID_16_" x1="-151.44" x2="-149.81" y1="563.72" y2="563.72" gradientTransform="matrix(0 28.27 28.27 0 -15726 4415.4)" gradientUnits="userSpaceOnUse"><stop id="stop293" stop-color="#fff" offset="0"/><stop id="stop295" stop-color="#242425" offset=".1685"/><stop id="stop297" stop-color="#939598" offset=".2637"/><stop id="stop299" stop-color="#9EA1A3" offset=".3956"/><stop id="stop301" stop-color="#7E8082" offset=".5421"/><stop id="stop303" stop-color="#7B7D7F" offset=".6264"/><stop id="stop305" stop-color="#EAEBEC" offset=".7179"/><stop id="stop307" stop-color="#fff" offset=".7912"/><stop id="stop309" offset="1"/></linearGradient><path id="path312" d="m218.29 119.78-0.737-0.065h-2.579c-7.743 0-13.382 3.926-15.872 11.059-0.414 1.188-0.683 2.501-0.801 3.9l-0.041 0.215v0.542l-0.032 0.676v13.894l0.032 0.669v21.888c0 2.044 1.447 3.415 3.6 3.415 0.682 0 3.387-0.802 5.165-1.532l1.266-0.606c0.896-0.576 1.341-1.241 1.341-1.991v-20.441h5.254c1.305 0 2.447-1.143 2.447-2.449l1.24-4.403c0-1.936-1.229-3.134-3.209-3.134h-5.732v-3.936c0.056-3.805 3.194-6.903 6.992-6.903h0.223c1.975 0 2.776-2.722 2.784-2.751l1.347-4.554c0.172-0.653 0.058-1.317-0.33-1.93-0.499-0.785-1.401-1.385-2.358-1.563z" fill="url(#SVGID_16_)"/><linearGradient id="SVGID_17_" x1="-151.44" x2="-149.82" y1="563.38" y2="563.38" gradientTransform="matrix(0 28.27 28.27 0 -15742 4415.3)" gradientUnits="userSpaceOnUse"><stop id="stop314" stop-color="#fff" offset="0"/><stop id="stop316" stop-color="#242425" offset=".1685"/><stop id="stop318" stop-color="#939598" offset=".2637"/><stop id="stop320" stop-color="#9EA1A3" offset=".3956"/><stop id="stop322" stop-color="#7E8082" offset=".5421"/><stop id="stop324" stop-color="#7B7D7F" offset=".6264"/><stop id="stop326" stop-color="#EAEBEC" offset=".7179"/><stop id="stop328" stop-color="#fff" offset=".7912"/><stop id="stop330" offset="1"/></linearGradient><path id="path333" d="m186.7 119.87h-4.729c-2.092 0-3.497 1.329-3.497 3.306v4.51c0 1.495 1.126 2.582 2.671 2.582h4.726c2.093 0 3.497-1.327 3.497-3.304v-4.511c0-1.495-1.123-2.583-2.668-2.583z" fill="url(#SVGID_17_)"/></g></g></svg>
