<?xml version="1.0" encoding="UTF-8"?>
<!-- Generator: Adobe Illustrator 22.1.0, SVG Export Plug-In . SVG Version: 6.00 Build 0)  -->
<svg id="svg653" width="231.84" height="232.11" version="1.1" viewBox="0 0 231.84 232.11" xml:space="preserve" xmlns="http://www.w3.org/2000/svg" xmlns:cc="http://creativecommons.org/ns#" xmlns:dc="http://purl.org/dc/elements/1.1/" xmlns:rdf="http://www.w3.org/1999/02/22-rdf-syntax-ns#"><metadata id="metadata659"><rdf:RDF><cc:Work rdf:about=""><dc:format>image/svg+xml</dc:format><dc:type rdf:resource="http://purl.org/dc/dcmitype/StillImage"/><dc:title/></cc:Work></rdf:RDF></metadata>
<style id="style2" type="text/css">
	.Arched_x0020_Green{fill:url(#SVGID_1_);stroke:#FFFFFF;stroke-width:0.25;stroke-miterlimit:1;}
	.st0{fill-rule:evenodd;clip-rule:evenodd;fill:#4058A7;}
	.st1{fill-rule:evenodd;clip-rule:evenodd;fill:#36489E;}
	.st2{fill-rule:evenodd;clip-rule:evenodd;fill:#59AFE2;}
	.st3{fill-rule:evenodd;clip-rule:evenodd;fill:#94D8EB;}
	.st4{fill:#FFFFFF;}
</style>
<linearGradient id="SVGID_1_" x1="-155.91" x2="-155.2" y1="562.68" y2="561.97" gradientUnits="userSpaceOnUse">
	<stop id="stop4" stop-color="#20AC4B" offset="0"/>
	<stop id="stop6" stop-color="#19361A" offset=".9831"/>
</linearGradient>
<g id="Logo" transform="translate(-25.8 -25.792)">
	<g id="g641" clip-rule="evenodd" fill-rule="evenodd">
		<g id="g15" fill="#4058a7">
			<path id="path9" class="st0" d="m96 27.7h2.3c0.3 1.7-1.3 1.7-2.2 2.3-2.5 1.6-5.2 3.1-7.8 4.6 0.1 0.1 0.1 0.2 0.2 0.3 0.5-0.1 1.1-0.3 1.6-0.4 0.3-0.1 0.5-0.2 0.8-0.2-0.1 0.3-0.1 0.6-0.2 0.9 0.3 0.1 0.6 0.3 0.9 0.5-0.9 0.7-0.2 2.5-2 2.6 0.1-0.2 0.2-0.3 0.4-0.6-0.4 0.1-0.6 0.1-0.9 0.1-0.1 0.4-0.1 0.8-0.3 1.1-0.9 0.9-1.8 1.7-2.7 2.5-0.2 0.2-0.5 0.4-0.7 0.6s-0.5 0.4-0.7 0.5c0 0.1 0.1 0.2 0.1 0.3 0.6 0 1.2 0.1 1.9 0.1 0.1 0.9 0.1 1.8 0.2 2.7 0.1 0 0.2 0.1 0.3 0.1 1.3-2.5 3.3-4.1 6-5.4-0.2 1.3-0.3 2.3-1.1 3-0.6 0.5-1.7 0.7-1.3 2-0.3-0.2-0.4-0.3-0.7-0.4 0.1 0.4 0.3 0.8 0.2 1-0.7 1-1.5 1.9-2.3 2.8-0.4 0.5-1 1-1.3 1.5-0.1 0.2 0.3 0.7 0.5 1.2 0.6-0.7 1.1-1.3 1.7-2 0 0 0.3 0.1 0.2 0.1 0.5-0.7 0.9-1.3 1.2-1.9 0.1 0.1 0.2 0.1 0.3 0.2 0 0.3 0 0.7 0.1 1 0.1-1.3 1-1.2 1.9-1.4 0.8-0.2 2-0.4 2.2-1 0.4-0.8 0.8-0.7 1.3-0.8 0.6-1.1 1.5-1.6 2.6-1.8 0.8-0.1 1-0.4 0.7-1 0.5-0.1 1-0.2 1.4-0.2v-0.7c0.5 0.5 0.7 0.1 1-0.1 1.4-0.7 2.9-1 4.3-1.5-1-0.8-0.2-0.7 0.5-0.7 1.2 0.1 1.5-0.5 1.3-1.2 1.3-0.5 2.6-0.9 3.8-1.3 0.6-0.2 1.5-0.4 1.7-0.9 0.4-0.8 0.7-0.5 1.2-0.3 0.2 0.1 0.5 0 0.7 0 0.4 0 0.8-0.1 1.2-0.1v0.3c-0.7 0.3-1.3 0.6-2.1 1 0.3 0.1 0.4 0.1 0.5 0.1 1.8-0.3 3.7-0.6 5.5-0.9 1.3-0.2 2.6-0.5 3.9-0.8 0.3-0.1 0.5-0.7 0.9-0.9 0.6-0.3 1.3-0.3 1.8-0.7 0.9-0.9 1.9-0.5 2.8-0.5 1.2-0.1 2.5 0 3.7-0.1 2.2-0.2 4.5-0.4 6.7-0.7 1.1-0.1 2.1 0.2 3.2 0.3 2.8 0.3 5.7 0.3 8.5 0.4 1.2 0.1 2.4 0 3.6 0.3 2 0.4 4 0.9 6 1.4s4.1 0.9 6.1 1.4c0.4 0.1 0.8 0.1 1.2 0.1 0.2 0 0.5 0 0.7 0.2 0.3 0.2 0.5 0.6 0.8 0.6 0.6 0 1 0.3 1.5 0.5 1.7 0.7 3.4 1.1 5.2 1.7-0.1 0.6-0.1 0.6 2.1 0.7 0.1 0.3 0.1 0.5 0.1 0.6 1.3 0.5 2.4 0.9 3.5 1.5 1.2 0.6 2.3 1.6 3.8 1.9 0.7 0.1 1.2 0.8 1.8 1.2 0.5 0.7 1.1 1 2.1 0.7-0.1 1.4 0.9 0.8 1.5 1 1.7 1.8 3.5 3.4 6 4.3 0 0-0.1 0.2-0.3 0.3 2 0.6 3.6 2.3 6 2-0.1 0.2-0.2 0.4-0.2 0.5 1.7 0.6 3.3 1.2 5.1 1.8 0.4 0.3 1.1 0.7 1.7 1.1-0.2-0.7-0.5-1.2-0.9-1.7-0.8-1-0.8-1-0.6-1.2 0.9 0.8 1.9 1.7 2.8 2.5 1.2 1.1 2.3 2.4 3.6 3.4 1.5 1.2 3.1 2.2 4.7 3.3 2.8 1.8 5.1 4.2 7.4 6.5 1.4 1.4 2.5 3 3.7 4.6 1.5 2 2.9 4.1 4.1 6.2 1.6 2.6 3 5.4 4.6 8 0.7 1.2 1 2.5 1.7 3.6 1.2 2 1.8 4.3 2.6 6.4 0.4 0.9 0.7 1.9 1 2.8 0.2 0.6 0 1.6 0.4 1.8 0.8 0.6 0.8 1.3 0.9 2.1 0.1 0.6 0.5 1 0.6 1.6 0.2 0.9 0.2 1.8 0.3 2.7 0.1 1.8 0.1 3.5 0.1 5.3 0 1.1-0.1 2.2-0.2 3.3h-0.4c0-0.5-0.1-1-0.1-1.5-0.1 0-0.2 0.1-0.3 0.1-0.1-0.2-0.2-0.4-0.3-0.5l-0.4-0.8c-0.1 1.2-0.2 2.2-0.3 3.5-0.7-1-1.2-1.8-1.5-2.3 0.1-1 0.1-1.7 0.2-2.3 0.3 0.2 0.6 0.3 1 0.5 0.1-0.1 0.2-0.1 0.3-0.2-0.3-0.9-0.6-1.8-1-2.9-0.3-0.3-0.7-0.8-1.1-1.4l0.2-0.2c0.3 0.3 0.6 0.5 0.9 0.8 0.1-0.1 0.2-0.1 0.4-0.2-0.7-2-1.5-4-2.2-6l-1.8-5.1c-0.5-1.3-0.9-2.7-1.4-4-0.9-2.2-1.9-4.3-2.9-6.5-0.6-1.2-1.2-2.3-1.8-3.4-0.4-0.8-0.7-1.7-1.2-2.6-0.3-0.6-0.9-1.1-1.2-1.7-0.8-1.3-1.6-2.6-2.5-3.9-0.9-1.2-2-2.4-3-3.6-0.4-0.5-0.9-1-1.4-1.5-0.1 0.1-0.2 0.1-0.4 0.2 0.4 0.9 0.6 2.1 1.3 2.8 0.9 0.9 1.6 2 2.3 3.1 1.1 1.5 1.9 3.1 2.9 4.6 0.4 0.7 0.4 1.7 1.6 1.9 0.3 0.1 0.3 1.2 0.5 1.8 0.6 1.3 1.4 2.6 2 3.9 0.5 1.1 0.8 2.3 1.2 3.4 0.5 1.3 0.6 2.9 1.5 3.8s0.4 2 1.2 2.9c0.5 0.6 0.4 1.6 0.6 2.4 0.2 0.6 0.2 1.4 0.5 1.8 0.4 0.4-0.5 1.8 1 1.4 0.1 0.3 0.2 0.5 0.2 0.8 0 0.2-0.2 0.5-0.4 0.7 0.3 0.1 0.6 0.1 1.2 0.3-0.5 0.3-0.8 0.5-1.2 0.8 0.4 0.5 1.1 1.2 1 1.3-0.8 1 0.2 1.8 0.2 2.6 0.2 1.8 0.6 3.6 0.9 5.4 0.1 0.6-0.3 1.4 0.9 1.4-0.8 1.1-0.6 2.4 0.3 3.3-0.2 0.2-0.5 0.4-0.4 0.6 0.2 1.8 0.4 3.6 0.6 5.8 0.4-0.6 0.7-1 1-1.4-0.4-0.3-0.6-0.5-0.8-0.7 0.2-0.5 0.4-0.9 0.6-1.4-0.3-0.1-0.6-0.1-0.8-0.2-0.1-1 0.7-1.9-0.1-2.7 0.3-0.3 0.7-0.5 1.3-1-0.2 0.5-0.5 0.8-0.5 1 0.1 0.3-0.3 1 0.5 1 0.2 0 0.4 0.2 0.6 0.3l-0.6 0.6c-0.1 0.1-0.1 0.2-0.2 0.4 0.3 0 0.6 0.1 1 0.1-0.2 0.5-0.3 1-0.5 1.5 1.2 0.4-0.1 1.2 0.4 1.8-0.4 0-0.5 0-0.8-0.1 1.1 2.2 0 4.3 0.2 6.4 0.3 2.1 0.1 4.2-0.9 6.2h0.3c0.1-0.3 0.2-0.5 0.3-0.8 0.1 0 0.2 0 0.3 0.1v3.2c0 0.2-0.1 0.3-0.2 0.4-0.3 0.4-0.9 0.8-0.8 1.2 0.1 1.1-0.2 2.2-0.5 3.3-0.6 2.2-0.2 4.5-0.8 6.8-0.1 0.5-0.1 1.3-0.3 1.9-0.1 0.3-0.1 0.7-0.1 1 0 0.7 0.2 1.4 0 2.1-0.2 1.1-0.7 2.2-0.9 3.3-0.3 1.4-0.4 2.8-0.7 4.2 0.1 0 0.4 0.1 0.4 0.1-0.3 0.4-0.6 0.6-0.7 0.9-0.2 0.7-0.3 1.4-0.5 2.1-0.4 1.6-0.9 3.1-1.3 4.7 0.1 0 0.3 0.1 0.4 0.1-0.4 1.5-2.2 2.4-1.6 3.9-0.3 0.3-0.5 0.5-0.6 0.7-0.2 0.7-0.2 1.4-0.5 2.1-0.2 0.6-0.7 1-1.2 1.8 1.4-0.2 1.8-0.8 2-2.6 0.7-0.6 1.2-1 1.8-1.5 0.4-0.3 0.8-0.5 1.2-0.8 0.1 0.3 0.2 0.7 0.2 1 0 0.2 0.1 0.4 0.1 0.6-0.1 0.3-0.2 0.6-0.4 1.1 0 0.2 0 0.6-0.1 0.9-0.7 1.2 0 2.8-1.2 3.9-0.1 0.1 0 0.5 0 0.8-0.1 0.5 0 1.2-0.3 1.5-0.9 1-1.8 2-1.8 3.4 0 0.4 0 1.2-0.1 1.2-1.1 0.1-0.7 1-0.9 1.6 0 0.1 0 0.2-0.1 0.3-0.6 0.8-1.2 1.6-1.7 2.5-0.8 1.6-1.4 3.3-2.1 4.9-0.1 0.1-0.1 0.4-0.1 0.4-1.3 0.2-0.7 1.2-1 1.8-0.6 0.5-1.5 1.1-1.5 1.7 0 1.4-1.3 1.6-1.7 2.5-0.4 0.8-0.9 1.5-1.4 2.3-0.4 0.7-0.8 1.5-1.2 2.2-0.1 0.2-0.6 0.2-0.8 0.4s-0.3 0.6-0.5 0.9c-0.4 0.6-0.9 1.1-1.3 1.7-0.5 0.7-0.9 1.4-1.4 2s-1.1 1.1-1.7 1.7c-0.3 0.4-0.6 0.8-1 1.1-0.8 0.7-1.7 1.4-2.5 2.1-0.2 0.1-0.1 0.5-0.2 0.8-0.3 0-0.6 0-0.9 0.1 0.1 0.1 0.1 0.2 0.2 0.3-1.3 1-2.6 1.9-3.9 2.9-1.3 0.9-2.6 1.7-3.9 2.6-1.2 0.9-2.5 1.6-4 2.1 0 0.2-0.1 0.6-0.1 0.9-0.1-0.1-0.2-0.2-0.2-0.3-0.4 0.2-0.8 0.5-1.2 0.7-0.2 0.1-0.5 0.3-0.7 0.5-0.5 0.3-1 0.6-1.6 0.9-0.2 0.1-0.4 0.3-0.6 0.4-0.5 0.2-1.3 0.3-1.5 0.7-0.4 0.8-0.6 1.2-1.5 1.5-0.4 0.2-0.8 0.5-1 0.8-0.4 0.7-0.6 1.5-1 2.2-0.2 0.3-0.8 0.3-1.2 0.4-0.1-0.4-0.2-1-0.7-0.3-0.2 0.2-0.1 0.6-0.1 0.9-1.3-0.3-1.7 1.2-2.4 1.6-0.1 0.6-0.1 1.1-0.3 1.4-0.6 0.8-1.5 1.1-2.5 0.9-0.9-0.2-1.8-0.3-2.2 0.9-0.1 0.4-0.7 0.9-1.2 1-1.6 0.5-2.4 0.1-3.2-1.4 2.5-0.5 5.1-1.1 7.6-1.6v-0.4h-2.3l-0.1-0.1c0.9-0.4 1.9-0.8 2.8-1.1-0.9 0-1.7-0.5-2.5 0.3-0.6 0.5-1.5 0.5-2.3 0.8-0.2 0.1-0.3 0.3-0.5 0.4-0.1 0.1-0.2 0.3-0.4 0.4-1.3 0.4-2.9 0.6-4 1.4-0.8 0.6-1.6 0.7-2.5 0.9-0.3 0.1-0.5 0.2-0.8 0.4 0.5 0.3 0.8 0.5 1.1 0.7 0 0.1-0.1 0.2-0.1 0.3-0.3-0.1-0.7-0.3-1-0.4-0.2-0.1-0.6-0.1-0.6-0.1-0.3 0.9-0.9 0.5-1.5 0.5-1 0.1-2.2 0-3.1 0.5s-1.9 0.5-2.8 0.8c-1.3 0.4-2.5 0.9-3.8 0.9-1.7 0.1-3.4 0.3-4.9 0.9-0.3 0.1-0.6 0.2-0.9 0-1-0.6-2-0.1-3-0.2-1.3-0.1-2.5 0-3.8 0v-0.4h0.9c0.2 0 0.5 0.1 0.7 0 1.6-0.3 3.1-0.9 4.7-0.9 0.2 0 0.4 0.1 0.5 0.1 0.1-1.1 0.9-0.4 1.3-0.4 0.3 0 0.6-0.1 0.9-0.2 1.7-0.6 3.5-1 5.4-1 0.2 0 0.4-0.5 0.6-0.9 2.4 0.2 2.4 0.1 2-0.9-0.1 0.1-0.3 0.3-0.5 0.4-0.1-0.3-0.2-0.5-0.3-0.8-0.2 0.2-0.3 0.4-0.5 0.4-0.6-0.1-1.3-0.4-1.8-0.2-0.9 0.2-2.1-0.5-2.5 1-0.3-0.1-0.5-0.3-0.7-0.3-2.4 0.5-4.8 1-7.2 1.5-1.2 0.3-2.3 0.9-3.5 0.8-1.8-0.2-3.4 0-5 0.8-0.2 0.1-0.5 0-0.7 0-0.3 0-0.7-0.2-1-0.2-1.7 0.1-3.3 0.3-5 0.4-1.2 0-1.2 0-0.8 0.9 0.1 0.2 0.1 0.5 0 0.7-0.6 1.1-1.1 2.3-1.9 3.3-0.3 0.4-1 0.7-1.6 0.8-1.1 0.2-2.2 0.2-3.2 0.4-0.3 0-0.5 0.4-0.8 0.7h-9.7c0-0.2 0-0.4 0.1-0.7-1.8 0-3.6-0.7-5.5-0.4-0.1 0-0.3 0-0.4-0.1-0.5-0.2-0.9-0.5-1.4-0.7-0.5-0.1-1.4 0.1-1.6-0.2-0.9-1.2-2.3-0.9-3.4-1.5-1.2-0.7-2.7-0.8-3.6-1.9-1-1.1-2.4-1.1-3.8-1.3-2-0.3-4-0.6-5.9-1-1.2-0.3-2.3-0.8-3.5-1.2-0.3-0.1-0.7 0-1 0-0.1-0.2-0.2-0.6-0.4-0.7-0.9-0.4-1.8-0.7-2.7-1-1-0.4-1.9-0.8-2.8-1.2-0.9-0.5-1.7-1.2-2.6-1.7-1-0.7-2.1-1.3-3-2.1-1-0.8-1.8-1.8-2.8-2.6-1.1-0.9-1.9-1.7-1.2-2.9 0.6-0.3 0.9-0.5 1.2-0.5 1-0.1 2.5 1.3 2.9 2.3 0.1 0.1 0.4 0.2 0.8 0.3 0 0-0.1 0.5 0.1 0.5 0.6 0.4 1.3 0.7 2 1-0.1 0.2-0.2 0.4-0.3 0.9 0.6-0.1 1-0.2 1.5-0.2 0 0 0.1 0.3 0.2 0.4 0.5 0 1.2-0.7 1.2 0.5 0 0.1 0.2 0.4 0.2 0.4 1-0.3 1.1 0.7 1.4 1.1 0.3-0.2 0.5-0.6 0.7-0.5 0.7 0.1 1.5 0.2 1.9 0.6 0.8 0.8 1.8 0.4 2.6 1.1 0 0.1-0.1 0.3-0.1 0.5 0.3-0.2 0.5-0.3 0.7-0.4 0.9-0.2 1.7-0.3 2.6-0.4 0.4 1.2 2.6 1.6 4.3 0.4-0.6-0.4-1.2-1.2-1.5-1.1-1.1 0.4-1.5-0.6-2.4-0.7-1.1-0.1-2.1-0.6-3.3-1-0.1-0.1-0.4-0.3-0.8-0.4-0.3-0.1-0.9 0-1-0.2-0.5-1-1.5-0.6-2.3-0.8-0.2-0.1-0.6-0.1-0.6-0.1-0.1-1.2-0.9-0.8-1.6-0.8-0.1 0-0.2-0.3-0.3-0.5l-1.2-0.9c-0.1 0.1-0.1 0.3-0.1 0.2-0.7-0.5-1.4-1-2.2-1.5-1.3-0.9-2.6-1.6-3.8-2.6-0.8-0.6-1.3-1.4-2-2.2-0.3-0.4-0.5-0.9-0.8-1.3-0.5-0.6-1.1-1.1-1.5-1.8-0.2-0.3-0.2-0.9 0.1-1.2 0.5-0.6 1.2-1.1 1.9-1.7 1.1-0.9 1.1-1.1-0.3-1.6 0-0.3 0-0.7-0.1-1.1-0.6-0.2-1.1-0.4-1.7-0.6-0.3-0.6-0.7-1.1-1.2-1.6-0.4-0.4-0.9-0.7-1.3-1-0.4 0-0.9 0-1.6 0.1 0.1-0.6 0.2-1.1 0.2-1.5 0-0.3-0.2-0.8-0.5-1-3.6-1.8-6.8-4.2-9.9-6.6-0.6-0.5-1.1-1.1-1.7-1.6-1.8-1.7-3.6-3.2-5.3-5-1.8-1.8-3.4-3.8-5.2-5.7-0.7-0.8-1.5-1.5-2.2-2.3 0.1-0.1 0.2-0.3 0.3-0.4 0.6 0.3 1.3 0.5 1.8 0.9 1.4 1.1 2.7 2.3 4 3.4 0.5 0.4 1.3 0.9 1.3 1.4 0.1 1.2 1 1.2 1.8 1.5-0.2 0.1-0.4 0.2-0.4 0.3 1.2 1.1 2.4 2.1 3.8 3.4 0.2-0.9 0.4-1.5 0.6-2.3h-1.8c-0.7-2.2-0.7-2.2-0.5-2.5 0.7 0.4 1.4 0.9 2 1.3 0.5 0.4 1 0.7 1.4 0.9s0.7 0.4 1.1 0.6c0 0.1-0.1 0.2-0.1 0.2h1.6v-1.5c-0.4 0-0.8 0-1.3-0.1 0.3-1.6-0.8-0.9-1.6-0.9 0.4-0.8 0.3-1.4-0.7-1.7-0.4-0.1-0.8-0.3-1.1-0.5-0.6-0.5-1-1.3-1.6-1.8-0.3-0.2-0.9 0-1.3-0.1-0.1-0.1 0-0.7 0-1.1 0 0 0-0.1-0.1-0.1-1-0.6-2-1.1-3.1-1.7-0.3-0.5-0.6-1-1-1.7-0.4-0.1-1-0.4-1.7 0 1-0.8 0.3-1.3-0.3-1.8-0.7-0.6-1.6-0.9-1.7-2.1 0.4 0 0.9-0.1 1.1 0.1 1.2 1.5 3.3 2 4.2 3.7 0.2 0.4 0.5 0.7 0.8 1 0.2 0.1 0.5 0.1 0.8 0.1v-0.6c-0.1-0.4-0.2-0.7-0.2-1-2.1-1.5-3-3.6-3.5-6-0.1-0.1-0.2-0.1-0.3-0.2-0.2 0.4-0.5 0.8-0.7 1.3-0.2-0.5-0.2-0.9-0.3-1-0.9-0.4-0.9-1-0.6-1.8 0.1-0.2 0-0.5-0.2-0.6-0.6-0.7-1.4-1.2-1.7-2-0.6-1.6-2.3-2.6-2.2-4.5 0-0.2-0.5-0.5-0.6-0.5-1.5-4.7-3-9.3-2.6-14.4-0.4-0.1-1-0.3-1.6-0.5 0.1-0.5 0.3-1 0.4-1.4-0.1-0.2-0.2-0.4-0.3-0.7-0.1-0.6 0.1-1.2-0.1-1.7-0.2-0.6-0.5-1.1-0.8-1.7-0.2 0.2-0.3 0.3-0.6 0.7 0.2-1.3 0.4-2.2 0.5-2.9-0.5-0.3-1-0.6-1.1-0.8-0.1-1.2 0-2.5 0-3.8-0.6 0-0.9 0-1.3-0.1-0.2-0.4-0.3-0.7-0.5-1.1 0.1 0 0.1-0.1 0.2-0.1 0.3 0.2 0.5 0.4 0.8 0.7 0.3-1.1 0.2-2.1-1.1-2.6 0.4 0 0.8 0 1.3-0.1-1-0.7-1.1-1.3-0.5-2-0.3 0-0.5-0.1-0.8-0.1 0.1-0.3 0.2-0.5 0.2-0.8-0.1-1.5-0.1-2.9-0.2-4.4 0-0.5-0.4-1-0.6-1.6v-1.9c-0.5 0.1-0.8 0.1-1.3 0.2 0.2-0.9 0.3-1.6 0.5-2.4v-0.4c-0.1-0.6-0.2-1.2-0.2-1.8 0-0.5 0.5-1.1 0.3-1.3-0.9-1.3 0.1-2.6-0.1-3.9-0.1-0.6 0.1-1.2 0.2-1.8 0-0.1-0.5-2.1-0.5-2.1 0.1-0.2 0.3-0.5 0.3-0.5-0.1-0.7-0.2-1.2-0.3-1.9 0.3 0.2 0.5 0.3 0.6 0.4 1.5-1.6 1.1-3.5 1.2-5.4h-0.9c0-0.3 0-0.4 0.1-0.8-0.5 0.7-0.8 1.5-1.6 0.7-0.3 2.7-0.7 5.3-1 8.1-0.1-0.5-0.2-0.7-0.3-1h-0.3c-0.2 0.8-0.5 5.1-0.7 5.9-0.1 0-0.1-3.5-0.3-3.5v-5.8c-0.2-0.2-0.5-0.4-0.9-0.6 0.7-0.2 1.1-0.4 1.8-0.6-0.5-0.2-0.7-0.3-0.9-0.4 0.2-0.7 0.4-1.3 0.6-1.7 0.4-0.3 0.7-0.5 1-0.8-0.7-0.2-0.1-0.7-0.3-1.1-0.6-0.9 0-0.9 0.6-0.6 0-0.3 0-0.5 0.1-0.8 0.3-1.1 0-1.9-1.2-2.3 0.2 0.8 0.3 1.5 0.5 2.3l-1.2 0.3c-0.1 0.4-0.3 0.6-0.6 0.8 0 0-0.1-0.1-0.2-0.1 0.1-0.2 0.1-0.5 0.2-0.7-0.6-0.1-1.1-0.2-1.6-0.4-0.2 0.8-0.5 1.7-0.7 2.6-0.1 0-0.3 0-0.4-0.1-0.2-2.1-0.4-4.2 0.7-6.1-0.1 0-0.3-0.1-0.4-0.1-0.4 0.7-0.7 1.4-1.1 2.2-0.2-0.7-0.3-1.1-0.4-1.6v-3.5c0.4-0.2 0.8-0.3 0.8-1.1-0.1-1.2 1.1-4.3 1.1-5s-0.1-1.5 0-2.2c0.1-0.6 0.3-1.1-0.1-1.6 0 0 0.1-0.1 0.1-0.2 0.2 0.1 0.3 0.2 0.6 0.3-0.1-0.3-0.1-0.6-0.2-0.6 0.3-0.1 0.5-0.1 0.7-0.2 0.6-0.1 0.6-0.5 0.6-1v-2.7c0.4 0 0.6 0.1 0.8 0.1-0.2-0.7 3.1-7.5 3.1-7.7 0.1-0.5 0.1-1 0.1-1.6 0.3 0 0.5 0.1 0.9 0.1-0.2-0.4-0.4-0.7-0.6-1 1.8-0.9 1.6-2.7 1.6-4.4 0.6 0 1.2-0.1 1.7-0.1 0.1-0.7 0.2-1.4 0.4-1.9 0-0.3-0.1-0.7-0.1-1.1 0-0.2 0.4-0.3 0.6-0.4 0-0.1-0.1-0.2-0.1-0.2h1.3c0-1 0.1-1.9 0.1-2.9 0.6 0 1.1-0.1 1.8-0.1v-2.7c0.7 0 1.2-0.1 1.7-0.1 0.1-0.5 0.2-0.9 0.4-1.3 0.1-0.2 0.2-0.4 0.2-0.6-0.3-0.9-0.2-1 0.8-0.9 0.2 0 0.7-0.1 0.7-0.2 0.2-1 6.2-7.8 6.3-9.3 0-0.1 0.3-0.3 0.5-0.3 1.1-0.2 1.5-0.8 1.2-1.7 0.4-0.1 0.8-0.3 1.2-0.4 0-0.1 0-0.2-0.1-0.3-0.4 0-0.8 0.1-1.2 0.1 0-0.1 0-0.2-0.1-0.3 0.6-0.1 1.2-0.3 1.8-0.4 0.3-0.8 0.2-1.7 1.6-1.8 0.8-0.1 1.6-0.9 2.4-1.4 0.1-0.1 1.6-1.6 1.9-1.6 0.1-0.6 0.1-1.2 0.2-1.8 0.6 0 1.2 0.1 1.9 0.2 0-0.4 0.1-0.8 0.1-1.2 0.3 0 0.6-0.1 0.9-0.1-0.2-0.2-0.3-0.4-0.5-0.6 0.6 0 1.1-0.1 1.5-0.1l-0.2-0.2c0.2-0.3 0.5-0.8 0.6-0.8 1.3 0.4 1.4-1 2.3-1.4-0.4-0.1-0.7-0.2-1-0.3 0-0.1 0-0.2 0.1-0.3 0.7 0.1 1.4 0.2 2.1 0.3v-1.2c0.9 0.1 1.9 0.6 1.9-0.9 0.9 0.2 1.3-0.5 1.9-0.9 1.1-0.8 2.4-1.3 3.6-2 0.4-0.2 0.8-0.5 1.2-0.7 1-0.7 2-1.6 3.1-2.2 2.2-1.2 4.5-2.4 6.7-3.5 0.9-0.4 2-0.6 3-1 0.1 0.5 0.2 0.8 0.3 1.3 0.2-0.4 0.2-0.7 0.3-0.8 1.1-0.4 2.2-0.7 3.2-1 1.1-0.4 1.5-0.5 1.9-0.7zm44.6 220.4c-0.6 1-1.2 1.4-2.1 0.5-0.2-0.2-0.8-0.3-1.2-0.3-1.9-0.1-3.9-0.2-5.8-0.3-1.5-0.1-3-0.3-4.4-0.4h-0.3c-0.2 0.8-0.5 0.4-0.9 0.2s-0.9-0.3-1.4-0.5c-1.3-0.5-2.8-0.2-4.1-0.8-1-0.5-2.3-0.6-3.4-0.8-1-0.2-2-0.4-2.9-0.6-0.7-0.1-1.4-0.2-2-0.4-0.4-0.1-0.7-0.4-1-0.4-0.7-0.1-1.5-0.1-2.2-0.2-0.6-0.2-1.2-0.6-2-1v1.2c-0.5-0.1-0.9-0.2-1.3-0.2s-0.8 0.1-1.2 0c-0.1 0-0.2-0.3-0.3-0.5-0.3-0.3-1.1-0.7-1.4-0.4-0.4 0.3-0.5 1.1-0.8 1.8 0.6 0 1.5-1.3 1.4 0.4 0.2 0 0.5-0.2 0.6-0.1 1.3 0.6 2.6 0.6 4 0.7 0.4 0 0.7 0.4 1.1 0.6 0 0.1-0.1 0.2-0.1 0.3 0.5-0.2 1-0.4 1.4-0.5 0.2 0.4 0.4 0.7 0.6 0.9 0.3-0.2 0.6-0.4 0.8-0.4 0.5 0 1 0 1.4 0.1 0.3 0 0.5 0.2 0.7 0.4 0.3 0.2 0.4 0.7 0.7 0.8 1.6 0.4 3.2 1 4.7 0.9 1.1-0.1 1.9 0.5 2.9 0.5 0.4 0 0.7-0.2 1.1-0.1 0.7 0.1 1.6 0.6 2.1 0.4 1.6-0.7 3.1 0 4.7 0 4.1-0.1 8.2 0.1 12.4 0.3 0-1.7-1.1-1.6-1.8-2.1zm-42.6-18.3c-0.6-0.1-1.6-0.1-1.6-0.3-0.2-1.4-1.2-0.7-1.9-0.9-0.1-0.3-0.1-0.5-0.1-0.5-1.7-0.6-3.2-1.1-4.8-1.6-0.2-0.7-1-1.1-1.9-0.7 0.3-0.7 0-1-0.6-1.1-0.3-0.1-0.5-0.3-0.8-0.4-1.3-0.6-2.5-1.2-3.8-1.7-1.1-0.4-2.2-0.6-3.4-0.9 0 0.3 0.2 0.6 0.5 0.7 0.4 0.2 0.9 0.2 1.4 0.3 0 0.3 0.1 0.7 0.1 1h1 0.7c0.6 0.8 1 1.6 2 1.9 0.7 0.2 1.7 0.6 1.8 1 0.2 1.5 1.2 0.8 1.9 0.8 0.2 0.4 0.4 0.7 0.5 1 0.6 0.1 1.7-0.7 1.5 0.8 0 0.1 0.4 0.3 0.7 0.3 0.4 0 0.8-0.1 1.3-0.1 0.1 0.4 0.1 0.8 0.1 1.1 0.6 0.1 1.6 0 1.6 0.2 0.4 1.3 1.4 0.6 2.2 0.9 0 0.2 0.1 0.5 0.1 0.8 0.9 0 1.8 0.1 2.8 0.1-0.2 0.3-0.3 0.4-0.6 0.7 1.3 0.2 2.4 0.4 3.5 0.5-0.1 0.2-0.2 0.3-0.4 0.7 1.5-0.2 2.7-0.5 4.1-0.7 1.1 0.2 1.2 1.6 1.9 2.6 0.1-0.3 0-0.6 0-0.8s0-0.4 0.1-0.6c0.1-0.1 0.3-0.1 0.4-0.1 0.4 0.2 0.8 0.5 1.3 0.8 0.1-0.4 0.2-0.8 0.3-1.1-0.8-0.1-1.5-0.1-2.3-0.1 0-0.3-0.1-0.7-0.1-0.9-0.8-0.1-1.5 0.3-2-0.6-0.1-0.2-0.5-0.2-0.8-0.2h-2.8c-0.1-1.4-1.1-1-1.9-1.1 0-0.3 0-0.6-0.1-0.9-1.4 0.1-1.5 0-1.9-0.9zm120.1-53c0.1-0.3 0.3-0.6 0.3-0.6 0.6-0.1 1-0.2 1.4-0.3v0.5h0.2c0.2-0.6 0.5-1.2 0.7-1.9-0.6 0.1-1 0.2-1.4 0.3 0.2-0.6 0.4-1.3 0.7-1.9-1.4 0.9-2.6 1.9-3.1 3.5-0.4 1.2-0.2 2.5-0.9 3.7-0.5 1-0.9 2.1-1.3 3.1l0.9 0.6c0.4-0.4 0.8-0.9 1.1-1.3 0.5-0.7 0.8-1.5 1.2-2.3 0.5-1 1.7-1.9 0.5-3.3 0.6 0.6 1 0.9 1.2-0.2-0.5 0.1-1 0.1-1.5 0.1zm-67 68.1h6.2c0.3 0 0.6-0.4 0.9-0.6-1.5-1.1-3.3 0.8-4.5-1-0.2 0.1-0.4 0.3-0.5 0.4 0.2-1 1.7-0.8 1.7-1.9-1 0.1-1.8 0.3-2.4 0.3-0.1 0.7-0.1 1.3-0.2 2.1-1-0.4-3.5 0.7-3.8 1.5 1.7 0.4 2.7 0.1 2.6-0.8zm-75.3-202.3c1.4 0.2 1.7 0 1.7-0.6 1.2-0.9 2.6-1.4 3.2-2.4 0.5-0.8 1.3-1 1.7-1.7 0.1-0.2 0.2-0.4 0.2-0.6-0.2 0.1-0.5 0.1-0.6 0.2-0.9 1-2.4 1.1-3 2.3 0 0.1-0.2 0.1-0.3 0.1-1.3 0.4-2.3 1.2-2.9 2.7zm-16.6 150.5c0.5-0.3 0.8-0.5 1.4-0.8-1.4-0.7-1.5-2.7-3.5-2.1 0-0.2 0.1-0.3 0.1-0.4s0.1-0.2 0.2-0.4c-0.6-0.2-1.1-0.3-1.6-0.5-0.1 0.1-0.1 0.2-0.2 0.3 0.6 0.7 1.3 1.3 1.9 2l0.2-0.2c0 0.3 0.1 0.7 0.1 1h0.8c0.1 0.7 0.3 1.3 0.4 2 0.4-0.2 0.7-0.3 1-0.4-0.3-0.1-0.5-0.3-0.8-0.5zm144.3 22.2c-0.1-0.1-0.2-0.3-0.3-0.4-0.3 0.2-0.7 0.4-1 0.6l-2.4 1.8c-0.7 0.6-1.7 1-1.1 2.5l4.8-4.5zm16.9-43.9c0.1 0.1 0.2 0.2 0.2 0.4 0.5-0.1 1.3-0.1 1.3-0.3 0.3-1 1.2-1.8 0.7-3-0.1-0.2 0.1-0.4 0.2-0.7 0.1 0.1 0.3 0.2 0.4 0.3 0-0.3 0.1-0.6 0.1-0.9s-0.1-0.6-0.1-0.9c-0.8 1.8-0.9 3.9-2.8 5.1zm-186.7-61.2v-1.5c0-0.1-0.3-0.3-0.4-0.4 0.2-0.1 0.5-0.1 0.7-0.2 0.3-0.3 0.5-0.7 0.7-1.1 0.1-0.1-0.1-0.5-0.3-0.6-1.2-0.4-0.5 0.6-0.6 0.8-1.7 0.5-0.4 2.2-1.6 3h1.5zm88.6 128.4c0.1-0.3 0.3-0.7 0.4-1.2-0.6 0-1.3-0.1-1.9-0.1-0.1 0-0.2 0.5-0.2 0.7 0.6 0.3 1 0.4 1.7 0.6zm103-77.5c0.2 0.1 0.3 0.1 0.5 0.2 0.3-1.1 0.7-2.2 1-3.3-0.2-0.1-0.4-0.1-0.6-0.2l-0.9 3.3zm-107.4 75.4h-2.3c0.1 1.3 1.2 0.6 1.7 1 0.1-0.3 0.3-0.6 0.6-1zm77.3-15.4c0.3 0.4 0.6 0.6 0.8 0.9 0.5-0.5 1-0.8 1.4-1.3 0.1-0.1 0.1-0.4 0-0.6 0-0.1-0.4-0.1-0.5 0l-0.6 0.9c-0.3 0-0.7 0.1-1.1 0.1zm32.2-81.5c0.9-2.1 0.9-2.8 0-3.1v3.1zm-113.5 95.9h-2.2c0 1.1 0.8 0.9 1.5 0.9 0.2-0.1 0.3-0.5 0.7-0.9zm-33.2-200c0.1 0.1 0.2 0.2 0.3 0.2 2.3-1.5 2.3-1.5 2.3-2.5-0.5 0.4-0.9 0.8-1.4 1.2-0.4 0.5-0.8 0.8-1.2 1.1zm48.8 203.8c0-0.2 0.1-0.3 0.1-0.5-0.7-0.1-1.4-0.2-2.2-0.3l-0.2 0.2c0.1 0.1 0.2 0.4 0.3 0.4 0.7 0.1 1.4 0.2 2 0.2zm-65-32.9c-0.1-0.4-0.1-0.7-0.2-0.8s-0.6 0-0.6 0.1c0 0.3-0.1 0.7 0.1 0.8 0.4 0.4 1 0.6 1.5 1 0.1-0.1 0.2-0.2 0.2-0.3-0.3-0.4-0.7-0.6-1-0.8zm155.8 5.4c0.3-0.2 0.7-0.4 0.9-0.7s0.4-0.7 0.5-1c-0.1 0-0.3-0.2-0.4-0.1-0.5 0.1-1.1 1.4-1 1.8z"/>
			<path id="path11" class="st0" d="m120.9 34.7c-0.8 1.5-2.4 0.6-3.5 1.3 0.3-0.7 0.3-0.7 1.6-0.9 0.6-0.1 1.2-0.3 1.9-0.4z"/>
			<path id="path13" class="st0" d="m246.6 120.1c-0.2 0.3-0.5 0.5-0.7 0.7-0.2-0.5-1.3-0.6-0.8-1.6 0.4 0.3 0.9 0.5 1.5 0.9z"/>
		</g>
		<g id="g23" fill="#36489e">
			<path id="path17" class="st1" d="m28.7 185.5c5.1 5.2 8.6 10.7 12.6 17.2 1.5 2.5 3.5 4.5 6 6.5-0.5-0.5-1-1.5-1.5-2 5 6.5 12.5 10 19 15.5 0-2-2-0.5-2.5-1.5 10.5 8 23 12.5 35.5 15.5-5.5-1.5-11-4-16.5-6 8 2 15 5.5 23 7-0.5-0.5-1.5-0.5-2-0.5 9.5 0.5 19 3 28.5 2h-8.5 2c-3 0-6 0.5-9-0.5 2.5 0 4.5 1 7 0.5-13.5-3-27-6-39.5-12 2.5 0.5 4.5 2 7 2.5-19-9.5-36-25-45-44.5 0 1.5 1.5 1 2 2-5.5-9-6-19.5-11-28.5 0.5 1 1 1.5 1 2.5-10-29.5-8.5-68 16-90.5-3 5.5-3.5 12-7.5 17 1-2.5 2-4.5 2.5-7-1.5 3.5-3.5 7-4 10.5 1-3 2-6.5 3-9.5-6.5 14.5-13.5 29-14 45 2.5-11.5 7-22.5 10-34 0 3-2 6-1.5 9 1-5.5 5-10 6.5-15.5-0.5 0.5-0.5 1.5-0.5 2 2-2 2-5 3.5-7.5-1 2.5-3 4.5-3.5 7.5 10-23.5 33-37.5 53.5-51-1 1.5-3 1-4 2.5 32-20.5 75.5-17.5 106.5 3.5-0.5 0-1-0.5-1.5-1 5 6 13 8.5 19 14-0.5-0.5-1.5-0.5-2-1 8 5 13.5 13 19.5 20l-10-10c0.5 1 2 1 3 1.5-2-3.5-6.5-4.5-8.5-8 5.5 9 15.5 16 17 26.5-5.5-8.5-10.5-17-18.5-23 21.5 27.5 39 61 36 97v-5c-4 14.5-6 30-14 43-1-7.5 3-14 5.5-20.5-1 2-0.5 4.5-2 6.5 1-6.5 4-12.5 5-19v3c0.5-9.5 1.5-18.5 0.5-28-1 9-1 18-3.5 26.5-1-11 0-22-3-32.5 0 3.5-0.5 7 1 10.5-0.5-2.5-1.5-5-1.5-8 1.5 21.5-3 43.5-13.5 62.5 6.5-16 12-33 12-50.5-0.5 3.5 0.5 6.5-0.5 10 0.5-10.5 0-20.5-3-30.5 3.5 15.5 1 31-0.5 46.5 0-2 0-4 1-5.5-1.5 2.5-1 5.5-2.5 8 1.5-10 3.5-19.5 3-29.5 0.5 22-10.5 41.5-22.5 59 1-2 3-2.5 3-5-1.5 2-2.5 4.5-4 6.5 1-1.5 1.5-3.5 3-5-10 13-22 25-36.5 33.5 1-1.5 3.5-2 4.5-3.5-6 2-10.5 7-16.5 9.5 3.5-1 6.5-3 10-4-2 0-2.5 2-4.5 2.5 2-1.5 4-1 6-2.5-8 4.5-16.5 7-24.5 10.5 3.5-0.5 6-3.5 9.5-4-3 1-5.5 2.5-8.5 2.5 2-0.5 3-2 5-2-4.5 2-9.5 2.5-14 4.5 3-1 6-1 8.5-2.5-6 2.5-12 4-18.5 5.5h1.5c-11 2-22 2-33 0.5h3c-8 0-15-4-22.5-4.5 2.5-0.5 5 1 7.5 1-3.5-1.5-7.5-1.5-11-3 2 0.5 4.5 1 6.5 1.5-5.5-1.5-11-4-16-6.5 1.5 1.5 3.5 0.5 5 2-5-2.5-10-4.5-15-7.5 2 2 5 2.5 7.5 3.5-3.5-1.5-6.5-3.5-9.5-5 1.5 0.5 3 1.5 4.5 2-3.5-2-7-3-10-5.5 2.5 0.5 4.5 2 6.5 3.5-3.5-1.5-6-4.5-9.5-6 2.5 0.5 3.5 2.5 6 3-2.5-2-6-3-8-5.5 1.5 1.5 3.5 2 5 3.5-9-8-18-16.5-25-26.5 0.5 1.5 2.5 2 3 3.5-2.5-3-4.5-7-7.5-10 2 1.5 3 4 5 5.5-1.5-1.5-3.5-3-4-5.5 0.5 2.5 2.5 3.5 4 5-4-6-7-12-9.5-18.5 2 3 3.5 6 6 9-1-2.5-3.5-4-4-7 0 0.5 0.5 1 1.2 1.6 0-0.2-0.2-0.5-0.3-0.8zm201.8-108.7c12.3 17.9 17.3 39.4 21.8 60.4 0-1.5 0-2.5-0.5-4 0 4.5 1.5 9.5 1.5 14 0-7.5-2-15-2.5-22.5 0.5 1 0.5 2 0.5 3-1-15.5-8-30-14.5-43.8-5.6-6.7-4.4-5-6.3-7.1zm-6 5.4c-0.4-0.2 1.8 2.3 2.1 2.8l-1.6-1.7c1.9 2.1 2.5 3.1 2.8 3.6l-1.5-1.7c4.9 6.7 3.8 6.2 8.5 13.8l-1.6-2.6c2.8 5.9 4.2 9.8 7.9 19.1 1.4 3.1 0-0.9-0.6-2.7l1.2 2.9c-5.9-14.6-2.8-12.3-11.8-27.9l3.4 4.6c-2.1-3.2-2.7-4.5-4.9-7.5l3.4 4.4c-2.2-3.4-11-12.7-10.1-12.6-0.1-0.3 3.3 3 5 4.7-8.6-8-2.4-3.4-11.3-11.1 2 1.9 4 3.6 4.2 4.1l-1.9-1.7c0.7 1.3 3.2 4 7.6 8.9-7-6.6 4.3 5.4-2.5-1.9 3.6 4.5 3.7 4.6 1.7 2.5zm-170.3 44.3c0.1 0.7 0.4 1.5-0.2 1.5-0.5-3-0.4-5.4-0.3-7.7-0.8 3.2 0.3 7.7 0.2 11.5 2.7-3.3 0.8-12.4 1.6-19.2-1.2 3.6-1.5 8.6-1.4 13.2-0.9-2.2 1-1.7-0.4-4.4 0.1 1.7 0.3 3.2 0.5 5.1zm157-68.4c0-0.5 1.5-0.2-4.3-4.1-3.6-1.7-1-0.1-0.4 0.5-2-1.1-2-1.1-4.1-2.2 1.3 0.8 1.3 0.8 2.7 1.6-5.5-2.9-5.4-3.2-10.9-5.7 6.7 3.6 16.3 9.3 21.8 13.7 0.9 0.5-0.8-1-4.8-3.8zm-153.5 162.8c7 3.6-3.6-3.9-10.7-9.8 3.6 3 2.7 2.7 5.3 5.1-1.7-1.1 0 0.4 5.4 4.7zm179.6-97.3c-1.4-3.8-1.9-5.3-2.9-8.1 1.2 4.1 2.3 8.6 5 17.9-2.2-7.7 0.5-1.2-2.8-12.7 0.2 1.1 0.4 1.8 0.7 2.9zm-129-80.7c-0.8 0.4-2 1.1-2 1.1 1.5-0.2 2 0.2 12.2-4.6-3.7 1.2-7.1 2.3-10.2 3.5zm-54.4 90.3c-0.2-1.5-0.4-3.6-0.9-5.5-0.6-1.8-0.2 2.4-0.2 4.4l-0.4-2c0.1 2 0.4 4 0.6 5 0.3-0.6-0.1-5.6 0.9-1.9zm104.4 113.8c-0.3-0.1-3 0.8-6.1 1.6l2.8-0.8c-0.6 0-1.3 0.1-6.6 1.6 3.2-0.8 1.7 0 1.7 0.2 3.6-1.1 5.8-1.8 8.2-2.6zm52.3-183.1c-2.8-1.8-4.8-3-6.7-4.2 1.8 1.2 1.5 1.4 6.8 4.7 0-0.2 0-0.3-0.1-0.5zm-157.9 75.3c0-0.1-0.4-1.9-0.4-1.9 1.3 5.5-1.9-5 0.5 5 0-1 0-2-0.1-3.1zm156.3-75.4c1.7 1.4 3 2.4 4.2 3.5 5 3.9 0.3-0.1 1.1 0.4-1.6-1.2-3.2-2.3-5.3-3.9zm-91.2-23.4c0.9-0.4 3.9-1.6 5.4-2.1-1.4 0.3-1.1-0.1-5.5 1.6-4.4 2.2-0.3 0.5 1.4-0.2-0.3 0.2-0.8 0.4-1.3 0.7zm-59.4 123.9c-1.4-1.4-1.2-0.8 1.1 2.9-0.4-0.9-0.7-1.8-1.1-2.9zm153.8-97.3c2 1.7 3.1 2.7 4.2 3.7 4.1 3.5 2.1 1.5 0.6 0.1-0.6-0.4-2.5-1.9-4.8-3.8zm-175.2 133.8c0.5 0.5 0.9 1 1.4 1.6-1.9-2.8-1.9-2.8-5.7-7.6 0.8 1.2 1.7 2.4 2.4 3.5 0.7 0.9 1.3 1.7 1.9 2.5zm165.7-143.3c-0.2-0.1-2-1.1-2-1.1-0.6 0-1.1 0 3.8 2.6-0.4-0.4-1.1-1-1.8-1.5zm39 72.4c-1.1-3.3-0.2-0.1 0.1 1.3 1.9 7.5 0.3-0.4-0.6-4 0.2 1 0.3 2 0.5 2.7zm-101.6-100.5c-0.2-0.1 3.5-1.1-4.9 0.5-1.3 0.4 2.7-0.2 4.9-0.5z"/>
			<path id="path19" class="st1" d="m80 224.8c7.6 3.1 2.4 1.5 5.8 3-3.5-1.4-3.5-1.4-4.3-2-0.3-0.3-0.9-0.6-1.5-1z"/>
			<path id="path21" class="st1" d="m50.4 77.9c-2 5.3-3.1 7.7-3.3 8.1 0.9-2.7 2-5.1 3.3-8.1z"/>
		</g>
		<g id="g423" fill="#4058a7">
			<path id="path25" class="st0" d="m219 87.5c3.8 4.2 6.3 9.2 8.8 14.2 0-1.5-1.5-2.5-2.5-3.5-0.5 0.5 2 0.5 0.5 1.5-0.5-2-2.5-3-3.5-5 6.5 12 12.5 24.5 12.5 38.5-1-3.5-1-7-3-10.5 2.5 10.5 3.5 21.5 2 32.5 1-5.5 1.5-10.5 1.5-16v15c2-3-1.5-7 2-9.5-1 4 0 7.5-0.5 11.5-0.5-2.5 0.5-5 0.5-7.5 1.5 20.5-8 40.5-20 57 7-13.5 16-26.5 18-42-1.5 5-2.5 10-4.5 14.5 2.5-6 3-12.5 5-18.5-6.5 17-12 35-23 50 2 0 1.5-3 3.5-3-1 0.5-1.5 1.5-2 2.5l0.5-0.5c-10.5 12-23 21.5-37 29 0.5-2 3-1.5 4-3-7.5 4-15 8-23.5 10 2 0.5 4-1.5 6 0-8.5 2.5-17.5 3.5-26 5.5h1.5c-39 4.5-82.5-12-102-47.5 11 13 23.5 25 38.5 33-1-0.5-1.5-1.5-2.5-2 17.5 10 38 13 58 14-15.5-1-31-4-45.5-9.5 7 1 13 5 20 5-14-4-28-9-39.5-17.5 14.5 10 31.5 15.5 49 18.5-4-1-8-0.5-11.5-2.5 34 6 71.5-0.5 97-25-25 21.5-60 31-92.5 25 30.5 5 64-2 88-22.5-11 7-21.5 15.5-34.5 17.5 3.5 0 6.5-2.5 9.5-3.5-3.5 2-7.5 3-11 4 7.5-2.5 15-5.5 21.5-10-11.5 6-23.5 9.5-36 12 26-6 52-19.5 66.5-43-0.5 1-1 2.5-2 3 1.5-3 3-5 5.5-7-1.5 1-1.5 3-2.5 4.5 5-10 12-19.5 12.5-31-1.5 5-5 9.5-6 15 1-0.5 1-2 1.5-3-15 38-56 61.5-96 62.5 1.5 1 3 0.5 4.5 0.5-8.5 0-17-1-25.5-2.5 24 3.5 49 0.5 70.5-10.5-6.5 1.5-12 5.5-19 5.5 3-1 6.5-1 9-3.5 1-1 0.5-1-0.5-0.5 9.5-4 17.5-10 26.5-15-9 6.5-18 12.5-28 17 12-4 22-12 32-19-1 1.5-3 2-4 3.5 16.5-13.5 27-32.5 34-52.5-8.5 12.5-10.5 30-23 39.5 2.5-7.5 8.5-13 11-20.5-1 2.5-3.5 5-4 8 0.5-1 1.5-2 1-3.5-8.5 13.5-19.5 25-32.5 34 2.5-3 6-4.5 9-7-1 0.5-1.5 2.5-3 2 5.5-8.5 15-13.5 19-23-2.5 3.5-6 6-7.5 10l1-1c-13.5 14.5-31.5 25-51 30 6 1.5 11-2.5 17-2.5-15 2.5-30 4.5-45.5 3h2c-2.5-0.5-5.5-0.5-8-1.5 5 0 9.5-1 14.5-0.5-42.5-7.5-84.5-38.5-89.5-83.5-6-52 33.5-106 85.5-113.5-54.5 11.5-96 71.5-79.5 126.5-5.5-17.5-3-37 5.5-53-18 45 11.5 102 59.5 112-0.5-1-1.5-1-2.5-1.5 14.5 6.5 30.5 5.5 46 3-9.5 1-19 2.5-28.5 0.5 4 0 7.5 0.5 11.5-0.5-1.5-1.5-3.5 0.5-5-1 4.5 0 9.5 1 14 0.5-2-1.5-5 0.5-6.5-2.5 17 0.5 34.5-3.5 47.5-15-6 2.5-11.5 7-18.5 8 13-4.5 26.5-11 32-24.5-1 0-1 1-2 1 1.5-3.5 4-6 5-9.5l-2 2c2.5-2.5 2.5-6.5 4.5-9.5-0.5 0.5-1 1.5-1 2 0.5-1.5 0.5-2.5 1-4 0 0.5-0.5 0.5-0.5 1-0.5-2 1-3.5 1.5-5l-0.5 0.5c0.5-1 1.5-2 1-3-0.5 1-2 1.5-3 2 9.5-22.5 4-50-13.5-67 2 2.5 4.5 5 6.5 7.5-8.5-15-24-23-39-31-1.5-1-3 0-3 0-8.5-6-17.5 0.5-25.5-1 4.5-1 8.5-4 13.5-4-13.5-0.5-25 7.5-35.5 15 1.5 0 1-2 2.5-2-1.5 1-2.5 2.5-4 3.5 1.5-0.5 2.5-2.5 4-3-3.5 4.5-8 8-11.5 13 3-3 4-7 7.5-9.5-6 5.5-9.5 13-13.5 20 0-0.5 0.5-0.5 0.5-1-1.5 7.5-5 14-5 22 0-1 0-2.5-0.5-3.5-2.5 21.5 6 44 22.5 58-9.5-5-16-14-25-19.5 0 6.5 6 10 9 15-0.5-1.5-1.5-2-2.5-2.5 2.5 5 7.5 8 10.5 13-12.5-6-18-19-24.5-30.5 0.5 4 3.5 7.5 3.5 11.5-2-3.5-5-6.5-6.5-10-0.5 1 0.5 2.5 0.5 3.5-2-2.5-3.5-5.5-3.5-8.5-0.5 9 3.5 17 6.5 25-4-5-7-10.5-8.5-16.5 1 1 1.5 2.5 2.5 3.5-1.5-1.5-1-4-2.5-6 0 0.5 0.5 1 0.5 1.5-4-9.5-7-20-3.5-30v1.5c3.5-7 4-15 4-23-4 7.5-4 16-8.5 23.5 0-3 2-5 0.5-8v1c-1.5-6.5-0.5-12.5 2-18.5l-0.5 0.5c2-14 9.5-26.5 17.5-38.5-2.5 3.5-6.5 5.5-8 9.5 5-9.5 12.5-17.5 21-24.5-26 20.5-36 55-32.5 87-8-38 12-80.5 48-96 28-12 60.5-10 87 5-16-8-34.5-12.5-52.5-12.5 4.5 1.5 9.5-0.5 14 1-3-0.5-6.5 0.5-9.5-0.5 8.5 1.5 17 2 25.5 4.5-1-0.5-2.5-0.5-3.5-1 12.5 2.5 25 6.5 35 14-5-3.5-10.5-6.5-16.5-8 1 1 2.5 0.5 3.5 1.5-1.5 1.5-2-0.5-3-0.5 4.5 2.5 9 5.5 13 8.5-0.5-1-2-0.5-3-1.5 12.5 8 21.5 19.5 30 31.5-5-5.5-9.5-12.5-15.5-17 2.5 1.5 4.5 4.5 7 6.5-8-7.5-16-14.5-26-19.5 22.5 13 39 34.5 48 58.5-1.5-4-3.5-7.5-5.5-11 1.5 3 3.5 5.5 4 9-1.5-3-3.5-5.5-4-8.5 1 6 4.5 11.5 5 17.5 0-2.5-2.5-3.5-2-6 0 8 4 16 2.5 24.5-2.5-22.5-10.5-44-24.5-62 2.5 2 5 4.5 7 7-12.5-16-29.5-28.5-49-35.5 5 3 10 5.5 15.5 7.5-6.5-2.5-13-5.5-19.5-7.5 3.5 3 8.5 3 12.5 5-2-1-4.5-0.5-6.5-2 6.5 3.5 13.5 6 20 10-12.5-5.5-25.5-12.5-39.5-13h2.5c-11.5 0.5-23.5-3-35 0.5 0.5-0.5 1.5-0.5 2-1-7 2-13.5 4.5-19.5 7.5 4-2.5 7.5-4.5 12-5.5-28.5 6.5-48 32.5-56 59.5 2-2.5 2-5.5 3-8-0.5 4.5-2.5 8-2.5 12.5 4.5-17.5 12-37 29-46.5-1.5 0.5-2 1.5-3 2.5 14-13 33.5-18 52-20.5-1 0-1.5 0.5-2.5 0.5 20.5-0.5 40.5 5 58 15.5-1.5-1.5-3.5-2-5.5-3 12 7.5 22 17.5 31 28.5-0.5-2-2.5-3.5-3.3-5.3 0.2 0.2 0.4 0.4 0.5 0.6zm-40.1-38.7c2.1 0.6 2.1 0.6 4 1.2-3.8-1.2-2.9-1.3-6.6-2.3-0.7 0.1 1.2 0.6 2.8 1.2l-2.2-0.5c4.1 1-3.4-0.1 6.1 2-1.2-0.6-2.7-1.1-4.1-1.6zm51.4 49c-1-1.6-2-3.1-3-4.6 2 3 3 6.5 5 9.5-1-8.5-7.5-14-11-21.5 1.5 2 3 4 5 6-7.5-9-15-18-25-24.5 13 10.5 23.5 23.5 30.9 38.3-0.6-1.1-1.3-2.1-1.9-3.2zm-34.6-41.9c0 0.4 1 0.8 2 1.1-6.1-2.5-11-4.5-17.5-6.2 3.7 1 7.6 2.3 10.6 3.7-2.8-0.5-4-1.7-6.7-2.1 6.7 2.1 12.2 5.2 18.6 8.3-4.2-3.9-13-7-19-9.7 4.6 1.3 7.8 3 12.6 4.5-3-1.3-5.1-2.4-6.3-3.6 0.9 0.3 1 0.6 1.1 0.9-1-0.6-2.8-0.8-3.8-1.4 2.7 0.5 2.2 1.7 5 2.3-3.9-1.4-7.6-2.4-11.5-3.6 4.9 1.6 9.9 3.5 14.9 5.8zm-58.1-17c5-0.6 5.2-0.2 10.6-0.5-6.1-0.9-20 1-33.6 5 4.6-1.8 5.1-1.5 7.2-1.9 4.7-1 9.8-1.9 15.8-2.6zm-32.7 8.7c-3.6 1.6-6.6 4.1-9.6 6.1 17.5-9 37-14.5 56.5-14-2 0-3.5 0-5.5 0.5 2.5-0.5 4.5-1.5 7-0.5-2.5 1-4.5 0.5-7 0.5 1 1 2 0 3 0.5h-2c1.5-1 3.5-0.5 5-0.5-1.5 1-3.5 0-5 1 9-1.5 17.5 2 26.5 2-2-1-4.5-1-6.5-1h3c-20-5-41-2-60.6 3.1-1.3 0.6-3.2 1.5-4.8 2.3zm113.3 92.8c0.1 15.3-3.9 29.8-9.9 43.8 7.5-15.5 13-33 9-50.5 1 1.5 0.5 3 0.5 4.5 0 0.1 0.3 1.4 0.4 2.2zm-128.7-79.4c12.4-9.8 27.8-14.3 42.8-19.8-21.5 4.5-42 14-56.5 30.5 3-1.5 5.5-4 8.2-6.1 1.6-1.4 3.5-3 5.5-4.6zm121.8 58.6c-1.5 18.6 3 37.1-2 55.1 0-0.5 0.5-0.5 0.5-1-1 1 0 3-1 4 4-10 5.5-20.5 7.1-31.1 0-7.1-1.8-17.8-4.6-27zm-45.5-45.9c-0.5-0.5-2-0.5-2-0.5 0.5 6 9 7 13 10-1.5-0.5-2.5-1.5-3.5-2.5 6 1 9.5 6 14 10-0.5-11-13.5-9.5-19.5-15.4-0.5-0.5-1.4-1.1-2-1.6zm63.6 44.6c-0.2-8.5-7.6-20.3-14.3-29.7 3.6 6.6 8 14 11.2 21.6-0.2 0.3 1.6 4.2 3.1 8.1zm-37.9-29.4c3.3 5 2.1 7.1 11.6 18.8 0.2-2.9-5.1-11.2-11.6-18.8zm-118.4 13.6c0 0.2 0.5-2.2 0.5-2.2-2 7.6-2.1 2-3.9 13.8 0.3 0.8 0.8-3.3 0.9-0.2-0.5 2-1.1 0.4-0.7 8.7 0.9-1.6 1.8-8.5 3.1-13.5-0.6 0.2-1.1 0.3-1.6 0.2 1.1-5.7 0.7 3.8 1.9-4.3-0.3-0.4-1.3 5.4-0.5-1.5 0-0.3 0.2-0.7 0.3-1zm-0.1-20.5c-3.5 6.7-3.5 3.8-7.9 15.6 2-3.5 3.6-5.1 8.5-15.3-0.5 1.1-1.1 2.5-1.7 3.7 1.9-3.4 3.3-5.5 6.4-11.1-4.5 7.2-4.7 6.9-5.3 7.1zm138.4 93.6c2.2-5.2 5.8-22.7 5.8-29.9-0.8 5.3-2.3 16.7-5.8 29.9zm-19.5-94c-1-0.4-1.8-1.1-2.5-1.7 3.8 3.9 11 7.4 15.6 12-0.2-0.8-0.7-1.3-1.4-2.1-10.4-7.7-10.4-7.7-11.7-8.2zm-10.7-35.8c-2.4 1.7 1.9 2.2 2.9 3.3-0.1-0.9-3.5-0.3-3.6-1.2 3.6 1.2 5.7 2.9 10.1 4.1-5.4-3-4.1-3.5-9.4-6.2zm-89.2 40.4c1.4-2.3 1.1-0.8 2.9-3.6-1.7 1.2-3.3 2.1-7 9.5-1.7 4.6 2.6-4.1 2-2.1 0.7-1.4 1.3-2.5 2.1-3.8zm93.5-36c-5.6-2.3-21.7-5-35.8-5 7.2 0 14.2 0.6 28.3 2.5 2.9 0.9 5.2 1.7 7.5 2.5zm-114.4 98.3c0-2.2 0.6-3.2-2.1-6.7 1.1 2.6 0.4 5.2 3.3 8.4-0.3-0.6-0.7-1.1-1.2-1.7zm33.9-70.6c1.2 0 7.1-4.7 13.1-8.2 0.7-1.1-2.4 0.6-6.5 3.3 0 0 1.2-1 0.8-0.6-2.3 1.6-4.5 3.2-7.4 5.5zm-44.8 34.7c0.4 4.4 1.4 3.3 1.6-4.3 0.5-4.3-0.6 2.7-0.7 1.1-0.3 1-0.5 2-0.9 3.2zm152.8 0.7-0.9-1.6-0.5 0.5c-1-1.5-2-3.1-3.1-4.6 0.9 1.7 0.7 2.5 4.6 8.6 0.1-0.3 0.2-0.5 0.3-0.7 0.1-0.4-0.2-1.4-0.4-2.2zm-107.9-67.1c-2.1 1.3-3.3 2-5.8 3.8 2.3-1.5 0.8 0.1 4.5-2.4 3.8-2.1 1.4-1 0.1-0.3 9.2-5 6.2-2.4 14.8-6.3-5.3 1.9-5.2 1.2-13.6 5.2zm102.8 127.3c0.2-0.2 0-0.9 0.3-1.2-2.3 5.7-5 10.9-7.9 16.7 1.2-1.1 5.2-9.4 7.6-15.5zm5.4-63.8c0.5 0.7 1.3 2.2 1.3 2.2-2.5-4.4 0.9-0.5-2.6-6.5-0.3 0.4-1.5-0.5 1.3 4.3zm-142 34.5c1.5 0.4 0 2.4 2 2.9-2-3-1-6.5-2.4-9.7 0.2 2.5 0.3 4.7 0.4 6.8zm133.9-45.7c0-0.6 0.1-1 0.3-1.3-3.7-3.5-3.7-3.3-0.3 1.3zm14.4 12.1c0.3 0.7 0.3 0.7 1.3 2.3-0.5-1.8 1.3 0.5-2-5.3 0.1 1 0.4 2 0.7 3zm-114.7-64.9c-0.1 0.1 2.6-1.6 2.6-1.6-7.1 4.1-9.8 5.3-16.8 10.6 4.5-3.1 9.2-6.1 14.2-9zm-42.9 70.9c0-3.4 0.7-9.6 1-12.9 0.1-3.2-0.7 2.8-1 6.9-0.4 6.1-0.3 6.9 0 6zm18.2-43.3c-0.6-0.2-4.2 6-6.1 9.4 1.8-3.2 3.8-6.3 6.1-9.4zm24.7 146.2c-1.1-0.9 0.1-0.6-6.7-2.3 2.4 0.9 4.6 1.6 6.7 2.3zm117.6-105.9c1.4 3.3-2.2-2.4 0.9 3.9-0.4-1.4-0.7-2.7-0.9-3.9zm-82.7-73.3c-4 0.8-4.5 0.5-10.6 2.2 3.3-0.6 4.3-0.8 10.6-2.2zm-81.3 97c-0.2-1.6-1.1-5.3-1.9-9 0.3 2.3 1.1 6.4 1.5 8.6 0.3 0.8 0.3 0.4 0.4 0.4zm15.3-50.3c0.3-0.9 0.3-0.9 0.6-2-1.1 2.7-2.3 4.6-3.2 7.8 0.8-2 1.6-3.9 2.6-5.8zm22.4-20.4c-0.8 0.9 0.5-0.4 0.5-0.4-0.8-0.1-1.8 0.4-4.6 2.7 1.2-0.6 2.5-1.4 4.1-2.3zm122 22.9c-0.4-0.5 1.6 1.8 1.6 1.8-1.3-1.9-3.8-4.9-7.1-8.3 1.9 2.1 3.7 4.3 5.5 6.5zm-70.9-50.1c-6 0.8-10.4 1.6-14.7 2.7 0.3 0 0.5-0.1 0.8-0.1 3.5-1 10.4-1.9 13.9-2.6zm76.6 88.2c0.7 1.7-0.5 2.2 1.4 5-0.3-1.2-0.6-2.3-1.4-5zm-50.6-76.9c-2.5-0.7-4.9-1.3-7.7-1.9-2.1 0.1 3 0.9 7.7 1.9zm38 81.8c0.9 3.7-1.4-0.8 0.6 6.1-0.2-2.1-0.4-4.2-0.6-6.1zm13.5 0.2c0.1 0.1-0.5-1.8-0.5-1.8 1.4 5.6-0.6 0.7 1.2 8.4-0.2-2.3-0.4-4.5-0.7-6.6zm-29.2 87.9c2.5-2.1 4.9-4.4 8.1-7.7-2.6 2.6-5.2 5.1-8.1 7.7zm40.3-116.3c-0.4-0.9-0.7-1.5-1.3-2.6 0 1.6 2.4 4.4 3.1 6.5-0.4-1.1-1.1-2.6-1.8-3.9zm-3.4-4.5c1.9 2.6 1.1 0.9-2-3.9 0.7 1.3 1.3 2.6 2 3.9z"/>
			<path id="path27" class="st0" d="m236.1 87.3c4.8 9.4 8.3 18.9 10.3 29.4 0-1-1.5-2-1-3.5 1.5 13 3 25.5 4 38.5 1.5-7.5-1.5-15 1-22.5 0 10.5 2.5 21.5-1 32-1.5-24-6-48-15-70 0.5 0.5 0.5 1.5 1 2-4-7-9-13-13-19.5 0.5 2 3 2 3.5 4-5.5-6.5-11.5-12.5-17.5-18.5 8.5 6 14.5 14 21.5 21.5-3-4-6-8-10-11.5 5.5 4.5 9 10.5 13.5 16 0-1-1.5-1.5-1.5-2.5 1.5 1.5 2.5 4 4 5.5-0.5-0.5-0.5-1.5-1-2 1 1 1.5 3 3 4-0.5-2.5-3.5-3.5-3.5-6 0 0.5 0.5 1 0.6 1.4 0.3 0.6 0.7 1.1 1.1 1.7zm10.9 45.9c-3.3-16.1-2.9-19.7-8.1-33.5 3.8 6.8 2 4.4 5.5 11.4-2.7-6.3-5.8-12.2-7.8-16.2 5.4 12.8 7.3 21.9 8.8 32.3 0.4 1 0.9 3.1 1.6 6zm-8.6-35.5c1.6 1.3-4.4-8.4-7.7-13.5 0.2 1 2.1 3.9 4 7.3-0.2-0.6-0.5-1.5-2.1-3.9 7.3 10.5 0.5 1.7 4 7 0.2 0.3 1.2 2 1.8 3.1zm1.8-1.3c-0.5-0.9-1.9-3.1-1.9-3.1 4 7.9-2.1 0.2 4.9 13.1-1.4-4.2-2.4-7.5-3-10zm-3.7-5.2c0.2-0.2 2 2.1-3-5.5-3.6-3.9 3.6 6 3 5.5z"/>
			<path id="path29" class="st0" d="m236.1 87.3c-3.7-3.6-5.7-8.1-8.7-11.6 0.5 2.5 4 3.5 4 6.5-3.5-5-7-10-12-14 0 0.5 0.5 0.5 0.5 1-1.5-3-4.5-4.5-7-7 3.5 2 6 4.5 8.5 7.5-1-2-3-3-4.5-5 3 2.5 6 5 8.5 8-17-31.5-59-41.5-93-41.5 36.5-4 74.5 12.5 96.5 42-1 0-1.5-0.5-1.5-1.5 3 6 6.5 11.5 9.8 17.1-0.4-0.5-0.8-1-1.1-1.5z"/>
			<path id="path31" class="st0" d="m169.1 37.9c-15.3-2.2-31.3-3.2-46.8-0.2 3-0.5 6-1 9-2-6.5-0.5-12 2.5-18 3.5 3.5 1.5 6-2.5 9-1.5-8.5 3-18 4.5-26 10 22.5-14.5 50.5-15.5 76-9.5-1 0-2.5 0-3.4-0.3z"/>
			<path id="path33" class="st0" d="m58.2 174.2c0.5 0.3 1.2 0.7 0-1.2-2.9-2.6 1.2 3.6-0.4 2.7-10.8-22-4.9-16.4-7.5-28 0.9 7 2.7 14.3 6.1 23-1.5-3.2-0.8-3.4-1.9-6.3 1.9 3.1 2.5 4.5 4.5 7.4-0.6-2.1-1.4-4.6-2.5-7.5 4.3 8.2 2.6 8.6 3 11.4-0.4-0.5-0.8-1-1.3-1.5z"/>
			<path id="path35" class="st0" d="m47.4 125.9c-0.5-2.6 0-4 0.2-5.5-4.3-0.9-1.8 9.1-3 12.8 0.1-0.6 0.3-1.9 0.4-2.5 0.2 1.4 0 2.7-0.4 3.2 0.6-1.1 1.1-2.3 1-4.4-0.2 4.6-2 7.9-0.8 13.7-0.4-2.5 0.7-4 0.2-6.6-0.6 3.5 1.5 9.5-0.2 11.1-0.6-3.6-1.6-8-1-10.9 0.3 0.7-0.1 0.6 0.2 1.3-0.1-11.8 1.8-22.4 5.8-30.3-2.2 4.7-2.1 11.8-2.4 18.1v0z"/>
			<path id="path37" class="st0" d="m118.3 197.3c-16.2-3.7-16-6.4-19.2-9.5 11.9 3.5 9 4.8 13.5 6.5 1.9 1 4.2 2.1 5.7 3zm-10.2-4c-0.9 0-1.6 0.1 3.8 1.1-1.4-0.4-2.6-0.7-3.8-1.1z"/>
			<path id="path39" class="st0" d="m210.1 51.6c-10.3-5.4-19.8-12.4-31.3-16.4 14 4 27 12 38.5 21-3.5-2.5-7.5-4.5-11-7 1 0.5 2 0.5 2.7 1.6 0.6 0.3 0.5 0.3 1.1 0.8z"/>
			<path id="path41" class="st0" d="m48.6 147.9c2.1 6-0.4 1.1-2.8-5.1-0.4-8.8 0.8-13.1 2.1-18.1-0.1 1.3 0.3 5.1-0.1 4.2 0.2 0.4 0.1-1.2 0.3-0.8 0.1 8.7-0.4 13.9-0.7 18.1 0.8 1.6 1.2 2.4 1.2 1.7z"/>
			<path id="path43" class="st0" d="m73.8 63.8c-4.6 4.3-11.9 15.4-12.7 13.5 4.7-6 16.7-20.7 15.2-16.6-0.9 0.8-2.2 2-3.2 3.1h0.7z"/>
			<path id="path45" class="st0" d="m193.3 64.2c-8.5-3-15.5-8.5-24.5-10.5 23 6 42 21 56 40-9.5-11-19-22-31.3-29.4-0.1-0.1-0.1-0.1-0.2-0.1z"/>
			<path id="path47" class="st0" d="m73.3 69.2c-2 2.5-4 5-5 8v-0.5c-2 3-3.5 6.5-5.5 9.5 2-7.5 7-13.5 11.5-19.5 0 1-0.5 1.5-0.8 2.2 0 0-0.1 0.1-0.2 0.3z"/>
			<path id="path49" class="st0" d="m62.2 77.1c-0.6 2.7-1.5 4.8-2.7 5.4 0.3-1 0.9-1.3 1.5-2.4-3.3 5.8-6.2 11.2-9.1 15.4 2.4-6.6 5.5-12.9 9.1-16.4 0.4-0.7 0.8-1.4 1.2-2z"/>
			<path id="path51" class="st0" d="m203.7 68.5c12.6 10.2 10.7 9.9 16.2 16.2 0.5-0.2-7.5-7.5-7.7-8.2 0.6 0.6 0.3 0.7 0.9 1.3-8-7-16.2-13-21.5-16.6 3.4 1.8 4.4 2.5 7.8 4.6l-2.4-1.3c5.8 3.6 5 3.8 12.2 8.9-1.2-1.3-1.2-1.7-5.5-4.9z"/>
			<path id="path53" class="st0" d="m156.6 230.6c4.2-0.2 21-8.9 31-15.9-14.3 10.5-21.3 13.5-31.3 17.1l2.9-1.3c1-1.1-5.1 1.3-6.1 1.2 1.9-0.5 2.7-0.8 3.5-1.1z"/>
			<path id="path55" class="st0" d="m221.9 68.2c-1.9-2.4-16.1-12.3-17.4-14 7.7 5 8.3 6.2 18.4 14.1-0.4-0.8-3.2-3.3-3.5-3.9 1.4 1.2 2.7 2.4 2.2 2.1 3.7 1.4-14.6-12.5-12.9-12.9 11.5 9 21.2 22 13.2 14.6z"/>
			<path id="path57" class="st0" d="m133.4 251c-0.3 0.6 7.2-0.3 7.1 0.3-2.6 0.5-3 0.5-5.5 0.9 0.8 0.1 1.5 0.1 2.1 0.2-12.7 1-5.1-0.4-16 0 2.6-0.1 5.2-0.4 6.3-0.3 0.5-0.4-4.4-0.4-9.5-0.6 7.8-0.4 4.5 0.1 7.7 0 0 0-4.4 0 3.1-0.4 1.6 0 3.1 0 4.7-0.1z"/>
			<path id="path59" class="st0" d="m85 54.4c-5.6 5.4-8.9 8.5-14.7 16.4 12.8-17.2 14.8-17.4 16.8-18.4-0.7 0.7-1.4 1.4-2.1 2z"/>
			<path id="path61" class="st0" d="m44.1 122.9c0.8-8 2.1-5.7 3.6-16.4-0.2 1.7-0.2 1.7-0.5 3.4 1-1.1 2.6-7.4 4-10-3.1 8.5-5.4 15.7-7 24.2-0.1-0.5-0.1-0.9-0.1-1.2z"/>
			<path id="path63" class="st0" d="m32.5 130.6c0 2-0.5 0.8-1-0.4 0.3-3.8 0.3-15.7 1.1-11.8 0.1 6.2-0.4 6.5 0.1 12.6 0-0.1-0.1-0.2-0.2-0.4z"/>
			<path id="path65" class="st0" d="m38.6 97.1c1.8-3.9 1.3-9.4 5.3-12.4-0.5 5.5-5.5 9.5-5.8 15.1 0.1-0.9 0.3-1.8 0.5-2.7z"/>
			<path id="path67" class="st0" d="m71.7 228.1c-0.4-0.3-0.8-0.8 1.2 0.3 9.5 4.7 18.4 8.4 24.6 10.8-9.7-3.1-21.7-8.3-25.3-10.8-0.2-0.1-0.3-0.2-0.5-0.3z"/>
			<path id="path69" class="st0" d="m74.5 202c4 2.9 8 5.5 11.9 7.8-4.5-2-6.6-3.1-9.2-5-4.3-2.9-4.5-3.5-2.7-2.8z"/>
			<path id="path71" class="st0" d="m154.5 233c-1 0.3-1 0.3-2.5 0.8 0 0.2 1.5-0.3 1.5-0.2-10.9 2.9-5.3 0.3-12.4 1.7 11.5-3.1 7.6-0.9 14.9-3-0.5 0.4-1 0.6-1.5 0.7z"/>
			<path id="path73" class="st0" d="m104.4 231.6c-0.9-0.6-4.5-1.6-3.1-1.8 0.4 0.3 2.9 1 3.1 1.2-0.6-0.6-1.5-1.2-2.5-1.8 6.4 0.9-1.1 0.3 2.4 1l3 0.3c-8.3-0.6 3.5 1.3 8.1 2.1-1.1-0.2-5.3-0.5-6.5-0.8h-2.9s-1.1-0.3-1.7-0.3z"/>
			<path id="path75" class="st0" d="m54.2 143.7c-1.2-4.3-1.9-8-1.7-7.8 1.2 2.2 4.5 13.2 4.8 14.8-0.6-1.7-1.4-3.5-1.9-5.3 0.5 1.8 0.2 1.6 0.8 3.3-0.6-1.7-1.3-3.3-2-5z"/>
			<path id="path77" class="st0" d="m155.3 234.1c-1.2-0.1-2.7 1.1-4.1 1.7 3.9-0.7 7.8-1.8 12.4-3.9-5 1.8-13.8 6.3-15.8 4.3 0.7-0.3 0.7-0.3 1.5-0.6 2.1-0.5 4.1-1 6-1.5z"/>
			<path id="path79" class="st0" d="m254.5 133.1c1.1 8.7 2 18.1 1.5 26.9 0.1-6.1-0.4-12.3-0.6-17.9 0.2 0.8-0.3 0.3-0.1 1.1 0.1-3.9-1-9.2-1.4-13.3 0.4 1.3-0.4 1.2 0.6 3.2z"/>
			<path id="path81" class="st0" d="m117.3 35.5c10.8-3.3 8.8-1.8 14.2-2.7-12.2 3.6-8.5 1.2-16.1 3.5 0.6-0.3 1.2-0.5 1.9-0.8z"/>
			<path id="path83" class="st0" d="m206.6 69.3c0.6 0.4 1.5 1.3 2 1.8-9.7-6.3-12-8.1-14.6-10 4.3 2.1 7.4 4.1 8 4.7 1.5 1.1 3.1 2.3 4.6 3.5z"/>
			<path id="path85" class="st0" d="m57.2 102.4c1.3-5.7 2.7-11.7 4.9-17.1 0.1 2.4-1.4 2.5-1.2 4.9 0.8-2.1 1.3-4.1 2.1-6.3-2 7.9-5.1 13-6.2 21.1 0-0.8 0.2-1.7 0.4-2.6z"/>
			<path id="path87" class="st0" d="m56.7 142.4c-1.3-8.1-1-12.3-1-19.2 0.2 4.4 1.4 18.5 1 19.2z"/>
			<path id="path89" class="st0" d="m236.3 96.2c1 4 3.5 8 4 12-2-5.5-4-10.5-6.5-15.5 1 0.5 0.5 2.5 2 2.7 0.1 0.3 0.3 0.5 0.5 0.8z"/>
			<path id="path91" class="st0" d="m99.9 231.2c-5.5-1.5-8-2.7-6.4-2.7-1.5 0 5.9 2 10.3 3h1c-2-0.1-1.9 0.2 1.2 0.8-3.1-0.4-2.1-0.6-6.3-1.2z"/>
			<path id="path93" class="st0" d="m68.8 214.2c-0.3 0.6 8.7 6.1 8.3 6.7-6.5-4-8.6-6.1-9.7-7.6 0.5 0.3 0.9 0.6 1.4 0.9z"/>
			<path id="path95" class="st0" d="m117 240.6c9.4 0.6 17.2 0.6 23.8 0.4-8.9 0.8-13.1 0.2-23 0-2.1-0.2-0.6-0.3-0.8-0.4z"/>
			<path id="path97" class="st0" d="m99.9 231.2c-3.4-0.3 1.8 0.9 2.6 1.4 0.2-0.2-0.8-0.5-0.7-0.7 10.3 1.6 1.4 1.2 3.9 2-5.5-1.4-4-1.7-10-3.5-1.8-0.7 1 0.1 4.2 0.8z"/>
			<path id="path99" class="st0" d="m65.2 79.5c-3.1 6.7-3.7 7.7-3.9 7.2 2.4-5.3 7.4-15.2 6.8-12.9-1 1.8-2 3.7-2.9 5.7z"/>
			<path id="path101" class="st0" d="m71.6 69.3c7.1-9.8 6-7.4 7-7.9-4.6 5.7-6.7 8-8.4 10 0.5-0.7 0.9-1.4 1.4-2.1z"/>
			<path id="path103" class="st0" d="m48.1 128.6c-0.4-6 1.7 5.7 0.4-4.3-0.1-0.3-0.1 1.4-0.3 1.1-0.1-7.4 0.4-8.4 1-5.1-0.5 2.8-0.9 5.4-0.9 9.8 0 0-0.3-2.1-0.3-1.8 0.1 0.1 0.1 0.3 0.1 0.3z"/>
			<path id="path105" class="st0" d="m121.2 252.4c-7.5 0.2 2 0.3-2.9 0.6-3.6-0.6-12.9-1.8-14.9-2.6 8.6 1 7 1.5 17.8 2z"/>
			<path id="path107" class="st0" d="m214.3 80.4c-1-1.7-6-6.2-9.4-9.1 4 3.5 12.7 11.4 13.5 13.1-1.4-1.4-2.7-2.7-4.1-4z"/>
			<path id="path109" class="st0" d="m136.2 26.9c-2.5 0.8-5.9 1.9-6 2.1 1.5-1-3 0.6-9.2 2.6 9.5-3.2-1.7 0.2 2.6-1.5 5.2-1.5 4.7-0.9 12.6-3.2z"/>
			<path id="path111" class="st0" d="m58.6 204c3 3.4 4.4 5.4 11.2 10.7-6.8-5.3-10.1-8.7-12.5-11.8 0.5 0.4 0.9 0.8 1.3 1.1z"/>
			<path id="path113" class="st0" d="m179.7 37.8c1.2 0.3 2.8 0.8 3.5 1.4-4.8-1.2-9.5-2.2-14-3.1 0.9-0.1 1.7-0.2 2.7-0.2 2.6 0.6 5.2 1.2 7.8 1.9z"/>
			<path id="path115" class="st0" d="m200.9 69.2c5.9 5.1 13.5 12.3 18.3 18.4-7.8-8.5-13.1-14-20.1-19.4 0.6 0.3 1.2 0.7 1.8 1z"/>
			<path id="path117" class="st0" d="m49.8 214.4c-6.4-6.3-6.5-7.4-11-12.7 6.1 6.8 7.5 9 11.5 13.1-0.2-0.2-0.3-0.3-0.5-0.4z"/>
			<path id="path119" class="st0" d="m198 122.3c0.3 2.9 0.6 6.3 1.8 12.2-2.7-8.4-0.5-7.4-2.5-13.4 0.3 0.3 0.5 0.7 0.7 1.2z"/>
			<path id="path121" class="st0" d="m255.2 131.1c-1.6-5.6-1-2.9 0.3 2.3-5.2-18-4.6-18.5-8.4-28.1 3.9 9.5 2.4 7.5 7.9 24.4 0.1 0.6 0.2 1 0.2 1.4z"/>
			<path id="path123" class="st0" d="m244.6 132.1c0.4-0.4-2.5-11.2-0.3-6.2 0.7 2.1 0.9 3.2 0.2 1.6 0.6 3.5 0.7 6 0.1 4.6z"/>
			<path id="path125" class="st0" d="m127.3 69.8c-6 2.6-4.9 0.9-10.7 3.9 8.2-4.5 7.8-3.2 11.8-4.4-0.4 0.1-0.7 0.3-1.1 0.5z"/>
			<path id="path127" class="st0" d="m49.3 109c0.3 1.1 1-2.6 1.3-2.2-1 3.4-1.7 8.8-2.4 7.3 0.3 0.8 0.6-0.9 1.1-5z"/>
			<path id="path129" class="st0" d="m51.1 128.7c0.8-2.6 1.5-7.3 2.5-13.1-1 5.8-1.4 12.6-2.5 13.1z"/>
			<path id="path131" class="st0" d="m50.7 106.1c0.7-1 1.4-3 2.4-5.3-0.9 2.2-2 8.5-2.3 5.1z"/>
			<path id="path133" class="st0" d="m53.2 100.1c1.4-3.8 2.2-4.6 3.6-7.7-2.2 7.2-2.7 6-3.6 7.5z"/>
			<path id="path135" class="st0" d="m197.3 63.5c4.8 2.8 4.3 3 5.8 4.2-5.2-3.2-9.1-5.5-8.5-5.7 0.3 0.2 1.8 1 2.7 1.5z"/>
			<path id="path137" class="st0" d="m89.4 226.1c4.7 1.8 12.4 3.9 1.4 1.5-0.3-0.4-0.7-1-1.4-1.5z"/>
			<path id="path139" class="st0" d="m71.3 173.6c1.4 1.5 2.8 2.9 4.3 4.4-1-0.1-1-0.1-5.3-4.6 0.3 0-2.1-3.1 1.2 0.5z"/>
			<path id="path141" class="st0" d="m68.7 72.6c-2.6 4 3.1-5.2 3.4-6.1 0.9-0.9 1.3-1.3 3.5-4-2 3-3.4 4.5-5.7 8.3l-1.2 1.8z"/>
			<path id="path143" class="st0" d="m187 58.4c-7.3-2.7-11.3-4.3-17.1-6 7.8 2 13.6 4.1 16.9 5.9l0.2 0.1z"/>
			<path id="path145" class="st0" d="m61.1 125.9c0.1-0.5 0.1-1.3 0.1-2.1 2.1 11.2-0.4 3.2 0.4 8.7 0 0-0.4-2.4-0.4-2.3 0-1.4-0.1-2.8-0.1-4.3z"/>
			<path id="path147" class="st0" d="m49.8 214.4c2.5 2.6 5.2 4.8 7.9 7.2-2.6-2.4-5.4-4.8-8.8-7.7-0.2-0.3 0.6 0.3 0.9 0.5z"/>
			<path id="path149" class="st0" d="m53.7 157.4c0.5 2.2 0.8 4.3 0.9 5.8-0.8-3-2.2-7.3-0.9-5.8z"/>
			<path id="path151" class="st0" d="m52.5 93.5c-0.8 1-3.3 13-3.1 6.8 0.7-0.6 2.3-5.9 3.1-6.7-0.1 0.1 0-0.1 0-0.1z"/>
			<path id="path153" class="st0" d="m154.4 30.2c-0.3-0.2-3.3-0.2-2.4-0.5 3 0 4.5 0 7.2 0.1-1.3 0.1-2.9 0.3-4.8 0.4z"/>
			<path id="path155" class="st0" d="m208.7 57.5c7 5.2 8.9 7.2 7.4 6.5-2.7-2.5-5.2-4.7-7.4-6.5z"/>
			<path id="path157" class="st0" d="m117.7 236.1c-10.2-0.6-5.5-0.8-6.9-1.1 2 0.2 4 0.3 7.2 0.3-1.3 0.1-2.5 0.2-4.9 0.2 1.5 0.2 3.1 0.4 4.6 0.6z"/>
			<path id="path159" class="st0" d="m85 54.4c7-6.4 8.5-7 12.5-9.8-3.3 2.3-6.4 4.7-10.7 8.6-0.6 0.5-1.2 0.8-1.8 1.2z"/>
			<path id="path161" class="st0" d="m122.2 199c-2.4-0.4-5.3-1.1-6.8-1.7 7.5 0.2 2.3 1.3 7.5 1.6-0.2 0.1-0.4 0.1-0.7 0.1z"/>
			<path id="path163" class="st0" d="m75.4 62.7c-3.1 4.2-2.8 3.3-1.2 0.6 1.3-1.3 1.5-0.9 5.1-5.2-1 0.9-0.1-0.4-1.1 0.5-0.4 0.9 4-3.8 3.6-3-0.5 0.4-1.1 0.9-3.6 4-1 1-1.9 2.1-2.8 3.1z"/>
			<path id="path165" class="st0" d="m72 229.9c-1.3-0.7-2.9-1.6-4.6-2.5 0 0.1 1.6 1 1.6 1.2-1.6-1-6.5-3.9-6.5-4.3 3.3 1.8 5 2.8 6.7 3.7 0.9 0.6 1.9 1.3 2.8 1.9z"/>
			<path id="path167" class="st0" d="m105.5 245c-3.4-0.9-6.5-1.7-11.2-3.1 9.1 1.9 9.1 2.4 14.2 3.4-1 0-2-0.1-3-0.3z"/>
			<path id="path169" class="st0" d="m214.7 66.1c-4.8-4-7.2-6.2-11.3-9.3 6.1 4.3 8.3 6.5 12.7 10.3-0.4-0.3-0.9-0.7-1.4-1z"/>
			<path id="path171" class="st0" d="m168.9 37.9c7.7 1.2 1.6 0.8 8.6 2.1-11.4-1.6-5.4-1.5-8.5-2.1h-0.1z"/>
			<path id="path173" class="st0" d="m86.9 210.7c1 0.4-0.3 0.1 0.2 0.4-1.1-0.7-6.6-3.4-4.1-2.6 3.1 1.5 9.3 3.8 4.9 2.5-0.3 0-1.4-0.5-1-0.3z"/>
			<path id="path175" class="st0" d="m127.3 69.8c2.2-0.6 7.4-2.3 7-1.4-2.5 0.4-4.8 0.9-7 1.4z"/>
			<path id="path177" class="st0" d="m32.5 130.6c0.3 4.1 0.2 6.9 1.2 11-1-5.2-1-5.4-1.2-11z"/>
			<path id="path179" class="st0" d="m84.5 223c-0.5 0.3 3.1 2.1 1.6 2.2-0.6-0.8-2.1-1.8-3.6-3 0.7 0.3 1.4 0.5 2 0.8z"/>
			<path id="path181" class="st0" d="m86.5 222.8c1.8 0.4 3.8 2.4 5.8 2.9-2.5-0.5-5-1.5-6.8-3.3 0.3 0.1 0.6 0.3 1 0.4z"/>
			<path id="path183" class="st0" d="m92.8 183.7c1.5 1.3 2.8 2.5 4.1 3.7-3-1.8-5.2-3.8-4.1-3.7z"/>
			<path id="path185" class="st0" d="m49.8 154.9c-0.6-0.3-0.2 1.3-1.1 0.2 0.9 1.1-2.5-7.6 0.4-1.9 0.2 0.5 0.4 1.1 0.7 1.7z"/>
			<path id="path187" class="st0" d="m123.8 237.1c-2.1-0.2-3-0.5-6-0.7 10.9-0.4 3.9 0.6 7.3 0.7h-1.3z"/>
			<path id="path189" class="st0" d="m37.9 96.3c0.9-3.3 1.3-3.9 1.7-4.5-2.2 12.5-0.8 1.2-2 5.9 0.1-0.4 0.2-0.9 0.3-1.4z"/>
			<path id="path191" class="st0" d="m57.6 107.7c0.8-7.3 1.7-9.5 3.1-14.5-1.4 5-1.5 6.4-1.1 5.8-0.6 1.7-1 2.8-2 8.7z"/>
			<path id="path193" class="st0" d="m48.6 147.9c1.7 3.2 0.9-0.3 0.6-2 0.9 3.6 0.7 4.5 0.4 5.3-0.6-1.9-0.2-1.1-1-3.3z"/>
			<path id="path195" class="st0" d="m135.5 251.2c4.2-1.6 5.4-0.5 8.9-1.4-5.3 1.1-6.7 1.2-8.9 1.4z"/>
			<path id="path197" class="st0" d="m71.7 228.1c-13.3-7.5 0.2-0.7-9.9-6.2 3.5 2.2 5.5 3.5 6.1 3.9 0.9 0.6 2.5 1.5 3.8 2.3z"/>
			<path id="path199" class="st0" d="m101.6 87.6c0.3-0.6 0.8-1 1.6-2.2-1.3 1.6-2.3 2.5-3.4 4.2 3.7-4.9 5.9-6.7 8.7-9.1-2.4 2.2-4.6 4.4-6.9 7.1z"/>
			<path id="path201" class="st0" d="m157.9 50.1c3.8 0.5 8.7 1.2 11.8 2.1-3.1-0.9-9.9-1.6-13.4-2.1h1.6z"/>
			<path id="path203" class="st0" d="m257.4 141.4c-1-5.1-1.3-9.1-2.9-14.5 0 0 0.5 0.5 0.6 0.8 1 4.8 1.8 9.5 2.3 13.7z"/>
			<path id="path205" class="st0" d="m73.3 69.2c2.9-4 1.8-1.9 1.8-1.6-0.1-0.3-3.3 4.4-2.7 2.9 0.1-0.1 0.6-0.9 0.9-1.3z"/>
			<path id="path207" class="st0" d="m219.8 84.5c0.7 0.9 1.4 1.7 2 2.5-3.5-3.6-3.3-3.7-4.6-5.2 0.6 0.7-0.9-0.6-0.2 0.1-6-5.1-2.6-2.8-3.9-4.2 2.8 2.6 4.1 4 6.8 6.9 0.1 0-0.1-0.1-0.1-0.1z"/>
			<path id="path209" class="st0" d="m186.8 35.3c-7.2-1.8-11.8-2.7-11.8-2.8s3.4 0.5 6.3 1.2c1.9 0.5 3.6 1 5.5 1.6z"/>
			<path id="path211" class="st0" d="m136.2 26.9c-1 0.1-3.9 0.5-5.7 0.8 1.9-0.3 8.3-1.6 9.5-1.7-1.2 0.3-2.5 0.6-3.8 0.9z"/>
			<path id="path213" class="st0" d="m94.5 225.6c1.7 1.2 3.4 1.9 6 2.5-2.5-0.9-6-1.5-7.7-2.6h1.4c0.1 0.1 0.2 0.1 0.3 0.1z"/>
			<path id="path215" class="st0" d="m71.5 173.8c-2.8-3.3 0.7 0.4-1.5-2.2 1.5 1.7 3 3.3 4.7 4.9 1.2 1.5-0.8-0.2-3.3-2.9z"/>
			<path id="path217" class="st0" d="m51.1 107.3c0.6-2.1 1.5-6.4 1.3-2.2-0.4 0.1-1.1 4.3-1.4 3.9-0.1 0.1 0-1.1 0.1-1.7z"/>
			<path id="path219" class="st0" d="m243.5 95.4c1 2.2 0.6 1.9 1.4 3.8-2.3-4.2-4.5-8.1-1.9-4.7 0.1 0.3 0.3 0.6 0.5 0.9z"/>
			<path id="path221" class="st0" d="m109.4 32.4c2.1-0.8 3.6-1.3 5.1-1.8-3.1 1.3-6.4 2.8-9.6 4.4 1.2-0.8 2.4-1.5 4.5-2.6z"/>
			<path id="path223" class="st0" d="m252.7 122.6c1.5 6 3.1 14.1 3.4 17.3-0.8-5.9-2.7-13.8-3.4-17.3z"/>
			<path id="path225" class="st0" d="m57.2 102.4c-0.7 4.4-1 5.3-1.5 6.5 0.5-2.8 0.8-3.7 1.6-7.4 0-0.3-0.1 0.6-0.1 0.9z"/>
			<path id="path227" class="st0" d="m235.1 138.3c-0.3-2.5-0.3-3.9-0.7-6.4 0 0 0.4 1.8 0.4 1.7 0.9 5.6 1 8.5 0.3 4.7z"/>
			<path id="path229" class="st0" d="m94.5 49.8c-0.8 1.2 3.1-1.4 4.8-2.2-2.6 1.5-4.1 2.2-6.4 3.5 0.5-0.4 1.1-0.9 1.6-1.3z"/>
			<path id="path231" class="st0" d="m232.5 113.4c-1-2.6-0.6-2.5-1.6-5.1 2.5 5.5 1.2 3.9 2.2 6.5-0.2-0.4-0.4-0.9-0.6-1.4z"/>
			<path id="path233" class="st0" d="m192.5 61.2c-4.2-1.7-5.6-2.5-5.7-2.9 1.9 0.9 3.8 1.9 5.7 2.9z"/>
			<path id="path235" class="st0" d="m32.7 118.1c0.2-1 0.2-2.6 0.4-5.8 0.7 14.1-0.3 2.9-0.4 5.8v0z"/>
			<path id="path237" class="st0" d="m112.1 34.2c3.1-1.3 5.6-2.3 9.4-3.6-2.9 1.1-4.8 1.9-7.2 3-0.8 0.3-1.5 0.4-2.2 0.6z"/>
			<path id="path239" class="st0" d="m177.1 32.4c2.7 0.6 4.4 1 6 1.4-8.7-1.7-10.1-2.1-13-2.7 2.7 0.4 4.8 0.8 7 1.3z"/>
			<path id="path241" class="st0" d="m105.2 57.2c-0.2-0.2-1.8 0.7-4 2.1 4.3-3.2 3.8-2.3 6.1-3.6-0.6 0.5-1.4 1-2.1 1.5z"/>
			<path id="path243" class="st0" d="m253.6 162.6c0.2-1.4 0.4-2.6 0.6-6.4-0.4 11.2-0.5 7.7-0.7 7.5 0-0.4 0.1-0.7 0.1-1.1z"/>
			<path id="path245" class="st0" d="m158.3 34.3c-2.3-0.2-4.3-0.3-6.4-0.4 7 0.1 8.8 0.3 6.4 0.4z"/>
			<path id="path247" class="st0" d="m145.2 250.4c-2.1 0.3-3.3 0.3-6.7 0.8 13.3-3.3 4.6-0.5 8.8-1.3-0.7 0.2-1.4 0.3-2.1 0.5z"/>
			<path id="path249" class="st0" d="m52.7 154.5c0.1-0.8-0.3-2.7-0.7-4.8 0.4 2.1 1.7 5.8 1.2 5.8-0.2-0.4-0.3-0.7-0.5-1z"/>
			<path id="path251" class="st0" d="m57.9 91.6c-0.7 1.7-1.1 2.2-1.4 2.7 1.5-4.6 0.9-1.3 2.3-5.1-0.4 0.7-0.7 1.6-0.9 2.4z"/>
			<path id="path253" class="st0" d="m166.9 29.6c7.3 0.7 9.8 1.4 11.3 1.9-4.4-0.9-7.7-1.5-11.3-1.9z"/>
			<path id="path255" class="st0" d="m160.6 28.4c-1.8-0.2-3.2-0.2-5.9-0.3 2.1 0.2 14.1 0.4 11.9 0.6-1.4-0.2-2.9-0.3-3.5-0.4-0.9 0.1-1.7 0.1-2.5 0.1z"/>
			<path id="path257" class="st0" d="m115 233.2c6.5-0.3-11.1-1.4 0.3-0.6-2 0.1-2 0.4 1.4 0.7-0.6-0.1-1.2-0.1-1.7-0.1z"/>
			<path id="path259" class="st0" d="m89.9 51.6c6.1-4.9 3.8-2.9 0.8 0-0.2 0.1-0.5 0.1-0.8 0z"/>
			<path id="path261" class="st0" d="m51.1 128.7c1 6.9-0.5 2.2-0.3 5.6 0.1-1.4 0.8-0.8 0.3-5.6z"/>
			<path id="path263" class="st0" d="m255.2 131.1c-1.3-5.9-2.8-11.1-2.6-11.2 1.4 5.1 1.2 5.3 3.1 13.2-0.1-0.7-0.3-1.3-0.5-2z"/>
			<path id="path265" class="st0" d="m257 153.5c-0.1-0.8-0.4 6.7-0.4 0.7 0.2 0.7 0.1-6.7 0.4-0.7z"/>
			<path id="path267" class="st0" d="m78.1 234.9c0.9 0.4 2.9 1 2.9 1 3.1 1.2 6.2 2.3-2.3-0.4l-0.6-0.6z"/>
			<path id="path269" class="st0" d="m149.2 27.3c-0.8 0-3.3 0.1 0-0.4 3.5-0.1 3.6 0 0 0.4z"/>
			<path id="path271" class="st0" d="m210.9 73.3c1.5 1.4 3 3 4.5 4.5-0.2-0.2-0.5-0.4-0.7-0.6-1.4-1.5-5.2-4.8-3.8-3.9z"/>
			<path id="path273" class="st0" d="m254.5 133.1c-0.7-3.4-1.3-6.2-1.3-6.4 1.3 5.3 2.6 13.6 2.5 14.6-0.2-2-0.8-7.4-1.2-8.2z"/>
			<path id="path275" class="st0" d="m48.3 143.7c0.3 0.2 0.4-0.4-0.4-3.6 1.7 5.7-0.7-0.6 0.6 4.3 0-0.2-0.1-0.4-0.2-0.7z"/>
			<path id="path277" class="st0" d="m32 135.6c0 0.5-0.1 1.1 0.1 2.3-1.6-10.1-0.2-3.1-0.6-6 0.1 1.3 0.3 2.5 0.5 3.7z"/>
			<path id="path279" class="st0" d="m53.1 140c2.1 6.6-0.6 0.4-0.1 2.4 0-0.7 0-1.5 0.1-2.4z"/>
			<path id="path281" class="st0" d="m34.9 148c-0.7-1.1 4.8 13 1.2 5.9-0.2-1.5-1.2-5-1.6-7.2 0.1 0.4 0.2 0.9 0.4 1.3z"/>
			<path id="path283" class="st0" d="m105.8 231.8c3.3 0.6 7.5 0.9 5.4 1-4.2-0.4-4.2-0.7-5.3-1h-0.1z"/>
			<path id="path285" class="st0" d="m172.3 30.9c-2.6-0.4-5.7-0.8-5.2-0.9 3.1 0.4 7.8 1.2 8.9 1.6-1.6-0.3-1.6-0.3-3.9-0.7h0.2z"/>
			<path id="path287" class="st0" d="m175.7 31.6c-3.6-0.4-6.8-0.9-8.4-1.1 3.9 0.2 5.5 0.5 6.6 0.7 0.6 0.2 1.2 0.3 1.8 0.4z"/>
			<path id="path289" class="st0" d="m252.6 122.9c-0.4-1.7-0.8-2.9-1.5-4.8 0.1 1.4 2.4 4.7 1.5 4.8z"/>
			<path id="path291" class="st0" d="m235.5 121.9c-0.3-0.8-0.1-0.8-0.1-0.8 0.5 1.5 1 3.1 1.4 4.6-0.5-1.6-1.1-3.1-1.2-3.6 0-0.1-0.1-0.2-0.1-0.2z"/>
			<path id="path293" class="st0" d="m86.1 234.2c-2.1-0.8-3.9-1.4-4.1-1.6 0 0 1.8 0.7 1.2 0.5 1 0.4 2 0.7 2.9 1.1z"/>
			<path id="path295" class="st0" d="m75.2 66c-1.2 1.6-0.1-0.1 1.2-1.9 0.7-0.7 1-0.9-1.2 1.9z"/>
			<path id="path297" class="st0" d="m255.4 153.8c0.1 0.6-0.7 17.3 0 0.9v-0.9z"/>
			<path id="path299" class="st0" d="m59.6 80.3c0.4-0.9 6.8-13 0.6-1.1-0.2 0.4-0.4 0.8-0.6 1.1z"/>
			<path id="path301" class="st0" d="m240.2 165.1"/>
			<path id="path303" class="st0" d="m167.4 30c1.2 0.2 2.7 0.4 4.3 0.6l-4-0.5c-0.1 0-0.2 0-0.3-0.1z"/>
			<path id="path305" class="st0" d="m75.1 65.5c4.1-4.3-0.6 1-0.7 1.1 0.3-0.3 0.5-0.7 0.7-1.1z"/>
			<path id="path307" class="st0" d="m60.4 78.5c-0.6 1.1-1.5 3.1-1.4 2.7 0.5-0.9 0.9-1.8 1.4-2.7z"/>
			<path id="path309" class="st0" d="m211 73.1c-1-0.6-1-0.6-0.9-0.7 0.3 0.3 0.6 0.5 0.9 0.7z"/>
			<path id="path311" class="st0" d="m41.4 73.8"/>
			<path id="path313" class="st0" d="m240.3 166.6"/>
			<path id="path315" class="st0" d="m203 125.4"/>
			<path id="path317" class="st0" d="m203.3 126.6"/>
			<path id="path319" class="st0" d="m203.3 126.9"/>
			<path id="path321" class="st0" d="m75.4 65.3c0.3-0.5 0.9-1.1 0.2-0.2z"/>
			<path id="path323" class="st0" d="m40.8 73.1"/>
			<path id="path325" class="st0" d="m75.5 65.3c-0.4 0.6 0.8-1.1 0.9-1.2-0.3 0.4-0.6 0.8-0.9 1.2z"/>
			<path id="path327" class="st0" d="m83.9 233.5c0.3 0.1 0.5 0.2 0.8 0.3-0.2-0.1-0.5-0.2-0.8-0.3z"/>
			<path id="path329" class="st0" d="m84.6 233.8c0.3 0.1 0.5 0.2 0.8 0.3-0.3-0.1-0.5-0.2-0.8-0.3z"/>
			<path id="path331" class="st0" d="m85.3 234.1c0.2 0.1 0.4 0.2 0.7 0.3-0.3-0.1-0.5-0.2-0.7-0.3z"/>
			<path id="path333" class="st0" d="m88.3 235c-0.2-0.1-0.4-0.1-0.5-0.2 0.1 0 0.3 0.1 0.5 0.2z"/>
			<path id="path335" class="st0" d="m88.8 235.2c-0.2-0.1-0.4-0.2-0.6-0.2 0.2 0 0.4 0.1 0.6 0.2z"/>
			<path id="path337" class="st0" d="m43.1 82.8"/>
			<path id="path339" class="st0" d="m110.9 239.7c0.3 0 0.6 0.1 0.8 0.1-0.2 0-0.5-0.1-0.8-0.1z"/>
			<path id="path341" class="st0" d="m40.5 73.8"/>
			<path id="path343" class="st0" d="m48.8 71.3"/>
			<path id="path345" class="st0" d="m89.4 235.5c0.1 0 1.9 0.5 1.5 0.4-0.5-0.2-1-0.3-1.5-0.4z"/>
			<path id="path347" class="st0" d="m230 154.4"/>
			<path id="path349" class="st0" d="m130.1 231.8"/>
			<path id="path351" class="st0" d="m40.7 73.1"/>
			<path id="path353" class="st0" d="m48.7 71.7"/>
			<path id="path355" class="st0" d="m68.7 229.1c-0.3-0.1 8.7 3.4-0.3-0.1z"/>
			<path id="path357" class="st0" d="m89.5 61c-2.1 1.2-3.1 3.7-5.6 4.2 11-10.5 24.5-17 38.5-21.5-11 4.5-22 9-31.4 16.1-0.4 0.2-1.1 0.8-1.5 1.2z"/>
			<path id="path359" class="st0" d="m133.5 39.9c1.3-0.2 2.8-0.2 4.3-0.2-12.5 2-24.5 5.5-36.5 10 9-4 18-7 27.5-9.2 1.9-0.3 3.1-0.4 4.7-0.6z"/>
			<path id="path361" class="st0" d="m155.7 237.1c-7.9 1.9-15.2 3-21.5 3.4 7.8-1.3 10-1.4 12.8-1.7 3.1-0.5 6-1.1 8.7-1.7z"/>
			<path id="path363" class="st0" d="m212.6 73.9c1.8 1.9 4.9 4.6 6.3 6.6-4.4-2.7-4-4.9-7.6-7.7 0.4 0.3 0.9 0.7 1.3 1.1z"/>
			<path id="path365" class="st0" d="m63 75.5c-0.3 0.7-3.2 6.9-0.5 0.6 0.2-0.1 0.3-0.4 0.5-0.6z"/>
			<path id="path367" class="st0" d="m234.1 122.6"/>
			<path id="path369" class="st0" d="m71.5 230.6c14.1 5.3 8.2 3.8 9.6 4.5-1.6-0.7-3.5-1.3-3.6-1.4-2.1-1-4-2-6-3.1z"/>
			<path id="path371" class="st0" d="m231 142.5"/>
			<path id="path373" class="st0" d="m121.6 44.1"/>
			<path id="path375" class="st0" d="m232.8 143.5"/>
			<path id="path377" class="st0" d="m232.3 143.8"/>
			<path id="path379" class="st0" d="m201.8 64.8c-0.8-0.6-1.1-0.9-1.5-1.2 3.3 2.3 6.6 4.8 8.6 6.8-3.1-2.4-8-5.6-8.2-6.1 0.4 0.1 0.8 0.3 1.1 0.5z"/>
			<path id="path381" class="st0" d="m208.7 70.2c2.9 2.3 4.2 3.6 3.4 3.3 0 0-0.5-0.5-0.8-0.7-3.4-2.8-4.4-3.7-2.6-2.6z"/>
			<path id="path383" class="st0" d="m201.8 64.8c-4.4-2.1-7.6-4.7-12-6.8 3.3 1.5 6 3.3 9.2 5.1 0.4 0.3 1.9 1.1 2.8 1.7z"/>
			<path id="path385" class="st0" d="m202 65.8-0.7-0.7c3.6 2.5 5.8 4.3 5.3 4.2-1.5-1.2-3.1-2.4-4.6-3.5z"/>
			<path id="path387" class="st0" d="m73.9 231.7c-0.5-0.2-7.1-3.5 0.7 0.1-0.2 0-0.4-0.1-0.7-0.1z"/>
			<path id="path389" class="st0" d="m44.7 68.6"/>
			<path id="path391" class="st0" d="m40.8 73.6"/>
			<path id="path393" class="st0" d="m70.8 230.2c-2.4-1.2-2.4-1.2-0.6-0.4 0.2 0.2 0.4 0.3 0.6 0.4z"/>
			<path id="path395" class="st0" d="m59.7 80.2c-0.4 0.8-0.7 1.5-1.1 2.3 0.3-0.8 0.7-1.6 1.1-2.3z"/>
			<path id="path397" class="st0" d="m200.2 63.5c-2.8-1.7-7.6-4.2-6.2-4.1 2 1.2 4.1 2.6 6.2 4.1z"/>
			<path id="path399" class="st0" d="m194.1 59.4c-3.3-1.7-6-3-8.4-4.1 2.3 0.8 2.3 0.8 4.6 1.8 1.4 0.8 2.5 1.5 3.8 2.3z"/>
			<path id="path401" class="st0" d="m60.3 79.4c-0.4 0.8-0.8 1.5-1.1 2.3 0.3-0.8 0.7-1.6 1.1-2.3z"/>
			<path id="path403" class="st0" d="m59.7 80.2c0.4-0.8 1.4-3 1.2-2.3-0.4 0.8-0.8 1.6-1.2 2.3z"/>
			<path id="path405" class="st0" d="m59 81.8c0.3-0.6 0.6-1.2 0.8-1.8-0.2 0.6-0.5 1.2-0.8 1.8z"/>
			<path id="path407" class="st0" d="m69.7 71.6c-1.8 3.4-0.3 0.2-1.5 2.2 0.5-0.7 1-1.4 1.5-2.2z"/>
			<path id="path409" class="st0" d="m232 143.8"/>
			<path id="path411" class="st0" d="m121.7 44"/>
			<path id="path413" class="st0" d="m68.3 73.8"/>
			<path id="path415" class="st0" d="m74.6 66.5c3.4-3.6-1.1 1.7-0.5 0.7 0.1-0.2 0.3-0.4 0.5-0.7z"/>
			<path id="path417" class="st0" d="m231.7 149.8"/>
			<path id="path419" class="st0" d="m69.3 72.6c0.3-0.5 0.7-1.1 1-1.6-0.3 0.5-0.7 1.1-1 1.6z"/>
			<path id="path421" class="st0" d="m232.3 143.8"/>
		</g>
		<g id="g533" fill="#59afe2">
			<path id="path425" class="st2" d="m215.1 162.9c2.8-10.8 1.8-22.3 1.8-33.8 0.5 3 2 6 2 9.5-0.5-6.5-1.5-13-4-19 3 6 4 12 5 18.5v-1c2.5 19.5-2.5 39.5-12.5 56.5 21.5-31.5 18.5-77-9-104 14 10 20.5 26.5 24 42.5-2.5-15-7.5-29.5-15.5-42 10 13 15.5 29 19 45 0-1.5 0-2.5-0.5-4 2 8.5 4 17 2.5 25.5 2-11 1-22-1-32.5-0.5 5 1.5 9.5 1.5 14 0-1 0-2-0.5-3-0.5 3 0.5 5.5 0.5 8.5 0-2-1-4-0.5-6l-0.5 0.5c0.5-19-10.5-35.5-20.5-50.5 2 1.5 3 3.5 4.5 5.5-16.5-30-56-43-87.5-31l1.5-1.5c-4 2.5-8.5 3.5-12.5 6 5.5-4.5 12.5-5 18.5-8.5-12 2.5-20.5 11.5-31.5 16 1.5-1 2.5-2.5 4-3.5-2.5 2.5-5 4.5-7.5 6.5 0.5-1 1.5-2 2.5-2.5-5 2.5-8 7.5-12.5 10.5 5-5.5 11-10.5 17-15-10 7-20.5 15-26.5 26 0-2.5 2-4.5 3-6.5-10.5 2-14.5 14-19 22.5 0-4 1-7.5 1.5-11.5-1 0.5-1.5 1-2 2-1 8 0 16-5 23 1-29 11.5-57.5 37-75 32-22 71.5-20 102.5-1-11.5-6.5-25-10-38.5-10 4.5 0 8.5 1.5 12.5 2.5-2.5 0.5-5.5-1.5-8-0.5h2.5c-13.5-0.5-27-2-40 2.5 1.5-0.5 3-1 4.5-2-23.5 6.5-47 19-59.5 40.5 1-3 3-5.5 4.5-8.5-8 9.5-10 21.5-11 33.5 1-4 2-8.5 3-12.5 0 0.5-0.5 1-1 1.5 7-20 23-35 41.5-45l-7.5 6c3.5-3 7.5-4.5 11-7.5-2 1.5-4 3.5-6.5 4.5 2.5-1.5 5-2.5 7-4.5-1.5 1.5-3 2.5-5 3.5 3.5-1.5 6.5-3.5 10-5-2 0-3.5 1.5-5 3 1.5-1.5 3.5-1 5-2.5-0.5 0-1 0.5-1.5 0.5 10-4.5 21-3 31.5-6-1.5 1-4 0-5.5 1 1-0.5 2.5-0.5 3.5 0-2.5-0.5-4 1.5-6.5 1 15-1.5 30.5-2 45.5 2.5-1.5-1.5-4-0.5-4.5-3 1.5 1 3.5 1.5 5.5 2-2.5-2-6-1-8-4 13 5.5 24.5 14.5 34 24.5-10-8.5-21-15-33.5-18.5 16.5 6.5 33 15.5 43 30.5-6.5-10-16.5-16-26-22.5 11 8 21.5 17.5 30 28-1-1-2-2.5-3.5-3 4.5 6 9 12 11.5 19-5-9.5-11-18-18-26.5 6 11.5 16.5 20.5 19.5 33.5-13.5-32.5-45-58-80.5-60 4-0.5 8 1 12 2h-5.5c18 3.5 35.5 11 48.5 24-12-8.5-25.5-16.5-40-19.5 15 5 30 12 41.5 23-23-20-55.5-28-84.5-19.5 29-7 61.5 1 83.5 21-5.5-5-11.5-9-18-12.5 17 11 30.5 28 37.5 47 1-3.5-1.5-6.5-2.5-9.5 5 11 8 23 9 35 1.5-4.5-2-9.5 0-14 0.5 5 1.5 10 2 15 0.5-3-1.5-6-0.5-9 1 10.5 0.5 20.5-0.5 31 0-0.5 0.5-0.5 0.5-1-2.5 9.5-5 19-10 28h0.5c-11 21.5-30.5 36.5-51 48 3.5-2.5 7.5-4.5 11-7.5-23.5 11.5-50 18-76 13 28.5 3.5 60-1 83-19.5-31.5 22-75.5 26-110 8 47 23 110.5 6.5 136-40.5-6.5 10.5-14.5 19.5-23.5 28l6-6c-23 19.5-54.5 30-84.5 26 41.5 3.5 85-20 101.5-59-5.5 13-15 23.5-24.5 33.5 1-1.5 2.5-2.5 3.5-4-10 8-20 15.5-32 20.5 9.5-5.5 19.5-10.5 27.5-18-9.5 8-21 13.5-32.5 18.5 10-5.5 20.5-10 29-17.5-2.5 1-4 3-6 4.5 2.5-3 6-5 8.5-7.5-0.5 0.5-1 0.5-1.5 1 7-7.5 13-16 19-24-1 0-1.5 1-1.5 2 3-9 8.5-17 9-26.5 0 0 0 0.5-0.2 0.6zm3.1-7.1-0.1 0.7c0.8-0.1 1.1-7.2 0.9-14 0.4 6.3-0.6 6.6-0.8 13.3 0.1-0.6 0.1-3.1 0.2-3.7 0 4.9-1.1-3.9-0.8 6.1 0.3-1 0.2 2.7 0.6-2.4zm-15.2-89.1c-0.8 0.2 1.7 2.4 7.9 7.1-6-5.6-11.4-10.3-21.2-16 1.8 1.4 6.2 4.2 9.9 6.7 0.4 0.3 2.2 1.4 3.4 2.2zm13.2 133.3c1.1-1.8 2.1-3.3 3.1-5.3-8 9-15 19-24 27 1.5-2 4.5-3 6-5l-2 2c3.5-3 7-6.5 10-10-0.5 0.5-1 1.5-1.5 2 2.5-4 6-7 8.5-10.9zm-134.4-139.4c-0.5 0.6-0.5 0.6-1 1.1 18-13.5 40-19 61.5-23-14 0-27 4.5-40 7.5 2-0.5 3-2 5-2.5-9 4-18 8-24.5 15.5 0-1 0.5-1.5 1.5-1.5-0.5 0.5-1 1-1 1.5-0.6 0.5-1 0.9-1.5 1.4zm-6.8 30.5c1.8 2.2 8.3-6.7 16.9-15.7 0.4-1-1.3 0.8-1.9 1.1 5.7-6.7 1.6-0.2 7.4-6.8-1.5 0.8-5.2 4.1-7.7 6.6 6.3-6.9 4.3-3 11.4-9.9-5.4 3.5-10 6.9-13.9 10.3-3.9 3.2-7.6 7.4-12.2 14.4zm39-49.3c6.6-0.7 18.1-2.6 34.2-3.9 3.1-0.9-21.5 0-34.2 3.9zm66.9 7.8c-7.6-2.4-15.6-2.4-23.6-3.9 6 0.5 12.5 1 18.5 2-13.5-3.5-27.5-3-41-0.5 7.5-1 15-2.5 22.5-1.5h-2c4 0 7.5 1.5 11 2-0.5 0-1.5 0-2-0.5 2 0 3.5 0 5.5 0.3 5.2 0.9 8.5 1.6 11.1 2.1zm-93.2 15.4c-2 2.1-3 3.2-5.6 6.6 2.3-2.2 4.1-1.9 13.5-13.1-1.2 1-1.2 1-2 1.6-3.6 3.4-5 4.4-5.9 4.9zm29.8-25.3c5.2-1 11.9-2.1 20.3-3-4.2-0.2-8.6-0.1-20.3 3zm30.5 8.6c1.8-0.7-8.3 0.9-9.7 0.9-4.9 2.1 4.7 0 8.5-0.1 0.3-0.3 0.7-0.5 1.2-0.8zm73.5 132c0.1-0.2 0.6-2.4 0.6-2.4-1.2 2.5-1.8 1.4-4.9 10.3-2.9 6.5 2-4.7 1.1-1.5 0.5-0.5 2.2-4.2 3.2-6.4zm-1.1 5.7c-0.1 0.3-1 2.4-1 2.4-0.4 2.2 2.7-6.2 3-5.9-0.7 2-0.7 2-1.5 4.1 0.9-2 2.8-8.3 3-7.9-0.6 2-2.1 6.1-2.9 8.1 2.1-6.2 2.4-5.8 3.8-10.9-1.3 3.4-2.7 6.6-4.4 10.1zm-8.7-8.3c0.1-0.5-0.7 2.1-0.7 2.1 2.1-6.3 3.3-8.1 4.9-15.1-1.1 4.2-2.5 8.6-4.2 13zm14-9.2c-1.4 4.9-3.3 10.4-5.7 16.2 1.1-1.5 3.7-8.8 5.7-16.2zm-41.1-114c0.3 0-3.9-1.2-3.9-1.2-1.5 0.1 3.3 1.7 6.2 3.1 5.5 1.6-3-1.4-2.6-1.5-0.5-0.3 0.1-0.3 0.3-0.4zm-1.5-4.3c-0.5-0.2 1.6 0.4 1.6 0.4-3.8-1.3-5.4-1.9-11.6-3.2 0 0-0.3 0.1 0.1 0.1 3.4 0.7 6.7 1.6 9.9 2.7zm10.4 14.6-1.2-0.6c2.3 1.4 4.7 3 7.6 4.9 2.4 1.2-4.3-2.9-6.4-4.3zm-49.2-8.8c-1-0.2-3.7 0.2-7.6 0.9 0 0.3 4.5-0.6 7.6-0.9zm-71 18.2c1.2-1.6 3.1-4.1 4.9-6.4-1.3 1.4-0.8 0.3-4.9 6.4zm100.9-27.5c-0.4-0.1-2.6-0.4-2.6-0.4-0.8 0.1 3.6 0.8 5.8 1.4-1.1-0.4-2.2-0.7-3.2-1zm-118.3 73.9"/>
			<path id="path427" class="st2" d="m90 97.4c-0.2 1.3-1.2 2.8-2.2 4.3 0.5-1 0.5-1.5 0.5-2.5-1 1-2 2-1.5 3.5 0-1.5 0.5-2.5 1.5-3.5-2 6-5 12-5.5 18.5v-5.5c-1.5 6-2.5 12-2.5 18.5 0-1.5-1-2.5-0.5-4-2 2.5-1 5 0 7.5-0.5-0.5-0.5-1-0.5-1.5 1 4.5 1 9 1 13.5v-1.5c0 3 0.5 6.5 0 9.5-0.5-6-3-12-4-18-1 9.5-1.5 20 5 27.5-2 0-3-0.5-3.5-2.5 1 2.5 2.5 5 3 7.5-6.5-9.5-13.5-19.5-14.5-31.5 2 2.5 2.5 7 4.5 7 5 0-0.5-9 1-13.5 0.5 1.5-0.5 1-1 0.5v-1.5c0 0.5 0 1.5-0.5 2-3.5-11.5 2.5-25 9.5-35.5 11.5-16 27-26.5 45-33.5-2 0-3.5 1-5.5 1.5 13.5-5 28-7 42.5-5h-2.5c2-0.5 4 0.5 6 1-4-0.5-8-1-12-1 2 0 4.5 0 6.5 0.5-12.5-0.5-25.5 0-37.5 5.5 4-2.5 9-3 13.5-4.5-4.5 1.5-9 3.5-13.5 5 8.5-1 16-5.5 24.5-6-2 1-4.5 0-6.5 1 1.5 0.5 2.5-0.5 4-0.5-7.5 2-15.5 3-22.5 7 1.5 0 3.5-1 5-1-16 6.5-29 18.5-37.9 32.9 0.3-0.5 0.7-1.1 1.1-1.7zm-11.3 25c0-0.4 0.1 1.1 0.1 1.1 1.1-5 3.6-2.9 5.1-17.6-1.9 3.8-3.7 6.5-5.1 13.5-0.1 0.4-0.1 2-0.1 3zm-2.3 37.2c0.9 0.9 1.8 1.6 2.6 2.3-2.5-3.3-3.6-4.3-2.6-2.3zm-1-3.6c2.7 2.8 0.6 0-1.7-3.6 0.5 1 1.1 2.3 1.7 3.6z"/>
			<path id="path429" class="st2" d="m106.2 244.5c5.6 0.7 11.1 1.2 16.6 2.2-3-1.5-6 0-9 0 19 5 37.5-1.5 55.5-7-4.5 2-9 3.5-13 5.5 2.5-0.5 5.5-1.5 8-2-5 1.5-10 3-15 4 2 0 3.5 0 5.5-0.5-3.5 1.5-7.5 1.5-11.5 2 3-0.5 6.5-0.5 9.5-0.5-6 0.5-12.5 1-18.5 2 1 0 2.5-0.5 3.5 0.5-17.5 0.5-35.5-2-51.5-9.5 1.5 1 3.5 0 5 1.5-17.5-7.5-33-18.5-45.5-32.5 16 17 37.5 29.5 60.5 34.3z"/>
			<path id="path431" class="st2" d="m181.9 36.9c26.4 9.8 46.9 32.7 55.4 59.7-1-3-3.5-5-5-7.5 3.5 7.5 7 15.5 9 23.5-6.5-11.5-9-24.5-17.5-35 2.5 2 4.5 5 6 7.5 1-3.5-3.5-4-3.5-7 0 1 0.5 1.5 1.5 1.5-7.5-9-15.5-18-25-25 9 6 16.5 14 24 21.5-3.5-6-9-10-14-14.5 0.5 2 2.5 1.5 3.5 3-6-4.5-11.5-9-17-14 5 3 9.5 6.5 14.5 9.5 0-0.5-0.5-0.5-0.5-1 1.5 0.5 1.5 2.5 3 2-9-10.9-22.5-16.9-34.4-24.2 0.1 0.1 0 0 0 0zm43 39c0.2-0.6-1.6-1.4-2-2.2 1.8 2.2 2.4 4.3 6.4 7-0.5-0.8-2.2-1.8-2.7-2.6-0.6-0.7-1.1-1.5-1.7-2.2z"/>
			<path id="path433" class="st2" d="m215.1 162.8c-2.8 7.4-5.3 15.4-8.8 22.9 18.5-37 6-87.5-31-108 1 1 2.5 1.5 3 2.5 0 0.5-1 1-1.5 1-2-0.5-5-4-5-4 35 10.5 48.5 52 43.2 85.7 0.1 0 0.1-0.1 0.1-0.1z"/>
			<path id="path435" class="st2" d="m185.5 207.5c-0.7 1.1-2.7 0.6-3.2 2.1 7-5.5 12.5-13 17.5-20.5-2 3-4.5 6-7 9 5.5-7 10-14.5 14-22-10.5 28-38 53-69.5 51 16.5-2 33.5-7 46.7-18.2 0.5-0.4 1-0.9 1.5-1.4z"/>
			<path id="path437" class="st2" d="m51.4 182c-2.1-1.3 0.4 1.7-0.6 0.7-1.5-2-2.5-4-4-6 1 3.5 5 5.5 5.5 9.5-8.5-13.5-13.5-28.5-17.5-43.5 7 13 9 27.5 17 40-3-3.5-4-8-7-11.5 0.5 2 2.5 3.5 3 5.8 0.5 0.8 0.6 1.2 3.6 5z"/>
			<path id="path439" class="st2" d="m125.6 67.8c9.9-1.9 20.9-3.4 31.3-2.8-4.9 0.8-9.5 0.8-13.7 1.2 0.6-0.4 0.8-0.1 1 0.2-12.2 2.4-23.2 4.6-34.3 12.3 1.9-1.6 4.1-2.8 6.1-4.4-1.1 0.6-2.7 1.7-3.8 1.9 1.1-0.6 2.6-1.7 4.2-2.8-0.5 0.5-1.6 1.1-1.2 0.2 0.9-1.4 2.5-2.4 3.7-3-3.7 3-6.2 2.9-9.6 6 3.4-3 7.2-5.2 11.2-7.4-1.2 0.6-2.2 1.5-3.4 2.1 3.5-1.7 6.9-4.1 10.3-4.6-3.2 1.2-6.8 2.9-10.2 5 1.7-1 3.4-2.1 5.2-2.7-0.7 0.1-1.2 0.6-1.8 0.7 1.4 0.2 3.1-1.2 4.6-1.6 0.1-0.2 0.3-0.3 0.4-0.3z"/>
			<path id="path441" class="st2" d="m156.9 65.5c8.5 0.5 12.5 1.6 19.1 3.4-3.9-0.9-6.5-1.6-10.3-2.2 12.9 2.8 16 4.6 21.9 7.6-1.3-0.7-2.4-1-3.8-1.6l0.6 0.6c-1.4-0.6-3.8-1.4-5.2-1.9 4.5 2 11.7 5 16 7.8-9.1-4.9-20.2-8.5-30-10.8 10.4 1.2-3.1-1.7-6-2.4-1-0.1-1.6-0.3-2.3-0.5z"/>
			<path id="path443" class="st2" d="m153.4 34.1c-13.6-1.4-27.1 2.1-40.6 3.1 13.5-4 27.5-5 41.2-3.2-0.2 0-0.4 0.1-0.6 0.1z"/>
			<path id="path445" class="st2" d="m124.5 227.9c-10.7-0.7-20.7-4.2-30.7-6.7 13 2.5 26 5.5 39.5 6.5-2.5 0-5 1-7.7 1.1-6.8-0.4-7.9-0.8-1.1-0.9z"/>
			<path id="path447" class="st2" d="m168.4 216.7c0.3-0.3-1.3 0.7-2.9 1.7 2.5-1.4 2.8-1.2 3-1-3.9 2.5-1.1 0.2-5 2.6 6-2.8 8.3-3.2 15-7.5-8.2 4.9-25.8 12.9-17.5 7.5 6.5-3.8 3.5-1.2 8.1-3.7-0.2 0.1-0.5 0.3-0.7 0.4z"/>
			<path id="path449" class="st2" d="m191 196.7c5.5-6 10.7-13.4 15.5-23.3-4.3 10.5-9.5 18.9-10.9 19-0.8 0.4-2.9 2.7-4.6 4.3z"/>
			<path id="path451" class="st2" d="m210.8 63.7c9.6 9 13.5 14.5 13.9 17.2-5.6-7.2-9.9-12.6-15.4-18.2 0.5 0.3 1 0.7 1.5 1z"/>
			<path id="path453" class="st2" d="m189 200c-13.5 13.7-13 11.1-14 10.5 5.5-3.7 10.1-7.2 14-10.5z"/>
			<path id="path455" class="st2" d="m246.3 117c2.5 8.9 2.9 18.3 1.6 13.3-0.6-5.3-1.2-9.8-1.6-13.3z"/>
			<path id="path457" class="st2" d="m82.2 174.9c-0.6-1.8-1.9-4.3-4.7-8.5 7.5 7.6 5.4 7.7 6.1 9.6-0.5-0.3-1-0.7-1.4-1.1z"/>
			<path id="path459" class="st2" d="m79.3 157.3c-1.8-1.4 4.6 6.1 2.9 5.2-1.3-1-3.6-4.2-4.8-5.9-1.4-2.9-0.6-2.7 1.9 0.7z"/>
			<path id="path461" class="st2" d="m97.3 54.8c6.1-3.7 8.4-4.5 12.6-6.2-7.8 4.4-10.3 5.2-14.4 7.6 0.6-0.5 1.2-1 1.8-1.4z"/>
			<path id="path463" class="st2" d="m78.2 231.4c11.6 5.1 22 8.5 30.9 10.7-5.5-0.9-29.1-9.5-30.9-10.7z"/>
			<path id="path465" class="st2" d="m50.4 125.6c0.2 0.1-0.3-12.5 0.2-5.9 0.2 2.2 0.4 6.3 1.1 11.1-0.1 1.9-0.5 0.7-1.3-5.2z"/>
			<path id="path467" class="st2" d="m97.3 54.8c-3.2 2-8.7 6.7-9.9 7.1 3.8-3.2 7.9-6.2 9.9-7.1z"/>
			<path id="path469" class="st2" d="m66.6 117.5c0.5-3.3 1.2 1.7 1.6 0.3-0.1 6.3-1.1 2.6-1.6 1.2v-1.5z"/>
			<path id="path471" class="st2" d="m138.3 62c9.7-1.5 19.4-1.5 28.5-0.6-10.7-0.9-20.4-0.6-28.9 0.7 0.1 0 0.3 0 0.4-0.1z"/>
			<path id="path473" class="st2" d="m232.9 112.8c2.5 4.3-7.7-13.7-1.5-5.1 1.8 3.9 1.9 4.9 1.9 5.9-0.2-0.3-0.3-0.5-0.4-0.8z"/>
			<path id="path475" class="st2" d="m185.6 75.6c-1.4-1-3.7-2.3-6.9-3.7 2.8 1.1 5.2 1.9 8 3.2-1.4-0.6-2.4-0.9-3.8-1.5 4.2 1.9 2.7 1.7 5 3.1-0.7-0.4-1.5-0.8-2.3-1.1z"/>
			<path id="path477" class="st2" d="m60.1 196c-1.4-1.8-2.9-3.7-4.4-5.8 0.5 0.5 0.9 1 1.4 1.4 3.3 3.7 5 5.7 3 4.4z"/>
			<path id="path479" class="st2" d="m35.8 136c0.1 1.9 0.1 3.7 0.2 5.5-0.9-5.3-1-8-0.6-7.5 0.2 0.7 0.3 1.4 0.4 2z"/>
			<path id="path481" class="st2" d="m171.3 63c-10.7-1.7-22.3-1.7-31.8-0.6 11-1.4 21.1-1.2 32.2 0.6h-0.4z"/>
			<path id="path483" class="st2" d="m172.6 63.5c-10-1.9-22.2-1.9-30.4-1.3 9.7-0.8 19.9-0.4 30.8 1.4-0.1 0-0.2-0.1-0.4-0.1z"/>
			<path id="path485" class="st2" d="m178.3 35c0.3 0.3 4.1 1.3 4.5 1.7-7.3-1.7-6-1.8-9-2.6 1.5 0.2 3 0.5 4.5 0.9z"/>
			<path id="path487" class="st2" d="m125.6 67.8c2.1-0.1 6-3.8 7.4-2.4-3.1 0.9-5.3 1.6-7.4 2.4z"/>
			<path id="path489" class="st2" d="m156.7 70.5c-0.3 0.3 1.6 0.7-3.8 0.9 0.6-0.3 1.2-0.7 2-1 0.6 0.1 1.2 0.1 1.8 0.1z"/>
			<path id="path491" class="st2" d="m173.7 64c-10.2-2-20.4-2.5-30.4-1.8 6.2-0.8 22.1-0.1 30.4 1.8z"/>
			<path id="path493" class="st2" d="m179.4 235.7c-2.5 1.1-8.1 4-7.5 3.2 1.5-0.4 9.1-4.8 9.4-4.4-0.6 0.4-1.2 0.8-1.9 1.2z"/>
			<path id="path495" class="st2" d="m71.4 78.2c1.6-2.5 2.2-3.4 3.5-5.2-2.1 3.4-4.8 8.4-5 8 0.1 0 1-1.9 1.5-2.8z"/>
			<path id="path497" class="st2" d="m134.8 62.3c5.5-1.1 11.2-2.1 17.9-2.5-6.7 0.5-12.4 1.4-18.5 2.8 0.2 0 0.4-0.2 0.6-0.3z"/>
			<path id="path499" class="st2" d="m179.1 35.8c5.5 1.4 9.2 2.5 2.9 1.2-1-0.4-2-0.8-2.9-1.2z"/>
			<path id="path501" class="st2" d="m167.8 61.9c-10.3-1-17.1-1.4-28.6 0.3 11.5-1.7 18.9-1.5 28.8-0.3h-0.2z"/>
			<path id="path503" class="st2" d="m167.8 74.1c3.3 0.5 7 1.4 7.2 1.8-0.6 0-5.2-1.2-6.5-1.5-0.2-0.1-0.4-0.2-0.7-0.3z"/>
			<path id="path505" class="st2" d="m178.3 35c-3.5-0.8-5.3-1.2-7.5-1.8 4 0.8 9.6 2 7.5 1.8z"/>
			<path id="path507" class="st2" d="m85.4 85.4c1.2-1.4 2.6-3 3.3-3.2-1.6 2.1-3.1 3.7-3.8 4.1 0.1-0.3 0.3-0.6 0.5-0.9z"/>
			<path id="path509" class="st2" d="m72.7 97c-0.5 0.6-1 1-1.7 2.5 1.3-4 1.2-2 2-3.5 0 0.4-0.1 0.7-0.3 1z"/>
			<path id="path511" class="st2" d="m211.3 62.9c-0.5-0.8-4-3.1-5.1-4.2 3.1 2.2 4.3 3.3 6.2 4.9-0.4-0.1-0.8-0.4-1.1-0.7z"/>
			<path id="path513" class="st2" d="m140.2 62.1c3.4-0.3 9.9-1.3 15.3-1.3-7.5 0.6-10.3 0.6-15.5 1.4 0.1 0 0.2 0 0.2-0.1z"/>
			<path id="path515" class="st2" d="m247.8 133.1v-2c0.8 5.3 0.4 3.4 0 2z"/>
			<path id="path517" class="st2" d="m58 105.4"/>
			<path id="path519" class="st2" d="m106.6 244.5c0.9 0.1-2.7-0.3-1.8-0.3l1.8 0.3z"/>
			<path id="path521" class="st2" d="m32.3 97"/>
			<path id="path523" class="st2" d="m32.7 95.9"/>
			<path id="path525" class="st2" d="m57.3 105.7"/>
			<path id="path527" class="st2" d="m57.6 105.3"/>
			<path id="path529" class="st2" d="m41.4 163.6"/>
			<path id="path531" class="st2" d="m118.4 42.2c5.2-1.3 6.9-1.1 15.2-2.9-11.1 3-10.3 1.6-17.2 3.8 0.6-0.3 1.3-0.6 2-0.9z"/>
		</g>
		<g id="g639" fill="#94d8eb">
			<path id="path535" class="st3" d="m155.1 194.9c16.4-3.6 24.4-19.9 36.2-30-9 15.9-22.7 31.7-38.6 39.7 0.7-3.5 4.7-4.1 5.7-7-3.9 1.8-7.3 3.7-10.9 6.2 1.5-1.1 2.9-0.6 4.2-1.1-13.2 2.2-26.9 1.4-40.3-0.2 4.7 3.3 10.5 3.8 16.1 3.2-1.4-0.5-3-0.6-4.2-0.4 1.9 0.7 3.7 0.3 5.3 0.3-1-0.3-2.7 0.1-3.5-0.7 4 0.9 7.8 0.7 11.7 0.5-2.1-0.2-4.2-0.4-6.1 0.5 3.8-0.2 7.9-0.9 11.5 1-23.2 6-48.4-6.3-67.5-19-1.4 3.8 2.5 5.1 3.5 8.2-3.6-3.4-5.9-7.5-8.9-11.2 2.8 2.6 5.3 4.6 6.7 8.3-4.4-2.7-8.5-6.3-10.7-10.8 1.4 0.5 0.7 2.4 2.2 2.9 0.2-0.5-0.3-0.6-0.8-0.8 0.8 0.8 2 1.8 2.5 3.6-1.1-1.5-2.5-2-3-3.7 0.3 0.6 0.6 1.3 1.1 1.5-3.9-7.2-9.2-13.4-12.8-21.1 1.8 3.9 4.5 6.9 6.3 10.8-5.8-13.8-11.6-27.6-12.5-42.8-0.9 2.4 1 4.6 0.2 7 1.5-25 9.1-50.4 25.3-70.1-4.2 2.7-7.2 6.4-9.8 10.8 1-2.8 3.5-5.1 4-8.1l-0.2 0.5c6.5-6.1 13.2-12.8 21.3-17.3-3.9 1.8-7.1 4.9-11 6.7 0.2-0.5 0.2-0.5 0.6-0.3-7.3 5.4-10.4 15.4-18.7 20.4 14.4-30.9 54-43.7 87-42.5 35.7 1.2 69.5 22.4 85.6 53.8-7.6-5.9-13.7-12.9-20.6-19.1 2 1.8 4.1 3.6 6 5.9-10-11.1-21-22.5-36.3-26.4 1.7 1.2 4.1 2 5.9 3.2-2.2-1.3-4.8-1.7-6.8-3.5 0.5 0.2 0.5 0.2 1 0.3-4.8-0.1-9.1-3.3-13.5-4.3 1 0.3 1.4 0.5 2.4 0.9-5.9-3.2-12.4-4.5-18.9-5.8 2.9 1 5.6 1 8.1 1.3-0.5-0.2-1-0.3-1.6 0 0.5-1.4 2.4-0.7 2.4-0.7-14.7-6.9-31.4-3.9-47-1 5.8-1.1 11.7-2.7 17.4-3.3-23.1 2.2-44.6 12.5-60.1 28.7 17.6-17.5 44-29.3 69.7-25.9-6.7 0.8-13 0.1-19.3 2.6 5.8 0.5 11.1-2.4 17-2.4-7.2 0.6-14.3 2.3-21.2 3.5 6-1.6 11.7-2.7 17.8-3.1-4.8 1.4-9.6 1.3-14.5 2.8 5.1 0.8 9.7-2.9 14.8-2.1-4.8-0.1-9.8 1.8-14.6 1.6 1 0.3 2.4-0.7 3.7 0.3-4.5 2.1-9.7 2.9-13.9 5.6 6.9-1.2 13.2-3.7 20.1-5-6.7 0.8-12.9 2.8-19.5 4.7 1.5-1.1 3.2-1.5 4.8-1.4-4.4 1.6-8.4 3.9-13.1 4.8 14.2-5 29.1-7.6 44.2-7.4-1.8 0.4-4.2-0.4-6.1 0.5 9.8-0.2 19.5-0.4 28.8 2.4-2.2-1.3-4.5-1.1-7-1.5 6.1 1.1 11 4 17 5.1-0.6-1.3-2.4-0.9-3.6-1.8 6.7 0.8 11.6 5.2 17.9 7-27.7-12.7-60.1-11.1-88.2-0.5 5-1.9 10-3.8 14.7-6.4-4.6-0.6-9.2 1.5-12.7 3.9 1.6 1.6 7.5 0.1 5.9 1.6-6.9 7.1-17 9.8-26.1 14 3.9-3.4 9.4-5.1 12.5-9.3-1.6 0-3.1 1-4.2 1.1s0.2-0.5-0.1-1.1c-7.8 11.5-21.2 18.9-25.7 32.7 0.2-0.5 0.3-0.9 1-1.2-0.6 0.3-1 1.2-1.3 2.2 0.2-3.6 4.8-5.7 3.6-9.9-2.7 5.9-7.3 11.2-8.1 17.8 2.4-0.7 1.8-3.6 4.3-4.3-2.7 4.4-3.7 8.8-6.4 13.1 1.9-12.6 8-23.7 13.2-35.1-1.8 0.4-2.4 2.3-3.9 3.4l0.2-0.5c-3.3 6.2-7.4 11.7-10.3 18.1 0.2-0.5 0.2-0.5 0.3-0.9-0.1 13.8-3.3 27-5.2 41.2 0.1 1.1-0.8-0.8-1.3-1-1.4 3.8 0.1 8.6 2.8 11.6 0.8-0.8-0.3-2.2 0.5-3 1.3 5.3 2.7 10.5 2.9 15.9-4.2-0.4-3.2-6-6.9-6.2 6.5 10.3 15.8 19 21.6 29.6-0.5-0.2-1.4-0.5-1.7-1.2 5.4 3 9.9 6.8 15.7 8.8-0.8-0.8-1.7-1.2-2.3-2.4-0.2 0.5-0.2 0.5 0.3 0.6-2-1.8-4.1-3.6-6.8-5.1 0.6 1.3 2.2 1.3 3.6 1.8-6.2-8.1-12.8-15.3-18.2-24.1 1.1 1.5 2.8 2.6 3.3 4.4-0.4-3.3-3.2-6-4.1-9.5 0 1.6 1.2 2.6 1.2 4.2-0.4-9.2-2.7-18-2.2-26.8-0.2 0.5-0.3 0.9 0 1.6-1.4-24.4 14.4-45.8 32.6-60.5-8.4 5.5-14.2 14-20.3 21.9 23.8-34.5 73.6-44.1 109.5-22.7-19.8-10.9-41.9-15.1-64.6-9-28 7.4-47.3 29.7-53.4 56.7 5.8-25 24.2-46 50-54.8 38.7-13.1 79.2 7.4 98.4 40.8-21.7-39.7-75.6-59.2-116.3-31.4-37.3 24.3-41.6 78-9.8 107.6-6.4-9.2-12.6-18.9-18.8-28.6 3.3 4.4 4.1 9.5 7.4 13.8-10.5-20.3-11.6-44-2-64.5 10.1-20.6 30.2-34.6 52.1-40-20.3 5.4-38.8 17.9-49.4 36.9-11.5 21.4-11.1 47 3.5 67.7 15.4 21.5 41.8 30.5 66.4 25-12.4 3-25 0.5-37.1-1.7 2.2 1.3 5.4 1.4 7.8 2.3-17.2-6.2-31.8-17.9-42.2-32.3 12 16 28.4 28.8 48.8 32-20.6-2.7-37.1-16.6-48.4-32.9 13.2 18.6 33.9 33 57.3 32.4-4.2-0.4-8.8 0.5-13.3-0.5 23 0.3 48.7-9.5 56.2-31.8 0.8-2.4 0.3 0.6 0.3 0.6m6.3-23.7m-0.6 7.3c-0.3 9.7 0.8-1.1 0.8-5.1 0 7-0.4 5.3-0.8 4.7 0.1-0.5 0.1-1-0.1-4.4 0.1 9.9-2.5-8.6-0.2 4.4 0.2-0.1-0.2 6.4 0.3 0.4zm-109.6-67.8c-6.8 9.1-1.2 2.2-3.9 6 6.2-8.2 2.2-4.8 9.9-13.6-8.9 9.7-4.9 5.7-8.2 9.9 0 0.1 1.5-1.5 2.2-2.3zm-9.8 58.9c0.1 1.6 0.2 3.6 0.9 8.2 1.6 4.6-0.2-13.4 1.4-25.1 2.6-10.6-0.6 2.1 0-1.7l0.8-3.5c-1.8 8.3 0.8-4.5-2.7 14.8 0.4-5.2 0.2-2.8 0.8-8.1-0.8 5.9-1.2 10.9-1.2 15.8zm104.7-97.3c5.3 2.4 1.9 2.4 2.9 3.7s6.5 4 18.6 10.2c-0.7-1.7 2-1.6-0.7-4.3-3.9-1.5 20.6 13.2 8.7 5.3 0-1-1.8-3-26.6-14-1-0.3-1.9-0.6-2.9-0.9zm-116.1 54.5c-6 21-6.7 35.6-5.5 35.8-0.1-1.4-0.4 0.3-0.2-4.5 2.3-12.7 0.3 13.2 1-3-0.2-0.3-0.8 2.3-0.2-4.3 2-7.8-0.6 11.8 1-0.1 1.4-8.5 0.2-6.8 2.2-15.2 1.8-6.1 2.9-9.8 1.7-8.7zm146.5-38.2c-1.9-0.2-6-1.7-1 2.5 10.7 7.8 11.1 5.8 1-2.5zm-70.6-10.2c-8.5 1.6-16.9 3.9-25.2 6.2 8.9-3.7 18.5-5 27.8-7-13.8 0.9-26.2 7-39.1 11.4 3.7-1.3 7.6-3.1 11.8-4.3-2.6 1.2-4.7 2.6-7.3 3.7 4-2.3 8.1-4.5 12.7-5.6 7-1.9 12.7-3.2 19.3-4.4zm-17.6-2.4c-3.7 1.2-9 3.1-11.6 4.1 3.3-1.1-5.2 3.1-1.4 1.5 6.8-2.9 25.1-7.7 18.1-6.5-6 1.5-6.4 1.4-5.1 0.9zm97.7 19.4c-0.8-0.1-0.2 1.1 2 3.7 3.3 2.5 5.9 4.4-2-3.7zm-139.9 16.2c1-1.5-1.8 1.7-2 1.8-8.8 14.6-7.5 12.5-3.9 6.9 2.1-3.5 3.7-5.9 5.9-8.7zm35.6 115c-1.2-0.5 3.7 1.5 3.7 1.5-5.6-2.7 2.2 0.3-0.1-0.8-1-0.3-6.6-2.7-5.8-2.2-2-0.9 1.5 1 2.2 1.5zm-17.3-11.2c-14.7-18.1 2.5 2.8 0.4 1.2-4-3.8-3-2.9-6.8-7 1.8 2.2 8.7 8.7 10.5 10.3-3-2.4-5.9-5.1-12.3-12.3 1.6 2.2 3.2 4.1 11.6 11.9-0.6-0.8-1.6-1.9-3.4-4.1zm93.6-27.1c0.4-1.9-0.9 3.3-0.9 3.3 1.9-8.8 0.2 1.6 2.7-13.7-0.3 2.9-0.8 6.3-1.8 10.4zm-71.5 41c-2.8-1.3-6.7-3.3-11.5-6.2-2.8-1.5 4.2 2.8 11.5 6.2zm-23.6-131.8c-2.7 2.1-5.6 4.2-7.8 7.2 1.3-0.6 0.7-1.9 2.2-2.3 1.1-1.1 3.6-3.3 5.6-4.9zm47.4-19.5c9.3-0.6-8.8 1-10.7 1.2 3.5-0.6 7-1 10.7-1.2zm-78.9 83.6c0 0.6-0.1 1.2-0.1 1.9 0.2 0 0.3-0.2 0.5-0.7 0.7-8.7-0.2-0.9-0.4-1.2zm10.6 47.1c-1.1-1.5-0.4 0.1-0.3 0.4 2 2.8 0.6 0.3 0.3-0.4zm66.4-139.4c9.8-0.4-2.9 0.5 11.9-0.1-2.3-0.2 1.2-0.2-11.9 0.1zm6.6 7.7c-15.6 1.8-6.7 0.5-4.4 0.4 0 0 6.8-0.3 5.3-0.3-0.3 0-0.6 0-0.9-0.1zm-42.2 155.1"/>
			<path id="path537" class="st3" d="m143.5 218.4c-2 0.5-0.3 0.4 3.5-0.3-4.7 0.7-11.9 1.5-11.8 1.2-1.1 0.2-4.6 0.6-0.5 0.5-0.9 0 1.4-0.3 3.6-0.5 9.4-1.3-12.6 1.4-2.4 1.6 7.6-1.3-7.2-0.1-8.7-0.4-6 0.1-2.3 0.9-11.6 0.3 9 0.9-10.7-2.9 3.6 0-25.4-7.4-6.3-0.6-15.7-2.9 3 0.9 9.1 2.3 9.3 2.3-12.8-3.3 4.7 1.6-17.8-4.7-1.6-0.9-0.2-0.4-5-2.9 10.6 5.1-4.9-1.9-10.4-5.1 8.3 4.5-9-9.1 3.3-0.1-17.6-17.9-23.1-23.5-23.3-22.1s3.6 8.4 4.6 10.4c-1.2-1.4-2.4-2.9-3.6-4.6-8.5-11.7 5.4 7.5 3.1 5.7-4.3-5.9-8.6-13-12.3-21.2s-6.4-17.2-7.1-23.7c-1.5-13-0.6-13.4 9.8 21.8 0.1 0.3 0.1 0.6-2.6-5.2-5-15.6 3.9 7.4-2.5-7.5 0.1 0.4 2.4 6.9 1.3 4.4-4.9-28.3-3-19.2 4.1-1.2 3.6 9 10.2 18.5 18.1 26.2 7.9 7.8 16.7 13.7 25.2 17.8-3.5-1.7-13.6-8-13.1-7.7 0.6-0.6-11.4-12.7 9.4 2.7 1.4 1 6.4 3.7 0.4 1-0.6-0.4-1.2-0.9 5.6 2.4-4.2-0.9-2.6 0.9 5.1 4.9 6.7 1.6-2-1.4-0.2-1.1 12.6 3.6 1.5 1.4 12.1 4.4-4.6-1.6-7.9-3.2-10.5-4.7 7.3 2.2-0.5 0.3 6.3 2.4-3.3-1-3-1-2.7-1.1 9.3 2.5 8.1 3.1 16.5 4.5 0 0 8.1-0.2 11.7-0.5-5.7 1.8 2.7 2.3 3.1 3.4 0.6-0.1 1.4-0.3 2.1-0.4zm-42.9-2.7c10.1 3 21.7 4.8 25.9 4.6-28.9-7.7-16.7-2-27.5-5.5-0.4-0.1 1 0.6 1.6 0.9zm-45.2-32.4c2.1 3.2 3.9 6 6 8.8-5.2-8-7.5-11.9-6-8.8zm-0.5-2c-5.5-12 9.9 14-2.6-5.6 0.7 1.6 1.6 3.6 2.6 5.6z"/>
			<path id="path539" class="st3" d="m214.6 103.2c-19.7-27.4-55.2-43.9-88.8-37.4 10.6-1 21.2-1.9 31.7-1.3-2.1-0.2-3.7-0.3-5.6-1 12 1.1 22.6 6 33.4 10.5-2.5-2-5.5-2.5-8.1-4.5 6.2 3.8 12.5 7.2 18.5 11.5-3.3-2.8-7.6-4.3-10.9-7.1 34.3 18.3 50.6 58.2 42 95.4-6.7 28.9-27 52.4-53.2 65.3 48.5-22.4 69.8-85.9 40.8-131.6z"/>
			<path id="path541" class="st3" d="m241.7 127c-2.3-7.1-5.7-15.1-10.5-23.7s-11.5-16.8-19.6-24.1-17-13.2-26.6-18.4c7.1 3.4-12.4-4.9-16.8-6-38.9-0.9 8.5 3.2-7.1-0.3-20.1 1.9-29 3-31.4 3.2-2.4 0.3 1.6-0.3 8.1-1.2 13.1-1.8 40.3 0.9 33.7-1.7 7.5 2.6 15.2 6 7.5 3 18.2 10.9 27.6 16.3 31.1 18s1-1.2-1.6-4.1c7.1 7.1 16.6 18.9-2.6 0.2 15.8 20.3 17.9 22.3 16.1 18.8s-6.1-11-3.4-8.5c-0.4-0.3-5-4.7 3 3.8-10.4-11.2-1.5-3.1 4.3 3.3 3 4.8 9.5 16.4 7.4 13 0.5 0.9-5.6-9.1 1.3 2 2.2 4.7 2 4.3 1.6 3.6 5.8 23.3 8.1 29.5 9.5 31.6m-45-71.3c-4.2-2.7-4.8-3.2-5.1-3.4 1.6 1.3-0.5 0.2 20.6 17.2-10.4-9.5-3.4-3.7-16.1-14 0.2 0.1 0.4 0.1 0.6 0.2z"/>
			<path id="path543" class="st3" d="m180.5 153.1"/>
			<path id="path545" class="st3" d="m158.7 186.6c-23.7 14.8-54.7 6.8-70.6-14.9 19 24.9 57.8 29.4 80.8 8.4 1-1.1 1.9-2.2 2.8-3.3 0.3-0.3-0.1-0.5-0.1-0.5-1 1.2-2 2.5-3 3.7"/>
			<path id="path547" class="st3" d="m187.6 219.1c1.9-1.6 3.8-2.5 5.5-4-7.3 5.3-14.1 10.8-22.4 14.2 15-7.3 27.4-19.3 38-32-31.5 45.5-101.7 52-142.4 14 33.2 29 84.1 32.5 120.2 8.8-10.4 6.4-21.8 11.2-33.4 15 5.3-1.3 11-3.5 16.3-5.5 3.7-1.5 5.4-2.3 18.2-10.5z"/>
			<path id="path549" class="st3" d="m152.4 212.7c16.9-8.9 7.3-4.4 12.5-8 18.8-14.5 10.7-4.3 10-2-2.8 1.8-1.4 0.2-7.9 4.4 5.6-3.6 1.8-0.7 4.2-2.1-6.4 3.7-2.4 0.8-19.2 8.6-4.4 1.4 6.8-2.1-1.2 1 1.4-0.8 2-1.4-9.5 1 1.4-0.2 2.8-0.4 4.2-0.6 2.5-0.8-3.4 0.2-3.2-0.2 3.1-0.3 2.4 0.1 9.4-1.2-2.8 0.5-4.2 0.8-3.6 0.5 2.8-0.7 4.1-1 6.8-1.8 0.6-0.4-3.5 0.8-2.8 0.5 0.2 0 0.3-0.1 0.3-0.1z"/>
			<path id="path551" class="st3" d="m170 201.6c-7.3 3.7-11.3 5.1-9.1 3.8 1.1-0.4 3.2-1.2 6.7-3.1-5.2 2.3-24.7 7.6-4.3 0.3 2.9-1 5.5-2.4 9-4.8-6.1 3.7-10.5 5.7-18 8.5 32-22.9 21.3-10.5 18.9-7.4-0.9 0.9-2 1.8-3.2 2.7z"/>
			<path id="path553" class="st3" d="m236.3 99.3c-5.9-10.1-6.2-11.5-5.5-11.6s2.3 1-3.8-7.5c4.4 6.3 8.9 13.7 11.2 19s3.1 8.2-1.4 1c-0.2-0.4-0.3-0.7-0.5-0.9z"/>
			<path id="path555" class="st3" d="m75.9 136.9c2.4-29.3 23-54.8 51.5-63.6-7.9 2.5-14.5 5.9-21.8 9.7 0.2-0.5 0.6-0.3 0.8-0.8-19 15.4-28.8 39.6-28.9 63.5-0.6-2.9-1.8-5.4-1.9-8 2.3-17.9 3-19.9 0.3-0.8z"/>
			<path id="path557" class="st3" d="m151.9 190.5c-1.6 1.1-3.6 0.9-5.1 2l0.6-0.3c-2.1 1.4-4.2 1.1-6.6 1.9 6.1-2 13-3.3 19.2-6.9-9.7 4.5-20.9 5.7-31.6 5.6 8.8 1 17.1 0.3 25.3-3.1-0.6 0.2-1.2 0.5-1.8 0.8z"/>
			<path id="path559" class="st3" d="m178.5 138.8c-0.4-0.7 0.2 2.6 0.4 4.9"/>
			<path id="path561" class="st3" d="m179.1 56.2c2 1.5-9.1-1.7-26.3-4.3 1.1-0.6 23.2 3.8 23.7 3.3 0.9 0.3 1.7 0.7 2.6 1z"/>
			<path id="path563" class="st3" d="m179.7 152.1c-19.9 34.5-11.1 26-9.8 23.8 5.8-9.3 8.6-17.4 9.8-23.8z"/>
			<path id="path565" class="st3" d="m209.8 78.3c7.5 8.1-0.9 0.4-11-7.7 2.2 1.2 5.8 3.7 11 7.7z"/>
			<path id="path567" class="st3" d="m69.5 204.8c-1.1-1.5-10.9-13.5-11.3-14.8 17.4 19.2 15.3 17.9 15 18.1-1.3-1-2.5-2.2-3.7-3.3z"/>
			<path id="path569" class="st3" d="m67.7 197.8c-4.3-4.9 8.6 8.7 6.5 7.1-3.9-3.5-11.2-12-13.5-15.1-2.3-3.8 0.6 0.1 7 8z"/>
			<path id="path571" class="st3" d="m147.2 42.8c-7.3 0.3 10 1.6 6.8 1.5-22-0.3-3-1-10.6-1.6 1.3 0.1 2.6 0.1 3.8 0.1z"/>
			<path id="path573" class="st3" d="m225.4 131.6c-7.5-22.4-21-43.3-41.8-55.6 9.8 5.7 17.3 14.8 24.2 23.2 10 12.8 17.3 31.3 17.6 32.4z"/>
			<path id="path575" class="st3" d="m57.5 78.3c-4.1 6.2 24.6-23.9 11.8-12.6-5 4.5-12.5 13.8-17.7 22.1-2.4 4.4-1.3 2.1 5.9-9.5z"/>
			<path id="path577" class="st3" d="m147.2 42.8c-5.7-0.3-11-0.4-7.8-0.8 4.4 0.3 8.9 0.7 7.8 0.8z"/>
			<path id="path579" class="st3" d="m47.1 117.4c-0.7 4.7-1.5 13.9-1.2 13.2-0.3 0.7-0.6 1.2 0.7-10.7 0.1-0.9 0.3-1.7 0.5-2.5z"/>
			<path id="path581" class="st3" d="m123.7 214.6c-9-2.2-13.2-3.9-18.2-6.2 5 2.3 15.9 5.4 19.6 6.3-0.5 0-0.9 0-1.4-0.1z"/>
			<path id="path583" class="st3" d="m62.4 118.5c4.5-13.5-2.5 13 0.7-4 4.1-10.6-1.7 7.7-0.3 2.7-0.2 0.4-0.3 0.9-0.4 1.3z"/>
			<path id="path585" class="st3" d="m176.4 193.4c-0.8 1-2.4 2.6-2.1 2.6-3.4 2.5-8.5 5.5-5.2 3.3 1.4-0.8 3.6-2.4 4.9-3.3-2.6 1.7-1.1 0.3 0.1-0.8 0.8-0.5 1.5-1.2 2.3-1.8z"/>
			<path id="path587" class="st3" d="m222 160.4c-0.1-0.1-8.2 28.1-5.4 21.3 4.7-17.4 5.7-27.7 5.4-21.3z"/>
			<path id="path589" class="st3" d="m38.9 169.3c2.6 7.1 5.5 13.4 8.9 19.6-7.5-15.2-10.6-24.5-10.6-25 0.5 1.9 1.1 3.7 1.7 5.4z"/>
			<path id="path591" class="st3" d="m109.8 209.5c5.5 2.1 17.1 4.6 21.5 5.3-7.6-1.1-15.9-3.2-22.4-5.7 0.3 0.2 0.6 0.3 0.9 0.4z"/>
			<path id="path593" class="st3" d="m111.1 209.8c6.7 2.3 12.3 3.8 23.2 4.9-10.9-1.1-13.2-2-24.2-5.2 0.3 0.1 0.6 0.2 1 0.3z"/>
			<path id="path595" class="st3" d="m249.5 156.1c-0.4 3.7 0-8.9 0.2-7.4 0 2.5-0.1 4.9-0.2 7.4z"/>
			<path id="path597" class="st3" d="m152.4 212.7c0.8-0.3 0.8-0.2 0.8-0.2-6 1.2-9.2 1.6-2.4 0 0.8 0.1 1.2 0.1 1.6 0.2z"/>
			<path id="path599" class="st3" d="m112.1 210c7.8 2.4 15.2 3.8 22.1 4.5-6.4-0.4-17.5-2.8-22.1-4.5z"/>
			<path id="path601" class="st3" d="m113 69.4c-8.6 4.5 13.2-4.1 4.8-1.5-14.4 6.8 1.8-0.9-10.2 4.1 1.8-0.9 3.6-1.8 5.4-2.6z"/>
			<path id="path603" class="st3" d="m123.1 42.5c10.5-1.6 14.8-1.8 8.4-1-9.6 1.2-11.7 1.7-14.4 2.2 0.1 0 3.8-0.9 6-1.2z"/>
			<path id="path605" class="st3" d="m120.2 214.4c-1.8-0.7-11.6-3.6-11.9-4.1 3.5 1.4 6.8 2.6 13.9 4.4-0.7-0.1-1.4-0.2-2-0.3z"/>
			<path id="path607" class="st3" d="m107.9 209.2c8.6 3 9.9 3.8 20.2 5.7-10.4-1.9-15-3.5-20.7-5.9 0.2 0 0.3 0.1 0.5 0.2z"/>
			<path id="path609" class="st3" d="m194.6 139.7c0.5 3.6 0.5 10.6 0.2 6.4-0.3-4.1 0-4.9-0.3-6.7 0 0.1 0 0.2 0.1 0.3z"/>
			<path id="path611" class="st3" d="m249.4 156.5c0.3-6.4 0.4-8.5 0.5-8.9-0.1 5.6-0.8 14.6-0.5 8.9z"/>
			<path id="path613" class="st3" d="m51.8 156.1c0.3 0.5 1.3 3.8 1.8 4.8 0.4 2-0.8-1.3-1.5-3.4-0.1-0.4-0.2-0.9-0.3-1.4z"/>
			<path id="path615" class="st3" d="m51.8 106.5c0-0.3 0.1-0.9 0.4-2.3 3.4-7.4-0.4 2 0.2 0.7-0.2 0.6-0.4 1.1-0.6 1.6z"/>
			<path id="path617" class="st3" d="m192.2 62c-3.2-1.8-1.8-1.3 4.2 2-6-3.3-7.3-3.8-2.3-0.9-0.6-0.3-1.2-0.7-1.9-1.1z"/>
			<path id="path619" class="st3" d="m128.8 214.8c-1-0.3-4.8-1-12-2.4 16.7 2 1.1 0.7 12.7 2.5-0.3-0.1-0.5-0.1-0.7-0.1z"/>
			<path id="path621" class="st3" d="m192.3 66.8c1 0.5 2.1 1.1 3.2 1.8 5.7 4.1 0.9 0.8-3.2-1.8z"/>
			<path id="path623" class="st3" d="m86.7 196.9"/>
			<path id="path625" class="st3" d="m75.7 221.5"/>
			<path id="path627" class="st3" d="m76.3 221.8"/>
			<path id="path629" class="st3" d="m75.5 221.2"/>
			<path id="path631" class="st3" d="m86.8 197.6"/>
			<path id="path633" class="st3" d="m86.5 197.1"/>
			<path id="path635" class="st3" d="m161.6 228.7"/>
			<path id="path637" class="st3" d="m188.3 53.3c-1.1-0.1 1.7 1.6 2.4 2.3-7.6-3.9 0.4-0.6-5.8-3.9 1.1 0.5 2.3 1 3.4 1.6z"/>
		</g>
	</g>
	<g id="g649" fill="#fff">
		<path id="path643" class="st4" d="m46.2 173.7v-63.9h19.6v22.1h19.7v-22.1h19.6v63.9h-19.6v-22.1h-19.7v22.1z"/>
		<path id="path645" class="st4" d="m116.2 173.7v-63.9h27.5c10.7 0 19.4 3 26.2 8.9s10.2 13.6 10.2 23-3.4 17.1-10.2 23-15.5 8.9-26.2 8.9h-27.5zm20.1-16.9h6.2c10.9 0 17-5.3 17-15.1s-6.1-15.1-17-15.1h-6.2z"/>
		<path id="path647" class="st4" d="m187.8 173.7v-63.9h19.6v44.3h29.8v19.6z"/>
	</g>
</g>
</svg>
