<?xml version="1.0" encoding="UTF-8"?>
<svg id="svg34" width="664.35pt" height="252.44pt" version="1.1" viewBox="0 0 664.35 252.44" xmlns="http://www.w3.org/2000/svg" xmlns:cc="http://creativecommons.org/ns#" xmlns:dc="http://purl.org/dc/elements/1.1/" xmlns:rdf="http://www.w3.org/1999/02/22-rdf-syntax-ns#">
 <metadata id="metadata40">
  <rdf:RDF>
   <cc:Work rdf:about="">
    <dc:format>image/svg+xml</dc:format>
    <dc:type rdf:resource="http://purl.org/dc/dcmitype/StillImage"/>
    <dc:title/>
   </cc:Work>
  </rdf:RDF>
 </metadata>
 <g id="#6ebd01ff" transform="translate(-15.96 -71.198)" fill="#6fbc00">
  <path id="path31" d="m535.4 78.41c3.16-3.03 5.95-7.86 11.01-7.14 2.71 3.37 5.24 6.95 8.6 9.71 4.55 3.72 10.99 3.44 15.58 7.12 0.82 8.59-0.9 17.21-4.63 24.96-6.34 13.71-16.14 25.41-26.23 36.5 3.75-0.15 7.83-0.53 11.09 1.75 4.5 3 8.03 7.39 10.57 12.12 0.23 2.53-0.96 4.95-1.36 7.42 3.83-3.75 8.07-7.18 11.27-11.5 4.02-10.96 8.54-21.99 15.81-31.25 2.74-2.76 6.59-0.16 9.07 1.69 2.4 2.09 5.38 4.2 6.42 7.29-3.42 6.77-7.36 13.35-9.82 20.59 2.01-1.16 3.98-2.47 6.22-3.17 5.43 1.44 10.48 4.21 15.04 7.45 1.53 1.39 3.91 2.71 3.64 5.1 0.18 5.74-1.02 11.39-2.36 16.94 5.52-6.19 10.09-13.13 14.84-19.9 2.52-3.44 3.71-7.58 5.53-11.39 2.82-6.1 6.51-11.97 11.72-16.32 1.89-1.48 4.09-2.86 6.56-2.98 2.37 0.24 4.58 1.25 6.91 1.8 4.77 1.34 9.9 1.4 14.48 3.44 1.16 0.45 1.67 1.7 2.22 2.73 6.17 13.5 1.55 31.04-10.6 39.6-4.48 3.38-10.31 2.87-15.59 3.35 0.15 7.48-1.68 15.69 2.23 22.51 7.36-5.02 10.43-13.57 14.4-21.11 2.83 3.87 3.1 9.06 0.94 13.31-3.84 7.97-11.21 13.71-18.92 17.7-5.16-2.81-10.37-5.52-15.46-8.43-3.29-1.8-4.62-5.56-5.59-8.95-1.72-6.01-1.5-12.3-1.34-18.47-4.15 6.31-8.49 12.56-13.77 18-4.87 5.15-10.65 9.34-15.45 14.56-3.01 3.28-6.42 6.19-10.32 8.35-6.57-3.42-13.26-6.61-19.79-10.11-2.92-11.62-2.23-23.69-1.38-35.52-4.59 4.13-9.92 7.3-14.67 11.17-4.46 6.15-8.42 12.71-13.83 18.12-7.14 7.27-14.36 15.61-24.45 18.6-6.91-0.57-12.78-5.21-19.36-7.21-1.17-9.9-1.07-19.86-0.95-29.81-3.27 2.66-6.87 4.87-10.11 7.55-2.34 2.79-3.66 6.26-5.71 9.25-6.4 9.73-14.95 17.99-24.59 24.5-1.99 1.27-3.97 2.68-6.26 3.33-4.31-1.11-8.07-3.65-12.08-5.51-2.83-1.5-5.94-2.56-8.45-4.58-1.82-2.24-2.49-5.17-2.98-7.95-1.17-10.41 0.4-20.88 2.93-30.97-3.59 4-6.99 8.17-10.77 11.99-5.49 5.87-11.72 10.97-17.17 16.87-7.66 8.14-17.4 13.88-27.2 19.08-1.46-1.65-2.96-3.26-4.51-4.81-1.25 8.17-2.85 16.31-3.4 24.58 61.35-7.01 122.93-12.03 184.62-14.36 14.32-0.77 28.68-0.38 43-1.22 9.35-0.02 18.7-0.19 28.06 0.01l-12.19 21.3c-22.6 0.33-45.26-0.2-67.86 0.93-59.44 2-118.77 6.76-177.89 13.15-0.88 9.27-1.28 18.61-1.45 27.92-6.1554-2.1957-17.554-6.2242-24.83-11.17 0.21-4.59 0.86-9.15 1.07-13.74-8.35 0.27-16.57 1.83-24.87 2.62-33.43 4.19-66.85 8.59-100.1 14.03-9.89 1.6899-19.205 3.4251-29.55 4.76l4.7139-14.674 4.7961-1.136c47.93-11.54 96.77-18.7 145.6-25.14 2.84 0.16 2.83-3.17 3.25-5.16 3.05-19.15 7.82-37.96 12.21-56.82-4.91 7.14-9.55 14.48-15.21 21.06-7.63 10.91-17.48 20.13-28.5 27.54-1.65 1.01-3.32 2.11-5.23 2.53-3.32-1.03-6.27-2.97-9.44-4.36-3.58-1.79-7.42-3.07-10.8-5.22-6.2-9.47-5.48-21.41-5.06-32.24-9.6 15.2-20.54 29.74-34 41.75-5.07 4.72-10.66 9.03-16.99 11.93-1.98 1.31-4.24 0.1-6.31-0.28-6.5-1.83-13.02-3.57-19.42-5.7-2.07-9.42-1.99-19.13-1.63-28.72 0.2-5.65 1.73-11.13 2.52-16.7-3.03 0.83-6.02 1.78-9.02 2.73-1.5 21.48-13.26 40.8-27.71 56.18-13.98 15.04-30.8 27.21-48.55 37.41-16.63 9.44-34.28 17.34-52.86 22.02-7.11 1.39-14.87 3.49-21.86 0.61-1.0698-4.9623-1.9865-8.9646-3.1506-13.3-2.5452-9.4557-6.3877-18.607-11.929-26.7-3.14-4.81-7.26-8.84-10.85-13.29 5.52-7.28 13.93-11.54 21.44-16.45 40.36-23.66 83.83-42 128.88-54.56-1.73-6.19-6.13-11.92-12.55-13.62-10.1-2.83-20.42 0.89-29.55 5.09-6.49 1.29-13.46-0.71-19.07-4.06 6.7-16.61 19.6-29.9 33.87-40.33-8.52 1.73-16.54 5.19-24.56 8.44-10.58 4.58-21.16 9.47-30.47 16.34 7.9 0.84 15.38-2.25 23.06-3.43-2.14 4.78-6.39 8.1-10.26 11.45-5.26 4.44-12.95 3.1-18.53 0.01-8.26-4.52-15.5-10.91-21.3-18.29 8.43-8.45 18.67-14.77 29.08-20.47 12.74-6.81 26.01-12.69 39.79-17.06 4.52-1.32 9.12-2.88 13.89-2.71 7.072 3.7107 20.259 21.061 24.34 31.08-9.08 5.09-18.63 9.46-27.06 15.64 10.82-3.02 22.7-3.74 33.19 0.9 10.87 4.06 19.15 13.7 21.87 24.94 5.46-1.71 11.22-2.82 16.38-5.33 4.9-8.46 10.06-17.05 17.64-23.42 1.71-1.56 4.19-0.82 6.23-0.57 5.97 1.16 11.88 2.72 17.96 3.12 0.14-5.82-0.02-11.74-1.67-17.36-19.62 3.8-40.04 2.31-59.32-2.66-3.57-1.05-7.53-1.8-10.14-4.69-6.46-6.77-11.75-14.58-16.27-22.74-1.33-2.36-2.32-4.9-2.88-7.54 13.21-6.08 27.41-9.94 41.82-11.79 17.32-1.83 36.41-0.39 50.58 10.82 4.94 3.43 8.05 8.67 11.95 13.05 3.35-0.27 6.5-1.59 9.73-2.42 21.73-6.07 43.52-12.4 65.95-15.34 15.21-1.98 31.36-2.09 45.53 4.55 8.01 3.82 15.74 10 18.38 18.8 1.67 5.38 0.19 12.64-5.43 15.03-4.89 1.78-10.22 1.76-15.36 1.97 0.98 0.96 1.95 1.93 2.91 2.91-2.11 6.54-4.86 12.92-6.14 19.7 6.73-3.84 13.06-8.34 19.76-12.24 2.19-1.35 4.62 0.26 6.68 1.12 4.18 2.17 8.47 4.28 12.17 7.22 0.43 5.85-1.56 11.5-2.46 17.22 5.53-5.22 10.69-10.86 15.37-16.86 2.95-4.48 4.43-9.74 7.18-14.35 4.87 0.62 9.36 2.72 14.08 3.96 3.71-4.21 8.35-8.49 14.32-8.53 8.34-0.61 15.26 6.11 18.21 13.38 2.73 5.8 2.64 12.3 2.7 18.56 3.09-2.44 7.45-4.7 7.5-9.2 3.97-32.96 16.92-65.52 40.02-89.78m10.64 19.63c-11.51 11.99-19.21 27.16-24.05 42.95-1.73 5.89-3.54 11.83-3.93 17.99 5.89-6.8 11.55-13.8 16.83-21.09 7.66-10.64 15.19-21.57 20.2-33.76 2.1-5.11 3.94-10.7 2.62-16.26-3.99 3.27-8.1 6.43-11.67 10.17m-358.06 25.61c8.16 1.23 16.37 2.29 24.6 2.91 9.23 0.16 18.49 1.43 27.7 0.09-4.86-4.3-10.83-7.36-17.27-8.35-11.91-2.19-23.92 1.24-35.03 5.35m146.51 2.05c-21.35 4.41-41.92 11.77-63.02 17.16 3.07 20.56-0.43 41.3-5.33 61.28 9.08-11.54 14.66-25.3 22.19-37.82 1.46-2.24 3.11-4.66 5.68-5.71 5.09 0.62 9.72 2.99 14.61 4.37 2.74-3.97 5.57-8.13 9.94-10.46 4.27-2.89 10.55-3.32 14.47 0.41 7.47 6.49 9.46 16.7 11.58 25.88 9.79-14.9 19.03-30.16 28.02-45.55 7.76 1.49 15.59 4.61 23.59 2.99-4.05-4.72-9.65-7.7-15.15-10.38-14.63-6.5-31.27-5.17-46.58-2.17m326.05 28.9c-3.48 6.68-6.27 13.82-7.44 21.29 6.04 0.47 11.44-3.45 13.86-8.82 3.36-7.3 5.08-15.84 3.21-23.77-4.12 2.88-7.34 6.85-9.63 11.3m-199.91 22.34c1.78 2.26 4.69 2.79 7.38 3.16 1.61-6.6 2.96-13.57 1.39-20.31-5.48 3.77-9.45 10.37-8.77 17.15m63.03-8.28c-3.24 2.66-6.9 5.55-8.08 9.74-0.5 7.1-0.22 14.26 0.37 21.35 11.45-10.7 21.16-23.78 26.15-38.75-6.88 0.11-13 3.79-18.44 7.66m71.63-0.36c-4.03 5.19-4.64 12.05-4.94 18.39-1.65 0.44-3.32 0.81-4.99 1.12-0.68 4.13-0.88 8.31-0.48 12.48 4.9-4.45 8.22-10.32 11.01-16.24 2.76-6.35 5.45-12.88 6.25-19.82-2.54 0.82-5.26 1.77-6.85 4.07m-278.22 19.94c-0.41282 2.1612-1.4939 5.0694-0.29462 7.0326 0.79321 1.353 1.6268 1.4372 2.9756 1.0763 2.2124-0.63227 3.7621-2.9855 4.189-5.2089 1.4-6.03 2.29-12.47 0.44-18.5-4.09 4.22-5.66 10.13-7.31 15.6m-73.23-10.43c-6.91 7.41-11.16 16.82-14.69 26.19-2.63 8.11-5.02 16.49-5.02 25.09 8.32-9.54 14.71-20.64 19.7-32.23 3.38-7.39 4.87-15.43 5.65-23.47-2.07 1.22-4.04 2.63-5.64 4.42m129.96 15.98c-2.73 4.13-2.69 9.48-3.7 14.23 11.47-8.17 22.25-18.76 26.99-32.31-8.75 4.56-16.42 11.05-23.29 18.08m69.35 17.32c6.86-4.5 12.56-10.66 16.99-17.53-3.13-0.72-6.37-1.16-9.28-2.54-2.78-1.28-4.47-3.92-6.23-6.27-2.18 8.57-2.9 17.58-1.48 26.34m-144.29 12.8c7.03-4.34 13.2-10.26 17.5-17.34-4.22-0.93-8.88-1.71-11.98-5-3.43-3.31-3.44-8.4-3.98-12.79-3.15 11.37-4.33 23.55-1.54 35.13m-214.82 25.12c-13.9 6.86-28.16 13.74-39.66 24.35-2.95 3.03-6.49 6.33-7.01 10.74 2.9 1.69 6.35 1.73 9.61 1.75 7.98 0.07 15.74-2.14 23.28-4.53 17.05-5.76 33.11-14.14 48.31-23.71 13.79-8.83 27.11-18.74 37.81-31.23 2.63-3.09 4.8-6.54 6.59-10.17-26.56 10.31-53.15 20.64-78.93 32.8z" fill="#6fbc00"/>
 </g>
</svg>
