<?xml version="1.0" encoding="UTF-8"?>
<svg id="svg20" width="338.89pt" height="339.04pt" version="1.1" viewBox="0 0 338.89 339.04" xmlns="http://www.w3.org/2000/svg" xmlns:cc="http://creativecommons.org/ns#" xmlns:dc="http://purl.org/dc/elements/1.1/" xmlns:rdf="http://www.w3.org/1999/02/22-rdf-syntax-ns#">
 <metadata id="metadata26">
  <rdf:RDF>
   <cc:Work rdf:about="">
    <dc:format>image/svg+xml</dc:format>
    <dc:type rdf:resource="http://purl.org/dc/dcmitype/StillImage"/>
    <dc:title/>
   </cc:Work>
  </rdf:RDF>
 </metadata>
 <g id="#ffffffff" transform="translate(-84.645 -76.529)">
  <path id="path9" d="m336.41 76.55c17.46-0.39 35 4.72 49.43 14.6 15.98 10.7 28.12 26.99 33.81 45.37 4.92 15.64 5.14 32.7 0.82 48.51-5.15 18.68-16.85 35.5-32.65 46.74-12.22 8.75-26.79 14.34-41.79 15.57-21.02 2.2-42.79-3.93-59.62-16.71-16.19-12.04-27.79-30.07-32.1-49.77-4.7-21.36-1.15-44.56 10.39-63.22 14.78-24.77 42.82-40.98 71.71-41.09m-46.315 96.63v2.72h33.945v15.42l3.96 0.09v-15.51h5.715v-3.9h-5.715v-43h-3.15l-34.755 44.18m50.005-44.08v62.27h3.875v-29.22l33.165 29.22h5.57l-35.02-31.27 31.37-31h-5.1873l-29.898 29.27v-29.27z"/>
  <path id="path11" d="m84.645 241.22v-158.2h52.435l0.05 52.85h52.75l0.04-52.85h52.68v158.2h-52.78l-0.02-52.875h-52.59v52.875z"/>
  <path id="path13" d="m295.89 172 28.15-35.35v35.35z"/>
  <path id="path15" d="m84.645 257.3 52.905-0.01 26.075 44.99 26.075-44.86 52.9-0.07v158.04l-52.79-0.01v-44.74l-26.298 44.93-26.298-45.27v45.1l-52.57 0.03z"/>
  <path id="path17" d="m258.88 257.33h158.05v40.035h-80.275l-0.01 14.975h80.285v47.76h-80.255l-0.01 15.795h80.265v39.405l-158.05 0.05z"/>
 </g>
</svg>
