<svg version="1.1" viewBox="0 0 800 305.05" xmlns="http://www.w3.org/2000/svg">
 <path class="st0" d="m0 230.31v-155.58l79.314 77.788z" fill="#ee4423" stroke-width="7.6263"/>
 <path class="st1" d="m153.29 77.026 38.132-36.606-40.419-40.419h-75.5zm-77.788 228.03 77.788-77.788 38.132 38.894-39.657 38.894zm157.86 0h76.263l73.213-72.45h-77.026zm0-304.29h74.738l74.738 73.213h-75.5z" fill="#fff" stroke-width="7.6263"/>
 <path class="st2" d="m228.03 152.53 78.551-78.551h75.5l-78.551 78.551 78.551 80.076h-76.263z" fill="#33c5f3" stroke-width="7.6263"/>
 <path class="st1" d="m423.26 35.844v-18.303l-11.439 18.303h-5.3384v-28.217h5.3384v18.303l12.202-18.303h5.3384v28.98h-6.101zm26.692 0v-11.439h-9.9142v12.202h-5.3384v-28.98h5.3384v11.439h9.9142v-11.439h5.3384v28.98h-5.3384zm28.217-3.0505v3.8132h-5.3384v-3.8132c-8.3889 0-12.202-4.5758-12.202-12.202s3.8132-11.439 12.202-12.202v-2.2879h5.3384v3.0505c8.3889 0 12.202 4.5758 12.202 12.202 0 6.8637-3.8132 11.439-12.202 11.439zm-5.3384-19.066c-4.5758 0-6.8637 2.2879-6.8637 6.8637s1.5253 6.8637 6.8637 6.8637zm5.3384 0v14.49c4.5758 0 6.8637-2.2879 6.8637-6.8637 0-5.3384-2.2879-7.6263-6.8637-7.6263zm34.318 19.828c-2.2879 2.2879-4.5758 3.0505-7.6263 3.0505s-6.101-0.76263-7.6263-3.0505c-3.0505-3.0505-3.0505-6.101-3.0505-11.439s0-8.3889 3.0505-11.439c2.2879-2.2879 4.5758-3.0505 7.6263-3.0505s6.101 0.76263 7.6263 3.0505c3.0505 3.0505 3.0505 6.101 3.0505 11.439s0 8.3889-3.0505 11.439zm-3.8132-19.828c-0.76263-0.76263-2.2879-1.5253-3.8132-1.5253s-3.0505 0.76263-3.8132 1.5253c-0.76263 1.5253-1.5253 2.2879-1.5253 8.3889s0 6.8637 1.5253 8.3889c1.5253 0 2.2879 0.76263 3.8132 0.76263s3.0505-0.76263 3.8132-1.5253c0.76263-1.5253 1.5253-2.2879 1.5253-8.3889s-0.76263-6.8637-1.5253-7.6263zm23.642 11.439h-5.3384v10.677h-5.3384v-28.217h11.439c5.3384 0 8.3889 3.8132 8.3889 8.3889 0 5.3384-3.0505 9.1516-9.1516 9.1516zm-0.76263-12.965h-5.3384v7.6263h5.3384c2.2879 0 3.8132-1.5253 3.8132-3.8132 0.76263-2.2879-0.76263-3.8132-3.8132-3.8132zm35.081 23.642v-16.778l-5.3384 11.439h-3.8132l-5.3384-10.677v16.778h-5.3384v-28.98h5.3384l7.6263 15.253 7.6263-15.253h4.5758v28.98h-5.3384zm28.98 0-1.5253-5.3384h-9.9142l-1.5253 5.3384h-6.101l9.9142-28.217h4.5758l10.677 28.98h-6.101zm-6.8637-19.828-3.8132 10.677h6.8637zm35.844 26.692v-6.8637h-19.066v-28.217h5.3384v23.642h9.9142v-23.642h5.3384v23.642h3.0505v11.439zm25.929-6.8637v-18.303l-11.439 18.303h-5.3384v-28.217h5.3384v18.303l12.202-18.303h4.5758v28.98h-5.3384zm28.98-2.2879c-2.2879 2.2879-4.5758 3.0505-7.6263 3.0505s-6.101-0.76263-7.6263-3.0505c-3.0505-3.0505-3.0505-6.101-3.0505-11.439s0-8.3889 3.0505-11.439c2.2879-2.2879 4.5758-3.0505 7.6263-3.0505s6.101 0.76263 7.6263 3.0505c3.0505 3.0505 3.0505 6.101 3.0505 11.439s0 8.3889-3.0505 11.439zm-3.8132-19.828c-0.76263-0.76263-2.2879-1.5253-3.8132-1.5253s-3.0505 0.76263-3.8132 1.5253c-0.76263 1.5253-1.5253 2.2879-1.5253 8.3889s0 6.8637 1.5253 8.3889c0.76263 0.76263 2.2879 1.5253 3.8132 1.5253s3.0505-0.76263 3.8132-1.5253c0.76264-1.5253 1.5253-2.2879 1.5253-8.3889s-0.76263-7.6263-1.5253-8.3889zm27.455 22.116v-11.439h-9.9142v12.202h-5.3384v-28.98h5.3384v11.439h9.9142v-11.439h6.101v28.98h-6.101zm27.455 0v-11.439h-9.9142v12.202h-5.3384v-28.98h5.3384v11.439h9.9142v-11.439h5.3384v28.98h-5.3384zm22.879 0h-11.439v-28.217h5.3384v10.677h5.3384c5.3384 0 9.1516 3.8132 9.1516 9.1516s-3.0505 8.3889-8.389 8.3889zm-0.76263-12.965h-5.3384v7.6263h5.3384c2.2879 0 3.8132-1.5253 3.8132-3.8132 0.76263-1.5253-0.76263-3.8132-3.8132-3.8132zm12.965 12.965v-28.217h5.3384v28.98h-5.3384zm28.217 0v-18.303l-11.439 18.303h-4.5758v-28.217h5.3384v18.303l11.439-18.303h5.3384v28.98h-6.101zm-5.3384-29.743c-3.0505 0-6.101-1.5253-6.8637-6.101h3.8132c0 1.5253 0.76263 2.2879 2.2879 2.2879s2.2879-0.76263 2.2879-2.2879h3.8132c1.5253 4.5758-2.2879 6.101-5.3384 6.101zm-381.32 78.551v-28.217h5.3384v28.98zm15.253 0-9.9142-15.253 9.1516-13.727h6.8637l-9.9142 13.727 10.677 15.253zm28.98 0-1.5253-4.5758h-9.9142l-1.5253 5.3384h-6.101l9.9142-28.98h4.5758l10.677 28.98zm-6.8637-19.828-3.8132 10.677h6.8637zm32.03 19.828v-11.439h-9.9142v12.202h-5.3384v-28.98h5.3384v11.439h9.9142v-11.439h5.3384v28.98zm28.98 0-1.5253-5.3384h-9.9142l-1.5253 5.3384h-6.101l10.677-28.98h4.5758l10.677 28.98zm-6.8637-19.828-3.8132 10.677h6.8637zm33.556 19.828v-23.642h-6.8637v8.3889c0 12.202-3.0505 15.253-9.1516 15.253h-2.2879v-5.3384h0.76263c3.0505 0 4.5758-1.5253 4.5758-10.677v-12.202h18.303v28.98zm-115.92 49.571c-3.0505 0-6.101-0.76263-7.6263-3.0505-3.0505-3.0505-3.0505-6.101-3.0505-11.439s0-8.3889 3.0505-11.439c2.2879-2.2879 4.5758-3.0505 7.6263-3.0505 5.3384 0 9.1516 3.0505 10.677 9.1516h-6.101c-0.76263-2.2879-2.2879-3.8132-4.5758-3.8132-1.5253 0-3.0505 0.76263-3.8132 1.5253s-0.76263 2.2879-0.76263 7.6263 0 6.8637 1.5253 8.3889c0.76263 0.76263 2.2879 1.5253 3.8132 1.5253 3.0505 0 4.5758-1.5253 4.5758-3.8132h5.3384c-0.76263 5.3384-5.3384 8.3889-10.677 8.3889zm15.253 0v-28.98h19.066v5.3384h-13.727v6.8637h11.439v4.5758h-11.439v6.8637h13.727v5.3384zm43.47-12.965c1.5253 1.5253 1.5253 3.0505 1.5253 5.3384 0 5.3384-3.0505 8.3889-9.1516 8.3889h-12.202v-28.98h11.439c5.3384 0 9.1516 3.0505 9.1516 7.6263 0 3.0505-1.5253 4.5758-3.8132 6.101 1.5253 0 2.2879 0.76263 3.0505 1.5253zm-8.3889-4.5758c2.2879 0 3.8132-1.5253 3.8132-3.0505 0-2.2879-1.5253-3.0505-3.8132-3.0505h-5.3384v6.8637h5.3384zm0.76263 12.202c2.2879 0 3.8132-1.5253 3.8132-3.8132s-1.5253-3.0505-3.8132-3.0505h-6.101v6.8637zm31.268 5.3384-1.5253-5.3384h-9.9142l-1.5253 5.3384h-6.101l10.677-28.98h4.5758l10.677 28.98zm-6.8637-20.591-3.8132 10.677h6.8637zm25.167 20.591c-3.0505 0-6.101-0.76263-7.6263-3.0505-3.0505-3.0505-3.0505-6.101-3.0505-11.439s0-8.3889 3.0505-11.439c2.2879-2.2879 4.5758-3.0505 7.6263-3.0505 5.3384 0 9.1516 3.0505 10.677 9.1516h-6.101c-0.76263-2.2879-2.2879-3.8132-4.5758-3.8132-1.5253 0-3.0505 0.76263-3.8132 1.5253-0.76263 1.5253-1.5253 2.2879-1.5253 8.3889s0 6.8637 1.5253 8.3889c0.76264 0.76263 2.2879 1.5253 3.8132 1.5253 3.0505 0 4.5758-1.5253 4.5758-3.8132h5.3384c-0.76263 4.5758-4.5758 7.6263-9.9142 7.6263zm26.692-23.642v23.642h-5.3384v-23.642h-7.6263v-5.3384h20.591v5.3384zm28.98 20.591c-2.2879 2.2879-4.5758 3.0505-7.6263 3.0505s-6.101-0.76263-7.6263-3.0505c-3.0505-3.0505-3.0505-6.101-3.0505-11.439s0-8.3889 3.0505-11.439c2.2879-2.2879 4.5758-3.0505 7.6263-3.0505s6.101 0.76263 7.6263 3.0505c3.0505 3.0505 3.0505 6.101 3.0505 11.439s0 9.1516-3.0505 11.439zm-3.8132-19.828c-0.76263-0.76263-2.2879-1.5253-3.8132-1.5253s-3.0505 0.76264-3.8132 1.5253c-0.76263 1.5253-1.5253 2.2879-1.5253 8.3889s0 6.8637 1.5253 8.3889c0.76263 0.76263 2.2879 1.5253 3.8132 1.5253s3.0505-0.76263 3.8132-1.5253c0.76263-1.5253 1.5253-2.2879 1.5253-8.3889s-0.76264-6.8637-1.5253-8.3889zm27.455 22.879v-23.642h-9.9142v23.642h-5.3384v-28.98h21.354v28.98zm29.743-3.0505c-2.2879 2.2879-4.5758 3.0505-7.6263 3.0505s-6.101-0.76263-7.6263-3.0505c-3.0505-3.0505-3.0505-6.101-3.0505-11.439s0-8.3889 3.0505-11.439c2.2879-2.2879 4.5758-3.0505 7.6263-3.0505s6.101 0.76263 7.6263 3.0505c3.0505 3.0505 3.0505 6.101 3.0505 11.439s-0.76263 9.1516-3.0505 11.439zm-4.5758-19.828c-0.76263-0.76263-2.2879-1.5253-3.8132-1.5253s-3.0505 0.76264-3.8132 1.5253c-0.76263 1.5253-1.5253 2.2879-1.5253 8.3889s0 6.8637 1.5253 8.3889c0.76263 0.76263 2.2879 1.5253 3.8132 1.5253s3.0505-0.76263 3.8132-1.5253c0.76263-1.5253 1.5253-2.2879 1.5253-8.3889s0-6.8637-1.5253-8.3889zm28.217 22.879v-23.642h-6.8637v8.3889c0 12.202-3.0505 15.253-9.1516 15.253h-2.2879v-5.3384h0.76263c3.0505 0 4.5758-1.5253 4.5758-10.677v-12.965h19.066v28.98zm16.778 0h-6.8637l6.101-12.202c-3.0505-1.5253-4.5758-4.5758-4.5758-7.6263 0-5.3384 3.8132-9.1516 9.1516-9.1516h11.439v28.98h-5.3384v-10.677h-5.3384zm9.1516-23.642h-5.3384c-2.2879 0-3.8132 1.5253-3.8132 3.8132s1.5253 3.8132 3.8132 3.8132h5.3384zm-269.97 194.47v-32.031l55.672-60.248c5.3384-6.101 7.6263-9.9142 7.6263-16.778 0-8.389-4.5758-14.49-13.727-14.49-6.101 0-14.49 3.0505-14.49 15.253h-35.081c0-30.505 22.879-46.52 49.571-46.52 28.217 0 49.571 17.541 49.571 46.52 0 16.015-6.8637 25.167-19.066 38.132l-36.606 38.894h55.672v31.268zm212.01-20.591v20.591h-33.556v-20.591h-64.061v-33.556l51.096-99.905h38.894l-51.096 99.905h25.167v-20.591h33.556v20.591h11.439v33.556z" fill="#fff" stroke-width="7.6263"/>
</svg>
