<?xml version="1.0" encoding="UTF-8"?>
<svg id="svg12" width="800" height="220.69" version="1.1" viewBox="0 0 800 220.69" xmlns="http://www.w3.org/2000/svg" xmlns:cc="http://creativecommons.org/ns#" xmlns:dc="http://purl.org/dc/elements/1.1/" xmlns:rdf="http://www.w3.org/1999/02/22-rdf-syntax-ns#">
 <metadata id="metadata18">
  <rdf:RDF>
   <cc:Work rdf:about="">
    <dc:format>image/svg+xml</dc:format>
    <dc:type rdf:resource="http://purl.org/dc/dcmitype/StillImage"/>
    <dc:title/>
   </cc:Work>
  </rdf:RDF>
 </metadata>
 <path id="path4" class="st0" d="m0 166.62v-112.55l57.379 56.276z" fill="#ef4423" stroke-width="5.5172"/>
 <path id="path6" class="st1" d="m164.97 110.34 56.828-56.828h54.621l-56.828 56.828 56.828 57.931h-55.172z" fill="#34c6f4" stroke-width="5.5172"/>
 <path id="path8" class="st2" d="m54.621 0 56.276 55.724 27.586-27.034-29.241-28.69zm0 220.69h55.172l29.241-28.138-27.586-28.138zm114.21 0h55.724l52.966-52.414h-56.276zm0-220.14 52.966 52.966h55.172l-54.069-52.966zm172.14 45.793v22.621h6.6207v-35.31h-6.069l-13.793 22.621v-22.621h-6.6207v35.31h6.069zm20.966 7.7241h12.138v14.897h6.6207v-35.31h-6.6207v14.345h-12.138v-14.345h-6.6207v35.31h6.6207zm39.172 11.034v4.4138h6.6207v-4.4138c10.483-0.55172 14.897-5.5172 14.897-14.897 0-8.8276-4.4138-14.345-14.897-14.897v-3.3104h-6.6207v3.3104c-10.483 0.55172-14.897 5.5172-14.897 14.897 0 8.8276 4.4138 14.345 14.897 14.897zm6.6207-23.724c6.069 0.55172 8.2759 3.3103 8.2759 8.8276s-2.2069 8.2759-8.2759 8.8276zm-6.6207 0v17.655c-6.069 0-8.2759-3.3104-8.2759-8.8276s2.2069-8.2759 8.2759-8.8276zm39.724 27.586c3.8621 0 7.1724-1.1034 9.3793-3.8621 3.3103-3.3103 3.8621-7.7241 3.8621-14.345s0-10.483-3.8621-14.345c-2.2069-2.2069-5.5172-3.8621-9.3793-3.8621s-7.1724 1.1034-9.3793 3.8621c-3.3104 3.3103-3.3104 7.7241-3.3104 14.345s0 10.483 3.3104 14.345c2.2069 2.7586 4.9655 3.8621 9.3793 3.8621zm-4.4138-27.586c1.1034-1.1034 2.7586-1.6552 4.4138-1.6552 1.6552 0 3.3103 0.55173 4.4138 1.6552 1.1034 1.6552 1.6552 3.3103 1.6552 9.931s-0.55172 8.2759-1.6552 9.931c-1.1034 1.1034-2.7586 1.6552-4.4138 1.6552-1.6552 0-3.3104-0.55173-4.4138-1.6552-1.1034-1.6552-1.6552-3.3103-1.6552-9.931s0-8.2759 1.6552-9.931zm30.345 14.345h6.6207c7.1724 0 11.586-4.9655 11.586-11.034s-4.4138-11.034-11.586-11.034h-13.793v35.31h6.6207v-13.241zm0-16h6.6207c3.3104 0 4.9655 2.2069 4.9655 4.9655s-2.2069 4.9655-4.9655 4.9655h-6.6207zm42.483 22.069 6.6207-13.241v20.414h6.6207v-35.31h-6.6207l-9.3793 18.759-9.3793-18.759h-6.6207v35.31h6.6207v-20.414l6.6207 13.241zm27.586 1.1034h12.69l2.2069 6.069h7.1724l-12.69-35.31h-5.5172l-12.69 35.31h7.1724zm6.069-18.759 4.4138 12.69h-8.8276zm45.793-10.483h-6.6207v29.241h-12.138v-29.241h-6.6207v35.31h23.172v7.7241h6.6207v-13.793h-3.8621v-29.241zm16 22.621v-22.621h-6.6207v35.31h6.069l13.793-22.621v22.621h6.6207v-35.31h-6.069zm39.172-22.621c-3.8621 0-7.1724 1.1034-9.3793 3.8621-3.3104 3.3103-3.3104 7.7241-3.3104 14.345s0 10.483 3.3104 14.345c2.2069 2.2069 5.5172 3.8621 9.3793 3.8621s7.1724-1.1034 9.3793-3.8621c3.3103-3.3103 3.8621-7.7241 3.8621-14.345s0-10.483-3.8621-14.345c-2.2069-2.7586-4.9655-3.8621-9.3793-3.8621zm4.4138 27.586c-1.1034 1.1034-2.7586 1.6552-4.4138 1.6552s-3.3104-0.55173-4.4138-1.6552c-1.1034-1.6552-1.6552-3.3103-1.6552-9.931s0.55173-8.2759 1.6552-9.931c1.1034-1.1034 2.7586-1.6552 4.4138-1.6552s3.3103 0.55173 4.4138 1.6552c1.1034 1.6552 1.6552 3.3103 1.6552 9.931s0 8.2759-1.6552 9.931zm34.207-13.241h-12.138v-14.345h-6.6207v35.31h6.6207v-14.897h12.138v14.897h6.6207v-35.31h-6.6207zm33.103 0h-12.138v-14.345h-6.6207v35.31h6.6207v-14.897h12.138v14.897h6.6207v-35.31h-6.6207zm28.138-1.1034h-7.1724v-13.241h-6.6207v35.31h13.793c6.6207 0 11.586-4.4138 11.586-11.034s-4.9655-11.034-11.586-11.034zm-0.55173 16h-6.6207v-9.931h6.6207c3.3104 0 4.9655 2.2069 4.9655 4.9655s-1.6552 4.9655-4.9655 4.9655zm15.448-29.241h6.6207v35.31h-6.6207zm28.138-1.6552c3.8621 0 7.7241-1.6552 8.2759-7.1724h-4.9655c0 2.2069-1.6552 3.3104-3.3104 3.3104s-3.3103-1.1034-3.3103-3.3104h-4.9655c0.55172 5.5172 4.4138 7.1724 8.2759 7.1724zm7.1724 1.6552-13.793 22.621v-22.621h-6.6207v35.31h6.069l13.793-22.621v22.621h6.6207v-35.31zm-472.83 59.586h6.6207v35.31h-6.6207z" fill="#fff" stroke-width="5.5172"/>
 <path id="path10" class="st2" d="m347.59 93.241h-8.2759l-11.586 16.552 12.138 18.207h8.2759l-13.241-18.759zm22.069 0h-5.5172l-12.69 35.31h7.1724l2.2069-6.069h12.69l2.2069 6.069h7.1724zm-7.1724 23.172 4.4138-12.69 4.4138 12.69zm50.207 12.138v-35.31h-6.6207v14.345h-12.138v-14.345h-6.6207v35.31h6.6207v-14.897h12.138v14.897zm22.621-35.31h-5.5172l-12.69 35.31h7.7241l2.2069-6.069h12.69l2.2069 6.069h7.1724zm-6.6207 23.172 4.4138-12.69 4.4138 12.69zm22.621 6.069v6.069h2.7586c7.1724 0 11.034-3.8621 11.034-18.759v-10.483h8.2759v29.241h6.6207v-35.31h-22.069v16c0 11.034-2.7586 13.241-6.069 13.241zm-118.62 36.414c3.3103 0 4.9655 2.2069 6.069 4.9655h7.1724c-1.1034-7.1724-6.069-11.034-12.69-11.034-3.8621 0-7.1724 1.1034-9.3793 3.8621-3.8621 3.3104-3.8621 7.1724-3.8621 14.345 0 7.1724 0 10.483 3.3103 14.345 2.2069 2.2069 5.5172 3.8621 9.3793 3.8621 6.6207 0 11.586-3.8621 12.69-11.034h-7.1724c-0.55173 2.7586-2.7586 4.9655-6.069 4.9655-1.6552 0-3.3103-0.55173-4.4138-1.6552-1.1034-1.6552-1.6552-3.3104-1.6552-9.931s0.55172-8.2759 1.6552-9.931c1.6552-1.6552 3.3103-2.7586 4.9655-2.7586zm18.207 29.793h23.172v-6.6207h-16.552v-8.2759h13.793v-6.069h-13.793v-8.2759h16.552v-6.069h-23.172zm50.207-18.207c2.7586-1.6552 4.4138-3.8621 4.4138-7.7241 0-6.069-4.4138-9.931-11.034-9.931h-14.345v35.31h14.897c6.6207 0 11.034-3.8621 11.034-9.931 0-2.2069-0.55173-4.4138-2.2069-6.069-1.1034-0.55173-1.6552-1.1034-2.7586-1.6552zm-13.793-11.034h6.6207c2.7586 0 4.4138 1.6552 4.4138 3.8621s-1.6552 3.8621-4.4138 3.8621h-6.6207zm7.1724 22.621h-7.1724v-8.8276h7.1724c2.7586 0 4.4138 1.6552 4.4138 4.4138s-1.6552 4.4138-4.4138 4.4138zm27.034-28.69-12.69 35.31h7.1724l2.2069-6.069h12.138l2.2069 6.069h7.1724l-12.69-35.31zm-1.6552 23.172 4.4138-12.69 4.4138 12.69zm35.31-17.655c3.3104 0 4.9655 2.2069 6.069 4.9655h7.1724c-1.1034-7.1724-6.069-11.034-12.69-11.034-3.8621 0-7.1724 1.1034-9.3793 3.8621-3.3104 3.3103-3.3104 7.7241-3.3104 14.345s0 10.483 3.3104 14.345c2.2069 2.2069 5.5172 3.8621 9.3793 3.8621 6.6207 0 11.586-3.8621 12.69-11.034h-7.1724c-0.55172 2.7586-2.7586 4.9655-6.069 4.9655-1.6552 0-3.3103-0.55173-4.4138-1.6552-1.1034-1.6552-1.6552-3.3104-1.6552-9.931s0.55172-8.2759 1.6552-9.931 2.2069-2.7586 4.4138-2.7586zm16.552 0.55172h9.3793v29.241h6.6207v-29.241h8.8276v-6.069h-25.379v6.069zm41.931-6.6207c-3.8621 0-7.1724 1.1034-9.3793 3.8621-3.3103 3.3103-3.3103 7.7241-3.3103 14.345s0 10.483 3.3103 14.345c2.2069 2.2069 5.5172 3.8621 9.3793 3.8621s7.1724-1.1034 9.3793-3.8621c3.3104-3.3104 3.8621-7.7241 3.8621-14.345s0-10.483-3.8621-14.345c-2.2069-2.2069-4.9655-3.8621-9.3793-3.8621zm4.4138 27.586c-1.1034 1.1034-2.7586 1.6552-4.4138 1.6552s-3.3103-0.55172-4.4138-1.6552-1.6552-2.7586-1.6552-9.3793 0.55172-8.2759 1.6552-9.931c1.1034-1.1034 2.7586-1.6552 4.4138-1.6552s3.3104 0.55172 4.4138 1.6552c1.1034 1.6552 1.6552 3.3104 1.6552 9.931s-0.55173 8.2759-1.6552 9.3793zm15.448 8.2759h6.6207v-29.241h12.138v29.241h6.6207v-35.31h-25.379zm44.69-35.862c-3.8621 0-7.1724 1.1034-9.3793 3.8621-3.3104 3.3103-3.3104 7.7241-3.3104 14.345s0 10.483 3.3104 14.345c2.2069 2.2069 5.5172 3.8621 9.3793 3.8621s7.1724-1.1034 9.3793-3.8621c3.3103-3.3104 3.8621-7.7241 3.8621-14.345s0-10.483-3.8621-14.345c-2.2069-2.2069-4.9655-3.8621-9.3793-3.8621zm4.4138 27.586c-1.1034 1.1034-2.7586 1.6552-4.4138 1.6552-1.6552 0-3.3104-0.55172-4.4138-1.6552-1.1034-1.6552-1.6552-3.3104-1.6552-9.931s0.55173-8.2759 1.6552-9.931c1.1034-1.1034 2.7586-1.6552 4.4138-1.6552 1.6552 0 3.3103 0.55172 4.4138 1.6552 1.1034 1.6552 1.6552 3.3103 1.6552 9.931 0.55173 7.1724 0 8.8276-1.6552 9.931zm19.862-11.034c0 11.034-2.7586 13.241-6.069 13.241h-1.1034v6.069h2.7586c7.1724 0 11.034-3.8621 11.034-18.759v-10.483h8.2759v29.241h6.6207v-35.31h-22.069zm28.138-4.9655c0 4.4138 2.2069 7.7241 6.069 9.3793l-7.1724 14.897h8.2759l5.5172-13.241h5.5172v13.241h6.6207v-35.31h-13.793c-6.069 0-11.034 3.8621-11.034 11.034zm18.207-4.9655v9.931h-6.6207c-3.3104 0-4.9655-2.2069-4.9655-4.9655s2.2069-4.9655 4.9655-4.9655z" fill="#fff" stroke-width="5.5172"/>
</svg>
