<?xml version="1.0" encoding="UTF-8"?>
<!-- Generator: Adobe Illustrator 16.0.0, SVG Export Plug-In . SVG Version: 6.00 Build 0)  -->
<svg id="svg56" width="233.86" height="139.51" enable-background="new 0 0 283.464 283.464" version="1.1" viewBox="0 0 233.86 139.51" xml:space="preserve" xmlns="http://www.w3.org/2000/svg" xmlns:cc="http://creativecommons.org/ns#" xmlns:dc="http://purl.org/dc/elements/1.1/" xmlns:rdf="http://www.w3.org/1999/02/22-rdf-syntax-ns#"><metadata id="metadata62"><rdf:RDF><cc:Work rdf:about=""><dc:format>image/svg+xml</dc:format><dc:type rdf:resource="http://purl.org/dc/dcmitype/StillImage"/><dc:title/></cc:Work></rdf:RDF></metadata><g id="Logo" transform="translate(-24.803,-71.977)" fill="#fff"><g id="g52" fill="#fff"><g id="g22"><g id="g20" fill="#fff"><g id="g6"><polygon id="polygon2" points="24.803 71.977 80.125 71.977 104.82 116.17 49.508 116.17"/><polygon id="polygon4" points="24.803 166.81 80.125 166.81 104.82 122.62 49.508 122.62"/></g><g id="g12"><polygon id="polygon8" points="101.72 71.977 157.03 71.977 181.73 116.17 126.42 116.17"/><polygon id="polygon10" points="101.72 166.81 157.03 166.81 181.73 122.62 126.42 122.62"/></g><g id="g18"><polygon id="polygon14" points="178.62 71.977 233.94 71.977 258.66 116.17 203.34 116.17"/><polygon id="polygon16" points="178.62 166.81 233.94 166.81 258.66 122.62 203.34 122.62"/></g></g></g><g id="g50"><path id="path24" d="m36.217 197.14 0.224-2.546h-0.14l-1.314 2.63-7.303 10.771h-2.881v-19.583h3.833v10.656l-0.279 2.633h0.168l1.369-2.714 7.304-10.575h2.854v19.583h-3.834v-10.855z"/><path id="path26" d="m54.766 199.79h-7.161v8.198h-3.834v-19.583h3.834v7.972h7.161v-7.972h3.834v19.583h-3.834z"/><path id="path28" d="m78.967 211.49h-2.716l-0.42-3.497h-12.587l-0.419 3.497h-2.715v-6.909h2.069c0.129-0.207 0.346-0.663 0.646-1.372 0.297-0.709 0.596-1.712 0.894-3.007 0.298-1.298 0.55-2.921 0.755-4.869s0.298-4.256 0.279-6.923h11.723v16.171h2.492v6.909zm-6.322-6.909v-12.76h-4.338c-0.111 3.32-0.378 6.039-0.798 8.155-0.419 2.117-0.844 3.65-1.272 4.604h6.408z"/><path id="path30" d="m92.337 197.14 0.226-2.546h-0.139l-1.316 2.63-7.3 10.771h-2.884v-19.583h3.833v10.656l-0.279 2.633h0.168l1.37-2.714 7.303-10.575h2.854v19.583h-3.835v-10.855z"/><path id="path32" d="m110.97 197.14 0.225-2.546h-0.139l-1.315 2.63-7.302 10.771h-2.883v-19.583h3.832v10.656l-0.279 2.633h0.167l1.373-2.714 7.302-10.575h2.854v19.583h-3.834v-10.855zm-5.455-13.599c0.073 0.599 0.295 1.028 0.659 1.289 0.362 0.262 0.836 0.391 1.411 0.391 1.25 0 1.939-0.548 2.069-1.649l3.106 0.477c-0.205 1.173-0.74 2.031-1.609 2.572-0.865 0.541-2.065 0.811-3.594 0.811-0.766 0-1.463-0.056-2.099-0.166-0.634-0.113-1.188-0.295-1.663-0.546-0.477-0.253-0.868-0.593-1.178-1.021-0.306-0.431-0.498-0.961-0.573-1.596z"/><path id="path34" d="m131.25 207.19c-0.596 0.423-1.355 0.73-2.278 0.916-0.924 0.184-1.869 0.277-2.841 0.277-1.174 0-2.291-0.182-3.343-0.547-1.057-0.361-1.981-0.952-2.783-1.76-0.803-0.813-1.444-1.867-1.918-3.163-0.477-1.296-0.714-2.867-0.714-4.714 0-1.921 0.268-3.53 0.799-4.826 0.529-1.296 1.221-2.341 2.07-3.134 0.848-0.792 1.796-1.36 2.839-1.706 1.045-0.345 2.09-0.518 3.135-0.518 1.116 0 2.063 0.073 2.836 0.224 0.775 0.148 1.416 0.326 1.918 0.53l-0.753 3.245c-0.431-0.204-0.939-0.354-1.526-0.447-0.587-0.092-1.301-0.138-2.141-0.138-1.55 0-2.792 0.551-3.733 1.653-0.944 1.104-1.414 2.812-1.414 5.13 0 1.008 0.113 1.931 0.334 2.761 0.228 0.834 0.566 1.543 1.022 2.13 0.455 0.59 1.026 1.05 1.708 1.375 0.679 0.329 1.468 0.491 2.363 0.491 0.838 0 1.547-0.084 2.127-0.252 0.578-0.169 1.08-0.382 1.511-0.646z"/><path id="path36" d="m138.47 199.62h-1.008v8.365h-3.833v-19.583h3.833v8.671l0.893-0.392 5.404-8.279h4.359l-5.703 8.224-1.512 1.063 1.567 1.091 6.519 9.205h-4.73z"/><path id="path38" d="m148.24 198.2c0-3.265 0.721-5.778 2.154-7.54 1.438-1.762 3.49-2.644 6.158-2.644 1.4 0 2.617 0.244 3.664 0.728 1.043 0.485 1.914 1.174 2.602 2.069 0.688 0.896 1.201 1.968 1.535 3.218 0.342 1.25 0.51 2.642 0.51 4.169 0 3.265-0.727 5.775-2.174 7.54-1.445 1.763-3.492 2.644-6.137 2.644-1.418 0-2.65-0.244-3.697-0.729-1.045-0.482-1.906-1.175-2.586-2.069-0.678-0.895-1.189-1.971-1.525-3.219-0.338-1.249-0.504-2.637-0.504-4.167zm4.029 0c0 0.989 0.086 1.896 0.256 2.728 0.164 0.83 0.42 1.544 0.766 2.141 0.346 0.598 0.789 1.063 1.328 1.399 0.541 0.335 1.186 0.503 1.934 0.503 1.361 0 2.414-0.531 3.158-1.595 0.748-1.064 1.121-2.789 1.121-5.176 0-0.951-0.08-1.837-0.24-2.659-0.156-0.82-0.406-1.537-0.74-2.153-0.336-0.614-0.771-1.095-1.316-1.439-0.539-0.344-1.199-0.518-1.982-0.518-1.363 0-2.414 0.545-3.162 1.635-0.748 1.092-1.123 2.802-1.123 5.134z"/><path id="path40" d="m167.4 188.41h11.615v3.411h-7.783v4.561h7.08v3.413h-7.08v4.786h7.918v3.412h-11.75z"/><path id="path42" d="m193.92 199.62h-1.01v8.365h-3.83v-19.583h3.83v8.671l0.895-0.392 5.4-8.279h4.365l-5.707 8.224-1.51 1.063 1.568 1.091 6.518 9.205h-4.727z"/><path id="path44" d="m217.09 197.14 0.221-2.546h-0.141l-1.316 2.63-7.301 10.771h-2.881v-19.583h3.832v10.656l-0.277 2.633h0.168l1.369-2.714 7.301-10.575h2.857v19.583h-3.832z"/><path id="path46" d="m235.64 199.79h-7.162v8.198h-3.834v-19.583h3.834v7.972h7.162v-7.972h3.834v19.583h-3.834z"/><path id="path48" d="m242.04 198.2c0-3.265 0.719-5.778 2.152-7.54 1.438-1.762 3.488-2.644 6.154-2.644 1.398 0 2.621 0.244 3.664 0.728 1.047 0.485 1.912 1.174 2.604 2.069 0.693 0.896 1.203 1.968 1.537 3.218 0.338 1.25 0.506 2.642 0.506 4.169 0 3.265-0.723 5.775-2.168 7.54-1.445 1.763-3.494 2.644-6.143 2.644-1.416 0-2.648-0.244-3.695-0.729-1.043-0.482-1.904-1.175-2.584-2.069s-1.191-1.971-1.525-3.219c-0.336-1.249-0.502-2.637-0.502-4.167zm4.03 0c0 0.989 0.08 1.896 0.248 2.728 0.168 0.83 0.426 1.544 0.771 2.141 0.344 0.598 0.789 1.063 1.328 1.399 0.541 0.335 1.186 0.503 1.93 0.503 1.361 0 2.414-0.531 3.164-1.595 0.746-1.064 1.119-2.789 1.119-5.176 0-0.951-0.08-1.837-0.24-2.659-0.16-0.82-0.406-1.537-0.74-2.153-0.336-0.614-0.773-1.095-1.316-1.439-0.539-0.344-1.201-0.518-1.986-0.518-1.361 0-2.416 0.545-3.162 1.635-0.743 1.092-1.116 2.802-1.116 5.134z"/></g></g></g></svg>
