<?xml version="1.0" encoding="UTF-8"?>
<svg id="svg26" width="1008.3" height="171.42" version="1.1" viewBox="0 0 756.22 128.57" xmlns="http://www.w3.org/2000/svg" xmlns:cc="http://creativecommons.org/ns#" xmlns:dc="http://purl.org/dc/elements/1.1/" xmlns:rdf="http://www.w3.org/1999/02/22-rdf-syntax-ns#">
 <metadata id="metadata32">
  <rdf:RDF>
   <cc:Work rdf:about="">
    <dc:format>image/svg+xml</dc:format>
    <dc:type rdf:resource="http://purl.org/dc/dcmitype/StillImage"/>
    <dc:title/>
   </cc:Work>
  </rdf:RDF>
 </metadata>
 <path id="path9" d="m95.245 9.105c10.1-8.28 24.04-10.56 36.67-8.26 9 1.35 17.92 5.68 23.22 13.3 3.59 4.92 5.5 10.8 6.75 16.7l-10.09 2.25c-2.95-5.82-4.4-12.69-9.49-17.18-11.66-10.45-31.71-8.15-41.69 3.57-7.03 7.85-9.29 18.79-9.41 29.04 0.22 10.19 2.18 21 8.88 29.03 7.16 9.03 20.02 12.44 30.95 9.37 6.43-2.16 12.45-6.28 15.72-12.36 2.43-3.9 3.48-8.4 4.34-12.85l9.67-1.5c0.79669 4.2428 0.52782 7.9893-0.71062 11.713-3.1391 9.3821-9.9932 17.579-19.129 21.587-9.81 4.16-21.01 5.1-31.33 2.32-9.75-2.47-18.2-9.16-23.31-17.75-8.02-14.03-8.85-31.37-4.77-46.77 2.16-8.6 7.07-16.39 13.73-22.21z"/>
 <path id="path11" d="m441.32 15.045c13.33-17.43 41.89-20.05 57.98-5.05 10.95 10.79 14.35 26.715 14.18 41.585h-72.36c0.39 10.58 3.16 21.935 11.3 29.285 8 7.97 20.79 9.15 31.11 5.65 10.14-3.63 16.913-13.89 18.08-24.04l9.32-1.18c1.76 10.12-3.99 19.64-11.06 26.36-14.68 13.61-39.5 13.15-54.46 0.24-7.94-7.14-12.66-17.33-14.23-27.79-2.12-15.48 0.22-32.5 10.14-45.06m14.96-1.02c-9.47 6.13-13.67 17.65-14.81 28.41h60.81c-0.4-5.18-1.28-10.42-3.41-15.19-3.28-8.12-10.54-14.72-19.18-16.58-7.83-1.78-16.51-0.93-23.41 3.36z"/>
 <path id="path11-7" d="m684.06 15.045c13.33-17.43 41.89-20.05 57.98-5.05 10.95 10.79 14.35 26.715 14.18 41.585h-72.36c0.39 10.58 3.16 21.935 11.3 29.285 8 7.97 20.79 9.15 31.11 5.65 10.14-3.63 16.913-13.89 18.08-24.04l9.32-1.18c1.76 10.12-3.99 19.64-11.06 26.36-14.68 13.61-39.5 13.15-54.46 0.24-7.94-7.14-12.66-17.33-14.23-27.79-2.12-15.48 0.22-32.5 10.14-45.06m14.96-1.02c-9.47 6.13-13.67 17.65-14.81 28.41h60.81c-0.4-5.18-1.28-10.42-3.41-15.19-3.28-8.12-10.54-14.72-19.18-16.58-7.83-1.78-16.51-0.93-23.41 3.36z"/>
 <path id="path15-6" d="m309.86 2.5791v93.296c0.85001-0.52559 1.6657-1.0231 2.4785-1.5132 0.0243 9e-3 0.068 0.0239 0.0908 0.0322 3.2945-1.7919 6.6797-3.4214 10.134-4.8896 14.824-4.8873 30.159-8.7964 45.861-8.9429 15.702 0.14646 31.038 4.0555 45.863 8.9429 3.4541 1.4683 6.8378 3.0978 10.132 4.8896 0.0232-8e-3 0.0674-0.0246 0.0923-0.0337 0.81301 0.49022 1.6283 0.98892 2.4785 1.5146v-93.296h-10.617v76.608c-13.413-5.4525-28.267-8.715-42.764-8.8081v-67.8h-10.37v67.802c-14.495 0.0935-29.351 3.3548-42.764 8.8066v-76.608h-10.557z"/>
 <path id="path17" d="m0 2.535h12.455v71.3l50.43-71.3h12.93v92.07h-12.26v-72.97l-50.26 72.97h-13.295z"/>
 <path id="path19" d="m164.74 2.555h11.31v40.19l43.03-40.19h19.55l32.164 76.729 29.266-76.729h9.33l-47.83 126.01-10.42-0.28 14.913-38.765-36.223-85.545-41.31 41.6 47.66 49.08h-14.06l-46.07-46.7v46.7h-11.38z"/>
 <path id="path21" d="m516.58 2.64h11.11v38.72h52.37v-38.72h11.35v91.895h-11.35v-43.96h-52.37v43.96h-11.11z"/>
 <path id="path17-5" d="m595.71 2.6963h12.455v71.3l50.43-71.3h12.93v92.07h-12.26v-72.97l-50.26 72.97h-13.295z"/>
</svg>
