<?xml version="1.0" encoding="UTF-8"?>
<!-- Created with Inkscape (http://www.inkscape.org/) -->
<svg id="svg4641" width="77.618mm" height="107.32mm" version="1.1" viewBox="0 0 77.618 107.32" xmlns="http://www.w3.org/2000/svg" xmlns:cc="http://creativecommons.org/ns#" xmlns:dc="http://purl.org/dc/elements/1.1/" xmlns:rdf="http://www.w3.org/1999/02/22-rdf-syntax-ns#" xmlns:xlink="http://www.w3.org/1999/xlink">
 <defs id="defs4635">
  <clipPath id="SVGID_2_">
   <use id="use5" width="100%" height="100%" overflow="visible" xlink:href="#SVGID_1_"/>
  </clipPath>
  <rect id="SVGID_1_" width="612" height="792"/>
 </defs>
 <metadata id="metadata4638">
  <rdf:RDF>
   <cc:Work rdf:about="">
    <dc:format>image/svg+xml</dc:format>
    <dc:type rdf:resource="http://purl.org/dc/dcmitype/StillImage"/>
    <dc:title/>
   </cc:Work>
  </rdf:RDF>
 </metadata>
 <g id="layer1" transform="translate(17.831 -98.577)" fill="#8b7261">
  <g id="g4604">
   <path id="path8" transform="matrix(.26458 0 0 .26458 -59 49.97)" d="m366.86 234.1v160.49h-30.99v-85.329c-34.266 40.048-67.277 78.342-98.187 116.64v-158.46h31.281v83.189c30.7-35.037 58.721-68.664 97.896-116.53" clip-path="url(#SVGID_2_)"/>
   <path id="path10" transform="matrix(.26458 0 0 .26458 -59 49.97)" d="m302.28 183.71c-80.934 0-146.68 65.742-146.68 146.68s65.742 146.68 146.68 146.68 146.68-65.742 146.68-146.68-65.742-146.68-146.68-146.68m0 261.66c-63.448 0-114.99-51.538-114.99-114.99s51.538-114.99 114.99-114.99 114.99 51.538 114.99 114.99-51.538 114.99-114.99 114.99" clip-path="url(#SVGID_2_)"/>
  </g>
  <g id="g4600">
   <path id="path12" transform="matrix(.26458 0 0 .26458 -59 49.97)" d="m217.01 549.97h-8.799v-17.239c0-1.796 0.059-4.01 0.24-6.346l-14.905 23.585h-7.183v-40.465h8.799v17.539c0 1.736-0.06 3.891-0.18 6.165l14.904-23.704h7.124z" clip-path="url(#SVGID_2_)"/>
   <path id="path14" transform="matrix(.26458 0 0 .26458 -59 49.97)" d="m250.07 548.89c-3.891 1.257-7.722 1.856-11.673 1.856-9.457 0-16.521-5.447-16.521-16.641v-8.739c0-11.193 7.064-16.642 16.521-16.642 3.951 0 7.782 0.6 11.673 1.856l-1.677 7.183c-3.291-1.018-6.584-1.556-9.935-1.556-4.789 0-7.783 2.574-7.783 9.877v7.243c0 7.361 2.994 9.935 7.783 9.935 3.351 0 6.644-0.479 9.935-1.616z" clip-path="url(#SVGID_2_)"/>
   <polygon id="polygon16" transform="matrix(.26458 0 0 .26458 -59 49.97)" points="263.66 516.98 253.84 516.98 253.84 509.5 282.27 509.5 282.27 516.98 272.46 516.98 272.46 549.97 263.66 549.97" clip-path="url(#SVGID_2_)"/>
   <path id="path18" transform="matrix(.26458 0 0 .26458 -59 49.97)" d="m285.12 525.48c0-11.133 7.183-16.76 15.982-16.76 8.859 0 16.042 5.627 16.042 16.76v8.56c0 11.194-7.183 16.701-16.042 16.701-8.799 0-15.982-5.507-15.982-16.701zm23.225 7.902v-7.303c0-7.302-3.053-9.877-7.243-9.877-4.25 0-7.183 2.575-7.183 9.877v7.303c0 7.482 2.933 9.876 7.183 9.876 4.19 0 7.243-2.394 7.243-9.876" clip-path="url(#SVGID_2_)"/>
   <path id="path20" transform="matrix(.26458 0 0 .26458 -59 49.97)" d="m321.8 509.5h14.427c8.2 0 13.287 6.104 13.287 12.929s-5.087 12.75-13.287 12.75h-5.627v14.785h-8.8zm14.127 18.376c2.813 0 4.669-2.154 4.669-5.447 0-3.232-1.855-5.447-4.669-5.447h-5.327v10.895h5.327z" clip-path="url(#SVGID_2_)"/>
   <path id="path22" transform="matrix(.26458 0 0 .26458 -59 49.97)" d="m383.98 549.97h-8.8v-17.239c0-1.796 0.06-4.01 0.24-6.346l-14.905 23.585h-7.183v-40.465h9.63v17.539c-0.831 1.736-0.891 3.891-1.011 6.165l14.904-23.704h7.124v40.465z" clip-path="url(#SVGID_2_)"/>
   <path id="path24" transform="matrix(.26458 0 0 .26458 -59 49.97)" d="m418.18 549.97h-8.799v-14.785h-3.353l-6.465 14.785h-9.816l7.541-16.042c-4.549-2.035-7.063-6.584-7.063-11.493 0-6.824 5.088-12.929 13.289-12.929h14.665v40.464zm-8.799-22.088v-10.895h-5.447c-2.814 0-4.849 2.215-4.849 5.447 0 3.293 2.034 5.447 4.849 5.447h5.447z" clip-path="url(#SVGID_2_)"/>
   <polygon id="polygon26" transform="matrix(.26458 0 0 .26458 -59 49.97)" points="224.08 572.23 218.49 572.23 218.49 569.22 233.22 569.22 233.22 572.23 227.59 572.23 227.59 588.83 224.08 588.83" clip-path="url(#SVGID_2_)"/>
   <path id="path28" transform="matrix(.26458 0 0 .26458 -59 49.97)" d="m235.78 576.72c0-5.215 3.388-7.992 7.538-7.992 4.186 0 7.574 2.969 7.574 7.269v4.036h-11.609v1.142c0 3.502 1.712 5.063 4.567 5.063 1.827 0 3.541-0.381 5.292-0.914l0.685 3.008c-2.018 0.646-3.808 0.988-5.977 0.988-4.719 0-8.07-2.815-8.07-8.146zm11.611 0.572v-1.296c0-2.473-1.637-4.185-4.073-4.185-2.36 0-4.035 1.597-4.035 4.643v0.838z" clip-path="url(#SVGID_2_)"/>
   <path id="path30" transform="matrix(.26458 0 0 .26458 -59 49.97)" d="m256.69 576.08c0.838-4.111 2.741-6.854 7.042-6.854h5.824v19.604h-3.501v-16.596h-2.018c-2.284 0-3.274 1.675-3.807 4.187l-2.588 12.409h-3.579z" clip-path="url(#SVGID_2_)"/>
   <path id="path32" transform="matrix(.26458 0 0 .26458 -59 49.97)" d="m274.82 576.72c0-5.215 3.388-7.992 7.538-7.992 4.186 0 7.575 2.969 7.575 7.269v4.036h-11.61v1.142c0 3.502 1.712 5.063 4.567 5.063 1.827 0 3.541-0.381 5.292-0.914l0.685 3.008c-2.018 0.646-3.806 0.988-5.977 0.988-4.719 0-8.07-2.815-8.07-8.146zm11.611 0.572v-1.296c0-2.473-1.637-4.185-4.073-4.185-2.36 0-4.035 1.597-4.035 4.643v0.838z" clip-path="url(#SVGID_2_)"/>
   <path id="path34" transform="matrix(.26458 0 0 .26458 -59 49.97)" d="m294.97 569.22h3.502v8.527l4.34-1.446c1.064-0.419 1.56-1.065 1.903-2.36l1.255-4.721h3.465l-1.484 5.368c-0.724 2.588-1.447 3.426-2.97 4.11l5.291 10.126h-3.806l-4.493-8.945-3.501 1.219v7.727h-3.502z" clip-path="url(#SVGID_2_)"/>
   <path id="path36" transform="matrix(.26458 0 0 .26458 -59 49.97)" d="m313.02 583c0-3.882 2.932-5.975 7.156-5.975h3.807v-1.029c0-2.664-1.294-4.149-3.768-4.149-1.676 0-3.503 0.381-5.178 0.876l-0.724-2.931c1.866-0.609 3.884-1.066 5.901-1.066 4.415 0 7.27 2.741 7.27 7.271v12.828h-2.93l-0.344-1.294c-0.914 0.952-2.551 1.789-4.492 1.789-3.957-1e-3 -6.698-2.171-6.698-6.32m10.962 0.267v-3.502h-3.807c-2.512 0-3.54 1.408-3.54 3.16 0 2.093 1.332 3.312 3.655 3.312 2.207-1e-3 3.692-1.333 3.692-2.97" clip-path="url(#SVGID_2_)"/>
   <polygon id="polygon38" transform="matrix(.26458 0 0 .26458 -59 49.97)" points="344.36 569.22 347.86 569.22 347.86 588.83 344.36 588.83 344.36 580.19 336.4 580.19 336.4 588.83 332.9 588.83 332.9 569.22 336.4 569.22 336.4 577.14 344.36 577.14" clip-path="url(#SVGID_2_)"/>
   <path id="path40" transform="matrix(.26458 0 0 .26458 -59 49.97)" d="m352.55 583c0-3.882 2.933-5.975 7.157-5.975h3.806v-1.029c0-2.664-1.294-4.149-3.767-4.149-1.676 0-3.503 0.381-5.178 0.876l-0.725-2.931c1.866-0.609 3.885-1.066 5.902-1.066 4.415 0 7.269 2.741 7.269 7.271v12.828h-2.93l-0.343-1.294c-0.914 0.952-2.551 1.789-4.492 1.789-3.957-1e-3 -6.699-2.171-6.699-6.32m10.963 0.267v-3.502h-3.806c-2.512 0-3.54 1.408-3.54 3.16 0 2.093 1.331 3.312 3.655 3.312 2.206-1e-3 3.691-1.333 3.691-2.97" clip-path="url(#SVGID_2_)"/>
   <path id="path42" transform="matrix(.26458 0 0 .26458 -59 49.97)" d="m373.2 576.08c0.837-4.111 2.741-6.854 7.042-6.854h5.824v19.604h-3.503v-16.596h-2.016c-2.284 0-3.274 1.675-3.808 4.187l-2.588 12.409h-3.579z" clip-path="url(#SVGID_2_)"/>
  </g>
 </g>
</svg>
