<?xml version="1.0" encoding="UTF-8"?>
<!-- Generator: Adobe Illustrator 16.0.0, SVG Export Plug-In . SVG Version: 6.00 Build 0)  -->
<svg id="svg48" width="231.36" height="205.14" enable-background="new 0 0 283.464 283.464" version="1.1" viewBox="0 0 231.36 205.14" xml:space="preserve" xmlns="http://www.w3.org/2000/svg" xmlns:cc="http://creativecommons.org/ns#" xmlns:dc="http://purl.org/dc/elements/1.1/" xmlns:rdf="http://www.w3.org/1999/02/22-rdf-syntax-ns#"><metadata id="metadata54"><rdf:RDF><cc:Work rdf:about=""><dc:format>image/svg+xml</dc:format><dc:type rdf:resource="http://purl.org/dc/dcmitype/StillImage"/><dc:title/></cc:Work></rdf:RDF></metadata><g id="Logo" transform="translate(-26.051 -39.16)"><g id="g44"><g id="g22"><circle id="circle2" cx="151.12" cy="163.68" r="79.45" fill="#f5ec3a" opacity=".9"/><circle id="circle4" cx="177.96" cy="140.29" r="79.45" fill="#f6871f" opacity=".8"/><circle id="circle6" cx="58.978" cy="71.423" r="22.465" fill="#f6871f" opacity=".9"/><circle id="circle8" cx="208.5" cy="50.043" r="10.883" fill="#f6871f" opacity=".4"/><circle id="circle10" cx="149.14" cy="142.84" r="79.45" fill="#d93f3b" opacity=".4"/><circle id="circle12" cx="105.5" cy="150.23" r="79.45" fill="#f6871f" opacity=".6"/><circle id="circle14" cx="118.55" cy="130.09" r="79.45" fill="#dd4034" opacity=".5"/><circle id="circle16" cx="149.15" cy="113.39" r="70.195" fill="#e53f3c" opacity=".6"/><circle id="circle18" cx="79.003" cy="236.97" r="7.335" fill="#ef412b" opacity=".5"/><circle id="circle20" cx="222.92" cy="215.77" r="4.64" fill="#f6871f" opacity=".4"/></g><g id="g42" fill="#fff"><g id="g28"><path id="path24" d="m131.71 151.43c0.299-2.378 0.042-3.906 0.168-5.557 0.131-1.648 0.415-3.801 0.563-7.895 0.09-2.419 0.049-3.618 0.433-6.289 0.377-2.673 0.392-6.205-0.374-9.195 0-0.471-0.829-3.246-2.254-3.314-0.464-0.017-2.539 0.108-3.169 0.452-0.825 0.462-1.391 1.646-1.494 2.699-0.165 1.724-1.087 6.908-1.229 8.046-0.148 1.126-0.119 2.593-0.479 3.889-1.64 5.999-4.677 14.801-5.255 15.549-0.577 0.736-1.695 1.805-2.661 1.291-0.437-0.225-0.531-2.678-0.454-3.24 0.09-0.563 0.371-1.327 0.645-3.987 0.279-2.67 1.161-16.983 1.294-18.637 0.126-1.655-0.11-3.161-0.492-3.828-0.808-1.537-1.348-1.745-1.403-2.773-0.043-1.033-0.304-1.636-0.788-2.298-0.475-0.671-2.584-0.109-3.415 0.803-0.834 0.895-0.713 1.609-0.929 2.48-0.214 0.868-0.225 2.327-0.541 3.738-1.441 7.381-2.512 26.709-2.709 28.743-0.167 2.231-0.402 4.505-0.358 6.776-0.021 1.623 0.273 4.239 0.42 4.906 0.136 0.658 0.427 1.701 0.989 2.665 0.562 0.971 1.224 2.822 2.674 3.603 0.425 0.215 0.604 0.278 1.161 0.334 0.383 0.039 0.996-0.174 1.364-0.421 0.574-0.384 1.703-1.561 2.132-1.961 0.436-0.411 0.974-0.948 1.679-1.753 0.662-0.741 5.301-7.518 7.016-8.828 0.26-0.229 0.47-0.371 0.668-0.292 0.527 0.379 0.529 3.128 0.753 4.271 0.208 1.146 0.648 3.438 0.967 4.631 0.318 1.189 0.459 2.63 1.212 3.452 0.555 0.586 1.333 0.93 1.993 0.915 0.954-0.133 1.028-0.329 1.598-0.714 0.56-0.368 1.582-0.681 1.571-1.577-0.272-2.64-1.126-5.465-1.082-8.13-7e-3 -0.727-0.512-6.172-0.214-8.554m-26.982 34.128c-0.133-0.403-0.224-1.008-0.431-1.833-0.215-0.809-0.551-2.188-0.551-5.163 0-4.14-0.54-6.798-0.434-9.219v-11.488c0-5.665-0.299-8.679-0.085-11.924-0.033-1.58 1.969-21.777 2.433-25.638 0.474-3.852 0.726-7.726 1.177-10.646 0.45-2.915 1.587-9.216 1.867-10.378 0.279-1.149 0.548-2.618 0.813-3.556 0.262-0.942 0.861-2.697 1.241-3.643 1.101-3.287 0.08-4.623-0.935-5.623-0.894-0.874-2.521-0.895-4.025-0.252-0.314 0.112-0.541 0.282-0.849 0.359-0.294 0.076-0.896 0.049-1.123 0.093-2.137 0.442-3.55 3.504-3.839 4.412-0.311 0.909-0.593 1.896-0.91 3.502-1.272 6.303-2.767 18.039-3.005 19.818-0.304 2.242-2.175 13.647-2.381 17.297-0.101 1.479-1.082 6.02-2.01 9.049-0.623 2.028-0.902 3.151-1.769 3.192-0.58 0.021-1.113-0.308-1.113-1.811 0-1.187 1.232-9.828 1.232-12.64 0-0.836 0-1.554-0.166-2.492-0.235-1.311-0.995-3.964-2.365-3.852-1.384 0.123-2.623 0.689-3.256 1.202-0.638 0.514-0.966 2.685-1.04 3.933-0.077 1.257-0.235 4.702-0.469 6.085-0.241 1.376-0.374 2.21-0.653 3.517-0.266 1.314-1.428 7.203-1.988 8.877-0.568 1.665-1.464 4.378-1.964 4.244-0.502-0.144-0.714-1.688-0.714-3.201 0-1.517 0.145-5.289 0.606-8.431 0.492-3.31 0.466-6.82 0.758-8.626 0.291-1.795 0.486-3.924 0.676-5.603 0.188-1.679 0.279-4.829 0.203-5.815-0.098-1.334-0.758-2.438-1.077-2.858-0.332-0.43-0.639-0.678-1.156-1.019-0.509-0.359-1.795-0.972-2.974-0.322-1.063 0.588-2.234 0.434-2.74 1.234-0.494 0.813-0.771 3.92-1.521 5.788-2.719 6.752-5.523 15.262-8.199 19.812-1.985 3.38-5.073 8.808-7.948 13.409-0.991 1.591 1.188 3.765 3.477 3.97 3.829 0.346 4.303-3.032 5.858-5.386 1.329-2.011 2.979-5.673 4.302-4.38 1.311 1.284 1.593 4.812 1.593 6.629 0 1.834 0.145 3.381 0.303 5.439 0.177 2.069 0.121 8.91 0.63 10.538 0.059 0.49 0.35 2.652 0.5 4.306 0.062 0.63 0.168 1.208 0.244 1.557 0.086 0.325 0.31 0.734 0.762 0.872 0.788 0.247 1.726 1.09 2.451 1.735 0.389 0.311 0.689 0.389 1.005 0.363 0.714-0.053 1.406-1.155 1.777-1.655 0.632-0.846 7.346-23.173 8.868-23.228 1.014-0.02 0.711 2.78 0.812 3.55 0.135 1.093 0.381 2.137 1.048 2.951 0.481 0.593 2.412 1.142 3.459 0.468 0.756-0.5 1.346-2.638 2.049-2.216 0.58 0.354 0.948 9.499 0.948 9.499 0.172 1.436 0.363 3.837 0.566 4.849 0.354 2.007 0.345 2.355 0.501 3.698 0.034 0.325 0.136 0.855 0.136 1.207 0.041 1.622 0.363 4.818 0.454 6.45 0.033 0.829 0.392 2.581 0.663 3.27 0.284 0.72 0.466 1.063 0.748 1.632 0.282 0.568 0.62 1.053 1.021 1.615 1.817 2.533 5.162 2.585 6.021 1.956 0.877-0.609 1.411-1.173 1.764-1.673 0.585-0.835 0.97-2.079 0.97-2.986 0-0.918-1.304-2.094-1.571-2.772-0.279-0.672-0.539-1.636-0.675-2.048m119.11-90.743c0.639-1.813 1.025-3.21 2.063-4.227 0.829-0.811 0.302-1.82-0.745-0.79-2.552 2.217-2.275 1.845-4.209 3.757-1.472 1.896-1.719 1.982-2.969 3.496-1.504 1.822-3.792 4.019-5.426 6.416 0 0-3.286 4.635-4.684 6.984-0.393 0.849-1.43 2.46-2.347 3.983-0.716 1.173-1.085 2.102-1.472 2.686-0.397 0.589-0.615 1.06-0.962 1.67-1.187 2.078-3.363 6.007-4.512 8.7-1.158 2.696-5.221 10.169-6.136 12.095-0.81 1.73-2.009 3.523-2.986 3.801-0.971 0.271-1.522-0.96-1.604-1.617-0.081-0.653-0.081-1.427-0.016-2.184 0.136-1.553 0.451-2.409 0.54-4.195 0.099-1.779 0.911-5.167 0.578-6.804-0.331-1.635-0.835-4.673-2.705-4.839-1.532-0.137-2.507-0.656-3.239-0.252-0.732 0.407-0.773 0.742-0.955 1.451-0.173 0.709-0.261 2.304-0.734 3.444-0.396 0.945-1.018 3.374-1.447 4.551-0.955 2.68-7.824 25.725-11.024 24.832-1.914-0.53-0.537-4.467-0.321-5.836 0.175-1.214 1.281-7.572 1.472-8.727 0.19-1.157 0.732-4.959 1.044-7.7 0.304-2.741 0.776-5.647 0.498-7.003-0.414-2.127-2.368-2.502-3.87-3.693-1.688-1.34-3.37-0.616-3.37 0.561 0.068 1.194-0.696 3.358-0.835 4.253-0.589 3.572-1.152 11.368-1.183 13.38-0.159 1.681-0.342 3.187-0.407 4.866-0.1 1.235-0.23 2.467-0.303 3.702-0.025 0.532-0.238 2.472-0.323 3.247-0.135 1.284-0.238 2.858-0.291 3.656-0.073 0.871-0.542 4.287-0.054 5.941 0.661 2.242 2.76 3.64 3.799 4.108 1.167 0.538 4.901 0.889 7.548-0.343 1.79-0.834 3.432-2.806 5.313-6.771 0.903-1.913 3.403-9.629 4.486-9.629 1.022 0 1.479 3.026 1.867 3.861 0.79 1.701 1.91 3.187 4.176 3.609 0.952 0.186 2.874 0.329 5.268-0.325 1.711-0.465 2.986-1.496 3.771-2.308 0.775-0.814 6.015-9.635 7.778-14.146 1.747-4.507 3.546-8.692 5.042-12.138 1.492-3.433 12.505-31.381 13.886-35.523m-65.527 48.773c-0.163-1.627-1.079-6.024-1.684-7.593-0.653-1.695-2.228-5.534-3.155-6.997-0.823-1.428-2.231-1.382-1.968 0.362 0.034 0.182 0.072 0.429 0.164 0.862 0.099 0.43 0.323 3.066 0.561 5.84 0.065 4.218 0.173 4.096 0.065 7.833-0.065 1.565-0.5 4.119-0.732 5.369-0.464 2.445-1.282 5.257-2.142 7.249-0.479 1.11-1.705 2.916-2.521 4.169-0.826 1.252-1.831 1.813-2.404 2.276-0.578 0.475-1.144 0.773-1.724 0.72-0.576-0.058-1.251-0.804-0.951-2.283 0.287-1.482 0.668-4.227 0.81-5.735 0.142-1.512 0.386-2.964 0.86-4.979 0.477-2.024 1.628-11.254 2.104-13.173 0.479-1.93 0.885-3.898 1.444-5.815 0.655-1.722 4.404-11.324 4.404-11.324s0.697-1.601 1.146-3.116c0.446-1.501 1.568-4.366 2.334-6.968l1.44-4.569c0.615-2.629 0.476-2.45 0.751-5.302 0.135-1.473-0.629-3.254-1.155-3.254-0.979 0-0.403 3.195-1.165 5.137-0.313 1.142-5.091 14.794-8.005 18.571-0.529 0.681-1.4 1.212-1.765 1.304-0.371 0.087-0.506-0.734-0.454-1.341 0.057-0.566 0.263-1.549 0.511-3.33 0.573-4.108 5.498-21.787 6.005-22.624 1.417-2.827 1.845-3.061 2.689-2.336 0.188 0.152 0.662 0.636 0.912 0.881 0.398 0.395 0.757-0.117 0.928-1.243 0.147-0.998-0.082-3.748-0.303-4.498-0.233-0.746-0.988-1.722-1.521-2.147-0.523-0.429-2.313-1.294-4.087-0.987-1.732 0.307-3.312 1.722-4.101 2.575-0.215 0.23-0.717 0.954-0.901 1.378-0.188 0.418-0.718 1.278-1.164 2.771-0.226 0.867-0.513 1.594-0.874 2.691-0.35 1.099-1.741 5.091-2.24 7.174-0.49 2.085-0.887 5.431-1.567 8.049-0.135 0.524-0.319 0.948-0.419 1.467-0.094 0.495-0.136 0.741-0.189 1.061-0.116 0.734-0.25 1.46-0.348 2.195-0.061 0.527-0.348 2.366-0.42 2.811-0.188 1.124-0.2 2.328-0.2 2.328-0.405 3.497-0.86 7.415-0.854 10.481 0.014 3.09-0.098 9.419-0.017 11.759 0.081 2.346 0.185 10 0.205 12.734 0.021 2.732 1.014 9.174 1.67 10.633 0.439 0.957 1.069 2.421 1.761 3.072 0.692 0.655 1.442 1.329 2.297 1.804 0.865 0.482 1.614 0.7 2.395 0.917 0.778 0.21 2.246 0.39 3.495 0.343 1.246-0.042 3.036-0.877 4.104-1.672 1.058-0.8 1.796-1.988 2.305-3.001 0.51-1.023 1.498-3.076 1.986-4.303 0.504-1.224 1.337-4.345 1.505-5.434 0.167-1.097 0.367-2.142 0.453-3.136 0.153-1.758-7e-3 -7.151-0.274-9.656"/><path id="path26" d="m186.17 170.69c0.082-0.195 0.099-0.387 0.589-0.689 0.5-0.302 0.63-1.008 0.572-1.4-0.109-0.811-0.769-1.065-1.636-1.313-0.317-0.078-1.685-0.242-2.563 0-5.078 1.434-4.661 6.748-3.832 8.486 1.875 3.873 6.137 3.505 8.031 2.737 1.366-0.537 2.575-2.25 2.174-2.931-0.398-0.672 0.74-1.069 0.874-2.515 0.225-2.368-4.623-0.684-4.209-2.375"/></g><g id="g40"><path id="path30" d="m121.47 185.89h4.861v20.016c0 1.841-0.181 3.215-0.543 4.123-0.361 0.907-0.935 1.605-1.718 2.092-0.784 0.487-1.728 0.73-2.832 0.73-0.974 0-2.185-0.243-3.633-0.73v-3.828c0.76 0.368 1.431 0.552 2.013 0.552 0.617 0 1.08-0.184 1.389-0.552s0.463-1.046 0.463-2.03zm2.422-7.978c0.866 0 1.605 0.309 2.217 0.923 0.611 0.617 0.918 1.362 0.918 2.238 0 0.864-0.303 1.605-0.908 2.22-0.606 0.614-1.33 0.923-2.173 0.923-0.867 0-1.605-0.314-2.218-0.94-0.611-0.627-0.917-1.386-0.917-2.273 0-0.852 0.301-1.579 0.899-2.185 0.6-0.604 1.328-0.906 2.182-0.906z"/><path id="path32" d="m129.01 185.89h4.953l4.895 11.433 4.884-11.433h4.928l-8.244 19.375h-3.152z"/><path id="path34" d="m154.17 200.19c0.772 0 1.431 0.27 1.977 0.81s0.82 1.196 0.82 1.968-0.274 1.431-0.82 1.978c-0.546 0.545-1.204 0.818-1.977 0.818-0.771 0-1.431-0.273-1.977-0.818-0.546-0.547-0.818-1.206-0.818-1.978s0.272-1.428 0.818-1.968 1.205-0.81 1.977-0.81z"/><path id="path36" d="m160.58 185.89h4.167v2.438c0.451-0.961 1.051-1.691 1.798-2.189 0.749-0.498 1.567-0.749 2.458-0.749 0.629 0 1.289 0.167 1.978 0.5l-1.514 4.185c-0.57-0.286-1.039-0.428-1.407-0.428-0.747 0-1.381 0.464-1.897 1.39s-0.773 2.742-0.773 5.449l0.018 0.943v7.836h-4.826v-19.375z"/><path id="path38" d="m173.36 185.89h4.915v9.33c0 1.816 0.125 3.079 0.375 3.785 0.249 0.706 0.652 1.256 1.206 1.646 0.552 0.393 1.234 0.588 2.043 0.588s1.495-0.192 2.062-0.578c0.565-0.386 0.985-0.953 1.258-1.701 0.204-0.558 0.305-1.75 0.305-3.579v-9.491h4.862v8.209c0 3.384-0.268 5.698-0.802 6.945-0.653 1.52-1.615 2.687-2.886 3.5-1.27 0.813-2.885 1.219-4.843 1.219-2.125 0-3.845-0.475-5.156-1.424-1.312-0.95-2.235-2.273-2.769-3.972-0.381-1.176-0.57-3.313-0.57-6.411z"/></g></g></g></g></svg>
