<svg width="600pt" height="474.23pt" version="1.1" viewBox="0 0 600 474.23" xmlns="http://www.w3.org/2000/svg">
 <path d="m24.504 425.22c13.53 0 24.484 10.954 24.484 24.489 0 13.53-10.954 24.499-24.484 24.499-13.535 0-24.504-10.97-24.504-24.499 0-13.535 10.97-24.489 24.504-24.489zm73.233-101.15c27.207 0 49.249 22.057 49.249 49.249s-22.041 49.254-49.249 49.254c-27.192 0-49.254-22.062-49.254-49.254s22.062-49.249 49.254-49.249zm445.72-60.545c30.114 0 54.532 24.418 54.532 54.517 0 30.109-24.418 54.527-54.532 54.527-30.094 0-54.512-24.418-54.512-54.527 0-30.099 24.418-54.517 54.512-54.517zm-257.87-263.52c102.43 0 185.5 83.081 185.5 185.5 0 102.43-83.065 185.5-185.5 185.5-102.43 0-185.5-83.065-185.5-185.5 0-102.42 83.065-185.5 185.5-185.5zm0 108.32c42.629 0 77.195 34.566 77.195 77.185 0 42.629-34.566 77.195-77.195 77.195-42.614 0-77.195-34.566-77.195-77.195 0-42.619 34.582-77.185 77.195-77.185zm313.78-40.997c-4.396 43.037-9.6131 88.083-16.437 130.54-1.8206 19.777-18.461 35.291-38.728 35.291-20.139 0-36.703-15.31-38.687-34.928-7.2978-42.818-12.948-87.084-17.865-130.26-0.45898-2.9477-0.72417-5.9566-0.72417-9.0317 0-31.226 25.31-56.541 56.521-56.541 31.226 0 56.541 25.315 56.541 56.541 0 2.8457-0.20399 5.6506-0.62217 8.3942zm-419.46 365.02v9.7865h11.898v31.155h12.734v-31.155h11.882v-9.7865zm80.75 24.535c0.102-0.45898 0.153-1.1576 0.25499-2.0399 0.102-0.89756 0.15299-1.8818 0.15299-2.9936 0-2.0399-0.20399-4.0492-0.63237-6.0126-0.40798-1.9685-1.0862-3.8146-1.9838-5.5537-0.90776-1.7339-2.0654-3.2639-3.4984-4.5949-1.4432-1.3158-3.167-2.3561-5.1763-3.1058-2.0093-0.77007-4.3348-1.1424-6.9663-1.1576-2.8304 0.0153-5.3599 0.45898-7.5885 1.2698-2.2286 0.84147-4.1614 1.9838-5.8138 3.4271-1.6319 1.4585-3.0038 3.1109-4.0747 4.9723-1.0863 1.8665-1.8767 3.8299-2.4122 5.9158-0.53548 2.0807-0.79557 4.1767-0.79557 6.2727 0.0153 4.2787 0.88226 7.9914 2.5703 11.087 1.7084 3.1211 4.1818 5.5231 7.4304 7.2009 3.2537 1.6727 7.2009 2.5295 11.857 2.555 2.7743 0 5.4058-0.20399 7.9047-0.63237 2.504-0.40798 4.7989-1.0862 6.9102-1.9532l-1.6778-8.6288c-1.688 0.57627-3.4678 1.025-5.3038 1.3259-1.8359 0.30599-3.8299 0.45898-5.9973 0.45898-1.4891 0-2.9222-0.15299-4.2532-0.45898-1.3412-0.30599-2.5448-0.79557-3.5852-1.4432-1.0658-0.63747-1.9226-1.4483-2.5703-2.4326-0.63747-0.96896-1.025-2.1215-1.1424-3.4372h26.381zm-26.468-8.7206c0.102-0.83637 0.25499-1.7492 0.62218-2.7029 0.35698-0.95366 0.81086-1.8512 1.4432-2.6876 0.62217-0.85166 1.4177-1.5299 2.402-2.0654 0.96896-0.53548 2.1368-0.81087 3.4832-0.82617 1.4432 0.0153 2.6315 0.30599 3.5546 0.85167 0.92816 0.55077 1.6625 1.2749 2.1674 2.1419 0.53548 0.83636 0.89756 1.7492 1.1168 2.6876 0.20399 0.95366 0.30599 1.8053 0.30599 2.6009h-15.075zm38.61-15.814v16.584c0.0153 2.2949-0.0255 4.2889-0.15299 5.9668-0.102 1.6778-0.40798 3.0956-0.76497 4.2685-0.40798 1.1526-0.98426 2.1368-1.7492 2.9018-0.52017 0.55078-1.1576 1.0149-1.9532 1.3769-0.79557 0.35699-1.6778 0.63238-2.657 0.80577l1.4279 9.8732c2.8202 0 5.1916-0.30598 7.0989-0.96895 1.9226-0.66298 3.529-1.6625 4.7989-3.0497 1.5197-1.229 2.7029-2.8151 3.5444-4.753 0.83636-1.9379 1.4126-4.2379 1.7492-6.8694 0.35698-2.6417 0.50997-5.5945 0.45898-8.8889v-7.5324h8.8787v31.226h12.734v-40.941h-33.424zm81.663 24.535c0.102-0.45898 0.20399-1.1576 0.30599-2.0399 0.0505-0.89756 0.102-1.8818 0.102-2.9936 0-2.0399-0.204-4.0492-0.62218-6.0126-0.40798-1.9685-1.0812-3.8146-1.9787-5.5537-0.90776-1.7339-2.0654-3.2639-3.5138-4.5949-1.4279-1.3158-3.1517-2.3561-5.161-3.1058-2.0093-0.77007-4.3348-1.1424-6.9816-1.1576-2.8304 0.0153-5.3497 0.45898-7.5732 1.2698-2.2286 0.84147-4.1665 1.9838-5.8138 3.4271-1.6319 1.4585-3.0038 3.1109-4.0747 4.9723-1.0965 1.8665-1.892 3.8299-2.4122 5.9158-0.53548 2.0807-0.79557 4.1767-0.79557 6.2727 0.0102 4.2787 0.86696 7.9914 2.5703 11.087 1.7084 3.1211 4.1767 5.5231 7.4304 7.2009 3.2537 1.6727 7.2009 2.5295 11.857 2.555 2.7743 0 5.4058-0.20399 7.9047-0.63237 2.504-0.40798 4.7989-1.0862 6.9102-1.9532l-1.6778-8.6288c-1.7033 0.57627-3.4678 1.025-5.3038 1.3259-1.8359 0.30599-3.8299 0.45898-5.9974 0.45898-1.4891 0-2.9222-0.15299-4.2532-0.45898-1.3412-0.30599-2.5448-0.79557-3.6004-1.4432-1.0556-0.63747-1.9073-1.4483-2.555-2.4326-0.65277-0.96896-1.0404-2.1215-1.1424-3.4372h26.366zm-26.453-8.7206c0.102-0.83637 0.25499-1.7492 0.60688-2.7029 0.35698-0.95366 0.82106-1.8512 1.4585-2.6876 0.62217-0.85166 1.4177-1.5299 2.402-2.0654 0.95366-0.53548 2.1215-0.81087 3.4832-0.82617 1.4432 0.0153 2.6315 0.30599 3.5392 0.85167 0.94346 0.55077 1.6625 1.2749 2.1827 2.1419 0.53548 0.83636 0.89756 1.7492 1.1016 2.6876 0.20399 0.95366 0.30599 1.8053 0.30599 2.6009h-15.06zm36.443-15.814v40.941h12.719v-16.248h1.2596c2.0399 0 3.7432 0.62218 5.1049 1.8512 1.3718 1.2138 2.4836 2.9885 3.3506 5.3599 0.78027 2.1725 1.4483 4.0084 2.0246 5.4925 0.57627 1.4891 1.127 2.6621 1.6625 3.5444h13.316c-0.66808-1.3004-1.2852-2.6621-1.8512-4.09-0.57627-1.433-1.127-2.8355-1.6217-4.2073-0.50998-1.3718-0.99446-2.6315-1.4738-3.7585-0.78026-1.994-1.6472-3.7891-2.6315-5.3798-0.97915-1.5758-2.096-2.8763-3.3506-3.886-1.275-1.0149-2.6876-1.6625-4.3093-1.9532l15.065-17.666h-14.82l-10.378 16.324h-1.3463v-16.324zm80.403 16.743c0.0153-2.4275-0.30599-4.6969-0.88227-6.8235-0.60687-2.1266-1.5911-3.9931-2.963-5.6251-1.3871-1.6166-3.2078-2.8916-5.5231-3.8146-2.3102-0.91286-5.161-1.3871-8.5574-1.4024-2.4836 0.0153-4.753 0.20399-6.8082 0.59157-2.0399 0.40799-3.8299 0.86697-5.365 1.433-1.5299 0.54568-2.7896 1.1118-3.7432 1.6625l2.3408 8.124c0.91286-0.55077 1.9838-1.0404 3.2129-1.5044 1.2138-0.45899 2.5142-0.82617 3.9013-1.0863 1.3871-0.25499 2.7896-0.40798 4.192-0.40798 1.5758 0.0153 2.8355 0.20399 3.8197 0.52018 0.99446 0.35698 1.7492 0.77006 2.2694 1.3004 0.53038 0.53548 0.89246 1.1168 1.0964 1.7084 0.20399 0.62217 0.30599 1.1832 0.25499 1.7492v0.50998c-3.631 0-6.9255 0.30598-9.8732 0.93836-2.9375 0.65277-5.467 1.6064-7.5783 2.8916-2.1062 1.3004-3.7432 2.9222-4.8703 4.8856-1.127 1.9685-1.7033 4.294-1.7186 6.9408 0 1.6472 0.30599 3.2231 0.90776 4.7122 0.59668 1.5044 1.4789 2.8355 2.606 4.0033 1.1424 1.2036 2.5295 2.1113 4.1614 2.8049 1.6217 0.68337 3.4832 1.0302 5.5639 1.0404 2.4428 0 4.6714-0.40798 6.6807-1.2852 1.994-0.85166 3.6872-2.1113 5.0437-3.7432h0.25499l0.75477 4.1053h11.48c-0.153-0.76497-0.30599-1.6625-0.40798-2.7029-0.102-1.0404-0.153-2.1827-0.25499-3.4118-0.0306-1.2138-0.0459-2.4734-0.0459-3.7586v-14.325zm-12.316 9.2918c0 0.35698-0.0153 0.75476-0.05 1.1168-0.0459 0.35698-0.102 0.73437-0.204 1.0658-0.30598 0.88227-0.76496 1.6625-1.4024 2.3714-0.63747 0.69358-1.4177 1.2596-2.3153 1.6778-0.89246 0.40799-1.8614 0.62218-2.9018 0.63748-0.96896 0-1.8257-0.153-2.5754-0.53548-0.74967-0.35698-1.3463-0.88226-1.7798-1.6166-0.40798-0.70887-0.66297-1.6217-0.67827-2.708 0.0306-1.6013 0.56608-2.8865 1.6064-3.8299 1.0404-0.93836 2.4428-1.6166 4.2328-2.0246 1.7951-0.40799 3.8044-0.60688 6.0585-0.59158v4.4368zm24.3-26.034v40.941h12.724v-16.248h12.892v16.248h12.734v-40.941h-12.734v14.82h-12.892v-14.82zm84.585 16.743c0.0102-2.4275-0.25499-4.6969-0.86696-6.8235-0.61198-2.1266-1.5911-3.9931-2.9681-5.6251-1.3871-1.6166-3.2078-2.8916-5.518-3.8146-2.3153-0.91286-5.161-1.3871-8.5625-1.4024-2.4836 0.0153-4.753 0.20399-6.8082 0.59157-2.0348 0.40799-3.8299 0.86697-5.3599 1.433-1.535 0.54568-2.7896 1.1118-3.7432 1.6625l2.3408 8.124c0.90776-0.55077 1.9634-1.0404 3.1925-1.5044 1.2138-0.45899 2.5295-0.82617 3.9166-1.0863 1.3922-0.25499 2.7896-0.40798 4.192-0.40798 1.5758 0.0153 2.8355 0.20399 3.8197 0.52018 0.99446 0.35698 1.7492 0.77006 2.2694 1.3004 0.53548 0.53548 0.89756 1.1168 1.0965 1.7084 0.20399 0.62217 0.30598 1.1832 0.25499 1.7492v0.50998c-3.626 0-6.9255 0.30598-9.8732 0.93836-2.9324 0.65277-5.4619 1.6064-7.5732 2.8916-2.1113 1.3004-3.7432 2.9222-4.8754 4.8856-1.127 1.9685-1.7033 4.294-1.7186 6.9408 0 1.6472 0.30599 3.2231 0.91287 4.7122 0.59157 1.5044 1.4738 2.8355 2.6009 4.0033 1.1424 1.2036 2.5142 2.1113 4.1461 2.8049 1.637 0.68337 3.4985 1.0302 5.5843 1.0404 2.4428 0 4.6663-0.40798 6.6756-1.2852 1.994-0.85166 3.6871-2.1113 5.0488-3.7432h0.25499l0.74966 4.1053h11.48c-0.15299-0.76497-0.30599-1.6625-0.40798-2.7029-0.102-1.0404-0.15299-2.1827-0.25499-3.4118-0.0459-1.2138-0.0495-2.4734-0.0495-3.7586v-14.325zm-12.306 9.2918c0 0.35698-0.0153 0.75476-0.05 1.1168-0.0459 0.35698-0.102 0.73437-0.20399 1.0658-0.30599 0.88227-0.76497 1.6625-1.4024 2.3714-0.63748 0.69358-1.4177 1.2596-2.3102 1.6778-0.89756 0.40799-1.8665 0.62218-2.9069 0.63748-0.96896 0-1.8206-0.153-2.5754-0.53548-0.74966-0.35698-1.3412-0.88226-1.7747-1.6166-0.45898-0.70887-0.66807-1.6217-0.68337-2.708 0.0306-1.6013 0.56607-2.8865 1.5911-3.8299 1.0557-0.93836 2.4581-1.6166 4.2532-2.0246 1.7747-0.40799 3.7993-0.60688 6.0534-0.59158v4.4368zm26.56-26.034v16.584c0.0102 2.2949-0.0459 4.2889-0.15299 5.9668-0.102 1.6778-0.40799 3.0956-0.78027 4.2685-0.40798 1.1526-0.96896 2.1368-1.7339 2.9018-0.52017 0.55078-1.1576 1.0149-1.9532 1.3769-0.79047 0.35699-1.6727 0.63238-2.657 0.80577l1.433 9.8732c2.8151 0 5.1865-0.30598 7.0938-0.96895 1.9124-0.66298 3.5138-1.6625 4.7887-3.0497 1.5146-1.229 2.7029-2.8151 3.5392-4.753 0.84146-1.9379 1.433-4.2379 1.7645-6.8694 0.35698-2.6417 0.50997-5.5945 0.45898-8.8889v-7.5329h8.8787v31.226h12.719v-40.941h-33.404z" fill="#f6dd11" fill-rule="evenodd"/>
</svg>
