<svg width="800" height="476.91" version="1.1" viewBox="0 0 800 476.91" xml:space="preserve" xmlns="http://www.w3.org/2000/svg">
<path transform="matrix(.6812 0 0 .6812 -4504.2 -4668.6)" d="m7059.3 6941.1-447.2 124.2v410.5h40.8c285.11-106.32 357.33-129.5 467.8-323.1 50.282-103.03 38.779-147.05-61.4-211.6z" fill="#010101"/><path transform="matrix(.6812 0 0 .6812 -4504.2 -4668.6)" d="m7745.3 7475.8 41.2-527.1c-250.04 127.86-387.34 262.51-489.7 593.8z" fill="#010101"/>
<path d="m27.755 423.91 387.13 52.997c-49.188-106.53-86.128-153.1-180.86-200.82z" fill="#f68b1f" stroke-width=".6812"/><path d="m304.6 59.677 41.826 144.14c157.33-16.235 226.58-120.56 316.89-203.82z" fill="#de3b52" stroke-width=".6812"/><path d="m466.38 469.35 333.58-404.5-136.65-64.85-316.89 203.82c-2.4041 99.637 8.1573 190.09 68.461 273.09z" fill="#11a3a3" stroke-width=".6812"/><path transform="matrix(.6812 0 0 .6812 -4504.2 -4668.6)" d="m7120.7 7152.7-165 106.1 265.5 294.8z" fill="#b71e5f"/><g fill="#fff" stroke-width=".6812"><path d="m172.55 313.96-28.542 47.207h-81.88l68.324-100.61-64.918-107.43h98.569l21.73 41.485 24.455-41.485h81.88l-64.578 95.163 68.324 112.81h-98.229z"/><path d="m323.02 364.31 130.52-88.352v85.286h84.264v-210.69h-6.7439l-130.52 88.011v-85.286h-84.605v211.04z"/><path d="m600.34 361.24h83.924v-137.33h36.376v-70.64h-156.68v70.64h36.376z"/></g>
</svg>
