<svg id="bf" enable-background="new 0 0 283.464 283.464" version="1.1" viewBox="0 0 233.57 134.52" xml:space="preserve" xmlns="http://www.w3.org/2000/svg" xmlns:xlink="http://www.w3.org/1999/xlink"><g id="bg" transform="translate(-24.864 -74.631)"><g id="bh"><g id="bi"><defs id="bj"><path id="au" d="m24.901 85.012s-1.143 44.458 9.711 69.752c18.893 44.051 52.277 54.211 52.277 54.211s33.385-10.16 52.276-54.211c10.855-25.294 9.713-69.752 9.713-69.752s-17.315-10.207-61.988-10.207c-44.677 0-61.989 10.207-61.989 10.207"/></defs><clipPath id="aj"><use id="bk" width="100%" height="100%" overflow="visible" xlink:href="#au"/></clipPath><linearGradient id="y" x1="-277.96" x2="-276.55" y1="368.45" y2="368.45" gradientTransform="matrix(45.664 -72.613 72.613 45.664 -14003 -36822)" gradientUnits="userSpaceOnUse"><stop id="bl" stop-color="#CECECF" offset="0"/><stop id="bm" stop-color="#fff" offset=".6"/><stop id="bn" stop-color="#CECECF" offset="1"/></linearGradient><polygon id="bo" points="59.541 17.906 -36.706 170.95 114.24 265.88 210.49 112.83" clip-path="url(#aj)" fill="url(#y)"/></g><g id="bp"><defs id="bq"><path id="n" d="m28.602 87.382c-0.052 2.342-0.796 43 9.065 66.102 9.185 21.521 22.091 34.39 31.3 41.401 9.555 7.273 17.214 9.906 17.922 10.142 0.706-0.235 8.353-2.861 17.904-10.129 9.213-7.008 22.13-19.889 31.314-41.414 9.859-23.099 9.116-63.76 9.067-66.102-1.352-0.71-18.238-9.155-58.286-9.155-40.036 0-56.936 8.445-58.286 9.155"/></defs><clipPath id="e"><use id="br" width="100%" height="100%" overflow="visible" xlink:href="#n"/></clipPath><linearGradient id="d" x1="-279.41" x2="-277.99" y1="369.45" y2="369.45" gradientTransform="matrix(0 -47.479 47.479 0 -17454 -13112)" gradientUnits="userSpaceOnUse"><stop id="bs" stop-color="#1253A5" offset="0"/><stop id="bt" stop-color="#0091D5" offset="1"/></linearGradient><rect id="bu" x="27.806" y="78.227" width="118.16" height="126.8" clip-path="url(#e)" fill="url(#d)"/></g><g id="bv"><defs id="bw"><path id="c" d="m31.528 89.615-0.093 0.047-1e-3 0.107c-7e-3 0.401-0.544 40.401 9.039 62.755 8.715 20.343 20.852 32.62 29.497 39.338 9.375 7.282 16.789 9.783 16.86 9.813l0.06 0.016 0.053-0.016c0.073-0.029 7.489-2.53 16.862-9.813 8.646-6.718 20.784-18.995 29.498-39.338 9.581-22.354 9.047-62.354 9.039-62.755l-2e-3 -0.107-0.095-0.047c-0.155-0.08-15.931-8.028-55.354-8.028-39.429 0-55.205 7.949-55.363 8.028"/></defs><clipPath id="b"><use id="bx" width="100%" height="100%" overflow="visible" xlink:href="#c"/></clipPath><linearGradient id="a" x1="-277.93" x2="-276.51" y1="368.79" y2="368.79" gradientTransform="matrix(38.288 -60.81 60.81 38.288 -11721 -30843)" gradientUnits="userSpaceOnUse"><stop id="by" stop-color="#CECECF" offset="0"/><stop id="bz" stop-color="#fff" offset=".6"/><stop id="ca" stop-color="#CECECF" offset="1"/></linearGradient><polygon id="cb" points="62.685 31.091 -23.263 167.59 111.09 252.19 197.04 115.68" clip-path="url(#b)" fill="url(#a)"/></g><g id="cc"><defs id="cd"><path id="be" d="m71.392 88.831 15.498 25.407 15.494-25.407c-4.921-0.278-10.134-0.415-15.494-0.415-5.365 0-10.576 0.137-15.498 0.415"/></defs><clipPath id="bd"><use id="ce" width="100%" height="100%" overflow="visible" xlink:href="#be"/></clipPath><linearGradient id="bc" x1="-279.4" x2="-277.98" y1="369.46" y2="369.46" gradientTransform="matrix(0 -47.473 47.473 0 -17453 -13110)" gradientUnits="userSpaceOnUse"><stop id="cf" stop-color="#1253A5" offset="0"/><stop id="cg" stop-color="#0091D5" offset="1"/></linearGradient><rect id="ch" x="71.392" y="88.416" width="30.992" height="25.822" clip-path="url(#bd)" fill="url(#bc)"/></g><g id="ci"><defs id="cj"><path id="bb" d="m90.32 119.87 11.707 19.187h29.33c4.604-18.894 4.085-42.917 4.04-44.775-0.964-0.397-8.813-3.448-26.432-4.98z"/></defs><clipPath id="ba"><use id="ck" width="100%" height="100%" overflow="visible" xlink:href="#bb"/></clipPath><linearGradient id="az" x1="-279.4" x2="-277.99" y1="369.61" y2="369.61" gradientTransform="matrix(0 -47.48 47.48 0 -17436 -13112)" gradientUnits="userSpaceOnUse"><stop id="cl" stop-color="#1253A5" offset="0"/><stop id="cm" stop-color="#0091D5" offset="1"/></linearGradient><rect id="cn" x="90.32" y="89.298" width="45.64" height="49.755" clip-path="url(#ba)" fill="url(#az)"/></g><g id="co"><defs id="cp"><path id="ay" d="m38.383 94.278c-0.05 1.861-0.563 25.882 4.037 44.775h29.329l11.707-19.187-18.643-30.568c-17.61 1.53-25.469 4.583-26.43 4.98"/></defs><clipPath id="ax"><use id="cq" width="100%" height="100%" overflow="visible" xlink:href="#ay"/></clipPath><linearGradient id="aw" x1="-279.4" x2="-277.99" y1="369.29" y2="369.29" gradientTransform="matrix(0 -47.48 47.48 0 -17473 -13112)" gradientUnits="userSpaceOnUse"><stop id="cr" stop-color="#1253A5" offset="0"/><stop id="cs" stop-color="#0091D5" offset="1"/></linearGradient><rect id="ct" x="37.82" y="89.298" width="45.636" height="49.755" clip-path="url(#ax)" fill="url(#aw)"/></g><g id="cu"><defs id="cv"><path id="av" d="m72.071 149.78c-0.049 0.078-1.216 1.831-2.109 2.711-0.873 0.86-2.035 0.985-2.646 0.985-0.177 0-0.288-0.013-0.288-0.013h-19.414c7.812 16.157 18.052 26.131 25.288 31.659 7.464 5.704 13.341 7.978 13.988 8.214 0.644-0.236 6.51-2.501 13.972-8.203 7.237-5.532 17.483-15.511 25.3-31.67h-19.395s-0.114 0.013-0.305 0.013c-0.617 0-1.777-0.125-2.647-0.985-0.894-0.88-2.059-2.633-2.112-2.711l-14.813-24.29z"/></defs><clipPath id="at"><use id="cw" width="100%" height="100%" overflow="visible" xlink:href="#av"/></clipPath><linearGradient id="as" x1="-276.47" x2="-275.05" y1="364.07" y2="364.07" gradientTransform="matrix(0 46.73 -46.73 0 17100 13062)" gradientUnits="userSpaceOnUse"><stop id="cx" stop-color="#EF3A4B" offset="0"/><stop id="cy" stop-color="#F15D57" offset="1"/></linearGradient><rect id="cz" x="47.614" y="125.49" width="78.547" height="67.847" clip-path="url(#at)" fill="url(#as)"/></g><g id="da"><defs id="db"><path id="ar" d="m106.64 104.84v11.216c0 4.799-0.749 6.342-3.063 6.342l-1.518-0.177v4.439l0.143 0.028c1.237 0.261 1.747 0.366 3.295 0.366 3.973 0 7.649-1.323 7.649-10.936v-6.876h7.919v17.34h6.563v-21.743h-20.988z"/></defs><clipPath id="aq"><use id="dc" width="100%" height="100%" overflow="visible" xlink:href="#ar"/></clipPath><linearGradient id="ap" x1="-277.98" x2="-276.56" y1="368.48" y2="368.48" gradientTransform="matrix(45.185 -73.662 73.662 45.185 -14513 -36936)" gradientUnits="userSpaceOnUse"><stop id="dd" stop-color="#CECECF" offset="0"/><stop id="de" stop-color="#fff" offset=".6"/><stop id="df" stop-color="#CECECF" offset="1"/></linearGradient><polygon id="dg" points="109.05 93.449 92.157 120.99 120.64 138.46 137.53 110.92" clip-path="url(#aq)" fill="url(#ap)"/></g><g id="dh"><defs id="di"><path id="ao" d="m60.589 104.86s-6.41 6.485-7.843 7.936v-7.936h-6.58v21.729h6.58v-6.926l3.09-2.523c0.771 1.245 5.878 9.449 5.878 9.449h7.97c-0.058-0.086-8.518-12.457-9.381-13.716 0.838-0.813 8.211-8.013 8.211-8.013z"/></defs><clipPath id="an"><use id="dj" width="100%" height="100%" overflow="visible" xlink:href="#ao"/></clipPath><linearGradient id="am" x1="-277.97" x2="-276.56" y1="368.31" y2="368.31" gradientTransform="matrix(45.475 -74.135 74.135 45.475 -14636 -37191)" gradientUnits="userSpaceOnUse"><stop id="dk" stop-color="#CECECF" offset="0"/><stop id="dl" stop-color="#fff" offset=".6"/><stop id="dm" stop-color="#CECECF" offset="1"/></linearGradient><polygon id="dn" points="52.596 94.377 36.483 120.65 63.255 137.07 79.37 110.8" clip-path="url(#an)" fill="url(#am)"/></g><g id="do"><defs id="dp"><path id="al" d="m91.136 156.43s-3.156 5.006-3.843 6.097c-0.685-1.095-3.808-6.097-3.808-6.097h-8.339l7.81 10.425c-0.808 1.049-7.338 9.543-8.46 10.997l-0.219 0.284h8.328s3.564-5.499 4.305-6.63c0.734 1.131 4.297 6.63 4.297 6.63h8.35c-0.044-0.058-7.57-10.235-8.352-11.295 0.79-0.99 8.249-10.411 8.249-10.411z"/></defs><clipPath id="ak"><use id="dq" width="100%" height="100%" overflow="visible" xlink:href="#al"/></clipPath><linearGradient id="ai" x1="-277.97" x2="-276.55" y1="368.48" y2="368.48" gradientTransform="matrix(45.517 -74.203 74.203 45.517 -14618 -37207)" gradientUnits="userSpaceOnUse"><stop id="dr" stop-color="#CECECF" offset="0"/><stop id="ds" stop-color="#fff" offset=".6"/><stop id="dt" stop-color="#CECECF" offset="1"/></linearGradient><polygon id="du" points="81.188 145.16 64.604 172.2 92.644 189.4 109.23 162.36" clip-path="url(#ak)" fill="url(#ai)"/></g><g id="dv"><defs id="dw"><path id="ah" d="m87.119 80.039c-40.271 0-55.971 7.907-56.62 8.241l-0.428 0.225-9e-3 0.484c-6e-3 0.408-0.553 41.252 9.248 64.127 8.925 20.825 21.356 33.399 30.214 40.281 9.623 7.478 17.037 9.982 17.347 10.084l0.248 0.082 8e-3 4e-3 0.256-0.086c0.31-0.102 7.723-2.606 17.349-10.084 8.857-6.882 21.29-19.456 30.213-40.281 9.805-22.875 9.255-63.719 9.249-64.127l-8e-3 -0.484-0.432-0.225c-0.647-0.334-16.346-8.241-56.627-8.241z"/></defs><clipPath id="ag"><use id="dx" width="100%" height="100%" overflow="visible" xlink:href="#ah"/></clipPath><linearGradient id="af" x1="-277.46" x2="-276.04" y1="365.2" y2="365.2" gradientTransform="matrix(68.466 -57.45 -57.45 -68.466 40027 9236.8)" gradientUnits="userSpaceOnUse"><stop id="dy" stop-color="#070E16" offset="0"/><stop id="dz" stop-color="#070E16" offset=".1773"/><stop id="ea" stop-color="#1C2126" offset=".4603"/><stop id="eb" stop-color="#1E2328" offset=".4916"/><stop id="ec" stop-color="#272C30" offset=".7934"/><stop id="ed" stop-color="#272C30" offset="1"/></linearGradient><polygon id="ee" points="205.58 152.53 77.122 260.31 -31.317 131.08 97.134 23.294" clip-path="url(#ag)" fill="url(#af)"/></g><g id="ef"><defs id="eg"><path id="ae" d="m61.073 103.45h7.67l-8.014 9.149 9.089 13.505h-7.576l-5.798-8.616-2.774 3.168v5.448h-7.177v-22.654h7.177v8.246zm-23.482-10.195-0.035 0.416c-0.205 2.929-1.337 23.271 4.924 45.569h29.067l11.43-18.808-19.668-32.09c-16.516 1.524-24.215 4.317-25.718 4.913m33.214-5.471 16.082 26.364v5e-3l16.082-26.364c-4.771-0.277-10.113-0.445-16.082-0.445v-5e-3c-5.97 0-11.307 0.17-16.082 0.445"/></defs><clipPath id="ad"><use id="eh" width="100%" height="100%" overflow="visible" xlink:href="#ae"/></clipPath><linearGradient id="ac" x1="-277.85" x2="-276.44" y1="369.65" y2="369.65" gradientTransform="matrix(-16.669 45.799 45.799 16.669 -21480 6643.5)" gradientUnits="userSpaceOnUse"><stop id="ei" stop-color="#E5EAEC" offset="0"/><stop id="ej" stop-color="#8B9295" offset=".7711"/><stop id="ek" stop-color="#8B9295" offset="1"/></linearGradient><polygon id="el" points="19.539 133.17 44.027 65.884 119.65 93.409 95.163 160.69" clip-path="url(#ad)" fill="url(#ac)"/></g><g id="em"><path id="en" d="m86.884 81.302c9.158 0 17.773 0.416 25.608 1.232 6.292 0.658 12.103 1.576 17.272 2.73 7.718 1.724 11.75 3.476 12.825 3.983 0.03 3.961 0.084 41.711-9.138 63.234-8.811 20.557-21.067 32.957-29.799 39.741-8.757 6.802-15.582 9.39-16.769 9.808-1.188-0.418-8.015-3.006-16.77-9.805-8.729-6.787-20.986-19.188-29.797-39.744-9.223-21.523-9.173-59.269-9.141-63.234 1.077-0.508 5.106-2.26 12.83-3.983 5.166-1.154 10.977-2.072 17.269-2.73 7.837-0.817 16.452-1.232 25.61-1.232m0-1.362c-40.278 0-55.98 7.906-56.627 8.242l-0.43 0.224-7e-3 0.484c-9e-3 0.408-0.555 41.251 9.247 64.13 8.925 20.823 21.356 33.397 30.214 40.279 9.623 7.479 17.037 9.981 17.349 10.082l0.254 0.085 0.254-0.085c0.312-0.101 7.725-2.604 17.35-10.082 8.856-6.882 21.289-19.456 30.211-40.279 9.807-22.878 9.257-63.722 9.248-64.13l-7e-3 -0.483-0.428-0.224c-0.647-0.336-16.351-8.243-56.628-8.243" fill="#1e2328"/></g><g id="eo"><defs id="ep"><path id="ab" d="m81.525 169.21-6.629-11.273-0.049-0.069 8.016 0.052 4.025 5.62v0.083l0.033 0.042 0.028-0.038h1e-3l4.085-5.714h7.985l-0.157 0.222-6.542 11.125 6.549 11.092 0.122 0.169h-7.984l-4.087-5.704-3e-3 2e-3v-7e-3l-4.055 5.663h-7.988zm5.362-42.302-16.396 26.593h-23.005c2.832 6.499 6.432 12.887 11.003 18.788 9.444 11.638 19.285 17.729 24.546 20.413 0.025 0.012 0.048 0.026 0.071 0.035 2.382 1.214 3.775 1.76 3.775 1.76l5e-3 5e-3s0.279-0.102 0.794-0.314c3.391-1.551 6.55-3.295 9.488-5.201 4.349-2.886 9.638-7.08 14.98-12.96 6.053-6.883 10.618-14.596 14.05-22.478h-23.023l-16.289-26.641-1e-3 -2e-3v2e-3z"/></defs><clipPath id="aa"><use id="eq" width="100%" height="100%" overflow="visible" xlink:href="#ab"/></clipPath><linearGradient id="z" x1="-279.25" x2="-277.83" y1="369.86" y2="369.86" gradientTransform="matrix(-34.572 29.01 29.01 34.572 -20270 -4547.7)" gradientUnits="userSpaceOnUse"><stop id="er" stop-color="#E5EAEC" offset="0"/><stop id="es" stop-color="#E5EAEC" offset=".0195"/><stop id="et" stop-color="#8B9295" offset=".8712"/><stop id="eu" stop-color="#8B9295" offset="1"/></linearGradient><polygon id="ev" points="14.202 154.83 93.676 88.144 159.48 166.57 80.009 233.26" clip-path="url(#aa)" fill="url(#z)"/></g><g id="ew"><defs id="ex"><path id="x" d="m26.166 84.348-0.427 0.241-0.799 0.449-0.025 0.917-0.016 0.493c-0.011 0.436-1.073 43.862 9.437 68.491 9.582 22.447 23.078 35.894 32.712 43.228 10.526 8 18.747 10.639 19.095 10.747l0.257 0.081 0.487 0.153v-5.683l-0.254-0.083c-0.31-0.105-7.725-2.606-17.35-10.084-8.857-6.882-21.288-19.453-30.21-40.278-9.805-22.879-9.256-63.723-9.249-64.132l8e-3 -0.482 0.43-0.224c0.646-0.336 16.347-8.242 56.625-8.242v-5.309c-43.037 1e-3 -60.021 9.318-60.721 9.717"/></defs><clipPath id="w"><use id="ey" width="100%" height="100%" overflow="visible" xlink:href="#x"/></clipPath><linearGradient id="v" x1="-275.93" x2="-274.51" y1="365.94" y2="365.94" gradientTransform="matrix(57.397 10.121 10.121 -57.397 12150 23932)" gradientUnits="userSpaceOnUse"><stop id="ez" stop-color="#C9CED0" offset="0"/><stop id="fa" stop-color="#C9CED0" offset=".236"/><stop id="fb" stop-color="#8B9295" offset="1"/></linearGradient><polygon id="fc" points="84.986 219.93 0.821 205.09 25.727 63.847 109.89 78.687" clip-path="url(#w)" fill="url(#v)"/></g><g id="fd"><polygon id="fe" points="98.87 180.35 90.912 169.24 98.861 158.13 98.951 157.98 90.89 169.24 98.968 180.52" fill="#4a4b4d"/><path id="ff" d="m76.098 178.79 0.036-0.063 6.792-9.487-7.741-10.813-0.368-0.514 5.998-2e-3 -6.51-0.326 7.187 11.668-7.146 11.597 6.509-0.326-5.997-6e-3zm5.4-9.53-0.139 0.232 0.133-0.237z" fill="#e5eaec"/><path id="fg" d="m99.512 157.58-6.51 0.326 5.997 2e-3 -1.238 1.731-0.076 0.137-6.772 9.458 6.688 9.341 0.119 0.208 1.239 1.729-5.998 2e-3 6.509 0.329-7.146-11.596zm-7.053 11.911-0.139-0.235 3e-3 -5e-3z" fill="#8a9295"/><polygon id="fh" points="53.667 111.69 53.667 103.45 48.757 103.45 54.182 103.03" fill="#e5eaec"/><polygon id="fi" points="55.908 118.1 53.667 120.66 53.667 126.1 54.146 120.91" fill="#e5eaec"/><polygon id="fj" points="65.94 120.34 60.716 112.63 65.364 107.3 61.374 112.63" fill="#e5eaec"/><path id="fk" d="m69.305 193.35c-0.126-0.099-0.26-0.202-0.388-0.302 4e-3 3e-3 7e-3 6e-3 7e-3 6e-3 0.122 0.098 0.248 0.196 0.381 0.296" fill="#838789"/><path id="fl" d="m68.917 193.05c-0.067-0.053-0.133-0.103-0.197-0.155 0.067 0.056 0.134 0.107 0.206 0.163-1e-3 0-6e-3 -5e-3 -9e-3 -8e-3" fill="#838789"/></g><g id="fm"><defs id="fn"><path id="u" d="m102 121.58c1.951-0.263 3.595-1.498 4.427-3.2l1e-3 -2e-3c0.02-0.037 0.031-0.067 0.045-0.098 0.622-1.312 0.708-2.769 0.708-3.466v-11.703h19.966v22.983h-7.262v-17.189h-5.445v5.975c-0.353 11.551-9.426 11.648-9.426 11.648zm-11.288-1.144 11.481 18.808h29.068c6.26-22.298 5.127-42.641 4.921-45.569l-0.035-0.416c-1.502-0.603-9.232-3.399-25.813-4.921zm-3.827-41.9c-24.817 1.1-33.35 3.603-33.35 3.603 8.542-1.269 19.651-2.189 33.452-2.193 40.204 0.012 55.878 7.906 56.527 8.242l0.427 0.224 9e-3 0.482c7e-3 0.409 0.558 41.252-9.247 64.132-8.924 20.825-21.354 33.396-30.21 40.278-9.626 7.478-17.039 9.979-17.354 10.084l-0.253 0.083v0.019l-0.233-0.077c-0.312-0.104-7.727-2.595-17.351-10.034-0.129-0.101-0.258-0.2-0.377-0.296 0.119 0.113 0.25 0.225 0.366 0.352 5.783 6.371 17.065 11.326 17.368 11.433l0.227 0.075v4.212l0.485-0.153 0.261-0.081c0.343-0.108 8.569-2.747 19.093-10.747 9.636-7.334 23.132-20.78 32.713-43.228 10.513-24.633 9.446-68.055 9.436-68.491l-0.015-0.493-0.026-0.917-0.798-0.449-0.427-0.241c-0.699-0.398-17.681-9.716-60.723-9.716z"/></defs><clipPath id="t"><use id="fo" width="100%" height="100%" overflow="visible" xlink:href="#u"/></clipPath><linearGradient id="s" x1="-276.17" x2="-274.75" y1="365.8" y2="365.8" gradientTransform="matrix(67.329 0 0 -67.329 18648 24771)" gradientUnits="userSpaceOnUse"><stop id="fp" stop-color="#D7D8DA" offset="0"/><stop id="fq" stop-color="#D7D8DA" offset=".4521"/><stop id="fr" stop-color="#8B9295" offset=".9364"/><stop id="fs" stop-color="#8B9295" offset="1"/></linearGradient><rect id="ft" x="53.537" y="74.632" width="96.416" height="134.52" clip-path="url(#t)" fill="url(#s)"/></g><g id="fu"><path id="fv" d="m135.66 153.04c10.379-26.86 8.236-64.208 8.227-64.618l9e-3 0.483c7e-3 0.412 0.554 41.257-9.246 64.135-8.926 20.822-21.356 33.396-30.215 40.278-4.102 3.185-7.802 5.467-10.722 7.048 2.992-1.581 6.784-3.863 10.986-7.048 9.078-6.881 22.763-19.063 30.961-40.278" fill="#e5eaec"/><polygon id="fw" points="127.64 126.61 122.8 126.09 127.15 126.09 127.15 103.11 118.24 103.11 127.64 102.6" fill="#e5eaec"/><polygon id="fx" points="63.312 88.434 82.983 120.43 71.558 139.27 81.13 120.43" fill="#e5eaec"/><polygon id="fy" points="70.841 87.829 86.92 114.21 86.92 111.04" fill="#8a9295"/><polygon id="fz" points="70.688 153.21 86.92 126.84 86.92 130.01" fill="#8a9295"/><polygon id="ga" points="103 153.21 86.92 126.84 86.92 130.01" fill="#e5eaec"/><polygon id="gb" points="110.32 88.409 90.701 120.43 102.21 139.27 92.552 120.43" fill="#8a9295"/><polygon id="gc" points="102.99 87.848 86.914 114.21 86.914 111.04" fill="#e5eaec"/></g><g id="gd"><defs id="ge"><polygon id="r" points="182.8 128.44 182.8 161.77 196.48 161.77 196.48 128.44 210.43 128.44 210.43 117.51 168.86 117.51 168.86 128.44"/></defs><clipPath id="q"><use id="gf" width="100%" height="100%" overflow="visible" xlink:href="#r"/></clipPath><linearGradient id="p" x1="-280.81" x2="-279.39" y1="362.67" y2="362.67" gradientTransform="matrix(-5.9308 -33.635 -33.635 5.9308 10727 -11434)" gradientUnits="userSpaceOnUse"><stop id="gg" stop-color="#070E16" offset="0"/><stop id="gh" stop-color="#070E16" offset=".1773"/><stop id="gi" stop-color="#1C2126" offset=".4603"/><stop id="gj" stop-color="#1E2328" offset=".4916"/><stop id="gk" stop-color="#272C30" offset=".7934"/><stop id="gl" stop-color="#272C30" offset="1"/></linearGradient><polygon id="gm" points="209.18 110.4 218 160.43 170.11 168.88 161.29 118.84" clip-path="url(#q)" fill="url(#p)"/></g><g id="gn"><defs id="go"><path id="o" d="m231.33 143.29h6.944c2.393 0 4.067 0.399 5.028 1.193 0.954 0.795 1.433 1.847 1.433 3.153 0 1.409-0.484 2.532-1.448 3.366-0.967 0.836-2.629 1.254-4.984 1.254h-6.973zm0-16.815h6.037c2.073 0 3.527 0.362 4.362 1.088 0.835 0.724 1.253 1.729 1.253 3.018 0 1.389-0.418 2.45-1.253 3.184s-2.318 1.102-4.451 1.102h-5.948zm-13.792-8.967v44.257h23.604c1.007 0 3.049-0.2 6.128-0.604 2.315-0.303 4.045-0.785 5.192-1.45 1.852-1.064 3.31-2.514 4.377-4.346 1.069-1.831 1.6-3.896 1.6-6.188 0-2.818-0.751-5.158-2.249-7.018-1.499-1.861-3.838-3.176-7.017-3.94 2.091-0.725 3.682-1.71 4.771-2.959 1.629-1.871 2.442-4.114 2.442-6.73 0-3.121-1.142-5.738-3.426-7.85-2.285-2.114-5.56-3.17-9.825-3.17h-25.597z"/></defs><clipPath id="m"><use id="gp" width="100%" height="100%" overflow="visible" xlink:href="#o"/></clipPath><linearGradient id="l" x1="-280.91" x2="-279.49" y1="362.12" y2="362.12" gradientTransform="matrix(-5.9065 -33.497 -33.497 5.9065 10713 -11386)" gradientUnits="userSpaceOnUse"><stop id="gq" stop-color="#070E16" offset="0"/><stop id="gr" stop-color="#070E16" offset=".1773"/><stop id="gs" stop-color="#1C2126" offset=".4603"/><stop id="gt" stop-color="#1E2328" offset=".4916"/><stop id="gu" stop-color="#272C30" offset=".7934"/><stop id="gv" stop-color="#272C30" offset="1"/></linearGradient><polygon id="gw" points="257.2 110.52 266 160.43 218.76 168.76 209.96 118.84" clip-path="url(#m)" fill="url(#l)"/></g><g id="gx"><defs id="gy"><polygon id="k" points="182.8 127.27 182.8 160.6 196.48 160.6 196.48 127.27 210.43 127.27 210.43 116.35 168.86 116.35 168.86 127.27"/></defs><clipPath id="j"><use id="gz" width="100%" height="100%" overflow="visible" xlink:href="#k"/></clipPath><linearGradient id="i" x1="-274.91" x2="-273.49" y1="362.53" y2="362.53" gradientTransform="matrix(28.154 -16.254 -16.254 -28.154 13807 5885)" gradientUnits="userSpaceOnUse"><stop id="ha" stop-color="#070E16" offset="0"/><stop id="hb" stop-color="#070E16" offset=".1773"/><stop id="hc" stop-color="#1C2126" offset=".4603"/><stop id="hd" stop-color="#1E2328" offset=".4916"/><stop id="he" stop-color="#272C30" offset=".7934"/><stop id="hf" stop-color="#272C30" offset="1"/></linearGradient><polygon id="hg" points="229.59 149.54 179.25 178.6 149.7 127.41 200.04 98.346" clip-path="url(#j)" fill="url(#i)"/></g><g id="hh"><defs id="hi"><path id="h" d="m231.33 142.13h6.944c2.393 0 4.067 0.396 5.028 1.192 0.954 0.794 1.433 1.846 1.433 3.155 0 1.408-0.484 2.531-1.448 3.363-0.967 0.839-2.629 1.256-4.984 1.256h-6.973zm0-16.817h6.037c2.073 0 3.527 0.362 4.362 1.087s1.253 1.732 1.253 3.019c0 1.388-0.418 2.452-1.253 3.186-0.835 0.735-2.318 1.102-4.451 1.102h-5.948zm-13.792-8.964v44.255h23.604c1.007 0 3.049-0.201 6.128-0.604 2.315-0.303 4.045-0.784 5.192-1.449 1.852-1.066 3.31-2.517 4.377-4.348 1.069-1.829 1.6-3.894 1.6-6.188 0-2.815-0.751-5.158-2.249-7.019-1.499-1.862-3.838-3.177-7.017-3.94 2.091-0.724 3.682-1.713 4.771-2.959 1.629-1.872 2.442-4.115 2.442-6.732 0-3.117-1.142-5.735-3.426-7.849-2.285-2.11-5.56-3.168-9.825-3.168h-25.597z"/></defs><clipPath id="g"><use id="hj" width="100%" height="100%" overflow="visible" xlink:href="#h"/></clipPath><linearGradient id="f" x1="-274.99" x2="-273.58" y1="362.84" y2="362.84" gradientTransform="matrix(31.63 -18.262 -18.262 -31.63 15537 6607.8)" gradientUnits="userSpaceOnUse"><stop id="hk" stop-color="#070E16" offset="0"/><stop id="hl" stop-color="#070E16" offset=".1773"/><stop id="hm" stop-color="#1C2126" offset=".4603"/><stop id="hn" stop-color="#1E2328" offset=".4916"/><stop id="ho" stop-color="#272C30" offset=".7934"/><stop id="hp" stop-color="#272C30" offset="1"/></linearGradient><polygon id="hq" points="277.6 149.54 227.76 178.32 198.37 127.41 248.21 98.635" clip-path="url(#g)" fill="url(#f)"/></g></g></g></svg>
