<?xml version="1.0" encoding="UTF-8"?>
<!-- Generator: Adobe Illustrator 16.0.0, SVG Export Plug-In . SVG Version: 6.00 Build 0)  -->
<svg id="svg469" width="233.68" height="130.1" enable-background="new 0 0 283.464 283.464" version="1.1" viewBox="0 0 233.68 130.1" xml:space="preserve" xmlns="http://www.w3.org/2000/svg" xmlns:cc="http://creativecommons.org/ns#" xmlns:dc="http://purl.org/dc/elements/1.1/" xmlns:rdf="http://www.w3.org/1999/02/22-rdf-syntax-ns#" xmlns:xlink="http://www.w3.org/1999/xlink"><metadata id="metadata475"><rdf:RDF><cc:Work rdf:about=""><dc:format>image/svg+xml</dc:format><dc:type rdf:resource="http://purl.org/dc/dcmitype/StillImage"/><dc:title/></cc:Work></rdf:RDF></metadata><g id="Logo" transform="translate(-24.723 -76.68)"><g id="g465"><g id="g17"><defs id="defs3"><path id="SVGID_1_" d="m24.76 86.72s-1.105 42.999 9.392 67.467c18.272 42.6 50.563 52.43 50.563 52.43s32.29-9.83 50.56-52.43c10.496-24.468 9.394-67.467 9.394-67.467s-16.747-9.871-59.954-9.871c-43.211 0-59.955 9.871-59.955 9.871"/></defs><clipPath id="SVGID_2_"><use id="use5" width="100%" height="100%" overflow="visible" xlink:href="#SVGID_1_"/></clipPath><linearGradient id="SVGID_3_" x1="-276.53" x2="-275.16" y1="367.53" y2="367.53" gradientTransform="matrix(45.664 -72.613 72.613 45.664 -14003 -36678)" gradientUnits="userSpaceOnUse"><stop id="stop8" stop-color="#CECECF" offset="0"/><stop id="stop10" stop-color="#fff" offset=".6"/><stop id="stop12" stop-color="#CECECF" offset="1"/></linearGradient><polygon id="polygon15" points="58.264 21.818 -34.824 169.84 111.16 261.65 204.25 113.62" clip-path="url(#SVGID_2_)" fill="url(#SVGID_3_)"/></g><g id="g32"><defs id="defs20"><path id="SVGID_4_" d="m83.903 80.16c-38.143 0.109-54.267 8.172-55.563 8.854-0.049 2.263-0.77 41.587 8.769 63.93 8.882 20.816 21.365 33.263 30.272 40.045 9.241 7.03 16.649 9.58 17.334 9.808 0.681-0.228 8.078-2.77 17.315-9.795 8.91-6.783 21.404-19.233 30.288-40.058 9.536-22.34 8.816-61.667 8.769-63.93-1.297-0.682-17.409-8.745-55.56-8.854z"/></defs><clipPath id="SVGID_5_"><use id="use22" width="100%" height="100%" overflow="visible" xlink:href="#SVGID_4_"/></clipPath><linearGradient id="SVGID_6_" x1="-276.35" x2="-274.98" y1="369.4" y2="369.4" gradientTransform="matrix(0 -47.479 47.479 0 -17454 -12967)" gradientUnits="userSpaceOnUse"><stop id="stop25" stop-color="#1253A5" offset="0"/><stop id="stop27" stop-color="#0091D5" offset="1"/></linearGradient><rect id="rect30" x="27.569" y="80.16" width="114.28" height="122.64" clip-path="url(#SVGID_5_)" fill="url(#SVGID_6_)"/></g><g id="g49"><defs id="defs35"><path id="SVGID_7_" d="m31.17 91.171-0.09 0.047v0.103c-8e-3 0.388-0.525 39.074 8.743 60.696 8.428 19.675 20.167 31.548 28.527 38.047 9.067 7.04 16.239 9.457 16.308 9.486l0.057 0.018 0.051-0.018c0.071-0.029 7.244-2.446 16.308-9.486 8.362-6.499 20.102-18.372 28.53-38.047 9.268-21.623 8.75-60.308 8.743-60.696l-3e-3 -0.103-0.092-0.047c-0.149-0.075-15.408-7.763-53.537-7.763-38.133 0-53.39 7.688-53.545 7.763"/></defs><clipPath id="SVGID_8_"><use id="use37" width="100%" height="100%" overflow="visible" xlink:href="#SVGID_7_"/></clipPath><linearGradient id="SVGID_9_" x1="-276.22" x2="-274.85" y1="367.69" y2="367.69" gradientTransform="matrix(38.288 -60.81 60.81 38.288 -11721 -30698)" gradientUnits="userSpaceOnUse"><stop id="stop40" stop-color="#CECECF" offset="0"/><stop id="stop42" stop-color="#fff" offset=".6"/><stop id="stop44" stop-color="#CECECF" offset="1"/></linearGradient><polygon id="polygon47" points="61.304 34.567 -21.822 166.59 108.12 248.41 191.25 116.38" clip-path="url(#SVGID_8_)" fill="url(#SVGID_9_)"/></g><g id="g64"><defs id="defs52"><path id="SVGID_10_" d="m69.725 90.414 14.99 24.571 14.985-24.571c-4.761-0.268-9.802-0.401-14.985-0.401-5.189-1e-3 -10.228 0.133-14.99 0.401"/></defs><clipPath id="SVGID_11_"><use id="use54" width="100%" height="100%" overflow="visible" xlink:href="#SVGID_10_"/></clipPath><linearGradient id="SVGID_12_" x1="-276.34" x2="-274.97" y1="369.41" y2="369.41" gradientTransform="matrix(0 -47.473 47.473 0 -17453 -12965)" gradientUnits="userSpaceOnUse"><stop id="stop57" stop-color="#1253A5" offset="0"/><stop id="stop59" stop-color="#0091D5" offset="1"/></linearGradient><rect id="rect62" x="69.725" y="90.012" width="29.975" height="24.973" clip-path="url(#SVGID_11_)" fill="url(#SVGID_12_)"/></g><g id="g79"><defs id="defs67"><path id="SVGID_13_" d="m88.032 120.43 11.323 18.558h28.365c4.453-18.273 3.953-41.507 3.907-43.306-0.931-0.384-8.522-3.334-25.564-4.817z"/></defs><clipPath id="SVGID_14_"><use id="use69" width="100%" height="100%" overflow="visible" xlink:href="#SVGID_13_"/></clipPath><linearGradient id="SVGID_15_" x1="-276.34" x2="-274.97" y1="369.55" y2="369.55" gradientTransform="matrix(0 -47.48 47.48 0 -17436 -12967)" gradientUnits="userSpaceOnUse"><stop id="stop72" stop-color="#1253A5" offset="0"/><stop id="stop74" stop-color="#0091D5" offset="1"/></linearGradient><rect id="rect77" x="88.032" y="90.866" width="44.142" height="48.123" clip-path="url(#SVGID_14_)" fill="url(#SVGID_15_)"/></g><g id="g94"><defs id="defs82"><path id="SVGID_16_" d="m37.799 95.683c-0.047 1.802-0.543 25.033 3.904 43.306h28.367l11.323-18.558-18.03-29.565c-17.032 1.479-24.632 4.432-25.564 4.817"/></defs><clipPath id="SVGID_17_"><use id="use84" width="100%" height="100%" overflow="visible" xlink:href="#SVGID_16_"/></clipPath><linearGradient id="SVGID_18_" x1="-276.34" x2="-274.97" y1="369.26" y2="369.26" gradientTransform="matrix(0 -47.48 47.48 0 -17473 -12967)" gradientUnits="userSpaceOnUse"><stop id="stop87" stop-color="#1253A5" offset="0"/><stop id="stop89" stop-color="#0091D5" offset="1"/></linearGradient><rect id="rect92" x="37.256" y="90.866" width="44.137" height="48.123" clip-path="url(#SVGID_17_)" fill="url(#SVGID_18_)"/></g><g id="g109"><defs id="defs97"><path id="SVGID_19_" d="m70.381 149.36c-0.046 0.076-1.175 1.769-2.038 2.622-0.844 0.83-1.968 0.952-2.561 0.952-0.17 0-0.277-0.014-0.277-0.014h-18.776c7.556 15.628 17.46 25.273 24.458 30.621 7.219 5.518 12.902 7.718 13.529 7.946 0.623-0.229 6.296-2.423 13.512-7.934 7.001-5.354 16.911-15.004 24.471-30.634h-18.759s-0.111 0.014-0.296 0.014c-0.596 0-1.718-0.122-2.562-0.952-0.863-0.854-1.991-2.546-2.04-2.622l-14.327-23.494z"/></defs><clipPath id="SVGID_20_"><use id="use99" width="100%" height="100%" overflow="visible" xlink:href="#SVGID_19_"/></clipPath><linearGradient id="SVGID_21_" x1="-279.57" x2="-278.2" y1="364.12" y2="364.12" gradientTransform="matrix(0 46.73 -46.73 0 17100 13206)" gradientUnits="userSpaceOnUse"><stop id="stop102" stop-color="#EF3A4B" offset="0"/><stop id="stop104" stop-color="#F15D57" offset="1"/></linearGradient><rect id="rect107" x="46.729" y="125.87" width="75.97" height="65.622" clip-path="url(#SVGID_20_)" fill="url(#SVGID_21_)"/></g><g id="g126"><defs id="defs112"><path id="SVGID_22_" d="m103.82 105.9v10.849c0 4.642-0.725 6.133-2.962 6.134l-1.468-0.172v4.298l0.139 0.026c1.195 0.251 1.69 0.352 3.186 0.352 3.843 0 7.398-1.282 7.398-10.576v-6.652h7.659v16.774h6.346v-21.031l-3e-3 -1e-3h-20.295z"/></defs><clipPath id="SVGID_23_"><use id="use114" width="100%" height="100%" overflow="visible" xlink:href="#SVGID_22_"/></clipPath><linearGradient id="SVGID_24_" x1="-276.54" x2="-275.17" y1="367.58" y2="367.58" gradientTransform="matrix(45.185 -73.662 73.662 45.185 -14513 -36791)" gradientUnits="userSpaceOnUse"><stop id="stop117" stop-color="#CECECF" offset="0"/><stop id="stop119" stop-color="#fff" offset=".6"/><stop id="stop121" stop-color="#CECECF" offset="1"/></linearGradient><polygon id="polygon124" points="106.14 94.88 89.81 121.51 117.35 138.41 133.69 111.78" clip-path="url(#SVGID_23_)" fill="url(#SVGID_24_)"/></g><g id="g143"><defs id="defs129"><path id="SVGID_25_" d="m59.277 105.92s-6.199 6.271-7.584 7.674v-7.674h-6.365v21.016h6.365v-6.702l2.987-2.439c0.745 1.205 5.684 9.141 5.684 9.141h7.71c-0.069-0.105-8.238-12.049-9.074-13.268 0.81-0.786 7.942-7.749 7.942-7.749h-7.665z"/></defs><clipPath id="SVGID_26_"><use id="use131" width="100%" height="100%" overflow="visible" xlink:href="#SVGID_25_"/></clipPath><linearGradient id="SVGID_27_" x1="-276.55" x2="-275.18" y1="367.43" y2="367.43" gradientTransform="matrix(45.475 -74.135 74.135 45.475 -14636 -37047)" gradientUnits="userSpaceOnUse"><stop id="stop134" stop-color="#CECECF" offset="0"/><stop id="stop136" stop-color="#fff" offset=".6"/><stop id="stop138" stop-color="#CECECF" offset="1"/></linearGradient><polygon id="polygon141" points="51.545 95.78 35.96 121.19 61.855 137.07 77.44 111.66" clip-path="url(#SVGID_26_)" fill="url(#SVGID_27_)"/></g><g id="g160"><defs id="defs146"><path id="SVGID_28_" d="m88.821 155.79s-3.051 4.839-3.716 5.895c-0.663-1.061-3.684-5.895-3.684-5.895h-8.065l7.554 10.083c-0.781 1.013-7.097 9.229-8.183 10.636l-0.211 0.274h8.055s3.448-5.319 4.163-6.413c0.71 1.094 4.156 6.413 4.156 6.413h8.075c-0.043-0.06-7.322-9.899-8.077-10.925 0.763-0.96 7.979-10.068 7.979-10.068z"/></defs><clipPath id="SVGID_29_"><use id="use148" width="100%" height="100%" overflow="visible" xlink:href="#SVGID_28_"/></clipPath><linearGradient id="SVGID_30_" x1="-276.54" x2="-275.17" y1="367.58" y2="367.58" gradientTransform="matrix(45.517 -74.203 74.203 45.517 -14618 -37062)" gradientUnits="userSpaceOnUse"><stop id="stop151" stop-color="#CECECF" offset="0"/><stop id="stop153" stop-color="#fff" offset=".6"/><stop id="stop155" stop-color="#CECECF" offset="1"/></linearGradient><polygon id="polygon158" points="79.199 144.89 63.159 171.04 90.28 187.68 106.32 161.53" clip-path="url(#SVGID_29_)" fill="url(#SVGID_30_)"/></g><g id="g183"><defs id="defs163"><path id="SVGID_31_" d="m84.935 81.909c-38.948 0-54.132 7.649-54.759 7.974l-0.415 0.215-9e-3 0.47c-6e-3 0.392-0.535 39.899 8.944 62.021 8.633 20.143 20.654 32.302 29.223 38.957 9.307 7.232 16.477 9.655 16.777 9.756l0.239 0.077 8e-3 4e-3 0.247-0.081c0.3-0.101 7.47-2.523 16.781-9.756 8.564-6.655 20.589-18.814 29.221-38.957 9.481-22.122 8.951-61.629 8.942-62.021l-7e-3 -0.47-0.417-0.215c-0.625-0.325-15.808-7.974-54.767-7.974z"/></defs><clipPath id="SVGID_32_"><use id="use165" width="100%" height="100%" overflow="visible" xlink:href="#SVGID_31_"/></clipPath><linearGradient id="SVGID_33_" x1="-276.42" x2="-275.05" y1="366.45" y2="366.45" gradientTransform="matrix(68.466 -57.45 -57.45 -68.466 40027 9381.5)" gradientUnits="userSpaceOnUse"><stop id="stop168" stop-color="#070E16" offset="0"/><stop id="stop170" stop-color="#070E16" offset=".1773"/><stop id="stop172" stop-color="#1C2126" offset=".4603"/><stop id="stop174" stop-color="#1E2328" offset=".4916"/><stop id="stop176" stop-color="#272C30" offset=".7934"/><stop id="stop178" stop-color="#272C30" offset="1"/></linearGradient><polygon id="polygon181" points="199.5 152.02 75.268 256.26 -29.611 131.27 94.621 27.029" clip-path="url(#SVGID_32_)" fill="url(#SVGID_33_)"/></g><g id="g200"><defs id="defs186"><path id="SVGID_34_" d="m59.744 104.55h7.42l-7.751 8.849 8.788 13.061h-7.325l-5.608-8.334-2.685 3.066v5.268h-6.941v-21.91h6.941v7.974zm-22.71-9.86-0.033 0.398c-0.199 2.836-1.294 22.512 4.761 44.075h28.115l11.054-18.191-19.022-31.035c-15.975 1.472-23.423 4.174-24.875 4.753m32.124-5.293 15.555 25.498v2e-3l15.554-25.497c-4.615-0.268-9.782-0.429-15.554-0.429v-5e-3c-5.775 0-10.937 0.164-15.555 0.431"/></defs><clipPath id="SVGID_35_"><use id="use188" width="100%" height="100%" overflow="visible" xlink:href="#SVGID_34_"/></clipPath><linearGradient id="SVGID_36_" x1="-280.59" x2="-279.22" y1="368.61" y2="368.61" gradientTransform="matrix(-16.669 45.799 45.799 16.669 -21480 6788.2)" gradientUnits="userSpaceOnUse"><stop id="stop191" stop-color="#E5EAEC" offset="0"/><stop id="stop193" stop-color="#8B9295" offset=".7711"/><stop id="stop195" stop-color="#8B9295" offset="1"/></linearGradient><polygon id="polygon198" points="19.575 133.3 43.259 68.221 116.4 94.843 92.715 159.92" clip-path="url(#SVGID_35_)" fill="url(#SVGID_36_)"/></g><g id="g204"><path id="path202" d="m84.709 83.133c8.856 0 17.189 0.401 24.768 1.192 6.085 0.635 11.705 1.523 16.705 2.64 7.467 1.666 11.364 3.361 12.406 3.853 0.029 3.833 0.08 40.342-8.839 61.159-8.522 19.88-20.375 31.878-28.821 38.438-8.469 6.579-15.07 9.079-16.218 9.484-1.15-0.405-7.752-2.905-16.22-9.484-8.442-6.56-20.297-18.558-28.817-38.438-8.921-20.817-8.873-57.324-8.841-61.159 1.041-0.492 4.938-2.187 12.408-3.853 4.996-1.116 10.617-2.004 16.703-2.64 7.577-0.79 15.909-1.192 24.766-1.192m0-1.319c-38.957 0-54.143 7.648-54.769 7.973l-0.415 0.215-9e-3 0.469c-8e-3 0.396-0.537 39.898 8.944 62.023 8.629 20.14 20.655 32.301 29.221 38.958 9.307 7.231 16.478 9.652 16.78 9.754l0.247 0.082 0.246-0.082c0.302-0.102 7.472-2.522 16.78-9.754 8.565-6.657 20.592-18.818 29.221-38.958 9.482-22.125 8.952-61.627 8.943-62.023l-5e-3 -0.469-0.417-0.215c-0.624-0.324-15.812-7.973-54.767-7.973" fill="#1e2328"/></g><g id="g223"><defs id="defs207"><path id="SVGID_37_" d="m79.526 168.15-6.412-10.904-0.047-0.065 7.751 0.047 3.895 5.438v0.08l0.031 0.041 0.027-0.039h1e-3l3.951-5.524h7.723l-0.15 0.214-6.329 10.764 6.335 10.727 0.118 0.164h-7.722l-3.953-5.52-2e-3 3e-3v-6e-3l-3.924 5.476h-7.725zm5.186-40.914-15.858 25.721h-22.248c2.737 6.288 6.219 12.466 10.641 18.175 9.134 11.254 18.651 17.143 23.741 19.742 0.024 0.01 0.045 0.02 0.069 0.03 2.303 1.174 3.65 1.704 3.65 1.704h6e-3s0.27-0.095 0.768-0.297c3.279-1.502 6.333-3.189 9.177-5.035 4.206-2.79 9.321-6.847 14.489-12.532 5.854-6.658 10.27-14.119 13.588-21.741h-22.265l-15.758-25.767v-1e-3z"/></defs><clipPath id="SVGID_38_"><use id="use209" width="100%" height="100%" overflow="visible" xlink:href="#SVGID_37_"/></clipPath><linearGradient id="SVGID_39_" x1="-281.26" x2="-279.89" y1="367.36" y2="367.36" gradientTransform="matrix(-34.572 29.01 29.01 34.572 -20270 -4402.9)" gradientUnits="userSpaceOnUse"><stop id="stop212" stop-color="#E5EAEC" offset="0"/><stop id="stop214" stop-color="#E5EAEC" offset=".0195"/><stop id="stop216" stop-color="#8B9295" offset=".8712"/><stop id="stop218" stop-color="#8B9295" offset="1"/></linearGradient><polygon id="polygon221" points="14.414 154.25 91.278 89.749 154.93 165.6 78.06 230.1" clip-path="url(#SVGID_38_)" fill="url(#SVGID_39_)"/></g><g id="g240"><defs id="defs226"><path id="SVGID_40_" d="m25.984 86.078-0.415 0.234-0.771 0.435-0.025 0.885-0.016 0.479c-0.011 0.42-1.037 42.422 9.127 66.241 9.268 21.711 22.322 34.718 31.639 41.808 10.18 7.742 18.131 10.29 18.468 10.396l0.25 0.078 0.471 0.149v-5.495l-0.247-0.082c-0.299-0.102-7.471-2.52-16.779-9.754-8.566-6.657-20.589-18.818-29.219-38.956-9.482-22.127-8.952-61.631-8.945-62.025l7e-3 -0.468 0.417-0.217c0.624-0.323 15.811-7.972 54.767-7.972v-5.134c-41.624 1e-3 -58.052 9.015-58.729 9.398"/></defs><clipPath id="SVGID_41_"><use id="use228" width="100%" height="100%" overflow="visible" xlink:href="#SVGID_40_"/></clipPath><linearGradient id="SVGID_42_" x1="-276.36" x2="-274.99" y1="368.39" y2="368.39" gradientTransform="matrix(57.397 10.121 10.121 -57.397 12150 24076)" gradientUnits="userSpaceOnUse"><stop id="stop231" stop-color="#C9CED0" offset="0"/><stop id="stop233" stop-color="#C9CED0" offset=".236"/><stop id="stop235" stop-color="#8B9295" offset="1"/></linearGradient><polygon id="polygon238" points="82.873 217.21 1.471 202.86 25.56 66.252 106.96 80.605" clip-path="url(#SVGID_41_)" fill="url(#SVGID_42_)"/></g><g id="g258"><polygon id="polygon242" points="96.302 178.92 88.605 168.18 96.292 157.44 96.379 157.29 88.584 168.18 96.396 179.09" fill="#4a4b4d"/><path id="path244" d="m74.276 177.41 0.036-0.06 6.568-9.172-7.487-10.462-0.356-0.494h5.801l-6.295-0.316 6.951 11.285-6.911 11.215 6.295-0.317-5.799-2e-3zm5.223-9.212-0.133 0.222 0.128-0.227z" fill="#e5eaec"/><path id="path246" d="m96.921 156.91-6.296 0.314 5.801 2e-3 -1.197 1.674-0.075 0.13-6.548 9.152 6.467 9.033 0.115 0.198 1.198 1.677-5.801 2e-3 6.296 0.317-6.912-11.215zm-6.819 11.518-0.135-0.227 2e-3 -5e-3z" fill="#8a9295"/><polygon id="polygon248" points="52.583 112.52 52.583 104.55 47.833 104.55 53.079 104.14" fill="#e5eaec"/><polygon id="polygon250" points="54.751 118.72 52.583 121.19 52.583 126.46 53.046 121.44" fill="#e5eaec"/><polygon id="polygon252" points="64.452 120.89 59.4 113.43 63.896 108.28 60.036 113.43" fill="#e5eaec"/><path id="path254" d="m67.708 191.5c-0.124-0.099-0.251-0.196-0.376-0.295 3e-3 3e-3 6e-3 7e-3 6e-3 7e-3 0.12 0.094 0.241 0.19 0.37 0.288" fill="#838789"/><path id="path256" d="m67.331 191.21c-0.063-0.05-0.13-0.1-0.19-0.153 0.063 0.057 0.129 0.106 0.2 0.163l-0.01-0.01" fill="#838789"/></g><g id="g277"><defs id="defs261"><path id="SVGID_43_" d="m99.331 122.08c1.887-0.256 3.478-1.45 4.282-3.097l1e-3 -2e-3c0.016-0.033 0.029-0.064 0.043-0.091 0.602-1.271 0.685-2.683 0.685-3.354v-11.319h19.309v22.229h-7.021v-16.625h-5.266v5.779c-0.34 11.17-9.116 11.269-9.116 11.269zm-10.917-1.109 11.104 18.191h28.113c6.055-21.563 4.961-41.238 4.761-44.075l-0.033-0.398c-1.454-0.582-8.929-3.292-24.966-4.761zm-3.702-40.524c-24.002 1.064-32.256 3.487-32.256 3.487 8.262-1.229 19.006-2.121 32.354-2.124 38.883 0.014 54.043 7.648 54.669 7.972l0.415 0.217 8e-3 0.468c7e-3 0.395 0.537 39.898-8.944 62.025-8.63 20.138-20.654 32.299-29.218 38.956-9.311 7.234-16.481 9.652-16.784 9.754l-0.245 0.082v0.014l-0.225-0.072c-0.303-0.101-7.475-2.511-16.782-9.706-0.125-0.097-0.25-0.193-0.365-0.286 0.116 0.108 0.241 0.218 0.354 0.343 5.592 6.159 16.504 10.951 16.797 11.052l0.22 0.078v4.073l0.469-0.149 0.253-0.078c0.332-0.106 8.287-2.654 18.465-10.396 9.32-7.09 22.372-20.097 31.639-41.808 10.167-23.821 9.139-65.821 9.125-66.241l-0.013-0.479-0.025-0.885-0.774-0.435-0.411-0.234c-0.678-0.383-17.099-9.397-58.729-9.397v3.769z"/></defs><clipPath id="SVGID_44_"><use id="use263" width="100%" height="100%" overflow="visible" xlink:href="#SVGID_43_"/></clipPath><linearGradient id="SVGID_45_" x1="-276.18" x2="-274.81" y1="367.95" y2="367.95" gradientTransform="matrix(67.329 0 0 -67.329 18648 24915)" gradientUnits="userSpaceOnUse"><stop id="stop266" stop-color="#D7D8DA" offset="0"/><stop id="stop268" stop-color="#D7D8DA" offset=".4521"/><stop id="stop270" stop-color="#8B9295" offset=".9364"/><stop id="stop272" stop-color="#8B9295" offset="1"/></linearGradient><rect id="rect275" x="52.457" y="76.681" width="93.25" height="130.1" clip-path="url(#SVGID_44_)" fill="url(#SVGID_45_)"/></g><g id="g295"><path id="path279" d="m131.88 152.52c10.041-25.979 7.965-62.1 7.958-62.498l9e-3 0.47c6e-3 0.396 0.536 39.901-8.944 62.028-8.633 20.139-20.654 32.299-29.222 38.955-3.966 3.081-7.545 5.289-10.37 6.816 2.894-1.527 6.561-3.735 10.625-6.816 8.78-6.656 22.016-18.44 29.944-38.955" fill="#e5eaec"/><polygon id="polygon281" points="124.13 126.95 119.45 126.45 123.65 126.45 123.65 104.22 115.03 104.22 124.13 103.73" fill="#e5eaec"/><polygon id="polygon283" points="61.912 90.03 80.936 120.98 69.886 139.2 79.143 120.98" fill="#e5eaec"/><polygon id="polygon285" points="69.193 89.445 84.744 114.96 84.744 111.9" fill="#8a9295"/><polygon id="polygon287" points="69.044 152.68 84.744 127.18 84.744 130.25" fill="#8a9295"/><polygon id="polygon289" points="100.3 152.68 84.744 127.18 84.744 130.25" fill="#e5eaec"/><polygon id="polygon291" points="107.38 90.007 88.401 120.98 99.529 139.2 90.19 120.98" fill="#8a9295"/><polygon id="polygon293" points="100.29 89.463 84.738 114.96 84.738 111.9" fill="#e5eaec"/></g><g id="g322"><defs id="defs298"><path id="SVGID_46_" d="m174.89 111.12c-5.734 0-10.382 4.649-10.382 10.382v34.973c0 5.737 4.647 10.384 10.382 10.384h73.133c5.734 0 10.383-4.646 10.383-10.384v-34.973c0-5.733-4.648-10.382-10.383-10.382z"/></defs><clipPath id="SVGID_47_"><use id="use300" width="100%" height="100%" overflow="visible" xlink:href="#SVGID_46_"/></clipPath><linearGradient id="SVGID_48_" x1="-276.16" x2="-274.79" y1="362.88" y2="362.88" gradientTransform="matrix(0 -40.685 -40.685 0 14975 -11069)" gradientUnits="userSpaceOnUse"><stop id="stop303" stop-color="#272C30" offset="0"/><stop id="stop305" stop-color="#272C30" offset=".1871"/><stop id="stop307" stop-color="#070E16" offset=".3664"/><stop id="stop309" stop-color="#070E16" offset=".5776"/><stop id="stop311" stop-color="#1C2126" offset=".7131"/><stop id="stop313" stop-color="#272C30" offset=".7988"/><stop id="stop315" stop-color="#272C30" offset=".92"/><stop id="stop317" stop-color="#272C30" offset="1"/></linearGradient><rect id="rect320" x="164.51" y="111.12" width="93.898" height="55.739" clip-path="url(#SVGID_47_)" fill="url(#SVGID_48_)"/></g><g id="g345"><defs id="defs325"><path id="SVGID_49_" d="m164.51 144.91v11.585c0 5.168 4.188 9.358 9.358 9.358h75.18c5.171 0 9.359-4.19 9.359-9.358v-22.793c-11.877 4.317-28.026 6.976-45.826 6.976-18.951 0-36.023-3.012-48.071-7.83z"/></defs><clipPath id="SVGID_50_"><use id="use327" width="100%" height="100%" overflow="visible" xlink:href="#SVGID_49_"/></clipPath><linearGradient id="SVGID_51_" x1="-274.96" x2="-273.59" y1="360.19" y2="360.19" gradientTransform="matrix(0 -24.091 -24.091 0 8888.6 -6458.1)" gradientUnits="userSpaceOnUse"><stop id="stop330" stop-color="#070E16" offset="0"/><stop id="stop332" stop-color="#070E16" offset=".2559"/><stop id="stop334" stop-color="#1C2126" offset=".4681"/><stop id="stop336" stop-color="#1E2328" offset=".4916"/><stop id="stop338" stop-color="#272C30" offset=".7934"/><stop id="stop340" stop-color="#272C30" offset="1"/></linearGradient><rect id="rect343" x="164.51" y="132.85" width="93.898" height="33.005" clip-path="url(#SVGID_50_)" fill="url(#SVGID_51_)"/></g><g id="g364"><defs id="defs348"><path id="SVGID_52_" d="m198.74 122.08v12.329h-11.896v-12.329h-10.885v35.229h10.885v-14.25h11.896v14.25h10.932v-35.229zm30.344 7.98h2.714c2.822 0 4.839 0.688 6.057 2.066 1.218 1.376 1.825 3.932 1.825 7.664 0 2.819-0.272 4.857-0.816 6.116-0.545 1.255-1.299 2.138-2.261 2.644-0.957 0.504-2.577 0.758-4.852 0.758h-2.667zm-10.885-7.98v35.229h16.172c1.938 0 4.102-0.32 6.489-0.962 1.745-0.466 3.379-1.4 4.899-2.8 1.522-1.403 2.709-3.141 3.569-5.216 0.855-2.074 1.284-4.992 1.284-8.757 0-2.403-0.288-4.679-0.864-6.826-0.577-2.146-1.508-4.028-2.786-5.646-1.28-1.618-2.906-2.856-4.866-3.725-1.965-0.863-4.54-1.298-7.726-1.298h-16.171z"/></defs><clipPath id="SVGID_53_"><use id="use350" width="100%" height="100%" overflow="visible" xlink:href="#SVGID_52_"/></clipPath><linearGradient id="SVGID_54_" x1="-275.16" x2="-273.79" y1="368.23" y2="368.23" gradientTransform="matrix(54.492 0 0 -54.492 15170 20205)" gradientUnits="userSpaceOnUse"><stop id="stop353" stop-color="#DDE4E8" offset="0"/><stop id="stop355" stop-color="#DDE4E8" offset=".1696"/><stop id="stop357" stop-color="#DDE4E8" offset=".9263"/><stop id="stop359" stop-color="#DDE4E8" offset="1"/></linearGradient><rect id="rect362" x="175.96" y="122.08" width="74.654" height="35.229" clip-path="url(#SVGID_53_)" fill="url(#SVGID_54_)"/></g><g id="g383"><defs id="defs367"><path id="SVGID_55_" d="m198.74 120.18v12.326h-11.896v-12.326h-10.885v35.227h10.885v-14.25h11.896v14.25h10.932v-35.227zm30.344 7.976h2.714c2.822 0 4.839 0.688 6.057 2.068 1.218 1.378 1.825 3.931 1.825 7.666 0 2.817-0.272 4.855-0.816 6.115-0.545 1.257-1.299 2.136-2.261 2.642-0.957 0.502-2.577 0.757-4.852 0.757h-2.667zm-10.885-7.976v35.227h16.172c1.938 0 4.102-0.321 6.489-0.961 1.745-0.465 3.379-1.398 4.899-2.8 1.522-1.402 2.709-3.14 3.569-5.217 0.855-2.074 1.284-4.992 1.284-8.756 0-2.402-0.288-4.679-0.864-6.824-0.577-2.146-1.508-4.028-2.786-5.646-1.28-1.619-2.906-2.86-4.866-3.727-1.965-0.863-4.54-1.296-7.726-1.296z"/></defs><clipPath id="SVGID_56_"><use id="use369" width="100%" height="100%" overflow="visible" xlink:href="#SVGID_55_"/></clipPath><linearGradient id="SVGID_57_" x1="-275.16" x2="-273.79" y1="368.24" y2="368.24" gradientTransform="matrix(54.492 0 0 -54.492 15170 20204)" gradientUnits="userSpaceOnUse"><stop id="stop372" stop-color="#070E16" offset="0"/><stop id="stop374" stop-color="#070E16" offset=".1241"/><stop id="stop376" stop-color="#070E16" offset=".792"/><stop id="stop378" stop-color="#070E16" offset="1"/></linearGradient><rect id="rect381" x="175.96" y="120.18" width="74.654" height="35.227" clip-path="url(#SVGID_56_)" fill="url(#SVGID_57_)"/></g><g id="g402"><defs id="defs386"><polygon id="SVGID_58_" points="186.84 133.41 186.84 121.08 175.96 121.08 175.96 156.3 186.84 156.3 186.84 142.06 198.74 142.06 198.74 156.3 209.67 156.3 209.67 121.08 198.74 121.08 198.74 133.41"/></defs><clipPath id="SVGID_59_"><use id="use388" width="100%" height="100%" overflow="visible" xlink:href="#SVGID_58_"/></clipPath><linearGradient id="SVGID_60_" x1="-275.05" x2="-273.68" y1="360.79" y2="360.79" gradientTransform="matrix(0 -25.712 -25.712 0 9469.5 -6915.6)" gradientUnits="userSpaceOnUse"><stop id="stop391" stop-color="#BAC6CE" offset="0"/><stop id="stop393" stop-color="#BAC6CE" offset=".5092"/><stop id="stop395" stop-color="#DDE4E8" offset=".8005"/><stop id="stop397" stop-color="#DDE4E8" offset="1"/></linearGradient><rect id="rect400" x="175.96" y="121.08" width="33.713" height="35.222" clip-path="url(#SVGID_59_)" fill="url(#SVGID_60_)"/></g><g id="g421"><defs id="defs405"><path id="SVGID_61_" d="m229.08 129.06h2.714c2.822 0 4.839 0.689 6.057 2.067s1.825 3.933 1.825 7.665c0 2.819-0.273 4.858-0.816 6.117-0.545 1.256-1.299 2.136-2.261 2.641-0.958 0.505-2.577 0.759-4.852 0.759h-2.667zm-10.885-7.975v35.222h16.172c1.938 0 4.1-0.317 6.489-0.96 1.745-0.465 3.375-1.397 4.899-2.798 1.522-1.402 2.709-3.141 3.569-5.216 0.855-2.073 1.284-4.993 1.284-8.757 0-2.402-0.288-4.676-0.864-6.823-0.577-2.149-1.508-4.031-2.786-5.648-1.28-1.617-2.906-2.859-4.868-3.722-1.963-0.867-4.538-1.298-7.724-1.298z"/></defs><clipPath id="SVGID_62_"><use id="use407" width="100%" height="100%" overflow="visible" xlink:href="#SVGID_61_"/></clipPath><linearGradient id="SVGID_63_" x1="-275.05" x2="-273.68" y1="360.36" y2="360.36" gradientTransform="matrix(0 -25.712 -25.712 0 9499.8 -6915.6)" gradientUnits="userSpaceOnUse"><stop id="stop410" stop-color="#BAC6CE" offset="0"/><stop id="stop412" stop-color="#BAC6CE" offset=".5092"/><stop id="stop414" stop-color="#DDE4E8" offset=".8005"/><stop id="stop416" stop-color="#DDE4E8" offset="1"/></linearGradient><rect id="rect419" x="218.2" y="121.08" width="32.414" height="35.222" clip-path="url(#SVGID_62_)" fill="url(#SVGID_63_)"/></g><g id="g442"><defs id="defs424"><path id="SVGID_64_" d="m175.96 156.56h10.885v-14.25h11.896v14.25h10.932v-17.246c-12.992-0.112-24.785-1.438-33.713-3.56z"/></defs><clipPath id="SVGID_65_"><use id="use426" width="100%" height="100%" overflow="visible" xlink:href="#SVGID_64_"/></clipPath><linearGradient id="SVGID_66_" x1="-273.03" x2="-271.66" y1="356.68" y2="356.68" gradientTransform="matrix(0 -15.185 -15.185 0 5609 -3989.4)" gradientUnits="userSpaceOnUse"><stop id="stop429" stop-color="#B9C5CD" offset="0"/><stop id="stop431" stop-color="#B9C5CD" offset=".2619"/><stop id="stop433" stop-color="#D3DBE0" offset=".5283"/><stop id="stop435" stop-color="#DDE4E8" offset=".6141"/><stop id="stop437" stop-color="#DDE4E8" offset="1"/></linearGradient><rect id="rect440" x="175.96" y="135.76" width="33.713" height="20.806" clip-path="url(#SVGID_65_)" fill="url(#SVGID_66_)"/></g><g id="g463"><defs id="defs445"><path id="SVGID_67_" d="m239.62 137.21c0.036 0.581 0.062 1.185 0.062 1.837 0 2.82-0.273 4.856-0.816 6.114-0.545 1.259-1.299 2.14-2.261 2.645-0.958 0.504-2.577 0.758-4.852 0.758h-2.667v-10.02c-3.474 0.318-7.116 0.545-10.885 0.67v17.351h16.172c1.938 0 4.102-0.319 6.489-0.963 1.745-0.462 3.379-1.396 4.899-2.799 1.522-1.403 2.709-3.141 3.569-5.215 0.855-2.075 1.284-4.994 1.284-8.757 0-1.359-0.102-2.673-0.286-3.951-3.139 0.895-6.743 1.677-10.708 2.33"/></defs><clipPath id="SVGID_68_"><use id="use447" width="100%" height="100%" overflow="visible" xlink:href="#SVGID_67_"/></clipPath><linearGradient id="SVGID_69_" x1="-273.24" x2="-271.87" y1="356.36" y2="356.36" gradientTransform="matrix(0 -15.828 -15.828 0 5874.7 -4168.2)" gradientUnits="userSpaceOnUse"><stop id="stop450" stop-color="#B9C5CD" offset="0"/><stop id="stop452" stop-color="#B9C5CD" offset=".2619"/><stop id="stop454" stop-color="#D3DBE0" offset=".5283"/><stop id="stop456" stop-color="#DDE4E8" offset=".6141"/><stop id="stop458" stop-color="#DDE4E8" offset="1"/></linearGradient><rect id="rect461" x="218.2" y="134.88" width="32.414" height="21.685" clip-path="url(#SVGID_68_)" fill="url(#SVGID_69_)"/></g></g></g></svg>
