<?xml version="1.0" encoding="UTF-8"?>
<svg id="svg28" width="978pt" height="978.06pt" version="1.1" viewBox="0 0 978 978.06" xmlns="http://www.w3.org/2000/svg" xmlns:cc="http://creativecommons.org/ns#" xmlns:dc="http://purl.org/dc/elements/1.1/" xmlns:rdf="http://www.w3.org/1999/02/22-rdf-syntax-ns#">
 <metadata id="metadata34">
  <rdf:RDF>
   <cc:Work rdf:about="">
    <dc:format>image/svg+xml</dc:format>
    <dc:type rdf:resource="http://purl.org/dc/dcmitype/StillImage"/>
    <dc:title/>
   </cc:Work>
  </rdf:RDF>
 </metadata>
 <g id="#9a9a9aff" transform="translate(-10.995 -10.971)">
  <path id="path21" d="m383.44 11.6c63.19-0.89 126.38-0.62 189.58-0.47 54.38 0.44 108.89 1 163 6.91 40.31 4.62 80.96 12.37 117.75 30.11 32.41 15.45 60.65 39.46 81.14 68.94 17.99 25.82 29.49 55.64 36.76 86.11 9.22 38.57 12.64 78.23 14.75 117.74 2.79 57.32 2.5 114.72 2.58 172.09-0.06 56.98 0.27 113.99-1.89 170.95-2.03 46.18-5.3 92.68-16.64 137.66-8.29 32.91-21.95 64.92-43.23 91.59-20.8 26.31-48.06 47.4-78.69 61.07-36.74 16.57-76.86 23.79-116.7 28.12-52.75 5.45-105.85 6.04-158.84 6.45-62.03 0.16-124.05 0.39-186.07-0.41-37-0.62-74.02-1.76-110.87-5.25-36.94-3.6-74.02-9.47-108.94-22.44-28.1-10.4-54.38-26.13-75.86-47.13-23.77-22.74-41.44-51.42-52.6-82.29-14.14-38.89-19.75-80.25-23.09-121.31-3.96-50.91-4.24-102.01-4.53-153.05-0.07-32.32-0.06-64.64-0.04-96.96 0.16-49.01 0.27-98.05 3-147 2.68-44.42 7.12-89.2 20.41-131.87 7.79-24.92 19.13-48.89 34.83-69.83 13.63-18.2 30.25-34.17 49-47.04 19.78-13.55 41.9-23.46 64.79-30.46 43.42-13.2 88.91-17.48 134.03-20.04 22.1-1.2 44.23-1.8 66.37-2.19" fill="#9a9a9a"/>
 </g>
 <g id="#fefefeff" transform="translate(-10.995 -10.971)" fill="#fefefe">
  <path id="path2" d="m325.37 32.52c70.48-3.62 141.09-2.53 211.63-2.7 55.46 0.13 111 0.18 166.31 4.7 40.75 3.6 81.87 9.66 119.98 25.17 28.71 11.57 54.92 29.36 75.93 52.13 23.05 24.5 39.19 54.89 48.98 86.93 10.19 33.16 14.82 67.72 17.62 102.2 3.58 45.61 4.03 91.38 4.32 137.11 0.04 57.63 0.36 115.26-0.5 172.88-0.97 46.96-2.52 94.1-10 140.55-5.73 34.96-15.41 69.82-33.49 100.54-18.24 31.06-44.69 57.26-75.93 75.17-33.55 19.29-71.71 28.7-109.73 34.13-45.21 6.29-90.93 7.63-136.51 8.42-59.01 0.72-118.02 0.46-177.03 0.33-42.71-0.36-85.47-0.96-128.06-4.43-37.4-3.16-75-8.42-110.55-20.9-30.44-10.61-58.84-27.54-81.62-50.45-23.36-22.92-40.66-51.63-51.39-82.47-14.18-40.39-19.17-83.28-22.09-125.78-3.13-47.37-3.17-94.88-3.5-142.34 7.9-4.29 16.06-8.08 24.07-12.15 0.22 53.46 0.09 106.98 3.95 160.33 3.28 41.88 8.77 84.32 24.83 123.45 12.82 31.41 34.09 59.47 61.58 79.46 27.26 20.13 59.92 31.51 92.86 38.19 41.1 8.28 83.11 10.55 124.92 11.95 38.03 1.12 76.07 1.21 114.11 1.23 60.98-0.12 121.99 0.53 182.93-2.01 44.88-2.16 90.22-5.65 133.48-18.58 31.61-9.42 61.62-25.58 84.83-49.28 24.78-24.64 41.03-56.73 50.13-90.22 11.56-42.01 14.8-85.74 16.82-129.09 2.49-61.96 1.79-123.98 1.92-185.98-0.09-44.35-0.13-88.73-2.15-133.04-2.01-40.7-5.32-81.67-15.8-121.19-8.15-30.87-21.9-60.73-43.18-84.79-21.74-25.11-50.71-43.37-82.01-54.11-41.13-14.25-84.85-18.57-128.04-21.24-52.27-2.87-104.64-2.74-156.96-2.81-36.01 0.02-72.02-0.11-108.02 0.3-46.12 0.58-92.37 1.55-138.19 7.22-38.25 4.9-76.93 13.39-110.67 32.79-31.23 17.83-56.78 45.24-72.62 77.5-15.51 31.27-22.74 65.87-27.2 100.27l-22.77-11.46c6.16-44.25 18-89.03 43.99-126.04 12.84-18.42 28.71-34.7 46.68-48.15 19.55-14.61 41.78-25.42 64.93-32.99 42.34-13.75 86.99-18.13 131.21-20.75z"/>
  <path id="path4" d="m34.44 297.68 23.2 11.45c-4.14 60.82-3.68 121.8-3.84 182.72-7.97 4.22-15.99 8.37-23.99 12.55-0.05-38.16-0.07-76.32 0.54-114.47 0.57-30.78 1.54-61.57 4.09-92.25z"/>
  <path id="path6" d="m60.09 395.34 106.88-96.43v32.17l-74.045 64.26 74.045 71.83v34.99z"/>
  <path id="path8" d="m199.04 298.92 24.72 13.165v133.63l145.14-146.8v203.25l-24.67-13.205v-133.65l-145.2 146.86z"/>
  <path id="path10" d="m414.16 298.9 24.675 13.175v74.775h111.77v-74.775l24.695-13.175v203.26l-24.695-13.15v-78.85h-111.77v78.85l-24.675 13.15z"/>
  <path id="path12" d="m694.43 301.69c17.49-1.36 35.4 1.27 51.45 8.44 17.09 7.57 31.83 20.43 41.44 36.48 10.58 17.42 15.05 38.14 14.23 58.41-0.69 19.6-6.85 39.15-18.38 55.1-10.51 14.74-25.45 26.2-42.32 32.72-32.25 12.37-71.1 8.18-98.79-12.94-15.16-11.47-26.39-27.84-32.08-45.94-5.61-17.68-6.51-36.8-2.94-54.99 3.85-19.31 13.44-37.57 27.77-51.16 15.95-15.43 37.58-24.46 59.62-26.12m-5.01 22.93c-22.44 3.76-42.4 19.14-51.88 39.8-7.96 16.94-9.77 36.58-5.76 54.81 4.08 18.74 15.38 35.96 31.47 46.54 25.53 17.1 62.04 15.71 86.04-3.55 12.9-10.31 21.66-25.33 25.26-41.37 4.32-19.03 2.65-39.69-6.05-57.29-6.33-12.88-16.53-23.9-29.1-30.88-15.01-8.53-33.06-11.1-49.98-8.06z"/>
  <path id="path14" d="m753.03 526.7 42.852-0.85037c6.386-0.12673 12.773 0.0604 19.158 0.40037 19.34 1.29 38.94 5.75 55.55 16.1 13.93 8.54 25.15 21.43 31.59 36.46 6.44 14.8 8.61 31.19 7.74 47.22-0.74 14.46-4.28 28.88-11.11 41.7-7.23 13.74-18.32 25.39-31.57 33.48-13.67 8.43-29.35 13.24-45.2 15.39-10.758 1.3717-21.564 1.61-32.382 1.4458l-36.628-0.55582v-190.79m12.205 10.93v168.99l36.735 0.69c18.44-0.14 37.2-3.75 53.41-12.82 12.73-7.08 23.47-17.73 30.44-30.54 9.31-16.95 12.03-36.95 9.99-56.02-1.8-16.72-8.76-33.08-20.65-45.13-12.77-13.15-30.28-20.79-48.13-24.01-10.305-1.9701-20.721-2.5324-31.149-2.184z"/>
  <path id="path16" d="m349.36 530.88 12.16 6.48v93.63c-0.12 18.57 3.21 37.98 14.02 53.48 8.6 12.58 22.55 21.03 37.49 23.6 15.69 2.78 32.9 1.39 46.56-7.4 11-6.96 18.53-18.37 22.63-30.55 3.82-11.27 5.25-23.23 5.31-35.09l0.05-97.74 12.14-6.4 0.02 89.1c-0.12 14.77 0.77 29.73-2.47 44.27-3.23 15.74-11.03 30.97-23.79 41.06-14.34 11.55-33.4 15.66-51.49 14.63-17.31-0.76-34.94-6.22-48.02-17.94-11.69-10.28-18.83-24.88-22.07-39.94-1.83-8.53-2.63-17.27-2.57-26z"/>
  <path id="path18" d="m691.01 537.3 12.2-6.42v182.44l-12.2-6.495v-81.445h-124.23v81.445l-12.24 6.495v-182.44l12.24 6.42v77.415h124.23z"/>
 </g>
</svg>
