<svg enable-background="new 0 0 283.464 283.464" version="1.1" viewBox="0 0 233.86 139.35" xml:space="preserve" xmlns="http://www.w3.org/2000/svg"><g transform="translate(-24.803,-72.058)" fill="#fff"><g fill="#fff"><g fill="#fff"><g fill="#fff"><polygon points="24.803 72.058 80.125 72.058 104.82 116.25 49.508 116.25"/><polygon points="24.803 166.89 80.125 166.89 104.82 122.7 49.508 122.7"/><polygon points="101.72 72.058 157.03 72.058 181.73 116.25 126.42 116.25"/><polygon points="101.72 166.89 157.03 166.89 181.73 122.7 126.42 122.7"/><polygon points="178.62 72.058 233.94 72.058 258.66 116.25 203.34 116.25"/><polygon points="178.62 166.89 233.94 166.89 258.66 122.7 203.34 122.7"/></g></g><g fill="#fff"><path d="m30.358 201.36h-1.155v9.6h-4.4v-22.475h4.4v9.953l1.029-0.449 6.197-9.504h5.007l-6.551 9.439-1.732 1.219 1.798 1.254 7.481 10.563h-5.428z"/><path d="m56.947 198.5 0.257-2.922h-0.162l-1.508 3.018-8.381 12.361h-3.308v-22.475h4.4v12.232l-0.322 3.02h0.193l1.573-3.115 8.383-12.137h3.275v22.475h-4.4z"/><path d="m78.235 201.55h-8.219v9.408h-4.4v-22.475h4.4v9.148h8.219v-9.148h4.401v22.475h-4.401z"/><path d="m85.589 199.72c0-3.746 0.825-6.631 2.472-8.652 1.65-2.021 4.001-3.035 7.066-3.035 1.604 0 3.008 0.279 4.206 0.834 1.199 0.559 2.193 1.352 2.985 2.379 0.795 1.027 1.382 2.258 1.771 3.689 0.383 1.436 0.576 3.031 0.576 4.785 0 3.746-0.83 6.631-2.488 8.654-1.662 2.023-4.012 3.033-7.049 3.033-1.626 0-3.04-0.277-4.24-0.832-1.199-0.559-2.187-1.348-2.969-2.379-0.782-1.025-1.366-2.256-1.749-3.689-0.387-1.435-0.581-3.031-0.581-4.787zm4.624 0c0 1.135 0.095 2.178 0.287 3.133 0.197 0.951 0.489 1.77 0.885 2.455s0.903 1.221 1.526 1.607c0.62 0.383 1.359 0.576 2.216 0.576 1.562 0 2.772-0.611 3.627-1.832 0.858-1.219 1.283-3.197 1.283-5.939 0-1.09-0.09-2.107-0.274-3.051-0.18-0.941-0.464-1.764-0.847-2.471-0.388-0.705-0.889-1.258-1.509-1.654-0.622-0.396-1.385-0.594-2.28-0.594-1.563 0-2.772 0.627-3.629 1.879s-1.285 3.217-1.285 5.891z"/><path d="m119.85 192.4h-7.864v18.559h-4.4v-22.475h16.668v22.475h-4.403v-18.559z"/><path d="m128.49 188.7c0.898-0.17 1.889-0.305 2.97-0.4s2.158-0.145 3.228-0.145c1.112 0 2.231 0.09 3.354 0.273 1.124 0.182 2.135 0.543 3.035 1.092 0.9 0.547 1.632 1.305 2.203 2.279 0.564 0.975 0.85 2.244 0.85 3.805 0 1.414-0.246 2.607-0.738 3.58-0.495 0.975-1.145 1.771-1.958 2.393s-1.74 1.072-2.779 1.35-2.113 0.416-3.228 0.416h-0.515c-0.232 0-0.482-4e-3 -0.738-0.016-0.254-0.01-0.506-0.025-0.755-0.047-0.244-0.021-0.423-0.045-0.526-0.064v7.736h-4.401v-22.252zm6.553 3.244c-0.431 0-0.835 0.018-1.221 0.051-0.386 0.029-0.698 0.066-0.931 0.111v7.287c0.085 0.021 0.212 0.043 0.383 0.063 0.172 0.023 0.355 0.039 0.548 0.049 0.19 0.012 0.379 0.018 0.563 0.018h0.399c0.576 0 1.151-0.053 1.719-0.162 0.563-0.107 1.076-0.305 1.522-0.594 0.452-0.289 0.81-0.689 1.079-1.201 0.266-0.516 0.4-1.191 0.4-2.023 0-0.709-0.13-1.293-0.384-1.752-0.259-0.459-0.592-0.828-1.011-1.107-0.418-0.275-0.897-0.471-1.432-0.576-0.534-0.11-1.079-0.164-1.634-0.164z"/><path d="m146.7 188.48h13.326v3.916h-8.928v5.232h8.125v3.918h-8.125v5.492h9.09v3.916h-13.488z"/><path d="m181.28 199.3 0.48-4.465h-0.191l-1.379 3.598-4.787 8.381h-1.416l-5.041-8.412-1.414-3.566h-0.156l0.639 4.432v11.688h-4.17v-22.475h4.016l6 10.273 1.061 2.568h0.127l0.965-2.633 5.684-10.209h3.982v22.475h-4.398v-11.655z"/><path d="m189.91 188.48h4.4v8.057c0.109-0.02 0.285-0.045 0.531-0.078 0.25-0.033 0.516-0.061 0.805-0.082s0.578-0.043 0.881-0.063c0.299-0.02 0.576-0.033 0.838-0.033 1.049 0 2.064 0.107 3.049 0.322s1.855 0.594 2.619 1.137c0.756 0.549 1.363 1.285 1.813 2.219 0.451 0.932 0.674 2.115 0.674 3.549 0 2.566-0.797 4.508-2.393 5.813-1.594 1.305-3.881 1.959-6.855 1.959-0.301 0-0.703-6e-3 -1.205-0.02-0.504-0.01-1.055-0.035-1.656-0.078-0.6-0.043-1.201-0.096-1.811-0.16-0.613-0.066-1.174-0.16-1.689-0.289v-22.253zm6.584 18.881c0.6 0 1.166-0.061 1.703-0.18 0.535-0.113 1.006-0.32 1.414-0.607 0.408-0.289 0.723-0.67 0.947-1.141 0.227-0.471 0.34-1.049 0.34-1.732 0-0.729-0.127-1.322-0.371-1.783-0.246-0.461-0.566-0.82-0.965-1.076-0.396-0.258-0.859-0.428-1.396-0.514-0.533-0.086-1.096-0.129-1.672-0.129-0.146 0-0.33 0.012-0.545 0.031-0.213 0.023-0.43 0.045-0.641 0.066-0.215 0.023-0.412 0.047-0.594 0.078-0.184 0.033-0.32 0.061-0.404 0.08v6.713c0.238 0.064 0.553 0.111 0.949 0.145 0.399 0.031 0.807 0.049 1.235 0.049z"/><path d="m208.19 188.48h13.324v3.916h-8.924v5.232h8.123v3.918h-8.123v5.492h9.086v3.916h-13.486z"/><path d="m225.33 188.7c0.902-0.17 1.891-0.305 2.975-0.4 1.08-0.096 2.158-0.145 3.227-0.145 1.113 0 2.229 0.09 3.354 0.273 1.123 0.182 2.135 0.543 3.037 1.092 0.898 0.547 1.629 1.305 2.197 2.279 0.57 0.975 0.854 2.244 0.854 3.805 0 1.414-0.248 2.607-0.742 3.58-0.486 0.975-1.141 1.771-1.957 2.393-0.814 0.621-1.74 1.072-2.777 1.35-1.039 0.277-2.113 0.416-3.225 0.416h-0.516c-0.236 0-0.482-4e-3 -0.738-0.016-0.256-0.01-0.514-0.025-0.758-0.047s-0.42-0.045-0.529-0.064v7.736h-4.4v-22.252zm6.554 3.244c-0.43 0-0.838 0.018-1.221 0.051-0.385 0.029-0.695 0.066-0.934 0.111v7.287c0.086 0.021 0.215 0.043 0.389 0.063 0.166 0.023 0.352 0.039 0.545 0.049 0.193 0.012 0.379 0.018 0.561 0.018h0.404c0.576 0 1.148-0.053 1.715-0.162 0.564-0.107 1.078-0.305 1.523-0.594 0.451-0.289 0.809-0.689 1.08-1.201 0.266-0.516 0.398-1.191 0.398-2.023 0-0.709-0.129-1.293-0.387-1.752-0.254-0.459-0.594-0.828-1.012-1.107-0.414-0.275-0.891-0.471-1.426-0.576-0.533-0.11-1.08-0.164-1.635-0.164z"/><path d="m252.24 205.98h-6.904l-1.699 4.977h-4.4l8.092-22.637h3.244l8.088 22.637h-4.619zm-5.778-3.533h4.816l-1.672-5.008-0.674-3.531h-0.158l-0.678 3.564z"/></g></g></g></svg>
