<svg id="a" enable-background="new 0 0 283.464 283.464" version="1.1" viewBox="0 0 233.86 147.55" xml:space="preserve" xmlns="http://www.w3.org/2000/svg"><g id="b" transform="translate(-24.803,-67.956)"><g id="c"><g id="d"><g id="e"><g id="f" fill="#282828"><g id="g"><polygon id="h" points="24.803 67.956 80.125 67.956 104.82 112.15 49.508 112.15"/><polygon id="i" points="24.803 162.79 80.125 162.79 104.82 118.6 49.508 118.6"/></g><g id="j"><polygon id="k" points="101.72 67.956 157.03 67.956 181.73 112.15 126.42 112.15"/><polygon id="l" points="101.72 162.79 157.03 162.79 181.73 118.6 126.42 118.6"/></g><g id="m"><polygon id="n" points="178.62 67.956 233.94 67.956 258.66 112.15 203.34 112.15"/><polygon id="o" points="178.62 162.79 233.94 162.79 258.66 118.6 203.34 118.6"/></g></g></g></g><g id="p" fill="#282828"><path id="q" d="m32.342 201.87h-1.569v13.033h-5.97v-30.514h5.97v13.51l1.397-0.609 8.412-12.9h6.803l-8.895 12.814-2.352 1.656 2.439 1.703 10.157 14.34h-7.368z"/><path id="r" d="m68.439 197.99 0.351-3.971h-0.221l-2.048 4.1-11.377 16.785h-4.49v-30.514h5.971v16.607l-0.434 4.098h0.26l2.14-4.232 11.377-16.473h4.444v30.514h-5.973z"/><path id="s" d="m97.345 202.12h-11.162v12.775h-5.973v-30.514h5.973v12.422h11.162v-12.422h5.971v30.514h-5.971z"/><path id="t" d="m107.33 199.64c0-5.084 1.118-8.996 3.356-11.748 2.232-2.748 5.434-4.121 9.588-4.121 2.18 0 4.09 0.379 5.711 1.135 1.632 0.756 2.984 1.834 4.057 3.225 1.074 1.395 1.871 3.07 2.398 5.02 0.525 1.945 0.784 4.113 0.784 6.49 0 5.088-1.126 9.004-3.378 11.748-2.252 2.75-5.441 4.121-9.572 4.121-2.204 0-4.122-0.373-5.756-1.133-1.628-0.754-2.969-1.828-4.027-3.229-1.063-1.393-1.854-3.063-2.377-5.006-0.527-1.951-0.784-4.115-0.784-6.502zm6.278 0c0 1.541 0.127 2.961 0.389 4.25 0.261 1.295 0.666 2.406 1.201 3.34 0.536 0.924 1.224 1.656 2.068 2.178 0.845 0.518 1.845 0.783 3.008 0.783 2.122 0 3.77-0.826 4.927-2.482 1.165-1.656 1.747-4.348 1.747-8.068 0-1.482-0.125-2.861-0.374-4.139-0.243-1.279-0.627-2.4-1.155-3.359-0.524-0.959-1.205-1.709-2.047-2.246-0.845-0.537-1.876-0.807-3.098-0.807-2.118 0-3.76 0.852-4.922 2.551-1.165 1.7-1.744 4.368-1.744 7.999z"/><path id="u" d="m157.72 213.65c-0.928 0.664-2.111 1.141-3.555 1.43-1.436 0.283-2.912 0.43-4.422 0.43-1.832 0-3.57-0.283-5.211-0.848-1.641-0.566-3.088-1.486-4.334-2.744-1.248-1.266-2.246-2.908-2.988-4.934-0.742-2.016-1.113-4.467-1.113-7.344 0-2.992 0.418-5.5 1.244-7.52 0.828-2.02 1.9-3.648 3.225-4.881 1.324-1.234 2.797-2.123 4.422-2.658 1.631-0.543 3.262-0.811 4.887-0.811 1.742 0 3.223 0.117 4.426 0.35 1.205 0.234 2.203 0.508 2.984 0.83l-1.174 5.057c-0.676-0.322-1.463-0.551-2.373-0.699-0.92-0.146-2.033-0.219-3.338-0.219-2.416 0-4.357 0.863-5.826 2.58-1.461 1.717-2.193 4.383-2.193 7.994 0 1.572 0.17 3.004 0.521 4.299 0.348 1.299 0.877 2.408 1.586 3.324 0.713 0.914 1.6 1.635 2.658 2.143 1.063 0.506 2.291 0.762 3.684 0.762 1.311 0 2.418-0.127 3.314-0.391 0.898-0.264 1.688-0.598 2.359-1.004z"/><path id="v" d="m161.95 184.39h18.088v5.314h-12.115v7.107h11.031v5.316h-11.031v7.457h12.334v5.318h-18.307z"/><path id="w" d="m185.23 184.69c1.225-0.234 2.568-0.418 4.037-0.547 1.469-0.133 2.928-0.197 4.383-0.197 1.506 0 3.029 0.125 4.555 0.371 1.527 0.244 2.896 0.74 4.119 1.484 1.219 0.738 2.219 1.77 2.986 3.09 0.768 1.328 1.158 3.047 1.158 5.172 0 1.918-0.338 3.535-1.004 4.859-0.672 1.32-1.555 2.406-2.664 3.246-1.102 0.842-2.359 1.455-3.766 1.832-1.414 0.381-2.877 0.563-4.387 0.563h-0.693c-0.324 0-0.65 0-1.006-0.02-0.352-0.016-0.688-0.035-1.025-0.064-0.33-0.027-0.57-0.055-0.717-0.084v10.502h-5.977v-30.207zm8.9 4.398c-0.582 0-1.137 0.02-1.66 0.066-0.521 0.043-0.941 0.1-1.264 0.154v9.898c0.115 0.025 0.291 0.055 0.521 0.08 0.232 0.033 0.479 0.053 0.742 0.066 0.262 0.016 0.514 0.021 0.768 0.021h0.543c0.783 0 1.561-0.07 2.326-0.217 0.773-0.145 1.463-0.418 2.076-0.807 0.611-0.395 1.094-0.936 1.455-1.633 0.369-0.701 0.547-1.617 0.547-2.746 0-0.963-0.172-1.75-0.521-2.381-0.352-0.619-0.809-1.121-1.369-1.502-0.572-0.377-1.219-0.637-1.941-0.781-0.728-0.143-1.469-0.218-2.223-0.218z"/><path id="x" d="m227.41 197.99 0.344-3.973h-0.211l-2.055 4.098-11.377 16.785h-4.494v-30.512h5.977v16.607l-0.436 4.1h0.266l2.133-4.232 11.381-16.475h4.445v30.512h-5.973z"/><path id="y" d="m258.66 214.9h-5.971v-12.076l-3.145 0.826-6.363 11.25h-6.932l6.283-10.156 2.609-1.873c-0.928-0.232-1.797-0.586-2.609-1.072-0.816-0.475-1.523-1.094-2.141-1.854-0.607-0.752-1.088-1.645-1.439-2.678s-0.52-2.201-0.52-3.508c0-1.834 0.314-3.375 0.955-4.621 0.639-1.256 1.531-2.262 2.664-3.029 1.129-0.771 2.479-1.322 4.053-1.662 1.57-0.332 3.27-0.498 5.104-0.498 0.488 0 1.055 0.014 1.691 0.043 0.646 0.027 1.307 0.074 1.99 0.133 0.682 0.057 1.348 0.127 2.002 0.219 0.66 0.084 1.248 0.199 1.768 0.35v30.206zm-8.202-25.629c-0.779 0-1.521 0.07-2.217 0.215-0.699 0.146-1.311 0.393-1.83 0.744-0.521 0.344-0.943 0.826-1.246 1.436-0.305 0.609-0.459 1.395-0.459 2.352 0 0.902 0.145 1.666 0.436 2.291 0.295 0.623 0.701 1.133 1.223 1.525 0.525 0.391 1.135 0.674 1.83 0.848 0.697 0.176 1.451 0.266 2.264 0.266h2.23v-9.461c-0.32-0.057-0.646-0.111-0.982-0.152-0.333-0.046-0.749-0.064-1.249-0.064z"/></g></g></g></svg>
