<svg id="a" enable-background="new 0 0 283.464 283.464" version="1.1" viewBox="0 0 233.86 146.68" xml:space="preserve" xmlns="http://www.w3.org/2000/svg"><g id="b" transform="translate(-24.803,-68.395)"><g id="c"><g id="d"><g id="e" fill="#282828"><g id="f"><polygon id="g" points="24.803 68.395 80.125 68.395 104.82 112.59 49.508 112.59"/><polygon id="h" points="24.803 163.23 80.125 163.23 104.82 119.03 49.508 119.03"/></g><g id="i"><polygon id="j" points="101.72 68.395 157.03 68.395 181.73 112.59 126.42 112.59"/><polygon id="k" points="101.72 163.23 157.03 163.23 181.73 119.03 126.42 119.03"/></g><g id="l"><polygon id="m" points="178.62 68.395 233.94 68.395 258.66 112.59 203.34 112.59"/><polygon id="n" points="178.62 163.23 233.94 163.23 258.66 119.03 203.34 119.03"/></g></g></g><g id="o"><g id="p" fill="#282828"><path id="q" d="m32.129 201.81h-1.525v12.666h-5.801v-29.654h5.801v13.129l1.359-0.59 8.175-12.539h6.611l-8.645 12.455-2.285 1.607 2.37 1.656 9.871 13.936h-7.159z"/><path id="r" d="m67.209 198.04 0.341-3.857h-0.215l-1.989 3.988-11.058 16.307h-4.363v-29.654h5.803v16.139l-0.421 3.982h0.252l2.079-4.113 11.06-16.008h4.316v29.654h-5.805z"/><path id="s" d="m95.299 202.06h-10.845v12.412h-5.805v-29.654h5.805v12.072h10.846v-12.072h5.803v29.654h-5.803v-12.412z"/><path id="t" d="m105 199.65c0-4.943 1.086-8.746 3.261-11.42 2.17-2.67 5.28-4.004 9.317-4.004 2.119 0 3.976 0.365 5.552 1.1 1.585 0.734 2.898 1.781 3.942 3.137 1.044 1.359 1.818 2.982 2.332 4.875 0.51 1.891 0.762 3.998 0.762 6.313 0 4.943-1.095 8.744-3.285 11.412-2.188 2.674-5.287 4.008-9.303 4.008-2.142 0-4.006-0.363-5.593-1.104-1.582-0.73-2.885-1.775-3.914-3.137-1.034-1.354-1.802-2.977-2.31-4.865-0.511-1.895-0.761-4.001-0.761-6.315zm6.101 0c0 1.494 0.123 2.871 0.378 4.131 0.254 1.254 0.646 2.338 1.168 3.24 0.521 0.9 1.188 1.609 2.01 2.119 0.82 0.508 1.792 0.76 2.922 0.76 2.063 0 3.664-0.803 4.79-2.414 1.13-1.609 1.695-4.219 1.695-7.836 0-1.443-0.119-2.783-0.361-4.027-0.238-1.244-0.609-2.332-1.124-3.264-0.509-0.93-1.171-1.658-1.988-2.184-0.821-0.521-1.823-0.783-3.012-0.783-2.058 0-3.652 0.828-4.783 2.48s-1.695 4.245-1.695 7.778z"/><path id="u" d="m153.98 213.26c-0.902 0.646-2.053 1.107-3.455 1.387-1.396 0.277-2.828 0.42-4.296 0.42-1.782 0-3.47-0.277-5.065-0.824-1.594-0.553-3-1.443-4.212-2.668-1.212-1.23-2.183-2.826-2.903-4.791-0.722-1.961-1.082-4.346-1.082-7.137 0-2.91 0.406-5.348 1.209-7.311 0.805-1.965 1.847-3.547 3.134-4.744 1.287-1.199 2.718-2.064 4.297-2.584 1.585-0.521 3.171-0.785 4.751-0.785 1.69 0 3.13 0.111 4.299 0.338 1.172 0.227 2.143 0.498 2.9 0.805l-1.141 4.916c-0.656-0.311-1.42-0.535-2.307-0.682-0.893-0.139-1.975-0.211-3.242-0.211-2.348 0-4.234 0.84-5.662 2.51-1.421 1.666-2.133 4.256-2.133 7.766 0 1.529 0.165 2.926 0.507 4.178 0.339 1.266 0.853 2.342 1.542 3.234 0.693 0.889 1.555 1.586 2.584 2.08 1.031 0.49 2.226 0.74 3.578 0.74 1.275 0 2.351-0.125 3.221-0.377 0.874-0.258 1.642-0.584 2.295-0.977z"/><path id="v" d="m158.08 184.82h17.578v5.168h-11.773v6.904h10.721v5.17h-10.721v7.242h11.984v5.17h-17.789z"/><path id="w" d="m203.72 199.1 0.637-5.889h-0.254l-1.826 4.744-6.314 11.059h-1.861l-6.652-11.098-1.867-4.705h-0.205l0.844 5.846v15.424h-5.51v-29.654h5.301l7.918 13.557 1.4 3.385h0.17l1.271-3.473 7.496-13.469h5.258v29.654h-5.805v-15.381z"/><path id="x" d="m215.11 184.82h5.805v10.633c0.143-0.033 0.369-0.064 0.699-0.105 0.32-0.043 0.682-0.078 1.063-0.109 0.381-0.027 0.77-0.055 1.16-0.084 0.402-0.027 0.766-0.043 1.104-0.043 1.385 0 2.721 0.143 4.027 0.424 1.295 0.281 2.453 0.783 3.453 1.504 0.998 0.721 1.795 1.697 2.391 2.926 0.594 1.23 0.893 2.789 0.893 4.686 0 3.383-1.055 5.943-3.158 7.666-2.105 1.719-5.117 2.58-9.045 2.58-0.4 0-0.93-6e-3 -1.592-0.018-0.664-0.014-1.389-0.051-2.182-0.105-0.791-0.061-1.59-0.131-2.391-0.213-0.807-0.086-1.553-0.211-2.227-0.381zm8.685 24.912c0.793 0 1.537-0.084 2.246-0.232 0.705-0.162 1.326-0.426 1.861-0.809 0.539-0.379 0.959-0.883 1.25-1.504 0.299-0.619 0.451-1.381 0.451-2.289 0-0.957-0.164-1.74-0.492-2.35-0.322-0.607-0.746-1.08-1.273-1.422-0.52-0.336-1.129-0.563-1.838-0.674-0.709-0.115-1.445-0.174-2.205-0.174-0.195 0-0.438 0.016-0.721 0.043-0.283 0.031-0.563 0.059-0.848 0.088-0.283 0.023-0.541 0.064-0.777 0.107-0.242 0.037-0.418 0.078-0.535 0.105v8.852c0.314 0.088 0.725 0.15 1.25 0.188 0.526 0.049 1.067 0.071 1.631 0.071z"/><path id="y" d="m258.66 214.48h-5.801v-11.736l-3.051 0.805-6.184 10.932h-6.736l6.096-9.871 2.543-1.818c-0.9-0.23-1.746-0.576-2.543-1.039-0.787-0.469-1.48-1.07-2.074-1.803-0.594-0.734-1.063-1.605-1.395-2.605-0.342-1.004-0.514-2.143-0.514-3.41 0-1.781 0.311-3.275 0.934-4.494 0.623-1.215 1.484-2.193 2.586-2.943 1.104-0.746 2.412-1.283 3.941-1.611 1.523-0.322 3.178-0.484 4.957-0.484 0.48 0 1.029 0.016 1.65 0.043 0.621 0.025 1.266 0.072 1.924 0.125 0.668 0.059 1.316 0.127 1.949 0.219 0.639 0.08 1.207 0.195 1.717 0.334v29.356zm-7.963-24.91c-0.762 0-1.482 0.072-2.156 0.209-0.676 0.143-1.275 0.385-1.781 0.721-0.512 0.34-0.914 0.807-1.207 1.4-0.295 0.59-0.447 1.355-0.447 2.285 0 0.879 0.143 1.619 0.422 2.225 0.287 0.609 0.682 1.104 1.191 1.484 0.506 0.379 1.1 0.654 1.775 0.83 0.674 0.164 1.414 0.248 2.203 0.248h2.162v-9.193c-0.313-0.057-0.629-0.105-0.955-0.148-0.324-0.04-0.729-0.061-1.207-0.061z"/></g></g></g></g></svg>
