<?xml version="1.0" encoding="UTF-8"?>
<!-- Generator: Adobe Illustrator 22.1.0, SVG Export Plug-In . SVG Version: 6.00 Build 0)  -->
<svg id="Слой_1" width="938.8" height="938.8" version="1.1" viewBox="0 0 938.8 938.8" xml:space="preserve" xmlns="http://www.w3.org/2000/svg" xmlns:cc="http://creativecommons.org/ns#" xmlns:dc="http://purl.org/dc/elements/1.1/" xmlns:rdf="http://www.w3.org/1999/02/22-rdf-syntax-ns#"><metadata id="metadata31"><rdf:RDF><cc:Work rdf:about=""><dc:format>image/svg+xml</dc:format><dc:type rdf:resource="http://purl.org/dc/dcmitype/StillImage"/><dc:title/></cc:Work></rdf:RDF></metadata>
<g id="g24" transform="translate(-805.4,-755.5)">
	<path id="path2" d="m1274.8 1694.3c205.7 0 320 0 394.7-74.7s74.7-189 74.7-394.7 0-320-74.7-394.7-189-74.7-394.7-74.7-320 0-394.7 74.7-74.7 189-74.7 394.7 0 320 74.7 394.7 189 74.7 394.7 74.7z" fill="#999"/>
	<g id="g22" fill="#fff">
		<polygon id="polygon4" points="955.1 1227 955.1 1193.4 884 1123.6 955.1 1062.7 955.1 1031.9 852.5 1125.3"/>
		<polygon id="polygon6" points="1125.3 1086 1125.3 1214.4 1149 1227 1149 1031.9 1009.6 1172.8 1009.6 1044.5 985.9 1031.9 985.9 1227"/>
		<polygon id="polygon8" points="1216.1 1214.4 1216.1 1138.6 1323.4 1138.6 1323.4 1214.4 1347 1227 1347 1031.9 1323.4 1044.5 1323.4 1116.3 1216.1 1116.3 1216.1 1044.5 1192.4 1031.9 1192.4 1227"/>
		<path id="path10" d="m1469.9 1034.2c-55 0-94.4 41.5-94.4 95.2 0 56.3 40.7 95.2 94.4 95.2s94.4-40.2 94.4-95.2c0-56.3-40.7-95.2-94.4-95.2zm0 169.3c-39.7 0-70.6-32-70.6-74 0-43.1 30.4-74 70.6-74 39.7 0 70.6 30.9 70.6 74 0 41.7-28.3 74-70.6 74z"/>
		<path id="path12" d="m850.2 1041.8-22.3-11.1c-4.5 53.2-4.5 116.9-4.5 194.2v4.2l23.1-12c0-69.1 0.1-126.8 3.7-175.3z"/>
		<path id="path14" d="m1652.8 846.9c-73.3-73.4-181.6-73.4-378-73.4s-304.6 0-378 73.4c-37.7 37.7-56 84.7-64.9 148.1l21.9 11c7.9-62.5 24.5-107.9 59.4-142.7 66.6-66.6 171.4-66.6 361.7-66.6s295.1 0 361.7 66.6 66.6 171.4 66.6 361.7 0 295.1-66.6 361.7-171.4 66.6-361.7 66.6-295.1 0-361.7-66.6c-63-63-66.4-160.1-66.6-331.4l-23 11.5c0.4 170.3 5.3 268.2 73.3 336.2 73.4 73.4 181.6 73.4 378 73.4s304.6 0 378-73.4 73.4-181.6 73.4-378c-0.2-196.5-0.2-304.7-73.5-378.1z"/>
		<path id="path16" d="m1141.9 1351.8v-91.1l-11.7-6.2v101.8c0 25.6 7.3 46.3 21.1 60.1 12.9 12.9 31.5 19.7 53.7 19.7 19.7 0 36.5-6.2 48.5-17.9 13.9-13.6 21-33.7 21-60v-103.7l-11.7 6.2v92.8c0 46-21.1 72.3-57.8 72.3-39.5 0-63.1-27.6-63.1-74z"/>
		<polygon id="polygon18" points="1327.1 1429.6 1338.8 1423.4 1338.8 1345.3 1458.1 1345.3 1458.1 1423.4 1469.8 1429.6 1469.8 1254.5 1458.1 1260.8 1458.1 1335 1338.8 1335 1338.8 1260.8 1327.1 1254.5"/>
		<path id="path20" d="m1644.7 1276.8c-18-18-44.8-27.1-79.8-27.1-8.3 0-18 0.2-27.4 0.4-7.3 0.2-14.2 0.3-19.9 0.4v183.1c7.8 0 15.9 0.2 23.8 0.3 7.8 0.1 15.1 0.3 21.2 0.3 33.5 0 61-9.6 79.6-27.8 17.1-16.7 26.2-39.8 26.2-66.8 0-25.6-8.2-47.3-23.7-62.8zm-13.2 123.3c-16.2 15.6-39.7 23.8-68 23.8-2.8 0-11.6-0.2-21.8-0.4l-12.4-0.3v-162.2l5.8-0.2c3.3-0.1 6.3-0.2 9.3-0.3 5.9-0.2 12-0.5 19.9-0.5 56.1 0 91 30.5 91 79.6 0 24.6-8.2 45.5-23.8 60.5z"/>
	</g>
</g>
</svg>
