<?xml version="1.0" encoding="UTF-8"?>
<!-- Generator: Adobe Illustrator 16.0.0, SVG Export Plug-In . SVG Version: 6.00 Build 0)  -->
<svg id="svg58" width="233.86" height="144.26" enable-background="new 0 0 283.464 283.464" version="1.1" viewBox="0 0 233.86 144.26" xml:space="preserve" xmlns="http://www.w3.org/2000/svg" xmlns:cc="http://creativecommons.org/ns#" xmlns:dc="http://purl.org/dc/elements/1.1/" xmlns:rdf="http://www.w3.org/1999/02/22-rdf-syntax-ns#"><metadata id="metadata64"><rdf:RDF><cc:Work rdf:about=""><dc:format>image/svg+xml</dc:format><dc:type rdf:resource="http://purl.org/dc/dcmitype/StillImage"/><dc:title/></cc:Work></rdf:RDF></metadata><g id="Logo" transform="translate(-24.803,-69.601)" fill="#fff"><g id="g54" fill="#fff"><g id="g28"><g id="g26" fill="#fff"><g id="g24" fill="#fff"><g id="g22" fill="#fff"><g id="g20" fill="#fff"><g id="g6"><polygon id="polygon2" points="24.803 69.601 80.125 69.601 104.82 113.79 49.508 113.79"/><polygon id="polygon4" points="24.803 164.43 80.125 164.43 104.82 120.24 49.508 120.24"/></g><g id="g12"><polygon id="polygon8" points="101.72 69.601 157.03 69.601 181.73 113.79 126.42 113.79"/><polygon id="polygon10" points="101.72 164.43 157.03 164.43 181.73 120.24 126.42 120.24"/></g><g id="g18"><polygon id="polygon14" points="178.62 69.601 233.94 69.601 258.66 113.79 203.34 113.79"/><polygon id="polygon16" points="178.62 164.43 233.94 164.43 258.66 120.24 203.34 120.24"/></g></g></g></g></g></g><g id="g52"><path id="path30" d="m30.643 199.55h-1.216v10.093h-4.624v-23.628h4.624v10.463l1.08-0.474 6.516-9.989h5.264l-6.885 9.922-1.824 1.285 1.891 1.315 7.865 11.105h-5.704z"/><path id="path32" d="m58.591 196.55 0.271-3.072h-0.172l-1.582 3.171-8.811 12.997h-3.477v-23.628h4.622v12.861l-0.336 3.173h0.202l1.653-3.275 8.812-12.759h3.442v23.628h-4.625v-13.096z"/><path id="path34" d="m80.972 199.76h-8.64v9.889h-4.626v-23.628h4.626v9.619h8.64v-9.619h4.623v23.628h-4.623z"/><path id="path36" d="m88.701 197.83c0-3.938 0.868-6.971 2.601-9.094 1.732-2.127 4.208-3.19 7.427-3.19 1.688 0 3.161 0.291 4.424 0.878 1.257 0.585 2.304 1.419 3.139 2.497 0.83 1.078 1.448 2.374 1.855 3.883 0.404 1.51 0.604 3.185 0.604 5.026 0 3.941-0.869 6.973-2.613 9.1-1.745 2.131-4.214 3.19-7.409 3.19-1.713 0-3.196-0.29-4.455-0.875-1.263-0.586-2.302-1.422-3.122-2.5-0.824-1.08-1.435-2.377-1.84-3.884-0.406-1.505-0.611-3.184-0.611-5.031zm4.861 0c0 1.197 0.104 2.296 0.304 3.295 0.202 1 0.511 1.865 0.931 2.583 0.414 0.72 0.95 1.283 1.602 1.685 0.653 0.406 1.429 0.608 2.33 0.608 1.644 0 2.914-0.641 3.813-1.923 0.901-1.283 1.351-3.361 1.351-6.248 0-1.145-0.098-2.216-0.285-3.206-0.195-0.988-0.491-1.854-0.896-2.599-0.405-0.741-0.934-1.318-1.586-1.737-0.653-0.415-1.453-0.625-2.397-0.625-1.645 0-2.915 0.66-3.816 1.975-0.9 1.317-1.351 3.382-1.351 6.192z"/><path id="path38" d="m117.67 199.55h-1.215v10.093h-4.625v-23.628h4.625v10.463l1.081-0.474 6.512-9.989h5.269l-6.889 9.922-1.821 1.285 1.891 1.315 7.863 11.105h-5.702z"/><path id="path40" d="m129.45 197.83c0-3.938 0.865-6.971 2.603-9.094 1.728-2.127 4.206-3.19 7.427-3.19 1.686 0 3.156 0.291 4.417 0.878 1.26 0.585 2.307 1.419 3.141 2.497 0.832 1.078 1.451 2.374 1.855 3.883 0.408 1.51 0.609 3.185 0.609 5.026 0 3.941-0.875 6.973-2.615 9.1-1.744 2.131-4.214 3.19-7.407 3.19-1.713 0-3.199-0.29-4.46-0.875-1.259-0.586-2.301-1.422-3.123-2.5-0.821-1.08-1.435-2.377-1.841-3.884-0.402-1.505-0.606-3.184-0.606-5.031zm4.858 0c0 1.197 0.104 2.296 0.31 3.295 0.199 1 0.51 1.865 0.925 2.583 0.417 0.72 0.952 1.283 1.603 1.685 0.653 0.406 1.431 0.608 2.334 0.608 1.641 0 2.909-0.641 3.812-1.923 0.898-1.283 1.352-3.361 1.352-6.248 0-1.145-0.1-2.216-0.291-3.206-0.191-0.988-0.486-1.854-0.895-2.599-0.401-0.741-0.933-1.318-1.584-1.737-0.653-0.415-1.453-0.625-2.394-0.625-1.646 0-2.918 0.66-3.818 1.975-0.902 1.317-1.354 3.382-1.354 6.192z"/><path id="path42" d="m170.9 197.39 0.508-4.698h-0.203l-1.453 3.783-5.029 8.813h-1.486l-5.299-8.848-1.486-3.748h-0.168l0.678 4.662v12.286h-4.389v-23.628h4.221l6.311 10.802 1.113 2.701h0.135l1.016-2.769 5.973-10.734h4.186v23.628h-4.625v-12.25z"/><path id="path44" d="m179.98 186.02h14.012v4.118h-9.387v5.501h8.539v4.12h-8.539v5.771h9.553v4.118h-14.178z"/><path id="path46" d="m218.32 213.86h-3.273l-0.506-4.219h-15.196l-0.502 4.219h-3.273v-8.337h2.492c0.162-0.245 0.42-0.798 0.781-1.654 0.357-0.854 0.721-2.063 1.08-3.625 0.357-1.565 0.664-3.525 0.916-5.876 0.242-2.353 0.355-5.138 0.334-8.354h14.145v19.51h3.002zm-7.627-8.337v-15.392h-5.236c-0.133 4.005-0.451 7.287-0.963 9.841-0.5 2.554-1.018 4.402-1.535 5.551z"/><path id="path48" d="m234.46 196.55 0.268-3.072h-0.168l-1.588 3.171-8.813 12.997h-3.471v-23.628h4.623v12.861l-0.336 3.173h0.197l1.654-3.275 8.813-12.759h3.443v23.628h-4.623v-13.096z"/><path id="path50" d="m258.66 209.64h-4.621v-9.348l-2.43 0.639-4.928 8.709h-5.371l4.861-7.864 2.025-1.45c-0.717-0.182-1.395-0.454-2.025-0.828-0.627-0.37-1.18-0.849-1.656-1.437-0.471-0.584-0.838-1.276-1.107-2.075-0.273-0.8-0.41-1.706-0.41-2.717 0-1.416 0.244-2.611 0.748-3.578 0.494-0.969 1.178-1.749 2.057-2.345 0.879-0.597 1.922-1.027 3.139-1.285 1.215-0.259 2.529-0.389 3.951-0.389 0.381 0 0.818 0.013 1.314 0.038 0.496 0.018 1.008 0.054 1.535 0.1 0.529 0.041 1.045 0.102 1.555 0.166 0.502 0.066 0.959 0.157 1.363 0.271zm-6.348-19.851c-0.604 0-1.176 0.058-1.719 0.171-0.539 0.111-1.01 0.303-1.418 0.573-0.402 0.272-0.725 0.644-0.959 1.113-0.234 0.475-0.355 1.082-0.355 1.825 0 0.694 0.113 1.287 0.336 1.772 0.227 0.48 0.543 0.875 0.947 1.182 0.404 0.304 0.879 0.521 1.416 0.66 0.543 0.133 1.129 0.201 1.752 0.201h1.727v-7.327c-0.248-0.047-0.5-0.086-0.762-0.119-0.254-0.03-0.58-0.051-0.965-0.051z"/></g></g></g></svg>
