<svg enable-background="new 0 0 283.464 283.464" version="1.1" viewBox="0 0 233.86 154.69" xml:space="preserve" xmlns="http://www.w3.org/2000/svg"><g transform="translate(-24.801,-64.388)"><g fill="#282828"><polygon points="24.806 64.388 80.127 64.388 104.83 108.58 49.511 108.58"/><polygon points="24.806 159.22 80.127 159.22 104.83 115.03 49.511 115.03"/><polygon points="101.72 64.388 157.04 64.388 181.73 108.58 126.42 108.58"/><polygon points="101.72 159.22 157.04 159.22 181.73 115.03 126.42 115.03"/><polygon points="178.63 64.388 233.94 64.388 258.66 108.58 203.34 108.58"/><polygon points="178.63 159.22 233.94 159.22 258.66 115.03 203.34 115.03"/></g><g fill="#25272a"><path d="m34.073 202.3h-1.932v16.02h-7.34v-37.511h7.34v16.611l1.718-0.749 10.339-15.862h8.359l-10.93 15.758-2.896 2.031 3.005 2.089 12.486 17.633h-9.058z"/><path d="m78.441 197.54 0.43-4.878h-0.266l-2.521 5.041-13.987 20.627h-5.519v-37.511h7.341v20.417l-0.534 5.037h0.318l2.629-5.2 13.987-20.254h5.467v37.511h-7.346v-20.79z"/><path d="m113.97 202.62h-13.724v15.701h-7.339v-37.511h7.339v15.271h13.724v-15.271h7.338v37.511h-7.338z"/><path d="m126.24 199.57c0-6.253 1.373-11.064 4.127-14.447 2.752-3.371 6.677-5.06 11.788-5.06 2.682 0 5.018 0.462 7.021 1.392 1.998 0.931 3.662 2.252 4.985 3.964 1.319 1.718 2.302 3.773 2.947 6.162 0.643 2.395 0.963 5.056 0.963 7.989 0 6.253-1.384 11.064-4.154 14.442-2.768 3.377-6.689 5.063-11.763 5.063-2.714 0-5.075-0.465-7.071-1.396-2.004-0.925-3.653-2.245-4.961-3.962-1.303-1.717-2.274-3.769-2.918-6.163-0.644-2.396-0.964-5.056-0.964-7.984zm7.716 0c0 1.893 0.156 3.635 0.481 5.222 0.32 1.588 0.812 2.957 1.474 4.102 0.66 1.142 1.508 2.037 2.547 2.682 1.036 0.64 2.268 0.963 3.696 0.963 2.608 0 4.626-1.021 6.054-3.057 1.432-2.038 2.146-5.343 2.146-9.911 0-1.823-0.154-3.521-0.452-5.094-0.306-1.568-0.777-2.948-1.423-4.125-0.643-1.179-1.482-2.099-2.519-2.763-1.039-0.658-2.307-0.986-3.806-0.986-2.609 0-4.625 1.043-6.055 3.134-1.432 2.088-2.143 5.363-2.143 9.833z"/><path d="m169.98 199.25-10.457-18.433h8.845l5.789 10.826 1.287 3.807 1.232-3.807 6.056-10.826h7.985l-10.827 18.062 11.36 19.449h-8.731l-6.594-11.575-1.448-3.964-1.394 3.964-6.645 11.575h-7.983z"/><path d="m217.56 197.54 0.428-4.878h-0.266l-2.518 5.041-13.989 20.627h-5.519v-37.511h7.342v20.417l-0.535 5.037h0.32l2.629-5.2 13.987-20.254h5.465v37.511h-7.345v-20.79z"/><path d="m258.66 187.35h-10.929v30.973h-7.34v-30.973h-10.989v-6.538h29.258z"/></g></g></svg>
