<?xml version="1.0" encoding="UTF-8"?>
<svg id="svg29" width="180.02pt" height="50.712pt" version="1.1" viewBox="0 0 180.02 50.712" xmlns="http://www.w3.org/2000/svg" xmlns:cc="http://creativecommons.org/ns#" xmlns:dc="http://purl.org/dc/elements/1.1/" xmlns:rdf="http://www.w3.org/1999/02/22-rdf-syntax-ns#">
 <metadata id="metadata35">
  <rdf:RDF>
   <cc:Work rdf:about="">
    <dc:format>image/svg+xml</dc:format>
    <dc:type rdf:resource="http://purl.org/dc/dcmitype/StillImage"/>
    <dc:title/>
   </cc:Work>
  </rdf:RDF>
 </metadata>
 <path id="path15" d="m67.431 0.39588 4.6427-0.0035-4e-3 7.1067 7.5019-7.0803 5.3949-0.04591-8.0195 10.122 8.8344 9.0957-6.5483 0.0018-7.1653-8.4855-4e-3 8.4837h-4.6204z" fill="#f5cf58" stroke-width=".18895"/>
 <path id="path17" d="m86.458 0.54772 4.3612-0.0035 0.038 11.343 7.7075-11.332 4.9559-0.0071-0.0114 19.194h-4.3231l0.0114-12.387-8.1701 12.387h-4.5597z" fill="#f5cf58" stroke-width=".18321"/>
 <path id="path19" d="m106.21 0.39802 4.3888-0.0053-8e-3 6.8967h8.2936l2e-3 -6.8914 4.3697-0.0071-4e-3 19.199-4.3678 0.0018 2e-3 -8.2261-8.2975 0.0018 2e-3 8.2226-4.3735 0.0018z" fill="#f5cf58" stroke-width=".18379"/>
 <path id="path13" d="m133.02 0.11093c2.4965-0.32311 5.2234 0.02119 7.2718 1.5432 2.1518 1.499 3.3147 4.031 3.5633 6.5435 0.23223 2.4313 0.0998 5.0021-1.045 7.2197-1.1031 2.1876-3.2494 3.8509-5.706 4.3541-2.6271 0.52793-5.55 0.26485-7.7997-1.2518-2.1608-1.4125-3.4-3.8632-3.7266-6.3298-0.31388-2.629-0.18869-5.4399 1.1122-7.8235 1.2392-2.3077 3.6722-3.9462 6.3301-4.2552m0.48806 3.2682c-0.91805 0.20658-1.7581 0.71508-2.364 1.4143-1.2337 1.3966-1.4896 3.3194-1.5131 5.0956 2e-3 1.9034 0.24674 4.0151 1.6546 5.4629 1.651 1.7727 4.8134 1.8751 6.5714 0.19775 1.1811-1.0329 1.6474-2.6026 1.8107-4.091 0.15059-1.7286 0.11067-3.5295-0.54067-5.168-0.43362-1.1459-1.3299-2.1276-2.4711-2.6449-0.98154-0.42375-2.1064-0.49614-3.1478-0.26661z" fill="#f5cf58" stroke-width=".17898"/>
 <path id="path10-1" d="m149.96 0.39452v44.127h30.06v-44.127zm15.604 4.8677c0.9382 0.01504 1.8746 0.10292 2.7934 0.26513 1.5936 0.30384 3.1551 0.93099 4.2876 1.9893 1.0819 1.0033 1.7312 2.3164 2.0391 3.6636 0.35586 1.4355 0.30796 2.9144 0.31054 4.374v3.8892l-19.307-0.0015c0.0117-1.8345 0.012-3.6704 0.0146-5.5049 0.013-2.0524 0.39747-4.2203 1.8105-5.9092 1.226-1.4825 3.2312-2.3133 5.2456-2.5942 0.92603-0.12841 1.867-0.18643 2.8052-0.17138zm-0.29151 2.7217c-1.6117-0.01215-3.2384 0.21324-4.6216 0.96826-1.0975 0.56756-1.693 1.6438-1.9541 2.7056-0.40523 1.6797-0.19479 3.4049-0.24024 5.1064l13.792 0.0015 3e-3 -2.4727c-5e-3 -1.4768-0.10518-3.0613-1.0649-4.3271-0.96108-1.2326-2.7142-1.7133-4.3169-1.9014-0.52439-0.04586-1.0594-0.07652-1.5967-0.08057zm-9.665 16.065 19.578 0.0029v2.7349h-8.9546v8.25h8.9531v2.7129h-19.572v-2.7173l7.8208 0.0044-1e-3 -8.25-7.8223 0.0044z" fill="#f5cf58"/>
 <path id="path25" d="m0 24.391 17.119-0.0055-0.0058 20.055-4.3599 0.0019v-15.94h-8.3529l0.0019 15.938-4.3906 0.0019z" fill="#f5cf58" stroke-width=".18822"/>
 <path id="path21" d="m27.556 24.394c2.3735-0.49016 5.071-0.07878 6.9344 1.4617 1.9361 1.6105 2.8817 4.0368 3.1089 6.4124 0.23456 2.4701 0.04468 5.0697-1.1486 7.3209-1.1225 2.127-3.2206 3.8845-5.7505 4.3117-2.2749 0.40088-4.9146 0.05077-6.5454-1.6228v8.3836h-4.2798v-26.075h4.2779l0.0037 2.1077c0.84888-1.0714 1.977-2.0079 3.3993-2.3003m-3.4216 5.9362-0.0056 8.4623c1.1393 1.1799 2.77 1.9712 4.4808 1.9992 1.2696 0.09104 2.5783-0.4534 3.3248-1.4285 1.1114-1.3777 1.3459-3.1738 1.4167-4.8508 0.02978-1.8556-0.07819-3.8408-1.156-5.4566-0.74464-1.1186-2.1725-1.7716-3.5705-1.6175-1.923 0.13654-3.4384 1.474-4.4902 2.892z" fill="#f5cf58" stroke-width=".18052"/>
 <path id="path23" d="m42.611 26.01c2.0007-1.7678 4.7842-2.2276 7.3166-1.8356 2.092 0.28028 4.0418 1.4509 5.3335 3.1875 1.748 2.321 2.0516 5.3931 1.9814 8.2454l-13.815 0.0036c0.10706 1.8374 0.75992 3.7829 2.264 4.8692 1.2847 0.98007 3.0028 1.1449 4.5086 0.71078 0.80555-0.25097 1.5971-0.69429 2.0867-1.4289 0.36504-0.54041 0.45104-1.2109 0.53352-1.8502h4.0786c-0.20534 1.8246-0.90734 3.6711-2.2885 4.8692-2.0849 1.8099-4.9754 2.2917-7.6009 1.918-2.3464-0.28761-4.5858-1.6066-5.9372-3.6455-1.5549-2.2551-1.8937-5.1605-1.7146-7.8662 0.15795-2.6984 1.1864-5.4591 3.2538-7.1774m2.4675 2.7625c-0.90909 0.9013-1.3566 2.1671-1.5971 3.422l9.5859 0.0036c-0.23868-1.6121-1.046-3.1747-2.3815-4.0687-1.7182-1.1266-4.1822-0.88664-5.6072 0.643z" fill="#f5cf58" stroke-width=".1793"/>
 <path id="path27-0-3" d="m59.321 24.382 5.5325 0.0055 5.3934 13.596 5.3933-13.597 5.5397-0.0037 2e-3 20.04h-4.1322l-0.0234-12.79-5.0266 12.79h-3.5106l-4.9977-12.91-0.0362 12.91h-4.1358z" fill="#f5cf58" stroke-width=".18251"/>
 <path id="path17-37" d="m83.823 24.405 4.3612-0.0037 0.038 11.834 7.7075-11.823 4.9559-0.0074-0.0114 20.027h-4.3231l0.0114-12.924-8.1701 12.924h-4.5597z" fill="#f5cf58" stroke-width=".18714"/>
 <path id="path31" d="m101.93 24.422h4.5606l5.1113 13.839 4.9463-13.839h4.5818l-9.9726 26.29h-4.6574l2.6851-7.0716z" fill="#f5cf58" stroke-width=".184"/>
 <path id="path27-0" d="m122.14 24.481 5.5325 0.0055 5.3934 13.596 5.3933-13.597 5.5397-0.0037 2e-3 20.041h-4.1322l-0.0234-12.79-5.0266 12.79h-3.5106l-4.9977-12.91-0.0362 12.91h-4.1358z" fill="#f5cf58" stroke-width=".18251"/>
</svg>
