<?xml version="1.0" encoding="UTF-8"?>
<!-- Generator: Adobe Illustrator 16.0.0, SVG Export Plug-In . SVG Version: 6.00 Build 0)  -->
<svg id="svg54" width="233.86" height="149.24" enable-background="new 0 0 283.464 283.464" version="1.1" viewBox="0 0 233.86 149.24" xml:space="preserve" xmlns="http://www.w3.org/2000/svg" xmlns:cc="http://creativecommons.org/ns#" xmlns:dc="http://purl.org/dc/elements/1.1/" xmlns:rdf="http://www.w3.org/1999/02/22-rdf-syntax-ns#"><metadata id="metadata60"><rdf:RDF><cc:Work rdf:about=""><dc:format>image/svg+xml</dc:format><dc:type rdf:resource="http://purl.org/dc/dcmitype/StillImage"/><dc:title/></cc:Work></rdf:RDF></metadata><g id="Logo" transform="translate(-24.803,-67.111)"><g id="g50"><g id="g28"><g id="g26"><g id="g24"><g id="g22"><g id="g20" fill="#282828"><g id="g6"><polygon id="polygon2" points="24.803 67.111 80.125 67.111 104.82 111.3 49.508 111.3"/><polygon id="polygon4" points="24.803 161.94 80.125 161.94 104.82 117.75 49.508 117.75"/></g><g id="g12"><polygon id="polygon8" points="101.72 67.111 157.03 67.111 181.73 111.3 126.42 111.3"/><polygon id="polygon10" points="101.72 161.94 157.03 161.94 181.73 117.75 126.42 117.75"/></g><g id="g18"><polygon id="polygon14" points="178.62 67.111 233.94 67.111 258.66 111.3 203.34 111.3"/><polygon id="polygon16" points="178.62 161.94 233.94 161.94 258.66 117.75 203.34 117.75"/></g></g></g></g></g></g><g id="g48"><g id="g46" fill="#282828"><path id="path30" d="m32.757 201.96h-1.652v13.746h-6.302v-32.185h6.302v14.252l1.471-0.644 8.874-13.608h7.169l-9.379 13.518-2.481 1.75 2.576 1.791 10.71 15.126h-7.769z"/><path id="path32" d="m70.832 197.87 0.366-4.187h-0.23l-2.163 4.324-12.001 17.701h-4.731v-32.185h6.298v17.52l-0.457 4.32h0.272l2.253-4.462 12-17.378h4.691v32.185h-6.298z"/><path id="path34" d="m101.31 202.24h-11.769v13.471h-6.302v-32.185h6.302v13.104h11.769v-13.104h6.299v32.185h-6.299z"/><path id="path36" d="m111.84 199.62c0-5.364 1.179-9.494 3.541-12.395 2.362-2.895 5.73-4.341 10.119-4.341 2.298 0 4.304 0.394 6.023 1.194 1.713 0.794 3.144 1.929 4.274 3.402 1.134 1.474 1.976 3.234 2.53 5.29 0.552 2.053 0.825 4.338 0.825 6.849 0 5.364-1.188 9.496-3.562 12.391-2.375 2.897-5.74 4.348-10.092 4.348-2.329 0-4.358-0.4-6.071-1.198-1.72-0.794-3.136-1.928-4.254-3.402-1.12-1.471-1.955-3.233-2.507-5.286s-0.826-4.336-0.826-6.852zm6.62 0c0 1.625 0.138 3.123 0.417 4.482 0.276 1.362 0.696 2.537 1.262 3.52 0.572 0.979 1.296 1.747 2.188 2.299 0.889 0.549 1.945 0.828 3.174 0.828 2.234 0 3.968-0.872 5.192-2.622 1.229-1.746 1.841-4.583 1.841-8.507 0-1.562-0.131-3.019-0.391-4.368-0.259-1.347-0.666-2.531-1.222-3.54-0.552-1.014-1.271-1.805-2.16-2.366-0.892-0.568-1.976-0.854-3.261-0.854-2.238 0-3.975 0.898-5.199 2.691-1.225 1.793-1.841 4.604-1.841 8.437z"/><path id="path38" d="m168.31 199.02 0.688-6.391h-0.273l-1.975 5.146-6.852 12.004h-2.023l-7.221-12.048-2.025-5.102h-0.23l0.922 6.343v16.735h-5.979v-32.185h5.75l8.6 14.716 1.514 3.675h0.188l1.377-3.769 8.141-14.622h5.697v32.185h-6.297v-16.687z"/><path id="path40" d="m199.44 197.87 0.367-4.187h-0.229l-2.16 4.324-12.002 17.701h-4.738v-32.185h6.305v17.52l-0.461 4.32h0.275l2.252-4.462 12-17.378h4.693v32.185h-6.303v-17.838z"/><path id="path42" d="m219.81 201.96h-1.652v13.746h-6.305v-32.185h6.305v14.252l1.469-0.644 8.871-13.608h7.172l-9.375 13.518-2.484 1.75 2.574 1.791 10.715 15.126h-7.77z"/><path id="path44" d="m258.66 214.39c-0.982 0.7-2.227 1.201-3.744 1.508-1.521 0.303-3.076 0.454-4.672 0.454-1.932 0-3.762-0.3-5.492-0.898-1.729-0.596-3.258-1.562-4.576-2.897-1.32-1.333-2.365-3.063-3.15-5.192-0.781-2.131-1.17-4.715-1.17-7.75 0-3.16 0.434-5.799 1.309-7.929 0.875-2.134 2.008-3.85 3.404-5.152 1.391-1.303 2.945-2.238 4.668-2.807 1.717-0.565 3.43-0.848 5.148-0.848 1.838 0 3.393 0.121 4.666 0.363 1.271 0.249 2.324 0.542 3.148 0.878l-1.238 5.334c-0.707-0.336-1.541-0.582-2.51-0.737-0.967-0.151-2.135-0.231-3.514-0.231-2.545 0-4.59 0.908-6.141 2.719-1.545 1.813-2.322 4.624-2.322 8.434 0 1.659 0.182 3.173 0.551 4.536 0.367 1.366 0.93 2.537 1.68 3.507 0.75 0.966 1.686 1.716 2.807 2.255 1.113 0.538 2.412 0.808 3.887 0.808 1.377 0 2.541-0.142 3.494-0.414 0.947-0.279 1.775-0.63 2.482-1.061z"/></g></g></g></g></svg>
