<svg width="800" height="181.01" version="1.1" viewBox="0 0 800 181.01" xmlns="http://www.w3.org/2000/svg">
 <defs>
  <style>.a{fill:#ed831f;}</style>
 </defs>
 <path class="a" d="m637.08 90.493a74.186 74.186 0 1 1-74.186-74.186 74.186 74.186 0 0 1 74.186 74.186zm-74.186-27.107a27.107 27.107 0 1 0 27.107 27.107 27.107 27.107 0 0 0-27.107-27.1zm181.66-43.871h55.443v141.97h-55.443zm-336.23 0h55.443v141.97h-55.443zm-40 141.97-83.807-145.18-83.807 145.19h55.443l28.364-49.129 28.336 49.129zm-368.33-141.96h55.443v141.97h-55.443zm160.94 161.49-75.943-90.493 75.929-90.521m495.71 19.521 40.964 70.986h22.014v-70.986z" fill="#ed831f" stroke-width="7.1429"/>
</svg>
