<svg width="579.85" height="391.05" version="1.1" viewBox="0 0 579.85 391.05" xml:space="preserve" xmlns="http://www.w3.org/2000/svg">
<g transform="translate(-690.84 -363.62)">
	<path d="m1189.5 452.1c24.9-2.9 67.5 2.5 77.5 23 40.3 86.2-259.2 319.4-432.5 273.7s-152.2-204.4-126.5-233.8c27.3-31.2 95.4-15.8 78.4 18.5s-30.7 150.3 50.5 165.5c77.9 14.6 205.1-72 265.1-134.6 50.3-48.5 62.6-109.4 87.5-112.3"/>
	<path d="m860.5 408.9c-3.5 10.8-37.5 140.2-34 160.1 1.5 8.6 58.3 25.8 61.1 11.7 5.8-47.2 17.7-115.8 29.4-164.5 2.4-16.5-51.8-22.1-56.5-7.3"/>
	<path d="m934.5 551.8c-0.1-22.9 16.4-134.3 34.5-182.4 6-11.1 56.4-5 52.5 8.1-15 50.7-21.2 162.7-21.2 182.4-0.1 14.8-65.7 6.1-65.8-8.1"/>
</g>
</svg>
