<?xml version="1.0" encoding="UTF-8"?>
<!-- Generator: Adobe Illustrator 22.1.0, SVG Export Plug-In . SVG Version: 6.00 Build 0)  -->
<svg id="Layer_1" width="290.8" height="417.8" version="1.1" viewBox="0 0 290.8 417.8" xml:space="preserve" xmlns="http://www.w3.org/2000/svg" xmlns:cc="http://creativecommons.org/ns#" xmlns:dc="http://purl.org/dc/elements/1.1/" xmlns:rdf="http://www.w3.org/1999/02/22-rdf-syntax-ns#"><metadata id="metadata29"><rdf:RDF><cc:Work rdf:about=""><dc:format>image/svg+xml</dc:format><dc:type rdf:resource="http://purl.org/dc/dcmitype/StillImage"/><dc:title/></cc:Work></rdf:RDF></metadata>
<path id="path2" d="m118.1 7c-0.1-0.5-0.3-0.9-0.6-1.3-0.3-0.3-0.6-0.6-1-0.8s-1-0.3-1.7-0.3c-1.1 0-1.9 0.4-2.6 1.1s-1.1 1.7-1.2 2.8h7.2c0.1-0.5 0-1-0.1-1.5zm-56.8 0c-0.1-0.5-0.3-0.9-0.6-1.3-0.3-0.3-0.6-0.6-1-0.8s-1-0.3-1.7-0.3c-1.1 0-1.9 0.4-2.6 1.1s-1.1 1.7-1.2 2.8h7.2c0-0.5 0-1-0.1-1.5zm167.2 9.6c0.3 0 0.5 0 0.8-0.1 0.3 0 0.6-0.1 0.9-0.2s0.6-0.1 0.8-0.3v-4.7h-3c-0.4 0-0.7 0-1.2 0.1-0.4 0.1-0.8 0.2-1.1 0.4s-0.6 0.5-0.9 0.8c-0.2 0.4-0.3 0.8-0.3 1.5 0 0.9 0.3 1.5 0.9 1.9s1.4 0.5 2.4 0.5c0.2 0.2 0.4 0.2 0.7 0.1zm-57.6 0c0.3 0 0.5 0 0.8-0.1 0.3 0 0.6-0.1 0.9-0.2s0.6-0.1 0.8-0.3v-4.7h-3c-0.4 0-0.7 0-1.2 0.1-0.4 0.1-0.8 0.2-1.1 0.4s-0.6 0.5-0.9 0.8c-0.2 0.4-0.3 0.8-0.3 1.5 0 0.9 0.3 1.5 0.9 1.9s1.4 0.5 2.4 0.5c0.3 0.2 0.5 0.2 0.7 0.1zm19.3 3.3v-18.7c0-0.5 0.3-0.7 0.8-0.7h3.8c0.4 0 0.6 0 0.7 0.1s0.2 0.3 0.2 0.6v6.6h7.2v-6.6c0-0.5 0.3-0.7 0.8-0.7h3.8c0.4 0 0.6 0 0.7 0.1s0.2 0.3 0.2 0.6v18.7c0 0.3-0.1 0.5-0.2 0.6s-0.3 0.1-0.7 0.1h-3.8c-0.6 0-0.8-0.3-0.8-0.8v-7.7h-7.2v7.7c0 0.3-0.1 0.5-0.2 0.6s-0.4 0.1-0.7 0.1h-3.8c-0.5 0.2-0.8-0.1-0.8-0.6zm-56.2 0.7c-0.1-0.1-0.2-0.2-0.2-0.5v-19c0-0.3 0.1-0.5 0.2-0.5 0.1-0.1 0.3-0.1 0.5-0.1h4.2c0.3 0 0.4 0 0.5 0.1s0.2 0.2 0.2 0.5v6.7h1.8c0.7 0 1.3-0.2 1.8-0.5 0.6-0.3 1-1 1.4-2.1l1.3-4.2c0.1-0.2 0.1-0.4 0.3-0.4 0.1-0.1 0.3-0.1 0.4-0.1h4.3c0.3 0 0.4 0.1 0.4 0.2v0.4l-1.4 5c-0.2 0.8-0.5 1.5-0.9 2.1s-1 1.1-1.8 1.4v0.1c0.6 0.2 1 0.3 1.4 0.6s0.7 0.5 0.9 0.8 0.4 0.6 0.6 1 0.3 0.8 0.4 1.2l2 6.7v0.4c0 0.2-0.2 0.3-0.5 0.3h-4.4c-0.1 0-0.2 0-0.4-0.1-0.1-0.1-0.2-0.2-0.3-0.4l-1.8-5.9c-0.3-0.8-0.7-1.4-1.2-1.7-0.6-0.3-1.2-0.5-2-0.5h-2.2v8c0 0.3-0.1 0.5-0.2 0.5-0.1 0.1-0.3 0.1-0.5 0.1h-4.2c-0.3 0-0.5-0.1-0.6-0.1zm-105.8-0.7v-14.9h-5.5c-0.5 0-0.8-0.3-0.8-0.8v-2.8c0-0.4 0-0.6 0.1-0.7s0.3-0.2 0.6-0.2h16.6c0.3 0 0.5 0.1 0.6 0.2s0.2 0.4 0.2 0.7v2.8c0 0.6-0.3 0.8-0.8 0.8h-5.6v14.9c0 0.3-0.1 0.5-0.2 0.6s-0.4 0.1-0.7 0.1h-3.8c-0.4 0.1-0.7-0.2-0.7-0.7zm195.2 0.7c-1.1-0.3-2.1-0.8-2.8-1.4s-1.2-1.3-1.5-2c-0.3-0.8-0.4-1.6-0.4-2.5 0-1 0.2-1.9 0.5-2.8 0.3-0.8 0.8-1.6 1.5-2.2s1.5-1.1 2.5-1.4 2.2-0.5 3.6-0.5h4.2v-0.6c0-0.4 0-0.7-0.1-1s-0.2-0.6-0.5-0.9c-0.2-0.2-0.6-0.4-1-0.6s-1-0.2-1.7-0.2c-0.4 0-0.8 0-1.3 0.1-0.5 0-1 0.1-1.5 0.2s-1 0.1-1.4 0.2-0.9 0.2-1.2 0.3-0.6 0.1-0.7 0-0.2-0.2-0.3-0.5l-0.6-2.7c-0.1-0.3-0.1-0.5 0-0.6s0.2-0.2 0.4-0.3c1.2-0.4 2.4-0.7 3.6-0.9 1.3-0.2 2.5-0.3 3.8-0.3 2.8 0 4.9 0.6 6.2 1.8s2 3 2 5.3v11.2c0 0.3 0 0.6-0.1 0.8s-0.3 0.4-0.7 0.7c-0.6 0.3-1.2 0.5-1.9 0.7s-1.4 0.3-2.1 0.4-1.4 0.2-2.1 0.2c-0.7 0.1-1.4 0.1-2 0.1-1.8-0.1-3.3-0.3-4.4-0.6zm-57.6 0c-1.1-0.3-2.1-0.8-2.8-1.4s-1.2-1.3-1.5-2c-0.3-0.8-0.4-1.6-0.4-2.5 0-1 0.2-1.9 0.5-2.8 0.3-0.8 0.8-1.6 1.5-2.2s1.5-1.1 2.5-1.4 2.2-0.5 3.6-0.5h4.2v-0.6c0-0.4 0-0.7-0.1-1s-0.2-0.6-0.5-0.9c-0.2-0.2-0.6-0.4-1-0.6s-1-0.2-1.7-0.2c-0.4 0-0.8 0-1.3 0.1-0.5 0-1 0.1-1.5 0.2s-1 0.1-1.4 0.2-0.9 0.2-1.2 0.3-0.6 0.1-0.7 0-0.2-0.2-0.3-0.5l-0.6-2.7c-0.1-0.3-0.1-0.5 0-0.6s0.2-0.2 0.4-0.3c1.2-0.4 2.4-0.7 3.6-0.9 1.3-0.2 2.5-0.3 3.8-0.3 2.8 0 4.9 0.6 6.2 1.8s2 3 2 5.3v11.2c0 0.3 0 0.6-0.1 0.8s-0.3 0.4-0.7 0.7c-0.6 0.3-1.2 0.5-1.9 0.7s-1.4 0.3-2.1 0.4-1.4 0.2-2.1 0.2c-0.7 0.1-1.4 0.1-2 0.1-1.8-0.1-3.2-0.3-4.4-0.6zm-58.2-2c-1.6-1.7-2.4-4.3-2.4-7.9 0-1.7 0.2-3.2 0.7-4.5 0.4-1.3 1.1-2.4 1.9-3.4 0.8-0.9 1.8-1.6 3-2.1s2.5-0.7 3.9-0.7c3 0 5.3 0.8 6.8 2.3s2.3 3.7 2.3 6.4c0 1.3-0.3 2.2-0.8 2.7s-1.2 0.7-2.1 0.7h-9.9c0 0.8 0.2 1.5 0.4 2s0.6 1 1 1.3 0.9 0.6 1.4 0.7c0.6 0.1 1.1 0.2 1.8 0.2s1.5-0.1 2.3-0.3 1.5-0.4 2.2-0.7c0.3-0.1 0.5-0.1 0.6-0.1s0.2 0.2 0.3 0.4l1.2 2.8c0.1 0.2 0.1 0.4 0.1 0.5-0.1 0.1-0.2 0.3-0.4 0.4-0.9 0.6-2.1 1.1-3.3 1.3-1.3 0.3-2.4 0.4-3.5 0.4-3.4 0.1-5.9-0.7-7.5-2.4zm-56.9 0c-1.6-1.7-2.4-4.3-2.4-7.9 0-1.7 0.2-3.2 0.7-4.5 0.4-1.3 1.1-2.4 1.9-3.4 0.8-0.9 1.8-1.6 3-2.1s2.5-0.7 3.9-0.7c3 0 5.3 0.8 6.8 2.3s2.3 3.7 2.3 6.4c0 1.3-0.3 2.2-0.8 2.7s-1.2 0.7-2.1 0.7h-9.9c0 0.8 0.2 1.5 0.4 2s0.6 1 1 1.3 0.9 0.6 1.4 0.7c0.6 0.1 1.1 0.2 1.8 0.2s1.5-0.1 2.3-0.3 1.5-0.4 2.2-0.7c0.3-0.1 0.5-0.1 0.6-0.1s0.2 0.2 0.3 0.4l1.2 2.8c0.1 0.2 0.1 0.4 0.1 0.5-0.1 0.1-0.2 0.3-0.4 0.4-0.9 0.6-2.1 1.1-3.3 1.3-1.3 0.3-2.4 0.4-3.5 0.4-3.4 0.1-5.9-0.7-7.5-2.4zm196.5 2.9c-0.2-0.1-0.3-0.3-0.4-0.5l-1-2.6c-0.1-0.3-0.2-0.6-0.1-0.7 0-0.1 0.2-0.3 0.6-0.5 0.7-0.3 1.3-0.7 1.7-1 0.4-0.4 0.8-0.9 1-1.7 0.3-0.7 0.5-1.7 0.6-2.9 0.2-1.2 0.3-2.8 0.4-4.7l0.3-4.2c0.1-0.8 0.3-1.4 0.6-1.8 0.3-0.3 0.9-0.5 1.8-0.5h10.7c0.9 0 1.5 0.2 1.8 0.6s0.5 1 0.5 1.8v17.1c0 0.3-0.1 0.5-0.2 0.6s-0.4 0.1-0.7 0.1h-3.9c-0.4 0-0.6-0.1-0.7-0.2s-0.2-0.3-0.2-0.6v-14.9h-4.7l-0.1 2c-0.1 2.2-0.3 4.2-0.5 5.8s-0.6 3-1 4.1c-0.5 1.1-1.2 2.1-2.1 2.8s-2.1 1.3-3.6 1.8c-0.4 0.2-0.7 0.2-0.8 0.1zm-170.8 0c-0.2-0.1-0.3-0.3-0.4-0.5l-1-2.6c-0.1-0.3-0.2-0.6-0.1-0.7 0-0.1 0.2-0.3 0.6-0.5 0.7-0.3 1.3-0.7 1.7-1 0.4-0.4 0.8-0.9 1-1.7 0.3-0.7 0.5-1.7 0.6-2.9 0.2-1.2 0.3-2.8 0.4-4.7l0.3-4.2c0.1-0.8 0.3-1.4 0.6-1.8 0.3-0.3 0.9-0.5 1.8-0.5h10.7c0.9 0 1.5 0.2 1.8 0.6s0.5 1 0.5 1.8v17.1c0 0.3-0.1 0.5-0.2 0.6s-0.4 0.1-0.7 0.1h-3.9c-0.4 0-0.6-0.1-0.7-0.2s-0.2-0.3-0.2-0.6v-14.9h-4.7l-0.1 2c-0.1 2.2-0.3 4.2-0.5 5.8s-0.6 3-1 4.1c-0.5 1.1-1.2 2.1-2.1 2.8s-2.1 1.3-3.6 1.8c-0.4 0.2-0.6 0.2-0.8 0.1z" fill="#f6c02f"/>
<path id="path4" d="m101.2 163.2 16-55.2 49.4 49.1 2.9 23.9 16.9-31.2 24.3-41.8 80 80.4c-4-76.7-67.6-137.8-145.3-137.8-80.3 0-145.4 65.1-145.4 145.4 0 77.4 60.5 140.7 136.8 145.2l-59.6-58.4z" fill="#f2bc26"/>
<path id="path6" d="m290.8 196.1c0-2.6-0.1-5.1-0.2-7.6l-80-80.4-24.3 41.8-16.9 31.2-2.9-23.9-49.4-49.1-16 55.2-24 119.7 59.6 58.4c2.8 0.1 5.7 0.3 8.6 0.3 80.4-0.2 145.5-65.3 145.5-145.6z" fill="#eca023"/>
<path id="path8" d="m225.9 282.3c-1.8 0.4-3.6 0.9-5.5 1.1-7.2 0.8-14.4 1.1-21.7 0.3-6.1-0.7-11.9-2.5-17.1-5.7-2.7-1.7-5.1-3.7-7.3-6.1-6.8-7.3-10.7-16.1-14.4-25.2-2.1-5.1-4.2-10.1-6.5-15.1-1.6-3.6-3.6-7-6.2-9.9-3.6-4.1-7.9-6.6-13.4-7.3s-11-0.4-16.8-0.4v68.9h-40v-174.8h40v73.9h1.1c5.2 0 10.5 0.1 15.8-0.1 3.9-0.1 7.7-1 11.3-2.6 6.9-3.1 11.7-8.3 15.3-14.8 3.3-6 5.3-12.5 6.8-19.2 1.4-6.7 2.4-13.4 2.7-20.3 0.2-4.7 0.4-9.5 0.6-14.2v-2.7h39.9v1.9c0 7.9-0.5 15.7-1.6 23.4-1.5 11.4-4.1 22.5-8.9 33.1-3.6 8-8.2 15.3-14.4 21.4-2.5 2.5-5.5 4.5-8.3 6.7-0.7 0.6-1.5 1-2.4 1.6 0.5 0.5 0.9 0.9 1.4 1.3 5.7 4.2 9.9 9.6 13 15.9 2.6 5.3 4.8 10.8 7.1 16.2 2 4.8 3.9 9.5 6.9 13.8 3.7 5.5 9 8 15.5 8.1h7.1v30.8z" fill="#fff"/>
<g id="g843" fill="#f2bc26"><path id="path10" d="m42.8 386.7c1 0.4 1.8 0.8 2.5 1.2 0.6 0.5 1.2 1 1.6 1.5 0.4 0.6 0.8 1.3 1 2 0.3 0.7 0.5 1.5 0.7 2.4l3.6 13.6c0.1 0.2 0.1 0.4 0 0.7s-0.4 0.4-0.9 0.4h-6.8c-0.2 0-0.4 0-0.6-0.1-0.3-0.1-0.4-0.3-0.5-0.7l-3.6-12.6c-0.3-1-0.7-1.9-1.1-2.5s-0.9-1.1-1.5-1.5-1.3-0.6-2.1-0.7-1.7-0.2-2.7-0.2h-4.8v17.4c0 0.4-0.1 0.7-0.2 0.8-0.2 0.1-0.4 0.1-0.8 0.1h-6.6c-0.3 0-0.6-0.1-0.8-0.1-0.2-0.1-0.3-0.4-0.3-0.8v-39.1c0-0.4 0.1-0.7 0.3-0.8s0.4-0.1 0.8-0.1h6.9c0.4 0 0.7 0 0.8 0.1s0.2 0.4 0.1 0.8v14.9h4.7c0.6 0 1.2 0 1.8-0.1s1.3-0.3 1.9-0.7 1.2-0.9 1.7-1.6 0.9-1.7 1.2-2.9l2.7-9.9c0.1-0.4 0.3-0.6 0.5-0.7 0.3-0.1 0.5-0.1 0.7-0.1h6.6c0.5 0 0.8 0.2 0.8 0.4 0.1 0.3 0.1 0.6 0 0.7l-2.7 10.5c-0.8 3.4-2.4 5.8-5 7.3v0.4z"/><path id="path12" d="m86.3 393c0 5.2-1.2 9.1-3.7 11.9-2.4 2.8-6.2 4.3-11.3 4.3s-8.8-1.4-11.1-4.3c-2.3-2.8-3.5-6.7-3.5-11.8 0-2.5 0.4-4.7 1-6.8 0.7-2 1.7-3.7 2.9-5.1 1.3-1.4 2.8-2.4 4.6-3.2 1.8-0.7 3.9-1.1 6.2-1.1 4.9 0 8.6 1.4 11.1 4.2 2.6 3 3.8 6.9 3.8 11.9zm-8.8 0.2c0-1.3-0.1-2.5-0.3-3.6s-0.5-2-1-2.8c-0.4-0.8-1-1.4-1.8-1.9s-1.7-0.7-2.8-0.7c-2.1 0-3.6 0.8-4.6 2.4s-1.5 3.7-1.5 6.4c0 2.9 0.4 5.2 1.4 6.7 0.9 1.5 2.4 2.3 4.5 2.3 1.1 0 2-0.2 2.8-0.7 0.8-0.4 1.4-1.1 1.9-1.9s0.8-1.7 1-2.8c0.3-1 0.4-2.1 0.4-3.4z"/><path id="path14" d="m120.9 391.1-2.4 5.6-2.9 6.2c-0.4 0.8-0.8 1.3-1.2 1.6-0.5 0.3-1.1 0.4-1.9 0.4h-2.9c-0.9 0-1.6-0.1-2-0.4s-0.8-0.8-1.1-1.6l-2.8-6.1-2.4-5.4h-0.2v16c0 0.5-0.1 0.8-0.3 0.9s-0.5 0.2-1 0.2h-5.8c-0.4 0-0.8-0.1-1-0.2s-0.3-0.4-0.3-0.9v-26.3c0-2.3 1.2-3.4 3.5-3.4h3.6c0.8 0 1.5 0.1 2.1 0.4s1.1 0.9 1.6 1.9l4.2 8.9 3 6.8h0.4l3.3-7.3 3.9-8c0.5-1 1-1.7 1.6-2.1s1.5-0.6 2.6-0.6h3.3c2.4 0 3.5 1.1 3.5 3.3v26.4c0 0.5-0.1 0.8-0.3 0.9s-0.5 0.2-1 0.2h-5.8c-0.4 0-0.7-0.1-1-0.2-0.2-0.1-0.3-0.4-0.3-0.9v-16.4z"/><path id="path16" d="m150.5 377c4.5 0 8 1.1 10.3 3.4s3.4 5.6 3.4 9.8c0 2-0.4 3.4-1.2 4.2-0.8 0.7-1.9 1.1-3.2 1.1h-15c0 1.2 0.2 2.3 0.6 3.1s0.9 1.5 1.5 2 1.4 0.9 2.2 1.1 1.7 0.3 2.7 0.3c1.1 0 2.3-0.1 3.4-0.4 1.2-0.3 2.3-0.6 3.3-1 0.5-0.1 0.8-0.2 1-0.1 0.2 0 0.4 0.2 0.5 0.6l1.9 4.2c0.2 0.3 0.2 0.6 0.1 0.8s-0.3 0.4-0.6 0.6c-1.4 0.9-3.1 1.6-5 2s-3.7 0.6-5.3 0.6c-5.1 0-8.9-1.3-11.4-3.8s-3.7-6.5-3.7-12c0-2.6 0.3-4.9 1-6.9s1.7-3.7 2.9-5.1c1.3-1.4 2.8-2.5 4.6-3.2 1.8-0.9 3.8-1.3 6-1.3zm0.2 7.1c-1.6 0-2.9 0.6-3.9 1.7s-1.6 2.6-1.8 4.3h11c0-0.9-0.1-1.7-0.3-2.4s-0.4-1.4-0.8-1.9-0.9-1-1.6-1.3-1.6-0.4-2.6-0.4z"/><path id="path18" d="m170.9 401.9c1.1-1 1.9-2.4 2.4-4 0.4-1.6 0.8-3.5 1-5.6l1.6-11.1c0.2-1 0.5-1.8 1-2.4s1.6-0.9 3.1-0.9h15.4c1.5 0 2.4 0.3 2.9 0.9 0.4 0.6 0.7 1.5 0.7 2.7v20.5l2 0.2c0.8 0.1 1.3 0.3 1.6 0.8 0.2 0.4 0.4 0.9 0.4 1.6l-0.7 12.3c0 0.6-0.3 0.9-0.9 0.9h-5.1c-0.4 0-0.6-0.1-0.7-0.2-0.1-0.2-0.2-0.4-0.2-0.7l-0.4-8.1h-19.6c-0.1 1.4-0.1 2.7-0.2 4-0.1 1.4-0.2 2.7-0.2 4.1 0 0.4-0.1 0.6-0.2 0.7s-0.4 0.2-0.8 0.2h-5.1c-0.6 0-0.9-0.3-0.9-0.9l-0.7-12.3c0-0.7 0.1-1.2 0.4-1.6s0.8-0.7 1.6-0.8zm19.6-17.1h-7.3c-0.5 4.8-1.1 8.6-1.6 11.3-0.6 2.7-1.2 4.7-1.8 5.9h10.7z"/><path id="path20" d="m208.6 378.7c0-0.6 0.4-0.9 1.1-0.9h6.3c0.5 0 0.8 0 0.9 0.2 0.1 0.1 0.2 0.4 0.2 0.8v17.9h0.3c0.7-1.2 1.4-2.3 1.8-3.1 0.5-0.8 0.9-1.4 1.2-2 0.3-0.5 0.6-1 0.8-1.3s0.5-0.7 0.7-1.1c0.8-1.1 1.6-2.5 2.5-4s2-3.3 3.3-5.4c0.3-0.4 0.5-0.7 0.7-1s0.5-0.5 0.7-0.6c0.3-0.1 0.6-0.2 0.9-0.3 0.3 0 0.8-0.1 1.3-0.1h2.9c1.1 0 1.9 0.2 2.4 0.7s0.8 1.3 0.8 2.6v26.5c0 0.4-0.1 0.6-0.2 0.8-0.2 0.1-0.4 0.2-0.8 0.2h-6.3c-0.4 0-0.7-0.1-0.9-0.1-0.2-0.1-0.2-0.4-0.2-0.8v-17.6h-0.3c-0.9 1.4-1.8 2.7-2.6 4.1-0.8 1.3-1.6 2.7-2.5 4-0.9 1.4-1.8 2.8-2.7 4.2s-1.8 2.9-2.8 4.3c-0.6 0.8-1.1 1.3-1.5 1.6-0.5 0.2-1.2 0.3-2.1 0.3h-2.7c-1.4 0-2.3-0.3-2.7-0.8s-0.6-1.4-0.6-2.5v-26.6z"/><path id="path22" d="m263.9 396.9h-4.6c-1.4 0-2.5 0.2-3.3 0.7-0.9 0.4-1.5 1.4-1.9 2.8-0.3 1.1-0.7 2.3-1 3.5-0.4 1.1-0.7 2.3-1.1 3.5-0.2 0.6-0.4 0.9-0.8 1s-0.8 0.2-1.1 0.2h-5.9c-0.6 0-0.9-0.2-0.9-0.6v-0.2c0-0.1 0-0.2 0.1-0.2 0.4-1.3 0.8-2.7 1.3-4 0.4-1.3 0.9-2.7 1.3-4 0.3-0.9 0.8-1.8 1.4-2.7s1.6-1.5 3.2-2v-0.1c-2-0.6-3.4-1.7-4.2-3.1-0.7-1.4-1.1-2.9-1.1-4.7 0-1.3 0.2-2.5 0.7-3.6s1.2-2.1 2.1-2.9 2-1.5 3.4-1.9c1.3-0.5 2.8-0.7 4.4-0.7h13.1c1 0 1.8 0.2 2.3 0.6 0.6 0.4 0.9 1 0.9 1.7 0 0.3 0.1 0.7 0.1 1v26.4c0 0.6-0.4 0.9-1.2 0.9h-6c-0.5 0-0.8-0.1-1-0.2s-0.2-0.4-0.2-0.7zm-10.2-9.1c0 1.1 0.3 1.9 1 2.5s1.7 0.9 3.1 0.9h6.1v-6.9h-6.3c-0.8 0-1.4 0.1-1.9 0.3s-0.9 0.5-1.2 0.9-0.5 0.7-0.7 1.2c-0.1 0.3-0.1 0.7-0.1 1.1z"/></g>
</svg>
