<?xml version="1.0" encoding="UTF-8"?>
<!-- Generator: Adobe Illustrator 16.0.0, SVG Export Plug-In . SVG Version: 6.00 Build 0)  -->
<svg id="Слой_1" width="289.54" height="37.78" enable-background="new 0 0 290 260" version="1.1" viewBox="0 0 289.54 37.78" xml:space="preserve" xmlns="http://www.w3.org/2000/svg" xmlns:cc="http://creativecommons.org/ns#" xmlns:dc="http://purl.org/dc/elements/1.1/" xmlns:rdf="http://www.w3.org/1999/02/22-rdf-syntax-ns#"><metadata id="metadata102"><rdf:RDF><cc:Work rdf:about=""><dc:format>image/svg+xml</dc:format><dc:type rdf:resource="http://purl.org/dc/dcmitype/StillImage"/><dc:title/></cc:Work></rdf:RDF></metadata><defs id="defs100"><linearGradient id="SVGID_1_" x1="75.702" x2="75.702" y1="146.63" y2="113.99" gradientTransform="translate(.58426 8.7639)" gradientUnits="userSpaceOnUse"><stop id="stop10" stop-color="#A7A6A8" offset="0"/><stop id="stop12" stop-color="#fff" offset="1"/></linearGradient><linearGradient id="SVGID_2_" x1="99.531" x2="99.531" y1="146.57" y2="114.06" gradientTransform="translate(.58426 8.7639)" gradientUnits="userSpaceOnUse"><stop id="stop17" stop-color="#A7A6A8" offset="0"/><stop id="stop19" stop-color="#fff" offset="1"/></linearGradient><linearGradient id="SVGID_3_" x1="122.86" x2="122.86" y1="146.57" y2="113.72" gradientTransform="translate(.58426 8.7639)" gradientUnits="userSpaceOnUse"><stop id="stop24" stop-color="#A7A6A8" offset="0"/><stop id="stop26" stop-color="#fff" offset="1"/></linearGradient><linearGradient id="SVGID_4_" x1="145.69" x2="145.69" y1="146.7" y2="113.47" gradientTransform="translate(.58426 8.7639)" gradientUnits="userSpaceOnUse"><stop id="stop31" stop-color="#A7A6A8" offset="0"/><stop id="stop33" stop-color="#fff" offset="1"/></linearGradient><linearGradient id="SVGID_5_" x1="169.65" x2="169.65" y1="146.52" y2="114.08" gradientUnits="userSpaceOnUse"><stop id="stop38" stop-color="#A7A6A8" offset="0"/><stop id="stop40" stop-color="#fff" offset="1"/></linearGradient><linearGradient id="SVGID_6_" x1="195.85" x2="195.85" y1="146.58" y2="113.49" gradientTransform="translate(.58426 8.7639)" gradientUnits="userSpaceOnUse"><stop id="stop45" stop-color="#A7A6A8" offset="0"/><stop id="stop47" stop-color="#fff" offset="1"/></linearGradient><linearGradient id="SVGID_7_" x1="222" x2="222" y1="146.63" y2="114.11" gradientTransform="translate(.58426 8.7639)" gradientUnits="userSpaceOnUse"><stop id="stop52" stop-color="#A7A6A8" offset="0"/><stop id="stop54" stop-color="#fff" offset="1"/></linearGradient><linearGradient id="SVGID_8_" x1="248.16" x2="248.16" y1="146.61" y2="113.89" gradientTransform="translate(.58426 8.7639)" gradientUnits="userSpaceOnUse"><stop id="stop59" stop-color="#A7A6A8" offset="0"/><stop id="stop61" stop-color="#fff" offset="1"/></linearGradient><linearGradient id="SVGID_9_" x1="273.18" x2="273.18" y1="146.68" y2="114.01" gradientTransform="translate(.58426 8.7639)" gradientUnits="userSpaceOnUse"><stop id="stop66" stop-color="#A7A6A8" offset="0"/><stop id="stop68" stop-color="#fff" offset="1"/></linearGradient><linearGradient id="SVGID_10_" x1="45.589" x2="45.589" y1="112.56" y2="142.61" gradientUnits="userSpaceOnUse"><stop id="stop73" stop-color="#FFEA00" offset="0"/><stop id="stop75" stop-color="#E6AB00" offset="1"/></linearGradient><linearGradient id="SVGID_11_" x1="27.16" x2="27.16" y1="113.74" y2="146.13" gradientUnits="userSpaceOnUse"><stop id="stop80" stop-color="#fff" offset="0"/><stop id="stop82" stop-color="#A7A6A8" offset="1"/></linearGradient></defs><g id="g4826" transform="translate(-.58426 -117.65)" clip-rule="evenodd" fill-rule="evenodd"><polygon id="polygon6" transform="translate(.58426 8.7639)" points="0 146.67 21.817 108.89 289.54 108.89 289.54 146.67" fill="#918c8b" opacity=".5"/><path id="path15" d="m87.372 149.74-7.083-12.046c-0.813-1.377-1.692-2.193-2.577-2.459l9.082-12.432h-6.814l-7.275 11.354h-1.693v-11.354h-5.812v26.938h5.812v-11.311h1.693c1.114 0 1.772 0.38 2.581 1.884l5.311 9.427h6.775z" fill="url(#SVGID_1_)"/><path id="path22" d="m99.884 141.12c3.348 0 5.888-0.882 7.583-2.656 1.689-1.804 2.542-3.966 2.542-6.544 0-2.571-0.853-4.774-2.542-6.503-1.657-1.74-4.198-2.614-7.583-2.614h-9.664v26.938h5.736v-8.62h3.928zm-3.928-13.927h3.355c2.509 0 4.68 1.93 4.761 4.442 0.105 3.082-1.435 5.136-4.462 5.175h-3.654z" fill="url(#SVGID_2_)"/><path id="path29" d="m117.64 149.74 1.42-4.806h8.66l1.464 4.806h6.006l-8.313-27.094h-6.928l-8.242 27.094zm5.77-22.205 0.42 2.423 2.849 10.548h-6.585l2.854-10.516z" fill="url(#SVGID_3_)"/><path id="path36" d="m154.74 144.97c-0.924 0.313-3.082 0.696-5.117 0.696-4.353 0-6.513-3.155-6.513-9.425 0-6.281 2.16-9.405 6.513-9.405 2.385 0 4.312 0.312 5.771 0.893v-4.272l-0.653-0.274c-0.924-0.424-3.427-0.846-6.163-0.846-7.541 0-11.466 5.08-11.466 13.904 0 9.274 3.806 13.934 11.466 13.934 3.199 0 5.466-0.433 6.854-1.234v-4.16z" fill="url(#SVGID_4_)"/><polygon id="polygon43" transform="translate(.58426 8.7639)" points="164.97 125.19 164.97 114.04 159.19 114.04 159.19 140.98 164.97 140.98 164.97 129.85 174.36 129.85 174.36 140.98 180.1 140.98 180.1 114.04 174.36 114.04 174.36 125.19" fill="url(#SVGID_5_)"/><path id="path50" d="m185 136.19c0 9.424 3.807 14.128 11.432 14.128 7.626 0 11.437-4.704 11.437-14.128 0-9.362-3.811-14.014-11.437-14.014-7.889 0-11.432 4.814-11.432 14.014zm6.237 0.043c0-6.199 1.464-9.627 5.194-9.627 3.47 0 5.196 3.187 5.196 9.627 0 6.307-1.463 9.576-5.196 9.576-3.692 0-5.194-3.307-5.194-9.576z" fill="url(#SVGID_6_)"/><path id="path57" d="m213.6 138.12c-0.424 4.577-1.656 6.892-3.698 6.892l0.496 10.239h4.43l0.27-5.509h14.937l0.311 5.509h4.424l0.503-10.281-3.539-0.109v-22.056h-16.866zm12.353 6.74h-8.62c0.92-1.498 1.5-3.546 1.764-6.119l0.927-11.251h5.93v17.37z" fill="url(#SVGID_7_)"/><path id="path64" d="m242.93 149.74 1.424-4.806h8.663l1.461 4.806h6.009l-8.317-27.094h-6.928l-8.238 27.094zm5.775-22.205 0.424 2.423 2.845 10.548h-6.584l2.85-10.516z" fill="url(#SVGID_8_)"/><path id="path71" d="m273.54 141.12c3.345 0 5.884-0.882 7.577-2.656 1.695-1.804 2.539-3.966 2.539-6.544 0-2.571-0.844-4.774-2.539-6.503-1.651-1.74-4.191-2.614-7.577-2.614h-9.663v26.938h5.735v-8.62h3.928zm-3.928-13.927h3.348c2.515 0 4.687 1.93 4.771 4.442 0.099 3.082-1.444 5.136-4.464 5.175h-3.654v-9.617z" fill="url(#SVGID_9_)"/><polygon id="polygon78" transform="translate(.58426 8.7639)" points="60.277 114.15 46.407 114.15 30.9 141.02 44.765 141.02" fill="url(#SVGID_10_)"/><polygon id="polygon85" transform="translate(.58426 8.7639)" points="41.847 114.15 27.982 114.15 12.473 141.02 26.337 141.02" fill="url(#SVGID_11_)"/></g></svg>
