<?xml version="1.0" encoding="UTF-8"?>
<!-- Created with Inkscape (http://www.inkscape.org/) -->
<svg id="svg4542" width="68.792mm" height="25.635mm" version="1.1" viewBox="0 0 68.792 25.635" xmlns="http://www.w3.org/2000/svg" xmlns:cc="http://creativecommons.org/ns#" xmlns:dc="http://purl.org/dc/elements/1.1/" xmlns:rdf="http://www.w3.org/1999/02/22-rdf-syntax-ns#">
 <defs id="defs4536">
  <linearGradient id="b" x1="-167.71" x2="-164.87" y1="497.89" y2="497.89" gradientTransform="matrix(0 -493.73 -493.73 0 245955 -81971)" gradientUnits="userSpaceOnUse">
   <stop id="stop5" stop-color="#efd620" offset="0"/>
   <stop id="stop7" stop-color="#e5a000" offset="1"/>
  </linearGradient>
  <clipPath id="a">
   <path id="path2" width="100%" height="100%" d="m175.82 98.792h-174.96l-0.857 7.082h177.78c7.568-11.114 20.181-18.408 34.5-18.408 23.146 0 41.896 19.047 41.896 42.53 0 23.502-18.751 42.541-41.896 42.541-14.319 0-26.932-7.302-34.5-18.41h-6.862c7.461 13.15 20.832 22.426 36.427 24.067h9.875c24.033-2.517 42.779-23.143 42.779-48.198 0-26.741-21.368-48.44-47.719-48.44-14.642 0-27.708 6.692-36.462 17.236"/>
  </clipPath>
 </defs>
 <metadata id="metadata4539">
  <rdf:RDF>
   <cc:Work rdf:about="">
    <dc:format>image/svg+xml</dc:format>
    <dc:type rdf:resource="http://purl.org/dc/dcmitype/StillImage"/>
    <dc:title/>
   </cc:Work>
  </rdf:RDF>
 </metadata>
 <g id="layer1" transform="translate(51.405 -136.02)">
  <path id="path10" transform="matrix(.26458 0 0 .26458 -51.405 114.44)" d="m3e-3 81.556h260v96.639h-260z" clip-path="url(#a)" fill="url(#b)"/>
  <path id="path12" d="m-51.404 136.02h68.791v25.635h-68.791z" fill="none" stroke-width=".26458"/>
  <g id="g28" transform="matrix(.26458 0 0 .26458 -53.154 116.19)" fill="#485156">
   <path id="path14" d="m127.02 107.98h7.193l-1.503 12.327h11.897l1.513-12.327h7.208l-3.93 31.943h-7.203l1.64-13.312h-11.908l-1.622 13.312h-7.214z"/>
   <path id="path16" d="m244.67 132.67h-4.433l2.622-21.349h-10.793l-15.81 21.349h-8.854l0.031-0.121 3.811-2.895c6.066-4.838 11.175-9.846 11.952-16.128 0.835-6.821-3.165-11.77-11.704-11.77-5.017 0-9.679 1.716-12.7 3.86l1.717 6.225c2.147-1.442 5.163-3.06 8.395-3.06 4.314 0 5.811 2.428 5.444 5.478-0.605 4.39-5.095 8.599-14.25 15.983l-5.326 4.324-0.643 5.307h36.911l-1.088 8.938h8.297l1.098-8.938h4.451l0.796-6.575zm-10.877-14.648h0.179c-0.424 2.412-0.823 4.719-1.104 6.965l-0.94 7.684h-8.097l5.581-7.684c1.562-2.362 2.869-4.553 4.381-6.965"/>
   <path id="path18" d="m27.079 107.98-10.404 13.321h-0.658l1.628-13.321h-7.108l-3.927 31.943h7.111l1.644-13.357h1.374c3.892 0 5.022 2.743 5.667 6.343 0.464 2.372 0.785 4.842 1.602 7.015h7.771c-1.123-3.162-1.739-6.629-2.463-10.05-0.855-3.839-2.356-6.678-6.354-7.669l12.887-14.224h-8.77z"/>
   <path id="path20" d="m57.272 107.95-4.858 11.385c-1.136 2.733-1.929 4.878-2.525 6.242h-0.138c-0.468-1.941-0.908-3.888-1.532-6.105l-3.227-11.521h-8.095l8.029 22.18c0.17 0.521 0.215 0.944-0.091 1.512-0.795 1.419-2.448 2.937-4.675 2.937-1.085 0-1.786-0.094-2.386-0.24l-1.186 5.792c0.86 0.321 1.83 0.509 3.441 0.509 3.794 0 6.598-1.609 9.005-4.215 2.778-2.941 5.322-7.771 7.91-12.701l7.911-15.772h-7.583z"/>
   <path id="path22" d="m86.146 121.68c-2.206-1.761-5.463-2.57-8.69-2.57-1.228 0-2.802 0.106-3.912 0.245l0.672-5.495h14.029l0.725-5.88h-21.185l-3.91 31.799c1.588 0.232 4.117 0.475 7.667 0.475 4.88 0 10.021-0.94 13.433-3.652 2.058-1.651 3.537-4.117 3.926-7.243 0.432-3.506-0.729-6.076-2.755-7.679m-4.844 7.815c-0.188 1.569-0.967 2.844-2.022 3.743-1.315 1.044-3.14 1.623-4.892 1.623-0.994 0-1.933-0.048-2.726-0.199l1.235-10.048c0.867-0.094 1.728-0.186 2.531-0.186 1.708 0 3.457 0.419 4.615 1.424 0.943 0.806 1.458 2.001 1.259 3.643"/>
   <path id="path24" d="m103.32 107.98-13.674 31.943h7.486l3.224-8.194h9.195l1.458 8.194h7.772l-6.026-31.943zm-1.252 18.345 2.777-6.775c0.698-1.849 1.52-4.271 2.175-6.158h0.144c0.247 1.842 0.514 4.263 0.812 6.158l1.149 6.775z"/>
   <path id="path26" d="m168.81 118.84c-1.324 0-2.906 0.143-3.92 0.276l1.372-11.13h-7.16l-3.903 31.799c1.586 0.232 4.158 0.475 7.761 0.475 4.931 0 10.403-0.94 13.862-4.08 1.765-1.604 3.04-3.876 3.418-6.965 0.868-7.11-4.564-10.375-11.43-10.375m3.804 10.718c-0.449 3.599-3.492 5.311-7.001 5.311-1.036 0-1.848-0.048-2.638-0.199l1.256-10.092c0.865-0.103 1.725-0.188 2.757-0.188 3.464-1e-3 6.076 1.509 5.626 5.168"/>
  </g>
 </g>
</svg>
