<svg id="a" enable-background="new 0 0 283.464 283.464" version="1.1" viewBox="0 0 233.55 200.57" xml:space="preserve" xmlns="http://www.w3.org/2000/svg"><g id="b" transform="translate(-24.955 -41.446)"><g id="c" fill="#f47422"><path id="d" d="m108.46 77.046s-0.704-0.614 3.27-7.5c2.884-5.001 8.076-9.808 13.076-12.499 5-2.693 11.794-4.103 11.729-5.129-0.063-1.025-3.383-4.599 1.347-8.332 3.654-2.886 17.308-2.82 20.898 0 3.589 2.82 0.834 6.089 0.834 7.691s0.735 0.961 1.249 1.538c0 0 6.058 2.564 7.659 3.173 1.603 0.608 14.551 6.202 18.637 14.951 4.087 8.749-4.952 9.326-9.519 7.308-4.568-2.02-16.2-16.25-32.642-16.394-22.019-0.193-33.317 14.519-34.183 14.807-0.865 0.288-1.49 0.865-2.019 0.528-0.528-0.334-0.336-0.142-0.336-0.142z" clip-rule="evenodd" fill-rule="evenodd"/><path id="e" d="m75.673 110.79s0.093-7.53 7.981-14.903c8.846-8.27 29.293-14.679 46.472-15.192s37.948 1.731 50.254 4.23c12.307 2.501 36.152 15 36.152 15s9.293-11.747 14.807-14.038c6.25-2.597 21.729 1.636 23.362 19.807 0.391 4.326 0.289 10.864-0.863 15.384-1.13 4.43-2.886 5.192-4.52 4.808-1.635-0.384-6.537-3.653-6.73-5.673-0.192-2.019 1.923-1.154 2.404-2.884 0.48-1.731 1.635-5.962-2.5-10.673-4.135-4.712-9.519-0.865-10.866 0.673-1.344 1.538-1.922 2.404-1.057 3.27 0.866 0.864 12.5 11.346 14.614 20.479 2.116 9.135 1.314 13.86-7.402 26.441-14.454 20.865-49.58 37.785-92.304 38.557-42.655 0.768-68.746-10.865-73.554-13.75-4.808-2.884-3.942-4.23-3.653-5.77 0.289-1.537 0.289-1.441-0.771-1.73-1.057-0.289-19.903-7.403-27.882-19.326-7.981-11.922-11.057-24.71-6.827-39.518 4.23-14.807 11.256-26.421 12.5-31.633 2.5-10.48-5.769-13.268-7.5-13.847-1.731-0.576-2.884-0.095-3.077-1.922s1.346-2.403 3.461-2.596c2.115-0.192 2.789 0.192 3.941-0.289 1.156-0.48-2.21-4.23 0.867-3.846 3.077 0.386 11.77 3.527 18.3 10.385 3.846 4.037 7.948 14.037 7.179 22.69-0.515 5.794-2.596 16.152 4.712 23.653 1.478 1.516 3.075 2.115 2.787 3.075-0.289 0.962-0.289 1.154-2.307 1.924-2.019 0.77-25.96 7.115-16.153 26.346 2.839 5.567 18.98 13.675 28.844 15.384 7.212 1.25 12.154 2.51 16.218-0.385 4.454-3.173 5.992 8.75-7.661 8.076-5.126-0.253-3.46 1.058-2.692 1.731 0.768 0.674 32.623 10.126 52.53 8.14 65.509-6.538 80.591-35.37 73.586-54.612-7.051-19.357-52.689-28.203-67.177-29.358-14.487-1.153-32.05-1.282-43.46 1.411-11.409 2.692-23.974 6.923-26.793 9.229-2.818 2.31-5.222 1.252-5.222 1.252z" clip-rule="evenodd" fill-rule="evenodd"/><g id="f"><path id="g" d="m43.48 213.21c5.568-3.631 8.586-5.719 14.259-9.834 0.487-0.354 0.724-0.958 0.605-1.547-0.117-0.59-0.568-1.056-1.154-1.195-2.527-0.599-3.776-0.906-6.361-1.567-0.438-0.112-0.903-0.025-1.271 0.236-4.371 3.098-7.01 4.91-10.732 7.333l2.457-8.543c0.234-0.817-0.237-1.669-1.054-1.904-2.034-0.584-3.05-0.885-5.079-1.501-0.391-0.118-0.811-0.073-1.171 0.117-0.359 0.192-0.628 0.52-0.747 0.909l-8.211 27.092c-0.118 0.391-0.076 0.813 0.116 1.173 0.193 0.359 0.521 0.628 0.911 0.747 2.201 0.666 3.303 0.991 5.51 1.625 0.815 0.235 1.668-0.236 1.903-1.054l2.501-8.7c2.31 4.334 3.991 7.31 6.958 12.372 0.208 0.354 0.55 0.612 0.949 0.712 2.856 0.725 4.254 1.066 7.13 1.739 0.117 0.026 0.235 0.042 0.35 0.042 0.487 0 0.953-0.233 1.247-0.638 0.363-0.502 0.39-1.174 0.067-1.703-3.905-6.408-5.849-9.767-9.183-15.911z"/><path id="h" d="m89.57 207.54c-0.212-0.484-0.659-0.828-1.184-0.907-2.259-0.334-3.386-0.51-5.639-0.88-0.59-0.098-1.181 0.156-1.518 0.649-3.047 4.447-4.816 6.967-7.557 10.723-1.642-4.613-2.656-7.653-4.366-13.026-0.169-0.529-0.611-0.927-1.156-1.038-2.292-0.472-3.436-0.716-5.723-1.224-0.536-0.119-1.093 0.056-1.463 0.459-0.373 0.402-0.5 0.974-0.339 1.498 2.163 6.985 4.537 14.027 7.063 20.938-0.375 0.462-0.735 0.853-1.074 1.162-0.437 0.399-0.86 0.694-1.261 0.877-0.372 0.17-0.74 0.262-1.128 0.278-0.457 0.022-0.969-0.029-1.532-0.146-0.378-0.078-0.803-0.193-1.264-0.341-0.451-0.146-0.929-0.331-1.422-0.556-0.425-0.192-0.914-0.183-1.328 0.026-0.415 0.211-0.715 0.597-0.812 1.051l-0.93 4.323c-0.154 0.714 0.215 1.437 0.882 1.73 0.569 0.252 1.189 0.478 1.843 0.671 0.63 0.188 1.226 0.337 1.772 0.448 1.223 0.254 2.39 0.38 3.468 0.38 0.158 0 0.313-3e-3 0.465-7e-3 1.263-0.044 2.479-0.295 3.617-0.747 1.128-0.449 2.22-1.12 3.249-1.989 0.988-0.838 1.979-1.904 2.945-3.169 4.895-6.413 9.689-13.041 14.251-19.7 0.3-0.437 0.353-0.996 0.141-1.483z"/><path id="i" d="m118.96 209.88c-2.41-0.155-3.614-0.244-6.022-0.438-0.505-0.044-0.987 0.165-1.307 0.55-1.858 2.236-2.763 3.306-4.606 5.44-0.638 0.738-1.327 1.54-1.989 2.318-0.309-0.555-0.665-1.188-1.063-1.903l-0.44-0.788c-1.408-2.488-2.085-3.711-3.446-6.223-0.237-0.438-0.675-0.735-1.171-0.796-2.4-0.284-3.6-0.437-5.998-0.763-0.567-0.08-1.14 0.173-1.468 0.645-0.331 0.476-0.367 1.093-0.096 1.602 3.079 5.778 4.736 8.746 7.902 14.118-4.458 4.734-6.95 7.256-11.879 12.043-0.422 0.41-0.573 1.025-0.389 1.584 0.183 0.559 0.67 0.964 1.252 1.044 2.547 0.349 3.805 0.512 6.411 0.824 0.477 0.057 0.95-0.11 1.284-0.452 2.269-2.327 3.35-3.457 5.51-5.76 0.779-0.832 1.554-1.679 2.32-2.532 0.569 0.968 1.162 1.951 1.776 2.941 1.654 2.674 2.49 3.996 4.257 6.734 0.26 0.402 0.693 0.661 1.171 0.699 2.557 0.203 3.821 0.293 6.438 0.459 0.033 1e-3 0.064 2e-3 0.097 2e-3 0.55 0 1.063-0.295 1.337-0.778 0.291-0.511 0.264-1.143-0.068-1.627-3.893-5.692-5.834-8.657-9.252-14.157 4.176-4.653 6.384-7.233 10.529-12.275 0.366-0.446 0.453-1.059 0.223-1.59-0.231-0.527-0.738-0.884-1.313-0.921z"/><path id="j" d="m151.36 211c-0.292-0.282-0.688-0.424-1.097-0.427-2.096 0.041-3.143 0.055-5.241 0.067-0.85 6e-3 -1.532 0.697-1.528 1.548l0.06 10.117c-3.933 0.014-6.421-0.012-10.605-0.126l0.301-10.114c0.012-0.407-0.137-0.804-0.418-1.099-0.28-0.299-0.666-0.472-1.074-0.485-2.096-0.062-3.144-0.1-5.239-0.191-0.404-0.013-0.806 0.126-1.107 0.402-0.301 0.275-0.479 0.658-0.498 1.066l-1.243 28.28c-0.037 0.848 0.622 1.567 1.469 1.604 2.274 0.101 3.409 0.141 5.682 0.208 0.406 0.019 0.804-0.139 1.1-0.418 0.297-0.279 0.472-0.666 0.483-1.073l0.321-10.771c4.318 0.119 6.858 0.146 10.87 0.131l0.063 10.774c2e-3 0.408 0.166 0.799 0.457 1.085 0.287 0.285 0.676 0.444 1.081 0.444h0.01c2.273-0.014 3.411-0.028 5.684-0.073 0.85-0.017 1.525-0.72 1.507-1.569l-0.564-28.301c-8e-3 -0.408-0.178-0.796-0.474-1.079z"/><path id="k" d="m183.64 209.94c-0.091-0.844-0.842-1.448-1.692-1.367-4.211 0.445-6.273 0.636-10.515 0.962-1.214 0.095-2.255 0.246-3.18 0.465-0.94 0.223-1.808 0.514-2.582 0.864-2.081 0.945-3.686 2.307-4.771 4.04-1.103 1.761-1.607 3.748-1.504 5.907 0.105 2.234 0.767 4.125 1.962 5.626 0.876 1.094 2.041 1.969 3.484 2.608-2.169 3.797-3.531 6.089-6.086 10.264-0.297 0.486-0.302 1.095-0.013 1.584 0.276 0.471 0.781 0.758 1.324 0.758 0.022 0 0.044 0 0.067-1e-3 2.629-0.113 3.9-0.179 6.467-0.331 0.52-0.03 0.984-0.318 1.243-0.769 2.405-4.186 3.621-6.366 5.778-10.381 1.307-0.101 2.267-0.18 3.464-0.287l0.832 9.066c0.038 0.406 0.233 0.781 0.549 1.041 0.313 0.263 0.719 0.392 1.123 0.351 2.268-0.207 3.398-0.319 5.663-0.559 0.847-0.091 1.458-0.849 1.368-1.693-0.989-9.382-1.986-18.766-2.981-28.148zm-7.227 12.58c-1.039 0.094-1.902 0.163-3.221 0.268-0.588 0.047-1.109 0.07-1.551 0.07-0.108 0-0.213-2e-3 -0.312-4e-3 -0.462-0.014-0.855-0.054-1.166-0.118-0.434-0.09-0.79-0.219-1.06-0.379-0.246-0.146-0.448-0.318-0.597-0.51-0.154-0.199-0.267-0.413-0.341-0.654-0.092-0.294-0.147-0.616-0.171-0.959-0.034-0.571 0.084-1.09 0.367-1.588 0.269-0.479 0.728-0.87 1.358-1.162 0.292-0.133 0.658-0.25 1.086-0.345 0.443-0.099 1.008-0.175 1.678-0.227 1.389-0.109 2.288-0.183 3.387-0.281z"/><path id="l" d="m223.76 203.3c-0.183-0.829-0.999-1.356-1.831-1.175-7.769 1.688-15.643 3.141-23.406 4.321-0.839 0.127-1.415 0.912-1.29 1.752l0.651 4.29c0.063 0.402 0.279 0.767 0.609 1.008 0.327 0.243 0.739 0.342 1.143 0.284 3.144-0.479 4.938-0.769 7.817-1.273l3.917 22.088c0.071 0.402 0.299 0.761 0.634 0.995 0.262 0.182 0.568 0.277 0.88 0.277 0.092 0 0.182-9e-3 0.27-0.025 2.249-0.398 3.37-0.606 5.612-1.037 0.834-0.16 1.379-0.967 1.22-1.801-0.992-5.188-1.99-10.373-2.985-15.56l-1.242-6.468c2.814-0.548 4.6-0.921 7.749-1.606 0.83-0.183 1.356-1.001 1.176-1.831z"/><path id="m" d="m258.14 214.58c-0.286-0.943-0.707-1.777-1.25-2.474-0.53-0.686-1.165-1.265-1.887-1.726-0.659-0.421-1.393-0.744-2.184-0.967 0.342-0.6 0.589-1.221 0.737-1.856 0.324-1.398 0.271-2.834-0.158-4.271-0.241-0.815-0.624-1.596-1.133-2.323-0.511-0.724-1.157-1.375-1.925-1.927-0.754-0.546-1.633-0.986-2.614-1.313-0.96-0.318-2.048-0.499-3.237-0.537-1.539-0.048-3.39 0.219-5.637 0.819-3.88 1.039-5.788 1.523-9.72 2.462-0.826 0.198-1.336 1.028-1.138 1.854l2.344 9.81c1.413 5.907 2.826 11.814 4.235 17.724 0.095 0.397 0.343 0.739 0.689 0.954 0.245 0.147 0.523 0.227 0.806 0.227 0.119 0 0.239-0.015 0.358-0.042 3.499-0.837 5.229-1.27 8.817-2.214 0.849-0.224 1.606-0.436 2.278-0.641 0.685-0.206 1.312-0.413 1.865-0.621 0.57-0.213 1.065-0.414 1.518-0.617 0.5-0.226 0.912-0.428 1.266-0.62 1.489-0.81 2.721-1.75 3.664-2.795 0.904-1.004 1.582-2.041 2.015-3.082 0.438-1.061 0.658-2.119 0.658-3.149 1e-3 -0.971-0.123-1.872-0.367-2.675zm-14.942-9.819v-1.535l0.052 1.536c0.609 9e-3 1.067 0.128 1.326 0.346 0.305 0.258 0.51 0.587 0.629 1.008 0.118 0.418 0.126 0.801 0.024 1.17-0.11 0.391-0.478 0.732-0.767 0.947-0.264 0.198-0.951 0.596-2.574 1.031-1.337 0.357-2.207 0.588-3.267 0.859l-1.046-4.112c0.889-0.229 1.65-0.43 2.789-0.733 0.735-0.195 1.314-0.329 1.77-0.408 0.412-0.072 0.771-0.109 1.064-0.109zm0.85 11.598c0.844-0.227 1.539-0.389 2.066-0.479 0.471-0.082 0.88-0.124 1.217-0.124v-1.535l0.053 1.536c0.702 0.01 1.257 0.146 1.604 0.396 0.335 0.241 0.546 0.551 0.668 0.975 0.078 0.271 0.11 0.529 0.098 0.785-0.01 0.198-0.067 0.395-0.178 0.596-0.134 0.252-0.356 0.518-0.655 0.789-0.305 0.279-0.774 0.582-1.391 0.9-0.424 0.217-0.925 0.43-1.491 0.625-0.649 0.226-1.43 0.46-2.319 0.695-0.838 0.22-1.43 0.376-2.064 0.539l-1.206-4.749c1.182-0.306 2.122-0.554 3.598-0.949z"/></g></g></g></svg>
