<?xml version="1.0" encoding="UTF-8"?>
<svg id="svg35" width="583.35pt" height="92.375pt" version="1.1" viewBox="0 0 583.35 92.375" xmlns="http://www.w3.org/2000/svg" xmlns:cc="http://creativecommons.org/ns#" xmlns:dc="http://purl.org/dc/elements/1.1/" xmlns:rdf="http://www.w3.org/1999/02/22-rdf-syntax-ns#">
 <metadata id="metadata41">
  <rdf:RDF>
   <cc:Work rdf:about="">
    <dc:format>image/svg+xml</dc:format>
    <dc:type rdf:resource="http://purl.org/dc/dcmitype/StillImage"/>
    <dc:title/>
   </cc:Work>
  </rdf:RDF>
 </metadata>
 <g id="#473fa2ff" transform="translate(-35.015,-307.38)" fill="#473fa2">
  <path id="path15" d="m35.015 307.38h92.36v92.375h-92.36v-92.375"/>
  <path id="path17" d="m142.9 307.38h92.345v92.375h-92.345v-92.375"/>
  <path id="path19" d="m250.89 307.38h92.33v92.375h-92.33v-92.375"/>
  <path id="path21" d="m358.77 307.38h92.305v92.375h-92.305v-92.375"/>
 </g>
 <g id="#e74b3eff" transform="translate(-35.015,-307.38)">
  <path id="path28" d="m463.26 307.38h155.11v92.375h-155.11v-92.375" fill="#e74b3e"/>
 </g>
 <g id="#ffffffff" transform="translate(-35.015,-307.38)" fill="#fff">
  <path id="path2" d="m59.62 322.76h49.5v60.6h-14.365v-50.225h-21.12v34.945c-0.18 4.77-0.765 10.45-5.165 13.35-5.86 3.51-12.99 2.12-19.46 1.93v-9.61c2.74-0.05 5.57 0.3 8.23-0.52 1.84-0.49 2.37-2.6 2.38-4.26z"/>
  <path id="path4" d="m168.63 322.76h47.62v44.362h6.12c0.02 6.91 0.02 13.832 0 20.742h-11.745v-11.61h-43.12v11.61h-11.625c-0.01-6.91-0.01-13.832 0-20.742h5.89c7.93-13.32 6.59-29.482 6.86-44.362m13.38 9.125c-0.11 11.89-0.59 24.208-5.49 35.238h25.85v-35.238z"/>
  <path id="path6" d="m268.88 323.01h56.24v60.98h-14.375v-50.735h-27.49v50.735h-14.375z"/>
  <path id="path8" d="m379.76 322.76c14.436 0 24.25-0.36 36.35 0.43 6.25 0.3 12.41 3.65 15.55 9.15 2.45 4.53 2.7 10.05 1.44 14.98-1.93 6.77-8.39 11.44-15.14 12.62-7.92 1.26-15.965 0.81-23.955 0.81v23h-14.245v-60.99m14.245 10.49v17.12c6.1875 0 12.025 0.3 17.945-0.71 3.65-0.68 7.04-3.76 7.07-7.64 0.38-4.55-3.9-8.03-8.11-8.42-5.6-0.66-10.905-0.35-16.905-0.35z"/>
  <path id="path10" d="m476.4 333.5v-10.75h54.09v10.75h-20.095v52.1h-13.895v-52.1z"/>
  <path id="path12" d="m547.62 322.76c10.13 0 20.255-0.06 30.385 0.03 6.3 0.11 13.36 0.32 18.22 4.94 5.23 4.39 6.63 12.57 2.88 18.33-1.65 2.75-4.28 4.71-7.08 6.18 6.76 1.6 12.74 7.56 12.5 14.82 0.36 9.19-7.41 17.51-16.55 18.02-13.43 0.85-26.905 0.46-40.355 0.52v-62.84m13.755 10.62v14.36c5.89 0.02 11.8 0.05 17.69-0.18 2.26-0.07 4.63-0.59 6.39-2.09 3.27-2.54 3.04-8.3-0.43-10.56-2.38-1.56-5.35-1.45-8.07-1.53-5.2-0.01-10.39-0.01-15.58 0m0 24.88v16.6c6.21-0.01 12.42 0.09 18.64-0.05 3.11-0.05 6.63-0.6 8.69-3.22 3.28-4.05 1.23-11.01-3.93-12.35-7.67-1.66-15.61-0.75-23.4-0.98z"/>
 </g>
</svg>
