<?xml version="1.0" encoding="UTF-8"?>
<!-- Created with Inkscape (http://www.inkscape.org/) -->
<svg id="svg848" width="800" height="249.76" version="1.1" viewBox="0 0 211.67 66.082" xmlns="http://www.w3.org/2000/svg" xmlns:cc="http://creativecommons.org/ns#" xmlns:dc="http://purl.org/dc/elements/1.1/" xmlns:rdf="http://www.w3.org/1999/02/22-rdf-syntax-ns#">
 <metadata id="metadata845">
  <rdf:RDF>
   <cc:Work rdf:about="">
    <dc:format>image/svg+xml</dc:format>
    <dc:type rdf:resource="http://purl.org/dc/dcmitype/StillImage"/>
    <dc:title/>
   </cc:Work>
  </rdf:RDF>
 </metadata>
 <g id="layer1" transform="translate(123.02 70.518)" stroke-width="1.1101">
  <path id="path8" class="cls-1" d="m-109.42-70.518-13.598 66.082h153.75l57.912-66.082z" fill="#fff"/>
  <path id="path14" class="cls-4" d="m54.072-31.089-7.0378 8.059h-11.189l13.321-14.919-6.2274-13.798h10.568l2.4754 7.3486 5.7057-7.3486h10.568l-12.222 13.798 6.2164 14.919h-10.579z" fill="#fff"/>
  <path id="path10" class="cls-2" d="m88.65-70.518h-198.07l-3.4634 16.584h187z" fill="#ed1c24"/>
  <path id="path12" class="cls-3" d="m-119.52-21.02-3.4967 16.584h153.75l14.464-16.584z" fill="#ae1b1f"/>
  <path id="path16" class="cls-4" d="m-97.052-23.03h-22.135l5.9388-28.717h9.4133l-4.7067 22.013h12.921zm28.851 0h-23.977l6.1497-28.728h23.411l-1.432 6.6604h-14.009l-0.87695 4.1072h11.844l-1.432 6.6604h-11.855l-0.95465 4.5069h14.564zm24.688-29.483c1.8656-0.0376 3.7228 0.2594 5.4837 0.87695 1.4473 0.51013 2.7604 1.3413 3.8408 2.431 0.98808 1.0268 1.745 2.2531 2.2201 3.5966 0.49746 1.427 0.7453 2.9291 0.73264 4.4402-0.08919 6.508-3.4207 12.541-8.8805 16.085-2.9472 1.8912-6.3895 2.8647-9.8907 2.7974-2.2392 0.05526-4.4632-0.38046-6.5161-1.2766-1.7717-0.79809-3.2502-2.1291-4.2293-3.8075-1.0192-1.8458-1.5251-3.9311-1.4653-6.0387-0.0099-2.4133 0.41499-4.8086 1.2544-7.0711 0.8412-2.2716 2.107-4.3624 3.7298-6.1608 1.6594-1.8294 3.6821-3.2924 5.9388-4.2959 2.4501-1.0796 5.1045-1.6172 7.7815-1.5763zm-1.5985 7.0267c-1.5901-0.03381-3.1209 0.60272-4.2182 1.7539-1.1675 1.2147-2.0343 2.686-2.5309 4.2959-0.53008 1.6127-0.80717 3.2978-0.82145 4.9953 0 3.4042 1.4098 5.1063 4.2293 5.1063 1.4725 0.0021 2.8932-0.544 3.9851-1.5319 1.2428-1.1096 2.1924-2.509 2.7641-4.0739 0.66183-1.7096 0.99694-3.5283 0.98795-5.3616 0.0173-0.91506-0.1332-1.8255-0.44402-2.6864-0.27714-0.74949-0.7768-1.3963-1.432-1.8538-0.75267-0.47118-1.6335-0.69622-2.5198-0.64384zm22.79 22.457h-8.4698l6.1497-28.728h11.411l1.1878 17.872 8.8805-17.916h11.367l-6.1164 28.773h-8.4587l1.876-8.7806 1.1101-4.4402 1.5985-5.184h-0.0777l-9.1802 18.427h-6.6271l-1.2766-18.427h-0.07771l-0.46622 4.2182-0.75484 4.4402zm36.454 0h-9.2135l16.44-28.728h9.5798l4.1516 28.728h-9.3689l-0.27752-3.7964h-9.38zm10.934-9.7463-0.87695-10.29-5.0619 10.29zm29.006 1.6873-7.0378 8.059h-11.189l13.321-14.919-6.2274-13.798h10.568l2.4754 7.3486 5.7057-7.3486h10.568l-12.222 13.798z" fill="#231f20"/>
 </g>
</svg>
