<svg width="800" height="196.73" version="1.1" viewBox="0 0 800 196.73" xml:space="preserve" xmlns="http://www.w3.org/2000/svg"><defs>
			<linearGradient id="SVGID_1_" x1="21.626" x2="289.02" y1="64.579" y2="-41.832" gradientTransform="matrix(1,0,0,-1,0,128)" gradientUnits="userSpaceOnUse">
			<stop stop-color="#DB9F64" offset="0"/>
			<stop stop-color="#E7B775" offset=".21"/>
			<stop stop-color="#E8BA77" offset=".4"/>
			<stop stop-color="#F8D395" offset=".55"/>
			<stop stop-color="#FCD99C" offset=".68"/>
			<stop stop-color="#E0BB80" offset=".77"/>
			<stop stop-color="#CBA46C" offset=".85"/>
			<stop stop-color="#BE975F" offset=".93"/>
			<stop stop-color="#BA925B" offset="1"/>
		</linearGradient>
			<linearGradient id="SVGID_2_" x1="49.71" x2="377.16" y1="184.69" y2="54.383" gradientTransform="matrix(1,0,0,-1,0,128)" gradientUnits="userSpaceOnUse">
			<stop stop-color="#DB9F64" offset="0"/>
			<stop stop-color="#E8BA77" offset=".19"/>
			<stop stop-color="#FCD99C" offset=".36"/>
			<stop stop-color="#FCD99C" offset=".37"/>
			<stop stop-color="#F9D497" offset=".52"/>
			<stop stop-color="#BA925B" offset="1"/>
		</linearGradient>
	</defs>
<g transform="scale(1.5588)" fill="#231300"><path d="m6.3 96.3 14.1-66.4h13.3l-11.5 54h27.3l-2.6 12.4z"/><path d="m55.2 96.3 14.1-66.4h42.2l-2.5 12h-29l-3 14.1h24.4l-2.5 12h-24.5l-3.4 15.9h29l-2.6 12.4z"/><path d="m135.9 97.7c-3.8 0.1-7.7-0.5-11.3-1.8-5.7-2-10-6.6-11.6-12.4-0.9-3.1-1.3-6.2-1.3-9.4 0-1.8 0.1-3.7 0.3-5.6s0.5-4 0.8-6c0.4-2.1 0.9-4.1 1.5-6.2s1.3-4.1 2.2-6.1c1.3-3 2.9-5.9 4.7-8.6 1.7-2.6 3.9-4.9 6.3-6.9 2.5-2 5.3-3.5 8.4-4.5 3.5-1.1 7.1-1.7 10.7-1.6 3.4-0.1 6.8 0.5 10.1 1.5 2.9 0.9 5.5 2.5 7.6 4.6 2.2 2.2 3.8 4.8 4.8 7.7 1.2 3.5 1.7 7.2 1.7 10.9-0.1 2.7-0.3 5.4-0.8 8-0.6 3.4-1.4 6.7-2.4 10-1.1 3.8-2.7 7.5-4.7 10.9-1.8 3.1-4 5.9-6.7 8.3-2.6 2.3-5.6 4.1-8.9 5.3-3.6 1.2-7.5 1.9-11.4 1.9zm-10.5-24.7c0 2 0.2 3.9 0.7 5.8 0.4 1.4 1 2.8 2 3.9 0.9 1 2.1 1.8 3.4 2.3 1.6 0.5 3.3 0.8 4.9 0.7 4.1 0.1 8.1-1.5 11-4.5 1.5-1.6 2.8-3.3 3.9-5.3 1.2-2.2 2.2-4.5 2.9-6.9 0.8-2.6 1.5-5.2 1.9-7.8 0.4-2.3 0.7-4.7 0.7-7.1 0-4.8-0.9-8.3-2.7-10.4s-4.6-3.2-8.6-3.2c-1.8 0-3.7 0.3-5.4 0.9-1.6 0.6-3.1 1.5-4.4 2.6-1.4 1.2-2.6 2.7-3.6 4.2-1.2 1.8-2.2 3.7-3 5.7-0.6 1.6-1.2 3.2-1.7 4.8s-0.9 3.3-1.2 4.9-0.5 3.3-0.7 4.9-0.1 3.1-0.1 4.5z"/><path d="m224.9 96.3 9.4-44.6-21.6 27.7h-7.7l-9.5-27.7-9.4 44.6h-12.8l14.1-66.4h14.6l10.3 31.5 23.7-31.5h15.6l-14 66.4z"/><path d="m246.1 96.3 35.5-66.4h17.3l7.5 66.4h-13.1l-1.5-13.5h-24.9l-7.2 13.5zm27-25.4h17.4l-2.9-27.4z"/><path d="m309.7 96.3 28.3-33.8-14-32.6h14.3l9.1 21.4 17.9-21.4h15.4l-28.3 33 14.2 33.4h-14.1l-9.5-22.3-19.2 22.3z"/><path d="m399.1 96.3 2.4-11.3c2.6-1.9 5.4-4 8.3-6.1 2.9-2.2 5.8-4.4 8.5-6.6 2.8-2.2 5.4-4.3 7.8-6.4s4.5-3.9 6.2-5.6c0.9-0.9 1.8-1.8 2.8-2.9s1.9-2.2 2.7-3.4 1.5-2.4 2-3.7c0.5-1.2 0.8-2.4 0.8-3.7 0.1-1.7-0.5-3.3-1.7-4.5-1.4-1.1-3.3-1.7-5.1-1.6-1.5 0-3 0.2-4.5 0.6-1.3 0.4-2.6 0.9-3.7 1.6s-2.1 1.5-3.1 2.4c-0.9 0.9-1.8 1.8-2.6 2.7l-8.8-8.3c1.4-1.7 3-3.2 4.7-4.6s3.5-2.5 5.5-3.5c2.1-1 4.2-1.7 6.4-2.2 2.5-0.5 5.1-0.8 7.6-0.7 2.8 0 5.5 0.3 8.2 1 2.2 0.5 4.3 1.6 6.1 3 1.7 1.4 3 3.1 3.8 5.1 0.9 2.3 1.4 4.8 1.3 7.4 0 1.9-0.3 3.9-0.9 5.7-0.6 1.9-1.5 3.8-2.5 5.6-1.1 1.8-2.3 3.6-3.7 5.2-1.4 1.7-2.9 3.2-4.5 4.7-1.5 1.4-3.3 3-5.3 4.6s-4 3.2-6.1 4.8-4.1 3.1-6.2 4.6l-5.5 3.9h28.3l-2.5 12.4z"/><path d="m501.4 85.3-2.3 11h-12.7l2.3-11h-32.7l2.6-12.5 41-43h13.6l-9.4 43.8h8l-2.6 11.6h-7.8zm-4.7-37.2-24.8 25.6h19.3z"/></g><g transform="scale(1.5588)"><polygon points="0 126.2 298.1 126.2 313.5 108.2 3.8 108.2" fill="url(#SVGID_1_)"/><polygon points="22.9 17.9 391.1 17.9 406.5 0 27.1 0" fill="url(#SVGID_2_)"/></g>
</svg>
