<svg width="716.89" height="196.73" version="1.1" viewBox="0 0 716.89 196.73" xml:space="preserve" xmlns="http://www.w3.org/2000/svg"><defs>
			<linearGradient id="SVGID_1_" x1="21.626" x2="289.02" y1="64.579" y2="-41.832" gradientTransform="matrix(1,0,0,-1,0,128)" gradientUnits="userSpaceOnUse">
			<stop stop-color="#DB9F64" offset="0"/>
			<stop stop-color="#E7B775" offset=".21"/>
			<stop stop-color="#E8BA77" offset=".4"/>
			<stop stop-color="#F8D395" offset=".55"/>
			<stop stop-color="#FCD99C" offset=".68"/>
			<stop stop-color="#E0BB80" offset=".77"/>
			<stop stop-color="#CBA46C" offset=".85"/>
			<stop stop-color="#BE975F" offset=".93"/>
			<stop stop-color="#BA925B" offset="1"/>
		</linearGradient>
			<linearGradient id="SVGID_2_" x1="49.71" x2="377.16" y1="184.69" y2="54.383" gradientTransform="matrix(1,0,0,-1,0,128)" gradientUnits="userSpaceOnUse">
			<stop stop-color="#DB9F64" offset="0"/>
			<stop stop-color="#E8BA77" offset=".19"/>
			<stop stop-color="#FCD99C" offset=".36"/>
			<stop stop-color="#FCD99C" offset=".37"/>
			<stop stop-color="#F9D497" offset=".52"/>
			<stop stop-color="#BA925B" offset="1"/>
		</linearGradient>
	</defs>
<g transform="scale(1.5588)"><polygon points="3.8 108.2 0 126.2 298.1 126.2 313.5 108.2" fill="url(#SVGID_1_)"/><polygon points="27.1 0 22.9 17.9 391.1 17.9 406.5 0" fill="url(#SVGID_2_)"/></g>
<g fill="#fff"><path d="m211.85 152.3c-5.9236 0.15588-12.003-0.77942-17.615-2.8059-8.8854-3.1177-15.588-10.288-18.083-19.33-1.403-4.8324-2.0265-9.6648-2.0265-14.653 0-2.8059 0.15589-5.7677 0.46766-8.7295s0.77942-6.2354 1.2471-9.3531c0.62354-3.2736 1.403-6.3913 2.3383-9.6648 0.9353-3.2736 2.0265-6.3913 3.4294-9.5089 2.0265-4.6765 4.5206-9.1972 7.3266-13.406 2.65-4.053 6.0795-7.6383 9.8207-10.756 3.8971-3.1177 8.2619-5.456 13.094-7.0148 5.456-1.7147 11.068-2.65 16.68-2.4941 5.3001-0.15588 10.6 0.77942 15.744 2.3383 4.5206 1.403 8.5736 3.8971 11.847 7.1707 3.4295 3.4295 5.9236 7.4824 7.4824 12.003 1.8706 5.456 2.65 11.224 2.65 16.991-0.15588 4.2089-0.46765 8.4178-1.2471 12.471-0.93531 5.3001-2.1824 10.444-3.7412 15.588-1.7147 5.9236-4.2089 11.691-7.3266 16.991-2.8059 4.8324-6.2354 9.1972-10.444 12.938-4.053 3.5853-8.7295 6.3913-13.874 8.2619-5.6118 1.8706-11.691 2.9618-17.771 2.9618zm-16.368-38.503c0 3.1177 0.31177 6.0795 1.0912 9.0413 0.62354 2.1824 1.5588 4.3648 3.1177 6.0795 1.403 1.5588 3.2736 2.8059 5.3001 3.5853 2.4942 0.77942 5.1442 1.2471 7.6383 1.0912 6.3913 0.15589 12.627-2.3383 17.147-7.0148 2.3383-2.4942 4.3648-5.1442 6.0795-8.2619 1.8706-3.4295 3.4295-7.0148 4.5206-10.756 1.2471-4.053 2.3383-8.106 2.9618-12.159 0.62354-3.5853 1.0912-7.3266 1.0912-11.068 0-7.4824-1.403-12.938-4.2089-16.212-2.8059-3.2736-7.1707-4.9883-13.406-4.9883-2.8059 0-5.7677 0.46765-8.4178 1.403-2.4942 0.93531-4.8324 2.3383-6.8589 4.053-2.1824 1.8706-4.053 4.2089-5.6118 6.5471-1.8706 2.8059-3.4294 5.7677-4.6765 8.8854-0.9353 2.4941-1.8706 4.9883-2.65 7.4824s-1.403 5.1442-1.8706 7.6383c-0.46765 2.4941-0.77942 5.1442-1.0912 7.6383s-0.15589 4.8324-0.15589 7.0148z" stroke-width="1.5588"/><path d="m9.8207 150.12 21.98-103.51h20.733l-17.927 84.178h42.556l-4.053 19.33z" stroke-width="1.5588"/><path d="m86.048 150.12 21.98-103.51h65.783l-3.8971 18.706h-45.206l-4.6765 21.98h38.036l-3.8971 18.706h-38.192l-5.3001 24.786h45.206l-4.053 19.33z" stroke-width="1.5588"/><path d="m350.58 150.12 14.653-69.524-33.671 43.18h-12.003l-14.809-43.18-14.653 69.524h-19.953l21.98-103.51h22.759l16.056 49.104 36.945-49.104h24.318l-21.824 103.51z" stroke-width="1.5588"/><path d="m383.63 150.12 55.339-103.51h26.968l11.691 103.51h-20.421l-2.3383-21.044h-38.815l-11.224 21.044zm42.089-39.595h27.124l-4.5206-42.712z" stroke-width="1.5588"/><path d="m482.77 150.12 44.115-52.689-21.824-50.818h22.291l14.185 33.359 27.903-33.359h24.006l-44.115 51.442 22.136 52.065h-21.98l-14.809-34.762-29.93 34.762z" stroke-width="1.5588"/><path d="m668.55 52.36h20.682l-7.512 35.573h35.176l-4.0871 19.584h-35.27l-7.8336 36.746h-20.587l7.758-36.746h-35.441l3.9357-19.584h35.63z" stroke-width="1.8922"/></g></svg>
