<svg id="a" data-name="Layer 1" version="1.1" viewBox="0 0 800 257.89" xmlns="http://www.w3.org/2000/svg">
 <defs id="b">
  <style id="c">.cls-1,.cls-2{fill:#fff;}.cls-1{stroke:#fff;stroke-miterlimit:10;stroke-width:4px;}.cls-3{fill:#e30613;}.cls-4{fill:#ae1613;}.cls-5{fill:#1d1d1b;}</style>
 </defs>
 <path id="d" d="m53.07 0-53.07 257.89h573.98l75.789-86.464 3.7266 18.855h58.831l-25.488-61.139 113.16-129.14z" color="#000000" color-rendering="auto" dominant-baseline="auto" fill="#fff" image-rendering="auto" shape-rendering="auto" solid-color="#000000" style="font-feature-settings:normal;font-variant-alternates:normal;font-variant-caps:normal;font-variant-ligatures:normal;font-variant-numeric:normal;font-variant-position:normal;isolation:auto;mix-blend-mode:normal;shape-padding:0;text-decoration-color:#000000;text-decoration-line:none;text-decoration-style:solid;text-indent:0;text-orientation:mixed;text-transform:none;white-space:normal"/>
 <path id="e" class="cls-3" d="m780.69 8.7548h-720.5l-12.603 60.348h680.19z" fill="#e30613" stroke-width="4.3762"/>
 <path id="f" class="cls-4" d="m23.471 188.84-12.735 60.304h559.28l52.646-60.304z" fill="#ae1613" stroke-width="4.3762"/>
 <path id="g" class="cls-5" d="m105.17 181.53h-80.522l21.618-104.46h34.222l-17.242 80.085h47.132zm104.94 0h-87.218l22.362-104.46h85.161l-5.2514 24.332h-50.895l-3.1946 14.967h43.106l-5.2077 24.375h-43.149l-3.4572 16.411h52.952zm89.8-107.26a56.891 56.891 0 0 1 19.956 3.1946 37.154 37.154 0 0 1 13.96 8.7524 36.323 36.323 0 0 1 8.096 13.129 47.832 47.832 0 0 1 2.6695 16.192 70.895 70.895 0 0 1-32.253 58.729 64.287 64.287 0 0 1-35.972 10.153 55.797 55.797 0 0 1-23.85-4.7263 33.916 33.916 0 0 1-15.36-13.829 42.843 42.843 0 0 1-5.339-21.881 72.82 72.82 0 0 1 4.6825-25.732 69.45 69.45 0 0 1 13.61-22.756 64.418 64.418 0 0 1 21.618-15.623 67.612 67.612 0 0 1 28.183-5.6016zm-5.8204 25.601a20.612 20.612 0 0 0-15.317 6.3893 39.386 39.386 0 0 0-9.2338 15.798 59.735 59.735 0 0 0-2.9758 18.161q0 18.599 15.36 18.555a21.881 21.881 0 0 0 14.485-5.5578 36.935 36.935 0 0 0 10.065-14.835 53.39 53.39 0 0 0 3.5885-19.474 27.045 27.045 0 0 0-1.7505-9.8465 14.31 14.31 0 0 0-5.2077-6.7394 15.536 15.536 0 0 0-9.015-2.4507zm82.885 81.66h-30.633l22.362-104.46h41.399l4.3762 65.162 32.384-65.162h41.355l-22.362 104.46h-30.633l6.8269-31.946 3.8948-16.236 5.8204-18.861h-0.30633l-33.741 67.044h-23.632l-4.6388-67.044h-0.30634l-2.0568 15.36-2.757 16.28zm132.64 0h-33.522l59.779-104.5h35.01l15.098 104.5h-34.091l-1.0503-13.829h-34.134zm39.78-35.579-3.1946-37.329-18.424 37.417zm105.51 6.433-25.601 29.321h-40.918l48.663-54.265-22.406-50.414h38.467l9.015 26.695 20.743-26.695h38.423l-44.637 50.195 22.625 54.265h-38.467z" fill="#1d1d1b" stroke-width="4.3762"/>
</svg>
