<svg id="a" width="800" height="249.76" version="1.1" viewBox="0 0 211.67 66.082" xmlns="http://www.w3.org/2000/svg">
 <path id="b" class="cls-1" d="m13.6 0-13.598 66.082h153.75l57.912-66.082z" fill="#fff" stroke-width="1.1101"/>
 <path id="c" class="cls-2" d="m211.67 0h-198.07l-3.4634 16.584h187z" fill="#ed1c24" stroke-width="1.1101"/>
 <path id="d" class="cls-3" d="m3.5 49.498-3.4967 16.584h153.75l14.464-16.584z" fill="#ae1b1f" stroke-width="1.1101"/>
 <path id="e" class="cls-5" d="m25.93 47.44h-22.097l5.9326-28.666h9.3913l-4.7317 21.977h12.934zm28.798 0h-23.935l6.1368-28.666h23.37l-1.4411 6.6772h-13.967l-0.87669 4.1072h11.829l-1.4291 6.6892h-11.841l-0.94872 4.5035h14.531zm24.643-29.435a15.612 15.612 0 0 1 5.4762 0.87668 10.196 10.196 0 0 1 3.831 2.4019 9.9677 9.9677 0 0 1 2.2217 3.6028 13.126 13.126 0 0 1 0.73258 4.4434 19.455 19.455 0 0 1-8.8509 16.117 17.642 17.642 0 0 1-9.8717 2.7862 15.312 15.312 0 0 1-6.5451-1.297 9.3072 9.3072 0 0 1-4.2153-3.7949 11.757 11.757 0 0 1-1.4652-6.0047 19.984 19.984 0 0 1 1.285-7.0615 19.059 19.059 0 0 1 3.7349-6.2448 17.678 17.678 0 0 1 5.9326-4.2873 18.554 18.554 0 0 1 7.734-1.5372zm-1.5972 7.0255a5.6564 5.6564 0 0 0-4.2032 1.7534 10.808 10.808 0 0 0-2.534 4.3354 16.393 16.393 0 0 0-0.81664 4.9839q0 5.104 4.2153 5.092a6.0047 6.0047 0 0 0 3.9751-1.5252 10.136 10.136 0 0 0 2.7621-4.0712 14.651 14.651 0 0 0 0.9848-5.3442 7.4218 7.4218 0 0 0-0.4804-2.7021 3.927 3.927 0 0 0-1.4291-1.8494 4.2633 4.2633 0 0 0-2.4739-0.67252zm22.746 22.409h-8.4065l6.1368-28.666h11.361l1.2009 17.882 8.8869-17.882h11.349l-6.1368 28.666h-8.4065l1.8734-8.7668 1.0689-4.4555 1.5972-5.176h-0.084l-9.2592 18.398h-6.485l-1.273-18.398h-0.084l-0.56441 4.2153-0.75659 4.4675zm36.4 0h-9.1991l16.405-28.678h9.6074l4.1432 28.678h-9.3553l-0.28822-3.7949h-9.3673zm10.916-9.7636-0.87669-10.244-5.056 10.268zm28.954 1.7654-7.0255 8.0462h-11.229l13.354-14.892-6.1487-13.835h10.556l2.4739 7.3257 5.6924-7.3257h10.544l-12.249 13.775 6.2088 14.892h-10.556z" fill="#1d1d1b" stroke-width="1.2009"/>
</svg>
