<svg id="a" width="1061.2pt" height="700.41pt" version="1.1" viewBox="0 0 1061.2 700.41" xmlns="http://www.w3.org/2000/svg">
 <g id="b" transform="matrix(2.2934 0 0 2.2934 -344.18 -156.02)" fill="#9a99a4">
  <path id="c" d="m268.46 68.245h21.44l-0.79 4.42h-7.69l-4.97 22.78h-5.35l4.45-22.78h-7.48z"/>
  <path id="d" d="m292.59 68.19h21.816l-0.88545 4.3696h-15.626l-1.3226 6.7679h14.464l-0.82753 4.6773h-14.618l-1.3554 7.1656h16.661l-0.84287 4.3698h-22.333z" stroke-width=".81986"/>
  <path id="e" d="m320.63 68.235h18.39l-5.53 27.225h-5.41l4.53-22.78h-7.19l-2.82 13.51c-0.68 2.81-1.32 5.84-3.38 8-0.9637 1.0248-2.3103 1.5097-3.7474 1.5097h-4.739l1.0164-4.9897c5.2713 0 4.9799-3.4191 5.9045-7.8804z"/>
  <path id="f" d="m343.29 68.12h21.816l-0.88545 4.3696h-15.626l-1.3226 6.7679h14.464l-0.82753 4.6773h-14.618l-1.3554 7.1656h16.661l-0.84287 4.3698h-22.333z" stroke-width=".81986"/>
  <path id="g" d="m369.48 68.055 5.8341-0.02479-2.1568 11.23 1.9907-0.82316 9.0164-10.395h6.3134l-10.652 12.78 6.2142 14.738h-6.5034l-4.5946-12.499-2.6361 0.96684-2.2973 11.532h-5.7515z" stroke-width=".82636"/>
  <path id="h" d="m400.41 68.235h6.67l3.8 27.21h-5.11l-0.71-6.045h-10.63l-3.24 6.045h-5.56l14.78-27.21m-3.35 16.32h7l-1.17-10.545z"/>
  <path id="i" d="m419.89 68.265h5.95l-1.87 10.225h10.16l2.06-10.225h5.57l-5.55 27.245h-5.69l2.46-12.145h-10.25l-2.5 12.145h-5.51z"/>
  <path id="j" d="m454.56 68.3h6.67l3.8 27.21h-5.11l-0.71-6.045h-10.63l-3.24 6.045h-5.56l14.78-27.21m-3.35 16.32h7l-1.17-10.545z"/>
  <path id="k" d="m476.96 68.217h18.39l-5.53 27.225h-5.41l4.53-22.78h-7.19l-2.82 13.51c-0.68 2.81-1.32 5.84-3.38 8-0.9637 1.0248-2.3103 1.5097-3.7474 1.5097h-4.739l1.0164-4.9897c5.2713 0 4.9799-3.4191 5.9045-7.8804z"/>
 </g>
 <g id="l" fill="#c23e3c">
  <path id="m" d="m505.66 600.48c15.87-3.5548 35.961 1.8577 42.199 18.347 4.7015 16.467 0.61922 35.8-11.513 48.184-12.453 11.513-31.695 15.503-47.542 9.2424-6.8573-2.6603-12.545-8.1416-15.435-14.907-9.38-24.31 5.3895-56.532 32.291-60.867m0.32108 13.348c-16.421 5.5271-21.696 26.489-17.59 41.74 3.3713 11.031 17.522 12.568 26.879 8.9901 10.573-3.3484 15.48-14.517 17.361-24.585 0.87149-7.4077 1.2384-15.962-4.1281-21.879-5.3895-6.6738-15.022-5.55-22.521-4.2657z" stroke-width="2.2934"/>
  <path id="n" d="m20.267 638.9 12.769-37.644h51.49l-14.841 76.184h-15.293l12.23-62.986h-22.145l-13.365 38.765c-2.1371 5.4676-4.484 10.903-7.7204 15.821-2.5132 3.8006-6.0534 7.1888-10.545 8.4183-4.2164 1.1644-8.7799 1.1861-12.989-0.0217l2.6-13.304c1.8044 0.41586 3.8656 0.70876 5.5182-0.33991 2.2709-1.3958 3.5438-3.8512 4.7516-6.1329 3.0158-6.0389 5.2434-12.425 7.5396-18.757z" stroke-width=".36161"/>
  <path id="o" d="m99.662 601.21h14.517l-12.522 58.791 44.4-58.791h18.645l-14.632 76.577h-14.38l10.664-58.057-43.024 58.057h-18.393z" stroke-width="2.2934"/>
  <path id="p" d="m178.67 601.49h65.935l-14.54 76.29h-15.802l12.201-62.461h-34.263l-10.528 62.461h-16.627z" stroke-width="2.2934"/>
  <path id="q" d="m258.82 601.24h61.027l-2.4769 12.223h-43.712l-3.6997 18.932h40.462l-2.315 13.084h-40.891l-3.7914 20.044h46.604l-2.3578 12.224h-62.472z" stroke-width="2.2934"/>
  <path id="r" d="m333.77 601.31h16.283l-12.361 62.908h30.466l12.101-62.908h16.123l-12.338 62.908h10.252l-6.3756 36.19h-13.623l3.463-22.613h-58.642z" stroke-width="2.2934"/>
  <path id="s" d="m414.55 601.4 16.191-0.0688-5.9858 31.167 5.5248-2.2845 25.023-28.849h17.522l-29.562 35.467 17.246 40.903h-18.049l-12.751-34.688-7.316 2.6833-6.3756 32.004h-15.962z" stroke-width="2.2934"/>
  <path id="t" d="m567.17 601.35h61.027l-2.4769 12.223h-43.712l-3.6997 18.932h40.462l-2.315 13.084h-40.891l-3.7914 20.044h46.604l-2.3578 12.224h-62.472z" stroke-width="2.2934"/>
  <path id="u" d="m658.59 677.83 14.92-76.542h33.556c6.1154 0.22892 12.467 0.93384 17.914 3.9461 3.3938 1.8604 6.1917 4.9599 7.2345 8.7389 1.6933 6.1662 0.3234 13.433-4.4694 17.892-3.3611 3.2085-7.8522 4.76-12.256 5.901 2.9723 0.66495 5.97 1.5479 8.4918 3.3175 3.7608 2.4854 6.4061 6.635 6.8712 11.141 0.55595 5.6503-0.70855 11.704-4.4512 16.108-3.848 4.5893-9.6509 7.0056-15.388 8.2156-7.5071 1.686-15.232 1.2209-22.863 1.2827h-29.56m24.85-45.656h16.733c2.9396 0.0145 5.8974-0.19258 8.7643-0.8648 2.2892-0.55594 4.6256-1.508 6.1299-3.4011 1.875-2.3219 2.2201-5.5122 1.8168-8.3755-0.35973-2.34-2.093-4.3022-4.2804-5.127-3.2557-1.25-6.8058-1.2885-10.243-1.2848h-15.239m-5.9708 30.864-4.2622 22.014h18.201c4.0551-0.0109 8.1647-0.19259 12.089-1.2936 2.1293-0.60681 4.2368-1.6496 5.6248-3.4301 1.9731-2.4709 2.3982-5.832 2.0385-8.8878-0.38516-2.9723-2.4999-5.5413-5.2251-6.7186-3.6445-1.6024-7.7178-1.7096-11.635-1.6842z" stroke-width=".36336"/>
  <path id="v" d="m753.49 601.4c12.568 0.0229 32.88-0.016 37.749 0.25228 8.2562 0.55041 16.1 6.1234 18.966 13.944 2.6374 9.9304 0.96323 22.04-7.66 28.645-9.5756 8.1723-28 6.3527-41.992 6.3527l-5.5271 27.211h-15.985l14.448-76.405m9.3575 37.176c19.195 0 33.417 2.1556 35.066-11.958 1.1506-14.891-5.1404-13.409-30.436-13.109z" stroke-width="2.2934"/>
  <path id="w" d="m826.62 601.33h61.027l-2.4769 12.223h-43.712l-3.6997 18.932h40.462l-2.315 13.084h-40.891l-3.7914 20.044h46.604l-2.3578 12.224h-62.472z" stroke-width="2.2934"/>
  <path id="x" d="m902.26 601.35h22.223l5.7106 57.117 27.888-57.117h22.108l-14.563 76.542h-13.944l10.596-62.495-30.571 62.495h-11.169l-7.7288-64.766-10.94 64.766h-14.196z" stroke-width="2.2934"/>
  <path id="y" d="m988.4 622.91c2.6071-19.658 15.744-21.536 30.376-21.59h42.384l-14.792 76.462h-16.283l5.2978-28.346h-19.93l-21.099 28.346h-18.554l23.897-31.144c-10.991-9.6623-11.969-16.921-11.296-23.728zm16.652 1.2801c-0.6208 4.243 0.2737 8.3652 4.8033 10.407 4.1268 1.6376 8.5439 1.7206 13.03 1.7206h14.766l4.9766-22.798h-16.462c-10.506 0-19.294-1.0407-21.114 10.67z" stroke-width="2.2934"/>
 </g>
 <circle id="z" cx="530.18" cy="327.14" r="195.58" fill="#c23e3c" stroke-width=".75056" style="paint-order:stroke fill markers"/>
 <path id="aa" d="m529.16 102.59c-123.37 0-223.5 100.13-223.5 223.5h11.302c0-117.26 94.936-212.2 212.2-212.2z" color="#000000" color-rendering="auto" dominant-baseline="auto" fill="#9a99a4" image-rendering="auto" shape-rendering="auto" solid-color="#000000" stroke-width=".56292" style="font-feature-settings:normal;font-variant-alternates:normal;font-variant-caps:normal;font-variant-ligatures:normal;font-variant-numeric:normal;font-variant-position:normal;isolation:auto;mix-blend-mode:normal;paint-order:stroke fill markers;shape-padding:0;text-decoration-color:#000000;text-decoration-line:none;text-decoration-style:solid;text-indent:0;text-orientation:mixed;text-transform:none;white-space:normal"/>
 <path id="ab" d="m752.64 326.09c0-123.37-100.13-223.5-223.5-223.5v11.303c117.26 0 212.2 94.938 212.2 212.2z" color="#000000" color-rendering="auto" dominant-baseline="auto" fill="#c23e3c" image-rendering="auto" shape-rendering="auto" solid-color="#000000" stroke-width=".75056" style="font-feature-settings:normal;font-variant-alternates:normal;font-variant-caps:normal;font-variant-ligatures:normal;font-variant-numeric:normal;font-variant-position:normal;isolation:auto;mix-blend-mode:normal;paint-order:stroke fill markers;shape-padding:0;text-decoration-color:#000000;text-decoration-line:none;text-decoration-style:solid;text-indent:0;text-orientation:mixed;text-transform:none;white-space:normal"/>
 <path id="ac" d="m529.16 549.59c-123.37 0-223.5-100.13-223.5-223.5h11.303c0 117.26 94.938 212.2 212.2 212.2z" color="#000000" color-rendering="auto" dominant-baseline="auto" fill="#c23e3c" image-rendering="auto" shape-rendering="auto" solid-color="#000000" stroke-width=".75056" style="font-feature-settings:normal;font-variant-alternates:normal;font-variant-caps:normal;font-variant-ligatures:normal;font-variant-numeric:normal;font-variant-position:normal;isolation:auto;mix-blend-mode:normal;paint-order:stroke fill markers;shape-padding:0;text-decoration-color:#000000;text-decoration-line:none;text-decoration-style:solid;text-indent:0;text-orientation:mixed;text-transform:none;white-space:normal"/>
 <path id="ad" d="m752.64 326.09c0 123.37-100.13 223.5-223.5 223.5v-11.303c117.26 0 212.2-94.938 212.2-212.2z" color="#000000" color-rendering="auto" dominant-baseline="auto" fill="#9a99a4" image-rendering="auto" shape-rendering="auto" solid-color="#000000" stroke-width=".75056" style="font-feature-settings:normal;font-variant-alternates:normal;font-variant-caps:normal;font-variant-ligatures:normal;font-variant-numeric:normal;font-variant-position:normal;isolation:auto;mix-blend-mode:normal;paint-order:stroke fill markers;shape-padding:0;text-decoration-color:#000000;text-decoration-line:none;text-decoration-style:solid;text-indent:0;text-orientation:mixed;text-transform:none;white-space:normal"/>
 <path id="ae" d="m403.54 322.99 26.502-78.133h106.87l-30.803 158.13h-31.741l25.384-130.73h-45.964l-27.741 80.46c-4.4358 11.348-9.3069 22.629-16.024 32.837-5.2164 7.8884-12.564 14.921-21.886 17.473-8.7515 2.4168-18.224 2.4618-26.96-0.045l5.3965-27.613c3.7453 0.86314 8.0235 1.4711 11.454-0.70553 4.7135-2.8972 7.3555-7.9935 9.8624-12.73 6.2597-12.534 10.883-25.789 15.649-38.932z" fill="#fff" stroke-width=".75056"/>
 <path id="af" d="m537.12 402.98 30.818-158.11h69.314c12.632 0.47285 25.752 1.9289 37.003 8.1511 7.0102 3.8429 12.79 10.245 14.944 18.051 3.4976 12.737 0.668 27.748-9.2319 36.958-6.9427 6.6274-16.22 9.8323-25.316 12.189 6.1396 1.3735 12.332 3.1974 17.541 6.8526 7.7683 5.1338 13.232 13.705 14.193 23.012 1.1484 11.671-1.4636 24.176-9.1944 33.272-7.9484 9.4796-19.935 14.471-31.786 16.97-15.507 3.4826-31.463 2.5219-47.225 2.6495h-61.058m51.331-94.308h34.563c6.072 0.03 12.182-0.3978 18.104-1.7863 4.7285-1.1484 9.5546-3.1148 12.662-7.0252 3.8729-4.7961 4.5859-11.386 3.7528-17.3-0.74305-4.8336-4.3232-8.8866-8.8416-10.59-6.725-2.5819-14.058-2.6615-21.158-2.654h-31.477m-12.333 63.753-8.8041 45.473h37.596c8.3762-0.0225 16.865-0.3978 24.971-2.672 4.3983-1.2534 8.7515-3.4075 11.619-7.0853 4.0755-5.1038 4.9537-12.046 4.2106-18.359-0.7956-6.1396-5.1639-11.446-10.793-13.878-7.5281-3.31-15.942-3.5314-24.033-3.4788z" fill="#fff" stroke-width=".75056"/>
</svg>
