<svg id="a" enable-background="new 0 0 283.464 283.464" version="1.1" viewBox="0 0 198.08 235.22" xml:space="preserve" xmlns="http://www.w3.org/2000/svg"><g id="b" transform="translate(-42.745,-24.124)"><g id="c"><path id="d" d="m100.95 158.58h-22.298v-68.444h-6.49v48.435c0 6.364-0.812 10.942-2.452 13.718-1.64 2.794-4.127 4.526-7.48 5.229-3.334 0.701-8.671 1.062-15.99 1.062h-3.497v-14.728c2.722 0 4.58-0.342 5.606-1.01 1.01-0.666 1.532-2.956 1.532-6.867v-62.947h51.068v85.552zm58.405 0h-22.28v-38.503c-2.813 0-4.651 0.468-5.462 1.405-0.829 0.938-1.243 2.974-1.243 6.148v30.95h-20.658v-25.507c0-4.326 0.234-7.625 0.721-9.877 0.468-2.255 1.567-4.11 3.298-5.59 1.73-1.478 4.452-2.722 8.184-3.712-5.101-0.451-8.419-1.893-9.933-4.345-1.514-2.451-2.27-6.85-2.27-13.178 0-5.714 0.702-10.166 2.108-13.392 1.424-3.228 3.462-5.534 6.128-6.939 2.687-1.408 5.769-2.272 9.248-2.561 3.48-0.306 8.942-0.451 16.369-0.451h15.79zm-22.28-51.915v-18.908h-1.063c-1.857 0-3.262 0.413-4.218 1.243s-1.424 2.595-1.424 5.318v4.687c0 3.172 0.396 5.246 1.189 6.22 0.792 0.953 2.631 1.44 5.516 1.44z" fill="#752c2d"/><path id="e" d="m189.6 210.74 50.261-0.11 0.024 11.424-33.931 0.075 33.938 4.492 0.02 8.104-33.145 4.888 33.154-0.077 0.025 11.426-50.259 0.11-0.037-16.924c3.017-0.504 6.578-1.031 10.676-1.601l12.788-1.831-23.479-2.925zm50.182-34.537 0.025 10.923-22.878 0.051 22.896 6.753 0.023 11.456-50.293 0.109-0.021-10.927 22.686-0.049-22.704-7.28-0.023-10.928zm-50.334-35.157 50.258-0.111 0.029 13.066-21.108 0.046 0.01 3.91 21.107-0.047 0.028 13.076-50.262 0.11-0.025-13.075 17.969-0.038-8e-3 -3.91-17.972 0.04zm29.346-35.172c5.057-0.011 8.626 0.097 10.727 0.327 2.108 0.239 4.027 0.977 5.768 2.224 1.743 1.246 3.082 2.938 4.018 5.065 0.94 2.128 1.41 4.618 1.416 7.447 6e-3 2.692-0.433 5.109-1.309 7.251-0.873 2.153-2.187 3.872-3.94 5.18-1.758 1.308-3.674 2.084-5.737 2.344-2.079 0.249-5.702 0.383-10.874 0.395l-8.592 0.02c-5.055 0.012-8.626-0.097-10.738-0.337-2.099-0.229-4.017-0.965-5.756-2.223-1.74-1.247-3.083-2.928-4.02-5.067-0.936-2.128-1.407-4.606-1.414-7.446-7e-3 -2.691 0.434-5.108 1.311-7.25 0.874-2.143 2.185-3.874 3.939-5.181 1.757-1.307 3.672-2.084 5.74-2.334 2.074-0.258 5.688-0.383 10.871-0.395zm-16.479 13.103c-2.344 5e-3 -3.836 0.135-4.492 0.401-0.647 0.256-0.976 0.786-0.972 1.591 1e-3 0.689 0.268 1.208 0.798 1.567 0.52 0.369 2.08 0.546 4.675 0.541l23.461-0.051c2.924-7e-3 4.725-0.137 5.404-0.372 0.687-0.234 1.025-0.797 1.023-1.667 0-0.889-0.396-1.45-1.182-1.703-0.793-0.242-2.658-0.365-5.626-0.359zm-12.959-17.911-0.028-13.162c-7e-3 -3.56 0.264-6.304 0.821-8.214 0.557-1.918 1.357-3.362 2.405-4.318 1.059-0.966 2.336-1.625 3.833-1.968 1.502-0.343 3.822-0.518 6.969-0.524l4.376-0.01c3.213-7e-3 5.553 0.316 7.021 0.97 1.471 0.665 2.6 1.88 3.396 3.647 0.79 1.768 1.186 4.078 1.191 6.929l9e-3 3.508 20.24-0.045 0.029 13.076zm8.567-13.095 12.789-0.029c0.021-0.372 0.029-0.689 0.028-0.953-2e-3 -1.209-0.298-2.034-0.886-2.5-0.593-0.463-1.823-0.694-3.678-0.69l-4.132 9e-3c-1.718 2e-3 -2.841 0.271-3.346 0.812-0.516 0.541-0.781 1.654-0.775 3.351z" fill="#752c2d" stroke="#fff" stroke-miterlimit="2.6131" stroke-width=".216"/><path id="f" d="m165.57 24.232v144.22c-36.879-17.838-76.212 18.769-77.425 52.792-0.637 17.843 9.368 32.07 26.692 36.663 31.323 8.308 69.077-23.692 68.675-59.387l-0.451-174.29zm-19.425 157.38c-13.788 0.171-28.676 11.856-35.661 24.311-4.667 8.325-6.547 19.198-1.451 27.829 6.268 10.615 21.085 8.29 32.589 2.468 12.827-6.487 23.897-20.933 23.898-35.787 5e-3 -11.737-7.897-18.964-19.375-18.821z" clip-rule="evenodd" fill="#dbab69" fill-rule="evenodd" stroke="#dbab69" stroke-miterlimit="2.6131" stroke-width=".216"/></g></g></svg>
