<svg width="800" height="776.21" version="1.1" viewBox="0 0 800 776.21" xml:space="preserve" xmlns="http://www.w3.org/2000/svg">
<g transform="matrix(1.0988 0 0 1.0988 -614.52 -183.94)">
	<path d="m1102.3 167.4c-93.9 162.5-211.1 308.6-354.8 429.3 10.5-20.5 16.3-38.1 20.1-63.2-8.8-18.4-46.5-43.1-69.1-44.8-1.3 38.9-4.6 60.7-18.4 130.7 7.5 13.4 33.6 23.9 57.9 27.2 94.5-77.8 236.1-231.1 323.6-346.4-36.1 109.3-76.3 215.4-111 325.9 2.9 2.1 6.1 4.1 9.7 6.2l2.9-8.1 16.8 6.1-3.7 10.3c12.5 5.8 27 11.3 42 16.2l4.1-11.3 16.8 6.1-3.8 10.5c4.2 1.2 8.3 2.4 12.5 3.5 12.5-33.7 116.2-317.6 146.8-421.5-22.4-27-64-62.5-92.4-76.7zm-21 125.6 4.2-11.5 16.8 6.1-4.2 11.5zm9.8 25.7-4.2 11.5-16.8-6.1 4.2-11.5zm-27.9 25.1 16.8 6.1-4.2 11.5-16.8-6.1zm-11.1 31.1 16.8 6.1-4.2 11.5-16.8-6.1zm-11.1 31.2 16.8 6.1-4.2 11.5-16.8-6.1zm-11.1 31.1 16.8 6.1-4.2 11.5-16.8-6.1zm-11.2 31.1 16.8 6.1-4.2 11.5-16.8-6.1zm-31.8 142.2-16.8-6.1 4.2-11.5 16.8 6.1zm11.1-31.1-16.8-6.1 4.2-11.5 16.8 6.1zm11.1-31.2-16.8-6.1 4.2-11.5 16.8 6.1zm11.2-31.1-16.8-6.1 4.2-11.5 16.8 6.1zm25.6 114.5-16.8-6.1 4.2-11.5 16.8 6.1zm11-31.4-16.8-6.2 4.2-11.5 16.8 6.2zm11-31.4-16.8-6.2 4.2-11.5 16.8 6.2zm11-31.3-16.8-6.2 4.2-11.5 16.8 6.2zm11-31.4-16.8-6.2 4.3-11.5 16.8 6.2zm10.9-31.3-16.8-6.3 4.3-11.5 16.8 6.3zm11-31.4-16.7-6.3 4.3-11.5 16.7 6.3zm11-31.3-16.7-6.3 4.3-11.5 16.7 6.3zm11-31.4-16.7-6.3 4.3-11.4 16.7 6.3zm11-31.4-16.7-6.4 4.4-11.4 16.7 6.4zm11-31.3-16.7-6.4 4.4-11.4 16.7 6.4z" fill="#ed1c27"/>
</g>
<g transform="matrix(1.0988 0 0 1.0988 -614.52 -183.94)">
	<g fill="#ed1c27">
		<path d="m1200.6 800.1c2.4-0.4 3.4 0.5 3.4 2.6-0.2 12.3-2.4 24.2-7.6 35.4-7.9 16.9-20.8 28.5-38.4 34.8-0.7 0.2-1.5 0.3-2.2 0.1-6-1.6-11.5-4.3-16.2-8.3-4-3.5-4.6-4.5-4.9-9.8-0.2-2.8-0.2-5.5-0.3-8.3v-1.7c-0.4 0.3-0.7 0.5-1 0.7-10.4 10.8-22.3 19.7-35 27.4-1.1 0.7-1.9 0.7-3 0-3.7-2.1-7.1-4.7-9.8-8.1-0.3-0.4-0.7-0.8-1-1.3-2-2.9-1.9-2.9-0.6-6 4.2-9.6 7.7-19.5 11-29.5 2.2-6.8 4.2-13.6 6.3-20.5 0.2-0.5 0.3-1.1 0.2-1.7-6.5 12.9-13.7 25.3-22.6 36.7s-19.1 21.5-29.8 31.2c-5.6-2.9-10.4-6.5-13.5-12.1-0.5-0.8-0.5-1.5-0.1-2.4 6.2-12 11.1-24.6 15.6-37.3 2.2-6.1 4.2-12.3 6.3-18.5 0.2-0.5 0.3-1.1 0.2-1.7-0.4 0.7-0.8 1.5-1.2 2.2-4.9 9-10.3 17.7-16.4 25.9s-12.9 15.7-20.2 22.8c-7.4 7.2-15.3 13.9-23.4 20.4-0.2 0.2-0.5 0.4-0.8 0.6-2.1-0.9-4.1-2.2-6-3.6-3-2.2-5.5-4.9-7.4-8.1-0.6-1-0.7-1.9-0.2-3.1 1.9-4.7 3.5-9.6 4.7-14.6 0.1-0.3 0.1-0.6 0.3-1.2-0.5 0.5-0.9 0.7-1.1 1-10.8 11.4-23.1 20.8-36.5 28.9-1.1 0.7-1.9 0.7-3 0.1-4-2.3-7.5-5-10.3-8.7-0.2-0.2-0.3-0.4-0.5-0.7-2-2.9-1.9-2.9-0.6-6 4.6-10.6 8.4-21.5 12-32.5 0.1-0.2 0.1-0.4 0-0.7-0.2 0.3-0.5 0.6-0.7 0.9-9 14.5-20.5 26.9-33.8 37.4-4.4 3.5-8.9 6.7-13.4 10.1-0.4 0.3-0.9 0.6-1.4 0.9-5.6-2.9-10.5-6.6-13.6-12.2-0.4-0.8-0.5-1.4-0.1-2.2 6.3-14.1 11.2-28.8 15.7-43.6 3.4-11.2 6.5-22.5 9.2-33.9 0.1-0.4 0.2-0.8 0.4-1.3 0.3 0 0.5 0 0.7 0.1 5 2.1 9.9 4.6 14.1 8.1 1.9 1.5 3.5 3.3 4.9 5.2 0.5 0.7 0.6 1.3 0.4 2.2-6.5 21.1-14.1 41.7-23.9 61.5-0.6 1.2-1.2 2.5-1.7 3.9 0.4-0.2 0.8-0.4 1.1-0.6 7-4.4 13.4-9.7 19.2-15.6 9.4-9.5 17.3-20.1 24.2-31.5 5.4-8.9 3.8-5.4 6.5-15.3 1.5-5.4 2.8-10.9 4.2-16.4 0.1-0.5 0.3-1 0.5-1.7 1 0.4 2 0.8 2.9 1.2 4.2 1.9 8.2 4.1 11.8 7 1.9 1.5 3.5 3.3 5 5.2 0.6 0.8 0.7 1.5 0.4 2.5-3.3 10.5-6.8 21-10.8 31.3-4.4 11.6-9.2 23.1-14.9 34.1-0.1 0.3-0.3 0.6-0.5 1.1 0.6-0.3 1.1-0.4 1.4-0.6 9.7-5.1 18.3-11.7 26.2-19.2 2.1-2 4-4.1 6.1-6.1 0.9-0.9 1.5-1.9 1.5-3.2 0-0.9 0.1-1.8 0.2-2.9 1.3 0.2 2.5 0.3 3.6 0.6 4.5 1.5 8.6 3.8 11.6 7.6 0.1 0.2 0.3 0.3 0.4 0.5 2.7 3.6 2.9 4.3 1.6 8.7-1.3 4.6-3.3 8.8-6 12.7-0.2 0.2-0.3 0.5-0.3 0.9 0.4-0.2 0.8-0.5 1.1-0.7 7.6-5.3 14.5-11.4 20.9-18.1 10.8-11.3 20-23.8 28.1-37.2 3.6-6 7-12.2 10.5-18.3 0.3-0.5 0.5-1 0.9-1.7-0.6 0.1-0.9 0.1-1.2 0.1-9.9 2.5-18.7 7-26.2 14.1-3.1 2.9-5.5 6.3-7 10.4-0.1 0.2-0.2 0.4-0.3 0.7-2.1-1.5-3.8-3.2-5.2-5.2-5.6-7.2-3.5-16.5 3.5-21.5 3.6-2.6 7.6-4.1 11.9-4.9 8.6-1.8 17.3-1.5 25.9 0.1 1.3 0.2 2.5 0.6 3.6 1.2 3.7 1.7 7.2 3.6 10.6 6 2.8 2 5.3 4.4 7.3 7.3 0.5 0.7 0.6 1.4 0.3 2.2-6.5 18.2-13.6 36.2-22.5 53.5-1.6 3.1-3.3 6.1-5 9.1-0.2 0.4-0.5 0.9-0.5 1.5 0.4-0.3 0.8-0.6 1.1-1 11.6-11.1 21.5-23.5 30-37.1 7.4-11.8 13.7-24.2 19.4-36.9 0.5-1.1 0.7-2.2 1.1-3.3 0.2-0.6 0.3-1.2 0.5-1.9 0.3 0.1 0.6 0.1 0.8 0.2 4.1 1.8 8.1 3.9 11.7 6.5 2.8 2 5.2 4.4 7.2 7.2 0.5 0.7 0.7 1.3 0.4 2.2-5.9 19-12.6 37.7-20.9 55.8-1.4 3.1-3 6.1-4.5 9.2-0.2 0.5-0.5 1-0.7 1.5 0.7 0.2 1.1-0.2 1.5-0.5 8.7-4.6 16.6-10.4 23.9-17.1 2-1.8 3.9-3.8 5.9-5.6 0.9-0.8 1.3-1.7 1.5-2.9 1.3-9.3 4.1-18.2 8.7-26.4 5-9.2 11.6-17.1 20.5-22.8 5.8-3.7 12.1-6.1 18.9-6.8 1.3-0.1 2.8 0.1 4.1 0.4 6.5 1.8 10.7 6.1 13 12.3 0.3 0.8 0.5 1.7 0.8 2.8h-1.8c-14.2 0.1-25.5 6.1-33.9 17.5-5.6 7.7-8.8 16.4-10.4 25.7-1.5 8.5-1.6 17-0.6 25.5 0 0.4 0.2 0.8 0.3 1.4 14-5.1 25.3-13.5 33.6-25.7 8.3-12.4 11.9-26 12.1-40.6z"/>
		<path d="m574.8 873.8c-6.3-3-11.5-7-15.1-12.9-0.5-0.9-0.6-1.6-0.2-2.5 4.1-11.4 8.3-22.8 12.3-34.3 2.7-7.7 5.1-15.6 7-23.6 0.1-0.4 0.2-0.8 0.4-1.3 0.4 0.1 0.7 0.1 1 0.2 8.6 3.4 15.6 8.7 20.8 16.4 0.8 1.2 1 2.1 0.4 3.5-3.8 9.3-8.1 18.4-12.4 27.5-0.2 0.5-0.5 1.1-0.6 1.7 0.2-0.2 0.4-0.3 0.6-0.5 14.3-17 28.8-33.8 42.3-51.5 14.4-18.9 27.3-38.7 39.1-59.4 4.9-8.6 9.6-17.4 14.3-26.1 0.3-0.5 0.6-1 0.9-1.6 0.4 0.2 0.9 0.3 1.2 0.5 3.2 1.7 6.5 3.3 9.6 5.2 4.8 2.9 8.5 6.9 11.5 11.6 0.5 0.8 0.7 1.6 0.3 2.5-3.4 10.3-6.6 20.6-10.2 30.8-10.1 28.9-21.4 57.3-33.8 85.3-4 9.1-8.4 18-12.6 26.9-0.2 0.5-0.5 1-0.9 1.6-3.6-1.7-6.7-3.7-9.6-6.2-2.1-1.9-3.9-4.2-5.5-6.6-0.6-0.9-0.6-1.6-0.2-2.5 4.3-10.3 8.6-20.6 12.7-30.9 8.1-20.4 15.3-41 21.7-62 3.4-11.2 6.6-22.4 9.8-33.6 0.1-0.4 0.2-0.8 0.1-1.3-0.3 0.5-0.6 0.9-0.9 1.4-7.3 13.2-14.8 26.2-22.8 38.9-11.5 18.1-24.2 35.4-38 51.8-13.6 16.3-27.4 32.4-41.1 48.6-0.7 0.7-1.4 1.5-2.1 2.4z"/>
		<path d="m880.9 791.2c0.6-16.8-1.7-33.2-6-49.6 1-0.1 1.9-0.2 2.8-0.3 13.7-1.2 27.3-3.4 40.5-7.5 11.3-3.4 22-8.1 31.9-14.5 0.3-0.2 0.6-0.4 1.1-0.6 0.1 0.2 0.2 0.4 0.2 0.6 1.4 6.8 1.7 13.5-0.1 20.3-1.8 6.5-5.2 11.9-11.2 15.3-3.2 1.9-6.7 2.9-10.4 3.7-9.2 2-18.6 2.3-28 2.2-5.2-0.1-10.3-0.4-15.5-0.5h-1.1v1.9c0.3 4.8 0.7 9.6 1 14.4 0.4 7.7 0.4 15.4-0.3 23.2-1.1 12.6-3.9 24.7-9.4 36.1-7.5 15.4-18.8 27.1-33.8 35.4-1.3 0.7-2.6 1.4-4 2.1-0.5 0.2-1.2 0.4-1.6 0.2-7.2-1.9-13.5-5.4-18.6-10.9-1.5-1.6-2.3-3.4-2.6-5.7-1.4-10.7-0.4-21.2 2.7-31.5 3.2-10.6 8.2-20.1 15.6-28.4 5.5-6.1 11.8-11.1 19.5-14.1 3.5-1.4 7.2-2.4 11-2.6 2.5-0.2 4.7 0.6 6.9 1.6 3.7 1.7 6.5 4.4 8.5 8 0.3 0.4 0.5 0.9 0.8 1.3-0.1 0 0 0 0.1-0.1zm-0.2 4.9h-1.7c-11.5 0.5-21.3 5-29.1 13.5-6 6.5-9.8 14.3-12.2 22.7-2.7 9.4-3.3 19.1-2.7 28.8 0.1 1.8 0.3 3.6 0.5 5.4 0.3 0 0.5 0 0.6-0.1 1.5-0.8 3-1.5 4.4-2.3 13.2-7.4 23.4-17.7 30.3-31.1 4.9-9.6 7.7-19.8 9.1-30.5 0.4-2 0.5-4.1 0.8-6.4z"/>
		<path d="m758.9 866.2c14-5.1 25.3-13.5 33.7-25.7 8.3-12.2 12-25.8 12.1-40.5 0.6 0 1.1-0.1 1.5 0 1.3 0.3 1.9 1 1.9 2.4-0.3 4.3-0.4 8.6-1 12.9-1.6 11.7-5.4 22.7-12.1 32.5-8.2 12-19.3 20.3-33 25.1-0.6 0.2-1.4 0.3-2 0.1-6.1-1.6-11.6-4.3-16.3-8.4-0.5-0.4-0.9-0.9-1.4-1.3-2.1-1.8-3-4.1-3.3-7-0.9-9.5-0.3-18.8 2-28.1 0.1-0.4 0.2-0.8 0.3-1.3-0.4-0.1-0.7-0.1-1-0.1-4.6 0.1-9.3 0.2-13.9 0.3-1.1 0-1.7 0.5-2.1 1.5-5.9 14.9-12.6 29.4-19.5 43.8-0.2 0.4-0.4 0.7-0.6 1.2-0.4-0.2-0.8-0.3-1.1-0.5-3.9-2.1-7.5-4.7-10.2-8.3-0.4-0.5-0.7-0.9-1-1.4-1.8-2.8-1.8-2.8-0.5-5.8 4.5-10.3 8.2-20.9 11.7-31.6 4.8-14.8 9-29.7 12.5-44.8 0.1-0.4 0.2-0.8 0.4-1.3 0.4 0.1 0.8 0.2 1.1 0.3 4 1.7 7.8 3.8 11.3 6.3 2.8 2 5.3 4.3 7.3 7.1 0.6 0.8 0.8 1.6 0.4 2.6-2.5 7.2-5 14.5-7.4 21.8-0.2 0.5-0.4 1.1-0.6 1.7 5.4-0.1 10.6-0.2 15.9-0.3 0.9-2 1.7-4 2.7-5.9 4.3-8.7 9.9-16.4 17.6-22.5 6.1-4.9 13-8.2 20.8-9.8 4.2-0.8 7.9-0.1 11.5 2 4.6 2.6 7.4 6.6 8.9 11.6 0.1 0.3 0.1 0.6 0.1 1-2 0.1-4 0.2-5.9 0.3-11.4 1.1-20.6 6.3-27.9 15.1-5.7 6.9-9.1 15-11.2 23.6-2.3 9.7-2.5 19.5-1.5 29.4-0.5 0.8-0.4 1.3-0.2 2z"/>
		<path d="m1230.7 868.1c3.1-0.2 6-0.8 8.8-1.6 7.3-2 14-5.3 20.3-9.5 9.1-6.1 17.1-13.4 23.8-22.1 0.2-0.3 0.4-0.5 0.6-0.7 0.1-0.1 0.2-0.1 0.4-0.3 0.9 0.7 1.8 1.5 2.7 2.3-0.2 0.3-0.3 0.6-0.4 0.8-7.8 10.3-16.8 19.3-27.8 26.1-7.9 4.9-16.3 8.4-25.3 10.5-0.5 0.1-1.1 0.2-1.6 0-7.3-2-13.7-5.5-18.9-11.1-1.4-1.5-2.1-3.2-2.4-5.2-2.7-22.5 5.9-46.8 21.1-62.3 4.9-5 10.3-9.1 16.8-11.8 3.3-1.4 6.6-2.3 10.2-2.7 2.2-0.2 4.3 0.5 6.3 1.4 3.7 1.7 6 4.7 7.3 8.5 0.5 1.5 1.2 2.8 2 4.1 1.6 2.4 2.2 5.1 1.1 8.1-2.4 6.6-6.1 12.4-10.8 17.6-5.8 6.4-12.6 11.4-19.9 15.9-4.4 2.6-8.9 5-13.7 6.9-0.9 0.4-1.3 0.8-1.4 1.8-0.9 7.2-0.8 14.5 0.3 21.7 0.2 0.4 0.3 0.9 0.5 1.6zm31.4-70.4c-0.5 0.1-0.6 0.1-0.7 0.1-0.3 0.1-0.5 0.2-0.7 0.3-5.6 2.3-10.4 5.8-14.5 10.3-8 8.7-12.7 19.1-15.2 30.5-0.1 0.2 0 0.5 0 0.8 6.1-1.9 15.4-9.6 20.7-17.1s8.6-15.8 10.4-24.9z"/>
	</g>
</g>
</svg>
