<svg id="c" enable-background="new 0 0 283.464 283.464" version="1.1" viewBox="0 0 233.86 147.28" xml:space="preserve" xmlns="http://www.w3.org/2000/svg" xmlns:xlink="http://www.w3.org/1999/xlink"><g id="d" transform="translate(-24.803 -68.093)"><g id="e"><defs id="f"><rect id="b" x="24.803" y="68.093" width="233.86" height="147.28"/></defs><clipPath id="a"><use id="g" width="100%" height="100%" overflow="visible" xlink:href="#b"/></clipPath><path id="h" d="m258.56 75.418c0.139 0.984 0.139 1.796 0 3.315-2.144 12.94-5.242 25.685-7.866 38.526-2.156 10.555-4.439 21.084-6.668 31.625-3.902 18.47-7.809 36.938-11.688 55.412-0.933 4.446-3.528 7.605-7.348 9.877-1.504 0.896-3.146 1.259-4.893 1.189h-187.04c-4.529-1e-3 -7.338-2.492-8.249-7.319v-3.866c1.971-12.26 4.821-24.341 7.464-36.46 2.782-12.765 5.434-25.557 8.156-38.333 3.578-16.782 7.099-33.576 10.641-50.366 0.938-4.443 3.602-7.563 7.435-9.798 1.47-0.857 3.074-1.186 4.769-1.12h187.04c4.533 6e-3 7.337 2.492 8.25 7.318" clip-path="url(#a)" fill="#fff"/><path id="i" d="m136.72 165.33c-33.064-1e-3 -66.128-8e-3 -99.19 0.025-1.279 3e-3 -1.606-0.227-1.324-1.556 5.347-25.144 10.648-50.298 15.96-75.448 0.618-2.925 1.23-5.851 1.87-8.77 1.157-5.289 5.661-8.933 11.107-8.935 28.229-0.011 56.457-6e-3 84.687-6e-3 32.694 0 65.39 0 98.085 2e-3 0.828 0 1.664-0.02 2.483 0.077 3.579 0.42 5.974 3.415 5.424 7.167-0.513 3.498-1.358 6.947-2.089 10.411-5.296 25.108-10.608 50.212-15.864 75.328-0.276 1.315-0.704 1.74-2.096 1.739-33.017-0.044-66.035-0.034-99.053-0.034" clip-path="url(#a)" fill="#c32328"/><path id="j" d="m126.42 212.18c-30.161 1e-3 -60.323 1e-3 -90.483 0-0.506 0-1.013 3e-3 -1.519-2e-3 -5.022-0.044-7.794-3.493-6.76-8.411 0.909-4.32 1.818-8.639 2.73-12.957 1.557-7.378 3.136-14.753 4.651-22.139 0.212-1.033 0.565-1.374 1.675-1.372 66.262 0.032 132.52 0.03 198.79 0.01 1.028 0 1.441 0.103 1.181 1.311-2.48 11.506-4.893 23.027-7.351 34.537-1.147 5.372-5.673 9.018-11.186 9.019-30.574 8e-3 -61.148 3e-3 -91.724 4e-3" clip-path="url(#a)" fill="#080b0b"/><path id="k" d="m132.28 134.86c-0.605-0.055-0.942 0.298-1.322 0.507-7.244 3.999-14.409 8.152-21.751 11.965-4.824 2.506-9.823 2.505-14.479-0.706-6.054-4.177-12.064-8.418-18.267-12.753-0.567 2.486-1.106 4.837-1.64 7.189-0.406 1.794-0.832 3.584-1.19 5.387-0.257 1.284-0.959 1.922-2.282 1.896-2.163-0.042-4.328-0.026-6.491-0.1-1.566-0.053-1.875-0.497-1.542-1.995 2.345-10.547 4.71-21.09 7.019-31.644 0.305-1.397 1.042-1.964 2.392-1.911 0.046 1e-3 0.092-1e-3 0.137-1e-3 9.604 0.108 7.4-0.735 14.594 5.016 7.621 6.092 15.224 12.207 22.8 18.356 0.782 0.637 1.322 0.611 2.158 0.167 13.151-6.992 26.333-13.927 39.474-20.938 2.43-1.296 4.913-1.998 7.662-1.84 1.331 0.076 2.67 0.022 4.004 0.048 1.797 0.035 2.063 0.37 1.631 2.061-2.709 10.6-5.42 21.199-8.137 31.798-0.52 2.027-0.93 2.332-3.099 2.301-3.452-0.05-6.905-0.118-10.357-0.179-4.236-0.074-8.472-0.141-12.706-0.228-1.785-0.037-2.049-0.379-1.636-2.075 0.998-4.098 2.012-8.192 3.028-12.321" clip-path="url(#a)" fill="#fff"/><path id="l" d="m195.76 120.13c-1.853 0-3.598 0.021-5.341-7e-3 -1.811-0.027-2.181-0.483-1.702-2.16 1.179-4.123 0.419-4.228 5.408-4.16 6.676 0.091 13.352 0.138 20.028 0.204 2.264 0.021 4.514 0.165 6.657 0.974 3.021 1.14 3.927 2.945 3.057 6.051-2.625 9.385-5.273 18.763-7.86 28.157-0.322 1.163-0.909 1.521-2.052 1.5-8.239-0.151-16.48-0.271-24.722-0.372-1.146-0.015-1.537-0.285-1.188-1.551 2.49-9.041 4.91-18.101 7.351-27.155 0.118-0.438 0.218-0.881 0.364-1.481" clip-path="url(#a)" fill="#fff"/><path id="m" d="m176.39 135.18c-2.802 0-5.604 0.025-8.405-0.01-1.667-0.021-1.928-0.416-1.516-2.04 0.103-0.399 0.21-0.799 0.313-1.198 0.757-2.962 0.803-2.996 3.784-2.969 5.099 0.048 10.198 0.085 15.296 0.142 2.173 0.024 2.452 0.396 1.923 2.422-1.022 3.905-1.022 3.685-5.056 3.656-2.113-0.015-4.226-3e-3 -6.339-3e-3z" clip-path="url(#a)" fill="#fff"/><path id="n" d="m142.6 180.6c2.898 0 5.796-0.011 8.694 5e-3 1.564 9e-3 3.224-0.116 3.979 1.732 0.589 1.437-0.052 3.861-1.479 5.004-0.813 0.65-0.924 1.008-0.273 1.879 0.756 1.011 0.578 2.284 0.271 3.463-0.758 2.898-3.425 5.13-6.428 5.161-6.486 0.068-12.972 0.019-19.457 0.05-0.868 4e-3 -1.023-0.314-0.815-1.071 1.395-5.093 2.779-10.188 4.148-15.287 0.21-0.781 0.689-0.952 1.424-0.947 3.312 0.025 6.624 0.011 9.936 0.011" clip-path="url(#a)" fill="#fff"/><path id="o" d="m112.08 197.87c-1.931-1e-3 -3.863 0.033-5.794-9e-3 -3.053-0.064-5.058-2.014-5.271-5.064-0.32-4.547 2.449-9.408 6.441-11.333 1.094-0.526 2.232-0.854 3.446-0.855 3.909-0.012 7.819-0.051 11.727 9e-3 3.159 0.047 5.225 2.022 5.277 5.169 0.084 4.855-2.013 8.58-6.218 11.058-1.207 0.71-2.538 1.042-3.952 1.032-1.883-0.016-3.77-7e-3 -5.656-7e-3" clip-path="url(#a)" fill="#fff"/><path id="p" d="m64.13 197.88c-2.485 0-4.973 0.013-7.458-3e-3 -3.693-0.022-5.917-2.179-5.781-5.854 0.151-4.091 1.905-7.437 5.264-9.852 1.536-1.105 3.282-1.585 5.188-1.575 4.88 0.025 9.761-7e-3 14.641 0.029 0.488 4e-3 1.44-0.106 1.44 0.509 0.157 1.14-0.715 2.386-1.632 2.401-1.519 0.022-3.038 6e-3 -4.558 8e-3 -1.842 1e-3 -3.683 0.01-5.525 1e-3 -1.358-7e-3 -2.464 0.467-3.016 1.761-0.997 2.334-1.685 4.774-1.976 7.291-0.197 1.725 0.369 2.241 2.093 2.288 3.769 0.104 3.77 0.104 4.748-3.523 0.348-1.286 0.711-2.569 1.027-3.863 0.179-0.734 0.546-1.07 1.345-1.05 1.887 0.044 3.774 0.03 5.662 5e-3 0.751-9e-3 0.979 0.229 0.766 0.991-0.887 3.14-1.753 6.285-2.573 9.442-0.204 0.786-0.613 1.014-1.368 1.006-2.76-0.027-5.524-0.012-8.287-0.012" clip-path="url(#a)" fill="#fff"/><path id="q" d="m159.38 194.88c3.324 0 6.263-0.022 9.2 0.021 0.541 7e-3 1.547-0.018 1.547 0.563 0 1.275-0.719 2.401-1.771 2.404-3.59 0.012-7.18 6e-3 -10.771 6e-3 -1.104 0-2.21 6e-3 -3.313-8e-3 -0.252-3e-3 -0.587 0.114-0.705-0.239-0.106-0.32 0.152-0.498 0.353-0.683 0.135-0.124 0.279-0.24 0.418-0.361 5.865-5.034 11.727-10.073 17.597-15.104 1.798-1.54 3.412-1.293 4.617 0.677 2.878 4.701 5.762 9.4 8.634 14.105 0.253 0.412 0.73 0.833 0.372 1.362-0.256 0.255-0.848 0.239-1.287 0.242-2.762 0.015-5.523-0.021-8.285 0.025-0.897 0.015-1.443-0.311-1.887-1.073-1.707-2.938-3.455-5.854-5.198-8.773-0.23-0.386-0.343-1.002-1.052-0.386-2.698 2.346-5.438 4.646-8.469 7.222" clip-path="url(#a)" fill="#fff"/><path id="r" d="m89.379 197.87c-2.346 0-4.69 0.028-7.034-6e-3 -3.658-0.053-5.425-2.073-4.806-5.713 0.625-3.666 1.886-7.184 2.787-10.787 0.15-0.602 0.547-0.773 1.122-0.771 2.665 0.012 5.333 0.028 7.999-0.01 0.929-0.013 0.943 0.418 0.751 1.118-0.841 3.052-1.664 6.108-2.49 9.165-0.108 0.398-0.209 0.799-0.29 1.204-0.424 2.136 0.098 2.79 2.274 2.806 2.482 0.016 4.965-0.021 7.447 0.024 0.532 0.01 1.487-0.072 1.487 0.623 0 1.328-0.642 2.34-1.664 2.346-2.528 0.018-5.057 7e-3 -7.584 7e-3v-6e-3z" clip-path="url(#a)" fill="#fff"/><path id="s" d="m200.26 197.87c-2.391 0-4.781 0.035-7.172-9e-3 -3.35-0.061-4.976-1.81-4.747-5.166 0.155-2.259 1.033-4.367 1.577-6.547 0.365-1.469 0.839-2.913 1.167-4.389 0.199-0.889 0.633-1.194 1.524-1.178 2.482 0.043 4.968 0.062 7.447-6e-3 1.086-0.029 1.238 0.363 0.978 1.295-0.855 3.051-1.667 6.109-2.492 9.166-0.084 0.311-0.172 0.621-0.229 0.937-0.419 2.342 0.042 2.898 2.439 2.907 2.436 0.01 4.873-0.027 7.309 0.025 0.517 0.013 1.47-0.076 1.47 0.617 0 1.36-0.684 2.34-1.685 2.347-2.528 0.018-5.057 6e-3 -7.586 6e-3z" clip-path="url(#a)" fill="#fff"/><path id="t" d="m136.43 194.88c0.971-3.606 1.907-7.053 2.819-10.506 0.166-0.631 0.461-0.879 1.144-0.852 1.467 0.058 2.938-2e-3 4.409 0.027 0.846 0.017 1.863-0.161 2.024 1.095 0.124 0.982-0.742 2.128-1.821 2.252-1.179 0.135-2.381 0.082-3.573 0.099-1.268 0.015-2.337 1.327-2.063 2.524 0.118 0.518 0.523 0.435 0.871 0.44 1.056 0.02 2.114-0.031 3.169 0.029 1.345 0.077 1.779 0.671 1.566 1.994-0.3 1.87-1.376 2.854-3.253 2.889-1.732 0.036-3.467 9e-3 -5.292 9e-3" clip-path="url(#a)" fill="#080b0b"/><path id="u" d="m113.01 194.87c-3.604 0-4.061-0.501-3.263-3.982 0.398-1.739 0.828-3.481 1.5-5.15 0.602-1.496 1.644-2.263 3.282-2.205 1.012 0.034 2.025-0.012 3.035 0.02 1.22 0.038 1.96 0.63 1.741 1.916-0.448 2.625-1.033 5.225-2.22 7.636-0.894 1.814-2.455 1.758-4.075 1.765" clip-path="url(#a)" fill="#080b0b"/></g></g></svg>
