<svg id="i" version="1.1" viewBox="0 0 796.01 253.78" xml:space="preserve" xmlns="http://www.w3.org/2000/svg" xmlns:xlink="http://www.w3.org/1999/xlink"><defs id="j"><linearGradient id="a"><stop id="k" stop-color="#fff" stop-opacity=".61111" offset="0"/><stop id="l" stop-color="#fff" stop-opacity="0" offset="1"/></linearGradient><clipPath id="h"><path id="m" d="m0 0h595.28v841.89h-595.28z"/></clipPath><linearGradient id="g" x1="145.95" x2="145.95" y1="107.17" y2="31.496" gradientUnits="userSpaceOnUse" xlink:href="#a"/><linearGradient id="f" x1="145.95" x2="145.95" y1="107.17" y2="31.496" gradientTransform="translate(-99.976 -2.085)" gradientUnits="userSpaceOnUse" xlink:href="#a"/><linearGradient id="e" x1="145.95" x2="145.95" y1="107.17" y2="31.496" gradientTransform="translate(201.39 -1.1e-5)" gradientUnits="userSpaceOnUse" xlink:href="#a"/><linearGradient id="d" x1="145.95" x2="145.95" y1="107.17" y2="31.496" gradientTransform="translate(302.09 -1.1e-5)" gradientUnits="userSpaceOnUse" xlink:href="#a"/><linearGradient id="c" x1="145.95" x2="145.95" y1="107.17" y2="31.496" gradientTransform="translate(399.99 -1.1e-5)" gradientUnits="userSpaceOnUse" xlink:href="#a"/><linearGradient id="b" x1="145.95" x2="145.95" y1="107.17" y2="31.496" gradientTransform="translate(101.59 -.00024359)" gradientUnits="userSpaceOnUse" xlink:href="#a"/></defs><g id="n" transform="matrix(1.3333 0 0 -1.3333 -2.0199 253.78)"><path id="o" d="m300.11 49.565v91.202c0 26.121-21.369 47.48-47.48 47.48s-47.469-21.369-47.469-47.48v-91.202c0-26.111 21.358-47.48 47.469-47.48s47.48 21.369 47.48 47.48" fill="#4c2e69"/><path id="p" d="m300.11 49.565v91.202c0 26.121-21.369 47.48-47.48 47.48s-47.469-21.369-47.469-47.48v-91.202c0-26.111 21.358-47.48 47.469-47.48s47.48 21.369 47.48 47.48z" fill="none" stroke="#fff" stroke-miterlimit="22.926" stroke-width="4.1701"/><path id="q" d="m291.78 49.565v91.202c0 21.517-17.633 39.14-39.15 39.14-21.507 0-39.14-17.633-39.14-39.14v-91.202c0-21.517 17.633-39.139 39.14-39.139 21.517 0 39.15 17.622 39.15 39.139" fill="#fff"/><path id="r" d="m397.85 77.688v35.202c0 26.111-21.369 47.469-47.48 47.469s-47.48-21.369-47.48-47.469v-35.202c0-26.111 21.369-47.48 47.48-47.48s47.48 21.369 47.48 47.48" fill="#492a91"/><path id="s" d="m397.85 77.688v35.202c0 26.111-21.369 47.469-47.48 47.469s-47.48-21.369-47.48-47.469v-35.202c0-26.111 21.369-47.48 47.48-47.48s47.48 21.369 47.48 47.48z" fill="none" stroke="#fff" stroke-miterlimit="22.926" stroke-width="4.1701"/><path id="t" d="m361.99 117.82h0.56095v40.949c6.435-1.7146 12.351-4.7734 17.421-8.8376v-77.168c0-8.7318-2.9635-13.103-8.8799-13.103-3.6197 0-6.4774 1.9263-8.5413 5.7683-3.7044-4.0642-8.5942-6.0964-14.659-6.0964-7.9168 0-14.616 3.3975-20.078 10.203-5.038 6.3715-7.5464 13.622-7.5464 21.761 0 8.3613 2.4661 15.611 7.43 21.75 5.2496 6.6573 11.992 9.9913 20.194 9.9913 5.4084 0 10.097-1.7358 14.098-5.2179m0.56095-27.635v3.2175c0 8.6577-4.0007 12.987-11.992 12.987-3.842 0-6.8796-1.6617-9.1022-4.9956-1.8416-2.8153-2.773-6.2551-2.773-10.319 0-4.0007 0.96314-7.4088 2.8788-10.214 2.2226-3.1858 5.2285-4.7734 8.9964-4.7734 3.9161 0 6.9537 1.4077 9.1022 4.223 1.9263 2.5825 2.8894 5.8741 2.8894 9.8748" fill="#fff"/><path id="u" d="m498.54 77.688v35.202c0 26.111-21.369 47.469-47.469 47.469-26.121 0-47.49-21.358-47.49-47.469v-35.202c0-26.111 21.369-47.48 47.49-47.48 26.1 0 47.469 21.369 47.469 47.48" fill="#492a91"/><path id="v" d="m498.54 77.688v35.202c0 26.111-21.369 47.469-47.469 47.469-26.121 0-47.49-21.358-47.49-47.469v-35.202c0-26.111 21.369-47.48 47.49-47.48 26.1 0 47.469 21.369 47.469 47.48z" fill="none" stroke="#fff" stroke-miterlimit="22.926" stroke-width="4.1701"/><path id="w" d="m440.45 91.182c0-3.9267 0.93139-7.25 2.7836-9.9913 2.138-3.1117 5.1015-4.6569 8.88-4.6569 3.7679 0 6.6891 1.5453 8.7635 4.6569 1.7781 2.7412 2.6672 6.0646 2.6672 9.9913 0 3.9161-0.88905 7.2183-2.6672 9.8748-2.0745 3.0376-4.9956 4.5511-8.7635 4.5511-3.7044 0-6.6256-1.5135-8.7847-4.5511-1.9157-2.7412-2.8788-6.0329-2.8788-9.8748m23.75-25.084c-3.6938-4.5088-8.7318-6.7737-15.093-6.7737-8.065 0-14.722 3.3339-19.972 9.9913-4.8051 6.1387-7.2183 13.357-7.2183 21.644 0 8.3613 2.5084 15.643 7.5464 21.866 5.3343 6.6573 12.097 9.9807 20.311 9.9807 5.9905 0 10.796-2.138 14.426-6.435 2.0744 3.7785 4.9215 5.6624 8.5518 5.6624 5.9164 0 8.8799-4.3288 8.8799-12.987v-36.07c0-8.7318-2.9635-13.103-8.8799-13.103-3.9161 0-6.7737 2.0745-8.5518 6.2234" fill="#fff"/><path id="x" d="m440.45 91.182c0-3.9267 0.93139-7.25 2.7836-9.9913 2.138-3.1117 5.1015-4.6569 8.88-4.6569 3.7679 0 6.6891 1.5453 8.7635 4.6569 1.7781 2.7412 2.6672 6.0646 2.6672 9.9913 0 3.9161-0.88905 7.2183-2.6672 9.8748-2.0745 3.0376-4.9956 4.5511-8.7635 4.5511-3.7044 0-6.6256-1.5135-8.7847-4.5511-1.9157-2.7412-2.8788-6.0329-2.8788-9.8748zm23.75-25.084c-3.6938-4.5088-8.7318-6.7737-15.093-6.7737-8.065 0-14.722 3.3339-19.972 9.9913-4.8051 6.1387-7.2183 13.357-7.2183 21.644 0 8.3613 2.5084 15.643 7.5464 21.866 5.3343 6.6573 12.097 9.9807 20.311 9.9807 5.9905 0 10.796-2.138 14.426-6.435 2.0744 3.7785 4.9215 5.6624 8.5518 5.6624 5.9164 0 8.8799-4.3288 8.8799-12.987v-36.07c0-8.7318-2.9635-13.103-8.8799-13.103-3.9161 0-6.7737 2.0745-8.5518 6.2234z" fill="none" stroke="#231f20" stroke-miterlimit="22.926" stroke-width=".27518"/><path id="y" d="m596.44 77.688v35.202c0 26.111-21.369 47.469-47.469 47.469-26.121 0-47.49-21.358-47.49-47.469v-35.202c0-26.111 21.369-47.48 47.49-47.48 26.1 0 47.469 21.369 47.469 47.48" fill="#492a91"/><path id="z" d="m596.44 77.688v35.202c0 26.111-21.369 47.469-47.469 47.469-26.121 0-47.49-21.358-47.49-47.469v-35.202c0-26.111 21.369-47.48 47.49-47.48 26.1 0 47.469 21.369 47.469 47.48z" fill="none" stroke="#fff" stroke-miterlimit="22.926" stroke-width="4.1701"/><path id="aa" d="m524.38 72.423v36.07c0 8.6577 3.0376 12.987 9.1022 12.987 3.5456 0 6.4033-1.8839 8.5413-5.6624 3.408 3.7785 8.6577 5.6624 15.76 5.6624 14.585 0 21.877-7.7686 21.877-23.306v-25.751c0-8.7318-3.0058-13.092-8.9964-13.092-5.9905 0-8.9964 4.3606-8.9964 13.092v20.311c0 4.4347-0.50804 7.5887-1.5453 9.4303-1.4077 2.6672-4.1172 4.0007-8.1073 4.0007-6.361 0-9.5467-4.4029-9.5467-13.209v-20.533c0-8.7318-2.9953-13.092-8.9858-13.092-6.0646 0-9.1022 4.3606-9.1022 13.092" fill="#fff"/><path id="ab" d="m98.549 77.688v35.202c0 26.111-21.369 47.469-47.469 47.469-26.121 0-47.48-21.369-47.48-47.469v-35.202c0-26.111 21.358-47.48 47.48-47.48 26.1 0 47.469 21.369 47.469 47.48" fill="#492a91"/><path id="ac" d="m98.549 77.688v35.202c0 26.111-21.369 47.469-47.469 47.469-26.121 0-47.48-21.369-47.48-47.469v-35.202c0-26.111 21.358-47.48 47.48-47.48 26.1 0 47.469 21.369 47.469 47.48z" fill="none" stroke="#fff" stroke-miterlimit="22.926" stroke-width="4.1701"/><path id="ad" d="m196.45 77.688c3.9729 104.4-94.959 96.513-94.959 0 0-26.111 21.369-47.48 47.48-47.48s47.48 21.369 47.48 47.48" fill="#492a91"/><path id="ae" d="m196.45 77.688v35.202c0 26.111-21.369 47.469-47.48 47.469s-47.48-21.358-47.48-47.469v-35.202c0-26.111 21.369-47.48 47.48-47.48s47.48 21.369 47.48 47.48z" fill="none" stroke="#fff" stroke-miterlimit="22.926" stroke-width="4.1701"/><g id="af" transform="matrix(10.584 0 0 10.584 -300.02 -1817.8)"><g id="ag" clip-path="url(#h)"><g id="ah" transform="translate(29.467 178.6)"><path id="ai" d="m0 0v3.408c0 0.818 0.272 1.227 0.813 1.227 0.35 0 0.625-0.178 0.823-0.535 0.309 0.357 0.443 0.535 1.019 0.535 0.727 0 1.279-0.259 1.657-0.776 0.459 0.517 0.709 0.776 1.368 0.776 1.255 0 1.883-0.734 1.883-2.202v-2.433c0-0.825-0.278-1.237-0.833-1.237-0.542 0-0.813 0.412-0.813 1.237v1.919c0 0.846-0.103 1.269-0.618 1.269-0.563 0-0.689-0.416-0.689-1.248v-1.94c0-0.825-0.274-1.237-0.823-1.237s-0.824 0.412-0.824 1.237v1.919c0 0.846-0.137 1.269-0.645 1.269-0.569 0-0.661-0.416-0.661-1.248v-1.94c0-0.825-0.271-1.237-0.813-1.237-0.562 0-0.844 0.412-0.844 1.237" fill="#fff"/></g><g id="aj" transform="translate(43.6 180.86)"><path id="ak" d="m0 0c-0.035 0.329-0.171 0.58-0.409 0.755-0.237 0.175-0.528 0.262-0.87 0.262-0.287 0-0.633-0.093-1.038-0.278-0.406-0.185-0.658-0.278-0.755-0.278-0.448 0-0.672 0.221-0.672 0.661 0 0.168 0.063 0.336 0.189 0.503 0.224 0.308 0.58 0.542 1.07 0.703 0.412 0.14 0.842 0.21 1.29 0.21 0.839 0 1.538-0.288 2.097-0.866 0.559-0.576 0.839-1.288 0.839-2.133 0-0.839-0.267-1.556-0.803-2.15-0.534-0.595-1.218-0.892-2.049-0.892-0.413 0-0.787 0.077-1.122 0.231-0.483 0.224-0.878 0.556-1.185 0.997-0.308 0.44-0.462 0.918-0.462 1.436 0 0.28 0.101 0.493 0.304 0.64 0.175 0.133 0.405 0.199 0.692 0.199zm0.021-1.112h-2.233c0.021-0.293 0.134-0.534 0.34-0.723s0.456-0.283 0.75-0.283c0.301 0 0.552 0.092 0.755 0.278 0.203 0.185 0.332 0.428 0.388 0.728" fill="#fff"/></g><g id="al" transform="translate(53.578 185.21)"><path id="am" d="m0 0c0-0.365-0.128-0.677-0.385-0.934-0.257-0.256-0.568-0.385-0.934-0.385s-0.677 0.129-0.934 0.385c-0.257 0.257-0.385 0.569-0.385 0.934 0 0.366 0.128 0.682 0.385 0.949 0.257 0.266 0.568 0.4 0.934 0.4s0.677-0.134 0.934-0.4c0.257-0.267 0.385-0.583 0.385-0.949m-2.505-3.898c0 1.166 0.396 1.749 1.186 1.749 0.791 0 1.186-0.583 1.186-1.749v-4.461c0-1.166-0.395-1.749-1.186-1.749-0.79 0-1.186 0.583-1.186 1.749z" fill="#492a91"/></g></g></g><path id="an" d="m196.45 77.688v27.152c-2.5142 1.7378-5.9782 3.5762-11.146 3.6174-7.5773 0.0605-15.536-5.1248-25.458-10.168-10.645-5.4105-22.68-10.883-33.845-12.843-4.8783-0.85666-12.412 4.4979-17.163 10.236-2.9424 3.5534-5.3246 7.6875-7.3477 11.168v-29.162c0-26.111 21.369-47.48 47.48-47.48s47.48 21.369 47.48 47.48" fill="url(#g)"/><path id="ao" d="m298.04 77.688v27.152c-2.5143 1.7378-5.9782 3.5762-11.146 3.6174-7.5773 0.0605-15.536-5.1248-25.458-10.168-10.645-5.4105-22.68-10.883-33.845-12.843-4.8783-0.85666-12.412 4.4979-17.163 10.236-2.9424 3.5534-5.3246 7.6875-7.3477 11.168v-29.162c0-26.111 21.369-47.48 47.48-47.48s47.48 21.369 47.48 47.48" fill="url(#b)"/><path id="ap" d="m96.474 75.603v27.152c-2.5142 1.7378-5.9782 3.5762-11.146 3.6174-7.5773 0.0605-15.536-5.1248-25.458-10.168-10.645-5.4105-22.68-10.883-33.845-12.843-4.8783-0.85666-12.412 4.4979-17.163 10.236-2.9424 3.5534-5.3246 7.6875-7.3477 11.168v-29.162c0-26.111 21.369-47.48 47.48-47.48s47.48 21.369 47.48 47.48" fill="url(#f)"/><path id="aq" d="m397.85 77.688v27.152c-2.5142 1.7378-5.9782 3.5762-11.146 3.6174-7.5773 0.0605-15.536-5.1248-25.458-10.168-10.645-5.4105-22.68-10.883-33.845-12.843-4.8783-0.85666-12.412 4.4979-17.163 10.236-2.9424 3.5534-5.3246 7.6875-7.3477 11.168v-29.162c0-26.111 21.369-47.48 47.48-47.48s47.48 21.369 47.48 47.48" fill="url(#e)"/><path id="ar" d="m498.54 77.688v27.152c-2.5143 1.7378-5.9782 3.5762-11.146 3.6174-7.5773 0.0605-15.536-5.1248-25.458-10.168-10.645-5.4105-22.68-10.883-33.845-12.843-4.8783-0.85666-12.412 4.4979-17.163 10.236-2.9424 3.5534-5.3246 7.6875-7.3477 11.168v-29.162c0-26.111 21.369-47.48 47.48-47.48s47.48 21.369 47.48 47.48" fill="url(#d)"/><path id="as" d="m596.44 77.688v27.152c-2.5143 1.7378-5.9782 3.5762-11.146 3.6174-7.5773 0.0605-15.536-5.1248-25.458-10.168-10.645-5.4105-22.68-10.883-33.845-12.843-4.8783-0.85666-12.412 4.4979-17.163 10.236-2.9424 3.5534-5.3246 7.6875-7.3477 11.168v-29.162c0-26.111 21.369-47.48 47.48-47.48s47.48 21.369 47.48 47.48" fill="url(#c)"/></g></svg>
