<?xml version="1.0" encoding="UTF-8"?>
<!-- Generator: Adobe Illustrator 16.0.0, SVG Export Plug-In . SVG Version: 6.00 Build 0)  -->
<svg id="id" width="311.81" height="55.87" enable-background="new 0 0 841.89 595.28" version="1.1" viewBox="0 0 311.81 55.87" xml:space="preserve" xmlns="http://www.w3.org/2000/svg" xmlns:cc="http://creativecommons.org/ns#" xmlns:dc="http://purl.org/dc/elements/1.1/" xmlns:rdf="http://www.w3.org/1999/02/22-rdf-syntax-ns#"><metadata id="metadata9"><rdf:RDF><cc:Work rdf:about=""><dc:format>image/svg+xml</dc:format><dc:type rdf:resource="http://purl.org/dc/dcmitype/StillImage"/><dc:title/></cc:Work></rdf:RDF></metadata><path id="path2" d="m307.22 35.623c-2.031 6.873-4.985 10.309-8.867 10.309-2.99 0-4.485-1.566-4.485-4.7 0-1.103 0.159-2.277 0.479-3.523l7.853-37.176h-15.758l-1.174 5.824v-0.803c0-1.603-0.695-2.931-2.082-3.98-1.391-1.048-3.652-1.574-6.785-1.574-5.979 0-11.09 2.046-15.329 6.141-4.235 4.095-7.495 9.277-9.771 15.544-1.034 2.849-1.798 5.705-2.298 8.569-0.49 2.823-0.738 5.649-0.746 8.47-0.813 1.598-1.632 2.954-2.459 4.003-1.318 1.71-3.08 2.564-5.288 2.564-2.92 0-4.379-1.531-4.379-4.593 0-0.962 0.349-2.967 1.043-6.011 0.695-3.044 3.159-14.429 7.396-34.155h-16.183l-20.35 41.981-2.298-41.981h-15.328l-5.768 27.135c-0.604 2.813-1.166 5.554-1.682 8.224-0.516 2.672-1.156 5.046-1.924 7.128-0.767 2.085-1.743 3.77-2.936 5.049-1.195 1.282-2.726 1.924-4.595 1.924-1.87 0-3.09-0.49-3.659-1.47s-0.82-1.877-0.749-2.695c1.142 0.142 2.154-0.207 3.046-1.043 0.891-0.836 1.334-2.137 1.334-3.9 0-1.762-0.525-3.17-1.574-4.218-1.049-1.049-2.539-1.575-4.46-1.575-1.923 0-3.479 0.731-4.672 2.19-1.194 1.459-1.792 3.648-1.792 6.569 0 0.564 0.051 1.12 0.128 1.669-0.697 0.272-1.431 0.413-2.202 0.413-2.99 0-4.488-1.566-4.488-4.7 0-1.103 0.162-2.277 0.482-3.523l7.851-37.176h-15.754l-1.177 5.824v-0.803c0-1.603-0.695-2.931-2.082-3.98-1.39-1.048-3.651-1.574-6.782-1.574-5.982 0-11.092 2.046-15.33 6.141-4.239 4.095-7.497 9.277-9.774 15.544-1.034 2.849-1.797 5.705-2.296 8.569-0.491 2.82-0.737 5.646-0.745 8.467-0.813 1.598-1.633 2.954-2.46 4.006-1.317 1.71-3.081 2.564-5.288 2.564-2.919 0-4.38-1.531-4.38-4.593 0-0.962 0.348-2.967 1.042-6.011s3.16-14.429 7.397-34.155h-16.183l-20.35 41.981-2.297-41.981h-6e-3l0.022-0.023c-33.155-1.738-66.309 4.162-66.309 26.024 0 6.623 3.899 9.937 11.697 9.937-0.842-2.285-1.281-4.557-1.281-6.77 0-10.38 10.513-19.637 39.301-23.304l-4.521 21.271c-0.606 2.813-1.167 5.554-1.683 8.224-0.516 2.672-1.157 5.046-1.922 7.128-0.767 2.085-1.745 3.77-2.938 5.049-1.194 1.282-2.724 1.924-4.593 1.924s-3.09-0.49-3.659-1.47c-0.57-0.979-0.82-1.877-0.748-2.695 1.14 0.142 2.155-0.207 3.044-1.043 0.89-0.836 1.335-2.137 1.335-3.9 0-1.762-0.526-3.17-1.576-4.218-1.05-1.049-2.537-1.575-4.46-1.575-1.922 0-3.479 0.731-4.673 2.19-1.193 1.459-1.789 3.648-1.789 6.569s1.033 5.644 3.098 8.172c2.102 2.564 5.074 3.847 8.919 3.847 5.199 0 9.062-2.352 11.59-7.052 1.209-2.279 2.225-5.103 3.044-8.467s1.674-7.236 2.564-11.616l1.442-6.89 1.923 33.383h15.329l16.183-33.275-1.709 7.798c-1.531 6.695-2.297 11.608-2.297 14.741 0 3.134 1.086 5.821 3.258 8.064 2.208 2.208 5.413 3.313 9.614 3.313 6.193 0 11.343-3.219 15.45-9.649 0.034 0.098 0.058 0.202 0.093 0.3 2.278 6.231 6.597 9.35 12.952 9.35 6.354 0 11.919-3.349 16.691-10.042 0.713 6.693 4.29 10.042 10.736 10.042 4.938 0 9.216-1.659 12.846-4.946 0.252 0.369 0.521 0.735 0.816 1.1 2.103 2.564 5.074 3.847 8.921 3.847 5.197 0 9.062-2.352 11.59-7.052 1.211-2.279 2.226-5.103 3.044-8.467s1.674-7.236 2.564-11.616l1.44-6.89 1.924 33.383h15.328l16.183-33.275-1.707 7.798c-1.531 6.695-2.298 11.608-2.298 14.741 0 3.134 1.087 5.821 3.259 8.064 2.208 2.208 5.411 3.313 9.613 3.313 6.192 0 11.343-3.219 15.449-9.646 0.033 0.097 0.058 0.202 0.093 0.297 2.279 6.231 6.601 9.35 12.954 9.35 6.356 0 11.919-3.349 16.69-10.042 0.71 6.693 4.29 10.042 10.734 10.042 10.005 0 17.323-6.749 21.951-20.245h-4.587zm-167.65 0c-0.677 2.993-1.905 5.35-3.685 7.075-1.782 1.73-3.756 2.593-5.928 2.593-1.175 0-2.156-0.391-2.938-1.175-1.354-1.282-2.029-3.544-2.029-6.782 0-1.675 0.087-3.26 0.267-4.754 1.174-9.793 4.076-17.306 8.705-22.54 1.923-2.172 3.9-3.259 5.929-3.259 2.031 0 3.356 0.526 3.979 1.575 0.623 1.051 0.936 1.916 0.936 2.592zm139.45 0c-0.677 2.993-1.905 5.35-3.685 7.075-1.78 1.73-3.757 2.593-5.929 2.593-1.175 0-2.154-0.391-2.938-1.175-1.354-1.282-2.028-3.544-2.028-6.782 0-1.675 0.087-3.26 0.267-4.754 1.175-9.793 4.077-17.306 8.705-22.54 1.924-2.172 3.9-3.259 5.929-3.259 2.031 0 3.356 0.526 3.979 1.575 0.623 1.051 0.934 1.916 0.934 2.592z" fill="#f38f20"/></svg>
