<?xml version="1.0" encoding="UTF-8"?>
<!-- Generator: Adobe Illustrator 16.0.0, SVG Export Plug-In . SVG Version: 6.00 Build 0)  -->
<svg id="svg36" width="233.86" height="33.224" enable-background="new 0 0 283.464 283.464" version="1.1" viewBox="0 0 233.86 33.224" xml:space="preserve" xmlns="http://www.w3.org/2000/svg" xmlns:cc="http://creativecommons.org/ns#" xmlns:dc="http://purl.org/dc/elements/1.1/" xmlns:rdf="http://www.w3.org/1999/02/22-rdf-syntax-ns#"><metadata id="metadata42"><rdf:RDF><cc:Work rdf:about=""><dc:format>image/svg+xml</dc:format><dc:type rdf:resource="http://purl.org/dc/dcmitype/StillImage"/><dc:title/></cc:Work></rdf:RDF></metadata><g id="Logo" transform="translate(-24.802,-125.12)"><g id="g20"><rect id="rect2" x="157.4" y="125.12" width="101.26" height="32.808" fill="#ec2450"/><polygon id="polygon4" points="136.33 125.25 146.4 125.25 146.4 138.93 136.33 145.01" fill="#929191"/><path id="path6" d="m147.35 152.39c0.144-2.583-2.012-5.854-5.918-5.916-3.338-0.054-6.08 2.536-6.089 5.753-9e-3 3.494 2.805 6.097 5.94 6.115 3.486 0.023 6.05-2.724 6.067-5.952" fill="#929191"/><path id="path8" d="m121.86 125.14v16.525h-5.592v-16.525h-47.371l-9.516 15.248v-15.263h-10.237l-7.052 9.242-7.047-9.242h-10.238v32.79h10.177v-17.499l7.108 9.17 7.11-9.17v17.499h10.179v-5e-3h4e-3l4.346-6.931h11.106l-0.027 6.989h10.094v-23.368h5.556v23.332h10.183v-23.337h5.546v16.393h15.672v6.944h10.075v-32.792zm-47.022 16.543-5.273-5e-3 5.277-8.404z" fill="#929191"/><path id="path10" d="m183.32 149.55h-4.538l-0.649-2.719h-3.97l-0.649 2.719h-4.538v-0.464l4.358-15.408h5.627l4.359 15.357zm-8.378-6.068h2.41l-0.385-1.659c-0.139-0.621-0.273-1.271-0.403-1.947-0.13-0.674-0.224-1.339-0.273-1.995h-0.286c-0.036 0.656-0.117 1.321-0.247 1.995-0.13 0.677-0.264 1.326-0.403 1.947z" fill="#fff"/><path id="path12" d="m198.68 141.64c0 2.059-1.017 3.087-3.051 3.087h-4.888v4.822h-4.695v-15.872h9.578c2.039 0 3.056 1.027 3.056 3.086zm-4.641-4.46h-3.297v4.046h3.297z" fill="#fff"/><polygon id="polygon14" points="213.75 133.68 213.75 137.18 206.75 137.18 206.75 139.67 212.35 139.67 212.35 143.17 206.75 143.17 206.75 146.05 214.01 146.05 214.01 149.55 202.1 149.55 202.1 133.68" fill="#fff"/><polygon id="polygon16" points="221.92 143.38 221.92 149.55 217.28 149.55 217.28 133.68 221.92 133.68 221.92 139.67 225.84 139.67 225.84 133.68 230.53 133.68 230.53 149.55 225.84 149.55 225.84 143.38" fill="#fff"/><path id="path18" d="m247.6 149.55h-4.543l-0.645-2.719h-3.97l-0.649 2.719h-4.538v-0.464l4.354-15.408h5.631l4.359 15.357v0.515zm-8.382-6.068h2.414l-0.39-1.659c-0.139-0.621-0.273-1.271-0.403-1.947-0.13-0.674-0.219-1.339-0.272-1.995h-0.283c-0.035 0.656-0.116 1.321-0.246 1.995-0.13 0.677-0.264 1.326-0.403 1.947z" fill="#fff"/></g></g></svg>
