<svg id="a" enable-background="new 0 0 283.464 283.464" version="1.1" viewBox="0 0 800 440.88" xml:space="preserve" xmlns="http://www.w3.org/2000/svg"><g id="b" transform="matrix(6.5882 0 0 6.5882 -740.7 257.6)"><rect id="c" x="112.43" y="-6.1035e-7" width="105.45" height="27.816" fill="#6bbe45"/><path id="d" d="m131.22 6.78v1.22h2.788c1.967 0 2.963 0.973 2.963 2.898v5.952c0 1.945-0.996 2.898-2.963 2.898h-2.788v1.303h-4.004v-1.303h-2.812c-1.971 0-2.943-0.977-2.943-2.921v-5.93c0-1.926 0.973-2.898 2.943-2.898h2.812v-1.22h4.004zm-6.131 10.158h2.127v-6.107h-2.127zm6.131 0h2.077v-6.107h-2.077z" fill="#fff"/><path id="e" d="m142.2 20.43 2.014-3.916h-0.707c-0.866 0-1.242-0.156-1.485-0.908l-2.811-8.076v-0.311h4.159l1.815 7.171h0.201l2.078-7.171h4.118v0.311l-5.314 13.234h-4.068z" fill="#fff"/><polygon id="f" transform="translate(-24.801,-127.64)" points="189.19 137.85 185.58 137.85 185.58 148.4 181.78 148.4 181.78 137.85 178.15 137.85 178.15 134.86 189.19 134.86" fill="#fff"/><path id="g" d="m178.66 17.64c0 2.082-0.729 3.122-2.609 3.122h-8.562v-13.542h10.772v2.986h-6.792v1.99h4.026c2.036 0 3.164 0.665 3.164 2.633v2.811zm-3.98-2.477h-3.21v2.609h3.21z" fill="#fff"/><path id="h" d="m193.73 18.13c0 1.751-0.862 2.636-2.613 2.636h-6.104c-1.747 0-2.591-0.885-2.591-2.636v-8.187c0-1.815 0.844-2.72 2.591-2.72h6.104c1.751 0 2.613 0.862 2.613 2.633zm-4.027-7.92h-3.32v7.566h3.32z" fill="#fff"/><path id="i" d="m208.84 7.22v13.545h-3.98v-10.556h-2.503v3.761c0 3.631-0.771 6.616-4.646 6.97l-1.219-2.985c2.173-0.444 2.393-1.439 2.393-4.072v-6.662h9.955z" fill="#fff"/><polygon id="j" transform="translate(-24.801,-127.64)" points="251.78 135 248.5 135 248.5 127.64 258.66 127.64 258.66 155.46 251.78 155.46" fill="#6bbe45"/></g><g id="k" transform="matrix(7.6986 0 0 7.6986 .0077452 -.038493)" fill="#929191"><polygon id="l" transform="translate(-24.801,-127.64)" points="119.37 127.76 127.91 127.76 127.91 139.36 119.37 144.51"/><path id="m" d="m103.91 23.13c0.121-2.188-1.706-4.961-5.022-5.019-2.825-0.045-5.15 2.154-5.158 4.878-8e-3 2.963 2.378 5.17 5.037 5.188 2.954 0.019 5.127-2.313 5.143-5.047"/><path id="n" d="m82.289 0.02v14.009h-4.74v-14.009h-40.166l-8.068 12.93v-12.945h-8.683l-5.975 7.836-5.978-7.836h-8.68v27.806h8.629v-14.842l6.028 7.779 6.026-7.779v14.841h8.631v-8e-3h4e-3l3.685-5.876h9.417l-0.022 5.926h8.558v-19.813h4.71v19.782h8.635v-19.786h4.702v13.898h13.287v5.888h8.543v-27.801zm-39.869 14.023-4.471-4e-3 4.475-7.126z"/></g></svg>
