<svg id="a" version="1.1" viewBox="0 0 800 89.269" xml:space="preserve" xmlns="http://www.w3.org/2000/svg">
<g id="b" transform="matrix(3.4203 0 0 3.4203 -84.823 -440.19)">
	<g id="c" fill="#ef4735">
		<g id="d">
			<polygon id="e" points="112 144.3 112 128.8 119.8 128.8 119.8 139.5"/>
			<path id="f" d="m120.6 150.1c0.1-2-1.6-4.6-4.6-4.6-2.6 0-4.8 2-4.8 4.5 0 2.7 2.2 4.8 4.6 4.8 2.8-0.1 4.8-2.2 4.8-4.7z"/>
			<path id="g" d="m100.6 128.8v12.9h-4.4v-12.9h-37l-7.4 11.9v-11.9h-8l-5.5 7.2-5.5-7.2h-8v25.6h8v-13.7l5.6 7.2 5.6-7.2v13.7h8l3.4-5.4h8.7v5.5h7.9v-18.3h4.3v18.2h8v-18.2h4.3v12.8h12.3v5.4h7.9v-25.6zm-36.7 12.9h-4.1l4.1-6.6z"/>
		</g>
		<g id="h">
			<path id="i" d="m223.4 128.7v9.1h-4.4v-9.1h-7.9v25.6h7.9v-9.1h4.4v9.1h7.9v-25.6z"/>
			<path id="j" d="m164.2 128.7v25.6h7.9v-5.3h12.3v-20.2h-20.2zm13.3 12.9h-5.4v-5.4h5.4z" clip-rule="evenodd" fill-rule="evenodd"/>
			<polygon id="k" points="123.3 145.3 123.3 137.8 123.3 136.2 123.3 128.7 131.1 128.7 140.6 128.7 140.6 136.1 131.1 136.1 131.1 137.8 131.1 145.4 131.1 147 140.6 147 140.6 154.4 131.1 154.4 123.3 154.4 123.3 146.9" clip-rule="evenodd" fill-rule="evenodd"/>
			<polygon id="l" points="142.4 136.1 142.4 128.7 156.4 128.7 162.5 128.7 162.5 136.1 156.4 136.1 156.4 137.8 156.4 145.4 156.4 146.9 156.4 154.4 148.5 154.4 148.5 146.9 148.5 145.3 148.5 136.1" clip-rule="evenodd" fill-rule="evenodd"/>
			<path id="m" d="m201.1 128.7h-8.6l-8.9 25.6h7.4l1.9-5.4h7.8l1.9 5.4h7.4zm-6.3 14.9 2.1-5.9 2.1 5.9z"/>
			<path id="n" d="m249.8 128.7h-8.6l-8.9 25.6h7.4l1.9-5.4h7.8l1.9 5.4h7.4zm-6.3 14.9 2.1-5.9 2.1 5.9z"/>
		</g>
	</g>
</g>
</svg>
