<?xml version="1.0" encoding="UTF-8"?>
<!-- Generator: Adobe Illustrator 16.0.0, SVG Export Plug-In . SVG Version: 6.00 Build 0)  -->
<svg id="svg28" width="233.86" height="28.173" enable-background="new 0 0 283.464 283.464" version="1.1" viewBox="0 0 233.86 28.173" xml:space="preserve" xmlns="http://www.w3.org/2000/svg" xmlns:cc="http://creativecommons.org/ns#" xmlns:dc="http://purl.org/dc/elements/1.1/" xmlns:rdf="http://www.w3.org/1999/02/22-rdf-syntax-ns#"><metadata id="metadata34"><rdf:RDF><cc:Work rdf:about=""><dc:format>image/svg+xml</dc:format><dc:type rdf:resource="http://purl.org/dc/dcmitype/StillImage"/><dc:title/></cc:Work></rdf:RDF></metadata><g id="Logo" transform="translate(-24.801 -127.64)"><g id="g24"><rect id="rect2" x="137.23" y="127.64" width="105.45" height="27.816" fill="#6bbe45"/><path id="path4" d="m156.02 134.42v1.22h2.788c1.967 0 2.963 0.973 2.963 2.898v5.952c0 1.945-0.996 2.898-2.963 2.898h-2.788v1.303h-4.004v-1.303h-2.812c-1.971 0-2.943-0.977-2.943-2.921v-5.93c0-1.926 0.973-2.898 2.943-2.898h2.812v-1.22h4.004zm-6.131 10.158h2.127v-6.107h-2.127zm6.131 0h2.077v-6.107h-2.077z" fill="#fff"/><path id="path6" d="m167 148.07 2.014-3.916h-0.707c-0.866 0-1.242-0.156-1.485-0.908l-2.811-8.076v-0.311h4.159l1.815 7.171h0.201l2.078-7.171h4.118v0.311l-5.314 13.234h-4.068z" fill="#fff"/><polygon id="polygon8" points="181.78 148.4 181.78 137.85 178.15 137.85 178.15 134.86 189.19 134.86 189.19 137.85 185.58 137.85 185.58 148.4" fill="#fff"/><path id="path10" d="m203.46 145.28c0 2.082-0.729 3.122-2.609 3.122h-8.562v-13.542h10.772v2.986h-6.792v1.99h4.026c2.036 0 3.164 0.665 3.164 2.633v2.811zm-3.98-2.477h-3.21v2.609h3.21z" fill="#fff"/><path id="path12" d="m218.53 145.77c0 1.751-0.862 2.636-2.613 2.636h-6.104c-1.747 0-2.591-0.885-2.591-2.636v-8.187c0-1.815 0.844-2.72 2.591-2.72h6.104c1.751 0 2.613 0.862 2.613 2.633zm-4.027-7.92h-3.32v7.566h3.32z" fill="#fff"/><path id="path14" d="m233.64 134.86v13.545h-3.98v-10.556h-2.503v3.761c0 3.631-0.771 6.616-4.646 6.97l-1.219-2.985c2.173-0.444 2.393-1.439 2.393-4.072v-6.662h9.955z" fill="#fff"/><polygon id="polygon16" points="251.78 155.46 251.78 135 248.5 135 248.5 127.64 258.66 127.64 258.66 155.46" fill="#6bbe45"/><polygon id="polygon18" points="119.37 127.76 127.91 127.76 127.91 139.36 119.37 144.51" fill="#929191"/><path id="path20" d="m128.71 150.77c0.121-2.188-1.706-4.961-5.022-5.019-2.825-0.045-5.15 2.154-5.158 4.878-8e-3 2.963 2.378 5.17 5.037 5.188 2.954 0.019 5.127-2.313 5.143-5.047" fill="#929191"/><path id="path22" d="m107.09 127.66v14.009h-4.74v-14.009h-40.166l-8.068 12.93v-12.945h-8.683l-5.975 7.836-5.978-7.836h-8.68v27.806h8.629v-14.842l6.028 7.779 6.026-7.779v14.841h8.631v-8e-3h4e-3l3.685-5.876h9.417l-0.022 5.926h8.558v-19.813h4.71v19.782h8.635v-19.786h4.702v13.898h13.287v5.888h8.543v-27.801zm-39.869 14.023-4.471-4e-3 4.475-7.126z" fill="#929191"/></g></g></svg>
