<?xml version="1.0" encoding="UTF-8"?>
<!-- Generator: Adobe Illustrator 16.0.0, SVG Export Plug-In . SVG Version: 6.00 Build 0)  -->
<svg id="svg28" width="800" height="433" enable-background="new 0 0 283.464 283.464" version="1.1" viewBox="0 0 800 433" xml:space="preserve" xmlns="http://www.w3.org/2000/svg" xmlns:cc="http://creativecommons.org/ns#" xmlns:dc="http://purl.org/dc/elements/1.1/" xmlns:rdf="http://www.w3.org/1999/02/22-rdf-syntax-ns#"><metadata id="metadata34"><rdf:RDF><cc:Work rdf:about=""><dc:format>image/svg+xml</dc:format><dc:type rdf:resource="http://purl.org/dc/dcmitype/StillImage"/><dc:title/></cc:Work></rdf:RDF></metadata><g id="g862" transform="matrix(8.0178 0 0 8.0178 -.032071 -.040089)" fill="#929191"><polygon id="polygon16" transform="translate(-24.803,-128.2)" points="115.62 128.31 123.82 128.31 123.82 139.45 115.62 144.4"/><path id="path18" d="m99.777 22.21c0.117-2.101-1.638-4.764-4.822-4.818-2.714-0.044-4.946 2.068-4.953 4.684-8e-3 2.846 2.283 4.965 4.837 4.982 2.837 0.018 4.923-2.221 4.938-4.848"/><path id="path20" d="m79.027 0.02v13.457h-4.552v-13.457h-38.572l-7.749 12.417v-12.432h-8.337l-5.738 7.529-5.74-7.529h-8.335v26.703h8.286v-14.249l5.789 7.467 5.787-7.467v14.249h8.288v-7e-3h4e-3l3.539-5.644h9.043l-0.022 5.694h8.219v-19.028h4.523v18.999h8.292v-19.001h4.516v13.344h12.76v5.657h8.204v-26.703h-8.205zm-38.287 13.468-4.293-3e-3 4.297-6.84z"/></g><g id="g857" transform="matrix(6.3548 0 0 6.3548 -686.11 263.09)"><rect id="rect2" x="107.97" y="-3.0518e-6" width="101.27" height="26.717" fill="#6bbe45"/><path id="path4" d="m126.02 6.51v1.171h2.678c1.891 0 2.846 0.934 2.846 2.783v5.716c0 1.867-0.955 2.783-2.846 2.783h-2.678v1.255h-3.844v-1.255h-2.699c-1.894 0-2.828-0.934-2.828-2.805v-5.695c0-1.85 0.934-2.783 2.828-2.783h2.699v-1.171h3.844zm-5.887 9.754h2.043v-5.863h-2.043zm5.887 0h1.996v-5.863h-1.996z" fill="#fff"/><path id="path6" d="m136.56 19.62 1.934-3.761h-0.68c-0.83 0-1.191-0.149-1.426-0.872l-2.699-7.759v-0.295h3.994l1.744 6.883h0.193l1.994-6.883h3.955v0.295l-5.104 12.709h-3.906v-0.317z" fill="#fff"/><polygon id="polygon8" transform="translate(-24.803,-128.2)" points="172.06 138 172.06 135.14 182.67 135.14 182.67 138 179.2 138 179.2 148.14 175.55 148.14 175.55 138" fill="#fff"/><path id="path10" d="m171.57 16.94c0 1.999-0.701 2.998-2.506 2.998h-8.223v-13.004h10.346v2.867h-6.523v1.915h3.867c1.955 0 3.039 0.635 3.039 2.527zm-3.825-2.379h-3.082v2.51h3.082z" fill="#fff"/><path id="path12" d="m186.04 17.41c0 1.678-0.828 2.527-2.51 2.527h-5.863c-1.678 0-2.486-0.85-2.486-2.527v-7.866c0-1.74 0.809-2.611 2.486-2.611h5.863c1.682 0 2.51 0.828 2.51 2.527zm-3.867-7.61h-3.188v7.27h3.188z" fill="#fff"/><path id="path14" d="m200.55 6.94v13.004h-3.822v-10.137h-2.404v3.614c0 3.485-0.74 6.352-4.461 6.695l-1.172-2.871c2.088-0.423 2.299-1.379 2.299-3.911v-6.395h9.56z" fill="#fff"/><path id="path22" d="m214.65 0h18.754v5.144l-6.924 5.636v0.139h2.793c3.047 0 4.586 1.434 4.586 4.48v6.72c0 3.042-1.539 4.618-4.586 4.618h-10.775c-3.041 0-4.582-1.576-4.582-4.618v-3.152l4.27-0.35h2.203v2.798h7v-6.016h-10.006v-2.973l7.24-6.125v-0.139h-9.973z" fill="#6bbe45"/></g></svg>
