<?xml version="1.0" encoding="UTF-8"?>
<!-- Generator: Adobe Illustrator 16.0.0, SVG Export Plug-In . SVG Version: 6.00 Build 0)  -->
<svg id="svg22" width="800" height="580.07" enable-background="new 0 0 283.464 283.464" version="1.1" viewBox="0 0 800 580.07" xml:space="preserve" xmlns="http://www.w3.org/2000/svg" xmlns:cc="http://creativecommons.org/ns#" xmlns:dc="http://purl.org/dc/elements/1.1/" xmlns:rdf="http://www.w3.org/1999/02/22-rdf-syntax-ns#"><metadata id="metadata28"><rdf:RDF><cc:Work rdf:about=""><dc:format>image/svg+xml</dc:format><dc:type rdf:resource="http://purl.org/dc/dcmitype/StillImage"/><dc:title/></cc:Work></rdf:RDF></metadata><g id="g850" transform="matrix(6.0131 0 0 6.0131 -.012026 -.0060131)" fill="#929191"><polygon id="polygon4" transform="translate(-24.802,-123.7)" points="145.89 123.84 156.82 123.84 156.82 138.69 145.89 145.29"/><path id="path6" d="m133.04 29.6c0.155-2.802-2.184-6.353-6.425-6.42-3.624-0.061-6.601 2.753-6.61 6.242-0.01 3.797 3.045 6.622 6.449 6.642 3.789 0.024 6.567-2.957 6.586-6.464"/><path id="path8" d="m105.37 0.02v17.94h-6.069v-17.94h-51.431l-10.33 16.557v-16.576h-11.114l-7.655 10.036-7.651-10.036h-11.116v35.601h11.047v-18.998l7.72 9.956 7.719-9.956v18.998h11.051v-5e-3h5e-3l4.718-7.524h12.058l-0.029 7.588h10.958v-25.37h6.031v25.331h11.055v-25.337h6.021v17.797h17.014v7.539h10.939v-35.601zm-51.049 17.96-5.726-5e-3 5.73-9.125z"/></g><g id="g845" transform="matrix(8.8985 0 0 8.8985 -1281 263.11)"><rect id="rect2" x="143.96" y="-3.0518e-6" width="89.903" height="35.62" fill="#ef5225"/><path id="path10" d="m161.5 9.29v4.845c0 0.431-0.01 0.89-0.029 1.381-0.02 0.489-0.039 0.974-0.067 1.465-0.029 0.486-0.078 0.968-0.142 1.435-0.068 0.467-0.136 0.902-0.209 1.296h0.253l4.168-10.421h5.351v17.237h-5.044v-4.873c0-0.847 0.039-1.785 0.117-2.816 0.072-1.031 0.194-1.945 0.364-2.73h-0.282l-4.168 10.42h-5.351v-17.237h5.039z" fill="#fff"/><polygon id="polygon12" transform="translate(-24.802,-123.7)" points="212.5 132.99 212.5 136.79 205.2 136.79 205.2 150.22 200.16 150.22 200.16 132.99" fill="#fff"/><path id="path14" d="m204.68 17.93c0 2.237-1.104 3.355-3.313 3.355h-5.307v5.238h-5.097v-17.237h10.398c2.213 0 3.317 1.116 3.317 3.352v5.292zm-5.039-4.839h-3.58v4.393h3.58z" fill="#fff"/><path id="path16" d="m221.58 26.52h-4.927l-0.705-2.957h-4.31l-0.705 2.957h-4.928v-0.508l4.733-16.729h6.113l4.728 16.674v0.563zm-9.094-6.59h2.616l-0.423-1.805c-0.146-0.676-0.292-1.377-0.433-2.111-0.142-0.731-0.238-1.454-0.297-2.169h-0.312c-0.039 0.715-0.126 1.438-0.268 2.169-0.136 0.734-0.287 1.436-0.433 2.111z" fill="#fff"/></g></svg>
