<?xml version="1.0" encoding="UTF-8"?>
<!-- Generator: Adobe Illustrator 16.0.0, SVG Export Plug-In . SVG Version: 6.00 Build 0)  -->
<svg id="svg30" width="233.86" height="25.775" enable-background="new 0 0 283.464 283.464" version="1.1" viewBox="0 0 233.86 25.775" xml:space="preserve" xmlns="http://www.w3.org/2000/svg" xmlns:cc="http://creativecommons.org/ns#" xmlns:dc="http://purl.org/dc/elements/1.1/" xmlns:rdf="http://www.w3.org/1999/02/22-rdf-syntax-ns#"><metadata id="metadata36"><rdf:RDF><cc:Work rdf:about=""><dc:format>image/svg+xml</dc:format><dc:type rdf:resource="http://purl.org/dc/dcmitype/StillImage"/><dc:title/></cc:Work></rdf:RDF></metadata><g id="Logo" transform="translate(-24.802 -128.84)"><g id="g26"><rect id="rect2" x="127.67" y="128.84" width="130.99" height="25.452" fill="#2f479d"/><polygon id="polygon4" points="111.33 128.94 119.14 128.94 119.14 139.56 111.33 144.27" fill="#929191"/><path id="path6" d="m119.87 150c0.111-2.002-1.561-4.541-4.591-4.59-2.59-0.043-4.717 1.97-4.724 4.461-7e-3 2.715 2.176 4.732 4.608 4.748 2.708 0.018 4.693-2.116 4.707-4.619" fill="#929191"/><path id="path8" d="m100.1 128.86v12.821h-4.338v-12.821h-36.751l-7.384 11.831v-11.842h-7.942l-5.469 7.168-5.469-7.168h-7.942v25.438h7.896v-13.578l5.516 7.117 5.516-7.117v13.578h7.896v-4e-3h3e-3l3.374-5.378h8.615l-0.021 5.422h7.831v-18.128h4.31v18.102h7.9v-18.106h4.303v12.72h12.158v5.387h7.816v-25.441h-7.818zm-36.48 12.832-4.09-4e-3 4.093-6.519z" fill="#929191"/><polygon id="polygon10" points="140.18 143.01 140.18 147.8 136.57 147.8 136.57 135.48 140.18 135.48 140.18 140.13 143.21 140.13 143.21 135.48 146.86 135.48 146.86 147.8 143.21 147.8 143.21 143.01" fill="#fff"/><path id="path12" d="m160.1 147.8h-3.521l-0.504-2.11h-3.079l-0.504 2.11h-3.521v-0.36l3.382-11.954h4.369l3.379 11.914v0.4zm-6.5-4.708h1.87l-0.299-1.288c-0.107-0.481-0.212-0.985-0.313-1.508-0.102-0.525-0.171-1.041-0.213-1.551h-0.219c-0.027 0.51-0.094 1.025-0.194 1.551-0.098 0.522-0.205 1.026-0.31 1.508z" fill="#fff"/><polygon id="polygon14" points="168.21 145.08 168.21 135.48 171.81 135.48 171.81 145.08 174.21 145.08 174.21 135.48 177.81 135.48 177.81 147.8 162.21 147.8 162.21 135.48 165.82 135.48 165.82 145.08" fill="#fff"/><path id="path16" d="m195.26 138.2h-3.261v6.882h3.261v-1.912h1.188l2.092 0.182v2.052c0 1.598-0.792 2.396-2.373 2.396h-5.416c-1.567 0-2.353-0.799-2.353-2.396v-7.526c0-1.597 0.785-2.395 2.353-2.395h5.416c1.581 0 2.373 0.798 2.373 2.395v2.033l-2.092 0.2h-1.188z" fill="#fff"/><polygon id="polygon18" points="204.86 138.2 204.86 147.8 201.26 147.8 201.26 135.48 211.52 135.48 211.52 147.8 207.92 147.8 207.92 138.2" fill="#fff"/><path id="path20" d="m224.94 145.4c0 1.598-0.793 2.394-2.374 2.394h-5.554c-1.571 0-2.356-0.796-2.356-2.394v-7.446c0-1.651 0.785-2.475 2.356-2.475h5.554c1.581 0 2.374 0.798 2.374 2.395zm-3.66-7.203h-3.021v6.882h3.021z" fill="#fff"/><path id="path22" d="m237.87 141.66c0 1.597-0.789 2.395-2.367 2.395h-3.792v3.742h-3.643v-12.314h7.431c1.578 0 2.371 0.798 2.371 2.395zm-3.605-3.46h-2.555v3.139h2.555z" fill="#fff"/><polygon id="polygon24" points="243.02 147.8 243.02 138.2 239.72 138.2 239.72 135.48 249.76 135.48 249.76 138.2 246.48 138.2 246.48 147.8" fill="#fff"/></g></g></svg>
