<?xml version="1.0" encoding="UTF-8"?>
<!-- Generator: Adobe Illustrator 16.0.0, SVG Export Plug-In . SVG Version: 6.00 Build 0)  -->
<svg id="svg28" width="233.86" height="29.476" enable-background="new 0 0 283.464 283.464" version="1.1" viewBox="0 0 233.86 29.476" xml:space="preserve" xmlns="http://www.w3.org/2000/svg" xmlns:cc="http://creativecommons.org/ns#" xmlns:dc="http://purl.org/dc/elements/1.1/" xmlns:rdf="http://www.w3.org/1999/02/22-rdf-syntax-ns#"><metadata id="metadata34"><rdf:RDF><cc:Work rdf:about=""><dc:format>image/svg+xml</dc:format><dc:type rdf:resource="http://purl.org/dc/dcmitype/StillImage"/><dc:title/></cc:Work></rdf:RDF></metadata><g id="Logo" transform="translate(-24.803 -126.99)"><g id="g24"><rect id="rect2" x="142.42" y="127" width="116.24" height="29.102" fill="#eb3088"/><polygon id="polygon4" points="156.61 137.69 156.61 148.67 152.49 148.67 152.49 134.59 164.22 134.59 164.22 148.67 160.11 148.67 160.11 137.69" fill="#fff"/><path id="path6" d="m179.48 134.59v14.082h-4.117v-10.978h-2.603v3.914c0 0.949-0.06 1.844-0.183 2.681-0.124 0.836-0.362 1.575-0.716 2.219-0.35 0.644-0.843 1.175-1.471 1.59-0.632 0.413-1.45 0.668-2.464 0.759l-1.264-3.107c0.568-0.107 1.014-0.258 1.348-0.461 0.33-0.198 0.576-0.461 0.747-0.795 0.167-0.328 0.274-0.735 0.322-1.216 0.047-0.485 0.067-1.069 0.067-1.761v-6.927z" fill="#fff"/><path id="path8" d="m194.9 148.67h-4.029l-0.572-2.418h-3.521l-0.576 2.418h-4.025v-0.415l3.862-13.667h4.995l3.867 13.619v0.463zm-7.436-5.384h2.143l-0.346-1.473c-0.124-0.552-0.243-1.126-0.358-1.727-0.115-0.598-0.194-1.188-0.242-1.772h-0.25c-0.032 0.585-0.104 1.175-0.219 1.772-0.115 0.601-0.234 1.175-0.357 1.727z" fill="#fff"/><polygon id="polygon10" points="201.43 143.19 201.43 148.67 197.32 148.67 197.32 134.59 201.43 134.59 201.43 139.9 204.91 139.9 204.91 134.59 209.07 134.59 209.07 148.67 204.91 148.67 204.91 143.19" fill="#fff"/><polygon id="polygon12" points="222.97 134.59 222.97 137.69 216.76 137.69 216.76 139.9 221.73 139.9 221.73 143.01 216.76 143.01 216.76 145.56 223.2 145.56 223.2 148.67 212.64 148.67 212.64 134.59" fill="#fff"/><polygon id="polygon14" points="228.84 148.67 228.84 137.69 225.07 137.69 225.07 134.59 236.55 134.59 236.55 137.69 232.8 137.69 232.8 148.67" fill="#fff"/><path id="path16" d="m249.39 148.67h-4.025l-0.576-2.418h-3.517l-0.581 2.418h-4.025v-0.415l3.867-13.667h4.995l3.862 13.619zm-7.43-5.384h2.142l-0.346-1.473c-0.123-0.552-0.242-1.126-0.357-1.727-0.115-0.598-0.195-1.188-0.243-1.772h-0.25c-0.032 0.585-0.107 1.175-0.219 1.772-0.115 0.601-0.234 1.175-0.357 1.727z" fill="#fff"/><polygon id="polygon18" points="123.74 127.11 132.67 127.11 132.67 139.25 123.74 144.64" fill="#929191"/><path id="path20" d="m133.5 151.19c0.127-2.289-1.784-5.19-5.25-5.248-2.96-0.049-5.393 2.252-5.4 5.099-8e-3 3.102 2.488 5.411 5.27 5.431 3.095 0.017 5.365-2.421 5.38-5.282" fill="#929191"/><path id="path22" d="m110.89 127.01v14.658h-4.96v-14.658h-42.02l-8.44 13.527v-13.543h-9.081l-6.253 8.198-6.253-8.198h-9.081v29.089h9.027v-15.523l6.307 8.136 6.307-8.136v15.523h9.027v-8e-3h4e-3l3.855-6.147h9.851l-0.023 6.199h8.953v-20.726h4.928v20.694h9.033v-20.701h4.919v14.543h13.901v6.158h8.937v-29.085zm-41.711 14.672-4.677-4e-3 4.681-7.455z" fill="#929191"/></g></g></svg>
