<?xml version="1.0" encoding="UTF-8"?>
<svg id="svg23" width="779.2pt" height="511.9pt" version="1.1" viewBox="0 0 779.2 511.9" xmlns="http://www.w3.org/2000/svg" xmlns:cc="http://creativecommons.org/ns#" xmlns:dc="http://purl.org/dc/elements/1.1/" xmlns:rdf="http://www.w3.org/1999/02/22-rdf-syntax-ns#">
 <metadata id="metadata29">
  <rdf:RDF>
   <cc:Work rdf:about="">
    <dc:format>image/svg+xml</dc:format>
    <dc:type rdf:resource="http://purl.org/dc/dcmitype/StillImage"/>
    <dc:title/>
   </cc:Work>
  </rdf:RDF>
 </metadata>
 <path id="path8-5" d="m341 155.47 0.13 0.14 48.619-50.78 48.731 50.54 54.81-57.46c10.5-11.58 19.72-25.47 21.1-41.44 1.62-12.76-1.57-26.16-9.37-36.47-9.02-12.28-23.98-20.01-39.25-19.99-12.79-0.24-25.57 4.83-34.74 13.73-9.73 9.18-15.44 22.5-15.28 35.89h29.29c0.3-5.42 2.34-10.81 6.36-14.56 6.07-6.05 16.24-7.35 23.63-3 6.51 3.52 10.59 10.94 10.25 18.31-0.01 6.11-2.18 12.02-5.53 17.06-4.32 6.56-9.76 12.26-15.09 17.99l-26.13 27.43-48.781-50.51-48.989 50.26-32.74-34.65c-6.63-7.48-13.43-16.08-13.72-26.55-0.73-7.67 3.34-15.48 10.05-19.27 7.39-4.4 17.64-3.19 23.75 2.9 4.04 3.73 6.12 9.16 6.36 14.59h29.42c-0.04-12.48-4.82-24.88-13.42-33.95-9.35-10.04-23.01-15.99-36.75-15.67-17.3-0.03-34.09 9.99-42.49 25.07-7.44 12.71-8.04 28.56-3.8 42.44 4.05 13.18 12.93 24.12 22.17 34.07z" fill="#f19fc5"/>
 <path id="path8" d="m341 112.91 0.13-0.14 48.619 50.78 48.731-50.54 54.81 57.46c10.5 11.58 19.72 25.47 21.1 41.44 1.62 12.76-1.57 26.16-9.37 36.47-9.02 12.28-23.98 20.01-39.25 19.99-12.79 0.24-25.57-4.83-34.74-13.73-9.73-9.18-15.44-22.5-15.28-35.89h29.29c0.3 5.42 2.34 10.81 6.36 14.56 6.07 6.05 16.24 7.35 23.63 3 6.51-3.52 10.59-10.94 10.25-18.31-0.01-6.11-2.18-12.02-5.53-17.06-4.32-6.56-9.76-12.26-15.09-17.99l-26.13-27.43-48.781 50.51-48.989-50.26-32.74 34.65c-6.63 7.48-13.43 16.08-13.72 26.55-0.73 7.67 3.34 15.48 10.05 19.27 7.39 4.4 17.64 3.19 23.75-2.9 4.04-3.73 6.12-9.16 6.36-14.59h29.42c-0.04 12.48-4.82 24.88-13.42 33.95-9.35 10.04-23.01 15.99-36.75 15.67-17.3 0.03-34.09-9.99-42.49-25.07-7.44-12.71-8.04-28.56-3.8-42.44 4.05-13.18 12.93-24.12 22.17-34.07z" fill="#eb5199"/>
 <path id="path10" d="m14.11 337.56c7.99-3.21 17.34-4.06 25.31-0.35 7.3 3.32 12.43 9.84 16.62 16.45 8.44 13.65 15.78 27.93 22.79 42.35l31.2-55.81h36.99v128h-38.61l0.5-57.29 3.3-18.99-28.26 53.525h-9.44l-29.31-53.605 3.15 16.05 1.0998 60.35-39.68-0.07 1.08-89.21c0.04-7.7 0.94-16.06-3.13-23-1.69-3.16-5.0387-5.0238-7.72-6.78 2.45-5.96 8.46-9.27 14.11-11.62z" fill="#eb5199"/>
 <path id="path12" d="m575.83 335.76c10.78-1.48 21.65 0.26 32.42 0.97 17.11 1.56 34.3 2.46 51.49 2.04 2.43-0.48 2.41 2.56 2.82 4.14 1.59 8.65 0.45 19.16-7.15 24.76-8.92 6.45-20.33 4.78-30.61 3.86v60.1c0.24 6.4 1.17 13.16 4.57 18.76 1.79 3 5.09 4.44 7.79 6.46-1.81 5.88-7.3 9.49-12.55 12.01-9.48 4.57-21.74 3.9-29.96-2.95-6.65-5.55-8.94-14.57-8.95-22.96v-73.86c-10.94-0.44-21.65 0.55-32.41 2.52-3.09-6.84-3.3-15.18 0.05-21.96 4.31-8.29 13.6-12.6 22.49-13.89z" fill="#eb5199"/>
 <path id="path14" d="m670.54 341.67c16.67-4.41 34.02-5.82 51.22-5.82 14.13 0.55 29.61 2.68 40.44 12.65 13.73 12.83 8.86 38.34-7.61 46.51 6.86 2.43 13.26 6.51 17.61 12.43 11.74 15.31 8.15 39.38-6.5 51.56-11.33 9.54-26.54 12.74-41.01 13.16-13.46 0.32-27.79-2.82-37.96-12.15-10.95-9.72-15.95-24.64-16.19-38.98v-79.36m39.38 14.33v33.91c5.89-0.14 12.11-1.2 16.81-5.01 6.96-5.63 8.29-16.86 3.21-24.11-4.65-5.99-13.2-6.27-20.02-4.79m0 53.68v22.37c0.09 4.98 1.11 10.3 4.57 14.1 4.05 4.57 11.11 5.34 16.63 3.3 5.48-2.07 8.63-7.8 9.37-13.38 1.34-7.56-0.7-16.12-6.75-21.18-6.43-5.71-15.66-6.67-23.82-5.21z" fill="#eb5199"/>
 <path id="path16" d="m179.42 376.59c9.24-3.86 20.61-3.08 28.74 2.98 4.13 2.98 7.31 7.05 9.89 11.4 0.04-4.38-0.23-8.7 0.21-13.06h37.32l-1.15 50.05c-0.02 7.72-0.21 15.9 3.25 23.02 1.45 3.27 4.6 5.14 7.55 6.89-1.1 5.3-5.75 8.84-10.24 11.3-9.33 5.03-21.95 3.66-29.44-4.02-3.6-3.53-5.64-8.29-6.79-13.12-3.88 7.09-9.29 13.72-16.7 17.3-9.59 4.66-21.75 2.93-29.85-3.94-8.76-7.27-13.49-18.23-15.68-29.17-2.67-14.37-1.2-29.79 5.58-42.86 3.78-7.23 9.65-13.63 17.31-16.77m22.64 22.73c-5.3 2.42-7.6 8.38-8.74 13.71-1.57 7.98-1.39 16.47 1.25 24.21 1.56 4.58 4.99 9.25 10.14 9.83 4.85 0.63 9.08-2.97 11.04-7.12 3.43-7.08 3.81-15.23 3.09-22.94-0.77-5.65-2.17-11.76-6.51-15.8-2.67-2.59-6.86-3.32-10.27-1.89z" fill="#eb5199"/>
 <path id="path18" d="m264.62 377.77c23.1-4.31 46.585-4.39 69.975-3.07 8.43 0.69 16.93 1.24 25.2 3.11 7.45 1.8 14.96 5.06 19.98 11.07 3.78 4.4 5.46 10.3 5.35 16.03-0.09 11.05-0.32 22.1-0.24 33.15 0.09 3.19 0.92 7.11 4.09 8.6 3.71 1.21 6.99-1.79 8.85-4.67 3.96-6.25 4.1403-13.929 4.1403-21.09v-42.745h36.48v83.865c0 13.34-3.9903 27.33-13.68 36.9-9.34 9.4-22.98 13.27-35.97 12.96-13.08 0.3-26.45-5.06-34.84-15.26-4.33-5.18-7.58-11.99-6.57-18.87 1.07-0.19 2.29-0.68 3.3 0.07 2.61 1.76 4.6 4.28 7.06 6.24 7.29 6.19 17.53 8.57 26.86 6.74 9.97-2.1 17.355-11.73 17.655-21.77v-17.37c-3.39 6.54-8.035 12.67-14.515 16.4-7.72 4.67-18.09 5.78-25.99 0.92-8.32-4.91-12.65-14.66-13.11-24.05-0.28-9.35 0.1-18.72-0.18-28.07-0.34-6.23-2.39-13.22-8.05-16.63-4.84-2.94-10.78-1.94-15.88-0.32-0.02 11.35-0.02 22.7 0 34.05 0.19 5.99 0.69 12.27 3.72 17.59 1.62 2.87 4.7 4.32 7.25 6.23-1.5 5.24-6.06 8.89-10.72 11.29-9.42 4.87-22.09 3.13-29.27-4.87-5.02-5.41-6.88-12.98-6.89-20.2-0.01-14.42 0.02-28.84-0.01-43.26h-23.995z" fill="#eb5199"/>
 <path id="path20" d="m453.81 377.13c8.98-5.07 21.2-4.2 28.91 2.84 4.16 3.62 6.5 8.82 7.84 14.08 3.9-7.44 9.62-14.36 17.44-17.85 9.47-4.34 21.27-2.39 29.15 4.35 8.06 6.73 12.61 16.74 14.97 26.79 3.1 14.01 2.16 29.13-3.66 42.33-3.58 8.1-9.55 15.51-17.75 19.24-9.13 4.1-20.49 3.65-28.83-2.1-4.52-2.98-7.845-7.34-10.645-11.89v52.73h-37.67v-97.69c-0.32-7.91-1.555-17.69-9.535-21.68 0.76-5.23 5.51-8.68 9.78-11.15m46.16 22.31c-4.99 2.09-7.35 7.54-8.59 12.47-1.68 7.25-1.65 14.91 0.02 22.17 1.21 4.72 3.36 9.87 7.95 12.21 3.76 2 8.66 0.87 11.44-2.27 4.47-4.85 5.6-11.75 6.11-18.09 0.29-7.64-0.41-15.87-4.78-22.39-2.54-3.9-7.74-5.96-12.15-4.1z" fill="#eb5199"/>
</svg>
