<?xml version="1.0" encoding="UTF-8"?>
<!-- Created with Inkscape (http://www.inkscape.org/) -->
<svg id="svg2" width="640" height="640" version="1.1" xmlns="http://www.w3.org/2000/svg" xmlns:cc="http://creativecommons.org/ns#" xmlns:dc="http://purl.org/dc/elements/1.1/" xmlns:rdf="http://www.w3.org/1999/02/22-rdf-syntax-ns#">
 <desc id="desc4">Created with graphing.ru and Raphael</desc>
 <metadata id="metadata12">
  <rdf:RDF>
   <cc:Work rdf:about="">
    <dc:format>image/svg+xml</dc:format>
    <dc:type rdf:resource="http://purl.org/dc/dcmitype/StillImage"/>
    <dc:title/>
   </cc:Work>
  </rdf:RDF>
 </metadata>
 <g id="g3879" transform="matrix(1.4016 0 0 1.4016 -678.21 -32.973)">
  <g id="g3861" transform="rotate(-3,712.22,251.84)">
   <path id="path3863" d="m712.22 23.531c-30.963 0-60.482 6.1767-87.406 17.344l38.062 91.844c15.199-6.3014 31.866-9.8125 49.344-9.8125 17.467 0 34.121 3.5182 49.312 9.8125l38.062-91.875c-26.914-11.157-56.426-17.312-87.375-17.312z" fill="#8ec244"/>
   <path id="path3865" d="m501.22 164.47c-11.158 26.915-17.312 56.425-17.312 87.375s6.1544 60.46 17.312 87.375l91.875-38.031c-6.3014-15.199-9.8125-31.866-9.8125-49.344s3.5112-34.145 9.8125-49.344z" fill="#229ed4"/>
   <path id="path3867" d="m923.19 164.47-91.844 38.031c6.3014 15.199 9.7812 31.866 9.7812 49.344s-3.4799 34.145-9.7812 49.344l91.844 38.031c11.16-26.917 17.344-56.422 17.344-87.375s-6.1837-60.458-17.344-87.375z" fill="#8ec244"/>
   <path id="path3869" d="m662.84 370.97-38.031 91.844c26.924 11.167 56.443 17.344 87.406 17.344 30.953 0 60.458-6.1837 87.375-17.344l-38.031-91.844c-15.199 6.3014-31.866 9.7812-49.344 9.7812-17.488 0-34.169-3.4729-49.375-9.7812z" fill="#229ed4"/>
   <path id="path3871" d="m799.59 40.844-38.062 91.875c31.533 13.065 56.74 38.252 69.812 69.781l91.844-38.031c-23.145-55.824-67.768-100.48-123.59-123.62z" fill="#b2ce3b"/>
   <path id="path3873" d="m624.81 40.875c-55.811 23.148-100.45 67.778-123.59 123.59l91.875 38.031c13.068-31.52 38.261-56.713 69.781-69.781z" fill="#2ea86f"/>
   <path id="path3875" d="m593.09 301.19-91.875 38.031c23.139 55.815 67.783 100.45 123.59 123.59l38.031-91.844c-31.508-13.071-56.685-38.27-69.75-69.781z" fill="#207ab8"/>
   <path id="path3877" d="m831.34 301.19c-13.068 31.52-38.261 56.713-69.781 69.781l38.031 91.844c55.821-23.144 100.45-67.773 123.59-123.59z" fill="#2ea86f"/>
  </g>
  <g id="g3851">
   <path id="path3841" d="m712.22 23.531c-30.963 0-60.482 6.1767-87.406 17.344l38.062 91.844c15.199-6.3014 31.866-9.8127 49.344-9.8127 17.467 0 34.121 3.5184 49.312 9.8127l38.062-91.875c-26.914-11.157-56.426-17.312-87.375-17.312z" fill="#8ec244"/>
   <path id="path3839" d="m501.22 164.47c-11.158 26.915-17.312 56.425-17.312 87.375s6.1544 60.46 17.312 87.375l91.875-38.031c-6.3014-15.199-9.8124-31.866-9.8124-49.344s3.5111-34.145 9.8124-49.344z" fill="#229ed4"/>
   <path id="path3837" d="m923.19 164.47-91.844 38.031c6.3014 15.199 9.7816 31.866 9.7816 49.344s-3.4803 34.145-9.7816 49.344l91.844 38.031c11.16-26.917 17.344-56.422 17.344-87.375s-6.1837-60.458-17.344-87.375z" fill="#8ec244"/>
   <path id="path3815" d="m662.84 370.97-38.031 91.844c26.924 11.167 56.443 17.344 87.406 17.344 30.953 0 60.458-6.1837 87.375-17.344l-38.031-91.844c-15.199 6.3014-31.866 9.7813-49.344 9.7813-17.488 0-34.169-3.473-49.375-9.7813z" fill="#229ed4"/>
   <path id="path3849" d="m799.59 40.844-38.062 91.875c31.533 13.065 56.74 38.252 69.812 69.781l91.844-38.031c-23.145-55.824-67.768-100.48-123.59-123.62z" fill="#b2ce3b"/>
   <path id="path3847" d="m624.81 40.875c-55.811 23.148-100.45 67.778-123.59 123.59l91.875 38.031c13.068-31.52 38.261-56.713 69.781-69.781z" fill="#2ea86f"/>
   <path id="path3845" d="m593.09 301.19-91.875 38.031c23.139 55.815 67.783 100.45 123.59 123.59l38.031-91.844c-31.508-13.071-56.685-38.27-69.75-69.781z" fill="#207ab8"/>
   <path id="path3829" d="m831.34 301.19c-13.068 31.52-38.261 56.713-69.781 69.781l38.031 91.844c55.821-23.144 100.45-67.773 123.59-123.59z" fill="#2ea86f"/>
  </g>
 </g>
 <g id="#1a1915ff" transform="matrix(1.3322 0 0 1.3322 175.36 256.91)" fill="#fff">
  <g id="g847" fill="#fff">
   <path id="path7" d="m-3.4129-15.538h26.33v47.145h48.845v-47.145h26.255v125.68h-26.255v-56.395h-48.845v56.395h-26.33z"/>
   <path id="path9" d="m121.95-15.528h57.44c11.55-0.1 23.42 3.62 32.02 11.52 8.83 8.18 13.95 19.73 15.84 31.48 3.13 16.43 1.65 33.69-3.97 49.42-4.71 12.62-13.69 24.34-26.47 29.46-8.88 4-18.84 3.9725-28.4 3.8725h-46.46v-125.75m25.99 21.87 0.03 81.915h26.45c7.58 0 14.82-4.075 19.09-10.285 6.78-9.53 8.16-21.63 8.3-33.01-0.42-9.77-1.19-20.16-6.84-28.51-4.31-6.86-12.64-10.32-20.56-10.11z"/>
  </g>
 </g>
</svg>
