<svg id="c" version="1.1" viewBox="0 0 800 650.49" xml:space="preserve" xmlns="http://www.w3.org/2000/svg" xmlns:xlink="http://www.w3.org/1999/xlink">
<g id="d" transform="matrix(1.1312 0 0 1.1312 125.42 -17.159)"><path id="e" d="m242.86 590.24c-158.61 0-287.41-129.05-287.41-287.41 0-158.61 129.05-287.65 287.41-287.65 158.61 0 287.41 129.05 287.41 287.65 0 158.37-129.05 287.41-287.41 287.41z" fill="#333" stroke-width="2.4031"/><polygon id="f" transform="matrix(2.4031 0 0 2.4031 -258.19 -159.54)" points="355.6 156.4 346.1 189.6 355.6 222.8 61.3 222.8 69.6 189.6 61.3 156.4" fill="#333"/><g id="g" transform="matrix(2.4031 0 0 2.4031 -258.19 -159.54)" fill="#686868">
		<polygon id="h" points="260.3 201.2 259.5 192.9 252.9 192.4 239.3 181 228.9 182.7 221.8 186.3 214.3 181.1 205.3 186.5 202.1 193.8 198.1 201.5 199.1 208.4 208.6 217.7 221.2 213.6 227 216 229.3 223.1 232.7 226 234.4 231 241.2 238.8 245.5 246.9 252.3 245.9 256.1 232.9 256.4 222.4 257.7 218.3 254.9 209.6"/>
		<polygon id="i" points="249.1 163.7 253.4 168.6 262.7 174.5 270.1 177.9 271 180.9 276.2 183.4 286.4 192.9 289.5 188.9 289.6 182.4 291.3 175.3 292 169.5 295.5 166.8 301.9 173.8 306.2 180.1 315.9 181.2 314.1 167.6 309.4 152.9 296.6 131 285.2 117.7 272.4 106.7 256.5 96.7 252.2 96.2 242.9 102 241.7 107.9 244.1 114.6 238.9 123.6 233.9 127.8 229.3 126.2 224.8 120.8 220.8 125.7 221.9 130.9 224.4 138.7 221 143.2 218.7 141.7 220.6 137.6 219.2 130.8 211 133 206.9 138.9 200.1 143.2 198.5 149 199.5 154.3 202.3 159.4 204.4 165.2 201.8 166 198.5 161.3 195.3 158.6 191 159.7 188.8 168.1 196 167.9 200 171 199.1 176.2 198.4 179.2 195.2 178.8 197 184.3 201.7 185.1 205.8 181.2 209.1 178.6 210.8 173.8 213.9 169.6 219.6 173.6 223.3 178.2 228.1 177.8 230 172.8 231.8 166.9 233.7 163.3 239.7 163.2 245.6 165.9"/>
		<polygon id="j" points="258.3 189.1 266 187.8 267.3 183 256.6 176.4 250.3 171.2 243.1 171.9 237.9 169.4 234.4 169.1 231.6 178.6 243.1 180 250 184.8"/>
		<polygon id="k" points="148.4 122.1 140.2 128.9 142.1 134.8 141.7 138.8 149.6 137.2 156.9 145.6 156.8 152.8 153.9 155.8 163.2 165.4 169.5 155.5 174.2 151.4 178.4 149.2 177.5 132.5 178 126.1 176.6 118 174.4 111.2 170.4 118.3 162.8 116.8 155.1 117.4"/>
		<polygon id="l" points="153.7 185.1 138.6 193.8 130 198 127.6 205 134.9 209.8 139.8 216.4 137.1 221.9 140.1 225.5 145.2 230.6 148.6 233.3 152.4 228.4 158.4 229 166.1 227.7 175.7 233.2 186.5 231.4 190.7 233.1 190.4 240.8 188.5 250.7 184.9 255.6 181.1 256.8 178.3 267.4 179.8 273 181.7 277.4 176.2 285.7 177.9 290.9 182 295.2 171 292.7 167.6 283.5 166.3 270.7 165.2 264.9 155.6 256.6 148.9 249.4 143.3 245.8 145.6 237.7 142.3 236.9 130.2 232.9 120.4 234.1 112.6 224.1 105.9 221.4 101.6 204.2 101.9 184.9 105.9 163.2 112.2 161.2 119 154.1 120.5 149.5 129.4 148.3 132.6 151.7 139.5 153.7 141.4 159.5 141.1 163.8 128.9 167.7 123.7 172.6 128.2 175.6 136.4 175.3 141.7 172.2 151.7 179"/>
	</g><g id="m" transform="matrix(2.4031 0 0 2.4031 -258.19 -159.54)">
		<g id="n">
			<g id="o">
				<defs id="p">
					<path id="b" d="m257.4 286.5c-52 26.9-115.9 6.5-142.8-45.5s-6.5-115.9 45.5-142.8 115.9-6.5 142.8 45.5 6.5 115.9-45.5 142.8z"/>
				</defs>
				<clipPath id="a">
					<use id="q" width="100%" height="100%" xlink:href="#b"/>
				</clipPath>
				<path id="r" d="m257.4 286.5c-52 26.9-115.9 6.5-142.8-45.5s-6.5-115.9 45.5-142.8 115.9-6.5 142.8 45.5 6.5 115.9-45.5 142.8z" clip-path="url(#a)" fill="none" stroke="#ea650a" stroke-miterlimit="10" stroke-width="8"/>
				<path id="s" d="m228.9 322.7c-55.6 28.7-126.3 2.2-158-59.1-31.7-61.4-12.3-134.4 43.2-163.1 55.6-28.7 126.3-2.2 158 59.1 31.7 61.4 12.4 134.4-43.2 163.1z" clip-path="url(#a)" fill="none" stroke="#ea650a" stroke-miterlimit="10" stroke-width="8"/>
					<line id="t" x1="323.5" x2="81" y1="133" y2="258.3" clip-path="url(#a)" fill="none" stroke="#ea650a" stroke-miterlimit="10" stroke-width="8"/>
				<path id="u" d="m268.7 92.7s25.1 35.2-14 46.9c-27.8 8.3-106.8-31.3-178.8 73.2" clip-path="url(#a)" fill="none" stroke="#ea650a" stroke-miterlimit="10" stroke-width="8"/>
				<path id="v" d="m324.7 201.1s-14.2-40.8-46.3-15.7c-22.9 17.9-36.3 105.2-163.2 103.4" clip-path="url(#a)" fill="none" stroke="#ea650a" stroke-miterlimit="10" stroke-width="8"/>
				<use id="w" width="100%" height="100%" fill="none" stroke="#ea650a" stroke-miterlimit="10" stroke-width="8" xlink:href="#b"/>
			</g>
		</g>
	</g><path id="x" d="m566.08 236.26h-647.4l12.977 59.838-12.977 59.838h647.4l-15.14-59.838z" fill="#ea650a" stroke-width="2.4031"/><g id="y" transform="matrix(2.4031 0 0 2.4031 -258.19 -159.54)">
		<g id="z" fill="#333336">
			<path id="aa" d="m97.7 209.5h-12.3v-39.8h21.1v8.4h-11.9v6.4h3c6.8 0 11.1 3.2 11.1 12.1v0.7c0.1 8.9-4.4 12.2-11 12.2zm1.9-12.6c0-3-0.8-4-2.8-4h-2.1v8.4h2.1c2 0 2.8-1.2 2.8-4.1z"/>
			<path id="ab" d="m126.2 209.5-1-5.3h-6.7l-1 5.3h-9.1l9.2-39.8h8.2l9.4 39.8zm-3.6-18.8-0.8-4.6-0.7 4.6-1.1 6h3.8z"/>
			<path id="ac" d="m147.1 209.9c-6.7 0-11.4-3.2-11.4-12.7v-15.3c0-9.4 4.8-12.7 11.4-12.7 6.7 0 11.3 3.1 11.3 13.6h-9.3c0-4.2-0.6-5-2-5-1.3 0-2.1 0.8-2.1 4.1v15.2c0 3.4 0.8 4.2 2.1 4.2s2-0.8 2.1-4.9h9.3c-0.2 10-4.8 13.5-11.4 13.5z"/>
			<path id="ad" d="m176.9 209.5-4.9-14.6-1.3 2.5v12.2h-9.2v-39.8h9.2v12.2l5.7-12.4h9.6l-7.7 14.8 8.3 25h-9.7z"/>
			<polygon id="ae" points="229.4 169.7 188.3 169.7 188.3 209.5 207.7 209.5 207.7 200.9 197.5 200.9 197.5 193.7 206.3 193.7 206.3 185.2 197.5 185.2 197.5 178.2 213.5 178.2 213.5 209.5 222.8 209.5 222.8 178.2 229.4 178.2"/>
			<path id="af" d="m244.1 209.5h-12.2v-39.8h21.1v8.4h-11.9v6.4h3c6.8 0 11.1 3.2 11.1 12.1v0.7c0 8.9-4.4 12.2-11.1 12.2zm1.9-12.6c0-3-0.8-4-2.8-4h-2.1v8.4h2.1c2 0 2.8-1.2 2.8-4.1z"/>
			<path id="ag" d="m268.9 209.9c-6.7 0-11.4-3.2-11.4-12.7v-15.3c0-9.4 4.8-12.7 11.4-12.7 6.7 0 11.4 3.2 11.4 12.7v15.3c0 9.5-4.7 12.7-11.4 12.7zm2.2-28c0-3.4-0.8-4.1-2.1-4.1s-2.1 0.8-2.1 4.1v15.2c0 3.4 0.8 4.2 2.1 4.2s2.1-0.8 2.1-4.2z"/>
			<path id="ah" d="m326.6 209.5-1-5.3h-6.7l-1 5.3h-9.1l9.2-39.8h8.2l9.4 39.8zm-3.7-18.8-0.8-4.6-0.7 4.6-1.1 6h3.8z"/>
		</g>
		<g id="ai">
			<path id="aj" d="m306 209.5 2.5-10.2v-29.6h-21.9l-0.5 25.1c-0.1 3.6-1 6.2-3.9 6.2v8.6h2.6c7.8 0 10.7-5.1 10.9-15.1l0.3-16.2h3.4v31.3h6.6z" fill="#333336"/>
		</g>
	</g><g id="ak" transform="matrix(2.4031 0 0 2.4031 -258.19 -159.54)">
		<polygon id="al" points="195.6 169.6 202.3 169.6 221.1 169.6 229.1 169.6 243.1 169.6 243.1 160.4 247.2 160.4 254.9 152.7 254.9 131.5 229.1 131.5 221.1 131.5 202.3 131.5 195.6 131.5 185.9 131.5 184.2 135 182.6 131.5 166.2 131.5 166.2 148.9 168.5 148.9 168.5 152.2 166.2 152.2 166.2 169.6 182.9 169.6 185.5 169.6" fill="#ea650a"/>
		<path id="am" d="m180.6 151.2v13.1h-9.2v-6.9h2.3v-13.8h-2.3v-6.9h7.8l5 10.7 5-10.7h7.8v6.9h-2.3v13.8h2.3v6.9h-9.2v-13.1l-3.6 8.3z" fill="#fff"/>
		<path id="an" d="m210.1 142.1 6-5.3h7.8v6.9h-2.3v13.8h2.3v6.9h-9.2v-17.8l-5.6 5.3-0.3 12.4h-7.8v-6.9h2.3v-13.8h-2.3v-6.9h9.2v5.4z" fill="#fff"/>
		<path id="ao" d="m226.4 136.8h23.3v13.8l-4.6 4.6h-9.5v2.3h2.3v6.9h-11.5v-6.9h2.3v-13.8h-2.3zm9.1 11.5h7.2v-4.6h-7.2z" fill="#fff"/>
	</g></g>
</svg>
