<?xml version="1.0" encoding="UTF-8"?>
<!-- Generator: Adobe Illustrator 16.0.3, SVG Export Plug-In . SVG Version: 6.00 Build 0)  -->
<svg id="Layer_1" width="300.84" height="56.974" enable-background="new 0 0 327.667 80" version="1.1" viewBox="0 0 300.84 56.974" xml:space="preserve" xmlns="http://www.w3.org/2000/svg" xmlns:cc="http://creativecommons.org/ns#" xmlns:dc="http://purl.org/dc/elements/1.1/" xmlns:rdf="http://www.w3.org/1999/02/22-rdf-syntax-ns#"><metadata id="metadata79"><rdf:RDF><cc:Work rdf:about=""><dc:format>image/svg+xml</dc:format><dc:type rdf:resource="http://purl.org/dc/dcmitype/StillImage"/><dc:title/></cc:Work></rdf:RDF></metadata><g id="g26" transform="translate(-10.894 -12.469)" fill="#1d6daa"><path id="path2" d="m106.3 18.915v27.668h-6.289l-9e-3 -18.679-2.503 18.679h-4.46l-2.641-18.252-8e-3 18.252h-6.289v-27.668h9.31c0.276 1.664 0.561 3.624 0.854 5.882l1.021 7.038 1.654-12.92z"/><path id="path4" d="m125.25 46.583h-6.016v-12.595l-3.743 12.595h-6.306v-27.686h6.016v12.493l4.033-12.493h6.016z"/><path id="path6" d="m128.12 18.915h7.246c1.959 0 3.466 0.154 4.521 0.461 1.054 0.308 1.846 0.752 2.375 1.333 0.53 0.581 0.889 1.285 1.077 2.111s0.281 2.105 0.281 3.836v2.41c0 1.766-0.182 3.054-0.547 3.862-0.364 0.809-1.033 1.43-2.008 1.863-0.974 0.433-2.247 0.649-3.819 0.649h-1.932v11.143h-7.194zm7.194 4.733v7.041c0.205 0.012 0.382 0.017 0.53 0.017 0.66 0 1.119-0.162 1.376-0.487 0.256-0.325 0.384-1 0.384-2.025v-2.273c0-0.945-0.147-1.561-0.444-1.846-0.296-0.284-0.911-0.427-1.846-0.427z"/><path id="path8" d="m168.63 40.106c0 2.062-0.268 3.543-0.803 4.443-0.536 0.9-1.348 1.465-2.436 1.692s-2.822 0.342-5.204 0.342h-8.322v-27.686h14.099v4.803h-6.887v4.683h1.11c2.222 0 3.902 0.131 5.042 0.393 1.139 0.262 1.991 0.84 2.555 1.735s0.846 2.298 0.846 4.212zm-7.212-0.837v-3.999c0-1.162-0.116-1.868-0.35-2.119-0.234-0.25-0.897-0.393-1.991-0.427v9.091c0.911 0 1.529-0.116 1.854-0.35s0.487-0.966 0.487-2.196z"/><path id="path10" d="m171.17 18.915h11.997v5.537h-4.803v5.247h4.495v5.264h-4.495v6.084h5.281v5.537h-12.476v-27.669z"/><path id="path12" d="m203.29 46.583h-7.212v-22.148h-2.103v15.671c0 2.062-0.266 3.543-0.797 4.443-0.532 0.9-1.339 1.465-2.42 1.692-1.082 0.228-2.807 0.342-5.175 0.342h-1.127v-4.769c0.877 0 1.48-0.107 1.812-0.324 0.33-0.217 0.495-0.957 0.495-2.222v-20.371h16.526v27.686z"/><path id="path14" d="m222.6 35.116c0 2.78-0.065 4.749-0.196 5.905-0.132 1.156-0.542 2.213-1.23 3.17-0.689 0.957-1.621 1.692-2.795 2.204-1.173 0.513-2.54 0.77-4.102 0.77-1.48 0-2.811-0.242-3.99-0.727-1.179-0.484-2.128-1.21-2.846-2.179-0.718-0.968-1.145-2.022-1.281-3.161-0.137-1.14-0.205-3.133-0.205-5.982v-4.734c0-2.78 0.065-4.748 0.196-5.904s0.541-2.213 1.23-3.17 1.621-1.692 2.794-2.205c1.174-0.513 2.541-0.769 4.102-0.769 1.481 0 2.812 0.242 3.991 0.727 1.179 0.484 2.127 1.21 2.845 2.179s1.146 2.022 1.282 3.162c0.137 1.14 0.205 3.133 0.205 5.981zm-7.196-9.092c0-1.287-0.071-2.11-0.213-2.469-0.143-0.359-0.437-0.539-0.881-0.539-0.376 0-0.663 0.146-0.862 0.436-0.2 0.291-0.3 1.148-0.3 2.572v12.92c0 1.606 0.065 2.597 0.197 2.974 0.131 0.375 0.436 0.563 0.914 0.563 0.489 0 0.803-0.216 0.939-0.649 0.137-0.433 0.205-1.464 0.205-3.093v-12.715z"/><path id="path16" d="m237.77 24.435h-5.28v22.148h-7.212v-27.686h12.492z"/><path id="path18" d="m256.14 35.116c0 2.78-0.065 4.749-0.196 5.905-0.132 1.156-0.542 2.213-1.23 3.17-0.689 0.957-1.621 1.692-2.795 2.204-1.173 0.513-2.54 0.77-4.102 0.77-1.48 0-2.811-0.242-3.99-0.727-1.179-0.484-2.128-1.21-2.846-2.179-0.718-0.968-1.145-2.022-1.281-3.161-0.137-1.14-0.205-3.133-0.205-5.982v-4.734c0-2.78 0.065-4.748 0.196-5.904s0.541-2.213 1.23-3.17 1.621-1.692 2.794-2.205c1.174-0.513 2.541-0.769 4.102-0.769 1.481 0 2.812 0.242 3.991 0.727 1.179 0.484 2.127 1.21 2.845 2.179s1.146 2.022 1.282 3.162c0.137 1.14 0.205 3.133 0.205 5.981zm-7.196-9.092c0-1.287-0.071-2.11-0.213-2.469-0.143-0.359-0.437-0.539-0.881-0.539-0.376 0-0.663 0.146-0.862 0.436-0.2 0.291-0.3 1.148-0.3 2.572v12.92c0 1.606 0.065 2.597 0.197 2.974 0.131 0.375 0.436 0.563 0.914 0.563 0.489 0 0.803-0.216 0.939-0.649 0.137-0.433 0.205-1.464 0.205-3.093v-12.715z"/><path id="path20" d="m258.83 18.915h7.246c1.959 0 3.466 0.154 4.521 0.461 1.054 0.308 1.846 0.752 2.375 1.333 0.53 0.581 0.889 1.285 1.077 2.111s0.281 2.105 0.281 3.836v2.41c0 1.766-0.182 3.054-0.547 3.862-0.364 0.809-1.033 1.43-2.008 1.863-0.974 0.433-2.247 0.649-3.819 0.649h-1.932v11.143h-7.194zm7.194 4.733v7.041c0.205 0.012 0.382 0.017 0.53 0.017 0.66 0 1.119-0.162 1.376-0.487 0.256-0.325 0.384-1 0.384-2.025v-2.273c0-0.945-0.147-1.561-0.444-1.846-0.296-0.284-0.911-0.427-1.846-0.427z"/><path id="path22" d="m293.16 40.106c0 2.062-0.268 3.543-0.803 4.443-0.536 0.9-1.348 1.465-2.436 1.692s-2.822 0.342-5.204 0.342h-8.322v-27.686h7.212v9.485h1.11c2.222 0 3.902 0.131 5.042 0.393 1.139 0.262 1.991 0.84 2.555 1.735s0.846 2.298 0.846 4.212zm-7.212-0.837v-3.999c0-1.162-0.116-1.868-0.35-2.119-0.234-0.25-0.897-0.393-1.991-0.427v9.091c0.911 0 1.529-0.116 1.854-0.35s0.487-0.966 0.487-2.196z"/><path id="path24" d="m311.74 46.583h-7.212v-12.458c-0.912 0-1.501 0.151-1.769 0.453-0.269 0.302-0.402 0.965-0.402 1.991v10.015h-6.682v-8.254c0-1.401 0.077-2.466 0.231-3.196 0.153-0.729 0.51-1.333 1.068-1.812 0.56-0.479 1.443-0.877 2.652-1.196-1.654-0.148-2.727-0.618-3.217-1.41s-0.735-2.213-0.735-4.264c0-1.846 0.228-3.29 0.684-4.332 0.455-1.042 1.116-1.792 1.982-2.248 0.865-0.456 1.862-0.732 2.99-0.829s2.895-0.146 5.298-0.146h5.11v27.686zm-7.212-16.799v-6.118h-0.342c-0.604 0-1.06 0.134-1.367 0.402s-0.462 0.84-0.462 1.717v1.521c0 1.025 0.129 1.695 0.385 2.008 0.257 0.313 0.852 0.47 1.786 0.47z"/></g><g id="g62" transform="translate(-10.894 -12.469)" fill="#f47621"><path id="path28" d="m86.684 53.643v6.004h-1.005v-6.004h-2.359v-0.865h5.612v0.865z"/><path id="path30" d="m90.813 56.478c0.028 0.628 0.07 0.907 0.209 1.242 0.321 0.768 0.936 1.131 1.871 1.131 0.321 0 0.628-0.069 0.879-0.167 0.307-0.126 0.489-0.252 0.866-0.615l0.684 0.601c-0.502 0.489-0.74 0.656-1.159 0.824-0.377 0.153-0.824 0.237-1.327 0.237-1.982 0-3.03-1.229-3.03-3.561 0-2.164 1.075-3.477 2.82-3.477 1.746 0 2.82 1.271 2.82 3.323v0.461h-4.633zm3.504-1.663c-0.237-0.796-0.879-1.271-1.689-1.271-0.726 0-1.326 0.392-1.605 1.033-0.14 0.308-0.182 0.531-0.209 1.146h3.63c-0.029-0.531-0.043-0.656-0.127-0.908z"/><path id="path32" d="m101.68 59.646v-6.004h-2.429v2.374c0 2.876-0.922 3.63-2.178 3.63h-0.461v-0.865h0.224c0.614 0 1.452-0.196 1.452-3.058v-2.946h4.398v6.869z"/><path id="path34" d="m105.83 56.478c0.028 0.628 0.07 0.907 0.209 1.242 0.321 0.768 0.936 1.131 1.871 1.131 0.321 0 0.628-0.069 0.879-0.167 0.307-0.126 0.489-0.252 0.866-0.615l0.684 0.601c-0.502 0.489-0.74 0.656-1.159 0.824-0.377 0.153-0.824 0.237-1.327 0.237-1.982 0-3.03-1.229-3.03-3.561 0-2.164 1.075-3.477 2.82-3.477 1.746 0 2.82 1.271 2.82 3.323v0.461h-4.633zm3.504-1.663c-0.237-0.796-0.879-1.271-1.689-1.271-0.726 0-1.326 0.392-1.605 1.033-0.14 0.308-0.182 0.531-0.209 1.146h3.63c-0.029-0.531-0.043-0.656-0.127-0.908z"/><path id="path36" d="m115.5 59.73c-0.419 0-0.782-0.07-1.103-0.224-0.293-0.14-0.461-0.279-0.796-0.67v3.881h-1.005v-9.94h1.005v0.81c0.321-0.377 0.489-0.517 0.782-0.67 0.307-0.153 0.67-0.224 1.103-0.224 1.773 0 2.569 1.104 2.569 3.532 0 2.388-0.81 3.505-2.555 3.505zm-0.182-6.143c-1.201 0-1.717 0.796-1.717 2.625 0 1.843 0.517 2.625 1.731 2.625 1.201 0 1.717-0.782 1.717-2.611 0-1.872-0.503-2.639-1.731-2.639z"/><path id="path38" d="m124.1 59.646v-0.656c-0.335 0.321-0.502 0.447-0.782 0.559-0.321 0.14-0.684 0.182-1.215 0.182-1.591 0-2.443-0.712-2.443-2.024 0-1.243 0.894-1.982 2.374-1.982h2.066v-0.656c0-1.048-0.544-1.508-1.801-1.508-0.447 0-0.782 0.069-1.062 0.209-0.237 0.111-0.377 0.237-0.628 0.572l-0.684-0.628c0.363-0.419 0.53-0.572 0.865-0.74 0.391-0.195 0.88-0.279 1.536-0.279 1.843 0 2.778 0.768 2.778 2.29v4.663h-1.004zm0-3.168h-1.927c-1.019 0-1.536 0.404-1.536 1.214 0 0.824 0.502 1.173 1.662 1.173 1.284 0 1.801-0.475 1.801-1.647z"/><path id="path40" d="m132.61 61.699v-2.053h-5.11v2.053h-0.963v-2.918h0.81c0.517-1.146 0.908-2.192 0.908-4.691v-1.313h4.314v6.004h1.02v2.918zm-1.046-8.056h-2.346v1.299c-0.014 1.815-0.335 2.82-0.782 3.84h3.128z"/><path id="path42" d="m139.84 59.646v-5.319l-3.532 5.319h-0.991v-6.869h0.991v5.291l3.532-5.291h1.006v6.869z"/><path id="path44" d="m147.76 58.948c-0.503 0.503-1.188 0.782-1.969 0.782-0.782 0-1.466-0.279-1.969-0.782-0.587-0.601-0.838-1.41-0.838-2.736s0.251-2.136 0.838-2.736c0.503-0.503 1.187-0.782 1.969-0.782 0.768 0 1.466 0.279 1.969 0.782 0.586 0.586 0.837 1.41 0.837 2.694 0 1.368-0.238 2.164-0.837 2.778zm-0.713-4.858c-0.307-0.321-0.768-0.503-1.256-0.503-0.475 0-0.936 0.182-1.243 0.503-0.404 0.404-0.559 1.005-0.559 2.122s0.154 1.703 0.559 2.122c0.308 0.321 0.754 0.503 1.243 0.503 0.488 0 0.949-0.182 1.256-0.503 0.392-0.405 0.545-0.991 0.545-2.08 0-1.173-0.14-1.76-0.545-2.164z"/><path id="path46" d="m150.8 59.646v-6.869h1.005v3.295l3.03-3.295h1.242l-3.085 3.239 3.364 3.63h-1.299l-3.253-3.546v3.546z"/><path id="path48" d="m161.83 58.948c-0.503 0.503-1.188 0.782-1.969 0.782-0.782 0-1.466-0.279-1.969-0.782-0.587-0.601-0.838-1.41-0.838-2.736s0.251-2.136 0.838-2.736c0.503-0.503 1.187-0.782 1.969-0.782 0.768 0 1.466 0.279 1.969 0.782 0.586 0.586 0.837 1.41 0.837 2.694 0 1.368-0.237 2.164-0.837 2.778zm-0.713-4.858c-0.307-0.321-0.768-0.503-1.256-0.503-0.475 0-0.936 0.182-1.243 0.503-0.404 0.404-0.559 1.005-0.559 2.122s0.154 1.703 0.559 2.122c0.308 0.321 0.754 0.503 1.243 0.503 0.488 0 0.949-0.182 1.256-0.503 0.392-0.405 0.545-0.991 0.545-2.08 0-1.173-0.14-1.76-0.545-2.164z"/><path id="path50" d="m170.44 59.646v-4.886l-1.912 3.798h-0.769l-1.94-3.798v4.887h-0.991v-6.869h0.991l2.332 4.621 2.304-4.621h0.991v6.869h-1.006z"/><path id="path52" d="m178.3 59.646v-6.004h-3.323v6.004h-0.991v-6.869h5.319v6.869z"/><path id="path54" d="m185.7 59.646v-0.656c-0.336 0.321-0.503 0.447-0.782 0.559-0.321 0.14-0.685 0.182-1.215 0.182-1.592 0-2.443-0.712-2.443-2.024 0-1.243 0.894-1.982 2.374-1.982h2.066v-0.656c0-1.048-0.545-1.508-1.802-1.508-0.446 0-0.781 0.069-1.061 0.209-0.237 0.111-0.377 0.237-0.629 0.572l-0.684-0.628c0.363-0.419 0.53-0.572 0.865-0.74 0.391-0.195 0.88-0.279 1.536-0.279 1.843 0 2.778 0.768 2.778 2.29v4.663h-1.003zm0-3.168h-1.927c-1.02 0-1.536 0.404-1.536 1.214 0 0.824 0.503 1.173 1.661 1.173 1.285 0 1.802-0.475 1.802-1.647z"/><path id="path56" d="m193.48 59.646v-3.113h-3.323v3.113h-0.991v-6.869h0.991v2.89h3.323v-2.89h1.005v6.869z"/><path id="path58" d="m201.53 59.646v-5.319l-3.532 5.319h-0.991v-6.869h0.991v5.291l3.532-5.291h1.006v6.869z"/><path id="path60" d="m204.58 59.646 1.605-2.82c-0.978-0.195-1.605-0.949-1.605-1.996 0-1.229 0.865-2.053 2.164-2.053h3.127v6.869h-0.991v-2.694h-1.647l-1.493 2.694zm4.3-6.045h-1.94c-0.88 0-1.368 0.461-1.368 1.271 0 0.796 0.488 1.257 1.368 1.257h1.94z"/></g><g id="g72" transform="translate(-10.894 -12.469)"><g id="g66"><path id="path64" d="m71.854 29.008c4.395 7.169-5.151 24.101-19.766 30.146-1.407 0.458-2.999 0.232-2.857-0.299 1.074-3.576 12.184-15.318 11.617-24.546-0.312-5.125-11.476-2.864-15.538-1.847 0 0-7.525-0.996 3.42-5.734 11.029-4.477 18.534-4.828 23.124 2.28z" clip-rule="evenodd" fill="#1d6daa" fill-rule="evenodd"/></g><path id="path68" d="m64.362 19.656c-4.362-1.681-12.735-2.242-20.848 1.181-8.108 3.426-10.045 7.334-8.343 10.909 1.707 3.573-2.651 4.062-8.825-0.754-6.173-4.813-0.639-11.911 7.302-15.498 8.467-3.821 26.548-5.109 31.824 2.727 1.126 2.063-0.115 1.818-1.11 1.435z" clip-rule="evenodd" fill="#1d6daa" fill-rule="evenodd"/><path id="path70" d="m51.656 50.525c0.036-0.027 5.202-6.357 4.77-11.896-0.429-3.909-4.107-1.248-6.021 1.48-1.155 1.644-7.699 13.646-9.842 16.792-0.251 0.37-0.348 0.309-0.234-0.073 2.491-8.713 7.229-25.326-0.892-20.231-3.479 2.183-5.804 4.642-8.452 7.772-4.415 5.215-9.695 11.78-20.091 25.074 8.329-7.472 11.788-10.969 23.562-24.07 1.008-1.121 5.274-6.04 4.319-0.758-1.231 6.624-2.752 11.306-3.821 19.015-0.324 2.307 1.131 4.34 6.743-2.316 3.758-4.466 4.587-6.75 8.314-12.89 1.04-1.714 1.453-0.325 1.645 2.101z" clip-rule="evenodd" fill="#f47621" fill-rule="evenodd"/></g></svg>
