<svg width="800" height="218.86" version="1.1" viewBox="0 0 800 218.86" xml:space="preserve" xmlns="http://www.w3.org/2000/svg">
<g transform="matrix(2.669 0 0 2.669 -365.83 -839.14)" fill="#fff">
		<path d="m278.9 314.7c1.2 0 2.2 0.3 2.8 0.9 0.7 0.6 1 1.4 1 2.6 0 1.1-0.3 1.9-1 2.5s-1.6 1-2.8 1v19.2c1.2 0 2.2 0.3 2.8 0.9 0.7 0.6 1 1.4 1 2.6 0 1.1-0.3 1.9-1 2.5s-1.6 1-2.8 1h-8.6c-1.2 0-2.1-0.3-2.8-1-0.7-0.6-1-1.5-1-2.5 0-1.1 0.3-2 1-2.6s1.6-0.9 2.8-0.9v-10.9l-3.6 6.3c-0.9 1.6-2.3 2.4-4 2.4-1.6 0-2.9-0.8-3.9-2.4l-3.8-5.9v10.4c1.2 0 2.2 0.3 2.8 0.9 0.7 0.6 1 1.4 1 2.6 0 1.1-0.3 1.9-1 2.5s-1.6 1-2.8 1h-8.1c-1.2 0-2.1-0.3-2.8-1-0.7-0.6-1-1.5-1-2.5 0-1.1 0.3-2 1-2.6s1.6-0.9 2.8-0.9v-19.2c-1.2 0-2.1-0.3-2.8-1-0.7-0.6-1-1.5-1-2.5 0-1.1 0.3-2 1-2.6s1.6-0.9 2.8-0.9h4c1.8 0 3.2 0.8 4.3 2.5l7.9 12.4 7.7-12.4c1-1.7 2.4-2.5 4.1-2.5h4z"/>
		<path d="m297.6 314.7c1.2 0 2.2 0.3 2.8 0.9 0.7 0.6 1 1.4 1 2.6 0 1.1-0.3 1.9-1 2.5s-1.6 1-2.8 1v11.7l2.9-4 8.7-12.3c1.1-1.6 2.4-2.4 4-2.4h4.2c1.2 0 2.2 0.3 2.8 0.9 0.7 0.6 1 1.4 1 2.6 0 1.1-0.3 1.9-1 2.5s-1.6 1-2.8 1v19.2c1.2 0 2.2 0.3 2.8 0.9 0.7 0.6 1 1.4 1 2.6 0 1.1-0.3 1.9-1 2.5s-1.6 1-2.8 1h-8.6c-1.2 0-2.1-0.3-2.8-1-0.7-0.6-1-1.5-1-2.5 0-1.1 0.3-2 1-2.6s1.6-0.9 2.8-0.9v-11.5l-11.6 16c-1.3 1.6-2.6 2.4-3.9 2.4h-4.2c-1.2 0-2.1-0.3-2.8-1-0.7-0.6-1-1.5-1-2.5 0-1.1 0.3-2 1-2.6s1.6-0.9 2.8-0.9v-19.2c-1.2 0-2.1-0.3-2.8-1-0.7-0.6-1-1.5-1-2.5 0-1.1 0.3-2 1-2.6s1.6-0.9 2.8-0.9h8.5z"/>
		<path d="m336.4 340.8c1.2 0 2.2 0.3 2.8 0.9 0.7 0.6 1 1.4 1 2.6 0 1.1-0.3 1.9-1 2.5s-1.6 1-2.8 1h-9.1c-1.2 0-2.1-0.3-2.8-1-0.7-0.6-1-1.5-1-2.5 0-1.1 0.3-2 1-2.6s1.6-0.9 2.8-0.9v-19.2c-1.2 0-2.1-0.3-2.8-1-0.7-0.6-1-1.5-1-2.5 0-1.1 0.3-2 1-2.6s1.6-0.9 2.8-0.9h6.6c1.8-0.2 3.5-0.2 5-0.2 4.1 0 7.3 1 9.8 2.9 2.4 1.9 3.7 4.8 3.7 8.6 0 3.9-1.2 6.8-3.7 8.8s-5.7 3-9.6 3c-1.1 0-2.1-0.1-3.1-0.2v3.5h0.4zm5.6-11.7c0.8-0.7 1.3-1.8 1.3-3.2 0-1.3-0.4-2.3-1.2-3s-1.9-1-3.3-1c-1.2 0-2.1 0-2.8 0.1v8c0.7 0.1 1.6 0.1 2.7 0.1 1.3 0.1 2.4-0.3 3.3-1z"/>
		<path d="m254.1 362.7c2.4-0.2 4-0.2 4.9-0.2 3.9 0 7 0.7 9.3 2.2 2.4 1.5 3.5 3.7 3.5 6.7 0 1.4-0.3 2.7-1 3.8-0.7 1.2-1.6 2-2.8 2.6 1.7 0.6 3 1.7 3.9 3.1s1.3 3 1.3 4.7c0 6.9-4.7 10.4-14 10.4-1.6 0-3.4-0.1-5.2-0.2h-7.2c-1.2 0-2.1-0.3-2.8-1-0.7-0.6-1-1.5-1-2.5 0-1.1 0.3-2 1-2.6s1.6-0.9 2.8-0.9v-19.2c-1.2 0-2.1-0.3-2.8-1-0.7-0.6-1-1.5-1-2.5 0-1.1 0.3-2 1-2.6s1.6-0.9 2.8-0.9h7.3zm0.9 6.9v6.2h4c1.3 0 2.3-0.3 2.9-0.9 0.7-0.6 1-1.4 1-2.4 0-2.2-1.4-3.3-4.2-3.3-1.2 0.2-2.5 0.3-3.7 0.4zm0 12.5v6.7c1.3 0.2 2.8 0.2 4.5 0.2 3.2 0 4.8-1.2 4.8-3.5s-1.6-3.5-4.8-3.5h-4.5z"/>
		<path d="m280.7 367c2.8-3.2 6.8-4.8 12-4.8s9.1 1.6 12 4.8c2.8 3.2 4.2 7.3 4.2 12.3s-1.4 9.1-4.2 12.3-6.8 4.8-12 4.8-9.1-1.6-12-4.8c-2.8-3.2-4.2-7.3-4.2-12.3-0.1-5.1 1.4-9.2 4.2-12.3zm6.6 19c1.2 1.7 3 2.6 5.3 2.6 2.4 0 4.1-0.9 5.3-2.6s1.8-4 1.8-6.8-0.6-5-1.8-6.8c-1.2-1.7-3-2.6-5.3-2.6-2.4 0-4.1 0.9-5.3 2.6s-1.8 4-1.8 6.8c0.1 2.8 0.7 5.1 1.8 6.8z"/>
		<path d="m323.1 362.7c2.6 0 3.8 1.1 3.8 3.2 0 1.7-0.8 2.7-2.4 3.1v8.7l7.1-8.7c-1.7-0.4-2.5-1.5-2.5-3.1 0-2.1 1.3-3.2 3.8-3.2h7.8c1.2 0 2.2 0.3 2.8 0.9 0.7 0.6 1 1.4 1 2.6 0 1.1-0.3 1.9-1 2.5s-1.6 1-2.8 1l-7.7 9 8.1 10.2h0.5c1.2 0 2.2 0.3 2.8 0.9 0.7 0.6 1 1.4 1 2.6 0 1.1-0.3 1.9-1 2.5s-1.6 1-2.8 1h-4c-1 0-1.7-0.2-2.3-0.5-0.6-0.4-1.1-0.9-1.6-1.6l-9.2-12.9v8.7c1.6 0.4 2.4 1.4 2.4 3.1 0 1-0.3 1.8-1 2.4s-1.6 0.9-2.8 0.9h-7.2c-1.2 0-2.1-0.3-2.8-1-0.7-0.6-1-1.5-1-2.5 0-1.1 0.3-2 1-2.6s1.6-0.9 2.8-0.9v-19.2c-1.2 0-2.1-0.3-2.8-1-0.7-0.6-1-1.5-1-2.5 0-1.1 0.3-2 1-2.6s1.6-0.9 2.8-0.9h7.2z"/>
		<path d="m359.7 388.8c1.2 0 2.2 0.3 2.8 0.9 0.7 0.6 1 1.4 1 2.6 0 1.1-0.3 1.9-1 2.5s-1.6 1-2.8 1h-9.1c-1.2 0-2.1-0.3-2.8-1-0.7-0.6-1-1.5-1-2.5 0-1.1 0.3-2 1-2.6s1.6-0.9 2.8-0.9v-19.2c-1.2 0-2.1-0.3-2.8-1-0.7-0.6-1-1.5-1-2.5 0-1.1 0.3-2 1-2.6s1.6-0.9 2.8-0.9h6.6c1.8-0.2 3.5-0.2 5-0.2 4.1 0 7.3 1 9.8 2.9 2.4 1.9 3.7 4.8 3.7 8.6 0 3.9-1.2 6.8-3.7 8.8s-5.7 3-9.6 3c-1.1 0-2.1-0.1-3.1-0.2v3.5h0.4zm5.6-11.7c0.8-0.7 1.3-1.8 1.3-3.2 0-1.3-0.4-2.3-1.2-3s-1.9-1-3.3-1c-1.2 0-2.1 0-2.8 0.1v8c0.7 0.1 1.6 0.1 2.7 0.1 1.3 0.1 2.5-0.3 3.3-1z"/>
		<path d="m406 362.7c1.2 0 2.2 0.3 2.8 0.9 0.7 0.6 1 1.4 1 2.6 0 1-0.3 1.9-1 2.5s-1.6 1-2.7 1l-7.2 16.5c-1.4 3.4-3 5.9-4.5 7.6-1.6 1.7-3.5 2.5-5.8 2.5-2.1 0-3.8-0.4-5.2-1.1-1.1-0.6-1.8-1.3-2.3-2.3-0.4-0.9-0.5-1.9-0.2-3 0.3-1 0.9-1.7 1.6-2 0.8-0.3 1.6-0.4 2.4-0.2 1.7 0.4 2.7 0.6 3 0.6 1 0 1.7-0.8 2.3-2.3l-10.4-16.6c-1.1 0-2-0.4-2.6-1s-1-1.5-1-2.5c0-1.1 0.3-2 1-2.6s1.6-0.9 2.8-0.9h8.2c1.2 0 2.2 0.3 2.8 0.9 0.7 0.6 1 1.4 1 2.6 0 0.9-0.2 1.6-0.7 2.2s-1.2 1-2 1.2l4.8 8.7 3.5-8.6c-1.2 0-2.1-0.3-2.7-1-0.7-0.6-1-1.5-1-2.5 0-1.1 0.3-2 1-2.6s1.6-0.9 2.8-0.9h8.3z"/>
		<path d="m433.1 362.7c1.2 0 2.1 0.4 2.7 1.1s1 1.6 1 2.7v5.6c0 1.1-0.3 2-1 2.7-0.6 0.7-1.6 1.1-2.7 1.1-1.2 0-2.1-0.4-2.8-1.1s-1-1.6-1-2.7v-1.6h-6v18.5h0.3c1.2 0 2.2 0.3 2.8 0.9 0.7 0.6 1 1.4 1 2.6 0 1.1-0.3 1.9-1 2.5s-1.6 1-2.8 1h-9c-1.2 0-2.1-0.3-2.8-1-0.7-0.6-1-1.5-1-2.5 0-1.1 0.3-2 1-2.6s1.6-0.9 2.8-0.9v-19.2c-1.2 0-2.1-0.3-2.8-1-0.7-0.6-1-1.5-1-2.5 0-1.1 0.3-2 1-2.6s1.6-0.9 2.8-0.9h18.5z"/>
	</g><g transform="matrix(2.669 0 0 2.669 -365.83 -839.14)">
			<path d="m143.1 375.9c-0.1 0-0.1-0.1-0.2-0.1-1.2-1.4-2.3-2.8-3-4.5-0.7-1.6-1.4-3.2-1.4-5 0-2.1 1.1-3.3 3.2-3.5 1.3-0.1 2.7 0 4 0.2 3.9 0.6 7.9 1 11.9 1.3 6.2 0.4 12.3 0.4 18.5-0.2 5.4-0.5 10.8-1.2 16.1-2.3 6.1-1.2 12.2-2.7 18.5-3.1 1.4-0.1 2.8-0.3 4.2 0.2 1.2 0.4 1.7 1 1.8 2.3 0.1 1.1-0.2 2.2-0.4 3.2-0.8 3.3-2.4 5.8-5.7 7.1-1.1 0.5-2.4 0.5-3.5 0.9h-11.7c-0.7 0-1.3 0-2 0.3-2 0.7-3.5 1.9-4.9 3.5-1.2 1.4-2.3 1.4-3.8 0.4-0.8-0.6-1.6-1.2-2.5-1.7-2.5-1.8-5.2-2.6-8.2-1.6-3.1 1-5.4 3.2-7.4 5.6-1.9 2.3-3.5 2.7-6 1.1-1.4-0.9-2.6-2.1-4.1-2.8-2.4-1.2-5-1.9-7.6-0.6-2.1 0.7-3.9 0.6-5.8-0.7z" fill="#1d71b8"/>
			<path d="m139.7 340.7c-0.2-0.9 0.2-1.6 0.6-2.3 1.5-2.3 3.1-4.5 4.6-6.7 1.9-2.8 4.6-5 6.9-7.3 1.7-1.7 4.7-1.8 7-0.6 1 0.5 1.9 1.2 3 1.5 1.1 0.9 2.5 1.4 3.9 1.7h0.4c1.7 0.8 3.5 1 5.2 1.2 1.9 0.2 3.9 0.2 5.9 0.1 3.1-0.1 6.1-0.7 9.1-1 0.2 0 0.4-0.1 0.5-0.3h0.4c0.4 0 0.8 0 1.1-0.1 2.5-0.8 4.9-1.6 7.3-2.7 1-0.5 2.2-0.8 3.4-0.7 1.9 0.3 3.2 1.6 4.6 2.8 0.4 0.3 0.6 0.8 1.2 0.8 0 0.2 0.1 0.4 0.3 0.5 2.3 2.5 4.4 5.1 6.5 7.7 0.8 0.9 1.1 2.2 2.1 3v0.9c-0.6 0.1-1.2 0-1.7-0.2-2.2-0.8-4.2-1.9-6.2-3.1-1.7-1-3.4-1.6-5.4-1.3-0.6 0.1-1.2 0.2-1.5 0.8h-0.4c-0.8 0.3-1.4 0.9-1.7 1.7v0.2c-0.4 0.1-0.5 0.4-0.7 0.7-1.5 1.9-2.6 4.1-4.3 5.8-1.2 1.2-2 1.3-3.3 0.2-0.6-0.5-1-1.3-1.7-1.7-0.5-1.3-1.4-2.3-2.2-3.4-0.6-0.8-1-1.8-2.1-2.2 0-0.1 0-0.2-0.1-0.2-4.3-4.1-9.4-2.4-12.6 2.1-1.4 0.8-2.1 2.3-3.3 3.3-2.2 2-3.5 2.1-5.5 0.4-0.7-0.6-1.3-1.2-1.8-1.9-0.7-0.9-1.4-1.8-2.4-2.4-3.1-1.9-6.2-1.3-9.3-0.2-0.7 0.3-1.6 0.3-2.1 1h-0.2c-0.9 0-1.5 0.6-2.2 0.9-1 0.3-1.9 1.3-3.3 1z" fill="#95c11f"/>
			<path d="m193.5 392.6c-3.5 1.4-7 2.6-10.7 3.1-7.3 0.9-14.4 0.2-21.2-2.6-1.8-0.7-3.5-1.7-5.2-2.6-1.1-0.8-2.3-1.5-3.4-2.3-1.6-1.2-3.1-2.6-3.7-4.6-0.5-1.5 0.1-2.6 1.5-3.2 1.5-0.7 3.1-0.6 4.5 0.3 1 0.6 1.8 1.3 2.8 1.8 3.8 2.1 7.7 2.4 10.8-1.5 0.9-1.1 1.9-2.1 3-3 3.1-2.6 5.6-2.7 8.9-0.4 0.7 0.5 1.5 1.1 2.2 1.6 2.8 1.8 5.1 1.6 7.6-0.6 0.2-0.2 0.5-0.4 0.7-0.7 1.1-1.3 2.6-2 4.3-2.3 3.1-0.6 6.1-0.8 9.2 0.1 1.6 0.4 3 0.9 3.9 2.3 0.3 1.6-0.3 2.9-1.3 4.1-1.5 1.8-3.3 3.5-5.1 5-2.7 2.2-5.7 3.9-8.8 5.5z" fill="#0f416f"/>
			<path d="m163.3 322.3c-0.1-1-0.6-2.1 0.1-3.1 0.9-1.3 2.2-2 3.6-2.6 0.9-0.4 1.9-0.8 2.9-1 1.3 0 2.6-0.4 3.9-0.5 3.9-0.5 7.9-0.5 11.8-0.1 2 0.2 4 0.5 5.7 1.6 1.6 1 1.9 2.4 0.8 3.9-1.2 1.6-3 2.4-4.7 3.2-3.3 1.5-6.8 2-10.3 2.3-3.4 0.3-6.7-0.1-10-1.1-1.5-0.6-2.7-1.6-3.8-2.6z" fill="#f9b233"/>
			<path d="m180.9 338.7c1.5 2.4 3 4.8 4.9 6.9 3 3.2 6.3 3 9-0.5 1.4-1.8 2.6-3.7 4-5.5 1.7-2.2 2.7-2.4 5.2-1.1 3.4 1.7 6.5 3.6 9.3 6.2 1.2 1.1 2.2 2.2 2.9 3.7 0.8 1.7 0.6 2.6-0.9 3.7-1.2 0.9-2.5 1.4-3.9 1.9-5.5 1.9-11.1 3-16.8 4.2-6.2 1.3-12.5 2.4-18.9 2.9-5.7 0.5-11.3 0.5-17 0.2-4.5-0.3-9.1-0.8-13.6-1.4-1.5-0.2-3-0.5-4.3-1.2-3.4-1.6-4.6-4.4-3.1-7.9 2.4-5.5 6.5-9.2 12.2-11 2.6-0.8 5-0.3 6.8 2.1 1.1 1.5 2.3 2.8 3.9 3.7 2.3 1.3 4.5 1 6.6-0.5 1.6-1.2 3-2.7 4.1-4.5 0.1-0.1 0.3-0.2 0.4-0.3 1.2-1.4 2.2-2.9 3.8-3.9 1.4-0.9 2.4-0.8 3.6 0.3 0.6 0.7 1.2 1.3 1.8 2z" fill="#3aaa35"/>
	</g>
</svg>
