<?xml version="1.0" encoding="UTF-8"?>
<!-- Created with Inkscape (http://www.inkscape.org/) -->
<svg id="svg2" width="400" height="400" version="1.1" xmlns="http://www.w3.org/2000/svg" xmlns:cc="http://creativecommons.org/ns#" xmlns:dc="http://purl.org/dc/elements/1.1/" xmlns:rdf="http://www.w3.org/1999/02/22-rdf-syntax-ns#">
 <desc id="desc4">Created with graphing.ru and Raphael</desc>
 <metadata id="metadata12">
  <rdf:RDF>
   <cc:Work rdf:about="">
    <dc:format>image/svg+xml</dc:format>
    <dc:type rdf:resource="http://purl.org/dc/dcmitype/StillImage"/>
    <dc:title/>
   </cc:Work>
  </rdf:RDF>
 </metadata>
 <circle id="path837" cx="200" cy="200" r="125" fill="#fff" style="paint-order:stroke fill markers"/>
 <g id="g3879" transform="matrix(.87597 0 0 .87597 -423.88 -20.608)">
  <g id="g3861" transform="rotate(-3,712.22,251.84)">
   <path id="path3863" d="m712.22 23.531c-30.963 0-60.482 6.1767-87.406 17.344l38.062 91.844c15.199-6.3014 31.866-9.8125 49.344-9.8125 17.467 0 34.121 3.5182 49.312 9.8125l38.062-91.875c-26.914-11.157-56.426-17.312-87.375-17.312z" fill="#8ec244"/>
   <path id="path3865" d="m501.22 164.47c-11.158 26.915-17.312 56.425-17.312 87.375s6.1544 60.46 17.312 87.375l91.875-38.031c-6.3014-15.199-9.8125-31.866-9.8125-49.344s3.5112-34.145 9.8125-49.344z" fill="#229ed4"/>
   <path id="path3867" d="m923.19 164.47-91.844 38.031c6.3014 15.199 9.7812 31.866 9.7812 49.344s-3.4799 34.145-9.7812 49.344l91.844 38.031c11.16-26.917 17.344-56.422 17.344-87.375s-6.1837-60.458-17.344-87.375z" fill="#8ec244"/>
   <path id="path3869" d="m662.84 370.97-38.031 91.844c26.924 11.167 56.443 17.344 87.406 17.344 30.953 0 60.458-6.1837 87.375-17.344l-38.031-91.844c-15.199 6.3014-31.866 9.7812-49.344 9.7812-17.488 0-34.169-3.4729-49.375-9.7812z" fill="#229ed4"/>
   <path id="path3871" d="m799.59 40.844-38.062 91.875c31.533 13.065 56.74 38.252 69.812 69.781l91.844-38.031c-23.145-55.824-67.768-100.48-123.59-123.62z" fill="#b2ce3b"/>
   <path id="path3873" d="m624.81 40.875c-55.811 23.148-100.45 67.778-123.59 123.59l91.875 38.031c13.068-31.52 38.261-56.713 69.781-69.781z" fill="#2ea86f"/>
   <path id="path3875" d="m593.09 301.19-91.875 38.031c23.139 55.815 67.783 100.45 123.59 123.59l38.031-91.844c-31.508-13.071-56.685-38.27-69.75-69.781z" fill="#207ab8"/>
   <path id="path3877" d="m831.34 301.19c-13.068 31.52-38.261 56.713-69.781 69.781l38.031 91.844c55.821-23.144 100.45-67.773 123.59-123.59z" fill="#2ea86f"/>
  </g>
  <g id="g3851">
   <path id="path3841" d="m712.22 23.531c-30.963 0-60.482 6.1767-87.406 17.344l38.062 91.844c15.199-6.3014 31.866-9.8127 49.344-9.8127 17.467 0 34.121 3.5184 49.312 9.8127l38.062-91.875c-26.914-11.157-56.426-17.312-87.375-17.312z" fill="#8ec244"/>
   <path id="path3839" d="m501.22 164.47c-11.158 26.915-17.312 56.425-17.312 87.375s6.1544 60.46 17.312 87.375l91.875-38.031c-6.3014-15.199-9.8124-31.866-9.8124-49.344s3.5111-34.145 9.8124-49.344z" fill="#229ed4"/>
   <path id="path3837" d="m923.19 164.47-91.844 38.031c6.3014 15.199 9.7816 31.866 9.7816 49.344s-3.4803 34.145-9.7816 49.344l91.844 38.031c11.16-26.917 17.344-56.422 17.344-87.375s-6.1837-60.458-17.344-87.375z" fill="#8ec244"/>
   <path id="path3815" d="m662.84 370.97-38.031 91.844c26.924 11.167 56.443 17.344 87.406 17.344 30.953 0 60.458-6.1837 87.375-17.344l-38.031-91.844c-15.199 6.3014-31.866 9.7813-49.344 9.7813-17.488 0-34.169-3.473-49.375-9.7813z" fill="#229ed4"/>
   <path id="path3849" d="m799.59 40.844-38.062 91.875c31.533 13.065 56.74 38.252 69.812 69.781l91.844-38.031c-23.145-55.824-67.768-100.48-123.59-123.62z" fill="#b2ce3b"/>
   <path id="path3847" d="m624.81 40.875c-55.811 23.148-100.45 67.778-123.59 123.59l91.875 38.031c13.068-31.52 38.261-56.713 69.781-69.781z" fill="#2ea86f"/>
   <path id="path3845" d="m593.09 301.19-91.875 38.031c23.139 55.815 67.783 100.45 123.59 123.59l38.031-91.844c-31.508-13.071-56.685-38.27-69.75-69.781z" fill="#207ab8"/>
   <path id="path3829" d="m831.34 301.19c-13.068 31.52-38.261 56.713-69.781 69.781l38.031 91.844c55.821-23.144 100.45-67.773 123.59-123.59z" fill="#2ea86f"/>
  </g>
 </g>
 <path id="path3924" d="m108.81 173.01v56.198h18.451v-30.632l9.2798 14.043h4.9273l9.2798-14.043v30.632h18.451v-56.198h-18.861l-11.333 17.931-11.333-17.931zm123.86 56.197h-17.679v-27.479l-17.136 27.479h-18.217v-56.185h18.487v27.685l16.403-27.685h18.141zm36.852-42.783h-7.6554v17.177h7.6554c8.481 0 8.6901-17.177 0-17.177zm1.7811 30.336h-9.4365v12.447h-18.789v-56.185h28.227c31.453-0.30435 30.307 43.989 0 43.739z" stroke-width="1.3333"/>
</svg>
