<?xml version="1.0" encoding="UTF-8"?>
<!-- Creator: CorelDRAW X6 -->
<svg id="svg28" width="192.4mm" height="192.4mm" clip-rule="evenodd" fill-rule="evenodd" image-rendering="optimizeQuality" shape-rendering="geometricPrecision" text-rendering="geometricPrecision" version="1.1" viewBox="0 0 20246 20246" xml:space="preserve" xmlns="http://www.w3.org/2000/svg" xmlns:cc="http://creativecommons.org/ns#" xmlns:dc="http://purl.org/dc/elements/1.1/" xmlns:rdf="http://www.w3.org/1999/02/22-rdf-syntax-ns#"><metadata id="metadata32"><rdf:RDF><cc:Work rdf:about=""><dc:format>image/svg+xml</dc:format><dc:type rdf:resource="http://purl.org/dc/dcmitype/StillImage"/><dc:title/></cc:Work></rdf:RDF></metadata><g id="g3879" transform="matrix(44.337 0 0 44.337 -21455 -1043.1)"><g id="g3861" transform="rotate(-3 712.22 251.84)"><path id="path3863" d="m712.22 23.531c-30.963 0-60.482 6.1767-87.406 17.344l38.062 91.844c15.199-6.3014 31.866-9.8125 49.344-9.8125 17.467 0 34.121 3.5182 49.312 9.8125l38.062-91.875c-26.914-11.157-56.426-17.312-87.375-17.312z" fill="#8ec244"/><path id="path3865" d="m501.22 164.47c-11.158 26.915-17.312 56.425-17.312 87.375s6.1544 60.46 17.312 87.375l91.875-38.031c-6.3014-15.199-9.8125-31.866-9.8125-49.344s3.5112-34.145 9.8125-49.344z" fill="#229ed4"/><path id="path3867" d="m923.19 164.47-91.844 38.031c6.3014 15.199 9.7812 31.866 9.7812 49.344s-3.4799 34.145-9.7812 49.344l91.844 38.031c11.16-26.917 17.344-56.422 17.344-87.375s-6.1837-60.458-17.344-87.375z" fill="#8ec244"/><path id="path3869" d="m662.84 370.97-38.031 91.844c26.924 11.167 56.443 17.344 87.406 17.344 30.953 0 60.458-6.1837 87.375-17.344l-38.031-91.844c-15.199 6.3014-31.866 9.7812-49.344 9.7812-17.488 0-34.169-3.4729-49.375-9.7812z" fill="#229ed4"/><path id="path3871" d="m799.59 40.844-38.062 91.875c31.533 13.065 56.74 38.252 69.812 69.781l91.844-38.031c-23.145-55.824-67.768-100.48-123.59-123.62z" fill="#b2ce3b"/><path id="path3873" d="m624.81 40.875c-55.811 23.148-100.45 67.778-123.59 123.59l91.875 38.031c13.068-31.52 38.261-56.713 69.781-69.781z" fill="#2ea86f"/><path id="path3875" d="m593.09 301.19-91.875 38.031c23.139 55.815 67.783 100.45 123.59 123.59l38.031-91.844c-31.508-13.071-56.685-38.27-69.75-69.781z" fill="#207ab8"/><path id="path3877" d="m831.34 301.19c-13.068 31.52-38.261 56.713-69.781 69.781l38.031 91.844c55.821-23.144 100.45-67.773 123.59-123.59z" fill="#2ea86f"/></g><g id="g3851"><path id="path3841" d="m712.22 23.531c-30.963 0-60.482 6.1767-87.406 17.344l38.062 91.844c15.199-6.3014 31.866-9.8124 49.344-9.8124 17.467 0 34.121 3.5181 49.312 9.8124l38.062-91.875c-26.914-11.157-56.426-17.312-87.375-17.312z" fill="#8ec244"/><path id="path3839" d="m501.22 164.47c-11.158 26.915-17.312 56.425-17.312 87.375s6.1544 60.46 17.312 87.375l91.875-38.031c-6.3014-15.199-9.8125-31.866-9.8125-49.344s3.5112-34.145 9.8125-49.344z" fill="#229ed4"/><path id="path3837" d="m923.19 164.47-91.844 38.031c6.3014 15.199 9.7812 31.866 9.7812 49.344s-3.4799 34.145-9.7812 49.344l91.844 38.031c11.16-26.917 17.344-56.422 17.344-87.375s-6.1837-60.458-17.344-87.375z" fill="#8ec244"/><path id="path3815" d="m662.84 370.97-38.031 91.844c26.924 11.167 56.443 17.344 87.406 17.344 30.953 0 60.458-6.1837 87.375-17.344l-38.031-91.844c-15.199 6.3014-31.866 9.7811-49.344 9.7811-17.488 0-34.169-3.4728-49.375-9.7811z" fill="#229ed4"/><path id="path3849" d="m799.59 40.844-38.062 91.875c31.533 13.065 56.74 38.252 69.812 69.781l91.844-38.031c-23.145-55.824-67.768-100.48-123.59-123.62z" fill="#b2ce3b"/><path id="path3847" d="m624.81 40.875c-55.811 23.148-100.45 67.778-123.59 123.59l91.875 38.031c13.068-31.52 38.261-56.713 69.781-69.781z" fill="#2ea86f"/><path id="path3845" d="m593.09 301.19-91.875 38.031c23.139 55.815 67.783 100.45 123.59 123.59l38.031-91.844c-31.508-13.071-56.685-38.27-69.75-69.781z" fill="#207ab8"/><path id="path3829" d="m831.34 301.19c-13.068 31.52-38.261 56.713-69.781 69.781l38.031 91.844c55.821-23.144 100.45-67.773 123.59-123.59z" fill="#2ea86f"/></g></g><g id="g4564" transform="translate(-85.01 312.5)" fill="#fff" fill-rule="nonzero"><path id="path23" class="fil5" d="m8900 13073c0 17-6 28-19 31s-25 5-37 5h-692c-14 0-26-7-35-20s-14-28-14-46v-1023c0-13-1-21-2-25-1-3-8-5-19-5-9 0-21 10-35 29l-260 360c-19 24-35 40-47 49-13 9-29 13-47 13h-204c-19 0-34-4-47-13s-29-25-47-49l-260-360c-14-20-26-29-35-29-12 0-18 2-19 5s-2 11-2 25v1023c0 17-5 33-14 46s-21 20-35 20h-692c-12 0-24-2-37-5s-19-14-19-31v-2278c0-31 12-57 37-80s53-34 86-34h460c54 0 95 9 125 26 29 17 56 45 79 82l481 722c14 24 28 36 42 36s28-12 42-36l481-722c23-37 50-64 79-82 29-17 71-26 125-26h460c33 0 61 11 86 34s37 50 37 80v2278zm421-2327c0-17 7-33 21-46s30-20 49-20h642c19 0 35 7 49 20s21 28 21 46v928c0 15 2 24 5 26 4 2 8 3 12 3 5 0 9-1 14-3s12-11 21-26l590-902c14-24 32-45 53-64 21-18 48-28 81-28h576c33 0 61 11 86 34s37 50 37 80v2249c0 17-8 33-23 46s-32 20-51 20h-642c-19 0-36-7-51-20s-23-28-23-46v-902c0-20-6-29-18-29h-4c-5 0-9 1-12 3-4 2-10 10-19 23l-579 899c-12 20-27 36-46 51-19 14-41 21-67 21h-600c-33 0-61-11-86-34s-37-50-37-80v-2249zm4813 778c0 170-35 310-105 420s-160 197-270 261-231 109-363 134-259 38-381 38c-35 0-67-1-97-2-29-1-68-3-118-5v673c0 17-7 33-21 46s-30 20-49 20h-674c-19 0-36-4-51-13s-23-22-23-39v-2092c0-50 4-92 12-124 8-33 22-59 40-80 19-21 44-36 75-47 32-11 71-20 118-26 44-7 98-12 160-16s128-8 198-11 141-6 212-8 138-3 198-3c129 0 260 12 395 38 135 25 257 69 367 132s200 150 270 260 105 251 105 423v23zm-822-23c0-74-27-128-82-160-55-33-127-49-216-49h-214v441h214c89 0 161-17 216-52s82-87 82-157z"/><path id="path25" class="fil5" d="m10033 10224h-3044c35-300 141-583 318-847 177-265 508-578 994-938 297-221 488-388 572-503 83-115 125-223 125-326 0-111-41-206-123-286-82-79-186-118-311-118-129 0-236 41-318 122-83 82-188 371-216 578l-981 18c18-364 130-754 236-915s256-283 449-369c194-86 461-128 803-128 357 0 634 41 833 122 198 81 354 206 467 374 114 169 171 358 171 567 0 222-65 434-195 637-130 202-367 425-711 667-204 141-341 240-410 297s-150 130-243 222h1585v826zm2177-683h-1846v-834l1846-2195h882v2243h459v785h-459v683h-882v-683zm0-785v-1152l-975 1152z"/></g></svg>
