<svg id="a" width="72mm" height="22.329mm" version="1.1" viewBox="0 0 72 22.329" xmlns="http://www.w3.org/2000/svg">
 <g id="b" transform="translate(53.009 -137.67)">
  <g id="c">
   <path id="d" d="m3.3457 141.41h15.645v14.726c0 1.5875-1.0171 2.7072-2.9898 2.7072h-1.8408c-1.4157 0-2.3213 0.49036-2.9891 1.15-0.6671-0.65969-1.5797-1.15-2.9887-1.15h-1.8408c-1.972 0-2.9961-1.1197-2.9961-2.7072z" fill="#bb0028"/>
   <path id="e" d="m7.0408 149.05h-0.41557c-0.13194-0.39511-0.27376-1.2464-0.31291-1.7226 0.54575-0.34396 1.3568-0.80046 2.6518-0.80046 1.724 0 2.2606 0.8315 2.2606 1.6517 0 1.7628-2.3703 3.0187-3.9204 3.8499l-0.68933 0.33479v0.0395l0.70944-0.0603h1.9244l0.79128-1.1345h0.41557c0 0.66852-0.15346 2.0461-0.26352 2.5322h-5.2994l0.16334-0.82127c1.6094-1.0936 4.4972-2.9365 4.4972-4.7103 0-0.49601-0.33549-0.87066-1.0439-0.87066-0.22296 0-0.45544 0.0205-0.69779 0.0808z" fill="#fff"/>
   <path id="f" d="m16.401 153.74h-3.6477l0.10125-0.50729c0.37606-0.11042 0.7306-0.19086 1.0739-0.24307l0.23389-0.99271h-3.283l0.11218-0.58738 5.3887-4.8824h0.70838l-1.0019 4.7308h1.3575l-0.15205 0.73907h-1.3684l-0.2219 0.99271c0.26282 0.0522 0.54716 0.13265 0.8001 0.24307zm-1.6722-4.3861 0.29492-0.69991h-0.0314l-0.59866 0.69991-1.8729 1.6401-0.51717 0.33584 0.82091-0.072h1.4898z" fill="#fff"/>
  </g>
  <g id="g">
   <path id="h" d="m-39.006 153.59h-4.8274l0.10971-0.59514c0.44274-0.20743 0.87171-0.34537 1.3282-0.42897l1.1903-5.5492 0.40111-1.6192h-0.11077l-0.81633 1.4813-4.3173 6.7112h-0.80257l-1.5081-6.6149-0.2219-1.6185h-0.13758l-0.35983 1.7579-1.162 5.3541c0.37394 0.0699 0.88512 0.27728 1.2446 0.52634l-0.11112 0.59514h-3.9014l0.10971-0.59514c0.31926-0.17956 0.95532-0.4699 1.4122-0.53975l1.62-7.5142c-0.41698-0.0688-0.88653-0.22014-1.1769-0.44168l0.12418-0.59549h4.4556l1.0382 5.2303 0.13723 1.3007h0.01482l0.66428-1.3279 3.4597-5.2031h4.2062l-0.10971 0.59549c-0.36124 0.20637-0.8315 0.37289-1.2457 0.44168l-1.6478 7.6394c0.41592 0.0691 0.80328 0.248 1.0527 0.41451z"/>
   <path id="i" d="m-33.877 146.5c1.9368 0 3.1672 0.94121 3.1672 2.8374 0 2.394-1.632 4.4143-4.5932 4.4143-1.8119 0-3.1969-0.92816-3.1969-2.9471 0-1.9794 1.4668-4.3046 4.6228-4.3046m-2.1731 4.8853c0 0.99659 0.4004 1.4806 1.0516 1.4806 1.0509 0 1.8411-1.7854 1.8411-3.9162 0-1.0795-0.3616-1.5498-0.94192-1.5498-1.4531 0-1.9509 2.2973-1.9509 3.9853"/>
   <path id="j" d="m-24.137 151.92c-0.56797 0.85725-1.8549 1.8408-3.3895 1.8408-1.6612 0-2.7541-0.95532-2.7541-2.588 0-2.5326 1.7022-4.6634 4.5251-4.6634 0.95391 0 1.7844 0.26388 2.0331 0.49847 0.0695 0.42863-0.45579 1.4531-1.0791 1.7159l-0.9264-1.3144c-0.96908 0-2.1029 1.2869-2.1029 3.3768 0 1.1208 0.53975 1.6312 1.3832 1.6312 0.78846 0 1.5074-0.52564 1.8965-0.88548z"/>
   <path id="k" d="m-19.746 150.49-0.48401-0.13723-0.62301 3.2374h-2.4208l1.1338-5.8261-1.0096-0.22049-0.0134-0.5401c0.58102-0.2346 2.0627-0.48437 3.3496-0.49883l0.31715 0.15311-0.59478 2.9468h0.51082c0.65158-0.49742 1.3991-1.3144 1.6341-1.7561 0.05574-0.26352 0-0.95567-0.04233-1.1772 0.34713-0.11112 0.9839-0.17992 1.5917-0.17992 0.6089 0 1.2044 0.0688 1.4397 0.17992-0.51223 1.2037-2.2553 2.394-2.9746 2.8914 0.30445 0.70591 1.3409 2.2154 2.0204 2.976h0.76094l0.01341 0.5401c-0.40217 0.28999-1.4249 0.66323-2.2144 0.66323-0.49812 0-0.88653-0.17922-1.2728-0.7747-0.5267-0.81492-0.82938-1.7149-1.1218-2.4772"/>
   <path id="l" d="m-9.8657 149.76c1.3974 0.0684 1.8553 0.80222 1.8553 1.3956 0 1.1903-1.4676 2.6028-4.1109 2.6028-1.8676 0-3.0441-1.0516-3.0441-2.6289 0-1.688 0.81703-2.9757 1.7565-3.6816 0.80328-0.60854 1.7434-0.94121 3.4332-0.94121 1.2174 0 2.1855 0.4699 2.1855 1.439 0 0.77541-0.87207 1.4958-2.0754 1.8143m-1.6055 0.5655c-0.27658 0.0427-0.80151 0.0702-1.1074 0.084-0.04128 0.15276-0.09596 0.47026-0.09596 1.0516 0 0.85761 0.3041 1.4122 0.94121 1.4122 0.56656 0 1.2308-0.63641 1.2308-1.4813 0-0.76129-0.30374-0.96873-0.96873-1.0664m-1.0382-0.63535c1.385 0.0547 2.3393-0.78952 2.3393-1.688 0-0.31927-0.12453-0.59549-0.4699-0.59549-0.71931 0-1.4259 0.62301-1.8694 2.2835"/>
   <path id="m" d="m-2.5866 151.67c-0.5267 1.0781-1.5501 2.0888-2.9619 2.0888-1.0788 0-1.8267-0.73413-1.8267-2.2288 0-2.9605 1.7995-5.0087 4.5519-5.0087 0.5267 0 0.90064 0.1524 1.3296 0.31856 0.58067-0.17992 1.2178-0.27764 2.1992-0.27764l-1.1345 5.9785h1.0523l0.012347 0.5401c-0.3997 0.29033-1.5346 0.66357-2.3234 0.66357-0.74718 0-1.0661-0.4004-1.0661-0.74718 0-0.3175 0.069145-0.73378 0.2226-1.3272zm0.17886-1.1215 0.51223-2.9471c-0.22119-0.11112-0.3877-0.19438-0.70697-0.19438-1.4937 0-2.323 1.9932-2.323 3.9024 0 0.89958 0.19332 1.203 0.62265 1.203 0.69109 0 1.4796-0.99518 1.8951-1.9639"/>
   <path id="n" d="m-49.285 141.09h-0.62301v-2.7746h-1.2266v-0.55139h3.0692v0.55139h-1.2196z"/>
   <path id="o" d="m-44.87 139.4v0.15099h-2.2694c6e-3 0.89852 0.31432 1.0823 0.99025 1.0823 0.23601 0 0.66922-0.0656 0.94474-0.15804l0.11148 0.51858c-0.33408 0.10513-0.82021 0.1838-1.1285 0.1838-0.98354 0-1.5804-0.40676-1.5804-1.7713 0-1.318 0.54363-1.7381 1.5219-1.7381 0.96414 0 1.4101 0.34043 1.4101 1.7318m-2.2634-0.35454h1.6207c-0.03281-0.70803-0.21661-0.85866-0.75424-0.85866-0.60396 0-0.81315 0.19685-0.86642 0.85866"/>
   <path id="p" d="m-43.222 138.31c-0.06597 1.3381-0.37394 2.8663-1.3053 2.8663l-0.09843-0.62971c0.44591 0 0.774-1.0827 0.83326-2.7884h2.1777v3.3263h-0.62371v-2.7746z"/>
   <path id="q" d="m-38.001 139.4v0.15099h-2.2691c0.0067 0.89852 0.31468 1.0823 0.99025 1.0823 0.23636 0 0.66957-0.0656 0.94439-0.15804l0.11218 0.51858c-0.33408 0.10513-0.82021 0.1838-1.1289 0.1838-0.9839 0-1.5801-0.40676-1.5801-1.7713 0-1.318 0.54398-1.7381 1.5215-1.7381 0.96414 0 1.4097 0.34043 1.4097 1.7318m-2.2624-0.35454h1.62c-0.03281-0.70803-0.2159-0.85866-0.75353-0.85866-0.60396 0-0.81421 0.19685-0.86642 0.85866"/>
   <path id="r" d="m-35.237 141.09c-0.65052-1.2464-1.1028-1.5025-1.5363-1.5872v1.5872h-0.6163v-3.326h0.6163v1.6006c0.27587-0.2614 0.81386-0.87206 1.4238-1.6006h0.75494c-0.70273 0.85937-1.1751 1.378-1.3716 1.5155 0.35348 0.13759 0.66887 0.31468 1.4626 1.8105z"/>
   <path id="s" d="m-31.505 140.92c-0.39264 0.16404-0.97649 0.26247-1.4228 0.26247-1.004 0-1.378-0.24906-1.378-1.1148 0-0.94509 0.55033-1.0957 1.312-1.0957 0.31538 0 0.57115 0.0332 0.88618 0.0981 0-0.69532-0.1778-0.84596-0.90523-0.84596-0.34114 0-0.71508 0.0462-0.9846 0.15064l-0.13088-0.53799c0.29527-0.0783 0.74859-0.16333 1.2132-0.16333 0.97825 0 1.4101 0.28786 1.4101 1.2919zm-0.60254-1.3903c-0.21026-0.0526-0.49212-0.0723-0.77364-0.0723-0.5648 0-0.7553 0.0586-0.7553 0.5768 0 0.55809 0.15064 0.64276 0.74859 0.64276 0.27552 0 0.55774-0.0519 0.78034-0.13053z"/>
   <path id="t" d="m-30.106 139.57v1.5152h-0.62336v-3.326h0.62336v1.2792h1.5476v-1.2792h0.62265v3.326h-0.62265v-1.5152z"/>
   <path id="u" d="m-24.47 140.92c-0.39405 0.16404-0.97755 0.26247-1.4235 0.26247-1.004 0-1.3772-0.24906-1.3772-1.1148 0-0.94509 0.55033-1.0957 1.3109-1.0957 0.31538 0 0.57044 0.0332 0.88582 0.0981 0-0.69532-0.17639-0.84596-0.90593-0.84596-0.33902 0-0.71508 0.0462-0.98249 0.15064l-0.13194-0.53799c0.29528-0.0783 0.74789-0.16333 1.2139-0.16333 0.97614 0 1.4104 0.28786 1.4104 1.2919zm-0.60396-1.3903c-0.2092-0.0526-0.49248-0.0723-0.77435-0.0723-0.56339 0-0.75424 0.0586-0.75424 0.5768 0 0.55809 0.1517 0.64276 0.74718 0.64276 0.27693 0 0.55809-0.0519 0.7814-0.13053z"/>
   <path id="v" d="m-22.653 138.31c-0.06526 1.3381-0.37359 2.8663-1.306 2.8663l-0.09772-0.62971c0.44591 0 0.77364-1.0827 0.83326-2.7884h2.177v3.3263h-0.6223v-2.7746z"/>
  </g>
 </g>
</svg>
