<svg id="c" width="35.408mm" height="41mm" version="1.1" viewBox="0 0 35.408 41" xmlns="http://www.w3.org/2000/svg">
 <defs id="d">
  <linearGradient id="b" x2="1" gradientTransform="matrix(-15.609 -15.609 -15.609 15.609 416.84 526.1)" gradientUnits="userSpaceOnUse">
   <stop id="e" stop-color="#b10028" offset="0"/>
   <stop id="f" stop-color="#b10028" offset=".28"/>
   <stop id="g" stop-color="#920129" offset="1"/>
  </linearGradient>
  <linearGradient id="a" x2="1" gradientTransform="matrix(15.915 -15.915 -15.915 -15.915 387.76 493.05)" gradientUnits="userSpaceOnUse">
   <stop id="h" stop-color="#e30032" offset="0"/>
   <stop id="i" stop-color="#e30032" offset=".28"/>
   <stop id="j" stop-color="#b10028" offset="1"/>
  </linearGradient>
 </defs>
 <g id="k" transform="translate(34.713 -128.33)">
  <g id="l" transform="matrix(.35278 0 0 -.35278 .67284 160.45)">
   <path id="m" d="m0 0c-1.583 0-2.628-0.198-3.618-0.566-0.792 0.34-1.385 0.594-2.374 0.594-5.201 0-8.565-4.607-8.565-10.487 0-2.827 1.272-4.268 3.222-4.268 2.601 0 4.608 2.431 5.569 4.833h0.113c-0.368-1.695-0.566-2.77-0.566-3.448 0-0.594 0.509-1.3 1.838-1.3 1.357 0 3.222 0.65 3.985 1.244v0.96h-1.978zm-4.296-2.007-1.046-5.596c-0.848-1.979-2.431-4.863-3.929-4.863-0.876 0-1.272 0.763-1.272 2.488 0 3.985 1.781 8.395 4.833 8.395 0.65 0 0.962-0.113 1.414-0.424m-11.815-0.763c0 1.922-1.696 2.854-3.844 2.854-2.714 0-4.381-0.565-5.766-1.695-1.951-1.498-3.534-4.438-3.534-8.113 0-2.94 1.923-5.003 5.286-5.003 4.608 0 7.321 2.911 7.321 5.371 0 1.187-0.82 2.656-3.363 2.798 2.345 0.764 3.9 2.12 3.9 3.788m-8.876-5.032c0.707 0.028 1.668 0.113 2.262 0.226 1.356-0.254 1.979-0.706 1.979-2.261 0-1.922-1.385-3.279-2.488-3.279-1.328 0-1.95 1.244-1.95 2.912 0 1.243 0.113 1.978 0.197 2.402m4.947 4.947c0-1.894-1.95-3.759-4.777-3.618 0.933 3.59 2.374 4.946 3.816 4.946 0.707 0 0.961-0.65 0.961-1.328m-9.553 2.6c-0.424 0.226-1.385 0.368-2.374 0.368-1.018 0-2.092-0.142-2.742-0.368 0.085-0.452 0.113-1.865 0.029-2.402-0.453-0.905-2.121-2.77-3.449-3.732h-0.905l1.244 6.163-0.594 0.31c-2.091 0-4.607-0.565-5.681-1.017v-0.961l1.894-0.368-2.374-12.126h3.957l1.3 6.756 0.904-0.283c0.566-1.583 1.159-3.364 2.205-5.173 0.65-1.215 1.357-1.555 2.262-1.555 1.328 0 2.995 0.622 3.759 1.244v0.961h-1.526c-1.216 1.498-3.138 4.806-3.646 6.219 1.356 0.989 4.776 3.562 5.737 5.964m-15.602-0.565c-0.424 0.481-1.78 0.904-3.477 0.904-5.116 0-8.48-4.466-8.48-9.78 0-3.166 1.894-5.031 4.862-5.031 2.799 0 5.032 1.809 6.021 3.42l-0.65 0.707c-0.735-0.65-2.063-1.725-3.562-1.725-1.583 0-2.6 1.046-2.6 3.336 0 4.579 2.317 7.462 4.353 7.462l1.725-2.458c1.044 0.48 1.893 2.345 1.808 3.165m-12.062-18.194 0.073 0.348h-5.279l-0.073-0.348c0.21-0.146 0.531-0.292 0.896-0.356-0.567-2.589-1.116-3.77-1.582-4.456l-1.043 0.265-0.321-0.347c-0.045-0.449 0.101-1.154 0.385-1.272 0.329 0 0.759 0.174 1.061 0.494 0.668 0.686 1.336 1.702 2.214 5.426h1.492l-1.098-5.198c-0.256-0.064-0.513-0.155-0.76-0.265l-0.064-0.347h2.818l0.064 0.347c-0.183 0.11-0.43 0.22-0.686 0.265l1.098 5.179c0.302 0.046 0.594 0.156 0.805 0.265m-1.476 13.586c0 3.647-2.036 5.512-5.427 5.512-5.767 0-8.452-5.002-8.452-9.044 0-3.902 2.346-5.767 5.54-5.767 5.258 0 8.339 4.325 8.339 9.299m-4.014 0.707c0-4.381-1.611-8.395-3.788-8.395-1.272 0-2.063 1.131-2.063 3.053 0 3.42 0.961 8.536 3.957 8.536 1.215 0 1.894-1.13 1.894-3.194m-8.45 9.046 0.227 1.074h-7.124l-6.953-11.449-1.329-2.77h-0.028l-0.226 2.714-1.781 11.505h-7.66l-0.226-1.074c0.565-0.424 1.385-0.679 2.148-0.82l-3.336-15.858c-0.876-0.141-1.95-0.622-2.6-0.961l-0.198-1.074h6.868l0.227 1.074c-0.65 0.424-1.526 0.792-2.205 0.933l2.431 11.589 0.735 3.59h0.255l0.339-3.307 2.515-13.879h1.272l8.452 13.992 1.554 3.025h0.227l-0.848-3.307-2.488-11.816c-0.876-0.197-1.639-0.452-2.459-0.82l-0.226-1.074h8.452l0.226 1.074c-0.481 0.311-1.187 0.65-1.95 0.792l3.391 16.027c0.792 0.141 1.64 0.396 2.318 0.82m-2.583-23.585h1.062l-1.107-5.198c-0.33-0.045-0.677-0.155-0.943-0.264l-0.073-0.348h3.147l0.074 0.348c-0.22 0.118-0.531 0.2-0.833 0.264l1.107 5.198h1.061l0.248-1.565h0.384c0.219 0.512 0.54 1.574 0.659 2.159h-5.828c-0.147-0.567-0.257-1.665-0.257-2.159h0.375zm3.769-5.462-0.064-0.348h4.95c0.119 0.539 0.193 1.317 0.193 1.756h-0.385l-0.732-1.161h-1.775l0.494 2.378h1.126l0.247-0.723h0.292c0.193 0.631 0.357 1.428 0.421 2.022h-0.283l-0.55-0.704h-1.125l0.476 2.241h1.711l0.192-1.079h0.384c0.22 0.512 0.412 1.125 0.531 1.674h-4.812l-0.074-0.348c0.192-0.118 0.449-0.219 0.695-0.265l-1.097-5.179c-0.293-0.045-0.568-0.155-0.815-0.264m11.876 0-0.065-0.348h4.95c0.119 0.539 0.193 1.317 0.193 1.756h-0.385l-0.732-1.161h-1.775l0.494 2.378h1.126l0.246-0.723h0.293c0.192 0.631 0.357 1.428 0.421 2.022h-0.283l-0.549-0.704h-1.126l0.476 2.241h1.711l0.192-1.079h0.384c0.22 0.512 0.412 1.125 0.531 1.674h-4.813l-0.072-0.348c0.191-0.118 0.447-0.219 0.695-0.265l-1.098-5.179c-0.293-0.045-0.567-0.155-0.814-0.264m5.507 0-0.064-0.348h2.772l0.064 0.348c-0.137 0.1-0.338 0.201-0.586 0.264l0.504 2.389h0.439c0.311-0.915 0.823-2.013 1.263-2.745l0.32-0.256h3.686l0.065 0.348c-0.211 0.136-0.476 0.228-0.733 0.264l0.87 1.456h2.022l0.219-1.456c-0.256-0.045-0.558-0.146-0.814-0.264l-0.064-0.348h2.818l0.073 0.348c-0.155 0.109-0.402 0.219-0.631 0.264l-1.034 5.902h-0.668l-3.623-5.902c-0.23-0.042-0.457-0.138-0.665-0.246l-0.304 0.21c-0.659 0.97-1.391 2.187-1.784 2.992l2.214 2.223c0.247 0.037 0.558 0.128 0.777 0.265l0.073 0.348h-2.488l-0.073-0.348c0.146-0.109 0.366-0.201 0.613-0.265l-1.931-2.196-0.54-0.128 0.494 2.324c0.266 0.064 0.531 0.165 0.705 0.265l0.073 0.348h-2.772l-0.074-0.348c0.156-0.118 0.412-0.228 0.696-0.265l-1.098-5.179c-0.265-0.045-0.549-0.128-0.814-0.264m8.911 2.314 1.015 1.729 0.348 0.806h0.018v-0.788l0.257-1.747zm4.08-2.314-0.064-0.348h2.772l0.064 0.348c-0.183 0.136-0.375 0.219-0.585 0.264l0.494 2.37h2.424l-0.494-2.37c-0.256-0.045-0.503-0.155-0.713-0.264l-0.064-0.348h2.772l0.064 0.348c-0.174 0.109-0.421 0.219-0.686 0.264l1.097 5.179c0.266 0.037 0.577 0.128 0.806 0.265l0.073 0.348h-2.772l-0.073-0.348c0.137-0.109 0.329-0.201 0.594-0.265l-0.476-2.214h-2.424l0.475 2.214c0.248 0.046 0.522 0.128 0.705 0.265l0.073 0.348h-2.772l-0.073-0.348c0.155-0.109 0.411-0.219 0.695-0.265l-1.098-5.179c-0.265-0.045-0.567-0.146-0.814-0.264m6.825 0-0.064-0.348h2.278l0.064 0.348c-0.21 0.136-0.476 0.228-0.732 0.264l0.87 1.456h2.021l0.22-1.456c-0.256-0.045-0.558-0.146-0.814-0.264l-0.065-0.348h2.819l0.072 0.348c-0.155 0.109-0.402 0.219-0.63 0.264l-1.035 5.902h-0.667l-3.624-5.902c-0.247-0.045-0.494-0.146-0.713-0.264m2.726 2.314 1.016 1.729 0.348 0.806h0.018v-0.788l0.256-1.747zm3.943-1.5c-0.045-0.449 0.101-1.154 0.384-1.272 0.33 0 0.76 0.174 1.062 0.494 0.668 0.686 1.336 1.702 2.214 5.426h1.491l-1.097-5.198c-0.257-0.064-0.513-0.155-0.76-0.265l-0.064-0.347h2.818l0.064 0.347c-0.183 0.11-0.43 0.22-0.686 0.265l1.098 5.179c0.302 0.046 0.594 0.156 0.805 0.265l0.073 0.348h-5.279l-0.073-0.348c0.21-0.146 0.531-0.292 0.896-0.356-0.567-2.589-1.116-3.77-1.583-4.456l-1.043 0.265z" fill="#fff"/>
  </g>
  <g id="n">
   <g id="o" transform="matrix(.35278 0 0 -.35278 -153.36 320.75)">
    <g id="p">
     <g id="q">
      <g id="r">
       <path id="s" d="m413.27 545.31-23.563-23.563 18.168-18.177c6.591-6.601 17.285-6.611 23.877-0.01 3.295 3.295 4.948 7.616 4.948 11.938 0 4.321-1.653 8.633-4.948 11.938l-17.874 17.874c-0.086 0.085-0.195 0.128-0.304 0.128s-0.218-0.043-0.304-0.128" fill="url(#b)"/>
      </g>
     </g>
    </g>
   </g>
   <g id="t" transform="matrix(.35278 0 0 -.35278 -153.36 320.75)">
    <g id="u">
     <g id="v">
      <g id="w">
       <path id="x" d="m365.87 544.59v-28.103c0-0.56-0.455-1.016-1.016-1.016h-28.103c-0.37 0-0.559-0.456-0.294-0.721l44.41-44.439c4.871-4.872 12.764-4.872 17.636 0l33.251 33.251c-6.592-6.601-17.286-6.591-23.877 0.01l-18.168 18.177-23.116 23.145c-0.086 0.086-0.191 0.124-0.295 0.124-0.218 0-0.428-0.17-0.428-0.428" fill="url(#a)"/>
      </g>
     </g>
    </g>
   </g>
  </g>
 </g>
</svg>
