<?xml version="1.0" encoding="UTF-8"?>
<svg id="svg46" width="454.5pt" height="362.92pt" version="1.1" viewBox="0 0 454.5 362.92" xmlns="http://www.w3.org/2000/svg" xmlns:cc="http://creativecommons.org/ns#" xmlns:dc="http://purl.org/dc/elements/1.1/" xmlns:rdf="http://www.w3.org/1999/02/22-rdf-syntax-ns#">
 <metadata id="metadata52">
  <rdf:RDF>
   <cc:Work rdf:about="">
    <dc:format>image/svg+xml</dc:format>
    <dc:type rdf:resource="http://purl.org/dc/dcmitype/StillImage"/>
    <dc:title/>
   </cc:Work>
  </rdf:RDF>
 </metadata>
 <g id="g1034" transform="matrix(.78091 0 0 .78091 -39.921 290.64)">
  <path id="path50" d="m91.204 40.531c-4.1806 0-7.9863 1.5775-10.883 4.1527-2.8968-2.5751-6.7029-4.1527-10.883-4.1527-9.055 0-16.395 7.3404-16.395 16.395v22.473h11.03v-22.473c0-2.9621 2.4032-5.3654 5.3654-5.3654 2.965 0 5.3683 2.4032 5.3683 5.3654v22.473h11.027l6e-3 -22.473c0-2.9621 2.4004-5.3654 5.3654-5.3654 2.9621 0 5.3654 2.4032 5.3654 5.3654v22.473h11.03v-22.473c0-9.055-7.3404-16.395-16.395-16.395" stroke-width=".96016"/>
  <path id="path21" d="m342.2 57.06c-0.02-8.8 8.07-16.52 16.79-16.5 8.47-0.13 16.51 6.81 17.11 15.39l0.09 23.26h-10.88l-0.17-22.21c-0.26-4.17-5.37-6.72-8.94-4.69-2.53 1.12-3.35 4.1-3.38 6.65l-0.09 20.25h-10.43z"/>
  <path id="path42" d="m135.4 68.402c-4.6717 0-8.4674-3.8054-8.4674-8.4717 0-4.6717 3.7959-8.4773 8.4674-8.4773 4.6746 0 8.4745 3.8054 8.4745 8.4773 0 4.6661-3.7997 8.4717-8.4745 8.4717m0-27.801c-10.658 0-19.326 8.6713-19.326 19.329 0 10.658 8.6678 19.323 19.326 19.323 10.661 0 19.329-8.6649 19.329-19.323 0-10.658-8.6678-19.329-19.329-19.329" stroke-width=".94379"/>
  <path id="path25" d="m163.53 40.63v11.051h11.681v27.659h10.651v-27.659h11.679v-11.051z"/>
  <path id="path42-1" d="m225.53 68.402c-4.6717 0-8.4674-3.8054-8.4674-8.4717 0-4.6717 3.7959-8.4773 8.4674-8.4773 4.6746 0 8.4745 3.8054 8.4745 8.4773 0 4.6661-3.7997 8.4717-8.4745 8.4717m0-27.801c-10.658 0-19.326 8.6713-19.326 19.329 0 10.658 8.6678 19.323 19.326 19.323 10.661 0 19.329-8.6649 19.329-19.323 0-10.658-8.6678-19.329-19.329-19.329" stroke-width=".94379"/>
  <path id="path70" d="m272.79 68.351c-4.6162 0-8.4016-3.75-8.4354-8.3564l-3e-3 -0.25677c0.0978-4.5673 3.8835-8.2739 8.4383-8.2739 4.6557 0 8.4453 3.7866 8.4453 8.4425s-3.7895 8.4453-8.4453 8.4453m0-27.705c-10.622 0-19.259 8.6414-19.259 19.262v32.651h10.824v-15.317l0.70725 0.31226c2.4181 1.0713 5.0225 1.613 7.7286 1.613 10.622 0 19.262-8.6407 19.262-19.262 0-10.618-8.6407-19.259-19.262-19.259" stroke-width=".94054"/>
  <path id="path58" d="m320.04 40.652c-10.644 0-19.299 8.6602-19.299 19.304 0 10.644 8.6551 19.298 19.299 19.298 5.2268 0 9.9715-2.0886 13.45-5.4712l-6.5903-6.9258c-0.36974-0.36974-0.57486-0.59716-0.88623-0.91699-1.531 1.5287-3.6427 2.4771-5.9736 2.4771-4.6656 0-8.4624-3.8008-8.4624-8.4609 0-4.6656 3.7966-8.4653 8.4624-8.4653 2.3628 0 4.4994 0.97494 6.0352 2.5415 0.27947-0.28351 0.43835-0.45886 0.75439-0.7749l6.7837-7.0122c-3.4893-3.4546-8.2851-5.5928-13.573-5.5928z" stroke-width=".94254"/>
  <path id="path42-1-0" d="m403.58 68.402c-4.6717 0-8.4674-3.8054-8.4674-8.4717 0-4.6717 3.7959-8.4773 8.4674-8.4773 4.6746 0 8.4745 3.8054 8.4745 8.4773 0 4.6661-3.7997 8.4717-8.4745 8.4717m0-27.801c-10.658 0-19.326 8.6713-19.326 19.329 0 10.658 8.6678 19.323 19.326 19.323 10.661 0 19.329-8.6649 19.329-19.323 0-10.658-8.6678-19.329-19.329-19.329" stroke-width=".94379"/>
  <path id="path70-7" d="m451.08 68.351c-4.6162 0-8.4016-3.75-8.4354-8.3564l-3e-3 -0.25677c0.0978-4.5673 3.8835-8.2739 8.4383-8.2739 4.6557 0 8.4453 3.7866 8.4453 8.4425s-3.7895 8.4453-8.4453 8.4453m0-27.705c-10.622 0-19.259 8.6414-19.259 19.262v32.651h10.824v-15.317l0.70725 0.31226c2.4181 1.0713 5.0225 1.613 7.7286 1.613 10.622 0 19.262-8.6407 19.262-19.262 0-10.618-8.6407-19.259-19.262-19.259" stroke-width=".94054"/>
  <path id="path25-0" d="m479.42 40.63v11.051h11.681v27.659h10.651v-27.659h11.679v-11.051z"/>
  <path id="path25-9" d="m555.83 40.63v11.051h11.681v27.659h10.651v-27.659h11.679v-11.051z"/>
  <path id="path41" d="m598.59 40.6h14.728c1.5796 0 2.1522 0.02348 3.7315 0.09025 4.16 0.22 8.33 2.7 9.75 6.76 1.54 3.84-0.39 7.92-3.02 10.76 5.49 2.19 8.87 8.64 6.83 14.33-1.1 3.01-4.04 5.08-7.06 5.88-2.2716 0.74325-6.8064 0.81975-10.232 0.81975h-14.728v-38.64m10.96 6.06 0.03 8.3002h2.5865c3.2276 0 5.1442-0.92658 5.2773-4.1345-0.13994-3.093-2.3758-4.1658-5.5188-4.1658h-2.375m-0.05 16.81-0.01 9.1298h3.8495c3.1139 0 5.8895-0.86983 6.2232-4.4224-0.1691-3.9258-2.9765-4.614-6.2232-4.7074-1.1987-0.03448-2.7643 0-3.8395 0z"/>
  <path id="path78" d="m530.35 68.162c-3.0714 0-5.5693 2.4978-5.5693 5.5682 0 3.0714 2.4978 5.5693 5.5693 5.5693 3.0705 0 5.5682-2.4978 5.5682-5.5693 0-3.0705-2.4978-5.5682-5.5682-5.5682" stroke-width=".96404"/>
 </g>
 <g id="g4702" transform="matrix(2.5405 0 0 2.5405 -.027279 -.016895)" stroke-width="1.3333">
  <path id="path22" d="m170.39 111.01c-54.024 3.1026-107.84 3.1026-161.86 0-3.7226-0.26799-6.9998-3.5319-7.2398-7.2292-1.7053-31.49-1.7066-62.721 0-94.218 0.23999-3.6972 3.5172-6.9612 7.2398-7.2292 54.029-3.1026 107.85-3.1026 161.86 0 3.7226 0.26799 6.9998 3.5319 7.2412 7.2292 1.7053 31.497 1.7053 62.728 0 94.218-0.24133 3.6972-3.5186 6.9612-7.2412 7.2292" fill="#fd0"/>
  <path id="path26" d="m101.18 101.85c-0.72132 0.18533-1.4346-0.096-1.832-0.68665 0 0-4.2199-6.1438-4.5586-6.6225-0.33732-0.47865-0.93598-0.76931-1.532-0.71465-2.5093 0.25999-5.0612 0.26399-7.6158 0.0013-0.59732-0.05466-1.1946 0.23466-1.532 0.71332-0.33866 0.47866-4.5586 6.6225-4.5586 6.6225-0.39732 0.59065-1.1106 0.87198-1.832 0.68665-1.9893-0.51065-4.0626-1.2026-6.1278-2.0586-2.0653-0.85598-4.0199-1.832-5.7892-2.8773-0.63998-0.37866-0.94664-1.0813-0.80931-1.7813 0 0 1.36-7.3292 1.46-7.9065 0.09866-0.57732-0.11866-1.204-0.57865-1.588-1.9586-1.5906-3.7652-3.3919-5.3865-5.3852-0.38266-0.45866-1.0093-0.67732-1.5866-0.57865-0.57732 0.1-7.9065 1.46-7.9065 1.46-0.69865 0.13733-1.4026-0.16933-1.7813-0.80931-1.0453-1.768-2.0213-3.7239-2.8773-5.7892-0.85598-2.0653-1.548-4.1386-2.0586-6.1278-0.18533-0.72132 0.096-1.4346 0.68665-1.832 0 0 6.1438-4.2199 6.6225-4.5586 0.47866-0.33732 0.76798-0.93464 0.71332-1.532-0.26266-2.5546-0.25866-5.1065 0.0013-7.6158 0.05466-0.59598-0.23599-1.1933-0.71465-1.532-0.47865-0.33866-6.6225-4.5586-6.6225-4.5586-0.59065-0.39732-0.87198-1.1106-0.68665-1.832 0.51065-1.9893 1.2026-4.0612 2.0586-6.1278 0.85598-2.0653 1.832-4.0199 2.8773-5.7879 0.37866-0.64132 1.0826-0.94664 1.7813-0.81065 0 0 7.3292 1.3613 7.9065 1.46 0.57732 0.09866 1.204-0.11866 1.5866-0.57865 1.6213-1.9933 3.4292-3.7932 5.3865-5.3852 0.45999-0.38266 0.67732-1.0106 0.57865-1.588-0.1-0.57732-1.46-7.9051-1.46-7.9051-0.13733-0.69998 0.16933-1.4026 0.80931-1.7826 1.768-1.0453 3.7239-2.0213 5.7892-2.8773 2.0653-0.85464 4.1386-1.5466 6.1278-2.0586 0.72132-0.18533 1.4346 0.096 1.832 0.68798 0 0 4.2199 6.1438 4.5586 6.6212 0.33732 0.47865 0.93464 0.76931 1.532 0.71465 2.5093-0.25866 5.0612-0.26399 7.6158-0.0013 0.59598 0.05466 1.1946-0.23466 1.532-0.71198 0.33866-0.47866 4.5586-6.6225 4.5586-6.6225 0.39732-0.59198 1.1106-0.87331 1.832-0.68798 1.9893 0.51199 4.0612 1.204 6.1278 2.0586 2.0653 0.85598 4.0199 1.832 5.7878 2.8773 0.64132 0.37999 0.94798 1.0826 0.81065 1.7826 0 0-1.3613 7.3278-1.46 7.9051-0.0987 0.57732 0.11867 1.2053 0.57866 1.588 1.9573 1.592 3.7652 3.3919 5.3865 5.3852 0.38266 0.45999 1.0093 0.67865 1.5866 0.57865 0.57732-0.09867 7.9051-1.46 7.9051-1.46 0.69998-0.13733 1.4026 0.16933 1.7826 0.81065 1.0453 1.768 2.0213 3.7226 2.8773 5.7879 0.85464 2.0666 1.5466 4.1386 2.0586 6.1278 0.18533 0.72132-0.096 1.4346-0.68798 1.832 0 0-6.1438 4.2199-6.6212 4.5586-0.47865 0.33866-0.76798 0.93598-0.71332 1.532 0.26266 2.5546 0.25733 5.1065-1e-3 7.6158-0.0547 0.59732 0.236 1.1946 0.71465 1.532 0.47732 0.33866 6.6212 4.5586 6.6212 4.5586 0.59198 0.39732 0.87331 1.1106 0.68798 1.832-0.51199 1.9893-1.204 4.0626-2.0586 6.1278-0.85598 2.0666-1.832 4.0212-2.8773 5.7892-0.37865 0.63998-1.0826 0.94664-1.7813 0.80931 0 0-7.3292-1.36-7.9065-1.46-0.57732-0.09866-1.204 0.12-1.5866 0.57865-1.6213 1.9933-3.4292 3.7946-5.3865 5.3852-0.45999 0.38399-0.67732 1.0106-0.57865 1.588 0.0987 0.57732 1.46 7.9065 1.46 7.9065 0.136 0.69998-0.16933 1.4026-0.81065 1.7813-1.768 1.0453-3.7226 2.0213-5.7878 2.8773-2.0666 0.85598-4.1386 1.548-6.1278 2.0586"/>
  <path id="path30" d="m89.447 29.374c-15.057 0-27.305 12.248-27.305 27.305s12.248 27.305 27.305 27.305 27.305-12.248 27.305-27.305-12.248-27.305-27.305-27.305" fill="#fff"/>
  <path id="path34" d="m108.7 55.347c1.2706 0.73332 1.2706 1.9333 0 2.6666l-28.293 16.334c-1.2706 0.73332-2.3093 0.13333-2.3093-1.3333v-32.669c0-1.4666 1.0386-2.0666 2.3093-1.3333z"/>
 </g>
</svg>
