<svg width="544.42" height="800" version="1.1" viewBox="0 0 544.42 800" xml:space="preserve" xmlns="http://www.w3.org/2000/svg">
<text x="240.61369" y="476.97141" display="none" font-family="Roboto-Bold" font-size="20px">МОЯ ПЛАНЕТА</text>
<text x="-61.4286" y="526.43359" display="none" font-family="RobotoCondensed-Bold" font-size="20px">МОЯ ПЛАНЕТА</text>
<path d="m120.4 651c-65.4 0-118.5 53-118.5 118.5 0 22.9 6.5 44.3 17.8 62.4l24.6 41 75.8 126.8 101-167.8c11.2-18.1 17.8-39.5 17.8-62.4-0.1-65.4-53.1-118.5-118.5-118.5zm95.8 179.2-25.8 42.9-70.3 116.8-95.6-159.7c-10.7-17.2-16.9-37.6-16.9-59.4 0-62.3 50.5-112.7 112.7-112.7s112.8 50.5 112.8 112.7c0 21.8-6.2 42.1-16.9 59.4z" display="none"/>
<g transform="matrix(2.2942 0 0 2.2942 -47.95 -35.79)"><path d="m42.8 270.9-6.1 16.7h-3l-6-16.6h-0.1l0.4 9.9v3.5l2.4 0.5v2.7h-9.3v-2.7l2.4-0.5v-16.2l-2.4-0.5v-2.7h8.3l5.7 16.6h0.1l5.8-16.6h8.3v2.7l-2.4 0.5v16.2l2.4 0.5v2.7h-9.3v-2.7l2.4-0.5v-3.5z"/><path d="m71.4 276.5c0 3.3-0.9 6-2.8 8.2s-4.3 3.2-7.4 3.2c-3 0-5.5-1.1-7.4-3.2-1.9-2.2-2.8-4.9-2.8-8.2v-0.3c0-3.3 0.9-6 2.8-8.2s4.3-3.2 7.3-3.2 5.5 1.1 7.4 3.2c1.9 2.2 2.8 4.9 2.8 8.2v0.3zm-4.5-0.4c0-2.3-0.5-4.2-1.5-5.7s-2.4-2.2-4.3-2.2-3.3 0.7-4.2 2.2c-0.9 1.4-1.4 3.3-1.4 5.7v0.4c0 2.4 0.5 4.3 1.4 5.7s2.4 2.2 4.2 2.2c1.9 0 3.3-0.7 4.3-2.2 1-1.4 1.4-3.4 1.4-5.7v-0.4z"/><path d="m93 265.1v2.7l-2.4 0.5v16.2l2.4 0.5v2.7h-6.9v-8.5h-3l-2.1 4.8c-0.6 1.2-1.2 2.1-2.1 2.7-0.8 0.6-1.8 1-2.9 1-0.5 0-1-0.1-1.5-0.2-0.4-0.1-0.9-0.3-1.2-0.6l0.6-3.4c0.2 0.1 0.4 0.1 0.5 0.1h0.5c0.4 0 0.8-0.1 1.2-0.4s0.7-0.7 1.1-1.4l1.8-3.7c-1.6-0.6-2.7-1.4-3.5-2.4s-1.2-2.3-1.2-3.9c0-2.2 0.7-3.9 2.2-5.1s3.5-1.8 6.1-1.8h10.4zm-14 7.1c0 1.2 0.3 2.1 1 2.7 0.6 0.6 1.6 1 2.8 1h3.3v-7.3h-3.3c-1.2 0-2.2 0.3-2.8 0.9-0.7 0.6-1 1.5-1 2.7zm4.6 15.4v-2.7l2.4-0.5v3.2z"/><path d="m102.4 284.9 2.4-0.5v-16.2l-2.4-0.5v-2.7h23v2.7l-2.4 0.5v16.2l2.4 0.5v2.7h-9.4v-2.7l2.4-0.5v-15.9h-9.2v15.9l2.4 0.5v2.7h-9.3v-2.7z"/><path d="m135.6 268.5-0.1 6.8c-0.1 4.4-0.7 7.5-1.9 9.4s-3.1 2.9-5.7 2.9h-1.1v-3.5h0.6c1.4-0.1 2.3-0.8 2.8-2s0.7-3.5 0.8-6.8l0.1-7.1-2.4-0.5v-2.7h20.1v2.7l-2.4 0.5v16.2l2.4 0.5v2.7h-9.3v-2.7l2.4-0.5v-15.9z"/><path d="m150.3 284.9 1.6-0.2 6.8-19.6h4.6l6.8 19.6 1.6 0.2v2.7h-7.7v-2.7l1.6-0.3-1-3.1h-7.3l-1 3.1 1.6 0.3v2.7h-7.7v-2.7zm8.1-6.7h5.2l-2.5-7.9h-0.1z"/><path d="m173.2 267.8v-2.7h9.3v2.7l-2.4 0.5v6.5h9.2v-6.5l-2.4-0.5v-2.7h9.3v2.7l-2.4 0.5v16.2l2.4 0.5v2.7h-9.3v-2.7l2.4-0.5v-6.2h-9.2v6.2l2.4 0.5v2.7h-9.3v-2.7l2.4-0.5v-16.2z"/><path d="m212.4 277.7h-7.6v6.4h7.3l0.2-2.7h3.4v6.2h-17.8v-2.7l2.4-0.5v-16.2l-2.4-0.5v-2.7h17.8v6.2h-3.5l-0.2-2.7h-7.2v5.7h7.6z"/><path d="m238.2 265.1v6h-3.5l-0.2-2.5h-4.1v15.9l2.4 0.5v2.7h-9.3v-2.7l2.4-0.5v-15.9h-4.1l-0.2 2.5h-3.4v-6z"/><path d="m236.6 284.9 1.6-0.2 6.8-19.6h4.6l6.8 19.6 1.6 0.2v2.7h-7.7v-2.7l1.6-0.3-1-3.1h-7.3l-1 3.1 1.6 0.3v2.7h-7.7v-2.7zm8.2-6.7h5.2l-2.5-7.9h-0.1z"/><path d="m222.3 126.8" stroke="#fff" stroke-miterlimit="10"/><path d="m221.5 97.7" stroke="#fff" stroke-miterlimit="10"/><path d="m38.9 196.5 24.6 41v0.1h5.9l-25.6-42.8c-10.7-17.2-16.9-37.6-16.9-59.4 0-62.3 50.5-112.7 112.7-112.7s112.7 50.5 112.7 112.7c0 21.8-6.2 42.1-16.9 59.4l-25.7 42.8h6l24.7-41.1c11.2-18.1 17.8-39.5 17.8-62.4 0-65.4-53-118.5-118.5-118.5s-118.6 53.1-118.6 118.5c0 22.9 6.5 44.3 17.8 62.4z"/><polygon points="139.3 354.5 115.2 314.1 109.3 314.1 139.4 364.3 169.6 314.1 163.6 314.1"/><polygon points="150.2 314.1 128.4 314.1 139.3 332.2"/><rect x="21.1" y="299.3" width="237" height="4.5"/><rect x="20.9" y="247.9" width="237" height="4.5"/><path d="m121.1 213.6s-2.9-19.9-2.9-27.1 2.9-21.9 2.9-24.9v-10.6s-0.8-1.6-1.5-1.6h-3.9s-1.3 1-1.3 2v9.2h-1.3v-12.1s-3.4-1.9-4-2.7c-0.7-0.9-1-3.1-0.4-3.8 0.5-0.8 1.1-2.5 0.4-3.1-0.7-0.5-6.8-10-8.4-13.7-0.9-1.9 0.7-3.6 1.2-4s2.2-1.3 2-2-0.2-2.3-0.2-2.6-3.2-1-1.4-4c1.7-3.1 0.5-4.5 0.5-4.5s-2.2-1.2-2.3-5c-0.2-3.8 0-5.2 0-5.2l-2.5-1.2v-1.2h2.9s4.7-12.9 10.8-15.5v-3.9h1.3v2.3h3.9s2.7-2.6 5.1 0c0 0 1.4-0.2 1.9-0.9 0.4-0.7 4.3-0.3 4.3-0.3s0.5-1.1 0.5-1.9-3.4-2.9-3.1-7.4 1-3.7 1.3-4 1.7-3.5 1.7-4.7 2.2-6.9 6.5-6.7c4.4 0.2 7.9 1.5 8.9 5.9 1.1 4.4 1.2 14.2-3.4 14.9 0 0-1.5 0.1-1.5 0.8s0.1 1.7 1.3 1.7 4.3 0.1 5 0.4c0.8 0.3 5.3 4.3 6.2 7s-0.1 10.6 0 11.3c0.1 0.8 0.8 2.5 1.2 2.8s0.4 7.6 0.4 7.6 2.9 5.6 3.6 9.3 1.5 13.1 1.6 14.1 2.3 5.7 2.5 6.7 3.2 11.2-3.4 13.3c0 0 0.5 2.4 0.8 3.1 0.2 0.7 2.6 17.5 2.8 19.6 0.2 2.2 1.4 20.5 1.6 21.6s4.9 19.9 9.4 21.8c7.1 1.1 9.4 1.2 17.6 2.7 0 0 30.9-17.7 41.8-53.5 0-0.1 9.5-23.4 1.7-53.4 0 0-19.5-78.1-100.4-73.9 0 0-78.3 3.8-90.6 84.7 0 0-4.4 35.4 10.7 58.7s29.5 34.4 35.1 36.4c0.5-0.2 26.9-2.5 33.1-2.5z"/><path d="m133.8 213.1-1.8-22.4s-1.5-4 0-7c1.5-2.9 3.7-35.1 3.7-35.1s1.4-1.9 2.3-0.5c0.9 1.3 1.7 6.1 5.5 9.7 0 0 0.8 1.2 0.9 1.9s0.3 6.7 3.9 10.7c0 0 1.5 1.6 1.5 3.5s1.2 13.1 2.1 16.2c0 0 1.1 8.5 1.9 11 0 0 1 2.5 0.5 3.5-0.4 1-1.9 4-0.4 5.9 0 0 1.2 2.3 1.1 2.7-7.4-0.5-12.5-0.4-21.2-0.1z"/><path d="m151.9 134.2s-0.7-3.2-2.9-7.2c-2.3-4-0.9-4.4 0.8-2.3 1.6 2.1 3.7 4.5 3.9 5.1 0.2 0.7 0.2 3.1 0 3.8-0.3 0.8-1.3 2.4-1.8 0.6z"/></g>
</svg>
