<?xml version="1.0" encoding="UTF-8"?>
<svg id="svg29" width="393.09pt" height="135.04pt" version="1.1" viewBox="0 0 393.09 135.04" xmlns="http://www.w3.org/2000/svg" xmlns:cc="http://creativecommons.org/ns#" xmlns:dc="http://purl.org/dc/elements/1.1/" xmlns:rdf="http://www.w3.org/1999/02/22-rdf-syntax-ns#">
 <metadata id="metadata35">
  <rdf:RDF>
   <cc:Work rdf:about="">
    <dc:format>image/svg+xml</dc:format>
    <dc:type rdf:resource="http://purl.org/dc/dcmitype/StillImage"/>
    <dc:title/>
   </cc:Work>
  </rdf:RDF>
 </metadata>
 <g id="#d30147ff" transform="translate(-53.958 -181.95)" fill="#d30147">
  <path id="path3" d="m235.99 188.9c8.21-7.42 20.81-8.83 30.85-4.57 7.67 3.06 13.39 9.98 16 17.69 5.44 16.8-3.36 36.99-19.55 44.19-10.69 4.71-22.98 3.68-33.88 0.23-7.23-2.11-14.01-6.22-18.62-12.25-4.23-5.36-6.56-12.61-4.85-19.36 1.37-5.86 7.02-10.31 12.98-10.59 2.91-0.3 5.71 0.66 8.41 1.6 1-6.37 3.79-12.59 8.66-16.94m0.52 18.72c-2.74 1.08-3.43 5.14-1.23 7.08 2.18 2.38 6.67 0.98 7.17-2.21 0.86-3.26-2.91-6.34-5.94-4.87"/>
  <path id="path5" d="m143.76 255.7c3.45-3.58 9.25-4.25 13.58-1.91 5.07 2.57 8.33 7.4 11.45 11.95 0.12 0.04 0.38 0.11 0.5 0.14 2.53-4.15 5.21-8.5 9.47-11.07 4.65-2.74 11.51-1.79 14.5 2.96 2.61 4.02 1.86 9.08 0.82 13.49-1.76 6.94-4.75 13.51-7.99 19.88-3.84 7.44-8.09 14.85-14.1 20.77-2.99 2.81-6.82 5.4-11.12 5.04-4.55-0.25-7.97-4.31-9.19-8.43-1.24-6.61 2.02-12.85 4.55-18.73-4.98-6.69-12.56-11.57-15.48-19.68-1.95-4.87-0.5-10.63 3.01-14.41z"/>
  <path id="path7" d="m294.21 258.07c4.95-4 11.55-4.91 17.68-5.54 9.28-0.67 19.35-1.02 27.67 3.83 3.65 2.03 6.48 6.6 4.56 10.74-2.38 5.25-8.61 6.72-13.8 7.37 0.18 7.35 1.33 15.17-1.72 22.11-3.38 7.71-16.36 6.78-19.2-0.91-2.62-6.51-1.58-13.7-1.7-20.53-4.65-0.1-9.88-0.16-13.68-3.21-4.24-3.38-4-10.53 0.19-13.86z"/>
  <path id="path9" d="m404.01 255.08c4.29-2.69 10.29-1.12 13.14 2.94 2.17 2.58 2.32 6.07 2.9 9.24 4.21-2.65 8.42-6.48 13.79-5.83 3.92 0.27 6.58 3.92 7.05 7.59 0.85 4.7-1.41 9.3-4.72 12.52 4.5 3.54 8.84 7.92 10.46 13.58 1.24 3.92-0.35 8.77-4.17 10.61-4.68 2.53-10.72 0.84-14.14-3.01-3-2.85-3.98-7.01-6.32-10.3-0.61 4.75 0.23 10.37-3.62 14-3.18 3.55-8.92 3.66-12.54 0.72-3.6-2.89-4.83-7.6-5.97-11.86-2.29-10.19-2.69-20.85-0.92-31.16 0.74-3.38 1.77-7.28 5.06-9.04z"/>
  <path id="path11" d="m255.37 257.53c4.39-1.08 9.79-0.31 12.9 3.24 2.21 2.69 1.58 6.39 1.4 9.59 7.01-1.02 14.71-0.94 20.83 3.07 6.48 4.04 9.47 12.27 8.28 19.65-1.04 8.6-7.02 16.48-15.12 19.62-12.52 4.62-28.88 0.09-35.14-12.29-4.83-9.38-5.55-20.63-2.88-30.76 1.43-5.06 4.33-10.54 9.73-12.12m14.01 28.78c-2.45 2.09-1.29 6.78 1.98 7.3 3.28 1.01 6.5-2.84 4.97-5.89-0.95-2.77-4.96-3.41-6.95-1.41z"/>
  <path id="path13" d="m60.21 266.25c4.6-6.02 13.11-8.48 20.23-5.93 7.13 2.48 12.12 8.72 15.52 15.21 3.06-5.71 6.54-11.96 12.83-14.59 8.69-3.42 20.15-1.22 25.46 6.93 5.68 8.64 5.96 19.83 3.3 29.57-1.12 3.46-2.54 7.29-5.83 9.25-3.95 2.08-8.96 1.66-12.78-0.52-4.56-2.79-5.91-8.4-6.95-13.28-2.06 6.76-6.49 13.48-13.52 15.72-4.64 1.8-10.02-0.4-12.75-4.38-2.75-4.02-3.99-8.84-5.05-13.52-1.3 5.22-1.92 11.07-5.67 15.25-3.83 4.43-11.32 4.59-15.43 0.45-4.85-4.73-5.66-12.02-5.61-18.45 0.52-7.5 1.17-15.72 6.25-21.71z"/>
  <path id="path15" d="m206.26 268.19c4.73-3.75 11.31-6.23 17.18-3.68 6.44 2.85 10.88 8.82 14 14.93 2.91 5.98 5.05 12.7 4.05 19.42-0.62 3.78-3.34 7.29-7.19 8.14-6.38 1.32-12.87-3.31-14.73-9.35-0.77-2.54-1.16-5.17-1.75-7.74-2.23 4-3.36 8.84-7.04 11.86-4.14 3.62-11.07 4.62-15.35 0.69-3.89-3.46-4.05-9.33-2.7-14.02 2.23-7.93 7.13-15.08 13.53-20.25z"/>
  <path id="path17" d="m346.94 270c4.69-4.74 13.4-3.27 16.99 2.06 3.15 5.83 1.87 12.66 2.36 18.99l1.36-0.32c1.64-5.86 0.73-12.54 4.32-17.78 3.04-3.99 8.83-4.33 13.35-3.17 4.97 1.39 7.45 6.65 8.18 11.38 0.96 6.92 1.1 14.13-0.8 20.91-1.13 4.15-3.87 8.19-8.13 9.55-6.41 1.89-14.6-0.05-17.48-6.65-5.46 2.71-11.91 5.37-17.98 3.04-6.35-2.61-8.76-9.9-9.23-16.22-0.3-7.7 1.32-16.23 7.06-21.79z"/>
 </g>
 <circle id="path4512" cx="214.2" cy="19.533" r="7.7062" fill="#d2d106" style="paint-order:normal"/>
 <circle id="path4512-6" cx="216.19" cy="37.137" r="7.452" fill="#3ab633" style="paint-order:normal"/>
 <circle id="path4512-1" cx="206" cy="51.471" r="7.2458" fill="#1c5591" style="paint-order:normal"/>
</svg>
