<svg width="800" height="606.82" version="1.1" viewBox="0 0 800 606.82" xml:space="preserve" xmlns="http://www.w3.org/2000/svg" xmlns:xlink="http://www.w3.org/1999/xlink"><defs><linearGradient id="a"><stop stop-color="#fff790" offset="0"/><stop stop-color="#face5e" offset=".35174"/><stop stop-color="#ed9328" offset="1"/></linearGradient><linearGradient id="c" x2="1" gradientTransform="matrix(0,-64.881,210.79,0,305.12,511.56)" gradientUnits="userSpaceOnUse"><stop stop-color="#ec9216" offset="0"/><stop stop-color="#e3640d" offset=".5"/><stop stop-color="#da251b" offset="1"/></linearGradient><linearGradient id="m" x1="526.68" x2="544.18" y1="-181.71" y2="-110.41" gradientTransform="matrix(1.0242 0 0 1.0242 48.779 330.78)" gradientUnits="userSpaceOnUse" xlink:href="#a"/><linearGradient id="l" x1="-8.4208" x2="126.74" y1="-236.62" y2="-91.548" gradientTransform="matrix(1.0242 0 0 1.0242 115.33 287.5)" gradientUnits="userSpaceOnUse" xlink:href="#a"/></defs><g transform="matrix(9.4015 0 0 -9.4015 -4062.8 4811.3)" fill="#f9f8f8" stroke="#f7e5d6" stroke-width="2.653"><g fill="#f9f8f8" stroke="#f7e5d6" stroke-width="2.653"><g fill="#f9f8f8" stroke="#f7e5d6" stroke-width="2.653"><path d="m466.93 448.54h0.029c0.2512 4e-3 2.0792 0.1077 1.9735 2.1623-0.1089 2.1166-2.3831 3.8574-5.1177 7.4418-3.0832 4.0461-6.692 10.182-7.3423 16.99-0.5026 5.269 3.3228 7.7012 6.4678 7.7012 0.1137 0 0.2268-3e-3 0.3376-9e-3 3.7633-0.2146 7.2559-3.3996 9.7977-8.7225 2.2482-4.7086 3.1326-9.339 5.4156-9.7157 0.1233-0.0204 0.2424-0.0301 0.3603-0.0301 2.0219 0 3.2607 2.939 5.6083 5.8065 2.4846 3.0336 4.3696 4.4651 7.1329 4.7392 0.1355 0.0139 0.2741 0.0202 0.4138 0.0202 2.4316 0 5.4309-2.0106 5.2614-5.535-0.2667-5.4989-3.3908-10.633-5.7779-14.151-1.4782-2.1781-2.5871-3.2913-2.8193-4.8251-0.142-0.9287 0.7197-1.7107 1.6685-1.7107 0.1397 0 0.2829 0.017 0.424 0.0533 10.294 2.6572 25.145 18.174 25.145 34.272 0 8.718-7.4073 14.315-13.367 14.315-15.826 0-21.102-14.508-21.102-14.508s-2.3525 24.726-22.423 26.379c-0.7001 0.0576-1.3946 0.0865-2.0789 0.0865-11.453 0-20.538-7.9637-20.098-20.691 0.811-23.484 22.702-39.678 30.09-40.069" fill="#f9f8f8" fill-rule="evenodd" stroke="#f7e5d6" stroke-width="2.653"/></g></g></g><g transform="matrix(9.6508 0 0 -9.6508 -4215.7 4915.2)"><path d="m466.93 448.54h0.029c0.2512 4e-3 2.0792 0.1077 1.9735 2.1623-0.1089 2.1166-2.3831 3.8574-5.1177 7.4418-3.0832 4.0461-6.692 10.182-7.3423 16.99-0.5026 5.269 3.3228 7.7012 6.4678 7.7012 0.1137 0 0.2268-3e-3 0.3376-9e-3 3.7633-0.2146 7.2559-3.3996 9.7977-8.7225 2.2482-4.7086 3.1326-9.339 5.4156-9.7157 0.1233-0.0204 0.2424-0.0301 0.3603-0.0301 2.0219 0 3.2607 2.939 5.6083 5.8065 2.4846 3.0336 4.3696 4.4651 7.1329 4.7392 0.1355 0.0139 0.2741 0.0202 0.4138 0.0202 2.4316 0 5.4309-2.0106 5.2614-5.535-0.2667-5.4989-3.3908-10.633-5.7779-14.151-1.4782-2.1781-2.5871-3.2913-2.8193-4.8251-0.142-0.9287 0.7197-1.7107 1.6685-1.7107 0.1397 0 0.2829 0.017 0.424 0.0533 10.294 2.6572 25.145 18.174 25.145 34.272 0 8.718-7.4073 14.315-13.367 14.315-15.826 0-21.102-14.508-21.102-14.508s-2.3525 24.726-22.423 26.379c-0.7001 0.0576-1.3946 0.0865-2.0789 0.0865-11.453 0-20.538-7.9637-20.098-20.691 0.811-23.484 22.702-39.678 30.09-40.069" fill="url(#c)" fill-rule="evenodd"/></g><path d="m185.03 21.16c-6.3768 0.05766-12.751 0.52377-19.06 1.3637-32.993 5.3724-64.796 20.035-89.323 42.928-19.833 18.834-33.659 43.614-40.157 70.127-4.9095 19.962-6.4271 40.775-4.5822 61.229 0.56373 15.112 3.9769 30.071 8.1074 44.599 2.2446 8.2738 5.6374 16.271 9.4707 23.95 3.5668 6.6437 7.5334 13.431 13.601 18.096 3.1363 2.4606 8.2514 3.5063 11.142 0.11264 5.5449-6.4694 9.0295-14.343 13.294-21.654 11.284-20.639 24.598-40.396 41.591-56.789 26.515-25.529 60.974-43.542 97.78-47.622 16.614-2.03 33.443-0.94344 49.923 1.589 11.356 1.7224 22.539 4.4392 33.834 6.5 6.2213 0.57414 12.945 2.6553 18.93-0.12315 3.9255-2.3991 4.6336-7.3 5.7713-11.36 1.5989-11.575-1.5181-23.151-5.5461-33.916-9.9214-24.74-26.985-46.137-47.207-63.29-1.9946-1.7386-7.1391-5.3999-10.325-7.5589-13.182-9.3654-27.657-16.991-43.126-21.763-4.561-0.85097-8.928-2.6037-13.51-3.3522-9.1495-1.9955-18.506-2.9789-27.876-3.0667-0.91091-0.0082-1.8216-0.0082-2.7324 0z" fill="url(#l)" stroke-width="1.0251"/><path d="m619.42 134.68c-4.672-0.0113-9.3428 0.22024-13.974 0.66337-19.592 1.9262-38.856 7.8372-55.791 17.939-17.427 10.338-32.309 24.847-43.3 41.835-3.1953 5.0791-6.3058 10.313-8.9057 15.764-1.9072 3.6822-4.6108 10.416-5.3899 12.709-2.3139 7.0979-4.2066 14.441-4.4941 21.922-0.07 1.849-0.13621 3.2724-0.0973 4.8027-0.0566 4.4449 2.4288 9.36 7.1982 10.005 6.1476 0.89137 10.786-4.0569 15.61-7.0179 19.171-13.935 41.997-21.895 65.119-26.312 24.119-4.5184 48.709-6.5663 73.237-5.9208 12.09 0.78891 24.221 1.8744 36.065 4.5895 10.007 1.4754 19.83 5.7788 30.072 4.0268 3.5764-1.05 5.2869-2.5964 6.379-6.0743 1.6393-5.336 0.42672-11.309-0.74581-16.692-4.1751-16.549-13.619-31.385-25.743-43.322-6.0618-5.8588-13.651-11.304-20.622-15.303-4.5194-2.5995-14.34-6.6305-18.566-7.9972-11.579-3.8972-23.82-5.5879-36.05-5.6173z" fill="url(#m)" stroke-width="1.0255"/></svg>
