<?xml version="1.0" encoding="UTF-8"?>
<!-- Generator: Adobe Illustrator 16.0.0, SVG Export Plug-In . SVG Version: 6.00 Build 0)  -->
<svg id="id" width="311.81" height="117.52" enable-background="new 0 0 841.89 595.28" version="1.1" viewBox="0 0 311.81 117.52" xml:space="preserve" xmlns="http://www.w3.org/2000/svg" xmlns:cc="http://creativecommons.org/ns#" xmlns:dc="http://purl.org/dc/elements/1.1/" xmlns:rdf="http://www.w3.org/1999/02/22-rdf-syntax-ns#"><metadata id="metadata55"><rdf:RDF><cc:Work rdf:about=""><dc:format>image/svg+xml</dc:format><dc:type rdf:resource="http://purl.org/dc/dcmitype/StillImage"/><dc:title/></cc:Work></rdf:RDF></metadata><g id="g48" transform="translate(-265.5 -262.59)"><path id="path2" d="m343.64 274.24c-0.876-5.252-5.18-11.642-19.656-11.642-5.225 0-10.52 1.66-11.896 8.094l-3.56 15.25-3.595-15.278c-1.482-6.405-6.624-8.067-11.807-8.067-14.776 0-18.859 6.391-19.734 11.643l-6.532 39.192c-1.134 6.794 3.571 13.199 10.504 14.309 6.935 1.105 14.724-2.11 15.815-10.291l1.47-8.659 3.229 12.235c1.198 4.867 5.38 6.878 10.692 6.878s9.329-1.702 10.701-6.906l3.086-12.207 1.492 8.659c1.396 7.85 7.627 10.457 13.75 10.457 0.681 0 1.374-0.054 2.066-0.166 6.933-1.109 11.637-7.515 10.504-14.309z" fill="#ee1e49"/><path id="path4" d="m562.13 262.6h-29.357c-9.699 0-14.005 6.149-14.005 13.735 0 7.587 4.515 13.737 11.583 13.737h3.17l-1.213 26.323c0 7.025 6.488 11.51 15.145 11.51 8.98 0 15.144-4.484 15.144-11.51l-1.213-26.323h3.169c7.068 0 11.583-6.15 11.583-13.737-1e-3 -7.586-4.005-13.735-14.006-13.735z" fill="#50b848"/><path id="path6" d="m396.48 262.59c-8.657 0-13.479 3.96-14.727 9.618l-3.527 16.906-3.53-16.906c-2.015-8.377-9.688-9.618-14.728-9.618-6.39 0-17.489 3.402-12.802 15.11l10.342 26.272c-3.773 1.238-5.675 4.997-5.675 10.701 0 2.058 0.534 4.141 1.604 6.065 1.14 2.045 5.769 8.719 17.546 8.719 16.548 0 22.124-11.263 24.114-15.85 0.13-0.318 14.183-35.908 14.183-35.908 4.688-11.707-6.43-15.109-12.8-15.109z" fill="#7e1226"/><path id="path8" d="m460.51 272.14c-2.972-5.086-9.677-9.538-22.499-9.538-11.689 0-20.79 5.361-25.444 15.187-3.75 7.916-4.419 21.724-4.451 22.13-4.361 0-9.61 4.769-9.61 12.489 0 12.573 8 15.499 15.047 15.499 8.263 0 15.504-4.241 17.771-13.186 1.262-4.977 4.39-26.679 6.687-26.679l0.416 0.038s-1.312 24.54-1.312 27.107c0 7.023 4.83 12.72 13.933 12.72 5.085 0 8.978-1.375 11.369-3.816 2.394-2.439 3.703-5.741 3.636-9.157-0.011-0.553-0.279-13.647-1.261-25.517-0.36-4.363-1.037-11.722-4.282-17.277z" fill="#febf33"/><path id="path10" d="m504.9 281.42c-1.547 0-6.208 0.709-6.208 0.709s1.111-8.274 0.018-12.955c-0.994-4.255-5.859-6.566-10.915-6.566-14.971 0-21.333 6.395-20.728 15.37 0.04 0.595 1.421 21.249 1.451 21.672 0.974 13.279 2.185 29.807 29.142 29.807 19.796 0 28.941-12.077 28.941-24.006 1e-3 -15.794-7.531-24.031-21.701-24.031zm-2.703 23.63c-0.225 1.345-1.604 2.226-3.082 1.968-1.477-0.258-2.493-1.56-2.27-2.903 0.226-1.343 1.604-2.224 3.082-1.965 1.475 0.255 2.493 1.555 2.27 2.9z" fill="#27aae1"/><g id="g20"><g id="g14"><path id="path12" d="m576.13 339.48h-309.45c-0.653 0-1.182-0.529-1.182-1.183 0-0.652 0.529-1.182 1.182-1.182h309.45c0.652 0 1.183 0.529 1.183 1.182-1e-3 0.654-0.531 1.183-1.183 1.183z" fill="#fbab18"/></g><g id="g18"><path id="path16" d="m576.13 380.11h-309.45c-0.653 0-1.182-0.53-1.182-1.184 0-0.652 0.529-1.182 1.182-1.182h309.45c0.652 0 1.183 0.529 1.183 1.182-1e-3 0.654-0.531 1.184-1.183 1.184z" fill="#fbab18"/></g></g><g id="g24"><path id="path22" d="m298.89 359.8h-32.206c-0.653 0-1.182-0.529-1.182-1.183s0.529-1.183 1.182-1.183h32.206c0.654 0 1.184 0.529 1.184 1.183s-0.53 1.183-1.184 1.183z" fill="#fbab18"/></g><polygon id="polygon26" points="329 355.89 323.4 359.95 325.54 366.54 319.94 362.47 314.34 366.54 316.48 359.95 310.88 355.89 317.8 355.89 319.94 349.3 322.08 355.89" fill="#fbab18"/><g id="g34"><g id="g30"><path id="path28" d="m543.93 359.8h32.206c0.653 0 1.183-0.529 1.183-1.183s-0.529-1.183-1.183-1.183h-32.206c-0.654 0-1.183 0.529-1.183 1.183s0.528 1.183 1.183 1.183z" fill="#fbab18"/></g><polygon id="polygon32" points="513.82 355.89 519.42 359.95 517.28 366.54 522.88 362.47 528.48 366.54 526.34 359.95 531.94 355.89 525.02 355.89 522.88 349.3 520.74 355.89" fill="#fbab18"/></g><g id="g46" fill="#fbab18"><path id="path36" d="m353.21 344.36c5.823 0 9.122 2.769 9.122 7.003 0 3.379-1.956 6.068-5.211 6.231v0.487c3.988-0.081 6.838 2.851 6.838 6.596 0 7.533-6.838 8.185-10.382 8.185h-12.053v-28.502zm-5.457 11.32h3.502c1.628 0 4.234-0.244 4.234-3.379 0-3.096-2.85-3.217-4.601-3.217h-3.135zm0 12.459h4.073c1.709 0 4.926 0 4.926-3.704 0-3.827-3.338-4.032-5.293-4.032h-3.706z"/><path id="path38" d="m389.29 372.87h-6.229v-28.502h6.229v10.831c0.408 0.041 0.814 0.041 1.221 0 2.24-0.284 2.811-1.954 3.869-4.153 2.85-5.823 4.518-7.369 7.043-7.369 0.773 0 1.874 0.121 2.647 0.408v4.64c-0.122 0-0.244-0.04-0.366-0.04-1.384 0-1.875 0.285-4.113 4.355-1.1 2.037-1.751 3.38-4.315 4.479 3.215 1.1 3.663 2.933 5.17 5.945 1.384 2.769 2.076 4.967 4.561 4.846v4.765c-0.57 0.243-1.302 0.487-2.322 0.487-2.565 0-4.438-1.14-7.124-7.003-2.933-6.474-3.217-6.515-5.091-6.637-0.406-0.041-0.772-0.041-1.18 0z"/><path id="path40" d="m428.45 347.82v-3.461h6.229v28.502h-6.229v-17.222l-10.546 13.558v3.664h-6.229v-28.502h6.229v17.184z"/><path id="path42" d="m449.95 372.87h-6.23v-28.502h6.23v10.668h10.383v-10.668h6.229v28.502h-6.229v-13.11h-10.383z"/><path id="path44" d="m487.61 373.56c-12.298 0-13.683-11.319-13.683-14.943 0-3.5 1.385-14.942 13.683-14.942 12.297 0 13.681 11.442 13.681 14.942 0 3.623-1.384 14.943-13.681 14.943zm0-25.163c-6.19 0-6.434 7.695-6.434 10.22s0.243 10.22 6.434 10.22c6.189 0 6.433-7.695 6.433-10.22s-0.243-10.22-6.433-10.22z"/></g></g></svg>
