<?xml version="1.0" encoding="UTF-8"?>
<!-- Generator: Adobe Illustrator 16.0.0, SVG Export Plug-In . SVG Version: 6.00 Build 0)  -->
<svg id="Layer_1" width="1024" height="788.89" enable-background="new 0 0 419.63 68.027" version="1.1" viewBox="0 0 1024 788.89" xml:space="preserve" xmlns="http://www.w3.org/2000/svg" xmlns:cc="http://creativecommons.org/ns#" xmlns:dc="http://purl.org/dc/elements/1.1/" xmlns:rdf="http://www.w3.org/1999/02/22-rdf-syntax-ns#"><metadata id="metadata9"><rdf:RDF><cc:Work rdf:about=""><dc:format>image/svg+xml</dc:format><dc:type rdf:resource="http://purl.org/dc/dcmitype/StillImage"/><dc:title/></cc:Work></rdf:RDF></metadata><path id="path2" d="m65.289 761.35c-5.1514 0-12.296-3.4481-21.233-10.239-6.7326-5.1221-12.989-11.064-15.552-13.804-20.581-22.038-36.167-60.374-24.512-88.015 6.8669-16.281 22.214-26.396 40.049-26.396 11.276 0 22.502 4.2485 31.609 11.962 10.205 8.6507 17.736 21.54 21.774 37.28 0.78576 3.0528 1.3665 4.6267 1.7472 5.4369 0.71255-0.84432 1.7057-2.306 2.5476-3.5457 4.5999-6.7644 13.158-19.358 30.74-22.799 2.5354-0.49537 5.1001-0.74916 7.6307-0.74916 7.4208 0 14.397 2.1181 20.183 6.1299 6.0542 4.1948 10.481 10.281 12.802 17.592 3.5969 11.354 4.351 29.715-12.499 52.734-14.029 19.166-35.374 34.037-44.376 34.037h-2e-3c-3.0357 0-4.2826-1.6179-4.7585-2.5793-0.98098-1.9961-1.3665-5.8468 6.6009-16.211 11.513-14.973 13.402-28.966 9.3144-35.049-1.7374-2.5891-4.5608-4.1362-7.5501-4.1362-1.7204 0-3.37 0.52221-4.7756 1.5056-6.9376 4.861-9.5438 8.3969-13.858 14.251-0.67595 0.91753-1.3885 1.8863-2.1621 2.9136-2.1987 2.9332-4.5511 4.4193-6.9986 4.4193-3.5018 0-6.5301-2.9234-9.2607-8.9289-0.75404-1.6642-1.491-3.4017-2.2743-5.2343-3.2651-7.6746-6.9645-16.367-12.794-21.308-3.5432-3.004-7.1036-4.595-10.303-4.595-3.1357 0-5.7761 1.53-7.6355 4.4193-3.1894 4.961-4.4046 15.081 1.7545 28.602 2.8063 6.1616 6.3471 12.506 10.237 18.351 2.6062 3.9093 4.8732 6.9352 6.696 9.3657 3.9483 5.2709 6.1226 8.17 4.0728 11.057-1.6398 2.3158-4.1362 3.5359-7.2134 3.5359zm157.21 15.779c6.3154-7.4428 11.547-16.65 15.691-27.626 4.0337-10.857 7.1817-21.235 9.4486-31.155 2.2597-9.9147 5.1367-18.026 6.9864-27.743 0 0 0.37092-1.6642 0.57102-5.2758 0.19766-3.5945-1.6179-7.0035-5.6077-7.0035-2.9161 0-5.1538 1.4959-6.7107 4.5023-1.5569 3.1016-3.104 7.86-4.6389 14.271-1.5325 6.413-4.1948 12.436-5.4393 15.532-1.2494 3.2089-3.1674 4.8073-5.7395 4.8073-2.4915 0-4.3656-1.347-5.6077-4.0459-1.2543-2.5769-2.7355-6.9645-4.4461-13.172-1.8131-6.208-3.9068-16.896-5.593-20.627-1.613-3.5628-3.797-5.1806-7.2744-6.0567-0.51245-0.12933-2.2963-0.39043-3.8239-0.42948-7.7453-0.2001-11.957 4.6731-13.114 16.394-0.29527 2.9966-0.2123 6.0567 0.59542 11.33 0.72476 4.7048 2.4964 10.644 4.4339 17.038 2.0644 6.8083 6.23 18.485 9.5584 24.366 3.3553 5.8786 6.6472 9.8269 9.7073 12.072 0.98342 0.72231-1.4593 3.0625-4.2948 4.9586-2.8014 1.8766-5.0952 2.2353-6.6936 2.3231-1.8961 0.10493-4.0508-0.34164-4.8902-0.77356-0.95414-0.39532-1.8595-1.1933-3.5701-2.4573-1.5398-1.1372-2.9551-2.1743-3.6921-2.5769-0.64179-0.327-1.4934-0.67107-2.8868-0.51246-1.4032 0.15862-2.5745 1.3763-3.453 3.5457-0.99319 2.267-1.5642 4.7536-1.7131 7.4574-0.31967 5.8761 1.1152 11.098 4.3095 15.669 3.2114 4.6414 8.4188 6.9596 15.618 6.9596 8.3945-0.30259 15.818-4.2241 22.27-11.769zm39.42-42.965c-3.4432-1.5788-8.0284 2.3182-8.0333 6.574-0.0195 10.439 10.425 19.483 17.048 19.483 3.1186 0 6.6594-1.7009 8.5555-4.9684 1.9058-3.1772 3.4578-7.9625 4.861-14.864 1.3543-6.6619 4.1411-19.768 5.1831-22.719 1.3397-3.8044 3.6726-9.2363 6.9523-9.3852 4.2412-0.19034 5.288 7.3574 5.7199 12.252 0.33431 3.7677 0.93461 14.317 2.1303 21.125 1.2689 7.2207 2.816 11.716 4.1948 14.888 1.2396 2.8746 2.7331 4.024 4.8927 4.2851 0.27819 0.0317 0.86141 0.0293 1.0713 0 5.4271-0.75648 9.2876-5.2978 11.752-12.875 2.4622-7.472 3.5725-18.329 3.4408-25.806l-0.0561-3.37c-0.10249-5.7517-0.62714-11.337-1.5788-16.76-0.96145-5.4247-2.3695-9.2534-5.0391-13.553-2.799-4.2997-7.2182-6.7936-13.46-7.7429-8.9533-1.3617-15.137 0.28306-18.282 2.3304-9.5584 6.2104-11.457 15.608-12.589 25.959-0.9761 8.9069-2.1572 19.603-4.4266 27.524-1.9668 6.8547-6.8498 0.13422-12.335-2.3792zm304.78-4.6072c1.1396 7.3281 2.5208 12.423 5.7687 20.925 1.186 3.0942 1.8107 4.6584 2.9063 6.2568 1.1372 1.6569 2.5476 3.5042 4.9098 3.5481 1.4251 0.0268 2.9673-0.51977 4.3485-1.8814 1.0225-1.0078 1.6984-3.5652 1.4642-5.7712-0.44657-4.1167-1.0274-9.1338-1.2323-11.679-0.96878-12.13 1.7033-18.248 5.083-19.034 0.17082-0.0634 0.86873-0.16106 1.1689-0.14154 1.2665 0.0879 1.9229 0.47341 2.8844 1.8863 1.1469 1.6813 2.0937 3.6921 4.3095 8.4945 2.1328 4.8 3.7531 7.8112 5.105 9.9416 1.225 1.9302 2.6208 4.0728 5.3344 4.1313 2.4451 0.0513 4.2729-2.4793 4.9513-3.636 2.9991-5.083 5.7053-15.932 7.7771-19.427 1.6423-2.7624 3.7336-4.6584 5.2661-5.3295 5.9932-2.6233 8.5946 0.75648 9.8903 5.3173 2.023 7.128 0.79796 12.533-1.142 18.617-0.8126 2.5427-3.8117 10.125-3.3383 13.546 0.67351 4.8488 4.1899 6.1714 7.9552 6.1275 5.1831-0.0561 9.3681-6.3642 11.498-10.901 2.0742-4.4193 4.3144-9.5462 5.5906-20.576 0.6125-5.2929 0.77112-8.9167 0.17082-14.561-0.25379-2.3451-1.1225-6.5887-3.187-11.833-1.8741-4.7536-4.5584-8.3603-8.9704-12.216-3.6945-3.2309-8.9216-4.9708-13.031-4.7146-4.3485 0.2733-8.3578 2.8209-11.867 6.6033-4.3436 4.678-6.3251 8.9484-7.8454 13.219-0.72476 1.5276-2.4573-4.3754-4.8366-8.0089-2.0791-3.1674-4.3388-6.125-7.4281-8.5043-3.0674-2.2914-6.1445-3.4139-10.1-3.6286-5.9127-0.32211-9.2998 0.86873-14.319 4.3339-4.4778 3.0918-7.4769 7.8015-9.1924 13.543-2.245 7.5355-1.1884 17.026 0.10737 25.352zm-135.17-3.5237c0.58322 7.4428 1.2177 13.509 2.3353 18.314 1.0859 4.8854 2.3695 8.8605 3.8434 11.935 1.4934 3.0576 3.2821 4.5779 5.3588 4.5779 2.8429 0 5.3295-3.7677 7.6136-11.008 2.2987-7.2963 3.3114-13.665 4.2314-22.465 0.85408-8.1431 0.38312-18.868 2.2133-18.109 1.4739 0.61007 3.7629 1.4666 8.0992 1.9742 4.9659 0.58322 11.352-0.21718 14.131-6.7302 4.0581-9.5145-2.7672-15.117-10.544-17.414-4.2802-1.264-8.2236-1.6764-13.673-1.5984-5.4027 0.0879-10.825 0.62714-15.84 1.6179-5.188 1.0249-10.92 3.0967-14.939 5.41-4.3095 2.4842-7.6062 5.5686-9.944 9.2632-1.4593 2.306-1.6911 6.2031 0.67107 7.167 3.9922 1.6276 9.4682-2.1499 14.114-1.3958 2.145 0.34896 1.7472 11.013 2.328 18.46zm403.65-26.064c-2.6208 8.3383-6.6302 21.269-8.0967 44.786-0.67107 10.696-4.1094 15.764-8.9411 15.727-4.5267-0.0293-7.4013-2.5915-8.6312-6.9596-2.145-9.1021-4.556-22.421-5.3856-27.07-0.82969-4.6462-5.3954-7.3793-12.772-7.494-2.5403-0.039-5.8444 0.45388-6.0201 2.6672-0.73939 9.5194 1.1347 19.768 2.6696 30.886 0.73452 5.3344-3.8507 7.3354-7.7014 7.2817-5.2953-0.0732-7.7063-5.6077-9.495-9.8196-3.1113-8.3188-5.615-15.459-8.0357-22.877-0.56614-1.8644-5.166 2.6477-6.9303 1.7936-2.6892-1.3055-1.5203-6.1494-0.0146-8.7873 1.1396-1.9961 3.5847-3.7092 3.2602-4.778-0.78576-2.616-2.4891-7.2451-3.3798-12.96-0.90045-5.7199-0.56126-10.747 0.78576-15.029 1.264-4.307 6.5618-8.2895 16.333-8.5433 9.5511-0.24647 18.692 4.8439 14.781 20.408-0.01 0.0415-0.22938 1.1908-0.51001 2.3304-0.14398 0.57834 14.192-1.7594 14.302-2.4402 0.53442-5.8493 1.5056-10.208 3.2748-13.966 1.8351-4.0801 8.1919-8.2627 17.443-6.7668 9.2461 1.5008 16.062 12.091 13.065 21.611zm-299.58 55.779c0.24403 0.5515 0.46365 1.042 0.70035 1.5276 1.0688 2.2035 2.289 3.3578 3.8873 3.3578 2.7672 0 4.7292-1.3909 5.82-4.9684 0.98098-3.2114 2.0083-8.2456 3.1211-15.088 1.6228-9.905 2.4817-18.468 2.6526-25.488 0.12934-5.0757-0.17081-9.905-0.86872-14.8-1.1494-8.0821-4.8463-11.777-11.135-12.67-2.6672-0.37823-8.636 0.26599-12.577 3.1601-1.8522 1.3592-2.8429 4.1069-2.4378 6.2422 0.44413 2.3231 2.3622 9.8488 2.777 12.365 0.38556 2.633 0.56858 4.8902 0.56858 6.2422 0 4.5511-0.93217 8.1944-2.7209 11.108-1.6618 2.8234-4.4217 4.2338-8.2798 4.2338h-0.29039c-7.3988-0.28551-11.596-5.3808-11.718-16.184-0.0268-2.4183 0.85165-5.6858 1.9205-9.8879 1.0176-3.9971 1.6642-7.5282 1.6642-10.066 0-4.556-1.7375-6.8278-5.2099-6.8278-5.1343 0-9.1997 4.6292-12.726 13.69-3.0137 7.7429-5.4052 16.738-5.4052 25.774 0 3.841 0.86873 8.3212 1.5252 10.564 1.7521 6.0006 4.3924 10.93 10.225 15.576 5.7151 4.6731 12.731 7.0426 19.437 7.2329 6.8083 0.19766 12.758-1.8326 18.141-5.454 0.58566-0.39044 0.69059-0.19034 0.92973 0.36115zm371.53-0.83212c0.34407 0.64178 0.65886 1.2177 1.0005 1.7765 1.43 2.594 3.0503 3.9434 4.8805 3.8898 2.5354-0.0781 5.1904-1.4593 5.981-5.7541 0.69059-3.7336 1.2762-9.0606 1.5764-17.487 0.42461-11.782 0.58566-29.6-2.3695-49.827-1.3861-9.4413-4.1509-14.507-14.627-14.507-9.9611 0-13.646 2.4842-15.1 4.4022-1.4764 2.0059-2.2841 4.4071-1.8814 7.4208 0.31967 2.367 2.2011 6.6472 2.96 8.8142 0.86629 2.4964 1.5105 4.8195 2.2402 7.7478 0.83945 3.3749 1.2762 5.3564 1.4446 6.9279 0.53441 5.0245 0.0756 9.6024-1.5764 12.982-1.5252 3.2699-4.4949 4.9049-8.8898 4.9049h-0.33431c-8.4799-0.33187-14.385-5.9371-15.496-18.753-0.24403-2.799 0.0854-6.6228 0.88093-11.459 0.71987-4.8341 0.91021-8.7239 0.57589-11.664-0.6003-5.2734-2.655-7.638-6.6204-7.638-5.8566 0-10.322 5.0171-12.941 15.593-2.7355 10.578-3.7116 18.526-2.8697 29.007 0.32455 4.0777 1.6447 10.5 2.5061 12.497 3.126 7.2109 7.3012 13.504 14.571 18.892 7.1402 5.4125 15.486 8.0113 22.997 8.148 7.516 0.13909 14.307-2.1255 19.976-6.3178 0.62471-0.46609 0.76868-0.23183 1.1152 0.40508zm113.78-24.146c2.3012 6.2788 4.6755 17.658 1.6911 23.343-6.125 11.652-28.673 8.0186-32.924-3.7433-0.74916-2.0864-6.3617 4.2412-10.51 6.1445-11.062 5.066-30.679 8.9826-41.069-2.9283-2.9161-3.3456-3.8898-9.9708 0.74916-11.745 2.9795-1.1396 5.9615-0.34163 8.5921 1.7106 1.6301 1.2665 3.4652 2.1816 4.3046 2.4524 13.236 4.2729 24.293-12.545 17.143-12.074-6.9205 0.45388-18.773-3.8263-26.752-13.055-11.947-13.834-11.962-31.25-2.899-43.683 11.452-15.715 42.57-20.391 61.992-4.3461 15.776 13.031 14.607 27.931 16.132 43.79 0.2708 2.7672 0.466 5.6809 1.4104 8.4384 0.1562 0.449 0.2392 0.71011 0.2806 0.84188 0.6247 1.6203 1.2446 3.2358 1.8595 4.8537zm-46.211-9.024c5.0245 0.11469 15.017-1.9327 15.337-3.6677 0.92973-4.9879 1.325-9.7293 1.2299-12.899-0.14397-5.1221-0.92485-9.8903-2.9112-12.106-1.4202-1.5764-5.066-2.5745-6.5862-2.8941-1.5203-0.31723-3.6311-0.45632-5.9054-0.33919-2.2694 0.11225-6.9547 1.0713-9.8806 2.4402-2.6648 1.2494-4.7146 3.7263-5.8468 5.8639-1.1347 2.1401-1.9254 4.695-2.2109 7.25-0.20499 1.8644 0.11957 4.5803 0.8492 6.6424 0.73452 2.0571 2.4842 4.9 4.9366 6.452 2.4427 1.5544 5.964 3.143 10.988 3.2577zm-616.45 34.022c-0.26355 0.58809-0.50025 1.1128-0.77112 1.6228-1.0932 2.3768-2.4744 3.5603-4.1338 3.5603-2.8746 0-4.5413-1.7545-5.6126-5.266-0.91509-3.4115-1.8595-8.7458-2.8307-15.996-1.5544-10.766-1.7667-13.783-2.35-27.026-0.23427-5.3686-0.14154-10.779 0.79796-15.83 1.6618-8.9386 5.2929-12.66 12.318-13.285 7.0279-0.62958 11.247 1.4349 13.124 3.3431 1.8717 1.9107 2.6208 3.5164 2.3036 6.7863-0.31479 3.2675-2.3134 10.193-3.1284 13.121-0.81261 2.9307-1.4959 6.3227-2.0498 11.528-0.55394 5.2026-1.2006 16.816 0.57834 19.91 1.6496 2.9942 5.5418 4.0703 9.5487 4.0703 0.10249 0 8.9337-0.79308 11.591-10.181 0.7028-2.4768 1.9376-7.0133-4.024-9.7268-6.5106-2.9649-14.468-0.14154-14.3-2.8282 0.1879-3.0528 3.5994-5.8395 6.8864-7.4672 3.8873-1.9229 14.134-4.9391 23.29-1.0176 6.0762 2.6013 11.054 6.9425 11.176 16.516 0.0439 3.3944-0.93217 8.0284-1.6667 10.066-2.3646 6.5643-5.4174 11.149-11.613 16.076-6.0689 4.9537-12.44 7.4281-19.107 7.4281h-0.33675c-7.0816 0-13.212-1.9449-18.707-5.7834-0.60274-0.41729-0.71743-0.20498-0.98342 0.37824zm316.68-58.42c-3.2406 6.6009-4.6804 15.513-4.7731 23.697-0.0708 7.0035 1.2494 12.994 2.5745 16.66 2.6257 7.2182 5.3344 12.201 9.9831 16.252 4.8707 4.2387 12.145 6.7766 18.336 7.0987 12.155 0.62959 17.545-1.9424 23.485-5.2636 1.8204-1.0176 2.3207-1.8009 2.9356-0.57102 1.9351 3.8361 2.9893 5.4003 5.7566 5.2099 2.9551-0.20742 4.5559-2.86 5.4759-6.3568 0.75892-3.3895 1.6106-7.5452 2.2255-14.764 0.9395-11.047 1.0713-18.431 0.66619-26.882-0.26111-5.3539-0.70523-10.657-1.7448-15.705-1.7741-8.5458-6.5716-12.65-13.431-13.055-2.5598-0.15373-5.2612-0.0512-8.2066 1.6764-0.4246 0.24647-0.86628 0.50758-1.2811 0.84189-0.58078 0.46121-0.81504 0.30015-2.9551-0.67839-2.6965-1.2348-6.3251-2.4573-15.354-2.8331-3.2919-0.13665-8.1822 0.63935-10.147 1.3251-7.2426 2.5232-10.461 7.0499-13.546 13.348zm30.552 1.0249c4.2729 0.30503 8.248 1.4837 9.8781 5.4759 1.3153 3.1967 3.6799 14.461 3.941 18.939 0.26111 4.5462-2.1865 7.7429-4.3754 9.4218-2.206 1.6813-5.2148 2.428-7.8356 2.3988-3.5359-0.0366-7.6721-1.2201-11.494-4.5828-3.0601-2.694-4.7341-8.0748-5.3832-13.102-0.01-0.12689-0.0244-0.25135-0.0293-0.3758-0.39776-4.9049 0.45388-8.3115 2.8746-11.945 2.1913-3.2797 7.699-6.5643 12.423-6.23z" fill="#f2662f" stroke-width="2.4402"/><path id="path2-3" d="m416.42 602.28c-22.097 0-52.736-14.808-91.056-43.972-28.876-21.994-55.715-47.511-66.701-59.284-88.273-94.63-155.11-259.26-105.12-377.96 29.447-69.921 95.258-113.35 171.76-113.35 48.359 0 96.503 18.239 135.56 51.368 43.766 37.152 76.062 92.501 93.386 160.09 3.369 13.111 5.8585 19.875 7.4941 23.341 3.0552-3.6262 7.3089-9.9064 10.925-15.22 19.731-29.045 56.429-83.129 131.83-97.902 10.868-2.1294 21.87-3.2147 32.723-3.2147 31.823 0 61.748 9.104 86.565 26.319 25.97 18.018 44.954 44.147 54.902 75.553 15.42 48.755 18.661 127.61-53.606 226.46-60.159 82.296-151.71 146.16-190.31 146.16h-0.0103c-13.018 0-18.373-6.954-20.409-11.079-4.2125-8.5742-5.8585-25.105 28.31-69.617 49.378-64.299 57.474-124.38 39.944-150.51-7.4478-11.11-19.556-17.766-32.373-17.766-7.3758 0-14.453 2.2529-20.481 6.4654-29.76 20.872-40.927 36.056-59.438 61.192-2.8958 3.9399-5.9613 8.101-9.2738 12.514-9.4281 12.596-19.514 18.969-30.018 18.969-15.014 0-28.001-12.55-39.718-38.345-3.2301-7.1443-6.3985-14.602-9.7521-22.482-14.001-32.944-29.863-70.286-54.871-91.498-15.199-12.905-30.465-19.736-44.183-19.736-13.45 0-24.771 6.5734-32.754 18.974-13.677 21.31-18.882 64.762 7.525 122.82 12.036 26.463 27.219 53.703 43.905 78.799 11.177 16.788 20.898 29.786 28.716 40.227 16.932 22.626 26.252 35.084 17.467 47.475-7.0363 9.963-17.74 15.204-30.938 15.204z" fill="#f26730" stroke="#fcaf1a" stroke-miterlimit="10" stroke-width="15.431"/></svg>
