<svg id="a" version="1.1" viewBox="0 0 800 274.67" xml:space="preserve" xmlns="http://www.w3.org/2000/svg">
<g id="b" transform="matrix(1.0274 0 0 1.0274 -492.23 -373.25)" clip-rule="evenodd" fill="#dc1351" fill-rule="evenodd">
	<g id="c">
		<path id="d" d="m531.2 578.5c2.7 7 4.1 14.1 6.9 20.1 14 30.4 47.2 15.3 55.8-16.1 2.5 11.3 5.1 20.3 12.3 25.7 7.3 5.3 20.2 6.8 28.2 1.1 18.3-13.1 25.3-92.2-30.3-92.6-24.3-0.2-33.5 16.2-41.9 32.3-24.6-49.5-72.8-37.4-80.6 2.8-8.7 44.7 6.7 63.2 22.2 63.8 20.5 0.7 25.4-21.2 27.4-37.1z"/>
		<path id="e" d="m1207.4 591.7c-0.1-7.4 0.2-14.6 4.9-2.9 15.2 37.8 58.2 21.1 41.7-8.8-4.7-8.5-11.2-14.4-18.1-19.9 21.9-17.4 6.1-61.2-31.6-26.9l-1-6.5c-1.3-17.8-20.8-28.2-34.3-15.9-12.9 11.8-11.4 84.2 6.1 99.4 14.1 12 32.9 1.4 32.3-18.5z"/>
		<path id="f" d="m912 567.4c4.8 0.2 8.5 4.2 8.3 9s-4.2 8.5-9 8.3-8.5-4.2-8.3-9 4.3-8.5 9-8.3zm-5.9-28.8c46-8 63.3 21.9 57.2 48.9-4.9 21.7-24.9 41.9-57.2 37.6-33.6-4.5-46.2-28-49.7-54-2.9-21.1 2.6-64.7 34.3-58.4 19.1 3.6 16.4 17.7 15.4 25.9z"/>
		<path id="g" d="m707.2 530.8c-3.9-6.1-20-34.5-42.2-26.7-5.9 2-10.3 6.7-12.9 12.3-12.8 26.9 21.4 47.3 29.6 60.2-3.8 9.3-10.3 21.4-9.7 33.9 0.7 12.9 26.3 49.4 66.4-26.8 6.8-13 25.8-49.5 18.2-67.2-4.2-9.8-16.6-15.4-28.6-9.8-8.5 3.9-16.6 14.9-20.8 24.1z"/>
		<path id="h" d="m1098.9 579.8c-4.8 0 4.5-34.2-11.3-43.6-51.8-30.8-64.7 113.6 11.8 70.1 3.7 7.1 7.4 12.1 17.8 14.1 33.4 6.3 37.2-25.4 35.3-53.6-1.2-18.1-8.5-33.3-30.2-30.5-11.7 1.6-15.9 9.2-18.1 19.2-0.8 4.1-1.4 8.6-1.9 13.2-0.2 2.4-0.4 11-3.4 11.1z"/>
		<path id="i" d="m948.6 528.8c0.6 15.2 16.3 19.4 33.1 18.6-0.1 24.3-3.5 52.4 23 53.1 26 0.8 22.7-32.1 21.7-54.5 41.1-2.3 41.9-46.1-24.7-43.7-16.4 0.6-54.1 2.9-53.1 26.5z"/>
		<path id="j" d="m803.8 576.1s-7 15.3-7.8 16.7c-14.3 23.4-49.3 16.6-42.6-16 4.7-22.9 28.2-52.2 51.1-52.2 24 0.1 43 33.8 46.1 56.6 5.6 40.1-37.8 37.1-44.4 7.7-0.6-2.4-2.4-12.8-2.4-12.8z"/>
	</g>
	<path id="k" d="m915.8 377.4c-26.8-24.5-85.2-19.4-93.3 33.4-2.6-1.1-10.1-5-20.3-3-4.1 0.8-9.6 2.3-16.3 9.5-8.4 9-6.9 23.4-6.5 25.5 3.6 23.2 23.1 39.7 43.1 46.6 38.5 13.2 76.4 9.5 98.9-22.1 9.3-13.1 13.2-26.5 14.1-38.9 1.4-20.5-6.2-38.6-19.7-51zm-71.7 53.1c-4.8 0-8.6-3.9-8.6-8.6s3.9-8.6 8.6-8.6 8.6 3.9 8.6 8.6-3.9 8.6-8.6 8.6z"/>
</g>
<g id="l" transform="matrix(1.0274 0 0 1.0274 -492.23 -373.25)" clip-rule="evenodd" fill-rule="evenodd">
	<circle id="m" cx="903.4" cy="401.9" r="15.1" fill="#d9ca2d"/>
	<circle id="n" cx="907.9" cy="436.9" r="15.1" fill="#47b649"/>
	<circle id="o" cx="887.1" cy="465.1" r="15.1" fill="#2a5e9c"/>
</g>
</svg>
