<svg version="1.1" viewBox="0 0 800 773.72" xml:space="preserve" xmlns="http://www.w3.org/2000/svg" xmlns:xlink="http://www.w3.org/1999/xlink"><defs><linearGradient id="a"><stop stop-color="#fff790" offset="0"/><stop stop-color="#face5e" offset=".35174"/><stop stop-color="#ed9328" offset="1"/></linearGradient><linearGradient id="b" x2="1" gradientTransform="matrix(0,-16.319,42.832,0,402.17,442.39)" gradientUnits="userSpaceOnUse"><stop stop-color="#ec9216" offset="0"/><stop stop-color="#e3640d" offset=".5"/><stop stop-color="#da251b" offset="1"/></linearGradient><linearGradient id="o" x2="1" gradientTransform="matrix(0,-16.319,40.087,0,413.24,442.39)" gradientUnits="userSpaceOnUse"><stop stop-color="#ec9216" offset="0"/><stop stop-color="#e3640d" offset=".5"/><stop stop-color="#da251b" offset="1"/></linearGradient><linearGradient id="n" x2="1" gradientTransform="matrix(0,-16.32,39.321,0,420.36,442.39)" gradientUnits="userSpaceOnUse"><stop stop-color="#ec9216" offset="0"/><stop stop-color="#e3640d" offset=".5"/><stop stop-color="#da251b" offset="1"/></linearGradient><linearGradient id="k" x2="1" gradientTransform="matrix(0,-16.319,38.248,0,428.4,442.39)" gradientUnits="userSpaceOnUse"><stop stop-color="#ec9216" offset="0"/><stop stop-color="#e3640d" offset=".5"/><stop stop-color="#da251b" offset="1"/></linearGradient><linearGradient id="j" x2="1" gradientTransform="matrix(0,-16.32,39.137,0,433.3,442.39)" gradientUnits="userSpaceOnUse"><stop stop-color="#ec9216" offset="0"/><stop stop-color="#e3640d" offset=".5"/><stop stop-color="#da251b" offset="1"/></linearGradient><linearGradient id="i" x2="1" gradientTransform="matrix(0,-16.319,39.078,0,479.97,442.39)" gradientUnits="userSpaceOnUse"><stop stop-color="#ec9216" offset="0"/><stop stop-color="#e3640d" offset=".5"/><stop stop-color="#da251b" offset="1"/></linearGradient><linearGradient id="h" x2="1" gradientTransform="matrix(0,-16.322,38.606,0,473.36,442.39)" gradientUnits="userSpaceOnUse"><stop stop-color="#ec9216" offset="0"/><stop stop-color="#e3640d" offset=".5"/><stop stop-color="#da251b" offset="1"/></linearGradient><linearGradient id="g" x2="1" gradientTransform="matrix(0,-16.322,38.609,0,440.85,442.39)" gradientUnits="userSpaceOnUse"><stop stop-color="#ec9216" offset="0"/><stop stop-color="#e3640d" offset=".5"/><stop stop-color="#da251b" offset="1"/></linearGradient><linearGradient id="f" x2="1" gradientTransform="matrix(0,-16.321,40.297,0,448.56,442.39)" gradientUnits="userSpaceOnUse"><stop stop-color="#ec9216" offset="0"/><stop stop-color="#e3640d" offset=".5"/><stop stop-color="#da251b" offset="1"/></linearGradient><linearGradient id="e" x2="1" gradientTransform="matrix(0,-16.321,39.348,0,457.42,442.39)" gradientUnits="userSpaceOnUse"><stop stop-color="#ec9216" offset="0"/><stop stop-color="#e3640d" offset=".5"/><stop stop-color="#da251b" offset="1"/></linearGradient><linearGradient id="d" x2="1" gradientTransform="matrix(0,-16.322,38.607,0,465.61,442.39)" gradientUnits="userSpaceOnUse"><stop stop-color="#ec9216" offset="0"/><stop stop-color="#e3640d" offset=".5"/><stop stop-color="#da251b" offset="1"/></linearGradient><linearGradient id="c" x2="1" gradientTransform="matrix(0,-64.881,210.79,0,305.12,511.56)" gradientUnits="userSpaceOnUse"><stop stop-color="#ec9216" offset="0"/><stop stop-color="#e3640d" offset=".5"/><stop stop-color="#da251b" offset="1"/></linearGradient><linearGradient id="m" x1="526.68" x2="544.18" y1="-181.71" y2="-110.41" gradientTransform="translate(66.508 323.04)" gradientUnits="userSpaceOnUse" xlink:href="#a"/><linearGradient id="l" x1="-8.4208" x2="126.74" y1="-236.62" y2="-91.548" gradientTransform="translate(131.49 280.78)" gradientUnits="userSpaceOnUse" xlink:href="#a"/></defs><g transform="matrix(9.1798 0 0 -9.1798 -3948.1 4697.9)" fill="#f9f8f8" stroke="#f7e5d6" stroke-width="2.653"><g fill="#f9f8f8" stroke="#f7e5d6" stroke-width="2.653"><g fill="#f9f8f8" stroke="#f7e5d6" stroke-width="2.653"><path d="m466.93 448.54h0.029c0.2512 4e-3 2.0792 0.1077 1.9735 2.1623-0.1089 2.1166-2.3831 3.8574-5.1177 7.4418-3.0832 4.0461-6.692 10.182-7.3423 16.99-0.5026 5.269 3.3228 7.7012 6.4678 7.7012 0.1137 0 0.2268-3e-3 0.3376-9e-3 3.7633-0.2146 7.2559-3.3996 9.7977-8.7225 2.2482-4.7086 3.1326-9.339 5.4156-9.7157 0.1233-0.0204 0.2424-0.0301 0.3603-0.0301 2.0219 0 3.2607 2.939 5.6083 5.8065 2.4846 3.0336 4.3696 4.4651 7.1329 4.7392 0.1355 0.0139 0.2741 0.0202 0.4138 0.0202 2.4316 0 5.4309-2.0106 5.2614-5.535-0.2667-5.4989-3.3908-10.633-5.7779-14.151-1.4782-2.1781-2.5871-3.2913-2.8193-4.8251-0.142-0.9287 0.7197-1.7107 1.6685-1.7107 0.1397 0 0.2829 0.017 0.424 0.0533 10.294 2.6572 25.145 18.174 25.145 34.272 0 8.718-7.4073 14.315-13.367 14.315-15.826 0-21.102-14.508-21.102-14.508s-2.3525 24.726-22.423 26.379c-0.7001 0.0576-1.3946 0.0865-2.0789 0.0865-11.453 0-20.538-7.9637-20.098-20.691 0.811-23.484 22.702-39.678 30.09-40.069" fill="#f9f8f8" fill-rule="evenodd" stroke="#f7e5d6" stroke-width="2.653"/></g></g></g><g transform="matrix(9.4232 0 0 -9.4232 -4097.4 4799.3)"><path d="m434.82 439.87v-8.1933c3e-3 -0.794 1.5971-0.892 1.6983 0.0519 0.0785 0.7344 0.0445 3.7942 0.0904 4.612 0.01 0.1811 0.1723 0.2103 0.231 0.0907 0.3731-0.7603 2.0248-4.307 2.2405-4.7929 0.2415-0.5428 0.995-0.6434 1.3065-0.0104 0.3572 0.7259 2.1804 4.723 2.2711 4.9039 0.0902 0.1806 0.2106 0.3013 0.2413-0.0604 0.03-0.3617 0.1304-4.2607 0.1808-4.8835 0.0661-0.8235 1.929-0.9043 1.929 0.1207v8.1491c0 0.4924-0.5641 0.8203-1.139 0.8203-0.4402 0-0.8869-0.1919-1.0913-0.6497-0.5017-1.1199-2.4823-5.3356-2.6031-5.5465-0.1204-0.2109-0.4118-0.2211-0.5323 0.0604-0.1358 0.316-2.2408 4.8733-2.6229 5.6369-0.3648 0.7302-2.1977 0.6843-2.2003-0.3092" fill="url(#b)" fill-rule="evenodd"/></g><g transform="matrix(9.4232 0 0 -9.4232 -4097.4 4799.3)"><path d="m446.24 437.12c0.3021-0.7568 2.3805-5.0142 2.5319-5.4079 0.1511-0.3935 0.1703-0.6177-0.0304-1.12-0.2111-0.5281-0.9748-2.4817-1.1846-3.007-0.0603-0.1502 0.017-0.2857 0.1659-0.3827h1.1599c0.1159 0.0757 0.2132 0.1812 0.2769 0.3223 0.4354 0.9618 3.5575 8.8671 3.8294 9.641 0.3328 0.9484-1.77 1.0292-2.073 0.1814-0.3022-0.8476-0.7869-2.7425-0.9689-3.1476-0.0907-0.2018-0.2835-0.2234-0.3764 0-0.152 0.3631-1.2362 2.8171-1.4848 3.314-0.148 0.297-0.544 0.4371-0.9357 0.4371-0.5672 0-1.1251-0.2934-0.9102-0.8306z" fill="url(#o)" fill-rule="evenodd"/></g><g transform="matrix(9.4232 0 0 -9.4232 -4097.4 4799.3)"><path d="m455.29 437.47-0.0222-0.0426c-0.3577-0.8132-1.8493-5.2046-2.0378-5.8079-0.2358-0.75 0.9831-0.8512 1.3881-0.0402 0.216 0.4326 0.8731 2.2368 1.5378 3.6683 0.5658-1.4318 1.3462-3.2301 1.5024-3.6607 0.2937-0.8118 2.0185-0.6704 1.8096 0.053-0.1423 0.4919-1.5015 5.0551-1.7487 5.8683-0.0918 0.3031-0.5813 0.4354-1.0984 0.4354-0.5995 0-1.2362-0.178-1.3308-0.4736z" fill="url(#n)" fill-rule="evenodd"/></g><g transform="matrix(9.4232 0 0 -9.4232 -4097.4 4799.3)"><path d="m461.04 437.3v-5.7578c0-0.4521 0.4972-0.4969 0.9343-0.4969s2.1098-0.1057 2.9543 0.1208c0.8439 0.2256 1.7178 0.9493 1.5979 2.2754-0.1049 1.1488-0.754 1.7033-2.3667 1.824-1.1299 0.084-1.1911 0.3617-1.281 1.1455-0.0904 0.7835-0.0666 0.692-0.106 0.9647-0.0535 0.3775-0.4603 0.5649-0.866 0.5649-0.4339 0-0.8668-0.2143-0.8668-0.6406zm1.944-4.8983c-0.0153 0.1806-0.03 1.9593-0.03 1.9593s0.1204-0.1806 0.392-0.2412c0.2716-0.0601 0.9343-0.1055 1.1755-0.5576 0.3331-0.625 0-1.3567-0.5578-1.3567h-0.6931c-0.2109 0-0.2716 0.0154-0.2866 0.1962z" fill="url(#k)" fill-rule="evenodd"/></g><g transform="matrix(9.4232 0 0 -9.4232 -4097.4 4799.3)"><path d="m471.86 437.88h-5.3353c-0.3209 0-0.5809-0.2602-0.5809-0.5805 0-0.3201 0.26-0.5803 0.5809-0.5803 0 0 1.4303-0.0859 1.5369-0.0958 0.1057-0.01 0.182-0.01 0.182-0.1831 0-1.5806 0.0527-4.3328 0.0641-4.7625 0.0201-0.7435 1.7889-0.8442 1.809 0.0802 0.0136 0.6438 0.0253 3.2287 0.0253 4.6823 0 0.1582 0.0683 0.1712 0.1808 0.1837 0.1125 0.0124 1.5372 0.0952 1.5372 0.0952 0.3206 0 0.5803 0.2602 0.5803 0.5803 0 0.3203-0.2597 0.5805-0.5803 0.5805" fill="url(#j)" fill-rule="evenodd"/></g><g transform="matrix(9.4232 0 0 -9.4232 -4097.4 4799.3)"><path d="m514.95 437.8c-0.8439-0.2262-1.622-0.8696-1.5429-2.1988 0.045-0.7489 0.4345-1.2963 1.2965-1.5772 0.078-0.04 0.1562-0.0927 0.0732-0.2086-0.1004-0.1409-1.1588-1.4443-1.5752-1.9446-0.595-0.716 1.2458-1.1798 1.8765-0.4975 0.6409 0.6937 1.3745 1.7102 1.5148 1.8993 0.1732 0.2335 0.6109 0.2262 0.6409-0.1282 0.0298-0.354 0.1001-1.2818 0.1387-1.5539 0.0989-0.6911 1.3782-0.7464 1.673-0.1797v6.2467c-0.1452 0.235-0.5284 0.2627-0.874 0.2627-0.2111 0-0.7735 0.025-1.3932 0.025-0.6633 0-1.3921-0.0284-1.8283-0.1452zm1.8501-2.9545c-0.2715 0.0607-1.0165 0.0675-1.2826 0.4742-0.3416 0.5222-0.2356 1.2325 0.3818 1.3867 0.2636 0.0655 0.7651 0.0536 0.976 0.0536 0.2111 0 0.2712-0.015 0.2865-0.1961 0.0148-0.1806 0.0301-1.9593 0.0301-1.9593s-0.1208 0.1808-0.3918 0.2409z" fill="url(#i)" fill-rule="evenodd"/></g><g transform="matrix(9.4232 0 0 -9.4232 -4097.4 4799.3)"><path d="m509.95 437.3c3e-3 -0.1304 9e-3 -0.3316 0.0172-0.5814 0-0.1805-0.0728-0.3367-0.1632-0.4725-0.0907-0.1358-1.4967-1.9242-1.6427-2.0954-0.0799-0.0932-0.1789-0.1533-0.1945-0.0173-0.0496 1.3958-0.104 2.8783-0.1122 3.1839-0.01 0.3713-0.453 0.5814-0.8926 0.5814-0.4346 3e-4 -0.8669-0.2047-0.8768-0.6613-0.0173-0.8419-0.0111-5.0312-0.0388-5.5897-0.0394-0.7988 2.0236-0.7988 2.0046 0-2e-3 0.0794 6e-4 0.1854-9e-3 0.3127-0.0141 0.178 0.0587 0.3518 0.1942 0.5326 0.1361 0.1806 1.4321 1.8842 1.5829 2.0498 0.1363 0.1499 0.2287 0.0827 0.2236 5e-3 0.0474-1.3122 0.0956-2.6314 0.1032-2.9169 0.0196-0.7389 1.7496-0.839 1.7688 0.0791 0.0176 0.8428 0.0119 5.0315 0.0391 5.5905 0.0196 0.3991-0.4864 0.5987-0.9949 0.5987s-1.0191-0.1996-1.0091-0.5987z" fill="url(#h)" fill-rule="evenodd"/></g><g transform="matrix(9.4232 0 0 -9.4232 -4097.4 4799.3)"><path d="m477.43 437.3c3e-3 -0.1304 0.01-0.3316 0.0173-0.5814 0-0.1805-0.0725-0.3367-0.163-0.4725-0.0904-0.1358-1.4967-1.9242-1.6429-2.0954-0.0791-0.0932-0.1786-0.1533-0.1936-0.0173-0.0502 1.3958-0.1046 2.8783-0.1126 3.1839-0.0102 0.3713-0.4529 0.5814-0.8929 0.5814-0.4345 3e-4 -0.8665-0.2047-0.8767-0.6613-0.0176-0.8419-0.0114-5.0312-0.0392-5.5897-0.0391-0.7988 2.0243-0.7988 2.005 0-2e-3 0.0794 1e-3 0.1854-9e-3 0.3127-0.0142 0.178 0.0587 0.3518 0.1948 0.5326 0.1355 0.1806 1.432 1.8842 1.5828 2.0498 0.1361 0.1499 0.2279 0.0827 0.2231 5e-3 0.0476-1.3122 0.0955-2.6314 0.1035-2.9169 0.0198-0.7389 1.7495-0.839 1.7688 0.0791 0.0179 0.8428 0.0119 5.0315 0.0397 5.5905 0.0195 0.3991-0.4867 0.5987-0.9953 0.5987-0.5085 0-1.0196-0.1996-1.0097-0.5987z" fill="url(#g)" fill-rule="evenodd"/></g><g transform="matrix(9.4232 0 0 -9.4232 -4097.4 4799.3)"><path d="m482.03 437.92c-0.4266-0.0306-0.8309-0.269-0.8107-0.678 0.0277-0.559 0.0215-4.6888 0.0391-5.5316 0.0195-0.9181 1.4417-0.818 1.4618-0.0791 6e-3 0.2016 0.0561 1.2754 0.1114 2.4302 0.0391 0.0558 0.1457 0.07 0.1948-0.0153 0.0606-0.1055 1.2058-2.2459 1.447-2.562 0.2413-0.3163 0.6628-0.2265 0.7688-0.0606 0.1057 0.1658 1.3116 2.4871 1.4465 2.6827 0.1004 0.1448 0.1763 0.0595 0.2086 5e-3 0.0562-1.1739 0.108-2.2757 0.1137-2.4804 0.0199-0.7389 1.749-0.839 1.7691 0.0791 0.0176 0.8428 0.0116 5.0315 0.0391 5.5905 0.0349 0.7073-1.6146 0.8277-1.9922 0.2101-0.026-0.0159-0.0476-0.036-0.0629-0.0587-0.1205-0.1806-1.326-2.8182-1.4768-3.1048-0.1511-0.286-0.3467-0.2109-0.4522 0-0.1054 0.2115-1.1301 2.1254-1.432 2.7734-0.2517 0.5423-0.6537 0.7467-1.1047 0.79-0.0581 8e-3 -0.1173 0.0125-0.1766 0.0125-0.0309 0-0.0615-1e-3 -0.0918-3e-3z" fill="url(#f)" fill-rule="evenodd"/></g><g transform="matrix(9.4232 0 0 -9.4232 -4097.4 4799.3)"><path d="m491.04 437.15c-0.3784-0.3603-0.3467-1.0554 0.2415-1.2056 0.5874-0.1508 0.9647 0.4218 1.3411 0.678 0.3773 0.2563 1.266 0.3413 1.5525-0.121 0.2716-0.4368 0.2413-1.0848-0.8438-1.2657-1.0092-0.1684-2.5773-0.6179-2.9243-1.5826-0.3464-0.9646-0.0748-1.8992 0.7388-2.3513 0.8141-0.4521 1.4921-0.4521 2.065-0.2713 0.5729 0.1806 1.1304 0.5726 1.2662 0.6783 0.1352 0.1055 0.241 0.1055 0.271-0.03 0.0301-0.1361 0.1956-0.4521 0.6633-0.5882 0.4669-0.1355 0.9944-0.0601 1.1756 0.2563 0.1808 0.3166-0.0834 0.549-0.2112 0.9045-0.1355 0.3767-0.0754 3.346-0.0754 3.8886 0 0.5428-0.5151 1.6996-2.5166 1.8085-0.1137 6e-3 -0.2234 9e-3 -0.3294 9e-3 -1.4341 0-2.1337-0.5414-2.4143-0.8078zm1.4324-4.627c-0.4524 0.5422 0.0601 1.1755 0.7083 1.4618 0.6764 0.2985 1.2206 0.4068 1.2206 0.4068s0.0978-0.7742 0-1.2357c-0.1128-0.5332-0.763-0.8762-1.3045-0.8762h-8e-4c-0.254 0-0.4842 0.0757-0.6236 0.2433z" fill="url(#e)" fill-rule="evenodd"/></g><g transform="matrix(9.4232 0 0 -9.4232 -4097.4 4799.3)"><path d="m502.19 437.3c4e-3 -0.1304 0.01-0.3316 0.0176-0.5814 0.01-0.2891 0.0218-0.6437 0.0351-1.0301-0.03-0.1539-0.1326-0.2868-0.2908-0.2868h-1.4394c-0.2501 0-0.3357 0.1751-0.3623 0.3316-0.0281 0.7742-0.0502 1.3978-0.055 1.584-0.01 0.3713-0.4521 0.5814-0.8924 0.5814-0.4348 3e-4 -0.8665-0.2047-0.8767-0.6613-0.0176-0.8419-0.0116-5.0312-0.0394-5.5897-0.0391-0.7988 2.0245-0.7988 2.0049 0-2e-3 0.0794-5e-3 0.1854-9e-3 0.3127-0.0136 0.4482-0.0386 1.1631-0.0658 1.9267 0 0 0.0164 0.3767 0.2733 0.3691 0.1726-5e-3 1.0621 0 1.4093 0 0.3462 0 0.4065-0.3991 0.4065-0.3991l3e-3 5e-3c0.038-1.0576 0.072-1.9959 0.0782-2.2312 0.0196-0.7389 1.7493-0.839 1.7688 0.0791 0.0182 0.8428 0.0119 5.0315 0.0394 5.5905 0.0199 0.3991-0.4864 0.5987-0.9952 0.5987-0.5083 0-1.0193-0.1996-1.0097-0.5987z" fill="url(#d)" fill-rule="evenodd"/></g><g transform="matrix(9.4232 0 0 -9.4232 -4097.4 4799.3)"><path d="m466.93 448.54h0.029c0.2512 4e-3 2.0792 0.1077 1.9735 2.1623-0.1089 2.1166-2.3831 3.8574-5.1177 7.4418-3.0832 4.0461-6.692 10.182-7.3423 16.99-0.5026 5.269 3.3228 7.7012 6.4678 7.7012 0.1137 0 0.2268-3e-3 0.3376-9e-3 3.7633-0.2146 7.2559-3.3996 9.7977-8.7225 2.2482-4.7086 3.1326-9.339 5.4156-9.7157 0.1233-0.0204 0.2424-0.0301 0.3603-0.0301 2.0219 0 3.2607 2.939 5.6083 5.8065 2.4846 3.0336 4.3696 4.4651 7.1329 4.7392 0.1355 0.0139 0.2741 0.0202 0.4138 0.0202 2.4316 0 5.4309-2.0106 5.2614-5.535-0.2667-5.4989-3.3908-10.633-5.7779-14.151-1.4782-2.1781-2.5871-3.2913-2.8193-4.8251-0.142-0.9287 0.7197-1.7107 1.6685-1.7107 0.1397 0 0.2829 0.017 0.424 0.0533 10.294 2.6572 25.145 18.174 25.145 34.272 0 8.718-7.4073 14.315-13.367 14.315-15.826 0-21.102-14.508-21.102-14.508s-2.3525 24.726-22.423 26.379c-0.7001 0.0576-1.3946 0.0865-2.0789 0.0865-11.453 0-20.538-7.9637-20.098-20.691 0.811-23.484 22.702-39.678 30.09-40.069" fill="url(#c)" fill-rule="evenodd"/></g><path d="m199.55 20.726c-6.2264 0.0563-12.45 0.51142-18.61 1.3315-32.215 5.2457-63.268 19.562-87.216 41.916-19.365 18.39-32.865 42.585-39.21 68.473-4.7937 19.491-6.2755 39.813-4.4741 59.785 0.55043 14.756 3.8831 29.362 7.9162 43.547 2.1917 8.0787 5.5044 15.887 9.2473 23.385 3.4827 6.487 7.3557 13.114 13.28 17.669 3.0623 2.4026 8.0568 3.4236 10.879 0.10998 5.4141-6.3168 8.8165-14.005 12.98-21.143 11.018-20.152 24.018-39.443 40.61-55.45 25.89-24.927 59.536-42.515 95.474-46.499 16.222-1.9821 32.654-0.92119 48.746 1.5515 11.088 1.6818 22.007 4.3345 33.036 6.3467 6.0746 0.5606 12.64 2.5927 18.484-0.12025 3.8329-2.3425 4.5243-7.1278 5.6352-11.092 1.5612-11.302-1.4823-22.605-5.4153-33.116-9.6874-24.156-26.349-45.049-46.094-61.797-1.9476-1.6976-6.9707-5.2725-10.081-7.3806-12.871-9.1445-27.005-16.59-42.109-21.25-4.4534-0.8309-8.7174-2.5423-13.191-3.2731-8.9337-1.9484-18.07-2.9086-27.219-2.9944-0.88943-8e-3 -1.7786-8e-3 -2.668 0z" fill="url(#l)" stroke-width="1.0009"/><path d="m623.69 131.57c-4.5618-0.011-9.1224 0.21505-13.644 0.64773-19.13 1.8808-37.94 7.6524-54.475 17.516-17.016 10.094-31.547 24.261-42.279 40.848-3.1199 4.9593-6.1571 10.07-8.6957 15.392-1.8622 3.5954-4.502 10.17-5.2628 12.409-2.2593 6.9305-4.1074 14.1-4.3881 21.405-0.0684 1.8054-0.133 3.1952-0.095 4.6894-0.0553 4.3401 2.3715 9.1392 7.0284 9.7694 6.0026 0.87035 10.532-3.9612 15.242-6.8524 18.719-13.606 41.006-21.379 63.583-25.691 23.55-4.4118 47.56-6.4114 71.51-5.7812 11.805 0.77031 23.65 1.8302 35.214 4.4813 9.7705 1.4406 19.362 5.6425 29.363 3.9318 3.492-1.0252 5.1622-2.5352 6.2286-5.931 1.6006-5.2102 0.41665-11.042-0.72822-16.298-4.0766-16.159-13.298-30.645-25.136-42.3-5.9188-5.7206-13.329-11.037-20.136-14.942-4.4128-2.5382-14.002-6.4741-18.128-7.8086-11.306-3.8053-23.258-5.4561-35.2-5.4848z" fill="url(#m)" stroke-width="1.0013"/></svg>
