<svg width="600pt" height="258.65pt" version="1.1" viewBox="0 0 800 344.87" xmlns="http://www.w3.org/2000/svg">
 <g transform="matrix(1.2916 0 0 1.2916 -4.6682 482.43)" stroke-width="1.0916">
  <path class="st4" d="m380.6-309.47v-33.262l-15.709 23.383-15.709-23.383v33.251h-17.914v-63.118h19.573l14.06 29.692 14.148-29.692h19.486v63.129z"/>
  <path class="st4" d="m437.37-324.32c2.0741 0 3.8644-0.44757 5.3272-1.3318 1.4737-0.88422 2.6636-2.0632 3.5806-3.5151 0.91697-1.4519 1.5938-3.1221 2.0195-5.0215 0.42574-1.8994 0.64406-3.8862 0.64406-5.9603v-32.443h17.914v32.454c0 4.3884-0.57856 8.4929-1.7466 12.314s-2.9692 7.1284-5.4254 9.912c-2.4562 2.7837-5.5346 4.9778-9.2352 6.5826-3.7116 1.6047-8.0672 2.4016-13.089 2.4016-5.2071 0-9.661-0.84056-13.373-2.5326-3.7116-1.692-6.7572-3.9517-9.1479-6.8009s-4.1264-6.1459-5.2398-9.912c-1.1026-3.7661-1.6593-7.7506-1.6593-11.953v-32.465h17.914v32.454c0 2.0741 0.21833 4.0718 0.64407 6.004 0.42573 1.9322 1.1026 3.6133 2.0195 5.0652s2.0959 2.609 3.5369 3.4714c1.4737 0.85147 3.2422 1.2772 5.3163 1.2772z"/>
  <path class="st4" d="m516.92-351.98c-1.8449-1.0698-3.7334-2.0195-5.6874-2.8492-1.6593-0.70956-3.5041-1.3755-5.5673-1.9977-2.0523-0.62223-4.0609-0.93881-6.0149-0.93881-1.5938 0-2.8601 0.24016-3.8207 0.70957-0.94972 0.48031-1.4191 1.2772-1.4191 2.4016 0 0.82964 0.28382 1.5065 0.82964 2.0414s1.3427 1.0261 2.3907 1.4628c1.048 0.44757 2.3143 0.8733 3.8207 1.2881 1.4955 0.41483 3.1985 0.91698 5.0979 1.5065 3.002 0.88422 5.7092 1.8667 8.1327 2.9365 2.4234 1.0698 4.4866 2.3252 6.2114 3.777 1.7139 1.4519 3.0348 3.2203 3.9517 5.2944 0.91697 2.0741 1.3755 4.5958 1.3755 7.5541 0 3.7989-0.72048 6.9756-2.1614 9.5627-1.441 2.5763-3.3404 4.6394-5.6983 6.1786s-5.0215 2.6527-7.9908 3.3295c-2.9692 0.67682-5.9603 1.0261-8.9623 1.0261-2.3907 0-4.8468-0.17466-7.3467-0.5349-2.5108-0.36024-4.9997-0.86239-7.4886-1.5065-2.4889-0.65498-4.8687-1.4191-7.1611-2.3143-2.3034-0.88422-4.4211-1.8994-6.3861-3.0238l7.7178-15.206c2.1396 1.31 4.3774 2.4562 6.7136 3.4714 1.954 0.88422 4.181 1.692 6.659 2.4016 2.4889 0.70956 5.0106 1.0698 7.5869 1.0698 1.954 0 3.3295-0.25107 4.0936-0.75323 0.76415-0.50215 1.1462-1.168 1.1462-1.9977 0-0.88422-0.38207-1.6484-1.1462-2.2706-0.76414-0.62223-1.8339-1.168-3.1766-1.6484-1.3427-0.46941-2.8928-0.94972-4.6394-1.4191-1.7466-0.4694-3.6024-1.037-5.5673-1.692-2.8819-0.94972-5.3599-1.9649-7.445-3.0675-2.085-1.0916-3.7989-2.3361-5.1416-3.7334s-2.347-2.9802-2.9911-4.7595c-0.64407-1.7794-0.97156-3.8207-0.97156-6.135 0-3.4932 0.65498-6.5826 1.9759-9.2461 1.31-2.6636 3.1112-4.8905 5.3818-6.6699s4.8578-3.1221 7.7724-4.05c2.9038-0.91697 5.9822-1.3755 9.2352-1.3755 2.3907 0 4.7159 0.21833 6.9865 0.6659s4.4539 1.0043 6.5716 1.692c2.1068 0.67681 4.0936 1.4191 5.9276 2.2269 1.8449 0.7969 3.4932 1.561 4.956 2.2706z"/>
  <path class="st4" d="m535.65-309.47v-63.129h17.925v63.129z"/>
  <path class="st4" d="m562.26-341.57c0-3.8535 0.75323-7.6414 2.2488-11.386 1.4955-3.7334 3.6897-7.0847 6.5716-10.043s6.3642-5.3599 10.48-7.2048c4.1046-1.8339 8.7877-2.7509 14.06-2.7509 6.3096 0 11.779 1.2554 16.407 3.7771 4.6285 2.5217 8.0672 5.8512 10.338 9.9994l-13.7 9.4208c-0.61132-1.5392-1.4191-2.8164-2.4344-3.8207-1.0152-1.0043-2.1287-1.8121-3.3622-2.4016-1.2226-0.58949-2.4998-1.0043-3.8207-1.2445-1.31-0.24016-2.5981-0.36024-3.8098-0.36024-2.5763 0-4.8032 0.49124-6.659 1.4628-1.8667 0.98248-3.395 2.2488-4.5958 3.8207-1.2008 1.572-2.085 3.3513-2.6636 5.3381-0.57856 1.9868-0.87331 3.9517-0.87331 5.9166 0 2.1942 0.33841 4.301 1.0152 6.3096 0.67682 2.0195 1.6593 3.7989 2.9365 5.3381 1.2881 1.5392 2.8601 2.7728 4.7377 3.6897 1.8776 0.91698 3.9736 1.3755 6.2987 1.3755 1.2226 0 2.4889-0.13099 3.7661-0.4039 1.2881-0.26199 2.5326-0.70956 3.7225-1.3318 1.1899-0.62223 2.2706-1.4191 3.2203-2.4016 0.94973-0.98247 1.703-2.1833 2.2488-3.6024l14.606 8.4492c-0.98248 2.3143-2.4671 4.3884-4.4539 6.2223s-4.2574 3.3732-6.8009 4.6285c-2.5435 1.2445-5.2726 2.1942-8.1763 2.8492-2.9038 0.65498-5.742 0.98247-8.5038 0.98247-4.8469 0-9.268-0.9388-13.274-2.8055-4.0063-1.8667-7.4777-4.3447-10.381-7.4231-2.9037-3.0784-5.1634-6.5826-6.7572-10.491-1.5938-3.908-2.3907-7.8707-2.3907-11.91z"/>
 </g>
 <g transform="matrix(1.2916 0 0 1.2916 -6.5875 531.31)" stroke-width="1.0764">
  <path class="st4" d="m416.26-257.48c0 4.3703-0.9365 8.1378-2.8095 11.281s-4.4564 5.7159-7.7396 7.7288c-3.2831 2.0022-7.0937 3.4876-11.453 4.4457-4.3596 0.95803-8.9775 1.4317-13.843 1.4317h-49.053v-97.062h57.912c3.4661 0 6.6093 0.73197 9.4188 2.1852 2.8095 1.464 5.1992 3.3477 7.1691 5.6728 1.9591 2.3251 3.4876 4.9731 4.5748 7.9333 1.0764 2.9602 1.6146 5.9958 1.6146 9.0851 0 4.5533-1.1948 8.9129-3.5845 13.057-2.3897 4.1443-5.9742 7.2659-10.754 9.365 5.7159 1.6362 10.237 4.4887 13.574 8.5469 3.3046 4.0474 4.9731 9.4942 4.9731 16.33zm-57.492-49.484v14.898h18.698c1.873 0 3.5845-0.49516 5.1346-1.507 1.5501-1.0011 2.3251-3.0032 2.3251-6.0173 0-2.6373-0.65662-4.5318-1.9591-5.6728-1.3132-1.141-2.8633-1.7115-4.6394-1.7115zm29.656 44.015c0-2.3682-0.65663-4.3488-1.9591-5.9419-1.3133-1.5931-3.0033-2.3897-5.0592-2.3897h-22.637v16.265h21.647c2.2498 0 4.1443-0.68892 5.6943-2.056 1.5501-1.3671 2.3143-3.3262 2.3143-5.8773z"/>
  <path class="st4" d="m475.8-231.79c-7.5889 0-14.478-1.4101-20.668-4.2412-6.1895-2.8203-11.475-6.534-15.877-11.141-4.4026-4.5964-7.8257-9.8602-10.258-15.791-2.4435-5.9204-3.6491-12.035-3.6491-18.321 0-6.3725 1.2594-12.53 3.7998-18.45 2.5296-5.9204 6.0711-11.141 10.614-15.651s9.9355-8.1056 16.168-10.797c6.2326-2.6911 13.046-4.0366 20.452-4.0366 7.5889 0 14.478 1.4101 20.668 4.2412 6.1895 2.831 11.475 6.5662 15.877 11.206 4.4026 4.6502 7.7934 9.9355 10.194 15.856 2.3897 5.9204 3.5845 11.981 3.5845 18.181 0 6.3833-1.2594 12.508-3.7998 18.386-2.5404 5.8773-6.0496 11.077-10.549 15.587-4.4995 4.5103-9.8709 8.1379-16.093 10.872-6.2433 2.7342-13.057 4.1012-20.463 4.1012zm-22.627-49.204c0 3.2831 0.46287 6.4478 1.4101 9.5049 0.9365 3.0571 2.3466 5.7697 4.2089 8.1379 1.873 2.3682 4.2304 4.2842 7.0937 5.7374 2.8526 1.464 6.2649 2.1852 10.194 2.1852 3.9398 0 7.352-0.75351 10.258-2.2605 2.9064-1.507 5.2745-3.4661 7.0937-5.8773 1.8299-2.4112 3.1862-5.1669 4.0689-8.267 0.89344-3.1001 1.3348-6.2433 1.3348-9.4296 0-3.2831-0.46287-6.4478-1.4101-9.5049-0.94726-3.0571-2.3682-5.7374-4.2842-8.0625-1.9161-2.3251-4.3057-4.1873-7.1691-5.6082-2.8633-1.4101-6.211-2.1206-10.043-2.1206-3.9398 0-7.3305 0.73198-10.183 2.1852-2.8633 1.464-5.2315 3.4015-7.0937 5.8128-1.873 2.4112-3.2616 5.1454-4.1443 8.2024-0.88267 3.0571-1.3348 6.168-1.3348 9.365z"/>
  <path class="st4" d="m557.23-329.53 18.127 30.625 18.127-30.625h29.516l-33.316 49.215 32.185 47.848h-29.516l-17.008-29.258-17.008 29.258h-29.656l32.185-47.848-33.316-49.215z"/>
 </g>
 <g transform="matrix(1.2916 0 0 1.2916 -6.5875 -118.99)">
  <path d="m397.72 296.09c-7.7522-6.8342-17.85-10.404-28.153-10.404-20.298-0.20401-39.781 14.076-39.373 36.721-0.40801 19.788 17.646 37.129 38.251 36.721 11.832 0 22.849-3.8761 31.723-10.812v-31.519h-30.601v14.076h12.342v6.8342c-3.8761 2.244-8.3642 3.3661-13.464 3.3661-10.608 0-18.156-8.3642-18.156-18.666 0-11.73 8.8742-19.074 19.278-19.074 5.7121 0 11.22 2.04 15.606 5.8141z"/>
  <path d="m483.81 322.41c0.40801-19.788-17.646-37.129-38.251-36.721-20.604-0.40801-38.659 16.932-38.251 36.721-0.40801 19.788 17.646 37.129 38.251 36.721 20.604 0.40801 38.659-16.932 38.251-36.721zm-56.407 0c0-10.302 7.5482-18.666 18.156-18.666 10.506 0 18.258 8.3642 18.258 18.666s-7.7522 18.666-18.258 18.666c-10.608 0-18.156-8.3642-18.156-18.666z"/>
  <path d="m512.84 286.71h-19.278v71.402h54.163v-17.238h-34.885z"/>
  <path d="m622.79 322.41c0.40801-19.89-17.646-36.007-38.353-35.701h-30.601v71.402h30.601c20.706 0.306 38.761-15.81 38.353-35.701zm-38.965-18.564c10.506 0 19.278 8.1602 19.278 18.564s-8.7722 18.564-19.278 18.564h-10.71v-37.129z"/>
 </g>
 <g transform="scale(1.2916)">
  <g transform="matrix(1.4491 0 0 1.4491 -.0027631 0)" clip-rule="evenodd" fill-rule="evenodd">
   <path class="st3" d="m162.14 184.25c-46.88-0.03-93.75 0-140.63-0.01-3.04 0-4.56-3.68-2.41-5.83 10.49-10.48 20.95-20.97 31.43-31.45 0.64-0.64 1.51-1 2.42-1 25.92 0.01 51.85-0.03 77.77 0.02 0.9 0 1.77 0.36 2.41 1.01 10.46 10.48 20.94 20.97 31.42 31.45 2.15 2.14 0.63 5.82-2.41 5.81z"/>
   <path class="st3" d="m178.33 164.4c-10.39-10.55-20.96-20.93-31.37-31.44-0.63-0.64-0.99-1.51-0.99-2.41-0.03-25.9 0-51.79-0.02-77.68 0-0.91 0.36-1.78 1.01-2.42 10.49-10.47 20.97-20.95 31.43-31.45 2.15-2.15 5.82-0.63 5.82 2.41 0 46.87 0.1 93.72-0.03 140.6-0.01 3.05-3.71 4.56-5.85 2.39z"/>
   <path class="st3" d="m163.73 5.84c-10.43 10.37-20.78 20.83-31.22 31.22-0.64 0.64-1.51 1-2.41 1-25.53 0-51.05-0.02-76.57 0-0.9 0-1.77-0.36-2.41-0.99-10.43-10.39-20.75-20.87-31.2-31.21-2.17-2.14-0.64-5.84 2.4-5.84 46.33-0.01 92.67 0.02 139.01-0.02 3.05 0 4.56 3.69 2.4 5.84z"/>
   <path class="st3" d="m37.28 132.17c-10.45 10.49-20.94 20.93-31.39 31.43-2.15 2.16-5.82 0.65-5.83-2.39-0.11-46.4-0.03-92.79-0.03-139.16 0-3.04 3.67-4.57 5.82-2.42 10.36 10.36 20.73 20.74 31.1 31.11 0.84 0.84 1.32 1.98 1.32 3.17 0.02 25.29-0.02 50.56 0.01 75.85 0.01 0.91-0.36 1.77-1 2.41z"/>
   <path class="st3" d="m129.27 58.9-0.03 66.65c0 2.06-1.67 3.74-3.74 3.74l-66.58-0.01c-2.06 0-3.74-1.67-3.74-3.73l-0.2-66.83c-0.01-2.07 1.67-3.76 3.75-3.76l66.81 0.19c2.06 0.01 3.73 1.69 3.73 3.75z"/>
  </g>
 </g>
</svg>
