<?xml version="1.0" encoding="UTF-8"?>
<!-- Created with Inkscape (http://www.inkscape.org/) -->
<svg id="svg4246" width="141.11mm" height="147.44mm" version="1.1" viewBox="0 0 500 522.43" xmlns="http://www.w3.org/2000/svg" xmlns:cc="http://creativecommons.org/ns#" xmlns:dc="http://purl.org/dc/elements/1.1/" xmlns:rdf="http://www.w3.org/1999/02/22-rdf-syntax-ns#">
 <metadata id="metadata4251">
  <rdf:RDF>
   <cc:Work rdf:about="">
    <dc:format>image/svg+xml</dc:format>
    <dc:type rdf:resource="http://purl.org/dc/dcmitype/StillImage"/>
    <dc:title/>
   </cc:Work>
  </rdf:RDF>
 </metadata>
 <g id="layer1" transform="translate(-20.283 -449.01)">
  <g id="g4292" transform="matrix(.40156 0 0 .40156 87.861 527.42)">
   <circle id="path3363" cx="-78.288" cy="-105.28" r="90" fill="#00b7eb"/>
   <circle id="circle3365" cx="-78.288" cy="103.72" r="90" fill="#00b7eb"/>
   <circle id="circle3367" cx="-78.288" cy="321.72" r="90" fill="#00b7eb"/>
   <circle id="circle3369" cx="-78.288" cy="540.72" r="90" fill="#00b7eb"/>
   <circle id="circle3371" cx="174.71" cy="103.72" r="90" fill="#00ff8b"/>
   <circle id="circle3373" cx="174.71" cy="321.72" r="90" fill="#00ff8b"/>
   <circle id="circle3375" cx="174.71" cy="540.72" r="90" fill="#00ff8b"/>
   <circle id="circle3377" cx="445.71" cy="321.72" r="90" fill="#ff2492"/>
   <circle id="circle3379" cx="445.71" cy="540.72" r="90" fill="#ff2492"/>
   <circle id="circle3381" cx="717.71" cy="103.72" r="90" fill="#fff20d"/>
   <circle id="circle3383" cx="717.71" cy="321.72" r="90" fill="#fff20d"/>
   <circle id="circle3385" cx="717.71" cy="540.72" r="90" fill="#fff20d"/>
   <circle id="circle3387" cx="970.71" cy="-105.28" r="90" fill="#7600eb"/>
   <circle id="circle3389" cx="970.71" cy="103.72" r="90" fill="#7600eb"/>
   <circle id="circle3391" cx="970.71" cy="321.72" r="90" fill="#7600eb"/>
   <circle id="circle3393" cx="970.71" cy="540.72" r="90" fill="#7600eb"/>
   <path id="path3338" d="m-118.01 1104.5c-23.298-5.3316-36.85-22.651-40.366-51.585-0.8418-6.9286-1.0652-53.891-0.8253-173.5 0.3098-154.51 0.433-164.35 2.1296-170 7.9119-26.363 27.962-46.011 53.178-52.113 10.116-2.448 28.616-2.2176 38.773 0.483 14.55 3.8684 28.167 12.688 38.007 24.617 5.9019 7.1551 18.167 27.313 33.471 55.013 10.613 19.208 48.005 88.562 57.817 107.24 3.2475 6.181 6.164 11.244 6.4812 11.25 0.5627 0.012 20.856-37.019 65.207-118.99 12.052-22.275 23.844-43.211 26.205-46.525 12.48-17.522 32.405-30.142 52.821-33.455 9.0251-1.4648 26.235-1.2156 33.444 0.4842 8.3444 1.9674 18.718 7.3101 26.065 13.425 7.1771 5.9728 15.832 18.536 20.038 29.087 6.4715 16.234 6.1452 6.2115 6.1261 188.19-0.019 184.09 0.4147 172.47-7.0061 187.53-6.934 14.068-20.093 24.981-33.976 28.179-6.6726 1.5368-24.847 1.3003-33.074-0.4304-20.918-4.4002-34.77-17.903-40.597-39.572-1.5566-5.7886-1.7575-14.893-2.0673-93.662-0.1888-47.988-0.6622-87.245-1.052-87.239-1.0875 0.016-32.263 53.97-42.23 73.085-10.613 20.354-15.463 27.357-25.32 36.562-12.938 12.083-26.359 17.354-44.119 17.327-24.692-0.036-40.296-9.1778-55.885-32.739-6.9119-10.447-27.461-46.224-45.228-78.746l-10.926-20-0.5221 89c-0.5814 99.104-0.1573 93.099-7.6632 108.5-6.4086 13.15-18.133 22.813-33.315 27.458-7.5726 2.317-27.615 2.9516-35.589 1.1268zm517.59 0.8158c-16.827-2.0144-19.978-2.6698-25.692-5.3435-11.293-5.2847-20.658-16.082-24.414-28.148-2.3477-7.5432-2.5482-22.979-0.4054-31.206 4.8127-18.478 18.714-32.396 37.154-37.198 3.1111-0.8103 13.127-1.9327 22.257-2.4942 9.1301-0.5614 19.483-1.7046 23.005-2.5403 8.3702-1.9856 21.627-8.2429 26.467-12.492 3.407-2.9914 3.7817-3.7697 3.3337-6.9241-0.2775-1.9546-9.2477-20.654-19.934-41.554-35.612-69.65-94.236-185.86-97.018-192.31-4.6006-10.673-6.1088-17.829-6.1518-29.192-0.031-8.1994 0.4642-12.143 2.2604-18 8.4333-27.498 29.642-42.875 59.637-43.238 11.516-0.1394 18.529 1.2873 27 5.4925 13.566 6.7347 18.872 13.431 32.913 41.536 8.4894 16.993 42.426 89.833 59.134 126.92 3.2742 7.2684 6.1948 13.231 6.4903 13.25s13.108-31.353 28.473-69.715c29.583-73.862 34.048-84.075 41.05-93.887 12.879-18.048 36.33-27.134 59.333-22.988 28.9 5.2088 50.072 29.574 50.072 57.625 0 12.79-5.3362 27.763-34.213 96-9.6591 22.825-25.214 59.725-34.567 82-41.537 98.927-50.477 117.45-68.129 141.14-29.385 39.444-66.738 62.529-114.8 70.948-11.321 1.9833-44.104 3.4048-53.257 2.3092zm366-0.061c-12.517-2.0377-27.66-11.712-34.582-22.092-6.712-10.066-8.8767-18.332-8.7068-33.248 0.3049-26.767 8.986-43.795 26.824-52.614 12.187-6.0251 15.926-6.3122 82.714-6.3512 36.713-0.021 59.75-0.3983 59.75-0.9774 0-0.5184-15.342-15.706-34.092-33.75-18.751-18.044-36.122-35.501-38.602-38.793-16.156-21.441-17.243-45.284-3.1598-69.29 3.9806-6.7853 22.212-25.343 54.513-55.49l23.159-21.614-63.159-0.3802c-69.214-0.4167-67.118-0.2428-80.113-6.6465-11.96-5.8938-21.29-17.198-25.664-31.094-2.8402-9.0238-3.6228-27.971-1.5554-37.657 3.404-15.948 11.498-26.725 25.026-33.319 15.158-7.3889 9.2643-7.1164 147.15-6.8032l123 0.2794 6.5 2.3176c19.109 6.8136 36.605 23.007 45.1 41.743 5.3512 11.802 7.1231 20.428 7.1765 34.94 0.071 19.366-3.3364 29.938-14.505 45-10.234 13.801-40.734 42.093-90.015 83.5-10.801 9.075-19.665 16.746-19.697 17.047-0.033 0.3008 13.968 12.901 31.111 28 77.224 68.014 75.882 66.68 83.957 83.453 6.5394 13.582 8.1979 21.584 8.2911 40 0.07 13.896-0.2106 16.92-2.1369 23-6.4789 20.448-25.051 38.779-48.402 47.772l-8.3803 3.2277-124.5 0.1233c-68.475 0.068-125.63-0.06-127-0.2837z"/>
  </g>
 </g>
</svg>
