<svg id="c" width="211.67mm" height="83.23mm" version="1.1" viewBox="0 0 211.67 83.23" xmlns="http://www.w3.org/2000/svg">
 <defs id="d">
  <clipPath id="b">
   <path id="e" d="m0 0h595.28v841.89h-595.28z"/>
  </clipPath>
  <clipPath id="a">
   <path id="f" d="m0 0h595.28v841.89h-595.28z"/>
  </clipPath>
 </defs>
 <g id="g" transform="translate(27.009 -69.535)">
  <g id="h" transform="matrix(3.7336 0 0 -3.7336 -1191.2 2514.2)" fill="#fff">
   <g id="i" transform="translate(357.47 650.8)">
    <path id="j" d="m0 0 1.204 3.964h-5.19l-1.007-3.964z" fill="#fff"/>
   </g>
   <g id="k" transform="translate(345.11 636.69)">
    <path id="l" d="m0 0 1.235-4.223h5.555l1.286 4.223z" fill="#fff"/>
   </g>
   <g id="m" transform="translate(346.11 650.8)">
    <path id="n" d="m0 0-0.996 3.964h-5.292l1.159-3.964z" fill="#fff"/>
   </g>
   <path id="o" d="m338.3 654.76h-15.68v-3.964h15.68z"/>
   <path id="p" d="m328.01 632.47h4.831v4.223h-4.831z"/>
   <path id="q" d="m311.81 637.59h56.692v12.307h-56.692z"/>
  </g>
  <g id="r" transform="matrix(3.7336 0 0 -3.7336 -1191.2 2514.2)" fill="#080b0a">
   <g id="s" transform="translate(316.06 646.69)">
    <path id="t" d="m0 0h2.594l1.31-4.116h0.02l1.368 4.116h2.498v-6.195h-1.61l0.026 4.76h-0.017l-1.576-4.76h-1.513l-1.503 4.76h-0.021l0.038-4.76h-1.614z" fill="#080b0a"/>
   </g>
   <g id="u">
    <g id="v" clip-path="url(#b)" fill="#080b0a">
     <g id="w" transform="translate(326.44 646.69)" fill="#080b0a">
      <path id="x" d="m0 0 0.964-2.082 0.398-1h0.028c0.231 0.709 0.318 0.94 0.468 1.301l0.761 1.781h1.717l-2.426-5.134c-0.105-0.22-0.434-0.725-0.735-0.911-0.343-0.22-0.714-0.255-1.051-0.255-0.273 0-0.603 0.035-1.027 0.192l0.115 1.116c0.193-0.08 0.397-0.133 0.593-0.133 0.131 0 0.282 0.018 0.405 0.106 0.09 0.061 0.208 0.177 0.251 0.274l0.106 0.24-2.461 4.505z" fill="#080b0a"/>
     </g>
    </g>
   </g>
   <g id="y" transform="translate(336.03 644.01)">
    <path id="z" d="m0 0h0.081l1.628 2.683h1.753l-1.861-2.886 2.089-3.309h-1.832l-1.777 2.973h-0.081v-2.973h-1.647v2.973h-0.078l-1.779-2.973h-1.833l2.089 3.309-1.858 2.886h1.754l1.627-2.683h0.078v2.683h1.647z" fill="#080b0a"/>
   </g>
   <g id="aa">
    <g id="ab" clip-path="url(#a)" fill="#080b0a">
     <g id="ac" transform="translate(345.12 640.64)" fill="#080b0a">
      <path id="ad" d="m0 0c-0.664-0.177-1.14-0.247-1.741-0.247-2.513 0-3.638 1.389-3.638 3.195 0 1.087 0.434 1.947 1.043 2.459 0.595 0.494 1.485 0.751 2.496 0.751 0.346 0 0.965-0.034 1.831-0.318l-0.132-1.337c-0.371 0.205-0.963 0.435-1.6 0.435-0.655 0-1.11-0.256-1.38-0.531-0.32-0.319-0.56-0.841-0.56-1.477 0-0.594 0.222-1.117 0.56-1.436 0.353-0.335 0.927-0.521 1.502-0.521 0.463 0 1.036 0.115 1.541 0.318z" fill="#080b0a"/>
     </g>
    </g>
   </g>
   <g id="ae" transform="translate(347.65 644.01)">
    <path id="af" d="m0 0h0.081l1.815 2.683h1.83l-2.087-2.859 2.318-3.336h-1.893l-1.983 2.973h-0.081v-2.973h-1.644v6.195h1.644z" fill="#080b0a"/>
   </g>
   <path id="ag" d="m356.91 645.97c0.727-0.736 0.815-1.77 0.815-2.381 0-0.612-0.088-1.646-0.815-2.381-0.742-0.752-1.76-0.821-2.28-0.821-0.524 0-1.541 0.069-2.284 0.821-0.726 0.735-0.815 1.769-0.815 2.381 0 0.611 0.089 1.645 0.815 2.381 0.743 0.752 1.76 0.822 2.284 0.822 0.52 0 1.538-0.07 2.28-0.822m-3.3-0.903c-0.334-0.451-0.381-1.08-0.381-1.478 0-0.397 0.047-1.027 0.381-1.477 0.196-0.274 0.524-0.505 1.02-0.505 0.493 0 0.819 0.231 1.016 0.505 0.334 0.45 0.381 1.08 0.381 1.477 0 0.398-0.047 1.027-0.381 1.478-0.197 0.274-0.523 0.505-1.016 0.505-0.496 0-0.824-0.231-1.02-0.505"/>
   <path id="ah" d="m358.77 646.69h1.646v-2.656l-0.053-1.522h0.053l1.911 4.178h1.972v-6.195h-1.643v2.653l0.052 1.523h-0.052l-1.911-4.176h-1.975zm4.459 1.813c8e-3 -0.371-0.122-0.709-0.371-0.948-0.266-0.246-0.698-0.423-1.317-0.423-0.31 0-0.895 0.034-1.31 0.423-0.267 0.249-0.383 0.568-0.39 0.948l0.83 0.106c0.029-0.132 0.099-0.291 0.195-0.381 0.152-0.142 0.463-0.194 0.675-0.194 0.211 0 0.52 0.052 0.669 0.194 0.099 0.09 0.172 0.249 0.196 0.381z"/>
  </g>
 </g>
</svg>
