<?xml version="1.0" encoding="UTF-8"?>
<!-- Generator: Adobe Illustrator 16.0.0, SVG Export Plug-In . SVG Version: 6.00 Build 0)  -->
<svg id="svg58" width="233.86" height="139.99" enable-background="new 0 0 283.464 283.464" version="1.1" viewBox="0 0 233.86 139.99" xml:space="preserve" xmlns="http://www.w3.org/2000/svg" xmlns:cc="http://creativecommons.org/ns#" xmlns:dc="http://purl.org/dc/elements/1.1/" xmlns:rdf="http://www.w3.org/1999/02/22-rdf-syntax-ns#"><metadata id="metadata64"><rdf:RDF><cc:Work rdf:about=""><dc:format>image/svg+xml</dc:format><dc:type rdf:resource="http://purl.org/dc/dcmitype/StillImage"/><dc:title/></cc:Work></rdf:RDF></metadata><g id="Logo" transform="translate(-24.803,-71.738)" fill="#fff"><g id="g54" fill="#fff"><g id="g26"><g id="g24" fill="#fff"><g id="g22" fill="#fff"><g id="g20" fill="#fff"><g id="g6"><polygon id="polygon2" points="24.803 71.738 80.125 71.738 104.82 115.93 49.508 115.93"/><polygon id="polygon4" points="24.803 166.57 80.125 166.57 104.82 122.38 49.508 122.38"/></g><g id="g12"><polygon id="polygon8" points="101.72 71.738 157.03 71.738 181.73 115.93 126.42 115.93"/><polygon id="polygon10" points="101.72 166.57 157.03 166.57 181.73 122.38 126.42 122.38"/></g><g id="g18"><polygon id="polygon14" points="178.62 71.738 233.94 71.738 258.66 115.93 203.34 115.93"/><polygon id="polygon16" points="178.62 166.57 233.94 166.57 258.66 122.38 203.34 122.38"/></g></g></g></g></g><g id="g52"><g id="g50" fill="#fff"><path id="path28" d="m42.718 199.29 0.495-4.588h-0.196l-1.421 3.696-4.914 8.612h-1.454l-5.181-8.644-1.451-3.665h-0.162l0.658 4.554v12.01h-4.289v-23.094h4.124l6.17 10.558 1.089 2.64h0.132l0.989-2.706 5.841-10.491h4.09v23.094h-4.52z"/><path id="path30" d="m58.59 198.36 0.658 3.002h0.197l0.529-3.104 3.465-10.094h4.652l-6.139 15.969c-0.483 1.253-0.952 2.341-1.402 3.267-0.453 0.923-0.934 1.688-1.452 2.295-0.517 0.604-1.095 1.054-1.729 1.351-0.64 0.296-1.388 0.446-2.245 0.446-0.728 0-1.313-0.049-1.766-0.15-0.451-0.1-0.941-0.311-1.469-0.644l1.156-3.663c0.373 0.199 0.713 0.318 1.021 0.365 0.31 0.043 0.636 0.065 0.989 0.065 1.035 0 1.76-0.816 2.179-2.441l-8.644-16.859h5.313z"/><path id="path32" d="m78.187 188.17h4.288v10.261l1.156-0.461 4.783-9.8h5.082l-5.379 10.127-1.551 1.122 1.882 1.387 6.071 10.458h-5.445l-5.313-10.027h-1.286v10.027h-4.288v-10.424l-1.19 0.462-5.309 9.962h-5.279l6.038-10.127 1.779-1.285-1.714-1.224-5.643-10.458h5.246l4.783 9.862h1.288v-9.862z"/><path id="path34" d="m110.19 210.32c-0.703 0.5-1.598 0.862-2.688 1.078-1.089 0.219-2.205 0.33-3.35 0.33-1.383 0-2.699-0.213-3.941-0.641-1.241-0.433-2.335-1.125-3.283-2.082-0.946-0.956-1.701-2.197-2.262-3.728-0.557-1.53-0.84-3.383-0.84-5.562 0-2.264 0.314-4.163 0.939-5.688 0.627-1.532 1.441-2.761 2.443-3.698 1.001-0.933 2.115-1.605 3.348-2.012 1.233-0.408 2.466-0.611 3.694-0.611 1.32 0 2.438 0.09 3.348 0.267 0.915 0.175 1.669 0.382 2.264 0.624l-0.893 3.828c-0.507-0.24-1.104-0.418-1.794-0.527-0.694-0.111-1.538-0.165-2.527-0.165-1.824 0-3.295 0.653-4.406 1.95-1.108 1.302-1.664 3.32-1.664 6.05 0 1.19 0.131 2.275 0.396 3.26 0.265 0.979 0.667 1.816 1.202 2.511 0.542 0.695 1.211 1.234 2.015 1.62 0.802 0.386 1.731 0.578 2.791 0.578 0.985 0 1.822-0.1 2.505-0.296 0.681-0.197 1.275-0.45 1.781-0.758z"/><path id="path36" d="m118.7 201.4h-1.187v9.865h-4.52v-23.094h4.52v10.227l1.056-0.461 6.368-9.766h5.147l-6.732 9.7-1.781 1.253 1.851 1.287 7.686 10.854h-5.576z"/><path id="path38" d="m130.22 199.71c0-3.848 0.846-6.813 2.542-8.892 1.692-2.077 4.111-3.118 7.258-3.118 1.649 0 3.089 0.289 4.323 0.857 1.229 0.572 2.25 1.389 3.066 2.442 0.814 1.057 1.422 2.319 1.816 3.794s0.594 3.113 0.594 4.916c0 3.852-0.85 6.814-2.555 8.892-1.707 2.078-4.123 3.12-7.245 3.12-1.673 0-3.126-0.286-4.356-0.859-1.232-0.568-2.248-1.385-3.051-2.44-0.803-1.057-1.401-2.322-1.799-3.794-0.394-1.471-0.593-3.113-0.593-4.918zm4.75 0c0 1.168 0.1 2.239 0.299 3.218 0.198 0.979 0.5 1.819 0.907 2.523 0.405 0.704 0.928 1.256 1.565 1.651 0.641 0.396 1.4 0.593 2.278 0.593 1.604 0 2.849-0.629 3.728-1.88 0.879-1.256 1.318-3.288 1.318-6.105 0-1.12-0.092-2.164-0.281-3.131-0.184-0.969-0.473-1.816-0.871-2.543-0.396-0.726-0.914-1.292-1.551-1.7-0.639-0.405-1.422-0.609-2.343-0.609-1.606 0-2.849 0.644-3.728 1.929-0.879 1.287-1.321 3.304-1.321 6.054z"/><path id="path40" d="m152.82 188.17h13.691v4.024h-9.174v5.377h8.35v4.026h-8.35v5.642h9.338v4.024h-13.855z"/><path id="path42" d="m182.32 201.4h-1.189v9.865h-4.518v-23.094h4.518v10.227l1.059-0.461 6.367-9.766h5.146l-6.732 9.7-1.779 1.253 1.848 1.287 7.688 10.854h-5.58z"/><path id="path44" d="m209.64 198.46 0.262-3.004h-0.164l-1.547 3.101-8.617 12.702h-3.396v-23.094h4.518v12.568l-0.324 3.104h0.191l1.619-3.203 8.613-12.469h3.365v23.094h-4.52z"/><path id="path46" d="m231.51 201.6h-8.447v9.666h-4.52v-23.094h4.52v9.401h8.447v-9.401h4.521v23.094h-4.521z"/><path id="path48" d="m239.06 199.71c0-3.848 0.85-6.813 2.541-8.892 1.695-2.077 4.113-3.118 7.264-3.118 1.645 0 3.088 0.289 4.318 0.857 1.234 0.572 2.254 1.389 3.07 2.442 0.814 1.057 1.418 2.319 1.813 3.794 0.398 1.475 0.594 3.113 0.594 4.916 0 3.852-0.85 6.814-2.557 8.892-1.703 2.078-4.117 3.12-7.238 3.12-1.676 0-3.127-0.286-4.361-0.859-1.227-0.568-2.246-1.385-3.051-2.44-0.799-1.057-1.404-2.322-1.797-3.794-0.397-1.471-0.596-3.113-0.596-4.918zm4.756 0c0 1.168 0.098 2.239 0.297 3.218 0.195 0.979 0.498 1.819 0.906 2.523 0.404 0.704 0.928 1.256 1.566 1.651 0.641 0.396 1.398 0.593 2.279 0.593 1.604 0 2.844-0.629 3.725-1.88 0.881-1.256 1.32-3.288 1.32-6.105 0-1.12-0.092-2.164-0.281-3.131-0.188-0.969-0.477-1.816-0.873-2.543-0.395-0.726-0.912-1.292-1.551-1.7-0.639-0.405-1.422-0.609-2.34-0.609-1.607 0-2.852 0.644-3.73 1.929-0.879 1.287-1.318 3.304-1.318 6.054z"/></g></g></g></g></svg>
