<svg id="n" version="1.1" viewBox="0 0 2834.2 2002.6" xml:space="preserve" xmlns="http://www.w3.org/2000/svg">
<style id="o" type="text/css">
	.st0{opacity:0.7;fill:#FFFFFF;}
	.st1{fill:#010303;}
	.st2{fill:url(#i);}
	.st3{fill:url(#h);}
	.st4{fill:url(#g);}
	.st5{fill:url(#f);}
	.st6{fill:url(#e);}
	.st7{fill:url(#d);}
	.st8{fill:url(#c);}
	.st9{fill:url(#b);}
	.st10{fill:url(#a);}
	.st11{fill:url(#m);}
	.st12{fill:url(#l);}
	.st13{fill:url(#k);}
	.st14{fill:url(#j);}
</style>
<g id="p" transform="translate(-92.7 -493.42)">
	<circle id="q" class="st0" cx="959.2" cy="1359.9" r="861.2" fill="#fff" opacity=".7"/>
	<g id="r">
		<path id="s" class="st1" d="m1715.8 1351.8" fill="#010303"/>
		<g id="t">
			<g id="u">
				<linearGradient id="i" x1="428.52" x2="308.76" y1="1538.9" y2="2280.6" gradientUnits="userSpaceOnUse">
					<stop id="v" stop-color="#514F89" offset=".005618"/>
					<stop id="w" stop-color="#535DA8" offset=".4719"/>
					<stop id="x" stop-color="#4E5080" offset=".7451"/>
					<stop id="y" stop-color="#474665" offset="1"/>
				</linearGradient>
				<path id="z" class="st2" d="m238.5 1830.6h-52.6c-6.7 0-13.3 6.7-13.3 13.3l-33.3 465.8h-33.3c-6.7 0-13.3 6.7-13.3 13.3v159.7c0 6.7 6.7 13.3 13.3 13.3h93.2c6.6 0 13.3-6.7 13.3-13.3v-53.2h153.1v53.2c0 6.7 6.7 13.3 13.3 13.3h93.1c6.7 0 13.3-6.7 13.3-13.3v-159.7c0-6.7-6.7-13.3-13.3-13.3h-33.3v-264c-78.2-59.6-146.1-132.4-200.2-215.1zm80.5 479.1h-61.2l27.9-359.3h33.3z" fill="url(#i)"/>
			</g>
			<g id="aa">
				<linearGradient id="h" x1="792.48" x2="672.72" y1="1597.7" y2="2339.3" gradientUnits="userSpaceOnUse">
					<stop id="ab" stop-color="#514F89" offset=".005618"/>
					<stop id="ac" stop-color="#535DA8" offset=".4719"/>
					<stop id="ad" stop-color="#4E5080" offset=".7451"/>
					<stop id="ae" stop-color="#474665" offset="1"/>
				</linearGradient>
				<path id="af" class="st3" d="m538.5 2376.3c0 33.3 20 53.2 53.2 53.2h226.2c6.7 0 13.3-6.7 13.3-13.3v-93.1c0-6.7-6.7-13.3-13.3-13.3h-146.4c-6.7 0-13.3-6.7-13.3-13.3v-106.5h69c-66.4-18.8-129.7-45.3-188.7-78.5z" fill="url(#h)"/>
			</g>
			<g id="ag">
				<linearGradient id="g" x1="1125.4" x2="1005.7" y1="1651.5" y2="2393.1" gradientUnits="userSpaceOnUse">
					<stop id="ah" stop-color="#514F89" offset=".005618"/>
					<stop id="ai" stop-color="#535DA8" offset=".4719"/>
					<stop id="aj" stop-color="#4E5080" offset=".7451"/>
					<stop id="ak" stop-color="#474665" offset="1"/>
				</linearGradient>
				<path id="al" class="st4" d="m957.6 2222.3v193.9c0 6.7 6.6 13.3 13.3 13.3h93.2c6.7 0 13.3-6.7 13.3-13.3v-201.5c-27.5 3.7-55.4 6.1-83.7 7.1-12.1 0.5-24.1 0.6-36.1 0.5z" fill="url(#g)"/>
			</g>
			<g id="am">
				<linearGradient id="f" x1="1450.1" x2="1330.3" y1="1703.9" y2="2445.5" gradientUnits="userSpaceOnUse">
					<stop id="an" stop-color="#514F89" offset=".005618"/>
					<stop id="ao" stop-color="#535DA8" offset=".4719"/>
					<stop id="ap" stop-color="#4E5080" offset=".7451"/>
					<stop id="aq" stop-color="#474665" offset="1"/>
				</linearGradient>
				<path id="ar" class="st5" d="m1207.1 2376.3c0 33.3 20 53.2 53.2 53.2h226.2c6.7 0 13.3-6.7 13.3-13.3v-93.1c0-6.7-6.7-13.3-13.3-13.3h-146.4c-6.7 0-13.3-6.7-13.3-13.3v-106.5h119.8c33.3 0 53.2-20 53.2-53.2v-101.8c-85.7 68.1-184.7 120.4-292.8 152.2v189.1z" fill="url(#f)"/>
			</g>
			<g id="as">
				<linearGradient id="e" x1="1783.6" x2="1663.9" y1="1757.8" y2="2499.4" gradientUnits="userSpaceOnUse">
					<stop id="at" stop-color="#514F89" offset=".005618"/>
					<stop id="au" stop-color="#535DA8" offset=".4719"/>
					<stop id="av" stop-color="#4E5080" offset=".7451"/>
					<stop id="aw" stop-color="#474665" offset="1"/>
				</linearGradient>
				<path id="ax" class="st6" d="m1845.8 1830.6h-93.1c-6.7 0-13.3 6.7-13.3 13.3v199.6c0 6.7-6.7 13.3-13.3 13.3h-39.9v-212.9c0-2.9-1.3-5.8-3.3-8.1-33.8 50.9-72.9 98-116.5 140.6v439.8c0 6.7 6.7 13.3 13.3 13.3h93.1c6.7 0 13.3-6.7 13.3-13.3v-239.6h39.9c6.7 0 13.3 6.7 13.3 13.3v226.2c0 6.7 6.7 13.3 13.3 13.3h93.1c6.7 0 13.3-6.7 13.3-13.3v-239.6c0-33.3-26.6-59.9-59.9-59.9v-6.7c33.3 0 59.9-26.6 59.9-59.9v-206.3c0.1-6.4-6.5-13.1-13.2-13.1z" fill="url(#e)"/>
			</g>
			<g id="ay">
				<linearGradient id="d" x1="2072.6" x2="1952.8" y1="1804.4" y2="2546.1" gradientUnits="userSpaceOnUse">
					<stop id="az" stop-color="#514F89" offset=".005618"/>
					<stop id="ba" stop-color="#535DA8" offset=".4719"/>
					<stop id="bb" stop-color="#4E5080" offset=".7451"/>
					<stop id="bc" stop-color="#474665" offset="1"/>
				</linearGradient>
				<path id="bd" class="st7" d="m2191.8 1830.6h-266.2c-6.7 0-13.3 6.7-13.3 13.3v93.1c0 6.7 6.7 13.3 13.3 13.3h73.2v465.8c0 6.7 6.6 13.3 13.3 13.3h93.2c6.7 0 13.3-6.7 13.3-13.3v-465.8h73.2c6.7 0 13.3-6.7 13.3-13.3v-93.1c0-6.6-6.6-13.3-13.3-13.3z" fill="url(#d)"/>
			</g>
			<g id="be">
				<linearGradient id="c" x1="2447.5" x2="2327.7" y1="1865" y2="2606.6" gradientUnits="userSpaceOnUse">
					<stop id="bf" stop-color="#514F89" offset=".005618"/>
					<stop id="bg" stop-color="#535DA8" offset=".4719"/>
					<stop id="bh" stop-color="#4E5080" offset=".7451"/>
					<stop id="bi" stop-color="#474665" offset="1"/>
				</linearGradient>
				<path id="bj" class="st8" d="m2537.7 1830.6h-93.1c-6.7 0-13.3 6.7-13.3 13.3v119.8l-53.2 119.8v-239.6c0-6.7-6.7-13.3-13.3-13.3h-93.1c-6.7 0-13.3 6.7-13.3 13.3v572.2c0 6.7 6.7 13.3 13.3 13.3h93.1c6.7 0 13.3-6.7 13.3-13.3v-119.8l53.2-119.8v239.6c0 6.7 6.7 13.3 13.3 13.3h93.1c6.7 0 13.3-6.7 13.3-13.3v-572.2c0-6.6-6.6-13.3-13.3-13.3z" fill="url(#c)"/>
			</g>
			<g id="bk">
				<linearGradient id="b" x1="2807.9" x2="2688.1" y1="1923.2" y2="2664.8" gradientUnits="userSpaceOnUse">
					<stop id="bl" stop-color="#514F89" offset=".005618"/>
					<stop id="bm" stop-color="#535DA8" offset=".4719"/>
					<stop id="bn" stop-color="#4E5080" offset=".7451"/>
					<stop id="bo" stop-color="#474665" offset="1"/>
				</linearGradient>
				<path id="bp" class="st9" d="m2923.6 2063.5v-179.7c0-33.3-19.9-53.2-53.2-53.2h-226.2c-6.7 0-13.3 6.7-13.3 13.3v572.2c0 6.7 6.7 13.3 13.3 13.3h226.2c33.3 0 53.2-20 53.2-53.2v-186.3c0-33.3-26.6-59.9-59.9-59.9v-6.7c33.4 0.1 59.9-26.5 59.9-59.8zm-119.7 232.9c0 6.7-6.7 13.3-13.3 13.3h-39.9v-119.8h39.9c6.7 0 13.3 6.7 13.3 13.3zm0-239.5c0 6.7-6.7 13.3-13.3 13.3h-39.9v-119.8h39.9c6.7 0 13.3 6.7 13.3 13.3z" fill="url(#b)"/>
			</g>
		</g>
		<g id="bq">
			<g id="br">
				<linearGradient id="a" x1="1242.4" x2="772.59" y1="692.87" y2="1803" gradientUnits="userSpaceOnUse">
					<stop id="bs" stop-color="#514F89" offset=".005618"/>
					<stop id="bt" stop-color="#535DA8" offset=".4719"/>
					<stop id="bu" stop-color="#4E5080" offset=".7451"/>
					<stop id="bv" stop-color="#474665" offset="1"/>
				</linearGradient>
				<path id="bw" class="st10" d="m698.2 1950.4h-26.6c-6.7 0-13.3 6.7-13.3 13.3v106.5h39.9c6.7 0 13.3-6.7 13.3-13.3v-93.2c0-6.7-6.7-13.3-13.3-13.3z" fill="url(#a)"/>
			</g>
			<g id="bx">
				<linearGradient id="m" x1="1809.5" x2="1339.6" y1="932.87" y2="2043" gradientUnits="userSpaceOnUse">
					<stop id="by" stop-color="#514F89" offset=".005618"/>
					<stop id="bz" stop-color="#535DA8" offset=".4719"/>
					<stop id="ca" stop-color="#4E5080" offset=".7451"/>
					<stop id="cb" stop-color="#474665" offset="1"/>
				</linearGradient>
				<path id="cc" class="st11" d="m1366.8 1950.4h-26.6c-6.7 0-13.3 6.7-13.3 13.3v106.5h39.9c6.7 0 13.3-6.7 13.3-13.3v-93.2c0-6.7-6.6-13.3-13.3-13.3z" fill="url(#m)"/>
			</g>
			<g id="cd">
				<g id="ce">
					<linearGradient id="l" x1="2515.4" x2="2045.5" y1="1231.6" y2="2341.7" gradientUnits="userSpaceOnUse">
						<stop id="cf" stop-color="#514F89" offset=".005618"/>
						<stop id="cg" stop-color="#535DA8" offset=".4719"/>
						<stop id="ch" stop-color="#4E5080" offset=".7451"/>
						<stop id="ci" stop-color="#474665" offset="1"/>
					</linearGradient>
					<path id="cj" class="st12" d="m2780.2 1730.8c26 3.8 56.6 1.9 80.1-11.6 22.9-13.1 55.1-36.8 64.6-107 12.4-90.8-36.3-122-81.8-129-28.4-4.3-63-6.6-63-6.6l-926.1-49.2c-1.3 20-3.2 37.9-5.5 57.7 366.9 21.5 594.1 31.7 977.8 58.6 33.1 2.6 34.3 25.8 28.1 50.1-1.2 4.8-3.4 8.5-13.3 7.3-9.8-1.1-11.7-1.3-18.4-2-328.6-33.7-646.7-55.1-979.3-82.4-9.9 43.9-9.9 43.9-23.4 89.2z" fill="url(#l)"/>
				</g>
			</g>
			<g id="ck">
				<linearGradient id="k" x1="1152.5" x2="682.69" y1="654.82" y2="1764.9" gradientUnits="userSpaceOnUse">
					<stop id="cl" stop-color="#514F89" offset=".005618"/>
					<stop id="cm" stop-color="#535DA8" offset=".4719"/>
					<stop id="cn" stop-color="#4E5080" offset=".7451"/>
					<stop id="co" stop-color="#474665" offset="1"/>
				</linearGradient>
				<path id="cp" class="st13" d="m867 1217.6c-3.8 0-6.6 0.9-7.5 8.2l-20.8 158.2h57.3l-21-158.3c-1.4-7.1-4.6-8.1-8-8.1z" fill="url(#k)"/>
				<linearGradient id="j" x1="1243.6" x2="773.8" y1="693.38" y2="1803.5" gradientUnits="userSpaceOnUse">
					<stop id="cq" stop-color="#514F89" offset=".005618"/>
					<stop id="cr" stop-color="#535DA8" offset=".4719"/>
					<stop id="cs" stop-color="#4E5080" offset=".7451"/>
					<stop id="ct" stop-color="#474665" offset="1"/>
				</linearGradient>
				<path id="cu" class="st14" d="m1826.3 1326.6c-17.3-477.1-418.1-849.9-895.2-832.6s-849.9 418.1-832.6 895.3c5.9 163.1 56.7 314.1 140 441.4h186.9c6.7 0 13.3 6.7 13.3 13.3v201.8c31.6 24.1 65 46.1 99.8 65.7v-227.5c0-33.3 20-53.2 53.2-53.2h186.3c33.3 0 53.2 20 53.2 53.2v252.8c0 33.3-19.9 53.2-53.2 53.2h-50.8c73.5 20.7 150.8 32 230.5 32.4v-271.9h-73.2c-6.7 0-13.3-6.7-13.3-13.3v-93.1c0-6.7 6.7-13.3 13.3-13.3h266.2c6.7 0 13.3 6.7 13.3 13.3v93.1c0 6.7-6.7 13.3-13.3 13.3h-73.2v264.3c44.4-5.9 87.7-15.1 129.7-27.5v-303.4c0-33.3 20-53.2 53.2-53.2h186.3c33.3 0 53.2 20 53.2 53.2v151.1c23.2-18.4 45.4-37.9 66.5-58.6v-132.5c0-6.7 6.7-13.3 13.3-13.3h93.1c3.7 0 7.4 2.1 10 5.2 96.6-145.4 150.3-321.4 143.5-509.2zm-1210.1 376.9-84.9-0.1c-11.6-1.2-14.6-10.7-13.7-19l24.3-183.3h-93.3l-10.4 186.1c-0.4 10-6.5 16.4-16.5 16.4-27.6 0.1-55.2 0.1-82.8 0-10.8 0-16.7-6.2-16.7-17.7l17.9-662.3c1.7-7.3 7.2-11.2 15.6-11.2h90.7c9.8 0 16.2 6.2 16 15.9l-9.7 358.5 61-0.1c12.1-0.3 23.3-3.3 31.8-12.8 6.4-7.1 10.2-15.7 12.1-24.9l53.3-323c1-8.2 6.4-13.7 14.7-13.7 30.2-0.1 60.5-0.1 90.7 0 10.4 0 16.3 8.2 14.7 19.6l-99 658c-1.3 9.3-6.3 13.6-15.8 13.6zm466.2-2.8c-5.8 3.2-12.3 4.5-18.7 4.6-27 0.4-54 0.9-81 0.6-15.7-0.2-27.8-8.5-37.3-20.6-8.6-10.9-12.5-23.6-14-37.3l-12.2-91.5c-1.6-11.3-3.4-22.6-8.2-33.2-7.4-16.5-20.5-24.4-38.2-24.8-15.3-0.3-39.1-0.3-46.5-0.3l-28.1 193.3c-1.6 9.4-7.1 14.4-16.6 14.4l-91.6-0.6c-6.9-1.5-10.9-7.5-9.8-15.2l99.5-622.1c1.5-8.8 2.9-17.7 5.7-26 7-20.7 23.6-32.1 45.6-32.2h70c28.1 0 46 13.9 52 41.4l88.4 531.5c5.6 29.2 17.8 55.6 35 79.8 3.1 4.4 6.3 8.7 9.2 13.2 2.5 3.9 4.1 8.1 4.1 12.8-0.2 5.6-2.6 9.6-7.3 12.2zm520.2-54.5c0 8.8-1 17.6-4 26-6.4 18.2-19.6 28-38.3 30.8-5 0.8-10.1 1-15.1 1-98.6 0.1-197.3 0.1-295.9 0-17 0-33.8-1.8-50.1-6.7-34.4-10.2-60.8-31.2-80.8-60.6-17-24.8-32.9-62.7-40.9-119.9l-67.6-460c-0.8-7.4-1.5-13.1-1-22.1 0.9-11.2 10.5-19.2 20.4-21.3 11-1.8 19.8-1 28.8-1.3 19.9-0.6 35.5-0.5 55.4-0.4 7.9 0 14.2 3.1 16.3 10.8 2.4 9.3 2.7 19 4.1 28.5l62.3 483.1c3.1 13.3 8.7 25.7 17.5 36.4 10.1 12.2 23 18.6 39 18.4h33.4l-56.4-558.9c-1.1-11.4 5.2-18.3 16.6-18.3h81.6c9.2 0 14.6 4.9 15.6 13.9l56 486.2c2.1 17.2 5.2 34.3 13.4 49.9 6.6 12.8 16 22.7 30.6 25.5 7.3 1.4 14.9 1.3 22.4 1.6 7 0.2 14 0.1 21.5 0.1v-562c0.5-9.4 6.4-15.2 15.8-15.2 27.8-0.1 55.6-0.1 83.4 0 9.9 0 15.4 5.7 16 16.1z" fill="url(#j)"/>
			</g>
		</g>
	</g>
</g>
</svg>
