<?xml version="1.0" encoding="UTF-8"?>
<!-- Generator: Adobe Illustrator 16.0.0, SVG Export Plug-In . SVG Version: 6.00 Build 0)  -->
<svg id="svg276" width="227.74" height="198.39" enable-background="new 0 0 283.464 283.464" version="1.1" viewBox="0 0 227.74 198.39" xml:space="preserve" xmlns="http://www.w3.org/2000/svg" xmlns:cc="http://creativecommons.org/ns#" xmlns:dc="http://purl.org/dc/elements/1.1/" xmlns:rdf="http://www.w3.org/1999/02/22-rdf-syntax-ns#" xmlns:xlink="http://www.w3.org/1999/xlink"><metadata id="metadata282"><rdf:RDF><cc:Work rdf:about=""><dc:format>image/svg+xml</dc:format><dc:type rdf:resource="http://purl.org/dc/dcmitype/StillImage"/><dc:title/></cc:Work></rdf:RDF></metadata><g id="Logo" transform="translate(-27.865 -42.54)"><g id="g272"><g id="g25"><defs id="defs3"><path id="SVGID_1_" d="m82.259 42.54-15.901 48.928c18.296 8.511 45.64 13.562 75.37 13.562 29.707 0 57.017-5.043 75.306-13.529l-15.909-48.961z"/></defs><clipPath id="SVGID_2_"><use id="use5" width="100%" height="100%" overflow="visible" xlink:href="#SVGID_1_"/></clipPath><linearGradient id="SVGID_3_" x1="-63.544" x2="-62.765" y1="329.77" y2="329.77" gradientTransform="matrix(0 80.277 80.277 0 -26331 5143.7)" gradientUnits="userSpaceOnUse"><stop id="stop8" stop-color="#445F89" offset="0"/><stop id="stop10" stop-color="#3D577C" offset=".0777"/><stop id="stop12" stop-color="#2D4765" offset=".2533"/><stop id="stop14" stop-color="#213B54" offset=".4326"/><stop id="stop16" stop-color="#173349" offset=".6147"/><stop id="stop18" stop-color="#102E42" offset=".8015"/><stop id="stop20" stop-color="#0E2C40" offset="1"/></linearGradient><rect id="rect23" x="66.358" y="42.54" width="150.68" height="62.49" clip-path="url(#SVGID_2_)" fill="url(#SVGID_3_)"/></g><g id="g35"><defs id="defs28"><rect id="SVGID_4_" x="-19.879" y="-5.212" width="323.22" height="293.89"/></defs><clipPath id="SVGID_5_"><use id="use30" width="100%" height="100%" overflow="visible" xlink:href="#SVGID_4_"/></clipPath><path id="path33" d="m229.93 86.132c-3.029 2.274-6.595 4.394-10.605 6.351-0.562 0.269-1.13 0.536-1.706 0.804-18.573 8.56-46.063 13.619-75.891 13.619-29.853 0-57.374-5.076-75.946-13.644-0.586-0.268-1.153-0.544-1.714-0.812-3.979-1.949-7.529-4.053-10.542-6.318h-25.661v107.08h25.661c3.021-2.273 6.578-4.393 10.582-6.342 0.634-0.309 1.275-0.609 1.934-0.91 13.204-6.05 30.884-10.329 50.698-12.303 0.585-0.058 1.17-0.114 1.755-0.172 7.496-0.689 15.283-1.048 23.233-1.048 7.926 0 15.689 0.358 23.161 1.041 0.584 0.056 1.169 0.112 1.754 0.17 19.823 1.965 37.52 6.244 50.731 12.287 0.658 0.301 1.308 0.602 1.934 0.908 4.019 1.958 7.593 4.086 10.622 6.368h25.67v-107.08z" clip-path="url(#SVGID_5_)" fill="#0e2c40"/></g><g id="g56"><defs id="defs38"><polygon id="SVGID_6_" points="106.46 69.2 106.46 49.499 97.112 49.499 97.112 95.415 106.46 95.415 106.46 77.093 111.44 77.093 111.44 95.415 120.8 95.415 120.8 49.499 111.44 49.499 111.44 69.2"/></defs><clipPath id="SVGID_7_"><use id="use40" width="100%" height="100%" overflow="visible" xlink:href="#SVGID_6_"/></clipPath><linearGradient id="SVGID_8_" x1="-63.415" x2="-62.636" y1="329.93" y2="329.93" gradientTransform="matrix(0 54.703 54.703 0 -17939 3519.6)" gradientUnits="userSpaceOnUse"><stop id="stop43" stop-color="#F8DF3D" offset="0"/><stop id="stop45" stop-color="#F2CE30" offset=".2086"/><stop id="stop47" stop-color="#ECC026" offset=".4626"/><stop id="stop49" stop-color="#E9B722" offset=".7236"/><stop id="stop51" stop-color="#E8B421" offset="1"/></linearGradient><rect id="rect54" x="97.112" y="49.499" width="23.689" height="45.916" clip-path="url(#SVGID_7_)" fill="url(#SVGID_8_)"/></g><g id="g77"><defs id="defs59"><path id="SVGID_9_" d="m136.51 66.228 2.096 16.233h-4.239zm-4.913-16.615-8.291 45.802h9.233l0.82-5.692h6.261l0.813 5.692h9.225l-8.283-45.802z"/></defs><clipPath id="SVGID_10_"><use id="use61" width="100%" height="100%" overflow="visible" xlink:href="#SVGID_9_"/></clipPath><linearGradient id="SVGID_11_" x1="-63.415" x2="-62.636" y1="329.79" y2="329.79" gradientTransform="matrix(0 54.703 54.703 0 -17904 3519.6)" gradientUnits="userSpaceOnUse"><stop id="stop64" stop-color="#F8DF3D" offset="0"/><stop id="stop66" stop-color="#F2CE30" offset=".2086"/><stop id="stop68" stop-color="#ECC026" offset=".4626"/><stop id="stop70" stop-color="#E9B722" offset=".7236"/><stop id="stop72" stop-color="#E8B421" offset="1"/></linearGradient><rect id="rect75" x="123.31" y="49.613" width="26.352" height="45.802" clip-path="url(#SVGID_10_)" fill="url(#SVGID_11_)"/></g><g id="g98"><defs id="defs80"><polygon id="SVGID_12_" points="186.3 49.637 178.38 49.662 178.39 88.309 173.27 88.317 173.25 49.662 166.18 49.662 166.2 88.317 159.96 88.309 159.98 49.637 152.16 49.628 152.16 95.399 186.34 95.415"/></defs><clipPath id="SVGID_13_"><use id="use82" width="100%" height="100%" overflow="visible" xlink:href="#SVGID_12_"/></clipPath><linearGradient id="SVGID_14_" x1="-63.416" x2="-62.637" y1="329.62" y2="329.62" gradientTransform="matrix(0 54.703 54.703 0 -17862 3519.9)" gradientUnits="userSpaceOnUse"><stop id="stop85" stop-color="#F8DF3D" offset="0"/><stop id="stop87" stop-color="#F2CE30" offset=".2086"/><stop id="stop89" stop-color="#ECC026" offset=".4626"/><stop id="stop91" stop-color="#E9B722" offset=".7236"/><stop id="stop93" stop-color="#E8B421" offset="1"/></linearGradient><rect id="rect96" x="152.16" y="49.628" width="34.181" height="45.786" clip-path="url(#SVGID_13_)" fill="url(#SVGID_14_)"/></g><g id="g119"><defs id="defs101"><path id="SVGID_15_" d="m63.986 121.06c1.089 0.178 2.177 0.357 3.257 0.535 0.463 0.082 0.755 0.236 0.878 0.463 0.138 0.244 0.203 0.593 0.203 1.072 8e-3 9.818 0.024 19.653 0.04 29.488 0 0.859-0.333 1.307-0.991 1.355-1.12 0.08-2.226 0.171-3.346 0.251-8e-3 -11.059-0.032-22.12-0.041-33.164m-13.733 34.189c-0.146-0.235-0.203-0.633-0.203-1.194 0-11.352-0.017-22.714-0.031-34.05 0-0.975 0.332-1.422 0.981-1.292 1.098 0.22 2.193 0.431 3.298 0.626 0.024 11.93 0.04 23.851 0.04 35.797-1.079 0.121-2.16 0.243-3.231 0.365-0.09 0.017-0.179 0.024-0.26 0.024-0.301 0-0.504-0.098-0.594-0.276m4.037-48.945c-2.542-0.747-5.059-1.527-7.568-2.331-2.339-0.755-4.143-0.495-5.4 0.901-1.251 1.381-1.884 3.987-1.884 7.707v48.418c0 3.71 0.633 6.332 1.9 7.779 1.266 1.461 3.078 1.818 5.417 1.209 2.542-0.641 5.075-1.242 7.608-1.785 0 2.055 0 4.083 9e-3 6.131 3.216-0.861 6.447-1.617 9.68-2.307 0-1.9 0-3.794-0.017-5.693 2.51-0.423 5.026-0.812 7.545-1.178 2.396-0.325 4.238-1.258 5.547-2.751 1.299-1.496 1.948-3.582 1.948-6.311-0.017-11.85-0.023-23.698-0.056-35.521 0-2.721-0.651-4.84-1.966-6.465-1.291-1.624-3.15-2.712-5.539-3.265-2.533-0.593-5.034-1.218-7.553-1.867v-5.66c-3.24-0.975-6.472-2.015-9.68-3.127 1e-3 2.039 1e-3 4.078 9e-3 6.116"/></defs><clipPath id="SVGID_16_"><use id="use103" width="100%" height="100%" overflow="visible" xlink:href="#SVGID_15_"/></clipPath><linearGradient id="SVGID_17_" x1="-63.779" x2="-63.001" y1="330.03" y2="330.03" gradientTransform="matrix(0 90 90 0 -29643 5843.7)" gradientUnits="userSpaceOnUse"><stop id="stop106" stop-color="#F8DF3D" offset="0"/><stop id="stop108" stop-color="#F2CE30" offset=".2086"/><stop id="stop110" stop-color="#ECC026" offset=".4626"/><stop id="stop112" stop-color="#E9B722" offset=".7236"/><stop id="stop114" stop-color="#E8B421" offset="1"/></linearGradient><rect id="rect117" x="39.437" y="100.19" width="39.638" height="74.145" clip-path="url(#SVGID_16_)" fill="url(#SVGID_17_)"/></g><g id="g140"><defs id="defs122"><path id="SVGID_18_" d="m92.865 153.08v14.512c3.963-0.406 7.918-0.737 11.889-1.031 0-4.581-0.016-9.161-0.016-13.74 3.604-13.546 7.219-26.498 10.841-39.127-3.914-0.39-7.813-0.86-11.718-1.405-1.706 8.292-3.412 16.737-5.116 25.403-1.689-8.804-3.379-17.818-5.067-27.051-3.875-0.699-7.74-1.479-11.58-2.363 3.564 15.85 7.169 30.696 10.767 44.802"/></defs><clipPath id="SVGID_19_"><use id="use124" width="100%" height="100%" overflow="visible" xlink:href="#SVGID_18_"/></clipPath><linearGradient id="SVGID_20_" x1="-63.779" x2="-63" y1="329.9" y2="329.9" gradientTransform="matrix(0 90 90 0 -29592 5843.7)" gradientUnits="userSpaceOnUse"><stop id="stop127" stop-color="#F8DF3D" offset="0"/><stop id="stop129" stop-color="#F2CE30" offset=".2086"/><stop id="stop131" stop-color="#ECC026" offset=".4626"/><stop id="stop133" stop-color="#E9B722" offset=".7236"/><stop id="stop135" stop-color="#E8B421" offset="1"/></linearGradient><rect id="rect138" x="82.097" y="108.28" width="33.481" height="59.314" clip-path="url(#SVGID_19_)" fill="url(#SVGID_20_)"/></g><g id="g161"><defs id="defs143"><path id="SVGID_21_" d="m117.39 123.55c2.525 0.153 5.051 0.308 7.593 0.405v41.629c3.865-0.124 7.748-0.196 11.613-0.221v-41.059c2.541 0.04 5.075 0.049 7.617 0.04-0.942-3.134-1.893-6.253-2.826-9.379-7.017-9e-3 -14.032-0.301-21.033-0.854-0.991 3.137-1.981 6.271-2.964 9.439"/></defs><clipPath id="SVGID_22_"><use id="use145" width="100%" height="100%" overflow="visible" xlink:href="#SVGID_21_"/></clipPath><linearGradient id="SVGID_23_" x1="-63.779" x2="-63.001" y1="329.8" y2="329.8" gradientTransform="matrix(0 90 90 0 -29551 5843.7)" gradientUnits="userSpaceOnUse"><stop id="stop148" stop-color="#F8DF3D" offset="0"/><stop id="stop150" stop-color="#F2CE30" offset=".2086"/><stop id="stop152" stop-color="#ECC026" offset=".4626"/><stop id="stop154" stop-color="#E9B722" offset=".7236"/><stop id="stop156" stop-color="#E8B421" offset="1"/></linearGradient><rect id="rect159" x="117.39" y="114.11" width="26.823" height="51.472" clip-path="url(#SVGID_22_)" fill="url(#SVGID_23_)"/></g><g id="g182"><defs id="defs164"><path id="SVGID_24_" d="m164.28 156.7c-1.535-0.024-3.077-0.049-4.613-0.079-0.584 0-0.868-0.285-0.868-0.847 8e-3 -4.888 8e-3 -9.793 8e-3 -14.673 1.885-0.041 3.761-0.065 5.637-0.106 0.479-0.016 0.715 0.219 0.715 0.698 0 4.719 0 9.453-9e-3 14.172 0 0.567-0.276 0.835-0.837 0.835h-0.033m-10.176-42.026c-2.03 0.09-3.671 0.715-4.905 1.893-1.233 1.17-1.852 2.655-1.852 4.467v36.527c0 2.787 0.659 4.791 1.974 6.011 1.291 1.226 3.605 1.857 6.895 1.933 3.679 0.104 7.365 0.226 11.029 0.39 3.297 0.161 5.579-0.325 6.878-1.536 1.307-1.202 1.957-3.306 1.957-6.269 0-6.529 0-13.059 9e-3 -19.604 0-1.966-0.512-3.387-1.561-4.247-1.039-0.854-2.492-1.227-4.368-1.13-3.785 0.171-7.568 0.317-11.354 0.431v-8.616c0-0.649 0.309-0.999 0.942-1.022 4.62-0.228 9.241-0.537 13.854-0.942-0.649-3.24-1.299-6.457-1.956-9.664-5.831 0.656-11.687 1.103-17.542 1.378"/></defs><clipPath id="SVGID_25_"><use id="use166" width="100%" height="100%" overflow="visible" xlink:href="#SVGID_24_"/></clipPath><linearGradient id="SVGID_26_" x1="-63.779" x2="-63" y1="329.7" y2="329.7" gradientTransform="matrix(0 90 90 0 -29512 5843.7)" gradientUnits="userSpaceOnUse"><stop id="stop169" stop-color="#F8DF3D" offset="0"/><stop id="stop171" stop-color="#F2CE30" offset=".2086"/><stop id="stop173" stop-color="#ECC026" offset=".4626"/><stop id="stop175" stop-color="#E9B722" offset=".7236"/><stop id="stop177" stop-color="#E8B421" offset="1"/></linearGradient><rect id="rect180" x="147.35" y="113.3" width="28.741" height="52.761" clip-path="url(#SVGID_25_)" fill="url(#SVGID_26_)"/></g><g id="g203"><defs id="defs185"><path id="SVGID_27_" d="m197.25 157.97c-1.372-0.091-2.729-0.17-4.094-0.245-0.471-0.031-0.764-0.138-0.885-0.325-0.13-0.201-0.211-0.511-0.211-0.933 0.024-11.71 0.041-23.396 0.041-35.083 0-0.738 0.34-1.145 1.022-1.259 1.404-0.194 2.826-0.382 4.247-0.608 0.666-0.114 0.999 0.227 0.999 0.99-0.024 12.084-0.032 24.185-0.04 36.301 0 0.446-0.074 0.755-0.195 0.935-0.122 0.161-0.357 0.234-0.715 0.234-0.055 0-0.113 0-0.169-7e-3m4.913-49.863c-4.58 1.047-9.16 1.973-13.772 2.785-2.582 0.447-4.491 1.486-5.742 3.103-1.25 1.624-1.868 3.492-1.868 5.644-0.015 13.173-0.024 26.353-0.031 39.54 0 2.17 0.617 3.997 1.868 5.531 1.233 1.544 3.143 2.421 5.725 2.664 4.597 0.446 9.185 0.975 13.741 1.615 2.558 0.367 4.458-0.146 5.676-1.624 1.219-1.484 1.835-3.509 1.852-6.041 0.017-15.446 0.041-30.86 0.057-46.257 0-2.534-0.608-4.5-1.827-5.855-0.836-0.934-1.99-1.389-3.459-1.389-0.676 0-1.416 0.089-2.22 0.284"/></defs><clipPath id="SVGID_28_"><use id="use187" width="100%" height="100%" overflow="visible" xlink:href="#SVGID_27_"/></clipPath><linearGradient id="SVGID_29_" x1="-63.779" x2="-63.001" y1="329.6" y2="329.6" gradientTransform="matrix(0 90 90 0 -29469 5843.7)" gradientUnits="userSpaceOnUse"><stop id="stop190" stop-color="#F8DF3D" offset="0"/><stop id="stop192" stop-color="#F2CE30" offset=".2086"/><stop id="stop194" stop-color="#ECC026" offset=".4626"/><stop id="stop196" stop-color="#E9B722" offset=".7236"/><stop id="stop198" stop-color="#E8B421" offset="1"/></linearGradient><rect id="rect201" x="180.75" y="107.82" width="28.918" height="61.533" clip-path="url(#SVGID_28_)" fill="url(#SVGID_29_)"/></g><g id="g224"><defs id="defs206"><path id="SVGID_30_" d="m228.66 100.14c-5.385 26.336-10.809 49.326-16.267 70.117 3.744 0.665 7.464 1.43 11.183 2.28 0.334-2.875 0.658-5.798 1-8.73 2.265-8.754 4.53-17.945 6.78-27.684 0.228 9.56 0.455 19.157 0.675 28.847 0.332 3.296 0.649 6.642 0.975 9.995 3.687 1.048 7.357 2.219 11.02 3.524-1.364-28.544-2.729-56.041-4.068-82.523-3.737 1.478-7.514 2.866-11.298 4.174"/></defs><clipPath id="SVGID_31_"><use id="use208" width="100%" height="100%" overflow="visible" xlink:href="#SVGID_30_"/></clipPath><linearGradient id="SVGID_32_" x1="-63.779" x2="-63" y1="329.49" y2="329.49" gradientTransform="matrix(0 90 90 0 -29426 5843.7)" gradientUnits="userSpaceOnUse"><stop id="stop211" stop-color="#F8DF3D" offset="0"/><stop id="stop213" stop-color="#F2CE30" offset=".2086"/><stop id="stop215" stop-color="#ECC026" offset=".4626"/><stop id="stop217" stop-color="#E9B722" offset=".7236"/><stop id="stop219" stop-color="#E8B421" offset="1"/></linearGradient><rect id="rect222" x="212.4" y="95.967" width="31.632" height="82.523" clip-path="url(#SVGID_31_)" fill="url(#SVGID_32_)"/></g><g id="g249"><defs id="defs227"><path id="SVGID_33_" d="m179.73 213.31 35.927-26.102c-12.685-5.628-29.43-9.647-48.173-11.589zm-111.93-26.084 35.992 26.147 12.271-37.754c-18.783 1.933-35.57 5.962-48.263 11.607m50.294-11.807-12.71 39.117 36.333 26.394 36.422-26.457-12.693-39.054c-7.625-0.725-15.567-1.099-23.696-1.099-8.104 0-16.039 0.374-23.656 1.099"/></defs><clipPath id="SVGID_34_"><use id="use229" width="100%" height="100%" overflow="visible" xlink:href="#SVGID_33_"/></clipPath><radialGradient id="SVGID_35_" cx="-63.58" cy="329.81" r=".7785" gradientTransform="matrix(0 -83.054 -83.054 0 27534 -5040.9)" gradientUnits="userSpaceOnUse"><stop id="stop232" stop-color="#445F89" offset="0"/><stop id="stop234" stop-color="#3D577C" offset=".0777"/><stop id="stop236" stop-color="#2D4765" offset=".2533"/><stop id="stop238" stop-color="#213B54" offset=".4326"/><stop id="stop240" stop-color="#173349" offset=".6147"/><stop id="stop242" stop-color="#102E42" offset=".8015"/><stop id="stop244" stop-color="#0E2C40" offset="1"/></radialGradient><rect id="rect247" x="67.803" y="174.32" width="147.86" height="66.609" clip-path="url(#SVGID_34_)" fill="url(#SVGID_35_)"/></g><g id="g270"><defs id="defs252"><path id="SVGID_36_" d="m129.86 218.05c0 1.69 1.38 3.071 3.086 3.071 1.696 0 3.061-1.381 3.061-3.071 0-1.697-1.364-3.078-3.061-3.078-1.706 0-3.086 1.381-3.086 3.078m7.918-40.116c-0.805 0.097-1.073 0.649-1.34 1.227-0.577 1.234-0.196 1.511-0.635 1.785-0.113 0.147-8e-3 0.764-8e-3 0.764 0.017 0.237 0.284 0.902 0.594 0.927 0.049-0.024 0.129-0.089 0.178-0.049 0.024 0.039 0.09 0.446 0.244 0.714-0.041 0.09-0.114 0.139-0.22 0.317-0.309 0.219-0.82 0.089-1.316 0.252-0.178 0.056-1.907 0.502-2.085 0.56-1.122 0.683-2.9 2.956-4.467 6.098l0.567 0.479c-0.576 1.114-1.68 0.805-1.973 2.99-0.35 2.55-1.438 1.436-1.438 3.63v0.422c0 0.812 0.706 1.057 1.031 1.169 0.048 0 0.13-0.024 0.13-0.024s0.154 0.042 0.179 0.049c0.292 0.121-0.13-1.412-0.13-1.412 0-0.576 0.3-0.594 0.414-0.609 0 0-0.082 0.488 0 0.609 0.373 0.528 0.666 0.243 0.715-0.324 0.317-0.504 0.649-0.747 0.755-1.048 0.113-0.352-0.301-0.895-0.154-1.22 1.56-1.518 1.648-2.695 2.444-3.272 0.195 0 0.324 0.04 0.707 0.04l1.315-2.396c0.041 1.415-0.252 1.69-0.252 2.641l0.032 0.771c0 0.941 0.269 1.022 0.269 1.77 0 0.983-1.186 0.593-1.227 2.234-0.975 0.519-2.729 2.167-3.306 3.175-1.047 1.803-2.232 2.51-3.183 3.815 0 0 0.284 0.367 0.813 0.716-0.228 0.666-0.455 0.771-1.86 3.029-0.154 0.276-0.512 0.771-0.642 1.015-0.431 0.789-0.333 0.844-0.503 1.187-0.797 1.493-0.999 1.533-1.511 3.402-0.276 1.039-0.683 4.499-1.332 4.685-0.594 0.325-2.38 1.65-2.371 2.039 0 0.155 0.105 0.228 0.219 0.292 0.211 0.14 0.86 0.261 1.121 0.301 0.975 0 1.511-0.073 2.298-0.438 0.228-0.091 0.561-0.122 0.723-0.301 0.244-0.975 0.187-1.227-0.072-1.642 0-2.76 3.734-4.823 4.084-7.877-0.016-0.243 0.024-0.568 0.082-0.771 0.446-0.146 1.924-1.836 2.777-2.371 0.17 0.082 0.405 0.268 0.739 0.35 0.722-1.089 3.279-3.679 3.824-3.897l-0.356 2.403c0 0.195 0.146 0.113-0.432 0.252-0.373 0.08-0.593 0.65-0.966 1.039-0.188 0.203-0.439 0.601-0.643 0.795-0.795 0.756-1.672 1.309-1.753 1.673-0.041 0.212-0.235 0.919-0.203 1.138 0.072 0.462 0.13 0.495 0.422 0.659l0.86-0.091c0.894-0.446 1.316-0.78 1.819-1.008 0.211-0.104 0.301-0.104 0.366-0.097 0.065 0 0.121 9e-3 0.243-0.073 0.365 0.747 0.105 1.211 1.274 1.211h0.211c1.364 0 1.966-2.07 2.502-2.689 0.22 0.058 0.406 0.066 0.609 0.058 0.316-1.412 1.145-2.811 1.607-4.149 0.683-2.016-0.26-2.769 0.521-5.394 0.268-0.868 0.52 0 0.86-1.257 0.276-0.95 0.09-2.308 0.178-3.461 0.082-1.12 0.975-3.49 1.26-4.734l2.005 0.114c1.397 0 1.934 0.805 2.429 0.805h0.414c0.455 0 0.447-0.164 0.804-0.4-1.648 2.544-1.031 4.38-1.876 5.297-0.601 0.901-0.86 0.333-1.771 0.795-0.153 0.203-0.121 0.562-0.138 0.683 0.057 0.259-0.325 0.341-0.471 0.747-0.081 0.21-0.098 0.586 0.081 0.763 0.227 0.179 0.309 0.179 0.406 0.179 0.105 0 0.228 0 0.584 0.228 0.276 0.115 0.617 0.285 1.088 0.325 0.479-0.016 1.081-0.626 1.301-1.494 0.373-1.575 0.543-1.381 1.128-2.322 0.285-0.471 0.797-1.496 1.219-2.543 0.211 0.446 0.414 0.798 0.576 0.901 0.487 0.334 0.52 0.179 0.642 0.546 0.122 0.373 1.535 2.41 1.705 2.702 0.171 0.294 0.666 0.959 0.935 1.22 0.268 0.276 1.04 0.747 1.064 0.933 0.023 0.212-1.689 4.249-2.015 5.002-0.162 0.407-0.479 1.244-0.568 1.552-0.106 0.3-1.234 0.788-1.746 1.243l-0.316 0.268c-0.235 0.122-4.93 2.98-5.441 3.339-0.033 0.098 0.309 0.38 0.309 0.38s-0.894 0.765-1.202 1.608c-0.471 1.227-0.512 1.6 0.463 1.958 0.967 0.373 1.112 0.315 1.551 0.261 0.447-0.066 0.739-0.164 0.788-0.018 0.048 0.154 0.057 0.203 0.057 0.203l-1.429 1.047s-0.309-0.081-0.618 0.18c-0.324 0.236-0.584 0.519-0.771 0.34-0.18-0.177-0.512-0.273-0.82-0.128-0.3 0.161-1.688 1.087-2.104 1.232-0.406 0.155-0.982 0.602-1.445 0.635-0.454 0.063-1.121 0.471-1.601 0.998-0.463 0.537-0.283 0.845 0.301 1.121 0.805 0.357 1.316-7e-3 2.021-0.356 0.7-0.357 0.829-0.667 1.316-0.813 0.779-0.236 0.845-0.422 0.845-0.422l1.583 0.194s1.129 0.154 1.723-0.171c0.592-0.315 0.966-0.683 1.282-0.698 0.301-0.015 1.917-0.455 2.713-0.576 0.787-0.122 1.697-0.537 2.176-0.861 0.472-0.35 1.462-0.78 1.714-1.015 0.26-0.228 0.382-0.194 0.382-0.194l0.446 0.055s0.073 0.31 0.203 0.318c0.065 7e-3 0.041-0.058 0.024-0.121-0.024-0.073-0.041-0.14 0.057-0.124 0.203 0.058 0.805 1.008 1.063 1.454 0.269 0.464 0.731 1.227 0.967 0.983 0.228-0.252 0.333-0.228 0.471-0.252 0.139-0.016 0.334-0.131 0.252-0.252-0.097-0.131-0.291-0.186-0.235-0.583 0.058-0.392 0.463-0.27 0.455-0.595-0.017-0.316-0.455 0-0.382-0.698 0.049-0.389 0.122-0.373 0.195-0.358 0.064 9e-3 0.114 0.018 0.146-0.177 0.049-0.439-0.544 0.08-0.406-0.828 0.082-0.495 0.195-0.439 0.285-0.382 0.064 0.039 0.114 0.088 0.104-0.138-0.015-0.528-0.324-0.139-0.356-0.537-0.033-0.397-0.146-0.527-0.365-0.455-0.212 0.073-0.106-0.455-0.106-0.455s-0.057-0.276 0.375-0.431c0.43-0.152-0.099-0.851 0.138-1.251 0.251-0.397 1.161-1.15 1.161-1.15s2.266-1.503 2.339-1.73c0.056-0.228 0.373 1.388 0.495 2.006 0.13 0.608 0.252 0.875 0.446 0.975 0.203 0.08 0.269 0.177 0.35 0.544 0.098 0.462 0.049 0.51-0.05 0.908-0.088 0.424 0.017 0.935 0.114 1.715 0.106 0.755-0.016 1.663-0.268 1.794-0.203 0.203-0.211 0.382-0.211 0.382s0 0.236-0.22 0.243c-0.553 0-1.307 0.819-1.722 1.065-0.292 0.105-0.496 0.13-0.617 0.233-0.162 0.155-0.114 0.358 0.187 0.416 0.22 0.024 0.479 0.03 0.805-0.106 0.535-0.203 0.608 0.106 0.543 0.316-0.112 0.309-0.227 0.975-0.08 1.022 0.154 0.075 0.293 0.115 0.293 0.115s-0.106 0.301 0.146 0.422c0.268 0.137 0.431 0.058 0.431 0.058s-0.154 0.228 0.049 0.301c0.194 0.079 0.543-0.033 0.543-0.033s0.122 0.243 0.553-0.04c0.431-0.301 1.219-0.723 1.032-1.138-0.155-0.568-0.366-0.893-0.431-1.673 0.023-0.016 0.13-0.082 0.179-0.553 0.049-0.462-0.236-0.552 0.162-1.372 0.252-0.537 0.495-1.169 0.592-1.478 0.155-0.513 0.204-1.585 0.123-1.795-0.074-0.212-0.276-1.016-0.236-1.016 0.041 0 0.31 0.024 0.171-0.325-0.146-0.34-0.105-1.056-0.203-1.706-0.024-0.194 0.041-3.523-0.049-3.8h-8e-3l-0.073-0.17c-0.163-0.276-1.186-2.811-1.186-3.136s-0.114-0.568-0.194-0.674c-0.065-0.098-0.049-0.21-0.049-0.21s0.235-0.446 0.527-0.446c0.316 0 0.617-0.122 0.918-0.473 0.308-0.356 0.194-0.471 0.194-0.471s0.91-0.796 1.162-1.258c0.194-0.203 0.227-0.203 0.227-0.285 0 0 0.122-0.097 0.105-0.333 0.139-0.316 0.017-0.884 0-0.933h-8e-3c-0.023-0.073 0-0.252-0.033-0.358-0.138-0.219-0.097-0.09-0.146-0.309-0.13-0.593-0.56-0.674-0.56-0.674l-0.358-0.219c-8e-3 0-0.608-0.383-0.868-0.325-9e-3 0-0.041-9e-3 -0.098-0.024-0.162-0.033-0.527-0.066-1.25 0.252l-0.351 0.146c-0.26 0.146-0.674 0.438-0.893 0.659-0.228 0.21-0.504 0.674-0.584 0.779-0.09 0.113-0.123 0.268-0.317 0.471-0.187 0.194-0.431 0.56-0.479 0.731-0.049 0.17-0.114 0.283-0.114 0.283s-0.405-0.268-0.584-0.626c-0.179-0.357-0.536-0.479-1.161-0.893-0.625-0.415-0.601-0.431-1.08-0.691l-0.374-0.17c-0.365-0.161-1.389-0.78-1.835-1.071-0.455-0.301-0.901-0.95-0.991-1.12-0.105-0.188-0.373-0.495-0.552-0.74-0.146-0.226-0.18-0.478-0.357-0.771-0.187-0.292-0.91-1.591-1.219-1.958-0.414-0.453-0.779-1.047-0.974-1.372-0.26-0.422-0.682-1.022-0.854-1.257-0.17-0.252-0.373-0.325-0.252-0.805 0.139-0.479 0.276-1.192 0.342-1.812-0.017-0.819-0.276-1.47-0.276-1.47s-0.341-1.047-0.373-1.372c-0.163-0.275-0.383-0.139-0.383-0.139s-0.219-0.276-0.471-0.17c-0.292 0.324 0.139 1.42 0 1.899-0.283-0.252-0.39-1.145-0.738-1.08-0.188 0.196-0.057 0.698-0.057 0.698 0.153 0.553 0.276 1.365 0.276 1.365s-0.049 1.057-0.123 1.267c-0.057 0.212-0.073 0.519-0.016 0.649-1.063-0.364-1.844-1.445-3.118-1.932-0.398-0.172-2.16-0.455-3.533-0.618-0.625-0.082-0.819-0.431-1.128-0.438l-0.05-0.261 0.317-0.389 0.244-0.504s0.187 0.112 0.252 0.082c0.088-0.058 0.356-0.57 0.438-0.95 0.05-0.237 0.089-0.805 0.017-0.944-0.114-0.13-0.301-0.015-0.301-0.015s0.358-0.901 0.187-1.552c-0.268-1.04-1.429-1.526-2.347-1.526-0.11 0-0.225 9e-3 -0.329 0.024"/></defs><clipPath id="SVGID_37_"><use id="use254" width="100%" height="100%" overflow="visible" xlink:href="#SVGID_36_"/></clipPath><linearGradient id="SVGID_38_" x1="-64.065" x2="-63.286" y1="329.76" y2="329.76" gradientTransform="matrix(0 58.807 58.807 0 -19250 3943.8)" gradientUnits="userSpaceOnUse"><stop id="stop257" stop-color="#F8DF3D" offset="0"/><stop id="stop259" stop-color="#F2CE30" offset=".2086"/><stop id="stop261" stop-color="#ECC026" offset=".4626"/><stop id="stop263" stop-color="#E9B722" offset=".7236"/><stop id="stop265" stop-color="#E8B421" offset="1"/></linearGradient><rect id="rect268" x="118.2" y="177.91" width="47.175" height="43.212" clip-path="url(#SVGID_37_)" fill="url(#SVGID_38_)"/></g></g></g></svg>
