<svg id="i" version="1.1" viewBox="0 0 464.83 286.9" xml:space="preserve" xmlns="http://www.w3.org/2000/svg">
<style id="j" type="text/css">
	.st0{fill:url(#b);}
	.st1{fill:url(#a);}
	.st2{opacity:0.4;fill:url(#g);}
	.st3{fill:url(#SVGID_4_);}
	.st4{fill:url(#SVGID_5_);}
	.st5{fill:url(#f);}
	.st6{fill:url(#e);}
	.st7{fill:url(#d);}
	.st8{fill:url(#c);}
	.st9{fill:url(#h);}
</style>
<g id="k" transform="translate(-133.84 -106)">
	<g id="l">
		<linearGradient id="b" x1="362.75" x2="369.54" y1="165.09" y2="310.54" gradientUnits="userSpaceOnUse">
			<stop id="m" stop-color="#B25695" offset=".005618"/>
			<stop id="n" stop-color="#B45A97" offset=".1454"/>
			<stop id="o" stop-color="#BA679E" offset=".2962"/>
			<stop id="p" stop-color="#C37DA9" offset=".4517"/>
			<stop id="q" stop-color="#CA8DB1" offset=".5428"/>
			<stop id="r" stop-color="#A534B9" offset="1"/>
		</linearGradient>
		<path id="s" class="st0" d="m522.2 174.3s6.5 51.3 2.5 97.3c-9.7 0.2-18 0.3-27.6 0.5 4.5-49.9-1.2-101.1-1.2-101.1l-21.4-2.6c2.6 34.6 3.6 69.2 0.3 103.8-10.8 0.4-16.4 0.7-26.2 1 1.6-43-0.6-72.6-2.5-108.3-7-0.9-15.6-1.9-22.7-2.7 1.4 40.2 0.8 76.3 1.3 120.6-19.5-51-39-100.5-58.6-151.7-19.5 51.2-57.9 152.8-58 151.7-0.7-5.9-2.2-85 0.5-120.6-6.2 0.7-19.7 2.6-21.2 2.7-2.2 40.9-1.8 67.5-1.8 67.5s-52.1 0.6-78.8 1.7c0-20.2 1.6-39.8 4.2-59.8-7.3 0.9-15.4 1.3-22.7 2.1 0 0-10.6 51.6-2.3 112.1 7.4 0.4 16.8 0.6 24 1 0 0-2.1-18.6-2.7-35.1 0 0 40.5-1.9 78.7-1.6 0.7 13 0.7 24.2 1.7 39.4l43.3 0.7 15-38h41.8l15.7 38c56.3-0.3 143.5-4.4 143.5-4.4 6.2-59.2-2.2-112.1-2.2-112.1zm-169.2 60.5 13.3-43.3 15 43.3h-28.3z" fill="url(#b)"/>
		<linearGradient id="a" x1="362.2" x2="373.76" y1="166.84" y2="414.46" gradientUnits="userSpaceOnUse">
			<stop id="t" stop-color="#B25695" offset=".005618"/>
			<stop id="u" stop-color="#B45A97" offset=".1454"/>
			<stop id="v" stop-color="#BA679E" offset=".2962"/>
			<stop id="w" stop-color="#C37DA9" offset=".4517"/>
			<stop id="x" stop-color="#CA8DB1" offset=".5428"/>
			<stop id="y" stop-color="#A534B9" offset="1"/>
		</linearGradient>
		<path id="z" class="st1" d="m593.5 208.3c-3.9-40.8-11.7-65.9-12-67l-1.8-5.8-213.7-26.5-213.4 25.5-1.8 5.9c-0.3 1.1-8 26.4-11.8 67.4-3.5 37.7-4.5 95.5 11.8 161.1l2.2 7.5 7.3 1c69.8 9.3 146.7 12.5 206 12.5 32.8 0 53.6-0.9 78.7-2.1 76.5-3.6 128.3-10.8 128.8-10.9l6.4-0.9 1.5-6.2c16.3-65.5 15.4-124 11.8-161.5zm-28.7 150.8c-16 2-60.6 7-120.9 9.9-68.4 3.2-171.1 4.2-275.8-9.1-14.2-60.5-13.5-114.5-10.3-149.6 2.6-28.1 7.1-48.7 9.5-58.3l198.7-23.9 199 24.7c2.4 9.4 7 29.9 9.7 57.9 3.3 34.7 4.1 88.1-9.9 148.4z" fill="url(#a)"/>
	</g>
		<radialGradient id="g" cx="369.14" cy="335.66" r="120.22" gradientTransform="matrix(1 0 0 .8 0 67.132)" gradientUnits="userSpaceOnUse">
		<stop id="aa" stop-color="#fff" stop-opacity=".7" offset="0"/>
		<stop id="ab" stop-color="#fff" stop-opacity=".4" offset="1"/>
	</radialGradient>
	<path id="ac" class="st2" d="m349.5 366.7c-3.3 0-5.4-0.7-6.7-2.3-1.8-2.1-1.6-4.9-1.1-7.7l4.6-26.7c-0.1 0-0.2 0.1-0.3 0.1-3.1 8.5-10.4 13.6-19.6 13.6-4.8 0-8.9-1.8-11.6-5-3 3.2-6.8 5-10.7 5-6.4 0-10.7-4.5-10.7-11.2 0-0.7 0-1.8 0.2-3.3h-4.6l-1 5.7c-0.5 2.6-0.3 3.9-0.2 4.1l1 2.4-2.4 1.3c-0.3 0.2-1.9 1-4.9 1-3.2 0-5.2-0.7-6.6-2.2l-0.2-0.2c-2.4 1.6-5 2.4-7.6 2.4-4.2 0-7.6-2-9.4-5.3-3.1 3.6-6.5 5.3-10.5 5.3-3.3 0-6.2-1.4-8-3.8-2.1 1.8-5.3 3.8-9.4 3.8-3.4 0-9.4-1.3-12-9.8l-0.6-1.9-0.5 3c-0.5 2.6-0.3 3.9-0.2 4.1l1 2.4-2.4 1.3c-0.3 0.2-1.9 1-4.9 1-3.3 0-5.4-0.7-6.7-2.3-1.8-2.1-1.6-4.9-1.1-7.7l3.5-20.2c0.5-2.6 0.3-3.9 0.2-4.1l-1-2.4 2.4-1.3c0.5-0.3 2-1 4.9-1 3.3 0 5.4 0.7 6.7 2.3 1.7 2 1.6 4.5 1.1 7.7l-0.6 3.5 2.5-5.2c2.9-5.9 5.9-8.3 10.3-8.3 4.3 0 7.3 3.1 7.3 7.5s-3.4 6.9-3.6 7l-3.6 2.6-1.1-4.3c0-0.1-0.1-0.1-0.3-0.1-0.7 0-1.5 1.4-1.9 2.2l-1.1 2.4c-0.1 0.3-0.2 0.5-0.4 0.8 1.2 1.1 2.1 2.5 2.7 4.2l0.8 2.4c0.8 2.6 1.4 2.6 2.1 2.6 1 0 2.8-1.2 4-3.4 0.1-1.2 0.3-2.6 0.6-4.2l1.9-10.9c0.5-2.6 0.3-3.9 0.2-4.1l-1-2.4 2.3-1.3c0.3-0.2 1.9-1 4.9-1 3.3 0 5.4 0.7 6.7 2.3 1.7 2 1.6 4.5 1.1 7.7l-2.6 15.2c-0.1 0.5-0.1 0.9-0.1 1.2 0.4-0.5 1-1.2 1.7-2.3 2.8-4.2 5.3-10.8 6.2-16.1 0.4-2.2 0.2-3.2 0.1-3.5l-1-2.3 2.3-1.3c0.3-0.2 1.9-1 4.9-1 3.3 0 5.4 0.7 6.7 2.3 1.7 2 1.6 4.5 1.1 7.7l-2.6 14.9c-0.2 1.3-0.1 2-0.1 2.3 0.7 0 2.5-1 3.8-3.4l2.6-15.1c0.5-2.6 0.3-3.9 0.2-4.1l-1-2.4 2.4-1.3c0.5-0.3 2-1 4.9-1 3.3 0 5.4 0.7 6.7 2.3 1.7 2 1.6 4.5 1.1 7.7l-0.9 5.1h4.5l1.1-6.4c0.5-2.6 0.3-3.8 0.2-4.1l-1-2.4 2.4-1.3c0.5-0.3 2-1 4.9-1 3.3 0 5.4 0.7 6.7 2.3 1.7 2 1.6 4.5 1.1 7.7l-2.6 14.9c-0.2 1.3-0.1 2-0.1 2.3 0.7 0 2.3-0.9 3.6-3v-0.9c0-14 8.5-23.4 21.3-23.4 8.9 0 14.9 6 15.1 15.1 0.2-0.1 0.3-0.3 0.5-0.4l1-5.9c0.5-2.6 0.3-3.9 0.2-4.1l-1-2.4 2.4-1.3c0.5-0.3 2-1 4.9-1 2.2 0 5 0.3 6.7 2.3 0.2 0.2 0.3 0.4 0.4 0.6 2.4-1.9 5.2-2.9 8.1-2.9 6.4 0 10.9 4 12.1 10.4 3.6-6.6 10.1-10.4 18.2-10.4 9 0 15.1 6.3 15.1 15.6 0 1.7-0.1 3.4-0.4 5h0.7c2.6 0 4.2 1 4.9 1.5l2.9-10c1.7-5.8 1.5-8.1 1.5-8.1l-0.3-2.5 2.5-0.7c0.1 0 2.8-0.7 5.2-0.7 5 0 8 3 8.1 8.2l0.1 5.9 2.1-4.6c2-4.3 2.4-6.4 2.4-6.4l0.2-1.4 1.2-0.7c0.5-0.3 2-1 5-1 3.3 0 5.4 0.7 6.7 2.3 1.7 2 1.6 4.5 1.1 7.7l-2.6 14.9c-0.2 1.3-0.1 2-0.1 2.3 0.3 0 0.9-0.2 1.6-0.8-0.1-0.6-0.1-1.2-0.1-1.8 0-16.2 9.7-24.6 19.3-24.6 2.5 0 4.8 0.6 6.7 1.9 1.5-1.3 3.6-1.9 6.3-1.9 2.9 0 4.5 0.9 4.9 1.1l2.7 1.7-1.8 2.5c-0.1 0.2-0.6 1.3-1 3.6l-2.8 16c-0.2 1.3-0.2 2-0.1 2.3 0.7 0 2.5-1 3.8-3.4l2.6-15.1c0.5-2.6 0.3-3.9 0.2-4.1l-1-2.4 2.3-1.3c0.3-0.2 1.9-1 4.9-1 3.3 0 5.4 0.7 6.7 2.3 1.7 2 1.6 4.5 1.1 7.7l-0.9 5.1h4.5l1.1-6.4c0.5-2.6 0.3-3.8 0.2-4.1l-1-2.4 2.4-1.3c0.5-0.3 2-1 4.9-1 3.3 0 5.4 0.7 6.7 2.3 1.7 2 1.6 4.5 1.1 7.7l-2.5 14.6c0 0.3-0.1 0.5-0.1 0.8h1.6c1.2 0 2.4 0.5 3.2 1.4 0.6 0.7 1.3 1.9 1.1 3.9-0.4 4-4.8 8.3-10.6 8.3-4.8 0-9.7-3.7-9.7-10.8 0-1.3 0.1-2.5 0.2-3.7h-4.6l-1 5.7c-0.5 2.6-0.3 3.9-0.2 4.1l1 2.4-2.4 1.3c-0.5 0.3-2 1-4.9 1-3.2 0-5.2-0.7-6.6-2.2l-0.2-0.2c-2.4 1.6-5 2.4-7.6 2.4-3.6 0-6.7-1.5-8.6-4.2-2.7 2.7-5.8 4.2-9.2 4.2-3.5 0-6.6-1.2-8.8-3.5-2.7 2.2-5.9 3.5-9.1 3.5-5.1 0-8.9-2.9-10.2-7.6-1.1 2.5-1.5 4.3-1.6 4.3l-0.3 1-0.8 0.6c-1.4 1.1-3.2 1.6-5.5 1.6-4.1 0-7-2.6-7.8-6.9-2.3 4.6-5.7 6.9-10.2 6.9-3.8 0-6.9-2.1-8.4-5.3-3.7 3.5-8.6 5.3-14.2 5.3-7.7 0-13.1-4.3-14.7-11.3-3.5 7-9.6 11.3-16.3 11.3-1.9 0-3.8-0.4-5.5-1.1l-2.7 15.4c-0.5 2.6-0.3 3.9-0.2 4.1l1 2.4-2.4 1.3c0.2 0.6-1.4 1.4-4.4 1.4zm0.7-41.4-5.5 31.9c-0.5 2.8-0.4 4.3 0.4 5.2 0.5 0.6 1.5 1.3 4.5 1.3 2.4 0 3.4-0.6 3.4-0.6-0.1-0.3-0.6-1.9 0.1-5.6l3.4-19.7 1.9 1.2c1.7 1.1 3.7 1.7 5.8 1.7 6.3 0 12.1-4.8 14.7-12.3l0.3-0.8 0.9-0.1c0.4-0.1 0.7-0.1 1.1-0.2l1.8-0.5v1.9c0.2 7.5 4.8 12.1 12.1 12.1 5.8 0 10.5-2.2 13.8-6.3l2.3-2.8 0.4 3.6c0.4 3.3 2.8 5.5 6.1 5.5 2.7 0 6.6-0.9 8.9-9l3.6-12.3 0.4 14.9c0.1 2.4 0.8 6.4 5.1 6.4 1.5 0 2.8-0.3 3.6-1 0 0 0.5-2.2 2-5.3l5.8-12.6-0.7 8.4c-0.1 0.9-0.1 1.7-0.1 2.3 0 5.1 3 8.2 7.7 8.2 2.9 0 5.8-1.3 8.2-3.7l1.2-1.2 1 1.4c1.7 2.3 4.4 3.5 7.5 3.5 3 0 5.9-1.6 8.2-4.7l1.6-2 1 2.3c1.2 2.8 3.7 4.3 7 4.3 2.5 0 4.9-1 7.1-2.8l1.6-1.3 0.7 2c0.1 0.3 0.3 0.6 0.5 0.9 0.5 0.6 1.5 1.2 4.4 1.2 2.3 0 3.4-0.6 3.4-0.6-0.1-0.3-0.6-1.9 0.1-5.6l1.4-8.2h10.6l-0.2 1.7c-0.2 1.7-0.3 3.3-0.3 5 0 5.3 3.5 7.8 6.7 7.8 4.4 0 7.4-3.3 7.6-5.6 0.1-0.7 0-1.2-0.3-1.6-0.3-0.3-0.6-0.4-0.9-0.4-0.2 0.7-1 1.8-2.5 1.8-0.7 0-1.2-0.2-1.6-0.7-0.7-0.9-0.9-2.7-0.4-5.5l2.5-14.6c0.5-2.8 0.4-4.3-0.4-5.2-0.5-0.6-1.5-1.3-4.5-1.3-2.3 0-3.4 0.6-3.4 0.6 0.1 0.3 0.6 1.9-0.1 5.6l-1.6 8.9h-10.5l1.5-8.6c0.5-2.8 0.4-4.3-0.4-5.2-0.5-0.6-1.5-1.3-4.5-1.3-2.4 0-3.4 0.6-3.4 0.6 0.1 0.4 0.6 2-0.1 5.7l-2.7 15.6-0.1 0.2c-1.7 3-4.4 5.1-6.6 5.1-1 0-1.7-0.3-2.3-0.9-0.8-1-1-2.6-0.6-4.9l2.8-16c0.3-1.9 0.7-3.1 1-3.8l-0.1-0.2 0.6-0.8s-1.1-0.7-3.3-0.7c-2.5 0-4 0.5-5 1.8l-1 1.1-1.2-1c-1.6-1.3-3.6-2-5.9-2-8.1 0-16.3 7.4-16.3 21.6 0 0.8 0 1.5 0.1 2.2l0.1 0.8-0.6 0.5c-1.4 1.3-2.9 2.1-4.3 2.1-1 0-1.7-0.3-2.2-0.9-0.8-0.9-1-2.6-0.6-4.9l2.6-14.9c0.5-2.8 0.4-4.3-0.4-5.2-0.5-0.6-1.5-1.3-4.4-1.3-2.3 0-3.4 0.6-3.4 0.6 0 0.3-0.5 2.6-2.6 7.2l-7.6 16.2-0.4-18.8c-0.1-3.5-1.7-5.2-5.1-5.2-2.1 0-4.5 0.6-4.5 0.6 0 0.1 0.3 2.5-1.6 9.2l-3.7 12.9c-0.9 3.1-1.9 4.5-3.2 4.5h-0.3l-0.3-0.1c-0.6-0.3-1-1-1-1.9v-0.8l0.6-0.5c0.1 0 0.1-0.1 0.2-0.2 0.4-0.4 0.7-1 0.6-1.4 0-0.1 0-0.2-0.1-0.3l-0.2-0.5-0.1-0.1s-1-0.9-3.1-0.9c-0.7 0-1.4 0.2-2 0.5l-2.9 1.4 0.8-3.2c0.6-2.1 0.8-4.3 0.8-6.7 0-7.8-4.6-12.6-12.1-12.6-9.2 0-15.8 5.6-17.7 14.9l-0.2 0.8-0.7 0.3c-0.1 0.1-0.3 0.1-0.4 0.2l-2.3 0.9 0.3-2.5c0.1-1.1 0.2-2.3 0.2-3.4 0-7-3.5-11.2-9.5-11.2-2.8 0-5.4 1.2-7.6 3.6l-2.1 2.2-0.5-3c-0.1-0.6-0.3-1.1-0.6-1.5-0.9-1.1-2.9-1.3-4.5-1.3-2.3 0-3.4 0.6-3.4 0.6 0.1 0.3 0.6 1.9-0.1 5.6l-1.2 6.9-0.4 0.3c-1.2 1.1-2.5 2-3.9 2.6l-2.2 0.9 0.2-2.4c0.1-0.7 0.1-1.3 0.1-2 0-7.8-4.6-12.6-12.1-12.6-10.9 0-18.3 8.2-18.3 20.4v1.6l-0.2 0.4c-1.6 2.9-4.3 4.9-6.4 4.9-1 0-1.7-0.3-2.2-0.9-0.8-0.9-1-2.6-0.6-4.9l2.6-14.9c0.5-2.8 0.4-4.3-0.4-5.2-0.5-0.6-1.5-1.3-4.5-1.3-2.4 0-3.4 0.6-3.4 0.6 0.1 0.4 0.6 2-0.1 5.7l-1.6 8.9h-10.5l1.5-8.6c0.5-2.8 0.4-4.3-0.4-5.2-0.5-0.6-1.5-1.3-4.5-1.3-2.4 0-3.4 0.6-3.4 0.6 0.1 0.4 0.6 2-0.1 5.7l-2.7 15.6-0.1 0.2c-1.7 3-4.4 5.1-6.6 5.1-1 0-1.7-0.3-2.2-0.9-0.8-0.9-1-2.6-0.6-4.9l2.6-14.9c0.5-2.8 0.4-4.3-0.4-5.2-0.5-0.6-1.5-1.3-4.5-1.3-2.4 0-3.4 0.6-3.4 0.6v0.1c0.1 0.3 0.5 1.7 0 4.9-1 5.6-3.7 12.7-6.7 17.2-1.9 2.9-3.5 4.4-4.9 4.4-0.7 0-1.3-0.2-1.7-0.7-0.7-0.9-0.9-2.5-0.5-4.8l2.6-15.2c0.5-2.8 0.4-4.3-0.4-5.2-0.5-0.6-1.5-1.3-4.5-1.3-2.4 0-3.4 0.6-3.4 0.6 0.2 0.5 0.6 2.1-0.1 5.7l-1.9 10.9c-0.3 1.6-0.5 3-0.6 4.2v0.3l-0.1 0.3c-1.7 3.2-4.4 5.2-6.8 5.2-2.5 0-3.9-1.4-4.9-4.7l-0.7-2.3c-0.5-1.6-1.4-2.8-2.6-3.5l-1.4-0.9 1-1.3c0.3-0.5 0.6-1 0.9-1.5l1.1-2.4c1.3-2.7 2.7-4 4.6-4 1.8 0 2.8 1.3 3.1 2.3v0.1c0.1-0.1 2.3-1.7 2.3-4.5s-1.6-4.5-4.3-4.5c-2.6 0-4.8 1.1-7.6 6.7l-2.6 5.2c-1.3 2.5-2.6 3.8-4 3.8h-2.6l1.6-9.2c0.5-2.8 0.4-4.3-0.4-5.2-0.5-0.6-1.5-1.3-4.5-1.3-2.3 0-3.4 0.6-3.4 0.6 0.1 0.3 0.6 1.9-0.1 5.6l-3.5 20.2c-0.5 2.8-0.4 4.3 0.4 5.2 0.5 0.6 1.5 1.3 4.5 1.3 2.4 0 3.4-0.6 3.4-0.6-0.1-0.4-0.6-2 0.1-5.7l1.3-7.8h1.4c1.7 0 2.6 0.9 3.2 2.9l1 3.5c1.6 5.1 4.6 7.7 9.2 7.7 4.1 0 7.2-2.6 8.6-4.2l1.5-1.6 0.9 2c1.2 2.4 3.5 3.8 6.4 3.8 3.5 0 6.5-1.8 9.3-5.6 0.2-0.2 0.3-0.4 0.5-0.7l1.9-2.7 0.8 3.3c0.8 3.6 3.6 5.7 7.4 5.7 2.5 0 4.9-1 7.1-2.8l1.6-1.3 0.7 2c0.1 0.3 0.3 0.6 0.5 0.9 0.5 0.6 1.5 1.2 4.4 1.2 2.4 0 3.4-0.6 3.4-0.6-0.1-0.4-0.6-2 0.1-5.7l1.4-8.2h10.6l-0.2 1.7c-0.3 2.2-0.3 3.8-0.3 4.6 0 5.1 3 8.2 7.7 8.2 3.5 0 7.1-2 9.6-5.3l1.3-1.8 1.2 1.9c2.1 3.4 5.7 5.2 10.2 5.2 8.2 0 14.4-4.5 17-12.3l0.3-0.8 0.9-0.2c1-0.2 2.1-0.5 3.1-0.9zm45.6 12c-1.3 0-4.3-0.6-4.3-6.5 0-1.7 0.3-5.1 0.6-6.8 1.6-8.5 4.6-13.2 8.6-13.2 2.4 0 4 1.8 4.3 5.1v0.1c0.1 0.3 0.6 3.6-1.1 10.5-2.3 8.9-5.7 10.8-8.1 10.8zm4.8-23.4c-1.7 0-4.1 2.8-5.6 10.7-0.3 1.5-0.5 4.7-0.5 6.2 0 1.3 0.2 3.5 1.3 3.5 1.5 0 3.6-2.2 5.1-8.5s1-9.2 1-9.2v-0.2c-0.3-2.5-1-2.5-1.3-2.5zm-73.5 23.4c-1.3 0-4.3-0.6-4.3-6.5 0-1.7 0.3-5.1 0.6-6.8 1.6-8.5 4.6-13.2 8.6-13.2 2.4 0 4 1.8 4.3 5 0 0.6 0.3 5.3-0.9 9.7-1.4 5.2-3.7 11.8-8.3 11.8zm4.8-23.4c-1.7 0-4.1 2.8-5.6 10.7-0.3 1.5-0.5 4.7-0.5 6.2 0 1.3 0.2 3.5 1.3 3.5s3.2-1.2 5.3-9.4c1.1-4 0.8-8.5 0.8-8.7-0.3-2.3-1-2.3-1.3-2.3zm30.2 22.2c-1.9 0-3.5-0.8-4.6-2.3l-0.4-0.5 0.5-2.5c1.3-6.6 3.4-10.5 4.9-12.9 2.3-3.6 4.2-5.2 6.1-5.2 1.8 0 2.8 1.1 3.2 3.3 0 0.1 0.7 3.5-0.9 9.6-1.6 6.3-5.1 10.5-8.8 10.5zm-1.8-3.6c0.5 0.4 1.1 0.6 1.8 0.6 1.8 0 4.5-2.9 5.9-8.2s0.8-8.3 0.8-8.3c-0.1-0.5-0.2-0.7-0.2-0.9-0.2 0-1.3 0.2-3.6 3.8-1.3 2.2-3.3 5.7-4.5 11.8zm114.2 2.4c-1.8 0-3.9-0.9-3.9-5.5 0-10.3 4.9-17.3 9.6-17.3 2.2 0 3.4 1.4 4.1 2.7l0.3 0.5-0.6 3.1c-1.1 5.7-4.5 16.5-9.5 16.5zm5.7-19.8c-2.3 0-6.6 4.9-6.6 14.3 0 2.5 0.6 2.5 0.9 2.5 1.5 0 4.9-5.9 6.5-14l0.4-2c-0.5-0.8-0.9-0.8-1.2-0.8z" fill="url(#g)" opacity=".4"/>
	<path id="ad" d="m532 333s-0.6 1.8-2.5 1.8c-1.7 0-2.8-1.4-2-6.1l2.5-14.6c0.8-4.6 0.2-6.5-4.9-6.5-2.4 0-3.4 0.6-3.4 0.6s0.7 1.5-0.1 5.7l-1.6 8.9h-10.5l1.5-8.6c0.8-4.6 0.2-6.5-4.9-6.5-2.4 0-3.4 0.6-3.4 0.6s0.7 1.5-0.1 5.7l-2.7 15.6c-1.7 3.3-4.6 5.3-6.7 5.3-2.4 0-3.6-1.8-2.8-5.8l2.8-16c0.7-3.6 1.5-4.7 1.5-4.7s-1.1-0.7-3.3-0.7c-3.2 0-4.9 0.9-5.9 3.2-1.5-1.9-3.8-3.2-7.1-3.2-7.7 0-16.3 6.9-16.3 21.6 0 1.1 0.1 2 0.2 3-1.5 1.7-3.3 2.6-4.8 2.6-2.4 0-3.5-1.8-2.8-5.8l2.6-14.9c0.8-4.6 0.2-6.5-4.9-6.5-2.4 0-3.4 0.6-3.4 0.6s-0.3 2.3-2.6 7.2l-7.6 16.2-0.4-18.8c-0.1-3.8-2.1-5.2-5.1-5.2-2.1 0-4.5 0.6-4.5 0.6s0.3 2.4-1.6 9.2l-3.7 12.9c-1 3.3-2 4.5-3.2 4.5-0.9 0-1.6-0.7-1.6-2 0-0.3 0-0.6 0.1-0.9 0.3-0.2 0.6-0.3 0.7-0.5 0.7-0.7 0.9-1.7 0.2-2.2 0-0.1 0.1-0.1 0.1-0.1s-1-0.9-3.1-0.9c-1.1 0-2.2 0.4-3 1.1-0.6-0.2-1.1-0.4-1.6-0.6 0.9-2.6 1.4-5.4 1.4-8.4 0-7.5-4.4-12.6-12.1-12.6-9.7 0-16.2 6.3-17.8 15.6-1 0.5-2.2 1-3.5 1.1 0.3-1.7 0.5-3.6 0.5-5.5 0-6.9-3.4-11.2-9.5-11.2-4.2 0-7.8 2.7-10.6 7.7l0.2-1.2c0.8-4.7 0.2-6.5-4.9-6.5-2.4 0-3.4 0.6-3.4 0.6s0.7 1.5-0.1 5.7l-1.2 6.9c-1.3 1.3-3.6 3.1-6.6 3.6 0.2-1.3 0.3-2.7 0.3-4.2 0-7.5-4.4-12.6-12.1-12.6-11.3 0-18.3 8.4-18.3 20.4 0 0.5 0 1.1 0.1 1.6-1.7 3.3-4.5 5.3-6.7 5.3-2.4 0-3.5-1.9-2.8-5.8l2.6-14.9c0.8-4.6 0.2-6.5-4.9-6.5-2.4 0-3.4 0.6-3.4 0.6s0.7 1.5-0.1 5.7l-1.6 8.9h-10.5l1.5-8.6c0.8-4.6 0.2-6.5-4.9-6.5-2.4 0-3.4 0.6-3.4 0.6s0.7 1.5-0.1 5.7l-2.7 15.6c-1.7 3.3-4.6 5.4-6.7 5.4-2.4 0-3.5-1.8-2.8-5.8l2.6-14.9c0.8-4.6 0.2-6.5-4.9-6.5-2.4 0-3.4 0.6-3.4 0.6s0.6 1.4 0 5c-1 5.9-3.8 12.9-6.7 17.2-1.7 2.6-3.4 4.4-4.9 4.4-1.9 0-2.8-1.7-2.2-5.5l2.6-15.2c0.8-4.6 0.2-6.5-4.9-6.5-2.4 0-3.4 0.6-3.4 0.6s0.7 1.5-0.1 5.7l-1.9 10.9c-0.3 1.8-0.5 3.2-0.6 4.5-1.5 2.9-4.2 5.5-6.9 5.5s-4-1.6-4.9-4.7l-0.7-2.3c-0.7-2.1-2-3.7-4.5-4.3 1-0.7 1.8-1.8 2.3-3l1.1-2.4c1.2-2.5 2.6-4 4.6-4 2.6 0 3.2 2.4 3.2 2.4s2.3-1.6 2.3-4.5c0-2.7-1.6-4.5-4.3-4.5-2.8 0-4.9 1.3-7.6 6.7l-2.6 5.3c-0.8 1.6-2.1 3.8-4 3.8h-2.6l1.6-9.2c0.8-4.6 0.2-6.5-4.9-6.5-2.4 0-3.4 0.6-3.4 0.6s0.7 1.5-0.1 5.7l-3.5 20.2c-0.8 4.6-0.2 6.5 4.9 6.5 2.4 0 3.4-0.6 3.4-0.6s-0.7-1.5 0.1-5.7l1.3-7.8h1.4c1.8 0 2.6 1 3.2 2.8l1.1 3.5c1.6 5.2 4.7 7.7 9.2 7.7s8.3-3.3 10.3-6.4c0.5 3.9 3.1 6.4 7.1 6.4 3.6 0 6.5-1.8 9.3-5.6 1.1-1.4 2-3 3-4.9-0.1 0.9-0.1 1.6-0.1 2.2 0 5.3 3.2 8.2 7.7 8.2 3.9 0 7.2-2.4 9.3-5-0.4 3.5 0.6 5 5.1 5 2.4 0 3.4-0.6 3.4-0.6s-0.7-1.5 0.1-5.7l1.4-8.2h10.6c-0.5 2.8-0.6 4.9-0.6 6.3 0 5.3 3.2 8.2 7.7 8.2 5.2 0 9.3-4.1 11-7.6 1.7 4.9 6 7.6 11.3 7.6 9 0 15-5.3 17.3-13.2 2.5-0.3 4.8-1.3 6.6-2.5l-5.6 32.2c-0.8 4.6-0.2 6.5 4.9 6.5 2.4 0 3.4-0.6 3.4-0.6s-0.7-1.5 0.1-5.7l3.5-20c1.8 2 4.5 3.2 7.6 3.2 6.4 0 12.5-4.9 15-13.2 1.4-0.1 2.7-0.5 3.9-1 0 0.5-0.1 1-0.1 1.5 0 8.2 5.1 12.6 12.1 12.6 7.2 0 12.7-3.5 15.6-9 0.4 0.1 0.8 0.3 1.1 0.4-0.2 0.7-0.3 1.4-0.3 2.2 0 3.6 2.4 6.4 6.2 6.4 4.3 0 7.1-2.8 8.9-9l3.6-12.3 0.4 14.9c0.1 4.3 2 6.4 5.1 6.4 1.5 0 2.8-0.3 3.6-1 0 0 0.5-2.2 2-5.3l6.7-14.4-1.1 6.3c-0.4 2.4-0.6 4.9-0.6 6.3 0 5.3 3.2 8.2 7.7 8.2 4 0 7.3-2.4 9.4-5.1 1.7 3.5 4.8 5.1 8.4 5.1 3.8 0 7.4-2.6 10.1-7.4 0.3 4.7 3.4 7.4 7.7 7.4 3.9 0 7.2-2.3 9.3-5-0.4 3.5 0.6 5 5.1 5 2.4 0 3.4-0.6 3.4-0.6s-0.7-1.5 0.1-5.7l1.4-8.2h10.6c-0.5 2.6-0.6 4.8-0.6 6.7 0 5.1 3.2 7.8 6.7 7.8 4 0 7.4-3 7.6-5.7 0.1-1.3-0.3-2.1-1.3-2.1zm-196.7-7.4c-2.1 7.8-4.7 11.7-8.2 11.7-2.8 0-4.3-2.3-4.3-6.5 0-1.6 0.3-5.1 0.6-6.8 1.8-9.8 5.3-13.2 8.6-13.2 2.4 0 4 1.8 4.3 5.1-0.1 0.1 0.3 5-1 9.7zm35.7 0c-1.6 6.3-5.2 10.5-8.8 10.5-2.6 0-4.2-1.4-5-2.8l0.5-2.5c1.2-6 3-9.9 4.9-12.8 2.2-3.6 4.2-5.2 6.1-5.2 1.7 0 2.8 1 3.2 3.2-0.1 0 0.7 3.4-0.9 9.6zm32.8 0.9c-1.8 7.3-4.6 10.8-8 10.8-2.8 0-4.3-2.3-4.3-6.5 0-1.6 0.3-5.1 0.6-6.8 1.8-9.8 5.3-13.2 8.6-13.2 2.4 0 4 1.8 4.3 5.1-0.1 0.1 0.6 3.3-1.2 10.6zm80.2-8.1c-1.3 6.6-4.7 16.5-9.4 16.5-2.4 0-3.9-1.8-3.9-5.5 0-10.6 5.1-17.3 9.6-17.3 2.5 0 3.8 1.8 4.3 3.2z"/>
	<g id="ae">
		<path id="af" class="st3" d="m522.2 174.3s6.5 51.3 2.5 97.3c-9.7 0.2-18 0.3-27.6 0.5 4.5-49.9-1.2-101.1-1.2-101.1l-21.4-2.6c2.6 34.6 3.6 69.2 0.3 103.8-10.8 0.4-16.4 0.7-26.2 1 1.6-43-0.6-72.6-2.5-108.3-7-0.9-15.6-1.9-22.7-2.7 1.4 40.2 0.8 76.3 1.3 120.6-19.5-51-39-100.5-58.6-151.7-19.5 51.2-57.9 152.8-58 151.7-0.7-5.9-2.2-85 0.5-120.6-6.2 0.7-19.7 2.6-21.2 2.7-2.2 40.9-1.8 67.5-1.8 67.5s-52.1 0.6-78.8 1.7c0-20.2 1.6-39.8 4.2-59.8-7.3 0.9-15.4 1.3-22.7 2.1 0 0-10.6 51.6-2.3 112.1 7.4 0.4 16.8 0.6 24 1 0 0-2.1-18.6-2.7-35.1 0 0 40.5-1.9 78.7-1.6 0.7 13 0.7 24.2 1.7 39.4l43.3 0.7 15-38h41.8l15.7 38c56.3-0.3 143.5-4.4 143.5-4.4 6.2-59.2-2.2-112.1-2.2-112.1zm-169.2 60.5 13.3-43.3 15 43.3h-28.3z" fill="url(#b)"/>
		<path id="ag" class="st4" d="m593.5 208.3c-3.9-40.8-11.7-65.9-12-67l-1.8-5.8-213.7-26.5-213.4 25.5-1.8 5.9c-0.3 1.1-8 26.4-11.8 67.4-3.5 37.7-4.5 95.5 11.8 161.1l2.2 7.5 7.3 1c69.8 9.3 146.7 12.5 206 12.5 32.8 0 53.6-0.9 78.7-2.1 76.5-3.6 128.3-10.8 128.8-10.9l6.4-0.9 1.5-6.2c16.3-65.5 15.4-124 11.8-161.5zm-28.7 150.8c-16 2-60.6 7-120.9 9.9-68.4 3.2-171.1 4.2-275.8-9.1-14.2-60.5-13.5-114.5-10.3-149.6 2.6-28.1 7.1-48.7 9.5-58.3l198.7-23.9 199 24.7c2.4 9.4 7 29.9 9.7 57.9 3.3 34.7 4.1 88.1-9.9 148.4z" fill="url(#a)"/>
	</g>
	<g id="ah">
		<linearGradient id="f" x1="362.78" x2="369.57" y1="164.43" y2="309.89" gradientUnits="userSpaceOnUse">
			<stop id="ai" stop-color="#B25695" offset=".005618"/>
			<stop id="aj" stop-color="#B45A97" offset=".1454"/>
			<stop id="ak" stop-color="#BA679E" offset=".2962"/>
			<stop id="al" stop-color="#C37DA9" offset=".4517"/>
			<stop id="am" stop-color="#CA8DB1" offset=".5428"/>
			<stop id="an" stop-color="#A534B9" offset="1"/>
		</linearGradient>
		<path id="ao" class="st5" d="m522.2 173.7s6.5 51.3 2.5 97.3c-9.7 0.2-18 0.3-27.6 0.5 4.5-49.9-1.2-101.1-1.2-101.1l-21.4-2.6c2.6 34.6 3.6 69.2 0.3 103.8-10.8 0.4-16.4 0.7-26.2 1 1.6-43-0.6-72.6-2.5-108.3-7-0.9-15.6-1.9-22.7-2.7 1.4 40.2 0.8 76.3 1.3 120.6-19.5-51-39-100.5-58.6-151.7-19.5 51.2-57.9 152.8-58 151.7-0.7-5.9-2.2-85 0.5-120.6-6.2 0.7-19.7 2.6-21.2 2.7-2.2 40.9-1.8 67.5-1.8 67.5s-52.1 0.6-78.8 1.7c0-20.2 1.6-39.8 4.2-59.8-7.3 0.9-15.4 1.3-22.7 2.1 0 0-10.6 51.6-2.3 112.1 7.4 0.4 16.8 0.6 24 1 0 0-2.1-18.6-2.7-35.1 0 0 40.5-1.9 78.7-1.6 0.7 13 0.7 24.2 1.7 39.4l43.3 0.7 15-38h41.8l15.7 38c56.3-0.3 143.5-4.4 143.5-4.4 6.2-59.2-2.2-112.1-2.2-112.1zm-169.2 60.4 13.3-43.3 15 43.3h-28.3z" fill="url(#f)"/>
		<linearGradient id="e" x1="362.2" x2="373.76" y1="165.84" y2="413.46" gradientUnits="userSpaceOnUse">
			<stop id="ap" stop-color="#B25695" offset=".005618"/>
			<stop id="aq" stop-color="#B45A97" offset=".1454"/>
			<stop id="ar" stop-color="#BA679E" offset=".2962"/>
			<stop id="as" stop-color="#C37DA9" offset=".4517"/>
			<stop id="at" stop-color="#CA8DB1" offset=".5428"/>
			<stop id="au" stop-color="#A534B9" offset="1"/>
		</linearGradient>
		<path id="av" class="st6" d="m593.5 207.3c-3.9-40.8-11.7-65.9-12-67l-1.8-5.8-213.7-26.5-213.4 25.5-1.8 5.9c-0.3 1.1-8 26.4-11.8 67.4-3.5 37.7-4.5 95.5 11.8 161.1l2.2 7.5 7.3 1c69.8 9.3 146.7 12.5 206 12.5 32.8 0 53.6-0.9 78.7-2.1 76.5-3.6 128.3-10.8 128.8-10.9l6.4-0.9 1.5-6.2c16.3-65.5 15.4-124 11.8-161.5zm-28.7 150.8c-16 2-60.6 7-120.9 9.9-68.4 3.2-171.1 4.2-275.8-9.1-14.2-60.5-13.5-114.5-10.3-149.6 2.6-28.1 7.1-48.7 9.5-58.3l198.7-23.9 199 24.7c2.4 9.4 7 29.9 9.7 57.9 3.3 34.7 4.1 88.1-9.9 148.4z" fill="url(#e)"/>
	</g>
	<g id="aw">
		<radialGradient id="d" cx="367.15" cy="209.84" r="23.634" gradientUnits="userSpaceOnUse">
			<stop id="ax" stop-opacity=".3" offset="0"/>
			<stop id="ay" stop-opacity=".2" offset="1"/>
		</radialGradient>
		<path id="az" class="st7" d="m385.4 237.8-19.4-56-17.2 56zm-19-36.6 10.6 30.6h-20z" fill="url(#d)"/>
		<radialGradient id="c" cx="366.26" cy="249.6" r="174.66" gradientUnits="userSpaceOnUse">
			<stop id="ba" stop-opacity=".3" offset="0"/>
			<stop id="bb" stop-opacity=".2" offset="1"/>
		</radialGradient>
		<path id="bc" class="st8" d="m567.9 152-0.5-2-200.1-24.8-2-0.1-200.3 24-0.5 2c-2.5 9.8-7 30.6-9.6 58.7-3.2 34.9-4 89.4 10.3 150.5l0.5 2 2.1 0.3c58.2 7.6 122 11.4 189.5 11.4 28.7 0 57.8-0.7 86.7-2.1 60.2-2.8 104.8-7.9 121.1-9.9l2.1-0.3 0.5-2c14.2-60.8 13.2-114.8 10-149.3-2.7-28-7.3-48.6-9.8-58.4zm-201.7-12.5c8.9 23.2 17.8 46.2 26.5 68.7 9.6 24.7 28.4 73.6 28.4 73.6s1.2 4.7 6.2 3.9c0.2-13.6 0.2-32.4 0.2-46.2-0.1-25.1-0.1-48.8-1-73.9 2.5 0.3 5.2 0.6 7.8 0.9 3 0.4 6 0.7 8.9 1.1 0.2 3.2 0.3 6.3 0.5 9.3 1.7 31.2 3.2 58.2 1.8 96.2l-0.1 3.2 3.2-0.1c6-0.2 10.4-0.4 15.4-0.6 3.2-0.1 6.6-0.3 10.8-0.4l2.6-0.1 0.3-2.6c2.8-29.3 2.8-61.3 0-100.7l15.4 1.9c1 10.6 4.8 55.1 0.9 98.1l-0.3 3.3 3.3-0.1c4.8-0.1 9.2-0.2 13.7-0.2 4.5-0.1 9-0.2 13.9-0.2h2.7l0.2-2.7c3.4-38.7-0.7-81.5-2.1-94.2l16.8 1.6c1.5 10.6 7 56.2 2.1 106.5-12.6 0.6-72.7 3.1-120.2 4.1-6.4 0.1-12.7 0.2-18.6 0.2l-15.5-38.1h-45.8l-15 38-38.5-0.6c-0.5-7.6-0.7-14.3-0.9-20.8-0.2-5.3-0.3-10.3-0.6-15.8l-0.2-2.8h-10.1c-35.5 0-71.2 1.6-71.5 1.7l-3 0.1 0.1 3c0.4 12.2 1.7 25.6 2.3 31.8-2.7-0.1-5.6-0.2-8.4-0.3-3.2-0.1-6.5-0.2-9.6-0.4-6.6-51.4 0.4-96.4 2.2-106.5 2.9-0.3 6-0.6 9-0.8 2.5-0.2 5.1-0.4 7.7-0.7-2.6 20.8-3.8 38.8-3.8 56.4v3.1l3.1-0.1c26.3-1.1 78.2-1.7 78.7-1.7h3v-3c0-0.3-0.4-25.9 1.7-64.8 1-0.1 2.2-0.3 3.7-0.5 3.5-0.5 7.8-1 11.4-1.5-2.3 37.2-1 111.2-0.3 117.5l0.3 2.7c3.2 0 5.2-1.1 6.7-4.8 0.8-1.9 1.8-4.7 3.2-8.2 2.5-6.5 6.1-15.8 10.8-28.2 8.7-22.9 19.9-52.4 29.8-78.3 3.7-9.8 7.1-18.9 10.2-27zm196.1 216.8c-17.8 2.2-61 6.9-118.6 9.6-28.7 1.4-57.8 2-86.4 2-66.4 0-129.3-3.7-186.8-10.9-13.7-59.5-12.9-112.5-9.7-146.6 2.4-26 6.4-45.5 8.9-55.8l193.1-23.1c-3.6 9.5-7.9 20.7-12.4 32.6-13.7 36.1-31.2 82.3-39.8 104.4-0.6-25.4-1-78.6 1-106.1l0.3-3.6-3.6 0.4c-3.8 0.5-10.3 1.3-15.1 1.9-3 0.4-5.5 0.7-6 0.8l-2.5 0.3-0.1 2.5c-1.8 32.7-1.9 56.6-1.8 64.7-11 0.1-49.5 0.6-72.8 1.5 0.1-17.4 1.5-35.4 4.2-56.3l0.5-3.8-3.8 0.5c-3.6 0.4-7.5 0.8-11.3 1.1s-7.8 0.6-11.4 1.1l-2.1 0.3-0.4 2.1c-0.1 0.5-10.6 52.8-2.4 113.1l0.3 2.4 2.5 0.1c3.7 0.2 8 0.4 12.2 0.5 4.1 0.1 8.3 0.3 11.8 0.5l3.6 0.2-0.4-3.5c0-0.2-1.9-16.5-2.5-31.9 9.7-0.4 41.8-1.6 72.8-1.5 0.2 4.3 0.3 8.5 0.5 12.8 0.2 7.3 0.5 14.9 1.1 23.8l0.2 2.8 48.1 0.8 15-38h37.7l15.7 38h2l24.2-0.3c53.6-1 118.6-4.1 119.4-4.1l2.6-0.1 0.3-2.6c6.2-58.9-2.1-112.4-2.2-112.9l-0.4-2.3-28.9-2.7 0.5 3.7c0.1 0.5 6.2 49.5 2.7 93.9-3.9 0.1-7.5 0.1-11.2 0.2-3.4 0.1-6.8 0.1-10.4 0.2 4-48.6-1.4-97.8-1.5-98.3l-0.3-2.4-27.4-3.3 0.3 3.6c3 39.5 3.2 71.6 0.5 100.7-3.1 0.1-5.7 0.2-8.2 0.3-4 0.2-7.7 0.3-12.1 0.5 1.2-36.6-0.3-63.1-1.9-93.6-0.2-3.9-0.4-7.8-0.6-11.8l-0.1-2.5-2.5-0.3c-3.5-0.4-7.5-0.9-11.4-1.4s-7.8-0.9-11.3-1.4l-3.5-0.4 0.1 3.5c0.9 26.3 1 51 1.1 77.2 0 8.7 0.1 17.5 0.1 26.7-7.8-20.3-15.6-40.5-23.3-60.2-9.4-24.2-19.1-49.3-28.7-74.3l192.9 23.9c2.5 10.2 6.6 29.6 9.1 55.5 3.1 33.7 4 86.2-9.5 145.3z" fill="url(#c)"/>
		<radialGradient id="h" cx="366.22" cy="249.49" r="193.15" gradientUnits="userSpaceOnUse">
			<stop id="bd" stop-opacity=".3" offset="0"/>
			<stop id="be" stop-opacity=".2" offset="1"/>
		</radialGradient>
		<path id="bf" class="st9" d="m596.5 208c-3.9-41.1-11.8-66.5-12.1-67.6l-2.4-7.7-215.6-26.7h-0.4l-213.8 25.6-1.9 0.2-2.4 7.8c-0.3 1.1-8.1 26.7-11.9 68-5.1 55.2-1.2 109.7 11.9 162.1l2.7 9.4 9.3 1.3c81.8 10.9 164.4 12.5 206.4 12.5 32.4 0 53.1-0.9 78.9-2.1 77.2-3.7 128.6-10.8 129.1-10.9l8.4-1.2 2-8.2c16.3-65.9 15.4-124.7 11.8-162.5zm-17.7 161.2-1.1 4.3-4.3 0.6c-0.5 0.1-51.6 7.2-128.5 10.8-25.7 1.2-46.3 2.1-78.6 2.1-41.8 0-124.1-1.6-205.6-12.5l-5.4-0.8-1.6-5.5c-12.8-51.7-16.8-105.5-11.7-160 3.8-40.7 11.4-65.7 11.7-66.8l1.2-4 211.1-25.3 211.4 26.2 1.2 4c0.3 1 8 25.9 11.9 66.4 3.6 37.2 4.4 95.3-11.7 160.5z" fill="url(#h)"/>
	</g>
</g>
</svg>
