<svg id="a" version="1.1" viewBox="0 0 253.99 134.98" xmlns="http://www.w3.org/2000/svg">
 <g id="b" transform="translate(187.08 -144.66)" fill="#fff">
  <path id="c" d="m-129.6 184.75c-1.95-1.48-8.005-0.667-10.246 0.313-2.45 1.07-3.215 1.43-4.085 1.465s-1.634-0.394-4.085-1.465c-2.24-0.98-8.295-1.794-10.245-0.314 0 0 2.724-0.633 4.915 0.59 0.132 0.073 0.26 0.15 0.386 0.233-1.063 0.353-1.83 1.347-1.83 2.518 0 1.467 1.2 2.655 2.682 2.655 0.624 0 1.198-0.21 1.653-0.563-0.028 0.36-0.104 0.722-0.232 1.08-2.492 6.948-12.92 17.984-2.554 22.45 0.27 0.58 0.924 4.136 1.377 5.16s1.79 3.32 4.237 3.614c1.49 0.18 6.282 0.207 7.774 0.027 2.446-0.293 3.404-2.62 3.857-3.643 0.455-1.022 1.11-4.58 1.38-5.16 10.58-4.557-0.065-15.505-2.557-22.45-0.128-0.357-0.204-0.72-0.232-1.08 0.457 0.354 1.03 0.564 1.654 0.564 1.48 0 2.68-1.188 2.68-2.654 0-1.17-0.765-2.165-1.827-2.518 0.125-0.082 0.254-0.16 0.386-0.234 2.19-1.22 4.915-0.59 4.915-0.59zm-7.547 2.88c0.336 0 0.608 0.27 0.608 0.6 0 0.332-0.272 0.6-0.607 0.6s-0.605-0.268-0.605-0.6 0.27-0.6 0.606-0.6zm-16.948 0.562c0-0.332 0.27-0.6 0.606-0.6 0.335 0 0.607 0.268 0.607 0.6 0 0.33-0.27 0.6-0.607 0.6-0.334 0-0.606-0.27-0.606-0.6zm2.03 1.953c-0.84 0-1.568-0.47-1.934-1.157 0.4 0.522 1.03 0.86 1.743 0.86 1.208 0 2.186-0.97 2.186-2.165 0-0.363-0.09-0.705-0.25-1.006 0.278 0.362 0.442 0.814 0.442 1.305 0 1.195-0.978 2.163-2.185 2.163zm1.62 28.303c-0.31-0.042-0.758-1.204-1.004-2.18-0.247-0.975-0.59-2.152-0.59-2.152 0.64 0.183 1.218 0.234 1.948 0.462-0.106 0.56-0.045 3.912-0.355 3.87zm1.076 2.766c-0.547-0.422-0.28-3.152 0.03-3.11s0.463 0.494 0.71 1.47 0.903 2.065 0.903 2.065c-0.612-0.032-1.095-4e-3 -1.642-0.426zm10.88 0.22c-0.548 0.42-1.03 0.393-1.644 0.424 0 0 0.656-1.092 0.903-2.066 0.247-0.975 0.402-1.427 0.71-1.47s0.577 2.69 0.03 3.112zm2.08-5.166c-0.247 0.976-0.694 2.138-1.004 2.18s-0.25-3.31-0.355-3.87c0.73-0.228 1.307-0.28 1.947-0.462 0 0-0.343 1.178-0.59 2.152zm4.13-5.722c-1.805 3.3-8.13 3.938-10.18 2.974-1.268-0.596-1.437-3.376-0.287-4.62 1.15-1.242 6.554-2.886 7.278-4.95 0.723-2.064-1.022-3.16-3.17-3.603-2.15-0.442-5.29-0.316-5.29-0.316s-3.14-0.125-5.29 0.317c-2.148 0.442-3.894 1.54-3.17 3.603 0.723 2.064 6.128 3.708 7.277 4.95 1.15 1.243 0.98 4.024-0.288 4.62-2.05 0.964-8.375 0.327-10.18-2.974-3.33-6.08 3.58-18.426 10.205-19.273 0.31 0.015 0.774 2e-3 1.446-0.04 0.67 0.042 1.137 0.054 1.445 0.04 6.59 0.842 13.534 13.19 10.206 19.273zm-1.449-22.826c0-0.362-0.09-0.705-0.25-1.006 0.278 0.363 0.443 0.815 0.443 1.305 0 1.194-0.978 2.163-2.184 2.163-0.84 0-1.57-0.47-1.935-1.157 0.4 0.52 1.032 0.858 1.744 0.858 1.207 0 2.185-0.968 2.185-2.163zm-31.55-9.567c-1.744 0.38-3.257 3.94-2.77 5.183 0.49 1.242 2.813 2.76 2.813 2.76s0.297-0.55 1.235-1.79c0.94-1.24 3.15-3.37 3.15-3.37-0.043-1.476-2.68-3.162-4.426-2.783zm19.13-33.463c-23.493 0.81-41.8 22.29-40.9 47.98 0.544 15.51 17.15 46.647 30.23 68.897 4.443 7.453 6.114 10.204 8.407 13.936l0.075 0.125c1.593 2.57 4.26 2.9 6.218 2.52 0.297 0.32 0.676 0.626 1.138 0.846 1.853 0.88 5.127 0.864 6.505 0.02 0 0-1.776-0.28-3.3-0.967-0.697-0.313-1.316-0.744-1.785-1.16 0.877-0.914 0.88-1.747 0.88-1.747s0.8-0.08 1.773-0.4c0.28 0.2 0.603 0.38 0.967 0.506 1.94 0.665 5.192 0.28 6.464-0.716 0 0-1.797-0.077-3.388-0.587-0.552-0.177-1.066-0.424-1.506-0.69 0.075-0.08 0.146-0.162 0.214-0.25 1.427-1.82-0.223-2.732-0.223-2.732s0.89-0.206 1.802-0.776c0.312 0.123 0.657 0.213 1.027 0.246 2.045 0.182 5.105-0.972 6.096-2.242 0 0-1.762 0.355-3.43 0.242-0.685-0.047-1.343-0.2-1.894-0.396 0.663-1.897-0.255-3.026-0.255-3.026s1.5-0.03 2.58-1.568c0.146 0.032 0.295 0.056 0.45 0.07 2.045 0.18 5.105-0.973 6.096-2.242 0 0-1.762 0.355-3.43 0.24-0.81-0.054-1.58-0.26-2.183-0.505 0.248-1.723-0.43-2.78-0.43-2.78s0.625-0.88 1.074-2.08c0.254 0.038 0.52 0.053 0.798 0.034 2.05-0.143 4.012-1.764 4.787-3.172 0 0-0.985 0.427-2.378 0.58-0.903 0.1-2.034 0.06-2.782-0.116-0.16-1.533-1.2-3-4.22-3.633-7.553-1.582-9.293-0.612-17.2-8.58-2.083-2.098-1.955-5.71-2.035-7.494-0.165-3.67 2.68-3.858 8.37-3.815 4.002 0.03 5.123-0.808 5.95-1.554 0.824-0.745 1.5-2.076 1.5-2.076s3.363 3.79 1.01 5.937c-2.35 2.146-3.946 1.57-5.676 4.454-0.98 1.63-1.426 3.095-1.63 4.06-0.088 0.04-0.176 0.08-0.263 0.13-1.553 0.86-2.487 2.847-2.568 4.234 0 0 0.61-0.694 1.645-1.323 0.864-0.525 2.11-1.01 2.714-0.976 0.03 2e-3 0.06 2e-3 0.088 2e-3l0.2 0.05c-0.65 0.997-1.028 2.144-1.082 3.062 0 0 0.707-0.802 1.9-1.528 1-0.607 2.438-1.125 3.135-1.087 0.134 3e-3 0.26 7e-3 0.382 7e-3h0.03c-0.447 1-0.706 1.707-0.75 2.456 0 0 0.707-0.82 1.9-1.55 1-0.607 2.438-1.174 3.135-1.136 0.162 8e-3 0.313-0.014 0.455-0.05l0.346-0.022c-0.446 0.848-0.705 1.745-0.75 2.493 0 0 0.708-0.802 1.902-1.527 0.905-0.55 2.173-1.063 2.92-1.123-0.437 0.84-0.69 1.73-0.735 2.47 0 0 0.707-0.804 1.9-1.53 1-0.606 2.444-1.025 3.135-1.126 0.06-0.01 0.12-0.02 0.18-0.034 1.396-0.13 2.238-0.36 2.486-0.855 8.72-19.297 16.482-39.898 16.08-51.368-0.9-25.693-20.67-45.865-44.16-45.057zm30.26 38.856c-0.724 5.31-5.19 5.836-4.894 6.764 0.297 0.927 4.893 12.645 2.255 17.466s-10.791 8.896-14.391 11.714c-0.158 0.104-0.33 0.24-0.512 0.414v2e-3c-0.072 0.06-0.14 0.117-0.206 0.175-0.723 0.545-1.085-0.048-0.87-1.738 0.072-0.554 0.217-1.162 0.336-1.966 0 0-0.44 0.937-1.085 3.286-0.616 2.25-0.416 6.2-2.464 7.486-1.886 1.184-10.542 1.184-12.426 0-2.048-1.286-1.848-5.235-2.464-7.486-0.644-2.35-1.085-3.286-1.085-3.286 0.12 0.804 0.265 1.412 0.336 1.966 0.217 1.69-0.145 2.283-0.868 1.74-0.065-0.06-0.133-0.116-0.204-0.176l-2e-3 -2e-3c-0.183-0.174-0.354-0.31-0.513-0.414-3.6-2.818-11.753-6.893-14.39-11.714-2.637-4.822 1.96-16.54 2.257-17.467 0.297-0.93-4.17-1.455-4.894-6.765-0.723-5.31 4.553-10.24 8.554-10.07 4 0.167 6.383 4.044 7.106 5.014 0.723 0.967 4.536-1.02 7.705-1.126 1.943-0.066 3.64 1.126 4.68 1.153 1.038-0.027 2.734-1.22 4.676-1.153 3.168 0.107 6.982 2.094 7.705 1.125 0.725-0.97 3.107-4.847 7.107-5.016s9.276 4.762 8.553 10.072zm-6.694-5.394c-1.745-0.38-4.383 1.307-4.425 2.782 0 0 2.21 2.13 3.15 3.37s1.233 1.792 1.233 1.792 2.323-1.52 2.812-2.76c0.49-1.245-1.024-4.805-2.77-5.184zm123.58 47.396-2.348 5.03-0.244-8e-3 0.514-4.113v-12.807h-7v28h6.73l6.766-10.94 2.668-5.412 0.376 0.03-0.54 5.195v11.127h7v-28h-6.717zm55.766-1.898h-3.844v-10h-8v28h12.04c6.25 0 9.952-3.936 9.952-9.37 0-5.282-2.508-8.63-10.148-8.63zm0 12h-3.844v-7h3.844c1.95 0 3.145 1.31 3.145 3.344-2e-3 1.76-0.72 3.656-3.146 3.656zm-126.84-51h-8v-11h-7v28h7v-10h8v10h7v-28h-7zm19.732-11-9.83 28h7.64l1.753-6h7.523l1.83 6h7.643l-10.07-28h-6.488zm1.155 16 2.07-8h0.2l1.95 8zm53.113-16h-7v21h-7v-21h-7v21h-7v-21h-7v28h35zm-56.297 51.898-2.348 5.03-0.057-8e-3 0.702-4.113v-12.807h-7v28h6.355l6.766-10.94 2.667-5.412 0.064 0.03-0.85 5.195v11.127h7v-28h-6.092l-7.205 11.898zm77.657-23.898h7.64l-10.07-28h-6.49l-9.83 28h7.643l1.752-6h7.52l1.832 6zm-7.762-12 2.068-8h0.2l1.95 8zm-39.606 34h-3.992v-4h12v-6h-19v28h11.19c6.25 0 10.07-3.76 10.07-9.274 2e-3 -5.514-2.426-8.726-10.268-8.726zm0 12h-3.992v-6h3.953c2.19 0 3.264 0.947 3.264 2.902s-0.795 3.098-3.225 3.098zm-56.992-3.132v-9.543c0-3.44 6.346-4.224 8.256-0.78l5.84-2.31c-2.27-4.928-6.428-6.375-9.892-6.375-5.65 0-11.204 3.207-11.204 9.465v9.543c0 6.297 5.568 9.465 11.1 9.465 3.543 0 7.8-1.72 10.147-6.22l-6.267-2.813c-1.553 3.832-7.98 2.892-7.98-0.432zm110.33-18.868h-11.33v28h7v-8h4.37c6.806 0 10.27-5.093 10.27-10.02 0-4.89-3.425-9.98-10.31-9.98zm-0.33 14h-4v-7h4c5 0 5 7 0 7z" clip-rule="evenodd" fill-rule="evenodd"/>
  <path id="d" d="m-85.077 257.22h2.998v8.36h1.625v-8.36h2.998v-1.57h-7.621zm9.73 8.362h6.542v-1.625h-4.917v-2.52h4.525v-1.626h-4.525v-2.534h4.917v-1.627h-6.542zm10.446-6.402c-0.197 3.096-0.252 4.89-2.158 4.847v1.555c2.94 0.112 3.56-2.102 3.754-5.253l0.197-3.097h2.927v8.35h1.624v-9.92h-6.105l-0.24 3.517zm9.197 6.402h6.54v-1.625h-4.916v-2.52h4.524v-1.626h-4.523v-2.534h4.917v-1.627h-6.54v9.932zm14.97-9.918-4.288 4.553v-4.553h-1.625v9.918h1.625v-3.334l0.7-0.715 3.558 4.05h2.06l-4.454-5.114 4.495-4.806h-2.073zm6.534 0-3.572 9.918h1.737l0.897-2.577h3.556l0.967 2.577h1.695l-3.586-9.918h-1.695zm-0.393 5.715 0.8-2.48 0.405-1.598h0.056l0.378 1.57 0.813 2.507h-2.453zm13.61-1.555h-4.41v-4.16h-1.626v9.917h1.625v-4.146h4.412v4.146h1.625v-9.918h-1.625v4.16zm7.096-4.16-3.57 9.917h1.735l0.896-2.577h3.56l0.967 2.577h1.694l-3.585-9.918h-1.695zm-0.39 5.714 0.797-2.48 0.407-1.598h0.055l0.378 1.57 0.813 2.507h-2.45zm9.21-5.716-0.238 3.517c-0.195 3.097-0.252 4.89-2.156 4.848v1.555c2.94 0.112 3.557-2.102 3.754-5.253l0.195-3.096h2.928v8.35h1.625v-9.92h-6.108z"/>
 </g>
 <g id="e" transform="translate(30.962 41.232)" fill="#fff" stroke-width=".33057">
  <path id="f" transform="translate(-30.962,-41.232)" d="m223.15 28.988c-3.7354 0-5.3214 3.1075-4.6934 4.8926 1.2562 3.537 6.4121 18.148 6.4121 18.148 0.8595 2.4793 2.2153 4.957 4.959 4.957h19.271c2.7437 0 4.959-2.2134 4.959-4.9902v-18.049c0-2.7437-2.2153-4.959-4.959-4.959h-25.949zm10.412 7.5371h1.752v6.6777h0.82617v2.0488h-0.82617v2.5117h-1.9512v-2.5117h-3.6367l-0.92579-1.5859 4.7617-7.1406zm4.5938 0h2.0488v4.6934l3.5059-4.6934h2.4785l-4.1992 5.5195 4.2324 5.7188h-2.5449l-3.0742-4.1641-0.39844 0.42969v3.7344h-2.0488v-11.238zm-4.5605 2.9082-0.43164 0.85938-1.9824 3.0742h2.2148l0.0332-2.3457 0.23047-1.5879h-0.06445z" fill="#fff"/>
 </g>
</svg>
