<?xml version="1.0" encoding="UTF-8"?>
<svg id="svg23" width="826.01pt" height="384.7pt" version="1.1" viewBox="0 0 826.01 384.7" xmlns="http://www.w3.org/2000/svg" xmlns:cc="http://creativecommons.org/ns#" xmlns:dc="http://purl.org/dc/elements/1.1/" xmlns:rdf="http://www.w3.org/1999/02/22-rdf-syntax-ns#">
 <metadata id="metadata29">
  <rdf:RDF>
   <cc:Work rdf:about="">
    <dc:format>image/svg+xml</dc:format>
    <dc:type rdf:resource="http://purl.org/dc/dcmitype/StillImage"/>
    <dc:title/>
   </cc:Work>
  </rdf:RDF>
 </metadata>
 <g id="#850001ff" transform="translate(-27.555,-26.9)">
  <path id="path20" d="m473.62 248.41c20.57-5.75 41.98-8.64 63.33-8.3 22.71-0.33 45.47 2.94 67.21 9.51 19.54 6.15 38.7 15.23 53.46 29.75 9.67 9.69 17.22 22.61 16.97 36.67 0.43 13.36-6.21 25.9-15.15 35.45-12.96 13.72-30.13 22.6-47.63 29.1-32.84 11.46-68.37 14.5-102.83 10.56l-46.07 20.45-4.83-32.34c-17.33-6.93-34.27-16.32-46.46-30.76-8.6-10-14.02-23.33-12.41-36.65 1.13-12.84 8.48-24.23 17.44-33.12 15.76-15.12 36.23-24.27 56.97-30.32" fill="#850001"/>
 </g>
 <g id="g4512" transform="translate(-27.555,-26.9)" fill="#fff">
  <path id="path6" d="m531.58 257.31c5.25-2.83 12.45-0.21 14.57 5.38 2.35 5.04-0.38 11.64-5.59 13.56-8.52 3.51-16.81 7.58-24.72 12.29 0.36 26.46 0.24 53.37 7.12 79.13 1.26 5.85-3.79 12.2-9.88 11.96-5.01 0.52-9.69-3.35-10.69-8.17-6.25-23.06-6.48-47.14-7.45-70.85-7.05 4.32-13.98 8.81-20.97 13.2-5.25 3.55-13.25 0.71-15.21-5.26-1.91-4.79 0.38-10.46 4.78-12.97 21.99-13.89 44.06-28.01 68.04-38.27z"/>
  <path id="path8" d="m598.73 265.84c6.55-2.84 14.57 3.1 14.12 10.13 0.07 3.68-2.3 6.75-5.09 8.87-12.14 10.25-19.92 24.52-25.9 38.99-4.51 10.92-7.66 22.32-11.08 33.61-1.36 4.25-3.15 8.8-6.97 11.42-4.33 2.83-10.46 2.18-14.1-1.48-3.65-3.96-5.18-9.26-6.98-14.2-4.44-13.47-8.01-27.23-11.33-41.01-1.64-5.37 2.08-11.49 7.51-12.71 5.31-1.63 11.6 1.91 12.69 7.43 1.73 7.62 3.96 15.11 5.71 22.72 6.69-19.14 15.09-38.24 29.01-53.3 3.79-3.84 7.5-8.06 12.41-10.47z"/>
 </g>
 <g id="#5c5c5cff" transform="translate(-27.555,-26.9)" fill="#cecece">
  <path id="path11" d="m27.555 26.9h59.205l0.37 89.16h36.05v-89.16h59.69v295.9h-59.76l0.22-151.65h-36.1l-0.51 126.83 0.06 24.82h-59.225z"/>
  <path id="path13" d="m215.59 26.9h159.1v295.9h-59.895v-151.65h-39.23v151.65h-59.97v-295.9m59.97 54.928v34.232h39.23v-34.232z"/>
  <path id="path15" d="m410.84 26.9h59.5v143.6h36.755v-143.6h62.21v143.6h32.885v-143.6h59.805v200l-251.16-0.02z"/>
  <path id="path17" d="m698.68 26.9h154.88v54.928h-95.475v34.232h95.475v55.093h-95.475v95.077h95.475v56.57h-154.88z"/>
 </g>
</svg>
