<?xml version="1.0" encoding="UTF-8"?>
<!-- Generator: Adobe Illustrator 16.0.0, SVG Export Plug-In . SVG Version: 6.00 Build 0)  -->
<svg id="svg58" width="233.86" height="135.5" enable-background="new 0 0 283.464 283.464" version="1.1" viewBox="0 0 233.86 135.5" xml:space="preserve" xmlns="http://www.w3.org/2000/svg" xmlns:cc="http://creativecommons.org/ns#" xmlns:dc="http://purl.org/dc/elements/1.1/" xmlns:rdf="http://www.w3.org/1999/02/22-rdf-syntax-ns#"><metadata id="metadata64"><rdf:RDF><cc:Work rdf:about=""><dc:format>image/svg+xml</dc:format><dc:type rdf:resource="http://purl.org/dc/dcmitype/StillImage"/><dc:title/></cc:Work></rdf:RDF></metadata><g id="Logo" transform="translate(-24.803,-73.981)" fill="#fff"><g id="g54" fill="#fff"><g id="g22"><g id="g20" fill="#fff"><g id="g6"><polygon id="polygon2" points="24.803 73.981 80.125 73.981 104.82 118.17 49.508 118.17"/><polygon id="polygon4" points="24.803 168.81 80.125 168.81 104.82 124.62 49.508 124.62"/></g><g id="g12"><polygon id="polygon8" points="101.72 73.981 157.03 73.981 181.73 118.17 126.42 118.17"/><polygon id="polygon10" points="101.72 168.81 157.03 168.81 181.73 124.62 126.42 124.62"/></g><g id="g18"><polygon id="polygon14" points="178.62 73.981 233.94 73.981 258.66 118.17 203.34 118.17"/><polygon id="polygon16" points="178.62 168.81 233.94 168.81 258.66 124.62 203.34 124.62"/></g></g></g><g id="g52"><g id="g50" fill="#fff"><path id="path24" d="m35.29 201.29h-6.83v7.817h-3.656v-18.683h3.656v7.607h6.83v-7.607h3.654v18.683h-3.654z"/><path id="path26" d="m51.326 204.97h-5.736l-1.413 4.138h-3.659l6.728-18.813h2.695l6.725 18.813h-3.845zm-4.801-2.936h4.003l-1.388-4.164-0.56-2.935h-0.136l-0.558 2.967z"/><path id="path28" d="m58.212 209.11v-18.683h3.656v15.428h4.402v-15.428h3.655v15.428h4.401v-15.428h3.658v18.683z"/><path id="path30" d="m81.508 190.43h11.074v3.255h-7.419v4.353h6.75v3.258h-6.75v4.563h7.553v3.255h-11.208z"/><path id="path32" d="m113.32 201.29h-6.832v7.817h-3.655v-18.683h3.655v7.607h6.832v-7.607h3.656v18.683h-3.656z"/><path id="path34" d="m119.43 199.77c0-3.112 0.683-5.509 2.054-7.19 1.369-1.682 3.325-2.524 5.871-2.524 1.333 0 2.497 0.234 3.494 0.693 0.996 0.463 1.823 1.122 2.48 1.978 0.659 0.852 1.149 1.875 1.47 3.067 0.318 1.191 0.48 2.519 0.48 3.977 0 3.113-0.693 5.51-2.065 7.189-1.385 1.682-3.337 2.524-5.859 2.524-1.354 0-2.527-0.232-3.524-0.693-0.996-0.463-1.816-1.122-2.468-1.978-0.649-0.851-1.133-1.875-1.452-3.069-0.324-1.19-0.481-2.515-0.481-3.974zm3.842 0c0 0.942 0.078 1.812 0.242 2.602 0.157 0.792 0.401 1.474 0.73 2.04 0.329 0.571 0.752 1.015 1.267 1.334 0.518 0.323 1.13 0.483 1.844 0.483 1.295 0 2.304-0.507 3.014-1.52 0.711-1.015 1.068-2.661 1.068-4.939 0-0.907-0.076-1.754-0.228-2.535-0.153-0.78-0.388-1.465-0.705-2.056-0.324-0.588-0.739-1.042-1.258-1.374-0.516-0.329-1.146-0.493-1.892-0.493-1.299 0-2.307 0.521-3.019 1.563-0.708 1.04-1.063 2.671-1.063 4.895z"/><path id="path36" d="m150.27 194.78c0 0.461-0.059 0.924-0.172 1.385-0.117 0.463-0.307 0.889-0.574 1.271-0.264 0.379-0.607 0.717-1.029 1.012-0.43 0.293-0.938 0.511-1.545 0.652v0.158c0.535 0.095 1.039 0.247 1.516 0.458 0.479 0.212 0.896 0.508 1.252 0.88 0.35 0.376 0.633 0.829 0.832 1.36 0.207 0.536 0.309 1.165 0.309 1.894 0 0.965-0.207 1.794-0.617 2.497-0.406 0.702-0.955 1.276-1.637 1.722-0.684 0.445-1.463 0.772-2.338 0.986-0.873 0.213-1.773 0.318-2.695 0.318h-1.16c-0.471 0-0.979-0.014-1.52-0.037-0.543-0.025-1.098-0.068-1.656-0.119-0.563-0.056-1.072-0.137-1.531-0.242v-18.413c0.334-0.055 0.723-0.105 1.158-0.157 0.438-0.056 0.902-0.101 1.404-0.136 0.494-0.037 1.006-0.063 1.531-0.08 0.525-0.016 1.045-0.027 1.563-0.027 0.869 0 1.723 0.066 2.545 0.202 0.828 0.134 1.568 0.366 2.217 0.706 0.648 0.338 1.168 0.807 1.561 1.412 0.389 0.607 0.586 1.373 0.586 2.298zm-7.818 3.495c0.246 0 0.535-0.01 0.865-0.027 0.332-0.017 0.6-0.046 0.813-0.08 0.678-0.212 1.262-0.527 1.752-0.95 0.486-0.422 0.73-0.975 0.73-1.662 0-0.459-0.09-0.836-0.264-1.134-0.178-0.302-0.416-0.539-0.709-0.719-0.295-0.174-0.625-0.297-0.998-0.368-0.375-0.068-0.766-0.104-1.178-0.104-0.463 0-0.891 8e-3 -1.277 0.027-0.395 0.016-0.693 0.042-0.91 0.076v4.94h1.176zm1.158 8.027c0.432 0 0.857-0.051 1.273-0.156 0.406-0.104 0.77-0.269 1.082-0.489 0.314-0.217 0.566-0.494 0.76-0.827 0.193-0.34 0.289-0.734 0.289-1.193 0-0.579-0.115-1.038-0.34-1.373-0.227-0.335-0.523-0.593-0.891-0.779-0.369-0.184-0.777-0.302-1.232-0.354s-0.908-0.082-1.361-0.082h-1.914v5.099c0.088 0.039 0.227 0.063 0.418 0.083 0.193 0.015 0.4 0.026 0.615 0.032 0.219 0.014 0.447 0.021 0.682 0.029 0.238 8e-3 0.443 0.01 0.619 0.01z"/><path id="path38" d="m152.7 199.77c0-3.112 0.684-5.509 2.053-7.19 1.367-1.682 3.326-2.524 5.869-2.524 1.334 0 2.498 0.234 3.498 0.693 0.994 0.463 1.822 1.122 2.482 1.978 0.656 0.852 1.145 1.875 1.463 3.067 0.324 1.191 0.484 2.519 0.484 3.977 0 3.113-0.688 5.51-2.07 7.189-1.379 1.682-3.332 2.524-5.857 2.524-1.354 0-2.525-0.232-3.521-0.693-0.998-0.463-1.818-1.122-2.471-1.978-0.646-0.851-1.129-1.875-1.451-3.069-0.319-1.19-0.479-2.515-0.479-3.974zm3.838 0c0 0.942 0.082 1.812 0.244 2.602 0.158 0.792 0.404 1.474 0.734 2.04 0.326 0.571 0.75 1.015 1.264 1.334 0.518 0.323 1.131 0.483 1.842 0.483 1.297 0 2.305-0.507 3.014-1.52 0.715-1.015 1.07-2.661 1.07-4.939 0-0.907-0.074-1.754-0.227-2.535-0.152-0.78-0.391-1.465-0.709-2.056-0.316-0.588-0.736-1.042-1.25-1.374-0.52-0.329-1.15-0.493-1.898-0.493-1.297 0-2.305 0.521-3.014 1.563-0.715 1.04-1.07 2.671-1.07 4.895z"/><path id="path40" d="m170.98 190.43h11.072v3.255h-7.414v4.353h6.75v3.258h-6.75v4.563h7.551v3.255h-11.209z"/><path id="path42" d="m196.92 201.13h-0.959v7.979h-3.658v-18.683h3.658v8.276l0.854-0.377 5.148-7.899h4.164l-5.447 7.849-1.439 1.014 1.5 1.04 6.213 8.78h-4.508z"/><path id="path44" d="m219.01 198.75 0.213-2.425h-0.135l-1.25 2.51-6.969 10.272h-2.744v-18.683h3.65v10.169l-0.262 2.51h0.156l1.309-2.589 6.963-10.09h2.719v18.683h-3.65z"/><path id="path46" d="m236.7 201.29h-6.836v7.817h-3.65v-18.683h3.65v7.607h6.836v-7.607h3.656v18.683h-3.656z"/><path id="path48" d="m242.82 199.77c0-3.112 0.682-5.509 2.051-7.19 1.371-1.682 3.328-2.524 5.873-2.524 1.33 0 2.496 0.234 3.492 0.693 1.002 0.463 1.826 1.122 2.482 1.978 0.658 0.852 1.148 1.875 1.469 3.067 0.32 1.191 0.479 2.519 0.479 3.977 0 3.113-0.684 5.51-2.066 7.189-1.379 1.682-3.328 2.524-5.855 2.524-1.354 0-2.525-0.232-3.523-0.693-0.996-0.463-1.816-1.122-2.469-1.978-0.648-0.851-1.133-1.875-1.455-3.069-0.322-1.19-0.478-2.515-0.478-3.974zm3.84 0c0 0.942 0.08 1.812 0.24 2.602 0.162 0.792 0.404 1.474 0.734 2.04 0.332 0.571 0.752 1.015 1.27 1.334 0.516 0.323 1.129 0.483 1.84 0.483 1.295 0 2.303-0.507 3.012-1.52 0.713-1.015 1.07-2.661 1.07-4.939 0-0.907-0.076-1.754-0.227-2.535-0.154-0.78-0.387-1.465-0.707-2.056-0.318-0.588-0.738-1.042-1.252-1.374-0.518-0.329-1.148-0.493-1.896-0.493-1.299 0-2.305 0.521-3.014 1.563-0.715 1.04-1.07 2.671-1.07 4.895z"/></g></g></g></g></svg>
