<svg version="1.1" viewBox="0 0 439.48 272.1" xml:space="preserve" xmlns="http://www.w3.org/2000/svg"><defs>
			<radialGradient id="a" cx="420.43" cy="201.93" r="46.926" gradientTransform="matrix(.342 -.9397 1.8794 .684 -245.11 346.58)" gradientUnits="userSpaceOnUse">
			<stop stop-opacity=".5" offset="0"/>
			<stop stop-color="#050000" stop-opacity=".3063" offset=".3873"/>
			<stop stop-color="#140000" stop-opacity=".070619" offset=".8588"/>
			<stop stop-color="#1A0000" stop-opacity="0" offset="1"/>
		</radialGradient>
		<linearGradient id="i" x1="452.11" x2="353.43" y1="89.534" y2="342.67" gradientTransform="translate(-142.24,-112.3)" gradientUnits="userSpaceOnUse">
			<stop stop-color="#DE693A" offset="0"/>
			<stop stop-color="#F58A3A" offset=".4389"/>
			<stop stop-color="#F58B3A" offset=".4477"/>
			<stop stop-color="#DB773C" offset=".5337"/>
			<stop stop-color="#BF613E" offset=".6502"/>
			<stop stop-color="#AB523F" offset=".7671"/>
			<stop stop-color="#9F4840" offset=".8838"/>
			<stop stop-color="#9B4540" offset="1"/>
		</linearGradient>
			<linearGradient id="h" x1="418.86" x2="413.52" y1="302.13" y2="366.21" gradientTransform="translate(-142.24,-112.3)" gradientUnits="userSpaceOnUse">
				<stop stop-color="#DE693A" offset="0"/>
				<stop stop-color="#F58A3A" offset=".4389"/>
				<stop stop-color="#F58B3A" offset=".4477"/>
				<stop stop-color="#DB773C" offset=".5337"/>
				<stop stop-color="#BF613E" offset=".6502"/>
				<stop stop-color="#AB523F" offset=".7671"/>
				<stop stop-color="#9F4840" offset=".8838"/>
				<stop stop-color="#9B4540" offset="1"/>
			</linearGradient>
			<linearGradient id="g" x1="317.28" x2="311.7" y1="291.04" y2="357.98" gradientTransform="translate(-142.24,-112.3)" gradientUnits="userSpaceOnUse">
				<stop stop-color="#DE693A" offset="0"/>
				<stop stop-color="#F58A3A" offset=".4389"/>
				<stop stop-color="#F58B3A" offset=".4477"/>
				<stop stop-color="#DB773C" offset=".5337"/>
				<stop stop-color="#BF613E" offset=".6502"/>
				<stop stop-color="#AB523F" offset=".7671"/>
				<stop stop-color="#9F4840" offset=".8838"/>
				<stop stop-color="#9B4540" offset="1"/>
			</linearGradient>
			<linearGradient id="f" x1="476.44" x2="471.12" y1="308.17" y2="371.96" gradientTransform="translate(-142.24,-112.3)" gradientUnits="userSpaceOnUse">
				<stop stop-color="#DE693A" offset="0"/>
				<stop stop-color="#F58A3A" offset=".4389"/>
				<stop stop-color="#F58B3A" offset=".4477"/>
				<stop stop-color="#DB773C" offset=".5337"/>
				<stop stop-color="#BF613E" offset=".6502"/>
				<stop stop-color="#AB523F" offset=".7671"/>
				<stop stop-color="#9F4840" offset=".8838"/>
				<stop stop-color="#9B4540" offset="1"/>
			</linearGradient>
			<linearGradient id="e" x1="524.47" x2="519.12" y1="311.35" y2="375.55" gradientTransform="translate(-142.24,-112.3)" gradientUnits="userSpaceOnUse">
				<stop stop-color="#DE693A" offset="0"/>
				<stop stop-color="#F58A3A" offset=".4389"/>
				<stop stop-color="#F58B3A" offset=".4477"/>
				<stop stop-color="#DB773C" offset=".5337"/>
				<stop stop-color="#BF613E" offset=".6502"/>
				<stop stop-color="#AB523F" offset=".7671"/>
				<stop stop-color="#9F4840" offset=".8838"/>
				<stop stop-color="#9B4540" offset="1"/>
			</linearGradient>
			<linearGradient id="d" x1="370.85" x2="365.52" y1="298.76" y2="362.8" gradientTransform="translate(-142.24,-112.3)" gradientUnits="userSpaceOnUse">
				<stop stop-color="#DE693A" offset="0"/>
				<stop stop-color="#F58A3A" offset=".4389"/>
				<stop stop-color="#F58B3A" offset=".4477"/>
				<stop stop-color="#DB773C" offset=".5337"/>
				<stop stop-color="#BF613E" offset=".6502"/>
				<stop stop-color="#AB523F" offset=".7671"/>
				<stop stop-color="#9F4840" offset=".8838"/>
				<stop stop-color="#9B4540" offset="1"/>
			</linearGradient>
			<linearGradient id="c" x1="270.82" x2="265.49" y1="290.48" y2="354.51" gradientTransform="translate(-142.24,-112.3)" gradientUnits="userSpaceOnUse">
				<stop stop-color="#DE693A" offset="0"/>
				<stop stop-color="#F58A3A" offset=".4389"/>
				<stop stop-color="#F58B3A" offset=".4477"/>
				<stop stop-color="#DB773C" offset=".5337"/>
				<stop stop-color="#BF613E" offset=".6502"/>
				<stop stop-color="#AB523F" offset=".7671"/>
				<stop stop-color="#9F4840" offset=".8838"/>
				<stop stop-color="#9B4540" offset="1"/>
			</linearGradient>
			<linearGradient id="b" x1="562.15" x2="556.81" y1="314.63" y2="378.67" gradientTransform="translate(-142.24,-112.3)" gradientUnits="userSpaceOnUse">
				<stop stop-color="#DE693A" offset="0"/>
				<stop stop-color="#F58A3A" offset=".4389"/>
				<stop stop-color="#F58B3A" offset=".4477"/>
				<stop stop-color="#DB773C" offset=".5337"/>
				<stop stop-color="#BF613E" offset=".6502"/>
				<stop stop-color="#AB523F" offset=".7671"/>
				<stop stop-color="#9F4840" offset=".8838"/>
				<stop stop-color="#9B4540" offset="1"/>
			</linearGradient>
		</defs>
<path d="m427.56 147.9-45.1 0.1 1.7-34.8 33.3-0.4h0.4c5.8 0 12-2.8 12.1-10.8l0.3-14.5c0.2-8.2-6.2-11.3-12.1-11.4l-32.9-1.2 1-23 35.4 1.2h0.8c11.3 0 11.6-7 11.8-10.8 0-0.5 0.1-1 0.1-1.6l0.3-10.6c0.2-8.2-6.2-11.3-12.1-11.4l-60.8-1.9c-1.6-1.6-3.3-3.2-5.1-4.7-6-5.1-14.2-7.8-23.6-7.8-16.1 0-33 7.6-43.2 19.2-5.2 6-9.3 8.9-12.4 8.9-2.7 0-5.9-2.3-10.2-7.1-4.5-5.2-9.9-9.2-15.2-13.1-1.1-0.8-2.2-1.7-3.3-2.5-8.3-6.3-17.8-9.7-27.3-9.7-16.5 0-31.4 9.9-40 26.4-0.3 0.5-0.6 1.1-0.8 1.6l-0.5-1.7c-2-6.5-5.5-9.1-12.6-9.1h-25.9c-6.6 0-9.5 3.4-10.7 7.1-0.4-1.9-1.3-3.2-2.1-4.2-1.6-1.8-4.6-3.9-10.3-3.9h-15.5c-5.1 0-11.3 2-12.3 11.2l-7.9 46.8-32.1 0.5 3.3-46.7v-0.2c0.1-4.1-1.5-6.6-2.9-8-2.2-2.2-5.5-3.4-9.7-3.4h-15.6c-7.4 0.1-11.9 4.2-12.3 11.3l-13.5 146.8c-0.3 3 0.6 5.8 2.5 7.9 2.3 2.5 5.8 3.8 10.1 3.8l15.5-0.2c7.3-0.1 11.6-3.9 12.3-10.9l7.3-63.9 30.5 0.3-7.1 61.9v0.2c-0.3 3.3 0.8 6.5 3 8.8 2.2 2.4 5.5 3.8 8.9 3.8h15.4c5.2-0.1 9.4-2.9 11.6-7.5 0.5 1.3 1.1 2.4 2 3.4 2.3 2.6 5.7 4.1 9.7 4.1h16c6.6 0 11.9-4.9 12.5-11.6l3.9-38h9.5c4-0.1 5.6 0 7.1 0h4l11.9 38.6c1.8 6.2 7.2 10.3 13.6 10.1 2.7-0.1 5.4-0.1 8-0.1s5.1 0 7.7-0.1h0.6c1.9 0 4.3-0.1 6.3-1 3.7-1.5 6.5-6.3 3.9-13.1l-10-31c7.6 8.6 15.2 17.1 22.7 25.4 6.3 6.9 12.7 14.1 19 21.2 3.6 4.1 7.8 7.9 13.5 7.9 5 0 9.8-2.9 15.8-7.5 16.2-12.4 30.5-27.3 44.4-41.6 3.1-3.2 6.3-6.5 9.4-9.7l-1.8 33.9v0.3c0 9 6.4 15.3 15.5 15.3l71.4-2.2h0.4c5.8 0 12-2.8 12.1-10.8l0.3-12.8c0.5-8.2-5.9-11.3-11.9-11.5z" fill="#fff"/><path d="m434.16 209.4c0.9-0.8 4-3.7 4.2-7.9 0.1-2.4-0.9-4.7-2.7-6.4-1.5-1.4-3.4-2.1-5.8-2.1-0.9 0-1.7 0.1-2.4 0.2-0.2 0-0.4 0-0.6 0.1-2.1 0.2-5.5 0.4-7.8 0.5-1.9 0.1-3.4 0-4.8 0-1 0-2-0.1-3-0.1-1.7 0-3.2 0.1-4.8 0.3-5 0.6-8.3 4.8-7.8 9.8 0.2 2.2 0.3 3.3 0.4 5.5v0.7c-0.1-0.1-0.1-0.2-0.2-0.3-0.6-1.1-1.2-2.3-1.7-3.3-1.8-3.8-5.8-7.6-10-9.3-2.9-1.2-5.9-1.3-8.5-1.4-0.8 0-1.5 0-2.3-0.1-0.3 0-0.6-0.1-0.9-0.1-0.7-0.1-1.5-0.2-2.5-0.2-1.4 0-2.9 0.2-4.4 0.7-2.7 0.9-5 2.8-6.5 5.4-2.1 3.8-3.1 7.6-3.9 11.1-0.1 0.4-1.3 5.5-2.2 11.7-0.2-1.3-0.5-2.8-0.7-4.3-0.1-0.7-0.2-3-0.2-6.5 0-0.8 0.1-1.9 0.1-3 0.3-4.2 0.6-8.9-1.7-12.4-2.1-3.2-5.7-5-9.9-5h-0.9c-3.4 0.1-8.4 0.4-11.3 5.7l-4.2 8.5c-1-3.1-2.1-5.5-3.4-7.6-2.3-3.8-5.5-5.7-9.4-5.7-0.7 0-1.5 0.1-2.3 0.2-3.9 0.7-6.4 2.4-8 4.2-0.7-1.5-1.8-2.9-3.5-4-2.2-1.4-4.4-2-6.8-2-1.3 0-2.7 0.2-3.9 0.4l-0.9 0.1c-2.6 0.4-5.3 0.8-8.6 3.1-2.3 1.6-3.9 4.9-6.8 11.5-0.6 1.5-1.3 2.9-1.7 3.7-1.1 2.3-2.3 4.5-3.4 6.8-0.9 1.8-1.8 3.6-2.7 5.5-0.1 0.1-0.1 0.3-0.2 0.4 0-0.3 0.1-0.6 0.1-0.9 0.3-3 0.2-5.8 0.2-8.5v-5.1c0.1-2.4 0-4.8-0.2-7.2 0-0.4 0-0.7-0.1-1-0.2-2.7-0.6-5.2-4.4-7.3-1.3-0.7-2.6-1.1-4.2-1.1-0.9 0-1.9 0.1-3.1 0.4-0.2 0-0.3 0.1-0.5 0.1-1.2 0.2-2.5 0.5-3.9 1.6-1.7-1.8-3.9-3.1-6.2-3.7-0.9-0.2-1.8-0.3-2.7-0.3-1.9 0-3.5 0.4-5 0.7-0.5 0.1-0.9 0.2-1.4 0.3-2.2 0.4-4.5 0.8-6.7 1.3-1.4 0.3-2.8 0.6-4.3 0.9-2.9 0.6-5.7 1.2-8.5 1.5-0.3 0-0.9 0-1.4-0.1-0.8-0.1-1.6-0.1-2.5-0.1-1.4 0-3.5 0.1-5.3 1.4-2.8 2-3 5.3-3.2 7.3 0 0.2 0 0.4-0.1 0.6-0.4 2.9-0.4 5.8-0.5 8.7 0 1.5 0 2.8-0.1 4.2-0.6-2.1-1.3-4-2.3-5.8-1.2-2.3-3.1-3.9-4.6-5.2-0.3-0.3-0.6-0.5-0.9-0.8-1.4-1.2-3.2-2.1-4.7-2.8-0.4-0.2-0.9-0.4-1.2-0.6-2.6-1.4-4.6-2.1-7.6-2.6-2.6-0.5-5.3-0.7-8.1-0.5h-0.8c-2.2 0-5.6 0.1-8.2 2.3-1.9 1.6-2.9 4-3.6 5.9-0.1 0.4-0.3 0.7-0.4 1-1 2.2-1.6 4-2.1 5.8-0.3-3.6-0.7-7.3-2.8-9.8-1.4-1.7-4.3-3.7-7.6-3.7-1.5 0-3 0.4-4.2 1.3-2.7 1.8-3.1 5.1-3.3 7 0 0.2 0 0.5-0.1 0.6-0.3 1.7-0.7 3.3-0.9 5-0.5 3.2-0.7 6.5-0.9 9.6v0.2c-0.2 3-0.3 6.1-0.4 9.1-0.3-1.2-0.5-2.4-0.7-3.7-0.2-1.1-0.4-2.2-0.5-3.3-0.6-3.7-1.2-7.5-2.2-11.3-0.2-1-0.4-2.2-0.6-3.4-0.4-3-0.9-6.4-2.7-9.4-2.1-3.4-5.8-4-7.8-4.3-0.3 0-0.5-0.1-0.8-0.1-0.3-0.1-0.6-0.1-0.9-0.2-1.2-0.3-2.8-0.6-4.4-0.6-0.7 0-1.4 0.1-2.1 0.2-6.4 1.3-7.3 8.6-7.8 12.1-0.1 0.6-0.1 1.1-0.2 1.5-0.5 2.6-1.1 5.3-1.6 8.1-1.4 7-2.9 14.3-3.8 19.6-0.5 3.1-0.7 5.6-0.9 7.8-0.2 1.9-0.3 3.5-0.6 5.3-0.3 1.9-0.7 3.7-1 5.6l-0.2 1.1c-0.1 0.4-0.2 0.9-0.3 1.3-0.4 1.6-0.8 3.6-0.6 5.6 0.3 2.6 2.3 5.6 7.1 5.6 3.2 0 7.1-1.3 8.4-2 5-2.5 7.1-7.4 8.2-10.8 0.5-1.6 1-3.4 1.3-5.4 1.7 5.9 3.8 13.2 10.2 17.5 1.7 1.1 3.7 1.8 5.7 1.8 2.1 0 3.9-0.7 5.4-2 1-0.9 1.5-1.8 1.8-2.8 1.5 0.6 3.3 1 5.5 1h0.4c0.5 0 1 0.1 1.6 0.1 4.3 0 6-2.4 6.6-3.8 1.1-2.4 0.8-4.8 0.5-6.6 0-0.3-0.1-0.7-0.1-1-0.2-3.4-0.2-6.8-0.2-10.4 0.7 1.7 1.7 3.3 3.1 5 1.3 1.6 2.7 3.1 4.3 4.4 4.3 3.5 8.4 4 11.9 4 1 0 2 0 3.1-0.1h1c4.6-0.2 9.4-0.8 13.7-4.5 0.7-0.6 1.3-1.2 1.9-1.9 0.2 2.4 1 4.9 3.4 6.9 1.8 1.5 4 2.4 6.6 2.6 2.4 0.2 2.4 0.2 3.8 0.6 4 1.1 7.4 1.6 10.5 1.6 6.4 0 11.6-2.2 15.3-6.7 0.9-1 2.3-2.9 3.7-5.1 0.2 4.5 2 7.3 5.5 8.2 0.8 0.2 1.3 0.4 1.8 0.5 0.9 0.3 1.7 0.5 3.1 0.8l0.5 0.1c1.1 0.2 2 0.4 3.1 0.4 1.6 0 3.1-0.4 4.4-0.9 2.7-0.9 4.5-3.1 6-4.9 0.4-0.5 0.9-1 1.2-1.3 1.9-1.8 3.4-3.5 4.8-5.1-0.6 4.9-0.2 10.4 5.1 11.7l0.3 0.1c0.2 0 3.9 0.7 7.9 0.7 5.8 0 9.6-1.5 11.6-4.5 1.1-1.7 1.4-3.8 1.5-6.6 0.1 0.6 0.2 1.2 0.3 1.7 0.1 0.3 0.1 0.7 0.2 1.1 0.5 3.3 1.1 7.7 4.3 10 1.3 0.9 2.9 1.4 4.8 1.4 2.7 0 6.3-1 8.2-2.2 3.7-2.4 3.8-7.6 3.3-11.5-0.2-1.1-0.3-2.2-0.5-3.2-0.3-2-0.6-4-0.8-6.1-0.1-1.7-0.1-3.4 0.1-5.2 0.7 1.1 1.7 2 3 2.6 2.5 1.1 4.7 1.4 6.4 1.5 0.4 0 0.8 0.1 1.2 0.1 0.3 0 0.7 0.1 1 0.1 3.4 0 5.6-2 7-4.5 0.2 2.1 0.4 4.1 0.6 6.1l0.1 1c0.1 0.5 0.1 1.1 0.1 1.7 0.2 2.6 0.4 5.9 1.8 8.8 2.1 4.5 6.3 7 11.5 7 2.7 0 5.1-0.7 6.7-1.3 1-0.4 1.9-1 2.6-1.7 3.4 4.3 8.3 6.5 14.6 6.5 2.1 0 4.4-0.2 7.2-0.7 3.7-0.6 8.3-1.9 12.1-5.9 0.5-0.5 0.9-1.1 1.4-1.7 0.1 1.7 0.6 3.4 1.8 4.8 1.3 1.6 3.3 2.5 5.5 2.6l2.9 0.1c4.1 0.2 8.4 0.3 12.6 0.4h3.6c3.3 0 7.5-0.4 11-3.3 2.5-2.1 3.8-5 3.3-7.7-0.5-2.6-2.3-4.6-5-5.5-1.4-0.5-2.7-0.7-4.2-0.7-0.7 0-1.4 0.1-2 0.1-0.5 0-0.9 0.1-1.4 0.1h-7.4l0.2-1.5c0.3-1.8 0.5-3.6 0.8-5.5 0.1-0.4 0.1-0.8 0.2-1.2 0.9 0 1.7-0.1 2.6-0.2 3.2-0.3 7.6-1.3 9.8-4.6 1.4-2 1.7-4.6 0.9-7.1-1.8-5.8-10.7-6-11.7-6h-0.5l0.2-10.9c6.9 0.5 12-0.2 15.1-2.7zm-209.8 6.4h-0.2c-1.6 0-3.1 0.2-4.4 0.5v-3.3h1c6.3-0.2 12.8-0.4 19.1-1.8l0.7-0.1c1.4-0.3 3.3-0.7 5.2-1.5-0.1 0.4-0.1 0.9-0.2 1.4l-0.4 2.3c-0.7 3.8-1.4 7.8-1.7 11.9v0.4c-4.1-5.9-11.3-9.8-19.1-9.8z" fill="#fff"/><path d="m83.86 106.6-40.5-0.5-7.8 68.4c-0.4 4.2-2.3 6.4-7.4 6.4l-15.2 0.2c-5.1 0.1-8.2-2.3-7.8-6.2l13.5-146.9c0.2-4.3 2.3-6.6 7.4-6.7h15.2c5.1-0.1 7.9 1.7 7.8 6.2l-3.6 52.1 41.7-0.4 8.7-51.1c0.4-4.3 2-6.9 7.4-6.9h15.2c5.1-0.1 8.4 2.1 7.8 6.4l-19.5 145c-0.5 4.2-3.2 8.3-8.3 8.4h-15.4c-4 0-7.2-3-6.9-7.2z" fill="#262626"/><path d="m353.56 16c-15-12.8-45.2-5.8-59.8 10.9-12.3 14.2-19.8 13.6-30.1 1.8-5.1-5.8-11.6-10.2-17.8-14.9-21-15.9-47.2-9.2-59.9 15-13.9 26.6-12.9 50.1 7.2 75.3 21.9 27.5 45.9 52.9 69.1 79.1 7.4 8.4 11.4 8.3 22.6-0.3 21-16.1 38.5-36.1 57.2-54.8 17.3-17.4 33.4-36 33.2-64.6-0.6-21.6-6.5-34.5-21.7-47.5zm-35.9 110.6c0 3.7-2.5 5.5-5.2 5.5l-70.3-0.5c-4.9 0-6.3-1.9-6.2-5.5l-1.2-73.4c0-3.7 2.5-5.5 5.2-5.5l7 0.1c2.7 0 5.7 1.6 5.6 5.3l1.1 54.7 13 0.2 1.4-54.5c0-3.7 3.3-5.4 6-5.4l8.1 0.1c2.7 0 5.8 1.8 5.8 5.5l-1.4 54.5 12.8 0.2 3.9-54.4c0-3.7 3.4-5.6 6.1-5.6l7 0.1c2.7 0 5.2 1.9 5.1 5.6z" fill="url(#i)"/><path d="m381.66 46.8-1.5 33 37.9 1.4c5 0.1 7.4 2.2 7.3 6.3l-0.3 14.5c-0.1 4.1-2.6 6-7.6 5.9l-38.1 0.5-2.2 44.8 50.2-0.1c5 0.1 7.4 2.2 7.3 6.3l-0.3 12.8c-0.1 4.1-2.6 6-7.6 5.9l-71.4 2.2c-5.6 0-10.5-3.4-10.5-10.3l7.2-138.3c-0.1-5.5 3.5-9.7 9.1-9.7l61.2 1.9c5 0.1 7.4 2.2 7.3 6.3l-0.3 10.3c-0.4 4.8 0.6 8-7.6 7.8z" fill="#262626"/><path d="m141.86 22.4h25.7c4.8 0 6.5 1.1 7.8 5.5l46.7 144.7c1.5 3.7 0.6 6.2-1.2 6.9-1.3 0.6-3.6 0.6-5.1 0.6-5.2 0.1-10.5 0.1-15.7 0.2-3.8 0.1-7.4-2.3-8.6-6.6l-13-42.2c-8.5 0.1-6.2-0.1-14.8 0h-14l-4.4 42.5c-0.3 3.7-3 7.2-7.5 7.2h-16c-4.9 0-8-3.2-7.3-7.9l20.9-145.5c0.6-4 2.5-5.4 6.5-5.4m15.2 31.6c-1.7 16.9-4.1 35.5-5.9 52.5 6.6-0.1 13.1 0.1 19.7 0z" fill="#262626"/><path d="m293.06 256.7c1.2-1.9 0.4-8.9 0.5-10.6 0.3-3.5 0.9-6.9 1.3-10.4 0.6-6.8 2.4-13.6 4.2-20.1 0.9-3.3 1.6-6.4 1.5-10.4 0-1.4 0.2-5-2.4-6.6-2.5-1.6-4.3-1.4-7.3-0.9-2.9 0.4-4.7 0.5-7.4 2.4-1.9 1.3-5.2 10-6.9 13.3-2.1 4.1-4.1 8.2-6.1 12.3-2.2 4.3-4.5 8.5-7.1 12.5-0.6 0.9-2.3 4.6-3.3 3.8-0.4-0.4-0.3-3.4-0.1-5.4 0.5-4.7 0.5-9.4 0.9-14.1 0.4-4.5 0.1-8.8 0.2-13.3 0.1-2.2 0-4.4-0.2-6.6-0.2-2.7 0.1-3.2-2-4.4-0.8-0.5-1.7-0.6-3.8-0.2-1.3 0.3-1.8 0.2-2.7 1.2-1.6 1.7-1 4.1-1.2 6.5-0.2 3-0.4 4-0.7 6.3-0.8 4.5-1.6 9-2 13.5-0.8 8.9-1.9 18-1.5 27 0.1 1.5-0.2 4 1.9 4.6 2.2 0.6 2.6 0.9 4.4 1.3 2.4 0.4 2.9 0.7 5.4-0.2 2-0.7 3.8-3.6 5.4-5.1 3-2.9 4.9-5.2 7.4-8.6 2.3-3.2 8.1-13.3 9.4-12.5 1.9 1.4-1.7 10.6-2.7 15.2-0.7 3.2-2.2 10.6 0.4 11.2 0.1-0.1 11.9 2.2 14.5-1.7z" fill="url(#h)"/><path d="m159.46 232.6c1.5-0.2 1-2.1 1-3.5 0-2.4 0.1-5.3 0.4-7.4 0.7-4.7 1-6.9 3-11.2 0.7-1.5 1.5-4.1 2.7-5.2 1.4-1.2 4.2-1 6-1.1 2.3-0.1 4.7 0 7 0.5 2.5 0.5 4 1 6.2 2.1 1.4 0.8 3.8 1.7 4.9 2.7 1.5 1.4 3.4 2.8 4.5 4.6 2.2 4.1 3.1 10 3.8 14.5s0.1 8.9-0.2 13.4c-0.2 3.9-2.3 7.5-5.2 10-3.1 2.6-6.7 3.2-10.6 3.3-5 0.2-8.6 0.6-12.6-2.7-1.3-1.1-2.5-2.3-3.6-3.6-1.5-1.9-2.6-3.8-3.1-6.1-0.6-2.8-1.7-2.1-5-1.9-2.7 0.1-3.8 0.2-3.8 3.1 0 4.6-0.1 9.1 0.2 13.7 0.1 1.5 0.7 3.8 0 5.2-0.6 1.2-3 0.7-4 0.7-9.8 0-8.3-11.5-8.7-18.4-0.3-6.8-0.3-13.5 0.2-20.3 0.2-3.2 0.4-6.4 0.9-9.5 0.2-1.6 0.5-3.2 0.9-4.7 0.2-1.1 0.2-3.8 1.3-4.5 1.6-1.1 4.1 0.2 5.1 1.5 1.8 2.2 1.6 8.8 2 11.5 0.9 5.4 1.5 10.1 1.9 14zm13.6-11.5c0 1.7 0.3 3.3 0.1 5 0 0.1 0.1 23.8 8.5 19.5 2.8-0.8 0.7-11.7 0.4-17.1-0.2-2.9 0.4-5.8-0.3-8.7-0.7-3-0.6-6.7-2.9-8.8-1.8-1.6-4 0.6-4 0.6s-1.9 2.2-1.8 9.5z" fill="url(#g)"/><path d="m349.46 200.6c1.9 2.8 0.8 8.8 0.8 12.7 0 2.3 0 5.8 0.2 7.2 0.3 2.1 0.6 4.2 0.9 5.8 0.8 4.8 1.3 5.8 1.9 9.2 1.3 6.7 4.3 16.8 4.5 19.1 0.1 1.6-0.5 2.6-1.6 3-3.6 1.3-9.5 1.9-11.9-3.2-1.2-2.6-1.2-6.1-1.5-8.9-0.4-3.8-0.7-7.5-1.2-11.3-0.4-3.2-1.1-6.4-1.7-9.6-0.6-3-0.3-8.7-1.1-9-1.6 0.8-3.2 8.7-3.9 12.9-0.4 2.4-1.4 10.3-5.1 9.8-2.1-0.3-3.9-0.2-6.2-1.3-1.6-0.7-2.5-5.2-3-6.6-0.9-2.6-1.8-5.1-2.8-7.7-0.4-1-1.7-6.6-2.6-6.7-1.3 0-0.9 12.1-1.3 18.3-0.2 3.5-0.6 6.8-0.4 10.3 0.3 3.4 0.8 6.2 1.3 9.6 0.2 1.4 0.5 5.6-1.1 6.6-1.4 0.9-5.9 2-7.4 1-1.8-1.3-2.1-6-2.5-8-0.6-3.4-1-7.2-1-10.6 0-6.6-0.2-13.1 0.7-19.6l1.5-10.5c0.5-3.1 0.6-6.6 1.8-9.5 1.1-2.8 3.5-4.1 6.4-4.6 3-0.6 4.9 0.7 6.5 3.2 1.6 2.6 2.7 5.8 3.6 8.7 0.8 2.6 2.2 5.5 3.3 9.1l9.3-19.1c1.4-2.7 3.7-2.9 7.1-3.1 0.1 0.1 4.4-0.4 6.5 2.8z" fill="url(#f)"/><path d="m390.86 256.9c-2.5 2.7-5.6 3.8-9.3 4.4-6.5 1.1-13.2 1.4-17.4-4.4-4.3-6-3.9-13-4.1-20-0.3-9 3.1-23.3 3.1-23.3 0.8-3.5 1.7-6.7 3.4-9.9 0.7-1.2 1.9-2.5 3.6-3.1 2.6-0.9 3.9-0.3 5.8-0.2 3 0.2 6.4 0 9.2 1.1 2.9 1.2 6.1 3.9 7.4 6.8 1.4 3 3.4 6.4 4.2 8.7 1.2 3.5 1.6 7.8 1.8 11.5 0.3 3.4 0.1 7.4-0.7 10.8 0.1 0-2.3 12.6-7 17.6zm-12.4-1.7c7.3 1.9 8.5-21.2 8.6-24.3 0.2-7.9-0.3-23.7-8.1-24.5-3.7-0.3-4.8 8.8-5 10.7-0.6 4.9-1 9.8-1.5 14.6 0 0-3.5 21 6 23.5z" fill="url(#e)"/><path d="m214.76 213.1c0.1 2-0.1 4.1 0.1 6.1 0.1 1.7 0.1 3.4 2.3 2.9 2.4-0.6 4.5-1.2 7.1-1.2 8.3-0.1 16.8 5.7 17.7 13.7 0.2 2.3 0.1 3.3-0.2 5-0.4 2.1-0.9 3.2-1.2 4.9-0.7 3.8-3.6 8.2-6 11.1-5.4 6.3-13.5 5.5-20.7 3.5-1.9-0.5-1.9-0.5-4.8-0.7-1.4-0.1-2.6-0.5-3.7-1.4-2.7-2.3-1.4-6.4-1.1-9.4 1.1-9.5 1.8-19 2.5-28.5 0.3-4.5 0-9.2 0.6-13.7 0.2-1.2 0.1-3.8 1.2-4.6 1.4-1 5.1-0.1 6.9-0.3 4.4-0.5 8.8-1.6 13.1-2.5 2.2-0.4 4.4-0.8 6.7-1.2 2.2-0.4 4.8-1.3 7.1-0.7s5.4 2.8 4.9 5.5c-0.6 3.4-5.6 4.2-8.4 4.8-7.9 1.8-16.5 1.5-24.6 1.9zm-1.8 32.8c-0.1 2.8-1.5 6.5 1.6 6.2 3-0.3 5.9-1.4 8.6-2.8 5.4-3 7.9-7 7.9-13.3 0-1.9-1-6.4-3.5-6.5-3.3-0.2-7 1-10.2 1.5-3.4 0.5-2.8 3.2-3.2 6.2z" fill="url(#d)"/><path d="m120.46 229.9c-1.3 1.4-1.5 18.4-4.3 27-1 3.2-2.5 6.3-5.7 7.9-1.3 0.6-8.1 2.7-8.4 0.3-0.2-1.8 0.6-3.9 0.9-5.6 0.4-2.2 0.8-4.4 1.2-6.7 0.7-4.3 0.6-7.7 1.5-13.1 1.3-7.3 3.6-18.5 5.4-27.6 0.5-2.7 0.5-8.9 4.1-9.6 1.7-0.3 3.8 0.3 5.5 0.6s4.2 0.4 5.2 2.1c1.9 3.2 1.8 7.9 2.7 11.5 1.2 4.7 1.8 9.5 2.6 14.2 0.8 4.5 2 8.7 3 13.1 0 0 0.6 2.9 1.1 8.2 0.2 2.1 1.4 6.4 1.6 7.1 0.5 1.7 0.6 2.1 1.5 3.4 0.4 0.6 2.8 2.9 1.7 3.9-1.3 1.2-3.6 0.7-4.9-0.2-5.2-3.5-6.8-10.3-8.5-15.9-0.6-2.4-3.8-21.6-6.2-20.6" fill="url(#c)"/><path d="m413.56 228.6h5.6c1.7 0 6.4 0.7 6.9 2.4 1.3 4.3-4.4 5.2-6.4 5.3-2.2 0.2-4.3 0.2-6.5 0.3-0.3 2.1-0.5 3.2-0.8 5.3-0.3 2.2-0.6 4.4-1 6.5-0.2 1.1-0.9 4.9 0 5.7 1 0.8 5.1 0.5 6.4 0.5 2.2 0 3.9 0 6.1-0.1 2.2 0 3.8-0.5 6 0.2 2.5 0.9 2.2 3 0.2 4.7-3.1 2.6-7.5 2.1-11.3 2.1-5.2-0.1-10.3-0.3-15.5-0.5-4.2-0.1-2-6.4-1.9-9.1 0.1-5.1 0.7-8 1.1-13.4 0.6-9.7 1.5-19.8 1.4-29.5 0-2.3-0.1-3.7-0.4-6-0.2-2.2 1.2-4 3.4-4.2 4.8-0.6 7.4 0.1 12.2-0.2 2.3-0.1 5.7-0.3 8-0.5 1.6-0.1 3.8-0.6 5 0.5 2.5 2.4 0.4 5.5-1.2 6.8-2.9 2.4-11.8 2.1-16.9 2.1z" fill="url(#b)"/><path d="m239.96 47.2 7.1 0.1c2.7 0 5.7 1.6 5.6 5.3l1.1 54.7 13 0.2 1.4-54.5c0-3.7 3.2-5.4 5.9-5.4h0.1l8.1 0.1c2.7 0 5.8 1.8 5.8 5.5l-1.4 54.5 12.8 0.2 3.9-54.4c0-3.7 3.3-5.6 6-5.6l7 0.1c2.7 0 5.2 1.9 5.1 5.6l-3.9 73.1c0 3.7-2.5 5.5-5.2 5.5l-70.3-0.5c-4.9 0-6.3-1.9-6.2-5.5l-1.1-73.5c0.1-3.7 2.5-5.5 5.2-5.5m0-4c-5.3 0-9.1 4-9.2 9.5l1.1 73.3c0 1.2 0 4.5 2.4 6.9 2.3 2.3 5.6 2.6 7.8 2.6l70.3 0.5c5.2-0.1 9.1-4 9.2-9.4l3.9-73.1v-0.2c0-3.6-1.5-5.8-2.7-7-1.7-1.6-3.9-2.5-6.4-2.5l-7-0.1h-0.1c-6.2 0-9.9 4.8-10 9.4l-3.6 50.6h-4.9l1.3-50.5c0-2.9-1.2-5.5-3.3-7.2-1.8-1.4-4-2.2-6.4-2.3l-8.1-0.1h-0.1c-6.4 0-9.9 4.8-9.9 9.3l-1.3 50.6-5.2-0.1-1-50.7c0-4.6-3.3-9.2-9.6-9.3z" fill="url(#a)"/>
</svg>
