<svg enable-background="new 0 0 283.464 283.464" version="1.1" viewBox="0 0 233.86 138.88" xml:space="preserve" xmlns="http://www.w3.org/2000/svg"><g transform="translate(-24.803,-72.295)" fill="#fff"><g fill="#fff"><g fill="#fff"><g fill="#fff"><g fill="#fff"><g fill="#fff"><polygon points="24.803 72.295 80.125 72.295 104.82 116.49 49.508 116.49"/><polygon points="24.803 167.13 80.125 167.13 104.82 122.94 49.508 122.94"/><polygon points="101.72 72.295 157.03 72.295 181.73 116.49 126.42 116.49"/><polygon points="101.72 167.13 157.03 167.13 181.73 122.94 126.42 122.94"/><polygon points="178.62 72.295 233.94 72.295 258.66 116.49 203.34 116.49"/><polygon points="178.62 167.13 233.94 167.13 258.66 122.94 203.34 122.94"/></g></g></g></g><g fill="#fff"><g fill="#fff"><path d="m37.164 201.52h-8.052v9.215h-4.309v-22.018h4.309v8.965h8.052v-8.965h4.31v22.018h-4.31z"/><path d="m56.508 205.85h-6.765l-1.666 4.876h-4.31l7.927-22.175h3.177l7.927 22.175h-4.528zm-5.663-3.456h4.72l-1.636-4.91-0.661-3.458h-0.157l-0.66 3.49z"/><path d="m78.997 209.83c-0.671 0.479-1.525 0.821-2.563 1.029-1.039 0.209-2.104 0.311-3.193 0.311-1.321 0-2.574-0.201-3.759-0.61-1.185-0.407-2.229-1.071-3.131-1.985-0.9-0.908-1.619-2.093-2.153-3.553-0.534-1.457-0.8-3.222-0.8-5.301 0-2.158 0.296-3.967 0.895-5.424 0.597-1.458 1.372-2.633 2.327-3.523 0.954-0.89 2.018-1.531 3.191-1.919 1.176-0.387 2.351-0.581 3.522-0.581 1.26 0 2.323 0.083 3.193 0.252s1.59 0.368 2.155 0.597l-0.848 3.647c-0.483-0.229-1.054-0.397-1.717-0.499-0.659-0.109-1.46-0.16-2.405-0.16-1.74 0-3.141 0.623-4.199 1.857-1.06 1.245-1.587 3.164-1.587 5.771 0 1.133 0.125 2.167 0.377 3.104 0.251 0.937 0.633 1.735 1.147 2.395 0.514 0.663 1.153 1.18 1.92 1.545 0.765 0.367 1.65 0.553 2.657 0.553 0.944 0 1.739-0.095 2.39-0.284 0.649-0.188 1.216-0.429 1.699-0.722z"/><path d="m97.493 192.55h-6.418v18.178h-4.311v-18.178h-6.446v-3.84h17.175z"/><path d="m100.1 188.93c0.882-0.168 1.85-0.3 2.911-0.393 1.058-0.095 2.112-0.144 3.158-0.144 1.091 0 2.188 0.093 3.288 0.269 1.103 0.178 2.091 0.534 2.974 1.068 0.878 0.536 1.597 1.279 2.152 2.234s0.834 2.197 0.834 3.727c0 1.385-0.241 2.553-0.724 3.506-0.481 0.955-1.121 1.737-1.918 2.346s-1.702 1.045-2.721 1.32c-1.017 0.273-2.072 0.41-3.161 0.41h-0.503c-0.233 0-0.471-5e-3 -0.722-0.017-0.253-0.012-0.5-0.028-0.743-0.049-0.237-0.019-0.414-0.041-0.519-0.06v7.577h-4.308v-21.794zm6.415 3.176c-0.418 0-0.817 0.017-1.193 0.047-0.377 0.032-0.682 0.069-0.914 0.113v7.138c0.084 0.021 0.212 0.042 0.38 0.063 0.165 0.021 0.346 0.037 0.534 0.046 0.188 0.012 0.371 0.019 0.549 0.019h0.394c0.568 0 1.128-0.056 1.682-0.157 0.557-0.106 1.054-0.301 1.497-0.583 0.439-0.284 0.79-0.678 1.052-1.182 0.264-0.5 0.395-1.163 0.395-1.979 0-0.692-0.126-1.264-0.378-1.714-0.252-0.451-0.582-0.813-0.989-1.085-0.409-0.273-0.876-0.463-1.401-0.564-0.526-0.111-1.063-0.162-1.608-0.162z"/><path d="m117.43 199.72c0-3.666 0.808-6.493 2.422-8.475s3.923-2.973 6.92-2.973c1.575 0 2.946 0.273 4.12 0.819 1.176 0.545 2.151 1.318 2.926 2.326 0.777 1.006 1.351 2.211 1.731 3.618 0.376 1.403 0.565 2.967 0.565 4.684 0 3.673-0.813 6.499-2.438 8.479-1.626 1.979-3.927 2.97-6.905 2.97-1.594 0-2.977-0.271-4.148-0.816-1.178-0.544-2.146-1.321-2.912-2.327-0.765-1.009-1.335-2.214-1.717-3.617-0.373-1.404-0.564-2.967-0.564-4.688zm4.531 0c0 1.112 0.093 2.135 0.281 3.069 0.19 0.932 0.479 1.734 0.866 2.403 0.387 0.673 0.886 1.198 1.496 1.575 0.602 0.377 1.329 0.566 2.167 0.566 1.531 0 2.718-0.6 3.556-1.793s1.256-3.132 1.256-5.821c0-1.069-0.085-2.062-0.269-2.986-0.173-0.921-0.452-1.732-0.83-2.424-0.377-0.691-0.871-1.229-1.481-1.619-0.605-0.387-1.352-0.581-2.231-0.581-1.529 0-2.716 0.613-3.555 1.839-0.837 1.229-1.256 3.154-1.256 5.772z"/><path d="m152.41 198.53 0.25-2.864h-0.155l-1.479 2.956-8.21 12.111h-3.24v-22.018h4.311v11.983l-0.312 2.959h0.185l1.54-3.054 8.214-11.889h3.206v22.018h-4.31zm-6.13-15.287c0.082 0.673 0.328 1.156 0.736 1.448 0.409 0.294 0.938 0.439 1.588 0.439 1.402 0 2.182-0.617 2.33-1.855l3.49 0.534c-0.233 1.321-0.835 2.286-1.811 2.894-0.975 0.608-2.32 0.912-4.039 0.912-0.863 0-1.65-0.063-2.361-0.188-0.714-0.125-1.34-0.331-1.873-0.615-0.533-0.282-0.973-0.664-1.318-1.147-0.349-0.481-0.565-1.078-0.646-1.793z"/><path d="m174.68 201.33h-1.132v9.402h-4.311v-22.018h4.311v9.752l1.004-0.439 6.074-9.313h4.908l-6.416 9.247-1.7 1.196 1.76 1.226 7.33 10.349h-5.315z"/><path d="m201.95 198.53 0.252-2.864h-0.16l-1.478 2.956-8.209 12.111h-3.24v-22.018h4.309v11.983l-0.314 2.959h0.188l1.543-3.054 8.209-11.889h3.21v22.018h-4.309v-12.202z"/><path d="m222.8 201.52h-8.054v9.215h-4.31v-22.018h4.31v8.965h8.054v-8.965h4.31v22.018h-4.31z"/><path d="m230.6 199.72c0-3.666 0.81-6.493 2.424-8.475 1.617-1.982 3.923-2.973 6.921-2.973 1.575 0 2.947 0.273 4.119 0.819 1.173 0.545 2.149 1.318 2.926 2.326 0.775 1.006 1.352 2.211 1.732 3.618 0.375 1.403 0.563 2.967 0.563 4.684 0 3.673-0.812 6.499-2.436 8.479-1.626 1.979-3.928 2.97-6.904 2.97-1.594 0-2.979-0.271-4.154-0.816-1.173-0.544-2.144-1.321-2.907-2.327-0.768-1.009-1.335-2.214-1.714-3.617-0.379-1.404-0.57-2.967-0.57-4.688zm4.531 0c0 1.112 0.095 2.135 0.282 3.069 0.189 0.932 0.479 1.734 0.865 2.403 0.391 0.673 0.886 1.198 1.499 1.575 0.602 0.377 1.327 0.566 2.167 0.566 1.529 0 2.716-0.6 3.555-1.793 0.835-1.193 1.259-3.132 1.259-5.821 0-1.069-0.091-2.062-0.269-2.986-0.181-0.921-0.455-1.732-0.837-2.424-0.375-0.691-0.867-1.229-1.476-1.619-0.608-0.387-1.352-0.581-2.232-0.581-1.531 0-2.716 0.613-3.555 1.839-0.837 1.229-1.258 3.154-1.258 5.772z"/><path d="m253.56 208.66c0-0.733 0.229-1.315 0.691-1.746 0.46-0.428 1.071-0.646 1.825-0.646 0.798 0 1.427 0.218 1.887 0.646 0.463 0.431 0.694 1.013 0.694 1.746 0 0.735-0.231 1.321-0.694 1.763-0.46 0.439-1.089 0.659-1.887 0.659-0.754 0-1.365-0.22-1.825-0.659-0.463-0.442-0.691-1.028-0.691-1.763zm0.439-19.943h4.219v10.349l-0.823 5.128h-2.577l-0.818-5.128v-10.349z"/></g></g></g></g></svg>
