<?xml version="1.0" encoding="UTF-8"?>
<svg id="svg34" width="377.43pt" height="187.39pt" version="1.1" viewBox="0 0 377.43 187.39" xmlns="http://www.w3.org/2000/svg" xmlns:cc="http://creativecommons.org/ns#" xmlns:dc="http://purl.org/dc/elements/1.1/" xmlns:rdf="http://www.w3.org/1999/02/22-rdf-syntax-ns#">
 <metadata id="metadata40">
  <rdf:RDF>
   <cc:Work rdf:about="">
    <dc:format>image/svg+xml</dc:format>
    <dc:type rdf:resource="http://purl.org/dc/dcmitype/StillImage"/>
    <dc:title/>
   </cc:Work>
  </rdf:RDF>
 </metadata>
 <g id="#7c56a0ff" transform="translate(-61.46,-153.79)" fill="#7c56a0">
  <path id="path11" d="m402.96 157c0.88-0.72 1.09-2.83 2.41-2.7 4 11.06-5.87 23.73-17.36 23.47-11.38-0.34-20.61-13.14-16.29-23.98 2.13 4.3 5.63 8.08 10.54 8.99 7.11 1.39 16.44 1.11 20.7-5.78z"/>
  <path id="path13" d="m143.4 181.67c9.58-1.33 20.06 0.98 27.23 7.73 13.41 11.87 11.83 36.19-2.93 46.29-11.53 7.79-28.29 7.76-39.16-1.24-12.5-10.26-14.27-31.19-3.19-43.11 4.59-5.3 11.22-8.46 18.05-9.67m-1.03 10.88c-12.82 3.6-16.2 21.04-8.87 31.07 7.07 10.24 24.6 9.69 31.33-0.64 2.6-3.81 3.3-8.54 3.07-13.06 0.17-6.91-4.3-13.44-10.45-16.39-4.7-2.05-10.15-2.5-15.08-0.98z"/>
  <path id="path15" d="m320.52 181.72c10.28-1.55 21.58 1.27 28.92 8.91 9.81 10.25 10.26 27.52 2 38.81-10.38 14.16-33.29 15.88-46.23 4.36-11.41-10.09-13.14-29.3-3.59-41.2 4.6-5.9 11.6-9.58 18.9-10.88m-1.1 10.92c-4.38 1.38-7.91 4.77-10.06 8.76-3.59 6.87-2.77 15.56 1.34 22.02 7.51 11.21 27.49 9.71 32.84-2.83 3.25-7.59 2.59-17.57-3.59-23.53-5.35-5.09-13.56-6.66-20.53-4.42z"/>
  <path id="path17" d="m61.46 182.49 11.74 0.04-0.03 22.71 28.1 0.03 0.16-22.88 11.37 0.12v57.58h-11.55v-24.51l-28.14 0.04-0.01 24.5-11.6-0.01z"/>
  <path id="path19" d="m182.72 182.49h11.67c0.03 6.2-0.33 12.43 0.19 18.62 0.17 3.62 2.46 7.58 6.41 7.89 6.63 1.05 14.72 1.21 19.62-4.17l-0.04-22.32h11.62l-0.02 57.63-11.58 0.01-0.01-25.12c-5.9 4.67-13.75 5.31-20.97 4.54-5.98-0.96-11.63-4.72-14.05-10.39-3.75-8.38-2.51-17.78-2.84-26.69z"/>
  <path id="path21" d="m238.85 182.5 11.7-0.01 0.05 22.78 28.06-0.09v-22.68l11.68-0.01-0.07 57.63-11.57 0.02 0.02-24.5-28.21-0.05 0.04 24.44-11.64 0.06z"/>
  <path id="path23" d="m362.72 182.54 11.59-0.01v38.83l33.42-38.89 6.4 0.05-0.08 31.5c-0.21 2.76 0.21 6-1.85 8.2-2.43 2.88-6.09 4.26-9.6 5.28-0.08-7.94 0.04-15.88-0.05-23.82l-33.19 37.71-6.62 0.04z"/>
  <path id="path25" d="m418.02 219.44c3.1 1.02 6.74 2.15 8.18 5.41 2.28 4.93-1.39 10.48-5.67 12.91-6.19 4.15-14.31 3.87-20.22 8.53-5.01 3.83-7.53 9.98-8.4 16.07 7.09-12.24 25.48-13.79 36.05-5.33 15.81 12.48 14.12 40.5-2.8 51.27-11.55 6.92-28.65 5.73-37.47-5.07-6.56-8.14-7.94-19.06-7.88-29.18 0.39-10.78 2.29-22.27 9.54-30.72 4.99-6.19 12.35-9.76 19.76-12.19 5.07-1.65 8.82-6.3 8.91-11.7m-12.78 43.8c-4.55 1.09-8.51 4.14-10.8 8.2-5.09 7.94-3.37 19.25 3.33 25.74 5.05 4.84 13.05 5.75 19.32 2.91 12.55-6.44 13.6-27.13 1.69-34.75-3.89-2.76-9-3.28-13.54-2.1z"/>
  <path id="path27" d="m220.16 253.82 11.59 0.08 0.03 24.43c2.87-0.14 5.92 0.23 8.62-0.98 3.81-2.53 6.39-6.46 8.59-10.38 2.45-4.36 5.09-8.61 7.46-13.01l12.74-0.09c-6.07 9.94-11.02 21.02-19.98 28.79 6.66 3.27 10.57 9.77 14.03 16.03 2.58 4.68 5.56 9.15 7.86 14l-14.24-0.11c-2.2-5.11-4.94-9.97-7.34-14.99-1.72-3.68-4.29-7.13-8.01-8.97-2.96-1.53-6.37-1.17-9.58-1.27l-0.11 25.35-11.64-0.03z"/>
  <path id="path29" d="m273.08 312.69 24.44-58.91 8.44 0.08 22.53 58.79-12.24 0.01-15.26-37.78-15.47 37.74z"/>
  <path id="path31" d="m321.77 253.8 12.67-0.02 15.61 32.44 14.89-32.37 12.82-0.03-40.73 87.36-12.76-0.07 19.45-42.04z"/>
 </g>
</svg>
