<?xml version="1.0" encoding="UTF-8"?>
<!-- Generator: Adobe Illustrator 16.0.0, SVG Export Plug-In . SVG Version: 6.00 Build 0)  -->
<svg id="svg46" width="233.67" height="55.485" enable-background="new 0 0 283.464 283.464" version="1.1" viewBox="0 0 233.67 55.485" xml:space="preserve" xmlns="http://www.w3.org/2000/svg" xmlns:cc="http://creativecommons.org/ns#" xmlns:dc="http://purl.org/dc/elements/1.1/" xmlns:rdf="http://www.w3.org/1999/02/22-rdf-syntax-ns#"><metadata id="metadata52"><rdf:RDF><cc:Work rdf:about=""><dc:format>image/svg+xml</dc:format><dc:type rdf:resource="http://purl.org/dc/dcmitype/StillImage"/><dc:title/></cc:Work></rdf:RDF></metadata><g id="g4580" clip-rule="evenodd" fill="#ed1c24" fill-rule="evenodd" stroke="#ed1c24"><path id="path2" d="m227.78 26.074h-1.659c-1.769 0-3.083 0.373-3.94 1.119-0.855 0.746-1.285 1.757-1.285 3.028-0.027 1.327 0.395 2.356 1.265 3.089 0.87 0.731 2.218 1.099 4.044 1.099h1.576v-8.335zm5.391-4.396v27.661h-5.391v-10.7h-0.996l-7.044 10.7h-6.475l8.189-11.196c-0.54-0.084-1.07-0.229-1.597-0.436-0.524-0.208-0.996-0.477-1.41-0.809-1.022-0.719-1.797-1.667-2.322-2.842-0.525-1.174-0.788-2.452-0.788-3.835 0-1.271 0.228-2.461 0.686-3.567 0.456-1.105 1.14-2.06 2.052-2.861 0.774-0.69 1.7-1.216 2.779-1.576 1.077-0.358 2.516-0.539 4.313-0.539z"/><polygon id="polygon4" transform="translate(-24.984 -114.36)" points="229.2 163.7 229.2 145.04 213.94 164.24 210.21 164.24 210.21 136.04 215.6 136.04 215.6 154.62 230.86 135.42 234.59 135.42 234.59 163.7"/><polygon id="polygon6" transform="translate(-24.984 -114.36)" points="206.81 136.04 206.81 140.69 197.52 140.69 197.52 163.7 192.13 163.7 192.13 136.04"/><polygon id="polygon8" transform="translate(-24.984 -114.36)" points="153.35 136.04 158.74 136.04 158.74 159.06 167.28 159.06 167.28 163.7 153.35 163.7"/><path id="path10" d="m107.39 39.136h7.941l-3.927-9.986zm11.957 10.203-2.288-5.806h-11.439l-2.336 5.806h-5.854l11.984-28.241h4.064l11.654 28.241z"/><path id="path12" d="m46.201 45.067c2.682 0 4.887-0.892 6.614-2.675 1.729-1.783 2.592-4.07 2.592-6.863 0-2.792-0.863-5.087-2.592-6.884-1.728-1.798-3.933-2.695-6.614-2.695-2.709 0-4.928 0.897-6.656 2.695-1.728 1.797-2.578 4.092-2.55 6.884 0 2.793 0.856 5.08 2.571 6.863 1.714 1.784 3.926 2.675 6.635 2.675zm0-24.012c4.313 0 7.851 1.362 10.616 4.085 2.765 2.724 4.147 6.187 4.147 10.389-0.027 4.23-1.417 7.693-4.169 10.389-2.75 2.696-6.282 4.044-10.595 4.044-4.341 0-7.887-1.348-10.638-4.044-2.751-2.695-4.127-6.158-4.127-10.389 0-4.202 1.376-7.657 4.127-10.367 2.752-2.709 6.298-4.079 10.639-4.107z"/><polygon id="polygon14" transform="translate(-24.984 -114.36)" points="51.445 136.04 51.445 164.24 47.712 164.24 30.875 145 30.875 163.7 25.484 163.7 25.484 135.42 29.216 135.42 46.054 154.66 46.054 136.04"/><polygon id="polygon16" transform="translate(-24.984 -114.36)" points="85.403 164 101.06 148.07 96.516 143.55 100.54 139.5 114.69 153.57 110.66 157.62 105.63 152.6 89.63 169.1"/><path id="path18" d="m145.25 48.95v-27.66h5.391v10.823h4.314c1.547 0 2.868 0.2 3.959 0.601 1.093 0.401 2.039 0.961 2.842 1.679 0.773 0.747 1.395 1.647 1.865 2.696 0.47 1.052 0.705 2.212 0.705 3.484 0 0.939-0.139 1.839-0.415 2.695-0.275 0.857-0.635 1.617-1.078 2.281-0.773 1.134-1.79 1.983-3.047 2.549-1.259 0.568-2.855 0.852-4.79 0.852zm5.391-12.192v7.547h3.151c1.688 0.029 2.938-0.29 3.754-0.952 0.816-0.664 1.224-1.591 1.224-2.779 0-1.162-0.407-2.088-1.224-2.778-0.815-0.692-2.039-1.037-3.67-1.037h-3.235z"/><path id="path20" d="m95.724 38.092c-1.712 6.976-8.076 12.184-15.628 12.184-8.859 0-16.085-7.163-16.085-15.942 0-8.08 6.124-14.792 14.007-15.808l4.394 4.855c-0.748-0.155-1.522-0.238-2.315-0.238-6.22 0-11.292 5.028-11.292 11.19 0 6.163 5.072 11.19 11.292 11.19 6.218 0 11.29-5.027 11.29-11.19 0-0.369-0.019-0.735-0.055-1.096z"/></g><g id="g40" transform="translate(-24.984 -114.36)"><path id="path22" d="m25.315 114.36h8.388v2.848h-2.765v12.33h-2.931v-12.33h-2.692z"/><path id="path24" d="m46.259 114.36h8.285v2.828h-5.417v2.744h5.417v2.775h-5.417v3.993h5.417v2.837h-8.285z"/><path id="path26" d="m77.627 129.54-4.201-11.159-4.274 11.159h-3.064l5.857-15.178h2.93l5.838 15.178z"/><path id="path28" d="m93.04 114.36h8.285v2.828h-5.417v2.744h5.417v2.775h-5.417v3.993h5.417v2.837h-8.285z"/><path id="path30" d="m114.6 114.36h2.92v5.232l4.12-5.232h3.469l-5.3 6.773 5.815 8.404h-3.425l-4.68-6.744v6.744h-2.92v-15.177z"/><path id="path32" d="m142.88 114.36h2.931l5.838 15.178h-3.003l-1.188-3.126h-6.193l-1.235 3.126h-3.002zm1.484 4.023-2.037 5.211h4.061z"/><path id="path34" d="m164.44 114.36h2.929v5.727h5.066v-5.727h2.921v15.178h-2.921v-6.655h-5.066v6.655h-2.929z"/><path id="path36" d="m194.02 114.36h2.929l5.838 15.178h-3.002l-1.188-3.126h-6.193l-1.234 3.126h-3.003zm1.484 4.023-2.037 5.211h4.06z"/><path id="path38" d="m225.41 129.54-4.201-11.159-4.275 11.159h-3.063l5.857-15.178h2.931l5.837 15.178z"/></g></svg>
