<?xml version="1.0" encoding="UTF-8"?>
<!-- Generator: Adobe Illustrator 16.0.0, SVG Export Plug-In . SVG Version: 6.00 Build 0)  -->
<!DOCTYPE svg  PUBLIC '-//W3C//DTD SVG 1.1//EN'  'http://www.w3.org/Graphics/SVG/1.1/DTD/svg11.dtd'>
<svg id="svg156" width="233.29px" height="73.779px" enable-background="new 0 0 233.29 73.779" version="1.1" viewBox="0 0 233.29 73.779" xml:space="preserve" xmlns="http://www.w3.org/2000/svg">
<rect id="rect138" x="73.777" width="159.51" height="73.776" fill="#FDC113"/>
<path id="path140" d="m104.61 43.534c0.531 0.244 0.729 0.904 0.412 1.396-2.089 3.229-5.392 4.489-8.178 4.489-4.757 0-9.548-2.771-9.548-8.282v-8.351c0-5.476 4.791-8.282 9.651-8.282 2.74 0 6.003 1.073 8.027 4.609 0.288 0.502 0.055 1.147-0.483 1.364l-3.305 1.336c-0.382 0.152-0.827 0.053-1.091-0.266-1.965-2.355-6.674-1.573-6.674 1.237v8.351c0 2.684 4.655 3.59 6.427 1.086 0.272-0.384 0.773-0.529 1.2-0.33l3.562 1.643z" fill="#fff"/>
<path id="path142" d="m115.47 34.36h8.387c0.534 0 0.968 0.433 0.968 0.967v3.372c0 0.535-0.434 0.967-0.968 0.967h-8.387c-0.258 0-0.469 0.211-0.469 0.472v2.688c0 0.258 0.211 0.469 0.469 0.469h9.243c0.533 0 0.967 0.433 0.967 0.966v3.854c0 0.531-0.434 0.965-0.967 0.965h-14.942c-0.532 0-0.965-0.434-0.965-0.965v-22.302c0-0.532 0.433-0.965 0.965-0.965h14.942c0.533 0 0.967 0.433 0.967 0.965v3.818c0 0.533-0.434 0.967-0.967 0.967h-9.243c-0.258 0-0.469 0.209-0.469 0.469v2.826c0 0.258 0.211 0.467 0.469 0.467z" fill="#fff"/>
<path id="path144" d="m129.68 25.811c0-0.532 0.433-0.965 0.966-0.965h8.722c5.92 0 8.863 4.276 8.863 8.557 0 4.313-2.979 8.59-8.831 8.59h-2.627c-0.534 0-0.966 0.432-0.966 0.965v5.154c0 0.531-0.434 0.965-0.967 0.965h-4.194c-0.533 0-0.966-0.434-0.966-0.965v-22.301zm9.688 10.741c3.695 0.033 3.695-6.022 0-5.989h-2.595c-0.534 0-0.966 0.433-0.966 0.965v4.059c0 0.534 0.432 0.967 0.966 0.967l2.595-2e-3z" fill="#fff"/>
<path id="path146" d="m165.48 34.833c-0.026-0.035-0.114-0.048-0.155-0.029-0.019 9e-3 -0.035 0.051-0.046 0.066-1.792 3.478-5.7 10.18-7.753 13.67-0.173 0.295-0.488 0.476-0.832 0.476h-4.25c-0.533 0-0.966-0.433-0.966-0.966v-22.204c0-0.534 0.433-0.966 0.966-0.966h4.198c0.54 0 0.976 0.442 0.965 0.984-0.079 3.584-0.379 10.171-0.503 13.524 0 0.012-1e-3 0.047 5e-3 0.057 0.022 0.027 0.093 0.043 0.124 0.025 0.012-7e-3 0.025-0.033 0.031-0.043 1.961-3.504 5.793-10.476 7.871-14.068 0.174-0.298 0.49-0.48 0.836-0.48h4.074c0.533 0 0.965 0.432 0.965 0.966v22.203c0 0.533-0.432 0.966-0.965 0.966h-4.195c-0.543 0-0.979-0.445-0.967-0.986 0.088-3.486 0.353-9.871 0.602-13.116 2e-3 -0.02 8e-3 -0.066-5e-3 -0.079z" fill="#fff"/>
<path id="path148" d="m195.01 49.077h-4.438c-0.432 0-0.813-0.277-0.946-0.688l-1.129-3.486c-0.133-0.408-0.515-0.687-0.945-0.687h-5.014c-0.436 0-0.82 0.283-0.949 0.699l-1.071 3.461c-0.129 0.416-0.515 0.699-0.949 0.699h-4.438c-0.685 0-1.164-0.676-0.938-1.322l7.761-22.242c0.139-0.398 0.516-0.666 0.938-0.666h4.171c0.421 0 0.796 0.263 0.938 0.658l7.947 22.244c0.228 0.649-0.251 1.33-0.938 1.33zm-8.963-10.302c0.386 0 0.67-0.359 0.582-0.734l-1.504-6.349h-0.172l-1.593 6.341c-0.094 0.377 0.19 0.742 0.58 0.742h2.107z" fill="#fff"/>
<path id="path150" d="m208.97 34.772c-0.022 0.018-0.028 0.038-0.031 0.051-1.04 3.407-4.173 13.768-4.173 13.768-0.073 0.261-0.311 0.438-0.58 0.438h-4.745c-0.659 0-1.126-0.646-0.915-1.271l7.463-22.203c0.135-0.394 0.502-0.659 0.916-0.659h4.241c0.412 0 0.778 0.261 0.913 0.65l7.65 22.204c0.219 0.627-0.248 1.279-0.912 1.279h-4.741c-0.267 0-0.501-0.174-0.575-0.428 0 0-3.195-10.336-4.271-13.783-4e-3 -0.011-0.01-0.03-0.033-0.046-0.042-0.03-0.167-0.03-0.207 0z" fill="#fff"/>
<rect id="rect34" y=".002" width="73.776" height="73.777" fill="#11AA4B"/>
<path id="path56" d="m34.538 41.37c0-0.563 0.457-1.02 1.02-1.02s1.019 0.457 1.019 1.02c0 0.564-0.456 1.019-1.019 1.019s-1.02-0.455-1.02-1.019m17.199-1.655h-2.619v-3.31h2.667c0.825 0 1.561 0.735 1.561 1.611-1e-3 1.01-0.78 1.699-1.609 1.699m0.461 6.481h-3.08v-3.447h3.08c1.01 0 1.792 0.734 1.792 1.701 0 1.056-0.736 1.746-1.792 1.746m0.641 3.265c3.266 0 5.241-1.885 5.241-4.827 0-1.748-0.873-3.171-2.479-3.859 1.24-0.83 1.517-2.025 1.517-3.266 0-2.852-2.163-4.277-5.196-4.277h-9.24v3.175h2.667v9.791h-2.667v3.266h10.157v-3e-3zm-20.732-16.231h-6.16v6.484h-3.723v-6.484h-6.159v3.175h2.665v9.791h-2.665v3.266h6.159v-6.713h3.723v6.713h6.16v-3.266h-2.574v-9.791h2.574v-3.175zm27.398 7.45c1.194 0.871 2.07 2.389 2.07 4.139 0 2.666-0.829 4.273-2.3 5.746-1.471 1.471-3.906 2.387-6.804 2.387h-13.193v-3.799c2.065-0.766 3.538-2.756 3.538-5.086 0-2.332-1.473-4.322-3.538-5.088v-12.089h3.403v3.032h3.355v-5.792h-17.285v5.792h3.355v-3.032h3.401v12.085c-2.065 0.77-3.541 2.756-3.541 5.092 0 2.33 1.476 4.322 3.541 5.088v3.797h-22.844v-10.203h2.71v-3.033h-2.71v-9.974h12.595v-8.968h24.367v8.968h1.698c2.527 0 4.965 0.596 6.528 1.745 1.7 1.24 2.759 3.079 2.759 5.608 0 1.054-0.232 2.62-1.105 3.585" fill="#fff"/>
</svg>
