<!DOCTYPE svg  PUBLIC '-//W3C//DTD SVG 1.1//EN'  'http://www.w3.org/Graphics/SVG/1.1/DTD/svg11.dtd'>
<svg enable-background="new 0 0 232.75 73.607" version="1.1" viewBox="0 0 232.75 73.607" xml:space="preserve" xmlns="http://www.w3.org/2000/svg">
<rect y=".002" width="73.607" height="73.605" fill="#11AA4B"/>
<rect x="73.607" width="159.14" height="73.606" fill="#4655A5"/>
<path d="m34.459 41.27c0-0.563 0.456-1.018 1.017-1.018 0.562 0 1.017 0.455 1.017 1.018s-0.456 1.017-1.017 1.017c-0.561-2e-3 -1.017-0.455-1.017-1.017m17.158-1.653h-2.613v-3.302h2.661c0.823 0 1.556 0.734 1.556 1.608 1e-3 1.007-0.777 1.694-1.604 1.694m0.461 6.467h-3.074v-3.439h3.073c1.007 0 1.788 0.732 1.788 1.699 0 1.053-0.734 1.74-1.787 1.74m0.64 3.258c3.257 0 5.229-1.881 5.229-4.816 0-1.744-0.871-3.164-2.475-3.852 1.238-0.826 1.513-2.021 1.513-3.256 0-2.846-2.157-4.27-5.184-4.27h-9.219v3.167h2.661v9.769h-2.661v3.258h10.136zm-20.685-16.193h-6.146v6.469h-3.713v-6.469h-6.145v3.167h2.659v9.769h-2.659v3.258h6.145v-6.697h3.713v6.697h6.146v-3.258h-2.568v-9.769h2.568v-3.167zm27.336 7.431c1.191 0.871 2.065 2.385 2.065 4.131 0 2.66-0.827 4.262-2.295 5.731-1.467 1.468-3.897 2.381-6.788 2.381h-13.163v-3.79c2.06-0.765 3.528-2.748 3.528-5.072 0-2.326-1.469-4.313-3.528-5.076v-12.063h3.394v3.027h3.348v-5.779h-17.245v5.779h3.348v-3.027h3.393v12.06c-2.06 0.768-3.532 2.75-3.532 5.08 0 2.324 1.472 4.311 3.532 5.076v3.786h-22.793v-10.18h2.704v-3.026h-2.704v-9.95h12.566v-8.946h24.311v8.946h1.695c2.521 0 4.953 0.594 6.513 1.741 1.697 1.237 2.752 3.072 2.752 5.596 0 1.05-0.231 2.612-1.101 3.575" fill="#fff"/>
<path d="m104.73 49.018h-4.211c-0.53 0-0.961-0.43-0.961-0.961v-22.203c0-0.531 0.431-0.962 0.961-0.962h17.125c0.531 0 0.961 0.431 0.961 0.962v22.203c0 0.531-0.431 0.961-0.961 0.961h-4.21c-0.532 0-0.961-0.43-0.961-0.961v-16.41c0-0.532-0.43-0.962-0.962-0.962h-4.858c-0.531 0-0.961 0.43-0.961 0.962v16.41c-1e-3 0.531-0.431 0.961-0.962 0.961z" fill="#fff"/>
<path d="m123.83 25.854c0-0.531 0.43-0.962 0.961-0.962h8.682c5.896 0 8.826 4.26 8.826 8.521 0 4.293-2.967 8.554-8.793 8.554h-2.617c-0.529 0-0.961 0.43-0.961 0.959v5.133c0 0.531-0.43 0.961-0.961 0.961h-4.176c-0.531 0-0.961-0.43-0.961-0.961v-22.205zm9.643 10.693c3.68 0.033 3.68-5.997 0-5.964h-2.584c-0.529 0-0.961 0.432-0.961 0.961v4.041c0 0.532 0.432 0.962 0.961 0.962h2.584z" fill="#fff"/>
<path d="m163.08 49.018h-4.418c-0.428 0-0.809-0.274-0.941-0.686l-1.121-3.47c-0.135-0.407-0.514-0.684-0.942-0.684h-4.992c-0.435 0-0.815 0.283-0.944 0.697l-1.066 3.444c-0.129 0.414-0.512 0.695-0.945 0.695h-4.42c-0.682 0-1.158-0.672-0.936-1.313l7.727-22.15c0.139-0.396 0.514-0.664 0.936-0.664h4.152c0.42 0 0.793 0.263 0.934 0.656l7.914 22.146c0.224 0.653-0.252 1.329-0.938 1.329zm-8.922-10.256c0.385 0 0.668-0.359 0.578-0.732l-1.496-6.32h-0.17l-1.586 6.313c-0.096 0.375 0.188 0.74 0.578 0.74h2.096z" fill="#fff"/>
<path d="m183.56 35.804c-0.242 0.179-0.242 0.548 0.014 0.708 2.75 1.724 3.09 4.548 2.803 6.271-0.613 3.883-3.238 6.233-8.586 6.233h-8.887c-0.531 0-0.963-0.43-0.963-0.961v-22.202c0-0.531 0.432-0.962 0.963-0.962h8.715c4.6 0 7.973 2.76 7.838 7.36-0.031 0.96-0.586 2.572-1.897 3.553zm-5.943-1.472c2.965 0 3.065-4.295 0-4.295h-2.582c-0.531 0-0.963 0.432-0.963 0.962v2.371c0 0.531 0.432 0.962 0.963 0.962h2.582zm0 9.336c3.682 0 3.61-4.941 0-4.941h-2.582c-0.531 0-0.963 0.43-0.963 0.963v3.019c0 0.53 0.432 0.961 0.963 0.961l2.582-2e-3z" fill="#fff"/>
<path d="m190.24 32.681c0-5.555 4.975-8.281 9.984-8.281 5.008 0 10.018 2.761 10.018 8.281v8.247c0 5.52-4.975 8.279-9.984 8.279-5.008 0-10.018-2.761-10.018-8.279v-8.247zm6.1 8.247c0 1.771 1.975 2.621 3.918 2.621s3.885-0.885 3.885-2.621v-8.247c0-1.875-2.01-2.726-3.985-2.726-1.908 0-3.816 0.953-3.816 2.726l-2e-3 8.247z" fill="#fff"/>
</svg>
