<svg width="1500.8" height="537.6" version="1.1" viewBox="0 0 1407 504" xmlns="http://www.w3.org/2000/svg">
 <link href="" rel="stylesheet" type="text/css"/>
 <style type="text/css"/>
 <g transform="matrix(21 0 0 21 -230.43 -692.75)">
  <path d="m38.973 38.988v3l2 2 3-3-2-2zm9 0-9 9v3h3l9-9v-3zm1 7-3 3 2 2h3v-3z" color="#000000" color-rendering="auto" fill="#009edb" image-rendering="auto" shape-rendering="auto" solid-color="#000000" text-rendering="auto" style="isolation:auto;mix-blend-mode:normal"/>
 </g>
 <g transform="matrix(21 0 0 21 -230.43 -692.75)">
  <path d="m52.473 38.988v7l4-4v-3zm9 0-9 9v3h3l9-9v-3zm3 5-4 4v3h4z" color="#000000" color-rendering="auto" fill="#009edb" image-rendering="auto" shape-rendering="auto" solid-color="#000000" text-rendering="auto" style="isolation:auto;mix-blend-mode:normal"/>
 </g>
 <path d="m1155 126v89.25h63.533v-25.75l126-1e-5v25.75l62.467 1e-5v-89.25z" color="#000000" color-rendering="auto" fill="#009edb" image-rendering="auto" shape-rendering="auto" solid-color="#000000" text-rendering="auto" style="isolation:auto;mix-blend-mode:normal"/>
 <path d="m1237.4 378h87.25v-162.75h-87.25z" color="#000000" color-rendering="auto" fill="#009edb" image-rendering="auto" shape-rendering="auto" solid-color="#000000" text-rendering="auto" style="isolation:auto;mix-blend-mode:normal"/>
 <g transform="matrix(21 0 0 21 -230.43 -692.75)">
  <path d="m34.973 44.988a12 12 0 0 1-12 12 12 12 0 0 1-12-12 12 12 0 0 1 12-12 12 12 0 0 1 12 12z" color="#000000" color-rendering="auto" fill="#009edb" image-rendering="auto" shape-rendering="auto" solid-color="#000000" text-rendering="auto" style="isolation:auto;mix-blend-mode:normal"/>
  <path d="m19.641 39.68v2.9629h-4.0352v3.0254h0.78125v0.98438h-0.78125v3.0273h7.2168v-1.0488a1.7525 1.7525 0 0 1-1.1289-1.6367 1.7525 1.7525 0 0 1 1.1289-1.6367v-3.668h-1.0723v1.0977h-1.1094v-2.0254h5.6074v2.0254l-1.1465 0.01172v-1.0996h-0.0059v-0.0098h-0.97852l0.0039 3.6875a1.7525 1.7525 0 0 1 1.0762 1.6172 1.7525 1.7525 0 0 1-1.0742 1.6152l2e-3 1.0703h4.4355l0.24609-0.01172 0.24609-0.03711 0.24414-0.06445 0.24414-0.08203 0.22656-0.10938 0.22266-0.13086 0.20703-0.16016 0.19336-0.16992 0.17383-0.20508 0.16016-0.22266 0.13086-0.23633 0.10352-0.23438 0.08008-0.23828 0.04492-0.24024 0.02344-0.24414-0.0078-0.16992-0.01563-0.16406-0.0332-0.14453-0.04687-0.13867-0.04883-0.125-0.0625-0.12305-0.13281-0.22266-0.0625-0.07617-0.05664-0.06445-0.06055-0.05078 0.07227-0.12891 0.05664-0.12305 0.04297-0.11914 0.06445-0.26758 0.03125-0.25 0.01367-0.24805-0.02539-0.23633-0.04492-0.22266-0.06641-0.20703-0.08398-0.20313-0.10352-0.18359-0.13086-0.17969-0.14062-0.16406-0.15234-0.14258-0.16797-0.13672-0.17773-0.12305-0.1875-0.10352-0.19922-0.0957-0.19922-0.08008-0.20508-0.06055-0.20508-0.05078-0.21094-0.03125-0.20898-0.02148h-1.0996v-2.9551h-7.6113zm-3.0195 3.9766h1.9863v2.0117h1.0254v-2.0117h2.1172v0.98438h-0.91406v3.041h0.91406v0.98047h-2.1172v-2.0098h-1.0254v2.0098h-1.9863v-0.98047h0.78516v-3.041h-0.78516zm8.5371 0h3.082l0.23828 0.01172 0.22852 0.03906 0.21094 0.06055 0.19141 0.08008 0.17188 0.09961 0.15039 0.12305 0.13672 0.13281 0.10352 0.15039 0.08398 0.17188 0.05469 0.17188 0.02734 0.19141v0.19531l-0.03125 0.19922-0.05078 0.15039-0.06445 0.14062-0.08398 0.13086-0.08789 0.10547-0.07227 0.07422-0.03125 0.03711-0.11133 0.11133 0.01367 0.01367 0.02734 0.02148 0.03516 0.03125 0.04687 0.03711 0.04883 0.03906 0.03906 0.0332 0.0332 0.02734 0.0918 0.08008 0.09375 0.0957 0.08789 0.10352 0.0918 0.12695 0.06055 0.10742 0.05273 0.12109 0.03906 0.12305 0.01953 0.13281 0.0078 0.13867-0.01172 0.15234-0.03906 0.1543-0.06055 0.17188-0.0957 0.17188-0.12305 0.17969-0.12695 0.14844-0.15234 0.11914-0.16406 0.10742-0.17969 0.08008-0.19141 0.05859-0.19336 0.04102-0.19531 0.01172h-3.4141v-0.98047h0.90625v-3.043h-0.89453v-0.98242zm2.0859 0.98242v1.0293h0.76172l0.14648-0.01367 0.12695-0.02734 0.10742-0.05078 0.08594-0.06055 0.0625-0.08203 0.04687-0.08203 0.0293-0.0957 0.0078-0.0918-0.0078-0.10352-0.0293-0.09766-0.05078-0.08594-0.06836-0.08008-0.08203-0.06641-0.10742-0.04883-0.12891-0.03711-0.14258-0.0059h-0.75781zm0 2.0039v1.0391h0.82812l0.14453-0.01172 0.13281-0.0332 0.10156-0.04297 0.08398-0.06836 0.06836-0.08008 0.04883-0.08398 0.02734-0.0957 0.0078-0.0957-0.0078-0.09961-0.02734-0.0957-0.05273-0.08789-0.06836-0.08008-0.08789-0.06836-0.10742-0.04687-0.12305-0.03516-0.14453-0.01367h-0.82422z" fill="#fff" fill-rule="evenodd"/>
 </g>
 <path d="m249.01 269.1a6.657 6.657 0 0 0-6.6855 6.6856 6.657 6.657 0 0 0 6.6855 6.6445 6.657 6.657 0 0 0 6.6445-6.6445 6.657 6.657 0 0 0-6.6445-6.6856z" color="#000000" color-rendering="auto" fill="#fff" image-rendering="auto" shape-rendering="auto" solid-color="#000000" text-rendering="auto" style="isolation:auto;mix-blend-mode:normal"/>
</svg>
