<svg width="28.202mm" height="18.553mm" version="1.1" viewBox="0 0 28.202 18.553" xmlns="http://www.w3.org/2000/svg">
 <path d="m22.53 10.919h-1.5116v-1.9082h1.538c0.47704 0 0.90117 0.4244 0.90117 0.9279 0 0.58287-0.45059 0.98028-0.92763 0.98028m0.26458 3.7372h-1.7762v-1.9878h1.7762c0.58235 0 1.0345 0.42387 1.0345 0.98081 0 0.60907-0.42439 1.007-1.0345 1.007m0.37148 1.8814c1.882 0 3.0221-1.0858 3.0221-2.7829 0-1.0075-0.50324-1.8283-1.4314-2.2262 0.7157-0.47705 0.87551-1.166 0.87551-1.882 0-1.6431-1.247-2.4654-2.9962-2.4654h-5.3274v1.8296h1.538v5.6454h-1.538v1.8812zm-11.954-9.3565h-3.5515v3.7378h-2.1474v-3.7378h-3.5515v1.8296h1.537v5.6454h-1.537v1.8812h3.5515v-3.869h2.1474v3.869h3.5515v-1.8812h-1.4843v-5.6454h1.4843zm15.797 4.2942c0.68898 0.50323 1.1933 1.3787 1.1933 2.3863 0 1.5364-0.4781 2.4641-1.325 3.3126-0.84852 0.84878-2.2532 1.3785-3.9227 1.3785h-7.6078v-15.028h1.9616v1.7489h1.9349v-3.3396h-9.9658v3.3396h1.9349v-1.7489h1.9606v15.028h-13.172v-5.8835h1.5634v-1.7494h-1.5634v-5.7515h7.2623v-5.1684h14.049v5.1684h0.98028c1.4568 0 2.8612 0.34422 3.7626 1.007 0.98187 0.7157 1.5912 1.7762 1.5912 3.2343-8e-4 0.60801-0.13362 1.5097-0.63686 2.0661z" fill="#fff" stroke-width=".26458"/>
 <path d="m17.386 13.429a3.1271 3.1271 0 0 1-3.1271 3.1271 3.1271 3.1271 0 0 1-3.1271-3.1271 3.1271 3.1271 0 0 1 3.1271-3.1271 3.1271 3.1271 0 0 1 3.1271 3.1271z" fill="#4eac46" stroke-width=".21356"/>
 <g fill="#fff">
  <path d="m12.613 11.874c0-0.32411 0.26379-0.58711 0.58817-0.58711 0.32464 0 0.58764 0.263 0.58764 0.58711 0 0.32544-0.263 0.58923-0.58764 0.58923-0.32438-2.7e-4 -0.58817-0.26379-0.58817-0.58923" fill="#fff" stroke-width=".26458"/>
 </g>
</svg>
