<svg width="211.67mm" height="57.398mm" version="1.1" viewBox="0 0 211.67 57.398" xmlns="http://www.w3.org/2000/svg">
 <defs>
  <clipPath id="a">
   <path d="m0 0h839.06v595.28h-839.06z"/>
  </clipPath>
 </defs>
 <g transform="translate(32.352 -95.596)">
  <g transform="matrix(2.4334 0 0 -2.4334 70.041 104.78)">
   <path d="m0 0c2.197 0 4.056-0.777 5.61-2.332 1.521-1.521 2.298-3.413 2.298-5.61 0-1.749 7e-3 -6.312 3e-3 -7.672l-1.633 3e-3c-3e-3 1.059 8e-3 6.411 8e-3 7.669 0 1.825-0.439 3.245-1.723 4.529-1.285 1.284-2.772 1.892-4.563 1.892-1.825 0-3.346-0.642-4.63-1.926s-1.893-2.67-1.893-4.495c0-1.791 0.609-3.244 1.893-4.529 1.284-1.284 2.805-1.824 4.63-1.824 0.324 0 0.637 0.018 0.94 0.057l0.949-1.403c-0.6-0.139-1.229-0.209-1.889-0.209-2.197 0-4.055 0.777-5.61 2.298-1.555 1.554-2.332 3.447-2.332 5.61 0 2.197 0.777 4.089 2.332 5.61 1.555 1.555 3.413 2.332 5.61 2.332" fill="#648383"/>
  </g>
  <g transform="matrix(2.4334 0 0 -2.4334 14.934 137.58)">
   <path d="m0 0c1.42-1.453 3.38-2.197 5.847-2.197 2.298 0 4.157 0.744 5.61 2.197 1.453 1.419 2.197 3.278 2.231 5.475v11.747h-1.792v-11.578c0-1.656-0.608-3.075-1.791-4.259-1.216-1.182-2.636-1.791-4.292-1.791-1.757 0-3.244 0.609-4.461 1.791-1.183 1.184-1.791 2.603-1.791 4.259v7.502h-1.825v-7.671c0.067-2.197 0.811-4.056 2.264-5.475" fill="#8f9999"/>
  </g>
  <g transform="matrix(2.4334 0 0 -2.4334 125.79 110.86)">
   <path d="m0 0c-1.453 1.454-3.312 2.163-5.61 2.163-2.467 0-4.428-0.709-5.847-2.163-1.453-1.453-2.197-3.278-2.264-5.475v-7.604h1.825v7.435c0 1.657 0.608 3.076 1.791 4.259 1.183 1.182 2.67 1.757 4.461 1.757 1.656 0 3.076-0.575 4.292-1.757 1.183-1.183 1.791-2.602 1.791-4.259v-0.067h1.792v0.236c-0.034 2.197-0.778 4.022-2.231 5.475" fill="#b6a4b5"/>
  </g>
  <g transform="matrix(2.4334 0 0 -2.4334 138.39 95.596)">
   <path d="m0 0v-12.595c0-1.656 0.608-3.075 1.825-4.258 1.183-1.183 2.67-1.791 4.461-1.791 0.148 0 0.295 5e-3 0.44 0.015v-1.764c-0.145-5e-3 -0.292-8e-3 -0.44-8e-3 -2.433 0-4.393 0.709-5.847 2.163-1.453 1.453-2.197 3.278-2.23 5.474 0 1.911-0.012 12.76-0.012 12.76z" fill="#e2b5a3"/>
  </g>
  <path d="m153.19 113.83h-9.3757v-4.5236h9.3757z" fill="#e2b5a3"/>
  <path d="m169.81 133.98c2.6378 0 4.8789 0.92711 6.7282 2.7813 1.8469 1.8542 2.7716 4.1002 2.7716 6.738 0 2.611-0.92467 4.8472-2.7716 6.7088-1.8494 1.8615-4.0905 2.7886-6.7282 2.7886-2.6134 0-4.8472-0.9271-6.7088-2.7886-1.8615-1.8615-2.7911-4.0978-2.7911-6.7088 0-2.6378 0.92954-4.8837 2.7911-6.738 1.8615-1.8542 4.0953-2.7813 6.7088-2.7813" fill="#e2b5a3"/>
  <path d="m165.81 140.93 0.0462-2.0562 1.4892 0.0316-0.0487 2.0586 1.4697 0.0316-0.017 0.83951-1.4697-0.0316-0.0973 4.3727c-0.017 0.73 0.0852 0.91007 0.52804 0.91981 0.26523 5e-3 0.63997-0.0414 0.92467-0.12897l-0.0195 0.86627c-0.39177 0.0852-0.94414 0.15574-1.404 0.146-1.185-0.0268-1.5452-0.5621-1.5208-1.6741l0.1022-4.5358-1.2216-0.0268 0.017-0.83951z" fill="#fff"/>
  <g transform="matrix(2.4334 0 0 -2.4334 175.03 141.13)">
   <path d="m0 0 0.64-0.014-1.117-2.804-0.669 0.015-0.993 2.851 0.64-0.014 0.7-2.238z" fill="#fff"/>
  </g>
  <g transform="matrix(2.4334 0 0 -2.4334 -1733 700.45)">
   <g clip-path="url(#a)">
    <g transform="translate(712.62 242.33)">
     <path d="m0 0c-1.453 1.453-3.38 2.197-5.846 2.197-2.299 0-4.191-0.744-5.611-2.197-1.453-1.419-2.196-3.244-2.264-5.475 0.023 0.046 0.01-5.244 3e-3 -7.608h1.822v7.439c0 1.656 0.608 3.075 1.791 4.259 1.183 1.182 2.636 1.791 4.292 1.791 1.758 0 3.245-0.609 4.428-1.791 1.216-1.184 1.825-2.603 1.825-4.259v-11.666h1.791v11.835c-0.034 2.231-0.778 4.056-2.231 5.475" fill="#b8b0a4"/>
    </g>
   </g>
  </g>
 </g>
</svg>
