<svg id="a" width="592.44pt" height="122.85pt" version="1.1" viewBox="0 0 592.44 122.85" xmlns="http://www.w3.org/2000/svg">
 <g id="b" transform="translate(-12,-71.75)" fill="#ff5a00">
  <path id="c" d="m279.53 71.75 29.21 29.21-29.06 29.12-29.19-29.03z"/>
  <path id="d" d="m218.2 133.27 29.29-29.45 29.16 29.18-29.23 29.46z"/>
  <path id="e" d="m250.5 165.28 29.2-29.24 29.17 29.26-29.25 29.3z"/>
 </g>
 <g id="f" transform="translate(-12,-71.75)" fill="#fff">
  <path id="g" d="m12.01 109.26 15.49-0.01-0.03 18.03 33.79-0.02 0.03-17.96 15.42-0.01 0.03 50.98h-15.48l-0.02-20h-33.78l0.01 19.98-15.47 0.02z"/>
  <path id="h" d="m84.5 109.25c15.52 0.05 31.05-0.02 46.57 0.03 3.91 0.16 8.3 0.54 11.18 3.51 3.13 3.5 3.48 8.55 3.15 13.02-0.22 3.34-2.15 6.27-4.77 8.25 2.98 1.74 5.6 4.42 6.23 7.93 0.83 4.59 0.73 9.83-2.05 13.77-2.98 3.9-8.28 4.39-12.81 4.52-15.82-0.03-31.64 0.02-47.47-0.03-0.03-17 0.03-34-0.03-51m15.77 12.21v6.7802l28.66-0.07c4.1373-0.0101 3.9612-6.7102 0-6.7102h-28.66m0 18.54v8l28.66-0.19c4.4834 0 4.3653-7.75-0.87-7.75z"/>
  <path id="i" d="m151.29 109.3 15.42-0.01 0.03 17.97 8.09 0.01 17.676-17.98 21.404-0.0398-25.18 24.43 28.45 26.57-22.39 0.05-19.98-20.05-8.04 0.01-0.03 20.01h-15.47z"/>
  <path id="j" d="m331.86 109.82c10.01-1.36 20.18-1.37 30.25-0.68 5.23 0.71 11.43 0.39 15.54 4.23 3.04 4.45 3.14 10.14 3.08 15.33l-15.16 0.05c-0.56-1.75-0.63-3.83-2.03-5.18-3.22-1.7-7-1.56-10.53-1.82-5.34-0.04-10.83-0.25-16 1.27-3 2.69-2.39 7.3-2.56 10.95 0.2 4.06-0.56 8.93 2.21 12.29 3.9 1.65 8.26 1.34 12.41 1.48 4.53-0.11 9.25 0.27 13.61-1.21 2.26-1.16 2.41-3.85 2.78-6.06l15.3 0.03c-0.05 5.39 0.09 11.43-3.3 15.96-3.49 2.82-8.28 3.05-12.56 3.68-10.98 0.81-22.08 1.02-33.02-0.45-3.72-0.67-8.4-1.32-10.17-5.18-2.86-6.07-2.61-12.97-2.99-19.51 0.28-6.55 0.14-13.42 2.7-19.56 1.65-4.16 6.58-4.85 10.44-5.62z"/>
  <path id="k" d="m404.55 109.27h26.9l25.07 50.96-18.19 0.04-4.84-8.55-30.93-0.03-4.77 8.55-18.22 0.02 24.98-50.99m3.92 29.46 19.07-0.01-8.41-17.95-2.19-0.01z"/>
  <path id="l" d="m456.39 109.27 21.52-0.03 14.63 16.45 14.54-16.42 21.8-0.04-23.28 24.95 22.36 25.17 24.59-50.08h26.89l25 50.99-18.1 0.01-4.84-8.55-31.12 0.07-4.6 8.45-37.98 0.05-15.31-17.07-15.43 16.97-20.42 0.01 22.91-25.97-23.16-24.96m100.08 29.46h19.06l-8.4-17.96-2.19-0.01z"/>
 </g>
</svg>
