<svg id="b" width="211.67mm" height="195.23mm" version="1.1" viewBox="0 0 211.67 195.23" xmlns="http://www.w3.org/2000/svg">
 <defs id="c">
  <clipPath id="a">
   <path id="d" d="m0 0h839.06v595.28h-839.06z"/>
  </clipPath>
 </defs>
 <g id="e" transform="translate(24.814 39.2)">
  <g id="f" transform="matrix(4.7835 0 0 -4.7835 -1340.9 1179.9)">
   <g id="g" clip-path="url(#a)">
    <g id="h" transform="translate(291.08 248.47)">
     <path id="i" d="m0 0c0.315-0.929-1.486-1.701-2.052-2.508-0.556 1.17 1.561 1.627 2.052 2.508" fill="#cd202c"/>
    </g>
    <g id="j" transform="translate(288.35 245.96)">
     <path id="k" d="m0 0c0.406-0.167 0.033-0.415 0-0.684-0.406 0.167-0.033 0.415 0 0.684" fill="#cd202c"/>
    </g>
    <g id="l" transform="translate(286.98 244.14)">
     <path id="m" d="m0 0c-0.208-0.399-0.424-0.792-1.14-0.684 0.158 0.45 0.608 0.608 1.14 0.684" fill="#cd202c"/>
    </g>
    <g id="n" transform="translate(291.96 236.11)">
     <path id="o" d="m0 0c0.721-0.456 0.407-1.942 0.299-2.605-0.157-0.961-0.323-2.13-0.729-3.025-0.365 0.539-0.236 1.227-0.128 1.822 0.061 0.342 0.139 0.682 0.173 1.029 0.011 0.116-0.072 0.978-0.039 1.007-1.09-0.962-0.907-3.197-1.14-5.015 0.515-0.132 0.435 0.347 0.654 0.631 0.396-0.496-0.274-1.801-0.427-2.302-0.134-0.437-0.254-0.885-0.271-1.345-5e-3 -0.127 0.086-1.351 0.272-1.316 3.677 0.701 3.293 9.934 7.295 9.347-0.379-1.942-1.613-5.064-0.684-6.839 1.445 0.53 1.599 2.352 2.28 3.647 0.417-1.712-0.42-4.137-2.508-4.103-0.707 0.053-0.711 0.809-0.912 1.368-0.667-0.384-1.606-2.716-2.508-1.368-1.094-1.033-1.352-2.903-3.419-2.964-1.152 3.051-0.496 6.858 0.278 9.917 0.121 0.475 0.233 2.002 0.866 2.168 0.275 0.073 0.488 0.047 0.648-0.054m2.083-8.611c1.338-0.134 1.574 1.453 1.824 2.507 0.176 0.743 1.44 2.413 0.456 2.736-0.886-1.621-1.801-3.215-2.28-5.243"/>
    </g>
    <g id="p" transform="translate(279.91 235.93)">
     <path id="q" d="m0 0c0.554-0.143 0.121-1.152-0.456-0.912-0.166 0.622 0.453 0.459 0.456 0.912" fill="#cd202c"/>
    </g>
    <g id="r" transform="translate(285.08 235.06)">
     <path id="s" d="m0 0c0.323-0.126 0.593-0.339 0.81-0.619 0.608-0.783 0.813-1.888 0.958-2.844 0.316-2.095 0.089-4.266-0.569-6.277-0.32-0.979-0.768-1.987-1.355-2.839-0.43-0.625-2.415-2.282-2.963-2.28-1.437 7e-3 -2.752 2.442-2.964 3.876-0.259 1.753 0.154 3.425 1.118 4.901 0.831 1.271 1.94 2.362 2.615 3.73 0.534 1.08 0.609 3.034 2.35 2.352m-1.523-3.232c0.54 0.571 1.323 0.873 1.768 1.542-0.062-0.094-0.702 0.449-0.817 0.436-0.316-0.033-0.522-0.49-0.685-0.715-0.147-0.203-0.325-0.399-0.384-0.649-0.016-0.073 0.059-0.676 0.118-0.614m-1.368-10.259c2.317 0.154 4.457 8.458 3.875 10.487-0.05 0.177-0.191 0.265-0.456 0.227-1.165-1.038-2.838-1.569-2.963-3.647-0.266 0.038-0.248 0.36-0.228 0.684-2.63-0.85-3.426-7.963-0.228-7.751"/>
    </g>
    <g id="t" transform="translate(279 233.88)">
     <path id="u" d="m0 0c0.652-0.594-0.274-1.537-0.684-1.824-0.045-0.791 0.081-1.752-0.684-1.823-0.235 1.057 0.929 2.522 1.368 3.647" fill="#cd202c"/>
    </g>
    <g id="v" transform="translate(300.12 232.9)">
     <path id="w" d="m0 0c0.156-0.171 0.105-0.552 0.062-0.835-0.323-0.038-0.867-0.164-0.94 0.234-0.052 0.288 0.239 0.606 0.494 0.669 0.19 0.047 0.31 0.013 0.384-0.068"/>
    </g>
    <g id="x" transform="translate(288.36 228.4)">
     <path id="y" d="m0 0c0.055 0.113 0.365-0.227 0.388-0.267 0.103-0.179 0.081-0.444 0.057-0.638-0.409 0.029-0.481-0.279-0.912-0.227-0.152 0.567 0.281 0.674 0.465 1.128 1e-3 1e-3 1e-3 3e-3 2e-3 4e-3"/>
    </g>
    <g id="z" transform="translate(298.6 218.61)">
     <path id="aa" d="m0 0c0.093 0.568 0.884 0.014 0.684-0.456-0.3 0.081-0.359 0.401-0.684 0.456" fill="#cd202c"/>
    </g>
    <g id="ab" transform="translate(299.74 217.47)">
     <path id="ac" d="m0 0c0.9 0.292 0.552-0.664 1.14-0.684-0.224-0.499-1.141 0.205-1.14 0.684" fill="#cd202c"/>
    </g>
    <g id="ad" transform="translate(301.34 215.87)">
     <path id="ae" d="m0 0c0.26 0.872 1.421-0.294 1.824-0.684 5.873-0.192 9.603 0.748 12.994 4.103 0.362 1.006 0.716 2.02 1.596 2.508 0.096-0.476-0.156-0.604-0.228-0.912 0.775 0.42 0.59 0.771 0.228 1.368 1.523 6.288-2.142 11.772-5.016 15.502-1.161 1.507-2.161 3.19-2.963 4.103-1.24 1.411-3.134 2.277-3.648 3.876-3.624 1.846-6.032 4.91-9.346 7.067-1.813-1.304-3.575-2.657-5.244-4.104 0.044 0.185 0.229 0.227 0.228 0.456-2.373-0.971-4.227-4.435-6.839-5.927 0.057-0.287 0.454-0.23 0.456 0-0.437-2.451-3.403-4.347-4.559-6.839-0.337-0.264-0.575-0.264-0.912 0-0.218-0.694-0.907-0.917-0.684-2.052-2.292-2.212-3.312-6.607-2.735-10.486 0.71-4.782 5.918-9.244 10.486-9.119 3.843 0.106 6.3 3.353 8.663 6.155 0.272-1.579-1.515-2.639-2.736-3.647-1.862-1.538-3.496-3.35-7.067-2.964-2.027 0.219-4.84 1.804-6.383 3.192-1.212 1.089-1.875 2.228-2.736 4.103-0.576-1.272-1.594 3.966-1.595 4.559-3e-3 1.688 1.2 3.279 0.456 4.104 1.182 3.377 2.66 6.458 4.559 9.119 0.222-7e-3 0.177-0.279 0.228-0.456-0.089 0.859 0.732 1.535 1.14 2.507 0.267-0.037 0.192-0.415 0.228-0.684 0.948 1.483 2.27 2.593 2.964 4.332 1.712 1.479 3.67 2.712 5.015 4.559 0.453 0.38 0.29-0.02 0.912 0 0.76 1.747 2.533 2.482 4.103 3.42 0.425 0.558 0.757 1.384 1.824 1.823 1.36-0.311 1.273-2.07 3.191-1.823 0.832-1.83 3.87-2.663 4.332-4.104 1.581-0.654 3.701-2.451 4.559-4.559 0.474-0.499 0.737 0.2 1.14-0.228 2.728-3.655 5.788-6.978 7.979-11.171 0.783-2.564 1.409-4.741 1.595-7.295 0.406-5.541-4.341-11.373-11.17-11.626-1.417-0.052-3.155 0.146-3.875 1.14-0.844-0.971-2.056 0.347-2.964 0.684m4.103 31.459c0.454 0.048 0.974-0.966 1.14-0.456-0.418-0.011-0.772 1.169-1.14 0.456m0-0.456c-0.921 0.802-0.537-0.733 0 0m5.7-5.927c1.039-0.933-0.791 1.66-1.596 1.596 0.633-0.307 1.514-1.522 1.596-1.596m-28.724-1.139c-1.777-1.563 2.043 1.261 1.367 2.051-0.263-0.876-1.265-1.014-1.367-2.051m30.091-0.228c-0.402-0.066-0.705 1.073-0.911 0.456 0.268-0.069 0.572-1.208 0.911-0.456m1.596-2.508c-0.269 1.399-1.097 0.571 0 0m-33.967-0.456c1.13 0.303 0.356 1.077 0 0m-2.508-2.964c0.046 0.95 1.245 1.937 0.912 2.508-0.188-0.807-1.352-1.829-0.912-2.508m38.071 1.596c-1.83 2.423-0.319-1.224 0.456-0.912-0.499 0.164-0.277 0.675-0.456 0.912" fill="#cd202c"/>
    </g>
    <g id="af" transform="translate(302.48 230)">
     <path id="ag" d="m0 0c3.806 1.513 2.305 8.334 6.839 9.119 0.591-1.935-1.274-4.45-0.456-6.611 1.344 0.327 1.608 1.735 2.052 2.963 0.539-1.455-0.05-3.746-1.824-3.647-1.028-0.041-1.091 0.885-1.596 1.368-0.49-0.422-0.602-1.222-1.139-1.596-0.697-0.165-0.831 0.233-1.368 0.228-0.951-1.026-1.047-2.905-3.192-2.736-0.726 1.206-0.643 3.523-0.456 5.927 0.198 2.541 0.584 6.412 2.736 6.155 0.839-4.048-2.581-6.975-1.596-11.17m0.456 9.119c-0.204-1.396-1.09-3.313-0.456-4.788 0.475 1.125 1.064 3.339 0.456 4.788m3.875-5.927c0.583 0.789 1.268 2.677 0.912 3.647-0.408-0.857-2.095-2.701-0.912-3.647"/>
    </g>
    <g id="ah" transform="translate(302.48 216.33)">
     <path id="ai" d="m0 0c-1.025 0.784 1.621-1.24 0 0" fill="#cd202c"/>
    </g>
   </g>
  </g>
 </g>
</svg>
