<?xml version="1.0" encoding="UTF-8"?>
<!-- Created with Inkscape (http://www.inkscape.org/) -->
<svg id="svg2" width="743.31" height="800" version="1.1" viewBox="0 0 743.31 800" xml:space="preserve" xmlns="http://www.w3.org/2000/svg" xmlns:cc="http://creativecommons.org/ns#" xmlns:dc="http://purl.org/dc/elements/1.1/" xmlns:rdf="http://www.w3.org/1999/02/22-rdf-syntax-ns#"><metadata id="metadata8"><rdf:RDF><cc:Work rdf:about=""><dc:format>image/svg+xml</dc:format><dc:type rdf:resource="http://purl.org/dc/dcmitype/StillImage"/><dc:title/></cc:Work></rdf:RDF></metadata><defs id="defs6"><clipPath id="clipPath208"><path id="path206" d="m0 0h839.06v595.28h-839.06z"/></clipPath><clipPath id="clipPath220"><path id="path218" d="m30.361 388c-2.683-10.527-2.684-22.346-0.012-32.875 14.402-3.197 29.887-3.038 44.313 0 2.625 10.639 2.623 22.238-0.012 32.875-7.3 1.541-14.873 2.343-22.438 2.343-7.377 0-14.746-0.763-21.851-2.343"/></clipPath><clipPath id="clipPath232"><path id="path230" d="m0 0h839.06v595.28h-839.06z"/></clipPath></defs><g id="g10" transform="matrix(1.3333 0 0 -1.3333 -209.07 849.84)"><g id="g202" transform="matrix(11.546 0 0 11.546 -170.5 -3869.7)"><g id="g204" clip-path="url(#clipPath208)"><g id="g210" transform="translate(74.65 388)"><path id="path212" d="m0 0c-14.418 3.043-29.897 3.202-44.29 0-2.683-10.527-2.684-22.346-0.012-32.876 14.402-3.196 29.888-3.037 44.314 0 2.624 10.639 2.622 22.24-0.012 32.876" fill="#0297be"/></g></g></g><g id="g214" transform="matrix(11.546 0 0 11.546 -170.5 -3869.7)"><g id="g216" clip-path="url(#clipPath220)"><g id="g222" transform="translate(36.106 376.46)"><path id="path224" d="m0 0c8.958 8.164 19.878 9.608 27.961 4.939 7.8-4.508 10.026-18.048-1.33-23.251-10.757-4.93-15.267 1.654-15.267 1.654 3.713-2.403 15.578 0.338 16.896 8.381 1.301 7.943-7.963 12.61-17.355 8.822-3.867-1.561-6.148-2.692-9.068-5.671-1.395-1.424-2.248-2.56-3.146-4.029-0.638-1.075-1.832-2.942-2.272-3.961-1.887-4.371-2.004-5.561-2.183-8.344-0.196-1.682-5.703 9.459 5.764 21.46" fill="#fff"/></g></g></g><g id="g226" transform="matrix(11.546 0 0 11.546 -170.5 -3869.7)" fill="#123f6e"><g id="g228" clip-path="url(#clipPath232)" fill="#123f6e"><g id="g234" transform="translate(30.259 341.52)"><path id="path236" d="m0 0c0-0.859 0.065-1.685 0.843-2.415 0.487-0.454 1.151-0.728 1.994-0.728 0.842 0 1.507 0.274 1.994 0.728 0.777 0.73 0.842 1.556 0.842 2.415v5.381c0 0.858-0.065 1.685-0.842 2.414-0.487 0.455-1.152 0.73-1.994 0.73-0.843 0-1.507-0.275-1.994-0.73-0.778-0.729-0.843-1.556-0.843-2.414zm4.052-0.243c0-0.341-0.032-0.681-0.34-0.989-0.178-0.178-0.471-0.323-0.875-0.323-0.406 0-0.698 0.145-0.876 0.323-0.307 0.308-0.34 0.648-0.34 0.989v5.866c0 0.341 0.033 0.682 0.34 0.99 0.178 0.178 0.47 0.324 0.876 0.324 0.404 0 0.697-0.146 0.875-0.324 0.308-0.308 0.34-0.649 0.34-0.99z" fill="#123f6e"/></g><g id="g238" transform="translate(40.55 346.66)"><path id="path240" d="m0 0h1.572v0.778c0 0.794-0.324 1.474-0.729 1.88-0.487 0.47-1.281 0.729-1.961 0.729-0.6 0-1.345-0.21-1.848-0.664-0.729-0.632-0.827-1.475-0.827-2.221v-5.882c0-0.584-0.016-1.362 0.567-2.043 0.357-0.421 0.972-0.858 2.043-0.858 1.118 0 1.783 0.389 2.123 0.761 0.292 0.308 0.681 0.956 0.681 2.074v0.471h-1.621v-0.405c0-0.552-0.146-0.811-0.227-0.924-0.194-0.26-0.551-0.389-0.908-0.389-0.454 0-0.712 0.242-0.826 0.405-0.211 0.292-0.211 0.632-0.211 1.005v5.591c0 0.39 0.017 0.794 0.276 1.118 0.162 0.194 0.421 0.373 0.842 0.373 0.519 0 0.762-0.292 0.843-0.405 0.146-0.211 0.211-0.518 0.211-0.746z" fill="#123f6e"/></g></g></g><g id="g242" transform="matrix(11.546 0 0 11.546 321.13 39.252)" fill="#123f6e"><path id="path244" d="m0 0h4.862v1.54h-3.241v3.468h2.82v1.458h-2.82v3.338h3.192v1.54h-4.813z" fill="#123f6e"/></g><g id="g246" transform="matrix(11.546 0 0 11.546 448.21 39.252)" fill="#123f6e"><path id="path248" d="m0 0-2.48 11.344h-1.426l-2.48-11.344h1.621l0.535 2.431h2.074l0.535-2.431zm-2.35 3.873h-1.718l0.843 4.312z" fill="#123f6e"/></g><g id="g250" transform="matrix(11.546 0 0 11.546 454.74 170.23)" fill="#123f6e"><path id="path252" d="m0 0v-11.344h1.621v7.131l2.707-7.131h1.62v11.344h-1.62v-7.131l-2.707 7.131z" fill="#123f6e"/></g><path id="path254" d="m539.04 97.364h29.085v16.858h-29.085z" fill="#123f6e"/><g id="g256" transform="matrix(11.546 0 0 11.546 565.34 170.23)" fill="#123f6e"><path id="path258" d="m0 0v-1.54h2.009v-9.804h1.622v9.804h2.009v1.54z" fill="#123f6e"/></g><g id="g260" transform="matrix(11.546 0 0 11.546 696.69 170.23)" fill="#123f6e"><path id="path262" d="m0 0h-1.702l-1.362-7.844h-0.064l-1.313 7.844h-1.782l2.399-11.344h1.425z" fill="#123f6e"/></g></g></svg>
