<svg id="a" version="1.1" viewBox="0 0 195.91 210.73" xmlns="http://www.w3.org/2000/svg">
 <path id="b" transform="translate(-202.02 -316.47)" width="100%" height="100%" d="m389.9 326c-58.5-12.4-121.3-13-179.7 0-10.9 42.7-10.9 90.6 0 133.4 58.4 13 121.3 12.3 179.8 0 10.6-43.2 10.6-90.3-0.1-133.4z" clip-rule="evenodd" fill="#0097be" fill-rule="evenodd"/>
 <path id="c" d="m31.475 56.326c36.4-33.1 80.7-39 113.4-20 31.6 18.3 40.7 73.2-5.4 94.3-43.6 20-61.9-6.7-61.9-6.7 15.1 9.8 63.2-1.4 68.5-34 5.3-32.2-32.3-51.1-70.4-35.8-15.7 6.3-24.9 10.9-36.8 23-5.7 5.8-9.1 10.4-12.8 16.4-2.6 4.4-7.4 11.9-9.2 16.1-7.6 17.7-8.1 22.6-8.8 33.8-0.8 6.7-23.1-38.5 23.4-87.1z" fill="#fff"/>
 <g id="d" clip-rule="evenodd" fill="#173f6d" fill-rule="evenodd">
  <path id="e" d="m7.775 198.03c0 3.5 0.2 6.8 3.4 9.8 2 1.8 4.7 2.9 8.1 2.9s6.1-1.1 8.1-2.9c3.2-3 3.4-6.3 3.4-9.8v-21.8c0-3.5-0.3-6.8-3.4-9.8-2-1.8-4.7-3-8.1-3s-6.1 1.1-8.1 3c-3.2 2.9-3.4 6.3-3.4 9.8zm16.4 1c0 1.4-0.1 2.8-1.4 4-0.7 0.7-1.9 1.3-3.6 1.3-1.6 0-2.8-0.6-3.5-1.3-1.2-1.3-1.4-2.6-1.4-4v-23.8c0-1.4 0.1-2.8 1.4-4 0.7-0.7 1.9-1.3 3.5-1.3s2.8 0.6 3.6 1.3c1.2 1.2 1.4 2.6 1.4 4z"/>
  <path id="f" d="m49.475 177.23h6.4v-3.2c0-3.2-1.3-6-3-7.6-2-1.9-5.2-3-8-3-2.4 0-5.5 0.9-7.5 2.7-3 2.6-3.3 6-3.3 9v23.8c0 2.4-0.1 5.5 2.3 8.3 1.4 1.7 3.9 3.5 8.3 3.5 4.5 0 7.2-1.6 8.6-3.1 1.2-1.3 2.8-3.9 2.8-8.4v-1.9h-6.6v1.6c0 2.2-0.6 3.3-0.9 3.8-0.8 1.1-2.2 1.6-3.7 1.6-1.8 0-2.9-1-3.4-1.6-0.8-1.2-0.8-2.6-0.8-4.1v-22.7c0-1.6 0.1-3.2 1.1-4.5 0.6-0.8 1.7-1.5 3.4-1.5 2.1 0 3.1 1.2 3.4 1.6 0.6 0.8 0.8 2.1 0.8 3v2.7z"/>
  <path id="g" d="m57.775 210.13h19.7v-6.2h-13.2v-14.1h11.5v-5.9h-11.5v-13.6h13v-6.2h-19.5z"/>
  <path id="h" d="m102.38 210.13-10.1-46h-5.8l-10.1 46h6.6l2.2-9.9h8.4l2.2 9.9zm-9.5-15.7h-7l3.4-17.5z"/>
  <path id="i" d="m104.68 164.13v46h6.6v-28.9l11 28.9h6.5v-46h-6.5v28.9l-11-28.9z"/>
  <path id="j" d="m134.27 183.83h10.2v5.9h-10.2z"/>
  <path id="k" d="m143.58 164.13v6.2h8.1v39.8h6.6v-39.8h8.1v-6.2z"/>
  <path id="l" d="m189.68 164.13h-6.9l-5.5 31.8h-0.3l-5.3-31.8h-7.2l9.7 46h5.8z"/>
 </g>
</svg>
