<?xml version="1.0" encoding="UTF-8"?>
<svg id="svg66" width="262.9pt" height="397pt" version="1.1" viewBox="0 0 262.9 397" xmlns="http://www.w3.org/2000/svg" xmlns:cc="http://creativecommons.org/ns#" xmlns:dc="http://purl.org/dc/elements/1.1/" xmlns:rdf="http://www.w3.org/1999/02/22-rdf-syntax-ns#">
 <metadata id="metadata72">
  <rdf:RDF>
   <cc:Work rdf:about="">
    <dc:format>image/svg+xml</dc:format>
    <dc:type rdf:resource="http://purl.org/dc/dcmitype/StillImage"/>
    <dc:title/>
   </cc:Work>
  </rdf:RDF>
 </metadata>
 <path id="path31" d="m82.343 0.0037894c-5.8015-0.12135-11.806 2.6723-13.903 8.2896-1.8576 4.5155 0.47403 9.1002 0.69141 13.655-0.73118 2.8061-3.6849 4.1588-5.3745 6.3325-5.4245 5.8-5.8008 14.259-10.03 20.741-1.9959 2.4405-5.4629 2.3608-8.3086 2.6177-7.7761 0.29642-15.405 1.9663-23.142 2.6382-4.3772 0.48416-9.5939 1.6397-11.59 6.0762-2.322 5.2862-2.7272 11.225-2.7568 16.926-0.098807 5.0392 2.2239 9.7422 2.1152 14.771-0.0099 3.3397-0.3164 6.7783 0.73096 10.009 1.4228 4.5748 4.5641 8.34 7.7754 11.808 7.3908 7.8256 15.227 15.335 24.179 21.382 3.7547 2.4307 6.9464 6.4113 6.6006 11.134-0.48416 8.863-6.3536 16.679-5.6719 25.73 0.64225 13.309 9.4356 24.623 19.573 32.537 15.355 12.262 34.929 17.894 54.265 19.436 18.487 1.4426 37.148-0.84658 54.958-5.915l-3e-3 -57.513c3e-3 -2.4022-0.31304-5.3675 1.5908-7.1338 1.8752-1.7398 4.722-1.5604 7.1323-1.5674l59.95-3e-3c1.3784-14.038 1.8125-28.41-1.4531-42.227-2.154-9.2089-4.6933-18.478-9.3076-26.788-3.2607-5.9186-6.6792-11.778-10.74-17.193 2.3615-2.4801 3.9326-5.7307 3.7646-9.2285 0.24702-3.8436-1.6898-7.281-2.4111-10.947 1.0078-3.1026 4.3485-4.8021 5.4946-7.875 2.0354-5.1281 0.47376-10.751-1.2554-15.731-2.1145-5.8889-4.5943-12.054-9.4951-16.204-3.2112-2.7963-7.8555-3.4093-11.837-2.1445-6.0075 1.8082-10.543 6.4225-14.544 11.017-6.5213 7.4501-17.874 8.0437-26.886 5.8008-16.965-3.9622-34.494-4.7826-51.854-4.1602-2.9445-0.0099-6.2146 0.42542-8.7935-1.3037-5.4542-3.7843-7.6673-11.018-13.882-13.874-1.7365-0.69165-3.6487-1.0553-5.5825-1.0957zm45.167 22.988c5.9433-0.03829 11.879 0.15186 17.783 1.0312 9.7819 1.4624 20.295 2.7473 28.377 8.9722 7.9244 6.8671 12.835 16.719 21.491 22.815 2.6283 2.0354 6.0567 1.9367 9.1099 2.7568 1.7983 0.64225 2.0942 3.1321 0.91845 4.4956-2.9642 3.9424-8.5854 5.888-13.239 3.8921-7.3414-2.9741-12.144-9.6529-16.739-15.769-9.0508-12.341-23.021-20.76-37.991-23.606-3.2211-0.5632-6.8867-0.63142-9.6533 1.3447-1.1758 0.74106-1.4728 2.3713-0.83056 3.5669 2.5492 5.3455 9.5347 7.2427 11.086 13.23 1.6995 5.4146-2.7862 9.7714-3.9126 14.722-0.58297 2.569 1.3038 4.7129 2.9341 6.4321 3.7843 3.8634 7.47 8.0239 9.624 13.053 2.1046 5.0589 0.79139 10.681 1.8486 15.948 1.0276 5.5925 2.381 11.609 0.10839 17.093-2.0651 5.0491-7.1837 7.7957-12.035 9.6138-8.6358 3.2014-18.21 6.107-27.39 3.5478-2.1441-0.38535-4.189-3.192-2.0054-4.8618 5.0589-1.66 10.483 0.48469 15.631-0.79981 8.0528-1.2351 15.977-7.1141 16.995-15.631 0.75094-7.5489-2.3711-14.832-5.3057-21.62-3.1421-5.9976-6.3742-12.697-12.52-16.135-4.0313-2.322-8.7537-1.1459-13.131-1.1953-3.1816-0.3063-4.1988-4.0807-7.0049-5.1973-1.1363-0.8695-3.7744-1.2253-3.0234-3.2212 4.891-0.88927 9.1488 2.6378 13.941 2.5488 2.569-0.0494 3.28-3.5268 1.9658-5.2954-1.8477-2.5986-5.127-3.5086-7.7651-5.0303 2.9148-1.4821 6.3429-0.57189 9.1787 0.65332 4.3574 1.8872 4.891 7.8838 9.5054 9.4351 1.828-4.14 2.1238-8.7435 2.272-13.2 0.0889-4.7131-3.7939-8.3988-7.8648-10.088-5.879-2.3615-12.44-3.3701-18.705-2.1548-4.2388 0.89915-8.5955 3.2808-10.453 7.3813-1.2746 4.4463 2.6279 8.379 2.124 12.727-2.4109 2.4998-5.2262 4.8408-6.2241 8.3188-3.9424 12.45 3.3793 25.176 0.58301 37.705-1.7094 7.0944-9.3185 10.365-15.968 10.909-12.43 1.1857-24.158-4.3078-34.444-10.701-2.8951-1.986-5.7498-4.249-9.2476-5.0493-2.8951-0.7707-5.8497 0.17795-8.7744 0.11865-1.0375 0.0198-1.6697-0.48374-1.897-1.5015 2.3121-2.8654 5.641-4.7725 9.1289-5.8594 2.9346-0.93867 6.2844-1.0372 8.6953-3.2109-2.3319-2.4899-5.9184-2.6292-8.6851-4.3682-1.7785-1.9465 0.20726-4.8605-0.85986-7.1133-1.0474-2.5591-2.1236-5.1289-2.499-7.8955 2.8457 2.6777 6.8377 5.1091 7.1045 9.4072 0.29642 1.9959 0.96748 3.9916 2.4595 5.4243 3.2112 3.5077 8.9123 3.3299 12.795 1.1265 2.9346-3.3496-0.45391-7.5983-0.17725-11.402 0.15809-4.2685-0.28638-8.695-3.4087-11.906 8.3196-1.5216 16.945-1.7988 24.929-4.8618 4.6341-1.907 8.5871-5.9673 9.4072-11.036 0.43475-2.0651-0.10917-4.3882-1.7197-5.811-1.6797-1.0078-3.9224-0.71099-5.4243-2.0054 0.27666-2.9939 3.4977-4.1989 5.6616-5.6909 10.642-6.3434 23.487-5.7114 35.413-5.7114 5.9334-0.03458 11.884-0.30156 17.827-0.33984zm-112.89 43.203c1.2746 2.0453 3.4186 4.3872 2.4009 6.9858-1.0671 2.7567-1.7102 5.6516-2.2339 8.5664-3.0927-4.5451-1.7973-10.671-0.16699-15.552zm177.57 25.963c1.4971 0.04358 2.5778 1.861 2.8828 3.2739 1.0474 4.8119-1.2838 9.4465-3.1216 13.745-3.9819 9.0112-7.9946 18.398-15.079 25.453-6.709 6.3928-16.53 7.9234-23.209 14.326-3.3002 2.9049-6.5021 6.2046-10.761 7.667-6.1952 2.1244-12.885 2.471-19.356 1.73-7.6576-0.78058-15.038-3.2709-22.745-3.6562-4.8416-0.55332-10.326-1.0473-14.011-4.5747-1.6204-1.492 0.30594-3.8145 2.0845-3.854 5.3652-0.78057 10.544 1.4228 15.81 2.0947 11.541 1.6896 23.734 2.3716 34.869-1.7388 7.4303-2.7073 13.398-8.3988 21.045-10.592 4.4364-1.4624 9.3968-2.47 12.766-5.9678 3.7744-4.1203 3.9134-10.167 7.0752-14.653 2.7468-4.2092 6.7378-8.0926 7.0737-13.389 0.5632-3.2903-0.0985-7.8949 3.5772-9.5845 0.38535-0.20564 0.75314-0.28984 1.0986-0.27979zm-171.56 8.9561c5.8988-0.10869 12.42 1.9265 16.006 6.8965-4.9997 5.5332-14.634 3.2307-18.003-2.9941-1.66-1.5118 0.09948-3.8924 1.9966-3.9024z" fill="#424241" stroke-width=".98807"/>
 <g id="g1160" transform="translate(-2.9865e-6 -4.7921)" fill="#424241">
  <path id="path33" d="m9.245 271.23c5.2566-1.5118 11.422-1.3438 16.066 1.8181 4.2784 3.0235 5.7506 8.537 5.721 13.537-0.02964 11.837 0.06917 23.674-0.0494 35.511-0.01976 5.6123-2.7765 11.699-8.2998 13.784-5.1083 1.8773-11.145 1.818-15.997-0.76082-4.555-2.5295-6.6991-7.9244-6.6695-12.944 0.0098807-12.539-0.059284-25.087 0.029642-37.616 0.039523-5.7407 3.478-11.669 9.199-13.329m3.893 8.8433c-2.9939 1.0968-3.0235 4.723-3.0235 7.3809 0.10869 11.798-0.14821 23.605 0.12845 35.393-0.19762 4.0017 4.5056 6.1458 7.7959 4.4562 2.3714-1.0177 2.7271-3.8535 2.737-6.1162 0.05928-10.869-0.03952-21.748 0.03952-32.626-0.07905-2.1342 0.11857-4.387-0.74106-6.3928-1.2153-2.4998-4.555-3.0136-6.9363-2.0947z" stroke-width=".98807"/>
  <path id="path35-6" d="m35.982 271.09c3.4681 10.533 7.3114 20.966 10.533 31.559-3.2804 11.373-7.6079 22.498-11.274 33.772 3.2014 0 6.402-0.01 9.6033 0 2.9741-8.4876 5.664-17.221 9.0432-25.561 3.3792 8.3394 6.0691 17.073 9.0432 25.561 3.2014-0.01 6.4034 0 9.6048 0-3.6658-11.274-7.9932-22.399-11.274-33.772 3.2211-10.592 7.0644-21.026 10.533-31.559-3.5571-0.01-7.1144-0.0198-10.671 0-2.6184 7.9244-4.37 15.967-7.2354 23.812-2.8654-7.8453-4.617-15.888-7.2354-23.812-3.5571-0.0198-7.113-0.01-10.67 0z" stroke-width=".98807"/>
  <path id="path33-2" d="m85.976 271.23c5.2566-1.5118 11.422-1.3438 16.066 1.818 4.2784 3.0235 5.7506 8.537 5.721 13.537-0.0296 11.837 0.0692 23.674-0.0494 35.511-0.0198 5.6123-2.7765 11.699-8.2998 13.784-5.1083 1.8773-11.145 1.8181-15.997-0.76082-4.555-2.5295-6.6991-7.9244-6.6695-12.944 0.0099-12.539-0.05928-25.087 0.02964-37.616 0.03952-5.7407 3.478-11.669 9.199-13.329m3.893 8.8433c-2.9939 1.0968-3.0235 4.723-3.0235 7.3809 0.10869 11.798-0.14821 23.605 0.12845 35.393-0.19761 4.0017 4.5056 6.1458 7.7959 4.4562 2.3714-1.0177 2.7271-3.8535 2.737-6.1162 0.05928-10.869-0.03952-21.748 0.03952-32.626-0.07905-2.1342 0.11857-4.387-0.74106-6.3928-1.2153-2.4998-4.555-3.0136-6.9363-2.0947z" stroke-width=".98807"/>
  <path id="path39" d="m111.66 271.08h31.707v9.3274h-10.721v56.009h-10.261v-56.009h-10.726z" stroke-width=".98807"/>
  <path id="path41" d="m148.05 271.08h10.246v28.007h11.689v-28.007h10.424v65.341h-10.424v-27.997h-11.689v27.997h-10.246z" stroke-width=".98807"/>
  <path id="path43" d="m187.9 271.09h9.1545v38.866l10.508-38.866h12.88v65.331h-9.283v-47.185l-12.726 47.185h-10.533z" stroke-width=".98807"/>
  <path id="path45" d="m227.9 271.1h10.276v28.392l13.571-28.392h10.118l-14.278 29.143 14.278 36.178h-10.553l-9.9796-26.021-3.1705 5.5713v20.45h-10.262z" stroke-width=".98807"/>
  <path id="path33-2-9" d="m148.95 349.57c4.1618-1.1969 9.0432-1.0639 12.72 1.4394 3.3873 2.3938 4.5529 6.759 4.5294 10.717-0.0234 9.3718 0.0547 18.744-0.0391 28.115-0.0156 4.4434-2.1982 9.2623-6.5712 10.913-4.0444 1.4863-8.8242 1.4394-12.665-0.60236-3.6063-2.0026-5.3039-6.2739-5.2804-10.248 8e-3 -9.9272-0.0469-19.862 0.0235-29.782 0.0313-4.5451 2.7537-9.2388 7.2831-10.553m3.0822 7.0015c-2.3703 0.86834-2.3938 3.7393-2.3938 5.8437 0.0861 9.3405-0.11735 18.689 0.1017 28.021-0.15646 3.1683 3.5672 4.8658 6.1722 3.5281 1.8775-0.80575 2.1591-3.0509 2.1669-4.8424 0.0469-8.6051-0.0313-17.218 0.0313-25.831-0.0625-1.6897 0.0939-3.4734-0.58671-5.0614-0.96221-1.9792-3.6063-2.386-5.4916-1.6584z" stroke-width=".78229"/>
  <path id="path33-2-9-7" d="m215.11 349.57c4.1618-1.1969 9.0432-1.0639 12.72 1.4394 3.3873 2.3938 4.5529 6.759 4.5294 10.717-0.0234 9.3718 0.0547 18.744-0.0391 28.115-0.0156 4.4434-2.1982 9.2623-6.5712 10.913-4.0444 1.4863-8.8242 1.4394-12.665-0.60236-3.6063-2.0026-5.3039-6.2739-5.2804-10.248 8e-3 -9.9272-0.0469-19.862 0.0235-29.782 0.0313-4.5451 2.7536-9.2388 7.2831-10.553m3.0822 7.0014c-2.3703 0.86834-2.3938 3.7393-2.3938 5.8437 0.0861 9.3405-0.11734 18.689 0.1017 28.021-0.15646 3.1683 3.5672 4.8658 6.1722 3.5281 1.8775-0.80576 2.1591-3.0509 2.1669-4.8424 0.0469-8.6051-0.0313-17.218 0.0313-25.831-0.0626-1.6898 0.0939-3.4734-0.58671-5.0614-0.96222-1.9792-3.6064-2.386-5.4916-1.6584z" stroke-width=".78229"/>
  <path id="path43-4" d="m0.075649 349.44h7.2854v30.93l8.3627-30.93h10.25v51.992h-7.3876v-37.551l-10.128 37.551h-8.3823z" stroke-width=".78633"/>
  <path id="path59-7-1" d="m43.314 401.33h8.1763v-19.46c4.4661-0.01 9.7672 0.30631 13.038-3.3693 3.9819-4.6835 2.8061-11.333 2.9049-17.015 0.07905-4.644-2.1342-9.9203-6.9659-11.294-2.5008-0.64508-5.0549-0.75118-7.6245-0.75118h-9.5285v51.889m8.1763-26.841v-17.686h3.0128c1.8151 0 3.9829 0.34253 4.373 2.0648 0.7707 4.3772 0.71141 8.9717 0.0494 13.359-0.30008 1.8227-2.3797 2.2624-4.1993 2.2624z" stroke-width=".98807"/>
  <path id="path55" d="m71.187 349.44c2.7073 0.01 5.4245 0.01 8.1417 0.01-0.0099 6.4818 0.0099 12.973-0.0099 19.455 4.4167 0.01 9.6436-0.31618 12.954 3.231 3.9622 4.387 2.9346 10.76 3.0531 16.185 0.2075 4.8613-1.7192 10.622-6.8078 12.203-5.6419 1.5216-11.57 0.52368-17.331 0.81022-0.0099-17.291 0-34.592 0-51.894m8.1417 26.846c0 5.8889-0.0099 11.778 0 17.677 2.5888-0.21737 6.9165 0.80034 7.6082-2.7172 0.37547-4.2191 0.54344-8.5567-0.14821-12.736-1.0869-3.0037-4.9997-1.9564-7.46-2.2232z" stroke-width=".98807"/>
  <path id="path57" d="m99.338 349.45h8.1417v51.884h-8.1417z" stroke-width=".98807"/>
  <path id="path59" d="m113.41 349.44c7.1833-0.01 14.372 0.01 21.555 0 0 2.4702-0.01 4.9502 0 7.4204h-13.379v12.04c4.4661 0.01 9.7671-0.3063 13.038 3.3693 3.9819 4.6835 2.8061 11.333 2.9049 17.015 0.079 4.644-2.1342 9.9203-6.9659 11.294-2.5008 0.64509-5.055 0.75119-7.6245 0.75119h-9.5285v-51.889m8.1763 26.841v17.686h3.0128c1.8151 0 3.983-0.34254 4.373-2.0648 0.7707-4.3772 0.71142-8.9717 0.0494-13.359-0.30008-1.8227-2.3798-2.2624-4.1994-2.2624z" stroke-width=".98807"/>
  <path id="path61" d="m176.76 349.45h25.868v51.884h-8.1615l-0.01-44.463h-9.4707v31.49c-0.01 3.9424-0.78552 8.4283-4.1351 10.958-3.2606 2.5196-7.6279 2.0947-11.491 2.2232v-7.4797c2.737 0.0395 7.4106 0.11857 7.4007-3.7448z" stroke-width=".98807"/>
  <path id="path63" d="m237.73 349.39c2.8595 0.10051 5.737 0.0228 8.6076 0 2.7733-0.0221 5.5403 0.0556 8.2786 0.53628 3.8041 0.68177 6.6794 4.0017 7.1537 7.7762 0.79046 5.5431 0.92879 12.736-4.5649 15.987 6.4916 2.8555 5.7704 10.819 5.5727 16.689 0.17785 4.7823-3.0729 9.5646-7.9046 10.464-2.8962 0.49534-5.8235 0.55602-8.7554 0.52516-2.7994-0.0294-5.603-0.10134-8.3877 0-0.01-17.301 0-34.686 0-51.977m8.1467 7.4232v13.843h2.594c2.0423 0 4.1136-0.41447 4.9894-2.4603 0.78057-2.9544 0.76081-6.1557 0.0395-9.11-0.78743-2.12-2.8651-2.2726-4.9097-2.2726h-2.7133m0 21.123v16.001h3.4433c2.011 0 4.5552-0.31679 4.9603-2.0373 0.82998-3.6164 0.68177-7.4698 0.0692-11.116-0.51395-2.4391-3.2527-2.8478-5.6552-2.8478z" stroke-width=".98807"/>
  <path id="path59-7" d="m71.183 349.5h8.1763v19.46c4.4661 0.01 9.7672-0.3063 13.038 3.3693 3.9819 4.6835 2.8061 11.333 2.9049 17.015 0.07905 4.644-2.1342 9.9203-6.9659 11.294-2.5008 0.64509-5.0549 0.75119-7.6245 0.75119h-9.5285v-51.889m8.1763 26.841v17.686h3.0128c1.8151 0 3.9829-0.34254 4.373-2.0648 0.7707-4.3772 0.71141-8.9717 0.0494-13.359-0.30008-1.8227-2.3797-2.2624-4.1993-2.2624z" stroke-width=".98807"/>
 </g>
 <g id="g1166" transform="translate(-126.8 15.607)">
  <g id="#ea8a14ff" transform="translate(125.7 -15.586)">
   <path id="path37" transform="matrix(.75 0 0 .75 -125.7 15.586)" d="m419.55 191.19c-2.951 8e-3 -6.4365-0.21012-8.7324 1.9199-2.331 2.1625-1.9433 5.7933-1.9473 8.7344l4e-3 84.119c8e-3 2.951-0.20816 6.4384 1.9219 8.7344 2.1626 2.331 5.7913 1.9413 8.7324 1.9453l89.379-4e-3c2.951-8e-3 6.4365 0.21012 8.7324-1.9199 2.331-2.1625 1.9433-5.7933 1.9473-8.7344l-0.0644-11.236 0.0859-0.0449-0.0273-72.838c-8e-3 -2.951 0.21012-6.4365-1.9199-8.7324-2.1625-2.331-5.7913-1.9433-8.7324-1.9473z" fill="#ea8a14" stroke-width="1.3333"/>
  </g>
  <path id="path41-6" d="m319.96 156.62h8.1244v22.207h9.2683v-22.207l8.2655-2e-5v51.81l-8.2655 1e-5v-22.199h-9.2683v22.199h-8.1244z" fill="#fff" stroke-width=".78346"/>
  <path id="path44" d="m353.48 156.62h10.297c2.5249 0 3.321 0.0701 5.8132 0.44001 4.3 0.54 7.3501 4.08 8.0301 8.37 0.55555 2.9932 0.67301 6.0232 0.66325 9.0624l-0.0169 19.05c-0.0419 2.5875-0.2499 5.159-0.91636 7.6778-0.91 3.6-3.9801 6.67-7.7601 7.02-1.9396 0.17698-3.8761 0.18999-5.8132 0.18999h-10.297v-51.81m7.9 7.7198v37.24h3.8494c1.6085 0 3.6753-0.71644 4.0606-2.4502 0.4431-2.7671 0.3-6.9752 0.3-16.195 0-8.7453 0.0935-13.778-0.27-16.195-0.40938-1.7574-2.353-2.4003-4.0906-2.4003l-3.8494-1e-5z" fill="#fff"/>
 </g>
</svg>
