<svg version="1.1" viewBox="0 0 581.32 800" xml:space="preserve" xmlns="http://www.w3.org/2000/svg">
<path d="m540.87 0h-500.77c-21.937 0-40.103 18.166-40.103 40.446v719.45c0 21.937 18.166 40.103 40.103 40.103h500.77c21.937 0 40.446-18.166 40.446-40.103v-719.45c-0.34276-22.279-18.509-40.446-40.446-40.446z" clip-rule="evenodd" fill="#232323" fill-rule="evenodd" stroke-width="3.4276"/>
<g transform="matrix(3.4276 0 0 3.4276 -1152.4 -620.39)" fill="#fff">
	<path d="m381 229.1c2.1-0.1 4.2-0.7 6.2-1.1 2.5-0.6 4.9-1.9 6-4.3 0.4-0.7 0.7-1.8 0.6-2.7 0-0.7-0.4-1.4-0.9-1.9-0.7-0.6-1.5-0.2-2.2-0.6s-0.3-1.2 0.1-1.6c0.9-0.8 2.1-1.5 3.2-2.1 1.6-0.8 3.5-1.4 5.3-1.7 3.8-0.7 7.7-0.5 11.5-0.5 2.9 0 5.9-0.2 8.9-0.2 4.3 0 8.6 0.5 12.9 1.4 2.5 0.5 5 1.2 7.2 2.5 2.5 1.4 4 3.6 5.8 5.8 1.5 1.8 2.9 3.6 4.7 5.2 1 0.9 2.1 1.7 3.4 2 0.9 0.2 2.5 0 3 1 0.8 1.5-1.5 3-2.5 3.5-2.3 1.1-4.7 0.1-6.5-1.3-2.2-1.6-4-4-5.6-6.2-4-5.5-9.8-9.3-16.3-11.1-1.8-0.5-3.8-1-5.7-0.4-4.2 1.3 0.3 4.6 1.8 5.8 1.5 1.3 2.4 2.9 2.1 5-0.3 1.8-1.7 3.3-2 5.1-0.3 1.7 1.5 3 2.5 4.1 1.4 1.6 2.8 3.3 3.6 5.3 1 2.4 0.4 5 0.8 7.5 0.5 2.6 1.1 5.3 0.3 7.9-0.8 2.8-3.3 4.3-5.9 5.2-2.6 1-5.6 1.9-8.4 2.2-1.2 0.1-7.3 0.3-6.4-2.4 0.4-1.3 4.8-0.5 5.8-0.6 4.7-0.2 9.3-2.5 10.3-7.4 0.5-2.5-0.4-5.2-1.2-7.6-1-2.8-2.4-5.6-4.1-8s-3.7-3.9-6.8-3.8c-1.2 0-2.6 0.5-3.8-0.1-0.8-0.5-1.2-1.4-2-2-0.5-0.4-2.1-0.7-2.1-1.4 0-0.8 1.6-0.4 2.1-0.4 1.5 0.2 5.6 2.7 6-0.1 0.3-2.2-3.6-3.2-3.7-3.5-0.6-0.9 1.9-0.6 2.3-0.5 0.9 0.1 1.7 0.5 2.5 0.9 1.2 0.7 1.8 2.6 2.8 3.6 1.9 1.9 1.9-2.1 2.1-3.3 0.7-3.9-0.4-4.9-1.8-6.2-2-1.9-11.8-4.6-15.6 0.8-1.6 2.4 2 6.1 0.4 7.2-9.3 6.9 5.7 23.9-8.7 27-4 0.9-9.6-0.3-13.2-2.2-1.5-0.8-4-1.9-5.1-2.8-1.4-1.1-2.8-2.1-4.7-2.5-1.1-0.2-2.1 0-3.3 0.1-0.4 0-1.2 0-1.5-0.3-0.4-0.6 0.7-1.3 1.1-1.6 1.1-0.9 2.4-1.4 3.6-1.8 0.7-0.2 3.9-0.5 3.5-1.5-0.4-0.9-2.1-1.1-2.8-1.4-0.5-0.2-1.2-0.5-1.4-1-0.3-0.9 0.4-1.9 0-2.8-0.5-1.2-1.2-2.3-1.2-3.6 0-0.7 0.7 0.2 0.8 0.4 1 1.2 2.5 1.9 2.5 3.6 0 1.3 0.7 2.5 1.7 3.3 1.3 1 2.4 1 4 0.7 1.2-0.2 1.9-0.3 2.3-1.7 0.3-1-0.3-2-0.5-3-0.2-1.2-0.2-2.4-0.2-3.6 0-1.6-0.7-2.5-1.7-3.7 0 0 1.5-0.3 1.7-0.3 0.9-0.1 1.7-0.2 2.4-0.3zm45.1 48.4c-5.4 1.7-10.3 0.7-15.6-0.4-2.3-0.6-4.8-0.5-7.1-0.9-1.3-0.2-5.1-1.3-4.5-2.9 0.8-1.9 5.9-0.4 7.3-0.1 3.6 0.7 7.1 1 10.7 0.9 2.5-0.1 5-0.5 7.4-1.3 2.9-1 5.4-2.9 8-4.3 2.6-1.3 6-1.6 8.2-3.4 2.4-2 2.3-5.2 4-7.6 1-1.4 2.2-2.9 2.9-4.4 0.8-1.8 0.4-3.6 1-5.4 0.4-1 1.9-2.2 2.8-0.9 1.7 2.5-0.7 6.7-1.7 9.1-1.4 3.4-3.1 6.8-5.6 9.8-2.4 2.9-5.9 4.2-9.4 6-3.1 1.4-4.9 4.7-8.4 5.8zm-58.9-23.9c-0.4-0.6-1.7-1.5-1.4-2.3 0.6-1.5 3.3-0.7 4.4-0.5 1.1 0.3 2.1 0.7 3.1 1.4 0.7 0.4 1.9 1.3 1 2.1-1.7 1.6-5.8 1.2-7.1-0.7zm-3.9-16.4c0-0.6 0.2-1.3 0.3-1.9 0-0.3 0.1-1.4 0.5-1.6 0.4-0.1 0.9 1 1.1 1.3 0.2 0.4 0.3 0.8 0.3 1.3s-0.3 0.9-0.5 1.4c-0.3 0.6-0.3 1.2-0.4 1.7 0 0.2-0.1 1.3-0.4 1.4-0.8 0-0.9-3-0.9-3.6zm100.3-4c2.3-1.7 2.2-5.1 1.4-7.6-0.3-0.8-1-1.9-0.4-2.8 0.7-1 1.8-1.8 2.3-2.9 1.2-2.7 0.2-5.7-0.7-8.4-1.3-3.5-3.6-8.6-8-8.7-2.8 0-5.2 1.6-7.1 3.4-1.7 1.6-3 3.8-5.3 4.6-2.8 1-6 1.4-8.9 0.7-6.9-1.7-13.9-2.3-21-2.3-1.9 0-3.8 0-5.7 0.1-1.7 0-2.9 0.1-4.3-1-2.3-2-3.4-5.2-6.4-6.4-0.8-0.3-1.7-0.5-2.6-0.5-1.4 0-2.7 0.4-3.9 1-2.5 1.4-3.4 3.8-2.8 6.7 0.4 1.9 1.2 3.1-0.5 4.5-1.9 1.5-3.3 3.6-4.1 6v0.1c-0.6 1.7-0.8 2.4-2 4.9-0.7 1.6-2.7 1.8-4.2 1.8-2.8 0.1-5.4 0.5-8.1 0.9-2.2 0.3-5.2 0.3-7.2 1.4-1.7 1-2.3 3.2-2.6 5-0.6 3.5-0.7 6.4 0.4 9.8 0.6 2 0 4.1 0.3 6.2 0.5 3.1 2.8 5.6 5 7.8 3.2 3.3 6.6 6.5 10.5 9.2 1.6 1.1 3.1 2.3 3.5 4.3 0.5 2.5-0.7 5-1.4 7.4-0.6 1.8-1.2 3.6-1.2 5.4-0.2 11.9 12.7 20.4 21.6 23.4 13.2 4.4 28.4 4 43.4-0.7 13.7-4.3 29-15.5 30.8-30.8 0.6-4.9 0.7-10.3 0.3-15.3-0.5-5-2.7-13.5-5-17.9-1.8-2.7-4.2-7-6.1-9.3z" clip-rule="evenodd" fill="#fff" fill-rule="evenodd"/>
</g>
<g transform="matrix(3.4276 0 0 3.4276 -1152.4 -620.39)" fill="#fff">
		<g transform="matrix(.9995 0 0 1 355.62 393.83)" fill="#fff" aria-label="и рыболов"><path d="m5.5058 0h-4.0664v-25.19h3.5266v15.078l4.0664-15.078h4.966v25.19h-3.5626v-18.245z"/><path d="m28.284-25.19q2.9868 0 4.4262 1.5834 1.4754 1.5834 1.4754 4.6421v3.2747q0 3.0588-1.4754 4.6421-1.4394 1.5834-4.4262 1.5834h-1.8712v9.4642h-3.9584v-25.19zm-1.8712 3.5986v8.5286h1.8712q0.93562 0 1.4394-0.5038t0.5038-1.8712v-3.7785q0-1.3674-0.5038-1.8712t-1.4394-0.5038z"/><path d="m41.849-3.5986q0.93562 0 1.4394-0.5038t0.5038-1.8712v-3.7785q0-1.3674-0.5038-1.8712t-1.4394-0.5038h-1.8712v8.5286zm-5.8297 3.5986v-25.19h3.9584v9.4642h1.8712q2.9868 0 4.4262 1.5834 1.4754 1.5834 1.4754 4.6421v3.2747q0 3.0588-1.4754 4.6421-1.4394 1.5834-4.4262 1.5834zm13.674-25.19h3.9584v25.19h-3.9584z"/><path d="m60.501-15.726h1.8712q2.9868 0 4.4262 1.5834 1.4754 1.5834 1.4754 4.6421v3.2747q0 3.0588-1.4754 4.6421-1.4394 1.5834-4.4262 1.5834h-5.8297v-25.19h10.472v3.5986h-6.5134zm1.8712 12.127q0.93562 0 1.4394-0.5038t0.5038-1.8712v-3.7785q0-1.3674-0.5038-1.8712t-1.4394-0.5038h-1.8712v8.5286z"/><path d="m74.198-5.7937q0 1.3674 0.53978 1.9432 0.57577 0.53978 1.5114 0.53978t1.4754-0.53978q0.57577-0.57577 0.57577-1.9432v-13.603q0-1.3674-0.57577-1.9072-0.53978-0.57577-1.4754-0.57577t-1.5114 0.57577q-0.53978 0.53978-0.53978 1.9072zm-3.9584-13.351q0-3.0588 1.5474-4.6781 1.5474-1.6553 4.4622-1.6553t4.4622 1.6553q1.5474 1.6193 1.5474 4.6781v13.099q0 3.0588-1.5474 4.7141-1.5474 1.6193-4.4622 1.6193t-4.4622-1.6193q-1.5474-1.6553-1.5474-4.7141z"/><path d="m95.916-21.591h-4.6061v15.33q0 1.9072-0.46781 3.1307t-1.2595 1.9432q-0.79168 0.68372-1.8353 0.97161-1.0076 0.28788-2.1231 0.28788-0.53978 0-0.97161 0t-0.93562-0.071971v-3.5986q0.32387 0.035985 0.68372 0.035985t0.68372 0q0.93562 0 1.5834-0.46781 0.68372-0.46781 0.68372-1.9432v-19.216h12.523v25.19h-3.9584z"/><path d="m106.32-5.7937q0 1.3674 0.53979 1.9432 0.57576 0.53978 1.5114 0.53978 0.93562 0 1.4754-0.53978 0.57577-0.57577 0.57577-1.9432v-13.603q0-1.3674-0.57577-1.9072-0.53978-0.57577-1.4754-0.57577-0.93563 0-1.5114 0.57577-0.53979 0.53978-0.53979 1.9072zm-3.9584-13.351q0-3.0588 1.5474-4.6781 1.5474-1.6553 4.4622-1.6553t4.4622 1.6553q1.5474 1.6193 1.5474 4.6781v13.099q0 3.0588-1.5474 4.7141-1.5474 1.6193-4.4622 1.6193t-4.4622-1.6193q-1.5474-1.6553-1.5474-4.7141z"/><path d="m122.89-25.19q3.0948 0 4.4622 1.4394 1.4034 1.4394 1.4034 4.3542v0.89964q0 1.9432-0.61176 3.2027-0.61175 1.2595-1.9432 1.8712 1.6194 0.61175 2.2671 2.0152 0.68373 1.3674 0.68373 3.3826v2.0512q0 2.9148-1.5114 4.4622-1.5114 1.5114-4.4982 1.5114h-6.2255v-25.19zm-2.0152 13.854v7.7369h2.2671q1.0076 0 1.5114-0.53978 0.53978-0.53978 0.53978-1.9432v-2.1951q0-1.7633-0.61175-2.411-0.57577-0.64774-1.9432-0.64774zm0-10.256v6.6573h1.5474q1.1156 0 1.7273-0.57577 0.64774-0.57577 0.64774-2.0872v-1.4034q0-1.3674-0.5038-1.9792-0.46781-0.61175-1.5114-0.61175z"/></g>
</g>
<g transform="matrix(3.4276 0 0 3.4276 -1152.4 -620.39)" fill="#fff">
		<g transform="matrix(.9995 0 0 1 355.62 362.32)" fill="#fff" aria-label="Охотник"><path d="m6.3441-7.2958q0 1.722 0.67973 2.447 0.72504 0.67973 1.9032 0.67973 1.1782 0 1.8579-0.67973 0.72504-0.72504 0.72504-2.447v-17.129q0-1.722-0.72504-2.4017-0.67973-0.72504-1.8579-0.72504-1.1782 0-1.9032 0.72504-0.67973 0.67973-0.67973 2.4017zm-4.9847-16.812q0-3.8518 1.9486-5.891 1.9486-2.0845 5.6191-2.0845t5.6191 2.0845q1.9486 2.0392 1.9486 5.891v16.495q0 3.8518-1.9486 5.9363-1.9486 2.0392-5.6191 2.0392t-5.6191-2.0392q-1.9486-2.0845-1.9486-5.9363z"/><path d="m36.322-31.721-5.2113 15.407 5.5738 16.314h-5.2566l-4.0784-12.552-4.1237 12.552h-4.6675l5.5738-16.314-5.2113-15.407h5.1659l3.7612 11.691 3.8518-11.691z"/><path d="m43.694-7.2958q0 1.722 0.67973 2.447 0.72504 0.67973 1.9032 0.67973t1.8579-0.67973q0.72504-0.72504 0.72504-2.447v-17.129q0-1.722-0.72504-2.4017-0.67973-0.72504-1.8579-0.72504t-1.9032 0.72504q-0.67973 0.67973-0.67973 2.4017zm-4.9847-16.812q0-3.8518 1.9486-5.891 1.9486-2.0845 5.6191-2.0845t5.6191 2.0845q1.9486 2.0392 1.9486 5.891v16.495q0 3.8518-1.9486 5.9363-1.9486 2.0392-5.6191 2.0392t-5.6191-2.0392q-1.9486-2.0845-1.9486-5.9363z"/><path d="m55.681-31.721h15.407v4.5315h-5.2113v27.189h-4.9847v-27.189h-5.2113z"/><path d="m78.311 0h-4.9847v-31.721h4.9847v13.595h5.6644v-13.595h5.0753v31.721h-5.0753v-13.595h-5.6644z"/><path d="m97.829 0h-5.1206v-31.721h4.4409v18.987l5.1206-18.987h6.2535v31.721h-4.4862v-22.975z"/><path d="m118.71-12.643-1.5407 2.9002v9.7428h-4.9847v-31.721h4.9847v13.821l6.616-13.821h4.894l-6.9332 14.138 6.9332 17.582h-5.1206z"/></g>
</g>
</svg>
