<?xml version="1.0" encoding="UTF-8"?>
<svg id="svg66" width="266.07pt" height="401.79pt" version="1.1" viewBox="0 0 266.07 401.79" xmlns="http://www.w3.org/2000/svg" xmlns:cc="http://creativecommons.org/ns#" xmlns:dc="http://purl.org/dc/elements/1.1/" xmlns:rdf="http://www.w3.org/1999/02/22-rdf-syntax-ns#">
 <metadata id="metadata72">
  <rdf:RDF>
   <cc:Work rdf:about="">
    <dc:format>image/svg+xml</dc:format>
    <dc:type rdf:resource="http://purl.org/dc/dcmitype/StillImage"/>
    <dc:title/>
   </cc:Work>
  </rdf:RDF>
 </metadata>
 <path id="path31" d="m69.267 8.3935c2.83-7.58 12.69-10.08 19.72-7.28 6.29 2.89 8.53 10.21 14.05 14.04 2.61 1.75 5.92 1.31 8.9 1.32 17.57-0.63 35.31 0.2 52.48 4.21 9.12 2.27 20.61 1.67 27.21-5.87 4.05-4.65 8.64-9.32 14.72-11.15 4.03-1.28 8.73-0.66 11.98 2.17 4.96 4.2 7.47 10.44 9.61 16.4 1.75 5.04 3.33 10.73 1.27 15.92-1.16 3.11-4.54 4.83-5.56 7.97 0.73 3.71 2.69 7.19 2.44 11.08 0.17 3.54-1.42 6.83-3.81 9.34 4.11 5.48 7.57 11.41 10.87 17.4 4.67 8.41 7.24 17.79 9.42 27.11 3.33 14.09 2.86 28.75 1.44 43.06-1.34 13.77-8.27 26.48-17.65 36.46-12.04 12.81-27.56 22.08-44.1 27.85-20.31 6.77-41.94 10.04-63.34 8.37-19.57-1.56-39.38-7.26-54.92-19.67-10.26-8.01-19.16-19.46-19.81-32.93-0.69-9.16 5.25-17.07 5.74-26.04 0.35-4.78-2.88-8.81-6.68-11.27-9.06-6.12-16.99-13.72-24.47-21.64-3.25-3.51-6.43-7.32-7.87-11.95-1.06-3.27-0.75-6.75-0.74-10.13 0.11-5.09-2.24-9.85-2.14-14.95 0.03-5.77 0.44-11.78 2.79-17.13 2.02-4.49 7.3-5.66 11.73-6.15 7.83-0.68 15.55-2.37 23.42-2.67 2.88-0.26 6.39-0.18 8.41-2.65 4.28-6.56 4.66-15.12 10.15-20.99 1.71-2.2 4.7-3.57 5.44-6.41-0.22-4.61-2.58-9.25-0.7-13.82m5.9 21c-2.19 1.51-5.45 2.73-5.73 5.76 1.52 1.31 3.79 1.01 5.49 2.03 1.63 1.44 2.18 3.79 1.74 5.88-0.83 5.13-4.83 9.24-9.52 11.17-8.08 3.1-16.81 3.38-25.23 4.92 3.16 3.25 3.61 7.73 3.45 12.05-0.28 3.85 3.15 8.15 0.18 11.54-3.93 2.23-9.7 2.41-12.95-1.14-1.51-1.45-2.19-3.47-2.49-5.49-0.27-4.35-4.31-6.81-7.19-9.52 0.38 2.8 1.47 5.4 2.53 7.99 1.08 2.28-0.93 5.23 0.87 7.2 2.8 1.76 6.43 1.9 8.79 4.42-2.44 2.2-5.83 2.3-8.8 3.25-3.53 1.1-6.9 3.03-9.24 5.93 0.23 1.03 0.87 1.54 1.92 1.52 2.96 0.06 5.95-0.9 8.88-0.12 3.54 0.81 6.43 3.1 9.36 5.11 10.41 6.47 22.28 12.03 34.86 10.83 6.73-0.55 14.43-3.86 16.16-11.04 2.83-12.68-4.58-25.56-0.59-38.16 1.01-3.52 3.86-5.89 6.3-8.42 0.51-4.4-3.44-8.38-2.15-12.88 1.88-4.15 6.29-6.56 10.58-7.47 6.34-1.23 12.98-0.21 18.93 2.18 4.12 1.71 8.05 5.44 7.96 10.21-0.15 4.51-0.45 9.17-2.3 13.36-4.67-1.57-5.21-7.64-9.62-9.55-2.87-1.24-6.34-2.16-9.29-0.66 2.67 1.54 5.99 2.46 7.86 5.09 1.33 1.79 0.61 5.31-1.99 5.36-4.85 0.09-9.16-3.48-14.11-2.58-0.76 2.02 1.91 2.38 3.06 3.26 2.84 1.13 3.87 4.95 7.09 5.26 4.43 0.05 9.21-1.14 13.29 1.21 6.22 3.48 9.49 10.26 12.67 16.33 2.97 6.87 6.13 14.24 5.37 21.88-1.03 8.62-9.05 14.57-17.2 15.82-5.21 1.3-10.7-0.87-15.82 0.81-2.21 1.69-0.14 4.53 2.03 4.92 9.29 2.59 18.98-0.35 27.72-3.59 4.91-1.84 10.09-4.62 12.18-9.73 2.3-5.55 0.93-11.64-0.11-17.3-1.07-5.33 0.26-11.02-1.87-16.14-2.18-5.09-5.91-9.3-9.74-13.21-1.65-1.74-3.56-3.91-2.97-6.51 1.14-5.01 5.68-9.42 3.96-14.9-1.57-6.06-8.64-7.98-11.22-13.39-0.65-1.21-0.35-2.86 0.84-3.61 2.8-2 6.51-1.93 9.77-1.36 15.15 2.88 29.29 11.4 38.45 23.89 4.65 6.19 9.51 12.95 16.94 15.96 4.71 2.02 10.4 0.05 13.4-3.94 1.19-1.38 0.89-3.9-0.93-4.55-3.09-0.83-6.56-0.73-9.22-2.79-8.76-6.17-13.73-16.14-21.75-23.09-8.18-6.3-18.82-7.6-28.72-9.08-11.95-1.78-24.03-0.77-36.04-0.7-12.07 0-25.07-0.64-35.84 5.78m-60.2 53.34c0.53-2.95 1.18-5.88 2.26-8.67 1.03-2.63-1.14-5-2.43-7.07-1.65 4.94-2.96 11.14 0.17 15.74m178.43 10.82c-3.72 1.71-3.05 6.37-3.62 9.7-0.34 5.36-4.38 9.29-7.16 13.55-3.2 4.54-3.34 10.66-7.16 14.83-3.41 3.54-8.43 4.56-12.92 6.04-7.74 2.22-13.78 7.98-21.3 10.72-11.27 4.16-23.61 3.47-35.29 1.76-5.33-0.68-10.57-2.91-16-2.12-1.8 0.04-3.75 2.39-2.11 3.9 3.73 3.57 9.28 4.07 14.18 4.63 7.8 0.39 15.27 2.91 23.02 3.7 6.55 0.75 13.32 0.4 19.59-1.75 4.31-1.48 7.55-4.82 10.89-7.76 6.76-6.48 16.7-8.03 23.49-14.5 7.17-7.14 11.23-16.64 15.26-25.76 1.86-4.35 4.22-9.04 3.16-13.91-0.38-1.76-1.95-4.14-4.03-3.03m-174.54 12.73c3.41 6.3 13.16 8.63 18.22 3.03-3.63-5.03-10.23-7.09-16.2-6.98-1.92 0.01-3.7 2.42-2.02 3.95z" fill="#fff"/>
 <path id="path33" d="m9.3566 269.65c5.32-1.53 11.56-1.36 16.26 1.84 4.33 3.06 5.82 8.64 5.79 13.7-0.03 11.98 0.07 23.96-0.05 35.94-0.02 5.68-2.81 11.84-8.4 13.95-5.17 1.9-11.28 1.84-16.19-0.77-4.61-2.56-6.78-8.02-6.75-13.1 0.01-12.69-0.06-25.39 0.03-38.07 0.04-5.81 3.52-11.81 9.31-13.49m3.94 8.95c-3.03 1.11-3.06 4.78-3.06 7.47 0.11 11.94-0.15 23.89 0.13 35.82-0.2 4.05 4.56 6.22 7.89 4.51 2.4-1.03 2.76-3.9 2.77-6.19 0.06-11-0.04-22.01 0.04-33.02-0.08-2.16 0.12-4.44-0.75-6.47-1.23-2.53-4.61-3.05-7.02-2.12z" fill="#fff"/>
 <path id="path35-6" d="m36.417 269.51c3.51 10.66 7.3997 21.219 10.66 31.939-3.32 11.51-7.6997 22.769-11.41 34.179 3.24 0 6.4792-0.01 9.7192 0 3.01-8.59 5.7324-17.429 9.1524-25.869 3.42 8.44 6.1423 17.279 9.1523 25.869 3.24-0.01 6.4807 0 9.7207 0-3.71-11.41-8.0897-22.669-11.41-34.179 3.26-10.72 7.1497-21.279 10.66-31.939-3.6-0.01-7.2003-0.02-10.8 0-2.65 8.02-4.4227 16.16-7.3228 24.1-2.9-7.94-4.6728-16.08-7.3228-24.1-3.6-0.02-7.1988-0.01-10.799 0z" fill="#fff"/>
 <path id="path33-2" d="m87.014 269.65c5.32-1.53 11.56-1.36 16.26 1.84 4.33 3.06 5.82 8.64 5.79 13.7-0.03 11.98 0.07 23.96-0.05 35.94-0.02 5.68-2.81 11.84-8.4 13.95-5.17 1.9-11.28 1.84-16.19-0.77-4.61-2.56-6.78-8.02-6.75-13.1 0.01-12.69-0.06-25.39 0.03-38.07 0.04-5.81 3.52-11.81 9.31-13.49m3.94 8.95c-3.03 1.11-3.06 4.78-3.06 7.47 0.11 11.94-0.15 23.89 0.13 35.82-0.2 4.05 4.56 6.22 7.89 4.51 2.4-1.03 2.76-3.9 2.77-6.19 0.06-11-0.04-22.01 0.04-33.02-0.08-2.16 0.12-4.44-0.75-6.47-1.23-2.53-4.61-3.05-7.02-2.12z" fill="#fff"/>
 <path id="path39" d="m113.01 269.5h32.09v9.44h-10.85v56.685h-10.385v-56.685h-10.855z" fill="#fff"/>
 <path id="path41" d="m149.84 269.5h10.37v28.345h11.83v-28.345h10.55v66.13h-10.55v-28.335h-11.83v28.335h-10.37z" fill="#fff"/>
 <path id="path43" d="m190.17 269.51h9.265v39.335l10.635-39.335h13.035v66.12h-9.395v-47.755l-12.88 47.755h-10.66z" fill="#fff"/>
 <path id="path45" d="m230.65 269.52h10.4v28.735l13.735-28.735h10.24l-14.45 29.495 14.45 36.615h-10.68l-10.1-26.335-3.2088 5.6386v20.696h-10.386z" fill="#fff"/>
 <path id="path33-2-9" d="m150.75 348.94c4.212-1.2114 9.1524-1.0768 12.874 1.4568 3.4282 2.4227 4.6078 6.8405 4.5841 10.847-0.0237 9.4849 0.0554 18.97-0.0396 28.455-0.0158 4.497-2.2248 9.3741-6.6505 11.045-4.0932 1.5043-8.9307 1.4568-12.818-0.60963-3.6499-2.0268-5.3679-6.3497-5.3442-10.372 8e-3 -10.047-0.0475-20.102 0.0238-30.141 0.0317-4.5999 2.7869-9.3503 7.371-10.68m3.1194 7.086c-2.3989 0.87882-2.4227 3.7845-2.4227 5.9142 0.0871 9.4532-0.11876 18.914 0.10293 28.36-0.15835 3.2065 3.6103 4.9246 6.2467 3.5707 1.9002-0.81548 2.1852-3.0877 2.1931-4.9008 0.0475-8.709-0.0317-17.426 0.0317-26.143-0.0633-1.7101 0.095-3.5153-0.59379-5.1225-0.97383-2.0031-3.6499-2.4148-5.5579-1.6785z" fill="#fff" stroke-width=".79173"/>
 <path id="path33-2-9-7" d="m217.71 348.94c4.212-1.2114 9.1524-1.0768 12.874 1.4568 3.4282 2.4227 4.6078 6.8405 4.5841 10.847-0.0237 9.4849 0.0554 18.97-0.0396 28.455-0.0158 4.497-2.2248 9.3741-6.6505 11.045-4.0932 1.5043-8.9307 1.4568-12.818-0.60963-3.6499-2.0268-5.3679-6.3497-5.3442-10.372 8e-3 -10.047-0.0475-20.102 0.0238-30.141 0.0317-4.5999 2.7869-9.3503 7.371-10.68m3.1194 7.086c-2.3989 0.87882-2.4227 3.7845-2.4227 5.9142 0.0871 9.4532-0.11876 18.914 0.10293 28.36-0.15835 3.2065 3.6103 4.9246 6.2467 3.5707 1.9002-0.81548 2.1852-3.0877 2.1931-4.9008 0.0475-8.709-0.0317-17.426 0.0317-26.143-0.0633-1.7101 0.095-3.5153-0.59379-5.1225-0.97383-2.0031-3.6499-2.4148-5.5579-1.6785z" fill="#fff" stroke-width=".79173"/>
 <path id="path43-4" d="m0.076562 348.8h7.3733v31.304l8.4636-31.304h10.374v52.62h-7.4768v-38.005l-10.25 38.005h-8.4835z" fill="#fff" stroke-width=".79583"/>
 <path id="path59-7-1" d="m43.837 401.32h8.2749v-19.695c4.52-0.01 9.8851 0.31 13.195-3.41 4.03-4.74 2.84-11.47 2.94-17.22 0.08-4.7-2.16-10.04-7.05-11.43-2.531-0.65287-5.116-0.76025-7.7165-0.76025h-9.6435v52.515m8.275-27.165v-17.9h3.0492c1.837 0 4.031 0.34667 4.4258 2.0898 0.78 4.43 0.72 9.08 0.05 13.52-0.3037 1.8447-2.4085 2.2898-4.25 2.2898z" fill="#fff"/>
 <path id="path55" d="m72.047 348.8c2.74 0.01 5.49 0.01 8.24 0.01-0.01 6.56 0.01 13.13-0.01 19.69 4.47 0.01 9.76-0.32 13.11 3.27 4.01 4.44 2.97 10.89 3.09 16.38 0.21 4.92-1.74 10.75-6.89 12.35-5.71 1.54-11.71 0.53-17.54 0.82-0.01-17.5 0-35.01 0-52.52m8.24 27.17c0 5.96-0.01 11.92 0 17.89 2.62-0.22 7 0.81 7.7-2.75 0.38-4.27 0.55-8.66-0.15-12.89-1.1-3.04-5.06-1.98-7.55-2.25z" fill="#fff"/>
 <path id="path57" d="m100.54 348.81h8.24v52.51h-8.24z" fill="#fff"/>
 <path id="path59" d="m114.78 348.81c7.27-0.01 14.545 0.01 21.815 0 0 2.5-0.01 5.01 0 7.51h-13.54v12.185c4.52 0.01 9.885-0.31 13.195 3.41 4.03 4.74 2.84 11.47 2.94 17.22 0.08 4.7-2.16 10.04-7.05 11.43-2.531 0.65287-5.116 0.76025-7.7165 0.76025h-9.6435v-52.515m8.275 27.165v17.9h3.0492c1.837 0 4.031-0.34667 4.4258-2.0898 0.78-4.43 0.72-9.08 0.05-13.52-0.3037-1.8447-2.4085-2.2898-4.25-2.2898z" fill="#fff"/>
 <path id="path61" d="m178.9 348.81h26.18v52.51h-8.26l-0.01-45h-9.585v31.87c-0.01 3.99-0.795 8.53-4.185 11.09-3.3 2.55-7.72 2.12-11.63 2.25v-7.57c2.77 0.04 7.5 0.12 7.49-3.79z" fill="#fff"/>
 <path id="path63" d="m240.6 348.76c2.894 0.10172 5.8062 0.0231 8.7115 0 2.8068-0.0224 5.6072 0.0563 8.3785 0.54275 3.85 0.69 6.76 4.05 7.24 7.87 0.8 5.61 0.94 12.89-4.62 16.18 6.57 2.89 5.84 10.95 5.64 16.89 0.18 4.84-3.11 9.68-8 10.59-2.9312 0.50132-5.8938 0.56273-8.861 0.5315-2.8332-0.0298-5.6706-0.10257-8.489 0-0.01-17.51 0-35.104 0-52.604m8.245 7.5128v14.01h2.6253c2.0669 0 4.1633-0.41947 5.0497-2.49 0.79-2.99 0.77-6.23 0.04-9.22-0.79693-2.1456-2.8997-2.3-4.969-2.3h-2.746m0 21.378v16.194h3.4848c2.0353 0 4.0316-0.14095 5.0202-2.0619 0.84-3.66 0.69-7.56 0.07-11.25-0.77764-2.5874-3.2919-2.8822-5.7235-2.8822z" fill="#fff"/>
 <path id="path59-7" d="m72.042 348.87h8.2749v19.695c4.52 0.01 9.8851-0.31 13.195 3.41 4.03 4.74 2.84 11.47 2.94 17.22 0.08 4.7-2.16 10.04-7.05 11.43-2.531 0.65287-5.116 0.76025-7.7165 0.76025h-9.6435v-52.515m8.275 27.165v17.9h3.0492c1.837 0 4.031-0.34667 4.4258-2.0898 0.78-4.43 0.72-9.08 0.05-13.52-0.3037-1.8447-2.4085-2.2898-4.25-2.2898z" fill="#fff"/>
</svg>
