<svg id="a" width="899.59pt" height="900.06pt" version="1.1" viewBox="0 0 899.59 900.06" xmlns="http://www.w3.org/2000/svg">
 <g id="b" transform="translate(-50.414 -49.937)">
  <path id="c" transform="scale(.75)" d="m193.94 66.582c-56.58 0-126.72 52.373-126.72 118.81v954.56l0.06055 0.047c0.0288 56.572 52.391 126.67 118.81 126.67h953.81c56.58 0 126.72-52.373 126.72-118.81l0.061-954.56c0-56.58-52.373-126.72-118.81-126.72z" fill="#005ea2" stroke-width="1.3333"/>
 </g>
 <g id="d" transform="translate(-50.414 -49.937)" fill="#fff">
  <path id="e" d="m499.09 150.24c34.93-17.01 74.39-24.18 113.09-21.42 36.18 3.17 71.79 14.69 102.31 34.52 47.63 30.28 82.8 79.4 96.15 134.24 8.93 36.83 8.31 76.09-2.72 112.4-4.79 15.75-11.12 31.1-19.97 45.02-8.26 13.04-18.12 25-28.7 36.19-13.8 15.23-29.58 28.46-44.33 42.72-12 10.32-22.41 22.37-34.89 32.15-45.01 36.88-90.13 73.72-132.78 113.33-7.32 6.33-13.99 13.63-22.68 18.15-16.51 9.34-37.14 10.54-54.77 3.67-17.75-7-32.17-22.03-37.97-40.25-6.08-18.58-3.29-39.93 7.79-56.09 5.46-8.44 13.43-14.73 20.73-21.48 44.11-40.85 90.66-78.92 137.17-116.99 4.8-3.77 9.06-8.16 13.47-12.38 18.47-17.52 37.87-34.07 55.4-52.56 5.74-6.38 11.4-13.09 14.82-21.05 7.13-17.43 8.05-37.23 2.92-55.32-9.61-34.76-41.31-62.04-77.09-66.42-30.96-4.37-63.7 8.68-83.18 33.16-6.61 7.88-11.29 17.13-15.14 26.62-5.58 13.98-16.39 25.73-29.69 32.72-14.2 7.67-31.35 9.39-46.9 5.28-15.05-3.96-28.51-13.62-37.09-26.61-9.31-13.62-12.58-30.88-9.92-47.06 1.95-10.2 6.27-19.72 10.69-29.04 21.28-44.94 58.41-82.09 103.28-103.5z"/>
  <path id="f" d="m249.71 133.23c16.92-2.91 35.06 0.05 49.53 9.51 20.12 12.35 32.91 35.66 32.43 59.27 0.02 142.66 0 285.32 0.01 427.99-0.06 5.96 0.27 12.01-1 17.89-2.53 15.27-10.44 29.56-22.02 39.83-12.84 11.72-30.29 18.23-47.67 17.82-17.86-0.22-35.41-7.86-47.97-20.49-10.66-10.75-17.75-25.05-19.52-40.1-1.42-11.95-0.62-24-0.82-36v-405.98c0.42-9.83 1.75-19.74 5.77-28.81 8.88-21 28.73-37.08 51.26-40.93z"/>
  <path id="g" d="m432.88 732.8c4.35-0.54 8.67-1.43 13.08-1.33 110.02-0.01 220.04 0.01 330.06 0 17.77-0.04 35.5 6.82 48.48 19.01 16.94 15.55 25.51 39.78 21.73 62.5-3.5 25.3-22.11 47.7-46.24 55.99-11.13 4.28-23.21 4.31-34.95 4.23-7.36-0.04-14.71 0.1-22.06-0.08-28.32 0.13-56.66 0.17-84.98-0.02-29.99 0.25-60 0.03-89.99 0.1-37.34-0.06-74.68 0.13-112.01-0.09-10.49 0.29-21.2-0.11-31.21-3.56-16.77-5.39-31.26-17.38-39.8-32.78-7.93-13.72-10.36-30.21-8.04-45.79 2.84-18.45 13.52-35.52 28.75-46.29 8.03-5.94 17.51-9.62 27.18-11.89z"/>
  <path id="h" d="m238.87 736.97c10.22-3.93 21.32-4.32 32.12-3.5 18.59 2.13 35.94 12.44 47.03 27.48 11.96 15.79 16.3 36.84 12.18 56.16-3.59 15.6-12.38 30.11-25.17 39.85-13.4 10.68-30.92 15.85-47.97 14.59-13.15-1.11-26.11-5.81-36.6-13.88-14.49-10.89-24.47-27.61-26.86-45.6-0.22-2.35-0.36-4.7-0.79-7-0.1-9.12 1.18-18.34 4.41-26.91 6.9-18.97 22.59-34.52 41.65-41.19z"/>
 </g>
</svg>
