<?xml version="1.0" encoding="UTF-8"?>
<!-- Generator: Adobe Illustrator 22.1.0, SVG Export Plug-In . SVG Version: 6.00 Build 0)  -->
<svg id="Слой_1" width="511.43" height="170.01" version="1.1" viewBox="0 0 511.43 170.01" xml:space="preserve" xmlns="http://www.w3.org/2000/svg" xmlns:cc="http://creativecommons.org/ns#" xmlns:dc="http://purl.org/dc/elements/1.1/" xmlns:rdf="http://www.w3.org/1999/02/22-rdf-syntax-ns#"><metadata id="metadata55"><rdf:RDF><cc:Work rdf:about=""><dc:format>image/svg+xml</dc:format><dc:type rdf:resource="http://purl.org/dc/dcmitype/StillImage"/><dc:title/></cc:Work></rdf:RDF></metadata>
<g id="#231f20ff" transform="matrix(1.2796 0 0 1.2796 -64.022 -42.228)"><path id="path5" d="m96 33 317.95-2.5e-4c12.552 0.23738 24.72 2.035 31.658 12.204 3.6424 5.5105 4.5956 13.347 3.8483 18.716l-10.88 76.04c-1.1306 7.7935-4.8448 14.366-10.543 19.175-5.8719 4.7406-14.531 6.7255-21.027 6.7198l-320.02-2.5e-4c-12.455 0-19.765-0.36274-28.367-7.528-8.3506-6.9866-9.7592-17.858-7.8234-28.277l9.44-64.68c1.6129-10.352 3.1858-17.76 10.422-24.708 8.1112-7.6265 15.369-7.6615 25.338-7.6615z" fill="#0d0d0d"/></g><g id="g46" transform="translate(-57.361 -85.819)" fill="#fff">
		<g id="g38">
			<path id="path12" d="m97.5 130.8c1.4-9.3 4.6-16.6 9.6-22.1s11.5-8.2 19.3-8.2c7.4 0 12.9 2.8 16.5 8.5s4.8 12.9 3.5 21.7l-0.2 1.3c-1.4 9.3-4.6 16.6-9.7 22s-11.5 8.1-19.2 8.1c-7.4 0-12.9-2.8-16.6-8.5-3.6-5.6-4.8-12.9-3.4-21.7zm15.2 1.3c-0.8 5.7-0.8 10.2 0.1 13.3s3 4.7 6.3 4.7c3 0 5.5-1.7 7.5-5 1.9-3.3 3.3-7.7 4.1-13.1l0.2-1.3c0.8-5.6 0.8-10.1-0.1-13.3s-3-4.8-6.2-4.8c-3.1 0-5.6 1.7-7.6 5.1-1.9 3.4-3.3 7.7-4.1 13z"/>
			<path id="path14" d="m171.6 150.1c2.1 0 3.9-0.8 5.3-2.5 1.4-1.6 2.3-4 2.8-7h14l0.1 0.3c-0.8 6.4-3.5 11.6-8 15.4s-9.8 5.8-16 5.8c-7.4 0-12.9-2.8-16.4-8.5s-4.6-12.8-3.2-21.6l0.2-1.6c1.4-9.1 4.5-16.4 9.4-21.9s11.3-8.2 19.1-8.2c6.2 0 10.9 2.1 14.3 6.3 3.3 4.2 4.5 9.8 3.5 16.8h-14.4c0.5-3.4 0.3-6.1-0.5-8-0.8-2-2.4-2.9-4.6-2.9-3.1 0-5.5 1.7-7.4 5-1.8 3.3-3.1 7.6-3.9 12.9l-0.2 1.6c-0.9 5.7-0.9 10.1-0.2 13.3 0.8 3.3 2.8 4.8 6.1 4.8z"/>
			<path id="path16" d="m247.4 113.7h-16l-7.1 47.4h-15.5l7.1-47.4h-15.8l1.8-12h47.2z"/>
			<path id="path18" d="m297.4 132.8c-1.4 9.2-4.2 16.4-8.4 21.6s-9.5 7.8-15.9 7.8c-2.5 0-4.6-0.5-6.4-1.6s-3.3-2.6-4.4-4.7l-2.5 17.9h-15.4l10.6-72.1h14.2l-0.2 6.1c1.8-2.3 3.8-4.1 6-5.3s4.6-1.9 7.3-1.9c6.1 0 10.6 2.9 13.3 8.6 2.8 5.8 3.5 13.3 2.1 22.5zm-15.3-1.1c0.9-5.9 0.9-10.5 0-13.9s-2.8-5.1-5.7-5.1c-1.7 0-3.3 0.5-4.7 1.4s-2.7 2.2-3.8 3.9l-4.1 27.8c0.5 1.4 1.4 2.5 2.6 3.2s2.6 1.1 4.5 1.1c2.9 0 5.3-1.6 7.1-4.7s3.2-7.3 4-12.6z"/>
			<path id="path20" d="m303.4 130.8c1.4-9.3 4.6-16.6 9.6-22.1 5.1-5.5 11.5-8.2 19.3-8.2 7.4 0 12.9 2.8 16.5 8.5s4.8 12.9 3.5 21.7l-0.2 1.3c-1.4 9.3-4.6 16.6-9.7 22s-11.5 8.1-19.2 8.1c-7.4 0-12.9-2.8-16.6-8.5-3.6-5.6-4.8-12.9-3.4-21.7zm15.2 1.3c-0.8 5.7-0.8 10.2 0.1 13.3s3 4.7 6.3 4.7c3 0 5.5-1.7 7.5-5 1.9-3.3 3.3-7.7 4.1-13.1l0.2-1.3c0.8-5.6 0.8-10.1-0.1-13.3s-3-4.8-6.2-4.8c-3.1 0-5.6 1.7-7.6 5.1-1.9 3.4-3.3 7.7-4.1 13z"/>
			<path id="path22" d="m105.7 223.3c2.1 0 3.9-0.8 5.3-2.5 1.4-1.6 2.4-4 2.8-7h14l0.1 0.3c-0.8 6.4-3.5 11.6-8 15.4s-9.8 5.8-16 5.8c-7.4 0-12.9-2.8-16.4-8.5s-4.6-12.8-3.2-21.6l0.2-1.6c1.4-9.1 4.5-16.4 9.4-21.9s11.3-8.2 19.1-8.2c6.2 0 10.9 2.1 14.3 6.3 3.3 4.2 4.5 9.8 3.5 16.8h-14.4c0.5-3.4 0.3-6.1-0.5-8-0.8-2-2.4-2.9-4.6-2.9-3.1 0-5.5 1.7-7.4 5-1.8 3.3-3.1 7.6-3.9 12.9l-0.2 1.6c-0.9 5.7-0.9 10.1-0.2 13.3 0.8 3.3 2.8 4.8 6.1 4.8z"/>
			<path id="path24" d="m152 198h9.6c2-7.5 5.4-13.5 10.2-17.8s10.6-6.5 17.5-6.5c7.4 0 12.9 2.8 16.5 8.5s4.8 12.9 3.5 21.7l-0.2 1.3c-1.4 9.3-4.6 16.6-9.7 22s-11.5 8.1-19.2 8.1c-6.7 0-11.9-2.3-15.5-6.9s-5.3-10.7-5-18.3h-9.5l-3.6 24h-15.5l8.9-59.4h15.5zm23.6 7.3c-0.8 5.7-0.8 10.2 0.1 13.3s3 4.7 6.3 4.7c3 0 5.5-1.7 7.5-5 1.9-3.3 3.3-7.7 4.1-13.1l0.2-1.3c0.8-5.6 0.8-10.1-0.1-13.3s-3-4.8-6.2-4.8c-3.1 0-5.6 1.7-7.6 5.1-1.9 3.4-3.3 7.7-4.1 13z"/>
			<path id="path26" d="m257.5 211.8h-3.5l-3.3 22.5h-15.4l3.3-22.5h-3.3l-12 22.5h-19.8l20.6-32.4 0.3 0.2 0.3-0.2-11.7-27h19.6l5.8 22.6h2.4l2.7-18h15.4l-2.7 18h2.7l12.6-22.6h19.5l-19.8 26.9 0.2 0.2 0.4-0.2 10.8 32.4h-19.8z"/>
			<path id="path28" d="m329.9 209.9h-22.8l-2.1 12.3h23.5l-1.8 12.1h-39l9.2-59.4h37.5l-1.8 12.1h-22l-1.7 10.8h22.8z"/>
			<path id="path30" d="m525.9 209.9h-22.8l-2.1 12.3h23.5l-1.8 12.1h-39l9.2-59.4h37.5l-1.8 12.1h-22l-1.7 10.8h22.8z"/>
			<path id="path32" d="m383.4 187h-16l-7.1 47.2h-15.5l7.2-47.2h-15.8l1.8-12.2h47.2z"/>
			<path id="path34" d="m425 234.3h-15.5l3.5-23.3h-14.5l-3.5 23.3h-15.5l8.9-59.4h15.5l-3.6 24.1h14.5l3.6-24.1h15.5z"/>
			<path id="path36" d="m434.7 203.7c1.4-9.3 4.6-16.6 9.6-22.1 5.1-5.5 11.5-8.2 19.3-8.2 7.4 0 12.9 2.8 16.5 8.5s4.8 12.9 3.5 21.7l-0.2 1.3c-1.4 9.3-4.6 16.6-9.7 22s-11.5 8.1-19.2 8.1c-7.4 0-13-2.8-16.6-8.5-3.6-5.6-4.7-12.9-3.4-21.7zm15.2 1.3c-0.8 5.7-0.8 10.2 0.1 13.3s3 4.7 6.3 4.7c3 0 5.5-1.7 7.5-5 1.9-3.3 3.3-7.7 4.1-13.1l0.2-1.3c0.8-5.6 0.8-10.1-0.1-13.3s-3-4.8-6.2-4.8c-3.1 0-5.6 1.7-7.6 5.1-1.9 3.4-3.3 7.7-4.1 13z"/>
		</g>
		<path id="path40" d="m539.4 103c-0.2-0.4-0.7-0.6-1.5-0.6h-150.5c-4.1 0-7.5 1.3-10.3 4-2.5 2.5-4.1 6-4.8 10.3l-6.5 40c0 0.3 0 0.6 0.2 0.6 0 0.3 0.1 0.6 0.3 0.8 0.3 0.3 0.6 0.4 1.1 0.4h161.6c0.4 0 0.8-0.1 1.1-0.4s0.4-0.6 0.4-1l8.9-52.7c0.2-0.2 0.3-0.4 0.3-0.7 0-0.2-0.1-0.5-0.3-0.7zm-156.9 8.5c1.3-1.4 3-2.1 5-2.1h143.8l-6.9 42.1h-150.2l5.3-33.9c0.6-2.6 1.6-4.6 3-6.1z"/>
		<path id="path42" d="m450.6 115.4h-4.8l-2.4 12.2h-41.1l2.5-12.2h-4.7l-5.9 28.8h4.7l2.4-12.2h41.1l-2.5 12.2h4.6z"/>
		<path id="path44" d="m510.1 119.3c-2.5-2.3-6.1-3.6-11-3.9h-39.7l-6.1 28.8h42.4c3.1 0 5.8-0.5 8.1-1.4 2.8-1 5-2.3 6.5-3.9 3-3 4.2-6.7 3.8-11.3 0-1.7-0.4-3.3-1.2-4.8-0.9-1.6-1.8-2.7-2.8-3.5zm-1.9 4.3c0.9 1.2 1.4 2.6 1.4 4.3 0.4 3-0.5 5.6-2.7 7.9-2.5 2.8-6.1 4.2-10.9 4.2h-37l4.2-20.2h36.1c3.4 0 6 0.8 7.8 2.6 0 0 0.4 0.4 1.1 1.2z"/>
	</g>
</svg>
