<svg width="694.24" height="800" version="1.1" viewBox="0 0 694.24 800" xml:space="preserve" xmlns="http://www.w3.org/2000/svg">
<rect x="-657.1" y="-86.9" width="1920" height="1080" display="none" fill="#373c46"/>
<g transform="matrix(1.1496 0 0 1.1496 -755.4 -219.57)" fill="#fff">
	<polygon points="1054.8 520.3 1108.9 399.9 960.7 462.3 812.5 399.9 866.6 520.3 960.3 559.7 960.3 560.1 960.7 559.9 961.1 560.1 961.1 559.7"/>
	<polygon points="961.1 415.8 1139.7 336 1205 191 960.7 294.7 716.3 191 781.7 336 960.3 415.8 960.3 416.2 960.7 416 961.1 416.2"/>
	<polygon points="1025.2 584 960.7 609.9 896.1 584 960.7 725.5"/>
</g>
<g transform="matrix(1.1496 0 0 1.1496 -755.4 -219.57)" fill="#fff">
	<path d="m657.1 795.1c0-6.4 1.5-11 4.5-14s7.7-4.5 14-4.5c6.4 0 11.1 1.5 14.1 4.5s4.6 7.7 4.6 14v68.8c0 6.4-1.5 11-4.5 14s-7.7 4.5-14 4.5c-6.4 0-11.1-1.5-14.1-4.5s-4.6-7.7-4.6-14zm14 70.2c0 1.7 0.4 2.9 1.1 3.7s1.9 1.2 3.6 1.2c1.6 0 2.7-0.4 3.5-1.2s1.2-2 1.2-3.7v-71.7c0-1.7-0.4-2.9-1.2-3.7s-2-1.2-3.5-1.2c-1.7 0-2.9 0.4-3.6 1.2s-1.1 2-1.1 3.7z"/>
	<path d="m702.8 795.1c0-6.4 1.5-11 4.5-14s7.7-4.5 14-4.5c6.4 0 11.1 1.5 14.1 4.5s4.6 7.7 4.6 14v17.8l-13.8 5.9v-25.1c0-1.7-0.4-2.9-1.2-3.7s-2-1.2-3.5-1.2c-1.7 0-2.9 0.4-3.6 1.2s-1.1 2-1.1 3.7v71.7c0 1.7 0.4 2.9 1.1 3.7s1.9 1.2 3.6 1.2c1.6 0 2.7-0.4 3.5-1.2s1.2-2 1.2-3.7v-23.1l13.8-5.9v27.5c0 6.4-1.5 11-4.5 14s-7.7 4.5-14 4.5c-6.4 0-11.1-1.5-14.1-4.5s-4.6-7.7-4.6-14z"/>
	<path d="m879.2 795.1c0-6.4 1.5-11 4.5-14s7.7-4.5 14-4.5c6.4 0 11.1 1.5 14.1 4.5s4.6 7.7 4.6 14v17.8l-13.8 5.9v-25.1c0-1.7-0.4-2.9-1.2-3.7s-2-1.2-3.5-1.2c-1.7 0-2.9 0.4-3.6 1.2s-1.1 2-1.1 3.7v71.7c0 1.7 0.4 2.9 1.1 3.7s1.9 1.2 3.6 1.2c1.6 0 2.7-0.4 3.5-1.2s1.2-2 1.2-3.7v-23.1l13.8-5.9v27.5c0 6.4-1.5 11-4.5 14s-7.7 4.5-14 4.5c-6.4 0-11.1-1.5-14.1-4.5s-4.6-7.7-4.6-14z"/>
	<path d="m788.5 880.9v-102.9h18.7c6.3 0 10.9 1.6 14 4.8 3 3.2 4.6 8 4.6 14.3v23.2c0 11.5-3.2 15.4-13.4 19.9l-9.8 4.2v36.4h-14.1zm14-90.2v40.2l5.3-2.2c3.5-1.7 4.1-2.4 4.1-6.7v-26.2c0-1.7-0.4-2.9-1.2-3.7s-2-1.2-3.5-1.2h-4.7z"/>
	<path d="m833.5 795.1c0-6.4 1.5-11 4.5-14s7.7-4.5 14-4.5c6.4 0 11.1 1.5 14.1 4.5s4.6 7.7 4.6 14v68.8c0 6.4-1.5 11-4.5 14s-7.7 4.5-14 4.5c-6.4 0-11.1-1.5-14.1-4.5s-4.6-7.7-4.6-14zm14 70.2c0 1.7 0.4 2.9 1.1 3.7s1.9 1.2 3.6 1.2c1.6 0 2.7-0.4 3.5-1.2s1.2-2 1.2-3.7v-71.7c0-1.7-0.4-2.9-1.2-3.7s-2-1.2-3.5-1.2c-1.7 0-2.9 0.4-3.6 1.2s-1.1 2-1.1 3.7z"/>
	<path transform="matrix(.86987 0 0 .86987 657.1 191)" d="m353.38 672.97c-7.3574 0-12.76 1.8383-16.209 5.2871-3.5637 3.4488-5.2891 8.8516-5.2891 16.209v28.166h-7.127v-47.822h-16.094v118.29h16.094v-56.789h7.127v37.018c0 7.2424 1.8403 12.645 5.2891 16.094s8.8516 5.1738 16.209 5.1738c7.2424 0 12.645-1.7251 16.094-5.1738 3.4488-3.4488 5.1738-8.7364 5.1738-16.094v-78.863c0-7.3574-1.725-12.76-5.1738-16.209-3.4488-3.5637-8.7364-5.2871-16.094-5.2871zm-0.11524 14.139c1.7244 0 3.1038 0.46118 4.0234 1.3808 0.91967 0.91968 1.3789 2.2996 1.3789 4.2539v82.311c0 1.8393-0.45924 3.3323-1.3789 4.252s-2.1841 1.3809-4.0234 1.3809c-1.9543 0-3.334-0.46119-4.1387-1.3809s-1.2656-2.2976-1.2656-4.252v-82.311c0-1.8393 0.46092-3.3342 1.2656-4.2539 0.80471-0.91967 2.1844-1.3808 4.1387-1.3808z" stroke-width="1.1496"/>
	<path d="m999.1 825.7-10.3-47.7h12.6l10 47.6-10.7 55.3h-13.5zm12.2-47.7h14v102.9h-14zm14 47.7 10-47.6h12.6l-10.3 47.6 11.9 55.3h-13.5z"/>
	<path transform="matrix(.86987 0 0 .86987 657.1 191)" d="m456.62 674.81v118.29h37.938v-14.139h-21.844v-43.799h19.43v-14.141h-19.43v-32.074h16.9l6.0918-14.139z" stroke-width="1.1496"/>
	<path transform="matrix(.86987 0 0 .86987 657.1 191)" d="m502.03 674.81-6.0918 14.254h16.209v110.94l16.094-6.8984v-104.15h13.91v-14.139z" stroke-width="1.1496"/>
	<path transform="matrix(.86987 0 0 .86987 657.1 191)" d="m548.47 674.81v118.29h16.096v-57.594h10.805v57.594h15.865v-118.29h-15.865v47.133h-10.805v-47.133z" stroke-width="1.1496"/>
	<path d="m1180.6 795.1c0-6.4 1.5-11 4.5-14s7.7-4.5 14-4.5c6.4 0 11.1 1.5 14.1 4.5s4.6 7.7 4.6 14v68.8c0 6.4-1.5 11-4.5 14s-7.7 4.5-14 4.5c-6.4 0-11.1-1.5-14.1-4.5s-4.6-7.7-4.6-14zm14 70.2c0 1.7 0.4 2.9 1.1 3.7s1.9 1.2 3.6 1.2c1.6 0 2.7-0.4 3.5-1.2s1.2-2 1.2-3.7v-71.7c0-1.7-0.4-2.9-1.2-3.7s-2-1.2-3.5-1.2c-1.7 0-2.9 0.4-3.6 1.2s-1.1 2-1.1 3.7z"/>
	<path transform="matrix(.86987 0 0 .86987 657.1 191)" d="m100.93 674.81v14.139h13.795v111.05l16.096-6.8984v-104.15h13.91v-14.139z" stroke-width="1.1496"/>
	<path transform="matrix(.86987 0 0 .86987 657.1 191)" d="m655.15 674.7v118.29l37.936-0.11523v-14.141h-21.842v-43.799h19.428v-14.141h-19.428v-31.959h16.898l6.0938-14.139z" stroke-width="1.1496"/>
</g>
</svg>
