<svg id="a" width="973.82pt" height="564.9pt" version="1.1" viewBox="0 0 973.82 564.9" xmlns="http://www.w3.org/2000/svg">
 <g id="b" transform="translate(-16.174 -58.213)" fill="#fff">
  <path id="c" transform="scale(.75)" d="m514.98 79.357c-20.203-0.10125-40.417 1.3951-60.377 4.4551l-35.428 51.587c-24.734-4.832-50.548-0.5335-75.615 1.8528-81.24 6.6933-158.37 43.742-198.97 114.69-25.293 43.027-78.559 125.9-73.599 175.54 3.7733 39.28 10.477 98.674 32.557 131.38 20.027 30.107 60.897 73.192 91.67 92.139 37.7 23.431 63.918 50.45 108.21 52.411l151.7 70.931c20.613 2.9333 41.427 4.4417 62.254 4.0684 53.6-0.13333 106.88-12.921 155.4-35.508-5.8133 29.427-12.56 58.653-19.08 87.906 11.413-9.76 22.414-20.079 32.574-31.172 30.307-31.8 57.826-66.173 83.52-101.77 31.16-43.813 58.866-90.281 79.826-139.87 18.813-45.573 27.507-95.307 25.254-144.56-2.1333-44.293-12.867-88.186-31.693-128.36-18.24-38.907-43.8-74.373-74.92-104-42.84-41.4-96.241-71.653-153.56-87.746-32.4-9.2-66.045-13.808-99.717-13.977zm-98.387 140.97c24.422 0.16375 48.83 4.126 71.85 12.416 59.787 20.467 109.88 68.775 130.51 128.75 13.733 38.973 14.906 82.266 3.4922 121.96-13.653 48.6-46.52 91.066-89.066 117.97-35.92 22.947-78.76 35.002-121.37 33.988-60.427-0.0933-120.39-26.987-160.33-72.4-24.747-27.747-42.052-62.254-48.479-98.947-11.373-58.853 6.2266-122.17 45.307-167.48 35.72-42.467 88.572-69.705 143.72-75.172 8.0933-0.77 16.236-1.1386 24.377-1.084z" stroke-width="1.3333"/>
  <path id="d" d="m674.36 237.22 146.04-0.04v29.27h-56.23v141.75h-33.7v-141.75h-56.105z"/>
  <path id="e" d="m839.65 237.2h86.38c14.84 0.04 30.35 3.365 42.33 12.525 10.73 8.26 16.22 21.91 16.32 35.24 0.36 8.11-1.89 16.44-6.94 22.88-4 5.42-9.9 8.95-15.8 11.95 12.69 3.71 22.34 14.64 26.13 27.09 3.07 9.06 2.11 18.97-0.45 28.03-3.24 11.17-11.7 20.41-22.11 25.37-13.76 6.71-29.37 8.09-44.47 7.93h-81.39v-171.02m32.805 29.21v39.275h50.505c7.02 0.03 14.38-0.6 20.6-4.14 4.82-2.69 7.91-8.05 7.88-13.56 0.15-7.66-4.98-14.62-11.59-18.05-5.77-3-12.41-3.735-18.82-3.525h-48.575m0 67.935v43.97h51.545c6.76-0.39 13.67-1.05 19.96-3.79 5.28-2.13 10.16-6.11 12.08-11.63 1.84-6.19 0.16-13.18-4.45-17.75-7.4-7.44-18.16-11.02-28.54-10.8z"/>
 </g>
 <g id="f" transform="translate(-16.174 -58.213)">
  <path id="g" d="m228.99 64.54c36.71-8.09 74.99-8.17 111.96-1.68 55.44 10.32 107.66 37.78 146.94 78.34 24.79 25.35 44.42 55.76 57.09 88.89 15.53 40.13 20.44 84.26 14.43 126.85-5.06 37.1-18.63 72.94-39.07 104.29-33.975 52.696-87.217 92.225-146.98 110.83-16.662 4.7491-32.797 9.1849-49.323 10.611-17.57 2.47-35.38 2.29-53.07 1.68-13.27-1.11-26.62-2.21-39.57-5.46-53.37-10.8-103.29-38.03-141.32-76.99-16.33-16.74-30.18-35.78-41.78-56.06-15.49-28.81-26.55-60.27-30.21-92.87-4.76-37.89-0.52-76.7 11.25-112.98 7.22-20.34 16.28-40.14 28.33-58.1 8.13-12.06 16.41-24.17 26.78-34.45 13.36-15.32 28.97-28.62 45.73-40.06 29.63-20.7 63.55-35.1 98.81-42.84m39.24 72.73c-60.93 5.02-118.78 40.73-149.23 93.94-18.97 32.27-27.23 70.66-23.51 107.89 2.83 29.46 13.14 58.16 29.7 82.69 15.02 22.58 35.11 41.69 58.19 55.9 38.52 23.94 85.56 33.29 130.4 27.09 38.13-5.21 74.74-21.84 103.29-47.72 26.34-23.52 45.89-54.72 55.02-88.88 9.08-32.92 8.05-68.41-2.22-100.93-11.77-37.34-36.05-70.48-67.77-93.36-38.06-28.21-86.81-41.1-133.87-36.62z" fill="#9ac55c"/>
 </g>
</svg>
