<svg id="a" version="1.1" viewBox="0 0 249.3 85.3" xml:space="preserve" xmlns="http://www.w3.org/2000/svg">
<g id="b" transform="translate(-22,-4)"><path id="c" class="st0" d="m214.8 53.9h11.4v2h-11.4zm-170 9.4h-8.6v22h-5.7v-22h-8.5v-5h22.8zm13.2 6.7 0.8 3.4h0.2l0.7-3.6 4.4-11.6h6l-7.8 18.8c-0.6 1.5-1.2 2.7-1.8 3.7s-1.2 1.9-1.9 2.6-1.4 1.2-2.2 1.6-1.8 0.5-2.9 0.5c-0.9 0-1.7-0.1-2.2-0.2s-1.1-0.4-1.8-0.8l1.5-4.4c0.5 0.2 0.9 0.4 1.3 0.4 0.4 0.1 0.8 0.1 1.2 0.1 1.3 0 2.3-0.9 2.7-2.7l-10.9-19.5h6.7zm30.2-6.7h-6.2c-0.1 2.4-0.3 4.7-0.4 6.6-0.2 2-0.3 3.7-0.6 5.3s-0.6 3-1 4.2-0.9 2.3-1.6 3.2c-0.4 0.6-0.9 1.1-1.3 1.5-0.5 0.4-1 0.7-1.6 0.9-0.5 0.2-1.1 0.4-1.6 0.5s-1 0.2-1.4 0.2c-0.7 0-1.2-0.1-1.6-0.2s-0.8-0.3-1.2-0.5l0.6-4.8c0.3 0.1 0.6 0.2 1 0.2s0.9-0.1 1.3-0.3 0.8-0.5 1.1-1c0.4-0.6 0.8-1.4 1.1-2.4s0.6-2.4 0.8-4.1 0.4-3.7 0.5-6c0.2-2.3 0.3-5.1 0.3-8.2h17.3v27h-5.7zm13.1-5h5.7v9.6c0.1 0 0.4-0.1 0.7-0.1 0.3-0.1 0.7-0.1 1-0.1 0.4 0 0.8-0.1 1.1-0.1 0.4 0 0.7-0.1 1-0.1 1.4 0 2.7 0.2 4 0.4 1.3 0.3 2.4 0.7 3.4 1.4s1.8 1.6 2.4 2.7 0.9 2.5 0.9 4.3c0 3.1-1 5.4-3.2 7-2.1 1.6-5.1 2.3-8.9 2.3h-3.7c-0.7 0-0.8-0.1-1.6-0.1-0.8-0.1-0.1-0.1-0.8-0.2-0.8-0.1-1.5-0.2-2.2-0.4v-26.6zm8.5 22.3c0.8 0 1.5-0.1 2.2-0.2s1.3-0.4 1.9-0.7 0.9-0.7 1.2-1.3c0.3-0.5 0.5-1.2 0.5-2s-0.2-1.6-0.5-2c-0.3-0.5-0.7-0.9-1.3-1.2-0.5-0.3-1.1-0.5-1.9-0.6-0.7-0.1-1.4-0.2-2.2-0.2-0.2 0-0.5 0-0.7 0.1-0.3 0-0.6 0.1-0.8 0.1s-0.5 0.1-0.8 0.1c-0.2 0.1-0.4 0.1-0.5 0.1v7.6c0.3 0.1 0.7 0.1 1.2 0.2h1.7zm35.5 3.5c-0.8 0.6-2 1-3.4 1.3s-2.8 0.4-4.3 0.4c-1.7 0-3.4-0.3-4.9-0.8-1.6-0.5-3-1.3-4.2-2.5-1.2-1.1-2.2-2.6-2.9-4.4s-1.1-3.9-1.1-6.4c0-2.6 0.4-4.8 1.2-6.6s1.9-3.2 3.2-4.3 2.7-1.9 4.3-2.4 3.1-0.7 4.6-0.7c1.7 0 3.1 0.1 4.2 0.3s2.1 0.5 2.9 0.7l-1.1 4.8c-0.6-0.3-1.4-0.5-2.2-0.6-0.9-0.1-2-0.2-3.3-0.2-1.1 0-2.2 0.2-3.2 0.6-0.9 0.4-1.8 0.9-2.4 1.7-0.7 0.7-1.2 1.7-1.6 2.8s-0.6 2.4-0.6 4c0 1.3 0.2 2.5 0.5 3.7 0.3 1.1 0.8 2.1 1.5 2.9s1.5 1.4 2.5 1.9c1 0.4 2.2 0.7 3.6 0.7 1.2 0 2.3-0.1 3.2-0.4 0.9-0.2 1.6-0.5 2.3-0.9zm12.4-10.3h-1.5v11.4h-5.7v-27h5.7v11.9l1.3-0.6 8.1-11.3h6.5l-8.6 11.3-2.2 1.5 2.3 1.6 9.8 12.7h-7.1zm37.8-3.4 0.3-3.4h-0.2l-2 3.5-11.1 14.8h-4.3v-27h5.7v14.5l-0.4 3.6h0.2l2.1-3.6 10.9-14.5h4.3v27h-5.7zm30.7 0 0.3-3.4h-0.2l-2 3.5-11.1 14.8h-4.2v-27h5.7v14.5l-0.4 3.6h0.2l2.1-3.6 10.9-14.5h4.3v27h-5.7z" fill="#fff"/><path id="d" class="st1" d="m252.8 41.4c0.4 0.2 0.8 0.2 1.1-0.1zm-0.5 22.2c0.3-0.2 0.6-0.6 0.6-1zm18.9 11.5c-0.1-0.4-0.3-0.8-0.6-1zm-21.9-38c-0.1-0.4-0.3-0.8-0.6-1zm19.4-10.6c-0.4-0.2-0.8-0.2-1.1 0.1zm0.5-22.2c-0.3 0.2-0.6 0.6-0.6 1zm-18.7 64.4c0.1 0.4 0.3 0.8 0.6 1zm20.8-18.7v-19.4c0-0.7-0.6-1.2-1.2-1.2-0.2 0-0.4 0.1-0.6 0.2l-16.8 9.6c-0.6 0.4-0.8 1.1-0.5 1.7 0.1 0.2 0.3 0.4 0.5 0.5l8.3 4.8 8.4 4.8c0.6 0.4 1.3 0.2 1.7-0.5 0.2-0.1 0.2-0.3 0.2-0.5zm-2.4 1.8-16.8-9.6c-0.6-0.4-1.3-0.2-1.7 0.5-0.1 0.2-0.2 0.4-0.2 0.6v19.4c0 0.7 0.6 1.2 1.2 1.2 0.3 0 0.5-0.1 0.7-0.2l8.3-4.8 8.4-4.8c0.6-0.4 0.8-1.1 0.5-1.7 0-0.3-0.2-0.5-0.4-0.6zm0.4 3-16.8 9.6c-0.6 0.4-0.8 1.1-0.5 1.7 0.1 0.2 0.3 0.4 0.5 0.5l16.8 9.6c0.6 0.4 1.3 0.2 1.7-0.5 0.1-0.2 0.2-0.5 0.2-0.7v-19.3c0-0.7-0.6-1.2-1.2-1.2-0.2 0.1-0.5 0.2-0.7 0.3zm-21.9-38-16.8 9.6c-0.6 0.4-0.8 1.1-0.5 1.7 0.1 0.2 0.3 0.4 0.5 0.5l16.8 9.6c0.6 0.4 1.3 0.2 1.7-0.5 0.1-0.2 0.2-0.5 0.2-0.7v-19.3c0-0.7-0.6-1.2-1.2-1.2-0.3 0.1-0.6 0.2-0.7 0.3zm2.8 1.1v19.4c0 0.7 0.6 1.2 1.2 1.2 0.2 0 0.4-0.1 0.6-0.2l16.8-9.6c0.6-0.4 0.8-1.1 0.5-1.7-0.1-0.2-0.3-0.4-0.5-0.5l-8.3-4.8-8.4-4.8c-0.6-0.4-1.3-0.2-1.7 0.5-0.2 0.1-0.2 0.3-0.2 0.5zm2.4-1.9 16.8 9.6c0.6 0.4 1.3 0.2 1.7-0.5 0.1-0.2 0.2-0.4 0.2-0.6v-19.3c0-0.7-0.6-1.2-1.2-1.2-0.3 0-0.5 0.1-0.7 0.2l-16.8 9.6c-0.6 0.4-0.8 1.1-0.5 1.7 0.1 0.3 0.3 0.4 0.5 0.5zm-0.3 73 16.8-9.6c0.6-0.4 0.8-1.1 0.5-1.7-0.1-0.2-0.3-0.4-0.5-0.5l-16.8-9.6c-0.6-0.4-1.3-0.2-1.7 0.5-0.1 0.2-0.2 0.5-0.2 0.7v19.3c0 0.7 0.6 1.2 1.2 1.2 0.3-0.1 0.5-0.2 0.7-0.3z" fill="#e31f26"/><path id="e" class="st0" d="m28.4 45.9h-1.9v5h-0.8v-5h-1.9v-0.7h4.7zm1.5-0.7h3.5v0.7h-2.6v1.8h2.4v0.7h-2.4v1.9h2.7v0.7h-3.5zm8.9 0.7h-1.8c-0.1 0.5-0.1 1-0.1 1.5-0.1 0.5-0.1 0.8-0.2 1.2s-0.1 0.7-0.2 0.9c-0.1 0.3-0.2 0.5-0.3 0.7-0.2 0.3-0.3 0.5-0.5 0.6-0.2 0.2-0.4 0.2-0.6 0.2h-0.4l0.1-0.7h0.2c0.1 0 0.2 0 0.2-0.1 0.1-0.1 0.2-0.1 0.2-0.1 0.1-0.1 0.1-0.2 0.2-0.3 0.1-0.2 0.2-0.3 0.2-0.6 0.1-0.3 0.2-0.6 0.2-0.9 0.1-0.4 0.1-0.8 0.2-1.3s0.1-1.1 0.1-1.8h3.4v5.8h-0.8zm2.9-0.7h3.5v0.7h-2.6v1.8h2.4v0.7h-2.4v1.9h2.7v0.7h-3.5v-5.8zm6.7 3.1h-0.4v2.7h-0.8v-5.8h0.8v2.6l0.4-0.1 2.1-2.5h0.9l-2.1 2.5-0.4 0.3 0.5 0.3 2.3 2.7h-1zm8 1.2h-2.3l-0.6 1.5h-0.8l2.4-5.9h0.4l2.4 5.9h-0.9zm-2-0.7h1.8l-0.7-1.7-0.2-0.9-0.2 0.9zm8.7-0.4h-2.9v2.6h-0.8v-5.8h0.8v2.5h2.9v-2.5h0.8v5.8h-0.8zm6 1.1h-2.3l-0.6 1.5h-0.8l2.4-5.9h0.4l2.4 5.9h-0.9zm-2.1-0.7h1.8l-0.6-1.7-0.2-0.9-0.2 0.9zm7.7-2.9h-1.8c-0.1 0.5-0.1 1-0.1 1.5-0.1 0.5-0.1 0.8-0.2 1.2s-0.1 0.7-0.2 0.9c-0.1 0.3-0.2 0.5-0.3 0.7-0.2 0.3-0.3 0.5-0.5 0.6-0.2 0.2-0.4 0.2-0.6 0.2h-0.4l0.1-0.7h0.2c0.1 0 0.2 0 0.2-0.1 0.1-0.1 0.2-0.1 0.2-0.1 0.1-0.1 0.1-0.2 0.2-0.3 0.1-0.2 0.2-0.3 0.2-0.6 0.1-0.3 0.2-0.6 0.2-0.9 0.1-0.3 0.1-0.8 0.2-1.3s0.1-1.1 0.1-1.8h3.4v5.8h-0.8z" fill="#fff"/></g></svg>
