<svg version="1.1" viewBox="0 0 1276.8 692.13" xmlns="http://www.w3.org/2000/svg">
 <g transform="translate(481.27 -63.441)" fill="#00aeef">
  <path d="m-459.08 234.86c167.9-57.1 335.75-114.31 503.64-171.42-53.36 199.81-106.78 399.61-160.25 599.4-65.875 19.25-131.7 38.712-197.6 57.888 44.16-165.42 88.47-330.81 132.7-496.23-100.25 34.07-200.43 68.31-300.68 102.39 7.363-30.688 14.775-61.36 22.19-92.03z"/>
  <path d="m171.68 361.11c-0.213-54.2-0.125-108.41-0.037-162.61 14.363 0.075 28.738 0 43.11 0.037-14.25 54.22-28.863 108.35-43.07 162.58z"/>
  <path d="m222.97 202.73c0.625-1.738 0.575-4.313 2.938-4.563 0.075 55.42 0.012 110.85 0.037 166.28 4.488 0.012 8.975 0.025 13.463 0-19.425 73.35-38.975 146.66-58.4 220-3.15 0.013-6.287 0.013-9.412 0.025 0.05-62.7-0.225-125.41 0.137-188.1 16.787-64.61 34.29-129.06 51.24-193.64z"/>
  <path d="m389.07 198.53c9-0.012 18-0.025 27 0-8.887 33.713-17.813 67.41-26.863 101.07-0.313-33.688-0.05-67.39-0.137-101.07z"/>
  <path d="m425.41 198.53c6.01-0.012 12.02-0.012 18.04 0 0.012 50.95-0.025 101.9 0.012 152.85 0.012 2.075-0.288 4.137-0.85 6.137-17.9 66.863-35.4 133.82-53.44 200.65-0.238-46.45-0.025-92.89-0.1-139.34-7.35-0.012-14.7 0.012-22.05-0.012 4.6-18.16 9.613-36.23 14.337-54.36 2.563 0 5.137-0.012 7.712-0.012 0.238-10.02-0.462-20.1 0.325-30.09 11.938-45.29 24.1-90.53 36.01-135.82z"/>
  <path d="m469.47 255.64c-0.188-19.04-0.05-38.07-0.075-57.12 5.113 0 10.238 0 15.363 0.012-5.05 19.05-9.887 38.16-15.288 57.11z"/>
  <path d="m494.17 198.52h54.59c-4.563 16.963-9.05 33.95-13.538 50.925-3.825 0.012-7.638 0.012-11.438 0-0.275 14.688 0.425 29.425-0.35 44.09-17.95 67.6-35.688 135.29-53.988 202.8-0.038-68.25-0.225-136.52 0.1-204.75 8-31.06 16.413-62.04 24.625-93.06z"/>
  <path d="m544.56 249.43c4.538-16.988 8.875-34.04 13.625-50.963 19.7 0.412 39.438-0.637 59.11 0.688-4.525 16.75-8.938 33.525-13.388 50.29-19.788 0-39.563 0.037-59.35-0.012z"/>
  <path d="m626.38 199.99c19.06 2.387 37.712 7.688 55.26 15.5-4.675 17.4-9.263 34.825-13.888 52.24-16.837-9.4-35.525-15.55-54.725-17.512 4.45-16.75 8.888-33.488 13.35-50.22z"/>
  <path d="m689.87 219.54c16.788 8.525 32.35 19.563 45.875 32.662-5.625 21.45-11.362 42.863-17.06 64.3-10.975-17.475-25.725-32.475-42.9-43.887 4.7-17.688 9.4-35.37 14.09-53.07z"/>
  <path d="m743.19 259.64c18.11 19.475 32.775 42.563 41.14 67.875-17.325 66.44-35.21 132.76-52.763 199.16-1.475 3.925-1.237 8.85-4.362 11.913-19.85 16.962-43.23 29.675-68.12 37.5 5.862-22.15 11.763-44.29 17.638-66.43 30.825-20.438 53.23-53.25 60.62-89.53 6.5-30.975 2.15-64.15-12.35-92.31 6.138-22.712 12.02-45.49 18.2-68.19z"/>
  <path d="m-314.57 292.49c34.04-10.288 68.11-20.475 102.19-30.663-43.28 154.95-86.81 309.84-130.18 464.77-31.375 9.688-62.738 19.425-94.14 28.975 40.563-154.39 81.5-308.7 122.12-463.09z"/>
  <path d="m469.96 530.22c17.825-67.4 35.913-134.73 53.588-202.16 0.487 68.49 0.063 136.99 0.212 205.48 1.175-0.013 3.525-0.013 4.7-0.013-4.55 16.975-9.02 33.962-13.563 50.938-15.16-0.013-30.337 0-45.5-0.013-0.038-16.05 0.038-32.11-0.05-48.17-0.012-2.038 0.075-4.087 0.613-6.05z"/>
  <path d="m789.48 343.88c11.1 42.24 6.813 88.24-11.475 127.86-9.163 19.613-21.337 37.962-36.625 53.33 15.95-60.41 32.04-120.8 48.1-181.19z"/>
  <path d="m248.78 364.46c18.17-0.012 36.35 0.012 54.53-0.012-4.762 18.14-9.613 36.25-14.413 54.39-18.2 0.012-36.39-0.012-54.57 0 4.813-18.12 9.6-36.26 14.463-54.37z"/>
  <path d="m312.68 364.43c19.775 0.075 39.563-0.025 59.34 0.05-4.825 18.11-9.575 36.25-14.462 54.35-19.762 0-39.525 0.012-59.29-0.012 4.738-18.15 9.6-36.26 14.413-54.39z"/>
  <path d="m391.64 584.44c17.262-64.888 34.375-129.81 51.788-194.66 0.038 64.887-0.012 129.77 0.012 194.66-17.262 0.025-34.538 0.013-51.8 0z"/>
  <path d="m225.78 451.18c0.35 44.43 0.088 88.85 0.137 133.29-11.875-0.013-23.738-0.038-35.612 0 11.85-44.42 23.525-88.9 35.475-133.29z"/>
  <path d="m606.49 533.36c20.587-1.175 40.775-7.138 58.975-16.763-5.35 20.763-10.975 41.462-16.45 62.19-18.275 4.663-37.21 6.15-56.02 5.65 4.413-17.05 9.05-34.04 13.5-51.08z"/>
  <path d="m537.74 533.56c19.8-0.087 39.587 0 59.39-0.05-4.5 17-8.987 34-13.55 50.975-19.775-0.075-39.55 0.025-59.34-0.05 4.5-16.962 9.02-33.913 13.5-50.875z"/>
 </g>
</svg>
