<?xml version="1.0" encoding="UTF-8"?>
<!-- Created with Inkscape (http://www.inkscape.org/) -->
<svg id="svg16745" width="211.67mm" height="85.064mm" version="1.1" viewBox="0 0 211.67 85.064" xmlns="http://www.w3.org/2000/svg" xmlns:cc="http://creativecommons.org/ns#" xmlns:dc="http://purl.org/dc/elements/1.1/" xmlns:rdf="http://www.w3.org/1999/02/22-rdf-syntax-ns#">
 <defs id="defs16739">
  <linearGradient id="linearGradient11894" x2="1" gradientTransform="matrix(0 -8.728 -8.728 0 329.95 253.03)" gradientUnits="userSpaceOnUse">
   <stop id="stop11888" stop-color="#4da2a2" offset="0"/>
   <stop id="stop11890" stop-color="#3aa5b0" offset=".27879"/>
   <stop id="stop11892" stop-color="#255e6b" offset="1"/>
  </linearGradient>
  <linearGradient id="linearGradient11872" x2="1" gradientTransform="matrix(0 -13.132 -13.132 0 323.48 246.75)" gradientUnits="userSpaceOnUse">
   <stop id="stop11866" stop-color="#4da2a2" offset="0"/>
   <stop id="stop11868" stop-color="#3aa5b0" offset=".27879"/>
   <stop id="stop11870" stop-color="#255e6b" offset="1"/>
  </linearGradient>
  <clipPath id="clipPath11644">
   <path id="path11642" d="m0 0h595.28v841.89h-595.28z"/>
  </clipPath>
  <clipPath id="clipPath11624">
   <path id="path11622" d="m0 0h595.28v841.89h-595.28z"/>
  </clipPath>
  <clipPath id="clipPath11592">
   <path id="path11590" d="m0 0h595.28v841.89h-595.28z"/>
  </clipPath>
  <clipPath id="clipPath11568">
   <path id="path11566" d="m0 0h595.28v841.89h-595.28z"/>
  </clipPath>
  <linearGradient id="linearGradient11530" x2="1" gradientTransform="matrix(1.1206 0 0 -1.1206 324.38 257.07)" gradientUnits="userSpaceOnUse">
   <stop id="stop11518" stop-color="#821b8f" offset="0"/>
   <stop id="stop11520" stop-color="#311650" offset=".28485"/>
   <stop id="stop11522" stop-color="#311650" offset=".38828"/>
   <stop id="stop11524" stop-color="#542791" offset=".73334"/>
   <stop id="stop11526" stop-color="#6f2d98" offset=".86061"/>
   <stop id="stop11528" stop-color="#542791" offset="1"/>
  </linearGradient>
  <clipPath id="clipPath11452">
   <path id="path11450" d="m0 0h595.28v841.89h-595.28z"/>
  </clipPath>
  <linearGradient id="linearGradient11442" x2="1" gradientTransform="matrix(0 -2.4092 -2.4092 0 320.06 249.77)" gradientUnits="userSpaceOnUse">
   <stop id="stop11438" stop-color="#4fc4ca" offset="0"/>
   <stop id="stop11440" stop-color="#255e6b" offset="1"/>
  </linearGradient>
  <clipPath id="clipPath11416">
   <path id="path11414" d="m0 0h595.28v841.89h-595.28z"/>
  </clipPath>
  <linearGradient id="linearGradient11406" x2="1" gradientTransform="matrix(0 -2.4092 -2.4092 0 325 249.77)" gradientUnits="userSpaceOnUse">
   <stop id="stop11402" stop-color="#4fc4ca" offset="0"/>
   <stop id="stop11404" stop-color="#255e6b" offset="1"/>
  </linearGradient>
  <clipPath id="clipPath11384">
   <path id="path11382" d="m0 0h595.28v841.89h-595.28z"/>
  </clipPath>
 </defs>
 <metadata id="metadata16742">
  <rdf:RDF>
   <cc:Work rdf:about="">
    <dc:format>image/svg+xml</dc:format>
    <dc:type rdf:resource="http://purl.org/dc/dcmitype/StillImage"/>
    <dc:title/>
   </cc:Work>
  </rdf:RDF>
 </metadata>
 <g id="layer1" transform="translate(27.009 -67.789)">
  <g id="g11378" transform="matrix(3.7336 0 0 -3.7336 -1191.2 1024.9)">
   <g id="g11380" clip-path="url(#clipPath11384)">
    <g id="g11386" transform="translate(319.93 247.96)">
     <path id="path11388" d="M 0,0 C 2.969,-4.292 6.557,0.872 3.102,2.403 2.353,2.23 -0.079,0.105 0,0" fill="#fff"/>
    </g>
   </g>
  </g>
  <g id="g11390" transform="matrix(3.7336 0 0 -3.7336 -1191.2 1024.9)">
   <g id="g11392">
    <g id="g11398">
     <g id="g11400">
      <path id="path11408" d="m320.59 248.56c0-0.665 0.539-1.205 1.205-1.205 0.665 0 1.204 0.54 1.204 1.205 0 0.664-0.539 1.204-1.204 1.204-0.666 0-1.205-0.54-1.205-1.204" fill="url(#linearGradient11406)"/>
     </g>
    </g>
   </g>
  </g>
  <g id="g11410" transform="matrix(3.7336 0 0 -3.7336 -1191.2 1024.9)">
   <g id="g11412" clip-path="url(#clipPath11416)">
    <g id="g11418" transform="translate(321.47 249.09)">
     <path id="path11420" d="m0 0c0.219 0 0.397-0.178 0.397-0.397 0-0.22-0.178-0.397-0.397-0.397-0.22 0-0.398 0.177-0.398 0.397 0 0.219 0.178 0.397 0.398 0.397" fill="#fff"/>
    </g>
    <g id="g11422" transform="translate(318.7 247.96)">
     <path id="path11424" d="M 0,0 C -2.969,-4.292 -6.556,0.872 -3.103,2.403 -2.354,2.23 0.079,0.105 0,0" fill="#fff"/>
    </g>
   </g>
  </g>
  <g id="g11426" transform="matrix(3.7336 0 0 -3.7336 -1191.2 1024.9)">
   <g id="g11428">
    <g id="g11434">
     <g id="g11436">
      <path id="path11444" d="m315.65 248.56c0-0.665 0.539-1.205 1.204-1.205s1.204 0.54 1.204 1.205c0 0.664-0.539 1.204-1.204 1.204s-1.204-0.54-1.204-1.204" fill="url(#linearGradient11442)"/>
     </g>
    </g>
   </g>
  </g>
  <g id="g11446" transform="matrix(3.7336 0 0 -3.7336 -1191.2 1024.9)">
   <g id="g11448" clip-path="url(#clipPath11452)">
    <g id="g11454" transform="translate(317.19 249.09)">
     <path id="path11456" d="m0 0c0.219 0 0.397-0.178 0.397-0.397 0-0.22-0.178-0.397-0.397-0.397s-0.397 0.177-0.397 0.397c0 0.219 0.178 0.397 0.397 0.397" fill="#fff"/>
    </g>
   </g>
  </g>
  <g id="g11458" transform="matrix(3.7336 0 0 -3.7336 -1191.2 1024.9)" fill="#a45bce">
   <g id="g11460" fill="#a45bce">
    <g id="g11466" fill="#a45bce">
     <g id="g11468" fill="#a45bce">
      <path id="path11484" d="m319.31 253.22-4.258 1.091v-1.294s2.119-1.369 4.258-1.369 4.283 1.369 4.283 1.369v1.294z" fill="#a45bce"/>
     </g>
    </g>
   </g>
  </g>
  <g id="g11486" transform="matrix(3.7336 0 0 -3.7336 -1191.2 1024.9)" fill="#a45bce">
   <g id="g11488" fill="#a45bce">
    <g id="g11494" fill="#a45bce">
     <g id="g11496" fill="#a45bce">
      <path id="path11504" d="m313.24 255.09 6.08-1.537 6.13 1.537-6.13 1.276z" fill="#a45bce"/>
     </g>
    </g>
   </g>
  </g>
  <g id="g11506" transform="matrix(3.7336 0 0 -3.7336 -1191.2 1024.9)">
   <g id="g11508">
    <g id="g11514">
     <g id="g11516">
      <path id="path11532" d="m324.77 255.07v-0.759l-0.392-1.208 1.12 0.088-0.373 1.12v0.759z" fill="url(#linearGradient11530)"/>
     </g>
    </g>
   </g>
  </g>
  <g id="g11534" transform="matrix(3.7336 0 0 -3.7336 -1191.2 1024.9)" fill="#a45bce">
   <g id="g11536" fill="#a45bce">
    <g id="g11542" fill="#a45bce">
     <g id="g11544" fill="#a45bce">
      <path id="path11560" d="m322.19 244.91c-0.231-2.765-3.284-2.513-3.284-2.513v-2.302h2.632v-6.452h3.238v11.267z" fill="#a45bce"/>
     </g>
    </g>
   </g>
  </g>
  <g id="g11562" transform="matrix(3.7336 0 0 -3.7336 -1191.2 1024.9)" fill="#3aa5b0">
   <g id="g11564" clip-path="url(#clipPath11568)" fill="#3aa5b0">
    <g id="g11570" transform="translate(328.91 235.08)">
     <path id="path11572" d="m0 0c0-0.466-0.124-0.833-0.373-1.1s-0.591-0.401-1.024-0.401c-0.435 0-0.777 0.136-1.025 0.406-0.247 0.271-0.371 0.635-0.371 1.095 0 0.463 0.124 0.83 0.371 1.099 0.248 0.269 0.59 0.403 1.025 0.403 0.433 0 0.775-0.134 1.024-0.401 0.249-0.269 0.373-0.635 0.373-1.101m-0.747 2e-3c0 0.171-0.018 0.318-0.053 0.438-0.036 0.121-0.083 0.22-0.143 0.298-0.061 0.078-0.132 0.135-0.21 0.169s-0.159 0.051-0.242 0.051c-0.09 0-0.17-0.016-0.243-0.047-0.072-0.032-0.142-0.088-0.209-0.17-0.059-0.074-0.107-0.174-0.144-0.298s-0.055-0.272-0.055-0.443c0-0.177 0.017-0.324 0.052-0.441 0.035-0.116 0.083-0.214 0.143-0.293 0.062-0.08 0.133-0.137 0.211-0.171 0.079-0.035 0.161-0.052 0.245-0.052 0.085 0 0.167 0.019 0.247 0.056s0.149 0.093 0.207 0.171c0.062 0.084 0.11 0.182 0.144 0.294 0.033 0.111 0.05 0.257 0.05 0.438" fill="#3aa5b0"/>
    </g>
    <g id="g11574" transform="translate(331.65 234.56)">
     <path id="path11576" d="m0 0c0-0.141-0.027-0.27-0.081-0.388-0.053-0.118-0.126-0.215-0.219-0.289-0.111-0.09-0.231-0.153-0.359-0.189-0.129-0.037-0.285-0.055-0.47-0.055h-1.185v2.882h2.095v-0.549h-1.374v-0.533h0.476c0.173 0 0.327-0.012 0.465-0.038 0.136-0.025 0.259-0.08 0.367-0.165 0.099-0.078 0.172-0.175 0.217-0.292 0.046-0.116 0.068-0.244 0.068-0.384m-0.748-0.021c0 0.047-4e-3 0.093-0.015 0.135-0.01 0.043-0.033 0.082-0.068 0.118s-0.082 0.063-0.143 0.084c-0.061 0.02-0.145 0.031-0.252 0.031h-0.367v-0.734h0.367c0.149 0 0.266 0.032 0.351 0.095s0.127 0.153 0.127 0.271" fill="#3aa5b0"/>
    </g>
    <g id="g11578" transform="translate(334.28 235.62)">
     <path id="path11580" d="m0 0c0-0.134-0.021-0.262-0.064-0.383-0.042-0.121-0.104-0.223-0.184-0.304-0.049-0.05-0.103-0.097-0.161-0.14-0.059-0.042-0.124-0.078-0.195-0.108s-0.148-0.053-0.231-0.07-0.177-0.025-0.28-0.025h-0.38v-0.943h-0.724v2.883h1.119c0.167 0 0.31-0.015 0.431-0.045s0.23-0.079 0.328-0.145c0.109-0.072 0.193-0.169 0.252-0.289 0.059-0.121 0.089-0.264 0.089-0.431m-0.743-0.017c0 0.081-0.02 0.151-0.058 0.21-0.039 0.058-0.086 0.099-0.14 0.121-0.068 0.029-0.134 0.046-0.196 0.051-0.063 5e-3 -0.148 7e-3 -0.255 7e-3h-0.103v-0.864h0.051c0.068 0 0.133 1e-3 0.193 2e-3 0.061 2e-3 0.114 6e-3 0.159 0.014 0.039 6e-3 0.08 0.019 0.123 0.037 0.043 0.019 0.076 0.04 0.1 0.063 0.049 0.048 0.082 0.098 0.099 0.149 0.018 0.052 0.027 0.122 0.027 0.21" fill="#3aa5b0"/>
    </g>
   </g>
  </g>
  <g id="g11582" transform="matrix(3.7336 0 0 -3.7336 56.575 152.63)" fill="#3aa5b0">
   <path id="path11584" d="m0 0 0.974 2.883h0.79l0.973-2.883h-0.745l-0.18 0.588h-0.906l-0.18-0.588zm1.653 1.111-0.294 0.951-0.294-0.951z" fill="#3aa5b0"/>
  </g>
  <g id="g11586" transform="matrix(3.7336 0 0 -3.7336 -1191.2 1024.9)" fill="#3aa5b0">
   <g id="g11588" clip-path="url(#clipPath11592)" fill="#3aa5b0">
    <g id="g11594" transform="translate(339.33 235.01)">
     <path id="path11596" d="m0 0c0.064-0.055 0.115-0.124 0.154-0.206s0.059-0.182 0.059-0.299c0-0.288-0.111-0.513-0.332-0.674-0.222-0.161-0.54-0.242-0.954-0.242-0.189 0-0.368 0.017-0.539 0.05-0.171 0.034-0.327 0.08-0.47 0.138v0.645h0.066c0.097-0.067 0.224-0.133 0.382-0.197s0.313-0.096 0.464-0.096c0.195 0 0.35 0.035 0.465 0.105s0.172 0.177 0.172 0.321c0 0.125-0.042 0.218-0.126 0.278-0.083 0.06-0.235 0.09-0.452 0.09h-0.415v0.515h0.395c0.181 0 0.313 0.028 0.397 0.082 0.084 0.055 0.126 0.137 0.126 0.247 0 0.097-0.046 0.167-0.139 0.211-0.092 0.044-0.215 0.066-0.368 0.066-0.087 0-0.169-9e-3 -0.247-0.027s-0.155-0.041-0.23-0.068c-0.069-0.026-0.134-0.054-0.192-0.085-0.06-0.031-0.104-0.054-0.135-0.07h-0.068v0.6c0.084 0.035 0.221 0.076 0.412 0.121 0.19 0.046 0.389 0.069 0.598 0.069 0.372 0 0.651-0.061 0.835-0.185 0.185-0.123 0.277-0.294 0.277-0.514 0-0.164-0.051-0.305-0.152-0.424-0.101-0.118-0.232-0.198-0.392-0.238v-0.029c0.059-0.01 0.129-0.032 0.207-0.064 0.079-0.032 0.146-0.072 0.202-0.12" fill="#3aa5b0"/>
    </g>
    <g id="g11598" transform="translate(342.61 235.08)">
     <path id="path11600" d="m0 0c0-0.466-0.125-0.833-0.374-1.1s-0.59-0.401-1.023-0.401c-0.436 0-0.777 0.136-1.025 0.406-0.248 0.271-0.372 0.635-0.372 1.095 0 0.463 0.124 0.83 0.372 1.099s0.589 0.403 1.025 0.403c0.433 0 0.774-0.134 1.023-0.401 0.249-0.269 0.374-0.635 0.374-1.101m-0.747 2e-3c0 0.171-0.019 0.318-0.054 0.438-0.035 0.121-0.083 0.22-0.142 0.298-0.062 0.078-0.132 0.135-0.21 0.169-0.079 0.034-0.16 0.051-0.243 0.051-0.089 0-0.169-0.016-0.242-0.047-0.072-0.032-0.142-0.088-0.209-0.17-0.059-0.074-0.108-0.174-0.144-0.298-0.037-0.124-0.056-0.272-0.056-0.443 0-0.177 0.018-0.324 0.053-0.441 0.035-0.116 0.083-0.214 0.143-0.293 0.062-0.08 0.132-0.137 0.211-0.171 0.078-0.035 0.16-0.052 0.244-0.052 0.085 0 0.167 0.019 0.248 0.056 0.08 0.037 0.149 0.093 0.207 0.171 0.062 0.084 0.11 0.182 0.143 0.294 0.033 0.111 0.051 0.257 0.051 0.438" fill="#3aa5b0"/>
    </g>
    <g id="g11602" transform="translate(345.34 234.53)">
     <path id="path11604" d="m0 0c0-0.143-0.027-0.269-0.081-0.378-0.055-0.108-0.127-0.198-0.219-0.268-0.108-0.086-0.227-0.146-0.357-0.183-0.13-0.036-0.295-0.054-0.494-0.054h-1.155v2.883h1.019c0.212 0 0.372-8e-3 0.48-0.025 0.11-0.016 0.212-0.049 0.308-0.101 0.103-0.055 0.18-0.13 0.231-0.223 0.051-0.092 0.077-0.2 0.077-0.321 0-0.141-0.036-0.266-0.106-0.375-0.07-0.11-0.168-0.191-0.292-0.243v-0.015c0.179-0.037 0.321-0.114 0.429-0.229 0.106-0.116 0.16-0.272 0.16-0.468m-0.928 1.185c0 0.046-0.011 0.094-0.035 0.143s-0.062 0.085-0.111 0.107c-0.048 0.02-0.105 0.031-0.17 0.033s-0.162 3e-3 -0.291 3e-3h-0.051v-0.61h0.092c0.124 0 0.21 2e-3 0.26 4e-3 0.049 3e-3 0.101 0.016 0.154 0.041 0.058 0.027 0.098 0.065 0.12 0.112 0.021 0.048 0.032 0.104 0.032 0.167m0.183-1.171c0 0.089-0.019 0.158-0.055 0.209-0.036 0.05-0.09 0.088-0.162 0.114-0.044 0.017-0.104 0.026-0.182 0.028-0.076 2e-3 -0.179 3e-3 -0.308 3e-3h-0.134v-0.722h0.039c0.189 0 0.318 1e-3 0.392 3e-3 0.072 3e-3 0.145 0.02 0.22 0.053 0.066 0.028 0.114 0.07 0.144 0.125s0.046 0.117 0.046 0.187" fill="#3aa5b0"/>
    </g>
   </g>
  </g>
  <g id="g11606" transform="matrix(3.7336 0 0 -3.7336 98.563 152.63)" fill="#3aa5b0">
   <path id="path11608" d="m0 0 0.974 2.883h0.79l0.973-2.883h-0.745l-0.179 0.588h-0.907l-0.18-0.588zm1.653 1.111-0.294 0.951-0.295-0.951z" fill="#3aa5b0"/>
  </g>
  <g id="g11610" transform="matrix(3.7336 0 0 -3.7336 111.33 152.63)" fill="#3aa5b0">
   <path id="path11612" d="m0 0v2.333h-0.852v0.55h2.428v-0.55h-0.851v-2.333z" fill="#3aa5b0"/>
  </g>
  <g id="g11614" transform="matrix(3.7336 0 0 -3.7336 118.62 152.63)" fill="#3aa5b0">
   <path id="path11616" d="m0 0v2.883h1.949v-0.55h-1.229v-0.505h1.133v-0.55h-1.133v-0.728h1.229v-0.55z" fill="#3aa5b0"/>
  </g>
  <g id="g11618" transform="matrix(3.7336 0 0 -3.7336 -1191.2 1024.9)" fill="#3aa5b0">
   <g id="g11620" clip-path="url(#clipPath11624)" fill="#3aa5b0">
    <g id="g11626" transform="translate(355.9 233.64)">
     <path id="path11628" d="m0 0h-0.725v2.333h-0.727c-6e-3 -0.112-0.011-0.217-0.015-0.315-5e-3 -0.097-0.01-0.19-0.015-0.277-0.014-0.252-0.037-0.469-0.069-0.652s-0.069-0.332-0.11-0.448c-0.046-0.124-0.092-0.221-0.138-0.292-0.047-0.072-0.091-0.128-0.132-0.169-0.061-0.062-0.139-0.111-0.232-0.146s-0.185-0.054-0.275-0.054c-0.061 0-0.128 3e-3 -0.2 8e-3 -0.072 6e-3 -0.117 0.01-0.136 0.012v0.637h0.026c0.014-1e-3 0.025-3e-3 0.038-4e-3s0.028-2e-3 0.048-2e-3c0.032 0 0.073 5e-3 0.123 0.016 0.051 0.01 0.089 0.027 0.114 0.052 0.094 0.088 0.157 0.223 0.192 0.408 0.034 0.184 0.06 0.449 0.078 0.796 7e-3 0.159 0.012 0.302 0.014 0.428 2e-3 0.127 7e-3 0.311 0.015 0.552h2.126z" fill="#3aa5b0"/>
    </g>
    <g id="g11630" transform="translate(358.79 234.56)">
     <path id="path11632" d="m0 0c0-0.141-0.027-0.27-0.081-0.388s-0.127-0.215-0.22-0.289c-0.11-0.09-0.23-0.153-0.359-0.189-0.128-0.037-0.284-0.055-0.469-0.055h-1.172v2.882h0.723v-1.082h0.461c0.169 0 0.321-0.012 0.458-0.036 0.138-0.024 0.262-0.079 0.374-0.167 0.099-0.078 0.172-0.175 0.217-0.292 0.045-0.116 0.068-0.244 0.068-0.384m-0.748-0.021c0 0.047-5e-3 0.093-0.016 0.135-9e-3 0.043-0.032 0.082-0.067 0.118s-0.083 0.063-0.144 0.084c-0.06 0.02-0.144 0.031-0.251 0.031h-0.352v-0.734h0.352c0.147 0 0.263 0.032 0.349 0.094 0.086 0.063 0.129 0.153 0.129 0.272" fill="#3aa5b0"/>
    </g>
   </g>
  </g>
  <g id="g11634" transform="matrix(3.7336 0 0 -3.7336 158.85 152.63)" fill="#3aa5b0">
   <path id="path11636" d="m0 0h-0.725v1.278h-0.985v-1.278h-0.724v2.883h0.724v-1.055h0.985v1.055h0.725z" fill="#3aa5b0"/>
  </g>
  <g id="g11638" transform="matrix(3.7336 0 0 -3.7336 -1191.2 1024.9)" fill="#3aa5b0">
   <g id="g11640" clip-path="url(#clipPath11644)" fill="#3aa5b0">
    <g id="g11646" transform="translate(364.46 234.56)" fill="#3aa5b0">
     <path id="path11648" d="m0 0c0-0.141-0.027-0.27-0.081-0.388-0.053-0.118-0.126-0.215-0.22-0.289-0.11-0.09-0.23-0.153-0.358-0.189-0.129-0.037-0.285-0.055-0.47-0.055h-1.144v2.882h0.722v-1.082h0.434c0.169 0 0.322-0.012 0.459-0.036 0.136-0.024 0.26-0.079 0.373-0.167 0.099-0.078 0.172-0.175 0.217-0.292 0.045-0.116 0.068-0.244 0.068-0.384m-0.748-0.021c0 0.047-5e-3 0.093-0.015 0.135-0.01 0.043-0.033 0.082-0.068 0.118-0.034 0.037-0.082 0.065-0.144 0.085-0.06 0.02-0.144 0.03-0.251 0.03h-0.325v-0.734h0.325c0.147 0 0.264 0.032 0.35 0.094 0.086 0.063 0.128 0.153 0.128 0.272m1.686-0.9h-0.724v2.883h0.724z" fill="#3aa5b0"/>
    </g>
   </g>
  </g>
  <g id="g11650" transform="matrix(3.7336 0 0 -3.7336 184.58 152.63)" fill="#3aa5b0">
   <path id="path11652" d="m0 0h-0.712v1.899l-1.107-1.899h-0.67v2.883h0.712v-1.717l1.024 1.717h0.753z" fill="#3aa5b0"/>
  </g>
  <g id="g11654" transform="matrix(3.7336 0 0 -3.7336 178.97 141.86)" fill="#3aa5b0">
   <path id="path11656" d="m0 0v-0.829l0.436 0.829z" fill="#3aa5b0"/>
  </g>
  <g id="g11658" transform="matrix(3.7336 0 0 -3.7336 -1191.2 1024.9)" fill="#a45bce">
   <g id="g11660" fill="#a45bce">
    <g id="g11666" fill="#a45bce">
     <g id="g11668" fill="#a45bce">
      <path id="path11684" d="m326.11 244.91v-7.15h1.796v5.786h2.444v-5.786h1.796v7.15z" fill="#a45bce"/>
     </g>
    </g>
   </g>
  </g>
  <g id="g11686" transform="matrix(3.7336 0 0 -3.7336 -1191.2 1024.9)" fill="#a45bce">
   <g id="g11688" fill="#a45bce">
    <g id="g11694" fill="#a45bce">
     <g id="g11696" fill="#a45bce">
      <path id="path11712" d="m333.62 244.91v-7.15h4.836v1.364h-3.05v1.805h2.81v1.364h-2.81v1.253h3.05v1.364z" fill="#a45bce"/>
     </g>
    </g>
   </g>
  </g>
  <g id="g11714" transform="matrix(3.7336 0 0 -3.7336 -1191.2 1024.9)" fill="#a45bce">
   <g id="g11716" fill="#a45bce">
    <g id="g11722" fill="#a45bce">
     <g id="g11724" fill="#a45bce">
      <path id="path11740" d="m339.7 244.91v-7.15h1.796v2.338h0.94c0.257 0 0.489 0.021 0.695 0.063s0.398 0.099 0.574 0.173c0.175 0.073 0.337 0.163 0.482 0.268 0.146 0.107 0.279 0.222 0.401 0.347 0.199 0.201 0.35 0.452 0.457 0.754 0.105 0.301 0.158 0.617 0.158 0.95 0 0.414-0.074 0.769-0.221 1.069-0.147 0.299-0.355 0.538-0.625 0.717-0.242 0.164-0.514 0.283-0.813 0.358-0.3 0.076-0.655 0.113-1.068 0.113zm1.796-1.335h0.254c0.266 0 0.476-5e-3 0.632-0.016 0.155-0.012 0.317-0.054 0.487-0.128 0.135-0.055 0.25-0.154 0.345-0.3 0.098-0.146 0.145-0.319 0.145-0.521 0-0.218-0.022-0.39-0.065-0.519-0.044-0.128-0.125-0.251-0.247-0.369-0.057-0.058-0.141-0.11-0.247-0.157-0.108-0.046-0.209-0.077-0.306-0.093-0.111-0.019-0.243-0.031-0.394-0.034-0.15-3e-3 -0.31-4e-3 -0.479-4e-3h-0.125z" fill="#a45bce"/>
     </g>
    </g>
   </g>
  </g>
  <g id="g11742" transform="matrix(3.7336 0 0 -3.7336 -1191.2 1024.9)" fill="#a45bce">
   <g id="g11744" fill="#a45bce">
    <g id="g11750" fill="#a45bce">
     <g id="g11752" fill="#a45bce">
      <path id="path11768" d="m346.07 244.91v-7.15h2.861c0.497 0 0.905 0.044 1.227 0.134s0.618 0.24 0.886 0.452c0.228 0.175 0.408 0.399 0.543 0.667 0.134 0.269 0.201 0.581 0.201 0.937 0 0.486-0.133 0.873-0.398 1.159-0.266 0.287-0.62 0.476-1.062 0.57v0.037c0.307 0.128 0.549 0.329 0.724 0.602 0.174 0.271 0.26 0.582 0.26 0.93 0 0.302-0.062 0.567-0.189 0.798-0.126 0.23-0.318 0.415-0.573 0.552-0.238 0.128-0.492 0.212-0.762 0.252s-0.668 0.06-1.193 0.06zm1.785-1.311h0.125c0.321 0 0.561-2e-3 0.723-7e-3 0.162-4e-3 0.302-0.033 0.42-0.084 0.125-0.055 0.216-0.143 0.277-0.264 0.059-0.122 0.088-0.24 0.088-0.356 0-0.156-0.027-0.294-0.082-0.413-0.053-0.118-0.153-0.211-0.298-0.278-0.13-0.061-0.257-0.094-0.381-0.101-0.124-6e-3 -0.338-9e-3 -0.646-9e-3h-0.226zm0-2.737h0.332c0.32 0 0.575-2e-3 0.766-7e-3 0.19-5e-3 0.34-0.029 0.448-0.07 0.18-0.064 0.315-0.158 0.405-0.283 0.089-0.125 0.134-0.297 0.134-0.519 0-0.173-0.038-0.328-0.113-0.463-0.075-0.136-0.194-0.239-0.358-0.31-0.185-0.08-0.368-0.123-0.547-0.13-0.18-6e-3 -0.503-9e-3 -0.97-9e-3h-0.097z" fill="#a45bce"/>
     </g>
    </g>
   </g>
  </g>
  <g id="g11770" transform="matrix(3.7336 0 0 -3.7336 -1191.2 1024.9)" fill="#a45bce">
   <g id="g11772" fill="#a45bce">
    <g id="g11778" fill="#a45bce">
     <g id="g11780" fill="#a45bce">
      <path id="path11796" d="m359.05 237.76h1.795v7.15h-1.795zm-6.171 7.15v-7.15h2.837c0.459 0 0.847 0.046 1.166 0.137 0.318 0.091 0.615 0.247 0.89 0.468 0.231 0.185 0.412 0.425 0.546 0.718 0.132 0.293 0.198 0.614 0.198 0.963 0 0.346-0.055 0.663-0.167 0.953-0.113 0.289-0.292 0.53-0.538 0.723-0.279 0.218-0.587 0.355-0.927 0.415-0.34 0.059-0.719 0.089-1.138 0.089h-1.076v2.684zm1.791-4.004h0.806c0.267 0 0.475-0.026 0.626-0.075 0.15-0.05 0.268-0.12 0.355-0.209 0.086-0.09 0.142-0.187 0.168-0.293s0.038-0.218 0.038-0.336c0-0.295-0.107-0.519-0.319-0.675-0.214-0.155-0.502-0.232-0.868-0.232h-0.806z" fill="#a45bce"/>
     </g>
    </g>
   </g>
  </g>
  <g id="g11798" transform="matrix(3.7336 0 0 -3.7336 -1191.2 1024.9)" fill="#a45bce">
   <g id="g11800" fill="#a45bce">
    <g id="g11806" fill="#a45bce">
     <g id="g11808" fill="#a45bce">
      <path id="path11824" d="m366.64 244.91-2.54-4.259v4.259h-1.767v-7.15h1.662l2.746 4.711v-4.711h1.767v7.15z" fill="#a45bce"/>
     </g>
    </g>
   </g>
  </g>
  <g id="g11826" transform="matrix(3.7336 0 0 -3.7336 -1191.2 1024.9)" fill="#a45bce">
   <g id="g11828" fill="#a45bce">
    <g id="g11834" fill="#a45bce">
     <g id="g11836" fill="#a45bce">
      <path id="path11852" d="m364.62 244.92v-2.448l1.494 2.448z" fill="#a45bce"/>
     </g>
    </g>
   </g>
  </g>
  <g id="g11854" transform="matrix(3.7336 0 0 -3.7336 -1191.2 1024.9)">
   <g id="g11856">
    <g id="g11862">
     <g id="g11864">
      <path id="path11874" d="m321.48 233.65c-6.486 2.573-5.172 11.267-5.172 11.267s-1.753-0.352-3.047 1.833c-1.914-14.44 6.744-13.1 8.219-13.1" fill="url(#linearGradient11872)"/>
     </g>
    </g>
   </g>
  </g>
  <g id="g11876" transform="matrix(3.7336 0 0 -3.7336 -1191.2 1024.9)">
   <g id="g11878">
    <g id="g11884">
     <g id="g11886">
      <path id="path11896" d="m323.66 252.71c-2.373-1.313-4.33-1.341-4.33-1.341s-1.957 0.028-4.329 1.341c-0.257 0.135-3.102 0.351-3.192 0.308 0.202-0.217 1.204-0.783 2.796-1.957-3.891-3.271 0.894-7.441 3.299-5.283 0.559-0.616 1.426-1.482 1.426-1.482s0.866 0.866 1.426 1.482c2.404-2.158 7.189 2.012 3.299 5.283 1.592 1.174 2.594 1.74 2.796 1.957-8e-3 4e-3 -0.036 6e-3 -0.082 6e-3 -0.482 0-2.875-0.191-3.109-0.314m-3.731-4.749c-0.079 0.105 2.354 2.23 3.102 2.403 2.481-1.099 1.33-4.072-0.615-4.072-0.763 0-1.65 0.458-2.487 1.669m-4.33 2.403c0.749-0.173 3.181-2.298 3.102-2.403-0.837-1.21-1.723-1.669-2.486-1.669-1.945 0-3.095 2.973-0.616 4.072" fill="url(#linearGradient11894)"/>
     </g>
    </g>
   </g>
  </g>
 </g>
</svg>
