<svg version="1.1" viewBox="0 0 608 179.5" xml:space="preserve" xmlns="http://www.w3.org/2000/svg">
<g transform="translate(-117.6,-208.3)">
		<path d="m202.2 269.1s-0.4 4.1-5.3 4.5c-0.1-0.1 1.2-6.8 5.3-4.5" fill="#89b940"/>
		<path d="m196.4 273.5s5.4-2 8.9 4.1c0 0-3.3 3.5-8.8-4" fill="#89b940"/>
		<path d="m197.3 274.9s2.1 0.9 1.5 3.6c-0.1 0-2 0.1-1.5-3.6" fill="#89b940"/>
		<polygon points="117.6 218.6 117.6 387.8 182 377.7 182 359.1 154.5 358.5 154.5 277.4 142.8 285.4 126.8 271.4 158.9 237.6 182 236.9 182 208.3" fill="#89b940"/>
		<path d="m200.1 332.1v-25.1c-18.7 0.1-18.3 25.1 0 25.1" fill="#8f1f62"/>
		<path d="m186.2 218.6v18.2c23.3 0 40.4 14 39.8 37.3-0.2 5.5-3.8 15.4-12.6 19.9 16.8 8.5 18.8 24.2 17.3 33.5-3.1 19.7-16.4 31.6-43.6 31.6h-0.9v28.6l64.4-10.3v-169.1z" fill="#8f1f62"/>
		<path d="m186.2 263v21.8c15 0 15.6-21.8 0-21.8" fill="#8f1f62"/>
		<path d="m187.2 331.4s1.4-0.7 1-3.4c-0.4-2.8-1.3-3.7-1.5-4s-1.6-1.2-2.2-3.3c-0.7-2.1-1.1-2.9-4.1-2.8-2.9 0.1-3.7 0.2-3.7 0.2l1.1-2.1s4.7-0.3 6.1 0 3.2-2.1 3.5-2.5c0.4-0.4 1.7-4.2 6.3-4.7 0 0 1.5 0 2.2-1.7 0 0 1.2-0.7 0.3 1.7 0 0-0.3 0.5-2 1.4-1.7 0.8-1.1 1.3-3.1 2.1-1.9 0.8-4.5 4.7-3.2 4.6s4.6 0.5 5.4 1.1 3 1.1 3 1.1 1.6 0.8 0.4 0.8c-1.3 0-4.1-0.2-5.6 0.2-1.5 0.5-1.3 0.7-2.7 0.6-1.4 0-2-0.8-1.7 0.4s0.4 1.6 1.2 2.3c0.7 0.6 0.8 2 1.2 2.7 0.4 0.8 0.2 1.2 0.1 2.6-0.2 1.5 0 1.6-1.9 3 0.1 0-0.5-0.1-0.1-0.3" fill="#89b940"/>
		<polygon points="272.6 253.2 302.1 253.2 302.1 290.6 292.6 290.6 292.6 262.2 282.1 262.2 282.1 290.6 272.6 290.6" fill="#89b940"/>
		<polygon points="332.7 276.1 317.5 276.1 317.5 281.7 334 281.7 334 290.6 308 290.6 308 253.2 334 253.2 334 262.1 317.5 262.1 317.5 267.9 332.7 267.9" fill="#89b940"/>
		<path d="m339 253.2h15c9.1 0 13.7 6.6 13.7 13.2 0 6.7-4.6 13.3-13.6 13.3h-5.5v10.9h-9.6zm15 18.1c5.7 0.1 5.7-9.3 0-9.2h-5.5v9.2z" fill="#89b940"/>
		<path d="m395 270.7c5.1 2.6 5.8 7.4 5.3 10.2-0.9 6-5 9.7-13.3 9.7h-15.3v-37.4h15c7.1 0 12.4 4.3 12.1 11.4 0 1.7-1.1 4.7-3.8 6.1m-8.3-2.8c4.6 0 4.8-6.7 0-6.7h-5.5v6.7zm0 14.4c5.7 0 5.6-7.7 0-7.7h-5.5v7.7z" fill="#89b940"/>
		<path d="m420.1 290.6h-15.4v-37.4h9.5v12.8h5.6c10.1 0 13.5 4.7 13.5 11.8 0 7.3-4.9 12.8-13.2 12.8m-0.3-8.3c3.2 0 4.2-2.3 4.2-4.6 0-2.7-1.6-4.2-4.2-4.2h-5.6v8.9h5.6zm27.3 8.3h-9.5v-37.4h9.5z" fill="#89b940"/>
		<path d="m473.8 275.7c0.1 0 1-7 1-7l-0.3-0.1-3.5 7.3-9 14.7h-8.9v-37.4h9.5v17c-0.1 0-0.8 5.6-0.8 5.6l0.2 0.1 3.1-6.7 9.6-15.9h8.7v37.4h-9.5v-15zm-15.4-34.7h7.3c0 1.3 1 2.2 2.2 2.2 1.3 0 2.2-0.8 2.2-2.2h7.3c0 6.1-4.6 9.2-9.6 9.2-4.8 0-9.4-3.1-9.4-9.2" fill="#89b940"/>
		<path d="m295.8 316.3c5.1 2.6 5.8 7.4 5.3 10.2-0.9 6-5 9.7-13.3 9.7h-15.3v-37.4h15c7.1 0 12.4 4.3 12.1 11.4 0 1.7-1.1 4.8-3.8 6.1m-8.3-2.8c4.6 0 4.8-6.7 0-6.7h-5.5v6.7zm0 14.4c5.7 0 5.6-7.7 0-7.7h-5.5v7.7z" fill="#8f1f62"/>
		<polygon points="330.3 321.7 315.2 321.7 315.2 327.3 331.6 327.3 331.6 336.2 305.6 336.2 305.6 298.8 331.6 298.8 331.6 307.7 315.2 307.7 315.2 313.5 330.3 313.5" fill="#8f1f62"/>
		<polygon points="346.2 307.8 346.2 336.2 336.7 336.2 336.7 298.8 360 298.8 360 307.8" fill="#8f1f62"/>
		<polygon points="388.4 321.7 373.2 321.7 373.2 327.3 389.7 327.3 389.7 336.2 363.7 336.2 363.7 298.8 389.7 298.8 389.7 307.7 373.2 307.7 373.2 313.5 388.4 313.5" fill="#8f1f62"/>
		<polygon points="402.4 336.2 402.4 307.8 392.5 307.8 392.5 298.8 421.9 298.8 421.9 307.8 412 307.8 412 336.2" fill="#8f1f62"/>
		<path d="m453.3 336.2h-10.1l-2.4-7.5h-10l-2.3 7.5h-10.1l13-37.4h8.6zm-14.8-15.9-2.6-10.9h-0.3l-2.7 10.9z" fill="#8f1f62"/>
		<path d="m455.8 298.8h14.9c9.1 0 13.7 6.6 13.7 13.2 0 6.7-4.6 13.3-13.6 13.3h-5.5v10.9h-9.5zm15 18.1c5.7 0.1 5.7-9.3 0-9.2h-5.5v9.2z" fill="#8f1f62"/>
		<path d="m509.2 321.3c0.1 0 1-7 1-7l-0.3-0.1-3.5 7.3-9 14.7h-8.9v-37.4h9.5v17l-0.8 5.6 0.2 0.1 3.1-6.7 9.6-15.9h8.7v37.4h-9.5v-15z" fill="#8f1f62"/>
		<path d="m556.4 336.2h-10.1l-2.4-7.5h-10l-2.3 7.5h-10.1l13-37.4h8.6zm-14.9-15.9-2.6-10.9h-0.3l-2.7 10.9z" fill="#8f1f62"/>
		<polygon points="558.9 298.8 568.4 298.8 568.4 313 579.1 313 579.1 298.8 588.6 298.8 588.6 336.2 579.1 336.2 579.1 322.1 568.4 322.1 568.4 336.2 558.9 336.2" fill="#8f1f62"/>
		<path d="m621.9 328.4c-3.1 6.1-8.8 8.4-13.5 8.4-7.3 0-14.7-4.3-14.7-12.8v-12.9c0-8.4 7.4-12.8 14.9-12.8 4.6 0 10.1 2 13.1 8.6l-7.7 3.1c-2.5-4.6-10.9-3.6-10.9 1.1v12.9c0 4.5 8.5 5.8 10.5 0.6z" fill="#8f1f62"/>
		<polygon points="641.9 317.2 656.7 336.2 644.8 336.2 635.1 322.9 634.8 323.3 634.8 336.2 625.3 336.2 625.3 298.8 634.8 298.8 634.8 312.7 644.9 298.8 656.7 298.8" fill="#8f1f62"/>
		<path d="m679.8 321.3c0.1 0 1-7 1-7l-0.3-0.1-3.5 7.3-9 14.7h-8.9v-37.4h9.5v17c-0.1 0-0.8 5.6-0.8 5.6l0.2 0.1 3.1-6.7 9.6-15.9h8.7v37.4h-9.5v-15z" fill="#8f1f62"/>
		<path d="m716 321.3c0.1 0 1-7 1-7l-0.3-0.1-3.5 7.3-9 14.7h-8.9v-37.4h9.5v17c-0.1 0-0.8 5.6-0.8 5.6l0.2 0.1 3.1-6.7 9.6-15.9h8.7v37.4h-9.6zm-15.4-34.7h7.3c0 1.3 1 2.2 2.2 2.2 1.3 0 2.2-0.8 2.2-2.2h7.3c0 6.1-4.6 9.2-9.6 9.2-4.7 0-9.4-3.1-9.4-9.2" fill="#8f1f62"/>
</g>
</svg>
