<?xml version="1.0" encoding="UTF-8"?>
<!-- Generator: Adobe Illustrator 16.0.0, SVG Export Plug-In . SVG Version: 6.00 Build 0)  -->
<svg id="_x31_" width="684.17" height="800" enable-background="new 0 0 841.89 595.275" version="1.1" viewBox="0 0 684.17 800" xml:space="preserve" xmlns="http://www.w3.org/2000/svg" xmlns:cc="http://creativecommons.org/ns#" xmlns:dc="http://purl.org/dc/elements/1.1/" xmlns:rdf="http://www.w3.org/1999/02/22-rdf-syntax-ns#"><metadata id="metadata9"><rdf:RDF><cc:Work rdf:about=""><dc:format>image/svg+xml</dc:format><dc:type rdf:resource="http://purl.org/dc/dcmitype/StillImage"/><dc:title/></cc:Work></rdf:RDF></metadata><path id="path2" d="m219.25 17.613-4.7775 2.0255c-5.0773 1.5056-10.796 4.3319-15.393 5.9793-3.6365 1.3017-6.3102 3.2786-9.7724 4.5345-5.2299 1.8972-10.363 5.2609-14.551 7.2014l-18.15 10.565-16.932 11.766c-0.79535 0.51178-1.4962 0.96145-2.143 1.5408l-32.597 28.056c-1.2302 1.2126-2.7236 2.1457-3.8809 3.5163-3.176 3.7661-7.6929 7.8009-10.431 10.884-1.4786 1.665-4.8329 6.6518-6.5195 7.1312-0.71298 1.8905-2.4401 3.7756-3.7283 5.1759l-11.15 14.264c-4.4953 6.0212-9.3916 13.794-13.456 20.15l-6.379 10.845c-3.6581 5.662-13.505 27.303-16.21 34.235l-6.1859 16.332c-1.1289 3.0423-4.706 15.944-5.5756 16.798 0.14449 1.0317-2.5427 11.872-3.0923 13.914-1.8122 6.7355-4.2644 22.697-4.8491 29.529-0.14449 1.6947-1.4921 14.655-1.6353 14.893-0.0554 0.98575 0.19445 5.3501-0.38485 5.1975 0.15799 4.9828-0.38215 7.4147-0.40375 12.295-0.0216 4.2306 0.0256 8.4667 0.0229 12.708-5e-3 8.6557 0.82371 16.214 1.4098 24.553-0.18499 2.1511 0.34974 1.9918 0.49423 4.1145 0.12018 1.7811 0.24711 3.5676 0.24981 5.3528 0.84802 1.8567 2.0957 12.807 2.3456 16.008 0.41591 5.3068 6.7733 28.413 8.649 34.338 3.1612 9.9858 9.3066 26.298 13.732 35.397 1.2909 2.6561 2.6926 5.5013 4.02 8.3384l6.4263 11.999c15.187 25.216 21.731 34.466 41.384 57.402l15 15.741c8.2641 8.1831 17.229 15.632 26.245 22.952 2.0444 1.6596 4.8167 3.5284 7.0231 5.269 8.2857 6.533 12.153 9.2066 21.606 15.289l15.101 9.1661c1.9702 0.57254 1.8837 1.1235 3.3435 1.8567 0.51583 0.25927 1.1208 0.42401 1.7379 0.71163 0.0284 0.0135 0.83046 0.42941 0.83316 0.43211 0.92499 0.64142 0.39835 0.15799 1.0128 0.96685 1.6366 0.13368 8.4869 4.0024 10.598 5.0543 13.659 6.8152 42.576 17.858 57.057 21.175 4.3562 0.99791 8.2236 2.1322 12.419 3.1585l6.4384 1.3625c2.513 0.55769 4.0605 0.81695 6.506 1.38 8.0818 1.8567 19.221 2.9694 27.793 3.7512 9.158 0.83452 34.569 1.9783 45.15 0.64142 4.2495-0.53744 10.599-0.21201 15.116-0.63466 4.9004-0.45777 9.7481-0.66842 14.441-1.0452 12.736-1.0236 29.482-3.3205 41.504-5.7066 15.32-3.0396 35.422-7.3 50.021-12.7 3.8782-1.4354 7.6848-2.3955 11.648-3.9295 13.695-5.2974 30.217-12.203 42.799-19.892 10.847-6.6275 18.114-10.246 28.924-18.219l6.9003-4.9747c3.9403-2.6629 2.0836-1.7244 4.313-3.5068l6.4344-4.8153c0.92094-1.272 1.9999-1.7676 3.7891-3.8053l3.6-4.6371-0.31598-1e-3c0.30382-1.4881 0.8075-2.9748 1.056-4.6074 0.31598-2.0728-0.25522-3.623 0.13773-5.1192l-1.7095-3.3354c-4.9044-9.79-15.464-10.81-24.786-6.7301-4.8802 2.1362-1.6852 1.0236-4.6533 2.6993-4.8653 2.748-13.656 11.012-16.551 12.01-0.66302 1.2734-6.7288 4.3886-8.3208 5.7282-3.4663 2.9154-5.0219 3.311-8.5072 5.4459-6.2615 3.835-11.917 6.5627-18.632 9.6698-1.7487 0.80885-3.1301 1.692-4.9382 2.4671-8.1871 3.5095-16.251 7.2608-24.875 9.8467-3.5946 1.0789-6.8638 2.5238-10.489 3.4785-3.5487 0.93444-7.4836 2.1632-11.219 3.1625l-16.597 4.2603c-1.0114 0.16204-2.2038 0.30922-3.23 0.54013l-26.413 5.053c-5.5918 0.94659-33.451 4.3643-37.716 4.0105-0.88987 0.82911-6.3952 0.57525-10.433 1.1262-4.2158 0.5766-39.06 0.92499-45.249 0.84802-10.117-0.12424-22.414-0.72784-32.221-2.3145-7.624-1.2342-25.805-4.9517-32.614-7.5592-1.3409-0.51448-2.8749-0.91283-4.3846-1.3787-5.9631-1.8405-10.869-4.0672-16.644-6.2899l-15.467-7.1717c-0.081-0.0635-0.1904-0.18905-0.25251-0.24442-0.0648-0.0554-0.1742-0.16204-0.24306-0.25791-2.0107 0.0351-35.257-19.635-35.101-21.822-1.9999-0.50503-5.7241-3.8863-7.5835-5.3217-0.86963-0.67112-1.1289-0.96009-1.7595-1.5043l-1.6231-1.2423c-1.4638-1.0978-1.8459-1.4786-3.095-2.6642-3.569-3.3826-10.664-8.2898-12.287-12.154-2.1781-0.34704-17.264-17.658-18.989-19.692l-12.909-16.191c-1.1856-1.6501-3.5176-4.5358-3.4866-5.5877-1.9715-1.0317-4.3684-5.3771-5.8051-7.6794-1.1829-1.8959-4.2954-5.7835-4.9234-8.1183-0.88853-0.57525-5.1691-7.9846-6.0968-9.5307l-11.969-23.753c-0.34298-0.7832-0.87637-1.692-1.2207-2.4077-0.87502-1.8203-1.5097-3.496-2.4063-5.4108-3.0666-6.5505-15.977-41.605-15.713-46.727-0.9682-1.4071-3.2584-12.208-3.3448-13.395-1.2585-2.7817-4.2239-26.187-4.5736-29.398-1.1532-10.62-1.8108-21.019-1.7757-32.5 0.0324-10.812 1.0789-21.738 2.382-31.884 0.3754-2.9208 4.1901-24.854 5.5877-27.966 0.64816-3.2557 1.7906-6.5168 2.8357-9.9642 0.94929-3.1314 1.877-5.7592 3.0207-8.8528 1.11-3.0018 5.4608-15.213 6.8557-16.627 0.34703-1.9823 0.56984-2.1943 1.2963-3.5122 0.53068-0.9601 1.0384-1.8621 1.588-2.906 0.93579-1.773 1.8189-4.0888 2.8047-5.6417l3.8215-6.6545c-0.0162-1.0114 2.9856-6.0225 3.8363-7.5444 0.17149-0.30788 0.582-1.0303 0.80345-1.299 0.61711-0.75215 0.23901-0.41051 1.0992-1.0384-0.0459-0.70758 1.0114-2.0242 1.5097-2.8627 0.30382-0.51178 0.62116-1.1289 0.91283-1.5596 1.1464-1.6906-0.0473-0.57659 1.3787-1.4422-0.0351-1.7798 3.1206-4.7411 4.8005-7.5592 0.70623-1.1856 1.6717-2.4887 2.517-3.6527 1.0789-1.484 1.6447-2.8465 2.7304-3.149 0.46452-2.0444 1.8135-2.6818 2.8006-4.0119l5.8443-7.2851c8.4086-9.474 17.729-19.814 27.69-27.709 2.6224-2.0782 13.085-12.318 16.23-13.344 0.11208-0.93579 12.793-9.7387 14.576-10.784 0.76294-0.44831 1.3193-0.61575 2.0687-1.1572 10.34-7.4728 33.679-20.115 46.318-25.416l15.555-6.244c1.4314-0.52799 3.0464-1.2774 5.0057-1.9391 3.6378-1.2275 6.9097-2.4306 10.708-3.6608 13.926-4.5128 20.165-5.712 34.168-8.8839 7.1109-1.6096 12.746-1.9526 18.371-3.2773 4.6425-1.0924 17.46-2.1106 22.567-2.4779 1.9175-0.13774 1.3152-0.41591 2.9005-0.56039 2.008-0.18365 5.2204-0.15934 7.3243-0.1796 4.764-0.0486 9.6293-0.28762 14.347-0.24171 9.6631 0.0959 18.303 0.70083 27.092 1.7095 9.3768 1.0762 37.483 6.5141 46.995 10.502 6.1454 2.5765 10.593 3.6635 15.696 5.9739 7.9981 3.6203 16.819 7.3567 24.042 11.624l8.9852 5.3298c3.4177 1.7649 5.8875 3.5068 8.9028 5.4946 1.6569 1.0924 2.3752 1.9404 4.2023 3.1287 4.8666 3.1639 3.3218 1.8581 8.4234 5.9645 0.9979 0.80481 3.3313 2.1403 3.6999 2.987 1.3085 0.44562 3.1733 1.9378 4.2657 2.9559l1.0168 1.2788 2.4927 1.8c0.92904 0.7643 1.5097 1.0884 2.3253 1.7757l13.344 12.083c2.883 2.7858 5.1921 5.9415 7.9346 8.8623 2.8182 3.0018 5.6431 5.82 7.99 8.8218l7.7969 9.3984c5.1894 6.1589 9.5118 13.406 13.994 19.625 2.937 4.0767 3.5568 5.8983 4.8788 7.8671 4.1685 6.1981 4.4372 7.069 7.9657 13.325l8.603 16.744c2.513 5.2029 10.861 25.381 12.195 30.102 1.2194 4.313 2.7966 8.121 4.1294 12.592 2.6939 9.0446 4.4102 17.144 6.487 27.17 4.2468 20.504 7.1042 55.355 4.6155 78.305l-2.1565 14.216c-0.0446 0.22956-0.0108 2.7331-0.19445 3.9214-0.21201 1.38-0.49153 1.6299-0.85477 3.1909-1.5678 6.7612-3.0032 13.132-5.4797 19.534-0.81561 2.1106-1.3908 4.3886-2.3145 6.3277-0.94794 1.9972-1.8716 3.5203-2.7939 5.7781-1.5894 3.8863-3.8674 7.7591-5.9793 10.803-1.0911 1.5691-2.1754 3.3205-3.4717 5.157l-11.026 13.984c-2.7344 3.203-5.4972 5.5013-8.306 8.5139-1.6933 1.8162-2.8479 2.6237-4.3819 4.209-3.4218 3.5406-20.243 17.514-23.663 17.897-1.3301 1.8878-7.3823 5.0476-9.9183 6.7193-1.3368 0.88042-3.808 2.2753-5.2569 2.9505-1.0681 0.49828-1.8891 0.794-2.7858 1.3274l-25.594 11.19c-5.4392 2.6305-21.325 7.0798-28.224 8.3586-1.588 0.29438-3.7756 1.0897-5.7147 1.5529-2.5454 0.60765-10.431 2.0309-12.511 1.8729l-9.316 1.6731c-5.8848 0.38485-27.068 2.2767-29.933-1.0843-1.9134-3.411 0.69273-11.892 2.166-15.817l6.2359-13.297c-0.0459-1.8176 5.9051-10.909 7.1555-13.146l7.8063-11.007c0.65492-0.75349-0.0554-0.11613 0.56985-0.54284 1.029-2.1457 2.8033-2.2078 3.0167-5.3406-19.345-0.16609-40.82 0.21605-58.911-5.6647-4.7546-1.5461-10.827-5.739-16.176-5.3447 0.25386 2.0687 1.2504 3.226 2.4185 4.417 5.1475 5.2515 17.861 11.047 25.037 18.42 4.9558 5.0908 6.7963 9.343 7.1312 17.866 0.26601 6.7733-6.0536 22.602-9.1432 28.525-4.7168 9.0419-10.483 27.342-12.221 37.716-1.6326 9.7387-2.2105 12.925-1.6636 22.683 0.24981 4.4588 1.2801 6.9624 1.8324 11.057l1.3544 2.3064c0.0297-0.0662 0.12693 0.1904 0.19985 0.27682 4.4696-0.22011 8.1021-1.0735 12.284-1.295 3.9552-0.20795 8.4464-0.9844 11.953-1.6393 3.9011-0.72783 7.4931-1.48 11.45-2.1079 3.8566-0.61035 7.5079-1.7217 11.113-2.3374l21.673-5.4648c2.7466-0.88447 18.848-6.2696 20.234-6.0522 0.98845-1.3814-0.24846-0.30383 1.7203-1.1208l14.11-4.9193 16.064-7.1231c2.4711-1.0668 14.543-7.1325 15.835-7.254 0.70082-0.87097 1.3233-0.96685 2.4563-1.5029l16.22-9.1013 14.198-9.2458c4.922-3.4461 9.1702-6.614 13.73-10.026 1.2221-0.91553 2.1444-1.8351 3.4366-2.7169l6.6059-5.2934c9.3876-7.9373 18.577-17.07 26.548-26.317 3.5906-4.1658 9.6928-12.045 12.926-17.006l10.961-18.539c1.1748-2.9397 2.4617-4.7735 3.8957-7.566l4.999-13.132c7.6011-18.384 13.483-41.527 14.977-61.693l1.4111-22.274c0.79941-7.0691-0.24576-16.173-0.23226-23.253 0.0135-7.6672-1.272-14.674-1.669-22.127-0.3889-7.3081-1.8581-13.578-2.9559-20.416-0.52259-3.253-1.1194-6.6558-1.8257-10.129-0.67652-3.3245-1.5704-6.2886-2.1997-9.6118-0.77105-4.0713-8.2492-29.783-9.6401-32.172l-3.3529-8.5841c-1.0924-3.3448-9.1121-21.727-10.757-24.461-3.2867-5.4621-6.4708-12.392-10.398-19.133l-13.896-21.765c-1.5475-1.8945-3.8093-4.6168-5.0192-6.452l-5.1664-6.7328c-4.024-5.2204-17.877-21.307-22.236-25.311-2.1686-1.9931-3.8458-3.8228-5.955-5.9415l-31.984-27.026-36.154-22.44-13.688-6.4141c-1.8027-0.82236-3.3381-1.1532-4.3603-2.4077-1.4759 0.10128-2.5386-0.87232-5.3176-1.8851-1.6461-0.59955-3.4488-1.3166-5.0165-1.9566-6.9408-2.8344-9.6644-3.4191-15.898-5.8537l-16.114-4.9098-22.509-5.5742-23.947-4.0416-25.563-2.3739c-8.7732-0.32813-18.419-0.79535-27.484-0.43481-2.3361 0.0932-3.7472 0.43616-6.5424 0.41456-5.9321-0.0459-32.655 2.8276-37.943 4.0321l-33.647 8.1304c-1.8459 0.67112-3.6054 0.8075-5.685 1.3746-1.403 0.38215-3.5595 1.4246-4.949 1.9283-2.0134 0.72919-3.7026 0.90068-5.9159 1.6029zm419.45 685.28c-15.16 0-20.198-8.9015-20.198-17.136-1e-3 -16.232 11.78-31.504 30.967-31.494 9.0311 4e-3 19.327 4.3427 19.912 18.378 0.24441 5.8767-1.7595 12.011-5.4784 17.209 0.47127 0.2201 0.9574 0.34973 1.4084 0.35649 2.9194 0.05 8.6166-2.6251 13.786-11.628 2.2308-3e-3 4.0537 0.7805 5.0732 3.1085-6.4033 12.025-16.208 17.259-25.544 13.894-5.215 4.4237-12.055 7.3108-19.926 7.3121zm5.82-12.605c-0.40105-0.73459-0.63061-1.584-0.63061-2.4914 0-2.7642 2.1322-5.0044 4.7627-5.0044l0.12829 1e-3c1.5786-4.0834 2.5548-8.6422 2.5548-11.949 0-3.6257-1.4503-5.8862-3.7823-5.8875-4.4926-1e-3 -10.719 12.985-10.722 21.443 0 3.523 1.3166 6.1265 3.6378 6.1265 1.4111 0 2.7844-0.84802 4.051-2.2389zm-149.67 85.8c21.634 0.23226 37.342-8.4383 46.522-38.077l5.2623-16.993c9.7968 1.8189 12.519 11.965 13.88 34.462 2.0525 33.888 16.242 44.515 24.221 44.515 7.5633 0 18.763-7.4674 18.666-20.104-22.942-19.113-7.9765-57.086-30.634-69.117 23.081-6.934 38.569-29.537 49.396-61.744-6.1238-6.537-21.572-7.3351-30.824-2.2024-7.5781 27.991-20.246 44.062-36.76 51.12l18.092-49.876c-3.2867-3.095-7.8644-4.6911-14.742-4.6911-9.9088 0-14.644 2.5819-17.806 5.7444-8.73 8.7273-21.145 12.592-32.645 14.838-21.993 4.2954-38.782 10.271-39.105 26.326-0.32948 16.366 12.393 25.516 29.677 23.836 4.6897-0.45641 7.6254-7.1798 6.7004-13.21-4.3549-2.5765-6.4803-4.2954-6.3156-9.1661 0.48882-14.491 23.9-11.169 33.695-21.921l-16.369 55.618c-6.3466 21.568-11.676 33.139-18.664 33.17-6.9556 0.0311-9.7009-13.802-0.62251-20.055 0.0162-6.3831-7.4377-12.942-15.605-13.116-7.489-0.16069-20.293 7.5943-20.293 22.879 3e-3 13.328 10.599 27.513 34.273 27.766zm-124.11 0.32408c-16.72 0-16.212-14.894-13.69-23.645l10.626-36.856c4.5628-3.542 18.126-3.4461 22.019 2.2969l-9.1904 32.932c-2.1849 7.8279-1.5799 10.859 0.86152 10.913 2.513 0.054 6.988-3.176 13.425-15.892l8.9987-30.25c1.7554-3.2381 18.589-3.2233 21.634 2.6332l-7.8496 27.617c-3.4596 12.168-3.5406 16.512-0.50233 16.586 3.5028 0.0851 10.928-7.6754 15.962-17.687 2.3928-0.46317 6.1508 1.9702 6.6059 3.9241-10.132 17.183-22.081 27.425-31.829 27.425-7.994 0-13.21-7.115-10.338-17.996-5.0813 10.882-14.041 17.997-26.733 17.997zm-337.67-0.15394c-24.33 0-33.073-14.2-33.073-27.905 0-13.609 11.343-23.319 19.529-23.31 6.1738 5e-3 14.647 6.429 15.22 12.492-3.7648 5.6958-5.6822 8.0913-5.8389 12.158-0.185 4.818 2.8708 8.9055 7.1082 8.9987 3.3488 0.0743 8.842-4.5426 13.355-18.836l21.443-67.92-14.264-3.9254c-1.8338-0.50503-5.4014-1.1464-8.4964-1.1721-7.8658-0.0675-13.742 3.3502-13.832 9.5483-0.054 3.7013 1.6083 6.2656 5.2177 6.3655 2.6467 0.0743 5.6566-1.3571 8.3775-2.8249 4.1861 1.9823 7.5822 5.7943 8.6408 10.65-7.4512 9.5888-15.293 13.347-24.363 12.97-20.227-0.83587-27.802-16.006-27.617-26.518 0.40375-22.784 22.752-31.377 43.605-31.302 29.217 0.10398 61.108 18.987 83.908 18.953 9.4619-0.0148 15.016-5.5567 15.463-13.643 0.15935-2.8938-0.43075-5.2015-1.4354-7.5133 2.2497-2.7777 7.0353-4.5952 11.487-4.5952 7.2122 0 11.583 9.5415 11.583 20.055 0 15.748-14.252 30.215-30.728 29.725-8.7381-0.25926-26.054-3.3664-38.866-6.4141l-13.784 44.131c-3.9106 12.52-9.3403 26.278-16.752 35.611-8.6517 10.892-21.819 14.219-35.888 14.219zm85.23 0.68057c15.178 0 26.815-9.7022 38.068-24.173 5.2974 17.247 22.177 24.173 43.175 24.173 20.709 0 37.014-9.1918 47.767-25.274 3.6054 13.498 16.497 24.301 34.079 24.556 25.494 0.36864 42.552-11.057 56.359-36.544-1.4719-2.2375-4.9504-4.7343-8.2574-5.4568-7.9063 15.938-20.577 24.687-33.744 24.148-13.509-0.55364-18.968-7.9481-18.716-18.236 0.40781-16.661 9.285-28.336 16.798-28.433 4.0375 0.0473 2.0903 6.032-2.5359 13.21 2.5292 4.236 7.092 4.9706 11.679 5.026 4.8545 0.0581 11.054-0.53203 15.105-4.4291 3.0059-2.8924 4.5939-7.7955 4.8032-14.237 0.32138-9.9669-9.5415-17.807-26.804-17.807-27.06 0-47.419 17.263-50.163 42.697-10.083 16.369-22.562 22.422-37.144 22.4-14.948-0.0243-21.858-5.1691-22.734-14.215 29.132 4.9936 48.026-9.1472 48.626-27.81 0.41996-13.059-10.85-23.071-28.623-23.071-24.763 0-48.662 15.923-50.738 42.408-12.253 21.411-20.39 22.606-24.124 22.591-5.0408-0.0176-6.4641-3.6149-6.3669-7.7523 0.24442-10.34 8.8785-34.104 14.36-49.109-1.5637-5.2434-22.56-9.3106-28.431-4.1172l-8.4248 28.049c-3.1382 10.446-6.0306 26.086-6.0306 32.164 1e-3 9.8616 5.2988 19.244 22.019 19.244zm74.755-94.528c-7.9036 0-13.638-6.0063-12.807-13.417 0.83047-7.4107 7.9117-13.418 15.815-13.418 7.9049 0 13.638 6.0063 12.808 13.418-0.83046 7.4107-7.9117 13.417-15.817 13.417zm33.98 0c-7.9036 0-13.638-6.0063-12.807-13.417 0.83047-7.4107 7.9117-13.418 15.815-13.418 7.9049 0 13.638 6.0063 12.807 13.418-0.83046 7.4107-7.9103 13.417-15.815 13.417zm-39.85 49.78c1.1248-5.0746 3.4218-10.149 6.2278-13.953 2.806-3.8053 6.1211-6.3426 9.2809-6.3426 2.4563 0 4.2131 1.9458 4.2131 4.2117 0 7.1798-9.8602 16.896-19.722 16.084zm277.62-425.71c-0.86962 1.9688-5.242 1.3922-7.1204 0.94254-2.1565-0.51718-4.0996-1.376-6.217-2.3185-2.1092-0.93579-4.0902-1.5502-6.0482-2.5508-3.2462-1.6555-4.1699-1.557-4.8585-3.4933 3.3961 0.0459 12.715 4.6573 17.752 6.1535 1.8662 0.55499 5.2312 0.72783 6.4924 1.2666zm-67.331-26.01c-0.95064-0.27547-1.6771-1.642-2.3118-2.7074-0.92363-1.5502-1.1626-2.0957-2.0579-3.2678-2.675-3.5082-3.9417-6.6761-6.0455-9.9696l-4.9828-11c-1.0978-2.2942-1.854-5.3352-2.8263-7.836-3.2921-8.4626-2.8614-26.217-9.7981-32.816-7.489-7.1244-15.603-6.4249-19.776 1.8999-3.0666 6.1225-2.7588 8.2155-6.4762 14.8-1.4894 2.6399-8.2425 9.104-10.803 10.238-2.5576 0.94929-3.735 1.9944-6.3007 2.914-11.536 4.1388-19.033 0.55364-23.125 0.25521l-0.88177 6.5316c0.0176-0.0203 9e-3 -0.0783 8e-3 -0.0797-1e-3 -1e-3 -0.0121-0.0486-0.0148-0.0473-0.17555 0.0621-3.172 4.7302-3.4717 6.059-1.1518 0.55229-1.4354 1.48-2.6953 2.6669-2.8911 2.721-3.2503 2.3077-5.0057 3.6108-0.92229 0.68463-0.56309 0.62386-1.6366 1.2032-17.263 9.3174-29.774-1.3031-40.12 11.591-2.0269 2.5278-7.7213 12.132-7.7672 14.37-0.99656 0.87502-0.47397-0.0567-1.349 2.7844l-2.513 7.6443c-2.2983 7.9643-4.1104 27.828-2.6993 35.444 0.23361 1.2599-0.34298 0.81425 0.51584 1.1329-0.59551 3.1747 1.0816 12.098 1.6947 15.206l2.2672 10.402c0.15123 0.76835 0.10262 1.0033 0.34703 1.7001 0.62926 1.7892-0.0702 0.5577 0.91689 1.5164-0.49288 2.6831 1.8756 6.853 1.6434 8.5409 0.7886 0.74674 0.81695 0.67652 1.1842 2.1984 0.78455 3.2516 1.2491 3.3529 1.2801 6.0617-1.8392-0.66977-11.016-7.9805-12.053-10.427-0.8102-0.22011-2.5468-2.5116-3.1139-3.118-0.5739-0.61441-0.90743-1.0168-1.4854-1.8-0.7994-1.0857-0.53474-1.191-1.538-1.4138-0.65087-1.9377-1.962-3.1436-3.1598-4.521l-2.7817-4.5669c-1.0668-1.7298-1.777-3.0396-2.6953-4.7019-2.9667-5.3676-4.7249-8.9271-6.826-15.312l-3.1328-11.125c-0.26197-2.0876-0.74134-3.7891-1.1086-5.9037-0.9547-5.4986-1.2734-12.765-1.1978-18.28 0.19985-14.545 1.5259-13.025 2.6872-23.364 0.29302-0.40105 6.0874-20.99 11.348-28.752 0.95604-1.4111 1.5394-2.5954 2.4657-4.051l14.432-19.615 10.264-10.238c1.0978-1.1532 3.1098-2.1281 3.519-3.126 1.3449-0.47397 5.3176-3.8512 7.8671-5.6039l9.7319-7.0542c3.1598-3.2719 9.998-6.2075 14.882-15.444 0.8102-1.5326 1.5232-2.6831 2.1632-4.4413 1.9688-5.4108 3.0518-11.207 2.933-17.28-0.0365-1.8675 0.62115-7.3904 0.57254-12.699-0.0189-1.9958 0.46047-5.3744-0.52663-6.5141 0.87232-6.9286-1.4057-32.723-3.1558-40.972-0.71703-3.3799-2.9262-8.1628-5.6147-10.776-6.086-5.9186-12.501-6.4222-19.094-0.5631-4.3549 3.8701-11.737 13.358-14.763 18.455-7.8644 13.243-12.738 23.038-16.095 39.697-3.708 18.393-4.2266 40.139 1.6731 58.802 2.4495 7.7496 4.2023 9.79-1.1073 15.927-4.0024 4.6263-6.0387 6.271-10.076 12.059-4.29 6.1481-4.8612 6.8638-8.3937 13.755-3.9862 7.7739-3.569 7.1636-6.7922 15.321-1.0654 2.6953-5.269 15.417-4.7708 17.468l-1.0843 2.6197c-1.3071 5.7673-2.0674 11.984-2.9302 17.881l-1.7824 22.269c-0.027 1.8486-0.52123 44.706 1.326 46.792-0.73459 4.4048 1.8257 12.1 3.3678 15.24 1.1194 2.2794 2.1876 3.7918 3.7512 5.6701 1.1802 1.4179 2.9302 3.9808 4.4021 4.6843 0.66977 1.4584 0.16744 0.73189 1.4138 1.8405 0.46857 0.41591 0.7832 0.62926 1.3085 1.1127 0.92499 0.85072 1.9377 1.6825 2.8411 2.4833 1.2464 1.1032 1.8594 1.457 2.8465 2.4887 1.0654 1.1127 1.3044 1.8419 3.0126 2.2267 0.27277 0.77105 2.166 2.5332 2.7317 3.1017 3.0342 3.0464 5.8902 6.6828 8.125 10.322 5.4446 8.8623 10.226 25.139 13.219 35.164l3.0356 9.3039c1.0884 3.068 2.3942 5.5486 3.5122 8.3681 4.0807 10.299 14.393 19.842 24.232 24.448 9.0838 4.2522 11.062 7.5538 14.4 9.8319 1.6933 1.1572 2.2821 0.73728 3.6648 2.5062 3.6918 4.7276 3.8039 13.961 4.1145 20.192 0.25387 5.0894-1.2761 17.275-2.9059 21.859-2.0485 5.766-4.0146 8.5126-9.7778 5.4378-3.8768-2.0674-10.167-8.3991-12.921-11.262-1.4098-1.4638-1.3571-2.1741-2.6197-3.5204l-25.161-23.619c-5.0584-4.5493-11.167-10.811-17.97-12.406-2.5319-0.5928-6.8462-0.74539-8.7178 1.8081-3.4029 4.6411-3.1504 27.32-12.321 10.63-0.75889-1.3787-2.8722-6.6275-3.5487-6.9489-1.2599-4.1915-3.3583-8.8812-4.5979-13.16-1.426-4.9234-2.7466-8.2506-5.0084-12.186-1.0843-1.8878-1.5786-3.7337-3.0383-5.5972-0.85882-1.0978-1.1856-1.6501-1.9648-2.5562-2.9978-3.4866-6.6612-7.9562-12.584-8.892-0.0716 0.0972-0.14044 0.23766-0.1823 0.31328-1.0168 1.9229-0.78725 2.0701-1.1383 4.2806l-3.3988 13.494c-0.70353 2.7871-1.8081 6.0036-2.7088 8.68-0.98575 2.9275-2.4482 5.8794-2.9883 8.653-0.11073 0.0729-0.11208 0.12828-0.45776 0.64682-0.5712 0.85881 0.027 0.18094-0.60496 0.91688-0.13908-0.16744-0.61576-0.68462-0.68597-0.74404-0.43346-3.6311-1.8581-7.5552-2.6129-10.685l-6.4249-30.904c-5.3082-27.412-5.1205-43.283-5.3703-69.504-0.16744-17.556 4.7681-47.966 9.8427-64.706l6.3345-18.643 23.083-51.572c0.69678-1.6515 1.426-2.9194 2.1106-4.3913 0.71973-1.5448 1.087-2.9046 1.7311-4.4318 0.43751-1.0344 1.3908-2.544 2.066-4.0578l11.663-32.271c0.794-3.2935 1.8243-6.3156 2.4846-9.7495 1.2801-6.6464 2.8897-15.229 3.0153-21.913 0.16879-0.26062 3.1234-26.316 4.0119-30.129 0.45372-1.9486 2.066-7.2608 1.8986-8.892 0.077-0.0891 0.17014-0.35649 0.2012-0.29032 0.0297 0.0648 0.15259-0.21876 0.1931-0.29033 0.077-0.13908 0.41455-0.8102 0.45236-0.89933 0.15799-0.36729 0.42536-1.2032 0.51989-1.4989 0.36864-1.1626 0.57929-2.22 1.0627-3.4542l3.4137-9.3484c1.0128-2.4293 3.3434-6.3642 4.178-9.3282 0.34569-0.93714 1.2126-1.908 1.8284-3.0356 0.75619-1.3841 1.0722-2.2942 1.8419-3.5001 0.64141-1.0046 1.322-2.4023 1.9323-3.3934 0.67382-1.0965 1.3922-1.9377 1.9674-2.941 4.9112-8.5639 11.956-16.266 18.596-23.241 3.4812-3.6554 7.3783-6.7949 8.0629-7.5268 0.90203-0.96415 1.5097-1.5475 2.5468-2.3564 17.765-13.868 27.885-6.7544 33.363 14.369l4.286 15.745c0.31193 2.5846 3.6851 13.91 4.7127 17.041l3.0315 10.701c-0.15259 2.274 3.5082 12.013 4.5574 13.381 1.6272 5.5931 8.5261 10.731 15.199 12.156 8.4086 1.796 15.553-0.023 22.443-3.2152 5.9699-2.7655 11.22-7.5201 15.326-11.699l12.071-12.951c0.89393-1.0128 0.42941-0.36999 0.93579-1.3787 0.69138-0.44967 1.7528-1.5259 2.5913-2.463 0.9601-1.0735 0.89663-1.5732 2.1606-2.7655 1.7203-1.6272 3.5771-3.0896 5.2474-4.6006 4.1078-3.7134 5.454-4.0956 8.2817-6.4749 1.1937-1.0046 2.3131-1.114 2.9384-1.719 2.6399-0.71164 4.3724-1.9918 7.3999-2.6804 2.6075-0.59415 6.0185-1.4975 9.1864-0.90743-0.41591 2.987-2.6399 5.531-3.6959 8.3451-0.88583 0.58875-2.0485 3.2827-3.0936 4.7978l-10.141 13.634c-2.3455 3.0815-3.5946 6.6923-5.6822 10.314-4.6722 8.1021-3.5068 18.128-1.0222 26.334 1.5515 5.1272 3.2854 6.7693 3.9336 8.364 0.49557 1.2207 0.53068 1.6326 1.0911 2.6089 2.5778 4.494 11.518 15.611 12.499 17.39 0.56985 1.0357 0.24036 0.43481 0.36324 0.95334 1.6771 0.87097 5.7727 6.8192 7.011 8.5099l5.6984 9.0689c2.324 4.0888 7.9157 18.02 5.4297 23.226-1.3652-0.68868-1.2423-2.6291-3.2786-6.1333-3.1612-5.4419-7.4498-10.946-12.331-14.734-6.1063-4.737-17.338-10.479-25.785-10.522l8.1291 32.244c2.5846 10.414 4.1266 12.245 6.7382 20.757 1.4611 4.7559 12.01 27.805 12.028 28.249 1.5516 1.2126 1.9134 2.7858 3.0153 5.1529 0.71028 1.5272 1.8432 3.3759 1.9864 5.1907-3.4771-0.70083-18.562-15.544-19.716-18.581zm37.754 149.82c0.54959-1.2747 0.44292-0.91283 1.9391-1.3328 4.0402-1.1356 2.8411-0.81965 6.7207-2.7925 2.1106-1.0722 5.5121-3.3934 7.4485-4.8356 4.2617-3.1801 8.5207-4.4062 12.294-6.1616 1.904-0.88448 2.1633-2.3361 3.2368-2.8398 1.0816 1.3652 0.22146 2.5278-1.4516 4.2185-1.0722 1.0816-2.3672 1.985-3.7013 2.8641-2.5454 1.6758-5.7403 3.4744-8.2844 4.8585-3.1274 1.6987-13.655 9.4227-18.201 6.0212zm31.512-71.536c-0.92769-0.76835-3.0018-4.5344-4.0767-6.2318-3.8958-6.1535-6.9624-14.871-9.2485-21.892-1.6839-5.1664-4.1537-13.004 2.7912-14.69 18.831-4.5736 17.748-4.3319 37.302-3.8647 6.6842 0.15934 10.515 2.5103 12.35 8.6692 1.245 4.1766 0.38214 15.937-0.45912 19.815-1.168 5.3879-7.0812 10.999-9.2323 11.3-0.71839 1.2882-0.48208 0.79806-1.9283 1.7014-0.65357 0.4078-1.4395 0.84801-2.039 1.2356-4.1091 2.6575-7.1271 5.0017-10.356 8.8974-7.1339 8.6084-6.4344 12.915-7.8887 16.319-0.27007 0.62926-0.27412 0.51178-0.53339 0.83046l-2.7047-11.84c-1.642-6.9408-2.7318-5.8902-3.9768-10.249zm-95.057-73.752c-1.4854-0.0392-2.1727-0.65761-4.417-0.71433-14.223-0.36054-18.492 6.7234-29.37 1.11-2.3186-1.1964-3.9241-2.8614-5.9253-4.3076-2.6237-1.8986-2.7344-2.2983-6.0995-3.7188-1.9931-0.84262-12.581-4.2765-13.113-6.6707 6.1333-1.9337 13.258-7.3297 17.92-11.834 2.1281-2.0566 3.7688-3.0032 6.2278-4.394 2.8938-1.0735 2.7398-1.8648 6.7247-2.7993 6.5883-1.5448 9.4673-2.4468 16.476-0.35649 5.2704 1.5718 8.1493 3.758 10.287 9.0324 1.6596 4.0969 3.7837 15.583 5.554 19.036 0.65897 1.2855 1.2315 1.5353 0.99521 3.1693 0.70488 0.53474 0.22551-0.0527 1.0236 0.94659l1.3908 2.7574c0.90473 1.7149 1.5637 1.8756 1.5097 4.2833-3.257 0.0999-3.334-0.65762-5.3244-2.1606zm-24.981 107.3c-0.69138-2.1632-4.6681-3.8188-5.3501-7.512 4.1388-5.2326 13.58-0.99251 17.229 1.6906 2.432 1.7892 4.286 3.3799 6.4195 5.4797 4.6276 4.552 6.8922 7.092 13.011 10.756 13.26 7.94 35.48 9.763 50.711 8.6962 6.8894-0.48207 10.629-4.2266 15.644-8.1223 6.2048-4.8194 37.202-20.88 33.537-7.5214-2.4144 8.7988-15.316 1.4206-24.171 4.5682-6.6113 2.351-5.9456 9.2823-21.358 13.48-8.6517 2.3577-21.973 2.7466-32.285 1.75-4.0227-0.39025-10.822-1.6758-14.939-2.8411-2.4374-0.69003-11.294-4.2874-12.699-4.1496-1.0951-1.534-1.8743-1.0924-3.6068-1.9972-4.3603-2.278-9.131-4.8896-13.223-7.7159zm71.225-272.98c3.2003-1.376-1.0128-9.5078-1.1762-10.615-0.0122-0.0756-0.0243-0.20255-0.0284-0.27142-0.0864-1.561 2.5386-1.7487 3.9579 0.70623l1.0897 1.6744c-0.30922 1.8581 0.0864 0.70353 0.22821 0.8156 0.10533 4.1901 0.0392 6.6167-0.56714 10.541-0.33489 2.1686-1.4206 8.2168-1.1572 9.9196l-2.7844 15.07c-0.78185 2.0674-1.8837 8.4154-2.4441 11.266-0.71973 3.6702-2.2456 7.7024-2.8911 11.316-0.47937 0.48207-2.729 7.9859-3.4434 9.7508-1.3558 3.3516-2.7804 6.2035-4.1604 9.3498-0.0594-0.0891-0.11342-0.22416-0.13638-0.29303l-0.13638-1.9796c0.10127-0.46317 0.60495-1.6137 0.64681-1.7595 0.41591-1.4192 0.33354-3.2921 0.61036-4.8626 0.50367-2.8465 1.2842-5.5945 1.9553-8.6098 1.2734-5.7174 2.3753-11.686 3.6162-17.328 1.1437-5.1921 7.0852-33.123 6.8206-34.69zm6.5978 140.64c0.11343-0.0567 0.26061-0.29842 0.32138-0.2039 0.22686 0.35109 0.2039-0.83046 1.8473-0.74404 2.4104 0.12693 1.9945 5.9901 3.3718 11.713 0.15394 0.64276 0.31733 1.5083 0.50773 2.4671l0.86017 2.4023c-0.0945 2.9397 3.5608 13.494-2.9654 12.715-3.5906-0.42806-14.045-9.3592-14.41-12.626-0.34299-3.0909 1.9053-3.5771 4.0051-4.8788 2.1444-1.3301 7.069-6.5816 6.4614-10.845zm-132.19 133.62c-0.63331-2.409-0.77104-1.1275-1.5326-2.8047-1.372-3.0194-2.9816-5.8146-3.2975-9.8467 1.426-0.0311 5.9051 3.7256 7.7213 4.3873 1.1775 1.1167 25.598 16.846 26.542 17.094 0.95064 1.1775 9.7009 5.6674 11.36 6.664 9.7751 5.8578 1.6177 11.745 10.31 33.879 0.55499 1.4165 1.6825 5.1705 2.3618 5.9942l7.6835 16.792c0.70218 1.0803 0.0581 0.33624 0.83721 1.0263 0.0284 1.8162 1.9324 4.4534 2.7331 6.5181l4.1766 10.061c1.0668 3.2246 2.7817 7.9292 1.7582 11.208-1.0425 3.3462-12.366 22.953-13.522 23.551-0.32544-4.8302 3.4029-17.706 4.4696-22.479-1.2639-0.0864-1.4746 0.25792-2.2551 0.67652-0.93444 0.50098-1.1748 0.47802-2.1754 1.1248l-7.9697 5.1327c-0.794 0.56849-1.1775 0.88852-1.8311 1.4016l-1.6326 1.5205c-0.0756 0.0324-0.19715 7e-3 -0.22551 0.10398l-1.6272 1.056c-1.5461 1.268-4.7775 4.4372-6.0738 4.6519l3.4447-7.2702c0.78455-1.3368 3.4069-5.7525 3.6027-7.512 1.6002-0.9574 1.588-2.4576 3.0828-5.0354l3.9673-7.539c1.3679-2.1889 3.5028-5.5297 4.236-8.2938-3.2017 0.13773-7.6484 1.6839-11.41 2.2078 0.45911-1.484 2.621-4.3008 3.7688-6.3439 1.3017-2.3145 2.4522-4.6789 3.3218-7.1352-3.6257 0.22821-7.227 3.0356-10.552 2.9046 0.31733-1.7284 0.27142-3.8593 0.68868-6.0401 0.40105-2.0849 1.2842-3.5608 1.3193-5.5594-4.3252 0.0419-9.2066 1.3544-13.27 2.1916-3.338 0.68867-9.9318 2.9626-12.345 3.0032 0.27142-1.7365 4.4966-5.6755 5.8321-6.9678 3.5501-3.4339 14.466-17.962 16.54-22.801l-3.2381-0.94254c-4.6789-0.42941-20.763-4.0443-23.248-5.6147 2.2051-2.0093 4.475-0.7751 10.545-3.6986 3.126-1.507 6.903-3.731 8.9028-5.7295-1.9337-1.7649-9.8305-3.7985-14.034-6.3736-5.4162-3.3164-6.0522-2.9316-12.389-8.1007-1.1154-0.91013-2.486-2.4023-3.5852-3.415-0.96415-0.88853-1.9864-3.1274-2.9924-3.6473zm56.86-129.82c6.5451-1.5664 6.8516 8.7597 0.80615 9.4808-3.2692 0.39025-5.1218-1.7946-5.2636-4.4723-0.212-4.0281 2.6737-4.5817 4.4575-5.0084z" clip-rule="evenodd" fill="#fff" fill-rule="evenodd" stroke-width="1.3503"/></svg>
