<?xml version="1.0" encoding="UTF-8"?>
<svg id="logos" width="622.6" height="800" version="1.1" viewBox="0 0 622.6 800" xmlns="http://www.w3.org/2000/svg" xmlns:cc="http://creativecommons.org/ns#" xmlns:dc="http://purl.org/dc/elements/1.1/" xmlns:rdf="http://www.w3.org/1999/02/22-rdf-syntax-ns#">
 <metadata id="metadata66">
  <rdf:RDF>
   <cc:Work rdf:about="">
    <dc:format>image/svg+xml</dc:format>
    <dc:type rdf:resource="http://purl.org/dc/dcmitype/StillImage"/>
    <dc:title>PHX_ru_eng</dc:title>
   </cc:Work>
  </rdf:RDF>
 </metadata>
 <g id="g901">
  <g id="g13" class="cls-2" transform="matrix(10.225 0 0 10.225 -967.07 -111.45)" clip-path="url(#clip-path)">
   <path id="path11" class="cls-3" d="m115.19 61.8s7.1 0.14 11.46-4.43c3.58-3.75 4.67-6.88 5.42-11.49s3.87-5.92 3.87-5.92-5.22-1.71-8.5 4.12a8 8 0 0 1-8.63 3.88c-6-1.2-6.43-8-6.43-11.18s2.75-18.78 20.62-19.78c0 0 11.85 0.07 18.47 10 0 0-5.29-13.79-21-13.79 0 0-22.29-0.13-24 24.36a17.75 17.75 0 0 0 0.8 6.63s-2.75-2.94-2.75-9.84 3.18-20.22 21.85-23.36c0 0-24.7-3.15-26.44 25.1 0 0-0.13 8.7 3.61 13.79a18.52 18.52 0 0 1-6-13.05s-0.33-8.36 2.74-13.05c0 0-5.75 5.35-5.75 16.53 0 0 0.6 20.08 20.61 21.48z" fill="#f4811f"/>
  </g>
  <path id="path15" class="cls-3" d="m322.6 320.14s21.063-27.71 43.149-30.675c0 0-36.503-23.62-65.746 8.1799 0 0-21.063 27.71-43.047 30.675 0 0 36.401 23.62 65.746-8.1799z" fill="#f4811f" stroke-width="10.225"/>
  <path id="path17" class="cls-3" d="m411.25 98.159s-72.495-1.3292-117.18 45.296c-36.605 38.343-47.75 70.347-55.419 117.48-7.6687 47.137-39.468 60.532-39.468 60.532s53.374 17.485 86.912-42.127a81.799 81.799 0 0 1 88.241-39.673c61.35 12.27 65.644 81.799 65.644 114.31s-28.016 191.82-210.74 202.04c0 0-121.17-0.71574-188.85-102.25 0 0 54.09 141 214.21 141 0 0 227.91 1.3292 245.4-249.08a181.39 181.39 0 0 0-8.1799-67.791s28.016 30.164 28.016 100.61c0 70.45-31.902 206.95-222.8 239.06 0 0 252.56 32.106 270.35-256.65 0 0 1.3292-88.957-37.014-141a189.26 189.26 0 0 1 61.35 133.44s3.3742 85.583-28.016 133.44c0 0 58.896-54.703 58.896-169.02 0 0-6.135-205.32-210.84-219.63z" fill="#f4811f" stroke-width="10.225"/>
 </g>
 <g id="g895" fill="#231f20">
  <path id="path19" class="cls-4" d="m45.194 688.44c9.6114 0 14.213-3.4765 14.213-10.225 0-6.7484-4.8057-10.225-14.724-10.225h-2.5562v21.063zm-16.36 42.638v-76.176h13.804a58.384 58.384 0 0 1 14.315 1.3292 20.45 20.45 0 0 1 8.8957 5.2147 22.188 22.188 0 0 1 6.7484 16.462 21.472 21.472 0 0 1-7.1574 16.973 28.119 28.119 0 0 1-19.121 6.2372h-4.09v29.959z" stroke-width="10.225"/>
  <polygon id="polygon21" class="cls-4" transform="matrix(10.225 0 0 10.225 -967.07 -111.45)" points="103.9 77.78 106.8 77.78 106.8 74.95 108.11 74.95 108.11 82.4 106.8 82.4 106.8 79.02 103.9 79.02 103.9 82.4 102.59 82.4 102.59 74.95 103.9 74.95"/>
  <polygon id="polygon23" class="cls-4" transform="matrix(10.225 0 0 10.225 -967.07 -111.45)" points="122.32 78.96 119.51 78.96 119.51 81.16 122.41 81.16 122.41 82.4 118.2 82.4 118.2 74.95 122.41 74.95 122.41 76.19 119.51 76.19 119.51 77.71 122.32 77.71"/>
  <polygon id="polygon25" class="cls-4" transform="matrix(10.225 0 0 10.225 -967.07 -111.45)" points="128.9 74.95 130.21 74.95 130.21 82.42 129.64 82.42 124.93 77.5 124.93 82.4 123.62 82.4 123.62 74.9 124.21 74.9 128.9 79.81"/>
  <polygon id="polygon27" class="cls-4" transform="matrix(10.225 0 0 10.225 -967.07 -111.45)" points="133.03 82.4 131.72 82.4 131.72 74.95 133.03 74.95"/>
  <polygon id="polygon29" class="cls-4" transform="matrix(10.225 0 0 10.225 -967.07 -111.45)" points="136.81 77.29 138.2 74.95 139.71 74.95 137.55 78.51 139.8 82.4 138.33 82.4 136.79 79.74 135.2 82.4 133.71 82.4 136.05 78.51 133.99 74.95 135.49 74.95"/>
  <polygon id="polygon31" class="cls-4" transform="matrix(10.225 0 0 10.225 -967.07 -111.45)" points="145.66 82.4 144.34 82.4 144.34 76.19 142.68 76.19 142.68 74.95 147.31 74.95 147.31 76.19 145.66 76.19"/>
  <polygon id="polygon33" class="cls-4" transform="matrix(10.225 0 0 10.225 -967.07 -111.45)" points="147.62 74.95 149.05 74.95 150.97 79.78 152.93 74.95 154.36 74.95 151.24 82.42 150.66 82.41"/>
  <path id="path35" class="cls-4" d="m160.02 692.23a29.55 29.55 0 0 0 50.511 21.575 30.675 30.675 0 0 0 0-42.74 29.755 29.755 0 0 0-42.024 0 28.732 28.732 0 0 0-8.5889 21.166zm-12.168 0a39.059 39.059 0 0 1 12.372-28.937 40.9 40.9 0 0 1 29.55-12.065 41.718 41.718 0 0 1 41.513 41.513 39.264 39.264 0 0 1-12.27 29.243 42.229 42.229 0 0 1-57.566 1.3292 39.264 39.264 0 0 1-13.599-30.675z" stroke-width="10.225"/>
  <path id="path37" class="cls-4" d="m52.045 787.42a11.554 11.554 0 0 0 3.681-0.61349 9.5092 9.5092 0 0 0 3.3742-1.9427 10.225 10.225 0 0 0 2.454-3.4765 12.27 12.27 0 0 0 0.92024-5.1125 14.11 14.11 0 0 0 0-3.4765 8.7934 8.7934 0 0 0-1.636-3.272 9.4069 9.4069 0 0 0-3.1697-2.5562 12.27 12.27 0 0 0-5.1125-1.1247v21.472zm-8.6912-21.472a12.474 12.474 0 0 0-5.1125 1.1248 8.7934 8.7934 0 0 0-4.8057 5.8282 13.497 13.497 0 0 0 0 3.5787 12.168 12.168 0 0 0 0.92024 5.1125 10.225 10.225 0 0 0 2.454 3.3742 9.6114 9.6114 0 0 0 3.3742 1.9427 11.656 11.656 0 0 0 3.681 0.61349v-21.575zm0 27.914a25.46 25.46 0 0 1-7.9754-1.5337 18.916 18.916 0 0 1-6.0327-3.5787 15.644 15.644 0 0 1-3.8855-5.317 16.155 16.155 0 0 1-1.3292-6.6462 19.121 19.121 0 0 1 0-3.5787 16.053 16.053 0 0 1 3.4765-7.3619 15.031 15.031 0 0 1 3.5787-3.0675 19.734 19.734 0 0 1 5.0102-2.2495 27.198 27.198 0 0 1 6.7484-0.92025v-4.7035h8.6912v4.7035a27.403 27.403 0 0 1 6.7484 0.92025 19.53 19.53 0 0 1 5.0102 2.2495 15.133 15.133 0 0 1 3.5787 3.0675 16.053 16.053 0 0 1 3.4765 7.3619 19.121 19.121 0 0 1 0 3.5787 16.155 16.155 0 0 1-1.3292 6.6462 15.644 15.644 0 0 1-3.4765 4.908 18.916 18.916 0 0 1-6.0327 3.5787 25.46 25.46 0 0 1-7.9754 1.5337v5.1125h-8.6912v-4.7035z" stroke-width="10.225"/>
  <polygon id="polygon39" class="cls-4" transform="matrix(10.225 0 0 10.225 -967.07 -111.45)" points="103.07 87.15 103.07 88.22 105.45 88.22 105.45 89 102.21 89 102.21 84.72 105.35 84.72 105.35 85.46 103.07 85.46 103.07 86.41 105.17 86.41 105.17 87.15"/>
  <polygon id="polygon41" class="cls-4" transform="matrix(10.225 0 0 10.225 -967.07 -111.45)" points="108.68 89 108.68 87.09 107 87.09 107 89 106.11 89 106.11 84.72 107 84.72 107 86.35 108.68 86.35 108.68 84.72 109.57 84.72 109.57 89"/>
  <polygon id="polygon43" class="cls-4" transform="matrix(10.225 0 0 10.225 -967.07 -111.45)" points="113.02 89 113.02 86.11 113 86.11 111.31 89 110.41 89 110.41 84.72 111.27 84.72 111.27 87.63 111.28 87.63 112.97 84.72 113.87 84.72 113.87 89"/>
  <polygon id="polygon45" class="cls-4" transform="matrix(10.225 0 0 10.225 -967.07 -111.45)" points="117.46 89 116.14 87.11 115.7 87.55 115.7 89 114.81 89 114.81 84.72 115.7 84.72 115.7 86.46 117.33 84.72 118.49 84.72 116.74 86.47 118.59 89"/>
  <path id="path47" class="cls-4" d="m278.02 769.22v-1.4315a9.1002 9.1002 0 0 0-0.71574-1.636 10.225 10.225 0 0 0-1.1247-1.636 7.1574 7.1574 0 0 0-1.7382-1.4315 10.225 10.225 0 0 0-2.454-1.0225 13.599 13.599 0 0 0-3.3742 0h-1.9427a9.1002 9.1002 0 0 0-2.3517 0.81799 10.225 10.225 0 0 0-2.3517 1.636 10.225 10.225 0 0 0-2.045 2.7607 16.667 16.667 0 0 0-1.4315 4.09 27.812 27.812 0 0 0 0 11.963 14.213 14.213 0 0 0 2.1472 4.7035 9.3047 9.3047 0 0 0 7.8732 3.9877 10.225 10.225 0 0 0 4.7035-0.92025 8.8957 8.8957 0 0 0 2.863-2.1472 9.3047 9.3047 0 0 0 1.636-2.6585q0.51125-1.4315 0.818-2.454h9.1002a22.29 22.29 0 0 1-2.454 7.1574 17.587 17.587 0 0 1-4.1922 5.0102 16.973 16.973 0 0 1-5.5215 2.9652 21.37 21.37 0 0 1-6.544 1.0225 21.677 21.677 0 0 1-8.5889-1.636 17.076 17.076 0 0 1-6.3394-4.6012 20.45 20.45 0 0 1-3.8855-7.2597 31.39 31.39 0 0 1-1.3292-9.5092 31.902 31.902 0 0 1 0.81799-7.2597 23.313 23.313 0 0 1 2.1472-5.8282 18.814 18.814 0 0 1 3.272-4.3967 18.098 18.098 0 0 1 4.09-3.0675 18.814 18.814 0 0 1 4.6012-1.7382 21.37 21.37 0 0 1 4.908-0.61349 24.438 24.438 0 0 1 6.3394 0.71574 19.018 19.018 0 0 1 4.8057 1.9427 15.746 15.746 0 0 1 3.5787 2.863 16.871 16.871 0 0 1 2.454 3.272 15.44 15.44 0 0 1 1.4315 3.3742 17.791 17.791 0 0 1 0.61349 3.1697z" stroke-width="10.225"/>
  <polygon id="polygon49" class="cls-4" transform="matrix(10.225 0 0 10.225 -967.07 -111.45)" points="124.61 85.46 124.61 84.72 128.11 84.72 128.11 85.46 126.81 85.46 126.81 89 125.92 89 125.92 85.46"/>
  <path id="path51" class="cls-4" d="m357.36 791h11.35a10.225 10.225 0 0 0 2.7607 0 6.3394 6.3394 0 0 0 2.2495-1.1247 4.908 4.908 0 0 0 1.4315-1.8405 6.135 6.135 0 0 0 0.51124-2.6585 6.3394 6.3394 0 0 0-0.61349-3.0675 4.6012 4.6012 0 0 0-1.636-1.7382 6.2372 6.2372 0 0 0-2.3517-0.818h-13.804v11.759zm0-18.916h13.497a5.5215 5.5215 0 0 0 1.9427-0.92025 4.499 4.499 0 0 0 1.3292-1.5337 4.8057 4.8057 0 0 0 0-2.2495 5.0102 5.0102 0 0 0 0-2.3517 3.7832 3.7832 0 0 0-1.227-1.4315 5.1125 5.1125 0 0 0-1.8405-0.71574h-13.701v9.7137zm-8.7934-17.178h21.472a19.734 19.734 0 0 1 4.7035 0 13.497 13.497 0 0 1 3.4765 1.3292 10.225 10.225 0 0 1 2.454 1.9427 10.225 10.225 0 0 1 1.636 2.3517 10.225 10.225 0 0 1 0.81799 2.5562 12.577 12.577 0 0 1 0 2.454 13.599 13.599 0 0 1 0 2.9652 8.2822 8.2822 0 0 1-0.92024 2.454 7.6687 7.6687 0 0 1-1.636 1.9427 11.963 11.963 0 0 1-2.454 1.636 10.941 10.941 0 0 1 3.5787 2.045 9.2024 9.2024 0 0 1 2.045 2.6585 10.225 10.225 0 0 1 0.92024 2.863 18.609 18.609 0 0 1 0 2.863 12.883 12.883 0 0 1-1.1247 5.6237 11.247 11.247 0 0 1-3.272 4.09 14.928 14.928 0 0 1-5.1124 2.5562 24.438 24.438 0 0 1-6.7484 0.818h-20.45v-43.149z" stroke-width="10.225"/>
  <polygon id="polygon53" class="cls-4" transform="matrix(10.225 0 0 10.225 -967.07 -111.45)" points="137.3 89 135.98 87.11 135.54 87.55 135.54 89 134.65 89 134.65 84.72 135.54 84.72 135.54 86.46 137.18 84.72 138.33 84.72 136.59 86.47 138.43 89"/>
  <polygon id="polygon55" class="cls-4" transform="matrix(10.225 0 0 10.225 -967.07 -111.45)" points="141.46 89 141.46 86.11 141.44 86.11 139.76 89 138.85 89 138.85 84.72 139.71 84.72 139.71 87.63 139.72 87.63 141.41 84.72 142.31 84.72 142.31 89"/>
  <polygon id="polygon57" class="cls-4" transform="matrix(10.225 0 0 10.225 -967.07 -111.45)" points="142.81 85.46 142.81 84.72 146.3 84.72 146.3 85.46 145 85.46 145 89 144.11 89 144.11 85.46"/>
  <path id="path59" class="cls-4" d="m546.22 782h11.145l-5.4192-17.28zm0.51124-27.096h10.225l15.337 43.66h-10.225l-2.7607-8.9979h-16.155l-3.0675 8.9979h-9.6114l15.746-43.66z" stroke-width="10.225"/>
  <path id="path61" class="cls-4" d="m605.42 742.33a10.225 10.225 0 0 1-0.71575 3.9877 6.8507 6.8507 0 0 1-2.045 2.7607 8.4867 8.4867 0 0 1-3.1697 1.5337 16.871 16.871 0 0 1-8.0777 0 8.4867 8.4867 0 0 1-3.1697-1.5337 6.9529 6.9529 0 0 1-2.045-2.7607 10.225 10.225 0 0 1-0.71575-3.9877h3.3742a4.2945 4.2945 0 0 0 0.81799 1.8405 4.7035 4.7035 0 0 0 1.4315 1.227 6.9529 6.9529 0 0 0 1.9427 0.71574h4.7035a7.0552 7.0552 0 0 0 1.9427-0.71574 4.7035 4.7035 0 0 0 1.4315-1.227 4.2945 4.2945 0 0 0 0.81799-1.8405zm-27.607 12.577h8.7934v29.755l17.28-29.755h9.2024v43.66h-8.7934v-29.55l-17.178 29.55h-9.3047z" stroke-width="10.225"/>
 </g>
</svg>
