<?xml version="1.0" encoding="UTF-8"?>
<!-- Generator: Adobe Illustrator 22.1.0, SVG Export Plug-In . SVG Version: 6.00 Build 0)  -->
<svg id="logo" width="496.7" height="392" version="1.1" viewBox="0 0 496.7 392" xml:space="preserve" xmlns="http://www.w3.org/2000/svg" xmlns:cc="http://creativecommons.org/ns#" xmlns:dc="http://purl.org/dc/elements/1.1/" xmlns:rdf="http://www.w3.org/1999/02/22-rdf-syntax-ns#"><metadata id="metadata113"><rdf:RDF><cc:Work rdf:about=""><dc:format>image/svg+xml</dc:format><dc:type rdf:resource="http://purl.org/dc/dcmitype/StillImage"/><dc:title/></cc:Work></rdf:RDF></metadata>
<g id="g20" transform="translate(-99.3,-148.5)" fill="#f57c00">
	<path id="path4" d="m349.9 401.5c1.2-4.8 3-9.4 3.7-14.4 0.8-5.8-0.1-12.2-1.9-17.2h-17.6c-1.8 5-2.7 11.3-1.9 17.2 0.7 5 2.5 9.6 3.7 14.4 4.2 16.8 1 26.2-5.6 39.7 2.5 0.3 9.7 0.4 12.5 0.5 2.9 0 10-0.2 12.6-0.4-6.5-13.6-9.6-23-5.5-39.8z"/>
	<path id="path6" d="m335.9 287.2c-1.2 4.8-3 9-3.7 14-0.8 5.8 0.1 12.8 1.9 16.8h17.6c1.8-4 2.7-11 1.9-16.8-0.7-5-2.5-9.4-3.7-14.2-4.2-16.8-1-26.1 5.6-39.6-2.5-0.3-9.7-0.4-12.5-0.4-2.9 0-10 0.2-12.6 0.5 6.6 13.5 9.7 22.9 5.5 39.7z"/>
	<path id="path8" d="m285.8 351.4c4.8 1.2 9.1 3 14.1 3.7 5.8 0.8 11.9-0.1 16.9-1.9v-17.6c-5-1.8-11-2.7-16.9-1.9-5 0.7-9.4 2.5-14.2 3.7-16.8 4.2-26.1 1-39.6-5.6-0.3 2.5-0.4 9.7-0.4 12.5 0 2.9 0.2 10 0.5 12.6 13.4-6.6 22.8-9.7 39.6-5.5z"/>
	<path id="path10" d="m400.1 337.4c-4.8-1.2-9.3-3-14.3-3.7-5.8-0.8-12.1 0.1-17.1 1.9v17.6c5 1.8 11.3 2.7 17.1 1.9 5-0.7 9.5-2.5 14.3-3.7 16.8-4.2 26.2-1 39.7 5.6 0.3-2.5 0.4-9.7 0.4-12.5 0-2.9-0.2-10-0.5-12.6-13.4 6.5-22.8 9.6-39.6 5.5z"/>
	<path id="path12" d="m307.5 389.7c4.2-2.5 8.6-4.4 12.6-7.4 4.7-3.5 8.5-8.6 10.7-13.3l-12.4-12.4c-4.6 2.1-9.8 5.9-13.3 10.6-3 4-4.9 8.5-7.5 12.7-8.9 14.8-17.8 19.2-32 24 1.6 2 6.5 7.1 8.6 9.2 2 2 7.2 7 9.2 8.5 4.8-14.1 9.3-22.9 24.1-31.9z"/>
	<path id="path14" d="m378.4 299c-4.2 2.5-8.7 4.5-12.7 7.5-4.7 3.5-8.6 8.7-10.7 13.4l12.4 12.4c4.7-2.1 9.9-6 13.4-10.7 3-4 5-8.5 7.5-12.7 8.9-14.8 17.8-19.2 32-24.1-1.6-2-6.5-7.1-8.5-9.2-2-2-7.2-7-9.2-8.6-4.9 14.2-9.4 23.1-24.2 32z"/>
	<path id="path16" d="m297.6 308.9c2.5 4.2 4.3 8.5 7.3 12.5 3.5 4.7 8.5 8.4 13.2 10.6l12.4-12.4c-2.1-4.6-5.8-9.7-10.5-13.2-4-3-8.4-4.9-12.6-7.4-14.8-8.9-19.2-17.7-24-32-2 1.6-7.1 6.6-9.1 8.6s-7 7.2-8.5 9.2c14 4.8 22.8 9.3 31.8 24.1z"/>
	<path id="path18" d="m388.3 379.9c-2.5-4.2-4.6-8.8-7.6-12.8-3.5-4.7-8.8-8.7-13.5-10.8l-12.4 12.4c2.1 4.7 6.1 10 10.8 13.5 4 3 8.5 5 12.8 7.6 14.8 8.9 19.2 17.8 24.1 32 2-1.6 7.2-6.5 9.2-8.5s7-7.2 8.6-9.2c-14.2-5-23.1-9.5-32-24.2z"/>
</g>
<g id="g38" transform="translate(-99.3,-148.5)" fill="#f57c00">
	<path id="path22" d="m359.7 215v-7.3s-5-0.4-7.6-4.2c-0.7-1-2.1-3.5-2.6-7.6-0.2-3.6-0.1-7.3 0.9-10.7 2.2-7.4 8.3-13 7.8-21.3 0-8.8-7-15.4-15.7-15.4s-15.7 6.6-15.7 15.4c-0.5 8.3 5.6 13.9 7.8 21.3 1.1 3.6 1.1 7.5 0.8 11.3-0.5 3.8-1.7 6.1-2.3 7-2.7 3.9-7.4 4.2-7.4 4.2v7.3c5-0.7 11.2-1.1 17-1.1s11 0.4 17 1.1z"/>
	<path id="path24" d="m325.7 474.5v6.8s4.7 0.4 7.4 4.2c0.7 1 2 3.5 2.4 7.6 0.2 3.6 0.1 7.3-1 10.7-2.2 7.4-8.4 13-7.8 21.3 0 8.8 7 15.4 15.7 15.4s15.7-6.6 15.7-15.4c0.5-8.3-5.6-13.9-7.8-21.3-1.1-3.6-1.1-7.5-0.8-11.3 0.5-3.8 2-6.1 2.6-7 2.7-3.9 7.6-4.2 7.6-4.2v-6.8c-6 0.7-11.2 1.1-17 1.1s-12-0.4-17-1.1z"/>
	<path id="path26" d="m523.1 328.7c-8.3-0.5-13.9 5.6-21.3 7.8-3.6 1.1-7.5 1.1-11.3 0.8-3.8-0.5-6.1-2-7-2.7-3.9-2.7-4.2-7.7-4.2-7.7h-7c0.8 6 1.2 11.9 1.2 17.7 0 5.7-0.4 11.3-1.1 17.3h6.9s0.4-5.1 4.2-7.8c1-0.7 3.5-2.2 7.6-2.6 3.6-0.2 7.3-0.2 10.7 0.8 7.4 2.2 13 8.3 21.3 7.8 8.8 0 15.4-7 15.4-15.7 0-8.6-6.6-15.7-15.4-15.7z"/>
	<path id="path28" d="m212.9 327h-7.2s-0.4 5-4.2 7.7c-1 0.7-3.5 2.1-7.6 2.6-3.6 0.2-7.3 0.2-10.7-0.9-7.4-2.2-13-8.3-21.3-7.8-8.8 0-15.4 7-15.4 15.7s6.6 15.7 15.4 15.7c8.3 0.5 13.9-5.6 21.3-7.8 3.6-1.1 7.5-1.1 11.3-0.8 3.8 0.5 6.1 2.1 7 2.7 3.9 2.7 4.2 7.8 4.2 7.8h7.1c-0.7-6-1.1-11.5-1.1-17.3 0-5.7 0.4-11.6 1.2-17.6z"/>
	<path id="path30" d="m422.4 448.4 4.8 4.8s3.7-3.2 8.3-2.3c1.2 0.2 3.9 1 7.2 3.6 2.7 2.4 5.2 5.1 6.9 8.2 3.7 6.8 3.3 15.1 9.6 20.6 6.2 6.2 15.9 5.9 22-0.2s6.5-15.8 0.2-22c-5.5-6.3-13.8-5.9-20.6-9.6-3.3-1.8-6.1-4.5-8.6-7.4-2.3-3-3.2-5.4-3.4-6.5-0.8-4.6 2.2-8.2 2.2-8.2l-4.8-4.8c-3.4 4.4-7.1 8.6-11.1 12.6-4 4.1-8.3 7.8-12.7 11.2z"/>
	<path id="path32" d="m262.7 241.1-4.9-4.9s-3.5 3-8.2 2.2c-1.2-0.2-3.8-1.1-7.1-3.7-2.7-2.4-5.2-5.1-6.9-8.2-3.7-6.8-3.3-15.1-9.5-20.6-6.2-6.2-15.8-5.9-22 0.2-6.1 6.1-6.5 15.8-0.2 22 5.5 6.3 13.8 5.9 20.6 9.5 3.3 1.8 6.1 4.5 8.6 7.4 2.3 3 3 5.6 3.2 6.7 0.8 4.6-2.3 8.3-2.3 8.3l4.9 4.9c3.4-4.4 7.1-8.7 11.2-12.7 3.9-4 8.2-7.7 12.6-11.1z"/>
	<path id="path34" d="m238.7 424.3-4.8 4.8s3.2 3.7 2.3 8.3c-0.2 1.2-1 3.9-3.6 7.2-2.4 2.7-5.1 5.2-8.2 6.9-6.8 3.7-15.1 3.3-20.6 9.6-6.2 6.2-5.9 15.9 0.2 22s15.8 6.5 22 0.2c6.3-5.5 5.9-13.8 9.6-20.6 1.8-3.3 4.5-6.1 7.4-8.6 3-2.3 5.4-3.2 6.6-3.4 4.6-0.8 8.2 2.2 8.2 2.2l4.7-4.7c-4.3-3.4-8.5-7-12.4-10.9-4.2-4.1-7.9-8.5-11.4-13z"/>
	<path id="path36" d="m446 264.6 5-5s-3-3.5-2.2-8.2c0.2-1.2 1.1-3.8 3.7-7.1 2.4-2.7 5.1-5.2 8.2-6.9 6.8-3.7 15.1-3.3 20.6-9.5 6.2-6.2 5.9-15.8-0.2-22-6.1-6.1-15.8-6.5-22-0.2-6.3 5.5-5.9 13.8-9.5 20.6-1.8 3.3-4.5 6.1-7.4 8.6-3 2.3-5.6 3-6.7 3.2-4.6 0.8-8.3-2.3-8.3-2.3l-5 5c4.5 3.5 8.8 7.3 12.9 11.4 3.9 3.9 7.6 8.1 10.9 12.4z"/>
</g>
<path id="path40" d="m243.3 186.8c-5 0-9.1 4.1-9.1 9.1s4.1 9.1 9.1 9.1 9.1-4.1 9.1-9.1-4.1-9.1-9.1-9.1z" fill="none"/>
<path id="path42" d="m243.6 71.5c-68.9 0-124.7 55.8-124.7 124.7s55.8 124.7 124.7 124.7 124.7-55.8 124.7-124.7c0-68.8-55.8-124.7-124.7-124.7zm0 215.4c-50.1 0-90.7-40.6-90.7-90.7s40.6-90.7 90.7-90.7 90.7 40.6 90.7 90.7-40.6 90.7-90.7 90.7z" fill="#ff9800"/>
<path id="path44" d="m243.6 167.9c-15.6 0-28.3 12.7-28.3 28.3 0 15.7 12.7 28.3 28.3 28.3 15.7 0 28.3-12.7 28.3-28.3 0.1-15.6-12.6-28.3-28.3-28.3zm0 38.5c-5.6 0-10.2-4.6-10.2-10.2s4.6-10.2 10.2-10.2 10.2 4.6 10.2 10.2c0 5.7-4.5 10.2-10.2 10.2z" fill="#ff9800"/>
<g id="g76" transform="translate(-99.3,-148.5)">
	<path id="path46" d="m555.8 307.7-15.4 3.4 0.5-0.3 11.4-6.5s-20.7-11.8-22.7-12.2c-3.5-0.7-71.9 2.7-71.9 2.7l-40.5 2.4-37.8-0.6-65.1-0.7-154.1-2.3-46.3-0.7-4.3-0.1-1.6 5.6 10.9 8.5-14.3-2.6-2.4 7.8-1.7 5.6 5.9 5.4-5.9 1-0.7 22.9 2.9 4.2 8.4 3-11.8 1.3 3.1 12.2 19.8 4.3-19.8 2.8 1.3 5.7 4 17.6 41.4-2.1 48.5-2.5 19.5-1 117 1.3 55.3 0.4 74.3 0.8s68.1 2.6 72.5 0.8c4.7-1.9 23.3-20.3 23.3-20.3l5.8-5.9-8.8-3 13.3-2.7 3.5-3.8 18.3-23.9s4.4-5.1 4.4-7.3c0.2-5.8-40.2-21.2-40.2-21.2z" fill="#0096af"/>
	<g id="g74" fill="#fff">
		<path id="path48" d="m161.9 319.9c-0.1-0.8-0.3-1.5-0.7-2.1s-1.1-1-1.8-1c-5.2 0-10.3-0.5-15.5-0.8-2.2-0.1-4.5 0.7-4.5 3.3v13.8 6.7 6.6c0 5.1 0 10.2-0.3 15.3-0.1 1.5-0.4 2.9-0.4 4.4v0.1c0 0.8 0.3 1.6 0.3 2.5 0 1.1 0.5 2 1.7 2.1 1 0.1 2.2 0 3.2-0.4 0.8-0.3 1.1-1 1.2-1.8 0.2-1 0-2-0.2-3.1-0.4-2.2-0.5-4.6-0.5-6.9v-11.5-6.5c0-4.4-0.1-8.8-0.1-13.2 0-1.3-0.9-4.2 1-4.5 2.6-0.4 5.2-0.5 7.7-0.6 0.8-0.1 1.6-0.4 2.4-0.2 1.2 0.3 0.9 1.6 0.8 2.6-0.2 2.6-0.1 5.2-0.1 7.8 0 6.7 0.1 13.5 0.1 20.2 0 2.3 0.2 4.7 0.2 7 0 1.6 0 3.3-0.1 4.9 0 1-0.5 3.1 0.2 3.9 0.7 0.7 1.9 0.6 2.8 0.6 1.2-0.1 1.7-0.8 2.1-1.8 0.3-1 0.2-2 0.1-3.1-0.2-1.2-0.2-2.4-0.2-3.6 0-2.6 0.1-5.2 0.2-7.8 0.1-1.5 0.1-3 0.2-4.4 0.1-1.8 0.1-3.6 0-5.4-0.2-4.3-0.3-8.7-0.1-13 0.1-1.8 0.1-3.6 0.3-5.3 0-1.5 0.3-3.3 0-4.8z"/>
		<path id="path50" d="m179.3 313.8c-1.2 0.1-2.4 0.4-3.6 0.5-1.1 0-2.3-0.2-3.2 0.4-1.7 1.1-1.2 3.2-1 4.9 0.6 3.4 0.3 6.8 0.3 10.2 0 2.7 0 5.4 0.1 8.2 0.1 5.9 0.1 11.7 0.2 17.6 0.1 4.1 0.4 8.3 0 12.5-0.1 1.2-0.4 2.5 0 3.7 0.4 1.3 4 3.3 4.6 1.3 0.3-1 0-2 0-3 0-6.8 0.3-13.7 0.3-20.5 0-2.3 0-4.7-0.1-7 0-0.9-0.3-2.1 0-3 0.4-1.4 2.5-1.4 3.7-1.5 1.5-0.1 3.2-0.5 4.4-1.6 1.2-1 2.1-2.3 2.8-3.8 2-4.2 2.1-9.9-0.4-13.9-0.6-1-1.5-2.1-2.5-2.8-0.8-0.6-1.8-1.3-2.8-1.7-0.8-0.3-1.7-0.5-2.6-0.4-0.1-0.1-0.2-0.1-0.2-0.1zm5.1 12.1c0.1 1.4-0.2 2.8-0.8 4.2-0.4 0.9-0.9 1.8-1.7 2.4s-1.9 0.7-2.9 0.7c-1.3 0-2.2 0.2-2.4-1.3-0.3-2 0-4 0-6.1 0-1.3-0.1-2.6 0-3.9 0.1-0.8-0.1-1.6-0.1-2.3 0.1-0.9 0.9-0.8 1.6-0.7 1.4 0.3 2.9 1.1 3.9 2.1 1.5 1.4 2.2 3.1 2.4 4.9z"/>
		<path id="path52" d="m217.4 317.4c-0.8-0.5-1.9-0.1-2.7 0.1s-1.8 0.6-2.1 1.5c-0.3 0.8-0.1 1.8-0.1 2.6 0.1 1 0 1.9-0.2 2.9-0.5 3-1.7 5.8-2.5 8.6-1.2 4.2-2.3 8.5-3.7 12.6-0.8 2.4-1.5 4.9-2.6 7.2-0.2 0.4-0.7 1.3-0.8 0.2-0.4-3.7 0-7.6 0.1-11.4 0.1-5.2 0.2-10.4 0.2-15.7 0-1.2 0-2.4 0.1-3.6 0.1-1.1 0.3-2.2 0.2-3.4-0.2-1.9-2.4-1.6-3.7-1.3s-1.7 1.5-1.8 2.7c-0.2 6.2 0 12.4-0.1 18.6 0 6.4-0.1 12.9 0.1 19.4 0.1 2.8 0 5.7 0 8.5 0 1-0.4 2.6 0.6 3.2s2.6 0.7 3.7 0.5c1.2-0.2 1.7-1.4 1.9-2.5 0.4-2 0.7-4 1.3-6 0.6-2.1 1.4-4.1 2.1-6.2 1.7-4.6 2.9-9.2 4.4-13.9 0.1-0.3 0.3-1.4 0.7-1.5s0.1 3.7 0 4c-0.2 2.3-0.3 4.5-0.3 6.8 0 5-0.2 9.9-0.3 14.9 0 1.4-0.2 2.9 1.4 3.3 1 0.2 2.4 0.2 3.2-0.4 1.1-0.8 0.8-2.2 0.8-3.4 0-7 0-14 0.1-21v-5.9c0-5-0.1-10.1 0.3-15.1 0.1-1.3 0.2-2.7 0.3-4 0-0.9 0.1-2-0.6-2.6v0.3z"/>
		<path id="path54" d="m437.1 317.4c-0.8-0.5-1.9-0.1-2.7 0.1s-1.8 0.6-2.1 1.5c-0.3 0.8-0.1 1.8-0.1 2.6 0.1 1 0 1.9-0.2 2.9-0.5 3-1.7 5.8-2.5 8.6-1.2 4.2-2.3 8.5-3.7 12.6-0.8 2.4-1.5 4.9-2.6 7.2-0.2 0.4-0.7 1.3-0.8 0.2-0.4-3.7 0-7.6 0.1-11.4 0.1-5.2 0.2-10.4 0.2-15.7 0-1.2 0-2.4 0.1-3.6 0.1-1.1 0.3-2.2 0.2-3.4-0.2-1.9-2.4-1.6-3.7-1.3s-1.7 1.5-1.8 2.7c-0.2 6.2 0 12.4-0.1 18.6 0 6.4-0.1 12.9 0.1 19.4 0.1 2.8 0 5.7 0 8.5 0 1-0.4 2.6 0.6 3.2s2.6 0.7 3.7 0.5c1.2-0.2 1.7-1.4 1.9-2.5 0.4-2 0.7-4 1.3-6 0.6-2.1 1.4-4.1 2.1-6.2 1.7-4.6 2.9-9.2 4.4-13.9 0.1-0.3 0.3-1.4 0.7-1.5 0.5-0.1 0.1 3.7 0 4-0.2 2.3-0.3 4.5-0.3 6.8 0 5-0.2 9.9-0.3 14.9 0 1.4-0.2 2.9 1.4 3.3 1 0.2 2.4 0.2 3.2-0.4 1.1-0.8 0.8-2.2 0.8-3.4 0-7 0-14 0.1-21v-5.9c0-5-0.1-10.1 0.3-15.1 0.1-1.3 0.2-2.7 0.3-4 0-0.9 0.1-2-0.6-2.6 0.1 0.3 0 0.3 0 0.3z"/>
		<path id="path56" d="m236.4 346.6c0-2 1-3.9 1.9-5.8 1.4-3.1 2.9-6.2 4.4-9.3 0.9-1.7 1.7-3.5 2.6-5.2 0.8-1.7 1.7-3.5 2.5-5.2 0.4-0.8 0.8-1.8 0.6-2.7s-0.9-1.3-1.6-1.7-1.3-1.2-2.1-1.4c-1.1-0.3-1.6 2.3-1.8 2.9-1.5 4.6-3.9 8.8-6 13.1-0.5 1.1-1 2.3-1.5 3.4-0.2 0.4-0.8 2.3-1.4 2.1-0.5-0.2-0.3-2.3-0.3-2.7 0-1.3 0.1-2.7 0.1-4 0.1-2.4 0-4.9 0-7.3 0-1.1 0-2.2 0.1-3.3 0.1-1 0.3-2.1-0.2-3s-1.6-1-2.5-1.1h-1.5c-0.8 0-0.6 0.9-0.6 1.5 0.1 3.6 0 7.1 0 10.7v13c0 4.5-0.1 9-0.2 13.4 0 3.5-0.2 7.1-0.4 10.6-0.1 2-0.5 4-0.1 6 0.2 1.2 1.1 2.3 2.4 2.3 1 0 3.4 0.1 3.9-1.2 0.3-0.8 0.1-1.7 0-2.5-0.1-1.6-0.4-3.2-0.5-4.8-0.1-2.1-0.2-4.3-0.3-6.4 0-0.5-0.5-4.5 0.8-3.7 0.8 0.4 1.3 1.9 1.7 2.6 2.2 4.2 5 8.1 7.4 12.3 0.4 0.8 1 1.5 1.4 2.2 1.3 2.2 3.5 0 5-0.9 1-0.6-0.6-2.3-1-2.9l-1.5-2.4c-2.6-4.3-5.5-8.4-8.1-12.6-0.7-1.2-1.5-2.3-2.2-3.5-0.8-0.8-1-1.7-1-2.5z"/>
		<path id="path58" d="m280 323c-0.1-0.7-0.4-1.4-0.8-1.8-1-1.2-3.6-0.5-4.9-0.3-3.6 0.6-7.5-0.4-10.9 0.7-2.5 0.8-1.8 4.7-1.7 6.6 0.5 9 0.9 18.2 0 27.2-0.2 1.6-0.1 3.3-0.8 4.8-1 2.4-2.7 1.4-4.7 2.1-1.2 0.4-2.6 1.9-2.6 3.2-0.1 2.5 4 4 6 3.6 1.6-0.3 3.1-1.3 4.1-2.6 3-3.6 3.2-9.3 3.5-13.7 0.4-4.4 0.2-8.9 0-13.4-0.1-2.7-0.3-5.5-0.5-8.2-0.1-1.2-0.4-2.5-0.1-3.6 0.5-1.8 3.5-1.3 4.9-1.5 2.6-0.4 3.3 1.2 3 3.6-0.7 4.8-0.4 9.4-0.6 14.2-0.1 3.5-0.5 7.1-0.6 10.6-0.1 4.1 0.2 8.2 0.1 12.3 0 1.4-0.3 3 0.7 4.1 1.4 1.6 4.3 1.7 4.9-0.6 0.4-1.8-0.3-3.7-0.4-5.4-0.2-9.4 0.4-18.9 0.6-28.3 0.1-2.8 0.4-5.6 0.6-8.4 0.3-1.4 0.6-3.5 0.2-5.2z"/>
		<path id="path60" d="m322.5 339.7c0-4.6-0.2-9.2-1.3-13.6-0.5-2.1-1.3-4-2.4-5.4-2.3-2.9-7-2.8-9.6-0.6-3.4 2.8-4.3 7.4-4.7 11.6-0.2 2.6-0.2 5.1-0.2 7.7v2.1c0 2.2-1.3 1.8-3.2 1.8-1.1 0-3.5 0.3-4.5-0.5-0.9-0.7-0.6-2-0.7-3 0-1.7-0.2-3.5-0.3-5.2-0.1-1.2 0-2.4-0.1-3.6-0.2-1.8-0.1-3.5 0-5.3 0.1-1.5 0.5-3.4 0-4.9-0.6-1.6-4.4-2.6-5.3-0.7-1 2-0.2 5.4-0.1 7.6 0.2 4.5 0.5 9.1 0.6 13.6 0.2 5 0.4 9.9 0.6 14.9 0.1 2.5 0.2 5 0.2 7.5 0 2.1-0.6 8.5 3.5 6.7 2.7-1.1 2-4.5 1.8-6.8-0.2-2.8-0.4-5.5-0.6-8.3-0.1-1.4-0.8-5.5 0.6-6.6 1-0.7 3.9 0 5.1 0 0.8 0 1.7-0.3 2.2 0.5 0.7 1 0.2 3.7 0.4 4.9 0.3 2.1 0.7 4.2 1.3 6.2 1.2 3.7 3.5 7.2 7.4 8.4 1.5 0.5 4.2-0.1 5.4-1.1s1.9-2.6 2.4-4c1.2-3.2 1.3-6.5 1.3-9.9v-5.2c0.3-2.8 0.2-5.8 0.2-8.8zm-4.7 3c-0.1 4.2-0.4 8.3-0.6 12.4v0.3c-0.1 2 0.3 8.1-2.8 8.3-2.2 0.2-3.3-4.3-3.6-5.9-0.6-3-0.9-6.1-1-9.2-0.1-5.3 0-10.6 0.3-15.9 0.1-2.4-0.2-8.9 3.5-8.9 0.8 0 1.5 0.6 2 1.3 3.2 4.4 2.3 12.4 2.2 17.6z"/>
		<path id="path62" d="m352.5 349.6c0-1.4 0-2.8-0.1-4.1-0.1-4.4-0.7-8.7-0.9-13.1-0.1-2.2-0.1-4.4 0.1-6.6 0.1-1.7 0.6-3.7-0.4-5.3-1.1-1.8-4.8-2.1-5.4 0.4-0.7 3.4 0.3 7.5 0.5 10.9 0.2 3.5 0.4 6.9 0.5 10.4 0.1 3.2 0.1 7.7-3.4 9.2-5.8 2.5-6.8-12.4-6.8-15.6v-0.1c0-3.6 0-7.1 0.1-10.7 0.1-2.1 0.6-5.3-2.3-5.9-3.1-0.6-3.3 2.5-3.1 4.7 0.2 3.2 0 6.4 0 9.6 0 2.3 0.1 4.5 0.2 6.8 0.2 2.9 0.7 7.3 2.1 11.1 0.7 1.9 1.6 3.6 2.9 4.8 3.1 3.1 7.2 1 10.6 0 0.5 1.5 0.4 3.2 0.4 4.8 0 1.5-0.1 2.9-0.2 4.4-0.1 1.3-0.5 2.8 0 4.1 0.7 1.8 2.9 1.4 4.3 0.5 1.5-1 1.4-2.8 1.3-4.4 0-2.2-0.2-4.5-0.4-6.7v-9.2z"/>
		<path id="path64" d="m378.4 317c-1.8-0.6-3.7-0.5-5.6-0.6-2-0.2-4-0.3-6-0.3-0.6 0-1 0.1-1.4 0.3-0.6 0.3-0.8 0.9-0.9 1.5-0.3 1-0.1 2-0.1 3s0 2 0.1 3v7c0 4.9-0.1 9.8-0.1 14.7-0.1 5-0.1 9.9-0.2 14.9 0 2.7-0.1 5.5-0.1 8.2 0 1-0.1 1.9-0.3 2.9-0.1 0.6-0.2 1.3 0.3 1.8 0.8 0.8 2.1 0.6 3.1 0.6 2.6 0 5.3-0.2 7.9-0.5 1.3-0.1 2.8 0 3.3-1.5 0.3-1 0.4-3.2 0.2-4.3-0.1-0.6-0.7-1.5-1.3-1.5-2.1 0-4.3 0.9-6.4 1.1-0.8 0.1-1.7 0.4-1.8-0.7-0.1-0.9 0.3-1.7 0.4-2.5 0.2-2 0.1-3.9 0.1-5.9 0-1.4-0.2-2.7-0.3-4.1-0.1-1-0.4-2.2-0.1-3.2 0.4-1.1 1.4-1 2.3-0.9 1.5 0.1 2.9 0.4 4.4 0.5s2.8-0.4 2.5-2.2c-0.2-1.1-0.3-2.8-1.5-3.3-1.4-0.6-3.2 0.2-4.6 0.4-1.2 0.2-2.5-0.1-2.9-1.4-0.3-1.2-0.2-2.4-0.2-3.6s-0.1-2.3-0.1-3.5c0-1.9 0.1-3.7 0.2-5.6 0.1-1.5 0.2-3 0.1-4.5 0-0.8-0.1-1.5-0.2-2.3-0.1-0.4-0.3-1.2 0.2-1.4 0.4-0.2 1 0.1 1.5 0.1 1.4 0.1 2.8 0.4 4.2 0.6 1 0.2 2.6 0.6 3.6 0 1.3-0.8 1.8-2.9 1.5-4.4-0.5-1.5-1-2.1-1.8-2.4z"/>
		<path id="path66" d="m406.8 323.8c0-0.8 0-1.7-0.6-2.1-0.7-0.5-1.6-1.1-2.4-1.1-0.4 0-0.8 0.2-1 0.5-0.8 0.7-0.9 2-0.9 3v10.7c0 2.8-0.1 5.7-0.1 8.5v0.1 2.9 0.1c0 0.6 0 1.1-0.7 1-0.8-0.1-1.6-0.2-2.4-0.2-0.7 0-1.4-0.1-2.1 0-1.4 0.3-1.8 0.1-2-1.4-0.1-0.6-0.1-1.1-0.1-1.7-0.1-1.5-0.1-2.9-0.1-4.4 0-2.7 0.2-5.4 0.2-8.1 0-1.3 0.1-2.5 0.2-3.8 0-1.1 0.1-2.1 0.1-3.2 0-0.8 0.1-1.6 0.1-2.3v-1c-0.4-1.6-3.8-1.1-4.7-0.5-1.1 0.7-1.5 2.2-1.7 3.5-0.2 1.4-0.1 2.8 0.1 4.2 0.3 2.9 0.7 5.9 0.7 8.9v2.6 2.7 7.9c0 4.2 0.4 8.4 0.4 12.7 0 1.2-0.1 2.4-0.2 3.6-0.1 0.8-0.3 1.9 0.2 2.6 0.7 1 2.3 0.6 3.3 0.5 1.2-0.2 2-0.7 2-2v-0.1c0-1.1-0.2-2.2-0.3-3.4-0.1-1.8-0.1-3.7-0.2-5.5-0.1-1.6-0.8-4.3 0.3-5.7 0.4-0.5 1.1-0.9 2-1.1 0.8-0.2 1.8-0.3 2.6-0.3 0.7 0 1.8-0.1 2.4 0.6s0.5 1.7 0.4 2.6c-0.1 1-0.1 1.9-0.2 2.9-0.1 2-0.4 4-0.4 6.1-0.1 1.5-0.7 4.5 0.6 5.7 0.7 0.7 1.8 0.3 2.6 0 0.7-0.2 1.5-0.3 1.9-1.1 0.8-1.9 0.6-4.1 0.4-6.1-0.2-2.1-0.2-4.1-0.2-6.2 0-2.3 0.1-4.6 0.1-6.9 0.1-4.5 0.1-9 0.2-13.6v-9.2c-0.5-1.1-0.5-2-0.5-2.9z"/>
		<path id="path68" d="m507.6 323.8c0-0.8 0-1.7-0.6-2.1-0.7-0.5-1.6-1.1-2.4-1.1-0.4 0-0.8 0.2-1 0.5-0.8 0.7-0.9 2-0.9 3 0 3.6 0.1 7.1 0.1 10.7v8.5 0.1 2.9 0.1c0 0.6-0.1 1.1-0.8 1-0.8-0.1-1.6-0.2-2.4-0.2-0.7 0-1.5-0.1-2.2 0-1.4 0.3-1.8 0.1-2-1.4-0.1-0.6-0.1-1.1-0.1-1.7-0.1-1.5-0.1-2.9-0.1-4.4 0-2.7 0.2-5.4 0.2-8.1 0-1.3 0.1-2.5 0.2-3.8 0-1.1 0.1-2.1 0.1-3.2 0-0.8 0.1-1.6 0.1-2.3v-1c-0.4-1.6-3.8-1.1-4.7-0.5-1.1 0.7-1.5 2.2-1.7 3.5-0.2 1.4-0.1 2.8 0.1 4.2 0.3 2.9 0.7 5.9 0.7 8.9v2.6 2.7 7.9c0 4.2 0.4 8.4 0.4 12.7 0 1.2-0.1 2.4-0.2 3.6-0.1 0.8-0.3 1.9 0.2 2.6 0.6 1 1.9 0.6 2.9 0.5 1.2-0.2 1.6-0.7 1.6-2v-0.1c0-1.1 0.2-2.2 0.1-3.4-0.1-1.8 0.1-3.7 0-5.5-0.1-1.6-0.7-4.3 0.4-5.7 0.4-0.5 1.2-0.9 2-1.1s1.8-0.3 2.6-0.3c0.7 0 1.9-0.1 2.4 0.6 0.6 0.7 0.5 1.7 0.4 2.6-0.1 1-0.1 1.9-0.2 2.9-0.1 2-0.3 4-0.4 6.1-0.1 1.5-0.7 4.5 0.6 5.7 0.7 0.7 1.8 0.3 2.6 0 0.7-0.2 1.5-0.3 1.9-1.1 0.8-1.9 0.6-4.1 0.4-6.1-0.2-2.1-0.2-4.1-0.2-6.2 0-2.3 0.1-4.6 0.1-6.9 0.1-4.5 0.1-9 0.2-13.6v-9.2c-0.4-1.1-0.4-2-0.4-2.9z"/>
		<path id="path70" d="m468.2 319.3c-0.1-0.3-0.3-0.6-0.6-0.9-0.9-0.7-2.5-0.6-3.6-0.5-2.5 0.1-5.2 0.8-7.3 2.1-1.8 1.1-3.3 2.7-4.8 4.2-2.5 2.7-4.1 5.9-4.6 9.6-0.1 1.1-0.2 2.2-0.1 3.2 0.2 2.1 0.9 4.2 1.6 6.1 0.8 2.2 1.5 4.8 3.1 6.6 0.8 0.9 1.9 1.6 2.9 2.2 0 0-4.3 7.6-4.6 8.3l-2.4 4.5c-0.4 0.7-0.6 1.3-0.9 1.8-0.2 0.5-0.5 1-0.2 1.6s1 1 1.6 1.3c0.8 0.5 2.2 1.1 3.1 0.7 0.5-0.2 0.7-0.9 1-1.3 0.3-0.7 0.7-1.4 1-2.1 1.4-3.3 3-6.5 4.6-9.6 0.3-0.6 0.6-1.1 0.9-1.7 0.2-0.3 0.3-0.6 0.5-0.9 0.2-0.4 0.8-0.4 1.2-0.3 0.2 0.1 0.5 0.1 0.7 0.1s0.6 0 0.7 0.1c0.2 0.2 0.1 0.8 0.1 1v1.5c0 2.9 0.1 5.8-0.1 8.6-0.1 1.2-0.6 3.1 0.4 4.1 1.2 1.2 5.4 1 5.3-1.1-0.1-1.6-0.3-3.3-0.5-5-0.4-4.2 0-8.6-0.1-12.8-0.1-4.5-0.2-9 0-13.5 0.1-2.5 0.2-5 0.4-7.5 0.2-2.2 0.4-4.4 0.6-6.7 0.2-1.1 0.5-2.6 0.1-3.7zm-10 28.6c-1.3-0.8-2.3-2-3-3.4-1.3-2.3-2.6-5.1-2.6-7.8 0-1.5 0.3-3.2 0.9-4.5 0.5-1.1 1.3-2.3 2.1-3.2 1.6-1.8 4.1-3.8 6.5-4.2 0.2 1.1 0 2.3 0 3.4 0 2.1 0.1 4.3 0.1 6.4v6.7 3.7c0 1.1 0.2 2.2 0.1 3.3s-1.1 0.6-1.8 0.4c-0.8-0.2-1.6-0.4-2.3-0.8z"/>
		<path id="path72" d="m537.4 351.2c-0.1-4.4-0.6-8.8-1.4-13-0.7-3.4-1.5-7.1-3.2-10.1-1.5-2.6-3.6-4.2-6.1-5.6-3-1.7-7.9-2.4-10.8-2.4-2.1 0-2.1 1.7-1.9 3.3 0.5 5.3 0.5 10.4 0.7 15.7 0.2 5.2 0.4 10.2 0.6 15.4l0.3 8.7c0.1 2.3 0.2 4.5 0.4 6.7 0.1 1 0.2 2.1 1 2.8 0.9 0.7 2.3 0.6 3.3 0.4 4.3-0.8 9.6-3.6 12.2-7.1 2.1-2.8 4-6 4.7-9.5 0.2-1.8 0.2-3.5 0.2-5.3zm-5.3-4c0 2.1-0.1 4.1-0.5 6.2-0.7 3.7-2.1 7.8-4.7 10.6-0.9 1-4 2.4-5.5 2.1-1.4-0.3-0.8-3.9-0.8-4.8-0.1-2.4-0.2-4.7-0.3-7.1-0.4-6.4-0.6-12.8-1-19.2-0.1-1.4-0.2-2.9-0.2-4.5-0.1-1.2 0-1.9 0-3.4 0-0.5-0.1-1.1 0.3-1.5 0.8-0.7 2.8 0.8 3.5 1.2 1 0.6 2.2 1.2 3.1 1.9 2.6 2.2 4 6.2 4.8 9.4 0.7 2.9 1.2 6 1.3 9.1z"/>
	</g>
</g>
</svg>
