<?xml version="1.0" encoding="UTF-8"?>
<svg id="svg33" width="1783.8pt" height="312.55pt" version="1.1" viewBox="0 0 1783.8 312.55" xmlns="http://www.w3.org/2000/svg" xmlns:cc="http://creativecommons.org/ns#" xmlns:dc="http://purl.org/dc/elements/1.1/" xmlns:rdf="http://www.w3.org/1999/02/22-rdf-syntax-ns#">
 <metadata id="metadata39">
  <rdf:RDF>
   <cc:Work rdf:about="">
    <dc:format>image/svg+xml</dc:format>
    <dc:type rdf:resource="http://purl.org/dc/dcmitype/StillImage"/>
    <dc:title/>
   </cc:Work>
  </rdf:RDF>
 </metadata>
 <g id="#b70405ff" transform="translate(-168.5 -187.44)">
  <path id="path21" d="m168.5 187.44h658.52v312.55h-658.52v-312.55" fill="#b70405"/>
 </g>
 <g id="#66b2fdff" transform="translate(-168.5 -187.44)">
  <path id="path28" d="m827.02 187.44h1125.3v312.55h-1125.3v-312.55" fill="#66b2fd"/>
 </g>
 <g id="#ffffffff" transform="translate(-168.5 -187.44)" fill="#fff">
  <path id="path2" d="m418.75 233.94c28.44-4.72 57.5-6.47 86.22-3.56 17.04 1.92 34.41 7.65 47.01 19.72 9.71 9.22 16.1 21.71 18.04 34.94 1.67 9.95 1.51 20.12 0.45 30.13-2.06 18.77-12.6 36.47-28.23 47.09-14.87 10.45-33.32 14.28-51.21 14.97-9.68 0.54-19.375 0-29.035-0.72v75.985h-43.245v-218.56m42.96 32.31v74.459l5.25 0.42118c11.28 0.79 22.87 0.93 33.82-2.28 8.14-2.43 15.91-7.38 19.95-15.06 5.65-11.07 7.02-24.48 2.92-36.28-2.79-8.03-8.82-15.01-16.74-18.3-14.21-6.22-30.22-4.73-45.2-2.96z"/>
  <path id="path4" d="m664.56 229.79c18.31-1.88 37.46-1.09 54.58 6.32 17.57 7.34 31.69 21.65 40.13 38.59 8.69 17.42 12.27 36.97 13.24 56.3 1.06 24-0.48 48.67-9.44 71.22-6.43 16.57-17.63 31.57-32.71 41.18-15.2 9.66-33.48 13.55-51.34 13.11-18.99 0.45-38.4-4.47-53.96-15.6-14.25-10.18-24.1-25.52-29.95-41.84-6.92-19.52-8.87-40.45-8.61-61.06 0.45-18.89 2.93-38.01 10.05-55.63 6.1-15.14 15.95-29.08 29.44-38.46 11.37-7.9 24.78-12.85 38.57-14.13m4.97 38.08c-11.84 2.24-21.86 10.66-27.4 21.19-7.66 14.34-9.51 30.95-9.9 46.97-0.37 14.41 0.17 29.02 3.96 43.01 2.23 8.23 5.28 16.42 10.5 23.26 5.48 7.36 13.35 13.21 22.44 15.12 13.7 2.99 29.36 0.32 39.74-9.62 9.42-8.71 13.71-21.42 15.99-33.72 3.64-21.81 3.71-44.37-1.22-65.98-3.06-12.66-8.57-25.52-19.18-33.65-9.77-7.64-23.09-8.82-34.93-6.58z"/>
  <path id="path6" d="m1248.4 241.59c20.65-8.85 43.22-13.09 65.67-12.57 14.9 0.6 30.37 2.04 43.75 9.17 10.48 5.48 19.56 14.39 23.48 25.73 5.85 17.92 3.53 39-8.24 54.08-6.09 8.03-15.49 12.35-24.26 16.75 5.44 2.45 11.3 3.92 16.58 6.78 9.59 4.66 17.28 12.98 21.35 22.82 4.32 10.28 5.21 21.7 4.23 32.72-1.44 17.3-11.35 33.45-25.55 43.28-15.89 10.92-35.37 15.38-54.42 16-22.91 0.59-46.32-2.03-67.62-10.87l10.63-37.24c19.16 6.87 39.6 12.49 60.12 9.56 7.54-1.26 15.57-2.99 21.31-8.43 8.64-7.92 12.49-21.06 8.53-32.23-1.94-6.05-6.61-10.96-12.22-13.8-5.78-3-12.24-4.3-18.62-5.21-12.61-1.76-25.355-1.35-38.035-1.95v-35.42c10.63-0.04 21.325 0.24 31.885-1.17 9.51-1.3 19.05-4.84 26.02-11.63 7.21-7.53 7.65-19.75 2.86-28.68-2.05-4.24-6.28-6.81-10.37-8.77-8.64-3.67-18.24-3.76-27.46-3.44-13.51 0.75-26.12 6.08-38.88 10.06z"/>
  <path id="path8" d="m1801.2 243.22c14.28-8.83 30.97-13.48 47.72-14 19.12-0.98 38.56 0.93 56.7 7.26l2.1507 0.79108-8.251 35.489c-18.28-5.2-37.85-8.31-56.62-3.87-17.12 4.01-30.85 18.04-36.26 34.54-6.72 20.42-6.9 42.49-3.5 63.56 2.96 16.47 11.15 32.9 25.44 42.32 13.93 8.97 31.42 10.89 47.52 8.13 9.01-1.57 17.77-4.52 25.95-8.63l8.64 34.98c-16.94 10.34-37.26 12.25-56.66 12.72-17.97-0.08-36.33-3.45-52.09-12.43-15.93-9.12-28.12-23.98-35.45-40.69-7.35-16.42-10.41-34.46-10.96-52.35-1.01-21.9 1.3-44.35 9.76-64.74 7.26-17.51 19.53-33.26 35.91-43.08z"/>
  <path id="path10" d="m224.88 233.26h162.61v219.12h-43.49v-181.12h-75.745v181.12h-43.375v-91.3z"/>
  <path id="path12" d="m883.58 233.44h134.69v37.405h-91.575v45.75c18.63-2.29 37.85-3.48 56.35 0.4 9.97 2.21 20.01 5.46 28.19 11.77 12.3 9.39 20.19 24.04 22.01 39.34 2.43 18.08 0.77 37.47-8.53 53.51-6.85 11.99-18.2 20.9-30.78 26.29-14.77 6.29-30.98 8.68-46.97 8.35-21.1 0.32-42.535-1.49-63.385-4.69v-218.12m43.115 118.46v67.36c12.11 1.59 24.51 3.02 36.51-0.04 8.26-2.11 16.36-6.67 20.78-14.19 5.35-8.97 5.74-20.03 3.94-30.08-1.61-9.51-8.3-18.19-17.49-21.43-14.05-4.95-29.28-3.88-43.74-1.62z"/>
  <path id="path14" d="m1054 233.46h43.27l2e-4 112.76-2.7202 34.93 20.06-35.59 77.55-112.1h32.77v218.63h-43.69v-115.74l1.96-32.6-17.99 32.6-78.25 115.74h-32.96z"/>
  <path id="path16" d="m1412.5 233.42h43.21v89.33h79.495v-89.33h43.28v218.68h-43.28v-91.335h-79.495v91.335h-43.21z"/>
  <path id="path18" d="m1610.2 233.24h129.94v37.76h-86.385v51.9h78.965v37.595h-78.965v53.89h87.915v37.755h-131.47z"/>
 </g>
</svg>
