<?xml version="1.0" encoding="UTF-8"?>
<svg id="Layer_1" version="1.1" viewBox="-213 448.4 595.3 129.2" xmlns="http://www.w3.org/2000/svg" xmlns:cc="http://creativecommons.org/ns#" xmlns:dc="http://purl.org/dc/elements/1.1/" xmlns:rdf="http://www.w3.org/1999/02/22-rdf-syntax-ns#">
 <metadata id="metadata19">
  <rdf:RDF>
   <cc:Work rdf:about="">
    <dc:format>image/svg+xml</dc:format>
    <dc:type rdf:resource="http://purl.org/dc/dcmitype/StillImage"/>
    <dc:title/>
   </cc:Work>
  </rdf:RDF>
 </metadata>
 <link id="dark-mode" href="" rel="stylesheet" type="text/css"/>
 <path id="path4" class="st0" d="m-104 466.1c0.6-1.3 0.6-1.3 3.9-9.2-7.9-0.9-12.1-1.6-19-1.5-8.9-4.4-18.8-7-29.3-7-35.7 0.1-64.6 28.9-64.6 64.6s28.9 64.6 64.6 64.6 64.6-28.9 64.6-64.6c0-18.5-7.7-35.1-20.2-46.9" fill="#fff"/>
 <path id="path6" class="st1" d="M-108.7 475.1c-.1-.1-.3-.1-.4-.1s-.3.1-.4.1c-2.7 3.1-5.8 5.9-9.2 8.1-6.8 4.3-14.5 6.7-22.7 6.7-15.1 0-23.7-7.4-30.8-12.7-.1-.1-.3-.3-.3-.4s.1-.3.3-.4c11-8.3 19.9-13.6 28.9-16.7.3-.1.4-.3.4-.6s-.3-.4-.6-.6c-1.6-.1-3.3-.1-4.9-.1-30.4-.1-55 24.4-55 54.8 0 16.7 7.4 31.7 19.3 41.8.1.1.3.1.6.1.1 0 .3-.1.4-.4l2.2-7.1c.1-.3.4-.4.7-.4 29.3 6.4 41.9-9.5 39.9-19.4-1.7-8.7-15.5-16.1-35.7-4.7-.1.1-.3.1-.4 0l-.1-.1c-.1-.1-.3-.3-.3-.6l6.8-34.8c0-.1.1-.3.3-.4.1-.1.4 0 .6 0 1.9 1.2 7.7 4.9 13.9 8.6.1.1.3.3.3.6-.1 1.5-1 7-1.3 9.3 0 .1 0 .4.1.6s.3.1.6.1c33.8-9 40.9 12.1 40 22.4-2.1 22.8-27.4 35-49.9 35.3-.3 0-.6.1-.6.4 0 .3.1.6.4.6 5.5 1.8 11.3 2.8 17.2 2.8 30.4 0 55-24.6 55-55 0-14.5-5.8-27.9-15.3-37.8" fill="#ed2d24"/>
 <path id="path8" class="st2" d="m-162.6 476.6c18.2 13.8 44.9 6.8 53.8-14.7-16.5 7.9-34.7 12.9-53.8 14.7" fill="#8bc53f"/>
 <path id="path10" class="st3" d="m-162.5 476.6c19.1-1.6 37.3-6.7 53.8-14.7-18.5-2-37.9 2.6-53.8 14.7" fill="#00af4c"/>
 <path id="path12" class="st1" d="M116 499c-7 0-11.1 4.4-14.5 9.9h-.1c0-5.6-2.2-9.9-8.6-9.9-7.6 0-11.6 5.6-14.2 10.4h-.1c.4-1.8.9-4.3 1.3-6.4.1-.7-.1-1.5-.6-1.9-.4-.6-1.2-.9-1.9-.9h-7.6l-6.8 38.1c-.1.6 0 1.3.4 1.9.4.4 1 .7 1.8.7h8l.6-3.4c4-22.7 9.5-28.9 13.9-28.9 3.1 0 3.6 3 2.8 7l-4.1 22.2c-.1.7 0 1.5.6 2.1.4.6 1.2.9 1.9.9h7.9l.6-3.4c4-22.5 9.5-28.9 13.9-28.9 3 0 3.4 2.8 2.7 7l-4.1 22.8c-.1.6 0 1.2.4 1.8.4.4 1 .7 1.6.7h8.1l4.6-25.8c.4-2.1.6-4 .6-5.6-.2-7-3.4-10.4-9.1-10.4m45.5-8.8l3.6.6c1 .1 1.9.3 2.2-1.3l1.2-4.4c.3-1.3-.1-1.6-1.5-1.9l-3.3-.6c-.7 0-1.9-.3-2.2 1.3l-1.3 4.6c-.1 1 .1 1.6 1.3 1.7M57.7 500H42.1c-11.6 0-19.3 4.9-19.3 14.1 0 4.9 3.4 8 6.8 8.3v.1c-1.3.4-2.8 2.2-4.4 4.1-2.8 3.6-4.9 5.9-6.7 5.9-.3 0-.6.3-.7.6l-.9 6.4c0 .3 0 .6.3.7.1.1.4.3.7.3h3.3c5.3 0 7.1-2.1 12.3-8.6 4-5.3 5.5-7 8-7h1.8l-2.5 14.4c0 .3 0 .6.1.7.1.3.4.3.7.3h9c.4 0 .9-.3.9-.7l7-38.8c0-.3 0-.6-.1-.7-.1.1-.4-.1-.7-.1m-12.9 17.8h-5.6c-3.6 0-5.2-1.2-5.2-3.6 0-4 2.5-6.1 7.4-6.1h5.2l-1.8 9.7zm-14.1-36.6c43.3-1.8 111.6 6.2 111.6 6.2.9.1 1.6-.3 1.9-1l.7-2.2 1.2-3.7c.1-.3 0-.4-.1-.7-.1-.1-.3-.3-.6-.4-8.4-1.2-70.8-9.2-116.3-8.1-42.7 1-78.5 9.5-88.2 12-.7.1-1.3.7-1.5 1.6l-1 5.5c0 .3 0 .6.3.7.1.1.4.3.7.1 7.7-1.8 18.5-3.6 32.7-5.3l-9.5 53c-.3.9-.3 1.9 1.5 1.9h9.2c.6 0 1.3-.1 1.6-1.6l8.9-51.3c0-.1.6-2.8 3.6-3.6 3.9-.4 10.5-.7 14.5-1.2L-8 538.8c-.3 1.9.6 1.8 1.3 1.8h9.6c.7 0 1.9-.1 2.2-1.9l9.3-53.5s.6-2.8 3.6-3.4c4.9-.2 8-.5 12.7-.6m119.4 7.5l4 .6c1 .1 1.9.3 2.4-1.3l1.3-4.6c.3-1.5-.1-1.8-1.5-2.1l-3.7-.4c-.7-.1-1.9-.3-2.4 1.3l-1.3 4.7c-.3 1 0 1.6 1.2 1.8m15.6 20.8c0-6.7-4.7-10.5-12.4-10.5-13 0-23.4 11.3-23.4 26.5 0 9.6 5.3 16.3 15.6 16.3 8 0 13.2-3.1 16.3-5.9l-4.3-7.3c-2.5 2.2-6.1 4.3-10.4 4.3-4.4 0-6.2-2.8-6.4-7.4 13.6-1.5 25-6.1 25-16m-24.3 9c1.5-5.9 4.9-11.3 10.1-11.3 2.5 0 3.9 1 3.9 3.4-.1 4.4-5.7 7.2-14 7.9M198 499c-7.1 0-10.8 4.9-14.2 10.7h-.1c.4-1.5.7-2.8 1-4.3.3-1.3 0-2.7-.9-3.7s-2.1-1.6-3.4-1.6h-5.2l-10.8 59h6.1c2.7 0 5-1.9 5.5-4.6l2.4-13.2c.9.3 2.7.6 5.6.6 14.1 0 24.3-11.4 24.3-29 0-8.6-4-13.9-10.3-13.9m-13.9 34.6c-2.4 0-3.6-.3-4.1-.4l.4-2.2c3.1-15 8.3-22.5 13.2-22.5 2.5 0 3.7 2.4 3.7 6.1-.2 11.8-6 19-13.2 19m184-34.6c-15.1 0-25.6 12-25.6 29.5 0 8.4 4.3 13.3 10.5 13.3 6.7 0 10.7-4.9 13.8-10.8h.1c-.4 1.8-.7 4-1 6.1-.1.9.1 1.9.9 2.7.6.7 1.5 1 2.5 1h7c.1-3 .6-9.6 2.5-20.9l3.4-18.5c-1.8-.9-6.9-2.4-14.1-2.4m1.9 10.8c-2.8 15.3-8.1 22.5-12.6 22.5-2.5 0-3.7-2.1-3.7-5.9 0-11.4 6.1-19.4 12.7-19.4 1.6 0 3.1.3 3.9.4l-.3 2.4zm-41.8 14.9c-1.2-2.4-2.4-4-3.6-5l17.9-19.7h-9.8c-1.6 0-3.3.7-4.4 2.1l-12.6 14.5h-2.2l2.4-13.3c.1-.7 0-1.6-.6-2.2-.4-.6-1.3-1-2.1-1h-7.7l-7.3 40.7h7.9c1.8 0 3.3-1.3 3.6-3l2.5-13.8h1.2c2.4 0 3.9 2.5 6.4 8 3 6.4 4.4 8.7 9.6 8.7h4.3l1.5-8.1h-.9c-2.1 0-3.6-2.5-6.1-7.9m-44.1-22.2c-1.6 10.4-7 17.2-12.1 17.2-2.7 0-3.6-1.9-2.8-6.4l1.3-8c.1-1.3-.1-2.7-1-3.7s-2.1-1.6-3.4-1.6h-5.5l-2.5 13.8c-.3 1.8-.4 3.6-.4 5 0 6.8 3.3 10.5 9 10.5 7.3 0 12-4.7 15-9.9h.1c-1.2 6.2-2.8 15.4-3.4 21.2h10.5c.1-3 .9-9.6 2.8-20.9l3.6-19.9h-10.8l-.4 2.7zm-48.6-3.5c-13.2 0-23.1 11.7-23.1 25.9 0 9.3 5.8 17 16.3 17 13.5 0 22.8-11.1 22.8-25.8 0-9.9-5.8-17.1-16-17.1m-5.8 34.3c-4.1 0-6.2-3.6-6.2-8.9 0-7.6 4.3-17.2 11.1-17.2 4.1 0 6.2 3.1 6.2 8.7-.2 7.7-4 17.4-11.1 17.4" fill="#ed2d24"/>
</svg>
