<?xml version="1.0" encoding="UTF-8"?>
<!-- Created with Inkscape (http://www.inkscape.org/) -->
<svg id="svg2" width="498.47" height="351.4" version="1.1" viewBox="0 0 498.47 351.4" xml:space="preserve" xmlns="http://www.w3.org/2000/svg" xmlns:cc="http://creativecommons.org/ns#" xmlns:dc="http://purl.org/dc/elements/1.1/" xmlns:rdf="http://www.w3.org/1999/02/22-rdf-syntax-ns#"><metadata id="metadata8"><rdf:RDF><cc:Work rdf:about=""><dc:format>image/svg+xml</dc:format><dc:type rdf:resource="http://purl.org/dc/dcmitype/StillImage"/><dc:title/></cc:Work></rdf:RDF></metadata><g id="g10" transform="matrix(1.3333 0 0 -1.3333 -349.83 568.02)"><path id="path24-0" d="m582.44 406.18c0-10.954-8.863-19.826-19.826-19.826-10.959 0-19.802 8.872-19.802 19.826 0 10.945 8.843 19.835 19.802 19.835 10.963 0 19.826-8.89 19.826-19.835zm-19.521-48.944h-0.149c-20.153 0-37.794-11.09-48.148-27.464-0.45699-0.756-1.044-1.413-1.76-1.873-0.766-0.51099-1.642-0.78399-2.591-0.78399-2.035 0-3.797 1.34-4.59 3.232-0.83601 2.024-0.313 3.853 0.431 5.763 8.962 24.004 31.251 40.801 56.658 40.801h0.284c25.411 0 47.694-16.797 56.652-40.801 0.726-1.91 1.254-3.739 0.407-5.763-0.774-1.892-2.527-3.232-4.584-3.232-0.935 0-1.825 0.273-2.569 0.78399-0.724 0.46-1.283 1.117-1.76 1.873-10.351 16.374-28.003 27.464-48.146 27.464z" fill="#ffc20f"/><path id="path24" d="m469.56 327.79c0 10.961-8.886 19.827-19.819 19.827-10.973 0-19.842-8.866-19.842-19.827 0-10.936 8.869-19.815 19.842-19.815 10.933 0 19.819 8.879 19.819 19.815zm-19.819-32.27h-0.172c-20.13 0-37.795 11.082-48.134 27.455-0.463 0.758-1.044 1.419-1.762 1.882-0.744 0.493-1.645 0.789-2.57 0.789-2.052 0-3.793-1.347-4.609-3.253-0.839-2.018-0.293-3.853 0.424-5.748 8.957-23.995 31.256-40.813 56.651-40.813h0.292c25.424 0 47.711 16.818 56.676 40.813 0.706 1.895 1.216 3.73 0.412 5.748-0.809 1.906-2.553 3.253-4.624 3.253-0.936 0-1.809-0.296-2.543-0.789-0.738-0.463-1.31-1.124-1.784-1.882-10.317-16.373-27.982-27.455-48.137-27.455zm86.673-93.994c-1.511 12.215-1.158 20.491 1.275 31.768 0.549 2.544 0.585 4.393-1.604 5.649-1.4 0.629-2.823 0.482-4.175-0.047-4.133-1.87-4.451-6.238-5.714-10.643-8.442-29.774-31.433-55.509-62.978-59.13-5.085-0.319-9.669 0.461-14.583 1.994-3.516 1.521-7.445 4.122-5.015 9.218 1.571 3.259 0.927 5.154-0.483 5.938-1.571 0.866-4.294 0.217-5.182-2.786-2.41-8.248 0.449-13.406 5.523-16.47 18.125-10.889 44.763-0.373 58.975 11.757 10.944 9.301 21.843 22.948 25.653 39.389-0.09-1.905-0.16-2.319-0.196-3.28-0.146-6.995-0.146-12.526 1.827-19.441 1.129-3.412 3.378-6.31 7.197-7.09 4.916-0.22 9.173 3.049 11.716 7.069 0.577 0.923 1.104 1.873 1.607 2.842l0.522 1.013 0.489 1.034 0.498 1.06 0.487 1.08 0.46 1.09 0.452 1.108 0.457 1.087 0.405 1.105 0.414 1.112 0.389 1.067 0.368 1.071 0.362 1.059c0.534 2.127 1.07 4.283 1.582 6.409-0.364-2.25-0.475-4.491-0.341-6.748l0.05-1.035 0.024-1.064 0.049-1.078 0.068-1.101 0.087-1.112 0.063-1.119 0.132-1.132 0.15-1.121 0.159-1.117 0.168-1.109 0.193-1.104 0.234-1.084 0.253-1.074 0.269-1.018 0.317-1.014 0.328-0.965 0.374-0.929 0.39-0.885 0.448-0.859 0.476-0.773 0.524-0.76 0.573-0.678 0.581-0.604 0.221-0.211 0.267-0.196 0.244-0.201 0.293-0.198 0.291-0.193 0.293-0.177 0.329-0.183 0.349-0.154 0.328-0.179 0.345-0.144 0.365-0.146 0.374-0.14 0.365-0.116 0.375-0.123 0.403-0.084 0.367-0.092 0.389-0.049 0.386-0.049 0.39-0.027 0.376-0.02 0.395 0.02 0.389 0.036 0.363 0.06 0.378 0.075 0.366 0.106 0.336 0.147 0.353 0.158 0.333 0.191 0.301 0.215 0.289 0.268 0.308 0.287 0.231 0.313 0.18 0.222 0.126 0.229 0.06 0.231 0.047 0.227v0.236l-0.047 0.207-0.06 0.202-0.126 0.187-0.18 0.163-0.123 0.15-0.203 0.124-0.2 0.121-0.218 0.113-0.232 0.098-0.253 0.078-0.258 0.09-0.398 0.12-0.352 0.099-0.331 0.096-0.281 0.097-0.279 0.101-0.254 0.095-0.219 0.114-0.204 0.117-0.185 0.133-0.168 0.171-0.185 0.175-0.157 0.226-0.183 0.258-0.171 0.319-0.193 0.34-0.174 0.408-0.327 0.748-0.315 0.765-0.254 0.787-0.292 0.803-0.246 0.812-0.232 0.82-0.183 0.822-0.192 0.863-0.197 0.856-0.121 0.852-0.131 0.87-0.121 0.884-0.124 0.897-0.082 0.883-0.087 0.894-0.052 0.888-0.057 0.895-0.05 0.893-0.012 0.904-0.061 0.895c-0.135 8.596 0.89 14.549 2.677 23.293l0.074 0.452 0.121 0.437 0.072 0.439 0.12 0.421 0.099 0.433 0.107 0.426 0.148 0.415 0.026 0.221 0.08 0.243 0.068 0.229 0.046 0.237 0.058 0.208 0.1 0.212 0.061 0.229 0.082 0.222 0.053 0.208 0.082 0.206 0.077 0.208 0.06 0.216 0.07 0.213 0.086 0.185 0.073 0.208 0.097 0.27-0.025 0.573-0.094 0.485-0.137 0.492-0.198 0.469-0.226 0.43-0.308 0.419-0.312 0.376-0.365 0.346-0.388 0.321-0.452 0.253-0.461 0.24-0.476 0.185-0.511 0.123-0.523 0.094-0.523 0.017-0.559-0.034-0.551-0.097-0.565-0.155-0.551-0.246-0.561-0.297-0.562-0.372-0.546-0.452-0.51-0.515-0.511-0.613-0.497-0.696-0.475-0.764-0.425-0.861-0.427-0.949-0.361-1.043-0.357-1.152-0.302-1.233-0.283-1.333-0.105-0.513c-1.706-7.49-4.065-15.435-6.573-22.802-1.555-4.296-4.222-12.495-9.46-13.421-2.304 0.078-3.639 1.053-4.089 4.573zm53.891-8.841-0.161-0.201-0.17-0.22-0.172-0.189-0.183-0.194-0.165-0.184-0.174-0.181-0.221-0.156-0.214-0.165-0.185-0.141-0.217-0.135-0.221-0.144-0.204-0.117-0.257-0.103-0.208-0.113-0.231-0.083-0.232-0.077-0.253-0.072-0.231-0.08-0.237-0.055-0.263-0.032-0.233-0.039-0.255-0.021-0.28-0.019-0.243-0.017-0.256 0.017-0.243 0.019-0.282 0.021-0.264 0.039-0.231 0.052-0.278 0.058-0.245 0.06-0.256 0.069-0.921 0.484-0.793 0.58-0.709 0.681-0.596 0.789-0.508 0.849-0.403 0.94-0.328 1.002-0.255 1.048-0.137 1.12-0.072 1.138v1.179l0.099 1.198 0.157 1.204 0.208 1.206 0.267 1.184 0.353 1.194 0.378 1.141 0.46 1.123 0.502 1.074 0.533 1.004 0.574 0.95 0.617 0.862 0.613 0.783 0.706 0.708 0.678 0.589 0.705 0.481 0.718 0.345 0.734 0.243 0.737 0.086 0.754-0.035 0.734-0.209 0.739-0.349 0.279-0.49 0.303-0.531 0.296-0.564 0.242-0.609 0.267-0.643 0.218-0.656 0.221-0.695 0.194-0.699 0.168-0.732 0.147-0.744 0.148-0.754 0.109-0.772 0.095-0.787 0.048-0.786 0.112-0.797 0.012-0.791v-2.393l-0.012-0.774-0.112-0.772-0.06-0.767-0.095-0.745-0.111-0.739-0.155-0.693-0.183-0.698-0.175-0.662-0.216-0.638-0.205-0.614-0.256-0.581-0.271-0.554zm7.285 15.692-0.066 0.386-0.056 0.411-0.112 0.444-0.072 0.446-0.095 0.489-0.079 0.485-0.116 0.512-0.138 0.487-0.121 0.531-0.158 0.527-0.155 0.518-0.208 0.515-0.169 0.527-0.209 0.508-0.205 0.506-0.256 0.493-0.26 0.473-0.263 0.451-0.294 0.448-0.29 0.413-0.329 0.383-0.351 0.358-0.341 0.333-0.391 0.305-0.413 0.252-0.39 0.232-0.436 0.159-0.488 0.135-0.46 0.085-0.525 0.029-0.525-0.029-0.463-0.085-0.983 0.873-1.031 0.741-1.025 0.584-0.973 0.404-0.936 0.258-0.936 0.095-0.875-0.028-0.866-0.165-0.813-0.295-0.79-0.402-0.779-0.505-0.72-0.612-0.702-0.704-0.635-0.77-0.61-0.838-0.583-0.921-0.559-0.964-0.538-1.018-0.447-1.044c-1.609-3.824-2.629-7.767-3.066-11.888l-0.058-0.903-0.039-0.837 0.097-1.634 0.192-1.555 0.308-1.473 0.424-1.387 0.499-1.293 0.606-1.209 0.697-1.112 0.753-1.032 0.813-0.925 0.901-0.846 0.948-0.725 0.987-0.655 1.02-0.549 1.062-0.426 1.094-0.349 1.094-0.233 1.132-0.132 1.12-0.029 1.132 0.089 1.107 0.192 1.072 0.304 1.079 0.422 1.046 0.531 1.007 0.651 0.928 0.763 0.91 0.894 0.85 0.995 0.782 1.109 0.694 1.244 0.619 1.372 0.525 1.492 0.445 1.6 0.054 0.358 0.083 0.347 0.048 0.34 0.036 0.346 0.099 0.359 0.036 0.339 0.033 0.356 0.066 0.343 0.012 0.336 0.036 0.352 0.033 0.346v0.331l0.053 0.358v0.352l0.036 0.339 0.013 0.344 0.025 0.364v1.715l-0.025 0.354v0.341l-0.04 0.357-9e-3 0.347v0.355l-0.053 0.347-0.012 0.352-0.021 0.341-0.036 0.333zm16.008-7.288c-4.055 0.55-3.856 6.987-2.419 10.206 1.083 2.446 2.818 5.625 7.124 5.779 2.669 0.081 4.003-1.377 4.296-3.905 0.293-2.845-0.279-5.971-1.68-8.455-1.511-2.592-4.036-4.066-7.321-3.625zm9.887-13.158 0.29-0.255 0.33-0.239 0.268-0.227 0.341-0.23 0.319-0.21 0.349-0.19 0.33-0.179 0.39-0.178 0.367-0.149 0.378-0.149 0.399-0.13 0.401-0.117 0.416-0.094 0.158-0.041 0.17-0.018 0.165-0.016 0.185-0.036h0.186l0.17-0.016 0.178-0.017h0.584l0.197 0.017h0.17l0.193 0.016 0.209 0.016 0.208 0.02 0.182 0.029 0.195 0.038 0.195 0.014 0.216 0.04 0.208 0.035 0.193 0.049 0.217 0.048 0.174 0.047 0.217 0.04 0.209 0.058 0.192 0.061 0.199 0.057 0.193 0.068 0.183 0.056 0.205 0.062 0.185 0.08 0.244 0.092 0.265 0.286 0.181 0.26 0.125 0.254 0.082 0.257v0.26l-0.046 0.243-0.096 0.228-0.136 0.205-0.193 0.177-0.219 0.165-0.285 0.133-0.312 0.133-0.318 0.084-0.361 0.074-0.417 0.05-0.427 0.041-0.131 5e-3 -0.123 0.023h-0.137l-0.168 0.044-0.143 0.048-0.136 0.046-0.138 0.048-0.154 0.051-0.148 0.07-0.156 0.074-0.133 0.075-0.134 0.095-0.159 0.102-0.132 0.093-0.123 0.116-0.137 0.115-0.131 0.158-0.11 0.148-0.15 0.158-0.092 0.171-0.109 0.167-0.124 0.176-0.074 0.179-0.093 0.184-0.087 0.17-0.071 0.169-0.076 0.179-0.034 0.145-0.045 0.175-0.042 0.147-0.04 0.136-0.021 0.116-0.047 0.589-0.049 0.648v0.68l0.028 0.709 0.031 0.757 0.07 0.777 0.14 0.812 0.106 0.828 0.137 0.856 0.146 0.876 0.178 0.86 0.223 0.891 0.178 0.896 0.225 0.889 0.232 0.894 0.252 0.892 0.267 0.876 0.231 0.867 0.256 0.846 0.269 0.815 0.287 0.809 0.26 0.767 0.287 0.749 0.271 0.712 0.256 0.671 0.265 0.623 0.257 0.59 0.257 0.53 0.245 0.471 0.206 0.436 0.218 0.34 0.23 0.313 0.098 0.251 0.097 0.227 0.112 0.205 0.118 0.227 0.111 0.221 0.123 0.186 0.121 0.212 0.108 0.205 0.108 0.171 0.12 0.181 0.125 0.198 0.071 0.182 0.126 0.171 0.074 0.183 0.08 0.177 0.051 0.183 0.086 0.16 0.037 0.176v0.197l0.012 0.171v0.194l-0.012 0.174-0.037 0.176-0.086 0.184-0.069 0.186-0.136 0.169-0.137 0.206-0.158 0.176-0.183 0.187-0.204 0.172-0.232 0.209-0.271 0.193-0.446 0.223-0.428 0.19-0.424 0.159-0.402 0.142-0.387 0.086-0.371 0.064-0.375 0.044-0.34 5e-3 -0.338-0.023-0.33-0.034-0.305-0.087-0.328-0.076-0.279-0.129-0.279-0.151-0.282-0.161-0.268-0.179-0.254-0.193-0.226-0.232c-1.491-1.557-1.791-3.398-2.219-5.535-0.11 0.951-0.377 2.323-1.072 3.293l-0.253 0.316-0.245 0.301-0.303 0.295-0.281 0.269-0.292 0.27-0.316 0.229-0.356 0.233-0.336 0.217-0.327 0.204-0.355 0.186-0.377 0.188-0.362 0.159-0.403 0.172-0.381 0.127-0.41 0.142-0.379 0.122-0.435 0.111c-2.326 0.575-4.006 0.559-6.377-0.485-1.17-0.704-2.176-1.298-3.214-2.201l-0.875-0.971-0.849-1.04-0.733-1.087-0.655-1.173-0.562-1.195-0.483-1.249-0.379-1.266-0.301-1.296-0.219-1.308-0.145-1.286-0.014-1.291 0.048-1.268 0.156-1.226 0.257-1.205 0.331-1.145 0.449-1.08 0.533-1.022 0.643-0.948 0.732-0.854 0.863-0.734 0.941-0.65 1.031-0.525 1.157-0.394 1.263-0.255 1.353-0.08 2.615 0.08-0.808-1.045-0.216-0.277-0.242-0.3-0.231-0.285-0.256-0.263-0.233-0.272-0.242-0.254-0.26-0.254-0.252-0.263-0.242-0.234-0.295-0.233-0.266-0.211-0.268-0.216-0.303-0.2-0.281-0.205-0.305-0.173-0.3-0.175-0.318-0.158-0.316-0.147-0.303-0.121-0.366-0.124-0.329-0.108-0.327-0.086-0.341-0.069-0.362-0.071-0.357-0.034-0.375-0.034-0.379-0.01-0.694 0.059-0.584 0.057-0.473 0.077-0.365 0.083-0.242 0.113-0.376 0.245 0.083 0.546 0.073 0.269 0.119 0.311 0.112 0.34 0.138 0.39 0.151 0.442 0.126 0.499 0.047 0.278 0.053 0.268 7e-3 0.262v0.261l-7e-3 0.228-0.053 0.222-0.012 0.22-0.093 0.206-0.068 0.193-0.071 0.184-0.122 0.184-0.096 0.169-0.134 0.132-0.134 0.145-0.133 0.13-0.159 0.111-0.182 0.116-0.173 0.084-0.166 0.089-0.195 0.083-0.184 0.064-0.207 0.056-0.206 0.049-0.193 0.035-0.208 0.037-0.218 0.015-0.233 0.035h-0.45l-0.207-0.027-0.246-8e-3 -0.23-0.04-0.41-0.06-0.466-0.096-0.376-0.12-0.403-0.135-0.363-0.177-0.328-0.17-0.268-0.195-0.319-0.214-0.252-0.245-0.232-0.254-0.245-0.276-0.167-0.283-0.171-0.31-0.133-0.337-0.111-0.339-0.082-0.344-0.074-0.35-0.053-0.341v-0.648l0.053-0.309 0.049-0.307 0.058-0.289 0.124-0.293 0.096-0.283 0.108-0.284 0.16-0.259 0.143-0.247 0.185-0.23 0.198-0.256 0.193-0.229 0.209-0.219 0.217-0.211 0.255-0.205 0.216-0.187 0.258-0.2 0.244-0.17 0.266-0.185 0.267-0.17 0.278-0.161 0.257-0.169 0.3-0.13 0.272-0.148 0.277-0.125 0.284-0.132 0.291-0.123 0.29-0.092 0.271-0.129 0.694-0.217 0.705-0.19 0.692-0.158 0.678-0.129 0.673-0.08 0.669-0.069 0.676-0.026h0.636l0.63 0.026 0.674 0.069 0.582 0.08 0.644 0.114 0.613 0.158 0.593 0.17 0.573 0.207 0.556 0.221 0.584 0.261 0.573 0.288 0.549 0.301 0.52 0.342 0.537 0.34 0.525 0.388 0.498 0.4c1.932 1.914 3.272 3.855 4.342 6.233-0.522-2.837-0.304-4.468 0.632-6.455l0.216-0.276 0.261-0.29 0.216-0.272zm-300.56 69.416-0.851 0.859-0.78 0.842-0.68 0.839-0.607 0.833-1.461 1.645-1.18 1.473-0.938 1.342-0.704 1.224-0.487 1.088-0.314 0.965-0.135 0.85 0.06 0.72 0.194 0.609 0.331 0.534 0.462 0.454 0.593 0.385 0.746 0.317 0.848 0.235 0.924 0.179 1.061 0.093 1.119 0.028 1.192-0.018 1.241-0.1 1.277-0.142 1.312-0.186 1.341-0.26 1.362-0.278 1.313-0.317 1.313-0.344 1.314-0.394 1.243-0.415 1.202-0.447 1.144-0.459 1.069-0.461 0.95-0.474 0.886-0.487 0.965-0.587 0.946-0.631 0.961-0.688 0.926-0.71 0.899-0.76 0.938-0.802 0.875-0.833 0.89-0.856 0.862-0.887 0.851-0.906 0.839-0.957 0.791-0.965 0.816-0.985 0.766-0.991 0.742-1.024 0.741-1.03 0.681-1.046 0.696-1.042 0.656-1.065 0.621-1.034 0.594-1.071 0.585-1.057 0.537-1.062 0.485-1.048 0.486-1.023 0.449-1.041 0.416-1.008 0.402-0.999 0.327-0.982 0.291-0.956 0.416-1.409-2.179 0.352-1.399 0.268-1.385 0.328-1.461 0.384-1.493 0.435-1.487 0.49-1.497 0.524-1.522 0.563-1.531 0.613-1.533 0.634-1.532 0.689-1.522 0.711-1.509 0.732-1.507 0.763-1.495 0.792-1.435 0.819-1.45 0.838-1.399 0.836-1.362 0.885-1.325 0.863-1.277 0.883-1.241 0.869-1.181 0.899-1.131 0.886-1.046 0.888-0.983 0.887zm41.519-52.764-0.013-0.393-0.024-0.399-0.023-0.412-0.039-0.442-0.048-0.45-0.036-0.465-0.049-0.47-0.047-0.471-0.074-0.503-0.06-0.486-0.074-0.5-0.071-0.498-0.113-0.499-0.107-0.484-0.11-0.515-0.122-0.494-0.144-0.482-0.147-0.473-0.159-0.471-0.182-0.45-0.159-0.45-0.22-0.442-0.206-0.401-0.217-0.404-0.245-0.387-0.266-0.367-0.257-0.321-0.303-0.328-0.28-0.294-0.33-0.253-0.352-0.258-0.303-0.207-0.986-0.321-0.888-0.091-0.753 0.098-0.671 0.301-0.594 0.492-0.572 0.649-0.45 0.83-0.39 0.975-0.306 1.09-0.218 1.207-0.182 1.302-0.075 1.387-0.022 1.419 0.035 1.503 0.137 1.489 0.167 1.515 0.244 1.469 0.305 1.478 0.33 1.402 0.412 1.342 0.45 1.263 0.484 1.17 0.525 1.034 0.571 0.9 0.597 0.744 0.609 0.547 0.619 0.388 0.622 0.21h0.63l0.695-0.21 0.729-0.438 0.779-0.714 0.195-0.245 0.17-0.274 0.171-0.263 0.146-0.294 0.168-0.307 0.138-0.281 0.121-0.334 0.109-0.316 0.108-0.333 0.11-0.329 0.098-0.358 0.06-0.354 0.074-0.353 0.075-0.354 0.045-0.351 0.073-0.378 0.026-0.364 0.035-0.38 0.025-0.368 0.046-0.384v-0.364l0.028-0.369 0.012-0.375v-1.477l-0.012-0.362-0.028-0.364v-0.35l-0.021-0.345zm-17.844 64.347-1.243 0.759-1.241 0.725-1.263 0.686-1.302 0.661-1.279 0.618-1.338 0.584-1.327 0.554-1.359 0.52-1.364 0.471-1.386 0.432-1.35 0.403-1.4 0.355-1.412 0.321-1.409 0.282-1.435 0.248-1.437 0.21-0.83 0.026h-0.813l-0.804-0.026-0.79-0.04-0.79-0.061-0.753-0.075-0.752-0.085-0.733-0.133-0.704-0.122-0.708-0.176-0.654-0.174-0.659-0.202-0.596-0.234-0.608-0.27-0.537-0.281-0.532-0.301-0.487-0.334-0.451-0.376-0.439-0.394-0.351-0.431-0.34-0.469-0.292-0.467-0.257-0.516-0.182-0.564-0.146-0.577-0.084-0.603-0.051-0.63 0.025-0.675 0.098-0.701 0.134-0.707 0.194-0.757 0.253-0.792 0.598-1.357 0.683-1.354 0.813-1.35 0.926-1.329 1.022-1.344 1.105-1.308 1.18-1.311 1.265-1.294 1.363-1.288 1.425-1.255 1.496-1.232 1.57-1.225 1.617-1.194 1.665-1.187 1.729-1.139 1.764-1.119 1.825-1.083 1.834-1.051 1.874-1.03 1.911-0.99 1.91-0.963 1.932-0.908 1.935-0.878 1.935-0.82 1.96-0.79 1.944-0.741 1.923-0.687 1.909-0.639 1.936-0.6 1.861-0.526 1.848-0.48 1.69-0.394 0.136-0.371 0.096-0.254 0.074-0.312 0.083-0.352 0.112-0.378 0.071-0.419 0.097-0.453 0.11-0.476 0.087-0.494 0.097-0.528 0.083-0.534 0.086-0.561 0.109-0.565 0.074-0.585 0.084-0.584 0.084-0.595 0.099-0.597 0.061-0.584 0.074-0.596 0.085-0.585 0.049-0.569 0.058-0.561 0.05-0.535 0.159-1.641-1.18 1.046-0.281 0.268-0.328 0.252-0.315 0.24-0.329 0.21-0.353 0.21-0.328 0.21-0.342 0.158-0.352 0.19-0.363 0.135-0.355 0.136-0.364 0.129-0.378 0.087-0.364 0.073-0.394 0.067-0.361 0.031-0.378 0.044-0.389 5e-3 -0.363-5e-3 -0.402-0.044-0.377-0.051-0.39-0.059-0.39-0.083-0.377-0.107-0.378-0.119-0.377-0.143-0.375-0.167-0.376-0.186-0.356-0.209-0.374-0.217-0.368-0.251-0.352-0.284-0.391-0.283-0.741-0.796-0.668-0.865-0.646-0.953-0.582-1.013-0.548-1.088-0.462-1.129-0.439-1.176-0.351-1.246-0.303-1.253-0.242-1.317-0.224-1.334-0.119-1.326-0.099-1.378-0.012-1.374 0.012-1.372 0.112-1.35 0.158-1.352 0.193-1.342 0.266-1.322 0.33-1.277 0.387-1.255 0.466-1.201 0.511-1.156 0.594-1.107 0.621-1.045 0.717-0.971 0.754-0.906 0.841-0.818 0.9-0.738 0.984-0.632 1.048-0.535 1.107-0.424 1.385-0.319 1.328-0.137 1.241 0.026 1.19 0.182 1.109 0.341 1.033 0.476 0.986 0.618 0.899 0.754 0.827 0.862 0.769 0.949 0.693 1.057 0.629 1.139 0.586 1.241 0.547 1.296 0.464 1.378 0.425 1.422 0.363 1.482 0.34 1.523 0.293 1.566 0.22 1.587 0.194 1.612 0.136 1.622 0.144 1.619 0.061 1.63 0.049 1.611 0.025 1.612-0.036 1.567-0.038 1.548-0.061 1.501-0.123 1.459-0.132 1.394-0.134 1.326-0.047 0.282-0.038 0.279-0.013 0.303-0.024 0.304-0.049 0.325-0.025 0.307-0.023 0.321-0.023 0.348-0.025 0.353-0.061 0.676-0.073 0.692-0.037 0.35-0.026 0.349-0.022 0.329-0.05 0.356-0.025 0.325-0.037 0.329-0.024 0.324-0.047 0.315-0.063 0.314-9e-3 0.285-0.039 0.285-0.059 0.276-0.159 0.964 1.58-0.25 1.107-0.159 1.305-0.19 1.508-0.172 1.679-0.187 1.846-0.176 2.009-0.155 2.163-0.148 2.29-0.104 2.395-0.072 2.518-0.032 2.603 0.032 2.688 0.088 2.787 0.148 2.845 0.22 2.87 0.326 2.923 0.393 2.968 0.49 2.955 0.613 2.966 0.708 2.966 0.844 2.95 0.957 2.881 1.112 2.883 1.243 2.833 1.4 2.727 1.556 2.663 1.72 2.557 1.895 2.468 2.089 0.324 0.374 0.334 0.394 0.291 0.387 0.293 0.425 0.288 0.416 0.246 0.429 0.228 0.435 0.233 0.426 0.148 0.419 0.142 0.417 0.101 0.411 0.059 0.39 0.023 0.384-0.048 0.354-0.111 0.335-0.194 0.288-0.229 0.216-0.231 0.178-0.268 0.128-0.281 0.07-0.29 0.032h-0.283l-0.29-0.042-0.292-0.089-0.316-0.076-0.304-0.15-0.303-0.141-0.332-0.17-0.335-0.167-0.33-0.188-0.354-0.214-0.377-0.238-1.39-1.211-1.492-1.146-1.693-1.095-1.799-1.05-1.909-1.009-2.035-0.956-2.162-0.908-2.253-0.857-2.335-0.802-2.382-0.775-2.471-0.681-2.533-0.672-2.55-0.584-2.601-0.557-2.618-0.497-2.641-0.435-2.64-0.385-2.641-0.335-2.591-0.266-2.589-0.227-2.544-0.168-2.493-0.089-2.458-0.068h-2.361l-2.293 0.076-2.193 0.129-2.093 0.186-2.019 0.227-1.861 0.296-1.751 0.355-1.607 0.413-1.278 0.427-0.086 0.298-0.158 0.5-0.158 0.495-0.133 0.498-0.169 0.5-0.183 0.509-0.169 0.514-0.172 0.514-0.18 0.506-0.196 0.519-0.184 0.514-0.181 0.511-0.195 0.517-0.196 0.519-0.193 0.5-0.209 0.499-0.195 0.505-0.195 0.486-0.206 0.49-0.202 0.479-0.21 0.457-0.183 0.479-0.232 0.433-0.193 0.459-0.195 0.415-0.206 0.424-0.195 0.404-0.207 0.396-0.183 0.382-0.194 0.355-0.159 0.349-0.207 0.324-0.742 1.243-0.765 1.223-0.803 1.19-0.864 1.157-0.887 1.145-0.912 1.106-0.962 1.068-0.987 1.048-1.009 1.022-1.057 0.979-1.072 0.956-1.109 0.918-1.129 0.894-1.154 0.87-1.168 0.82zm145.45-57.219 0.127-0.526 0.098-0.596 0.097-0.669 0.094-0.704 0.05-0.761 0.061-0.804 0.045-0.857 0.039-0.898v-1.827l-0.039-0.96-0.045-0.966-0.061-0.947-0.097-0.947-0.088-0.961-0.13-0.921-0.161-0.914-0.155-0.893-0.195-0.848-0.234-0.786-0.229-0.783-0.27-0.716-0.289-0.652-0.306-0.577-0.329-0.517-0.374-0.45-0.367-0.347-0.39-0.274-0.411-0.193-0.342-0.081-0.412 0.248-0.463 0.436-0.437 0.501-0.437 0.605-0.33 0.716-0.307 0.781-0.266 0.838-0.217 0.921-0.173 0.962-0.141 1.009-0.09 1.052-0.061 1.08v1.093l0.027 1.109 0.071 1.105 0.122 1.118 0.136 1.075 0.188 1.057 0.211 1.035 0.256 0.995 0.317 0.947 0.328 0.887 0.327 0.814 0.379 0.76 0.413 0.642 0.438 0.582 0.45 0.465 0.471 0.359 0.487 0.247 0.515 0.15 0.518 0.022 0.56-0.098 0.184-0.177 0.112-0.144 0.108-0.187 0.097-0.207 0.097-0.203 0.088-0.204 0.071-0.214 0.133-0.363zm-4.839 24.949-0.45-0.079-0.447-0.141-0.465-0.185-0.477-0.227-0.459-0.304-0.463-0.333-0.449-0.397-0.465-0.456-0.425-0.509-0.4-0.563-0.417-0.624-0.388-0.685-0.349-0.74-0.304-0.812-0.304-0.869-0.306-1.027-0.303-1.065-0.268-1.071-0.27-1.118-0.249-1.117-0.238-1.145-0.231-1.181-0.191-1.193-0.198-1.202-0.157-1.205-0.172-1.232-0.132-1.231-0.097-1.247-0.099-1.266-0.082-1.256-0.047-1.25-0.038-1.264-0.023-1.267 0.023-1.253 0.024-1.25 0.05-1.244 0.069-1.227 0.1-1.221 0.12-1.23 0.171-1.186 0.184-1.193 0.207-1.142 0.218-1.145 0.241-1.129 0.298-1.098 0.315-1.075 0.337-1.066 0.135-0.278 0.147-0.267 0.156-0.281 0.122-0.253 0.156-0.283 0.137-0.263 0.169-0.272 0.134-0.267 0.172-0.269 0.176-0.256 0.186-0.241 0.171-0.259 0.181-0.226 0.207-0.219 0.185-0.219 0.218-0.203 0.951-0.724 0.921-0.558 0.9-0.44 0.913-0.289 0.901-0.183 0.876-0.052 0.839 0.076 0.825 0.193 0.794 0.292 0.779 0.403 0.775 0.474 0.695 0.58 0.695 0.653 0.643 0.736 0.623 0.791 0.572 0.866 0.555 0.916 0.528 0.981 0.507 1.028 0.454 1.059 0.424 1.098 0.401 1.157 0.325 1.144 0.311 1.191 0.278 1.196 0.255 1.215 0.19 1.218 0.137 1.224 0.122 1.219 0.059 1.198 0.022 1.184-0.022 1.183-0.059 0.728-0.046 0.733-0.076 0.711-0.095 0.715-0.133 0.664-0.152 0.658-0.165 0.653-0.199 0.609-0.218 0.629-0.242 0.58-0.243 0.549-0.291 0.545-0.32 0.493-0.339 0.463-0.349 0.452-0.395 0.411-0.399 0.373-0.448 0.346-0.475 0.313-0.474 0.272-0.513 0.211-0.559 0.177-0.559 0.139-0.56 0.089-0.619 0.041h-0.647l-0.63-0.066-0.682-0.103-0.719-0.162-0.708-0.203-1.298-0.463 0.097 1.216v0.384l0.06 0.412 0.049 0.453 0.059 0.466 0.062 0.508 0.063 0.491 0.11 0.514 0.082 0.542 0.107 0.546 0.102 0.522 0.096 0.555 0.135 0.552 0.117 0.55 0.136 0.506 0.123 0.531 0.108 0.491 0.159 0.482 0.134 0.459 0.133 0.43 0.135 0.401 0.157 0.373 0.134 0.335 0.158 0.299 0.243 0.552 0.183 0.544 0.135 0.51 0.036 0.477 0.011 0.458-0.023 0.439-0.125 0.411-0.18 0.371-0.18 0.333-0.258 0.296-0.291 0.248-0.327 0.217-0.365 0.154-0.39 0.116-0.403 0.069-0.425 0.017zm-95.295-43.764-0.148-0.196-0.147-0.198-0.168-0.209-0.168-0.167-0.184-0.2-0.183-0.156-0.193-0.167-0.185-0.135-0.208-0.16-0.204-0.122-0.218-0.132-0.196-0.124-0.222-0.096-0.228-0.105-0.217-0.089-0.233-0.085-0.232-0.061-0.243-0.064-0.228-0.053-0.249-0.047-0.242-0.029-0.229-0.019-0.246-0.02h-0.521l-0.222 0.02-0.266 0.019-0.242 0.029-0.242 0.054-0.268 0.058-0.475 0.136-0.802 0.462-0.706 0.598-0.606 0.71-0.499 0.817-0.416 0.892-0.315 1.002-0.257 1.074-0.142 1.126-0.066 1.215v1.23l0.075 1.251 0.133 1.284 0.206 1.284 0.282 1.29 0.327 1.282 0.391 1.242 0.388 1.22 0.475 1.159 0.498 1.088 0.535 1.034 0.56 0.949 0.546 0.854 0.62 0.731 0.596 0.645 0.597 0.497 0.596 0.363 0.561 0.236 0.561 0.069 0.542-0.069 0.539-0.207 0.524-0.416 0.548-0.602 0.29-0.482 0.316-0.526 0.258-0.564 0.266-0.603 0.233-0.628 0.228-0.653 0.209-0.674 0.218-0.722 0.144-0.712 0.159-0.739 0.132-0.757 0.137-0.751 0.086-0.788 0.069-0.782 0.063-0.787 0.034-0.81 0.029-0.777v-0.776l-0.029-0.798-0.034-0.78-0.063-0.759-0.083-0.765-0.087-0.744-0.131-0.712-0.15-0.72-0.168-0.689-0.167-0.655-0.223-0.631-0.194-0.609-0.266-0.562-0.27-0.546zm8.051 15.487-0.062 0.395-0.057 0.424-0.064 0.439-0.072 0.461-0.098 0.479-0.106 0.482-0.112 0.497-0.131 0.525-0.125 0.526-0.156 0.523-0.172 0.522-0.194 0.528-0.181 0.518-0.21 0.521-0.23 0.516-0.242 0.497-0.254 0.486-0.269 0.467-0.303 0.443-0.307 0.43-0.324 0.383-0.354 0.367-0.366 0.356-0.39 0.302-0.399 0.275-0.452 0.224-0.461 0.194-0.489 0.123-0.499 0.07-0.51 0.041-0.563-0.041-0.372-0.058-0.951 0.83-1.046 0.742-1.011 0.594-1.01 0.424-0.959 0.269-0.95 0.095-0.886-0.034-0.904-0.167-0.839-0.306-0.811-0.415-0.768-0.537-0.705-0.61-0.718-0.704-0.63-0.792-0.612-0.851-0.572-0.926-0.558-0.98-0.5-1.015-0.472-1.061-0.44-1.095-0.436-1.105-0.364-1.151-0.332-1.116-0.316-1.132-0.254-1.127-0.242-1.113-0.209-1.079-0.157-1.052-0.134-1.009-0.096-0.958-0.072-0.915-0.014-0.837 0.086-1.657 0.205-1.571 0.291-1.475 0.414-1.403 0.525-1.311 0.596-1.228 0.691-1.125 0.769-1.036 0.8-0.96 0.902-0.846 0.947-0.75 0.989-0.649 1.043-0.552 1.047-0.453 1.121-0.333 1.105-0.24 1.13-0.14 1.121-0.023 1.13 0.076 1.12 0.201 1.082 0.312 1.096 0.416 1.057 0.545 0.999 0.658 0.973 0.793 0.9 0.886 0.829 1.015 0.789 1.13 0.705 1.264 0.621 1.372 0.536 1.506 0.449 1.635 0.071 0.353 0.052 0.351 0.07 0.349 0.048 0.341 0.049 0.354 0.048 0.344 0.052 0.349 0.034 0.357 0.027 0.328 0.058 0.364 0.014 0.357 0.014 0.332 0.034 0.335 0.026 0.363v0.351l0.033 0.342 0.014 0.356v1.736l-0.014 0.354v0.341l-0.033 0.357v0.347l-0.026 0.355-0.034 0.347-0.014 0.352-0.014 0.341-0.047 0.346zm53.071-22.197 0.721 0.293 0.16 0.232 0.083 0.172 0.11 0.168 0.097 0.205 0.097 0.212 0.084 0.252 0.085 0.231 0.124 0.279 0.099 0.281 0.072 0.283 0.095 0.302 0.097 0.323 0.099 0.328 0.099 0.348 0.094 0.347 0.102 0.358 0.082 0.386 0.083 0.393 0.1 0.388 0.099 0.412 0.117 0.396 0.09 0.419 0.094 0.433 0.101 0.43 0.091 0.438 0.101 0.436 0.096 0.451 0.12 0.442 0.099 0.453 0.101 0.462 0.095 0.457 0.086 0.463 0.072 0.243 0.051 0.232 0.058 0.239 0.094 0.482 0.054 0.228 0.087 0.234 0.034 0.254 0.05 0.239 0.07 0.237 0.049 0.229 0.075 0.238 0.047 0.228 0.063 0.232 0.06 0.234 0.13 0.459 0.065 0.245 0.023 0.221 0.082 0.238 0.039 0.229 0.065 0.216 0.045 0.225 0.071 0.222 0.076 0.22 0.061 0.225 0.046 0.229 0.06 0.218 0.064 0.203 0.061 0.225 0.047 0.217 0.052 0.207 0.071 0.206 0.06 0.245 0.109 0.292 0.132 0.354 0.149 0.393 0.171 0.414 0.171 0.434 0.195 0.483 0.18 0.487 0.232 0.498 0.228 0.511 0.233 0.523 0.233 0.512 0.269 0.481 0.253 0.479 0.232 0.481 0.253 0.456 0.233 0.398 0.23 0.394 0.233 0.319 1.095 1.446 0.217-1.882 0.038-0.251 0.022-0.243 0.016-0.287 0.019-0.269v-0.61l-0.019-0.302v-0.333l-0.016-0.328-0.022-0.326v-0.341l-0.012-0.317-0.026-0.315v-0.61l0.026-0.277 0.012-0.453 0.022-0.451 0.016-0.467 0.034-0.468 0.049-0.472 0.048-0.487 0.024-0.489 0.034-0.484 0.078-0.511 0.047-0.524 0.061-0.485 0.06-0.526 0.074-0.508 0.082-0.527 0.087-0.507 0.085-0.539 0.123-0.508 0.08-0.514 0.103-0.532 0.109-0.526 0.13-0.527 0.149-0.515 0.134-0.512 0.131-0.522 0.187-0.501 0.144-0.508 0.18-0.491 0.182-0.511 0.196-0.485 0.219-0.479 0.196-0.483 0.234-0.484 0.168-0.344 0.184-0.337 0.193-0.331 0.172-0.328 0.182-0.326 0.205-0.33 0.183-0.294 0.196-0.313 0.22-0.29 0.193-0.297 0.231-0.276 0.216-0.273 0.236-0.266 0.228-0.257 0.228-0.243 0.236-0.23 0.254-0.212 0.268-0.216 0.229-0.204 0.283-0.179 0.241-0.162 0.321-0.145 0.265-0.135 0.292-0.107 0.28-0.106 0.291-0.088 0.328-0.057 0.314-0.031 0.329-0.035 0.306-6e-3 0.329 6e-3 0.353 0.048 0.314 0.054 0.305 0.066 0.29 0.086 0.283 0.08 0.243 0.114 0.231 0.124 0.219 0.132 0.182 0.158 0.183 0.156 0.132 0.203 0.102 0.219 0.057 0.237v0.23l-0.038 0.237-0.084 0.252-0.134 0.242-0.157 0.208-0.17 0.191-0.186 0.174-0.203 0.129-0.185 0.115-0.229 0.092-0.207 0.096-0.17 0.09-0.204 0.087-0.184 0.085-0.145 0.079-0.161 0.114-0.158 0.102-0.096 0.115-0.112 0.137-0.108 0.158-0.134 0.254-0.135 0.245-0.111 0.249-0.117 0.236-0.135 0.271-0.125 0.229-0.107 0.26-0.12 0.24-0.099 0.256-0.109 0.252-0.124 0.256-0.095 0.255-0.089 0.27-0.092 0.258-0.111 0.272-0.086 0.278-0.112 0.281-0.045 0.297-0.088 0.296-0.095 0.302-0.059 0.327-0.049 0.319-0.087 0.311-0.057 0.342-0.028 0.353-0.07 0.363-0.076 0.368-0.028 0.388-0.034 0.407-0.023 0.409-0.024 0.437-0.033 0.433v0.741l-0.04 0.773-0.039 0.765-0.023 0.792-0.012 0.801-0.037 0.819-9e-3 0.838-0.039 0.826-0.047 0.826-0.04 0.841-0.035 0.842-0.06 0.824-0.048 0.827-0.071 0.805-0.087 0.792-0.085 0.814-0.113 0.777-0.119 0.756-0.112 0.738-0.154 0.731-0.159 0.683-0.194 0.668-0.183 0.648-0.216 0.606-0.272 0.582-0.255 0.546-0.291 0.499-0.332 0.488-0.336 0.407-0.392 0.389-0.413 0.327-0.438 0.288-0.657 0.233-0.642 0.138-0.649 0.062-0.606-0.017-0.63-0.075-0.609-0.156-0.586-0.207-0.597-0.282-0.571-0.311-0.537-0.354-0.548-0.418-0.506-0.437-0.535-0.489-0.49-0.519-0.497-0.543-0.451-0.559-0.438-0.592-0.454-0.594-0.398-0.641-0.39-0.615-0.363-0.619-0.363-0.634-0.321-0.585-1.93-7.043 0.07 7.288-0.048 0.357-0.083 0.398-0.099 0.392-0.098 0.394-0.097 0.383-0.108 0.387-0.121 0.378-0.137 0.372-0.154 0.362-0.148 0.335-0.182 0.343-0.172 0.326-0.196 0.315-0.207 0.298-0.208 0.302-0.241 0.257-0.256 0.25-0.264 0.241-0.754 0.468-0.695 0.328-0.73 0.244-0.669 0.119-0.682 0.046-0.631-0.061-0.619-0.151-0.623-0.207-0.58-0.307-0.578-0.36-0.511-0.447-0.521-0.469-0.484-0.534-0.462-0.557-0.451-0.622-0.415-0.646-0.439-0.667-0.34-0.674-4.744-13.092 2.629 11.936 0.072 0.611 0.099 0.614 0.072 0.614 0.062 0.608 0.084 0.588 0.039 0.571 0.034 0.569 0.024 0.537v1.021l-0.058 0.484-0.039 0.429-0.084 0.41-0.102 0.396-0.131 0.352-0.198 0.36-0.372 0.269-0.331 0.22-0.353 0.17-0.349 0.17-0.367 0.121-0.354 0.102-0.377 0.083-0.399 0.05-0.381 0.048-0.387 9e-3 -0.39-4e-3 -0.378-0.031-0.399-0.072-0.366-0.057-0.362-0.09-0.502-0.149-0.195-0.31-0.16-0.392-0.143-0.528-0.184-0.65-0.181-0.805-0.206-0.92-0.195-1.033-0.205-1.151-0.222-1.24-0.23-1.316-0.196-1.397-0.23-1.469-0.194-1.505-0.233-1.566-0.193-1.556-0.195-1.614-0.146-1.62-0.171-1.613-0.143-1.593-0.113-1.586-0.097-1.54-0.072-1.509-0.074-1.44-0.023-1.392v-1.309l0.048-1.228 0.06-1.133 0.11-1.035 0.161-0.919 0.217-0.782 0.243-0.685 0.355-0.583 0.548-0.267 0.409-0.168 0.414-0.13 0.367-0.059 0.414-0.016 0.364 0.067 0.351 0.102 0.307 0.198 0.315 0.25 0.303 0.314 0.267 0.379 0.321 0.437 0.274 0.512 0.322 0.575 0.325 0.641 0.341 0.714 0.28 0.478 0.267 0.543 0.256 0.589 0.291 0.632 0.268 0.659 0.279 0.704 0.29 0.716 0.32 0.757 0.316 0.776 0.268 0.792 0.327 0.837 0.328 0.817 0.296 0.845 0.325 0.849 0.329 0.85 0.326 0.851 0.317 0.86 0.33 0.856 0.351 0.85 0.332 0.831 0.327 0.823 0.328 0.792 0.339 0.793 0.358 0.759 0.325 0.734 0.352 0.702 0.316 0.686 0.331 0.641 0.324 0.575 0.346 0.561 0.327 0.51 0.305 0.458 0.254 0.31 0.22 0.249 0.756 0.698 0.322-1.113 0.05-0.288 0.086-0.34 0.035-0.375 0.029-0.206 0.034-0.199 0.01-0.179 0.04-0.255 0.048-0.322 0.038-0.191 0.01-0.193 0.025-0.185 0.022-0.199 0.04-0.189 0.025-0.206 9e-3 -0.173 0.025-0.213 0.011-0.197 0.027-0.222 0.059-0.571 0.038-0.596 0.046-0.618 0.026-0.623 0.051-0.644 0.035-0.642 0.013-0.646 0.025-0.672 9e-3 -0.655 0.023-0.675 0.017-0.676 0.022-0.668 0.026-0.678 0.019-0.662 0.016-0.655v-0.676l0.036-0.652 0.012-0.644 0.024-0.634 0.028-0.63 0.032-0.607 0.037-0.597 0.036-0.586 0.027-0.565 0.059-0.539 0.037-0.523 0.072-0.498 0.06-0.488 0.064-0.471 0.084-0.432 0.059-0.403 0.111-0.374 0.113-0.536 0.108-0.518 0.132-0.476 0.132-0.465 0.173-0.424 0.17-0.381 0.206-0.325 0.257-0.31 0.291-0.239 0.364-0.167 0.391-0.113 0.424-0.033 0.472 0.05 0.526 0.103zm-158.94 63.157 2.858-0.412 1.606-0.325 1.593-0.399 1.522-0.482 1.445-0.565 1.424-0.645 1.338-0.736 1.254-0.816 1.192-0.898 1.081-1.002 0.999-1.078 0.888-1.174 0.767-1.26 0.655-1.34 0.551-1.452 0.385-1.531 0.269-1.657 0.11-1.729-0.061-1.845-0.181-1.926-0.137-0.528-0.169-0.543-0.193-0.574-0.281-0.579-0.293-0.58-0.326-0.579-0.367-0.584-0.413-0.586-0.413-0.569-0.463-0.569-0.486-0.553-0.513-0.546-0.509-0.499-0.56-0.484-0.572-0.488-0.597-0.437-0.595-0.396-0.609-0.372-0.619-0.329-0.62-0.304-0.623-0.243-0.642-0.195-0.646-0.15-0.619-0.105-0.634-0.045h-0.618l-0.61 0.083-0.609 0.133-0.606 0.193-0.574 0.267-0.584 0.348-0.572 0.422-0.158 0.132-0.17 0.137-0.156 0.114-0.148 0.128-0.171 0.119-0.157 0.139-0.171 0.152-0.194 0.222-0.108 0.083-0.074 0.071-0.05 0.089-0.048 0.123-0.061 0.121-0.061 0.157-0.047 0.171-0.025 0.209-0.072 0.205-0.013 0.229-0.025 0.233-0.037 0.255-0.012 0.284-0.036 0.277v0.302l-0.013 0.291-0.022 0.541v1.821l0.022 0.65 0.013 0.696 0.048 0.712 0.062 0.728 0.013 0.748 0.084 0.753 0.048 0.754 0.073 0.788 0.073 0.77 0.073 0.774 0.087 0.797 0.082 0.756 0.1 0.783 0.085 0.774 0.096 0.736 0.11 0.748 0.098 0.712 0.108 0.712 0.122 0.683 0.073 0.65 0.121 0.634 0.11 0.585 0.11 0.573 0.098 0.532 0.107 0.495 0.099 0.432 0.097 0.409 0.12 0.396 0.014 0.563-0.06 0.513-0.086 0.485-0.171 0.46-0.206 0.419-0.232 0.397-0.291 0.356-0.341 0.326-0.352 0.283zm-16.786 3.347-0.63-0.291-0.619-0.306-0.621-0.314-0.578-0.339-0.615-0.329-0.597-0.349-0.569-0.382-0.579-0.389-0.541-0.393-0.564-0.403-0.554-0.424-0.524-0.441-0.528-0.449-0.518-0.468-0.484-0.482-0.501-0.499-0.489-0.506-0.474-0.534-0.454-0.539-0.459-0.553-0.437-0.585-0.424-0.586-0.42-0.619-0.237-0.434-0.233-0.429-0.206-0.434-0.217-0.413-0.183-0.409-0.189-0.425-0.171-0.405-0.159-0.407-0.148-0.407-0.127-0.388-0.155-0.404-0.087-0.392-0.102-0.392-0.124-0.385-0.072-0.384-0.079-0.378-0.052-0.391-0.061-0.363-0.063-0.368-0.031-0.364-0.021-0.363-0.024-0.364-0.014-0.345-5e-3 -0.359 5e-3 -0.351 0.014-0.343 0.011-0.332 0.034-0.353 0.015-0.311 0.053-0.334 0.05-0.325 0.047-0.323 0.121-0.54 0.14-0.519 0.158-0.528 0.171-0.503 0.177-0.479 0.207-0.48 0.232-0.472 0.236-0.444 0.23-0.431 0.274-0.427 0.274-0.413 0.294-0.39 0.291-0.378 0.298-0.376 0.324-0.338 0.315-0.329 0.328-0.329 0.335-0.314 0.339-0.277 0.36-0.286 0.329-0.247 0.36-0.247 0.35-0.221 0.354-0.209 0.339-0.206 0.379-0.169 0.345-0.173 0.348-0.143 0.347-0.138 0.352-0.092 0.34-0.101 0.328-0.073 0.413-0.072 0.378-0.042 0.372-0.024 0.377 0.024 0.347 0.025 0.335 0.089 0.321 0.078 0.31 0.142 0.286 0.156 0.258 0.196 0.229 0.232 0.219 0.253 0.169 0.294 0.13 0.313 0.108 0.342 0.056 0.393 0.037 0.361-0.052 0.368-0.126 0.347-0.189 0.305-0.255 0.256-0.273 0.245-0.352 0.193-0.36 0.221-0.397 0.176-0.438 0.191-0.452 0.182-0.502 0.195-0.515 0.175-0.548 0.227-0.554 0.216-0.552 0.244-0.336 0.202-0.327 0.224-0.31 0.224-0.286 0.238-0.275 0.262-0.254 0.266-0.238 0.252-0.231 0.303-0.19 0.317-0.196 0.314-0.18 0.328-0.156 0.357-0.135 0.363-0.129 0.399-0.12 0.413-0.118 0.438-0.067 0.478-0.089 0.482-0.025 0.483-0.013 0.487v0.507l0.038 0.521 0.069 0.472 0.075 0.506 0.11 0.494 0.135 0.508 0.151 0.494 0.183 0.505 0.2 0.496 0.219 0.5 0.256 0.482 0.28 0.49 0.281 0.491 0.315 0.483 0.345 0.473 0.355 0.456 0.388 0.47 0.407 0.451 0.433 0.438 0.462 0.439 0.464 0.424 0.49 0.432 0.507 0.417 0.528 0.385 0.557 0.391 0.578 0.365 0.588 0.363 0.594 0.346 1.406 0.648 1.496 0.589 1.53 0.526 1.579 0.421 1.61 0.379 1.643 0.299 1.666 0.234 3.356 0.179c-1.081-0.237-2.071-9.845-2.467-12.609l-0.219-1.621-0.184-1.649-0.175-1.721-0.14-1.776-0.146-1.837-0.123-1.862-0.078-1.909-0.062-1.937-0.066-1.956-0.024-1.985v-1.992l0.016-1.989 0.03-1.994 0.049-1.984 0.087-1.975 0.109-1.945 0.128-1.913 0.143-1.883 0.185-1.857 0.2-1.798 0.22-1.723 0.256-1.685 0.259-1.601 0.313-1.553 0.334-1.447 0.365-1.355 0.376-1.272 0.425-1.149 0.055-0.283 0.104-0.3 0.055-0.304 0.105-0.265 0.077-0.286 0.087-0.275 0.103-0.285 0.171-0.237 0.152-0.254 0.168-0.257 0.221-0.219 0.249-0.224 0.295-0.178 0.314-0.17 0.365-0.162 0.405-0.136 0.25-0.069 0.25-0.036 0.244-0.036 0.26-0.023 0.257-0.053h1.063l0.268 0.024 0.245 0.052 0.278 0.048 0.268 0.043 0.255 0.078 0.257 0.059 0.231 0.084 0.254 0.127 0.208 0.091 0.23 0.14 0.219 0.117 0.197 0.175 0.204 0.175 0.171 0.174 0.159 0.208 0.146 0.222 0.147 0.214 0.098 0.26 0.071 0.252 0.086 0.28 0.036 0.294 0.012 0.303v0.317l-0.04 0.315-0.071 0.399-0.071 0.519-0.11 0.627-0.158 0.728-0.134 0.83-0.159 0.907-0.183 0.978-0.183 1.048-0.168 1.101-0.196 1.148-0.205 1.193-0.196 1.216-0.22 1.232-0.194 1.237-0.208 1.25-0.193 1.244-0.181 1.217-0.183 1.178-0.16 1.16-0.143 1.104-0.149 1.045-0.109 0.998-0.11 0.9-0.058 0.842-0.048 0.733-0.039 0.623v1.005l1.157-0.425 1.301-0.333 1.3-0.247 1.29-0.135 1.277-0.022 1.289 0.079 1.255 0.156 1.24 0.257 1.229 0.345 1.203 0.419 1.195 0.5 1.142 0.578 1.118 0.644 1.07 0.726 1.056 0.775 0.999 0.82 0.962 0.889 0.9 0.944 0.864 0.989 0.817 1.031 0.742 1.066 0.703 1.111 0.647 1.129 0.545 1.161 0.525 1.199 0.425 1.2 0.354 1.216 0.268 1.237 0.207 1.245 0.106 1.252 0.039 1.23-0.061 1.262-0.317 1.684-0.425 1.602-0.511 1.532-0.62 1.438-0.716 1.36-0.793 1.274-0.863 1.22-0.938 1.129-1.047 1.053-1.105 1-1.146 0.911-1.214 0.836-1.278 0.766-1.313 0.704-1.376 0.64-1.399 0.556-1.445 0.506-1.473 0.428-1.509 0.386-1.507 0.308-1.522 0.254-1.559 0.2-1.58 0.122-1.567 0.088-1.559 0.021-1.542-0.039-1.569-0.074-1.53-0.155-1.527-0.193-1.489-0.24-1.47-0.292-1.448-0.343-0.695-0.195-0.693-0.2-0.675-0.221-0.676-0.23-0.675-0.24-0.656-0.25-0.652-0.252-0.645-0.269zm55.858-40.914v-0.978l-0.036-0.58-0.012-0.667-0.061-0.686-0.049-0.755-0.074-0.782-0.074-0.831-0.072-0.856-0.108-0.871-0.111-0.903-0.134-0.904-0.145-0.915-0.145-0.935-0.196-0.912-0.182-0.913-0.217-0.904-0.233-0.88-0.255-0.853-0.243-0.827-0.317-0.791-0.306-0.742-0.315-0.694-0.326-0.672-0.381-0.585-0.389-0.543-0.402-0.463-0.413-0.377-0.437-0.322-0.462-0.239-0.461-0.158-0.498-0.072-0.622 0.096-0.547 0.208-0.512 0.33-0.463 0.442-0.388 0.555-0.365 0.681-0.278 0.751-0.247 0.852-0.182 0.932-0.131 0.975-0.062 1.063-0.01 1.105 0.01 1.144 0.084 1.152 0.136 1.209 0.169 1.202 0.233 1.206 0.253 1.181 0.328 1.175 0.353 1.136 0.392 1.123 0.425 1.066 0.46 1.008 0.502 0.935 0.522 0.875 0.557 0.773 0.587 0.673 0.597 0.601 0.628 0.465 0.633 0.36 0.633 0.236 0.669 0.096 0.281-0.033 0.305-0.096 0.279-0.117 0.28-0.166 0.217-0.197 0.245-0.234 0.181-0.251 0.183-0.294 0.159-0.303 0.144-0.322 0.11-0.331 0.112-0.333 0.085-0.325 0.073-0.357 0.036-0.316zm2.163 7.673-0.713-0.5-0.442 0.361-0.195 0.139-0.193 0.152-0.195 0.15-0.195 0.139-0.208 0.159-0.18 0.14-0.193 0.133-0.209 0.134-0.183 0.155-0.183 0.124-0.194 0.165-0.208 0.152-1.409 0.925-1.411 0.594-1.412 0.295-1.362-0.029-1.35-0.307-1.278-0.562-1.204-0.785-1.156-0.994-1.082-1.207-1.01-1.339-0.938-1.505-0.851-1.641-0.756-1.727-0.689-1.829-0.56-1.883-0.488-1.972-0.376-1.957-0.244-1.981-0.132-1.983-0.015-1.952 0.133-1.895 0.247-1.847 0.413-1.749 0.558-1.647 0.731-1.52 0.875-1.382 1.07-1.222 1.228-0.995 1.435-0.818 1.62-0.562 1.797-0.313 2.022-0.035 0.376 0.071 0.331 0.048 0.327 0.066 0.328 0.06 0.318 0.057 0.279 0.071 0.28 0.064 0.302 0.06 0.257 0.091 0.279 0.066 0.256 0.086 0.259 0.08 0.228 0.09 0.243 0.112 0.245 0.094 0.229 0.125 0.23 0.111 0.21 0.136 0.243 0.155 0.218 0.143 0.231 0.169 0.206 0.164 0.231 0.194 0.219 0.193 0.219 0.217 0.22 0.227 0.218 0.236 0.233 0.262 0.606 0.723 0.682-0.955 0.512-0.586 0.511-0.528 0.532-0.431 0.538-0.374 0.558-0.302 0.549-0.228 0.548-0.179 0.546-0.126 0.56-0.06 0.511-0.02 0.511 0.028 0.5 0.087 0.472 0.124 0.464 0.171 0.425 0.179 0.401 0.219 0.365 0.251 0.328 0.249 0.279 0.3 0.256 0.309 0.181 0.331 0.161 0.32 0.097 0.362 0.024 0.341-0.048 0.37-0.111 0.35-0.204 0.33-0.255 0.294-0.33 0.245-0.524 0.305-0.449-0.117-0.268-0.023-0.22 0.023-0.205 0.061-0.184 0.104-0.183 0.134-0.158 0.195-0.159 0.217-0.122 0.249-0.131 0.285-0.1 0.295-0.096 0.322-0.074 0.353-0.096 0.321-0.036 0.352-0.073 0.341-0.074 0.548-0.06 0.589-0.026 0.595-0.036 0.624-0.057 0.637-0.016 0.647v2.674l0.037 0.688 0.036 0.671 0.036 0.699 0.05 0.704 0.036 0.69 0.074 0.698 0.073 0.693 0.072 0.674 0.074 0.675 0.084 0.667 0.085 0.655 0.087 0.648 0.083 0.626 0.097 0.614 0.11 0.615 0.087 0.58 0.123 0.56 0.121 0.544 0.108 0.511 0.11 0.513 0.11 0.47 0.108 0.379 0.244 0.306 0.218 0.404 0.159 0.398 0.085 0.416 0.025 0.384-0.025 0.402-0.097 0.406-0.147 0.364-0.168 0.372-0.209 0.344-0.254 0.331-0.267 0.316-0.294 0.277-0.303 0.273-0.328 0.253-0.367 0.218-0.361 0.168-0.355 0.155-0.377 0.125-0.39 0.111-0.387 0.088-0.392 0.047-0.412 0.036-0.413 8e-3 -0.403-0.034-0.415-0.053-0.401-0.106-0.351-0.142zm87.599-20.273c-3.075-0.021-2.298-5.93-4.769-7.788-3.43-3.256-5.887-1.69-7.212 1.222-1.192 2.573-1.972 6.76-1.677 10.78 0.33 4.288 1.81 8.453 3.586 11.095 1.057 1.577 2.445 2.794 3.951 2.774 1.634-0.025 3.53-1.875 3.321-4.244-0.241-2.487-0.593-5.144-0.533-7.131 0.057-1.9 1.921-2.967 3.76-2.093 2.238 1.068 2.362 2.031 2.094 4.915-0.685 7.407-1.476 10.485-7.73 13.856-2.005 1.059-4.669 1.325-6.263 0.979-2.065-0.438-3.782-1.92-5.18-4.048-2.055-3.185-3.345-7.806-3.724-12.667-0.548-6.734 0.645-13.886 3.809-18.075 2.628-3.47 6.618-4.923 12.153-2.441 3.44 1.548 12.319 11.265 4.414 12.866z" fill="#f68e1d"/><path id="path24-6" d="m356.44 406.18c0-10.954-8.893-19.826-19.854-19.826-10.923 0-19.805 8.872-19.805 19.826 0 10.945 8.882 19.835 19.805 19.835 10.961 0 19.854-8.89 19.854-19.835zm-19.538-48.944h-0.144c-20.145 0-37.808-11.09-48.136-27.464-0.457-0.756-1.057-1.413-1.753-1.873-0.772-0.51099-1.646-0.78399-2.596-0.78399-2.044 0-3.813 1.34-4.58 3.232-0.839 2.024-0.307 3.853 0.401 5.763 8.971 24.004 31.252 40.801 56.664 40.801h0.279c25.424 0 47.709-16.797 56.676-40.801 0.69201-1.91 1.214-3.739 0.411-5.763-0.80199-1.892-2.564-3.232-4.605-3.232-0.92799 0-1.828 0.273-2.581 0.78399-0.71801 0.46-1.29 1.117-1.766 1.873-10.337 16.374-27.977 27.464-48.135 27.464z" fill="#ed1b36"/></g></svg>
