<svg width="800mm" height="185.12mm" version="1.1" viewBox="0 0 800 185.12" xmlns="http://www.w3.org/2000/svg">
 <defs>
  <linearGradient id="a" x2="1" gradientTransform="matrix(0 1.1235 1.1235 0 356.69 393.57)" gradientUnits="userSpaceOnUse">
   <stop stop-color="#d7d7d7" offset="0"/>
   <stop stop-color="#e9e9e9" offset="1"/>
  </linearGradient>
  <linearGradient id="b" x2="1" gradientTransform="matrix(0 13.119 13.119 0 309.81 388.92)" gradientUnits="userSpaceOnUse">
   <stop stop-color="#c8c7c7" offset="0"/>
   <stop stop-color="#f4f4f4" offset=".26354"/>
   <stop stop-color="#f4f4f4" offset=".47273"/>
   <stop stop-color="#f4f4f4" offset=".70457"/>
   <stop stop-color="#c8c7c7" offset="1"/>
  </linearGradient>
  <clipPath id="e">
   <path d="m0 0h595.28v841.89h-595.28z"/>
  </clipPath>
  <linearGradient id="c" x2="1" gradientTransform="matrix(0 -4.4789 -4.4789 0 346.33 399.92)" gradientUnits="userSpaceOnUse">
   <stop stop-color="#f26b17" offset="0"/>
   <stop stop-color="#f26b17" offset=".015506"/>
   <stop stop-color="#f26b17" offset=".2"/>
   <stop stop-color="#f26b17" offset=".26202"/>
   <stop stop-color="#fbc10a" offset="1"/>
  </linearGradient>
  <linearGradient id="d" x2="1" gradientTransform="matrix(0 -8.9586 -8.9586 0 346.33 398.8)" gradientUnits="userSpaceOnUse">
   <stop stop-color="#f26b17" offset="0"/>
   <stop stop-color="#f26b17" offset=".015506"/>
   <stop stop-color="#f26b17" offset=".2"/>
   <stop stop-color="#f26b17" offset=".26202"/>
   <stop stop-color="#fbc10a" offset="1"/>
  </linearGradient>
 </defs>
 <g transform="translate(27.009 33.973)">
  <g transform="matrix(14.111 0 0 -14.111 -4426.9 5639.2)">
   <path d="m312.75 401.04h31.583v-11.198h-31.583z" fill="url(#d)"/>
  </g>
  <g transform="matrix(14.111 0 0 -14.111 -4426.9 5639.2)">
   <path d="m312.75 401.04h31.583v-5.599h-31.583z" fill="url(#c)"/>
  </g>
  <g transform="matrix(14.111 0 0 -14.111 -4426.9 5639.2)">
   <g clip-path="url(#e)">
    <g transform="translate(316.38 394.36)">
     <path d="m0 0h4.102c2.306 0 2.651 1.436 2.651 2.292 0 0.702-0.258 2.333-2.651 2.333h-5.614v-6.982h1.512zm0 3.113h4.102c0.962 0 1.138-0.276 1.138-0.821 0-0.549-0.158-0.78-1.138-0.78h-4.102z" fill="#fff"/>
    </g>
    <g transform="translate(333.95 392)">
     <path d="m0 0h5.614c2.393 0 2.651 1.631 2.651 2.333 0 0.435-0.09 1.021-0.481 1.491 0.332 0.373 0.411 0.837 0.411 1.244 0 0.702-0.258 1.914-2.652 1.914h-5.543v-1.512h5.939c0.384 0 0.814-0.048 0.814-0.428 0-0.381-0.365-0.417-0.814-0.417h-4.543v-1.512h4.218c0.981 0 1.139-0.23 1.139-0.78 0-0.544-0.176-0.82-1.139-0.82h-5.614z" fill="#fff"/>
    </g>
    <g transform="translate(329.56 398.98)">
     <path d="m0 0h-4.218v-1.513h4.218c0.962 0 1.139-0.276 1.139-0.82v-0.024h-4.102c-2.307 0-2.651-1.437-2.651-2.293 0-0.701 0.258-2.332 2.651-2.332h5.614v4.649c0 0.702-0.258 2.333-2.651 2.333m1.139-5.47h-4.102c-0.962 0-1.139 0.276-1.139 0.82 0 0.55 0.159 0.78 1.139 0.78h4.102z" fill="#fff"/>
    </g>
   </g>
  </g>
  <g transform="matrix(14.111 0 0 -14.111 -4426.9 5639.2)">
   <path d="m311.81 388.92h56.694v13.119h-56.694zm1.121 11.999h31.225v-10.878h-31.225zm33.822-1.94h17.698c1.16 0 1.595-0.958 1.597-1.562v-0.601c0-0.507-0.153-0.947-0.434-1.293 0.279-0.357 0.434-0.827 0.434-1.38v-0.594c-7e-3 -0.613-0.446-1.569-1.597-1.569h-7.298v4.291l6.885 1e-3c0.466 0 0.466 0.335 0.466 0.545v0.579h-12.29v-5.415h-1.535v5.415h-3.926z" fill="url(#b)"/>
  </g>
  <g transform="matrix(14.111 0 0 -14.111 -4426.9 5639.2)">
   <path d="m358.69 394.69v-1.123h5.814v0.579c0 0.21 0 0.544-0.466 0.544z" fill="url(#a)"/>
  </g>
 </g>
</svg>
