<svg width="996.1pt" height="355.96pt" version="1.1" viewBox="0 0 996.1 355.96" xmlns="http://www.w3.org/2000/svg" xmlns:xlink="http://www.w3.org/1999/xlink">
 <defs>
  <linearGradient id="a">
   <stop stop-color="#eb1c24" offset="0"/>
   <stop stop-color="#b11e24" offset="1"/>
  </linearGradient>
  <linearGradient id="b">
   <stop stop-color="#5a5b5d" offset="0"/>
   <stop stop-color="#939498" offset="1"/>
  </linearGradient>
  <linearGradient id="e" x1="103.47" x2="625.11" y1="249.74" y2="249.74" gradientTransform="translate(-101.88 -71.72)" gradientUnits="userSpaceOnUse" xlink:href="#b"/>
  <linearGradient id="d" x1="101.88" x2="518.99" y1="249.65" y2="249.65" gradientUnits="userSpaceOnUse" xlink:href="#a"/>
  <linearGradient id="c" x1="674.33" x2="674.33" y1="424.49" y2="349.78" gradientUnits="userSpaceOnUse" xlink:href="#b"/>
  <linearGradient id="f" x1="880.86" x2="880.86" y1="246.24" y2="324.03" gradientUnits="userSpaceOnUse" xlink:href="#a"/>
 </defs>
 <path d="m523.23 0.19-102.88 355.67-90.09-113.88-164.76 113.88-163.91-1e-5z" fill="url(#e)"/>
 <g transform="translate(-101.88 -71.72)" fill="url(#f)">
  <path d="m836.79 252.79c9.62-6.62 21.95-9.44 33.44-7.02 5.58 0.91 10.77 3.24 15.87 5.57l-6.01 11.36c-3.9-2.55-7.85-5.25-12.48-6.24-7.59-1.51-16.1-1.1-22.63 3.47-8.84 6.69-14.98 17-16.28 28.04-1.5 7.43 0.56 15.92 6.15 21.21 5.99 4.43 13.85 5.65 21.14 4.9 6.19-0.55 11.66-3.84 16.78-7.13l2.32 11.74c-10.05 4.32-21.03 7.2-32.04 6.21-8.82-1.38-17.81-5.47-22.71-13.25-5.52-8.85-5.44-20.12-2.51-29.85 2.94-11.33 9.01-22.43 18.96-29.01z"/>
  <path d="m644.45 246.03h11.79l-5.34 34.24 33.48-34.24h14.69l-32.15 33.85 23.95 44.05h-15.44l-17.46-36.1-10.38 10.68-4.75 25.42h-11.97z"/>
  <path d="m706.46 245.97h24.541c6.56-0.2 13.67 0.86025 18.89 5.1402 3.82 3.06 5.51 8.11 5.2 12.89 0.22 9.03-4.33 18.26-12.35 22.71-8.45 4.63-18.45 4.7398-27.8 3.9298-1.3571-0.13051-2.668-0.25011-4.207-0.5625-1.957 11.692-4.1026 23.806-5.893 33.843h-11.97m23.36-65.82-3.37 20.83c4.1246 0.58831 8.0977 1.0047 11.735 0.94984 4.3794-0.0374 8.9741-0.46505 12.415-2.6005 4.4548-2.8216 6.9231-8.8278 5.7308-13.979-1.2291-3.3409-4.98-4.3706-8.06-4.95-6.11-0.85-12.31-0.37-18.45-0.25z"/>
  <path d="m781.23 246.15h12.49l16.55 77.78h-13.89l-2.79-15.725h-35.21l-8.59 15.725h-14.01l45.45-77.78m-16.2 49.845h26.6l-7.05-35.065z"/>
  <path d="m894.75 246.24h11.3l-5.12 30.415h38.46l5.35-30.415h12.02l-13.54 77.795h-12.37l6.04-34.765h-37.96l-6.43 34.765h-11.64z"/>
  <path d="m994.18 246.13h12.49l16.55 77.78h-13.89l-2.79-15.725h-35.21l-8.59 15.725h-14.01l45.45-77.78m-16.2 49.845h26.6l-7.05-35.065z"/>
  <path d="m1059 248.62c5.2-2.7 11.2-2.33 16.89-2.43h22.12l-13.46 77.845h-11.63l5.11-30.495h-16.416l-21.224 30.495h-14.52l26.38-34.725c-3.57-3.57-8-6.92-9.09-12.14-2.27-11.64 4.93-24.14 15.84-28.55m-1.77 14.19c-2.07 3.4-2.84 7.55-2.18 11.46 0.65 3.53 3.89 5.9 7.02 7.12h17.89l3.95-23.58h-15.9c-4.03 0.14-8.46 1.47-10.78 5z"/>
 </g>
 <g transform="translate(-101.88 -71.72)" fill="url(#d)">
  <path d="m203.34 72.075h132.59l-35.622 121.6 174.46-121.96-35.57 125.29-337.32 230.57z"/>
  <path d="m431.96 317.48 87.028 110.1h-151.64l-33.461-43.343z"/>
 </g>
 <g transform="translate(-101.88 -71.72)" fill="url(#c)">
  <path d="m618.04 349.78h56.29l-13.63 77.895h-12.099l11.399-66.27h-32.44l-8.94 51.235c-0.86 4.34-2.8 8.87-6.72 11.28-5.2 3.62-11.81 3.285-17.84 3.755l2.2-12.565c2.35-0.47 4.83-0.7 6.98-1.82 2.6-1.62 4.03-4.57 4.64-7.47z"/>
  <path d="m686.96 349.79h11.31l-9.33 56.565 47.254-56.565h12.066l-13.58 77.84h-12.263l9.8728-57.125-47.302 57.125h-11.928z"/>
  <path d="m760.94 349.76h11.3l-5.12 30.415h38.46l5.35-30.415h12.02l-13.54 77.795h-12.37l6.04-34.765h-37.96l-6.43 34.765h-11.64z"/>
  <path d="m835.94 349.82h11.31l-9.33 56.565 47.254-56.565h12.066l-13.58 77.84h-12.263l9.8728-57.125-47.302 57.125h-11.928z"/>
  <path d="m923.11 352.16c5.2-2.7 11.2-2.33 16.89-2.43h22.12l-13.46 77.845h-11.63l5.11-30.495h-16.416l-21.224 30.495h-14.52l26.38-34.725c-3.57-3.57-8-6.92-9.09-12.14-2.27-11.64 4.93-24.14 15.84-28.55m-1.77 14.19c-2.07 3.4-2.84 7.55-2.18 11.46 0.65 3.53 3.89 5.9 7.02 7.12h17.89l3.95-23.58h-15.9c-4.03 0.14-8.46 1.47-10.78 5z"/>
 </g>
</svg>
