<?xml version="1.0" encoding="UTF-8"?>
<!-- Generator: Adobe Illustrator 16.0.0, SVG Export Plug-In . SVG Version: 6.00 Build 0)  -->
<svg id="svg54" width="233.86" height="146.37" enable-background="new 0 0 283.464 283.464" version="1.1" viewBox="0 0 233.86 146.37" xml:space="preserve" xmlns="http://www.w3.org/2000/svg" xmlns:cc="http://creativecommons.org/ns#" xmlns:dc="http://purl.org/dc/elements/1.1/" xmlns:rdf="http://www.w3.org/1999/02/22-rdf-syntax-ns#"><metadata id="metadata60"><rdf:RDF><cc:Work rdf:about=""><dc:format>image/svg+xml</dc:format><dc:type rdf:resource="http://purl.org/dc/dcmitype/StillImage"/><dc:title/></cc:Work></rdf:RDF></metadata><g id="Logo" transform="translate(-24.802,-68.548)"><g id="g50"><g id="g24"><g id="g22"><g id="g20" fill="#282828"><g id="g6"><polygon id="polygon2" points="24.803 68.548 80.125 68.548 104.82 112.74 49.508 112.74"/><polygon id="polygon4" points="24.803 163.38 80.125 163.38 104.82 119.19 49.508 119.19"/></g><g id="g12"><polygon id="polygon8" points="101.72 68.548 157.03 68.548 181.73 112.74 126.42 112.74"/><polygon id="polygon10" points="101.72 163.38 157.03 163.38 181.73 119.19 126.42 119.19"/></g><g id="g18"><polygon id="polygon14" points="178.62 68.548 233.94 68.548 258.66 112.74 203.34 112.74"/><polygon id="polygon16" points="178.62 163.38 233.94 163.38 258.66 119.19 203.34 119.19"/></g></g></g></g><g id="g48"><g id="g46" fill="#282828"><path id="path26" d="m24.803 185.24c1.017-0.194 2.132-0.347 3.356-0.456 1.219-0.106 2.435-0.165 3.645-0.165 1.257 0 2.521 0.106 3.79 0.309 1.271 0.209 2.416 0.619 3.428 1.236 1.018 0.616 1.846 1.476 2.488 2.577 0.64 1.1 0.963 2.532 0.963 4.296 0 1.596-0.28 2.943-0.837 4.046-0.556 1.104-1.293 2.004-2.214 2.705-0.917 0.699-1.964 1.206-3.139 1.521-1.173 0.314-2.387 0.472-3.646 0.472h-0.583c-0.264 0-0.541-5e-3 -0.832-0.019-0.289-0.011-0.576-0.029-0.854-0.053-0.273-0.021-0.476-0.049-0.596-0.072v8.741h-4.97v-25.138zm7.4 3.664c-0.485 0-0.941 0.019-1.379 0.053-0.434 0.035-0.785 0.078-1.051 0.129v8.234c0.097 0.023 0.24 0.048 0.435 0.072 0.194 0.023 0.399 0.042 0.616 0.056 0.218 0.014 0.43 0.019 0.635 0.019h0.455c0.653 0 1.301-0.062 1.94-0.184 0.639-0.12 1.218-0.345 1.722-0.673 0.511-0.325 0.913-0.776 1.218-1.358 0.302-0.579 0.455-1.342 0.455-2.287 0-0.797-0.149-1.459-0.44-1.975-0.29-0.52-0.668-0.941-1.14-1.254-0.474-0.312-1.01-0.53-1.615-0.65-0.603-0.124-1.223-0.182-1.851-0.182z"/><path id="path28" d="m44.102 197.68c0-4.234 0.931-7.495 2.796-9.776 1.863-2.287 4.523-3.432 7.979-3.432 1.816 0 3.398 0.317 4.756 0.944 1.354 0.63 2.478 1.523 3.373 2.685 0.895 1.161 1.558 2.551 1.995 4.176 0.435 1.62 0.652 3.421 0.652 5.403 0 4.229-0.937 7.493-2.81 9.777-1.874 2.284-4.53 3.429-7.967 3.429-1.837 0-3.433-0.314-4.786-0.941-1.355-0.63-2.476-1.526-3.356-2.688-0.886-1.161-1.545-2.551-1.979-4.171-0.433-1.619-0.653-3.42-0.653-5.406zm5.227 0c0 1.281 0.108 2.463 0.325 3.539 0.219 1.075 0.552 2.001 0.999 2.774 0.447 0.774 1.021 1.377 1.725 1.814 0.699 0.433 1.534 0.654 2.5 0.654 1.767 0 3.135-0.688 4.1-2.071 0.969-1.379 1.452-3.612 1.452-6.711 0-1.232-0.101-2.383-0.31-3.447-0.203-1.062-0.521-1.996-0.96-2.794-0.438-0.798-1.002-1.419-1.705-1.87-0.7-0.445-1.562-0.667-2.577-0.667-1.766 0-3.131 0.707-4.1 2.121-0.965 1.415-1.449 3.638-1.449 6.658z"/><path id="path30" d="m90.363 214.92h-3.521l-0.545-4.539h-16.325l-0.542 4.539h-3.52v-8.966h2.684c0.17-0.262 0.449-0.856 0.837-1.777 0.385-0.92 0.771-2.217 1.158-3.9 0.388-1.676 0.713-3.784 0.979-6.309 0.267-2.526 0.389-5.521 0.363-8.981h15.201v20.968h3.23v8.965zm-8.201-8.966v-16.541h-5.622c-0.145 4.304-0.487 7.829-1.034 10.577-0.545 2.743-1.096 4.731-1.65 5.964z"/><path id="path32" d="m107.16 199.75h-9.292v10.628h-4.967v-25.395h4.967v10.34h9.292v-10.34h4.97v25.395h-4.97z"/><path id="path34" d="m115.47 197.68c0-4.234 0.931-7.495 2.794-9.776 1.859-2.287 4.519-3.432 7.979-3.432 1.815 0 3.401 0.317 4.755 0.944 1.353 0.63 2.479 1.523 3.373 2.685s1.563 2.551 1.998 4.176c0.434 1.62 0.65 3.421 0.65 5.403 0 4.229-0.938 7.493-2.812 9.777-1.876 2.284-4.528 3.429-7.965 3.429-1.839 0-3.434-0.314-4.789-0.941-1.354-0.63-2.471-1.526-3.356-2.688-0.882-1.161-1.541-2.551-1.976-4.171-0.438-1.619-0.651-3.42-0.651-5.406zm5.222 0c0 1.281 0.109 2.463 0.328 3.539 0.217 1.075 0.55 2.001 0.997 2.774 0.447 0.774 1.023 1.377 1.723 1.814 0.704 0.433 1.537 0.654 2.503 0.654 1.768 0 3.135-0.688 4.104-2.071 0.963-1.379 1.449-3.612 1.449-6.711 0-1.232-0.104-2.383-0.307-3.447-0.209-1.062-0.526-1.996-0.964-2.794-0.437-0.798-1.006-1.419-1.705-1.87-0.699-0.445-1.561-0.667-2.577-0.667-1.767 0-3.132 0.707-4.099 2.121-0.968 1.415-1.452 3.638-1.452 6.658z"/><path id="path36" d="m140.32 184.98h15.057v4.427h-10.09v5.913h9.185v4.427h-9.185v6.201h10.271v4.427h-15.238z"/><path id="path38" d="m174.71 199.53h-1.305v10.847h-4.97v-25.395h4.97v11.247l1.161-0.507 6.999-10.74h5.662l-7.404 10.665-1.956 1.38 2.03 1.417 8.453 11.933h-6.132z"/><path id="path40" d="m204.75 196.3 0.291-3.304h-0.179l-1.708 3.413-9.468 13.966h-3.738v-25.395h4.972v13.824l-0.36 3.41h0.216l1.777-3.52 9.468-13.715h3.703v25.395h-4.974z"/><path id="path42" d="m228.81 199.75h-9.288v10.628h-4.972v-25.395h4.972v10.34h9.288v-10.34h4.972v25.395h-4.972z"/><path id="path44" d="m237.11 197.68c0-4.234 0.932-7.495 2.794-9.776 1.857-2.287 4.523-3.432 7.979-3.432 1.817 0 3.402 0.317 4.758 0.944 1.351 0.63 2.477 1.523 3.373 2.685 0.894 1.161 1.563 2.551 1.993 4.176 0.438 1.62 0.651 3.421 0.651 5.403 0 4.229-0.932 7.493-2.808 9.777-1.878 2.284-4.53 3.429-7.968 3.429-1.836 0-3.432-0.314-4.787-0.941-1.353-0.63-2.474-1.526-3.354-2.688-0.887-1.161-1.54-2.551-1.978-4.171-0.434-1.619-0.653-3.42-0.653-5.406zm5.222 0c0 1.281 0.112 2.463 0.331 3.539 0.219 1.075 0.547 2.001 0.995 2.774 0.448 0.774 1.021 1.377 1.718 1.814 0.705 0.433 1.543 0.654 2.506 0.654 1.77 0 3.136-0.688 4.104-2.071 0.966-1.379 1.446-3.612 1.446-6.711 0-1.232-0.099-2.383-0.308-3.447-0.202-1.062-0.522-1.996-0.955-2.794-0.44-0.798-1.006-1.419-1.71-1.87-0.702-0.445-1.562-0.667-2.578-0.667-1.764 0-3.133 0.707-4.096 2.121-0.964 1.415-1.453 3.638-1.453 6.658z"/></g></g></g></g></svg>
