<svg id="a" version="1.1" viewBox="0 0 1500.4 521.82" xml:space="preserve" xmlns="http://www.w3.org/2000/svg">
<g id="b" transform="translate(-6449 -6938.8)" display="none">
	<path id="c" d="m6691.2 7153.3c0.2 0.4 4.4 1.3 7.3 0.1 3.1-0.9 12 8.1 7.3 0.1-2-3.4 1.6 6.1 0 8.5 4.3 9.9-0.9 3.9 0.9 10.3 0.4 3.8-2.4 2.3-0.9 8.4-1.4 1-2.9 1.8-2.8 5.1 1.7 6.1-2 2.7 2.8 13.6 1.8 5.7 2.8 9.6 2.9 11.1 0 1.6-0.9 0.8-2.9-2.6 3.8 6.6 7.4 4.2 10 0 2.9 0.8 4.5-0.8 5.8-1.8s2.7-0.7 4.2 1.8c-0.7-1.2 0.9-1.9 0-8.5-6.4-13.7-7.2-18-4.1-15.8 3.3 2.5 7.8 7 4.1-2.8 2.8 1.4-2.8-11.6 0.5-9.2 3.1 2.2-0.3-6.7-0.5-9.5 0.9-3.6-0.1-8.6 0-8.5 0.6 1.1 2.7-1.6 7.3 0 1-4.6 8.5 2.1 7.3 0 1.8 3.2-3-1.9 0 8.5 2.8 7.4 4 12.4 0.9 10.2-1.6 0.5-1.9 3.4-0.9 8.5-2.6-1-1.1 4.8 2.4 14.1 1.8 6.3 2.8 11-2.4 4.6 5.5 14.6-0.1 8.2 0 8.5-0.6-1 0.5-1.3 2.4-1.2s4.7 0.6 7.6 1.2c-0.1-4.5 3.1-3.2 5.4-2.6-0.4-4 2.5-1.2 4.6 2.6-1.2-2.1 1.5-0.7 0-8.5 5.9 7.7 2-2.1 3.3-2.9-0.2-1.9-0.1-3.4-0.4-5.6s-1-5.2-2.9-10.1c1.6-0.7 2.5-2.5-0.3-10.4 1.5-0.6 3.3-0.4 0.3-8.2 3.8 1.4-1.6-11.3 0-8.5 3.1 5.4 6.4 4.7 7.3 0 4.8 2 8.7 2.4 7.3 0-1-1.7 0.4 4.8 0 10.4-0.7 1.9-1.9 3.4 0 10.7 1.4 6.3 1.1 9.9 0 12.2-1 2.5-2.3 4.3-0.2 11.9 0.1 4.1 0.5 8.5 0.2 11 2 9.6 3.6 16.7 0 10.4 0.2 0.4-0.4 5.1-8.7 0-4.2-2.7-8.7-4.9-8.9 0.7-2.9 1-6.3 1.8-11.8-0.7-16.4-14.5-18.5-3.2-24.8 0-11.2-5.5-16.4-1.8-20.7 0-11.6-10.8-9.6-1.6-8.7 0 0.7 1.2 2.2 1.4 0-6.1-2.5-8.1 1.2-7.1 0-14.9 3.3 2.8 2-2.5 0.6-8.1-4.3-10.6-6.1-16.9-0.6-10.3-2.3-7-1.1-7.9-0.4-9.6 0.5-2 0-5.4 0.4-7.1-0.8-7.9-0.7-11.8-0.2-11z" display="inline" fill="#f5f5ff"/>
	<path id="d" d="m6815 7221.5c-1.8 1.3-5.2-0.6-7.3-0.7-1.5 1 0 6.6-6.4-2-1.3 0.3-5.4-4.7-5.6-3.2-2.4-2.5-2.6-1.6-4.6-4.2 0.3 1.3-5.8-8.8-3.7-5.1-0.9-1.5 2.2 3.5-2.7-5.9-1.4-3.3-3.2-7.5-1.7-6.5-4.1-8.8 0.7-2.5-0.6-7 3 2.8 4.7 3 0.6-7.1 4 3.9 3.6 0 1.7-6.7-3.3-9.2 4.5 0.9 2.7-6 1.7-0.8 1.1-5.7 3.7-5.2 0.8-2.6-0.3-8.7 4.6-4.2-1.7-7.2 3.2-2.9 5.6-3.2 5.8 5.8 3.1-3.4 6.4-2-0.1-4.5 3.1-3.5 7.3-0.7 0.5-3.5 3.6-2.1 7.2 0.7 0.7-2.2 7 5.5 6.4 2 0-2.6 4.1 2.3 5.6 3.2-1.5-4.3 2.4 1.1 4.6 4.2-2-3.9-1.9-4-0.9-2.4 0.6 0.8 2.3 3.6 4.6 7.6-0.9-1.5-4.8-7.8 2.7 6-1.4-1.5 1.8 5.2 1.7 6.7 0.3 2.1-1.8 0.5 0.6 7.1-2.9-3.8 2.8 7.4 1.4 6.2 1.7 4.4 4.5 10.6-1.9 0.8-3.3-2.8-3.8-0.5-1.7 6.5-0.6 0.7 4.9 12 0.9 6.7-4.1-5.4 1.3 5.9-3.6-0.8-0.3 1.3 0.2 4.1 0.1 5.7-0.1 1.7-0.9 2.3-3.8-0.7-3.5-2 0 8.1-4.6 4.2-3-3.1 2.7 9-0.2 5.9-2.2-1.6-3.3-1.4-5.3-2.8-4.6-3.5-2.9 3.7-6.4 2 1.3 4.5 0.6 5.4-1.1 4.7-1.8-0.4-4.3-2.4-6.3-3.8zm0-12.2c5.4 3.7 5.7-1.3 8.3-1.9 3.2 0.4 7 1.9 5.6-5.1 2.5-0.2-0.3-9.3 3.1-7.1-5-10.6 4.3 3.7 2.5-1-5-10.4-5.1-12-1.5-7.1-2.1-6.6-3.4-11.2-1-8.5-2.4-5.8-0.8-3.6-3.1-7.3-2.6-4.4-2.1-3-1.9-1.9s0.1 2-3.7-3.2c-5.9-7.5-2.5 2.6-8.3-1.9 4.4 13.4-4.3 3.6-8.3 1.9-4.2-2.1-7.1-2.2-5.6 5.1-1.6 1.9-3.5 2.8-3.1 7.3 0.5 4.7-4.3-0.1-1 8.5 3.9 9.6 2.9 10 1 8.2-3.8-5-1.9-1.2 3.1 7.1-3.6-6.6 6.5 9.4 5.6 5.1 3.9 4 5.4 2.4 8.3 1.8z" display="inline" fill="#f5f5ff"/>
	<path id="e" d="m6855.1 7153.4c-3.8-6.5 2.9-1.3 7.3 0 1.3-4 9.4 3.6 7.3 0 0.6 1 2 5.1-0.3 3.6-1.4-1.2-1.6-0.1-1.3 2s1.1 5.1 1.6 7.7c1.8 4.7-1.5 0.8 2.6 9.4-2.3-2.4-6.2-7.7-2.5-0.1-2-0.9-1.8 1.1-0.1 4-6-10.3 1.5 0.6-1.1-7.2 0.5-0.9 2.2 0.2 3.6 0.3 0.3-1.8 5.6 4.9 4.2 0-4.3-10.1 0.9-3.9 0.3-7.8-0.3-3.5 5.7 3.9 3.9-2.1 5.7 3.9 8.5 2.9 8.2-3 0.5-4.4 1.2-7.8 2.2-9.4s2.4-1.1 4.5 2.4c-0.6-1 4.2-0.6 9.1 0 1.6-1.1 4.5 0 7.7 2.6 0-3 3.6 1.2 1.4-2.6-0.9-1.5-1.7-0.9-1.4 3.3-1.8 0.5-3.4 2.7-6 4-3.4-0.2-5.2 3.2-6.7 7.1 0.9 8.1-5.1 4.1-7.1 6.4 5.3 14.8-2.8 5.9-5.9 4.1-2.1-0.1-7-6.3-1.5 3.1-1.9-3.2 1 1.3 2.6 3.4 6.5 10.5 1.9 1.7 5.5 6.7 1.1 1.4 0.1-1 3.2 3.8-1.3-2.8-2.5-5.6 4.5 5.9-3.4-6.1 2.5 3.6 3.8 5.6 0.8 1.2 3.6 5.7 0.5 0 2.6 3.9 5.1 7.7 3 3.4 2.5 3.8 0.3-0.5 0.1-1.3 2 3 4.5 7 5.6 8.5 2.6 3.8 7.2 11.4 2.3 2.9 0.3 0.5 3 7.2 1 6.7-0.6 0.5-4.7-5-4.1-2.1-0.8 0.4-5.7-6-6-4.6 1.8 7-6.5-3.4-6.5-0.4-3-2.3-5.1-3.9-2.6 0.4-0.2-0.3 3 5.5 0 0.7-2.6-4.1-5.1-7.6-6-8.4-5.3-8.4-4.3-5.7-6.3-8.3 4.5 8.7-10-15.6-4.9-5.9-7.9-12-6.1-7.7-6.1-7.7-2.7-4.7-8.3-0.5-4.9 5.3 0.7 1.2 4.4 8 3.2 6.7 1.3 2.9-0.9 0-1.4 0.4-3.5-5-4.4-5.2-3.9-2.9 0.7 2.6 3 8.2 2.1 8 0.5 2.3 4.1 10.2 1.9 7.7 1.6 4.3 4.6 10.8-1.9 0.6 3.5 7.1 6.3 13.1 3.3 8.4 1 2.4 0.2 1.4-3.3-4.6-2-3.4 0.8 2.9-1.5 1.4 4.1 9.4-3.1 0.1-5.8-1.4-2.7-1.6-4-0.7-4.7 0.6 2.2 6.1 0.2 4.3-2.6-0.6 1.8 3.2-1.2-3.2-1.4-5.2-4.5-9.6-2.9-9.4 1.4-5.2-3.4-7.5-8.8-18.5-7.1-17.4 7.1 10.6 1.7-0.7 5.5 3.9 0.8-0.6 4.2 3.3 1.4-3.7 0.7-0.8-2.1-7.8 0.3-5.7-2-5.5-3.5-10.3-1.2-8.3-1-3.9 4.7 4 1.2-3.9-1.2-4-2-7.3-2.2-9.4-0.1-2 0.4-2.7 2.1-1.4-2.6-7.6-3.6-12-3.5-13.6 0.1-1.5 1.3-0.3 3.4 3.2z" display="inline" fill="#f5f5ff"/>
	<path id="f" d="m6919.6 7153.4c-3.2-5.5-2.2-5.4-0.1-4.1 3.2 3.2 3.7 0.9 7.3 4.1 2.4-2 4.5-4.7 7.2 0 2.9 5 1.8 8.3 0 12 1 8.5 3.7 21.8 0 22.2-5-1.9-2.9 7 0 12-1.7-3 3.9 6.3 0.3 0-2.9-5-0.3-10.5 6.5-12 2.8-1.8 5.8-4.1 8.1-7.6 2.8-2.7 4-8.1 4-14.6 1.8-10.2 6.5-12 6.5-12h8.2c4.1 0 15 11.9 8.2 0-1-1.8 0.8 5.5 0 10.4-3.2-2.5-2 3.2 0.8 12.1-2-1.5-1.8 0.9-1.3 3.8s1.1 6 0.5 7c-1.3-0.2-2.6-0.4 0.5 7.1 0.8 3.4 0.9 5.6-0.9 4.4 0.2 2.3-1.9 0.6-0.5 4.8 2.5 6.2 2.9 8.4 0.9 6.6-3-2.1-1.9 2.4 0.2 7.9-0.9 0.2-1.2 0.8-0.2 2.5-0.3-0.5-6.9-5.6-7.2 0-0.1 6.1-3.3 6.9-7.2 0-0.2-0.4 2.3 2.6 0.8-2-3-7.3-1.2-7.2-0.8-10 1.1 0.3 0.6-2.4-1.4-7.8 0-1.8 3.9 2.9 2-2.3-1.4-4.3 0.6-2.8 0.4-5.1-0.1-2-0.5-4.5-1-7.1-2.5-7.7-0.2-6.8 0.2-8.3-0.3-2.6 0.5-2.5-0.2-3.7-0.1-0.2 0.9 2-0.3 0-2.5-4.3-2.9-2.5-1.6 4-1.8 1 4.2 17.3-5 8-1.3 4.3-2.5 9.9-6.4 10.5-2.3 3.5-4.5 7.2-5.7 11.7-2.3 9.3-10.6 5-6.5 12 2.5 4.3-4 0.2-8.2 0-3.1 1.8-7.4 1.3-8.2 0 3.1 5.4 1 0.8 1.1-0.9-2.6-6.3 1.3-2.2-1.1-9.5 2.9 3.5 1.3-1 1.6-2.2-4.3-9.2 0.8-2.2-1.2-7.7-4.2-8.3-3.8-8.6-2.9-8-2.5-5.3 2.6 2.5 2.3 0.9 0-1.1 1.9 1.2 2.7 1.5 1.6 1.7-1.5-4.8-2.4-7.3-2.9-9.2 6.8 3.5 1.5-9.6 1-0.2 0.9-2.4 0.3-5.1-0.5-2.7-1.4-6-1.8-8.2-2.4-7.3 3.2-0.2-1.1-9.5-1.3-4.2 0.5-2.1 1.1-0.9z" display="inline" fill="#f5f5ff"/>
	<path id="g" d="m6986.3 7153.4c-0.7-1.2 6.4-1.8 14.9 0 9.5 3.6 14.2-1.3 14.9 0 1.1-1.7 2-3.3 5.7 0.5 6.4 8.3-1.4-7.4 4.8 1.4-1-5.5 6.2 4.4 7.1 4.8 0.4-0.5 2.2 2.7 4 6.9-2.5-3.2 5.2 12 1.3 7.9 4.8 11.1 1.7 9-1.3 7.9 3 7.2 3.3 9.8 0.6 7.5-2.7-2.5-2.9-0.3-4.6-0.7-4.1-5.8 0.4 3.3 1.4 6.3-1.3-1-3.4-3.1-0.9 2.6 3.2 7 3.2 8.4-1.3 2.1-2.1-2.2-2.9-2-6.2-6.2-3.6-3.1 2.9 11.4-4.8 1.4-0.3 2.8-7.3-5.8-5.7 0.5 1.6 2.8-0.1 1.5-2.3 0.2s-4.9-2.7-5.3-0.2c-5-5.4-6.8-5.1-7.3-3.6-1 0.8-5.4-5.2-0.3 3.6 3.6 6.3-2.3-2.5-1.4 1.4-2.4-1.8 1.4 7.6 1.4 10.6-3.7-3.5 1.9 9.3 0.8 9.6-0.2 1.9 3.6 9.9-0.8 2.4-3.3-5.7-1 4.5-7.3 0-0.3 5.7-11.3-7-7.3 0 1.1 1.8-1-6 0-10.4-0.2-3.4-4.2-14-1.5-13.3-2.3-7.9-1.8-11.1 1.5-9.6-1.2-6.3-1.7-11.2-1.6-15s0.7-6.4 1.6-7.9c-1.5-9.1 2.8-5.8-0.1-10.7zm25.9 31.3c7.3 9.8 1.2-3.8 4.8-0.4-1.6-3.6 2.4 2.7 5.9 8-0.1-0.9 0-1.4-0.5-3 2.2 2.4 5.2 6.2-1.3-6.4 3.1 2.7 6 5 2.8-3 7.9 11.1 1-3.2 1.1-5.1-1.4-3.4 5.1 7-2.9-7.4 7.6 12.5 2.6 3.6 1.8 2.2 7.5 12.8-2.9-4.5-2.8-3-6.6-10.8-6.9-10.5-4.5-5.4-2.2-2.9-3.2-3.4 0.4 3.9-3.6-3.7-5.1-3.8-4.8-0.4-1-1.6-4.4-2.7-5.6 0-5.3-4.2-5.4 0.3-5.6 0-2.9-5-0.3 4.5 0 10-3.3-0.7-3.9 3.2 0 10 0.9 1.6 4.2 2.4 5.6 0 1.9 0.9 2.9 0.2 5.7 3.1-0.1-1.9-0.6-3.9-0.1-3.1z" display="inline" fill="#f5f5ff"/>
	<path id="h" d="m7058.6 7221.2c-0.6 1.8-2.5 0.8-4.3-0.7-0.5 0.8-4.6-4.9-2.8-1.2-8.5-14.8-5.4-12.4 0-5.9 2 0.5-8.4-20.5 0-5.9 7 11.3 3.1 3.4 2.5 1-2.1-5-2.6-7.8 3.6 0.4 1.4-1.3 7.2 5.1 5.4-1.1 2.1 0.5 2.9-1.2 2.6-4.4-7.4-12.8-1.3-2.4 0.1-0.1-0.9-1.7 3.6 6-4.2-7.8 2.5 4.2-0.1-0.6-3-5.9-4.5-8 0.4 0.4-0.4-1 1.8 2.9-3.3-6-5.7-10.2-6-10.6-3-5.5-5.5-9.9 2.8 4.7-5.2-9.2-0.6-1.4 2.7 4.5-3.3-6.2-3-5.8 0.5 0.7 2.1 3.3-3.4-6.4 3.8 6.5 1.8 3-0.7-1.4-0.3-0.4 0.5-0.9 0.8-3.1 6 7.8 5.6 3.5 7.4 3.1-0.9-5.1 6.9 4.9 7.6 3.5-2.8-7.4 1.2-2.3 0.5-3.5 4 6.9-0.1 0.2 4.7 9-0.2-0.3-1.8-2.9-1.2-1.7 2.3 4.1 6.2 11 4 7.3-4.9-8.4-1.3-2 0.8 1.9-2.2-3.7 2.1 4 5.1 9.2 0.1 0.5 5.3 9.7 4.7 8.8-2.1-3.5-7.1-11.9 0 0.2 3.4 5.9-3.1-6.9 1.9-1.1 1.1-0.8-2.6-11 1.6-7.9 2.4-0.1-2.4-13.2 4.3-6.5-2.5-6.8-2.8-9.7-0.7-8.4 4.4 5.2 1-2.9 2.9-1.8 1.4 0.3-6.3-15-2.6-10.4-0.3-2.4 0.5-2.5 3.9 2 1.1-0.8 5.9 5.9 2.2-0.5-0.8-1.5-0.4-2.3 1.1-2.2 0.6-1.4 4.5 2 6.5 2.2 5 2.1 4-6.3 7.6 0-2.6-4.4-2.2-3.3-3.1-3.7 0.6 2.1 1 4.4 0.8 6.1 2.4 6.1-4.9-4.1-1.8 3.9-1.2 0.5 1.2 7.6-1.3 6.4 3.3 7.3 2.5 7.5 2 8.3 0.1 1.8 0.1 3.5-2.7 0.4 1.5 4.4-1.4 1.1-3.6-1 2.2 5.6-3.2-2.1 1 7.1-5.2-5.5 1.3 9.3-3.1 5.1 1.3 4-4.9-5 0.7 6.3 1.3 4 0.2 3.6-4.3-2.6 1.8 6.3-4.1-1-1.5 6.1-2.9-2.3-8.6-9.9-0.8 5.6 0.9 5.5-0.1 6.1-3 1.1 1.3 5.2 1.1 7.8-1.5 6-5.8-7.3-5.6-4.4-3 2.7-8.4-9.5-2.5 5.6-5 5.9 1.3 6.9-3.9 2.4-5.9 3.3 1 3.9 0.5 5.3-0.8 5.2-1.9-0.6-4-1.9-6.8-4.6z" display="inline" fill="#f5f5ff"/>
	<path id="i" d="m7158.4 7221.5c-0.6 2.5-5.3-2.2-6-0.5 1.1 4.8-4.1-1.6-5.5-1.6-2.1-1.4-3.7-2.2-4.9-2.6-1.8-1.4-1 1.2-4.2-3.6-5.4-8.5 0.7 2.6-3.5-4.4-2.9-4.9 4.2 7.3-2.7-5.2 2.5 3.8-2.9-6.4-1.9-6-0.8-2.7 0.5-2-1-6.7 0.3 0.6-5.8-5.5-6.1-1.3-4.2-2.7-5.7-0.7-4.6 1.3-1.5-2.7 3.5 7.8 0.7 5.9 0.4 3.4 1.1 8.3-0.7 8.7-2.7-1.1 1.2 9.3 0 10.1 1 4.4 1.3 6.8 0 4.5-1.2-2-2.8 1.4-7.3 0-2.5 1.9-6.9 0.6-7.3 0 2.6 4.6 3.3 1.6 0-10.4-0.6-2.6 0.4-2.5-1-6.8 1.1 0.2-4.4-11.3 0-5.6 3.6 2.4-0.4-8.7 1-10.6 2.1 1.6 0.9-2.7 0.4-5.5 0.1-1.9-8-17.9-0.8-7.3 3.3 3.7 3.5 2.2 2.9-0.7s-2.2-7.3-2.5-9.4c6 7.2-0.3-6.2 1.8-4.5 0.3-1.3-0.5-3.7-1.8-5.9 0.3 0.5 0.6-5.3 7.3 0 2.3-2.2 8 1.2 7.3 0 1.2 2 1 3.3 0.5 4.8-0.5 1.6-2.2 1.8-0.5 7.9-1.2 1.2 0.9 7.9 0.8 10.2-2.8-2.5-3.8-2.6-0.8 2.6 7.5 13.1 4.2 2.5 5.5 0 0.3-4.3 1.3-7.3 5.5 0-1-4.4 0.5-4.7 1.4-5.9 5 5.8 2.3-2 2.1-5.3-0.9-4.6 2.6-1.8 2.5-5.2-1-5 1.5-4 3.8-3.3 2.5 1 5.3 2.4 4.1-3.2 2.7 1.2 3.7-0.4 4.7-2.3-1.4-5.9 5.7 3 5.2-1.4 4.7 4.7 4.2 0.2 5.8-0.5-0.1-4.1 5.9 2.8 6.4 0.6 3.7 3.4 3.9 1 5.8 1.9 0.3-1.8 3.1 1.2 5.1 3 1 0.3 6.3 8.3 4.3 4.1 4.9 7.8 4.6 7 3.5 5.1-0.2-0.3-1.7-2.4 2.6 6 5.8 10.9 1.4 4.7 1.6 6.8 1.6 4.5-3.1-1.5 0.5 7.5 1.1 4.5 0.2 5.7-0.5 7.4-4.5-4.7-1.1 4.3-1.6 6.7-4.7-6.5-0.8 2.1-4.2-2.1-1.8-1.4-2.5-0.7 1.6 8 3.9 8.6 3.7 10-0.1 5.3-1.7-1.1-1.6 0.9-3.4-0.2-1.3 1.5-2.9 2.6-4.3 4.1 0.2 4.2 1.3 10.1-5.1 3-1.5 1.4-0.1 7.9-5.8 1.9 2.8 9-5.5-1.4-6.6 0.6zm0.1-12.2c9 11.6 1.4-5.8 6.3-1.5 1.6-1.4-1-10.2 4.8-4.5 1.7-1.5-1.6-11.2 3-7.2-1.7-4.9 2.9 1.2-1.2-7.8-2.4-6.1 0.6-2.7 2.2-1.7 5.5 6 1.4-3.6-1-9.4-1.3-3.9 1.2-0.1-3-7.1-4-6.6-3.6-4.5-4.8-4.4-2-1.2-1.5 2.9-6.4-1.5-1.5 1.4-3.4 2.3-6.3 1.5-1.2 2.2-8.4-6-4.8 4.5-1.4 1.9 0.8 9.7-3.1 7.1-1.2 1.9-2 4.2-1.1 9.3-0.1 1.6-1.4 1-1.8 1.5-0.5 0.5-0.1 2.1 2.9 8.1 0.6 1.9 1.4 3.7 3 6.8 0.3 0.9 2.5 4.6 0.1 0.3-3.1-5.7 1.6 1.1 4.9 4.5 2.7 2.5 6.4 5.8 6.3 1.5z" display="inline" fill="#f5f5ff"/>
	<path id="j" d="m7273.6 7220c-0.7-1.2-5.1-7.5-5.6-6-2.5-1.9-8.8-9.4-2.5 6-5.5-5.3-2 5.9-8.7 0-2.1 2-8.7-3.3-10.6 0-2.6-1.2-5-2.1-7.3-2.8-2.3-0.6-4.4-0.9-6.4-0.9-2.4 2.6-5.7 3.7-9.4 3.7-7.3-6.2-5.4 3.3-10 1.1-1.8 2.5-5.6 1.1-9.3-1.1-0.4 3.7-2.7 3.1-6.7-1.4-5.7-7.5-4.4-3.9-1.4 1.4 1 1.8-1.7-3.9-1.1-4.8-1.8-4.9-2.4-8.6 1.1-5.6-2.3-7.2-1.5-9.3-1.6-13.5 0.1-3.7 0.4-7.4 1.6-9.4 2-0.7 4.5-0.6 2.7-7.6-4.1-11-4.1-14.7-2.7-15.3-2-9.7-0.8-11.8 0-10.4 4.2 7.3 3.1-0.9 7.3 0 1.4-3.8 6.1-2.1 7.3 0-1.6-2.8 4.5 11.2 0 8.5-2.6-1.9-1.8 2.3-2.1 5.1 3 8.4 1.5 9.2 2.1 13.5-1.5 0.8 0.5 7.6 0.5 10.8-0.1 3-1.2 4.1-0.5 7.9-2.5-1.8 0.8 6.1 1.3 8.4-0.2 1.1-0.7 1.1-1.3 0 3.2 5.6 3.3-2.9 10 0 3.2 1.2 0.9-7.2 3.2-6.3 0-3.2 2.7-0.7 6.8 6.3-0.2-0.3 1.2 1.2 1.9 0.9 0.6-0.4-1.1-5.5-1.9-9.4-2.2-5.1-4.8-11-1-5.8 1 0.4 1.6-0.2-0.4-5.3 2.5 1.1-0.1-6.7 1.4-7.6 0.3-2.9 2.8-2 0.9-8.4-0.1-3.4-3.7-12.6-0.9-10.2-0.9-6.7 0-8.4 0-8.5-1.8-3.1-0.7-2.8 1.3-1.8 4.4 5.2 8.5 9.2 6 1.8-0.4-7 10.8 6.2 7.3 0-0.8-1.4 3.4 9.3 0 8.5-1.8-0.5-5.8-4.5-2.3 4.8-1.9-0.1-1.5 3.9 2.3 13.9 1.2 5.4-0.1 6.5-0.6 9-0.1 3-2.4 1.9 0.6 9.7-3-0.2-1.5 5.9 0 8.5 0.1 0.1 0.3-1.7 1.6-2.7 1.1-1.3 3-2.3 8.4 2.7 4.6-0.8 12.9 5.1 10 0 2.7 4.6-3.3-9 0-8.5 1.5 0 1.5-3 0.4-8.1-1.7-6.2 3.1-1.2-0.4-10.6-1.3-5.6-0.9-8.4-0.4-10.7s1.1-4.2 0.4-8c1.2-2.9 0.3-8 0-8.5 2.9 5 2.4-2.2 7.3 0 1.8-3.2 9.7 4.2 7.3 0 1.6 2.8 6.6 14.8 0 8.5-0.6 1.5-1.4 3.1 0.3 9.2 1.3 5.4-3.2 1-0.3 9.4-3-1.8 2.4 10.9-1.3 7.6 1 5 1.9 9.5 1.3 11-1.9 1.7 3.2 14.1 0 8.5-3.3-5.7 6.5-1.4 7.3 0 6.5 11.2-3-3.4-1.3 2.1-5.3-6.7 5.2 15.1 1.3 11.7 0.6 4.5 2.1 10.6 0 9.5-3.2-3 6 14.7 0 4.3 5.5 9.6 3.3 11.4-6.6 0-2.5 1.4-9.3-4.8-6.6 0-4.3-7.5 1.6-1 0-7.6-4.5-11.6-1.4-9.9 0-7.5z" display="inline" fill="#f5f5ff"/>
	<path id="k" d="m7291.8 7153.4c-1.3-2.3 4.8 6 4.4 1.2 1.8-0.9 2.1-5.8 8.4-1.2 2.2 0.7 2-3.1 5.8 0 2.2 0.3 6.4 4.1 6.1 0 1.7-0.7 3-2 6.1 0 2.8 1.4 2.4-2.8 5.8 0 3.4-0.5 5.6-2.2 9.2 0 1.1-2.1 3-1.2 3.7 0 2.7 4.6-4.7-5.1 0 6.2 2.1 6.7-6.1-4.4 0 6.2-2-3.4-4.2-5.5-5.6-5.2-3.7-3.7-1.3 4.5-3.5 5.2 1.1 6.5-6.1-1.1-8.4 0-4.6-3-7.3-2.5-8.4 0-6-1.5-11.2-3.6-9.1 0 0 0.1 0.2 3.9 0 7.1 1.6 6.4-1.5 4.6 0 7.1 2.5 4.4 1.2-1.4 5.1 0.2-0.2-2.9 3.6 0.7 5.6 0.8 2.2 0.5 2.7-2.1 5.3-1.1 2.1 0.2 4-0.1 5.9 0 4.1 3.9 4.2 1 5.1 0 1.1-3.4 5.4 0.6 5 0 0.4 0.6-4.3-6.7-3.1-3.5-0.2 0.7-1.8-0.5 3.1 9.2 0.1 1.6-2.5-1.5-3.4-2-2-2.8-0.5 0.1-0.8-0.1-0.1 0.1 6.2 11.3 4.2 7.8-3.2-5.5-0.9 1.8-5 0 2.4 6.7-4.2-1.6-5.6-0.8-3.1-2-5.4-2.6-5.4 0.8-2 0-1.2 4.9-5.7 0.4 0.3 3.8-6.2-4.4-5.6-0.8 3.2 8.2 0.5 5.6 1 8-0.5 0.7-5.3-6.9-5.7-7.5 1.6 2.8-1.1 2.1 0 8.2 4.1 11.1-2.5 3.9 0 8.2-2.3-4-1.4-4.2 1.6-1.8s7 5.3 7.6 1.8c2.7 0.2 5.8 0.3 8.7 0.3 3 0 5.9-0.1 8.4-0.3 9 6.4 8.5-1.2 9.2 0 2.6 4.5 3.2 8.7 0 6.2 2.3 7 2.1 9.7 0 6.2 2.2 3.8-2-1.1-3.7 0-1.1 2.2-5.6 0-9.3 0-4.6 5-17.4-1.2-24.2 0-6.1 2.2-16.9-6.7-13 0 1.3 2.3 0.2-3.8 0-10.4 0.2-2.8-1.9-10 0.8-9.3-1.4-4.3 0.7-2.8-1.4-8.4 2.3 1.9-0.5-5 0.6-5.2-0.6-3.1 0.5-3.3 0.3-5.7 0.7-0.8-1.2-6.2-0.1-6.3 1.4 0.4 1.1-1.9 1.7-2.7-1.8-4.9-3.7-9.9-1.8-8.2-2.8-7.9-3-10.9-1.4-9.9 2.7 2.4 3.3 2.4 1.5-0.7z" display="inline" fill="#f5f5ff"/>
	<path id="l" d="m7349.5 7153.4c2.5 4.3-7-14.6 2.2-2.6 2.5 2.3 4 2.6 5.9 3.3s3.6 0.6 4.7-0.7c4.5 1.4 9.2 2.5 13.4 2.5 4.3 0.2 5.9-4 10.4-2.5 7 5.8 6.4-0.8 10 1.4 3.2 1.6 0.6-5.2 2.9-1.4-1.2-2.1-0.4 2.3 0 6.2-2-0.4 1 8 0 6.2-3.2-5.6-1.6-1.1-3.7-1.9-0.2 2.4-1.9 3.5-5.4 1.9-2.2 0.7-5.2 0.5-6.2 3.8-5-3.6-7.9-3.5-10.6-3.8-5 0.2-9.3-0.4-9.1 0-1.3-2.3 0 3.6 0 7.1-3.8-4.9-3.2-2-3.4-0.9 3.3 7-1.1 0.3 3.4 8-2.7-4.7 0.3-3 3.8-2.2 6.8 6.5 7.9 1.5 12.3 2.2 7.1 5.4 8.1 0.1 10.4-1.1 1.2-3.1 5.1 0.2 5.7 1.1 0.9 1.6-3.3-5.1-2.4-2.4-0.1 0.8 0.2 2.8 2.4 8.1 1.2 4.9 2.6 10.1 0 5.7 1.1 1.9-0.3 3-4.8 0.4-2.9 0.2-6.5 0.9-11.2-0.4-6.9-5-6.1 3.3-11.1-0.1-3 0-4.2 1.3-5 0.1 2.3 4 7.1 13.4 4.6 10.4-2.7-3.1-0.8 2.2-4.6-2.3 1.4 6.6 0.5 9 0 8.2 0.6 1.1 4.4 0.8 9.2 0 5.1 4.2 8.3 4.7 10.8 3.9s4.3-2.9 6.3-3.9c7.5 3.9 9.8 0.9 9.2 0-2.2-3.9 3.4 8.9 0 6.2-3.2-2.5-3.5 0.1 0 6.2-1.6-2.8-6.7-2-13 0-13.7-10.8-17.8-1.8-24.2 0-8.1-1.1-14.5-2.6-13 0 3.6 6.3 0.6-3 0-10.4 0.8-1.7 0.5-5.8 0.2-10.3-0.4-4.7 1.2-6-0.2-12.6 0.8-2.8 1.5-5.7 1.8-9.1 0.8-0.5-0.6-4.8-0.3-6.2-2.9-6.8-4.4-11.1-1.5-7.6-1.3-5.4 0.8-4.4 1.7-4.5-3.1-7.5-0.3-3.7-1.6-6z" display="inline" fill="#f5f5ff"/>
	<g id="m" fill="#d9d8e6">
		<path id="n" d="m7718.9 7243.6c-0.8-0.3-1.8-0.3-2.4-0.8-6.5-4.5-6.5-4.6-0.6-10.5 3.4-3.4 3.3-7.1 1.6-11.3-0.7-1.7-1.3-4.3-0.5-5.7 3-5.8 0.7-16.6-5-20-3.9-2.3-8-4.4-12.1-6.3-1.2-0.5-2.9 0.1-4.9 0.2 0.7 1.9 1.3 3.3 2.5 6.4-4-2-6.7-3.4-10.2-5.2 2.4-0.9 4.1-1.5 5.4-2-4.8-16.1-9.9-32-14.3-48-2-7.3-3.8-15.2-3.3-22.6 0.5-7.1 4-13.9 6.4-20.8 1.2-3.5 3-6.8 4.7-10.7-1.3-0.5-3-0.9-4.1-1.8-4.4-3.7-6.5-1.4-8 2.8-0.8 2.2-1.3 4.6-2.4 6.7-0.7 1.3-2.3 2.2-5 4.6-1.4-9.2-2.5-16.4-3.6-23.6l3-0.6c0.4 1.5 0.8 3.1 1.7 6.5 3.9-2.8 7.7-4.9 10.6-8 0.7-0.8-1.5-4.3-2.6-7.3 3.2-4.4-2.4-16.1 8.9-15.1-2.4-4.8-5.1-10.1-7.7-15.3 0.6-0.6 1.2-1.1 1.8-1.7-2.7-0.6-5.3-1.1-9.2-2 0.1 0.3-0.4-1.1-0.8-2.3 2.1-0.9 4.1-1.8 6.6-2.9-1.5-1.7-2.4-3.2-3.7-4.1-3-2.1-8.7-1.4-7-7.9 1-3.8 1.3-7.8 1.5-11.7 0.2-4.2-0.4-8.3-0.4-12.5 0-2.4 0.8-4.8 0.7-7.2-0.2-3.2-0.9-6.3-1.5-10.1 9.8-2.3 15.6-16.1 28.9-11.9 2.6-3.8 5.4-7.4 7.7-11.1 3.1-5 8.1-6.5 13.3-7.7 1.2-0.3 2.5-0.7 3.5-1.3 8.3-5.2 12.2-4.4 19.1 3.4 3.9 4.4 8.2 8.3 11.8 11.9-3.1 3.3-5.2 5.5-7.3 7.7 2.1 1.4 4.1 2.9 6 4.2 1.4-2.7 2.3-4.3 3.1-5.9 1.4 1.1 3.7 2.1 4 3.5 0.4 1.4-0.8 4-2 4.7-5.7 3.1-11.6 6.1-17.7 8.5-2.5 1-5.8 0.2-10.5 0.2 2.3-3 3.8-4.5 4.8-6.3 1.9-3.5-3.4-20.3-7.1-22.1-1.1-0.6-3-0.3-4.3 0.1-3.9 1.4-7.8 3-11.3 4.4 1.3 1.2 3.3 3 5 4.5-4.7 7.2-2.4 14.6-1.6 21.9 0.2 1.8-0.3 3.6-0.5 5.3-0.6 0.4-1.2 0.8-1.8 1.1-1.5 0.8-3.2 1.4-4.3 2.6-1.3 1.4-2.1 3.4-3 5.1 1.5 0.4 3.2 0.4 4.3 1.2 1.7 1.3 3.4 2.9 4.3 4.8 0.8 1.7 0.6 3.9 1.1 7.6 2.2-4.3 3.5-7 4.6-9.4 1.9 2.3 2.8 3.8 4.1 5 2 1.8 1.9 9.4-0.7 11.3-4.2 3.1-4 7.8-1 9.9 5 3.5 3.4 9.5 6.8 13.2 1.4 1.4 2.7 2.9 4.2 4.5-1 0.3-2.6 0.7-4.1 1.2 0.1 0.8 0 1.3 0.1 1.7 2.5 4.5 5 8.9 7.6 13.4 1.1 1.9 1.9 4.8 3.6 5.5 5.4 2.2 2.6 4.8 0.9 7.5-1.9 2.9-3.8 5.8-6.2 9.4-0.5-0.2-2.5-0.8-4.5-1.5-2.3 8.9-1.7 9.9 6.4 10.1 0.6-4.7 2-8.1 6.8-2.7 5.1-3.5 12.1 3.6 16.8-3.1 0.8-1.2 2.7-1.6 4.6-2.5 2.5 13.3 4.9 25.6 7.4 38.7-3.1-0.8-4.4-1.1-5.3-1.4-2.6 8.5-4.6 16.7 1.2 24.7-5.6 1.8-7.8 4.9-4.2 10.1 0.3 0.5 0.7 1.3 0.6 1.7-5.1 10.4 0.2 21.4-1.6 32-0.6 3.6 2.3 7.6 2.8 11.6 0.4 2.8-0.8 5.8-0.8 8.7-0.2 9 1 18.2-0.7 26.9-1.9 9.4-2.9 19.1-8.7 27.9-2.5 3.7-8.6 9.7-3.1 16.3 0.6 0.7-0.5 2.9-0.8 4.3-1.9 8.1-1 16.3-0.5 24.5 0.1 1.9 0.2 4.8-0.9 5.6-9.3 7.3-3.9 16.3-3.5 24.8 0.1 2-1.8 4.4-1.2 6 2.6 6.6 1.2 11-3.7 16.4-2.7 3-0.5 10.3-0.5 15.6-0.6-0.2-1.3-0.4-1.9-0.6-0.6 1.5-1.4 2.9-1.6 4.4-0.3 2.2 0.6 5-0.4 6.8-3 5.2-3.3 10.8-3.6 16.5-0.4 7.5-4.8 15-1.4 22.4 3.2 7 2.9 13.7 0.6 20.7-1.5 4.5-2.9 9-5 15.4-1.5-3.1-2.4-4.1-2.6-5.2-2.3-16.3-9.8-30.9-14.7-46.4-2.6-8-3.3-16.6-5-24.9-1-4.8-2.4-9.4-3.1-14.2-0.3-2.2 0.6-4.5 1.1-7.4-1.3-0.5-3.2-1.2-5.4-1.9 4.6-4.3 13.1 1.9 17.1-7.4-2.9 0.8-4.4 1.3-6.5 1.9 0.8-2.3 1.4-4.3 2.5-7.5-4.9 3.1-9 5.8-13.8 8.9-6.8-14.1-6-29.6-8.7-44.2 2.8 3.6 5.5 7.3 8.2 10.9 0.7-0.1 1.5-0.3 2.2-0.4 0.5-2.4 0.9-4.8 1.6-7.1 0.5-1.6 1.3-3 2.1-4.4 0.6-1 2.3-2.3 2.2-2.6-3.7-5.4 3.1-8.8 2.4-13.5-0.1-0.8 1.1-1.7 1.7-2.6 1.7-2.1 5.1-4.4 4.9-6.3-0.3-3.3-2.4-6.8-4.5-9.5-4.3-5.3-6.2-5-11.1 0.1-0.7 0.7-1.7 1-3.7 0.8 2.2-4.5 3.5-9.8 6.7-13.4 3.1-3.4 5.5-5.6 2.2-10.2-0.8-1.2 0.1-3.6 0.3-7.2 3.3 6 5.9 10.6 8.8 15.8 1.2-0.9 2.5-2.7 3.3-2.5 9.4 2.8 6.9-4.1 7.1-8.6 0.1-3.4 0-6.7 0.1-10.1 2.3 1.9 4.5 3.7 7.6 6.2 0.3-2.6 0.4-4.2 0.6-5.8 1.5 0.7 3 1.4 4.7 2.2 0.3-1.2 0.5-1.9 0.5-2.5-0.1-3.2 2.1-7.4-3.2-8-0.5-0.1-1.7 5-2.6 7.7-1.3-1.3-2.5-2.7-4.7-5-1.3 1.9-2.2 3.6-3.1 5.2zm20.2-137.8c-0.2-0.4-0.4-0.9-0.6-1.3 1.7-1 3.3-1.9 5.6-3.2-3-0.9-5.1-1.5-7.2-2.2-1.7-0.6-3.4-1.5-5-2.2-0.3 2.1-1.5 4.5-0.8 6.2 2.3 5.8 5.1 11.3 7.6 16.5 6.2 1.2 10 0 9.3-7.7 2.4 3 4.1 5 6.9 8.4 1.6-1.2 5.9-3.1 5.6-4.2-0.7-3.4-3.2-6.4-4.8-9.6-1.8-3.6-3.4-7.2-5.4-11.5-0.6 0.4-2.2 1.6-3.8 2.7 1 1.3 2.1 2.7 3.2 4.1-3.7 1.4-7.2 2.7-10.6 4zm-23 189.2c9.8-3 9.9-3.2 9.4-10.2-9.4 3.9-9.4 3.9-9.4 10.2zm-29.2-303c5.1 5.9 7 5.7 9.4-0.6-1.9-1.2-3.8-2.3-5.7-3.5-1.1 1.4-2.3 2.6-3.7 4.1zm10.2-22.1c0.8 0.4 1.7 0.9 2.5 1.3 1.1-1.4 2.1-2.9 3.3-4.2 1-1 2.5-1.5 3.2-2.6 0.2-0.3-1.3-2.7-1.8-2.6-1.7 0.2-3.8 0.7-4.7 1.9-1.3 1.7-1.7 4.1-2.5 6.2zm-1.5 2.6c-0.9 0.8-1.9 1.7-2.8 2.5 2.2 2.3 4.4 4.7 6.6 7 0.6-1.2 2-3 1.6-3.5-1.5-2.2-3.6-4-5.4-6zm6.2 63.8c0.2 0.6 0.4 1.2 0.6 1.7 2.4 0.4 4.9 0.9 8.5 1.5-1-2.6-1.7-4.3-2.4-6.1-2.2 1-4.5 1.9-6.7 2.9z" display="inline"/>
		<path id="o" d="m7858.9 7399c3.9-1.2 7-2.1 12.1-3.6-8.7 22.4-16.7 42.8-24.6 63.1-13.2 0.8-24.1-23.2-15.7-34.7 2.8-3.8 7.9-5.9 13-9.6-2.3-0.6-3.4-1.3-4.1-1-4.8 2.2-6.2-0.7-5.4-4.3 1.6-7 3.5-14 6.2-20.6 1.3-3.2 4.9-5.5 6.8-9.7-2.1 0.9-4.2 1.8-8 3.4 2.7-4.3 4.6-7.3 6.5-10.3l2.4 0.6c-2.8-6.2-7.1-12.1-8-18.6-0.9-6.3 1.7-13.1 2.8-20.4 1.3 0.9 2.3 1.7 3.8 2.8 2.4-5.4 0-10-1.2-14.9-1.4-5.5-2.8-11.1-3.3-16.8-0.6-6.4-0.2-12.9-0.2-19.4 0-1.9-0.7-4.3 0.1-5.8 6.9-12.8-1-24.9-1.4-37.3-0.4-10.7-0.4-21.6 1.6-32 0.8-4.3 8.3-6.7 13.3-6.4 2.8 0.1 5.4 4.4 8.5 7.2 6.6-4.3-0.5-12.6 4.9-19.6-7.9-2.8-14.9-5-21.6-7.9-1.9-0.8-4.5-4.1-4.1-5.7 1.4-6.6-2.6-11.4-4.5-16.9-1.8-5.3-2.9-10.8-4-16.2-0.3-1.4 0.5-3.7 1.6-4.6 4.4-3.7 2.7-7.3 0.9-11.5-2.4-5.6-4.5-11.4-5.6-17.4-0.6-3.5 1.1-7.3 2-11 1.7-7.9-1.5-15.4-1.9-23.1-0.2-3.9 1-8 1.8-12 0.3-1.4 1.7-2.7 1.8-4.1 0.6-9.7 3-19.8 0.8-28.9-1.6-6.7-2.1-13.1-2.8-19.8-1-9.7 0.7-18.2 10-23.1 6.4-3.4 4.8-9.1 5.5-13.9 3.4-1.8 7.4-3.1 10.1-5.7 4-3.8 8.3-5.6 13.3-4.5 10 2.3 19.7 5.6 29.7 7.7 6.8 1.4 8 5.4 10.5 11.4 4.6 10.7 4.8 22 6.2 32.6 1.5 11.4-1.3 24.3-9.8 34.5-3.4 4.1-3.7 10.7-7 15-6 7.8-4.9 17.2-7.3 25.8-1.3 4.8-0.2 10.2-0.2 14.5-6 2.3-10.5 4.1-15.1 5.8v7c-0.4-0.2 0 0.1 0.4 0.1 10.8 0.4 12.7 2.3 12.4 13.8-0.3 9.1-1.2 18.1-1.8 27.7-1.5-0.2-3.2-0.4-4.8-0.6-0.2 0.5-0.3 1-0.5 1.6 1.7 0.6 3.5 1.3 5.6 2.1-1.7 3.2-5.8 5.7-3.3 10.3 0.2 0.4-2 2.1-3.1 3.2-0.8-1.1-2.1-2.1-2.2-3.3-0.8-7.8-1.6-15.7-1.9-23.5-0.1-2.3 1.4-4.7 1.4-8.7-2.2 1.4-4.3 3-6.6 4.3-1.5 0.9-3.2 2.1-4.9 2.2-4.8 0.5-6.9 2.4-6.4 7.6 0.7 7 0.5 13.7 5.3 20.1 2.4 3.1 0.8 9.1 1.5 13.8 0.3 1.9 1.8 3.7 2.8 5.6 0.7-0.3 1.4-0.6 2.1-1-0.2-1.5-0.3-3-0.6-4.7 5.9-0.7 6.5 3.8 7.6 7.2 0.4 1.3-1 3.2-1.8 5.7 1.2 10.8 2.4 22.9 3.8 35 0.8 7.3 1.9 14.5 2.5 21.8 0.2 2.3-0.8 4.6-0.9 7-0.4 5.1 0.9 11-1.3 15.3-5.4 10.8 3.5 24.5-7.3 34.3-1.1 1 1.9 6.6 3.4 11.3-3 3.6-9.3 8.5-1 14.9-2.7 2.3-4.8 4.1-6.9 6 9.2 7-2.3 16.2 3.5 24-5.6 3.5-11 6.9-17.1 10.6 11.2 5.7-1.3 10.3-0.3 16.2zm-25.9 31.4h12.2c-3.8-7.7-6.7-7.8-12.2 0zm69.5-410c0.6 0.7 1.3 1.3 1.9 2 4.4-0.4 6.6-2.8 4.8-9.1-2.2 2.4-4.4 4.7-6.7 7.1z" display="inline"/>
		<path id="p" d="m7602.7 7074.1c1.5 0.2 3 0.4 4 0.6v13c-1.3 0.2-2.7 0.6-4.2 0.8-1.3 0.2-2.6 0.2-3.4 0.3-1.7 3.4-3.3 6.6-4.9 9.7-0.5-0.3-1-0.5-1.4-0.8 1 2.1 2 4.2 2.9 6.3-2.3 1.3-4.2 2.3-6.3 3.5-0.5-1.6-1.1-3.2-1.6-4.8-0.4 0-0.8 0.1-1.2 0.1-0.3 2.8-0.7 5.6-1.1 8.9 1.9 0.2 3.5 0.4 5.2 0.5 0.4 2 0.8 4.1 1.2 6.1-4.3 2.1-8.3 4-12.3 5.9 0.1 0.4 0.2 0.9 0.3 1.3 2.4-0.1 4.8-0.2 5.6-0.3 2.6 2.5 4.3 4.1 6 5.7v-6.7c8.9 6.9 8.1 6.6 6.8 10.4-2 5.9-2.6 12.3-10.7 14.4 1.3 2 2.7 3.4 3.2 5.1 0.8 2.6 2.2 6.9 1.1 7.9-3.9 3.5-1.4 5.6 1.5 9.4-4.7 1.3-8.8 2.4-12.7 3.4 4.8 8 14.9 10.8 16.1 20.7 0.2 1.4 0 2.9-0.1 4.3 0 1.8-0.3 3.6 0 5.3 1.3 6.7 5.3 13.6-1.7 19.5 5.8 3.7 5.8 4.8 0.7 9.3 4.2 6.3 2.7 17.7-1.4 24-2.3 3.6-2 9-2.8 13.5-0.8 4.6-1.4 9.3-2.1 13.9-0.1 0.6-0.6 1.2-0.6 1.9 0.3 18.5-4.8 36.5-5.2 55-0.3 14.5-3 29 2.2 42.3 2.3 0.9 4.3 1.6 5.9 2.3-3.3 3.3-7.2 5.4-7.4 7.9-0.8 7.4-0.1 15 0 22.5h2c-0.9 1.1-2.8 2.3-2.6 3.2 1.4 7.7-2.6 14.5-3.2 21.8-0.1 1.5 1.7 3.1 1.6 4.6-0.2 2.2-1.4 4.2-3.3 5.7-1.6-10.3-2.8-20.7-4.8-31-2.8-13.9-6.2-27.8-9.2-41.6-0.6-2.9-0.8-5.9-1.2-8.9-1.4-12.2-2.6-24.4-4.1-36.6-0.2-1.8-1.5-3.5-2.4-5.2-1.5-3.1-2.2-5.4 1.2-8.5 2.2-2 2.7-6.3 3-9.7 0.1-1-3.2-2.5-5.1-3.3-1.8-0.8-3.9-1-5.6-1.4 2.3-3.1 4.9-5.3 5.4-7.8 0.2-1.2-3.4-3.1-5.7-5.1 1.5-5.5 3.6-11.8 12-14.1-8.2-1-16.6-0.5-18.1-10.7-0.2-1.7 1.1-3.5 1.3-4.3 4.7 2.9 8.6 5.4 14.4 9-0.5-3.5-0.9-5.5-1-7.4-0.1-1.8-0.2-3.7 0.2-5.5 0.6-2.5 2.1-4.8 2.6-7.3 1.6-6.7 3.3-13.5-1.3-20-0.5-0.6 1.2-2.6 1.4-4 0.7-3.5 1-7 1.6-10.5 0.6-3.8 1.3-7.7 2-11.5 0.2-1.1 0.6-2.3 0.2-3.2-2.1-5.7-2.2-5.7 5.3-6.6-1.4-4.3 2.9-10.4-7-12.8 3.8-3.3 6.6-5.9 10.5-9.3-3.1-2-5.9-3.7-9.4-6 3.6-1 7.1-1.7 10.2-3 1.6-0.7 2.5-2.8 3.7-4.2-0.3-0.7-0.5-1.5-0.8-2.2 3.1 0.5 6.1 1 10.2 1.6-1.3-2.2-2.9-6.6-4.1-6.5-4.1 0.4-8.2 2.3-12.1 3.6-1.2-5.5 0.4-8 8.6-11.6-4.5-2.5-8.7-4.8-12.9-7 0.3-0.6 0.6-1.2 0.8-1.8 1.7-0.3 3.7 0 4.8-0.9 1.4-1.2 3.1-3.4 2.9-5-0.4-2.6-2.3-4.9-3.2-7.5-0.7-2.1-0.8-4.5-1.2-6.7 2.1 0.2 4.3 0.5 7.3 0.8 6.2-5.9 5.9-7.2-3.6-11.7 1.4-1.9 2.9-3.9 5.2-6.9-5.2-0.4-8.6-0.6-13.9-1 2.8-4 4.3-8.8 7.4-10.1 3.7-1.6 8.6-0.4 13.4-0.4 0.6-3.7 1.4-8.9 2.4-14.7h4.3l-0.2-0.2c1.2 3.7 2.4 7.5 3.6 11 7.1-1.8 4.3-6.9 4.5-11z" display="inline"/>
		<path id="q" d="m7594.9 7074.1c-0.7-0.9-1.3-2.5-2.2-2.7-2.8-0.5-5.8-0.5-8.7-0.7-1.3 1.8-3.1 4.2-5.7 7.7-1.3-6.3-2.2-10.4-3.1-15 1.1-0.8 3.6-2.6 6.2-4.4-0.3-0.8-0.6-1.7-1-2.5-3.4 0.4-6.8 0.9-10.1 1.3 1.4-4.4 1.6-11.1 9.8-4.5-0.4-1.5-0.7-3-0.7-2.8 1.9-3 3.2-4.9 4.4-6.8-0.7-0.6-1.4-1.1-2-1.7-2 1.6-4.1 3.1-6 4.7-2.7-4.8-5.5-9.7-8.4-14.6l0.7-0.7c3.6 2.3 7.1 4.6 10.7 6.9 0.5-0.3 1-0.7 1.5-1-1.1-1.6-2.2-3.2-3.2-4.8-1.2-1.9-2.5-3.8-3.7-5.7 0.4-0.5 0.8-1 1.3-1.5-3.1-1.1-6.1-2.2-9.3-3.4 0-1-0.1-3-0.2-5.1-1.8 0.2-3.6 0.8-5.4 0.6-3.1-0.3-6.5-0.4-9.2-1.8-2.9-1.5-5.1-4.4-7.5-6.8-0.5-0.5-0.7-1.9-0.4-2.3 0.6-0.7 1.8-1.2 2.7-1.1 2.8 0.3 5.8 0.2 8.2 1.4 5.1 2.6 6.1-2.1 5.5-4-1.7-5.2 1.5-4.4 4-3.8 4.8 1.1 9.4 2.8 14.4 4.3-1.1 0.8-2.4 1.7-4.5 3.2 3.4 2.1 6.4 4.1 9.5 5.9 1.7 1 3.9 1.6 5.2 3 2.1 2.3 14.7 6.6 17.2 5.1 0.9-0.5 1.3-2 2.1-3.3-2.3-0.8-4.2-1.3-6.1-2.1-1.8-0.8-3.6-1.9-5.6-2.9 4.4-1.7 8.4-1.8 11.4 2.8 4.5 6.7 3.5 14.7-3 21.5-0.2-2-0.4-3.5-0.6-5.3h-6.4c1.7 3.4 7.6 6.1 1.4 10.8 1.8 0 3.6-0.2 5.4 0 2.2 0.3 4.7 0.5 6.3 1.7 0.8 0.6-0.1 3.4-0.3 5.2-0.3 2.7-1 5.4-0.9 8.1 0.2 6.9-3.5 11.5-10.2 12.5 1.3 1.4 2.7 3 4.1 4.6l0.1-0.2h-8.1zm10.6-21.1c-4.2-3-7-5-9.4-6.7-2.5 3.3-4.9 6.4-7.1 9.4 1 2.1 1.9 3.9 2.8 5.7 0.7-0.6 1.5-1.1 2.2-1.7 0.6-1.7 1.2-3.5 1.7-5.2 2.7-0.4 5.4-0.8 9.8-1.5zm-25.5-24.1c3.5 2.5 6.3 4.8 9.4 6.7 1.1 0.7 3.5 1.2 4.1 0.5 1.1-1 1.2-3 1.7-4.6-0.8 0.3-1.5 0.6-2.3 0.9-3-3.3-6-6.6-9.1-10-1.3 2.3-2.8 4.9-3.8 6.5zm18.6-7.2c-4 0.6-6.6 0.9-9.6 1.4 4 6.5 5.1 6.4 9.6-1.4z" display="inline"/>
		<path id="r" d="m7747.5 7031.1c2.5-1.2 5-2.4 7.5-3.7-0.4-0.3-0.8-0.5-1.2-0.8 2.6-3.4 4.8-7.1 7.7-10.1 4.3-4.3 4.3-9.2-0.7-13.3-0.6-0.5-1-1.3-0.9-3.5 2.9 0.8 6.4 0.9 8.6 2.7 4.8 4 4.6 9.3 1.3 14.3-2.2 3.5-3.8 6.3-0.7 10.3 1.6 2.1 1.6 5.3-2.6 6.4-2.9 0.8-5.5 2.7-9.1 4.4 2.5 1 4.1 1.7 6.6 2.7-5 5-12 8.5-8.3 17.7-0.9-0.1-1.7-0.3-2.6-0.4-1.3-4.3-2.6-8.6-4-13.2-4.1 0.8-8.1 1.5-14.3 2.7 2.6-4 4.5-7 6.4-10l-0.2 0.1c2.6 1.8 5.3 3.6 9.7 6.6-1.2-5.5-2.1-9.4-3-13.3z" display="inline"/>
		<path id="s" d="m7887.1 6957c-4.9-0.2-9.8-0.7-14.7-0.5-2.7 0.1-5.4 1.9-8.1 2.1-5.1 0.4-10.3 0.1-15.4 0.1-0.1-7.9 2.8-11 9.9-11.1 10.1-0.1 19.7 2 28.8 6.3-0.2 1.1-0.4 2.1-0.5 3.1z" display="inline"/>
		<path id="t" d="m7755.5 7070.3c0.1 2.5 0.3 4.9 0.4 8.6-2.1-0.5-5.9-0.5-6.4-1.8-0.9-2.2-0.5-5.7 0.8-7.7 1.9-3 5.2-5 7.5-7.8 1.5-1.9 2.1-4.4 3-6.5 1.3 0.5 3.6 1.3 6 2.2-0.1 5-9.6 10 1.6 15.4-3.5 0.9-5.6 1.4-8 2-0.9-1.6-1.8-3.1-2.6-4.6-0.9 0.1-1.6 0.2-2.3 0.2z" display="inline"/>
		<path id="u" d="m7741.1 7037.4c-3.2-0.4-6.4-1.1-9.6-1.1-5.7-0.1-4.4-3.8-4.3-7.7 9.8 2.6 10.3-6.8 15.6-10.9 1.4 1.7 3.2 3.8 5.2 6.3-1.7 0.8-3.1 1.5-4.4 2.2 1.5 1.9 2.7 3.4 3.9 5l0.2-0.2c-4.8-0.3-6 3-6.7 6.7z" display="inline"/>
		<path id="v" d="m7922.4 7057.1c-2.2 8.7-4.2 16.4-6.1 24.1-1.3 5.2-2.2 10.4-3.6 15.5-0.4 1.3-2 2.4-3.8 3.1 5.1-13.9 1-30.7 13.5-42.7z" display="inline"/>
		<path id="w" d="m7742.3 7004.6c-7.3-4.5-8-5.6-7-11.1-6-0.1-7.6-2.8-5-7.7 4.1 4 8 7.7 13 12.6 0.5-4.6 0.8-7.2 1.1-10.3 2.6 0.2 4.9 0.3 6.8 0.4-3 5.5-6 10.8-8.9 16.1z" display="inline"/>
		<path id="x" d="m7558.2 7077.1c2.8 2.5 3.6 9.1 9.6 3.8 0.2 2.5 0.5 4.7 0.9 9-3.8-1.9-7.1-2.7-9.3-4.8-5-4.7-9.9-4-15.4-1.1-0.4-2.8-0.8-5.5-1.3-8.8 5.5 0.9 9.7 10.9 15.5 1.9z" display="inline"/>
		<path id="y" d="m7708 6987.9c0.6-0.4 1.2-0.8 1.8-1.1 3-0.8 6-1.6 9.9-2.6 0.2 4.4 0.4 7.7 0.6 11-0.3 0.1-0.5 0.2-0.8 0.4-0.8-1.6-1.6-3.3-3-6.2-1 3.3-1.7 5.5-2.4 7.8-5.2-1-5.8-5.1-6.1-9.3z" display="inline"/>
		<path id="z" d="m7705.5 7245.4c-3.3-1.7-6.6-3.4-9.7-5.4-0.7-0.4-0.5-2.2-0.6-3.3 3.3 0.6 6.6 1 9.7 1.9 0.4 0.1 0.1 3.2-0.3 4.8-0.3 1.6-1.2 3.1-1.8 4.6 0.9-0.8 1.8-1.7 2.7-2.6z" display="inline"/>
		<path id="aa" d="m7566 7057.1c-0.9 5.3-1.8 10.7-2.7 16h-2c-2.2-3.2-4.4-6.3-6.5-9.5 0.3-0.3 0.6-0.6 0.8-0.9 1.8 1.4 3.6 2.8 6.8 5.2 0.6-4.3 1-7.6 1.5-10.9 0.7 0 1.4 0 2.1 0.1z" display="inline"/>
		<path id="ab" d="m7701.4 7211.9c-5.5-0.9-8.8-0.9-5.9-6.3 1-1.8-0.3-4.8-0.5-7.7 2.3-0.4 4.6-0.8 7.1-1.2 1 4.9-9.5 8.3-0.7 15.2z" display="inline"/>
		<path id="ac" d="m7910.4 6965c-6-1.6-10.6-2.8-15.4-4.1 5-3.5 13.2-2.2 15.4 4.1z" display="inline"/>
		<path id="ad" d="m7720.8 6976.2c-7.6 0.8-3.2-8.8-9-9.6 0.7-0.6 1.3-1.2 2-1.8 3.1 3 6.1 6.1 9.2 9.1-0.7 0.7-1.4 1.5-2.2 2.3z" display="inline"/>
		<path id="ae" d="m7542.4 6996.6c-5.1-4.7-3.9-7.4-0.3-9.4 1.4-0.8 3.3-0.6 4.9-0.8-1.4 3.2-2.8 6.3-4.6 10.2z" display="inline"/>
		<path id="af" d="m7543.9 7194.7c-0.3-5.4-0.5-9.6-0.8-14.5 6 3.1 6.2 8.2 0.8 14.5z" display="inline"/>
		<path id="ag" d="m7739.1 7105.8c3.4-1.3 6.9-2.6 10.4-3.9-1.1-1.4-2.2-2.8-3.2-4.1 1.6-1.1 3.2-2.3 3.8-2.7 2 4.2 3.6 7.9 5.4 11.5 1.6 3.2 4.1 6.2 4.8 9.6 0.2 1-4 3-5.6 4.2-2.8-3.4-4.4-5.5-6.9-8.4 0.8 7.7-3.1 8.9-9.3 7.7-2.5-5.2-5.4-10.8-7.6-16.5-0.7-1.7 0.5-4.1 0.8-6.2 1.7 0.7 3.3 1.6 5 2.2 2.1 0.8 4.3 1.3 7.2 2.2-2.2 1.3-3.9 2.2-5.6 3.2 0.4 0.3 0.6 0.7 0.8 1.2z" display="inline"/>
		<path id="ah" d="m7716.1 7295c0-6.3 0-6.3 9.4-10.2 0.5 7.1 0.4 7.2-9.4 10.2z" display="inline"/>
		<path id="ai" d="m7726.4 7243.3c0.9-2.7 2-7.7 2.6-7.7 5.3 0.6 3.1 4.9 3.2 8 0 0.6-0.3 1.3-0.5 2.5-1.7-0.8-3.2-1.5-4.7-2.2l-0.6-0.6z" display="inline"/>
		<path id="aj" d="m7686.9 6992c1.4-1.6 2.5-2.8 3.7-4.1 1.9 1.2 3.8 2.3 5.7 3.5-2.4 6.3-4.3 6.5-9.4 0.6z" display="inline"/>
		<path id="ak" d="m7697.1 6969.9c0.8-2.1 1.2-4.5 2.6-6.2 0.9-1.2 3.1-1.7 4.7-1.9 0.5-0.1 2 2.3 1.8 2.6-0.8 1.1-2.3 1.6-3.2 2.6-1.2 1.3-2.2 2.8-3.3 4.2-1-0.4-1.8-0.8-2.6-1.3z" display="inline"/>
		<path id="al" d="m7695.6 6972.5c1.8 2 3.9 3.8 5.4 6 0.4 0.6-1 2.3-1.6 3.5-2.2-2.3-4.4-4.7-6.6-7 0.9-0.8 1.9-1.6 2.8-2.5z" display="inline"/>
		<path id="am" d="m7727 7243.9c-0.2 1.6-0.3 3.2-0.6 5.8-3.1-2.5-5.3-4.4-7.6-6.2l0.1 0.1c0.9-1.7 1.8-3.4 2.8-5.4 2.2 2.3 3.4 3.7 4.7 5 0.2 0.3 0.4 0.5 0.6 0.7z" display="inline"/>
		<path id="an" d="m7701.8 7036.3c2.2-0.9 4.5-1.9 6.7-2.8 0.7 1.8 1.4 3.5 2.4 6.1-3.7-0.7-6.1-1.1-8.5-1.5-0.2-0.7-0.4-1.3-0.6-1.8z" display="inline"/>
		<path id="ao" d="m7833 7430.4c5.5-7.8 8.4-7.7 12.2 0h-12.2z" display="inline"/>
		<path id="ap" d="m7902.5 7020.4c2.2-2.4 4.5-4.7 6.7-7.1 1.8 6.2-0.5 8.7-4.8 9.1-0.6-0.7-1.2-1.4-1.9-2z" display="inline"/>
		<path id="aq" d="m7594.7 7073.9h8.1c-0.2 4.1 2.5 9.2-4.5 11-1.2-3.5-2.4-7.2-3.6-11z" display="inline"/>
		<path id="ar" d="m7605.5 7053c-4.4 0.7-7.1 1.1-9.9 1.5-0.6 1.7-1.2 3.4-1.7 5.2-0.7 0.6-1.5 1.1-2.2 1.7-0.9-1.8-1.8-3.6-2.8-5.7 2.2-3 4.6-6.1 7.1-9.4 2.5 1.7 5.3 3.7 9.5 6.7z" display="inline"/>
		<path id="as" d="m7580 7028.9c0.9-1.6 2.5-4.2 3.9-6.4 3.1 3.4 6.1 6.7 9.1 10 0.8-0.3 1.5-0.6 2.3-0.9-0.5 1.6-0.7 3.6-1.7 4.6-0.6 0.6-3 0.2-4.1-0.5-3.2-2-6-4.3-9.5-6.8z" display="inline"/>
		<path id="at" d="m7598.6 7021.7c-4.4 7.8-5.6 7.9-9.6 1.4 3-0.5 5.6-0.8 9.6-1.4z" display="inline"/>
		<path id="au" d="m7740.9 7037.5c0.7-3.7 2-7 6.7-6.7 0.9 3.9 1.8 7.8 3 13.3-4.4-3-7-4.8-9.7-6.6z" display="inline"/>
	</g>
</g>
<g id="av" transform="translate(-6449 -6938.8)" fill="#f194bf">
	<path id="aw" d="m6449 7238.5v-82.6h8.5c21.9 0 30.6 14.3 30.6 27.1 0 13.5-10.4 26.6-29 28.6v26.9zm10.1-36.4c11.3-1.1 18.4-8.9 18.4-19.2 0-9.8-6.6-17.6-18.4-17.6z"/>
	<path id="ax" d="m6548 7154.7c24 0 42.1 17.3 42.1 42.5 0 24.5-18.2 42.5-42.1 42.5-24 0-42.1-17.3-42.1-42.5 0-24 17.6-42.5 42.1-42.5zm0 75.5c18.9 0 31.5-14.4 31.5-33 0-19.2-13.8-33-31.5-33-17.9 0-31.5 13.8-31.5 33 0 18.7 13.8 33 31.5 33z"/>
	<path id="ay" d="m6611.6 7154.7 38.5 34.8 37.3-34.8v83.8h-10v-61.5l-27.3 26.6-28.4-26.7v61.6h-10v-83.8z"/>
	<path id="az" d="m6742 7155.4h8.6l35.5 83.1h-10.7l-10.6-25h-37.6l-10.5 25h-10.1zm-10.9 48.6h29.7l-14.9-35.3z"/>
	<path id="ba" d="m6871.2 7201.1h-56.1v37.4h-10v-82.6h10v35.8h56.1v-35.8h10v82.6h-10z"/>
	<path id="bb" d="m6900 7155.9h67.9v9.4h-28.9v73.2h-10v-73.2h-29z"/>
	<path id="bc" d="m6986.6 7239.7v-83.8h10v61l59-62.2v83.8h-10v-60.4z"/>
	<path id="bd" d="m7133.9 7238.5h-10v-36.1c-4.2 3.1-12.3 6.4-21.8 6.4-13.1 0-24.8-7.1-24.8-26.3v-26.6h10v23.8c0 14.3 7.3 19.6 17.3 19.6 8 0 14.9-3.3 19.2-6.3v-37.2h10v82.7z"/>
	<path id="be" d="m7226.9 7201.1h-56.1v37.4h-10v-82.6h10v35.8h56.1v-35.8h10v82.6h-10z"/>
	<path id="bf" d="m7300.5 7154.7c24 0 42.1 17.3 42.1 42.5 0 24.5-18.2 42.5-42.1 42.5-24 0-42.1-17.3-42.1-42.5 0-24 17.5-42.5 42.1-42.5zm0 75.5c18.9 0 31.5-14.4 31.5-33 0-19.2-13.8-33-31.5-33-17.9 0-31.5 13.8-31.5 33 0 18.7 13.8 33 31.5 33z"/>
	<path id="bg" d="m7364.1 7155.9h37.8v9.4h-27.7v26.7h23.6v9.4h-23.6v27.6h28.3v9.4h-38.4z"/>
	<path id="bh" d="m7636.6 7382.3c-2-8.9-5.4-17.2-9.9-24.8-4.4-7.7-9.7-14.7-15.4-21.4-11.5-13.3-24.5-25.5-37.8-37.6s-26.7-24.5-39.4-38.1c-12.6-13.7-25-28.3-35.4-45.2-5.2-8.4-9.9-17.5-13.5-27.1-1.9-4.8-3.4-9.8-4.8-14.9-1.3-5.1-2.3-10.3-3-15.5-0.7-5.3-1-10.6-1.1-15.9 0-5.4 0.3-10.4 0.8-15.5 1-10.2 3-20.4 6.1-30.5 3.1-10 7.4-19.8 12.8-29 5.5-9.1 12.1-17.7 19.8-25.2 7.6-7.5 16.3-14 25.5-19.3 4.6-2.7 9.4-4.9 14.3-7 4.9-2 9.9-3.7 15-5.1 20.3-5.6 41.7-6.4 62.2-2.3 20.5 4 40.2 13 56.7 26.4s29.3 31.1 37.2 50.4c1 2.4 1.9 4.9 2.8 7.3 0.8 2.5 1.6 4.8 2.4 7.5 1.5 5.3 2.6 10.6 3.3 16.1 1.3 10.9 1.1 22.4-2.4 34.4-1.8 6-4.5 12.1-8.7 17.7-4.1 5.6-9.7 10.6-15.9 13.9-3.1 1.7-6.3 3-9.5 4-1.6 0.5-3.2 0.9-5 1.3s-3.6 0.6-5.4 0.8c-7.4 0.6-15.3-0.8-21.8-3.7-6.6-2.9-12-6.9-16.5-11.2s-8.1-9-11.2-13.7c-6.1-9.5-10.4-19.5-13.3-30-0.7-2.6-1.4-5.3-1.9-8.1-0.3-1.4-0.5-2.8-0.7-4.2s-0.3-2.7-0.5-4c-0.6-5.3-0.9-10.6-0.9-15.8 0-10.6 1.2-21.1 3.5-31.4 2.3-10.2 5.7-20.2 10.1-29.7 4.3-9.5 9.5-18.6 15.5-27 12-16.9 27.2-31.7 44.7-43.3 8.7-5.8 18.1-10.8 27.8-14.8 9.8-4 20-7.1 30.5-9.1s21.2-3.1 31.9-2.9c10.8 0.2 21.5 1.5 32 3.8 20.9 4.7 40.9 13.5 58.4 25.7 8.8 6.1 17.1 13 24.6 20.8 7.5 7.7 14.2 16.1 20.2 25.1 11.9 18 20.1 38.2 24.6 59 2.2 10.4 3.4 20.9 3.9 31.4l0.2 7.8-0.1 7.8c0 2.7-0.2 5-0.4 7.5-0.2 2.4-0.4 4.9-0.6 7.3-1.7 19.6-5.3 39.3-10.9 58.3s-13 37.3-22.2 54.7c-9.2 17.3-19.8 33.7-31.8 48.8-23.9 30.3-52.5 55.9-83.2 77.2-30.7 21.4-63.6 38.7-97.3 52.9-33.8 14.2-68.5 25.4-103.8 33.7 32.6-15.9 64.5-32.6 94.9-51.2s59.4-39.1 85.7-62c26.2-23 49.8-48.4 68.6-76.6 9.4-14.1 17.6-28.7 24.4-43.9s12.2-30.8 16-46.9c3.8-16 6.2-32.3 6.9-48.8 0.1-2.1 0.2-4.1 0.2-6.2 0.1-2.1 0.1-4.3 0.1-6.1v-5.8l-0.3-5.7c-0.6-7.6-1.6-15.1-3.3-22.4-3.3-14.6-9.3-28.3-17.3-40.5-4-6.1-8.6-11.9-13.7-17.1-5.1-5.3-10.6-10.1-16.6-14.4-11.9-8.5-25.4-15-39.5-18.6-7-1.8-14.3-3-21.5-3.4-7.3-0.5-14.6-0.4-21.9 0.6-14.6 1.9-28.9 6.6-42.2 14-13.2 7.3-25.2 17.4-35 29.3-4.9 5.9-9.2 12.3-12.8 19.1s-6.5 13.9-8.6 21.2-3.4 14.8-3.8 22.4c-0.2 3.8-0.1 7.5 0.2 11.3 0.1 0.9 0.1 2 0.3 2.7 0.1 0.8 0.2 1.7 0.4 2.5 0.3 1.7 0.6 3.4 1.1 5.2 1.7 6.9 4.6 13.9 8.2 19.6 1.8 2.8 3.8 5.4 5.8 7.4s4 3.4 5.6 4.1c0.8 0.4 1.6 0.6 2.3 0.8s1.4 0.2 2.2 0.2c1.3-0.1 4.1-0.8 5.7-1.7 0.9-0.4 1.6-1 2.4-1.6 0.7-0.6 1.4-1.3 2-2.1 1.3-1.6 2.4-3.9 3.2-6.5 1.7-5.4 2-12.5 1.1-19.5-0.5-3.5-1.2-7.1-2.2-10.5-0.5-1.7-1.2-3.6-1.8-5.4-0.7-1.8-1.4-3.6-2.1-5.4-6-14.1-15.3-26.4-27-35.6s-25.9-15.5-40.7-18.1c-14.9-2.7-30.4-1.9-44.8 2.4s-27.5 11.9-37.9 22.3c-10.4 10.3-18 23.4-22.6 38-2.2 7.3-3.7 14.9-4.6 22.7-0.4 3.9-0.6 8-0.7 11.6 0 3.7 0.1 7.5 0.5 11.2 1.5 14.9 6.4 29.9 13.7 44.6 7.4 14.7 17.1 28.9 27.7 42.8 10.7 13.9 22 27.9 33.1 42.5 5.5 7.3 10.9 14.8 16.2 22.4 5.2 7.6 10.4 15.4 14.8 23.7s8.4 16.8 11.3 25.8c2.5 8.8 4.2 18.1 3.8 27.3z"/>
</g>
</svg>
