<?xml version="1.0" encoding="UTF-8"?>
<!-- Created with Inkscape (http://www.inkscape.org/) -->
<svg id="svg4639" width="91.957mm" height="51.631mm" version="1.1" viewBox="0 0 91.957 51.631" xmlns="http://www.w3.org/2000/svg" xmlns:cc="http://creativecommons.org/ns#" xmlns:dc="http://purl.org/dc/elements/1.1/" xmlns:rdf="http://www.w3.org/1999/02/22-rdf-syntax-ns#">
 <metadata id="metadata4636">
  <rdf:RDF>
   <cc:Work rdf:about="">
    <dc:format>image/svg+xml</dc:format>
    <dc:type rdf:resource="http://purl.org/dc/dcmitype/StillImage"/>
    <dc:title/>
   </cc:Work>
  </rdf:RDF>
 </metadata>
 <g id="layer1" transform="translate(62.988 -123.02)">
  <polygon id="polygon2" transform="matrix(.62256 0 0 .62256 -76.313 102.97)" points="135.09 70.583 122.55 70.58 122.54 58.051 135.09 58.051" fill="#00c3ff"/>
  <g id="g66" transform="matrix(.62256 0 0 .62256 -76.313 102.97)" fill="#fff">
   <path id="path4" d="m24.303 92.441h3.917c1.329 0 2.318-0.944 2.318-2.659 0-1.716-0.989-2.658-2.318-2.658h-3.917zm-2.899 9.06v-16.913h7.32c2.973 0 4.76 2.008 4.76 5.193 0 3.191-1.787 5.195-4.76 5.195h-4.421v6.523z"/>
   <polygon id="polygon6" points="49.529 84.588 49.529 85.557 42.376 101.5 39.742 101.5 39.742 100.53 41.554 96.549 36.021 85.557 36.021 84.588 38.898 84.588 43.054 93.285 46.822 84.588"/>
   <path id="path8" d="m52.669 95.775v-5.461c0-3.867 2.393-6.09 6.572-6.09 1.789 0 3.261 0.484 4.445 1.476 1.184 0.987 1.789 2.438 1.789 4.372v0.242h-2.9v-0.242c0-1.039-0.338-1.838-1.039-2.367-0.701-0.557-1.473-0.821-2.32-0.821-2.439 0-3.649 1.183-3.649 3.237v5.848c0 2.057 1.21 3.237 3.649 3.237 0.848 0 1.619-0.267 2.32-0.799 0.701-0.554 1.039-1.351 1.039-2.39v-0.242h2.9v0.242c0 1.933-0.605 3.383-1.789 4.373-1.185 0.989-2.656 1.471-4.445 1.471-4.179 0-6.572-2.218-6.572-6.086"/>
   <path id="path10" d="m69.823 95.775v-5.461c0-3.867 2.393-6.09 6.572-6.09 1.788 0 3.261 0.484 4.445 1.476 1.186 0.987 1.787 2.438 1.787 4.372v0.242h-2.898v-0.242c0-1.039-0.339-1.838-1.041-2.367-0.698-0.557-1.472-0.821-2.318-0.821-2.44 0-3.648 1.183-3.648 3.237v5.848c0 2.057 1.208 3.237 3.648 3.237 0.847 0 1.62-0.267 2.318-0.799 0.702-0.554 1.041-1.351 1.041-2.39v-0.242h2.898v0.242c0 1.933-0.602 3.383-1.787 4.373-1.185 0.989-2.657 1.471-4.445 1.471-4.179 0-6.572-2.218-6.572-6.086"/>
   <polygon id="polygon12" points="95.048 92.875 99.952 100.53 99.952 101.5 97.104 101.5 92.509 94.303 90.358 94.303 90.358 101.5 87.46 101.5 87.46 84.588 90.358 84.588 90.358 91.766 92.509 91.766 96.932 84.588 99.611 84.588 99.611 85.557"/>
   <polygon id="polygon14" points="113.82 89.781 106.48 101.5 103.82 101.5 103.82 84.588 106.72 84.588 106.72 96.309 114.06 84.588 116.72 84.588 116.72 101.5 113.82 101.5"/>
   <path id="path16" d="m124.84 80.043h2.271v0.27c0 0.867 0.557 1.399 1.621 1.399 1.086 0 1.642-0.459 1.642-1.399v-0.27h2.247v0.292c0 2.054-1.547 3.237-3.889 3.237-2.347 0-3.893-1.186-3.893-3.237v-0.292zm-2.563 21.458v-16.913h2.898v11.721l7.346-11.721h2.658v16.913h-2.898v-11.72l-7.346 11.72z"/>
   <polygon id="polygon18" points="21.479 106.73 21.479 107.78 23.51 107.78 23.51 113.73 24.708 113.73 24.708 107.78 26.74 107.78 26.74 106.73"/>
   <polygon id="polygon20" points="30.171 113.73 33.132 107.13 33.132 106.73 32.012 106.73 30.453 110.33 28.732 106.73 27.54 106.73 27.54 107.13 29.83 111.68 29.081 113.33 29.081 113.73"/>
   <path id="path22" d="m35.834 109.98h1.621c0.547 0 0.959-0.389 0.959-1.099 0-0.711-0.412-1.103-0.959-1.103h-1.621zm-1.201 3.752v-7h3.031c1.23 0 1.971 0.83 1.971 2.149 0 1.318-0.74 2.147-1.971 2.147h-1.83v2.703h-1.201z"/>
   <polygon id="polygon24" points="46.826 113.73 46.826 106.73 45.726 106.73 42.686 111.58 42.686 106.73 41.486 106.73 41.486 113.73 42.585 113.73 45.628 108.88 45.628 113.73"/>
   <path id="path26" d="m48.929 111.36v-2.258c0-1.604 0.99-2.522 2.721-2.522 0.74 0 1.351 0.198 1.84 0.612 0.492 0.408 0.741 1.008 0.741 1.809v0.102h-1.202v-0.102c0-0.43-0.139-0.758-0.43-0.98-0.289-0.23-0.608-0.338-0.959-0.338-1.011 0-1.512 0.49-1.512 1.338v2.42c0 0.853 0.501 1.343 1.512 1.343 0.351 0 0.67-0.111 0.959-0.33 0.291-0.229 0.43-0.562 0.43-0.99v-0.103h1.202v0.103c0 0.8-0.249 1.397-0.741 1.812-0.489 0.41-1.1 0.608-1.84 0.608-1.731-2e-3 -2.721-0.922-2.721-2.524"/>
   <polygon id="polygon28" points="55.532 106.73 55.532 107.78 57.563 107.78 57.563 113.73 58.763 113.73 58.763 107.78 60.792 107.78 60.792 106.73"/>
   <polygon id="polygon30" points="67.733 113.73 67.733 106.73 66.634 106.73 63.594 111.58 63.594 106.73 62.394 106.73 62.394 113.73 63.494 113.73 66.535 108.88 66.535 113.73"/>
   <path id="path32" d="m73.607 113.73v-2.68c-0.431 0.09-0.86 0.139-1.3 0.139-1.712 0-2.57-0.697-2.57-2.101v-2.358h1.2v2.221c0 0.759 0.49 1.139 1.461 1.139 0.449 0 0.86-0.051 1.209-0.14v-3.22h1.2v7z"/>
   <polygon id="polygon34" points="78.31 109.72 78.31 107.78 81.601 107.78 81.601 106.73 77.108 106.73 77.108 113.73 81.61 113.73 81.61 112.68 78.31 112.68 78.31 110.72 81.13 110.72 81.13 109.72"/>
   <path id="path36" d="m83.212 111.36v-2.258c0-1.604 0.99-2.522 2.721-2.522 0.74 0 1.35 0.198 1.84 0.612 0.49 0.408 0.741 1.008 0.741 1.809v0.102h-1.202v-0.102c0-0.43-0.14-0.758-0.43-0.98-0.289-0.23-0.608-0.338-0.959-0.338-1.01 0-1.512 0.49-1.512 1.338v2.42c0 0.853 0.502 1.343 1.512 1.343 0.351 0 0.67-0.111 0.959-0.33 0.29-0.229 0.43-0.562 0.43-0.99v-0.103h1.202v0.103c0 0.8-0.251 1.397-0.741 1.812-0.49 0.41-1.1 0.608-1.84 0.608-1.731-2e-3 -2.721-0.922-2.721-2.524"/>
   <polygon id="polygon38" points="92.605 110.75 94.507 113.73 95.686 113.73 95.686 113.33 93.655 110.16 95.546 107.13 95.546 106.73 94.436 106.73 92.605 109.7 91.714 109.7 91.714 106.73 90.515 106.73 90.515 113.73 91.714 113.73 91.714 110.75"/>
   <polygon id="polygon40" points="102.63 113.73 102.63 106.73 101.53 106.73 98.486 111.58 98.486 106.73 97.288 106.73 97.288 113.73 98.389 113.73 101.43 108.88 101.43 113.73"/>
   <path id="path42" d="m105.99 104.85h0.938v0.109c0 0.359 0.23 0.578 0.672 0.578 0.449 0 0.68-0.188 0.68-0.578v-0.109h0.93v0.119c0 0.852-0.641 1.342-1.609 1.342-0.972 0-1.609-0.49-1.609-1.342zm-1.059 8.88v-7h1.198v4.85l3.043-4.85h1.099v7h-1.199v-4.851l-3.04 4.851z"/>
   <polygon id="polygon44" points="116.68 113.73 116.68 107.78 119.82 107.78 119.82 106.73 115.48 106.73 115.48 113.73"/>
   <polygon id="polygon46" points="126.97 113.73 126.97 106.73 125.87 106.73 122.83 111.58 122.83 106.73 121.63 106.73 121.63 113.73 122.73 113.73 125.77 108.88 125.77 113.73"/>
   <path id="path48" d="m133.07 112.68v-4.902h-2.008v2.041c0 0.511-0.031 0.962-0.102 1.351-0.07 0.392-0.139 0.681-0.211 0.871-0.07 0.188-0.168 0.399-0.299 0.64h2.62zm-4.449 2.45v-2.45h0.541c0.249-0.328 0.449-0.701 0.589-1.108 0.142-0.41 0.211-1.001 0.211-1.753v-3.09h4.312v5.951h0.819v2.45h-1.101v-1.399h-4.271v1.399z"/>
   <path id="path50" d="m38.201 57.883 12.79-12.788-12.79-12.805zm-16.72-25.686-2e-3 38.388 12.795-0.01 0.012-12.79 0.014-0.013v-25.563l-8e-3 -0.012z"/>
   <rect id="rect52" x="21.481" y="32.199" width="12.792" height="38.376"/>
   <polygon id="polygon54" points="67.485 48.985 80.278 48.985 80.278 57.754 67.485 70.576"/>
   <polygon id="polygon56" points="113.86 32.275 113.86 45.067 122.7 45.067 135.52 32.275"/>
   <polygon id="polygon58" points="48.268 32.275 61.091 45.067 86.83 45.067 99.652 32.275"/>
   <polygon id="polygon60" points="97.027 45.033 97.027 70.582 109.82 57.73 109.82 32.29"/>
   <path id="path62" d="m142.27 45.003v-12.728h3.527v4.764h4.526v-4.764h3.528v12.728h-3.528v-4.836h-4.524v4.836z"/>
   <path id="path64" d="m157.02 45.003v-12.728h4.91c2.071 0 3.758 0.521 5.055 1.563 1.418 1.127 2.127 2.703 2.127 4.728v0.036c0 2.037-0.715 3.636-2.146 4.8-1.32 1.067-3.023 1.6-5.109 1.6zm3.527-3.127h1.436c1.057 0 1.893-0.267 2.511-0.8 0.667-0.583 1-1.388 1-2.419v-0.036c0-1.031-0.323-1.824-0.972-2.382-0.649-0.557-1.496-0.836-2.539-0.836h-1.436z"/>
  </g>
 </g>
</svg>
