<?xml version="1.0" encoding="UTF-8"?>
<!-- Generator: Adobe Illustrator 16.0.0, SVG Export Plug-In . SVG Version: 6.00 Build 0)  -->
<svg id="Layer_1" width="334.21" height="242.89" enable-background="new 0 0 176.5 84" version="1.1" viewBox="32 20 110.3 82.937" xml:space="preserve" xmlns="http://www.w3.org/2000/svg" xmlns:cc="http://creativecommons.org/ns#" xmlns:dc="http://purl.org/dc/elements/1.1/" xmlns:rdf="http://www.w3.org/1999/02/22-rdf-syntax-ns#"><metadata id="metadata67"><rdf:RDF><cc:Work rdf:about=""><dc:format>image/svg+xml</dc:format><dc:type rdf:resource="http://purl.org/dc/dcmitype/StillImage"/><dc:title/></cc:Work></rdf:RDF></metadata><path id="path2" d="m32.881 80.244h3.917c1.329 0 2.318-0.944 2.318-2.66 0-1.715-0.989-2.657-2.318-2.657h-3.917zm-2.899 9.06v-16.913h7.32c2.973 0 4.761 2.008 4.761 5.193 0 3.191-1.788 5.195-4.761 5.195h-4.421v6.524z"/><polygon id="polygon4" transform="translate(-.20029 .303)" points="50.332 84.049 44.8 73.057 44.8 72.088 47.677 72.088 51.833 80.785 55.601 72.088 58.308 72.088 58.308 73.057 51.154 89.001 48.52 89.001 48.52 88.034"/><path id="path6" d="m61.247 83.578v-5.461c0-3.867 2.393-6.09 6.572-6.09 1.789 0 3.261 0.484 4.446 1.476 1.184 0.987 1.789 2.438 1.789 4.372v0.242h-2.9v-0.242c0-1.039-0.338-1.838-1.039-2.367-0.701-0.557-1.474-0.82-2.32-0.82-2.44 0-3.65 1.182-3.65 3.236v5.848c0 2.057 1.209 3.237 3.65 3.237 0.847 0 1.619-0.267 2.32-0.799 0.701-0.554 1.039-1.351 1.039-2.39v-0.242h2.9v0.242c0 1.933-0.605 3.383-1.789 4.373-1.185 0.989-2.657 1.471-4.446 1.471-4.179 0-6.572-2.218-6.572-6.086"/><path id="path8" d="m78.402 83.578v-5.461c0-3.867 2.393-6.09 6.572-6.09 1.789 0 3.261 0.484 4.445 1.476 1.186 0.987 1.788 2.438 1.788 4.372v0.242h-2.899v-0.242c0-1.039-0.339-1.838-1.041-2.367-0.699-0.557-1.472-0.82-2.319-0.82-2.44 0-3.648 1.182-3.648 3.236v5.848c0 2.057 1.208 3.237 3.648 3.237 0.847 0 1.621-0.267 2.319-0.799 0.702-0.554 1.041-1.351 1.041-2.39v-0.242h2.899v0.242c0 1.933-0.603 3.383-1.788 4.373-1.184 0.989-2.657 1.471-4.445 1.471-4.18 0-6.572-2.218-6.572-6.086"/><polygon id="polygon10" transform="translate(-.20029 .303)" points="99.137 72.088 99.137 79.266 101.29 79.266 105.71 72.088 108.39 72.088 108.39 73.057 103.83 80.375 108.73 88.034 108.73 89.001 105.88 89.001 101.29 81.803 99.137 81.803 99.137 89.001 96.238 89.001 96.238 72.088"/><polygon id="polygon12" transform="translate(-.20029 .303)" points="115.5 72.088 115.5 83.809 122.84 72.088 125.5 72.088 125.5 89.001 122.6 89.001 122.6 77.281 115.25 89.001 112.6 89.001 112.6 72.088"/><path id="path14" d="m133.42 67.846h2.271v0.27c0 0.867 0.557 1.399 1.62 1.399 1.087 0 1.642-0.459 1.642-1.399v-0.27h2.248v0.292c0 2.054-1.547 3.237-3.89 3.237-2.345 0-3.891-1.186-3.891-3.237zm-2.561 21.458v-16.913h2.898v11.721l7.346-11.721h2.658v16.913h-2.898v-11.72l-7.345 11.72z"/><polygon id="polygon16" transform="translate(-.20029 .303)" points="32.288 95.283 32.288 101.23 33.487 101.23 33.487 95.283 35.519 95.283 35.519 94.232 30.257 94.232 30.257 95.283"/><polygon id="polygon18" transform="translate(-.20029 .303)" points="37.51 94.232 36.318 94.232 36.318 94.632 38.608 99.182 37.859 100.83 37.859 101.23 38.95 101.23 41.91 94.632 41.91 94.232 40.79 94.232 39.231 97.83"/><path id="path20" d="m44.412 97.783h1.621c0.548 0 0.96-0.389 0.96-1.099 0-0.711-0.412-1.103-0.96-1.103h-1.621zm-1.2 3.752v-7h3.03c1.23 0 1.971 0.83 1.971 2.149 0 1.318-0.741 2.147-1.971 2.147h-1.83v2.703h-1.2z"/><polygon id="polygon22" transform="translate(-.20029 .303)" points="51.464 94.232 50.265 94.232 50.265 101.23 51.363 101.23 54.406 96.381 54.406 101.23 55.604 101.23 55.604 94.232 54.504 94.232 51.464 99.084"/><path id="path24" d="m57.507 99.164v-2.258c0-1.604 0.991-2.522 2.721-2.522 0.739 0 1.35 0.198 1.84 0.612 0.491 0.408 0.741 1.008 0.741 1.809v0.102h-1.202v-0.102c0-0.43-0.139-0.758-0.431-0.98-0.288-0.23-0.608-0.338-0.958-0.338-1.011 0-1.512 0.49-1.512 1.338v2.42c0 0.853 0.5 1.343 1.512 1.343 0.35 0 0.67-0.111 0.958-0.33 0.292-0.229 0.431-0.562 0.431-0.99v-0.103h1.202v0.103c0 0.8-0.25 1.397-0.741 1.812-0.49 0.41-1.101 0.608-1.84 0.608-1.73-2e-3 -2.721-0.922-2.721-2.524"/><polygon id="polygon26" transform="translate(-.20029 .303)" points="66.341 95.283 66.341 101.23 67.541 101.23 67.541 95.283 69.57 95.283 69.57 94.232 64.31 94.232 64.31 95.283"/><polygon id="polygon28" transform="translate(-.20029 .303)" points="72.372 94.232 71.172 94.232 71.172 101.23 72.272 101.23 75.313 96.381 75.313 101.23 76.512 101.23 76.512 94.232 75.412 94.232 72.372 99.084"/><path id="path30" d="m82.186 101.54v-2.68c-0.431 0.09-0.86 0.139-1.3 0.139-1.712 0-2.57-0.697-2.57-2.101v-2.358h1.2v2.221c0 0.759 0.49 1.139 1.461 1.139 0.449 0 0.86-0.051 1.209-0.14v-3.22h1.2v7z"/><polygon id="polygon32" transform="translate(-.20029 .303)" points="90.389 101.23 90.389 100.18 87.088 100.18 87.088 98.223 89.909 98.223 89.909 97.223 87.088 97.223 87.088 95.283 90.379 95.283 90.379 94.232 85.887 94.232 85.887 101.23"/><path id="path34" d="m91.79 99.164v-2.258c0-1.604 0.99-2.522 2.721-2.522 0.74 0 1.35 0.198 1.84 0.612 0.49 0.408 0.741 1.008 0.741 1.809v0.102h-1.202v-0.102c0-0.43-0.14-0.758-0.43-0.98-0.289-0.23-0.608-0.338-0.959-0.338-1.01 0-1.512 0.49-1.512 1.338v2.42c0 0.853 0.502 1.343 1.512 1.343 0.351 0 0.67-0.111 0.959-0.33 0.29-0.229 0.43-0.562 0.43-0.99v-0.103h1.202v0.103c0 0.8-0.25 1.397-0.741 1.812-0.49 0.41-1.1 0.608-1.84 0.608-1.731-2e-3 -2.721-0.922-2.721-2.524"/><polygon id="polygon36" transform="translate(-.20029 .303)" points="100.49 97.204 100.49 94.232 99.293 94.232 99.293 101.23 100.49 101.23 100.49 98.252 101.38 98.252 103.28 101.23 104.46 101.23 104.46 100.83 102.43 97.662 104.32 94.632 104.32 94.232 103.21 94.232 101.38 97.204"/><polygon id="polygon38" transform="translate(-.20029 .303)" points="107.27 94.232 106.07 94.232 106.07 101.23 107.17 101.23 110.21 96.381 110.21 101.23 111.41 101.23 111.41 94.232 110.31 94.232 107.27 99.084"/><path id="path40" d="m114.57 92.655h0.938v0.109c0 0.359 0.229 0.578 0.671 0.578 0.451 0 0.68-0.188 0.68-0.578v-0.109h0.93v0.119c0 0.852-0.639 1.342-1.608 1.342-0.971 0-1.61-0.49-1.61-1.342v-0.119zm-1.061 8.88v-7h1.199v4.85l3.043-4.85h1.099v7h-1.2v-4.851l-3.039 4.851z"/><polygon id="polygon42" transform="translate(-.20029 .303)" points="125.45 101.23 125.45 95.283 128.6 95.283 128.6 94.232 124.25 94.232 124.25 101.23"/><polygon id="polygon44" transform="translate(-.20029 .303)" points="131.6 94.232 130.4 94.232 130.4 101.23 131.5 101.23 134.55 96.381 134.55 101.23 135.75 101.23 135.75 94.232 134.65 94.232 131.6 99.084"/><path id="path46" d="m141.65 100.49v-4.902h-2.008v2.041c0 0.511-0.031 0.962-0.102 1.351-0.069 0.392-0.139 0.681-0.211 0.871-0.069 0.188-0.168 0.399-0.297 0.64h2.618zm-4.452 2.45v-2.45h0.541c0.25-0.328 0.451-0.701 0.59-1.108 0.141-0.41 0.209-1.001 0.209-1.753v-3.09h4.312v5.951h0.82v2.45h-1.101v-1.399h-4.271v1.399z"/><polygon id="polygon48" transform="translate(-.20029 .303)" points="131.32 45.551 143.86 45.551 143.87 58.083 131.32 58.08" fill="#00c3ff"/><path id="path50" d="m46.78 45.686 12.79-12.788-12.79-12.805zm-16.721-25.686-2e-3 38.388 12.794-0.01 0.012-12.79 0.014-0.013v-25.563l-8e-3 -0.012z"/><rect id="rect52" x="30.06" y="20.002" width="12.792" height="38.376"/><polygon id="polygon54" transform="translate(-.20029 .303)" points="89.057 45.254 76.264 58.076 76.264 36.485 89.057 36.485"/><polygon id="polygon56" transform="translate(-.20029 .303)" points="131.48 32.567 144.3 19.775 122.64 19.775 122.64 32.567"/><polygon id="polygon58" transform="translate(-.20029 .303)" points="95.607 32.567 108.43 19.775 57.046 19.775 69.869 32.567"/><polygon id="polygon60" transform="translate(-.20029 .303)" points="118.6 45.23 118.6 19.79 105.81 32.533 105.81 58.082"/></svg>
