<?xml version="1.0" encoding="UTF-8"?>
<!-- Creator: CorelDRAW X8 -->
<svg id="svg18" width="108.32mm" height="52.143mm" clip-rule="evenodd" fill-rule="evenodd" image-rendering="optimizeQuality" shape-rendering="geometricPrecision" text-rendering="geometricPrecision" version="1.1" viewBox="0 0 11544 5557" xml:space="preserve" xmlns="http://www.w3.org/2000/svg" xmlns:cc="http://creativecommons.org/ns#" xmlns:dc="http://purl.org/dc/elements/1.1/" xmlns:rdf="http://www.w3.org/1999/02/22-rdf-syntax-ns#"><metadata id="metadata22"><rdf:RDF><cc:Work rdf:about=""><dc:format>image/svg+xml</dc:format><dc:type rdf:resource="http://purl.org/dc/dcmitype/StillImage"/><dc:title/></cc:Work></rdf:RDF></metadata><defs id="defs4"><style id="style2" type="text/css"><![CDATA[
    .fil0 {fill:#A03761}
    .fil1 {fill:white}
   ]]></style></defs><g id="Слой_x0020_1" transform="translate(-.031587)"><polygon id="polygon7" class="fil0" points="6279 5557 11544 5557 11544 3325 10433 0 0 0 0 4431" fill="#a03761"/><polygon id="polygon9" class="fil1" points="3601 1649 4427 1649 4427 3316 4487 3316 5036 3316 5036 1649 5862 1649 5862 1120 3601 1120" fill="#fff"/><polygon id="polygon11" class="fil1" points="9137 1654 8745 1935 8745 3316 9324 3316 9324 1120 8745 1120 8745 1654" fill="#fff"/><polygon id="polygon13" class="fil1" points="7884 1120 8484 1120 7498 3316 7015 3316 6087 1120 6687 1120 7141 2311 7251 2580 7266 2580 7375 2305" fill="#fff"/><path id="path15" class="fil1" d="m2937 2654c404-187 579-666 392-1070-139-301-407-465-783-465h-1427v2197h562v-562h582l404 562h741zm-76-707c0 196-153 292-335 292h-853v-304l-281-281h1132c173 0 337 105 337 293z" fill="#fff"/></g></svg>
