<?xml version="1.0" encoding="UTF-8"?>
<svg id="svg16" width="1332pt" height="638.24pt" version="1.1" viewBox="0 0 1332 638.24" xmlns="http://www.w3.org/2000/svg" xmlns:cc="http://creativecommons.org/ns#" xmlns:dc="http://purl.org/dc/elements/1.1/" xmlns:rdf="http://www.w3.org/1999/02/22-rdf-syntax-ns#">
 <metadata id="metadata22">
  <rdf:RDF>
   <cc:Work rdf:about="">
    <dc:format>image/svg+xml</dc:format>
    <dc:type rdf:resource="http://purl.org/dc/dcmitype/StillImage"/>
    <dc:title/>
   </cc:Work>
  </rdf:RDF>
 </metadata>
 <path id="path4485" d="m1332 319.12a319.29 319.12 0 0 1-319.29 319.12 319.29 319.12 0 0 1-319.29-319.12 319.29 319.12 0 0 1 319.29-319.12 319.29 319.12 0 0 1 319.29 319.12z" fill="#ff0081" style="paint-order:normal"/>
 <g id="#ffffffff" transform="translate(-294.01 -139.82)">
  <path id="path9" d="m1104.8 363.6v49.58h66.335v171.8h53.07v-171.8h66.675l76 171.8h44.04l97.7-221.38h-59.64l-60.19 145.04-60.03-145.04z" fill="#fff"/>
  <path id="path11" d="m294.01 306.76c35.31-0.01 70.63 0 105.95-0.01 20.04-0.13 40.29-0.2 59.96 4.19 18.24 3.87 36.01 10.9 51.09 22 12.32 9.07 22.62 20.96 29.48 34.66 10.03 19.77 12.97 42.57 10.86 64.47-1.85 19.26-8.64 38.25-20.65 53.54-10.31 13.37-24.26 23.6-39.47 30.73l76.47 123.03h-88.45l-66.12-108.35h-39.245v108.35h-79.875v-332.61m79.89 74.69v74.91c19.03-0.01 38.05 0.05 57.08-0.03 11.68-0.16 23.84-4.89 30.76-14.66 10.62-14.84 9.28-37.61-4.21-50.27-8.08-7.7-19.67-10.29-30.55-9.96-17.69 0.02-35.39 0-53.08 0.01z" fill="#ff0081"/>
  <path id="path13" d="m616.45 306.73h79.71l0.02 166.27c0.14 17.34-1.19 35.14 4.27 51.89 4.44 14.82 13.79 28.46 27.16 36.54 15.5 9.49 34.6 11.54 52.32 8.83 15.65-2.35 30.62-10.39 40.25-23.1 11.17-14.48 15.35-33.14 15.56-51.13l0.03-189.3h79.71l0.07 190.22c-0.62 33.54-9.07 67.94-29.45 95.11-17.72 24.02-44.34 40.68-73.1 48.08-22.47 5.92-46.07 7.11-69.14 4.65-22.06-2.46-43.9-8.93-62.89-20.6-23.39-14.1-41.53-36.2-51.76-61.44-9.38-22.64-12.86-47.32-12.9-71.71z" fill="#ff0081"/>
 </g>
</svg>
