<?xml version="1.0" encoding="UTF-8"?>
<!-- Created with Inkscape (http://www.inkscape.org/) -->
<svg id="svg2440" width="491" height="637" version="1.0" xmlns="http://www.w3.org/2000/svg" xmlns:cc="http://creativecommons.org/ns#" xmlns:dc="http://purl.org/dc/elements/1.1/" xmlns:rdf="http://www.w3.org/1999/02/22-rdf-syntax-ns#" xmlns:xlink="http://www.w3.org/1999/xlink">
 <metadata id="metadata7">
  <rdf:RDF>
   <cc:Work rdf:about="">
    <dc:format>image/svg+xml</dc:format>
    <dc:type rdf:resource="http://purl.org/dc/dcmitype/StillImage"/>
    <dc:title/>
   </cc:Work>
  </rdf:RDF>
 </metadata>
 <defs id="defs2443">
  <linearGradient id="linearGradient820" x1="11.452" x2="458.58" y1="367.37" y2="118.3" gradientUnits="userSpaceOnUse">
   <stop id="stop814" stop-color="#de9d00" offset="0"/>
   <stop id="stop824" stop-color="#de9d00" offset=".29845"/>
   <stop id="stop828" stop-color="#fcdb58" offset=".59689"/>
   <stop id="stop822" stop-color="#fcdb58" offset=".61714"/>
   <stop id="stop826" stop-color="#de9d00" offset=".87892"/>
   <stop id="stop816" stop-color="#de9d00" offset="1"/>
  </linearGradient>
 </defs>
 <path id="path2467" d="m2.9164 635.33c-2.2234-2.2071-2.3319-13.502-0.15046-15.667 1.1808-1.1721 6.3132-1.6577 22.253-2.1052 18.707-0.52523 21.497-0.85182 28.745-3.3647 11.3-3.9177 18.589-8.5797 25.858-16.538 12.101-13.248 12.808-18.8 13.53-106.23l0.55632-67.333h-45.089c-39.561 0-45.296-0.20513-46.775-1.6729-2.4586-2.4406-2.4586-26.15 0-28.591 1.4784-1.4676 7.2028-1.6729 46.65-1.6729h44.965v-19.694-19.694h-44.965c-39.447 0-45.171-0.20528-46.65-1.6729-2.4586-2.4406-2.4586-26.15 0-28.591 1.4784-1.4676 7.2028-1.6729 46.65-1.6729h44.965l-0.02058-105.13c-0.02519-128.66-0.97127-149.34-7.6437-167.04-4.017-10.658-16.466-20.528-32.015-25.381-4.395-1.3719-11.58-2.0129-28.192-2.515-18.126-0.54784-22.483-0.97229-23.309-2.2706-1.7278-2.719-1.2692-14.532 0.63767-16.425 1.514-1.5029 15.161-1.6715 134.32-1.6594 145.85 0.014864 153.4 0.27099 188.55 6.4007 43.809 7.6382 77.202 21.819 103.87 44.11 14.408 12.043 29.957 29.785 38.29 43.689 9.2288 15.399 12.223 22.968 17.409 44.007 7.6967 31.226 5.9162 67.416-4.9319 100.24-3.2663 9.8833-12.735 29.04-18.784 38.004-28.351 42.012-74.555 66.884-138.15 74.37-9.7418 1.1467-28.179 1.5171-75.873 1.5241l-63.004 0.00926v19.694 19.694h137.19c123.29 0 137.36 0.16952 138.88 1.6729 2.4586 2.4406 2.4586 26.15 0 28.591-1.5144 1.5034-15.587 1.6729-138.88 1.6729h-137.19l0.01659 54.559c0.0217 71.391 1.5156 92.943 7.545 108.85 2.9872 7.8813 12.995 18.142 22.184 22.746 11.703 5.863 16.307 6.722 39.218 7.3168 16.51 0.42861 21.586 0.89353 22.789 2.0871 2.1931 2.177 2.0936 13.464-0.13823 15.679-1.5142 1.5031-15.385 1.6729-136.66 1.6729s-135.14-0.1698-136.66-1.6729zm280.36-316.56c22.936-4.1548 44.287-16.168 62.654-35.252 17.906-18.605 28.908-41.097 33.309-68.096 2.3365-14.335 2.3822-45.746 0.09148-62.794-8.0956-60.248-40.965-97.614-95.97-109.1-12.66-2.6436-35.027-3.8077-50.582-2.6326-13.609 1.0281-39.89 5.2939-45.38 7.3658l-2.7858 1.0514v135.87 135.87l45.846-0.50963c28.433-0.31607 48.493-0.98925 52.816-1.7724z" fill="url(#linearGradient820)"/>
</svg>
