<?xml version="1.0" encoding="UTF-8"?>
<!-- Generator: Adobe Illustrator 16.0.0, SVG Export Plug-In . SVG Version: 6.00 Build 0)  -->
<svg id="id" width="155.91" height="206.96" enable-background="new 0 0 841.89 595.28" version="1.1" viewBox="0 0 155.91 206.96" xml:space="preserve" xmlns="http://www.w3.org/2000/svg" xmlns:cc="http://creativecommons.org/ns#" xmlns:dc="http://purl.org/dc/elements/1.1/" xmlns:rdf="http://www.w3.org/1999/02/22-rdf-syntax-ns#"><metadata id="metadata39"><rdf:RDF><cc:Work rdf:about=""><dc:format>image/svg+xml</dc:format><dc:type rdf:resource="http://purl.org/dc/dcmitype/StillImage"/><dc:title/></cc:Work></rdf:RDF></metadata><g id="g32" transform="translate(-348.52,-201.12)" fill="#ed156a"><path id="path2" d="m504.43 279.06c0-43.041-34.9-77.945-77.957-77.945-43.046 0-77.949 34.905-77.949 77.945 0 43.052 34.902 77.952 77.949 77.952 43.056 1e-3 77.957-34.9 77.957-77.952zm-153.64 4e-3c0-41.797 33.894-75.686 75.688-75.686 41.811 0 75.697 33.888 75.697 75.686 0 41.802-33.887 75.685-75.697 75.685-41.794 0-75.688-33.883-75.688-75.685z"/><path id="path4" d="m496.33 279.07c0-38.579-31.271-69.854-69.858-69.854-38.576 0-69.855 31.276-69.855 69.854 0 38.576 31.279 69.847 69.855 69.847 38.587 0 69.858-31.271 69.858-69.847zm-118.85 30.004c-5.361-8.729-8.457-19.005-8.457-30.002 0-31.73 25.722-57.456 57.453-57.456 15.963 0 30.4 6.515 40.815 17.028-2.229 0.841-5.034 2.908-8.148 5.036-5.021-1.881-11.538-2.954-17.991-2.954-2.991 0-6.141 0.196-9.102 0.563-2.003 0.25-3.698 0.593-7.229 1.314-15.227 3.09-37.813 19.779-37.813 36.498 0 9.091 6.605 13.154 13.154 13.154 7.412 0 13.012-4.45 17.675-8.622 0.557-0.498 1.072-1.44 0.9-2.334-0.123-0.632-0.552-1.128-1.187-1.354-0.264-0.098-0.543-0.149-0.823-0.149-1.135 0-1.991 0.789-2.594 1.343-4.937 4.48-9.458 6.57-14.234 6.57-3.784 0-8.289-1.497-8.289-8.611 0-5.138 2.685-10.959 7.556-16.378 7.263-8.09 15.033-12.732 25.986-15.527 5.423-1.38 8.604-1.483 12.829-1.483l1.774 2e-3c3.471 0 8.451 0.361 13.522 1.976-10.432 7.749-19.43 20.32-24.14 29.109l-1.604 3c-7.326 13.778-18.396 34.598-34.418 34.598-0.546 0-1.056-0.017-1.526-0.051v-6e-3c-0.01-4e-3 -0.904-0.196-1.495-0.898-0.353-0.419-0.194-1.247-0.11-1.504 0.526-0.966 0.799-2.054 0.799-3.154 0-3.673-2.991-6.662-6.666-6.662s-6.666 2.989-6.666 6.662c3e-3 0.1 0.025 0.195 0.029 0.292zm6.103 8.201c2.192 0.962 4.881 1.506 8.009 1.506 18.976 0 35.659-17.431 44.181-32.354 2.305-4.026 4.418-7.922 6.414-11.619 5.691-10.528 10.633-19.668 16.689-24.713 4.543 2.677 7.091 6.855 7.174 11.766 0.116 6.389-2.418 12.859-6.786 17.302-3.252 3.312-7.097 5.063-11.103 5.063-2.52 0-5.063-1.039-6.429-1.596-0.715-0.295-1.019-0.418-1.361-0.418-1.076 0-1.846 0.733-1.846 1.739 0 1.937 5.356 4.763 9.881 5.212 0.748 0.076 1.5 0.111 2.253 0.111 6.7 0 13.531-2.901 18.265-7.757 4.454-4.56 6.726-10.327 6.568-16.669-0.183-7.503-4.538-14.625-11.318-18.787l6.097-4.16c8.514 10.019 13.659 22.992 13.659 37.17 0 31.728-25.725 57.445-57.454 57.445-17.057 1e-3 -32.371-7.44-42.893-19.241z"/><path id="path6" d="m387.29 381.08c1.385 0 2.473-0.344 3.263-1.04 0.789-0.688 1.179-1.547 1.179-2.57 0-0.51-0.105-0.993-0.31-1.445-0.21-0.456-0.498-0.848-0.882-1.183-0.376-0.327-0.838-0.577-1.366-0.739s-1.191-0.243-1.995-0.243h-6.33v1.654h0.581c0.281 0 0.472 0.027 0.571 0.081 0.107 0.055 0.176 0.143 0.218 0.261 0.05 0.118 0.071 0.361 0.071 0.72v6.583c0 0.348-0.025 0.584-0.071 0.692-0.054 0.107-0.135 0.192-0.252 0.243-0.112 0.051-0.346 0.074-0.708 0.074h-0.409v1.658h5.841v-1.658h-0.603c-0.255 0-0.433-0.023-0.539-0.074s-0.18-0.129-0.236-0.243c-0.036-0.071-0.056-0.25-0.056-0.53v-2.24h2.033zm-2.033-5.262h1.327c0.614 0 1.081 0.114 1.398 0.357 0.421 0.318 0.633 0.757 0.633 1.304 0 0.362-0.088 0.683-0.269 0.946-0.172 0.267-0.408 0.466-0.699 0.595-0.294 0.128-0.753 0.195-1.381 0.195h-1.01v-3.397z"/><path id="path8" d="m402.52 376.32c0.263-0.547 0.644-0.817 1.14-0.817l0.212 0.01h0.223v-1.654h-4.866v1.654h0.601c0.373 0 0.565 0.092 0.565 0.268 0 0.104-0.08 0.311-0.229 0.632l-1.44 3.063-1.915-2.97c-0.17-0.276-0.253-0.496-0.253-0.665 0-0.22 0.145-0.328 0.443-0.328h0.711v-1.654h-5.947v1.654c0.429 0 0.72 0.041 0.868 0.118 0.155 0.082 0.356 0.312 0.604 0.689l4.024 5.995-0.234 0.523c-0.2 0.437-0.362 0.727-0.499 0.865-0.129 0.128-0.297 0.202-0.502 0.202-0.15 0-0.297-0.091-0.448-0.267-0.342-0.405-0.721-0.607-1.161-0.607-0.292 0-0.571 0.125-0.817 0.374-0.254 0.257-0.388 0.582-0.388 0.963 0 0.548 0.226 0.97 0.665 1.284 0.442 0.317 0.97 0.473 1.591 0.473 1.442 0 2.525-0.739 3.26-2.22z"/><path id="path10" d="m409.36 376.02c0.487-0.307 1.002-0.463 1.561-0.463 0.756 0 1.464 0.298 2.118 0.886 0.471 0.422 0.969 1.151 1.502 2.179l1.593-0.463-1.172-4.3h-1.223l-0.278 0.513c-0.857-0.479-1.856-0.719-2.993-0.719-1.117 0-2.134 0.26-3.048 0.79-0.917 0.527-1.629 1.257-2.163 2.199-0.528 0.938-0.788 1.982-0.788 3.124 0 1.151 0.268 2.209 0.816 3.188 0.544 0.973 1.271 1.727 2.179 2.267 0.914 0.54 1.93 0.811 3.059 0.811 1.349 0 2.583-0.354 3.69-1.077 0.711-0.456 1.497-1.277 2.359-2.456l-1.324-0.986c-0.565 0.801-1.229 1.439-2 1.912-0.622 0.382-1.266 0.574-1.931 0.574-1.053 0-1.906-0.442-2.557-1.331-0.644-0.885-0.974-1.945-0.974-3.168 0-0.811 0.147-1.517 0.427-2.114 0.286-0.606 0.666-1.058 1.147-1.366z"/><path id="path12" d="m423.52 386.03c1.357 0 2.587-0.354 3.695-1.077 0.709-0.456 1.498-1.277 2.355-2.456l-1.33-0.986c-0.551 0.801-1.215 1.439-1.991 1.912-0.62 0.382-1.261 0.574-1.933 0.574-1.054 0-1.903-0.442-2.552-1.331-0.652-0.885-0.973-1.945-0.973-3.168 0-0.811 0.144-1.517 0.424-2.114 0.282-0.605 0.67-1.058 1.155-1.365 0.483-0.307 0.998-0.463 1.549-0.463 0.769 0 1.475 0.298 2.117 0.886 0.475 0.422 0.977 1.151 1.509 2.179l1.596-0.463-1.179-4.3h-1.221l-0.279 0.513c-0.85-0.479-1.854-0.719-2.994-0.719-1.116 0-2.131 0.26-3.043 0.79-0.914 0.527-1.633 1.257-2.162 2.199-0.525 0.938-0.794 1.982-0.794 3.124 0 1.151 0.274 2.209 0.816 3.188 0.545 0.973 1.272 1.727 2.184 2.267s1.93 0.81 3.051 0.81z"/><path id="path14" d="m442.9 384.01c-0.137-0.067-0.356-0.308-0.653-0.71l-3.445-4.661 2.89-2.499c0.229-0.199 0.408-0.335 0.545-0.423 0.136-0.088 0.261-0.142 0.356-0.165 0.097-0.027 0.272-0.041 0.519-0.041h0.185v-1.654h-5.411v1.654h0.482c0.263 0 0.435 0.024 0.499 0.058 0.063 0.044 0.098 0.104 0.098 0.18 0 0.047-0.017 0.091-0.051 0.145-0.034 0.055-0.135 0.155-0.303 0.314l-3.731 3.462v-3.188c0-0.32 0.033-0.53 0.093-0.642 0.065-0.118 0.157-0.202 0.299-0.271 0.079-0.033 0.313-0.058 0.682-0.058h0.388v-1.654h-5.846v1.654h0.489c0.305 0 0.509 0.027 0.622 0.092 0.12 0.058 0.195 0.146 0.251 0.271 0.051 0.114 0.075 0.354 0.075 0.705v6.543c0 0.371-0.018 0.608-0.068 0.699-0.049 0.122-0.133 0.209-0.246 0.267-0.116 0.055-0.345 0.078-0.684 0.078h-0.439v1.661h5.844v-1.661h-0.494c-0.32 0-0.526-0.021-0.638-0.067-0.104-0.048-0.185-0.129-0.242-0.247-0.054-0.108-0.087-0.321-0.087-0.618v-1.202l1.82-1.564 2.103 2.996c0.176 0.261 0.269 0.423 0.269 0.49 0 0.064-0.053 0.115-0.142 0.158-0.099 0.037-0.365 0.055-0.801 0.055h-0.243v1.661h6.041v-1.661h-0.238c-0.338-2e-3 -0.605-0.05-0.788-0.157z"/><path id="path16" d="m450.38 384.17h-0.409c-0.382 0-0.635-0.023-0.753-0.078-0.127-0.058-0.199-0.135-0.233-0.243-0.035-0.111-0.059-0.368-0.059-0.776l4.357-4.023v4.023c0 0.473-0.058 0.78-0.174 0.905-0.119 0.131-0.414 0.192-0.891 0.192h-0.382v1.658h5.839v-1.658h-0.333c-0.503 0-0.809-0.055-0.926-0.176-0.116-0.115-0.17-0.422-0.17-0.922v-6.489c0-0.473 0.054-0.763 0.158-0.885 0.111-0.125 0.372-0.183 0.789-0.183h0.481v-1.654h-5.839v1.654h0.449c0.411 0 0.676 0.041 0.801 0.118 0.134 0.082 0.196 0.358 0.196 0.845l-4.357 4.08v-3.976c0-0.486 0.052-0.783 0.165-0.895 0.12-0.115 0.37-0.173 0.747-0.173h0.542v-1.654h-5.855v1.654h0.535c0.375 0 0.622 0.064 0.733 0.193 0.113 0.128 0.177 0.449 0.177 0.959v6.502c0 0.412-0.063 0.683-0.177 0.808-0.111 0.131-0.403 0.192-0.868 0.192h-0.4v1.658h5.855v-1.656z"/><path id="path18" d="m468.01 369.44c-0.181 0.097-0.309 0.199-0.396 0.301-0.077 0.111-0.188 0.297-0.317 0.574-0.19 0.412-0.396 0.692-0.607 0.851-0.21 0.147-0.604 0.22-1.169 0.22-0.583 0-0.973-0.072-1.178-0.22-0.207-0.158-0.403-0.442-0.601-0.859-0.12-0.271-0.233-0.465-0.316-0.565-0.076-0.095-0.216-0.192-0.396-0.298-0.191-0.098-0.38-0.15-0.572-0.15-0.326 0-0.622 0.113-0.891 0.34-0.258 0.223-0.383 0.523-0.383 0.891 0 0.589 0.359 1.128 1.084 1.614 0.731 0.493 1.813 0.732 3.253 0.732 1.438 0 2.517-0.239 3.247-0.726 0.735-0.486 1.104-1.025 1.104-1.609 0-0.379-0.134-0.68-0.4-0.902-0.259-0.227-0.56-0.34-0.884-0.34-0.197-1e-3 -0.392 0.052-0.578 0.146z"/><path id="path20" d="m463.63 384.09c-0.125-0.058-0.208-0.135-0.233-0.243-0.042-0.111-0.059-0.368-0.064-0.776l4.357-4.023v4.023c0 0.473-0.058 0.78-0.176 0.905-0.119 0.131-0.412 0.192-0.885 0.192h-0.385v1.658h5.849v-1.658h-0.342c-0.498 0-0.807-0.055-0.927-0.176-0.11-0.115-0.173-0.422-0.173-0.922v-6.489c0-0.473 0.058-0.763 0.166-0.885 0.108-0.125 0.37-0.183 0.792-0.183h0.483v-1.654h-5.849v1.654h0.451c0.406 0 0.677 0.041 0.804 0.118 0.128 0.082 0.19 0.358 0.19 0.845l-4.357 4.08v-3.976c0-0.486 0.064-0.783 0.173-0.895 0.113-0.115 0.361-0.173 0.739-0.173h0.535v-1.654h-5.854v1.654h0.535c0.387 0 0.63 0.064 0.738 0.193 0.114 0.128 0.17 0.449 0.17 0.959v6.502c0 0.412-0.056 0.683-0.17 0.808-0.108 0.131-0.398 0.192-0.873 0.192h-0.4v1.658h5.854v-1.658h-0.406c-0.379 2e-3 -0.621-0.021-0.742-0.076z"/><path id="path22" d="m395.77 390.85c-0.583-0.511-1.287-0.896-2.102-1.148-0.816-0.247-1.847-0.372-3.075-0.372h-9.744v2.547h0.894c0.427 0 0.722 0.048 0.88 0.123 0.159 0.09 0.272 0.217 0.341 0.397 0.07 0.184 0.104 0.556 0.104 1.116v10.14c0 0.534-0.039 0.894-0.122 1.063-0.078 0.169-0.206 0.294-0.381 0.375-0.178 0.077-0.544 0.125-1.09 0.125h-0.627v2.543h9.002v-2.543h-0.942c-0.386 0-0.666-0.048-0.828-0.125-0.159-0.081-0.284-0.206-0.36-0.372-0.063-0.111-0.094-0.385-0.094-0.82v-3.445h3.147c2.13 0 3.803-0.533 5.01-1.598 1.209-1.061 1.82-2.388 1.82-3.964 0-0.783-0.159-1.526-0.48-2.23-0.314-0.701-0.768-1.303-1.353-1.812zm-3.373 5.511c-0.275 0.412-0.635 0.713-1.087 0.914-0.446 0.197-1.152 0.296-2.112 0.296h-1.571v-5.232h2.048c0.95 0 1.667 0.183 2.146 0.554 0.659 0.498 0.982 1.162 0.982 2.01 0 0.567-0.138 1.046-0.406 1.458z"/><path id="path24" d="m408.54 389c-2.969 0-5.374 0.898-7.207 2.688-1.84 1.787-2.754 4.084-2.754 6.895 0 3.026 1.043 5.435 3.139 7.241 1.737 1.493 3.965 2.25 6.689 2.25 2.062 0 3.823-0.398 5.274-1.186 1.459-0.791 2.605-1.908 3.426-3.361 0.833-1.455 1.247-3.121 1.247-4.995 0-2.79-0.905-5.077-2.712-6.86-1.812-1.777-4.177-2.672-7.102-2.672zm3.234 14.578c-0.827 1.037-1.931 1.561-3.316 1.561-1.377 0-2.482-0.523-3.318-1.561-0.966-1.216-1.451-2.867-1.451-4.955 0-2.087 0.521-3.791 1.56-5.115 0.828-1.047 1.943-1.569 3.344-1.569 0.837 0 1.607 0.245 2.324 0.74 0.713 0.493 1.275 1.239 1.7 2.228 0.415 1.002 0.627 2.23 0.627 3.693 0 2.075-0.493 3.736-1.47 4.978z"/><path id="path26" d="m431.87 400.55-3.202-11.223h-8.341v2.547h1.008c0.347 0 0.597 0.048 0.76 0.132 0.159 0.088 0.279 0.233 0.356 0.426 0.062 0.14 0.094 0.449 0.094 0.922v10.331c0 0.486-0.041 0.822-0.127 1.001-0.085 0.183-0.213 0.311-0.384 0.396-0.177 0.083-0.493 0.132-0.969 0.132h-0.738v2.543h7.553v-2.543h-0.882c-0.38 0-0.653-0.048-0.828-0.122-0.168-0.069-0.304-0.182-0.396-0.32s-0.142-0.342-0.142-0.595v-11.204l4.352 14.784h2.551l4.488-15.273v11.339c0 0.442-0.042 0.739-0.126 0.901-0.079 0.166-0.213 0.284-0.392 0.365-0.175 0.077-0.514 0.125-1.012 0.125h-0.692v2.543h8.871v-2.543h-1.044c-0.322 0-0.576-0.062-0.764-0.166-0.146-0.07-0.26-0.193-0.332-0.374-0.053-0.112-0.083-0.396-0.083-0.852v-10.468c0-0.57 0.097-0.959 0.289-1.167 0.186-0.208 0.526-0.313 1.023-0.313h0.91v-2.547h-8.49z"/><path id="path28" d="m462.09 403.55-5.531-14.228h-4.138l-5.698 14.518c-0.168 0.433-0.32 0.729-0.454 0.885-0.135 0.159-0.311 0.277-0.525 0.358-0.209 0.077-0.538 0.123-0.999 0.123v2.545h7.13v-2.545c-0.674 0-1.086-0.021-1.241-0.06-0.225-0.049-0.39-0.131-0.496-0.246-0.097-0.118-0.147-0.247-0.147-0.389 0-0.118 0.071-0.382 0.21-0.778l0.692-1.862h5.604l0.552 1.679c0.166 0.494 0.25 0.818 0.25 0.976 0 0.186-0.098 0.343-0.292 0.472-0.197 0.126-0.533 0.19-1.021 0.19l-0.526 0.019v2.545h8.72v-2.545c-0.622 7e-3 -1.053-0.079-1.285-0.255-0.234-0.179-0.497-0.646-0.805-1.402zm-10.226-4.309 1.878-5.058 1.783 5.058z"/><path id="path30" d="m476.4 391.87h0.706c0.569 0 0.939 0.037 1.108 0.122 0.162 0.077 0.287 0.223 0.354 0.436 0.051 0.148 0.083 0.433 0.083 0.856v3.446h-6.717v-3.205c0-0.577 0.037-0.949 0.108-1.12 0.067-0.17 0.184-0.302 0.354-0.396 0.167-0.091 0.477-0.139 0.929-0.139h0.831v-2.547h-8.995v2.547h0.828c0.454 0 0.761 0.048 0.924 0.132 0.16 0.088 0.274 0.229 0.355 0.416 0.073 0.188 0.106 0.598 0.106 1.224v10.017c0 0.534-0.033 0.882-0.106 1.041-0.081 0.158-0.216 0.285-0.422 0.371-0.204 0.09-0.569 0.139-1.077 0.139h-0.608v2.543h8.995v-2.543h-0.615c-0.563 0-0.934-0.041-1.123-0.11-0.188-0.072-0.319-0.221-0.405-0.437-0.051-0.149-0.079-0.531-0.079-1.148v-3.901h6.717v3.901c0 0.617-0.039 1.004-0.112 1.173-0.079 0.168-0.211 0.298-0.413 0.384-0.198 0.09-0.574 0.139-1.128 0.139h-0.599v2.543h9.023v-2.543h-0.526c-0.618 0-1.012-0.048-1.179-0.122-0.171-0.069-0.303-0.199-0.384-0.378-0.088-0.183-0.133-0.578-0.133-1.195v-9.988c0-0.608 0.038-0.991 0.106-1.158 0.063-0.162 0.182-0.284 0.348-0.374 0.165-0.075 0.503-0.123 1.015-0.123h0.753v-2.547h-9.023v2.544z"/></g></svg>
