<svg id="a" enable-background="new 0 0 283.465 141.732" version="1.1" viewBox="0 0 800 653.08" xml:space="preserve" xmlns="http://www.w3.org/2000/svg"><path id="b" d="m408.08 473.72c9.8368-0.33505 19.519-1.2543 29.038-2.7491v-226.2s-29.038 43.153-29.038 92.741zm55.971-140.49v131.86c9.476-2.6632 18.729-5.8849 27.689-9.6478v-227.79l-3.3677 8.5481s-24.321 59.845-24.321 97.027zm-64.055-333.23c-3.9519 0-7.878 0.0945-11.778 0.29209 9.1323 6.5979 16.418 23.806 16.985 41.572 1.1598 35.533-33.883 70.567-38.101 100.1-1.9759 13.918-4.7594 19.613 20.387 71.529l-3.3076 3.8574c-34.278-52.156-44.356-76.632-43.333-108.66 1.1254-35.361 14.888-50.163 33.918-77.595 10.473-15.146 8.1529-24.742-3.8488-23.041-23.789 3.3162-40.043 39.381-41.254 59.003l-0.36942 340.4h8.3505v7.8694h-43.9v-7.8694h7.8351l0.12027-386.13c-81.727 37.354-138.54 119.83-138.54 215.6 0 124.51 96.022 226.58 218.02 236.18v-70.653s-1.2715-63.686 26.916-111.98c28.187-48.29 28.411-84.485 28.926-95.241 0.12028-2.3625-0.0601-9.3213-1.0052-17.388-2.0447-17.552-14.485-43.454-33.952-46.804-11.383-1.9674-8.3248 10.979-3.1787 18.694 17.259 25.833 27.723 40.009 27.723 56.452 0 29.82-13.333 59.734-32.337 80.301l-3.0842-3.6082c8.7285-10.284 17.981-22.629 17.981-33.428 0-27.741-30.292-52.5-30.292-87.981 0-28.78 7.0876-37.466 17.878-37.466 18.204 0 33.471 16.108 40.387 34.957v-26.005l-10.455-0.11169-0.0773-7.0275h45.919l-0.0687 6.9674-8.7027 0.0945-0.12887 147.79 3.7887-7.2766s23.909-40.18 23.909-106.01l-0.43814-34.605h-8.4106l0.0172-6.9674h45v7.0275h-8.8402v309.18c70.662-40.988 118.19-117.49 118.19-205.09 9e-3 -130.84-106.02-236.93-236.84-236.93z" fill="#ad1f33" stroke-width="8.5911"/><g id="c" transform="matrix(8.5911 0 0 8.5911 -1011.4 -277.08)" fill="#ad1f33"><path id="d" d="m117.73 94.337h2.717c1.382 0 2.387 0.151 3.031 0.455 1.146 0.55 1.727 1.784 1.727 3.722 0 1.688-0.534 3.018-1.523 3.701-0.33 0.209-0.675 0.36-1.068 0.437-0.392 0.076-0.941 0.114-1.68 0.114h-0.44v5.239h-2.764zm3.031 5.903c1.209 0 1.68-0.513 1.68-1.784 0-0.455-0.11-0.835-0.314-1.119-0.079-0.134-0.173-0.248-0.283-0.323-0.157-0.096-0.613-0.172-1.351-0.19v3.398c0.064 0.018 0.158 0.018 0.268 0.018z"/><path id="e" d="m126.16 105.88c0.267 0.038 0.519 0.058 0.722 0.058 0.503 0 0.754-0.17 0.754-0.531 0-0.134-0.031-0.304-0.078-0.513l-2.434-10.555h2.999l0.691 4.423c0.141 0.873 0.251 1.955 0.361 3.246h0.063c0.016-0.437 0.063-0.722 0.079-0.949 0.11-1.139 0.188-1.918 0.251-2.354l0.597-4.366h2.623l-2.167 10.764c-0.047 0.228-0.125 0.531-0.235 0.893-0.142 0.437-0.236 0.739-0.314 0.911-0.361 0.91-1.068 1.365-2.12 1.365-0.738 0-1.334-0.133-1.79-0.378v-2.014z"/><path id="f" d="m140.92 102.71c-0.016 0.969-0.047 1.671-0.094 2.107-0.047 0.437-0.157 0.892-0.33 1.386-0.487 1.329-1.681 2.051-3.407 2.051-1.9 0-3.157-0.854-3.612-2.525-0.235-0.854-0.377-2.829-0.377-5.126 0-2.81 0.22-4.101 0.942-5.182 0.582-0.911 1.617-1.368 3.109-1.368 1.711 0 2.936 0.874 3.439 2.411 0.172 0.532 0.282 1.405 0.33 2.64h-2.686c-0.016-0.778-0.11-1.387-0.251-1.803-0.157-0.476-0.455-0.723-0.879-0.723-0.456 0-0.77 0.247-0.926 0.723-0.079 0.188-0.126 0.416-0.157 0.663-0.078 0.664-0.11 1.728-0.11 3.209 0 0.36 0.016 1.044 0.032 2.05 0.031 0.931 0.109 1.557 0.25 1.917 0.188 0.475 0.44 0.646 0.896 0.646 0.423 0 0.722-0.19 0.895-0.552 0.094-0.189 0.157-0.417 0.173-0.702 0.031-0.285 0.047-0.798 0.047-1.537v-0.285z"/><path id="g" d="m149.81 102.71c-0.016 0.969-0.047 1.671-0.094 2.107s-0.156 0.892-0.33 1.386c-0.486 1.329-1.68 2.051-3.407 2.051-1.9 0-3.156-0.854-3.612-2.525-0.235-0.854-0.376-2.829-0.376-5.126 0-2.81 0.22-4.101 0.942-5.182 0.581-0.911 1.618-1.368 3.11-1.368 1.711 0 2.936 0.874 3.438 2.411 0.174 0.532 0.283 1.405 0.33 2.64h-2.685c-0.016-0.778-0.11-1.387-0.251-1.803-0.158-0.476-0.456-0.723-0.88-0.723-0.455 0-0.769 0.247-0.927 0.723-0.078 0.188-0.125 0.416-0.156 0.663-0.079 0.664-0.11 1.728-0.11 3.209 0 0.36 0.017 1.044 0.031 2.05 0.032 0.931 0.11 1.557 0.251 1.917 0.189 0.475 0.44 0.646 0.896 0.646 0.424 0 0.722-0.19 0.896-0.552 0.094-0.189 0.156-0.417 0.172-0.702 0.031-0.285 0.047-0.798 0.047-1.537v-0.285z"/><path id="h" d="m151.11 94.337h2.765v6.226l2.057-6.226h2.826l-2.418 6.378 2.48 7.29h-2.904l-2.041-6.55v6.55h-2.765z"/><path id="i" d="m159.19 94.337h2.764v5.334c0 0.892-0.031 1.728-0.094 2.467-0.048 0.741-0.173 1.862-0.346 3.361l0.188 0.113 1.837-11.275h3.407v13.668h-2.779v-4.689l0.33-4.821 0.157-1.538-0.173-0.076-1.728 11.125h-3.564v-13.669z"/><path id="j" d="m168.47 94.337h2.764v5.334c0 0.892-0.031 1.728-0.094 2.467-0.048 0.741-0.173 1.862-0.346 3.361l0.188 0.113 1.837-11.275h3.407v13.668h-2.779v-4.689l0.33-4.821 0.156-1.538-0.172-0.076-1.728 11.125h-3.564v-13.669zm4.051-1.88c0.596 0 0.91-0.284 0.926-0.836h1.617c-0.063 0.684-0.156 0.949-0.424 1.31-0.486 0.627-1.209 0.949-2.151 0.949-0.927 0-1.633-0.303-2.136-0.93-0.297-0.38-0.377-0.646-0.424-1.329h1.602c0.016 0.552 0.346 0.836 0.99 0.836z"/><path id="k" d="m185.7 108-1.633-11.068-0.078 0.02c0.047 1.234 0.078 2.393 0.125 3.436 0.047 0.893 0.063 1.672 0.063 2.298v5.315h-2.606v-13.669h4.177l0.99 7.839 0.156 1.007s0.031 0.36 0.11 1.102c0.016 0.322 0.063 0.702 0.11 1.101 0.047-0.418 0.094-0.778 0.109-1.101 0.063-0.532 0.109-1.044 0.109-1.102l0.157-1.007 0.911-7.839h4.178v13.668h-2.607v-5.315c0-0.626 0.016-1.387 0.063-2.298 0.031-1.063 0.063-1.48 0.126-3.416l-0.079-0.039-1.648 11.068z"/><path id="l" d="m194.1 94.337h2.764v5.334c0 0.892-0.032 1.728-0.094 2.467-0.048 0.741-0.173 1.862-0.346 3.361l0.188 0.113 1.836-11.275h3.408v13.668h-2.779v-4.689l0.33-4.821 0.156-1.538-0.172-0.076-1.729 11.125h-3.563v-13.669z"/><path id="m" d="m203.38 94.337h2.717c1.383 0 2.388 0.151 3.031 0.455 1.146 0.55 1.727 1.784 1.727 3.722 0 1.688-0.533 3.018-1.523 3.701-0.329 0.209-0.675 0.36-1.067 0.437-0.392 0.076-0.942 0.114-1.68 0.114h-0.44v5.239h-2.764v-13.668zm3.031 5.903c1.209 0 1.68-0.513 1.68-1.784 0-0.455-0.109-0.835-0.314-1.119-0.078-0.134-0.172-0.248-0.281-0.323-0.157-0.096-0.613-0.172-1.352-0.19v3.398c0.063 0.018 0.157 0.018 0.267 0.018z"/></g></svg>
