<?xml version="1.0" encoding="UTF-8"?>
<svg id="svg2" width="1134.8" height="215.48" xmlns:cc="http://creativecommons.org/ns#" xmlns:dc="http://purl.org/dc/elements/1.1/" xmlns:rdf="http://www.w3.org/1999/02/22-rdf-syntax-ns#" version="1.2" xmlns:xlink="http://www.w3.org/1999/xlink" xmlns="http://www.w3.org/2000/svg">
 <link id="dark-mode" href="" rel="stylesheet" type="text/css"/>
 <style id="dark-mode-custom-style" type="text/css"/>
 <metadata id="metadata168">
  <rdf:RDF>
   <cc:Work rdf:about="">
    <dc:format>image/svg+xml</dc:format>
    <dc:type rdf:resource="http://purl.org/dc/dcmitype/StillImage"/>
    <dc:title/>
   </cc:Work>
  </rdf:RDF>
 </metadata>
 <desc id="desc4">Created by EvoPdf</desc>
 <defs id="defs6">
  <linearGradient id="gradient1" x1="372.72" x2="372.72" y1="221.82" y2="264.53" gradientUnits="userSpaceOnUse">
   <stop id="stop9" stop-color="#e41e26" offset="1e-7"/>
   <stop id="stop11" stop-color="#bc2025" offset="1"/>
  </linearGradient>
  <linearGradient id="gradient2" x1="273.13" x2="273.13" y1="196.73" y2="290.78" gradientUnits="userSpaceOnUse">
   <stop id="stop14" stop-color="#5481c1" offset="1e-7"/>
   <stop id="stop16" stop-color="#4c75b8" offset=".1863"/>
   <stop id="stop18" stop-color="#375ca5" offset=".5473"/>
   <stop id="stop20" stop-color="#1e398d" offset="1"/>
  </linearGradient>
  <linearGradient id="linearGradient4296" x1="372.72" x2="372.72" y1="221.82" y2="264.53" gradientUnits="userSpaceOnUse" xlink:href="#gradient1"/>
  <linearGradient id="linearGradient4300" x1="273.13" x2="273.13" y1="196.73" y2="290.78" gradientUnits="userSpaceOnUse" xlink:href="#gradient2"/>
 </defs>
 <g id="g44" transform="matrix(4.8205 0 0 4.8205 -963.3 -1064.1)" fill="url(#linearGradient4296)" fill-rule="evenodd" stroke-linecap="square" stroke-linejoin="bevel">
  <path id="path46" d="m350 220.75h45.445v44.702h-45.445v-44.702" fill="url(#linearGradient4296)" fill-rule="evenodd"/>
 </g>
 <g id="g52" transform="matrix(4.8205 0 0 4.8205 -963.3 -1064.1)" fill="#fff" fill-rule="evenodd" stroke-linecap="square" stroke-linejoin="bevel">
  <path id="path54" d="m361.12 233.14v9.03l16.854-8.408v-9.03l-16.854 8.408" fill-rule="nonzero"/>
 </g>
 <g id="g58" transform="matrix(4.8205 0 0 4.8205 -963.3 -1064.1)" fill="#fff" fill-rule="evenodd" stroke-linecap="square" stroke-linejoin="bevel">
  <path id="path60" d="m369.56 260.39h8.409v-24.737l-8.409 4.197v20.54" fill-rule="nonzero"/>
 </g>
 <g id="g64" transform="matrix(4.8205 0 0 4.8205 -963.3 -1064.1)" fill="url(#linearGradient4300)" fill-rule="evenodd" stroke-linecap="square" stroke-linejoin="bevel">
  <path id="path66" d="m199.84 220.75h146.59v44.645h-146.59v-44.645" fill="url(#linearGradient4300)" fill-rule="evenodd"/>
 </g>
 <g id="g74" transform="matrix(4.8205 0 0 4.8205 -19.282 -19.279)" fill="#fff" fill-rule="evenodd" stroke-linecap="square" stroke-linejoin="bevel">
  <path id="path76" d="m18.187 38.244v-23.66h8.435c2.3099 1e-4 4.1823 0.7408 5.6172 2.2223 1.4348 1.4815 2.1522 3.2606 2.1522 5.3373 0 2.0768-0.7115 3.8385-2.1346 5.2851s-3.3014 2.1699-5.6348 2.1698h-3.2898v8.6454h-5.1452m5.1452-12.915h3.1146c0.8167 0 1.4759-0.2918 1.9776-0.8753 0.5016-0.5836 0.7525-1.3537 0.7525-2.3104 0-0.9566-0.2509-1.7266-0.7525-2.3098-0.5017-0.5831-1.1609-0.8747-1.9776-0.8748h-3.1146v6.3703" fill-rule="nonzero"/>
 </g>
 <g id="g80" transform="matrix(4.8205 0 0 4.8205 -19.282 -19.279)" fill="#fff" fill-rule="evenodd" stroke-linecap="square" stroke-linejoin="bevel">
  <path id="path82" d="m36.813 28.934v-5.0052c0-3.1267 0.8808-5.5417 2.6425-7.245s3.9958-2.5549 6.7024-2.555c2.7301 1e-4 4.976 0.8517 6.7377 2.555s2.6425 4.1183 2.6425 7.245v5.0052c0 3.1495-0.8808 5.5643-2.6425 7.2445-1.7617 1.6801-4.0076 2.5202-6.7377 2.5202-2.7066 0-4.9407-0.8458-6.7024-2.5373-1.7617-1.6916-2.6425-4.1007-2.6425-7.2274m9.3449 5.3897c2.8234 0 4.2351-1.9251 4.2351-5.7753v-4.2693c0-3.8502-1.4117-5.7752-4.2351-5.7753-2.7999 1e-4 -4.1998 1.9251-4.1998 5.7753v4.2693c0 3.8502 1.3999 5.7753 4.1998 5.7753" fill-rule="nonzero"/>
 </g>
 <g id="g86" transform="matrix(4.8205 0 0 4.8205 -19.282 -19.279)" fill="#fff" fill-rule="evenodd" stroke-linecap="square" stroke-linejoin="bevel">
  <path id="path88" d="m74.409 33.379 0.9795 4.2351c-2.2395 0.7235-4.5142 1.0852-6.8242 1.0852-2.8939 0-5.2274-0.8342-7.0004-2.5026-1.7731-1.6684-2.6596-4.0777-2.6596-7.2279v-5.1099c0-3.1495 0.8865-5.5585 2.6596-7.2269 1.773-1.6683 4.1065-2.5025 7.0004-2.5026 2.31 1e-4 4.5847 0.3618 6.8242 1.0852l-0.9795 4.1999c-1.9603-0.6067-3.8972-0.91-5.8105-0.9101-3.0328 1e-4 -4.5491 1.9251-4.5491 5.7753v4.234c0 2.0537 0.3907 3.5355 1.1722 4.4455 0.7815 0.9101 1.9071 1.3651 3.3769 1.3651 2.0536 0 3.9904-0.3151 5.8105-0.9453" fill-rule="nonzero"/>
 </g>
 <g id="g92" transform="matrix(4.8205 0 0 4.8205 -19.282 -19.279)" fill="#fff" fill-rule="evenodd" stroke-linecap="square" stroke-linejoin="bevel">
  <path id="path94" d="m93.972 33.379 0.9795 4.2351c-2.2395 0.7235-4.5143 1.0852-6.8242 1.0852-2.8939 0-5.2274-0.8342-7.0005-2.5026-1.773-1.6684-2.6596-4.0777-2.6596-7.2279v-5.1099c0-3.1495 0.8866-5.5585 2.6596-7.2269 1.7731-1.6683 4.1066-2.5025 7.0005-2.5026 2.3099 1e-4 4.5847 0.3618 6.8242 1.0852l-0.9795 4.1999c-1.9604-0.6067-3.8972-0.91-5.8105-0.9101-3.0328 1e-4 -4.5492 1.9251-4.5491 5.7753v4.234c-1e-4 2.0537 0.3907 3.5355 1.1722 4.4455 0.7815 0.9101 1.9071 1.3651 3.3769 1.3651 2.0536 0 3.9904-0.3151 5.8105-0.9453" fill-rule="nonzero"/>
 </g>
 <g id="g98" transform="matrix(4.8205 0 0 4.8205 -19.282 -19.279)" fill="#fff" fill-rule="evenodd" stroke-linecap="square" stroke-linejoin="bevel">
  <path id="path100" d="m116.54 14.584v23.66h-5.145v-10.08c0-1.2604 0.047-2.4973 0.14-3.7107l-8.715 13.79h-4.1993v-23.66h5.1453v10.255c0 1.0731-0.035 2.2748-0.106 3.6049l8.716-13.86h4.164" fill-rule="nonzero"/>
 </g>
 <g id="g104" transform="matrix(4.8205 0 0 4.8205 -19.282 -19.279)" fill="#fff" fill-rule="evenodd" stroke-linecap="square" stroke-linejoin="bevel">
  <path id="path106" d="m136.35 14.584v23.66h-5.146v-8.6454h-1.96l-3.78 8.6454h-5.74l4.411-9.3802c-1.307-0.5832-2.322-1.4815-3.046-2.6949-0.723-1.2133-1.085-2.5549-1.085-4.0246 0-2.0771 0.718-3.8564 2.153-5.3379s3.308-2.2222 5.618-2.2223h8.575m-8.331 10.745h3.185v-6.3703h-3.185c-0.816 1e-4 -1.493 0.2975-2.03 0.8925-0.536 0.5949-0.804 1.3592-0.804 2.2927 0 0.9563 0.262 1.7262 0.787 2.3098 0.525 0.5835 1.207 0.8753 2.047 0.8753" fill-rule="nonzero"/>
 </g>
 <g id="g116" transform="matrix(.99996 0 0 .99996 .0003013 -1.9971)" fill="#a7a9ac" fill-rule="evenodd" stroke-linecap="square" stroke-linejoin="bevel">
  <path id="path118" d="m952.51 111.49v-106.74h23.211v42.791h32.842v-42.791h23.21v106.74h-23.21v-44.686h-32.842v44.686h-23.211" fill-rule="nonzero"/>
 </g>
 <g id="g124" transform="matrix(.99996 0 0 .99996 .000302 .0027737)" fill="#a7a9ac" fill-rule="evenodd" stroke-linecap="square" stroke-linejoin="bevel">
  <path id="path126" d="m1094.4 109.49h-40.42v-99.478c16.53-6.2108 30-9.3162 40.42-9.3162 11.48 0 21.06 3.6317 28.74 10.895 7.79 7.1582 11.69 17.053 11.69 29.685v28.738c0 12.843-3.58 22.632-10.74 29.37-7.05 6.7367-16.95 10.106-29.69 10.106m17.21-41.212v-25.106c0-7.5793-1.52-13.264-4.57-17.053-3.06-3.7897-7.27-5.6845-12.64-5.6845-5.58 0-11.31 1.0001-17.21 3.0002v66.318h17.21c6.21 0 10.64-1.579 13.27-4.7371 2.63-3.158 3.94-8.7372 3.94-16.738" fill-rule="nonzero"/>
 </g>
</svg>
