<svg version="1.1" viewBox="0 0 130 43.046" xmlns="http://www.w3.org/2000/svg">
 <defs>
  <radialGradient id="b" cx="60.752" cy="271.26" r="63.29" gradientUnits="userSpaceOnUse">
   <stop stop-color="#F79C71" offset=".0061"/>
   <stop stop-color="#F26129" offset=".3006"/>
   <stop stop-color="#E95D28" offset=".3806"/>
   <stop stop-color="#DA5425" offset=".4789"/>
   <stop stop-color="#C34721" offset=".5866"/>
   <stop stop-color="#A43518" offset=".7011"/>
   <stop stop-color="#801E09" offset=".8199"/>
   <stop stop-color="#801D09" offset=".8221"/>
   <stop stop-color="#811F0A" offset=".8897"/>
   <stop stop-color="#87230D" offset=".9242"/>
   <stop stop-color="#902B11" offset=".9512"/>
   <stop stop-color="#9E3617" offset=".9744"/>
   <stop stop-color="#B1451D" offset=".9948"/>
   <stop stop-color="#B7491E" offset="1"/>
  </radialGradient>
  <radialGradient id="a" cx="60.751" cy="271.26" r="63.29" gradientUnits="userSpaceOnUse">
   <stop stop-color="#F79C71" offset=".0061"/>
   <stop stop-color="#F26129" offset=".3006"/>
   <stop stop-color="#E95D28" offset=".3806"/>
   <stop stop-color="#DA5425" offset=".4789"/>
   <stop stop-color="#C34721" offset=".5866"/>
   <stop stop-color="#A43518" offset=".7011"/>
   <stop stop-color="#801E09" offset=".8199"/>
   <stop stop-color="#801D09" offset=".8221"/>
   <stop stop-color="#811F0A" offset=".8897"/>
   <stop stop-color="#87230D" offset=".9242"/>
   <stop stop-color="#902B11" offset=".9512"/>
   <stop stop-color="#9E3617" offset=".9744"/>
   <stop stop-color="#B1451D" offset=".9948"/>
   <stop stop-color="#B7491E" offset="1"/>
  </radialGradient>
 </defs>
 <g transform="translate(425.93 -353.46)">
  <g transform="matrix(.61605 0 0 .61605 -453.31 197.71)" fill="#3c3737">
   <path d="m137.89 285.46c0 0.698-0.364 0.587-0.588 0.587h-7.043c-0.223 0-0.586 0.111-0.586-0.587v-1.51c0-0.697 0.364-0.588 0.586-0.588h1.427v-13.778h-1.427c-0.223 0-0.586 0.112-0.586-0.588v-1.508c0-0.7 0.364-0.588 0.586-0.588h6.541c2.152 0 6.512-0.084 6.512 5.255 0 3.774-2.544 6.232-6.372 6.232h-1.48v4.975h1.842c0.225 0 0.588-0.109 0.588 0.588zm-1.566-10.005c1.51 0 3.213-0.225 3.213-3.102 0-2.461-1.48-2.517-2.933-2.517h-1.145v5.618h0.865z"/>
   <path d="m154.68 284.99c-0.111 0.418-0.503 1.753-0.614 2.145-0.419 1.37-0.922 2.598-1.761 3.325-0.755 0.67-1.9 0.978-2.963 0.978-1.146 0-2.683-0.434-3.38-0.965-0.419-0.308-0.225-0.475-0.141-0.67l0.798-1.749c0.056-0.111 0.167-0.195 0.252-0.195 0.139 0 0.278 0.111 0.503 0.195l0.391 0.169c0.475 0.194 0.907 0.282 1.354 0.282 1.536 0 1.928-1.092 2.236-2.069l0.256-0.775-1.267 6e-3c-0.225 0-0.364 0.056-0.505-0.364l-3.568-10.459h-0.894c-0.141 0-0.394 0.028-0.394-0.389v-1.818c0-0.42 0.252-0.392 0.394-0.392h3.293c0.252 0 0.363-0.084 0.502 0.419l1.841 6.268c0.28 1.033 0.866 3.802 1.061 4.835h0.056c0.308-1.818 0.453-2.635 0.872-4.449l1.51-6.653c0.111-0.503 0.306-0.419 0.503-0.419h3.38c0.197 0 0.392-0.056 0.392 0.392v1.818c0 0.194 0.056 0.389-0.392 0.389h-0.978z"/>
   <path d="m169.94 285.1c0.03 0.111 0.085 0.196 0.085 0.278 0 0.616-2.349 1.146-3.913 1.146-5.926 0-6.205-5.338-6.205-7.099 0-6.345 4.024-7.659 6.594-7.659 1.174 0 3.438 0.392 3.438 1.203v3.773c0 0.417-0.252 0.39-0.39 0.39h-2.013c-0.141 0-0.39 0.027-0.39-0.39v-2.068c-0.28-0.086-0.534-0.111-0.785-0.111-1.536 0-2.683 1.061-2.683 4.668 0 1.536-0.028 4.497 2.878 4.497 0.922 0 1.707-0.334 2.042-0.473 0.223-0.086 0.306-0.142 0.419-0.142 0.139 0 0.195 0.113 0.195 0.142z"/>
   <path d="m181.88 285.1c0.026 0.111 0.083 0.196 0.083 0.278 0 0.616-2.347 1.146-3.915 1.146-5.924 0-6.203-5.338-6.203-7.099 0-6.345 4.022-7.659 6.596-7.659 1.174 0 3.438 0.392 3.438 1.203v3.773c0 0.417-0.252 0.39-0.392 0.39h-2.013c-0.139 0-0.391 0.027-0.391-0.39v-2.068c-0.278-0.086-0.531-0.111-0.783-0.111-1.536 0-2.681 1.061-2.681 4.668 0 1.536-0.029 4.497 2.878 4.497 0.922 0 1.705-0.334 2.041-0.473 0.224-0.086 0.306-0.142 0.419-0.142 0.139 0 0.195 0.113 0.195 0.142z"/>
   <path d="m189.02 285.66c0 0.196 0.056 0.392-0.392 0.392h-2.766c-0.419 0-0.394-0.251-0.394-0.392v-10.817h-1.423c-0.141 0-0.394 0.028-0.394-0.389v-1.818c0-0.14-0.026-0.392 0.394-0.392h4.583c0.447 0 0.392 0.196 0.392 0.392v4.835h1.145c1.286 0 1.453-0.614 1.622-1.369l0.363-1.592c0.306-1.397 1.089-2.041 1.789-2.35 0.473-0.194 1.342-0.392 1.816-0.392 0.336 0 0.419 0.14 0.447 0.28l0.559 2.041c0.056 0.195-0.083 0.392-0.364 0.447l-0.419 0.084c-0.697 0.141-0.809 0.141-1.145 1.313l-0.308 1.061c-0.165 0.589-0.503 1.538-1.705 1.761v0.084c1.174 0.225 1.649 1.091 2.013 2.152l0.531 1.538c0.083 0.28 0.168 0.586 0.363 0.781 0.139 0.141 0.392 0.252 0.588 0.281l0.614 0.111c0.195 0.026 0.447 0.084 0.306 0.614l-0.503 1.789c-0.056 0.169-0.083 0.419-0.584 0.419-0.449 0-1.596-0.139-2.377-0.503-0.642-0.308-1.146-0.755-1.455-2.068l-0.53-2.319c-0.169-0.755-0.336-1.369-1.622-1.369h-1.145v5.395z"/>
   <path d="m213.45 283.45c0.447 0 0.392 0.196 0.392 0.392v1.816c0 0.196 0.056 0.392-0.392 0.392h-4.583c-0.139 0-0.392 0.027-0.392-0.392v-4.779c0-1.091 0.056-2.431 0.111-3.438h-0.111c-0.616 1.453-0.755 1.791-0.922 2.097l-3.354 6.121c-0.139 0.25-0.169 0.392-0.531 0.392h-2.571c-0.139 0-0.392 0.027-0.392-0.392v-10.817h-1.425c-0.141 0-0.392 0.028-0.392-0.389v-1.818c0-0.42 0.25-0.392 0.392-0.392h4.583c0.449 0 0.394 0.196 0.394 0.392v4.779c0 1.091-0.058 2.433-0.113 3.438h0.113c0.614-1.48 0.781-1.872 0.92-2.124l3.354-6.093c0.139-0.253 0.167-0.392 0.531-0.392h2.571c0.419 0 0.392 0.252 0.392 0.392v10.816h1.425z"/>
   <path d="m229.61 283.45c0.447 0 0.391 0.196 0.391 0.392v1.816c0 0.196 0.056 0.392-0.391 0.392h-4.583c-0.139 0-0.392 0.027-0.392-0.392v-4.779c0-1.091 0.058-2.431 0.111-3.438h-0.111c-0.614 1.453-0.753 1.791-0.922 2.097l-3.353 6.121c-0.141 0.25-0.171 0.392-0.533 0.392h-2.572c-0.139 0-0.391 0.027-0.391-0.392v-10.817h-1.423c-0.141 0-0.391 0.028-0.391-0.389v-1.818c0-0.42 0.25-0.392 0.391-0.392h4.583c0.445 0 0.392 0.196 0.392 0.392v4.779c0 1.091-0.056 2.433-0.113 3.438h0.113c0.614-1.48 0.781-1.872 0.92-2.124l3.356-6.093c0.139-0.253 0.167-0.392 0.529-0.392h2.572c0.421 0 0.391 0.252 0.391 0.392v10.816h1.426zm-3.38-17.329c0.111 0 0.25 0.14 0.25 0.447s-0.083 0.699-0.195 1.007c-0.532 1.452-1.985 2.431-3.746 2.431-1.481 0-3.13-0.671-3.802-2.459-0.109-0.308-0.195-0.644-0.195-0.979 0-0.308 0.141-0.447 0.252-0.447l1.703-0.225c0.085 0 0.141-0.026 0.197-0.026 0.25 0 0.306 0.391 0.391 0.67 0.225 0.756 0.588 1.174 1.397 1.174 0.979 0 1.341-0.699 1.48-1.201 0.058-0.252 0.085-0.447 0.197-0.559 0.139-0.141 0.224-0.084 0.363-0.058z"/>
   <path d="m144.09 306.05c0.445 0 0.39 0.196 0.39 0.392v1.816c0 0.196 0.056 0.392-0.39 0.392h-4.584c-0.139 0-0.392 0.029-0.392-0.392v-4.779c0-1.09 0.056-2.431 0.111-3.437h-0.111c-0.616 1.453-0.755 1.788-0.922 2.095l-3.354 6.121c-0.139 0.252-0.169 0.392-0.531 0.392h-2.572c-0.141 0-0.391 0.029-0.391-0.392v-10.817h-1.425c-0.139 0-0.391 0.03-0.391-0.39v-1.816c0-0.419 0.252-0.393 0.391-0.393h4.583c0.447 0 0.392 0.196 0.392 0.393v4.778c0 1.091-0.056 2.432-0.111 3.438h0.111c0.616-1.48 0.783-1.872 0.922-2.122l3.354-6.094c0.139-0.252 0.167-0.393 0.531-0.393h2.571c0.419 0 0.392 0.252 0.392 0.393v10.815z"/>
   <path d="m155.08 297.72h-2.376v0.281c0 1.397-0.167 4.136-0.392 5.534-0.642 4.164-2.319 5.059-3.716 5.395-0.392 0.083-0.895 0.194-1.453 0.194-0.197 0-0.559-0.028-0.614-0.419l-0.225-2.069c-0.056-0.503 0.195-0.445 0.419-0.475l0.25-0.028c1.425-0.167 1.846-1.563 2.013-2.206 0.252-1.035 0.475-2.963 0.502-4.306l0.056-2.181h-1.425c-0.139 0-0.392 0.03-0.392-0.39v-1.816c0-0.141-0.056-0.393 0.419-0.393h10.089c0.447 0 0.392 0.196 0.392 0.393v10.815h1.425c0.449 0 0.394 0.196 0.394 0.392v1.816c0 0.196 0.056 0.392-0.394 0.392h-6.063c-0.141 0-0.392 0.029-0.392-0.392v-1.816c0-0.14-0.028-0.392 0.392-0.392h1.089v-8.329z"/>
   <path d="m170.89 297.72h-2.377v0.281c0 1.397-0.167 4.136-0.39 5.534-0.644 4.164-2.319 5.059-3.718 5.395-0.391 0.083-0.894 0.194-1.453 0.194-0.197 0-0.559-0.028-0.616-0.419l-0.223-2.069c-0.056-0.503 0.196-0.445 0.419-0.475l0.252-0.028c1.423-0.167 1.844-1.563 2.011-2.206 0.25-1.035 0.475-2.963 0.503-4.306l0.056-2.181h-1.425c-0.139 0-0.392 0.03-0.392-0.39v-1.816c0-0.141-0.056-0.393 0.419-0.393h10.091c0.447 0 0.39 0.196 0.39 0.393v10.815h1.425c0.447 0 0.394 0.196 0.394 0.392v1.816c0 0.196 0.054 0.392-0.394 0.392h-6.063c-0.141 0-0.392 0.029-0.392-0.392v-1.816c0-0.14-0.027-0.392 0.392-0.392h1.089v-8.329z"/>
   <path d="m184.07 299.87c0.306-2.095 1.37-3.382 1.508-3.577 1.203-1.48 2.906-1.928 4.305-1.928 2.403 0 3.716 1.145 4.36 1.928 1.286 1.536 1.703 3.41 1.703 5.451 0 5.255-2.989 7.377-6.036 7.377-1.566 0-3.607-0.559-4.835-2.598-0.7-1.146-1.036-2.629-1.036-3.857h-1.564v5.589c0 0.196 0.054 0.392-0.393 0.392h-2.765c-0.421 0-0.394-0.251-0.394-0.392v-10.817h-1.425c-0.139 0-0.392 0.03-0.392-0.39v-1.816c0-0.141-0.028-0.393 0.392-0.393h4.583c0.447 0 0.393 0.196 0.393 0.393v4.639h1.596zm8.104 2.068c0-2.347-0.167-4.779-2.292-4.779-2.126 0-2.293 2.433-2.293 4.724 0 1.956 0.113 4.444 2.293 4.444 2.179 0 2.292-2.489 2.292-4.389z"/>
   <path d="m201.94 300.35c0.504 0 1.286 0 1.818-0.421 0.335-0.278 0.588-0.755 0.588-1.342 0-0.502-0.225-0.866-0.588-1.146-0.419-0.306-0.922-0.361-1.37-0.361-0.755 0-1.369 0.167-1.677 0.278v1.174c0 0.42-0.25 0.392-0.391 0.392h-1.705c-0.139 0-0.392 0.028-0.392-0.392v-2.961c0-0.421 0.531-0.616 0.868-0.729 1.286-0.39 2.431-0.474 3.184-0.474 0.979 0 2.824 0.084 4.024 0.95 0.755 0.559 1.482 1.508 1.482 2.905 0 1.427-0.811 2.6-2.15 3.186v0.086c0.865 0.167 1.423 0.615 1.731 0.949 0.586 0.614 0.838 1.313 0.838 2.041 0 0.978-0.252 2.067-1.117 2.989-0.811 0.868-2.266 1.649-4.781 1.649-2.458 0-3.913-0.866-4.275-1.117-0.225-0.139-0.447-0.338-0.447-0.614 0-0.056 0.056-0.196 0.082-0.25l0.813-1.566c0.056-0.141 0.139-0.225 0.308-0.225 0.11 0 0.223 0.028 0.417 0.14 0.588 0.336 1.37 0.922 2.909 0.922 0.668 0 1.368-0.111 1.928-0.642 0.503-0.476 0.529-1.035 0.529-1.258 0-0.476-0.249-0.979-0.697-1.286-0.559-0.363-1.397-0.363-1.956-0.363h-0.447c-0.306 0-0.392-0.084-0.392-0.392v-1.733c0-0.308 0.085-0.39 0.392-0.39h0.474z"/>
   <path d="m224.61 306.05c0.447 0 0.392 0.196 0.392 0.392v1.816c0 0.196 0.056 0.392-0.392 0.392h-4.584c-0.139 0-0.39 0.029-0.39-0.392v-4.779c0-1.09 0.056-2.431 0.111-3.437h-0.111c-0.616 1.453-0.757 1.788-0.924 2.095l-3.353 6.121c-0.139 0.252-0.168 0.392-0.532 0.392h-2.57c-0.139 0-0.392 0.029-0.392-0.392v-10.817h-1.425c-0.141 0-0.392 0.03-0.392-0.39v-1.816c0-0.419 0.25-0.393 0.392-0.393h4.583c0.447 0 0.391 0.196 0.391 0.393v4.778c0 1.091-0.056 2.432-0.111 3.438h0.111c0.614-1.48 0.783-1.872 0.922-2.122l3.354-6.094c0.139-0.252 0.169-0.393 0.531-0.393h2.571c0.419 0 0.392 0.252 0.392 0.393v10.815z"/>
   <path d="m226.7 301.75c0-5.256 2.989-7.379 6.065-7.379 3.075 0 6.065 2.123 6.065 7.379 0 5.255-2.991 7.377-6.065 7.377-3.076 0-6.065-2.123-6.065-7.377zm7.854 3.521c0.195-0.392 0.503-1.258 0.503-3.354 0-2.433-0.364-3.383-0.588-3.772-0.475-0.838-1.284-0.979-1.704-0.979-1.089 0-1.594 0.783-1.789 1.146-0.421 0.81-0.502 2.6-0.502 3.521 0 0.42 0 2.6 0.557 3.55 0.419 0.697 1.148 0.95 1.734 0.95 1.006 0 1.537-0.587 1.789-1.062z"/>
   <path d="m242.49 297.44h-1.425c-0.139 0-0.394 0.03-0.394-0.39v-1.816c0-0.141-0.026-0.393 0.394-0.393h4.583c0.447 0 0.392 0.196 0.392 0.393v4.946h4.052v-2.74h-1.09c-0.141 0-0.392 0.03-0.392-0.39v-1.816c0-0.141-0.029-0.393 0.392-0.393h6.063c0.449 0 0.393 0.196 0.393 0.393v1.816c0 0.195 0.056 0.39-0.393 0.39h-1.423v8.609h1.423c0.449 0 0.393 0.196 0.393 0.392v1.816c0 0.196 0.056 0.392-0.393 0.392h-4.583c-0.139 0-0.391 0.029-0.391-0.392v-5.282h-4.052v3.074h1.089c0.447 0 0.392 0.196 0.392 0.392v1.816c0 0.196 0.056 0.392-0.392 0.392h-6.063c-0.139 0-0.394 0.029-0.394-0.392v-1.816c0-0.14-0.026-0.392 0.394-0.392h1.425z"/>
  </g>
  <g transform="matrix(.61605 0 0 .61605 -453.31 197.71)">
   <path d="m74.656 292.88c-4.98-7.218-9.179-14.783-9.384-20.784-0.141-4.049 0.269-7.416 1.464-10.312 1.048-2.992 3.286-6.399 5.555-8.487 0.358-0.329 0.267-0.56-0.148-0.446-15.858 3.577-27.706 17.741-27.706 34.681 0 14.895 9.162 27.638 22.153 32.933 0.397 0.134 0.609-0.229 0.162-0.635-1.462-1.328-3.026-3.876-3.561-6.317-1.256-5.728 2.111-8.251 3.048-8.83 0.173-0.098 0.275-0.072 0.384 0.109 1.868 3.121 5.215 3.479 7.594 1.869 3.501-2.369 5.417-6.563 0.439-13.781z" fill="url(#b)"/>
   <path d="m99.114 257.55c-0.056-0.036-0.624-0.387-0.854-0.525-3.234-1.9-6.983-2.965-10.83-2.639-0.041 3e-3 -2.147 0.291-3.195 0.574-7.123 1.988-11.236 8.293-10.006 15.344 0.102 0.592 0.432 1.912 0.865 2.894 1.579 3.586 5.828 7.243 12.236 5.674 2.605-0.639 4.603-1.971 5.054-3.932 0.046-0.198 0.156-0.258 0.317-0.262 0.67-0.029 2.583 0.132 4.247 2.59 1.968 2.898 1.789 6.183-0.776 8.952-0.913 0.981-3.143 1.566-4.141 1.835-0.998 0.27-3.404 0.854-1.345 4.238 1.008 1.654 2.594 3.746 3.826 6.909 1.742 4.474 2.647 10.923-0.822 16.23-2.119 3.243-8.323 6.826-8.323 6.826-0.477 0.232-0.408 0.497-0.015 0.425 17.101-2.582 30.211-17.333 30.211-35.153 0-12.601-6.56-23.665-16.449-29.98z" fill="url(#a)"/>
  </g>
 </g>
</svg>
