<?xml version="1.0" encoding="UTF-8"?>
<!-- Created with Inkscape (http://www.inkscape.org/) -->
<svg id="svg940" width="800mm" height="196.1mm" version="1.1" viewBox="0 0 800 196.1" xmlns="http://www.w3.org/2000/svg" xmlns:cc="http://creativecommons.org/ns#" xmlns:dc="http://purl.org/dc/elements/1.1/" xmlns:rdf="http://www.w3.org/1999/02/22-rdf-syntax-ns#">
 <metadata id="metadata937">
  <rdf:RDF>
   <cc:Work rdf:about="">
    <dc:format>image/svg+xml</dc:format>
    <dc:type rdf:resource="http://purl.org/dc/dcmitype/StillImage"/>
    <dc:title/>
   </cc:Work>
  </rdf:RDF>
 </metadata>
 <g id="layer1" transform="translate(122.84 21.32)">
  <g id="g4609" transform="matrix(.15125 0 0 .15125 -122.84 -21.32)">
   <g id="g21">
    <title id="title4">lisst</title>
    <g id="shape4-1" transform="translate(7.7278,-140.85)">
     <title id="title6">liss.4</title>
     <path id="path8" class="st1" d="m915.53 514.11 183.38-183.37c-129.12-124.74-281.78-188.39-458.4-189.89-366.44 5.45-640.69 284.66-648.24 648.24 5.21 227.35 101.15 393.85 259.3 518.61v-518.57c4.79-220.47 173.45-386.29 388.94-388.94 109.62 1.04 200.07 41.54 275.02 113.92z" fill="#e10000"/>
    </g>
    <g id="shape6-3" transform="translate(518.59 -.1433)">
     <title id="title11">liss.6</title>
     <path id="path13" class="st1" d="m404.67 923.45c-76.27 74.9-168.26 112.12-275.02 113.92-45.45-0.24-88.7-7.53-129.65-22.16v268.43c44.58 8.68 87.89 13.3 129.65 12.98 186.42-3.89 337.47-70.24 458.35-189.84z" fill="#e10000"/>
    </g>
    <g id="shape8-5" transform="translate(523.22,-524.45)">
     <title id="title16">liss.8</title>
     <path id="path18" class="st1" d="m254.66 1172.7c0 71.6-58.04 129.64-129.64 129.64-71.61 0-129.65-58.04-129.65-129.64s58.04-129.65 129.65-129.65c71.6 0 129.64 58.05 129.64 129.65z" fill="#e10000"/>
    </g>
   </g>
  </g>
  <g id="g76" transform="matrix(.55282 0 0 .55282 62.059 42.913)">
   <title id="title4-7">Страница-1</title>
   <g id="shape151-1" transform="translate(0,-24.436)">
    <title id="title6-4">Лист.151</title>
    <path id="path8-1" class="st1" d="m47.99 29.66c6.66 0 12.63 0.73 17.92 2.19 5.29 1.47 9.75 3.6 13.4 6.39 3.64 2.8 6.44 6.21 8.39 10.25 1.96 4.04 2.94 8.63 2.94 13.77 0 5.15-0.98 9.74-2.94 13.78-1.95 4.04-4.75 7.45-8.4 10.25-3.64 2.79-8.11 4.92-13.4 6.39-5.29 1.46-11.26 2.19-17.93 2.19h-28.67v27.95h-19.3v-93.16zm-28.69 9.98v45.25h28.61c7.01 0 12.45-1.84 16.31-5.52s5.79-9.38 5.79-17.11c0-7.71-1.93-13.41-5.79-17.1-3.86-3.68-9.3-5.52-16.31-5.52z"/>
   </g>
   <g id="shape153-3" transform="translate(97.374 -.16597)">
    <title id="title11-6">Лист.153</title>
    <path id="path13-5" class="st1" d="m48.36 122.51h-18.63l9.31-23.96h-11.31l-27.95-69.21h18.64l23.29 57.9h1.33l21.96-57.9h18.63z"/>
   </g>
   <g id="shape155-5" transform="translate(185.7,-22.125)">
    <title id="title16-1">Лист.155</title>
    <path id="path18-2" class="st1" d="m40.56 48.64c2.84 0 5.68 0.25 8.52 0.73 2.84 0.49 5.56 1.16 8.18 2s5.06 1.89 7.32 3.13 4.24 2.62 5.92 4.12c0 0-5.32 7.99-5.32 7.99-3.64-2.75-7.34-4.88-11.11-6.39s-7.83-2.26-12.18-2.26c-3.19 0-6.12 0.51-8.78 1.53-2.67 1.02-4.97 2.66-6.92 4.92-1.96 2.26-3.49 5.17-4.6 8.72s-1.66 7.81-1.66 12.78 0.55 9.22 1.66 12.77 2.69 6.46 4.73 8.72 4.5 3.91 7.39 4.92c2.88 1.03 6.05 1.53 9.51 1.53 4.35 0 8.41-0.75 12.18-2.26 3.77-1.5 7.47-3.63 11.11-6.39 0 0 5.32 7.99 5.32 7.99-1.68 1.51-3.65 2.89-5.92 4.13-2.26 1.24-4.7 2.28-7.32 3.13-2.61 0.84-5.35 1.5-8.18 1.99-2.84 0.49-5.68 0.73-8.52 0.73-6.3 0-12.04-0.82-17.24-2.46-5.18-1.64-9.6-4.04-13.24-7.19-3.64-3.14-6.45-7.03-8.45-11.64-2-4.62-2.99-9.94-2.99-15.97 0-5.95 0.99-11.25 2.99-15.91 2-4.65 4.77-8.56 8.32-11.71s7.81-5.54 12.78-7.18c4.96-1.65 10.47-2.47 16.5-2.47z"/>
   </g>
   <g id="shape157-7" transform="translate(264.22,-22.125)">
    <title id="title21">Лист.157</title>
    <path id="path23" class="st1" d="m40.56 48.64c2.84 0 5.68 0.25 8.52 0.73 2.84 0.49 5.56 1.16 8.18 2s5.06 1.89 7.32 3.13 4.24 2.62 5.92 4.12c0 0-5.32 7.99-5.32 7.99-3.64-2.75-7.34-4.88-11.11-6.39s-7.83-2.26-12.18-2.26c-3.19 0-6.12 0.51-8.78 1.53-2.67 1.02-4.97 2.66-6.92 4.92-1.96 2.26-3.49 5.17-4.6 8.72s-1.66 7.81-1.66 12.78 0.55 9.22 1.66 12.77 2.69 6.46 4.73 8.72 4.5 3.91 7.39 4.92c2.88 1.03 6.05 1.53 9.51 1.53 4.35 0 8.41-0.75 12.18-2.26 3.77-1.5 7.47-3.63 11.11-6.39 0 0 5.32 7.99 5.32 7.99-1.68 1.51-3.65 2.89-5.92 4.13-2.26 1.24-4.7 2.28-7.32 3.13-2.61 0.84-5.35 1.5-8.18 1.99-2.84 0.49-5.68 0.73-8.52 0.73-6.3 0-12.04-0.82-17.24-2.46-5.18-1.64-9.6-4.04-13.24-7.19-3.64-3.14-6.45-7.03-8.45-11.64-2-4.62-2.99-9.94-2.99-15.97 0-5.95 0.99-11.25 2.99-15.91 2-4.65 4.77-8.56 8.32-11.71s7.81-5.54 12.78-7.18c4.96-1.65 10.47-2.47 16.5-2.47z"/>
   </g>
   <g id="shape159-9" transform="translate(350.03,-24.436)">
    <title id="title26">Лист.159</title>
    <path id="path28" class="st1" d="m32.61 92.88h-13.98v29.94h-18.63v-69.21h18.63v29.95h13.98l20.63-29.95h19.96l-23.29 33.94 24.62 35.27h-21.29z"/>
   </g>
   <g id="shape161-11" transform="translate(436.54,-24.436)">
    <title id="title31">Лист.161</title>
    <path id="path33" class="st1" d="m74.53 53.61v69.21h-18.63v-51.9h-1.33l-30.61 51.9h-23.96v-69.21h18.63v51.91h1.34l30.61-51.91z"/>
   </g>
   <g id="shape163-13" transform="translate(529.7,-24.436)">
    <title id="title36">Лист.163</title>
    <path id="path38" class="st1" d="m74.53 53.61v69.21h-18.63v-51.9h-1.33l-30.61 51.9h-23.96v-69.21h18.63v51.91h1.34l30.61-51.91z"/>
   </g>
   <g id="shape165-15" transform="translate(666.79,-22.125)">
    <title id="title41">Лист.165</title>
    <path id="path43" class="st1" d="m55.88 113.19c6.04 0 11.83-1.04 17.38-3.13 5.54-2.08 10.84-5.47 15.9-10.18 0 0 6.65 7.99 6.65 7.99-5.05 4.7-11.18 8.43-18.36 11.18-7.19 2.75-14.82 4.12-22.89 4.12-8.34 0-15.87-1.06-22.56-3.19-6.7-2.13-12.43-5.28-17.17-9.45-4.75-4.17-8.41-9.32-10.98-15.44s-3.86-13.18-3.86-21.16c0-7.99 1.27-15.04 3.79-21.16 2.53-6.13 6.13-11.27 10.78-15.44 4.66-4.17 10.27-7.32 16.84-9.45 6.56-2.13 13.84-3.19 21.83-3.19 8.07 0 15.7 1.37 22.89 4.12 7.18 2.75 13.3 6.48 18.36 11.18l-6.65 7.98c-5.05-4.7-10.36-8.09-15.9-10.17-5.55-2.09-11.34-3.13-17.37-3.13-4.79 0-9.28 0.77-13.44 2.33-4.18 1.55-7.77 3.92-10.79 7.12-3.02 3.19-5.38 7.25-7.12 12.17-1.73 4.93-2.59 10.81-2.59 17.64s0.86 12.71 2.59 17.63c1.74 4.93 4.17 8.99 7.33 12.18 3.14 3.2 6.87 5.57 11.17 7.12s9.03 2.33 14.17 2.33z"/>
   </g>
   <g id="shape168-17" transform="translate(768.63,-22.125)">
    <title id="title46">Лист.168</title>
    <path id="path48" class="st1" d="m43.22 113.85c4.35 0 8.41-0.75 12.18-2.26 3.77-1.5 7.47-3.63 11.11-6.39 0 0 5.33 7.99 5.33 7.99-1.69 1.51-3.66 2.89-5.93 4.13-2.26 1.24-4.7 2.28-7.32 3.13-2.61 0.84-5.34 1.5-8.18 1.99s-5.68 0.73-8.52 0.73c-6.3 0-12.05-0.82-17.23-2.46-5.19-1.64-9.61-4.04-13.25-7.19-3.64-3.14-6.45-7.03-8.45-11.64-1.99-4.62-2.99-9.94-2.99-15.97 0-5.95 0.95-11.25 2.86-15.91 1.9-4.65 4.57-8.56 7.98-11.71 3.42-3.15 7.48-5.54 12.18-7.18 4.7-1.65 9.89-2.47 15.57-2.47 5.33 0 10.34 0.8 15.04 2.4 4.71 1.59 8.79 3.92 12.25 6.98 3.46 3.07 6.2 6.77 8.25 11.12 2.04 4.35 3.06 9.27 3.06 14.77v9.32h-56.83c1.06 7.36 3.62 12.64 7.65 15.84 4.04 3.19 9.12 4.78 15.24 4.78zm-4.66-56.56c-2.57 0-4.97 0.49-7.19 1.46-2.22 0.98-4.14 2.53-5.79 4.66-1.63 2.13-2.97 4.89-3.99 8.26s-1.57 7.45-1.66 12.24h37.26c0-4.61-0.53-8.6-1.59-11.98-1.06-3.37-2.46-6.14-4.2-8.31-1.72-2.18-3.72-3.78-5.98-4.8s-4.55-1.53-6.86-1.53z"/>
   </g>
   <g id="shape172-19" transform="translate(861.09,-24.436)">
    <title id="title51">Лист.172</title>
    <path id="path53" class="st1" d="m67.88 72.91c0 3.38-1.22 6.26-3.66 8.65-2.44 2.4-6.32 3.95-11.65 4.66 6.39 0.98 11.21 3 14.44 6.06 3.25 3.06 4.86 6.59 4.86 10.58 0 2.84-0.65 5.48-1.93 7.92s-3.26 4.55-5.92 6.32c-2.66 1.78-6.03 3.17-10.12 4.19-4.08 1.02-8.96 1.53-14.64 1.53h-39.26v-69.21h35.27c5.68 0 10.56 0.52 14.64 1.53 4.08 1.03 7.46 2.4 10.12 4.13s4.63 3.77 5.92 6.12c1.29 2.36 1.93 4.86 1.93 7.52zm-32.61 9.98c3.99 0 7.1-1 9.32-2.99 2.21-2 3.33-4.33 3.33-6.99s-1.12-4.99-3.33-6.98c-2.22-2-5.33-3-9.32-3h-16.63v19.96zm3.99 30.62c4 0 7.1-1.02 9.32-3.07 2.22-2.04 3.33-4.57 3.33-7.58 0-3.02-1.11-5.55-3.33-7.59s-5.32-3.06-9.32-3.06h-20.62v21.3z"/>
   </g>
   <g id="shape175-21" transform="translate(944.31,-22.125)">
    <title id="title56">Лист.175</title>
    <path id="path58" class="st1" d="m43.22 113.85c4.35 0 8.41-0.75 12.18-2.26 3.77-1.5 7.48-3.63 11.12-6.39 0 0 5.32 7.99 5.32 7.99-1.69 1.51-3.66 2.89-5.92 4.13-2.27 1.24-4.71 2.28-7.32 3.13-2.62 0.84-5.35 1.5-8.19 1.99s-5.68 0.73-8.52 0.73c-6.3 0-12.04-0.82-17.23-2.46s-9.61-4.04-13.24-7.19c-3.64-3.14-6.46-7.03-8.45-11.64-2-4.62-3-9.94-3-15.97 0-5.95 0.96-11.25 2.86-15.91 1.91-4.65 4.57-8.56 7.99-11.71 3.41-3.15 7.47-5.54 12.18-7.18 4.69-1.65 9.89-2.47 15.57-2.47 5.32 0 10.33 0.8 15.04 2.4 4.69 1.59 8.78 3.92 12.24 6.98 3.46 3.07 6.21 6.77 8.25 11.12s3.06 9.27 3.06 14.77v9.32h-56.83c1.07 7.36 3.62 12.64 7.66 15.84 4.03 3.19 9.11 4.78 15.23 4.78zm-4.65-56.56c-2.58 0-4.97 0.49-7.19 1.46-2.22 0.98-4.15 2.53-5.79 4.66s-2.98 4.89-3.99 8.26c-1.03 3.37-1.58 7.45-1.67 12.24h37.27c0-4.61-0.53-8.6-1.6-11.98-1.06-3.37-2.46-6.14-4.19-8.31-1.73-2.18-3.73-3.78-5.99-4.8s-4.55-1.53-6.85-1.53z"/>
   </g>
   <g id="shape178-23" transform="translate(1036.8 -.16597)">
    <title id="title61">Лист.178</title>
    <path id="path63" class="st1" d="m35.27 29.34c6.12 0 11.69 0.8 16.7 2.4s9.29 3.91 12.84 6.92c3.55 3.02 6.28 6.66 8.19 10.92 1.9 4.25 2.86 9.04 2.86 14.37 0 5.32-0.96 10.11-2.86 14.37-1.91 4.26-4.64 7.9-8.19 10.92-3.55 3.01-7.83 5.32-12.84 6.92-5.01 1.59-10.58 2.39-16.7 2.39h-16.64v23.96h-18.63v-93.17zm-16.64 9.32v50.58h16.64c3.02 0 5.79-0.47 8.32-1.4 2.53-0.94 4.7-2.42 6.52-4.46s3.24-4.66 4.26-7.85c1.02-3.2 1.53-7.06 1.53-11.58 0-4.53-0.51-8.39-1.53-11.58s-2.44-5.81-4.26-7.85-3.99-3.53-6.52-4.46-5.3-1.4-8.32-1.4z"/>
   </g>
   <g id="shape181-25" transform="translate(543.69,-106.49)">
    <title id="title66">Лист.181</title>
    <path id="path68" class="st1" d="m21.87 108.74h-8.2v14.46h-5.47v-14.46h-8.2v-2.25h21.87z"/>
   </g>
   <g id="shape185-27" transform="translate(568.69,-106.49)">
    <title id="title71">Лист.185</title>
    <path id="path73" class="st1" d="m19.92 111.15c0 0.82-0.36 1.51-1.07 2.09-0.72 0.58-1.86 0.95-3.42 1.13 1.87 0.23 3.29 0.72 4.23 1.46 0.96 0.74 1.43 1.59 1.43 2.55 0 0.69-0.19 1.32-0.57 1.91-0.37 0.59-0.95 1.1-1.73 1.53s-1.77 0.76-2.97 1.01-2.63 0.37-4.3 0.37h-11.52v-16.71h10.35c1.67 0 3.1 0.13 4.3 0.37 1.2 0.25 2.19 0.58 2.97 1s1.36 0.91 1.73 1.48c0.38 0.56 0.57 1.17 0.57 1.81zm-9.57 2.41c1.17 0 2.09-0.24 2.73-0.72 0.66-0.48 0.98-1.05 0.98-1.69s-0.32-1.2-0.98-1.68c-0.64-0.49-1.56-0.73-2.73-0.73h-4.88v4.82zm1.17 7.39c1.17 0 2.09-0.25 2.74-0.74s0.97-1.1 0.97-1.83-0.32-1.34-0.97-1.83-1.57-0.74-2.74-0.74h-6.05v5.14z"/>
   </g>
  </g>
 </g>
</svg>
