<?xml version="1.0" encoding="UTF-8"?>
<!-- Generator: Adobe Illustrator 16.0.0, SVG Export Plug-In . SVG Version: 6.00 Build 0)  -->
<!DOCTYPE svg  PUBLIC '-//W3C//DTD SVG 1.1//EN'  'http://www.w3.org/Graphics/SVG/1.1/DTD/svg11.dtd'>
<svg width="283.46px" height="283.46px" enable-background="new 0 0 283.464 283.464" version="1.1" viewBox="0 0 283.46 283.46" xml:space="preserve" xmlns="http://www.w3.org/2000/svg">
<g id="Logo">
		<polygon points="34.612 34.612 248.85 34.612 248.85 248.85 34.612 248.85" clip-rule="evenodd" fill-rule="evenodd" stroke="#000" stroke-miterlimit="2.6131" stroke-width="1.0001"/>
			<path d="m114.41 67.812c2.37-1.369 8.698 5.126 14.085 14.457 5.388 9.331 7.849 18.059 5.479 19.426-2.371 1.368-8.697-5.126-14.085-14.458-5.386-9.331-7.848-18.058-5.479-19.425z" clip-rule="evenodd" fill="#E6E7E8" fill-rule="evenodd" stroke="#000" stroke-miterlimit="2.6131" stroke-width=".216"/>
			<path d="m127.39 62.518c2.643-0.707 7.073 7.203 9.861 17.611 2.79 10.408 2.908 19.475 0.265 20.183-2.643 0.707-7.073-7.202-9.861-17.611-2.788-10.408-2.909-19.474-0.265-20.183z" clip-rule="evenodd" fill="#E6E7E8" fill-rule="evenodd" stroke="#000" stroke-miterlimit="2.6131" stroke-width=".216"/>
			<path d="m141.31 60.769c2.735 0 4.968 8.789 4.968 19.563 0 10.775-2.232 19.563-4.968 19.563-2.737 0-4.969-8.788-4.969-19.563 0-10.774 2.232-19.563 4.969-19.563z" clip-rule="evenodd" fill="#E6E7E8" fill-rule="evenodd" stroke="#000" stroke-miterlimit="2.6131" stroke-width=".216"/>
			<path d="m155.2 62.68c2.643 0.708 2.524 9.774-0.265 20.183-2.788 10.407-7.219 18.318-9.862 17.609-2.644-0.708-2.525-9.775 0.263-20.183 2.789-10.407 7.22-18.318 9.864-17.609z" clip-rule="evenodd" fill="#E6E7E8" fill-rule="evenodd" stroke="#000" stroke-miterlimit="2.6131" stroke-width=".216"/>
			<path d="m168.13 68.122c2.369 1.367-0.092 10.095-5.479 19.426s-11.714 15.826-14.083 14.457c-2.371-1.367 0.091-10.095 5.478-19.425 5.388-9.331 11.714-15.827 14.084-14.458z" clip-rule="evenodd" fill="#E6E7E8" fill-rule="evenodd" stroke="#000" stroke-miterlimit="2.6131" stroke-width=".216"/>
			<path d="m179.2 76.723c1.935 1.935-2.701 9.727-10.319 17.347-7.62 7.618-15.413 12.254-17.347 10.319-1.937-1.935 2.699-9.728 10.319-17.346 7.619-7.619 15.412-12.254 17.347-10.32z" clip-rule="evenodd" fill="#E6E7E8" fill-rule="evenodd" stroke="#000" stroke-miterlimit="2.6131" stroke-width=".216"/>
			<path d="m192.81 128.69c-0.709 2.644-9.773 2.525-20.182-0.265-10.409-2.788-18.319-7.219-17.611-9.861 0.709-2.644 9.773-2.523 20.183 0.265 10.407 2.787 18.317 7.218 17.61 9.861z" clip-rule="evenodd" fill="#E6E7E8" fill-rule="evenodd" stroke="#000" stroke-miterlimit="2.6131" stroke-width=".216"/>
			<path d="m167.59 161.17c-2.37 1.366-8.696-5.126-14.084-14.459-5.388-9.331-7.848-18.057-5.479-19.426 2.369-1.368 8.697 5.127 14.083 14.458 5.389 9.333 7.849 18.058 5.48 19.427z" clip-rule="evenodd" fill="#E6E7E8" fill-rule="evenodd" stroke="#000" stroke-miterlimit="2.6131" stroke-width=".216"/>
			<path d="m140.69 168.21c-2.735 0-4.969-8.787-4.969-19.563s2.233-19.563 4.969-19.563 4.97 8.788 4.97 19.563-2.234 19.563-4.97 19.563z" clip-rule="evenodd" fill="#E6E7E8" fill-rule="evenodd" stroke="#000" stroke-miterlimit="2.6131" stroke-width=".216"/>
			<path d="m126.79 166.3c-2.643-0.709-2.523-9.774 0.263-20.182 2.791-10.409 7.221-18.32 9.863-17.611 2.644 0.708 2.525 9.773-0.264 20.183-2.787 10.407-7.219 18.318-9.862 17.61z" clip-rule="evenodd" fill="#E6E7E8" fill-rule="evenodd" stroke="#000" stroke-miterlimit="2.6131" stroke-width=".216"/>
			<path d="m113.87 160.86c-2.369-1.368 0.093-10.094 5.48-19.427 5.387-9.331 11.713-15.825 14.084-14.457 2.369 1.367-0.09 10.095-5.479 19.426-5.388 9.33-11.715 15.825-14.085 14.458z" clip-rule="evenodd" fill="#E6E7E8" fill-rule="evenodd" stroke="#000" stroke-miterlimit="2.6131" stroke-width=".216"/>
			<path d="m102.79 152.26c-1.935-1.934 2.701-9.728 10.32-17.345 7.618-7.62 15.411-12.256 17.347-10.321 1.934 1.935-2.701 9.728-10.322 17.347-7.617 7.62-15.409 12.254-17.345 10.319z" clip-rule="evenodd" fill="#E6E7E8" fill-rule="evenodd" stroke="#000" stroke-miterlimit="2.6131" stroke-width=".216"/>
			<path d="m94.321 141.08c-1.369-2.371 5.126-8.697 14.457-14.085s18.057-7.849 19.427-5.479c1.367 2.37-5.127 8.697-14.459 14.085-9.331 5.387-18.059 7.848-19.425 5.479z" clip-rule="evenodd" fill="#E6E7E8" fill-rule="evenodd" stroke="#000" stroke-miterlimit="2.6131" stroke-width=".216"/>
			<path d="m89.027 128.09c-0.707-2.643 7.203-7.073 17.612-9.863 10.407-2.788 19.474-2.906 20.181-0.263 0.71 2.643-7.202 7.073-17.61 9.861-10.409 2.791-19.474 2.909-20.183 0.265z" clip-rule="evenodd" fill="#E6E7E8" fill-rule="evenodd" stroke="#000" stroke-miterlimit="2.6131" stroke-width=".216"/>
			<path d="m87.278 114.18c0-2.737 8.789-4.969 19.563-4.969s19.563 2.231 19.563 4.969c0 2.735-8.788 4.969-19.563 4.969-10.774 0-19.563-2.233-19.563-4.969z" clip-rule="evenodd" fill="#E6E7E8" fill-rule="evenodd" stroke="#000" stroke-miterlimit="2.6131" stroke-width=".216"/>
			<path d="m89.189 100.29c0.708-2.644 9.773-2.523 20.183 0.265 10.407 2.788 18.318 7.219 17.609 9.861-0.708 2.644-9.774 2.525-20.181-0.265-10.409-2.788-18.32-7.219-17.611-9.861z" clip-rule="evenodd" fill="#E6E7E8" fill-rule="evenodd" stroke="#000" stroke-miterlimit="2.6131" stroke-width=".216"/>
			<path d="m94.63 87.361c1.368-2.37 10.095 0.091 19.428 5.479 9.329 5.386 15.825 11.714 14.455 14.083-1.367 2.37-10.095-0.091-19.424-5.479-9.333-5.386-15.827-11.714-14.459-14.083z" clip-rule="evenodd" fill="#E6E7E8" fill-rule="evenodd" stroke="#000" stroke-miterlimit="2.6131" stroke-width=".216"/>
			<path d="m103.23 76.284c1.935-1.935 9.728 2.701 17.347 10.32 7.618 7.618 12.254 15.411 10.319 17.346s-9.728-2.701-17.347-10.319c-7.618-7.621-12.254-15.412-10.319-17.347z" clip-rule="evenodd" fill="#E6E7E8" fill-rule="evenodd" stroke="#000" stroke-miterlimit="2.6131" stroke-width=".216"/>
		<path d="m130.93 95.687c9.848-5.688 22.521-2.292 28.207 7.559 5.687 9.848 2.292 22.521-7.559 28.207-9.85 5.687-22.521 2.292-28.207-7.559-5.688-9.85-2.291-22.52 7.559-28.207z" clip-rule="evenodd" fill="none" fill-rule="evenodd"/>
		<radialGradient id="SVGID_1_" cx="141.25" cy="113.57" r="20.64" gradientUnits="userSpaceOnUse">
			<stop stop-color="#FFF200" offset="0"/>
			<stop stop-color="#F58220" offset="1"/>
		</radialGradient>
		<path d="m130.93 95.687c9.848-5.688 22.521-2.292 28.207 7.559 5.687 9.848 2.292 22.521-7.559 28.207-9.85 5.687-22.521 2.292-28.207-7.559-5.688-9.85-2.291-22.52 7.559-28.207z" fill="url(#SVGID_1_)" stroke="#808285" stroke-miterlimit="2.6131" stroke-width=".216"/>
		<path d="m74.55 175.77c1.45-2.832 2.977-5.065 4.569-6.707 2.474-2.548 4.797-3.834 6.989-3.861 1.512 0.056 2.798 0.639 3.841 1.751 0.929 1.155 1.416 2.496 1.47 4.027-0.054 3.492-1.554 7.029-4.485 10.632-2.435 2.912-5.594 5.137-9.483 6.685-1.291 0.507-2.377 0.872-3.264 1.084l-2.074 0.523-0.38 0.02-0.102-0.102-0.04-0.18c0.012-0.15 0.061-0.323 0.142-0.523l0.462-1.029c0.054-0.144 0.124-0.241 0.22-0.283l0.199-0.02 1.615-0.034c3.957-0.502 7.173-2.197 9.64-5.099 0.983-1.126 1.842-2.391 2.597-3.785 0.804-1.479 1.442-3.036 1.91-4.692 0.392-1.396 0.591-2.652 0.605-3.779 0-1.121-0.275-2.048-0.825-2.803-0.673-0.943-1.505-1.402-2.493-1.389-2.255 0.04-4.816 1.944-7.69 5.716-0.927 1.21-1.778 2.542-2.555 3.998-0.777 1.459-1.519 3.073-2.234 4.846-0.521 1.271-1.152 2.954-1.889 5.05l-1.513 4.37-1.564 4.913c-0.687 2.24-1.259 4.053-1.72 5.455l-0.26 0.441-0.462-0.282-1.084-0.95-0.344-0.344v-0.116l0.102-0.343 0.764-2.15 1.368-3.951 1.009-3.12 1.788-5.937c0.728-2.575 1.353-5.03 1.875-7.365l1.209-6.019c0.31-1.603 0.516-2.831 0.619-3.704 0.012-0.22 0.061-0.386 0.144-0.508 0.055-0.075 0.145-0.159 0.282-0.241l1.064-0.584c0.221-0.104 0.42-0.165 0.604-0.179l0.188 0.104 0.096 0.22-0.02 0.344-1.148 6.884c-0.214 1.204-0.64 3.256-1.285 6.158l1.543-3.142z" clip-rule="evenodd" fill="#fff" fill-rule="evenodd"/>
		<path d="m96.216 189.67-1.031 1.65-0.845 1.324c-1.525 2.336-2.872 3.498-4.027 3.483-0.535 0.015-0.94-0.207-1.223-0.652-0.281-0.454-0.413-0.927-0.385-1.442-0.013-0.453 0.056-0.977 0.201-1.568l0.485-1.896 0.619-2.191 0.386-1.251c0.04-0.157 0.108-0.289 0.198-0.379 0.082-0.108 0.228-0.198 0.427-0.26l1.003-0.344 0.302-0.042 0.186 0.084 0.096 0.157-0.056 0.468-0.301 0.941-1.333 4.129-0.481 1.608c-0.136 0.487-0.199 0.858-0.199 1.127 0 0.377 0.213 0.597 0.641 0.666 0.39 0.028 0.795-0.214 1.207-0.723l1.086-1.414c0.544-0.777 0.991-1.459 1.353-2.048l1.169-1.994 0.907-1.634 0.419-0.785c0.084-0.149 0.186-0.245 0.323-0.302l0.502-0.123 0.481-0.096 0.405-0.063 0.22 0.084 0.082 0.157-0.178 0.707-2.096 7.428 1.313-1.188 0.28-0.221 0.117-0.02 0.24 0.178 0.104 0.206-0.042 0.098-0.262 0.282-1.909 1.752-0.729 1.991-0.823 2.434c-0.392 1.133-0.865 2.205-1.429 3.222-1.066 1.986-2.253 2.961-3.565 2.919-0.971-0.013-1.458-0.5-1.472-1.469 0-0.988 0.535-2.233 1.616-3.724 0.493-0.694 1.118-1.458 1.867-2.275l1.67-1.752 0.51-0.503 1.971-6.736zm-2.617 8.431-0.813 0.824-1.146 1.271c-1.477 1.833-2.22 3.298-2.233 4.384 0 0.19 0.041 0.344 0.124 0.466l0.179 0.158 0.302 0.084c0.688 0.027 1.291-0.613 1.813-1.91l0.563-1.616 0.522-1.524 0.689-2.137z" clip-rule="evenodd" fill="#fff" fill-rule="evenodd"/>
		<path d="m109.67 188.13-0.082 0.282-0.24 0.14-0.18-0.14-0.543-0.584c-0.59-0.589-1.146-0.885-1.676-0.885-0.921 0-1.807 0.631-2.659 1.889-0.625 0.94-1.093 1.965-1.387 3.065-0.159 0.535-0.235 1.001-0.22 1.387 0.04 1.037 0.485 1.54 1.345 1.512 0.352 0.014 0.785-0.095 1.292-0.323l1.188-0.563c0.564-0.281 1.102-0.598 1.608-0.94l0.282-0.124 0.22 0.124 0.083 0.199c-0.014 0.09-0.063 0.178-0.146 0.26l-0.501 0.461c-1.876 1.545-3.532 2.302-4.955 2.274-0.774-0.015-1.394-0.274-1.848-0.783-0.459-0.508-0.687-1.133-0.687-1.876 0-0.961 0.304-2.04 0.907-3.222 0.535-1.031 1.25-1.91 2.138-2.631 1.168-1.011 2.438-1.527 3.825-1.555 0.453 0 0.921 0.042 1.41 0.124 0.735 0.117 1.104 0.337 1.104 0.659l-0.062 0.461-0.216 0.789z" clip-rule="evenodd" fill="#fff" fill-rule="evenodd"/>
		<path d="m120.32 188.13-0.081 0.282-0.242 0.14-0.18-0.14-0.542-0.584c-0.591-0.589-1.146-0.885-1.675-0.885-0.922 0-1.809 0.631-2.659 1.889-0.625 0.94-1.095 1.965-1.389 3.065-0.158 0.535-0.234 1.001-0.22 1.387 0.04 1.037 0.487 1.54 1.347 1.512 0.35 0.014 0.783-0.095 1.292-0.323l1.187-0.563c0.565-0.281 1.102-0.598 1.61-0.94l0.281-0.124 0.22 0.124 0.082 0.199c-0.014 0.09-0.062 0.178-0.146 0.26l-0.501 0.461c-1.874 1.545-3.53 2.302-4.954 2.274-0.775-0.015-1.395-0.274-1.849-0.783-0.459-0.508-0.687-1.133-0.687-1.876 0-0.961 0.304-2.04 0.907-3.222 0.535-1.031 1.25-1.91 2.138-2.631 1.168-1.011 2.438-1.527 3.827-1.555 0.452 0 0.921 0.042 1.408 0.124 0.735 0.117 1.104 0.337 1.104 0.659l-0.061 0.461-0.217 0.789z" clip-rule="evenodd" fill="#fff" fill-rule="evenodd"/>
		<path d="m125.21 192.08c1.706-2.241 3.061-3.793 4.069-4.651 1.003-0.859 1.951-1.285 2.838-1.285 0.748 0 1.125 0.467 1.125 1.408 0 0.27-0.062 0.46-0.178 0.583l-0.604 0.605-0.384 0.261-0.159-0.18c-0.054-0.122-0.108-0.302-0.164-0.549-0.115-0.521-0.371-0.784-0.74-0.784-0.77 0-1.747 0.708-2.941 2.116v0.461c0 2.082 0.357 3.54 1.064 4.371 0.214 0.254 0.462 0.384 0.729 0.384 0.31 0 1.017-0.42 2.129-1.251 0.152-0.102 0.276-0.158 0.385-0.158l0.157 0.083c0.042 0.054 0.069 0.117 0.082 0.199v0.124c-0.055 0.228-0.507 0.673-1.36 1.346-0.851 0.666-1.57 1.004-2.163 1.004-0.722 0-1.271-0.481-1.648-1.449-0.323-0.832-0.509-1.89-0.563-3.182l-0.021-0.544c-0.324 0.392-0.556 0.693-0.707 0.909-0.44 0.604-0.922 1.414-1.45 2.432-0.426 0.845-0.674 1.299-0.742 1.353-0.131 0.117-0.309 0.18-0.522 0.18h-1.01l-0.115-0.063c-0.042-0.042-0.063-0.088-0.063-0.157 0-0.097 0.021-0.208 0.063-0.322 0.012-0.042 0.04-0.14 0.08-0.283l2.151-7.749 0.082-0.344c0.104-0.242 0.304-0.392 0.583-0.461l1.169-0.281c0.117-0.028 0.228-0.049 0.317-0.063l0.164 0.063 0.042 0.137c0 0.055-0.014 0.118-0.042 0.187-0.013 0.027-0.04 0.109-0.082 0.26l-1.571 5.29z" clip-rule="evenodd" fill="#fff" fill-rule="evenodd"/>
		<path d="m141.18 193.09-1.169 1.369c-1.064 1.112-2.097 1.684-3.105 1.71-0.577 0.014-1.071-0.212-1.492-0.688-0.336-0.386-0.506-0.905-0.521-1.566-0.014-0.563 0.076-1.099 0.262-1.614 0.591-1.717 1.49-3.14 2.7-4.267 0.51-0.495 1.121-0.921 1.835-1.265 0.563-0.296 1.147-0.501 1.751-0.604l0.963-0.063 0.885 0.124c0.214 0.05 0.332 0.165 0.344 0.337l-0.102 0.302-0.336 0.667-0.323-0.197c-0.487-0.258-0.901-0.386-1.251-0.386-0.9 0.013-1.766 0.64-2.597 1.874-0.688 1.017-1.196 1.994-1.532 2.921l-0.338 1.044c-0.096 0.338-0.144 0.66-0.144 0.969 0 0.693 0.308 1.045 0.927 1.045 0.659 0 1.381-0.475 2.178-1.43l0.963-1.251c0.377-0.508 0.805-1.166 1.272-1.97l1.324-2.297 0.523-1.011 0.184-0.294c0.076-0.098 0.235-0.146 0.462-0.146h0.729l0.22 0.021 0.158 0.084 0.081 0.095c0 0.191-0.027 0.345-0.081 0.467l-0.2 0.523-1.003 2.795-0.811 2.337-0.323 1.065-0.034 0.323c0 0.434 0.165 0.658 0.501 0.687 0.523-0.028 1.121-0.399 1.786-1.106l0.509-0.501 0.282-0.24 0.22-0.124 0.157 0.083 0.063 0.197c-0.042 0.146-0.138 0.303-0.281 0.461l-1.229 1.291c-0.847 0.889-1.684 1.32-2.517 1.307-0.975 0.042-1.462-0.474-1.448-1.552 0-0.469 0.083-1.025 0.246-1.671l0.304-1.127-0.992 1.272z" clip-rule="evenodd" fill="#fff" fill-rule="evenodd"/>
		<path d="m154.43 191.36c-0.433 0.551-0.769 0.984-1.022 1.307l-0.647 0.805c-1.436 1.8-2.618 2.699-3.56 2.699-0.467 0-0.906-0.131-1.305-0.392-0.405-0.26-0.604-0.563-0.604-0.899 0-0.186 0.048-0.329 0.144-0.439l0.599-0.688c0.054-0.056 0.108-0.096 0.164-0.138l0.158-0.063c0.165 0.03 0.31 0.338 0.447 0.929 0.13 0.563 0.384 0.847 0.763 0.847 0.722 0 1.874-1.072 3.456-3.225-0.35 0.188-0.776 0.283-1.286 0.283-0.713 0-1.271-0.206-1.682-0.626-0.406-0.412-0.612-0.935-0.612-1.546 0-1.051 0.508-1.986 1.519-2.817s2.104-1.25 3.271-1.25c1.258 0 1.89 0.439 1.89 1.313 0 0.068-8e-3 0.132-0.021 0.2 0.055-0.084 0.103-0.139 0.145-0.18 0.048-0.057 0.124-0.083 0.219-0.083 0.055 0 0.104 6e-3 0.158 0.021l0.646 0.158c0.084 0.027 0.14 0.056 0.18 0.084 0.068 0.054 0.103 0.129 0.103 0.219 0 0.11-0.028 0.232-0.082 0.386l-1.307 3.578c-0.336 0.915-0.5 1.63-0.5 2.138 0 0.563 0.198 0.845 0.598 0.845 0.31 0 0.693-0.192 1.148-0.584l1.593-1.366 0.281-0.146 0.138 0.104 0.082 0.178c0 0.124-0.508 0.682-1.532 1.671-1.017 0.997-1.882 1.49-2.589 1.49-1.093 0-1.637-0.611-1.637-1.834-3e-3 -0.669 0.223-1.667 0.684-2.979zm-3.118-0.947c0 0.749 0.328 1.127 0.987 1.127 0.667 0 1.354-0.46 2.056-1.381 0.692-0.914 1.045-1.649 1.045-2.198 0-0.646-0.378-0.969-1.129-0.969-0.659 0-1.318 0.383-1.972 1.154-0.659 0.776-0.987 1.531-0.987 2.267z" clip-rule="evenodd" fill="#fff" fill-rule="evenodd"/>
		<path d="m177 189.99c-1.292 1.328-2.501 1.993-3.642 1.993-0.461 0-0.839-0.13-1.148-0.385l-1.125 3.785c-0.098 0.323-0.331 0.481-0.709 0.481h-0.887c-0.156 0-0.281-0.015-0.363-0.042l-0.158-0.178c0-0.082 0.042-0.248 0.124-0.502l2.515-7.853c0.042-0.146 0.096-0.289 0.178-0.428 0.068-0.13 0.166-0.239 0.282-0.315 0.151-0.109 0.296-0.178 0.446-0.206l0.764-0.157c0.124-0.028 0.226-0.042 0.322-0.042l0.18 0.063c0.04 0.041 0.06 0.096 0.06 0.177 0 0.068-0.048 0.248-0.144 0.544l-0.804 2.48c-0.13 0.412-0.199 0.743-0.199 0.988 0 0.496 0.331 0.744 0.99 0.744 0.638 0 1.325-0.27 2.062-0.799 0.728-0.528 1.283-1.265 1.662-2.206l0.44-1.127c0.067-0.155 0.144-0.281 0.22-0.362 0.069-0.063 0.149-0.11 0.239-0.137l0.228-0.063h0.825c0.336 0 0.501 0.104 0.501 0.302 0 0.084-0.014 0.166-0.041 0.261l-0.063 0.221-1.766 5.517c-0.22 0.674-0.322 1.163-0.322 1.471 0 0.407 0.185 0.605 0.563 0.605 0.439 0 1.284-0.591 2.535-1.772 0.172-0.157 0.302-0.241 0.397-0.241 0.214 0 0.324 0.096 0.324 0.281 0 0.228-0.488 0.798-1.471 1.712-0.977 0.915-1.786 1.367-2.433 1.367-1.045 0-1.573-0.672-1.573-2.014 0-0.535 0.097-1.127 0.282-1.771l0.709-2.392z" clip-rule="evenodd" fill="#fff" fill-rule="evenodd"/>
		<path d="m182.63 193.21c-0.016-1.649 0.735-3.229 2.254-4.749 1.586-1.587 3.152-2.37 4.692-2.356 0.9 0.015 1.614 0.289 2.137 0.825 0.618 0.619 0.921 1.326 0.907 2.117 0 1.257-0.439 2.535-1.326 3.819-0.811 1.183-1.813 2.082-3.022 2.701-0.805 0.419-1.637 0.617-2.481 0.604-0.873 0-1.621-0.274-2.246-0.815-0.621-0.546-0.93-1.26-0.915-2.146zm2.117 0.727c0 0.27 0.054 0.523 0.158 0.763l0.227 0.344 0.302 0.2c0.118 0.069 0.262 0.096 0.42 0.083 1.648 0.013 3.057-1.596 4.211-4.83 0.296-0.832 0.439-1.554 0.439-2.159 0-0.858-0.446-1.318-1.345-1.387-1.039 0-2.083 0.947-3.142 2.837-0.857 1.518-1.285 2.898-1.27 4.149z" clip-rule="evenodd" fill="#fff" fill-rule="evenodd"/>
		<path d="m198.77 188.27c-0.42 0.185-0.729 0.283-0.928 0.283-0.468 0-0.859-0.332-1.168-0.984-0.186-0.406-0.406-0.604-0.66-0.604-0.337 0-0.687 0.323-1.051 0.969l-1.388 2.493-0.062 0.104-0.076 0.021c-0.192 0-0.302-0.082-0.344-0.24l-0.021-0.082c0-0.2 0.372-0.962 1.105-2.274 0.873-1.561 1.733-2.336 2.577-2.336 0.455 0 0.832 0.288 1.128 0.865l0.22 0.439c0.22 0.419 0.404 0.625 0.562 0.625 0.194 0 0.365-0.123 0.523-0.364l0.302-0.461c0.056-0.081 0.144-0.144 0.262-0.197 0.124-0.057 0.268-0.084 0.426-0.084h0.688c0.308 0 0.458 0.111 0.458 0.323 0 0.186-0.403 1.113-1.207 2.776-0.929 1.924-1.389 3.415-1.389 4.492 0 0.522 0.226 0.784 0.688 0.784 0.521 0 1.606-0.851 3.256-2.555l0.145-0.104 0.178 0.104 0.083 0.138c0 0.067-0.055 0.164-0.157 0.279l-1.272 1.41c-1.25 1.381-2.341 2.074-3.284 2.074-0.467 0-0.865-0.206-1.194-0.624-0.33-0.413-0.495-0.908-0.495-1.472-1e-3 -1.153 0.7-3.084 2.095-5.798z" clip-rule="evenodd" fill="#fff" fill-rule="evenodd"/>
		<path d="m206.33 190.04c-0.352 0.351-0.674 0.634-0.969 0.847-0.097 0.068-0.192 0.11-0.302 0.122l-0.22-0.06c-0.042-0.042-0.063-0.09-0.063-0.158 0-0.18 0.227-0.467 0.688-0.867 0.549-0.487 1.291-1.36 2.233-2.637 0.446-0.607 0.735-0.942 0.865-1.005 0.082-0.04 0.186-0.068 0.323-0.081l0.625-0.063h0.24c0.027 0 0.063 0.021 0.104 0.063l0.055 0.197c-0.013 0.111-0.048 0.228-0.116 0.365l-0.77 1.429c-1.141 2.132-1.712 3.965-1.712 5.497 0 1.087 0.386 1.63 1.147 1.63 0.701 0 1.34-0.385 1.917-1.148s0.867-1.479 0.867-2.131c0-0.815-0.344-1.229-1.031-1.229-0.427 0-0.86 0.267-1.284 0.805-0.083 0.087-0.159 0.155-0.222 0.197l-0.102 0.021c-0.2 0-0.304-0.131-0.304-0.386 0-0.184 0.275-0.479 0.825-0.879 0.549-0.403 1.134-0.604 1.752-0.604 0.633 0 1.16 0.206 1.588 0.625 0.432 0.412 0.646 0.928 0.646 1.524 0 1.065-0.529 2-1.587 2.819-1.064 0.816-2.179 1.229-3.346 1.229-0.805 0-1.458-0.254-1.972-0.756-0.51-0.501-0.765-1.175-0.765-2.021 3e-3 -0.856 0.299-1.969 0.89-3.345z" clip-rule="evenodd" fill="#fff" fill-rule="evenodd"/>
		<polygon points="95.233 181.82 94.44 181.82 94.44 179.91 93.567 179.91 93.567 181.82 92.775 181.82 92.775 179.29 95.233 179.29" clip-rule="evenodd" fill="#fff" fill-rule="evenodd"/>
		<polygon points="96.662 179.29 98.791 179.29 98.791 179.83 97.458 179.83 97.458 180.23 98.693 180.23 98.693 180.75 97.458 180.75 97.458 181.25 98.83 181.25 98.83 181.82 96.662 181.82" clip-rule="evenodd" fill="#fff" fill-rule="evenodd"/>
		<path d="m100.16 179.29h1.319c0.287 0 0.503 0.065 0.645 0.203 0.146 0.135 0.217 0.326 0.217 0.574 0 0.257-0.078 0.456-0.234 0.601-0.156 0.144-0.395 0.216-0.715 0.216h-0.436v0.94h-0.796v-2.534zm0.796 1.079h0.196c0.152 0 0.26-0.025 0.321-0.077 0.063-0.053 0.095-0.12 0.095-0.201 0-0.08-0.027-0.147-0.081-0.203-0.054-0.055-0.155-0.083-0.302-0.083h-0.229v0.564z" clip-rule="evenodd" fill="#fff" fill-rule="evenodd"/>
		<path d="m103.66 179.29h1.487c0.248 0 0.438 0.062 0.569 0.183 0.134 0.119 0.201 0.271 0.201 0.448 0 0.149-0.048 0.278-0.143 0.386-0.064 0.071-0.157 0.129-0.276 0.17 0.184 0.042 0.32 0.12 0.406 0.225 0.087 0.107 0.131 0.239 0.131 0.402 0 0.131-0.03 0.249-0.093 0.354-0.063 0.104-0.146 0.188-0.255 0.248-0.065 0.038-0.166 0.065-0.302 0.083-0.178 0.024-0.296 0.035-0.355 0.035h-1.371v-2.534h1e-3zm0.803 0.994h0.346c0.122 0 0.208-0.02 0.259-0.063 0.049-0.044 0.071-0.104 0.071-0.185 0-0.071-0.022-0.13-0.071-0.17-0.051-0.042-0.135-0.063-0.255-0.063h-0.35v0.481zm0 0.994h0.405c0.136 0 0.231-0.021 0.287-0.07 0.057-0.047 0.085-0.112 0.085-0.193 0-0.074-0.028-0.134-0.084-0.179-0.055-0.045-0.15-0.069-0.291-0.069h-0.402v0.511z" clip-rule="evenodd" fill="#fff" fill-rule="evenodd"/>
		<path d="m108.15 180.27h0.423c0.389 0 0.679 0.067 0.865 0.203 0.188 0.135 0.281 0.346 0.281 0.631 0 0.233-0.084 0.413-0.257 0.538-0.172 0.123-0.421 0.185-0.742 0.185h-1.364v-2.534h0.794v0.977zm0 1.011h0.404c0.25 0 0.374-0.087 0.374-0.265 0-0.157-0.124-0.234-0.374-0.234h-0.404v0.499zm1.765-1.988h0.796v2.534h-0.796v-2.534z" clip-rule="evenodd" fill="#fff" fill-rule="evenodd"/>
		<path d="m114.59 179.29v2.534h-0.746v-1.391l-0.964 1.391h-0.747v-2.534h0.747v1.402l0.969-1.402h0.741zm-0.581-0.625c-0.025 0.146-0.096 0.264-0.214 0.353-0.116 0.09-0.257 0.135-0.42 0.135-0.161 0-0.301-0.045-0.419-0.135-0.118-0.089-0.188-0.207-0.211-0.353h0.304c0.051 0.146 0.155 0.219 0.318 0.219 0.177 0 0.289-0.073 0.337-0.219h0.305z" clip-rule="evenodd" fill="#fff" fill-rule="evenodd"/>
		<path d="m117.22 179.29h1.32c0.287 0 0.503 0.065 0.646 0.203 0.142 0.135 0.215 0.326 0.215 0.574 0 0.257-0.077 0.456-0.232 0.601-0.157 0.144-0.396 0.216-0.717 0.216h-0.434v0.94h-0.798v-2.534zm0.798 1.079h0.194c0.152 0 0.261-0.025 0.323-0.077 0.062-0.053 0.091-0.12 0.091-0.201 0-0.08-0.025-0.147-0.079-0.203-0.054-0.055-0.153-0.083-0.303-0.083h-0.227v0.564h1e-3z" clip-rule="evenodd" fill="#fff" fill-rule="evenodd"/>
		<path d="m120.62 180.56c0-0.414 0.118-0.736 0.352-0.968 0.234-0.23 0.56-0.345 0.977-0.345 0.428 0 0.758 0.113 0.988 0.339 0.232 0.228 0.348 0.544 0.348 0.952 0 0.298-0.051 0.54-0.152 0.729-0.102 0.189-0.247 0.338-0.438 0.442-0.191 0.105-0.43 0.158-0.714 0.158-0.29 0-0.53-0.045-0.72-0.136-0.19-0.092-0.345-0.235-0.461-0.433-0.12-0.196-0.18-0.442-0.18-0.738zm0.796 3e-3c0 0.255 0.048 0.438 0.145 0.552 0.096 0.11 0.228 0.167 0.392 0.167 0.172 0 0.304-0.054 0.397-0.164 0.093-0.108 0.141-0.306 0.141-0.59 0-0.239-0.051-0.412-0.146-0.522-0.099-0.111-0.229-0.165-0.397-0.165-0.16 0-0.287 0.057-0.386 0.168-0.098 0.11-0.146 0.295-0.146 0.554z" clip-rule="evenodd" fill="#fff" fill-rule="evenodd"/>
		<path d="m126.32 180.79 0.697 0.209c-0.045 0.191-0.12 0.353-0.22 0.481-0.102 0.129-0.227 0.228-0.376 0.292-0.149 0.066-0.338 0.099-0.567 0.099-0.28 0-0.507-0.041-0.685-0.12-0.177-0.079-0.331-0.221-0.459-0.423-0.129-0.202-0.193-0.459-0.193-0.774 0-0.419 0.114-0.741 0.34-0.966 0.227-0.228 0.547-0.339 0.959-0.339 0.325 0 0.579 0.063 0.765 0.194 0.185 0.128 0.321 0.327 0.411 0.593l-0.701 0.155c-0.024-0.077-0.05-0.134-0.076-0.17-0.045-0.06-0.098-0.104-0.162-0.138s-0.138-0.049-0.217-0.049c-0.179 0-0.316 0.07-0.414 0.214-0.071 0.107-0.107 0.273-0.107 0.499 0 0.281 0.043 0.476 0.129 0.58 0.088 0.104 0.209 0.155 0.364 0.155 0.152 0 0.268-0.042 0.344-0.126 0.078-0.082 0.134-0.205 0.168-0.366z" clip-rule="evenodd" fill="#fff" fill-rule="evenodd"/>
		<path d="m130.02 180.79 0.695 0.209c-0.048 0.191-0.12 0.353-0.22 0.481-0.102 0.129-0.228 0.228-0.376 0.292-0.149 0.066-0.339 0.099-0.567 0.099-0.28 0-0.509-0.041-0.685-0.12-0.179-0.079-0.331-0.221-0.459-0.423-0.129-0.202-0.193-0.459-0.193-0.774 0-0.419 0.114-0.741 0.34-0.966 0.226-0.228 0.545-0.339 0.958-0.339 0.324 0 0.58 0.063 0.766 0.194 0.184 0.128 0.322 0.327 0.411 0.593l-0.7 0.155c-0.025-0.077-0.051-0.134-0.079-0.17-0.043-0.06-0.099-0.104-0.161-0.138-0.064-0.033-0.138-0.049-0.216-0.049-0.181 0-0.319 0.07-0.414 0.214-0.073 0.107-0.108 0.273-0.108 0.499 0 0.281 0.043 0.476 0.13 0.58 0.088 0.104 0.208 0.155 0.363 0.155 0.152 0 0.268-0.042 0.345-0.126 0.077-0.082 0.136-0.205 0.17-0.366z" clip-rule="evenodd" fill="#fff" fill-rule="evenodd"/>
		<polygon points="134.46 179.29 134.46 181.82 133.71 181.82 133.71 180.43 132.75 181.82 132 181.82 132 179.29 132.75 179.29 132.75 180.69 133.72 179.29" clip-rule="evenodd" fill="#fff" fill-rule="evenodd"/>
		<path d="m138.35 179.29v2.534h-0.747v-1.391l-0.961 1.391h-0.749v-2.534h0.749v1.402l0.967-1.402h0.741zm-0.581-0.625c-0.025 0.146-0.097 0.264-0.214 0.353-0.118 0.09-0.259 0.135-0.419 0.135-0.162 0-0.302-0.045-0.42-0.135-0.118-0.089-0.189-0.207-0.212-0.353h0.307c0.048 0.146 0.153 0.219 0.316 0.219 0.177 0 0.287-0.073 0.335-0.219h0.307z" clip-rule="evenodd" fill="#fff" fill-rule="evenodd"/>
		<path d="m141.5 180.79 0.696 0.209c-0.048 0.191-0.119 0.353-0.222 0.481-0.102 0.129-0.226 0.228-0.375 0.292-0.149 0.066-0.338 0.099-0.566 0.099-0.281 0-0.508-0.041-0.687-0.12-0.176-0.079-0.33-0.221-0.458-0.423s-0.193-0.459-0.193-0.774c0-0.419 0.113-0.741 0.34-0.966 0.226-0.228 0.547-0.339 0.959-0.339 0.323 0 0.579 0.063 0.765 0.194 0.185 0.128 0.322 0.327 0.412 0.593l-0.701 0.155c-0.023-0.077-0.051-0.134-0.078-0.17-0.044-0.06-0.099-0.104-0.161-0.138-0.064-0.033-0.138-0.049-0.217-0.049-0.179 0-0.318 0.07-0.412 0.214-0.073 0.107-0.109 0.273-0.109 0.499 0 0.281 0.043 0.476 0.129 0.58 0.088 0.104 0.209 0.155 0.364 0.155 0.152 0 0.268-0.042 0.346-0.126 0.075-0.082 0.132-0.205 0.168-0.366z" clip-rule="evenodd" fill="#fff" fill-rule="evenodd"/>
		<path d="m145.82 181.82h-0.895l-0.308-0.655c-0.073-0.154-0.132-0.25-0.172-0.288-0.04-0.041-0.097-0.059-0.169-0.059v1.002h-0.794v-2.534h0.794v0.975c0.069-5e-3 0.121-0.028 0.16-0.075 0.039-0.044 0.099-0.173 0.181-0.385 0.06-0.159 0.12-0.272 0.181-0.341s0.159-0.117 0.296-0.148c0.137-0.03 0.351-0.045 0.644-0.045v0.537h-0.041c-0.136 0-0.236 0.025-0.302 0.076-0.065 0.049-0.118 0.131-0.16 0.246-0.043 0.114-0.088 0.197-0.136 0.253-0.049 0.057-0.116 0.102-0.199 0.135 0.114 0.037 0.214 0.1 0.301 0.189 0.084 0.093 0.175 0.233 0.271 0.425l0.348 0.692z" clip-rule="evenodd" fill="#fff" fill-rule="evenodd"/>
		<polygon points="149.46 179.29 149.46 181.82 148.72 181.82 148.72 180.43 147.76 181.82 147.01 181.82 147.01 179.29 147.76 179.29 147.76 180.69 148.72 179.29" clip-rule="evenodd" fill="#fff" fill-rule="evenodd"/>
		<path d="m153.36 179.29v2.534h-0.746v-1.391l-0.963 1.391h-0.749v-2.534h0.749v1.402l0.967-1.402h0.742zm-0.582-0.625c-0.025 0.146-0.096 0.264-0.214 0.353-0.118 0.09-0.257 0.135-0.418 0.135-0.163 0-0.303-0.045-0.421-0.135-0.117-0.089-0.188-0.207-0.21-0.353h0.303c0.051 0.146 0.156 0.219 0.318 0.219 0.177 0 0.289-0.073 0.337-0.219h0.305z" clip-rule="evenodd" fill="#fff" fill-rule="evenodd"/>
		<path d="m155.89 179.88c0.214-0.426 0.608-0.638 1.186-0.638 0.429 0 0.759 0.111 0.989 0.339 0.23 0.226 0.347 0.544 0.347 0.954 0 0.427-0.115 0.756-0.344 0.983-0.228 0.23-0.547 0.344-0.96 0.344-0.37 0-0.656-0.071-0.856-0.217-0.2-0.145-0.339-0.332-0.418-0.563l0.745-0.197c0.073 0.26 0.239 0.389 0.501 0.389 0.304 0 0.478-0.16 0.521-0.484h-0.776v-0.47h0.779c-0.051-0.327-0.226-0.49-0.527-0.49-0.235 0-0.392 0.107-0.47 0.317l-0.717-0.267z" clip-rule="evenodd" fill="#fff" fill-rule="evenodd"/>
		<path d="m159.75 179.29h1.318c0.287 0 0.502 0.065 0.646 0.203 0.142 0.135 0.215 0.326 0.215 0.574 0 0.257-0.077 0.456-0.234 0.601-0.157 0.144-0.395 0.216-0.715 0.216h-0.434v0.94h-0.796v-2.534zm0.796 1.079h0.194c0.153 0 0.261-0.025 0.322-0.077 0.063-0.053 0.093-0.12 0.093-0.201 0-0.08-0.026-0.147-0.08-0.203-0.054-0.055-0.155-0.083-0.303-0.083h-0.227v0.564h1e-3z" clip-rule="evenodd" fill="#fff" fill-rule="evenodd"/>
		<path d="m163.14 180.56c0-0.414 0.116-0.736 0.35-0.968 0.233-0.23 0.56-0.345 0.977-0.345 0.428 0 0.756 0.113 0.989 0.339 0.23 0.228 0.347 0.544 0.347 0.952 0 0.298-0.051 0.54-0.152 0.729-0.1 0.189-0.246 0.338-0.438 0.442-0.191 0.105-0.43 0.158-0.715 0.158-0.288 0-0.529-0.045-0.719-0.136-0.19-0.092-0.344-0.235-0.462-0.433s-0.177-0.442-0.177-0.738zm0.794 3e-3c0 0.255 0.048 0.438 0.145 0.552 0.096 0.11 0.228 0.167 0.394 0.167 0.169 0 0.302-0.054 0.396-0.164 0.092-0.108 0.141-0.306 0.141-0.59 0-0.239-0.052-0.412-0.148-0.522-0.096-0.111-0.229-0.165-0.396-0.165-0.16 0-0.288 0.057-0.386 0.168-0.098 0.11-0.146 0.295-0.146 0.554z" clip-rule="evenodd" fill="#fff" fill-rule="evenodd"/>
		<polygon points="166.95 179.29 169.37 179.29 169.37 179.92 168.56 179.92 168.56 181.82 167.76 181.82 167.76 179.92 166.95 179.92" clip-rule="evenodd" fill="#fff" fill-rule="evenodd"/>
		<polygon points="173.09 179.29 173.09 181.82 172.34 181.82 172.34 180.43 171.38 181.82 170.63 181.82 170.63 179.29 171.38 179.29 171.38 180.69 172.35 179.29" clip-rule="evenodd" fill="#fff" fill-rule="evenodd"/>
		<path d="m176.88 181.82h-0.795v-0.942c-0.244 0.133-0.473 0.199-0.692 0.199-0.262 0-0.478-0.076-0.646-0.229-0.17-0.154-0.254-0.363-0.254-0.63v-0.933h0.794v0.777c0 0.124 0.028 0.218 0.088 0.285 0.061 0.067 0.146 0.102 0.259 0.102 0.208 0 0.359-0.061 0.452-0.184v-0.98h0.795v2.535h-1e-3z" clip-rule="evenodd" fill="#fff" fill-rule="evenodd"/>
		<polygon points="178.31 179.29 180.44 179.29 180.44 179.83 179.11 179.83 179.11 180.23 180.34 180.23 180.34 180.75 179.11 180.75 179.11 181.25 180.48 181.25 180.48 181.82 178.31 181.82" clip-rule="evenodd" fill="#fff" fill-rule="evenodd"/>
		<path d="m183.52 180.79 0.695 0.209c-0.047 0.191-0.12 0.353-0.22 0.481-0.101 0.129-0.226 0.228-0.375 0.292-0.148 0.066-0.338 0.099-0.568 0.099-0.278 0-0.507-0.041-0.685-0.12-0.177-0.079-0.329-0.221-0.459-0.423-0.127-0.202-0.193-0.459-0.193-0.774 0-0.419 0.114-0.741 0.341-0.966 0.226-0.228 0.546-0.339 0.96-0.339 0.323 0 0.577 0.063 0.763 0.194 0.186 0.128 0.322 0.327 0.412 0.593l-0.701 0.155c-0.023-0.077-0.051-0.134-0.076-0.17-0.045-0.06-0.099-0.104-0.163-0.138-0.065-0.033-0.136-0.049-0.217-0.049-0.179 0-0.316 0.07-0.412 0.214-0.071 0.107-0.109 0.273-0.109 0.499 0 0.281 0.044 0.476 0.13 0.58 0.087 0.104 0.208 0.155 0.365 0.155 0.15 0 0.266-0.042 0.344-0.126 0.077-0.082 0.132-0.205 0.168-0.366z" clip-rule="evenodd" fill="#fff" fill-rule="evenodd"/>
		<path d="m187.84 181.82h-0.894l-0.309-0.655c-0.073-0.154-0.13-0.25-0.172-0.288-0.042-0.041-0.097-0.059-0.17-0.059v1.002h-0.791v-2.534h0.791v0.975c0.068-5e-3 0.124-0.028 0.161-0.075 0.039-0.044 0.099-0.173 0.181-0.385 0.06-0.159 0.12-0.272 0.181-0.341 0.062-0.069 0.159-0.117 0.296-0.148 0.137-0.03 0.352-0.045 0.644-0.045v0.537h-0.041c-0.136 0-0.234 0.025-0.3 0.076-0.067 0.049-0.12 0.131-0.163 0.246-0.04 0.114-0.087 0.197-0.135 0.253-0.049 0.057-0.115 0.102-0.199 0.135 0.115 0.037 0.214 0.1 0.3 0.189 0.085 0.093 0.176 0.233 0.271 0.425l0.349 0.692z" clip-rule="evenodd" fill="#fff" fill-rule="evenodd"/>
		<polygon points="191.48 179.29 191.48 181.82 190.74 181.82 190.74 180.43 189.78 181.82 189.03 181.82 189.03 179.29 189.78 179.29 189.78 180.69 190.74 179.29" clip-rule="evenodd" fill="#fff" fill-rule="evenodd"/>
		<path d="m195.38 179.29v2.534h-0.748v-1.391l-0.961 1.391h-0.747v-2.534h0.747v1.402l0.967-1.402h0.742zm-0.582-0.625c-0.025 0.146-0.097 0.264-0.214 0.353-0.116 0.09-0.257 0.135-0.42 0.135-0.16 0-0.301-0.045-0.419-0.135-0.116-0.089-0.187-0.207-0.212-0.353h0.307c0.048 0.146 0.154 0.219 0.318 0.219 0.177 0 0.285-0.073 0.335-0.219h0.305z" clip-rule="evenodd" fill="#fff" fill-rule="evenodd"/>
		<path d="m200.34 181.82h-0.894l-0.31-0.655c-0.073-0.154-0.13-0.25-0.17-0.288-0.042-0.041-0.099-0.059-0.171-0.059v1.002h-0.794v-2.534h0.794v0.975c0.068-5e-3 0.123-0.028 0.161-0.075 0.039-0.044 0.099-0.173 0.18-0.385 0.062-0.159 0.12-0.272 0.183-0.341 0.06-0.069 0.158-0.117 0.294-0.148 0.138-0.03 0.352-0.045 0.645-0.045v0.537h-0.04c-0.136 0-0.238 0.025-0.302 0.076-0.066 0.049-0.12 0.131-0.162 0.246-0.042 0.114-0.087 0.197-0.136 0.253-0.048 0.057-0.115 0.102-0.199 0.135 0.114 0.037 0.214 0.1 0.301 0.189 0.085 0.093 0.177 0.233 0.271 0.425l0.349 0.692z" clip-rule="evenodd" fill="#fff" fill-rule="evenodd"/>
		<path d="m203.11 181.41h-0.904l-0.124 0.417h-0.813l0.966-2.534h0.866l0.966 2.534h-0.83l-0.127-0.417zm-0.166-0.551-0.284-0.91-0.282 0.91h0.566z" clip-rule="evenodd" fill="#fff" fill-rule="evenodd"/>
		<polygon points="205.23 179.29 206.02 179.29 206.02 180.18 206.89 180.18 206.89 179.29 207.69 179.29 207.69 181.82 206.89 181.82 206.89 180.8 206.02 180.8 206.02 181.82 205.23 181.82" clip-rule="evenodd" fill="#fff" fill-rule="evenodd"/>
		<path d="m210.7 181.41h-0.904l-0.126 0.417h-0.81l0.966-2.534h0.863l0.968 2.534h-0.831l-0.126-0.417zm-0.167-0.551-0.284-0.91-0.283 0.91h0.567z" clip-rule="evenodd" fill="#fff" fill-rule="evenodd"/>
		<path d="m215.17 181.82h-0.794v-1.912h-0.62v0.78c0 0.319-0.017 0.556-0.053 0.705-0.034 0.149-0.115 0.261-0.241 0.332-0.127 0.07-0.333 0.106-0.615 0.106-0.085 0-0.186-0.011-0.298-0.028v-0.515h0.12c0.107 0 0.184-0.023 0.227-0.07 0.045-0.046 0.067-0.133 0.067-0.256v-1.677h2.207v2.535z" clip-rule="evenodd" fill="#fff" fill-rule="evenodd"/>
		<polygon points="37.266 37.266 246.2 37.266 246.2 246.2 37.266 246.2" fill="none" stroke="#fff" stroke-miterlimit="2.6131" stroke-width="1.0001"/>
</g>
</svg>
