<?xml version="1.0" encoding="UTF-8"?>
<svg id="svg2" width="1210.4" height="229.85" version="1.2" viewBox="0 0 1134.8 215.49" xmlns="http://www.w3.org/2000/svg" xmlns:cc="http://creativecommons.org/ns#" xmlns:dc="http://purl.org/dc/elements/1.1/" xmlns:rdf="http://www.w3.org/1999/02/22-rdf-syntax-ns#" xmlns:xlink="http://www.w3.org/1999/xlink">
 <link id="dark-mode" href="" rel="stylesheet" type="text/css"/>
 <style id="dark-mode-custom-style" type="text/css"/>
 <metadata id="metadata168">
  <rdf:RDF>
   <cc:Work rdf:about="">
    <dc:format>image/svg+xml</dc:format>
    <dc:type rdf:resource="http://purl.org/dc/dcmitype/StillImage"/>
    <dc:title/>
   </cc:Work>
  </rdf:RDF>
 </metadata>
 <desc id="desc4">Created by EvoPdf</desc>
 <defs id="defs6">
  <linearGradient id="linearGradient3769" x1="609.99" x2="609.99" y1="8.8893" y2="86.089" gradientTransform="translate(-60)" gradientUnits="userSpaceOnUse">
   <stop id="stop3765" stop-color="#c40000" offset="0"/>
   <stop id="stop3767" stop-color="#fff" offset="1"/>
  </linearGradient>
  <linearGradient id="linearGradient3773" x1="609.99" x2="609.99" y1="8.8893" y2="86.089" gradientTransform="matrix(3.2215 0 0 1 -1775 0)" gradientUnits="userSpaceOnUse">
   <stop id="stop3777" stop-color="#003db9" offset="0"/>
   <stop id="stop3779" stop-color="#fff" offset="1"/>
  </linearGradient>
 </defs>
 <g id="g4517" transform="matrix(1.4759 0 0 1.4759 -1.6589 -.00021232)">
  <g id="g3781">
   <rect id="rect2989" width="480" height="146" fill="#003cb8"/>
   <rect id="rect2991" x="491" width="149" height="146" fill="#c40000"/>
   <rect id="rect2993" x="491" width="149" height="79" fill="url(#linearGradient3769)"/>
   <rect id="rect3771" width="480" height="79" fill="url(#linearGradient3773)"/>
  </g>
  <path id="rect3787" d="m582.75 48.844c-9.1667 4.5729-18.333 9.1458-27.5 13.719v67.281h27.5v-81z" fill="#fff"/>
  <path id="rect3789" d="m582.75 13.188c-18.333 9.1354-36.667 18.271-55 27.406v30.688c18.333-9.1354 36.667-18.271 55-27.406v-30.688z" fill="#fff"/>
  <path id="path3914" d="m405.44 34.938c-13.841 0-25.25 9.9405-25.25 23.781 0 9.5155 5.382 17.888 13.25 22.188l-14.375 30.75h18.344l12.156-27.688h6.875v27.688h16.5v-76.719zm0 14.156h11v19.844h-11c-4.9235 0-8.75-4.3535-8.75-9.9375s3.8265-9.9062 8.75-9.9062z" fill="#fff"/>
  <path id="rect3804" d="m354.25 34.938-27.875 44.75v-44.75h-16.5v76.719h14.312l27.594-44.312v44.312h16.5v-76.719z" fill="#fff"/>
  <path id="path3845" d="m73.963 49.09h-11v19.848h11c4.9235 0 8.75-4.3399 8.75-9.9239s-3.8265-9.9239-8.75-9.9239zm0-14.152c13.841 0 25.25 9.9419 25.25 23.783 0 13.841-11.409 25.25-25.25 25.25h-11v27.686h-16.5v-76.719z" fill="#fff"/>
  <path id="path3865" d="m152.31 73.344c0-4.71-0.50879-8.9267-0.625-12.234-0.26782-7.6229-6.1068-13.766-13.656-13.766s-13.424 6.1426-13.688 13.766c-0.11416 3.3078-0.625 7.5244-0.625 12.234s0.50879 8.958 0.625 12.266c0.26782 7.6229 6.138 13.766 13.688 13.766s13.388-6.1427 13.656-13.766c0.11621-3.3077 0.625-7.5556 0.625-12.266zm-14.312 40.531c-17.009 0-30.781-13.803-30.781-30.812v-19.438c0-17.009 13.772-30.781 30.781-30.781s30.812 13.772 30.812 30.781v19.438c0 17.009-13.803 30.812-30.812 30.812z" fill="#fff"/>
  <path id="path3888" d="m210.84 32.844c-17.009 0-30.912 11.159-30.781 30.781 0.0431 6.479 0 19.438 0 19.438 0 20.145 13.772 30.812 30.781 30.812 7.2728 0 15.629-1.3902 22.719-4.2812l-3.625-14.312c-6.8405 2.5599-15.035 4.0938-19.062 4.0938-7.5495 0-13.42-6.1271-13.688-13.75-0.11621-3.3077-0.625-7.5713-0.625-12.281s0.51084-8.911 0.625-12.219c0.2631-7.623 6.138-13.781 13.688-13.781 4.3326 0 12.833 1.2715 19.344 3.7812l3.5-13.781c-6.5736-3.1848-14.813-4.5-22.875-4.5z" fill="#fff"/>
  <path id="path3890" d="m274.98 32.844c-17.009 0-30.912 11.159-30.781 30.781 0.0431 6.479 0 19.437 0 19.437 0 20.145 13.772 30.812 30.781 30.812 7.2728 0 15.629-1.3902 22.719-4.2812l-3.625-14.312c-6.8405 2.5599-15.035 4.0938-19.062 4.0938-7.5495 0-13.42-6.1271-13.688-13.75-0.11621-3.3077-0.625-7.5713-0.625-12.281 0-4.71 0.51084-8.911 0.625-12.219 0.2631-7.623 6.138-13.781 13.688-13.781 4.3326 0 12.833 1.2715 19.344 3.7812l3.5-13.781c-6.5736-3.1848-14.813-4.5-22.875-4.5z" fill="#fff"/>
 </g>
 <g id="g116" transform="matrix(.99996 0 0 .99996 .0003054 -1.9971)" fill="#a7a9ac" fill-rule="evenodd" stroke-linecap="square" stroke-linejoin="bevel">
  <path id="path118" d="m952.51 111.49v-106.74h23.211v42.791h32.842v-42.791h23.21v106.74h-23.21v-44.686h-32.842v44.686h-23.211" fill-rule="nonzero"/>
 </g>
 <g id="g124" transform="matrix(.99996 0 0 .99996 .0003061 .0027368)" fill="#a7a9ac" fill-rule="evenodd" stroke-linecap="square" stroke-linejoin="bevel">
  <path id="path126" d="m1094.4 109.49h-40.42v-99.478c16.53-6.2108 30-9.3162 40.42-9.3162 11.48 0 21.06 3.6317 28.74 10.895 7.79 7.1582 11.69 17.053 11.69 29.685v28.738c0 12.843-3.58 22.632-10.74 29.37-7.05 6.7367-16.95 10.106-29.69 10.106m17.21-41.212v-25.106c0-7.5793-1.52-13.264-4.57-17.053-3.06-3.7897-7.27-5.6845-12.64-5.6845-5.58 0-11.31 1.0001-17.21 3.0002v66.318h17.21c6.21 0 10.64-1.579 13.27-4.7371 2.63-3.158 3.94-8.7372 3.94-16.738" fill-rule="nonzero"/>
 </g>
</svg>
