<?xml version="1.0" encoding="UTF-8"?>
<!-- Created with Inkscape (http://www.inkscape.org/) -->
<svg id="svg5117" width="47.958mm" height="18.751mm" version="1.1" viewBox="0 0 47.958 18.751" xmlns="http://www.w3.org/2000/svg" xmlns:cc="http://creativecommons.org/ns#" xmlns:dc="http://purl.org/dc/elements/1.1/" xmlns:rdf="http://www.w3.org/1999/02/22-rdf-syntax-ns#">
 <defs id="defs5111">
  <clipPath id="clipPath504">
   <path id="path502" d="m219.38 453.51h219.24v117.13h-219.24z"/>
  </clipPath>
 </defs>
 <metadata id="metadata5114">
  <rdf:RDF>
   <cc:Work rdf:about="">
    <dc:format>image/svg+xml</dc:format>
    <dc:type rdf:resource="http://purl.org/dc/dcmitype/StillImage"/>
    <dc:title/>
   </cc:Work>
  </rdf:RDF>
 </metadata>
 <g id="layer1" transform="translate(-60.688 -113.76)">
  <g id="g498" transform="matrix(.35278 0 0 -.35278 -30.39 303.81)">
   <g id="g500" clip-path="url(#clipPath504)">
    <g id="g506" transform="translate(394.12 512.58)">
     <path id="path508" d="m0 0c0-13.601-4.098-19.79-26.835-23.684-6.557-1.123-19.762-1.034-39.624-2.427-63.901-4.482-66.947 9-69.063 24.117-3.681 26.298 16.924 34.141 52.28 23.684 15.728-4.651 38.478 1.868 52.919 1.868 24.609 0 30.323-13.569 30.323-23.558" fill="#f25a19"/>
    </g>
    <g id="g510" transform="translate(270.31 517.36)">
     <path id="path512" d="m0 0c0.639-6.15 1.455-12.608 4.196-18.237 0.666-1.367 2.413-2.782 3.99-2.625 4.234 0.422 1.969 6.762 1.663 9.161-0.178 1.391 0.079 2.937 0.705 4.189 1.19 2.381 4.27 3.121 6.087 4.937 2.451 2.451 2.497 6.02 1.639 8.682-0.449 1.396-1.504 3.032-2.692 3.923-2.41 1.806-5.364 1.987-8.257 1.595-2.087-0.283-8.312-2.18-7.331-11.625" fill="#fff"/>
    </g>
    <g id="g514" transform="translate(317.28 523.07)">
     <path id="path516" d="m0 0c-4.091-1.193-0.843-6.876 0.128-8.403 1.367-2.15 3.32-4.273 2.405-6.929-0.851-2.473-1.78-3.675-3.74-5.199-4.219-3.281-1.255-6.848 0.864-5.813 3.539 1.73 4.836 8.175 6.812 7.641 2.167-0.585 0.015-8.013 4.016-7.86 3.008 0.115 1.468 8.032 3.185 8.194 1.769 0.166 2.75-3.555 3.273-4.826 1.283-3.125 3.555-2.733 4.269-2.231 3.948 2.789-1.042 6.694-2.319 8.379-1.423 1.876-2.904 4.98-0.098 8.176 4.81 5.479 4.093 8.295 2.697 9.059-2.921 1.597-4.781-1.818-6.448-6.593-0.292-0.838-0.792-2.456-2.065-1.922-0.775 0.425-0.069 4.151-0.033 5.771 0.084 3.757-1.796 4.353-2.921 4.334-1.009-0.018-2.821-1.446-2.007-5.538 0.256-1.284 0.468-4.587-0.781-5.136-1.893-0.834-2.873 2.122-3.158 3.373-0.445 1.966-0.617 4.781-2.976 5.459-0.402 0.116-0.777 0.159-1.103 0.064" fill="#fff"/>
    </g>
    <g id="g518" transform="translate(346.31 519.31)">
     <path id="path520" d="m0 0c-4.174 0.983-4.379-7.693-3.98-13.47 0.191-2.76 1.546-5.99 3.951-5.872 2.143 0.104 5.635 7.031 7.448 7.002 2.177-0.037 0.16-5.32 2.951-6.185 2.777-0.86 3.19 3.913 3.478 6.322 0.502 4.185 1.069 16.594-5.242 10.097-2.186-2.251-7.412-9.19-6.903-3.824 0.142 1.488 0.703 4.986-1.703 5.93" fill="#fff"/>
    </g>
    <g id="g522" transform="translate(368.05 520.08)">
     <path id="path524" d="m0 0c-4.13 0.822-4.579-8.487-4.099-13.921 0.229-2.595 0.656-6.461 3.02-6.224 2.881 0.289 6.689 7.341 8.478 7.359 2.146 0.02-0.27-7.146 3.049-7.326 1.91-0.103 2.385 2.41 2.641 3.805 0.595 3.241 0.838 6.806 0.672 10.101-0.069 1.382-0.064 4.836-1.93 5.143-1.043 0.172-2.539-0.838-3.271-1.483-1.291-1.139-6.861-7.716-7.024-3.635-0.033 0.822 0.851 5.352-1.536 6.181" fill="#fff"/>
    </g>
    <g id="g526" transform="translate(370.01 526.68)">
     <path id="path528" d="m0 0c-2.721-3.241 2.39-6.12 5.846-4.744 1.531 0.61 3.469 3.056 2.259 4.586-1.145 1.447-2.917-0.572-4.228-0.456-1.327 0.117-2.099 1.737-3.877 0.614" fill="#fff"/>
    </g>
    <g id="g530" transform="translate(292.61 501.28)">
     <path id="path532" d="m0 0c-0.028 0.028-0.057 0.058-0.085 0.087-1.064 1.113-1.224 2.715-1.301 4.171-0.096 1.774-0.072 3.562 0.041 5.334 0.073 1.15 0.189 2.297 0.3 3.444 0.113 1.169 0.381 2.304 0.897 3.363 0.377 0.771 0.879 1.613 1.757 1.864 0.799 0.229 1.667-0.098 2.18-0.737 1.743-2.169 0.38-4.701 2.06-6.382 0.901-0.9 2.125-1.419 3.11-2.217 1.668-1.348 2.497-3.45 2.098-5.576-0.575-3.065-3.89-4.311-6.69-4.417-1.406-0.054-3.291 0.012-4.367 1.066" fill="#fff"/>
    </g>
    <g id="g534" transform="translate(309.27 519.57)">
     <path id="path536" d="m0 0c-4.101 0.432-4.078-7.811-3.997-10.932 0.054-2.062 0.369-4.283 1.077-6.2 0.315-0.855 0.852-2.09 1.715-2.29 3.051-0.708 3.828 7.478 3.88 9.735 0.048 2.137 0.195 9.386-2.675 9.687" fill="#fff"/>
    </g>
    <g id="g538" transform="translate(282.4 520.3)">
     <path id="path540" d="m0 0c0-1.237-1.003-2.241-2.241-2.241-1.237 0-2.24 1.004-2.24 2.241 0 1.238 1.003 2.241 2.24 2.241 1.238 0 2.241-1.003 2.241-2.241" fill="#f25a19"/>
    </g>
    <g id="g542" transform="translate(299.58 505.73)">
     <path id="path544" d="m0 0c0-0.862-0.699-1.561-1.561-1.561-0.861 0-1.561 0.699-1.561 1.561s0.7 1.561 1.561 1.561c0.862 0 1.561-0.699 1.561-1.561" fill="#f25a19"/>
    </g>
   </g>
  </g>
 </g>
</svg>
