<svg id="a" version="1.1" viewBox="0 0 800 312.79" xml:space="preserve" xmlns="http://www.w3.org/2000/svg">
<path id="b" d="m800 153.88c0 80.099-24.063 116.52-157.89 139.43-38.566 6.5925-116.36 6.098-233.21 14.339-375.94 26.37-393.9-52.905-406.43-141.9-21.59-154.76 99.547-200.91 307.7-139.43 92.624 27.359 226.45-11.042 311.33-11.042 144.87 0 178.49 79.769 178.49 138.61z" fill="#ff6d00" stroke-width="1.6481"/>
<path id="c" d="m127.22 56.309c-4.2542 0.051504-8.5508 0.41339-12.836 0.99023-12.031 1.6481-48.784 12.855-43.016 68.396 3.7907 36.259 8.5711 74.166 24.723 107.29 3.9555 8.0758 14.173 16.316 23.402 15.492 24.887-2.4722 11.538-39.721 9.7246-53.895-0.98887-8.2406 0.49523-17.304 4.1211-24.721 6.9221-14.009 25.051-18.295 35.764-29.008 14.503-14.503 14.667-35.435 9.7227-51.092-2.637-8.2406-8.8982-17.8-15.82-23.074-10.63-7.911-23.023-10.537-35.785-10.383zm2.1621 38.896a13.185 13.185 0 0 1 13.186 13.186 13.185 13.185 0 0 1-13.186 13.184 13.185 13.185 0 0 1-13.184-13.184 13.185 13.185 0 0 1 13.184-13.186z" fill="#fff" stroke-width="1.6481"/>
<path id="d" d="m347.76 92.073c-24.063 7.0869-4.9444 40.544 0.82406 49.444 8.0758 12.691 19.613 25.216 14.174 40.709-4.9444 14.503-10.548 21.59-22.085 30.655-24.887 19.283-7.4166 40.214 5.1092 34.281 20.766-10.218 28.512-48.125 40.049-44.994 12.691 3.4611 0.16481 47.136 23.568 46.312 17.635-0.65925 8.5702-47.301 18.789-48.29 10.383-0.98887 16.152 20.931 19.283 28.348 7.5814 18.459 20.931 16.152 25.051 13.185 23.239-16.481-6.098-39.39-13.679-49.279-8.4054-11.042-17.14-29.337-0.65925-48.125 28.348-32.303 24.063-48.784 15.822-53.234-17.14-9.3943-28.183 10.713-37.907 38.731-1.6481 4.9444-4.6147 14.503-12.196 11.372-4.6147-2.4722-0.32963-24.392-0.16481-33.951 0.49443-22.085-10.548-25.546-17.14-25.546-5.9332 0.16481-16.646 8.5702-11.866 32.633 1.4833 7.5814 2.8018 27.029-4.6147 30.161-11.207 4.9444-16.976-12.526-18.624-19.777-2.637-11.537-3.6259-28.183-17.47-32.138-2.1426-0.82406-4.2851-0.98887-6.2629-0.49444z" fill="#fff" stroke-width="1.6481"/>
<path id="e" d="m518.67 114.32c-24.557-5.7684-25.711 45.323-23.403 79.275 1.1537 16.316 9.0647 35.27 23.239 34.611 12.691-0.65925 33.127-41.368 43.84-41.203 12.855 0.16481 0.98887 31.314 17.305 36.423 16.316 5.1092 18.789-23.074 20.437-37.248 2.9666-24.557 6.2629-97.569-30.82-59.497-12.855 13.185-43.675 54.058-40.544 22.579 0.82406-8.8998 4.1203-29.501-10.054-34.94z" fill="#fff" stroke-width="1.6481"/>
<path id="f" d="m646.56 109.71c-24.227-4.7796-26.864 49.938-24.063 81.912 1.3185 15.328 3.7907 38.072 17.8 36.588 16.976-1.6481 39.39-43.181 49.938-43.346 12.691-0.16481-1.6481 42.027 17.965 43.181 11.207 0.65925 14.009-14.174 15.492-22.414 3.461-19.118 4.9444-40.049 3.9555-59.497-0.32962-8.0758-0.32962-28.512-11.372-30.325-6.098-0.98887-14.998 4.9444-19.283 8.735-7.5814 6.7573-40.379 45.488-41.368 21.426-0.16481-4.6147 4.9444-31.314-9.0647-36.259z" fill="#fff" stroke-width="1.6481"/>
<path id="g" d="m658.1 70.813c-15.987 19.118 14.009 36.094 34.446 27.853 9.0647-3.6259 20.437-17.965 13.35-27.029-6.7573-8.5702-17.14 3.2962-24.887 2.637-7.911-0.49444-12.361-10.054-22.909-3.4611z" fill="#fff" stroke-width="1.6481"/>
<path id="h" d="m214.82 112.42c-0.90305 0.03465-1.8109 0.17271-2.707 0.41992-5.274 1.4833-8.2402 6.4282-10.383 11.043-2.9666 6.2629-4.6142 12.855-5.2734 19.777-0.65925 6.7573-1.32 13.514-1.8144 20.271-0.65925 10.383-0.65849 20.931-0.16406 31.314 0.32963 8.5702 1.3192 17.964 7.582 24.557l0.49414 0.49415c6.4277 6.2628 17.47 6.5933 25.875 6.2637 16.481-0.65925 35.93-8.0765 39.391-26.041 2.3074-12.526-2.4726-24.886-12.361-32.797-5.7684-4.6147-13.021-7.7475-18.295-13.021-9.8887-9.8887-1.977-24.886-12.195-37.576-2.4104-3.0799-6.2352-4.8552-10.148-4.7051zm19.543 72.443c5.1092 0.16481 9.2285 4.2842 9.2285 9.2285 0 5.1092-4.1194 9.2305-9.2285 9.2305-5.1092 0-9.2305-4.1213-9.2305-9.2305s4.1213-9.2285 9.2305-9.2285z" fill="#fff" stroke-width="1.6481"/>
<path id="i" d="m300.62 112.67c-24.063-2.4722-24.063 45.983-23.568 64.277 0.32962 12.196 2.1426 25.216 6.2629 36.423 1.8129 4.9444 4.9444 12.361 10.054 13.515 17.965 4.1203 22.579-44.005 22.909-57.355 0.49444-12.361 1.3185-55.047-15.657-56.86z" fill="#fff" stroke-width="1.6481"/>
</svg>
