<?xml version="1.0" encoding="UTF-8"?>
<!-- Generator: Adobe Illustrator 15.0.0, SVG Export Plug-In . SVG Version: 6.00 Build 0)  -->
<svg id="Layer_1" width="800" height="557.55" enable-background="new 0 0 1366 200" version="1.1" viewBox="0 0 800 557.55" xml:space="preserve" xmlns="http://www.w3.org/2000/svg" xmlns:cc="http://creativecommons.org/ns#" xmlns:dc="http://purl.org/dc/elements/1.1/" xmlns:rdf="http://www.w3.org/1999/02/22-rdf-syntax-ns#"><metadata id="metadata139"><rdf:RDF><cc:Work rdf:about=""><dc:format>image/svg+xml</dc:format><dc:type rdf:resource="http://purl.org/dc/dcmitype/StillImage"/><dc:title/></cc:Work></rdf:RDF></metadata><rect id="rect6" x="666.08" y="341.93" width="133.14" height="28.879" fill="#0000f7" stroke-width="3.1628"/><rect id="rect8" x="532.52" y="341.93" width="133.56" height="28.879" fill="#f60000" stroke-width="3.1628"/><rect id="rect10" x="399.79" y="341.93" width="132.73" height="28.879" fill="#f600f7" stroke-width="3.1628"/><rect id="rect12" x="266.65" y="341.93" width="133.14" height="28.879" fill="#00ff01" stroke-width="3.1628"/><rect id="rect14" x="133.09" y="341.93" width="133.56" height="28.879" fill="#0ff" stroke-width="3.1628"/><rect id="rect16" x=".36928" y="341.93" width="132.73" height="28.879" fill="#ffff01" stroke-width="3.1628"/><g id="g26" transform="matrix(3.1628 0 0 3.1628 -1217.8 -40.329)"><path id="path18" d="m445.58 76.848c0 15.893-14.135 25.712-29.91 25.712-19.047 0-27.46-10.056-30.496-20.57-0.351-1.403-0.116-2.456 1.398-3.033l9.116-3.396c1.986-0.813 3.272-0.119 3.857 1.635 2.218 6.193 6.66 10.523 15.773 10.523 8.064 0 13.435-4.444 13.435-11.221v-0.47c0-7.822-5.257-12.152-13.435-12.152h-6.656c-0.937 0-1.171-0.583-1.171-1.283v-11.098c0-0.698 0.113-1.397 1.171-1.397h6.656c7.829 0 12.505-3.98 12.505-10.054v-1.167c0-5.021-3.275-9.933-12.154-9.933-8.3 0-12.27 3.038-14.84 9.348-0.467 1.169-1.637 1.636-2.802 1.292l-9.818-3.279c-1.051-0.353-1.52-1.166-1.051-2.687 3.856-13.081 14.72-19.392 28.511-19.392 18.812 0 28.86 9.228 28.86 23.486v1.288c0 9.111-5.377 15.652-12.62 17.868 7.243 2.106 13.67 8.412 13.67 18.232v1.748z"/><path id="path20" d="m518.18 74.515c0 15.653-11.911 28.045-30.254 28.045-21.032 0-31.784-12.273-31.784-30.264v-27.222c0-17.296 11.453-30.848 31.784-30.848 19.508 0 25.232 11.565 27.456 17.168 0.58 1.643-0.471 2.339-1.758 2.81l-10.626 3.621c-1.29 0.466-1.87-0.114-2.807-1.985-1.634-4.093-5.489-6.896-12.266-6.896-9.344 0-14.957 5.143-14.957 16.362v4.552l0.234 0.116c3.973-3.62 9.114-6.303 17.408-6.303 16.472 0 27.568 10.634 27.568 28.037v2.807zm-16.821-2.108c0-9.11-5.138-15.189-13.663-15.189-9.001 0-14.728 5.96-14.728 15.189v0.822c0 8.534 5.026 14.493 14.837 14.493 8.531 0 13.554-6.078 13.554-14.493z"/><path id="path22" d="m590.97 72.53c0 18.112-8.181 30.031-31.201 30.031-22.896 0-31.08-11.918-31.08-30.154v-28.276c0-18.11 8.184-29.905 31.08-29.905 23.021 0 31.201 11.795 31.201 29.905zm-16.824-26.289c0-10.988-2.107-17.297-14.378-17.297-10.282 0-14.253 6.309-14.253 17.297v24.066c0 10.986 3.971 17.414 14.253 17.414 12.271 0 14.378-6.428 14.378-17.297z"/><path id="path24" d="m617.38 52.525c-11.931 0-20.353-8.428-20.353-19.66 0-11.693 8.887-20.114 20.353-20.114 11.462 0 20.588 7.718 20.588 20.114 0 11.233-9.126 19.66-20.588 19.66m9.824-19.66c0-6.083-3.975-9.823-9.824-9.823-5.618 0-9.594 4.211-9.594 9.823 0 5.147 3.746 9.358 9.594 9.358 5.379 1e-3 9.824-4.211 9.824-9.358"/></g><g id="g42" transform="matrix(3.1628 0 0 3.1628 -1217.8 -40.329)"><path id="path28" d="m414.81 178.15c0.916 0.323 0.754 1.024 0.431 2.048-1.239 3.771-5.388 8.836-13.092 8.836-9.806 0-14.601-5.064-14.601-14.063v-12.23c0-8.351 4.687-14.439 14.708-14.439 8.244 0 11.961 4.472 13.254 9.375 0.215 0.809 0.054 1.455-0.701 1.725l-4.58 1.4c-0.916 0.27-1.455-0.054-1.67-0.916-0.754-2.855-2.533-4.795-6.412-4.795-4.526 0-6.843 3.286-6.843 8.405v10.452c0 5.118 2.425 8.243 6.896 8.243 3.825 0 5.549-2.101 6.358-5.011 0.215-0.808 0.916-1.131 1.724-0.862z"/><path id="path30" d="m442.88 188.39c-0.485 0-0.916-0.323-1.024-0.862l-2.586-9.159h-12.5l-2.748 9.159c-0.215 0.7-0.539 0.862-1.077 0.862h-5.711c-0.431 0-0.646-0.485-0.485-0.916l12.069-37.715c0.215-0.646 0.593-1.078 1.186-1.078h6.789c0.754 0 1.078 0.378 1.293 1.078l11.638 37.769c0.162 0.432-0.107 0.862-0.485 0.862zm-9.591-31.411-4.58 15.032h8.782z"/><path id="path32" d="m484.86 188.39c-0.377 0-0.7-0.27-0.7-0.754v-23.761c0-2.371 0.323-5.334 0.485-7.059h-0.162l-8.675 30.927c-0.107 0.323-0.323 0.646-0.808 0.646h-6.196c-0.485 0-0.647-0.27-0.754-0.593l-8.028-30.98c-0.054-0.107-0.054-0.215-0.108-0.323 0.162 1.994 0.485 4.418 0.485 7.273v23.869c0 0.484-0.377 0.754-0.7 0.754h-5.496c-0.377 0-0.7-0.323-0.7-0.754v-37.877c0-0.377 0.215-0.809 0.754-0.809h9.267c0.377 0 0.646 0.162 0.808 0.593l5.55 19.504c1.077 3.826 2.047 8.621 2.424 12.446 0.27-3.825 1.616-8.513 2.748-12.554l4.903-16.433c0.27-0.971 0.539-1.994 0.808-2.964 0.323-0.916 2.532-0.593 3.825-0.593h5.873c0.539 0 0.754 0.323 0.754 0.7v37.985c0 0.484-0.323 0.754-0.646 0.754h-5.711z"/><path id="path34" d="m520.96 188.39c-0.646 0-0.97-0.216-0.97-0.754v-32.166h-14.117v32.004c0 0.593-0.215 0.916-0.808 0.916h-6.088c-0.7 0-0.862-0.323-0.862-0.916v-37.824c0-0.323 0.215-0.7 0.754-0.7h27.855c0.754 0 1.023 0.216 1.023 0.916v37.77c0 0.377-0.162 0.754-0.862 0.754z"/><path id="path36" d="m564.92 174.92c0 8.405-5.118 14.116-15.409 14.116-10.453 0-15.409-5.819-15.409-14.277v-12.339c0-8.027 5.064-14.116 15.409-14.116 10.398 0 15.409 6.089 15.409 14.278zm-7.758-11.315c0-5.118-1.994-8.513-7.651-8.513-5.711 0-7.651 3.232-7.651 8.405v10.236c0 5.227 1.939 8.459 7.651 8.459 5.657 0 7.651-3.286 7.651-8.351z"/><path id="path38" d="m587.28 188.39c-0.324 0-0.701-0.323-0.701-0.754v-31.896h-10.398c-0.485 0-0.701-0.485-0.701-0.809v-5.226c0-0.323 0.216-0.755 0.701-0.755h28.609c0.485 0 0.701 0.432 0.701 0.755v5.226c0 0.323-0.216 0.809-0.701 0.809h-10.398v31.896c0 0.431-0.323 0.754-0.754 0.754z"/><path id="path40" d="m608.67 188.39v-39.44h14.817c7.65 0 11.853 3.934 11.853 9.752v0.862c0 3.987-2.155 7.059-5.604 8.298 4.041 0.754 6.789 4.148 6.789 8.943v0.7c0 6.358-4.742 10.884-13.093 10.884h-14.762zm19.074-28.395c0-3.502-2.425-4.472-6.681-4.472h-4.634v9.537h5.119c4.472 0 6.196-1.832 6.196-4.473zm-6.25 21.552c4.957 0 7.273-1.186 7.273-5.172-0.054-3.826-2.424-5.119-6.25-5.119h-6.088v10.291z"/></g></svg>
