<svg id="a" version="1.1" viewBox="0 0 140.01 51.843" xmlns="http://www.w3.org/2000/svg">
 <g id="b" transform="translate(1.7207e-5 -8.157)" fill="#fff">
  <path id="c" class="cls-2" d="m9.21 58.361c-0.89336 0.44916-1.8989 0.66976-2.8997 0.64105-1.643 0.0934-3.2466-0.52615-4.4-1.7-1.3047-1.1612-2.0049-2.8566-1.9-4.6-0.058627-1.7647 0.63151-3.4718 1.9-4.7 1.1902-1.1061 2.7774-1.6832 4.4-1.6 1.0106-0.01814 2.009 0.22285 2.9 0.7v2.7c-0.74061-0.82219-1.7934-1.2942-2.9-1.3-2.2957 0.07479-4.0911 2.0049-4 4.3 0.12147 2.1953 1.9023 3.9328 4.1 4 1.0777-0.0069 2.0993-0.48125 2.8-1.3z"/>
  <path id="d" class="cls-2" d="m17.71 55.004-1.4-3.7-1.5 3.7zm0.6 1.6h-4.1l-0.9 2.1h-2.2l4.4-10.391h1.5l4.3 10.391h-2.1z"/>
  <path id="e" transform="translate(.010287 4.094)" d="m29.786 50.111h-4.396v4.496h-1.899v-10.192h1.899v3.997h4.396v-3.997h1.899v10.192h-1.899z"/>
  <path id="f" transform="translate(.010287 4.094)" d="m37.28 50.011-0.2 0.3v4.296h-1.998v-10.192h1.998v4.297l3.797-4.297h2.499l-4.297 4.697 4.496 5.495h-2.598z"/>
  <path id="g" transform="translate(.010287 4.094)" d="m51.769 44.415v1.699h-2.298v8.493h-1.999v-8.493h-2.298v-1.699z"/>
  <path id="h" transform="translate(.010287 4.094)" d="m56.565 50.211h-3.997v1.699h3.997z"/>
  <path id="i" transform="translate(.010287 4.094)" d="m59.263 54.607v-11.89h9.493v11.89h-2.299v-9.892h-4.796v9.892z"/>
  <path id="j" transform="translate(.010287 4.094)" d="m74.151 52.909h3.598v1.698h-5.596v-10.192h5.596v1.699h-3.598v2.298h3.498v1.699h-3.498z"/>
  <path id="k" transform="translate(.010287 4.094)" d="m86.642 44.415v1.699h-2.298v8.493h-1.999v-8.493h-2.298v-1.699z"/>
  <path id="l" transform="translate(.010287 4.094)" d="m90.938 52.909h3.598v1.698h-5.596v-10.192h5.596v1.699h-3.598v2.298h3.498v1.699h-3.498z"/>
  <path id="m" class="cls-2" d="m99.542 53.206h0.8a2.764 2.764 0 0 0 1.3-0.3 1.146 1.146 0 0 0 0.5-1.2 1.424 1.424 0 0 0-0.6-1.2 2.229 2.229 0 0 0-1.4-0.3h-0.7zm1-4.7a3.764 3.764 0 0 1 2.7 0.8 3.414 3.414 0 0 1 0.2 4.7 3.46 3.46 0 0 1-2.6 0.9h-1.3v3.8h-2v-10.197z"/>
  <path id="n" class="cls-2" d="m108.73 57.003h0.9c1.6 0 1.9-0.7 1.9-1.3s-0.4-1.4-1.9-1.4h-1v2.7zm-2-8.494h5.895v1.7h-3.9v2.3h1.4a3.743 3.743 0 0 1 2.5 0.8 3.251 3.251 0 0 1 1 2.3 2.99 2.99 0 0 1-0.6 1.8 3.249 3.249 0 0 1-2.9 1.2h-3.4v-10.1z"/>
  <path id="o" transform="translate(.010287 4.094)" d="m123.61 44.415-4.697 11.391-2.098 0.1 1.399-3.497-3.597-7.994h2.098l2.498 5.896 2.298-5.896z"/>
  <path id="p" class="cls-2" d="m127.52 53.206h0.8a2.764 2.764 0 0 0 1.3-0.3 1.146 1.146 0 0 0 0.5-1.2 1.424 1.424 0 0 0-0.6-1.2 2.228 2.228 0 0 0-1.4-0.3h-0.7zm1-4.7a3.764 3.764 0 0 1 2.7 0.8 3.414 3.414 0 0 1 0.2 4.7 3.46 3.46 0 0 1-2.6 0.9h-1.3v3.8h-2v-10.197z"/>
  <path id="q" transform="translate(.010287 4.094)" d="m140 46.114h-3.397v8.493h-1.999v-10.192h5.396z"/>
 </g>
 <path id="r" class="cls-2" d="m25.1 26.263a13.659 13.659 0 1 0-17.89-7.394 13.821 13.821 0 0 0 10.9 8.294l-17.791 1.798v1l127.5-0.2 5.9-14.389z" fill="#08b9cb"/>
</svg>
