<?xml version="1.0" encoding="UTF-8"?>
<svg width="237.11" height="353.73" enable-background="new 0 0 841.89 595.28" viewBox="0 0 237.11 353.73" xmlns="http://www.w3.org/2000/svg">
 <path d="m223.11 192.23c2e-3 -0.053 4e-3 -0.104 2e-3 -0.158-0.063-48.455-8.426-58.042 7.971-94.74 15.571-34.853-0.06-75.733-34.913-91.305s-75.732 0.062-91.304 34.915c-16.395 36.698-29.757 36.579-65.892 68.862-0.039 0.036-0.077 0.071-0.116 0.106-12.226 9.912-22.301 22.652-29.087 37.84-25.237 56.489 0.096 122.74 56.583 147.98 56.488 25.237 122.74-0.096 147.98-56.584 6.785-15.187 9.552-31.193 8.777-46.914z" fill="#f68e28"/>
 <circle cx="169.64" cy="64.56" r="45.661" fill="#fff"/>
 <g fill="#f68e28">
  <g transform="translate(-285.81 -91.68)">
   <polygon points="447 148.32 445.79 159.76 440.05 149.79 428.79 152.17 436.5 143.63 430.76 133.66 441.27 138.35 448.98 129.81 447.76 141.25 458.26 145.94"/>
   <polygon points="477.14 161.78 475.92 173.22 470.18 163.25 458.92 165.63 466.63 157.09 460.89 147.12 471.4 151.81 479.11 143.28 477.89 154.71 488.39 159.41"/>
  </g>
  <path d="m31.477 343.23c0 0.976-0.286 1.722-0.977 2.181-0.631 0.517-3.559 2.065-8.264 2.065-8.552 0-12.914-5.51-12.914-13.945 0-10.963 7.519-13.717 13.603-13.717 4.82 0 7.918 1.549 8.723 2.525 0.344 0.4 0.401 0.859 0.401 1.377 0 0.689-0.228 1.033-2.066 5.107-1.778-1.492-3.845-2.64-6.196-2.64-2.297 0-6.143 1.263-6.143 7.232 0 3.961 1.723 7.69 6.143 7.69 3.27 0 6.023-2.238 7.459-3.387l0.231 5.512z"/>
  <path d="m56.01 338.59c0 4.017 1.148 5.164 2.238 6.197-5.682 2.756-5.911 2.813-6.714 2.813-0.173 0-1.492-0.057-1.837-2.238-1.09 0.804-3.043 2.238-6.887 2.238-7.002 0-8.323-5.223-8.323-8.035 0-6.543 5.797-9.011 13.66-9.584v-1.148c0-2.066-0.517-3.099-2.755-3.099-3.271 0-6.37 1.263-8.895 3.271-1.033-3.673-1.206-4.649-1.206-5.165 0-0.746 0.173-1.378 3.102-2.525 3.27-1.264 6.943-1.492 8.492-1.492 9.069 0 9.125 4.648 9.125 7.574v11.193zm-7.862-3.214c-1.549 0.114-6.141 0.401-6.141 3.959 0 1.779 1.147 2.755 2.755 2.755 2.01 0 2.927-1.262 3.386-1.894v-4.82z"/>
  <path d="m69.595 322c1.262-0.975 2.869-2.18 6.256-2.18 6.657 0 11.478 4.764 11.478 13.889 0 9.24-5.797 13.773-11.822 13.773-2.87 0-4.248-0.745-5.51-1.319v3.042c0 5.223 0.745 3.147 1.262 4.523h-10.329c0.688-1.605 1.146 1.215 1.146-5.385v-16.013c0-7.403-0.344-8.38-1.205-10.56l8.438-1.895 0.286 2.125zm0.344 17.562c0.574 0.632 1.55 1.664 3.788 1.664 4.879 0 5.338-5.108 5.338-7.747 0-1.492-0.115-7.06-4.705-7.06-2.411 0-3.847 1.32-4.421 2.123v11.02z"/>
  <path d="m111.61 338.59c0 4.017 1.15 5.164 2.24 6.197-5.682 2.756-5.911 2.813-6.715 2.813-0.172 0-1.492-0.057-1.837-2.238-1.091 0.804-3.041 2.238-6.888 2.238-7 0-8.321-5.223-8.321-8.035 0-6.543 5.796-9.011 13.659-9.584v-1.148c0-2.066-0.516-3.099-2.754-3.099-3.271 0-6.371 1.263-8.896 3.271-1.032-3.673-1.205-4.649-1.205-5.165 0-0.746 0.173-1.378 3.1-2.525 3.271-1.264 6.944-1.492 8.493-1.492 9.068 0 9.124 4.648 9.124 7.574v11.193zm-7.861-3.214c-1.55 0.114-6.141 0.401-6.141 3.959 0 1.779 1.146 2.755 2.755 2.755 2.009 0 2.927-1.262 3.386-1.894v-4.82z"/>
  <path d="m140.58 314.51-8.89 1.78c0.4 0.81 0.97 0.89 0.97 3.42v1.37c-1.78-0.92-2.75-1.26-4.7-1.26-5.75 0-11.94 3.96-11.94 13.72 0 8.66 5.1 13.94 11.7 13.94 2.37 0 4.02-0.64 5.27-1.37v2.23c0 6.6-0.45 3.78-1.14 5.39h10.33c-0.52-1.38-1.26 0.7-1.26-4.53v-3.04c1.26 0.57 2.64 1.32 5.51 1.32 6.02 0 11.82-4.53 11.82-13.77 0-9.13-4.82-13.89-11.48-13.89-3.33 0-4.94 1.16-6.19 2.13v-7.44zm-11.59 11.74c1.72 0 2.7 0.74 3.67 1.6v11.02c-0.57 0.52-1.89 1.72-4.02 1.72-2.52 0-4.47-2.23-4.47-6.82 0-2.65 0.57-7.52 4.82-7.52zm16.29 0.17c4.59 0 4.7 5.56 4.7 7.06 0 2.64-0.46 7.74-5.33 7.74-2.24 0-3.22-1.03-3.79-1.66v-11.02c0.57-0.8 2.01-2.12 4.42-2.12z"/>
  <path d="m181.8 338.59c0 4.017 1.149 5.164 2.238 6.197-5.683 2.756-5.91 2.813-6.716 2.813-0.171 0-1.491-0.057-1.836-2.238-1.09 0.804-3.041 2.238-6.887 2.238-7.002 0-8.321-5.223-8.321-8.035 0-6.543 5.795-9.011 13.659-9.584v-1.148c0-2.066-0.517-3.099-2.756-3.099-3.27 0-6.369 1.263-8.895 3.271-1.034-3.673-1.205-4.649-1.205-5.165 0-0.746 0.171-1.378 3.1-2.525 3.272-1.264 6.943-1.492 8.492-1.492 9.068 0 9.126 4.648 9.126 7.574v11.193zm-7.862-3.214c-1.551 0.114-6.142 0.401-6.142 3.959 0 1.779 1.149 2.755 2.756 2.755 2.008 0 2.926-1.262 3.386-1.894v-4.82z"/>
  <path d="m195.9 320.16-9.24 1.9c0.92 2.23 1.31 3.27 1.31 10.5v5.11c0 6.6-0.45 7.63-1.14 9.35h10.21c-0.86-2.06-1.14-3.56-1.14-9.35v-0.58h6.82v0.58c0 6.6-0.45 7.63-1.14 9.35h10.21c-0.86-2.06-1.15-3.56-1.15-9.35v-17.51l-9.23 1.9c0.78 1.92 1.17 3.19 1.27 8.03h-6.78v-9.93z"/>
 </g>
</svg>
