<?xml version="1.0" encoding="UTF-8"?>
<svg id="svg34" width="395.97pt" height="242.79pt" version="1.1" viewBox="0 0 395.97 242.79" xmlns="http://www.w3.org/2000/svg" xmlns:cc="http://creativecommons.org/ns#" xmlns:dc="http://purl.org/dc/elements/1.1/" xmlns:rdf="http://www.w3.org/1999/02/22-rdf-syntax-ns#">
 <metadata id="metadata40">
  <rdf:RDF>
   <cc:Work rdf:about="">
    <dc:format>image/svg+xml</dc:format>
    <dc:type rdf:resource="http://purl.org/dc/dcmitype/StillImage"/>
    <dc:title/>
   </cc:Work>
  </rdf:RDF>
 </metadata>
 <g id="#5e5e60ff" transform="translate(-14.578 -19.978)" fill="#fff">
  <path id="path11" d="m109.01 20.84c15.67-1.03 31.38-0.43 47.07-0.59 12.79-0.43 25.6-0.23 38.4-0.2l6.74 7.72c-25.74 0-51.48-0.1-77.21 0.05-22 0.24-44.42 5.81-62.47 18.78-19.28 13.47-32.25 34.93-36.77 57.88-4.56 23.11-2.94 47.72 6.12 69.59 7.95 19.15 23.11 35.21 41.85 44.13 15.62 7.59 32.96 11.25 50.26 11.79 11.64 0.49 23.3 0.18 34.95 0.27 47.68-0.03 95.36 0.04 143.04-0.04 17.9-0.02 36.28-4.55 50.72-15.48 11.54-8.51 19.73-21.12 23.8-34.8 5.84-18.7 5.02-39.29-1.73-57.63-5.05-13.61-14.7-25.47-27.16-32.97-11.82-7.41-25.77-11.11-39.67-11.34-20.91-0.02-41.82 0.07-62.72-0.04l-6.74-7.65c17.17-0.12 34.33-0.02 51.5-0.05 14.82 0.04 30.05-0.34 44.24 4.59 15.7 5 29.87 15.06 39.01 28.87 12.43 18.56 15.86 41.94 13.16 63.8-2.32 18.8-10.74 37.15-25.03 49.83-11.74 10.62-27.01 16.72-42.54 18.99-10.56 1.56-21.24 1.1-31.87 1.16h-152.98c-18.38 0.06-37.17-1.27-54.42-8.14-21.32-7.76-39.77-23.29-50.58-43.3-13.07-24.46-15.99-53.49-11.31-80.58 3.72-21.71 14.33-42.3 30.48-57.36 16.77-15.73 39.16-24.76 61.86-27.28z"/>
  <path id="path13" d="m57.73 72.7c16.65-20.14 43.83-28.41 69.26-27.7h164.99c16.93-0.16 34.12 1.29 50.23 6.84 20.96 6.77 39.85 20.47 51.63 39.22 14.87 23.5 18.92 52.55 15.64 79.82-2.63 22.45-12.25 44.23-28.14 60.43-16.54 17.32-39.68 27.31-63.19 30.41-16.67 1.56-33.44 0.24-50.14 1.03-12.29 0.01-24.59 0.04-36.88-0.01l-6.67-7.72c25.86-0.1 51.72 0.1 77.58-0.1 23.02-0.31 46.46-6.76 64.75-21.13 19.06-14.49 30.92-37.1 34.53-60.55 3.36-22.59 1.24-46.39-8.28-67.31-7.96-17.54-22.13-32.05-39.3-40.71-18.41-9.3-39.3-12.89-59.8-12.47h-173.97c-18.94 0.5-38.33 6.85-52.2 20.1-13.77 12.88-20.59 31.73-21.85 50.24-0.82 14.95 1.68 30.28 8.26 43.81 7.02 14.31 19.61 25.53 34.23 31.69 10.57 4.53 22.16 6.43 33.62 6.16 19.64-0.01 39.28 0 58.93 0l6.79 7.8c-20.94-0.12-41.88 0.01-62.82-0.06-6.98-0.3-14-0.31-20.89-1.55-17.68-3.03-34.79-11.64-46.36-25.56-12.86-15.3-18.84-35.56-18.7-55.36-0.5-20.45 5.42-41.53 18.75-57.32z"/>
  <path id="path15" d="m84.02 93.93c8.83-3.2 19.48-2.53 27.09 3.3l-3.1 5.2c-6.85-4.67-16.46-5.49-23.66-1.15-9.04 5.46-11.37 17.92-7.85 27.33 2.8 7.48 10.54 12.55 18.49 12.43 5.25 0.33 10.28-1.7 14.5-4.69l2.77 4.86c-3.09 3.52-7.77 5.06-12.25 5.84-9.22 1.65-19.52-1.13-25.79-8.29-6.04-6.95-7.5-16.88-5.79-25.71 1.57-8.43 7.41-16.18 15.59-19.12z"/>
  <path id="path17" d="m118.74 92.73 30.62 0.02-2.95 6.52-20.94 0.01 0.03 18.26 17.9-0.02 3.38 6.11-21.19 0.07v16.58l21.4-0.09 3.24 6.58-31.54-0.12z"/>
  <path id="path19" d="m157.74 92.76 10.847-0.08872c5.3131-0.04346 10.592 0.11482 15.533 2.2587 9.62 4.28 10.25 19.28 2.1 25.33-5.07 3.87-11.8 4.17-17.92 3.91l-3.79-5.54-0.03 24.59-6.71 3.46-0.03-53.92m6.75 6.58 0.04 18.37 6.3722 0.087c3.1977 0.0436 6.3719-0.17194 9.2978-1.587 5.55-2.84 6.1-12 0.81-15.37-3.0611-1.5756-6.4295-1.9902-9.8185-1.8255z"/>
  <path id="path21" d="m199.01 92.89 6.71 3.47 0.02 34.71 38.25-38.39 0.01 54.11-6.62-3.3-0.12-35.35-38.27 38.77z"/>
  <path id="path23" d="m272.5 92.84 23.62 54.08-9.05-3.91-5.35-12.49-18.6 0.01-5.96 12.64-8.18 3.62 23.52-53.95m-0.07 16.07-6.19 14.61 12.44-0.03z"/>
  <path id="path25" d="m322.75 93.76 22.65 53.11-8.93-3.5-13.82-32.74-13.71 32.35-8.79 3.96z"/>
  <path id="path27" d="m303.26 153.06c10.63 0.02 22.18-1.75 31.81 3.92 15.82 9 14.89 35.58-0.84 44.22-9.35 5.53-20.63 4.34-31.01 4.01l0.04-52.15m3.76 3.14v46.04c8.28 0.01 17.2 0.86 24.62-3.64 13.17-7.35 14.78-28.85 2.37-37.67-7.75-5.81-17.88-5-26.99-4.73z"/>
  <path id="path29" d="m238.24 156 3.78-1.89c-0.05 9.95 0.02 19.9-0.03 29.85-0.09 6.11-1.45 12.73-6.09 17.06-6.33 5.92-16.3 6.25-23.99 3.04-7.35-3.17-11.08-11.41-11.17-19.06-0.01-10.28 0.02-20.57-0.01-30.86l3.52 1.78c0.04 9.34-0.08 18.69 0.06 28.03 0.23 7.23 3.73 15.2 10.98 17.78 5.74 1.89 13.02 1.62 17.52-2.88 3.96-3.81 5.41-9.54 5.44-14.89-0.01-9.32-0.03-18.64-0.01-27.96z"/>
  <path id="path31" d="m251.51 154.23 3.47 1.56 0.04 21.16 34.71 0.05v-20.98l3.72-1.95 0.04 50.13-3.76-1.78 0.02-22.18-34.74-0.03 0.09 22.16-3.58 1.83z"/>
 </g>
</svg>
