<svg id="a" version="1.1" viewBox="0 0 1496.7 916.7" xml:space="preserve" xmlns="http://www.w3.org/2000/svg">
<g id="b" transform="translate(-102.06 -112.9)" fill="#fff">
	<g id="c">
		<path id="d" d="m1077.3 388.7-88.4 202.5 30.2-13.3 22-47.9h71l20.3 47.9 33 13.3zm-25.3 115.4 24.7-57 24.7 57z"/>
		<polygon id="e" points="1266 451.8 1318.8 577.8 1352.1 591.1 1267.5 391.7 1182.8 591.1 1214.3 577.8"/>
		<path id="f" d="m805.9 620.3v109.3c0 27.4 7.8 49.8 22.7 64.6 13.9 13.9 33.9 21.2 57.7 21.2 21.2 0 39.2-6.6 52.1-19.2 15-14.6 22.6-36.2 22.6-64.5v-111.4l-12.6 6.7v99.6c0 49.4-22.6 77.7-62.1 77.7-42.5 0-67.8-29.7-67.8-79.5v-97.8z"/>
		<polygon id="g" points="1143 627 1143 706.7 1010.7 706.7 1010.7 627 998.2 620.3 998.2 808.4 1010.7 801.7 1010.7 717.8 1143 717.8 1143 801.7 1155.6 808.4 1155.6 620.3"/>
		<path id="h" d="m1215.4 615.6c-7.8 0.2-15.2 0.4-21.3 0.4v196.7c8.4 0 17.1 0.2 25.6 0.3 8.3 0.1 16.2 0.3 22.8 0.3 36 0 65.5-10.3 85.5-29.9 18.4-18 28.1-42.8 28.1-71.8 0-27.5-8.8-50.8-25.5-67.5-19.3-19.3-48.2-29.1-85.7-29.1-9 0.1-19.4 0.3-29.5 0.6zm126.6 96c0 26.4-8.9 48.9-25.6 65-17.4 16.7-42.7 25.6-73 25.6-3 0-12.5-0.2-23.4-0.4l-13.3-0.3v-174.3l6.3-0.2c3.5-0.1 6.7-0.2 9.9-0.4 6.3-0.3 12.9-0.5 21.4-0.5 60.2 0.1 97.7 32.8 97.7 85.5z"/>
		<polygon id="i" points="943.8 444.6 943.8 577.8 968.4 591.1 968.4 388.4 823.7 534.7 823.7 401.5 799.1 388.4 799.1 590.9"/>
		<path id="j" d="m404.6 408.5c21.1 0 36.8 5.2 50.1 15.1l11.3-18.6c-14.5-12.5-35.6-19.7-61.7-19.7-63.4 0-101.1 46-101.1 104.3 0 63.1 42 104.3 102.8 104.3 25.2 0 50.4-8.7 64-22.6l-9.8-18.5c-13.9 11.3-32.4 18-51.8 18-46.9 0-79.1-32.7-79.1-81.1 0-48.2 31.3-81.2 75.3-81.2z"/>
		<polygon id="k" points="496.4 388.2 496.4 590.9 613.7 590.9 602.4 567.8 521.1 567.8 521.1 504.2 600.7 504.2 588 481.1 521.1 481.1 521.1 411.4 599.5 411.4 610.8 388.2"/>
		<path id="l" d="m696.3 387.6c-12.7 0-41.7 0.6-53 0.6v202.7l24.6-13.1v-166.4c9.6-0.3 22.6-0.6 30.7-0.6 32.1 0 46.6 11.1 46.6 35.1 0 25.5-18 36.6-47.8 36.6-10.1 0-20.2 0.4-29.5 0l15.8 23.2h14.6c49.5 0 73-26.5 73-59.5 0-31.5-17.1-58.6-75-58.6z"/>
	</g>
	<g id="m">
		<path id="n" d="m1170.5 235.4c53.7 0.3 106.5 7.2 157.8 24.1 63.2 20.8 118 54.6 161 106.8 33.3 40.4 54.8 86.9 67.5 137.8 13 52.2 16.2 105.2 11.4 158.7-4.7 52.4-18.1 102.2-42.5 148.6-34 64.5-83.8 112.5-147.8 145.5-37.1 19.1-76.3 31.2-117.4 37.9-32.5 5.3-65.1 6.7-97.8 6.6h-266.3l24.6 28.2c82.4-0.3 210.7-0.1 293-1.4 42.9-0.7 84.8-9.7 125.5-23.9 74-25.8 135.6-69.2 182.4-133.3 47.3-64.8 70.2-138.6 75.6-218.5 3.3-49.1 0.1-97.7-10.9-145.8-13.3-58-36.7-111.1-74.1-157.3-50.5-62.1-116.1-100.4-191.6-122.4-53.2-15.5-107.7-19.7-162.8-19.8h-643.3c-40.3 0-75.7 5.9-108.2 15.3-44.1 12.8-80.9 32.4-112.3 60-41.1 36-70.1 82.7-86.3 138.8-12.1 41.9-16.2 86.1-12.6 135.3 3.8 51.7 17.9 99 41.8 140.6 30 52.1 74 90.9 130.8 115.3 33.7 14.5 70 23.1 107.9 25.6l47 1.8h232.9l-25-28.2h-234.9c-61.3-1.2-113.3-17-158.9-46.9-56.8-37.1-93.6-92.2-109.4-163.6-13.5-61-11.2-120.8 6.6-178 24.1-77.1 73.9-131.9 147.8-163 37.8-15.9 79.8-24.6 128.6-24.8z"/>
		<path id="o" d="m1190.1 907.4c48.7-0.2 90.8-9.2 128.6-25.1 74-31.1 123.7-85.9 147.8-163 17.9-57.1 20.1-117 6.6-178-15.8-71.4-52.6-126.4-109.4-163.6-45.7-29.9-97.6-45.6-158.9-46.9h-234.1l-24.6-28.2h231.8l47 1.8c37.9 2.5 74.2 11.1 107.9 25.6 56.8 24.4 100.8 63.2 130.8 115.3 24 41.6 38.1 88.9 41.8 140.6 3.6 49.1-0.5 93.4-12.6 135.3-16.2 56.1-45.2 102.8-86.3 138.8-31.4 27.5-68.2 47.2-112.3 60-32.5 9.4-67.9 14-108.2 14.1h-643.4c-55.1-0.1-109.6-3.1-162.8-18.5-75.5-22-141-60.3-191.5-122.5-37.4-46.1-60.8-99.2-74.1-157.3-11-48.1-14.2-96.7-10.9-145.8 5.4-79.8 28.3-153.6 75.6-218.5 46.8-64.1 108.4-107.6 182.4-133.3 40.7-14.2 82.5-23.2 125.5-23.9 82.3-1.3 212-1.1 294.3-1.4l25 28.2h-268c-32.8-0.1-65.4 1.3-97.8 6.6-41.1 6.6-80.3 18.8-117.4 37.9-64.1 33-113.9 81-147.8 145.5-24.5 46.5-37.8 96.3-42.5 148.6-4.8 53.6-1.7 106.5 11.4 158.7 12.7 50.9 34.3 97.4 67.5 137.8 43 52.1 97.8 86 161 106.8 51.3 16.9 104.1 24.1 157.8 24.3h659.8z"/>
	</g>
</g>
</svg>
