<svg id="c" enable-background="new 0 0 205 55" version="1.1" viewBox="0 0 205 55" xml:space="preserve" xmlns="http://www.w3.org/2000/svg"><g id="d"><linearGradient id="b" x1="328.65" x2="326.74" y1="-383.61" y2="-329.11" gradientTransform="matrix(1,0,0,-1,-301,-332)" gradientUnits="userSpaceOnUse"><stop id="e" stop-color="#3C1950" offset=".25"/><stop id="f" stop-color="#BE3CFF" offset=".6344"/><stop id="g" stop-color="#DC6EFA" offset=".68"/><stop id="h" stop-color="#9B32C8" offset=".9086"/></linearGradient><path id="i" d="m19.426 55c-10.88 0-19.426-7.93-19.426-19.344 0-10.814 7.746-17.951 17.741-18.671l7.853 1e-3 -3.756 3.242 30.052-0.026c-1.898 4.014-6.654 7.114-10.723 7.114h-21.741c-5.933 0-9.528 2.773-9.528 8.341 0 5.567 3.511 8.898 9.528 8.898h33.415v10.445zm-18.099-44.165v-10.24l39.21-1e-3c7.894 0 13.166 7.268 12.885 14.103l-13.06-0.377 3.682-3.484z" fill="url(#b)"/><linearGradient id="a" x1="434.02" x2="432.21" y1="-386.88" y2="-334.81" gradientTransform="matrix(1,0,0,-1,-301,-332)" gradientUnits="userSpaceOnUse"><stop id="j" stop-color="#3C1950" offset=".25"/><stop id="k" stop-color="#BE3CFF" offset=".6344"/><stop id="l" stop-color="#DC6EFA" offset=".68"/><stop id="m" stop-color="#9B32C8" offset=".9086"/></linearGradient><path id="n" d="m80.386 55h10.399v-34.844l-10.399 0.01v11.855h-10.798v-11.846l-10.433 0.01v34.815h10.433v-12.91h10.799zm10.399-39.22v-15.094h-10.399v14.792zm-21.198-0.615v-14.479h-10.434v14.178zm43.568-15.165c-10.336 0-15.461 7.902-15.77 15.971l10.432 0.302v-0.417c0-2.955 1.447-5.978 5.338-5.978 3.892 0 5.221 3.417 5.221 5.978v0.72l10.448 0.302v-0.085c8e-3 -8.425-5-16.793-15.669-16.793zm-15.787 20.151v34.849h10.448v-12.821h10.559v12.821h10.413l0.033-34.877-10.445 0.01v11.979h-10.559v-11.97zm60.043 13.497c-0.589-4.355-1.307-8.115-2.293-10.477l-1.283-3.07-18.592 0.016v34.883h10.45v-31.926c0.702 3.928 1.74 7.832 3.367 11.721l8.354 20.205h10.417v-34.913l-10.415 0.01zm-4.633-16.075-7.088-16.994h-10.448v16.485zm15.05 0.435v-17.426h-10.415v17.127zm4.107-17.484v10.069h11.548v7.869l10.433 0.302v-8.172h11.084v-10.068zm11.548 19.551v34.925h10.433v-34.935z" fill="url(#a)"/></g></svg>
