<svg id="a" version="1.1" viewBox="0 0 1499.9 638.59" xml:space="preserve" xmlns="http://www.w3.org/2000/svg">
<g id="b" transform="translate(-6449.4 -6881)">
	<path id="c" d="m6453.4 7143.2c0.3 0.5 5.3 1.6 8.9 0.1 3.8-1.1 14.5 9.9 8.9 0.1-2.4-4.2 1.9 7.5 0 10.3 5.2 12.1-1.1 4.7 1.1 12.5 0.4 4.6-3 2.8-1.1 10.2-1.6 1.3-3.5 2.1-3.4 6.2 2.1 7.4-2.4 3.3 3.4 16.5 2.2 6.9 3.4 11.6 3.5 13.5s-1.1 1-3.5-3.2c4.6 8 9 5.1 12.2 0 3.6 0.9 5.5-1 7.1-2.2s3.3-0.9 5.1 2.2c-0.8-1.4 1.1-2.3 0-10.3-7.8-16.7-8.7-21.8-5-19.2 4 3.1 9.5 8.5 5-3.5 3.4 1.7-3.4-14.1 0.6-11.1 3.7 2.6-0.4-8.2-0.6-11.5 1.1-4.3-0.1-10.4 0-10.3 0.8 1.3 3.3-1.9 8.8 0 1.2-5.6 10.3 2.5 8.8 0 2.2 3.8-3.7-2.3 0 10.3 3.4 9 4.9 15.1 1.1 12.4-1.9 0.6-2.3 4.1-1.1 10.3-3.1-1.3-1.4 5.9 2.9 17.1 2.2 7.6 3.4 13.3-2.9 5.6 6.6 17.7-0.2 10 0 10.3-0.7-1.2 0.6-1.6 3-1.4 2.4 0.1 5.7 0.7 9.2 1.4-0.1-5.4 3.8-3.9 6.6-3.1-0.5-4.8 3-1.4 5.6 3.1-1.5-2.6 1.9-0.9 0-10.3 7.2 9.4 2.4-2.6 4.1-3.5-0.2-2.4-0.1-4.1-0.5-6.8s-1.3-6.3-3.5-12.3c1.9-0.8 3-3.1-0.3-12.7 1.8-0.8 4-0.5 0.3-10 4.6 1.7-2-13.8 0-10.3 3.8 6.5 7.7 5.8 8.8 0 5.8 2.5 10.5 2.9 8.8 0-1.2-2 0.4 5.8 0 12.6-0.9 2.3-2.4 4.1 0 13 1.7 7.6 1.3 12.1 0 14.9-1.2 3-2.8 5.2-0.2 14.5 0.1 5 0.7 10.3 0.2 13.3 2.4 11.7 4.4 20.3 0 12.6 0.3 0.5-0.5 6.2-10.6 0-5.1-3.3-10.5-5.9-10.9 0.9-3.6 1.2-7.7 2.2-14.3-0.9-19.9-17.6-22.5-3.8-30.1 0-13.6-6.7-19.9-2.1-25.2 0-14.1-13.1-11.7-1.9-10.6 0 0.8 1.5 2.6 1.7 0-7.5-3-9.8 1.4-8.6 0-18.1 4 3.4 2.5-3 0.7-9.9-5.2-12.8-7.4-20.5-0.7-12.5-2.8-8.6-1.3-9.6-0.5-11.6 0.6-2.4 0-6.6 0.5-8.6-0.9-9.3-0.7-14-0.2-13.1z"/>
	<path id="d" d="m6603.9 7226.1c-2.2 1.6-6.3-0.8-8.8-0.8-1.8 1.2 0 8-7.8-2.4-1.6 0.4-6.6-5.7-6.8-3.8-2.9-3-3.2-1.9-5.6-5.1 0.3 1.6-7.1-10.7-4.5-6.2-1.1-1.8 2.7 4.3-3.3-7.2-1.8-4-3.9-9.2-2-7.9-5-10.7 0.8-3-0.7-8.5 3.7 3.3 5.7 3.6 0.7-8.7 4.8 4.8 4.3 0 2-8.1-4.1-11.2 5.5 1 3.3-7.3 2.1-0.9 1.3-6.9 4.5-6.3 1-3.1-0.4-10.5 5.6-5.2-2.1-8.8 3.9-3.5 6.8-3.9 7.1 7 3.8-4.1 7.8-2.5-0.1-5.5 3.7-4.3 8.8-0.8 0.6-4.2 4.4-2.5 8.8 0.8 0.9-2.7 8.5 6.7 7.8 2.5 0-3.2 4.9 2.8 6.8 3.9-1.8-5.2 2.9 1.4 5.6 5.2-2.5-4.8-2.3-4.9-1.1-3 0.7 1 2.8 4.4 5.5 9.2-1.1-1.9-5.8-9.4 3.3 7.3-1.6-1.8 2.1 6.3 2 8.1 0.3 2.6-2.2 0.7 0.7 8.7-3.5-4.6 3.5 9 1.7 7.5 2.1 5.3 5.5 12.8-2.3 1-4-3.4-4.6-0.6-2 7.9-0.7 0.8 6 14.5 1.1 8.1-5-6.6 1.6 7.2-4.4-1-0.4 1.6 0.2 4.9 0.1 7-0.2 2-1.1 2.8-4.6-0.8-4.2-2.5 0 9.8-5.6 5.1-3.7-3.8 3.3 10.9-0.3 7.2-2.6-2-4-1.7-6.5-3.4-5.5-4.2-3.6 4.5-7.8 2.4 1.6 5.5 0.7 6.5-1.3 5.8-2-0.6-5-3.1-7.5-4.8zm0-14.9c6.6 4.5 6.9-1.6 10.1-2.3 3.9 0.4 8.5 2.3 6.8-6.2 3-0.3-0.4-11.3 3.8-8.7-6.1-12.9 5.2 4.5 3-1.3-6.1-12.6-6.2-14.6-1.8-8.7-2.6-8.1-4.2-13.6-1.2-10.3-2.9-7-0.9-4.4-3.8-8.9-3.2-5.3-2.6-3.7-2.3-2.3s0.2 2.5-4.5-3.9c-7.2-9.1-3 3.1-10.1-2.3 5.4 16.2-5.3 4.4-10.1 2.3-5.1-2.5-8.6-2.6-6.8 6.2-1.9 2.3-4.2 3.4-3.8 8.9 0.6 5.7-5.2-0.2-1.2 10.3 4.8 11.7 3.5 12.1 1.2 9.9-4.6-6-2.3-1.4 3.8 8.7-4.4-8.1 7.9 11.5 6.8 6.2 4.7 5.1 6.6 3.2 10.1 2.4z"/>
	<path id="e" d="m6652.6 7143.4c-4.6-8 3.5-1.6 8.8 0 1.6-4.9 11.4 4.4 8.8 0 0.7 1.2 2.4 6.2-0.4 4.4-1.7-1.5-2-0.1-1.6 2.4s1.3 6.2 2 9.4c2.2 5.8-1.8 1 3.2 11.4-2.8-2.9-7.5-9.4-3.1-0.1-2.4-1.1-2.1 1.4-0.1 4.9-7.2-12.5 1.8 0.7-1.3-8.8 0.6-1.1 2.7 0.3 4.3 0.4 0.3-2.1 6.8 6 5.2 0-5.2-12.2 1.1-4.7 0.4-9.5-0.4-4.2 6.9 4.8 4.7-2.5 6.9 4.7 10.4 3.5 10-3.6 0.6-5.3 1.5-9.5 2.7-11.4 1.3-1.8 3-1.3 5.4 3-0.7-1.3 5.1-0.8 11 0 2-1.4 5.5 0 9.4 3.1 0-3.6 4.3 1.5 1.6-3.1-1-1.8-2.1-1-1.7 4-2.1 0.6-4.1 3.3-7.3 4.8-4.2-0.3-6.3 3.9-8.1 8.6 1.1 9.8-6.2 4.9-8.6 7.7 6.4 18-3.4 7.2-7.2 5-2.6-0.1-8.5-7.7-1.8 3.8-2.3-3.9 1.2 1.6 3.2 4.1 7.9 12.8 2.3 2 6.6 8.1 1.4 1.7 0.1-1.2 3.9 4.6-1.6-3.4-3.1-6.8 5.4 7.1-4.1-7.5 3 4.4 4.6 6.8 1 1.4 4.4 6.9 0.6 0 3.2 4.8 6.3 9.4 3.6 4.1 3.1 4.6 0.4-0.7 0.2-1.6 2.4 3.7 5.5 8.5 6.8 10.3 3.1 4.6 8.8 13.8 2.8 3.5 0.4 0.6 3.7 8.7 1.2 8.1-0.7 0.6-5.8-6.1-5-2.5-1 0.5-6.9-7.3-7.3-5.5 2.1 8.5-7.9-4.2-7.9-0.5-3.7-2.8-6.2-4.7-3.2 0.5-0.2-0.3 3.7 6.7-0.1 0.9-3.2-4.9-6.2-9.2-7.3-10.2-6.4-10.2-5.2-6.9-7.7-10.1 5.5 10.6-12.2-18.9-6-7.2-9.6-14.6-7.4-9.3-7.4-9.3-3.3-5.8-10.1-0.6-6 6.5 0.8 1.4 5.4 9.7 3.9 8.1 1.6 3.5-1.1 0.1-1.7 0.4-4.3-6.1-5.4-6.3-4.8-3.6 0.8 3.1 3.7 10 2.5 9.8 0.6 2.8 5 12.4 2.3 9.4 2 5.2 5.6 13.1-2.3 0.8 4.2 8.7 7.7 15.9 4 10.2 1.2 2.9 0.3 1.7-4-5.6-2.4-4.1 0.9 3.5-1.8 1.7 5 11.5-3.8 0.2-7-1.7-3.3-1.9-4.9-0.8-5.7 0.7 2.6 7.4 0.2 5.2-3.1-0.7 2.2 3.9-1.5-3.9-1.6-6.3-5.5-11.7-3.5-11.5 1.6-6.3-4.1-9.1-10.7-22.4-8.7-21.2 8.7 12.8 2.1-0.9 6.7 4.7 0.9-0.7 5.1 4 1.7-4.4 0.9-1-2.6-9.5 0.4-6.9-2.4-6.7-4.3-12.5-1.5-10.1-1.3-4.7 5.7 4.9 1.5-4.7-1.4-4.8-2.5-8.9-2.6-11.4-0.2-2.5 0.5-3.3 2.6-1.7-3.1-9.2-4.4-14.5-4.2-16.5 0.5-2.1 2-0.6 4.5 3.7z"/>
	<path id="f" d="m6731 7143.4c-3.8-6.6-2.7-6.6-0.1-5 3.9 3.9 4.5 1.1 8.9 5 3-2.5 5.5-5.7 8.8 0 3.5 6.1 2.2 10.1 0 14.5 1.2 10.3 4.5 26.4 0 27-6.1-2.3-3.5 8.5 0 14.5-2.1-3.6 4.8 7.7 0.3 0-3.5-6.1-0.4-12.7 7.9-14.5 3.4-2.2 7-5 9.8-9.3 3.4-3.3 4.8-9.9 4.9-17.8 2.2-12.4 7.9-14.5 7.9-14.5h9.9c5 0 18.3 14.5 9.9 0-1.2-2.1 1 6.7 0 12.6-3.9-3-2.5 3.9 1 14.7-2.4-1.8-2.2 1.1-1.6 4.6s1.3 7.3 0.6 8.5c-1.6-0.3-3.2-0.5 0.6 8.6 1 4.2 1.1 6.8-1.1 5.4 0.3 2.8-2.3 0.7-0.6 5.8 3.1 7.5 3.5 10.2 1.1 8-3.7-2.6-2.3 2.9 0.3 9.6-1.1 0.3-1.4 1-0.3 3-0.4-0.6-8.3-6.9-8.8 0-0.1 7.4-4 8.3-8.8 0-0.3-0.5 2.7 3.2 1-2.5-3.6-8.9-1.4-8.7-1-12.1 1.4 0.3 0.8-3-1.7-9.4 0-2.2 4.7 3.5 2.4-2.8-1.7-5.2 0.7-3.4 0.4-6.2-0.1-2.4-0.6-5.5-1.2-8.6-3-9.4-0.3-8.3 0.2-10.1-0.3-3.2 0.6-3.1-0.2-4.5-0.1-0.2 1 2.4-0.3 0-3-5.2-3.5-3-1.9 4.8-2.2 1.3 5.1 21-6.1 9.7-1.6 5.3-3 12-7.8 12.8-2.8 4.3-5.4 8.8-6.9 14.3-2.8 11.3-12.9 6-7.9 14.6 3 5.2-4.8 0.2-9.9 0-3.7 2.2-9 1.6-9.9 0 3.8 6.6 1.3 0.9 1.4-1.1-3.1-7.7 1.5-2.7-1.4-11.5 3.5 4.2 1.6-1.2 2-2.7-5.2-11.2 1-2.7-1.5-9.4-5.2-10.1-4.7-10.5-3.6-9.8-3-6.5 3.2 3 2.8 1.1 0-1.3 2.3 1.5 3.3 1.9 1.9 2.1-1.9-5.8-3-8.9-3.5-11.2 8.3 4.2 1.8-11.7 1.3-0.2 1-2.9 0.4-6.2-0.7-3.3-1.7-7.2-2.2-9.9-2.9-8.9 3.9-0.2-1.3-11.5-1.5-5 0.7-2.4 1.5-1z"/>
	<path id="g" d="m6812.1 7143.4c-0.8-1.4 7.8-2.2 18.1 0 11.6 4.3 17.2-1.5 18.1 0 1.3-2.1 2.4-4.1 7 0.6 7.7 10-1.7-9 5.9 1.7-1.2-6.7 7.5 5.3 8.6 5.8 0.5-0.6 2.7 3.3 4.8 8.3-3-3.9 6.3 14.6 1.5 9.6 5.9 13.5 2 10.9-1.5 9.6 3.6 8.7 3.9 11.9 0.7 9.1-3.3-3-3.5-0.3-5.6-0.8-4.9-7 0.5 4.1 1.7 7.7-1.6-1.2-4.1-3.7-1.1 3.1 3.9 8.5 3.9 10.3-1.6 2.6-2.6-2.6-3.5-2.4-7.6-7.5-4.4-3.8 3.5 13.8-5.9 1.7-0.4 3.4-8.8-7-7 0.6 2 3.4-0.1 1.8-2.8 0.2s-6-3.3-6.5-0.2c-6.1-6.5-8.2-6.2-8.9-4.4-1.2 1-6.6-6.3-0.4 4.4 4.4 7.6-2.8-3-1.6 1.7-2.9-2.2 1.7 9.3 1.6 12.8-4.6-4.3 2.3 11.3 1 11.6-0.2 2.3 4.3 12.1-1 2.9-4-7-1.3 5.5-8.8 0-0.4 6.9-13.7-8.5-8.8 0 1.3 2.2-1.3-7.2 0-12.6-0.2-4.1-5.1-17.1-1.8-16.2-2.8-9.6-2.2-13.5 1.8-11.7-1.5-7.6-2-13.7-2-18.3 0.1-4.6 0.8-7.7 2-9.6-1.7-10.8 3.5-6.7 0.1-12.7zm31.4 38c8.9 11.9 1.4-4.6 5.9-0.5-2-4.3 2.9 3.3 7.2 9.8-0.1-1.1 0-1.7-0.6-3.7 2.7 2.9 6.3 7.5-1.6-7.8 3.8 3.2 7.3 6.1 3.4-3.7 9.6 13.5 1.2-3.8 1.3-6.2-1.7-4.2 6.2 8.5-3.5-9 9.2 15.2 3.1 4.4 2.2 2.7 9.1 15.6-3.6-5.5-3.4-3.7-8.1-13.2-8.4-12.7-5.4-6.5-2.7-3.6-3.8-4.2 0.5 4.8-4.3-4.5-6.2-4.6-5.9-0.5-1.2-2-5.4-3.3-6.9 0-6.4-5.2-6.6 0.4-6.9 0-3.5-6.1-0.4 5.4 0 12.1-4-0.9-4.8 3.9 0 12.1 1.1 1.9 5.1 2.9 6.9 0 2.3 1.1 3.6 0.2 6.9 3.8-0.2-2.2-0.8-4.7-0.1-3.7z"/>
	<path id="h" d="m6899.8 7225.7c-0.7 2.2-3 1-5.2-0.8-0.6 1-5.5-5.9-3.4-1.5-10.4-17.9-6.6-15 0-7.2 2.4 0.6-10.2-24.9 0-7.2 8.5 13.7 3.7 4.2 3 1.2-2.5-6-3.2-9.5 4.3 0.5 1.8-1.6 8.7 6.2 6.6-1.4 2.6 0.6 3.5-1.5 3.1-5.3-9-15.6-1.6-2.9 0.1-0.1-1.1-2 4.4 7.3-5.1-9.4 3.1 5.1-0.1-0.7-3.7-7.2-5.5-9.7 0.5 0.5-0.5-1.3 2.1 3.5-4-7.2-6.9-12.4-7.3-12.8-3.7-6.7-6.7-12.1 3.4 5.7-6.3-11.2-0.7-1.7 3.3 5.5-4-7.5-3.6-7.1 0.6 0.8 2.5 4-4.2-7.8 4.7 7.9 2.2 3.6-0.8-1.7-0.3-0.5 0.6-1.1 0.9-3.7 7.3 9.5 6.8 4.3 9 3.7-1.1-6.2 8.4 6 9.3 4.2-3.3-9 1.5-2.7 0.7-4.2 4.8 8.4-0.2 0.2 5.7 10.9-0.3-0.3-2.2-3.5-1.5-2.1 2.8 5 7.5 13.3 4.8 8.9-6-10.2-1.6-2.4 1 2.3-2.7-4.5 2.6 4.9 6.1 11.2 0.2 0.6 6.5 11.8 5.7 10.7-2.5-4.2-8.6-14.5-0.1 0.2 4.2 7.2-3.7-8.4 2.3-1.3 1.3-1-3.2-13.4 2-9.7 2.9-0.2-2.9-16 5.2-7.9-3.1-8.2-3.4-11.8-0.9-10.3 5.3 6.3 1.2-3.6 3.5-2.1 1.7 0.4-7.6-18.3-3.1-12.6-0.4-2.9 0.6-3.1 4.7 2.4 1.3-0.9 7.2 7.2 2.6-0.7-1-1.8-0.5-2.9 1.4-2.7 0.7-1.7 5.4 2.4 7.9 2.7 6.1 2.6 4.8-7.6 9.2 0-3.1-5.4-2.7-4-3.8-4.5 0.7 2.5 1.2 5.3 1 7.4 2.9 7.4-5.9-5-2.1 4.7-1.5 0.6 1.4 9.2-1.6 7.8 4 8.9 3.1 9.2 2.4 10.1 0.1 2.2 0.1 4.3-3.2 0.5 1.9 5.3-1.7 1.3-4.4-1.2 2.7 6.8-3.9-2.5 1.2 8.6-6.3-6.7 1.5 11.3-3.8 6.2 1.6 4.8-5.9-6.1 0.9 7.7 1.6 4.8 0.3 4.4-5.2-3.2 2.2 7.6-5-1.2-1.9 7.4-3.5-2.8-10.5-12-1 6.7 1.1 6.7-0.1 7.4-3.7 1.3 1.5 6.3 1.4 9.5-1.8 7.3-7.1-8.9-6.8-5.3-3.6 3.3-10.2-11.5-3 6.8-6.1 7.1 1.5 8.3-4.8 2.9-7.2 4 1.2 4.7 0.6 6.5-1 6.3s-4.3-1.6-7.8-4.9z"/>
	<path id="i" d="m7021.1 7226.1c-0.8 3.1-6.4-2.7-7.3-0.7 1.3 5.9-5-1.9-6.7-2-2.6-1.7-4.6-2.7-6-3.2-2.1-1.7-1.2 1.5-5.1-4.3-6.6-10.3 0.8 3.2-4.3-5.4-3.6-6 5.1 8.9-3.3-6.4 3 4.6-3.5-7.8-2.3-7.3-1-3.3 0.6-2.5-1.2-8.1 0.4 0.7-7.1-6.6-7.4-1.5-5.1-3.3-7-0.9-5.6 1.5-1.9-3.2 4.2 9.5 0.9 7.1 0.5 4.1 1.4 10.1-0.9 10.6-3.3-1.3 1.4 11.4 0.1 12.3 1.2 5.4 1.6 8.3-0.1 5.4-1.4-2.4-3.5 1.7-8.8 0-3.1 2.4-8.4 0.8-8.8 0 3.2 5.5 4 1.9 0-12.6-0.7-3.1 0.5-3-1.2-8.2 1.4 0.2-5.4-13.8 0-6.8 4.4 2.9-0.4-10.6 1.2-12.8 2.6 1.9 1.1-3.2 0.5-6.7 0.1-2.3-9.7-21.7-0.9-8.9 4 4.5 4.3 2.7 3.5-0.8s-2.7-8.8-3.1-11.4c7.3 8.8-0.4-7.6 2.1-5.5 0.4-1.5-0.6-4.5-2.1-7.2 0.3 0.6 0.7-6.4 8.8 0 2.9-2.7 9.7 1.5 8.8 0 1.4 2.5 1.2 4 0.6 5.9s-2.7 2.1-0.6 9.6c-1.4 1.4 1.1 9.6 1 12.4-3.5-3.1-4.6-3.2-1 3.1 9.2 15.9 5.1 3 6.7 0 0.3-5.3 1.6-8.9 6.7 0-1.2-5.3 0.6-5.7 1.7-7.2 6.1 7 2.7-2.4 2.6-6.4-1.1-5.6 3.2-2.1 3-6.3-1.2-6 1.8-4.9 4.6-4 3 1.2 6.5 3 5-3.8 3.2 1.4 4.5-0.5 5.7-2.8-1.7-7.1 7 3.6 6.3-1.7 5.8 5.7 5 0.3 7-0.6-0.2-5 7.1 3.5 7.7 0.8 4.5 4.1 4.8 1.3 7 2.3 0.4-2.2 3.8 1.5 6.2 3.7 1.3 0.3 7.6 10 5.2 5 6 9.5 5.6 8.5 4.2 6.2-0.3-0.4-2.1-2.9 3.2 7.3 7 13.2 1.7 5.7 2 8.2 1.9 5.4-3.8-1.8 0.7 9.1 1.4 5.5 0.2 6.9-0.7 9-5.4-5.7-1.3 5.2-2 8.2-5.7-7.8-0.9 2.5-5.1-2.5-2.2-1.7-3-0.9 1.9 9.7 4.8 10.5 4.5 12.1-0.1 6.4-2.1-1.4-1.9 1.1-4.1-0.3-1.6 1.9-3.5 3.2-5.2 4.9 0.2 5.1 1.6 12.3-6.2 3.7-1.8 1.7-0.1 9.6-7 2.3 3.6 11-6.5-1.8-7.8 0.7zm0.1-14.9c11 14.1 1.7-7.1 7.6-1.8 2-1.7-1.2-12.4 5.8-5.5 2-1.8-1.9-13.6 3.7-8.7-2-5.9 3.6 1.4-1.4-9.5-2.9-7.4 0.7-3.3 2.6-2.1 6.7 7.3 1.7-4.4-1.2-11.5-1.6-4.7 1.5-0.1-3.7-8.6-4.9-8-4.3-5.5-5.9-5.4-2.4-1.4-1.8 3.5-7.8-1.8-1.9 1.7-4.2 2.8-7.7 1.9-1.5 2.6-10.2-7.2-5.9 5.4-1.6 2.3 1 11.8-3.7 8.6-1.5 2.3-2.5 5.1-1.3 11.3-0.2 1.9-1.7 1.2-2.2 1.8-0.6 0.6-0.2 2.6 3.5 9.8 0.8 2.3 1.6 4.5 3.6 8.3 0.4 1.1 3 5.6 0.1 0.4-3.7-6.9 1.9 1.3 6 5.5 3.5 3.2 8.1 7.3 7.9 1.9z"/>
	<path id="j" d="m7161.1 7224.3c-0.8-1.4-6.2-9.2-6.8-7.2-3.1-2.4-10.8-11.4-3 7.2-6.7-6.4-2.5 7.2-10.6 0-2.6 2.4-10.6-4-12.9 0-3.1-1.5-6.1-2.6-8.9-3.3s-5.4-1.1-7.7-1.1c-2.9 3.2-6.9 4.4-11.4 4.5-8.9-7.5-6.6 4-12.1 1.3-2.2 3.1-6.8 1.4-11.3-1.3-0.4 4.5-3.3 3.7-8.1-1.6-6.9-9.1-5.4-4.7-1.7 1.6 1.3 2.2-2-4.7-1.3-5.8-2.2-5.9-3-10.5 1.3-6.8-2.8-8.7-1.8-11.4-2-16.4 0.1-4.5 0.5-9 2-11.4 2.4-0.9 5.4-0.7 3.2-9.2-5-13.4-5-17.8-3.2-18.6-2.5-11.8-1-14.3 0-12.6 5.1 8.9 3.8-1.1 8.8 0 1.7-4.6 7.4-2.5 8.8 0-2-3.5 5.5 13.6 0 10.3-3.1-2.3-2.2 2.8-2.5 6.2 3.7 10.3 1.8 11.1 2.5 16.4-1.8 1 0.6 9.2 0.6 13.1-0.1 3.6-1.4 5-0.6 9.6-3.1-2.2 1 7.4 1.6 10.2-0.3 1.3-0.9 1.3-1.6 0.1 3.9 6.8 4-3.5 12.2 0 3.9 1.5 1-8.7 3.9-7.6 0-3.9 3.3-0.9 8.2 7.6-0.2-0.4 1.4 1.4 2.3 1.1 0.8-0.5-1.3-6.6-2.3-11.4-2.7-6.2-5.9-13.4-1.2-7 1.3 0.4 2-0.2-0.5-6.4 3 1.3-0.1-8.1 1.7-9.2 0.3-3.5 3.4-2.4 1.1-10.2-0.2-4.1-4.5-15.3-1.1-12.4-1.1-8.1 0-10.2 0-10.3-2.2-3.8-0.8-3.3 1.5-2.1 5.3 6.3 10.3 11.2 7.3 2.1-0.5-8.5 13.1 7.5 8.8 0-1-1.7 4.1 11.2 0 10.3-2.1-0.6-7-5.5-2.7 5.8-2.3-0.1-1.9 4.8 2.7 16.9 1.4 6.5-0.2 7.9-0.7 10.9-0.1 3.7-3 2.3 0.7 11.7-3.7-0.2-1.8 7.2 0 10.3 0.1 0.1 0.3-2.1 1.9-3.2 1.3-1.6 3.7-2.8 10.2 3.2 5.5-0.9 15.7 6.2 12.2 0 3.2 5.6-4-11 0-10.3 1.8 0 1.8-3.6 0.4-9.8-2.1-7.5 3.8-1.5-0.4-12.9-1.6-6.8-1.1-10.2-0.5-13s1.4-5.1 0.5-9.7c1.5-3.6 0.4-9.7 0-10.3 3.5 6.1 2.9-2.7 8.8 0 2.2-3.9 11.8 5.1 8.8 0 2 3.5 8 18 0 10.3-0.7 1.8-1.7 3.7 0.4 11.2 1.6 6.6-3.9 1.2-0.4 11.4-3.7-2.2 2.9 13.3-1.6 9.3 1.3 6.1 2.3 11.5 1.6 13.4-2.4 2.1 3.9 17.1 0 10.3-4-6.9 7.9-1.7 8.9 0 7.8 13.6-3.6-4.2-1.5 2.5-6.5-8.1 6.3 18.3 1.5 14.2 0.8 5.5 2.6 12.9 0 11.5-3.9-3.7 7.3 17.8 0 5.2 6.7 11.7 4 13.8-8 0-3 1.7-11.4-5.8-8 0-5.3-9.2 2-1.2 0-9.2-5.3-14.4-1.5-12.4 0.2-9.4z"/>
	<path id="k" d="m7183.2 7143.4c-1.6-2.8 5.9 7.3 5.3 1.5 2.2-1.1 2.6-7.1 10.3-1.5 2.7 0.8 2.4-3.8 7 0 2.6 0.4 7.8 5 7.4 0 2-0.8 3.6-2.4 7.4 0 3.4 1.7 2.9-3.4 7 0 4.1-0.7 6.8-2.7 11.1 0 1.3-2.5 3.6-1.4 4.5 0 3.2 5.6-5.7-6.2 0 7.5 2.6 8.2-7.4-5.3 0 7.5-2.4-4.1-5.1-6.7-6.8-6.3-4.6-4.5-1.5 5.5-4.2 6.3 1.4 7.8-7.5-1.4-10.2 0-5.6-3.6-8.8-3-10.2 0-7.3-1.8-13.5-4.4-11 0 0.1 0.1 0.2 4.8 0 8.7 2 7.7-1.8 5.6 0 8.7 3.1 5.4 1.4-1.7 6.2 0.2-0.2-3.5 4.4 0.8 6.8 1 2.6 0.6 3.3-2.5 6.4-1.3 2.6 0.3 4.8-0.1 7.1 0 5 4.7 5.1 1.2 6.2 0 1.3-4.1 6.5 0.7 6.1 0 0.4 0.7-5.2-8.1-3.7-4.3-0.3 0.8-2.1-0.7 3.7 11.2 0.1 1.9-3-1.8-4.2-2.5-2.4-3.5-0.6 0.2-1-0.1-0.1 0.2 7.6 13.7 5.1 9.5-3.8-6.7-1.1 2.2-6.1 0 2.9 8.1-5.1-2-6.8-1-3.7-2.5-6.5-3.1-6.6 1-2.4 0-1.4 5.9-6.9 0.4 0.4 4.6-7.5-5.3-6.8-1 3.9 9.9 0.6 6.8 1.2 9.7-0.6 0.8-6.5-8.3-7-9.2 2 3.4-1.4 2.6 0 9.9 4.9 13.5-3 4.7 0 9.9-2.8-4.9-1.7-5.1 2-2.2s8.6 6.5 9.3 2.2c3.3 0.2 7 0.3 10.6 0.3s7.2-0.1 10.2-0.3c10.9 7.8 10.4-1.5 11.2 0 3.1 5.4 3.9 10.6 0 7.5 2.7 8.5 2.5 11.8 0 7.5 2.7 4.7-2.5-1.3-4.5 0-1.3 2.7-6.8 0-11.3 0-5.5 6-21.1-1.4-29.4 0-7.5 2.7-20.5-8.1-15.8 0 1.6 2.7 0.3-4.6 0-12.6 0.3-3.3-2.3-12.1 1-11.3-1.7-5.3 0.8-3.4-1.7-10.2 2.8 2.3-0.6-6.1 0.7-6.3-0.7-3.8 0.6-4.1 0.3-6.9 0.9-0.9-1.5-7.5-0.2-7.6 1.7 0.5 1.3-2.4 2.1-3.3-2.2-6-4.5-12-2.2-10-3.4-9.6-3.6-13.2-1.7-12 3.5 3.1 4.3 3.1 2.1-0.6z"/>
	<path id="l" d="m7253.3 7143.4c3 5.2-8.5-17.7 2.7-3.1 3 2.9 4.9 3.2 7.2 4s4.4 0.8 5.7-0.8c5.4 1.7 11.2 3 16.2 3.1 5.2 0.3 7.2-4.9 12.7-3.1 8.5 7.1 7.8-1 12.1 1.7 3.9 1.9 0.8-6.4 3.5-1.7-1.5-2.5-0.5 2.8 0 7.5-2.5-0.5 1.3 9.7 0 7.5-3.9-6.8-2-1.4-4.4-2.3-0.3 2.9-2.3 4.2-6.6 2.3-2.7 0.8-6.3 0.6-7.6 4.6-6-4.3-9.5-4.3-12.9-4.6-6.1 0.3-11.3-0.5-11 0-1.6-2.7 0 4.4 0 8.7-4.7-5.9-3.9-2.4-4.1-1.1 3.9 8.5-1.3 0.4 4.1 9.8-3.3-5.8 0.3-3.6 4.6-2.6 8.2 7.9 9.6 1.8 14.9 2.6 8.7 6.6 9.8 0.1 12.6-1.4 1.5-3.8 6.3 0.3 6.9 1.4 1.1 1.9-4.1-6.2-3-3-0.2 1 0.2 3.4 3 9.9 1.5 6 3.1 12.3 0 6.9 1.4 2.4-0.3 3.7-5.8 0.5-3.5 0.3-7.9 1.1-13.6-0.5-8.4-6.1-7.4 4-13.4-0.1-3.7 0-5.2 1.6-6 0.1 2.8 4.8 8.7 16.2 5.5 12.7-3.3-3.8-1 2.7-5.5-2.8 1.7 8 0.6 11 0 9.9 0.8 1.3 5.4 1 11.2 0 6.2 5.1 10.1 5.7 13.2 4.7 3-1 5.2-3.6 7.7-4.7 9.2 4.8 11.9 1.1 11.2 0-2.7-4.7 4.1 10.8 0 7.5-3.9-3.1-4.2 0.1 0 7.5-2-3.4-8.2-2.4-15.8 0-16.6-13.1-21.6-2.2-29.4 0-9.8-1.3-17.7-3.2-15.8 0 4.4 7.7 0.8-3.7 0-12.6 1-2.1 0.7-7.1 0.3-12.5-0.5-5.7 1.5-7.2-0.3-15.3 0.9-3.4 1.9-6.9 2.2-11 1-0.6-0.7-5.9-0.4-7.6-3.5-8.2-5.3-13.5-1.8-9.3-1.6-6.6 0.9-5.3 2.1-5.5-4-9.2-0.6-4.5-2.2-7.3z"/>
	<g id="m">
		<path id="n" d="m7702.1 7253c-1-0.3-2.1-0.4-2.9-1-7.9-5.5-7.9-5.6-0.8-12.7 4.2-4.2 4-8.6 1.9-13.7-0.8-2.1-1.6-5.2-0.6-6.9 3.7-7 0.8-20.2-6.1-24.4-4.7-2.8-9.7-5.4-14.7-7.7-1.4-0.7-3.5 0.1-6 0.3 0.9 2.3 1.6 4.1 3 7.8-4.9-2.5-8.1-4.1-12.3-6.3 2.9-1.1 5-1.8 6.5-2.4-5.9-19.6-12.1-38.9-17.3-58.4-2.4-8.9-4.6-18.4-4-27.5 0.6-8.6 4.8-16.9 7.8-25.3 1.5-4.3 3.6-8.3 5.8-13.1-1.5-0.7-3.6-1.1-5-2.2-5.4-4.5-7.9-1.7-9.7 3.4-1 2.7-1.5 5.6-2.9 8.1-0.9 1.6-2.8 2.7-6 5.6-1.7-11.1-3-19.9-4.3-28.6 1.2-0.2 2.4-0.5 3.6-0.7 0.5 1.9 1 3.7 2.1 7.9 4.7-3.3 9.3-6 12.9-9.7 0.9-0.9-1.8-5.3-3.2-8.8 3.9-5.3-2.9-19.6 10.8-18.4-3-5.9-6.2-12.2-9.4-18.6 0.7-0.7 1.5-1.3 2.2-2-3.2-0.7-6.4-1.4-11.2-2.4 0.1 0.4-0.4-1.3-0.9-2.8 2.6-1.1 4.9-2.1 8.1-3.5-1.8-2.1-2.9-3.9-4.5-5-3.7-2.5-10.5-1.7-8.5-9.6 1.2-4.6 1.6-9.5 1.8-14.3 0.2-5-0.5-10.1-0.5-15.2 0-2.9 1-5.8 0.8-8.7-0.2-3.8-1.1-7.7-1.9-12.3 11.9-2.8 18.9-19.5 35.1-14.5 3.2-4.6 6.5-8.9 9.4-13.5 3.8-6.1 9.8-7.9 16.2-9.3 1.5-0.3 3-0.8 4.3-1.6 10.1-6.3 14.9-5.3 23.2 4.2 4.7 5.3 10 10.1 14.3 14.5-3.7 4-6.3 6.7-8.8 9.4 2.5 1.7 5 3.5 7.3 5 1.7-3.3 2.7-5.2 3.7-7.1 1.7 1.4 4.4 2.5 4.9 4.3 0.4 1.6-1 4.9-2.5 5.7-7 3.8-14.1 7.4-21.6 10.3-3.1 1.2-7 0.2-12.8 0.2 2.8-3.6 4.6-5.5 5.8-7.6 2.4-4.3-4.1-24.7-8.6-26.9-1.4-0.7-3.6-0.4-5.2 0.1-4.8 1.6-9.4 3.6-13.8 5.3 1.6 1.4 3.9 3.6 6 5.5-5.7 8.7-2.9 17.7-2 26.6 0.2 2.1-0.4 4.3-0.6 6.5-0.7 0.5-1.5 0.9-2.2 1.4-1.8 1-3.9 1.7-5.2 3.2-1.6 1.7-2.5 4.1-3.7 6.2 1.8 0.5 3.9 0.5 5.2 1.5 2.1 1.6 4.1 3.6 5.2 5.8 1 2.1 0.7 4.7 1.3 9.3 2.6-5.3 4.2-8.5 5.6-11.4 2.3 2.8 3.4 4.6 4.9 6.1 2.4 2.2 2.3 11.4-0.8 13.7-5.2 3.8-4.8 9.5-1.2 12 6.1 4.3 4.1 11.6 8.3 16.1 1.7 1.8 3.3 3.5 5.1 5.5-1.2 0.3-3.1 0.9-5 1.4 0.1 1-0.1 1.6 0.2 2 3 5.4 6.1 10.9 9.2 16.2 1.3 2.3 2.3 5.8 4.3 6.7 6.5 2.7 3.2 5.8 1.2 9.1-2.3 3.6-4.6 7.1-7.5 11.5-0.7-0.2-3.1-1-5.5-1.8-2.8 10.8-2 12.1 7.8 12.3 0.7-5.7 2.5-9.9 8.3-3.3 6.2-4.2 14.8 4.4 20.4-3.8 1-1.4 3.3-1.9 5.5-3.1 3.1 16.1 6 31.1 9 47-3.7-1-5.3-1.4-6.4-1.7-3.1 10.3-5.6 20.3 1.5 30.1-6.8 2.2-9.5 5.9-5.1 12.2 0.4 0.6 0.9 1.6 0.7 2.1-6.2 12.6 0.2 25.9-2 38.9-0.7 4.4 2.8 9.3 3.4 14.1 0.5 3.4-0.9 7-1 10.6-0.3 10.9 1.2 22.1-0.9 32.7-2.3 11.4-3.6 23.2-10.6 33.9-3 4.5-10.4 11.7-3.8 19.8 0.7 0.9-0.6 3.5-1 5.3-2.3 9.9-1.2 19.8-0.6 29.8 0.1 2.3 0.3 5.8-1.1 6.8-11.3 8.9-4.8 19.8-4.2 30.2 0.1 2.4-2.2 5.4-1.4 7.3 3.2 8 1.4 13.3-4.5 20-3.2 3.6-0.6 12.5-0.6 18.9-0.8-0.3-1.6-0.5-2.3-0.8-0.7 1.8-1.7 3.5-2 5.3-0.4 2.7 0.7 6.1-0.5 8.2-3.6 6.4-4.1 13.1-4.4 20.1-0.5 9.1-5.8 18.2-1.7 27.3 3.9 8.5 3.5 16.7 0.8 25.2-1.8 5.5-3.5 11-6.1 18.7-1.9-3.7-2.9-4.9-3.1-6.3-2.8-19.8-11.9-37.6-17.9-56.3-3.1-9.7-4-20.1-6.1-30.2-1.2-5.8-2.9-11.5-3.8-17.3-0.4-2.6 0.8-5.5 1.3-8.9-1.5-0.6-3.9-1.4-6.5-2.4 5.5-5.2 15.9 2.3 20.8-9-3.5 1-5.4 1.5-7.9 2.3 0.9-2.8 1.7-5.2 3-9.1-5.9 3.8-10.9 7-16.7 10.8-8.3-17.2-7.2-35.9-10.6-53.7 3.3 4.4 6.7 8.8 10 13.3 0.9-0.2 1.8-0.3 2.7-0.5 0.6-2.9 1.1-5.8 1.9-8.7 0.6-1.9 1.5-3.7 2.5-5.4 0.7-1.2 2.8-2.8 2.6-3.1-4.5-6.5 3.8-10.6 3-16.5-0.1-0.9 1.3-2.1 2.1-3.1 2.1-2.6 6.2-5.3 5.9-7.6-0.4-4-2.9-8.2-5.5-11.5-5.2-6.4-7.5-6.1-13.5 0.1-0.8 0.8-2.1 1.2-4.5 0.9 2.6-5.5 4.3-11.9 8.2-16.3 3.7-4.2 6.7-6.8 2.7-12.3-1-1.4 0.1-4.4 0.4-8.8 4.1 7.2 7.2 12.8 10.7 19.1 1.5-1.1 3.1-3.3 4-3 11.5 3.4 8.4-5 8.6-10.5 0.2-4.1 0.1-8.2 0.1-12.3 2.7 2.2 5.5 4.5 9.2 7.5 0.3-3.2 0.5-5.1 0.7-7.1 1.8 0.9 3.7 1.8 5.7 2.7 0.3-1.5 0.7-2.3 0.6-3-0.1-3.8 2.5-9-3.9-9.7-0.7-0.1-2.1 6.1-3.1 9.3-1.5-1.6-3.1-3.3-5.7-6.1-1.2 2-2.3 4.1-3.4 6.1zm24.5-167.5c-0.3-0.5-0.5-1.1-0.8-1.6 2-1.2 4.1-2.3 6.8-3.9-3.6-1.1-6.2-1.8-8.8-2.7-2.1-0.7-4.1-1.8-6.1-2.7-0.4 2.5-1.8 5.5-1 7.5 2.7 7 6.3 13.8 9.2 20.1 7.5 1.5 12.2 0 11.3-9.3 2.9 3.6 5 6.1 8.3 10.3 2-1.4 7.1-3.8 6.9-5.1-0.9-4.1-3.8-7.8-5.8-11.7-2.2-4.3-4.2-8.8-6.6-13.9-0.8 0.5-2.7 1.9-4.6 3.3 1.3 1.6 2.5 3.2 3.9 5-4.3 1.6-8.5 3.1-12.7 4.7zm-28 229.9c11.9-3.6 12.1-3.8 11.4-12.3-11.4 4.7-11.4 4.7-11.4 12.3zm-35.4-368.1c6.2 7.1 8.5 6.9 11.5-0.7-2.3-1.4-4.6-2.8-7-4.3-1.4 1.7-2.8 3.2-4.5 5zm12.3-26.8c1 0.5 2 1.1 3.1 1.6 1.3-1.7 2.5-3.6 4-5.1 1.2-1.2 3-1.8 3.9-3.1 0.3-0.4-1.6-3.3-2.2-3.2-2 0.3-4.6 0.9-5.8 2.3-1.5 2-2 4.9-3 7.5zm-1.7 3.1c-1.1 1-2.3 2-3.4 3 2.7 2.9 5.3 5.7 8 8.6 0.7-1.5 2.4-3.6 2-4.3-1.9-2.7-4.4-4.9-6.6-7.3zm7.5 77.5c0.2 0.7 0.5 1.4 0.7 2.1 3 0.5 5.9 1.1 10.4 1.9-1.2-3.1-2.1-5.2-2.9-7.4-2.8 1.1-5.5 2.2-8.2 3.4z"/>
		<path id="o" d="m7872.1 7441.7c4.8-1.4 8.5-2.5 14.7-4.4-10.6 27.2-20.3 52-29.9 76.6-16.1 1-29.2-28.2-19-42.1 3.4-4.6 9.6-7.2 15.8-11.6-2.8-0.7-4.2-1.6-5-1.2-5.8 2.6-7.5-0.9-6.5-5.2 1.9-8.5 4.2-17 7.6-25.1 1.6-3.9 5.9-6.6 8.3-11.8-2.6 1.1-5.2 2.2-9.7 4.1 3.3-5.2 5.6-8.9 7.9-12.6 1 0.2 1.9 0.4 2.9 0.7-3.4-7.5-8.7-14.7-9.8-22.5-1.1-7.7 2-15.9 3.4-24.7 1.6 1.1 2.8 2 4.7 3.4 2.9-6.5 0-12.2-1.5-18.1-1.7-6.7-3.4-13.5-4-20.4-0.7-7.8-0.2-15.7-0.2-23.5 0-2.4-0.8-5.2 0.1-7 8.3-15.6-1.2-30.2-1.8-45.3-0.5-13-0.5-26.2 2-38.9 1-5.2 10-8.1 16.2-7.8 3.4 0.2 6.5 5.4 10.3 8.8 8-5.2-0.6-15.3 5.9-23.8-9.6-3.4-18.1-6-26.3-9.6-2.4-1-5.4-5-5-7 1.6-8-3.2-13.8-5.5-20.6-2.1-6.4-3.6-13.1-4.8-19.7-0.3-1.7 0.6-4.5 1.9-5.6 5.4-4.5 3.2-8.8 1.1-14-2.9-6.8-5.5-13.9-6.8-21.1-0.7-4.2 1.4-8.9 2.4-13.4 2.1-9.6-1.8-18.7-2.4-28.1-0.3-4.8 1.2-9.7 2.2-14.6 0.3-1.7 2.1-3.3 2.2-5 0.7-11.7 3.6-24.1 1-35.1-2-8.1-2.6-16-3.4-24-1.2-11.8 0.9-22.1 12.1-28 7.7-4.1 5.8-11 6.6-16.9 4.1-2.2 9-3.8 12.3-6.9 4.8-4.6 10.1-6.8 16.2-5.4 12.1 2.8 23.9 6.8 36.1 9.4 8.2 1.7 9.7 6.6 12.8 13.8 5.6 13 5.8 26.8 7.6 39.6 1.9 13.8-1.6 29.5-11.9 42-4.1 5-4.5 13-8.5 18.2-7.3 9.5-6 20.9-8.8 31.3-1.6 5.8-0.3 12.4-0.3 17.6-7.2 2.8-12.7 4.9-18.3 7.1v8.5c-0.4-0.2 0 0.2 0.5 0.2 13.1 0.5 15.5 2.7 15 16.8-0.4 11-1.4 22-2.2 33.7-1.8-0.2-3.9-0.5-5.9-0.7-0.2 0.6-0.4 1.3-0.6 1.9 2.1 0.8 4.2 1.5 6.8 2.5-2.1 3.9-7.1 7-4 12.5 0.3 0.5-2.4 2.5-3.7 3.9-0.9-1.3-2.6-2.6-2.7-4-1-9.5-1.9-19.1-2.3-28.6-0.1-2.8 1.7-5.7 1.7-10.5-2.7 1.8-5.3 3.6-8 5.2-1.9 1.1-3.9 2.5-5.9 2.7-5.8 0.6-8.4 2.9-7.7 9.2 0.8 8.5 0.6 16.7 6.4 24.4 2.9 3.8 1 11.1 1.9 16.7 0.4 2.4 2.2 4.5 3.4 6.7 0.9-0.4 1.7-0.8 2.6-1.2-0.2-1.8-0.4-3.6-0.7-5.8 7.2-0.9 7.9 4.7 9.2 8.8 0.5 1.6-1.2 3.9-2.2 6.9 1.4 13.2 3 27.9 4.6 42.6 1 8.8 2.3 17.6 3.1 26.5 0.2 2.8-0.9 5.6-1.1 8.5-0.5 6.2 1 13.4-1.5 18.6-6.6 13.2 4.3 29.7-8.9 41.6-1.4 1.2 2.3 8.1 4.1 13.7-3.7 4.4-11.3 10.3-1.2 18-3.3 2.9-5.8 5-8.4 7.2 11.1 8.5-2.8 19.7 4.3 29.1-6.9 4.3-13.4 8.3-20.7 12.9 13.2 7.2-1.9 12.8-0.8 19.9zm-31.4 38.2h14.8c-4.6-9.3-8.1-9.5-14.8 0zm84.5-498.1c0.8 0.8 1.5 1.6 2.3 2.4 5.3-0.5 8-3.5 5.9-11-2.8 2.8-5.5 5.7-8.2 8.6z"/>
		<path id="p" d="m7560.9 7047.1c1.8 0.3 3.6 0.5 4.8 0.7v15.8c-1.6 0.3-3.3 0.7-5.1 0.9-1.5 0.2-3.1 0.3-4.2 0.4l-5.9 11.8-1.8-0.9c1.2 2.6 2.4 5.1 3.5 7.6-2.8 1.6-5.1 2.8-7.6 4.3-0.7-2-1.3-3.9-1.9-5.8-0.5 0.1-1 0.1-1.5 0.2-0.4 3.4-0.8 6.8-1.3 10.8 2.3 0.2 4.3 0.4 6.3 0.7 0.5 2.4 1 4.9 1.4 7.4-5.2 2.5-10 4.9-14.9 7.2 0.1 0.5 0.3 1.1 0.4 1.6 2.9-0.1 5.8-0.3 6.8-0.3 3.2 3 5.2 5 7.2 7v-8.2c10.8 8.4 9.8 8 8.3 12.6-2.4 7.1-3.1 14.9-13 17.5 1.6 2.4 3.2 4.1 3.8 6.2 0.9 3.2 2.7 8.4 1.3 9.6-4.8 4.3-1.7 6.8 1.8 11.4-5.7 1.5-10.7 2.9-15.5 4.2 5.8 9.7 18.1 13.1 19.5 25.1 0.2 1.7-0.1 3.5-0.1 5.3 0 2.2-0.3 4.4 0.1 6.5 1.5 8.1 6.5 16.5-2 23.7 7 4.5 7.1 5.8 0.8 11.3 5.1 7.7 3.3 21.5-1.7 29.2-2.8 4.4-2.5 10.9-3.4 16.5s-1.7 11.2-2.5 16.9c-0.1 0.8-0.7 1.5-0.7 2.2 0.3 22.5-5.8 44.3-6.3 66.8-0.4 17.7-3.6 35.2 2.7 51.4 2.8 1.1 5.2 2 7.1 2.7-4 4-8.7 6.6-9 9.5-0.9 9-0.1 18.2 0 27.3h2.4c-1.1 1.3-3.4 2.8-3.2 3.9 1.7 9.4-3.2 17.6-3.9 26.5-0.1 1.8 2.1 3.8 1.9 5.6-0.3 2.6-1.7 5.1-4 6.9-1.9-12.5-3.4-25.2-5.9-37.6-3.4-16.9-7.5-33.7-11.2-50.6-0.8-3.5-1-7.2-1.4-10.8-1.7-14.8-3.2-29.7-5-44.5-0.3-2.2-1.9-4.3-2.9-6.4-1.8-3.7-2.7-6.6 1.5-10.3 2.7-2.4 3.3-7.7 3.6-11.7 0.1-1.2-3.9-3-6.2-4-2.2-1-4.8-1.2-6.8-1.7 2.8-3.8 5.9-6.4 6.6-9.5 0.3-1.4-4.2-3.8-7-6.2 1.8-6.6 4.4-14.3 14.6-17.2-9.9-1.2-20.2-0.7-21.9-13-0.3-2 1.3-4.3 1.6-5.2 5.7 3.5 10.4 6.5 17.6 10.9-0.6-4.3-1-6.6-1.2-9-0.1-2.2-0.2-4.5 0.3-6.6 0.8-3 2.5-5.8 3.2-8.8 1.9-8.2 4.1-16.4-1.6-24.3-0.6-0.8 1.4-3.1 1.8-4.9 0.8-4.2 1.3-8.5 1.9-12.8 0.8-4.7 1.6-9.3 2.4-14 0.2-1.3 0.7-2.8 0.3-3.9-2.6-7-2.7-7 6.5-8-1.7-5.2 3.5-12.6-8.5-15.5 4.6-4 8-7.1 12.8-11.3-3.8-2.4-7.2-4.5-11.4-7.2 4.4-1.3 8.6-2 12.3-3.7 1.9-0.8 3-3.4 4.5-5.2-0.3-0.9-0.7-1.8-1-2.7 3.7 0.6 7.4 1.2 12.4 1.9-1.6-2.7-3.5-8.1-5-8-5 0.4-9.9 2.8-14.7 4.3-1.5-6.7 0.4-9.7 10.4-14.1-5.5-3-10.6-5.8-15.6-8.6 0.3-0.7 0.7-1.4 1-2.1 2-0.3 4.5 0 5.9-1.1 1.7-1.4 3.8-4.2 3.5-6.1-0.4-3.2-2.8-6-3.9-9.2-0.9-2.6-1-5.4-1.5-8.1 2.6 0.3 5.2 0.6 8.9 1 7.6-7.1 7.2-8.7-4.3-14.2 1.7-2.3 3.5-4.7 6.3-8.4-6.3-0.5-10.5-0.8-16.9-1.2 3.4-4.9 5.3-10.6 9-12.3 4.5-2 10.5-0.5 16.2-0.5 0.7-4.4 1.8-10.9 2.9-17.9h5.2l-0.2-0.2c1.5 4.5 2.9 9.1 4.3 13.3 8.6-2.2 5.3-8.4 5.5-13.4z"/>
		<path id="q" d="m7551.4 7047.1c-0.9-1.1-1.6-3.1-2.7-3.3-3.5-0.6-7-0.6-10.6-0.9-1.6 2.2-3.8 5.1-7 9.4-1.6-7.7-2.6-12.6-3.8-18.2 1.3-0.9 4.4-3.1 7.5-5.3l-1.2-3c-4.1 0.5-8.3 1.1-12.2 1.6 1.6-5.3 2-13.5 12-5.5-0.4-1.8-0.9-3.6-0.8-3.4 2.3-3.6 3.9-6 5.4-8.3-0.8-0.7-1.6-1.4-2.5-2.1-2.5 1.9-4.9 3.8-7.3 5.7-3.3-5.8-6.7-11.7-10.2-17.7 0.3-0.3 0.6-0.5 0.9-0.8 4.3 2.8 8.7 5.6 13 8.4l1.8-1.2c-1.3-2-2.6-3.9-3.9-5.9-1.5-2.3-3-4.6-4.5-6.9l1.5-1.8c-3.7-1.4-7.5-2.7-11.3-4.1-0.1-1.2-0.2-3.7-0.3-6.2-2.2 0.3-4.4 0.9-6.6 0.7-3.8-0.4-8-0.5-11.2-2.2-3.5-1.9-6.2-5.3-9.1-8.3-0.6-0.6-0.8-2.4-0.4-2.8 0.8-0.8 2.2-1.5 3.3-1.4 3.4 0.3 7.1 0.3 10 1.7 6.2 3.2 7.4-2.5 6.6-4.9-2.1-6.3 1.9-5.4 4.9-4.7 5.8 1.3 11.4 3.4 17.5 5.2-1.3 0.9-2.9 2-5.5 3.8 4.2 2.6 7.8 5 11.5 7.2 2.1 1.3 4.8 1.9 6.4 3.6 2.6 2.8 17.8 8 20.9 6.2 1.1-0.7 1.6-2.5 2.6-4-2.8-1-5.2-1.6-7.4-2.6s-4.3-2.3-6.8-3.6c5.4-2 10.2-2.1 13.8 3.4 5.4 8.2 4.3 17.8-3.6 26.1-0.3-2.4-0.5-4.3-0.7-6.5h-7.7c2.1 4.1 9.2 7.4 1.7 13.1 2.2 0 4.4-0.2 6.6 0.1 2.6 0.4 5.7 0.6 7.7 2.1 0.9 0.7-0.1 4.1-0.3 6.3-0.3 3.3-1.2 6.6-1.1 9.9 0.2 8.4-4.3 14-12.4 15.2 1.5 1.7 3.2 3.7 4.9 5.6l0.1-0.3h-9.8zm12.9-25.7c-5.1-3.6-8.5-6-11.5-8.2-3 4-5.9 7.8-8.6 11.4 1.2 2.5 2.3 4.7 3.4 6.9l2.7-2.1 2.1-6.3c3.3-0.4 6.6-0.9 11.9-1.7zm-31-29.3c4.2 3 7.7 5.8 11.5 8.1 1.4 0.9 4.3 1.4 5 0.7 1.3-1.2 1.5-3.7 2.1-5.6-0.9 0.4-1.9 0.8-2.8 1.1-3.7-4-7.3-8-11.1-12.1-1.6 2.7-3.5 5.9-4.7 7.8zm22.6-8.7c-4.8 0.7-8 1.1-11.7 1.6 4.9 8 6.3 7.9 11.7-1.6z"/>
		<path id="r" d="m7736.8 6994.7c3-1.5 6.1-3 9.1-4.4l-1.5-0.9c3.1-4.1 5.8-8.6 9.4-12.2 5.2-5.2 5.2-11.2-0.8-16.1-0.8-0.6-1.2-1.6-1.1-4.3 3.5 1 7.8 1.1 10.4 3.2 5.8 4.8 5.6 11.3 1.6 17.4-2.7 4.2-4.6 7.6-0.9 12.6 1.9 2.6 1.9 6.4-3.2 7.7-3.5 0.9-6.7 3.2-11 5.4 3 1.2 5 2 8 3.3-6.1 6-14.6 10.3-10.1 21.5-1-0.2-2.1-0.3-3.1-0.5-1.6-5.2-3.1-10.4-4.8-16-5 1-9.9 1.9-17.3 3.3 3.1-4.9 5.5-8.5 7.8-12.2l-0.3 0.1c3.2 2.2 6.4 4.3 11.8 8-1.5-6.6-2.6-11.4-3.6-16.1z"/>
		<path id="s" d="m7906.4 6904.8c-6-0.3-12-0.9-17.9-0.6-3.3 0.1-6.5 2.3-9.9 2.6-6.2 0.4-12.5 0.1-18.8 0.1-0.2-9.7 3.4-13.4 12-13.5 12.3-0.1 24 2.4 35 7.6 0 1.3-0.2 2.5-0.4 3.8z"/>
		<path id="t" d="m7746.5 7042.5c0.2 3 0.3 6 0.5 10.4-2.6-0.6-7.2-0.6-7.8-2.1-1.1-2.6-0.6-6.9 1-9.4 2.3-3.6 6.4-6 9.1-9.4 1.8-2.3 2.5-5.4 3.6-7.9 1.6 0.6 4.4 1.6 7.2 2.6-0.1 6.1-11.6 12.1 1.9 18.7-4.2 1.1-6.8 1.7-9.8 2.5-1.1-1.9-2.2-3.8-3.2-5.6-0.8 0-1.6 0.1-2.5 0.2z"/>
		<path id="u" d="m7729.1 7002.5c-3.9-0.5-7.8-1.3-11.6-1.4-6.9-0.1-5.4-4.7-5.3-9.3 11.9 3.1 12.5-8.3 18.9-13.3 1.7 2 3.9 4.7 6.3 7.6-2.1 1-3.7 1.8-5.3 2.6 1.8 2.3 3.3 4.2 4.7 6l0.2-0.3c-5.8-0.4-7.3 3.6-8.2 8.1z"/>
		<path id="v" d="m7949.3 7026.4c-2.7 10.6-5.1 19.9-7.4 29.3-1.5 6.3-2.7 12.6-4.4 18.9-0.5 1.6-2.4 2.9-4.6 3.8 6.2-17 1.3-37.5 16.4-52z"/>
		<path id="w" d="m7730.4 6962.6c-8.8-5.4-9.7-6.8-8.5-13.5-7.3-0.1-9.2-3.4-6-9.3 5 4.8 9.7 9.4 15.8 15.3 0.6-5.6 1-8.8 1.4-12.5 3.1 0.2 5.9 0.4 8.2 0.5-3.7 6.6-7.3 13.1-10.9 19.5z"/>
		<path id="x" d="m7506.9 7050.7c3.5 3 4.4 11 11.6 4.7 0.3 3 0.6 5.7 1.1 10.9-4.6-2.3-8.7-3.3-11.3-5.8-6-5.7-12-4.8-18.7-1.3-0.5-3.4-1-6.7-1.6-10.7 6.6 1 11.8 13.1 18.9 2.2z"/>
		<path id="y" d="m7688.8 6942.3c0.8-0.5 1.5-0.9 2.2-1.4 3.6-0.9 7.3-1.9 12.1-3.1 0.3 5.3 0.5 9.4 0.7 13.4-0.3 0.1-0.6 0.3-0.9 0.4-1-2-1.9-4-3.7-7.5-1.2 4-2.1 6.7-2.9 9.5-6.4-1.2-7.1-6.2-7.5-11.3z"/>
		<path id="z" d="m7685.8 7255.1c-3.9-2.1-8-4.1-11.8-6.5-0.8-0.5-0.5-2.6-0.8-4 4 0.7 8 1.2 11.8 2.3 0.5 0.1 0.1 3.9-0.3 5.9-0.4 1.9-1.4 3.7-2.1 5.6 1-1.1 2.1-2.2 3.2-3.3z"/>
		<path id="aa" d="m7516.3 7026.3c-1.1 6.5-2.2 12.9-3.3 19.4-0.8 0-1.6 0-2.4 0.1-2.6-3.8-5.3-7.7-7.9-11.5 0.3-0.4 0.7-0.8 1-1.1 2.2 1.7 4.4 3.4 8.3 6.3 0.7-5.3 1.3-9.3 1.8-13.2h2.5z"/>
		<path id="ab" d="m7680.8 7214.4c-6.7-1.1-10.7-1-7.2-7.6 1.2-2.2-0.3-5.9-0.6-9.4 2.8-0.5 5.5-0.9 8.7-1.5 1.1 6-11.5 10.2-0.9 18.5z"/>
		<path id="ac" d="m7934.7 6914.5c-7.3-1.9-12.9-3.4-18.7-5 6.1-4.3 16-2.7 18.7 5z"/>
		<path id="ad" d="m7704.4 6928c-9.3 1-3.9-10.7-11-11.6 0.8-0.7 1.6-1.5 2.5-2.2l11.1 11.1c-0.8 0.9-1.7 1.8-2.6 2.7z"/>
		<path id="ae" d="m7487.6 6952.9c-6.2-5.7-4.7-9-0.4-11.4 1.7-0.9 4-0.7 6-1-1.7 3.8-3.4 7.6-5.6 12.4z"/>
		<path id="af" d="m7489.5 7193.6c-0.4-6.6-0.7-11.6-1-17.6 7.2 3.7 7.5 9.8 1 17.6z"/>
	</g>
</g>
</svg>
