<?xml version="1.0" encoding="UTF-8"?>
<!-- Generator: Adobe Illustrator 22.1.0, SVG Export Plug-In . SVG Version: 6.00 Build 0)  -->
<svg id="Ebene_1" enable-background="new 0 0 109.7 48.2" version="1.1" viewBox="0 0 109.7 48.2" xml:space="preserve" xmlns="http://www.w3.org/2000/svg">
<style type="text/css">
	.st0{fill:#EA5901;}
</style>
		<path class="st0" d="m43.2 8.8c0 5.1-3.1 8.4-7.9 8.4s-7.9-3.3-7.9-8.4 3.1-8.4 7.9-8.4 7.9 3.3 7.9 8.4zm-11.9 0c0 2.6 1.2 5 4 5s4-2.5 4-5c0-2.6-1.2-5-4-5s-4 2.4-4 5z"/>
		<path class="st0" d="m45.2 2.6c0-1.2 0.9-1.8 1.8-1.8h4.5c2.8 0 5.5 1.8 5.5 5.5 0 3.1-1.9 5.5-5.4 5.5h-2.8v3.4c0 1.3-0.8 1.9-1.8 1.9-1.1 0-1.8-0.7-1.8-1.9v-12.6zm3.6 5.8h2c1.6 0 2.4-1.1 2.4-2.2 0-1.4-1-2.2-2.4-2.2h-2v4.4z"/>
		<path class="st0" d="m58.7 2.6c0-1.2 0.9-1.8 1.8-1.8h4.5c2.8 0 5.5 1.8 5.5 5.5 0 3.1-1.9 5.5-5.4 5.5h-2.8v3.4c0 1.3-0.8 1.9-1.8 1.9-1.1 0-1.8-0.7-1.8-1.9v-12.6zm3.7 5.8h2c1.6 0 2.4-1.1 2.4-2.2 0-1.4-1-2.2-2.4-2.2h-2v4.4z"/>
		<path class="st0" d="m75.9 15c0 1.3-0.8 1.9-1.8 1.9-1.1 0-1.8-0.7-1.8-1.9v-12.5c0-1.3 0.8-1.9 1.8-1.9 1.1 0 1.8 0.7 1.8 1.9v12.5z"/>
		<path class="st0" d="m78.3 2.6c0-1.3 0.8-1.9 1.8-1.9s1.3 0.4 2.5 2l6.1 7.6v-7.6c0-1.3 0.8-1.9 1.8-1.9 1.1 0 1.8 0.7 1.8 1.9v12.5c0 1.3-0.8 1.9-1.8 1.9s-1.3-0.4-2.5-2l-6.1-7.6v7.6c0 1.3-0.8 1.9-1.8 1.9-1.1 0-1.8-0.7-1.8-1.9v-12.5z"/>
		<path class="st0" d="m107.7 7.3c1.3 0 1.9 0.7 1.9 2.2 0 4.3-2.9 7.7-7.3 7.7-5.1 0-7.9-3.8-7.9-8.4 0-4.9 3.4-8.4 7.9-8.4 3 0 6.2 1.3 6.2 3.5 0 0.9-0.6 1.5-1.7 1.5-1.3 0-2-1.7-4.4-1.7-2.6 0-4.1 2.2-4.1 5 0 2.5 1.2 5 4.1 5 1.9 0 3.3-1.2 3.4-3.1h-2.1c-1.2 0-1.8-0.7-1.8-1.7 0-1.1 0.7-1.7 1.8-1.7h4v0.1z"/>
		<path class="st0" d="m13.7 2.3c0-1.1 0.7-1.8 1.7-1.8s1.7 0.6 1.7 1.8v4.9h4.9v-4.9c0-1.1 0.7-1.8 1.7-1.8s1.7 0.6 1.7 1.8v13c0 1.1-0.7 1.8-1.7 1.8s-1.7-0.6-1.7-1.8v-5h-4.9v5c0 1.1-0.7 1.8-1.7 1.8s-1.7-0.6-1.7-1.8v-13z"/>
		<path class="st0" d="m11.3 2.9c0 0.9-0.6 1.7-1.5 1.7s-2.4-0.9-3.7-0.9c-1 0-1.9 0.5-1.9 1.5 0 2.4 7.6 0.8 7.6 6.8 0 3.3-2.7 5.3-5.9 5.3-1.8 0-5.6-0.4-5.6-2.6 0-0.9 0.6-1.6 1.5-1.6 1.1 0 2.4 0.9 3.8 0.9 1.5 0 2.3-0.8 2.3-2 0-2.7-7.6-1.1-7.6-6.4 0-3.2 2.6-5.2 5.7-5.2 1.4-0.1 5.3 0.7 5.3 2.5z"/>
	<path class="st0" d="m4.6 41.2v-14c0-1.9 1.5-3.4 3.4-3.4l20.5-1.2c-0.6-1-1.4-1.4-2.7-1.4l-21.6 1c-1.9 0-3.4 1.5-3.4 3.4v17.3c0 1.9 1.5 3.4 3.4 3.4l21.6 1c1.2 0 2.1-0.4 2.7-1.4l-20.5-1.2c-1.8-0.1-3.4-1.6-3.4-3.5z"/>
	<path class="st0" d="m31.9 42.7v-17.1c0-2.2-0.9-4.8-2.4-5.1 3.4 0.1 6.2 2.2 6.2 5.2v17.1c0 3-2.7 5.1-6.2 5.1 1.5-0.4 2.5-3 2.4-5.2z"/>
	<path class="st0" d="m45.3 24.5c0-2 1.2-3 2.9-3s2.9 1 2.9 3v17h6.1c1.8 0 2.9 1 2.9 2.6s-1.1 2.6-2.9 2.6h-9c-1.5 0-2.9-1-2.9-2.9v-19.3z"/>
	<path class="st0" d="m68.5 43.9c0 2-1.2 3-2.9 3s-2.9-1-2.9-3v-19.4c0-2 1.2-3 2.9-3s2.9 1 2.9 3v19.4z"/>
	<path class="st0" d="m86.6 24c0.5-1.3 1-2.6 3.2-2.6 1.7 0 2.8 1.3 2.8 2.8 0 0.5-0.4 1.7-0.6 2.1l-7.2 17.6c-0.6 1.4-1.1 3-3.2 3s-2.6-1.6-3.2-3l-7-17.6c-0.2-0.4-0.6-1.6-0.6-2.1 0-1.4 1.1-2.8 2.8-2.8 2.1 0 2.6 1.3 3.2 2.6l4.9 12.8 4.9-12.8z"/>
	<path class="st0" d="m95 24.5c0-1.8 1.4-2.9 2.9-2.9h8.7c1.8 0 2.9 1.1 2.9 2.6 0 1.7-1.1 2.6-2.9 2.6h-5.9v4.5h5.4c1.8 0 2.9 1 2.9 2.6s-1.1 2.6-2.9 2.6h-5.4v4.7h6.1c1.8 0 2.9 1 2.9 2.6s-1.1 2.6-2.9 2.6h-9c-1.5 0-2.9-1-2.9-2.9v-19h0.1z"/>
</svg>
