<svg id="b" version="1.1" viewBox="0 0 468.19 87.424" xml:space="preserve" xmlns="http://www.w3.org/2000/svg">
<g id="c" transform="translate(-178.71 -120.18)">
	<g id="d">
		<g id="e" fill="#222">
			<path id="f" d="m284.2 161.8v-37.4h-7v-2.4h27.2v2.3h-7v78.6h7v2.4h-27.2v-2.3h7v-38.6h-24.9v38.6h7v2.4h-27.2v-2.3h7v-78.6h-7v-2.4h27.2v2.3h-7v37.5c8.3-0.1 16.5-0.1 24.9-0.1z"/>
			<path id="g" d="m371.8 163.7v15.2c0 6.3-1.5 12.3-5.2 17.5-4.3 5.9-10.2 9.2-17.3 10.3-5.5 0.9-11 0.4-16.2-1.8-8.4-3.6-13.4-10-15.3-18.9-0.5-2.4-0.7-5-0.7-7.4-0.1-10 0-20.1 0-30.1 0-6.4 1.4-12.3 5.2-17.6 4.3-5.9 10.1-9.2 17.3-10.3 5.6-0.9 11.1-0.4 16.3 1.8 8.4 3.6 13.3 10 15.2 18.8 0.5 2.4 0.7 5 0.7 7.4 0.1 5 0 10.1 0 15.1zm-13.1-0.1v-24.1c0-2.9-0.5-5.7-1.6-8.4-1.9-4.8-5.3-7.9-10.5-8.5-5.4-0.7-10 0.8-13.2 5.5-2.3 3.4-3.1 7.3-3.2 11.3-0.1 16.1-0.1 32.2 0 48.2 0 2.9 0.5 5.7 1.6 8.4 2 5 5.6 8 11 8.5 5.9 0.6 10.5-1.5 13.5-6.8 2-3.6 2.5-7.7 2.5-11.7-0.1-7.4-0.1-14.9-0.1-22.4z"/>
			<path id="h" d="m404.7 174.4v28.6h7v2.3h-27.3v-2.3h7v-78.6h-7v-2.4h26c5.3 0 10.4 0.6 15.4 2.6 8.8 3.5 14.1 9.9 15.4 19.4 0.8 5.5 0.2 10.9-2.3 16-2.8 5.7-7.3 9.4-13.1 11.7-5 2-10.3 2.6-15.7 2.7h-5.4zm0-2.4h6.7c8.6-0.2 15-5.7 16.5-14.2 1-6 0.9-12.1 0.2-18.2-0.6-4.8-2.6-9-6.7-12.1-5-3.8-10.9-3.3-16.7-3.2v47.7z"/>
			<path id="i" d="m223.4 131.5v-8.2h2.8v23.7h-2.9v-5c0-3.7-0.7-7.2-2.7-10.3-3.8-6.1-9.2-8.9-16.4-8.3-2.8 0.2-5.3 1-7.6 2.8-2.9 2.3-4.3 5.4-4.7 8.9-0.8 6.5 1.7 11.8 6.5 16.2 4.3 3.9 9.2 6.7 14 9.9 4.4 3 8.6 6.1 11.7 10.5 1.9 2.8 3.1 5.8 3.7 9.1 0.7 4.5 0.3 8.9-1.7 13.1-2.6 5.5-6.9 9.2-12.5 11.3-6.8 2.5-13.7 3.1-20.7 0.4-4.2-1.7-7.4-4.6-9.8-8.5-0.2-0.4-0.4-0.7-0.8-1.4v8.6h-3v-23.7h3c0 2.3-0.1 4.7 0 7 0.3 7.9 5.9 14.7 13.6 16.3 5 1.1 9.8 0.3 13.9-3 2.9-2.3 4.3-5.4 4.9-9 0.4-2.8 0.3-5.6-0.6-8.3-1-3.2-2.8-5.8-5.3-7.9-3-2.5-6.1-4.8-9.3-7-3.8-2.7-7.7-5.2-11.3-8-4.4-3.5-7.7-7.9-8.9-13.5-2.2-10.1 1.7-19.6 11.9-24.2 6.8-3 13.9-3.6 21-1 4.5 1.6 7.9 4.7 10.3 8.7 0.2 0.4 0.4 0.7 0.6 1.1 0.2-0.3 0.2-0.3 0.3-0.3z"/>
		</g>
	</g>
	<g id="j">
		<linearGradient id="a" x1="458.95" x2="512.25" y1="165.96" y2="165.96" gradientUnits="userSpaceOnUse">
			<stop id="k" stop-color="#E0A854" offset="0"/>
			<stop id="l" stop-color="#ECC473" offset=".327"/>
			<stop id="m" stop-color="#FCE1A5" offset=".6189"/>
			<stop id="n" stop-color="#C79B46" offset="1"/>
		</linearGradient>
		<polygon id="o" points="487 124.3 458.9 207.6 484.2 207.6 512.3 124.3" fill="url(#a)"/>
	</g>
	<g id="p" fill="#222">
		<path id="q" d="m539.8 206.2v-5.2c0-5.3 0.6-10.4 2.5-15.4 2.2-5.7 6-10.3 10.8-14.1 3.4-2.7 7-5.2 10.5-7.9 2.6-2 5.1-4.3 7.2-6.9 3.1-4.1 4.5-8.7 4.7-13.7 0.2-3.9-0.1-7.8-1.9-11.4-2.1-4.3-5.7-6.6-10.4-7.3-5.2-0.8-10 0.3-14.3 3.3-2.5 1.8-5.2 5.1-5.3 7.5 1.4-0.5 3-0.7 4.2 0.2 1 0.7 1.9 1.8 2.4 2.8 0.9 2.1 0.4 4.1-1.2 5.7-1.5 1.5-3.4 2-5.5 1.2s-3.3-2.4-3.5-4.7c-0.4-5 1.5-9.2 4.9-12.7 3.9-4 8.9-6 14.4-6.6 6.2-0.6 12.3 0.2 17.9 3.3 7.8 4.4 11.7 11.1 11.5 20.1-0.2 8.1-4 14.2-10.4 18.7-4.7 3.2-9.9 5.8-14.8 8.8-3.8 2.3-7.6 4.5-11.1 7.1-5.4 4-8.6 9.4-9.4 16.2h42.2v-8.2h2.3v18.9c-15.9 0.3-31.8 0.3-47.7 0.3z"/>
		<path id="r" d="m637.6 203.9h7v2.3h-27.2v-2.3h7v-19h-31.4c-0.4-1.5 0-2.6 1.1-3.7 5.3-5.1 10.2-10.5 14.3-16.7 5.5-8.4 8.9-17.5 10.2-27.4 0.6-4.2 0.7-8.5 1-12.8 0-0.4 0.1-0.9 0.1-1.4h11.9c-0.2 2.5-0.2 4.9-0.5 7.3-1.4 13.5-7.4 24.8-16.4 34.7-5.4 5.9-11.3 11.1-17.5 16.2-0.3 0.3-0.6 0.6-1.1 1.2h28.2c0-0.4 0.1-0.8 0.1-1.2v-9.7c0-0.5 0.3-1.2 0.6-1.5 3.1-3.2 6.3-6.4 9.5-9.5 0.6-0.6 1.7-0.6 2.9-0.9v22.9h9.5v2.4h-9.4c0.1 6.4 0.1 12.7 0.1 19.1z"/>
	</g>
</g>
</svg>
