<?xml version="1.0" encoding="UTF-8"?>
<!-- Generator: Adobe Illustrator 21.0.2, SVG Export Plug-In . SVG Version: 6.00 Build 0)  -->
<svg id="Слой_1" width="800" height="800" version="1.1" viewBox="0 0 800 800" xml:space="preserve" xmlns="http://www.w3.org/2000/svg" xmlns:cc="http://creativecommons.org/ns#" xmlns:dc="http://purl.org/dc/elements/1.1/" xmlns:rdf="http://www.w3.org/1999/02/22-rdf-syntax-ns#"><metadata id="metadata59"><rdf:RDF><cc:Work rdf:about=""><dc:format>image/svg+xml</dc:format><dc:type rdf:resource="http://purl.org/dc/dcmitype/StillImage"/><dc:title/></cc:Work></rdf:RDF></metadata><style id="style2" type="text/css">
	.st0{fill:#1592A5;}
</style><path id="path4572" d="m800 400a400 400 0 0 1-400 400 400 400 0 0 1-400-400 400 400 0 0 1 400-400 400 400 0 0 1 400 400z" fill="#fff" style="paint-order:normal"/><path id="path4" class="st0" d="m769.36 325.11c13.617 10.213 13.617 11.915 25.532 20.426-5.1064-39.149-17.021-74.894-32.34-110.64-11.915 13.617-27.234 25.532-42.553 35.745 13.617 17.021 30.638 35.745 49.362 54.468z" fill="#1592a5" stroke-width="17.021"/><path id="path6" class="st0" d="m537.87 357.45c8.5106 0 15.319-5.1064 15.319-32.34s-5.1064-32.34-15.319-32.34c-6.8085 0-13.617 5.1064-13.617 17.021v30.638c0 6.8085 5.1064 17.021 13.617 17.021z" fill="#1592a5" stroke-width="17.021"/><path id="path12" class="st0" d="m696.17 200.85c0 11.915 3.4042 27.234 10.213 42.553 17.021-11.915 30.638-25.532 30.638-49.362 0-11.915-6.8085-20.426-18.723-20.426-13.617-1.7021-22.128 6.8085-22.128 27.234z" fill="#1592a5" stroke-width="17.021"/><path id="path14" class="st0" d="m721.7 163.4c-5.1064-6.8085-10.213-13.617-15.319-20.426 5.1064 6.8085 10.213 13.617 15.319 20.426z" fill="#1592a5" stroke-width="17.021"/><path id="path16" class="st0" d="m657.02 337.02c0 20.426 13.617 34.043 39.149 34.043 18.723 0 35.745-8.5106 42.553-13.617-22.128-20.426-40.851-42.553-56.17-66.383-10.213 8.5106-25.532 23.83-25.532 45.957z" fill="#1592a5" stroke-width="17.021"/><path id="path22" class="st0" d="m405.11 291.06c-10.213 0-15.319 6.8085-15.319 34.043 0 25.532 5.1064 34.043 15.319 34.043 10.213 0 15.319-6.8085 15.319-34.043s-5.1064-34.043-15.319-34.043z" fill="#1592a5" stroke-width="17.021"/><path id="path24" class="st0" d="m471.49 491.91c-10.213 0-15.319 6.8085-15.319 34.043 0 25.532 5.1064 34.043 15.319 34.043 10.213 0 15.319-6.8085 15.319-34.043s-5.1064-34.043-15.319-34.043z" fill="#1592a5" stroke-width="17.021"/><path id="path26" class="st0" d="m800 398.3c-11.915-5.1064-22.128-11.915-34.043-18.723-11.915 11.915-39.149 30.638-78.298 30.638-37.447 0-74.894-20.426-74.894-66.383 0-42.553 37.447-69.787 56.17-80-10.213-22.128-15.319-42.553-15.319-61.277 0-32.34 15.319-56.17 51.064-59.574-73.191-88.511-182.13-142.98-304.68-142.98-221.28 0-400 178.72-400 400s178.72 400 400 400 400-178.72 400-400v-1.7021zm-318.3-136.17s8.5106-1.7021 22.128-1.7021 22.128 1.7021 22.128 1.7021v6.8085c6.8085-6.8085 17.021-11.915 28.936-11.915 25.532 0 44.255 15.319 44.255 66.383 0 49.362-18.723 66.383-44.255 66.383-13.617 0-22.128-5.1064-28.936-11.915v61.277s-8.5106 1.7021-22.128 1.7021-22.128-1.7021-22.128-1.7021zm-406.81 115.74c0-11.915 5.1064-25.532 10.213-34.043 0 0 20.426 6.8085 45.957 6.8085 15.319 0 23.83-5.1064 23.83-13.617s-10.213-13.617-25.532-17.021c-22.128-6.8085-54.468-15.319-54.468-52.766 0-32.34 20.426-54.468 66.383-54.468 32.34 0 52.766 8.5106 52.766 8.5106 0 11.915-3.4043 23.83-10.213 32.34 0 0-15.319-5.1064-34.043-5.1064-18.723 0-27.234 5.1064-27.234 13.617 0 10.213 18.723 13.617 39.149 20.426s40.851 18.723 40.851 51.064c0 35.745-22.128 54.468-68.085 54.468-35.745 1.7021-59.574-10.213-59.574-10.213zm127.66 214.47c-37.447 0-59.574-11.915-59.574-11.915 0-11.915 5.1064-25.532 10.213-34.043 0 0 20.426 6.8085 45.957 6.8085 15.319 0 23.83-5.1064 23.83-13.617s-10.213-13.617-25.532-17.021c-22.128-6.8085-54.468-15.319-54.468-52.766 0-32.34 20.426-54.468 66.383-54.468 32.34 0 52.766 8.5106 52.766 8.5106 0 11.915-3.4043 23.83-10.213 32.34 0 0-15.319-5.1064-34.043-5.1064-18.723 0-27.234 5.1064-27.234 13.617 0 10.213 18.723 13.617 39.149 20.426 20.426 6.8085 40.851 18.723 40.851 51.064-1.7021 37.447-22.128 56.17-68.085 56.17zm71.489-301.28c-3.4043 0-8.5106 1.7021-11.915 5.1064v90.213s-6.8085 1.7021-22.128 1.7021c-13.617 0-22.128-1.7021-22.128-1.7021v-175.32s6.8085-1.7021 22.128-1.7021c13.617 0 22.128 1.7021 22.128 1.7021v57.872c8.5106-6.8085 18.723-11.915 30.638-11.915 23.83 0 35.745 13.617 35.745 35.745v91.915s-6.8085 1.7021-22.128 1.7021-22.128-1.7021-22.128-1.7021v-83.404c1.7021-6.8085-1.7021-10.213-10.213-10.213zm120.85 296.17s-6.8085 1.7021-22.128 1.7021-22.128-1.7021-22.128-1.7021v-83.404c0-6.8085-3.4043-11.915-11.915-11.915-3.4042 0-8.5106 1.7021-11.915 5.1064v90.213s-6.8085 1.7021-22.128 1.7021c-13.617 0-22.128-1.7021-22.128-1.7021v-175.32s6.8085-1.7021 22.128-1.7021c13.617 0 22.128 1.7021 22.128 1.7021v57.872c8.5106-6.8085 18.723-11.915 30.638-11.915 23.83 0 35.745 13.617 35.745 35.745v93.617zm-49.362-263.83c0-47.66 23.83-66.383 59.574-66.383s59.574 18.723 59.574 66.383-23.83 66.383-59.574 66.383-59.574-18.723-59.574-66.383zm125.96 267.23c-35.745 0-59.574-18.723-59.574-66.383s23.83-66.383 59.574-66.383 59.574 18.723 59.574 66.383c0 49.362-23.83 66.383-59.574 66.383zm224.68-3.4042c-6.8085 1.7021-17.021 1.7021-25.532 1.7021-8.5106 0-18.723 0-25.532-1.7021l-8.5106-37.447c-3.4043-17.021-5.1064-35.745-5.1064-51.064h-1.7021c0 15.319-1.7021 34.043-5.1064 51.064l-8.5106 37.447c-8.5106 1.7021-17.021 1.7021-25.532 1.7021s-18.723 0-27.234-1.7021l-28.936-122.55s8.5106-1.7021 20.426-1.7021c13.617 0 18.723 1.7021 18.723 1.7021l10.213 42.553c3.4043 15.319 5.1064 30.638 6.8085 44.255 1.7021-13.617 3.4043-28.936 6.8085-44.255l10.213-42.553s10.213-1.7021 22.128-1.7021c13.617 0 22.128 1.7021 22.128 1.7021l10.213 42.553c3.4042 15.319 5.1064 30.638 5.1064 44.255h1.7021c0-11.915 3.4042-27.234 6.8085-44.255l10.213-42.553s6.8085-1.7021 18.723-1.7021c11.915 0 18.723 1.7021 18.723 1.7021z" fill="#1592a5" stroke-width="17.021"/></svg>
