<svg width="749.02pt" height="310.02pt" version="1.1" viewBox="0 0 749.02 310.02" xmlns="http://www.w3.org/2000/svg">
 <g transform="translate(-126.24 -150.49)" fill="#fff">
  <path d="m575.07 150.49h34.675v49.51h235.2v-49.51h30.315v38.38h-21.15c-2.06 0.26-3.58 2.2098-3.57 4.2398-0.26 4.48-0.32 8.98 0.06 13.46 0.16 2.21 2.22 3.95 4.42 3.9l20.24 0.04v46.73l-20.16 0.16c-2.93 0.07-4.76 2.83-4.74 5.56-0.11 4.29-0.52 8.7 0.38 12.94 0.57 2.9 3.77 3.74 6.32 3.78l18.2 0.07v45.25l-19.41 0.04c-2.45-0.13-5.12 1.54-5.28 4.14-0.48 4.76-0.46 9.59 0.11 14.33 0.26 2.03 2.19 3.44 4.18 3.42l20.4 0.08v51.24l-19.34 0.04c-2.55 0.02-5.16 1.82-5.39 4.5-0.53 4.08-0.32 8.22-0.2 12.32-0.03 2.99 2.74 5.59 5.71 5.52l19.22-0.13v40.005h-30.315v-49.995h-235.2v49.995h-34.675v-40.005l20.04 0.13c3.17 0.39 6.46-2.36 6.21-5.64-0.08-3.99 0.01-7.98-0.12-11.96 0-2.69-2.62-4.66-5.15-4.72l-20.98-0.07v-51.23l21.02-0.03c2.3 0.13 4.93-1.47 5.05-3.94 0.27-4.68 0.51-9.4-0.03-14.07-0.21-2.47-2.73-3.9-5-3.9l-21.04-0.08v-45.23l19.64-0.09c2.52-0.03 5.64-0.95 6.33-3.71 0.6-4.62 0.49-9.32 0.17-13.96-0.03-2.64-2.57-4.7-5.11-4.68l-21.03-0.08v-46.73l20.99 0.06c2.91 0.12 5.51-2.68 5.24-5.56-0.06-4 0.03-8.01-0.1-12-0.01-2.2-2.03-4.21-4.22-4.2l-21.91-0.2v-38.12m34.675 53.51v202.7h235.2v-202.7z"/>
  <path d="m141.95 220.92c9.95-6.71 22.23-8.82 34.04-8.94 12.82-0.05 26.12 2.03 37.19 8.88 5.74 3.52 10.79 8.74 12.54 15.4 3.03 10.96 2.74 22.465 2.77 33.735h-43.24c-0.25-7.75 0.7-15.645-0.95-23.285-1.07-5.11-8.57-5.59-11.54-1.97-2.74 3.42-2.95 8.07-2.96 12.27 0.25 4.96 0.59 10.41 3.89 14.42 2.82 3.23 6.5 5.58 10.1 7.85 9.52 5.64 18.91 11.54 27.66 18.33 5.67 4.58 11.49 9.44 14.8 16.08 4.37 8.76 5.45 18.69 5.94 28.33 0.21 8.6 0.2 17.28-1.51 25.75-1.13 6.14-3.83 12.16-8.61 16.32-9.84 8.95-23.34 12.81-36.39 13.55-14.32 0.73-29.46-1.51-41.48-9.82-6.04-3.97-10.93-9.83-13.06-16.79-4.12-13.26-3.34-27.32-3.39-41.03h43.25c0.02 8.32-0.03 16.64 0.01 24.96 0.16 3.16 0.23 6.49 1.65 9.39 1.84 3.13 6.06 3.4 9.24 2.59 4.45-1.53 5.78-6.72 6.03-10.91 0.25-6.62 0.14-13.45-2.08-19.76-1.39-4-5.07-6.41-8.2-8.95-12.2-9.26-25.69-16.73-37.45-26.58-9.02-7.9-13.03-20.1-13.72-31.78-0.56-9.73-0.24-19.62 2.05-29.12 1.81-7.74 6.76-14.6 13.42-18.92z"/>
  <path d="m368.96 220.05c12.91-7.83 28.74-9.19 43.44-7.3 12.63 1.63 25.26 7.29 32.98 17.74 3.53 4.65 6.22 10 7.52 15.71v-30.45h101.34v35.745h-27.495v142.5h-46.5v-142.5h-26.38c0.96 10.78 1.22 21.625 1.13 32.445-0.03 18.02 0.07 36.04-0.05 54.06-0.57 9.99 0.02 20.34-3.38 29.92-4.55 13.26-16.17 23.35-29.57 27.04-15.27 4.27-32.13 3.9-46.89-2.1-14.21-5.69-24.62-19.59-26.13-34.82-1-10.3-1.13-20.68-1.24-31.02 0.27-24.5-0.72-49.03 1.05-73.49 0.87-13.52 8.49-26.51 20.17-33.48m29.35 23.17c-1.45 0.84-2.55 2.24-2.9 3.89-0.97 4.22-1.05 8.59-1.16 12.9v80.98c0.04 7.33-0.16 14.73 1.07 21.97 0.92 5.43 9.6 5.94 11.59 1.02 1.51-4.14 1.3-8.67 1.58-13.01v-93.01c-0.11-4.09-0.1-8.3-1.38-12.22-1.19-3.47-5.92-4.09-8.8-2.52z"/>
  <path d="m781.22 215.55 48.69-3.15-11.72 179.54-70.39 4.61-30.79-140.6-26.81 1.7 9.41 141.98-46.52 3.2-9.53-142.19-27.22 1.93-2.38-35.76 144.3-9.62 20.28 121.12z"/>
  <path d="m235.25 215.74h46.505v63.745h13.76v-63.745h46.48v178.24h-46.48v-74.71h-13.76v74.71h-46.505z"/>
 </g>
</svg>
