<?xml version="1.0" encoding="UTF-8"?>
<svg id="svg11" width="489.68pt" height="151.02pt" version="1.1" viewBox="0 0 489.68 151.02" xmlns="http://www.w3.org/2000/svg" xmlns:cc="http://creativecommons.org/ns#" xmlns:dc="http://purl.org/dc/elements/1.1/" xmlns:rdf="http://www.w3.org/1999/02/22-rdf-syntax-ns#">
 <metadata id="metadata17">
  <rdf:RDF>
   <cc:Work rdf:about="">
    <dc:format>image/svg+xml</dc:format>
    <dc:type rdf:resource="http://purl.org/dc/dcmitype/StillImage"/>
    <dc:title/>
   </cc:Work>
  </rdf:RDF>
 </metadata>
 <g id="#000000ff" transform="translate(-54.988 -48.998)">
  <path id="path2" d="m60.84 53.83c3.8-3.46 9.05-4.945 14.12-4.825h83.79v37.495h-55.305v75.42l55.305 0.03v38.065h-84.76c-5.25-0.01-10.6-1.985-14.21-5.885-3.31-3.5-4.895-8.39-4.785-13.16v-112.97c-0.14-5.26 1.865-10.64 5.845-14.17z"/>
  <path id="path4" d="m167.48 49.005h48.49v51.045l19.375-51.045h48.41v151.01h-48.455v-56.855l-19.435 56.855h-48.385z"/>
  <path id="path6" d="m311.83 49.005h80.45l21.65 151.01h-48.52l-10.58-112.95h-5.24l-11.51 112.95h-47.9z"/>
  <path id="path8" d="m420.93 200.02 21.64-151.01h80.45l21.65 151.01h-48.52l-2.94-30.705h-21.26l-3.12 30.705h-47.9m59.25-112.95-4.39 44.742h14.02l-4.41-44.742z"/>
 </g>
</svg>
