<svg id="a" width="794.84pt" height="779.02pt" version="1.1" viewBox="0 0 794.84 779.02" xmlns="http://www.w3.org/2000/svg">
 <path id="b" d="m757.43 37.54c13.53-11.41 25.61-24.39 37.41-37.54-14.76 28.9-35.99 54.28-60.43 75.51-25.65 22.17-55.26 39.46-86.44 52.61-41.18 17.33-84.96 27.69-129.03 34.39-50.02 7.64-100.6 10.44-151.09 12.97-42.39 2.04-84.87 3.74-127.01 9.1 14.43 24.15 29.2 48.12 44.78 71.55 22.47 33.36 47.36 65.92 79.49 90.6 15.63 11.94 32.95 22.01 51.86 27.73 16.19 4.82 33.73 6.33 50.17 1.78 16.62-4.21 31.4-15.28 39.83-30.24 7.98-13.85 9.87-30.44 7.68-46.09 10.43 25.33 3.28 56.5-16.81 75.06-15.83 15.32-38.1 22.98-59.94 22.86-19.58 0.53-38.96-4.46-56.79-12.29-31.69-13.86-58.74-36.43-82.07-61.63-36.26-39.92-64.02-86.44-91.96-132.29-0.89-1.98-3.33-0.21-4.86-0.17-21.91 5.23-43.74 12.48-62.56 25.15-21.02 14.02-38.19 35.25-43.83 60.22-5.52 22.49-0.84 46.37 9.3 66.85 0.5 1.26 1.46 2.46 1.41 3.88-1.16 0.56-2.37 1.02-3.58 1.5-11.98-18.38-19.62-40.09-18.95-62.21-0.09-16.38 5.23-32.19 12.09-46.87 11.46-24.12 31.66-43.17 54.7-56.19 12.87-7.34 26.63-13.02 40.66-17.73-9.9-15.53-19.78-31.1-31.03-45.7-11.07-14.41-23.28-28.3-38.3-38.72-12.35-8.6-27.21-13.81-42.34-13.63-13.36-0.63-27.38 2.36-37.94 10.94-8.26 6.62-13.75 15.98-17.66 25.68 14.27-1.11 29.26 1.5 41.23 9.68 10.95 7.17 18.82 18.28 23.53 30.37 1.5 4 3.28 7.99 3.6 12.31-6.44-13.23-15.14-26.19-28.27-33.53-12.5-7.04-27.79-8.02-41.48-4.2-8.12 1.93-15.06 6.84-22.8 9.74 2.74-9.62 6.03-19.09 8.12-28.89 3.31-13.99 9.96-27.47 20.49-37.44 11.49-11.33 27.25-17.47 43.08-19.42 15.43-1.94 31.36-0.62 46.01 4.75 23.68 8.71 43.13 25.81 59.57 44.53 17.53 20.01 32.25 42.27 46.53 64.67 53.21-11.84 107.83-14.86 162.06-18.45 50.13-3.14 100.36-6.08 150.13-13.14 45.22-6.49 90.3-16.32 132.6-33.94 32.18-13.28 62.42-31.41 88.84-54.12z" fill="#1a84b7"/>
 <path id="c" d="m754.45 78.34c0.38-1.34 0.89-2.66 1.85-3.7 0.07 37.31-11.56 74.12-30.94 105.82-19.58 32.09-47.12 59.31-79.57 78.29-33.62 19.75-72.86 30.18-111.89 28.44-38.06-1.73-75.37-15.42-105.67-38.49-4.46-3.51-9.06-6.92-12.98-11.04 10.5 4.14 20.82 8.81 31.59 12.29 24.13 8.15 49.47 13.32 75.01 13.33 41.32 0.39 82.31-12.27 117.23-34.14 55.05-34.17 95.56-89.44 115.37-150.8z" fill="#1a84b7"/>
 <path id="d" d="m136.18 438.22c8.32-7.46 19.71-10.47 30.67-10.81 11.09-0.55 22.53 2.19 31.5 8.91 8.09 5.62 13.65 14.87 14.21 24.77 0.72 21.99 0.52 44 0.11 65.99-11.96 1.7-23.8-8.2-24.24-20.26-0.3-12.99-0.03-26 0.08-39 0.07-5.89-2.33-11.94-7.07-15.58-5.23-4.17-12.45-4.78-18.8-3.44-4.98 1.11-9.8 4.08-12 8.84-2.19 4.73-1.96 10.11-2.04 15.2 0.05 71.34-0.01 142.67 0.03 214.01 0.03 4.97 1.57 10.28 5.62 13.47 7.44 6.57 19.04 6.23 27.16 1.15 5.01-3.42 6.76-9.78 6.69-15.55-0.05-15.67 0.02-31.33 0.22-46.99-0.01-5.51-0.4-11.34 2.29-16.36 3.87-8.19 13.12-13.17 22.1-12.03 0.08 22.12 0.57 44.23 0.19 66.35-0.73 8.26 0.77 16.9-2.25 24.84-2.57 7.61-8.45 13.74-15.45 17.5-11.92 6.31-26.1 8.81-39.32 5.65-11.42-2.63-22.96-8.96-28.16-19.94-3.81-7.41-3.78-15.9-3.59-24.01-0.4-72.02 0.48-144.05-0.12-216.07 0.25-10.02 4.57-20.01 12.17-26.64z" fill="#1a84b7"/>
 <path id="e" d="m483.32 438.22c8.32-7.46 19.71-10.47 30.67-10.81 11.09-0.55 22.53 2.19 31.5 8.91 8.09 5.62 13.65 14.87 14.21 24.77 0.72 21.99 0.52 44 0.11 65.99-11.96 1.7-23.8-8.2-24.24-20.26-0.3-12.99-0.03-26 0.08-39 0.07-5.89-2.33-11.94-7.07-15.58-5.23-4.17-12.45-4.78-18.8-3.44-4.98 1.11-9.8 4.08-12 8.84-2.19 4.73-1.96 10.11-2.04 15.2 0.05 71.34-0.01 142.67 0.03 214.01 0.03 4.97 1.57 10.28 5.62 13.47 7.44 6.57 19.04 6.23 27.16 1.15 5.01-3.42 6.76-9.78 6.69-15.55-0.05-15.67 0.02-31.33 0.22-46.99-0.01-5.51-0.4-11.34 2.29-16.36 3.87-8.19 13.12-13.17 22.1-12.03 0.08 22.12 0.57 44.23 0.19 66.35-0.73 8.26 0.77 16.9-2.25 24.84-2.57 7.61-8.45 13.74-15.45 17.5-11.92 6.31-26.1 8.81-39.32 5.65-11.42-2.63-22.96-8.96-28.16-19.94-3.81-7.41-3.78-15.9-3.59-24.01-0.4-72.02 0.48-144.05-0.12-216.07 0.25-10.02 4.57-20.01 12.17-26.64z" fill="#1a84b7"/>
 <path id="f" d="m243.12 432.63h87.18v288.06c-15.887 1.1507-24.868-9.1121-24.36-22.83v-243.78h-38.26v243.78c0.24 12.75-11.87 23.91-24.56 22.94z" fill="#1a84b7"/>
 <path id="g" d="m399.67 432.35c-7.7638 0.0187-15.481 0.28326-19.04 0.8086l-24.729 287.71h0.022l-0.022 0.25048c11.81 0.42 23.42-7.93 25.63-19.73 0.52623-4.5971 0.83651-9.211 1.103-13.828 0.66005-6.3268 0.8105-12.709 1.3872-19.043h33.07c0.57581 6.3242 0.72683 12.697 1.3843 19.014 0.26688 4.6269 0.57714 9.2506 1.1045 13.857 2.21 11.8 13.82 20.15 25.63 19.73l-0.022-0.25048h0.022l-24.729-287.71c-3.5587-0.52534-11.276-0.78991-19.04-0.8086-0.59685-0.0114-1.2068-6e-3 -1.771 1.8e-4zm0.88626 24.775 15.564 194.06h-31.129z" fill="#1a84b7"/>
 <path id="h" d="m254.16 758.54c4.48 0.03 9 0.02 13.48 0 0.13 6.73-0.02 13.475 0 20.215-1.18-0.01-2.34-0.01-3.52 0-0.02-5.56-0.01-11.11 0-16.65-2.28 0-4.56-0.01-6.84 0-0.88643 8.663-1.7265 16.386-8.7302 16.79 0.04-0.74-0.03-2.22 0-2.95 5.4073-2.8893 4.978-11.855 5.6102-17.405z" fill="#1a84b7"/>
 <path id="i" d="m410.17 758.56h3.51v8.15h11.19v-8.15h3.445v20.2h-3.445v-8.435h-11.19v8.435h-3.51z" fill="#1a84b7"/>
 <path id="j" d="m173.55 758.58h18.155v3.535h-7.295v16.74h-3.405v-16.74h-7.455z" fill="#1a84b7"/>
 <path id="k" d="m213.74 758.6h13.305v3.51h-9.68v4.9053h8.685v3.4097h-8.685v5.015h9.925v3.255h-13.55z" fill="#1a84b7"/>
 <path id="l" d="m292.46 758.66h13.305v3.51h-9.68v4.9053h8.685v3.4097h-8.685v5.015h9.925v3.255h-13.55z" fill="#1a84b7"/>
 <path id="m" d="m329.72 758.54h3.6351v9.43l9.1998-9.43h4.38l-9.3 9.45 9.76 10.75h-4.68l-9.3598-10.06v10.06h-3.6351z" fill="#1a84b7"/>
 <path id="n" d="m375.75 758.45-9.3794 20.306h3.5391l2.77-5.2602h9.271l2.77 5.2602h3.5393l-9.3794-20.306h-3.0908zm1.5644 4.9116 3.145 6.8145h-6.29z" fill="#1a84b7"/>
 <path id="o" d="m459.8 758.52-9.3794 20.306h3.5391l2.77-5.2602h9.271l2.77 5.2602h3.5393l-9.3794-20.306h-3.0908zm1.5644 4.9116 3.145 6.8145h-6.29z" fill="#1a84b7"/>
 <path id="p" d="m497.06 758.66c4.48 0.03 9 0.02 13.48 0 0.13 6.73-0.02 13.475 0 20.215-1.18-0.01-2.34-0.01-3.52 0-0.02-5.56-0.01-11.11 0-16.65-2.28 0-4.56-0.01-6.84 0-0.88643 8.663-1.7265 16.386-8.7302 16.79 0.04-0.74-0.03-2.22 0-2.95 5.4073-2.8893 4.978-11.855 5.6102-17.405z" fill="#1a84b7"/>
</svg>
