<svg id="a" version="1.1" viewBox="0 0 665.7 666.1" xml:space="preserve" xmlns="http://www.w3.org/2000/svg">
<g id="b" transform="translate(-307,-307)">
	<path id="c" d="m307.4 972.8v0.2h196.4c20.4-1 30.2-16.9 21.7-36.3 0 0-14.4-32.7-14.4-49.1 0-31.6 25.6-57.3 57.3-57.3 1 0 2 0 3 0.1 30.3 1.5 54.3 26.5 54.3 57.2 0 16.4-14.4 49.2-14.4 49.2-8.7 19.9 1.9 36.2 23.5 36.3h195.1v-195.4c0-21.8 16.4-32.4 36.3-23.7 0 0 32.7 14.4 49.2 14.4 31.6 0 57.2-25.6 57.3-57.2-0.1-31.6-25.7-57.2-57.3-57.2-16.4 0-49.2 14.4-49.2 14.4-20 8.8-36.3-1.9-36.3-23.7v-195l-195 0.1c-21.8 0-32.5-16.3-23.7-36.3 0 0 14.4-32.7 14.4-49.2 0-31.6-25.6-57.3-57.3-57.3-16.7 0-31.8 7.2-42.2 18.6-0.1 0.1-0.2 0.2-0.2 0.3-0.5 0.6-1 1.1-1.5 1.7-0.2 0.2-0.4 0.4-0.5 0.7-0.4 0.5-0.8 1.1-1.3 1.6-0.3 0.4-0.6 0.8-0.8 1.1-0.8 1.2-1.6 2.3-2.4 3.5-0.6 1-1.2 2-1.7 3l-0.3 0.6c-0.5 1-1 2-1.4 3 0 0.1 0 0.1-0.1 0.2-3.1 7-4.8 14.7-4.8 22.9 0 15.7 13.2 46.4 14.3 49 0 0.1 0.1 0.2 0.1 0.3 3.9 9 3.9 17.3 0.6 23.6-3.9 7.7-12.5 12.6-24.4 12.6l-194.7-0.1z" fill="#ff4802"/>
	<g id="d" fill="#fff">
		<g id="e">
			<path id="f" d="m474.2 610.8c-1.9-2.7-4.6-5.2-7.8-7.5s-7.4-4.5-12.4-6.6l-20.3-8.3c-5.4-2.1-8.9-4.4-10.5-6.8s-2.4-5.5-2.4-9.1c0-1.8 0.2-3.5 0.6-5.1s1.1-3 2.2-4.2 2.5-2.2 4.3-2.9 4.1-1.1 6.9-1.1c4.8 0 8.1 1.4 10.1 4.3 2.1 3 3.1 7.4 3.1 13v0.9h27.2v-4.4c0-6-1-11.2-3.1-15.5s-5-7.9-8.7-10.7-8.1-4.8-13.1-6-10.5-1.8-16.4-1.8c-12.7 0-22.9 3.1-30.2 9.2-7.4 6.1-11.1 15.5-11.1 27.9 0 5.1 0.7 9.7 2.1 13.6 1.4 4 3.6 7.5 6.5 10.5s6.6 5.6 10.9 7.9c4.3 2.2 9.4 4.3 15.3 6.1 4.3 1.4 8 2.7 10.9 4s5.2 2.7 7 4.2c1.7 1.5 2.9 3.2 3.7 5.1 0.7 1.9 1.1 4.2 1.1 6.8 0 4.8-1.5 8.5-4.5 10.7-3 2.3-6.5 3.5-10.2 3.5-3.3 0-6-0.4-8.1-1.3s-3.8-2-5-3.5-2.1-3.3-2.5-5.5c-0.5-2.3-0.7-4.9-0.7-7.7v-4.6h-28.3v5.9c0 11.6 3.3 20.6 9.9 26.8 6.5 6.2 17.5 9.4 32.5 9.4 14.4 0 25.8-3.1 33.9-9.1 8.2-6.1 12.3-15.9 12.3-29.1 0-3.8-0.4-7.4-1.1-10.5-0.8-2.9-2.2-5.8-4.1-8.5z"/>
			<polygon id="g" points="483.6 563.8 512.1 563.8 512.1 666.4 540.4 666.4 540.4 563.8 568.8 563.8 568.8 541.6 483.6 541.6"/>
			<path id="h" d="m586.8 541.6-35 124.9h29.5l6-26h33.1l6 26h29.5l-35-124.9zm28.6 76.6h-23.1l11.5-50.7z"/>
			<path id="i" d="m752.9 663.6c-2.2-1.1-3.6-3.2-4.2-6.4-0.5-3.4-0.8-8.4-1.1-14.9-0.1-3.3-0.2-6.3-0.4-9.1-0.1-2.7-0.3-5.2-0.6-7.5-0.7-7.1-2.7-12.3-5.9-15.5-2.6-2.7-6.5-4.6-11.5-5.7 5.9-1.8 10.5-5 13.6-9.6 3.6-5.4 5.4-12.3 5.4-20.7 0-10.9-3.2-19.2-9.4-24.5-6.2-5.4-15.1-8.1-26.2-8.1h-49.5v124.9h28.3v-52h13.1c5.1 0 8.8 1.3 10.9 3.8 2.2 2.6 3.4 6.2 3.6 10.8l0.7 23.6c0.1 2.4 0.4 4.8 0.7 7.1 0.4 2.4 1.3 4.5 2.7 6.4l0.3 0.4h30v-2.5zm-32.8-85.8c0 6.3-1.6 10.9-4.8 13.5s-7.9 4-13.9 4h-10v-33.6h11.4c11.6 0 17.3 5.3 17.3 16.1z"/>
		</g>
		<g id="j">
			<polygon id="k" points="412.3 711.3 444.1 711.3 444.1 693.3 390.6 693.3 390.6 783.6 412.3 783.6 412.3 746 442.2 746 442.2 728 412.3 728"/>
			<path id="l" d="m461.8 693.3-24.5 90.3h22.6l4.1-18.3h20.7l4.1 18.3h22.6l-24.5-90.3zm18.9 54h-12.8l6.4-29.1z"/>
			<polygon id="m" points="515.9 693.3 515.9 783.6 536 783.6 536 728 548.8 783.6 565.7 783.6 578.5 728 578.5 783.6 598.6 783.6 598.6 693.3 568.7 693.3 557.3 747.8 545.9 693.3"/>
			<rect id="n" x="610.3" y="693.3" width="21.7" height="90.3"/>
			<polygon id="o" points="644.2 783.6 697.7 783.6 697.7 765.7 665.9 765.7 665.9 693.3 644.2 693.3"/>
			<polygon id="p" points="708.1 693.3 683.7 693.3 707.8 748.1 707.8 783.6 729.4 783.6 729.4 748.1 753.4 693.3 729.9 693.3 718.6 723.5"/>
		</g>
	</g>
</g>
</svg>
