<svg id="a" enable-background="new 0 0 841.89 595.28" version="1.1" viewBox="0 0 311.81 311.81" xml:space="preserve" xmlns="http://www.w3.org/2000/svg"><g id="b" transform="translate(-264.11 -142.76)"><path id="c" d="m420.02 142.76c86.091 0 155.9 69.814 155.9 155.91 0 86.091-69.814 155.91-155.9 155.91-86.089 0-155.91-69.816-155.91-155.91s69.817-155.91 155.91-155.91" clip-rule="evenodd" fill-rule="evenodd"/><path id="d" d="m524.26 251.94c-0.49 8.144-0.718 20.883-0.939 29.414h-1.515c-0.376-13.455-5.803-22.041-18.618-22.035l-1.935 1e-3v69.332l-22.067-16.438v-52.851c-9.622-0.186-15.234 0.53-22.661 1.36l-0.349-8.781c22.212 0.459 45.881 0.466 68.084-2e-3m-118.25 89.229c-2.22-2.056-4.162-4.293-5.822-6.714v34.261l-22.173-16.519 0.105-48.992c-3.666-1.49-30.375-1.572-34.507 0v31.389h-22.168c0.211-96.443 0.103 19.438 0.103-61.739 0-9.058-8.992-13.549-14.318-13.784v-1.684c5.445 0.268 12.471 0.331 18.881 0.331 5.791 0 12.182-0.179 17.501-0.301v36.663c3.232 1.71 30.396 1.796 34.507 0v-32.794c0-9.059-8.992-13.549-14.319-13.783v-1.685c5.311 0.28 12.307 0.355 18.528 0.333 6.458-0.024 12.388-0.153 17.858-0.303v37.304c2.083-2.876 4.609-5.499 7.571-7.871 9.418-7.501 21.587-11.251 36.506-11.251 9.008 0 16.961 0.959 27.92 3.338v29.206h-1.302c-2.081-13.033-10.566-23.911-25.617-24.167-19.183-0.328-28.318 14.8-29.378 33.129-1.062 18.224 8.611 32.003 21.921 37.003 11.024 4.144 24.78 2.49 36.767-7.896l2.12 1.851c-16.213 21.727-52.775 21.43-70.684 4.675z" fill="#fff"/></g></svg>
