<?xml version="1.0" encoding="UTF-8"?>
<!-- Generator: Adobe Illustrator 17.1.0, SVG Export Plug-In . SVG Version: 6.00 Build 0)  -->
<svg id="Слой_1" width="299.6" height="125.38" enable-background="new 0 0 299.5 125.3" version="1.1" viewBox="0 0 299.6 125.38" xml:space="preserve" xmlns="http://www.w3.org/2000/svg" xmlns:cc="http://creativecommons.org/ns#" xmlns:dc="http://purl.org/dc/elements/1.1/" xmlns:rdf="http://www.w3.org/1999/02/22-rdf-syntax-ns#"><metadata id="metadata38"><rdf:RDF><cc:Work rdf:about=""><dc:format>image/svg+xml</dc:format><dc:type rdf:resource="http://purl.org/dc/dcmitype/StillImage"/><dc:title/></cc:Work></rdf:RDF></metadata><g id="XMLID_60_" transform="translate(0 .075)"><linearGradient id="XMLID_2_" x1="56.695" x2="56.695" y1="125.27" y2="9.0949e-13" gradientUnits="userSpaceOnUse"><stop id="stop2" stop-color="#EE3E2E" offset="0"/><stop id="stop4" stop-color="#F05822" offset="1"/></linearGradient><path id="XMLID_62_" d="m56.7 125.3c-3.2 0-6.3-0.8-9.1-2.4l-38.5-22.3c-5.6-3.2-9.1-9.3-9.1-15.8v-44.4c0-6.5 3.5-12.6 9.1-15.8l38.5-22.2c5.6-3.3 12.6-3.3 18.3 0l38.4 22.2c5.6 3.3 9.1 9.3 9.1 15.8v44.4c0 6.5-3.5 12.6-9.1 15.8l-38.4 22.2c-2.9 1.7-6 2.5-9.2 2.5zm0-116.5c-1.6 0-3.3 0.4-4.7 1.3l-38.4 22.2c-2.9 1.7-4.7 4.8-4.7 8.1v44.4c0 3.4 1.8 6.5 4.7 8.1l38.4 22.3c2.9 1.7 6.5 1.7 9.4 0l38.4-22.2c2.9-1.7 4.7-4.8 4.7-8.1v-44.5c0-3.4-1.8-6.5-4.7-8.1l-38.4-22.2c-1.5-0.8-3.1-1.3-4.7-1.3z" fill="url(#XMLID_2_)"/><linearGradient id="XMLID_3_" x1="52.914" x2="52.914" y1="93.681" y2="31.767" gradientUnits="userSpaceOnUse"><stop id="stop8" stop-color="#EE3E2E" offset="0"/><stop id="stop10" stop-color="#F05822" offset="1"/></linearGradient><path id="XMLID_61_" d="m56.9 93.7c-17.1 0-31-13.9-31-31s13.9-31 31-31c8.4 0 16.2 3.3 22.1 9.3l0.9 0.9-6.3 6.2-0.9-1c-4.2-4.3-9.8-6.7-15.8-6.7-12.2 0-22.1 9.9-22.1 22.1s9.9 22.1 22.1 22.1c5.8 0 11.3-2.2 15.5-6.3l0.9-0.9 6.3 6.2-0.9 0.9c-5.9 6-13.6 9.2-21.8 9.2z" clip-rule="evenodd" fill="url(#XMLID_3_)" fill-rule="evenodd"/></g><g id="XMLID_22_" transform="translate(0 .075)" fill="#fff"><g id="XMLID_44_"><path id="XMLID_58_" d="m138.9 53.7c0 1.4 0.2 2.7 0.7 3.8s1.1 2.1 1.8 2.8c0.8 0.9 1.8 1.6 3 2.1s2.4 0.7 3.7 0.7c1.5 0 2.9-0.3 4.2-0.8 1.3-0.6 2.5-1.3 3.6-2.4l2.8 3.1c-1.5 1.5-3.2 2.6-4.8 3.3-1.7 0.7-3.6 1-5.8 1-2 0-3.9-0.3-5.5-1-1.7-0.7-3.1-1.6-4.4-2.9s-2.3-2.7-3-4.4c-0.7-1.6-1-3.5-1-5.4s0.3-3.7 1-5.3 1.6-3.1 2.9-4.3c1.2-1.2 2.7-2.2 4.4-2.9s3.6-1 5.6-1c2.2 0 4.2 0.4 5.8 1.1 1.7 0.7 3.3 1.8 4.8 3.2l-2.8 3.2c-1.2-1.1-2.4-1.8-3.6-2.4-1.3-0.5-2.7-0.8-4.2-0.8-1.3 0-2.5 0.2-3.6 0.7s-2.1 1.1-2.9 2c-0.8 0.8-1.5 1.8-1.9 3-0.5 1-0.8 2.3-0.8 3.6z"/><path id="XMLID_56_" d="m161.5 40.6h24.1v4.2h-9.8v22.1h-4.6v-22.1h-9.8v-4.2z"/><path id="XMLID_53_" d="m212 50.2c0 1.3-0.3 2.6-0.8 3.7-0.5 1.2-1.2 2.2-2.1 3-0.9 0.9-2 1.6-3.2 2-1.2 0.5-2.5 0.7-3.9 0.7h-8v7.1h-4.8v-26.1h12.7c1.5 0 3 0.3 4.3 0.9s2.5 1.5 3.4 2.6c0.7 0.8 1.2 1.8 1.6 2.8 0.6 1 0.8 2.1 0.8 3.3zm-9.7 5.3c0.7 0 1.4-0.2 2.1-0.5s1.2-0.7 1.6-1.2 0.7-1.1 0.9-1.7c0.3-0.7 0.4-1.3 0.4-1.9 0-1.5-0.4-2.7-1.3-3.6-0.5-0.6-1-1-1.7-1.3s-1.5-0.5-2.3-0.5h-7.8v10.6h8.1z"/><path id="XMLID_50_" d="m228.9 40.6 11.7 26.3h-5l-2.2-4.8h-14l-2.1 4.8h-4.9l11.7-26.3zm-7.8 17.3h10.5l-5-12.5h-0.6z"/><path id="XMLID_48_" d="m267.5 40.6v26.3h-4.7v-12h-13.8v12h-4.7v-26.3h4.7v10.1h13.8v-10.1z"/><path id="XMLID_45_" d="m287.9 40.6 11.7 26.3h-5l-2.2-4.8h-14l-2.1 4.8h-4.9l11.7-26.3zm-7.8 17.3h10.5l-5-12.5h-0.6z"/></g><g id="XMLID_23_"><path id="XMLID_42_" d="m174.7 76.7h7.8v1.6h-3v6.8h-1.8v-6.8h-3z"/><path id="XMLID_40_" d="m183.9 76.7h6.7v1.6h-4.9v1.7h4.4v1.6h-4.4v1.9h5v1.6h-6.8z"/><path id="XMLID_38_" d="m200.8 76.7v8.4h-1.8v-6.8h-2.8l-0.7 4.9c0 0.3-0.1 0.6-0.3 0.8-0.1 0.2-0.3 0.5-0.5 0.6-0.4 0.3-0.9 0.5-1.5 0.5-0.3 0-0.5 0-0.8-0.1-0.2 0-0.5-0.1-0.7-0.2l0.5-1.5c0.2 0.1 0.3 0.1 0.4 0.1h0.4c0.2 0 0.4-0.1 0.6-0.2 0.1-0.1 0.2-0.3 0.3-0.6l0.9-6.1h6z"/><path id="XMLID_36_" d="m202.6 76.7h6.7v1.6h-4.9v1.7h4.4v1.6h-4.4v1.9h5v1.6h-6.8z"/><path id="XMLID_34_" d="m212.9 76.7v3.2h1.1c0.2 0 0.4 0 0.5-0.1s0.2-0.2 0.3-0.4l0.8-1.6c0.1-0.2 0.2-0.4 0.3-0.5l0.4-0.4c0.3-0.2 0.8-0.3 1.3-0.3h0.6c0.2 0 0.3 0 0.5 0.1l-0.2 1.5h-0.5c-0.2 0-0.4 0-0.6 0.1-0.1 0.1-0.3 0.2-0.3 0.4l-0.7 1.5c0 0.1-0.1 0.2-0.1 0.2 0 0.1-0.1 0.1-0.2 0.2l2.8 4.5h-2.1l-2.2-3.7c-0.1 0-0.3 0.1-0.5 0.1h-1.2v3.7h-1.8v-8.4h1.8z"/><path id="XMLID_31_" d="m225.4 76.7 3.7 8.4h-1.9l-0.7-1.5h-4.1l-0.7 1.5h-1.9l3.7-8.4zm-2.3 5.3h2.7l-1.3-3.3h-0.1z"/><path id="XMLID_29_" d="m238.1 76.7v8.4h-1.8v-3.7h-3.9v3.7h-1.8v-8.4h1.8v3.1h3.9v-3.1z"/><path id="XMLID_26_" d="m245.1 76.7 3.7 8.4h-1.9l-0.7-1.5h-4.1l-0.7 1.5h-1.9l3.7-8.4zm-2.3 5.3h2.7l-1.3-3.3h-0.1z"/><path id="XMLID_24_" d="m258.8 76.7v8.4h-1.8v-6.8h-2.8l-0.7 4.9c0 0.3-0.1 0.6-0.3 0.8-0.1 0.2-0.3 0.5-0.5 0.6-0.4 0.3-0.9 0.5-1.5 0.5-0.3 0-0.5 0-0.8-0.1-0.2 0-0.5-0.1-0.7-0.2l0.5-1.5c0.2 0.1 0.3 0.1 0.4 0.1h0.4c0.2 0 0.4-0.1 0.6-0.2 0.1-0.1 0.2-0.3 0.3-0.6l0.9-6.1h6z"/></g></g></svg>
