<?xml version="1.0" encoding="UTF-8"?>
<!-- Generator: Adobe Illustrator 21.1.0, SVG Export Plug-In . SVG Version: 6.00 Build 0)  -->
<svg id="svg19" width="1426.3" height="294.8" version="1.1" viewBox="0 0 1426.3 294.8" xml:space="preserve" xmlns="http://www.w3.org/2000/svg" xmlns:cc="http://creativecommons.org/ns#" xmlns:dc="http://purl.org/dc/elements/1.1/" xmlns:rdf="http://www.w3.org/1999/02/22-rdf-syntax-ns#"><metadata id="metadata25"><rdf:RDF><cc:Work rdf:about=""><dc:format>image/svg+xml</dc:format><dc:type rdf:resource="http://purl.org/dc/dcmitype/StillImage"/><dc:title/></cc:Work></rdf:RDF></metadata>
<g id="g4511" fill="#ffe644"><path id="path6" class="st0" d="m157.2 157.3c-7.9 7.9-18.9 12.9-31.1 12.9-24.3 0-43.9-19.7-43.9-43.9s19.7-43.9 43.9-43.9c12.1 0 23.1 4.9 31.1 12.9l58.2-58.3c-22.8-22.8-54.4-37-89.2-37-69.7 0-126.2 56.5-126.2 126.2s56.5 126.2 126.2 126.2c34.8 0 66.4-14.1 89.2-37z"/><path id="path8" class="st0" d="m545.2 157.3c-7.9 7.9-18.9 12.9-31.1 12.9-24.3 0-43.9-19.7-43.9-43.9s19.7-43.9 43.9-43.9c12.1 0 23.1 4.9 31.1 12.9l58.2-58.3c-22.8-22.8-54.4-37-89.2-37-69.7 0-126.2 56.5-126.2 126.2s56.5 126.2 126.2 126.2c34.8 0 66.4-14.1 89.2-37z"/><polygon id="polygon10" class="st0" points="349.1 82.4 395.9 82.4 395.9 3.4 214.1 3.4 214.1 82.4 260.9 82.4 260.9 249 349.1 249"/></g><g id="g16" fill="#ff648e"><path id="path12" class="st1" d="m1269 157.3c-8.6-8.6-12.9-19.8-12.9-31.1h170.2c0-69.7-56.5-126.2-126.2-126.2s-126.2 56.5-126.2 126.2 56.5 126.2 126.2 126.2c34.8 0 66.3-14.1 89.1-36.8l-58.2-58.2c-17.2 17.1-44.9 17-62-0.1z"/><path id="path14" class="st1" d="m988.3 179.9 27.1 69.1h101.1l96.1-245.6h-87.4l-59.3 151.4-39.2-100.4c-12.7-31.6-44.9-50.8-79.7-51-26.9-0.2-55.3 11-77.4 36.4-59-67.7-162.9-34.1-162.9 45.2 0 28.7 14.1 56.8 36.1 85h-52.5v-166.6h-88.1v186.9c0 32.4 26.3 58.7 58.7 58.7h94v-64.4c31.3 36 73.9 72.3 114.7 110.2 41.4-38 86.5-76.4 118.7-114.9"/></g></svg>
