<svg width="800" height="115.65" version="1.1" viewBox="0 0 800 115.65" xml:space="preserve" xmlns="http://www.w3.org/2000/svg">
<g transform="scale(.83621)" fill="#ea0d8c">
		<path class="st0" d="m372.5 135.6v-124h30.5v96.6h37.3v27.5z"/>
		<path class="st0" d="m558.2 120c-11.9 12.2-27.9 18.3-48 18.3s-36.1-6.1-47.9-18.3c-11.9-12.2-17.8-27.7-17.8-46.4 0-18.6 5.9-34 17.8-46.3s27.9-18.4 47.9-18.4c20.1 0 36.1 6.1 48 18.4s17.8 27.8 17.8 46.3c0 18.7-5.9 34.1-17.8 46.4zm-22.4-71.3c-6.5-6.7-15-10-25.5-10s-19 3.3-25.5 10-9.7 15-9.7 24.9c0 10.2 3.2 18.6 9.7 25.2s15 9.9 25.5 9.9 19-3.3 25.5-9.9 9.7-15 9.7-25.2c0-9.9-3.2-18.2-9.7-24.9z"/>
		<path class="st0" d="m615.8 135.6-44.2-124h32.1l29.4 86.7 29.8-86.7h31.9l-44 124.1z"/>
		<path class="st0" d="m775.5 108.9v26.8h-71.1v-124.1h70.6v26.9h-40.1v21.5h38.9v25.5h-38.9v23.4z"/>
	</g><g transform="scale(.83621)">
			<g fill="#fd0">
				<polygon class="st1" points="132.8 9.9 215.5 9.9 215.5 40.2 189.3 40.2 189.3 135.5 159 135.5 159 40.2 132.8 40.2"/>
				<path class="st1" d="m346.8 88.1c-6.5 28.2-31.9 49.3-62.1 49.3-35.2 0-63.8-28.5-63.8-63.8 0-35.2 28.6-63.8 63.8-63.8 29.7 0 54.7 20.4 61.8 47.9h-33.1c-5.6-10.1-16.4-17-28.7-17-18.1 0-32.8 14.7-32.8 32.8s14.7 32.8 32.8 32.8c12.9 0 24.1-7.5 29.4-18.3h32.7z"/>
				<path class="st1" d="m125.9 88.1c-6.5 28.2-31.9 49.3-62.1 49.3-35.2 0-63.8-28.6-63.8-63.8s28.6-63.7 63.8-63.7c29.7 0 54.7 20.4 61.8 47.9h-33.1c-5.6-10.1-16.4-17-28.7-17-18.1 0-32.8 14.7-32.8 32.8s14.7 32.8 32.8 32.8c12.9 0 24.1-7.5 29.4-18.3h32.7z"/>
			</g>
	</g><path class="st1" d="m765.13 0c-13.63 0-25.421 7.7767-31.191 19.149-5.6862-11.372-17.56-19.149-31.191-19.149-19.233 0-34.87 15.637-34.87 34.87 0 10.034 4.2647 19.066 11.038 25.421l55.022 55.022 55.022-55.022c6.7733-6.3552 11.038-15.386 11.038-25.421 0-19.233-15.637-34.87-34.87-34.87z" fill="#fd0" stroke-width=".83621"/>
</svg>
