<svg width="800" height="294.26" enable-background="new 0 0 29 10" version="1.1" viewBox="0 0 800 294.26" xml:space="preserve" xmlns="http://www.w3.org/2000/svg">
<style type="text/css">
	.st0{fill:#FFC83C;}
</style>
<g transform="matrix(2.925 0 0 2.925 -721.15 -636.95)" fill="#ffc83c"><polygon transform="translate(26.442 47.057)" points="324.9 170.7 390 170.7 390 194.6 369.4 194.6 369.4 269.8 345.5 269.8 345.5 194.6 324.9 194.6"/><path d="m520.04 279.46c-5.2 22.3-25.1 38.9-49 38.9-27.8 0-50.3-22.5-50.3-50.3s22.5-50.3 50.3-50.3c23.5 0 43.2 16.1 48.7 37.8h-26.1c-4.4-8-12.9-13.4-22.7-13.4-14.3 0-25.9 11.6-25.9 25.9s11.6 25.9 25.9 25.9c10.2 0 19-5.9 23.2-14.5z"/><path d="m345.84 279.46c-5.2 22.3-25.1 38.9-49 38.9-27.8 0-50.3-22.5-50.3-50.3s22.5-50.3 50.3-50.3c23.5 0 43.2 16.1 48.7 37.8h-26.1c-4.4-8-12.9-13.4-22.7-13.4-14.3 0-25.9 11.6-25.9 25.9s11.6 25.9 25.9 25.9c10.2 0 19-5.9 23.2-14.5z"/></g></svg>
