<?xml version="1.0" encoding="UTF-8"?>
<!-- Generator: Adobe Illustrator 16.0.0, SVG Export Plug-In . SVG Version: 6.00 Build 0)  -->
<svg id="Layer_1" width="800" height="122.57" enable-background="new 0 0 189.277 29" version="1.1" viewBox="0 0 800 122.57" xml:space="preserve" xmlns="http://www.w3.org/2000/svg" xmlns:cc="http://creativecommons.org/ns#" xmlns:dc="http://purl.org/dc/elements/1.1/" xmlns:rdf="http://www.w3.org/1999/02/22-rdf-syntax-ns#"><metadata id="metadata13"><rdf:RDF><cc:Work rdf:about=""><dc:format>image/svg+xml</dc:format><dc:type rdf:resource="http://purl.org/dc/dcmitype/StillImage"/><dc:title/></cc:Work></rdf:RDF></metadata><path id="path2" d="m118.75 47.486c-5.1016-8.4321-11.539-16.712-19.24-24.422-7.7009-7.7009-15.981-14.138-24.422-19.235-8.466-5.1058-19.13-5.1058-27.596 0-8.4237 5.0973-16.704 11.534-24.417 19.235-7.6967 7.7094-14.142 15.989-19.24 24.413-5.11 8.4702-5.11 19.13 0 27.6 5.0973 8.4364 11.539 16.712 19.24 24.417 7.7094 7.7052 15.989 14.155 24.426 19.244 8.466 5.1058 19.134 5.1058 27.591 0 8.4448-5.1016 16.716-11.534 24.417-19.244 7.6967-7.7052 14.138-15.981 19.24-24.417 5.1142-8.449 5.1142-19.126 0-27.591z" fill="#f73d4f" stroke-width="4.2266"/><polygon id="polygon4" transform="matrix(4.2266 0 0 4.2266 -.0010567 5e-7)" points="14.819 16.834 17.152 19.168 17.152 23.836 14.819 21.502 12.485 19.168 10.15 16.834 7.817 14.5 10.15 12.166 12.485 9.833 14.819 7.498 17.152 5.164 17.152 9.833 14.819 12.166 12.485 14.5" fill="#fff"/><path id="path6" d="m231.36 55.969c0.46916 0.7608 0.75234 2.9248 0.65935 6.6062-0.0972 3.6729-0.28318 6.0356-0.65935 7.0669-5.0931 3.1108-11.315 4.7127-18.669 4.7127-10.465 0-18.855-3.1108-25.174-9.2394-6.3146-6.1286-9.4254-13.762-9.4254-22.815 0-9.0492 3.1108-16.683 9.4254-22.811 6.3188-6.1244 14.709-9.2394 25.174-9.2394 7.3544 0 13.572 1.6061 18.669 4.7127 0.37617 1.0355 0.56214 3.394 0.65935 7.0712 0.0888 3.6729-0.19019 5.8454-0.65935 6.602-6.3188-3.8674-12.257-5.8497-17.82-5.8497-5.7482 0-10.465 1.7921-14.333 5.3721-3.8632 3.4912-5.7482 8.2039-5.7482 14.142 0 5.9427 1.8851 10.655 5.7482 14.24 3.8674 3.487 8.5843 5.2791 14.333 5.2791 5.5623 0 11.505-1.9823 17.82-5.8497zm68.721 16.974c-4.9959 0.84533-10.089 0.84533-15.085 0v-35.922l-28.568 35.922c-3.8632 0.65936-7.8277 0.65936-11.784 0v-61.278c4.9959-0.84955 10.085-0.84955 15.081 0v35.918l28.564-35.918c3.8674-0.65936 7.8277-0.65936 11.788 0v61.278zm53.349-37.241v-24.037c4.9959-0.84955 10.089-0.84955 15.085 0v61.278c-5.0001 0.84533-10.089 0.84533-15.085 0v-24.7h-25.36v24.7c-5.0001 0.84533-10.089 0.84533-15.085 0v-61.278c5.0001-0.84955 10.089-0.84955 15.085 0v24.041h25.36zm43.357 24.7h27.621c0.75235 4.1463 0.75235 8.2969 0 12.54h-42.702v-61.278h42.706c0.75234 4.2393 0.75234 8.3856 0 12.536h-27.621v11.505h24.417c0.75657 4.2435 0.75657 8.3856 0 12.54h-24.417v12.156zm38.082-48.737h24.041c6.881 0 12.447 1.8809 16.687 5.6552 4.2393 3.7744 6.4118 8.766 6.4118 14.89 0 6.1329-2.1725 11.125-6.4118 14.895-4.2393 3.7702-9.8058 5.6637-16.687 5.6637h-8.9562v20.17c-4.9959 0.84533-10.089 0.84533-15.081 0v-61.274zm15.085 28.564h8.9562c4.4337 0 7.7347-2.7304 7.7347-8.0137 0-5.2791-3.301-8.0137-7.7347-8.0137h-8.9562zm42.888-28.564h40.347c0.75656 4.2393 0.75656 8.3856 0 12.536h-25.263v48.742c-5.0001 0.84533-10.089 0.84533-15.085 0zm105.68 61.278c-4.9959 0.84533-10.089 0.84533-15.085 0v-35.922l-28.568 35.922c-3.8632 0.65936-7.8277 0.65936-11.784 0v-61.278c4.9959-0.84955 10.089-0.84955 15.085 0v35.918l28.568-35.918c3.8631-0.65936 7.8235-0.65936 11.784 0zm60.137-61.278v61.278c-4.9959 0.84533-10.089 0.84533-15.085 0v-20.744h-5.8454l-13.479 20.744c-2.1683 0.37617-4.9959 0.56637-8.2969 0.56637-3.301 0-5.9342-0.1902-8.1067-0.56637l14.895-23.001c-7.2614-3.301-11.691-9.8016-11.691-18.01 0-6.0356 2.071-10.939 6.2216-14.611 4.2435-3.7744 9.7086-5.6552 16.594-5.6552zm-15.085 12.536h-9.4254c-4.4337 0-7.7348 2.7304-7.7348 7.7305 0 5.0001 3.2968 7.7305 7.7348 7.7305h9.4254zm97.09-12.536c0.75657 4.2393 0.75657 8.3856 0 12.536h-16.59v48.742c-4.9959 0.84533-10.089 0.84533-15.085 0v-48.742h-16.594c-0.75234-4.2393-0.75234-8.3899 0-12.536zm10.178 0h26.395c5.9384 0 10.748 1.5047 14.43 4.5225 3.673 2.9206 5.5623 6.7838 5.5623 11.501 0 6.2258-2.8276 10.748-8.3899 13.58 5.9384 2.6332 9.6156 7.6333 9.6156 14.328 0 10.841-8.2039 17.346-21.028 17.346h-26.586zm15.085 12.536v12.629h9.6156c4.0533 0 6.602-2.257 6.602-6.3146 0-4.2393-2.1725-6.3146-6.602-6.3146zm0 23.192v13.01h10.558c4.4295 0 6.602-2.1683 6.602-6.5978 0-4.2478-2.3585-6.416-7.1642-6.416h-9.996zm-588.97 53.065c0-7.7221 5.6426-13.251 13.36-13.251 7.7601 0 13.403 5.5284 13.403 13.251 0 7.7178-5.6426 13.255-13.403 13.255-7.7136-4e-3 -13.36-5.5369-13.36-13.255zm21.163 0c0-4.8015-3.0728-8.4068-7.7982-8.4068-4.7212 0-7.7559 3.6095-7.7559 8.4068 0 4.7634 3.0347 8.411 7.7559 8.411 4.7212 0 7.7982-3.6476 7.7982-8.411zm28.149-12.832v4.8015h-13.251v4.5352h6.6443c5.4524 0 8.4871 3.7237 8.4871 8.1405 0 4.4168-2.9925 8.1447-8.4871 8.1447h-12.097v-25.622zm-13.251 14.138v6.6823h5.9131c2.1133 0 3.6518-1.3145 3.6518-3.3433 0-2.0753-1.5385-3.339-3.6518-3.339zm18.513 11.484v-25.622h11.983c5.5665 0 8.6012 3.7659 8.6012 8.2546 0 4.4591-3.0728 8.2588-8.6012 8.2588h-6.5302v9.1042h-5.4524zm15.017-17.363c0-2.1514-1.6146-3.4532-3.7659-3.4532h-5.799v6.9148h5.799c2.1514-0.0042 3.7659-1.3483 3.7659-3.4616zm23.771 17.363-1.5723-4.3408h-10.989l-1.6104 4.3408h-6.2258l9.9115-25.622h6.8387l9.8692 25.622zm-7.0669-20.17-3.9942 11.027h7.9884zm13.631 16.518 2.8403-3.6476c1.7667 1.8513 4.9959 2.9206 7.4896 2.9206 3.3813 0 5.3425-1.3441 5.3425-3.2672 0-2.033-1.8048-2.9502-5.6468-2.9502h-5.1861v-4.8057h5.1861c3.0305 0 5.2241-0.84955 5.2241-2.7304 0-2.0372-2.3035-3.039-5.2241-3.039-2.4937 0-5.148 0.92563-6.9528 2.6501l-2.7262-3.4194c2.071-2.3416 5.7229-4.0745 10.216-4.0745 5.9891 0 10.14 2.6924 10.14 6.957 0 3.2292-2.7684 5.3382-5.5707 5.8412 2.5698 0.26628 5.9553 2.2993 5.9553 6.1413 0 4.4168-4.4168 7.5319-10.524 7.5319-4.7212 4e-3 -8.6773-1.8005-10.562-4.1083zm23.973-9.138c0-7.7221 5.6468-13.251 13.365-13.251 7.7601 0 13.403 5.5284 13.403 13.251 0 7.7178-5.6426 13.255-13.403 13.255-7.7178-4e-3 -13.365-5.5369-13.365-13.255zm21.159 0c0-4.8015-3.0728-8.4068-7.7982-8.4068s-7.7559 3.6095-7.7559 8.4068c0 4.7634 3.0347 8.411 7.7559 8.411 4.7254 0 7.7982-3.6476 7.7982-8.411zm9.4465 12.79v-25.622h13.479c4.8775 0 7.3755 3.1108 7.3755 6.5302 0 3.2292-1.995 5.3721-4.4168 5.8793 2.7304 0.42266 4.9156 3.077 4.9156 6.2977 0 3.8336-2.574 6.9148-7.4516 6.9148zm15.284-18.128c0-1.6188-1.1496-2.8065-2.9924-2.8065h-6.8387v5.5665h6.8387c1.8428 0 2.9924-1.1454 2.9924-2.76zm0.49875 10.448c0-1.6146-1.1496-3.0009-3.3052-3.0009h-7.0289v5.9553h7.0289c2.0753 0 3.3052-1.1158 3.3052-2.9544zm27.346 7.6798-1.5723-4.3408h-10.989l-1.6104 4.3408h-6.2216l9.9115-25.622h6.8345l9.8692 25.622zm-7.0669-20.17-3.9942 11.027h7.9884zm19.121 20.17v-20.82h-7.4854v-4.8015h20.432v4.8015h-7.4516v20.82zm16.442 0v-25.622h18.128v4.8015h-12.676v5.4185h12.405v4.8015h-12.405v5.799h12.676v4.8015zm20.854-4.3788c2.574 0 4.0703-1.3863 4.8775-8.1405l1.4962-13.103h18.204v25.622h-5.4904v-20.82h-7.7982l-0.99748 8.6815c-1.23 10.638-5.0677 12.6-10.296 12.6v-4.8395zm35.064-21.243v9.1042h6.5259c5.5327 0 8.6054 3.7998 8.6054 8.2546 0 4.4929-3.0347 8.2588-8.6054 8.2588h-11.978v-25.622h5.4524zm0 13.906v6.9148h5.799c2.1514 0 3.7659-1.3145 3.7659-3.4574 0-2.1091-1.6146-3.4532-3.7659-3.4532h-5.799zm36.062 11.716v-10.757h-12.097v10.757h-5.4524v-25.622h5.4524v10.064h12.097v-10.064h5.4904v25.622zm15.977-25.622v9.1042h6.5302c5.5284 0 8.6012 3.7998 8.6012 8.2546 0 4.4929-3.0347 8.2588-8.6012 8.2588h-11.983v-25.622h5.4524zm0 13.906v6.9148h5.799c2.1514 0 3.7659-1.3145 3.7659-3.4574 0-2.1091-1.6104-3.4532-3.7659-3.4532h-5.799zm17.283 11.716v-25.622h5.4904v25.622zm10.558 0v-25.622h5.4524v16.556l11.873-16.556h5.6045v25.622h-5.4524v-17.173l-12.215 17.173zm11.484-26.81c-2.7262 0-5.1819-1.3103-6.7584-3.3813l2.1514-1.809c1.0355 1.4666 2.6121 2.3796 4.607 2.3796 1.9231 0 3.4954-0.87914 4.569-2.3796l2.1556 1.809c-1.5427 2.0753-3.9561 3.3813-6.7246 3.3813zm32.266 26.81v-20.82h-7.4896v-4.8015h20.432v4.8015h-7.4516v20.82zm16.433 0v-25.622h18.124v4.8015h-12.671v5.4185h12.405v4.8015h-12.405v5.799h12.671v4.8015zm20.854-4.3788c2.574 0 4.0702-1.3863 4.8775-8.1405l1.4962-13.103h18.204v25.622h-5.4946v-20.82h-7.7939l-0.99748 8.6815c-1.23 10.638-5.0677 12.6-10.292 12.6zm29.612 4.3788v-25.622h18.128v4.8015h-12.676v5.4185h12.405v4.8015h-12.405v5.799h12.676v4.8015zm37.592 0-7.7559-10.254-1.995 2.3796v7.8742h-5.4524v-25.622h5.4524v11.45l9.0661-11.45h6.7204l-10.178 12.021 10.871 13.601zm26.886 0-1.5723-4.3408h-10.989l-1.6104 4.3408h-6.2216l9.9115-25.622h6.8387l9.865 25.622zm-7.0627-20.17-3.9942 11.027h7.9884zm33.217 20.17v-10.757h-12.097v10.757h-5.4524v-25.622h5.4524v10.064h12.097v-10.064h5.4946v25.622zm28.192 0-1.5723-4.3408h-10.989l-1.6103 4.3408h-6.2216l9.9115-25.622h6.8387l9.8692 25.622zm-7.0669-20.17-3.9942 11.027h7.9884zm14.13 15.791c2.574 0 4.0702-1.3863 4.8775-8.1405l1.4962-13.103h18.204v25.622h-5.4946v-20.82h-7.7939l-0.99749 8.6815c-1.23 10.638-5.0677 12.6-10.296 12.6v-4.8395z" fill="#fff" stroke-width="4.2266"/></svg>
