<svg id="a" width="523.7pt" height="265.17pt" version="1.1" viewBox="0 0 523.7 265.17" xmlns="http://www.w3.org/2000/svg">
 <path id="b" d="m398.58 18.33 72.09-18.33 15.39 60.085-36.418 115.94-39.982-115.94-149.24 2.5e-4 -1.7441-6.5449z" fill="#00a3bc"/>
 <path id="c" d="m0 72.065h152.34l21.755 78.535 21.755-78.535h46.565v136.76h-32.04v-77.15l-21.022 77.156-30.903-0.00554-20.69-76.82v76.82h-32.21v-107.69l-31.47 0.06v107.63h-34.15v-107.82l-39.93-0.07z" fill="#00a3bc"/>
 <path id="d" d="m267.27 86.15h39.945v129.74h31.765v-129.74h45.72l46.79 129.74h34.2l34.87-96.525 23.14 92.54-211.33 53.27z" fill="#00a3bc"/>
 <g id="e" transform="translate(-60.26 -136.2)" fill="#00a3bc">
  <path id="f" d="m113.66 391.07v-17.861h-6.379v-3.6368h17.084v3.6368h-6.3643v17.861z"/>
  <path id="g" d="m144.41 391.07h-4.7219l-1.877-4.8832h-8.5933l-1.7744 4.8832h-4.6046l8.3733-21.498h4.5899zm-7.992-8.5053-2.9622-7.9774-2.9035 7.9774z"/>
  <path id="h" d="m148.45 391.07v-17.861h-6.379v-3.6368h17.084v3.6368h-6.3643v17.861z"/>
  <path id="i" d="m178.74 391.07h-4.7219l-1.877-4.8832h-8.5933l-1.7744 4.8832h-4.6046l8.3733-21.498h4.5899zm-7.992-8.5053-2.9622-7.9774-2.9035 7.9774z"/>
  <path id="j" d="m180.43 391.07v-21.498h9.1359q3.4461 0 5.0005 0.58657 1.5691 0.57191 2.5076 2.053 0.93851 1.4811 0.93851 3.3875 0 2.4196-1.4224 4.0034-1.4224 1.5691-4.2526 1.9797 1.4078 0.8212 2.317 1.8037 0.92385 0.98251 2.4783 3.4901l2.6249 4.194h-5.1912l-3.1382-4.6779q-1.6717-2.5076-2.2876-3.1528-0.6159-0.65989-1.3051-0.89452-0.68923-0.24929-2.185-0.24929h-0.87985v8.9746zm4.3406-12.406h3.2115q3.1235 0 3.9007-0.26396 0.77721-0.26395 1.2172-0.90919 0.43992-0.64522 0.43992-1.6131 0-1.0852-0.58657-1.7451-0.57191-0.67456-1.6277-0.85053-0.52791-0.0734-3.1675-0.0734h-3.3874z"/>
  <path id="k" d="m209.25 391.07v-21.498h6.4963l3.9007 14.664 3.8567-14.664h6.511v21.498h-4.0327v-16.923l-4.2673 16.923h-4.1793l-4.2527-16.923v16.923z"/>
  <path id="l" d="m234.13 369.57h4.3406v11.643q0 2.7716 0.1613 3.5928 0.27862 1.3198 1.3198 2.1263 1.0558 0.79188 2.8742 0.79188 1.8477 0 2.7862-0.74789 0.93852-0.76254 1.1292-1.8624 0.19064-1.0998 0.19064-3.6514v-11.893h4.3406v11.292q0 3.8714-0.35194 5.4698t-1.3051 2.6982q-0.93852 1.0998-2.5223 1.7597-1.5837 0.64522-4.1353 0.64522-3.0795 0-4.6779-0.70389-1.5838-0.71855-2.5076-1.8477-0.92385-1.1438-1.2171-2.3903-0.42526-1.8477-0.42526-5.4551z"/>
  <path id="m" d="m253.99 384.08 4.2233-0.4106q0.38127 2.1263 1.5398 3.1235 1.1732 0.99717 3.1528 0.99717 2.097 0 3.1528-0.87986 1.0705-0.89452 1.0705-2.0823 0-0.76255-0.45459-1.2905-0.43993-0.54258-1.5544-0.93851-0.76255-0.26396-3.4754-0.93852-3.4901-0.8652-4.8979-2.1263-1.9797-1.7744-1.9797-4.326 0-1.6424 0.92385-3.0648 0.93851-1.4371 2.6836-2.185 1.7597-0.74788 4.238-0.74788 4.0474 0 6.0857 1.7744 2.053 1.7744 2.1556 4.7366l-4.3406 0.19064q-0.27862-1.6571-1.2025-2.3756-0.90919-0.73322-2.7422-0.73322-1.8917 0-2.9622 0.77721-0.68922 0.49858-0.68922 1.3344 0 0.76254 0.64523 1.3051 0.8212 0.68922 3.9887 1.4371 3.1675 0.74787 4.6779 1.5544 1.5251 0.79188 2.3756 2.185 0.8652 1.3784 0.8652 3.4168 0 1.8477-1.0265 3.4608t-2.9035 2.405q-1.877 0.7772-4.6779 0.7772-4.0767 0-6.2616-1.877-2.185-1.8917-2.6102-5.4991z"/>
  <path id="n" d="m274.57 391.07v-21.498h4.3406v21.498z"/>
  <path id="o" d="m296.2 383.17 4.2087 1.3344q-0.96784 3.5194-3.2262 5.2352-2.2436 1.701-5.7044 1.701-4.282 0-7.0389-2.9182-2.7569-2.9329-2.7569-8.0067 0-5.3671 2.7716-8.3293 2.7716-2.9769 7.2882-2.9769 3.9447 0 6.4083 2.3316 1.4664 1.3784 2.1996 3.9594l-4.2966 1.0265q-0.38127-1.6717-1.5984-2.6396-1.2025-0.96785-2.9329-0.96785-2.3903 0-3.886 1.7157-1.4811 1.7157-1.4811 5.5578 0 4.0767 1.4664 5.8071t3.8127 1.7304q1.7304 0 2.9768-1.0998 1.2465-1.0998 1.789-3.4608z"/>
 </g>
</svg>
