<svg id="a" width="740.7pt" height="425.98pt" version="1.1" viewBox="0 0 740.7 425.98" xmlns="http://www.w3.org/2000/svg">
 <path id="b" d="m96.246 0.0011608c-21.275-0.0936-42.577 5.4732-60.703 16.677-13.99 9.19-26.06 22.09-31.83 38.02-5.89 16.17-4.7791 34.83 3.3809 50.03 8.62 16.82 24.05 29.31 41 37.14 9.98 4.84 20.939 6.7803 31.639 9.3003l-0.35889 4.9658c-0.0204 0.0183-0.0425 0.0345-0.063 0.0527a26.036 16.792 0 0 0-8.5151 8.2998c-0.64415 1.2901-1.049 2.7808-1.0825 4.5923 8e-3 0.40151 0.0368 0.78743 0.0835 1.1616a26.036 16.792 0 0 0 9.5303 11.944l0.2417 6.2241c-1.9977 0.47923-4.0053 1.0594-5.9062 1.7798-5.6854 2.1832-5.2929 3.2485 0.30176 6.0337 1.8034 0.71166 3.7614 1.1282 5.6045 1.5659v221.73c0.05 1.83-0.0952 4.0094 1.4648 5.3394 1.0082 0.88577 2.2705 1.0917 3.5684 1.1206h23.612c2.64-0.18999 3.2398-3.3301 4.0898-5.3101h62.08c2.5106 0.0592 3.6084-2.2799 3.4966-4.6025-0.13232-2.1401-1.4287-4.3168-3.9609-4.3374h-16.682v-10.436h15.186c2.9958-0.18797 5.4807-0.44318 5.3892-3.7646-0.34784-2.755-2.4224-3.7202-5.1885-3.5947h-8.9604v-10.216h11.66c3.333-0.66147 3.5321-6.6757-0.39112-7.3828h-10.774v-10.497h11.145c2.99-0.67 3.3797-5.6602 0.73974-6.9302h-18.91v-10.879h17.15c4.68 0.27 4.8786-8.8898 0.11865-8.7598h-62.54l1e-3 -141.57c1.779-0.56866 4.0803-0.80154 6.0454-1.4766 4.1282-1.4622 5.0968-4.4175 0.0747-6.0337-2.039-0.71413-4.2899-0.98124-6.1201-1.7798l-0.0308-6.0161a26.036 16.792 0 0 0 9.5566-10.296c0.11362-0.38036 0.20907-0.76659 0.27246-1.1616a26.036 16.792 0 0 0 0.022-0.1377c0.0495-0.3431 0.0739-0.69253 0.082-1.0459a26.036 16.792 0 0 0 0.044-0.56982 26.036 16.792 0 0 0-9.8101-13.112l-0.21681-4.9805c6.7-1.83 13.7-2.5009 20.24-4.9409 14.35-4.41 27.53-12.319 38.42-22.639 10.28-10.33 18.251-23.541 20.161-38.181 2.44-14.87-1.08-30.429-9-43.179-7.8195-11.96-18.69-21.94-31.3-28.66-16.533-8.9156-35.285-13.406-54.057-13.488zm-1.043 16.718c17.458-0.14301 34.992 4.0954 50.13 12.889 12.47 7.59 23.24 18.83 27.81 32.93 2.73 9.16 2.461 19.15-0.479 28.23-4.02 10.31-10.85 19.55-19.8 26.13-8.15 6.38-17.681 10.71-27.431 14.01-19 5.36-39.49 5.37-58.55 0.22998-15.09-4.86-29.799-12.79-39.729-25.48-6.1-8.16-10.59-17.86-10.73-28.2-0.77-14 6.2201-27.32 15.87-37.05 14.65-14.49 35.18-21.76 55.44-23.36 2.4837-0.19875 4.9752-0.30916 7.4692-0.32959z" fill="#00ffd9"/>
 <path id="c" d="m45.473 37.679c4.93-5.32 10.89-9.51 16.61-13.92 4.2 4.56 8.6 8.93 13.15 13.15 4.96-4.87 10.69-8.82 16.05-13.21 4.12 4.67 8.62 9 13.17 13.26 5-4.88 10.85-8.75 16.1-13.34 4.66 5.53 10.32 10.08 15.05 15.54-1.67 2.12-3.55 4.4-3.19 7.31 0.02 18.34 0 36.68-0.09 55.02 0 3.38-0.14 7.51 3.01 9.66 2.25-0.39 4.24-1.59 6.27-2.6 0.67 0.83 1.35 1.65 2.03 2.49-5.83 6.16-12.57 11.37-18.38 17.56-4.54-4.48-10.11-7.97-13.87-13.19 2.16-3.24 6.31-5.6 6.1-9.98 0.15-18.65 0.06-37.3 0.05-55.95 0.13-4.24-3.08-7.75-6.51-9.82-3.75-2.82-8.17 1.91-7.71 5.78 0 20.04-0.03 40.09 0.02 60.13-0.1 4.3 3.89 6.85 6.35 9.82-4.47 4.67-9.38 8.88-14.05 13.34-4.34-4.72-9.77-8.33-13.78-13.37 2.49-2.95 6.39-5.53 6.31-9.83 0.15-18.35 0-36.7 0.13-55.04 0.37-4.94-3.31-9.48-7.69-11.32-3.7-1.69-6.91 2.96-6.56 6.3-0.1 19.01 0.05 38.02-0.04 57.03 0.05 1.99-0.06 4.03 0.53 5.96 1.43 2.68 3.86 4.63 5.82 6.91-4.27 4.82-9.46 8.7-13.95 13.31-4.4-4.71-9.75-8.39-13.97-13.26 2.64-2.96 6.47-5.68 6.45-10.07 0.29-16.3 0.08-32.6 0.03-48.9-0.03-4.26 0.86-9.04-1.99-12.67-2.16-3.51-6.19-5.53-10.3-4.58-0.29-0.38-0.86-1.14-1.15-1.52z" fill="#00ffd9"/>
 <path id="d" d="m490.32 113.41c5.42 5.9 12.2 10.38 17.28 16.65-5.2 5.79-11.5 10.47-16.54 16.41-4.92-6-11.8-10.02-16.53-16.22 4.35-6.43 11.09-10.69 15.79-16.84z" fill="#00ffd9"/>
 <path id="e" d="m200.92 151.99c7.6907-8.2991 16.988-14.835 25.911-21.715 6.5519 7.1135 13.416 13.931 20.514 20.514 7.7375-7.5971 16.676-13.759 25.038-20.607 6.4271 7.2851 13.447 14.04 20.545 20.685 7.7999-7.6127 16.926-13.65 25.116-20.81 7.2695 8.6267 16.099 15.725 23.478 24.242-2.6052 3.3072-5.538 6.8639-4.9764 11.404 0.0312 28.61 0 57.22-0.14039 85.83 0 5.2728-0.2184 11.716 4.6956 15.069 3.51-0.6084 6.6143-2.4804 9.7811-4.056 1.0452 1.2948 2.106 2.574 3.1668 3.8844-9.0947 9.6095-19.609 17.737-28.673 27.393-7.0823-6.9887-15.771-12.433-21.637-20.576 3.3696-5.0544 9.8435-8.7359 9.5159-15.569 0.234-29.094 0.0936-58.188 0.078-87.281 0.2028-6.6144-4.8048-12.09-10.156-15.319-5.85-4.3992-12.745 2.9796-12.028 9.0167 0 31.262-0.0468 62.54 0.0312 93.802-0.156 6.7079 6.0684 10.686 9.9059 15.319-6.9731 7.2851-14.633 13.853-21.918 20.81-6.7703-7.3631-15.241-12.995-21.497-20.857 3.8844-4.602 9.9683-8.6267 9.8435-15.335 0.234-28.626 0-57.252 0.2028-85.862 0.57719-7.7063-5.1636-14.789-11.996-17.659-5.772-2.6364-10.78 4.6176-10.234 9.8279-0.156 29.655 0.078 59.311-0.0624 88.966 0.078 3.1044-0.0936 6.2868 0.82679 9.2975 2.2308 4.1808 6.0216 7.2227 9.0791 10.78-6.6612 7.5191-14.757 13.572-21.762 20.763-6.8639-7.3475-15.21-13.088-21.793-20.685 4.1184-4.6176 10.093-8.8607 10.062-15.709 0.45239-25.428 0.1248-50.856 0.0468-76.283-0.0468-6.6456 1.3416-14.102-3.1044-19.765-3.3696-5.4756-9.6563-8.6267-16.068-7.1447-0.45241-0.59279-1.3416-1.7784-1.794-2.3712z" fill="#00ffd9" stroke-width="1.56"/>
 <path id="f" d="m360.9 166.79c14.26-9.56 26.31-22.04 36.94-35.42 4.51 7 10.71 12.73 17.4 17.62 3.8 2.46 7.71 5.08 12.26 5.88 3.15-4.29 7.23-7.75 11.14-11.33 1.08 1.33 2.26 2.61 3.15 4.1-0.3 1.9-2.25 2.98-3.45 4.33-3.79 3.23-6.73 7.53-7.71 12.46-1.44 5.24-0.68 10.7-0.81 16.05 0.05 24.04-0.14 48.1 0.09 72.14 3.29 9.92 13.98 14.03 21.65 19.99-8.2 6.11-15.16 13.58-21.69 21.39-3.74-6.51-8.64-12.38-14.59-16.97-4.46-3.56-9.02-8.38-8.59-14.54 0.07-29.3-0.07-58.6 0.14-87.9-6.91-3.86-13.37-8.63-18.64-14.56-1.28-1.47-2.57-2.94-4.07-4.18-0.08 29.55 0.11 59.11 0.01 88.66-0.25 4.92 0.1 10.24 3.43 14.19 5.09 5.91 12.3 9.3 18.46 13.91-8.01 6.17-15.35 13.29-21.37 21.42-2.47-3.32-4.54-6.96-7.49-9.89-4.45-4.97-9.87-8.95-14.28-13.96-0.91-2.81-1.91-5.66-1.91-8.66-0.07-31.57 0.12-63.15-0.07-94.73z" fill="#00ffd9"/>
 <path id="g" d="m443.6 154.37c6.95-8.39 15.97-14.76 22.99-23.08 6.99 8.22 15.05 15.46 22.87 22.89-4.59 5.15-11.72 9.55-11.69 17.27-0.03 23.33 0 46.68-0.01 70.02-0.01 6.55-0.5 13.44 2.32 19.55 2.36 5.2 7.6 8.1 12.32 10.83 4.96 2.55 8.94-2.94 11.56-6.38 0.17-29.66 0-59.33 0.1-88.99-0.06-3.25 0.31-6.59-0.58-9.76-1.99-5.29-6.74-8.72-10.61-12.58 7.01-8.38 16.53-14.28 23.01-23.11 6.52 8.84 15.33 15.55 23.07 23.24-4.66 4.7-11.35 9.07-11.54 16.39-0.06 27.93 0.13 55.86 0.13 83.79 0.05 6.01 0.97 13.18 6.36 16.86 2.63 2.39 6.22 0.69 8.47-1.34 4.98-4.21 11.08-9.27 10.56-16.5-0.05-27.67 0.01-55.35-0.04-83.02-0.3-7.14-6.81-11.44-11.34-16.09 7.06-8.34 16.01-14.84 23.1-23.15 6.81 8.41 15.12 15.47 22.78 23.09-4.69 4.98-11.51 9.51-11.65 17.08-0.01 13.22-0.09 26.45 0.11 39.66 4.37-4.25 9.11-8.14 12.86-13 4.16 4.48 8.8 8.45 13.46 12.39-0.16-12.98-0.05-25.97-0.05-38.95 0.37-7.66-6.35-12.72-11.53-17.23 7.39-8.06 16.12-14.78 23.22-23.1 6.76 8.64 15.28 15.62 23.18 23.16-3.24 2.56-6.07 5.58-8.85 8.61-2.88 3.5-2.84 8.25-2.78 12.54 0.05 26.32 0.06 52.65 0.11 78.97-0.32 7.58 6.93 11.67 11.38 16.63-7.84 7.45-15.71 14.87-23.03 22.84-7.27-8.1-15.96-14.71-23.21-22.81 4.6-4.8 11.7-9.09 11.42-16.61 0.06-12.55-0.09-25.1 0.07-37.66-4.2 4.18-9.15 7.63-12.67 12.45-4.03-4.69-8.91-8.54-13.54-12.6-0.35 10.94-0.07 21.88-0.2 32.82-0.13 4.21 0.17 8.73 2.81 12.22 2.68 3.43 6.11 6.18 9.07 9.37-7.6 7.64-16.16 14.32-22.84 22.83-6.1-6.54-12.95-12.29-19.41-18.44-6.5 5.92-13.4 11.48-18.84 18.45-6.22-7.28-12.14-14.81-18.53-21.93-8.46 6.86-17.37 13.35-24.23 21.92-5.28-5.92-11.46-10.9-17.93-15.45-4.74-3.88-10.35-8.33-10.89-14.91v-92.11c0.08-7.59-6.5-12.26-11.34-17.07z" fill="#00ffd9"/>
 <path id="h" d="m649.8 166.79c14.06-9.61 26.45-21.71 36.56-35.4 7.24 9.28 15.92 17.83 26.82 22.64 1.2 0.56 2.88 1.06 3.82-0.29 3.41-3.47 6.88-6.89 10.48-10.18 1.25 1.52 2.49 3.05 3.72 4.59-4.08 3.83-8.85 7.48-10.7 13-2.41 6.17-1.64 12.89-1.75 19.36 0 22.99 0.04 45.99 0 68.98-0.5 5.02 2.83 9.39 6.47 12.45 4.7 4.07 10.19 7.06 15.26 10.64-8.38 5.93-15.03 13.81-21.9 21.33-2.31-4.81-5.95-8.76-9.57-12.61-4.57-4.37-10.56-7.93-12.76-14.18-0.92-3.49-0.71-7.14-0.76-10.71 0.16-27.3-0.02-54.6 0.2-81.9-8.81-4.72-16.42-11.35-22.73-19.06 0.32 28.66 0.1 57.33 0.15 86 0.08 5.41-0.74 11.41 2.44 16.16 5.06 6.57 12.76 10.1 19.28 14.94-7.96 6.17-15.24 13.23-21.22 21.35-3.38-4.36-6.33-9.08-10.47-12.76-4.82-5.09-12.32-8.88-13.05-16.61-0.65-9.01-0.12-18.07-0.26-27.09-0.01-23.55 0.03-47.1-0.03-70.65z" fill="#00ffd9"/>
 <path id="i" d="m214.34 305.81h526.36v4.37h-526.36z" fill="#00ffd9"/>
 <path id="j" d="m218.91 325.29h18.84v3.84h-7.1697v20.695h-4.89v-20.695h-6.78z" fill="#00ffd9"/>
 <path id="k" d="m280.5 325.42h14.235v3.4898h-9.51v6.4h8.595v3.805h-8.595v7.35h9.61v3.685h-14.335z" fill="#00ffd9"/>
 <path id="l" d="m343.99 325.53h14.64v24.87h-4.7452v-21.265h-5.915c-0.58 6-1.53 12.125-3.74 17.765-1.23 2.87-4.54 3.58-7.34 3.73v-3.55c2.0281-0.67783 3.41-2.51 3.95-4.62 1.77-5.49 1.98-11.31 3.15-16.93z" fill="#00ffd9"/>
 <path id="m" d="m404.2 325.6h14.235v3.4898h-9.51v6.4h8.595v3.805h-8.595v7.35h9.61v3.685h-14.335z" fill="#00ffd9"/>
 <path id="n" d="m463.34 325.34h4.5752v9.7c2.2214 0 3.5879 0.32594 4.4798-0.9 1.81-2.66 2.59-5.84 3.75-8.8h4.93c-1.49 4.16-2.77 8.84-6.19 11.88 3.94 3.26 5.4968 8.7797 7.15 13.27h-5.12c-0.93426-3.2579-2.12-6.3997-3.84-9.2697-1.03-1.87-2.6627-1.82-5.1598-1.82v11.09h-4.5752z" fill="#00ffd9"/>
 <path id="o" d="m531.59 325.61h6.26l8.56 24.88h-4.88l-2.0342-5.735h-9.5868l-2.1011 5.735h-4.8379l8.62-24.88m2.1879 5.12-3.0921 10.74h8.0721l-3.22-10.74z" fill="#00ffd9"/>
 <path id="p" d="m589.58 325.37h4.5853v9.755h9.6548v-9.755h4.9449v24.98h-4.9449v-10.98h-9.6548v10.98h-4.5853z" fill="#00ffd9"/>
 <path id="q" d="m660.2 325.35h6.26l8.56 24.88h-4.88l-2.0342-5.735h-9.5868l-2.1011 5.735h-4.8379l8.62-24.88m2.1879 5.12-3.0921 10.74h8.0721l-3.22-10.74z" fill="#00ffd9"/>
 <path id="r" d="m722.96 325.59h14.64v24.87h-4.7452v-21.265h-5.915c-0.58 6-1.53 12.125-3.74 17.765-1.23 2.87-4.54 3.58-7.34 3.73v-3.55c2.0281-0.67783 3.41-2.51 3.95-4.62 1.77-5.49 1.98-11.31 3.15-16.93z" fill="#00ffd9"/>
</svg>
