<svg width="800" height="231.34" version="1.1" viewBox="0 0 800 231.34" xml:space="preserve" xmlns="http://www.w3.org/2000/svg">
<path d="m763.89 35.095h-16.646l-34.42 94.231h17.492l23.699-68.557 1.4106-4.5141 1.4106 4.5141 23.699 68.557h17.492zm-105.23 0v22.852h15.235v-22.852zm-42.601 38.37v-38.37h-15.235v54.451h57.836v40.062h15.235v-54.451h-57.836zm-15.235 55.861h15.235v-22.852h-15.235zm-44.576-93.949-56.708 56.708v-56.99h-15.235v94.231l53.887-54.169 2.8213-2.8213v56.99h15.235zm-18.903-26.802h-32.163v10.439h32.163zm-126.39 26.52h-16.646l-34.42 94.231h17.492l23.699-68.557 1.4106-4.5141 1.4106 4.5141 23.699 68.557h17.492zm-117.08 94.231h15.235v-62.068h-15.235zm-26.238-94.231v14.671h67.711v-14.671z" fill="#231f20" stroke-width="2.8213"/>
<g fill="#624983" stroke-width="2.8213"><path d="m799.15 181.52c0.56425 0 0.84638-0.28213 0.84638-0.84639v-27.366c0-0.56426-0.28213-0.84638-0.84638-0.84638h-19.185c-0.28213 0-0.56426 0.28212-0.56426 0.56425l-3.1034 20.878c-0.28213 1.1285-0.84639 1.9749-1.9749 1.9749-1.1285 0-1.6928-0.28213-2.257-0.84638-0.28213-0.28213-0.56426-0.28213-0.84639 0l-2.257 3.1034c-0.28213 0.28213-0.28213 0.56426 0 1.1285 1.4106 1.6928 3.3855 2.5392 6.2068 2.5392 4.2319 0 6.7711-2.8213 7.3354-7.0532l2.257-16.363h9.3102v22.288c0 0.56426 0.28213 0.84639 0.84639 0.84639zm-60.658-23.135h0.56426l4.5141 11.849h-9.8745zm9.3102 22.288c0.28213 0.56426 0.56426 0.84639 1.1285 0.84639h5.0783c0.56426 0 0.84639-0.28213 0.56426-0.84639l-11.849-27.649c0-0.28213-0.28212-0.28213-0.56425-0.28213h-5.9247c-0.28213 0-0.56426 0.28213-0.56426 0.28213l-12.414 27.649c-0.28213 0.56426 0 0.84639 0.56426 0.84639h5.3604c0.28213 0 0.84639-0.28213 0.84639-0.56426l1.9749-5.0783h14.389zm-66.3-27.931c-0.56426 0-0.84638 0.28213-0.84638 0.84639v27.366c0 0.56426 0.28212 0.84639 0.84638 0.84639h4.5141c0.56426 0 0.84639-0.28213 0.84639-0.84639v-11.285h12.978v11.285c0 0.56426 0.28213 0.84639 0.84639 0.84639h4.5141c0.56426 0 0.84638-0.28213 0.84638-0.84639v-27.366c0-0.56426-0.28212-0.84639-0.84638-0.84639h-4.5141c-0.56426 0-0.84639 0.28213-0.84639 0.84639v10.157h-12.978v-10.157c0-0.56426-0.28213-0.84639-0.84639-0.84639zm-33.573 5.6426h0.56426l4.5141 11.849h-10.157zm9.3102 22.288c0.28213 0.56426 0.56426 0.84639 1.1285 0.84639h5.0783c0.56426 0 0.84639-0.28213 0.56426-0.84639l-11.849-27.649c0-0.28213-0.28213-0.28213-0.56426-0.28213h-5.9247c-0.28213 0-0.56426 0.28213-0.56426 0.28213l-12.414 27.649c-0.28213 0.56426 0 0.84639 0.56425 0.84639h5.3604c0.28213 0 0.84639-0.28213 0.84639-0.56426l1.9749-5.0783h14.389zm-65.454-27.931c-0.56425 0-0.84638 0.28213-0.84638 0.84639v27.366c0 0.56426 0.28213 0.84639 0.84638 0.84639h4.5141c0.56426 0 0.84639-0.28213 0.84639-0.84639v-9.5924l3.1034-2.5392 9.5924 12.132c0.28212 0.28213 0.84638 0.56426 1.4106 0.56426h6.2068c0.56426 0 0.56426-0.28213 0.28213-0.84639l-13.542-15.517 12.696-11.849c0.28213-0.28213 0.28213-0.84638-0.28212-0.84638h-6.489c-0.56425 0-1.1285 0.28212-1.4106 0.28212l-11.849 11.849v-11.285c0-0.56426-0.28213-0.84638-0.84638-0.84638h-4.2319zm-40.627 0c-0.28213 0-0.84638 0.28213-0.84638 0.84639v27.366c0 0.56426 0.28213 0.84639 0.84638 0.84639h21.724c0.56426 0 0.84638-0.28213 0.84638-0.84639v-4.2319c0-0.56426-0.28212-0.84639-0.84638-0.84639h-16.363v-6.2068h14.106c0.56425 0 0.84638-0.28213 0.84638-0.84639v-4.2319c0-0.56426-0.28213-0.84638-0.84638-0.84638h-14.106v-5.3604h16.081c0.56426 0 0.84639-0.28213 0.84639-0.84639v-4.2319c0-0.56426-0.28213-0.84638-0.84639-0.84638h-21.442zm-19.467 28.777c0.56426 0 0.84638-0.28213 0.84638-0.84639v-27.366c0-0.56426-0.28212-0.84638-0.84638-0.84638h-19.185c-0.28213 0-0.56426 0.28212-0.56426 0.56425l-3.1034 20.878c-0.28213 1.1285-0.84639 1.9749-1.9749 1.9749-1.1285 0-1.6928-0.28213-2.257-0.84638-0.28213-0.28213-0.56426-0.28213-0.84639 0l-2.257 3.1034c-0.28213 0.28213-0.28213 0.56426 0 1.1285 1.4106 1.6928 3.3856 2.5392 6.2068 2.5392 4.2319 0 6.7711-2.8213 7.3354-7.0532l2.257-16.363h9.3102v22.288c0 0.56426 0.28213 0.84639 0.84639 0.84639zm-67.429-28.777c-0.28213 0-0.84638 0.28213-0.84638 0.84639v27.366c0 0.56426 0.28213 0.84639 0.84638 0.84639h21.724c0.56426 0 0.84638-0.28213 0.84638-0.84639v-4.2319c0-0.56426-0.28212-0.84639-0.84638-0.84639h-16.363v-6.2068h14.106c0.56426 0 0.84638-0.28213 0.84638-0.84639v-4.2319c0-0.56426-0.28212-0.84638-0.84638-0.84638h-14.106v-5.3604h16.081c0.56426 0 0.84639-0.28213 0.84639-0.84639v-4.2319c0-0.56426-0.28213-0.84638-0.84639-0.84638h-21.442zm-41.755 0c-0.56426 0-0.84639 0.28213-0.84639 0.84639v4.2319c0 0.56426 0.28213 0.84639 0.84639 0.84639h9.3102v22.288c0 0.56426 0.28212 0.84639 0.84638 0.84639h4.5141c0.56426 0 0.84639-0.28213 0.84639-0.84639v-22.288h9.3102c0.56425 0 0.84638-0.28213 0.84638-0.84639v-4.2319c0-0.56426-0.28213-0.84639-0.84638-0.84639z"/><path d="m178.19 34.531c-2.8213-2.257-3.3856-6.489-1.1285-9.3102 2.257-2.8213 6.489-3.3856 9.3102-1.1285 12.978 9.8745 23.417 22.288 31.034 36.112 7.6175 14.106 12.414 29.624 13.824 45.705 2.8213 31.881-7.8996 61.786-26.802 84.356-19.185 22.57-46.833 38.087-78.714 40.627-31.881 2.8213-61.786-7.8996-84.357-26.802-22.852-19.185-38.087-46.833-40.909-78.714-2.8213-31.881 7.8996-61.786 26.802-84.356 19.185-22.57 46.833-38.087 78.714-40.627 7.6175-0.56426 15.235-0.56426 23.135 0.28212 7.6175 0.84639 15.235 2.5392 22.57 4.7962 3.3856 1.1285 5.3604 4.7962 4.2319 8.4639-1.1285 3.3855-4.7962 5.3604-8.4639 4.2319-6.489-1.9749-13.26-3.6677-20.031-4.2319-6.7711-0.84639-13.542-0.84639-20.313-0.28213-28.213 2.257-52.758 16.081-69.686 36.112-16.928 20.031-26.238 46.551-23.699 74.764 2.5392 27.931 16.081 52.476 36.112 69.404 20.031 16.928 46.551 26.238 74.764 23.699 28.213-2.257 52.758-16.081 69.686-36.112 16.928-20.031 26.238-46.551 23.699-74.764-1.1285-14.389-5.3604-28.213-12.132-40.344-7.0532-12.132-16.363-23.135-27.649-31.881"/><path d="m59.412 166.85c2.5392 2.8213 2.257 6.7711-0.28213 9.3102-2.8213 2.5392-6.7711 2.257-9.3102-0.28213-8.4639-9.0281-14.671-19.749-18.62-31.316s-5.3604-23.981-4.2319-36.112c2.257-24.263 14.106-45.423 31.316-59.811 17.492-14.389 40.344-22.288 64.607-20.031 24.263 2.257 45.423 14.106 59.811 31.316 14.389 17.21 22.288 39.78 20.313 64.043v1.1285c-2.257 23.981-14.106 44.858-31.316 59.247-17.21 14.389-39.78 22.288-64.043 20.313h-1.1285c-5.6426-0.56426-11.285-1.6928-16.646-3.1034-5.6426-1.6928-11.003-3.9498-16.363-6.7711-3.1034-1.6928-4.5141-5.6426-2.8213-9.0281 1.6928-3.1034 5.6426-4.5141 9.0281-2.8213 4.5141 2.257 9.0281 4.2319 13.824 5.6426 4.7962 1.4106 9.8745 2.257 14.671 2.8213 20.595 1.9749 40.062-4.7962 54.733-17.21 14.671-12.414 24.827-30.188 26.802-50.783 1.9749-20.595-4.7962-40.062-17.21-54.733-12.414-14.671-30.188-24.827-51.065-26.802-20.595-1.9749-40.062 4.7962-54.733 17.21-14.671 12.414-24.827 30.188-26.802 51.065-0.84639 10.439 0.28213 20.878 3.6677 30.752 3.3855 9.3102 8.746 18.338 15.799 25.956"/><path d="m98.91 111.27c2.257 1.4106 3.6677 4.2319 2.8213 7.0532l-9.3103 38.934h45.705l-7.6175-35.548h-8.4639c-3.6677 0-6.7711-3.1034-6.7711-6.7711s3.1034-6.7711 6.7711-6.7711h13.824c3.1034 0 5.9247 2.257 6.489 5.3604l10.439 48.526c0.28213 0.56426 0.28213 1.1285 0.28213 1.6928 0 3.6677-3.1034 6.7711-6.7711 6.7711h-62.35c-0.56426 0-1.1285 0-1.4106-0.28213-3.6677-0.84639-5.6426-4.5141-4.7962-7.8996l10.157-42.884c-3.1034-2.8213-5.3604-6.2068-7.3353-9.8745-2.5392-5.0783-3.9498-10.721-3.9498-16.363 0-10.157 3.9498-19.185 10.721-25.674 6.489-6.489 15.799-10.721 25.674-10.721 10.157 0 19.185 3.9498 25.674 10.721 6.489 6.489 10.721 15.799 10.721 25.674 0 3.6677-3.1034 6.7711-6.7711 6.7711-3.6677 0-6.7711-3.1034-6.7711-6.7711 0-6.489-2.5392-12.132-6.7711-16.363-3.6677-4.5141-9.5924-7.0532-16.081-7.0532s-12.132 2.5392-16.363 6.7711-6.7711 9.8745-6.7711 16.363c0 3.6677 0.84639 7.3353 2.5392 10.439 1.4106 3.1034 3.6677 5.9247 6.489 7.8996"/></g>
</svg>
