<?xml version="1.0" encoding="UTF-8"?>
<svg id="svg19" width="702.15pt" height="977.34pt" version="1.1" viewBox="0 0 702.15 977.34" xmlns="http://www.w3.org/2000/svg" xmlns:cc="http://creativecommons.org/ns#" xmlns:dc="http://purl.org/dc/elements/1.1/" xmlns:rdf="http://www.w3.org/1999/02/22-rdf-syntax-ns#">
 <metadata id="metadata25">
  <rdf:RDF>
   <cc:Work rdf:about="">
    <dc:format>image/svg+xml</dc:format>
    <dc:type rdf:resource="http://purl.org/dc/dcmitype/StillImage"/>
    <dc:title/>
   </cc:Work>
  </rdf:RDF>
 </metadata>
 <path id="path7" d="m363.86 6.6187e-6c-1.082 0.00105-2.1642 0.016478-3.2461 0.027833-0.3037 0.003525-0.60745 3e-3 -0.91114 0.00735-7.0583 0.092975-14.114 0.40022-21.152 0.93311-14.677 1.119-29.279 3.2074-43.685 6.2314-0.23781 0.049718-0.47568 0.099179-0.71338 0.14941-1.4512 0.30791-2.9007 0.62223-4.3476 0.94922-0.11464 0.025807-0.22963 0.050242-0.34424 0.076172-2e-3 4.455e-4 -4e-3 0.00105-6e-3 0.0015-1.3387 0.30401-2.6759 0.61719-4.0107 0.9375-0.93533 0.2237-1.8689 0.4553-2.8022 0.68701-0.35511 0.08843-0.71013 0.17702-1.0649 0.2666-14.47 3.6425-28.694 8.2499-42.546 13.813-0.39485 0.1581-0.78936 0.31646-1.1836 0.47607-0.73356 0.29797-1.4673 0.59608-2.1987 0.89942-2.804 1.1587-5.593 2.3547-8.3643 3.5903-0.77307 0.34322-1.5426 0.69383-2.313 1.043-0.41883 0.19062-0.83735 0.38183-1.2554 0.57422-4.6983 2.1531-9.3464 4.4111-13.938 6.7808-0.23086 0.11898-0.45935 0.24229-0.68994 0.36182-1.4923 0.77458-2.9801 1.5585-4.4604 2.3555-0.58206 0.31304-1.1615 0.63125-1.7417 0.94776-1.1689 0.63824-2.3354 1.28-3.4966 1.9321-0.70746 0.39703-1.4122 0.799-2.1167 1.2012-0.98819 0.56441-1.9737 1.1336-2.9561 1.708-0.82384 0.48151-1.6456 0.96607-2.4653 1.4546-0.89829 0.53552-1.7932 1.0763-2.6865 1.6201-0.83547 0.50858-1.6695 1.0193-2.5005 1.5352-0.89454 0.55531-1.7855 1.1165-2.6748 1.6802-0.79488 0.50382-1.5897 1.0071-2.3804 1.5176-0.95812 0.61849-1.9105 1.2454-2.8623 1.8735-0.72662 0.47962-1.4538 0.95764-2.1768 1.4429-1.06 0.71123-2.1122 1.4331-3.1641 2.1562-0.58449 0.40197-1.1729 0.79846-1.7549 1.2041-1.4646 1.0204-2.9198 2.0549-4.3682 3.0981-0.16873 0.1216-0.33979 0.2399-0.5083 0.36182-6.777 4.9004-13.368 10.056-19.768 15.441-1.6035 1.3492-3.194 2.7143-4.7725 4.0928-17.293 15.102-33.066 31.941-46.961 50.221-0.21566 0.28324-0.42831 0.56862-0.64307 0.85254-0.91508 1.2118-1.8246 2.4276-2.7231 3.6518-0.54164 0.73656-1.0757 1.4783-1.6113 2.2192-0.3292 0.45638-0.66628 0.90717-0.99316 1.3652-0.19742 0.27605-0.38789 0.55685-0.58448 0.8335-0.79006 1.1117-1.5717 2.2288-2.3481 3.3501-0.43738 0.63162-0.87358 1.2638-1.3066 1.8984-0.73641 1.0793-1.4648 2.164-2.1885 3.252-0.4742 0.71255-0.94774 1.4255-1.4165 2.1416-0.63389 0.96901-1.2615 1.9424-1.8853 2.918-0.57067 0.89169-1.1384 1.7851-1.7007 2.6821-0.46598 0.74444-0.92714 1.4916-1.3872 2.2398-0.74294 1.2061-1.4798 2.416-2.2075 3.6313-0.09059 0.15166-0.18506 0.30084-0.27539 0.45264-0.17961 0.29928-0.35018 0.60397-0.52881 0.90381-0.71542 1.2075-1.4281 2.4165-2.1284 3.6328-0.74864 1.2946-1.4842 2.5962-2.2148 3.9009-0.19437 0.34821-0.38986 0.69555-0.583 1.0444-0.95582 1.7216-1.8954 3.4515-2.8198 5.1899-4.0083 7.538-7.7276 15.227-11.139 23.052-0.83405 1.9133-1.6557 3.8311-2.4536 5.7598-3.2898 7.9264-6.2759 15.979-8.9429 24.136-7.2986 22.283-12.214 45.337-14.7 68.65-0.0016 0.0152-0.0028 0.0303-0.0044 0.0455-0.22903 2.1508-0.43794 4.3037-0.62549 6.4585-0.02578 0.29439-0.04971 0.58886-0.07471 0.88331-0.16831 1.9946-0.32286 3.9896-0.45557 5.9868-0.02947 0.44124-0.05286 0.88287-0.08057 1.3242-0.10284 1.6458-0.19384 3.2923-0.27246 4.9394-0.0222 0.46392-0.04859 0.9276-0.06885 1.3916-2.2e-5 4.8e-4 2.1e-5 7.5e-4 0 2e-3 -0.0803 1.843-0.1405 3.6872-0.19043 5.5312-0.01541 0.57278-0.03151 1.1454-0.04394 1.7182-0.04053 1.8466-0.0647 3.693-0.07471 5.54-0.0022 0.44535-0.0025 0.89059-0.0029 1.3359-0.01031 7.2157 0.20581 14.433 0.66357 21.634 0.7472 11.653 2.1696 23.242 4.2012 34.72 0.01828 0.10405 0.03728 0.20799 0.05567 0.31202 0.30385 1.7068 0.61926 3.4108 0.95068 5.1123 0.21322 1.1016 0.43006 2.2024 0.65478 3.3018 0.12137 0.5902 0.24447 1.18 0.36914 1.7695 6.8996 32.814 18.91 64.549 35.325 93.788 0.20629 0.36933 0.41196 0.73887 0.61963 1.1074 0.04492 0.0793 0.0883 0.15948 0.1333 0.23877 0.1559 0.27527 0.31793 0.54695 0.47461 0.82178 9.1889 16.172 19.691 31.598 31.396 46.039 17.788 22.055 38.287 41.892 60.828 59.046 0.0724 0.0552 0.14583 0.10893 0.21827 0.16406 1.2856 0.97687 2.5787 1.9425 3.8774 2.9018 0.43493 0.32165 0.87024 0.64276 1.3066 0.9624 1.0179 0.74473 2.0402 1.4839 3.0659 2.2178 0.9193 0.65833 1.843 1.3105 2.7686 1.96 0.66737 0.46798 1.3348 0.93553 2.0054 1.3989 0.79195 0.54751 1.5854 1.0923 2.3818 1.6333 0.58355 0.39634 1.1705 0.78781 1.7564 1.1807 1.2695 0.85123 2.5442 1.6938 3.8247 2.5283 0.70113 0.4572 1.4021 0.91446 2.1064 1.3667 0.6787 0.43546 1.3588 0.86856 2.0405 1.2993 1.0051 0.63579 2.0135 1.2654 3.0249 1.8911 0.36956 0.22828 0.73701 0.46011 1.1074 0.68701 1.5847 0.97237 3.1786 1.9296 4.7783 2.877 0.0439 0.0259 0.0879 0.0517 0.13184 0.0776 0.73857 0.43698 1.4761 0.87503 2.2178 1.3066 0.91394 0.53326 1.8606 1.0752 2.8198 1.6099 9e-3 5e-3 0.0176 0.01 0.0264 0.0146 3.6606 1.9878 7.2044 4.5067 11.424 5.1152 3.82 0.63 8.0392-0.89868 10.239-4.1587 2.12-3 2.5849-6.7703 2.565-10.34v-0.74414c2e-3 -0.0984 0.01-0.19805 0.0103-0.2959v-59.94c7e-3 -0.42349 2e-3 -0.84544-0.0103-1.2656v-3.794c0.19999-6.5-2.9252-12.821-7.8252-17.011-2.4986-2.1317-5.1189-4.1128-7.6875-6.1567-1.2456-1.0064-2.4783-2.0295-3.706-3.0586-0.83065-0.69411-1.6503-1.4021-2.4727-2.1064-0.86501-0.74311-1.7312-1.484-2.5869-2.2383-0.42395-0.37264-0.84251-0.7511-1.2642-1.1265-1.2748-1.1381-2.545-2.2827-3.7984-3.4453-0.0443-0.0411-0.089-0.0819-0.13329-0.12305-42.54-39.513-72.563-92.996-80.889-150.62-0.0469-0.32778-0.0967-0.65487-0.1421-0.98292-0.93909-6.9006-1.5642-13.839-1.8838-20.791-5e-3 -0.1206-0.0109-0.24121-0.0161-0.36182-0.0535-1.2027-0.0952-2.4061-0.13038-3.6094-8e-3 -0.29292-0.0161-0.58597-0.0234-0.87891-0.0257-1.0087-0.0442-2.0174-0.0572-3.0264-6e-3 -0.50983-0.0115-1.0194-0.0146-1.5293-5e-3 -0.84829-5e-3 -1.6961-2e-3 -2.5444 2e-3 -0.5831 6e-3 -1.166 0.0132-1.749 9e-3 -0.80432 0.0223-1.6084 0.0395-2.4126 0.0142-0.65571 0.0318-1.3117 0.0513-1.9673 0.0208-0.70445 0.0434-1.4095 0.0703-2.1138 0.0282-0.73496 0.0604-1.4699 0.0952-2.2046 0.0318-0.67154 0.0666-1.3429 0.104-2.0142 0.0396-0.71022 0.0832-1.42 0.12891-2.1299 0.0481-0.74539 0.0989-1.4904 0.15381-2.2354 0.0448-0.60804 0.0914-1.216 0.14063-1.8237 0.0648-0.79785 0.13247-1.5949 0.20507-2.3921 0.0578-0.63617 0.12034-1.2715 0.18311-1.9072 0.0766-0.774 0.15486-1.5485 0.23877-2.3218 0.0601-0.55441 0.12371-1.1086 0.1875-1.6626 0.10677-0.92529 0.21675-1.8504 0.33399-2.7744 0.0515-0.40691 0.10613-0.81357 0.15966-1.2202 0.13425-1.0176 0.27204-2.0339 0.41895-3.0498 0.0467-0.3239 0.0955-0.64748 0.14355-0.97119 0.16374-1.1016 0.33267-2.2024 0.51123-3.3018 0.0408-0.25162 0.0829-0.50291 0.12451-0.7544 0.19743-1.1923 0.40193-2.3834 0.6167-3.5728 0.0193-0.10746 0.0391-0.21484 0.0586-0.32227 0.23832-1.3098 0.48634-2.6184 0.7456-3.9243 5e-3 -0.0214 8e-3 -0.043 0.0117-0.0644 3.5536-17.875 9.0646-35.363 16.405-52.025 5e-3 -0.0118 0.0109-0.0234 0.0161-0.0352 0.0131-0.03 0.0278-0.0593 0.041-0.0894 0.59075-1.3461 1.2042-2.6819 1.8193-4.0166 0.36928-0.79674 0.73692-1.595 1.1147-2.3877 0.1181-0.24906 0.24141-0.4955 0.36036-0.74414 0.6819-1.4297 1.3747-2.8529 2.0845-4.2686 0.37417-0.74439 0.75938-1.4832 1.1411-2.2236 0.46809-0.91006 0.93554-1.8207 1.415-2.7246 0.58958-1.1092 1.1923-2.2107 1.7988-3.3105 0.30043-0.54581 0.59631-1.0942 0.90088-1.6377 0.78512-1.3986 1.5873-2.7875 2.3994-4.1704 0.14435-0.24612 0.28546-0.49413 0.43066-0.73974 0.94505-1.5965 1.9067-3.183 2.8872-4.7578 0.0298-0.0478 0.0596-0.0957 0.0893-0.14355 8.2898-13.294 17.832-25.804 28.437-37.339 1.3257-1.442 2.6683-2.8677 4.0268-4.2788 1e-3 -2e-3 3e-3 -3e-3 4e-3 -5e-3 1.2666-1.3156 2.5507-2.6156 3.8452-3.9038 0.11923-0.11856 0.23649-0.23909 0.35595-0.35742 1.1592-1.1489 2.3347-2.2807 3.5156-3.4072 0.26647-0.25401 0.5293-0.5118 0.79687-0.76465 1.0304-0.97442 2.0752-1.9345 3.1216-2.8916 0.42999-0.39302 0.85492-0.79207 1.2876-1.1821 0.92667-0.83604 1.8664-1.6562 2.8052-2.4785 0.5531-0.48413 1.101-0.97379 1.6582-1.4531 0.78098-0.67226 1.5737-1.3309 2.3628-1.9937 0.75506-0.63374 1.5067-1.272 2.269-1.897 0.61845-0.50731 1.2459-1.0029 1.8691-1.5044 0.91228-0.73361 1.8228-1.469 2.7451-2.1899 0.55467-0.43383 1.1175-0.85696 1.6758-1.2861 1.003-0.77069 2.0047-1.5427 3.019-2.2983 0.48412-0.36079 0.97523-0.71203 1.4619-1.0693 1.1148-0.81813 2.2309-1.6348 3.3589-2.4346 0.34242-0.24284 0.68909-0.47956 1.0327-0.7207 1.2681-0.88959 2.5405-1.7736 3.8247-2.6396 0.29235-0.19721 0.58864-0.38851 0.88183-0.58448 1.3206-0.88258 2.6458-1.7574 3.9829-2.6148 0.35352-0.22668 0.71175-0.44598 1.0664-0.67089 1.3001-0.82455 2.6033-1.6444 3.9184-2.4448 0.32886-0.2001 0.66191-0.39322 0.9917-0.5918 1.3322-0.80239 2.6681-1.5986 4.0151-2.376 0.44636-0.25746 0.89822-0.50559 1.3462-0.76026 1.2274-0.69816 2.4566-1.3942 3.6958-2.0713 0.66624-0.36375 1.3402-0.71321 2.0098-1.0708 1.02-0.54522 2.0383-1.0937 3.0659-1.6245 0.96169-0.4962 1.9321-0.97555 2.9004-1.459 0.75088-0.37538 1.4982-0.75734 2.2529-1.125 1.4918-0.72564 2.9932-1.4334 4.5-2.1284 0.20565-0.095 0.40931-0.19411 0.61523-0.28858 1.7644-0.80784 3.5378-1.5946 5.3218-2.3599 0.44808-0.19527 0.89844-0.38467 1.3477-0.57714 1.565-0.66168 3.1332-1.3153 4.7124-1.9438 5.7338-2.3214 11.554-4.4168 17.443-6.2871 0.0214-0.0067 0.0431-0.0123 0.0644-0.01905 0.91472-0.29021 1.8315-0.57467 2.7495-0.854 0.59328-0.1801 1.1881-0.35615 1.7827-0.53174 0.34672-0.10262 0.69288-0.208 1.04-0.30908 21.22-6.1645 43.262-9.4495 65.36-9.876 0.57675-0.01095 1.1532-0.03255 1.73-0.03952 1.0484-0.01313 2.0966-3e-3 3.145-3e-3 1.0484 1.87e-4 2.0967-0.0102 3.145 3e-3 0.57681 0.0067 1.1532 0.02865 1.73 0.03952 22.097 0.42648 44.139 3.712 65.358 9.876 0.36394 0.10595 0.7264 0.21608 1.0898 0.32373 0.57766 0.17071 1.155 0.34066 1.7314 0.51562 0.91905 0.27964 1.8367 0.56494 2.7524 0.85547 0.0214 0.0067 0.0431 0.0123 0.0644 0.01905 5.8896 1.8703 11.71 3.9657 17.443 6.2871 1.5679 0.62404 3.1262 1.2725 4.6802 1.9292 0.46009 0.19705 0.92099 0.39181 1.3799 0.59179 1.7756 0.76164 3.5422 1.5443 5.2984 2.3482 0.28654 0.13141 0.56943 0.27031 0.85546 0.40283 1.4332 0.66284 2.862 1.3339 4.2817 2.0244 0.75534 0.36793 1.5029 0.75079 2.2544 1.1265 0.96829 0.48343 1.9387 0.96278 2.9004 1.459 1.0277 0.53083 2.0459 1.0793 3.0659 1.6245 0.66962 0.35758 1.3435 0.70704 2.0098 1.0708 1.2392 0.67712 2.4684 1.3731 3.6958 2.0713 0.44797 0.25467 0.89983 0.5028 1.3462 0.76026 1.347 0.77733 2.6829 1.5736 4.0151 2.376 0.32979 0.19858 0.66284 0.3917 0.9917 0.5918 1.3151 0.80042 2.6183 1.6203 3.9185 2.4448 0.35501 0.22512 0.714 0.44398 1.0679 0.67089 1.2827 0.82257 2.5542 1.6635 3.8218 2.5093 0.35755 0.23859 0.71888 0.47149 1.0752 0.71191 1.2619 0.85132 2.511 1.7202 3.7573 2.5942 0.35487 0.24893 0.71283 0.49338 1.0664 0.74413 1.128 0.79974 2.2441 1.6164 3.3589 2.4346 0.48668 0.3573 0.97779 0.70854 1.4619 1.0693 1.0144 0.7556 2.016 1.5276 3.019 2.2983 0.5591 0.42983 1.1232 0.85312 1.6787 1.2876 0.88324 0.69043 1.7553 1.3956 2.6294 2.0976 0.6733 0.54113 1.3508 1.0766 2.0186 1.6245 0.72699 0.59618 1.4432 1.2049 2.1636 1.8091 0.81342 0.6827 1.6297 1.3624 2.4346 2.0552 0.54642 0.47003 1.085 0.94919 1.6274 1.4238 0.94785 0.83001 1.8961 1.6595 2.8315 2.5034 0.44303 0.39939 0.87813 0.80748 1.3184 1.21 1.0362 0.94812 2.0703 1.8987 3.0908 2.8638 0.27636 0.26115 0.54805 0.52717 0.82324 0.78955 1.1591 1.106 2.313 2.2181 3.4512 3.3457 0.17937 0.17758 0.35583 0.35804 0.53467 0.53614 1.2471 1.2428 2.4849 2.4949 3.7061 3.7632l5e-3 5e-3c1.3586 1.4111 2.7011 2.8369 4.0268 4.2788 10.613 11.544 20.163 24.064 28.458 37.37 1.0047 1.6117 1.9886 3.2362 2.956 4.8706 0.14521 0.24561 0.28632 0.49362 0.43067 0.73974 0.81216 1.3829 1.6143 2.7718 2.3994 4.1704 0.30458 0.54346 0.60046 1.0919 0.90088 1.6377 0.6065 1.0999 1.2092 2.2014 1.7988 3.3105 0.4795 0.90395 0.94694 1.8146 1.415 2.7246 0.38264 0.74219 0.76755 1.4833 1.1426 2.2295 0.67411 1.3446 1.3344 2.6959 1.9834 4.0532 0.16762 0.34956 0.33941 0.69699 0.50537 1.0474 0.34622 0.72722 0.68342 1.4593 1.0225 2.1899 0.64112 1.3894 1.2794 2.7804 1.894 4.1821 6e-3 0.0134 0.0131 0.0262 0.019 0.0395 7.3453 16.669 12.86 34.166 16.415 52.049 4e-3 0.0215 7e-3 0.043 0.0117 0.0644 0.24708 1.2445 0.48387 2.4917 0.71192 3.7398 0.0392 0.21483 0.0786 0.42959 0.11719 0.64453 0.20454 1.1363 0.3987 2.2741 0.5874 3.4131 0.0434 0.26273 0.0878 0.52521 0.13037 0.78808 0.16909 1.0413 0.33053 2.0841 0.48633 3.1274 0.0638 0.42813 0.12742 0.85623 0.18896 1.2847 0.1295 0.89942 0.2525 1.799 0.37208 2.6997 0.0682 0.5149 0.13571 1.0301 0.20068 1.5454 0.11264 0.89148 0.21937 1.7837 0.32226 2.6763 0.0583 0.50664 0.11624 1.0135 0.17139 1.5205 0.0932 0.85473 0.18094 1.7108 0.26514 2.5664 0.0579 0.58933 0.11483 1.1784 0.16845 1.7681 0.0687 0.75372 0.13167 1.5074 0.19337 2.2617 0.0568 0.69557 0.11172 1.3914 0.16259 2.0874 0.0503 0.68686 0.0962 1.3738 0.14062 2.061 0.047 0.72645 0.0914 1.4529 0.13185 2.1797 0.0373 0.67127 0.0721 1.3426 0.104 2.0142 0.0349 0.73467 0.067 1.4696 0.0952 2.2046 0.0269 0.70425 0.0495 1.4093 0.0703 2.1138 0.0195 0.65558 0.0371 1.3116 0.0513 1.9673 0.0176 0.82226 0.0318 1.6444 0.041 2.4668 6e-3 0.52788 9e-3 1.0556 0.0117 1.5835 5e-3 0.9245 4e-3 1.8485-3e-3 2.773-3e-3 0.45319-6e-3 0.9062-0.0117 1.3594-0.013 1.0265-0.0324 2.0528-0.0586 3.0791-7e-3 0.29295-0.0151 0.58599-0.0234 0.87891-0.0352 1.2033-0.0769 2.4067-0.13038 3.6094-5e-3 0.12061-0.0106 0.24121-0.0161 0.36181-0.31954 6.951-0.9447 13.89-1.8838 20.791-0.0454 0.32805-0.0952 0.65513-0.14209 0.98291-8.3258 57.625-38.347 111.11-80.887 150.62-0.0444 0.0411-0.0889 0.082-0.13329 0.12305-1.24 1.1501-2.4964 2.2825-3.7573 3.4087-0.44708 0.39818-0.89212 0.79874-1.3418 1.1938-0.83306 0.73407-1.6762 1.4562-2.5181 2.1797-0.83331 0.71399-1.6645 1.4308-2.5064 2.1343-1.2305 1.0314-2.4665 2.0559-3.7148 3.0644-2.566 2.0416-5.183 4.0215-7.6787 6.1509-4.9 4.19-8.0252 10.511-7.8252 17.011v3.8013c-0.0123 0.41775-0.0174 0.83727-0.0103 1.2583v59.94c7e-4 0.0978 8e-3 0.19753 0.0103 0.29589v0.74415c-0.02 3.57 0.44494 7.3403 2.5649 10.34 2.2 3.26 6.4207 4.7887 10.241 4.1587 4.2199-0.60854 7.7621-3.1274 11.423-5.1152 9e-3 -4e-3 0.0176-0.01 0.0264-0.0146 0.95926-0.53465 1.9059-1.0766 2.8198-1.6099 0.71485-0.41599 1.4253-0.83881 2.1372-1.2598 0.0931-0.0549 0.18671-0.10905 0.27979-0.16406 1.5774-0.93468 3.1495-1.8784 4.7124-2.8374 0.3465-0.21225 0.68989-0.4296 1.0356-0.64306 1.0551-0.65237 2.107-1.3098 3.1553-1.9732 0.65802-0.41598 1.315-0.83353 1.9702-1.2539 0.75675-0.48586 1.5101-0.97766 2.2632-1.4692 1.2051-0.78629 2.4052-1.5793 3.6006-2.3804 0.61211-0.41021 1.2244-0.8194 1.834-1.2334 0.80273-0.54528 1.6027-1.0946 2.4009-1.6465 0.60556-0.41854 1.2076-0.84189 1.8105-1.2642 1.039-0.72809 2.0758-1.4595 3.1069-2.1987 0.96702-0.69272 1.9315-1.3894 2.8916-2.0918 0.44039-0.32254 0.87946-0.64661 1.3184-0.97119 1.2988-0.95933 2.5918-1.925 3.8774-2.9019 0.0592-0.045 0.11955-0.0883 0.17871-0.13329 0.0136-0.0104 0.0275-0.0204 0.041-0.0308 22.54-17.154 43.039-36.992 60.826-59.046 11.705-14.44 22.207-29.866 31.396-46.039 0.15667-0.27483 0.3187-0.54651 0.47461-0.82178 0.0464-0.0817 0.0914-0.16431 0.1377-0.2461 0.19617-0.34818 0.39098-0.69702 0.58593-1.0459 16.41-29.218 28.421-60.93 35.329-93.721 0.14339-0.67675 0.2843-1.3541 0.42334-2.0317 0.20055-0.9833 0.39459-1.968 0.58594-2.9531 0.35837-1.8335 0.69904-3.6697 1.0254-5.5093 2.0433-11.518 3.4718-23.149 4.2217-34.843 0.45925-7.225 0.67691-14.465 0.66504-21.705-4.1e-4 -0.38969-2e-3 -0.77927-3e-3 -1.1689-0.01-1.9125-0.0351-3.8243-0.0776-5.7363-0.0116-0.52502-0.0269-1.0498-0.041-1.5747-0.0501-1.8587-0.10949-3.7176-0.19043-5.5752-8e-5 -2e-3 9e-5 -4e-3 0-6e-3 -0.0197-0.45034-0.0459-0.90033-0.0674-1.3506-0.08-1.6804-0.17309-3.36-0.27832-5.0391-0.0263-0.41794-0.0497-0.83606-0.0776-1.2539-0.13282-1.9997-0.28705-3.9972-0.45556-5.9942-0.025-0.29445-0.0489-0.58891-0.0747-0.8833-0.18756-2.1548-0.39645-4.3077-0.62549-6.4585-6.7e-4 -6e-3 -7.5e-4 -0.0127-1e-3 -0.019-7.5e-4 -9e-3 -2e-3 -0.0176-3e-3 -0.0264-2.4858-23.313-7.4012-46.367-14.7-68.65-2.6673-8.1578-5.6526-16.212-8.9429-24.139-0.762-1.8417-1.5488-3.6727-2.3438-5.5005-0.037-0.0851-0.0713-0.17129-0.1084-0.25634-3e-3 -7e-3 -7e-3 -0.0146-0.0103-0.022-3.4085-7.8174-7.1253-15.499-11.13-23.03-0.92443-1.7385-1.864-3.4683-2.8198-5.1899-0.19315-0.34888-0.38863-0.69623-0.58301-1.0444-0.73438-1.3114-1.4725-2.6202-2.2251-3.9214-0.66501-1.1548-1.3414-2.3028-2.02-3.4497-0.21072-0.35417-0.41342-0.71304-0.6255-1.0664-0.10814-0.18172-0.22109-0.36049-0.32958-0.542-0.70379-1.1745-1.4163-2.3439-2.1343-3.5098-0.46661-0.759-0.93502-1.5168-1.4077-2.272-0.56227-0.89703-1.13-1.7904-1.7007-2.6821-0.62376-0.97561-1.2514-1.949-1.8853-2.918-0.47518-0.72593-0.95478-1.4487-1.4355-2.1709-0.70004-1.0521-1.4048-2.101-2.1167-3.145-0.47166-0.69157-0.94704-1.3803-1.4238-2.0684-0.75205-1.0853-1.5086-2.1668-2.2734-3.2432-0.2-0.28148-0.39387-0.56729-0.59473-0.84815-0.33772-0.47323-0.68521-0.93919-1.0254-1.4106-0.51235-0.70853-1.0232-1.4181-1.541-2.1226-0.90197-1.2295-1.8147-2.451-2.7334-3.668-0.23172-0.30643-0.46156-0.61428-0.69433-0.91992-13.889-18.267-29.655-35.096-46.938-50.188-7.8792-6.8808-16.067-13.408-24.543-19.537-0.14757-0.10671-0.29757-0.20994-0.44531-0.31641-1.4834-1.069-2.9733-2.1279-4.4736-3.1728-0.51409-0.35822-1.0337-0.70813-1.5498-1.0635-1.1038-0.75972-2.2081-1.518-3.3208-2.2646-0.73553-0.49372-1.4769-0.9784-2.2163-1.4663-0.94031-0.62034-1.8807-1.2406-2.8272-1.8516-0.76771-0.49565-1.5398-0.98425-2.3115-1.4736-0.93197-0.59097-1.8646-1.1804-2.8022-1.7622-0.78355-0.48616-1.5708-0.96609-2.3584-1.4458-0.94325-0.57464-1.8886-1.1456-2.8374-1.7109-0.78292-0.46636-1.5673-0.93018-2.354-1.3901-0.97765-0.57181-1.9595-1.1373-2.9429-1.6992-0.74894-0.42771-1.4978-0.85544-2.25-1.2773-1.0955-0.61485-2.1965-1.2197-3.2988-1.8223-0.6356-0.34708-1.2694-0.69711-1.9072-1.04-1.448-0.77929-2.9028-1.5449-4.3623-2.3027-0.24994-0.12962-0.49826-0.26214-0.74854-0.39112-4.5894-2.3684-9.2361-4.6258-13.932-6.7778-0.41804-0.19238-0.83655-0.3836-1.2554-0.57422-0.77036-0.34914-1.5399-0.69976-2.313-1.043-2.7713-1.2356-5.5603-2.4316-8.3643-3.5903-0.74025-0.307-1.4827-0.60817-2.2251-0.90967-0.36903-0.14938-0.73785-0.29873-1.1074-0.44678-13.868-5.5724-28.11-10.186-42.596-13.833-0.35482-0.08958-0.70983-0.17818-1.0649-0.2666-0.93337-0.23172-1.8669-0.46332-2.8022-0.68701-1.3349-0.32031-2.672-0.63349-4.0108-0.9375-2e-3 -4.44e-4 -4e-3 -0.00105-6e-3 -0.0015-0.11703-0.02658-0.23449-0.051187-0.35156-0.077637-1.4334-0.32387-2.8692-0.63528-4.3066-0.94043-0.26169-0.055327-0.52335-0.11082-0.78516-0.16553-14.393-3.0197-28.982-5.1046-43.646-6.2227-7.0382-0.53286-14.093-0.84011-21.151-0.93311-0.30516-0.00435-0.61038-0.003825-0.91554-0.00735-1.2531-0.01314-2.5056-0.02559-3.7588-0.0249-0.17187-9.375e-5 -0.34375-0.003075-0.51562-0.002925z" fill="#2db9dc"/>
 <path id="path9" d="m24.118 721.2c-0.14874 0-0.29792 8e-3 -0.44678 0.0105h-0.24024c-0.32699 0-0.65725 0.0195-0.98584 0.0278-0.11921 7e-3 -0.23822 7e-3 -0.35742 0.0105-1.2813 0.0435-2.5658 0.14872-3.8452 0.32077-0.03227 8e-3 -0.06442 9e-3 -0.09668 0.0135-1.2562 0.1725-2.5032 0.40418-3.7222 0.73238-0.10081 0.027-0.20127 0.054-0.30176 0.082-0.15754 0.0443-0.31514 0.0889-0.47168 0.13627-0.29071 0.0869-0.57952 0.1791-0.86719 0.27683-0.72928 0.24772-1.4499 0.52717-2.1562 0.8511-3.0276 1.2354-5.4255 3.3081-7.1763 5.8447-0.090481 0.12788-0.17968 0.2565-0.2666 0.38678-0.038062 0.0585-0.075403 0.11692-0.11279 0.17572-1.9514 3.0028-2.9718 6.6034-3.063 10.238-0.00375 0.11828-0.004125 0.23618-0.00585 0.35453-0.001575 0.1875-0.003375 0.37492 0 0.5625 0.051525 4.5413 1.5462 9.0568 4.585 12.448 0.092671 0.1023 0.19238 0.19485 0.28711 0.29445 0.058095 0.0623 0.11958 0.12157 0.17871 0.18315 0.17393 0.17737 0.34553 0.35722 0.52588 0.52582 0.56238 0.53378 1.1648 1.0332 1.812 1.4868 0.015307 0.0105 0.031537 0.0202 0.046875 0.0308 0.29972 0.21075 0.60471 0.41108 0.91406 0.60345 0.16657 0.1041 0.33721 0.20138 0.50684 0.3003 0.15988 0.093 0.31983 0.18555 0.48193 0.27398 0.19837 0.10845 0.3986 0.21292 0.60059 0.31492 0.11508 0.0578 0.2311 0.11408 0.34717 0.16995 0.23654 0.114 0.47398 0.22545 0.71484 0.33105 0.07095 0.0308 0.1426 0.0607 0.21387 0.0908 3.7015 1.577 7.8697 2.19 11.839 2.1841h57.851v195.52c2.3e-5 0.0503-1.8e-4 0.10043 0 0.15083v1.0401c-0.05565 2.5562 0.34532 5.1641 1.2173 7.5864 0.0201 0.0593 0.04223 0.11707 0.063 0.1758 0.05737 0.15465 0.113 0.30982 0.17432 0.4629 0.34768 0.90097 0.77456 1.7716 1.292 2.603 0.03742 0.0622 0.07455 0.12435 0.11279 0.186 0.04725 0.0735 0.09481 0.14693 0.14356 0.21975 0.8682 1.3517 1.9238 2.5828 3.186 3.6269 2.8941 2.4497 6.3758 3.8392 10.034 4.5704 0.16306 0.0337 0.32575 0.0675 0.48926 0.0981 0.14138 0.0255 0.28298 0.0495 0.42481 0.0735 1.4665 0.25642 2.9441 0.4146 4.3975 0.47752 0.13928 8e-3 0.28209 0 0.42187 8e-3 0.62757 0.0248 1.2525 0.033 1.8765 0.0337 0.62349-3.7e-4 1.2479-9e-3 1.875-0.0337 0.1398-8e-3 0.2826 0 0.42188-8e-3 1.4572-0.063 2.9389-0.22132 4.4092-0.47902 0.13358-0.0225 0.26672-0.0457 0.3999-0.0705 0.17228-0.0323 0.34385-0.0668 0.51563-0.10253 3.6531-0.732 7.1293-2.121 10.02-4.5674 1.2581-1.0406 2.3106-2.2674 3.1772-3.6137 0.058-0.0865 0.11543-0.1734 0.17139-0.26077 0.0249-0.0405 0.0487-0.0811 0.0733-0.12158 0.52409-0.83662 0.95523-1.7132 1.3066-2.6206 0.0667-0.16597 0.12689-0.33442 0.18897-0.50242 0.0182-0.0517 0.0379-0.1032 0.0556-0.15525 0.87196-2.4223 1.273-5.0302 1.2173-7.5864v-196.71h57.85c3.9692 7e-3 8.1388-0.60705 11.84-2.1841 0.0713-0.03 0.1429-0.06 0.21387-0.0908 0.24769-0.1086 0.49225-0.2223 0.73535-0.3399 0.10113-0.0488 0.20139-0.099 0.30176-0.1494 0.2158-0.1086 0.42994-0.21937 0.6416-0.3354 0.1481-0.081 0.29469-0.16575 0.44092-0.2505 0.17868-0.10395 0.35791-0.20685 0.5332-0.31642 0.28518-0.17738 0.56527-0.36218 0.84229-0.55515 0.0249-0.0172 0.0499-0.0338 0.0747-0.051 0.0134-0.01 0.0277-0.0172 0.041-0.0263 0.64772-0.45398 1.2507-0.954 1.8135-1.4882 0.17345-0.16222 0.33933-0.3351 0.50684-0.50542 0.0664-0.069 0.1356-0.13508 0.20068-0.20505 0.0937-0.0985 0.19252-0.19035 0.28419-0.29153 2.8302-3.1586 4.3177-7.2922 4.5513-11.514 0.017-0.30773 0.0301-0.61605 0.0337-0.92438 4e-3 -0.20407 6.5e-4 -0.40815-1e-3 -0.6123-1e-3 -0.10117-1e-3 -0.20205-5e-3 -0.30322-0.0896-3.653-1.1174-7.2729-3.0864-10.286-0.0234-0.0367-0.0466-0.0735-0.0703-0.10988-0.099-0.1491-0.20098-0.2964-0.30469-0.44235-1.7492-2.5247-4.14-4.5872-7.1572-5.8184-0.70678-0.32407-1.428-0.6033-2.1577-0.8511-0.29093-0.0988-0.5834-0.19207-0.87744-0.27982-0.15374-0.0465-0.30818-0.0896-0.46289-0.13328-0.098-0.027-0.19611-0.0548-0.29444-0.0806-1.2189-0.32842-2.466-0.55965-3.7222-0.73245-0.0342-7e-3 -0.0683-0.0105-0.10254-0.015-1.2791-0.17197-2.5642-0.27697-3.8452-0.32077-0.1192-7e-3 -0.23821-7e-3 -0.35742-0.0105-0.32859-9e-3 -0.65885-0.0263-0.98584-0.0277h-0.24024c-0.80724-0.0113-1.6125-0.0135-2.4141 0h-157.31c-0.65375-0.0113-1.3109-0.015-1.9688-0.0105z" fill="#2db9dc"/>
 <path id="path11" d="m253.75 727.87c5.34-5.83 13.81-6.875 21.3-6.665h127c5.75-0.03 11.8 0.885 16.6 4.295 9.81 6.78 9.95 23.44 0.34 30.46-4.57 3.36-10.4 4.49-15.97 4.5h-106.4v57.095h45.475c7.98 0.03 15.97-0.195 23.94 0.495 19.92 1.53 39.68 7.61 56.33 18.8 11.86 7.91 22.52 18.16 29.05 30.97 7.67 14.91 9.05 32.83 4.17 48.84-3.64 11.92-11.01 22.45-20.11 30.87-14.38 13.29-32.43 22.42-51.53 26.59-11.44 2.59-23.21 3.36-34.92 3.2h-76.03c-6.47-0.02-13.45-1.21-18.35-5.78-4-3.61-5.75-9.11-5.64-14.39v-212c-0.26-6.03 0.27-12.74 4.74-17.28m42.875 128.98v81.14h40.425c13.31-0.12 26.98 0.96 39.85-3.24 11.49-3.65 22.53-10.43 29.23-20.67 6.94-10.85 6.16-26.01-1.92-36.05-8.43-10.53-21.13-17.09-34.24-19.67-9.83-2.02-19.9-1.44-29.87-1.51z" fill="#2db9dc"/>
 <path id="path13" d="m515.77 721.15c-1.6878-0.018-3.3764 0.0845-5.0508 0.29145-0.0242 0-0.0491 0-0.0733 7e-3 -2.1592 0.18638-4.348 0.64733-6.4321 1.3872-0.15928 0.0488-0.32053 0.0924-0.47901 0.14355-3.0719 0.98865-5.7529 2.8596-7.8208 5.2603-0.0126 0.0142-0.0256 0.0277-0.0381 0.0427-0.16604 0.19395-0.32408 0.39405-0.48194 0.59475-0.14321 0.18037-0.28614 0.36067-0.42187 0.54787-0.15801 0.21713-0.30567 0.44115-0.4541 0.66503-0.065 0.10005-0.13346 0.19695-0.19629 0.2988-1.828 2.8762-2.8729 6.2536-2.8228 9.7208v2.9077c9e-5 0.11573-4.5e-4 0.23003 0 0.34568v213.82c-2e-3 0.13335 9e-3 0.26783 9e-3 0.4014 3e-3 0.23655 5e-3 0.47348 0.0146 0.71048 0.13267 4.3396 1.4241 8.7382 4.3814 12.009 4.24 4.87 10.9 6.6792 17.14 6.9492 0.23328 0.01 0.47271 8e-3 0.70752 0.0135 0.34527 0.0105 0.68994 0.015 1.0342 0.0172 1.4311 0.015 2.8769-0.0195 4.3228-0.14497 6.1945-0.46695 12.649-2.7146 16.447-7.8648 3.09-4.01 3.7806-9.2506 3.6006-14.161v-98.26h114.12v98.26c-0.17999 4.91 0.50913 10.151 3.5991 14.161 3.7983 5.1508 10.255 7.3982 16.45 7.8648 1.4453 0.12555 2.8892 0.15982 4.3198 0.14497 0.34448 0 0.68867-8e-3 1.0342-0.0172 0.23481-8e-3 0.47424 0 0.70752-0.0135 6.24-0.27 12.9-2.0792 17.14-6.9492 2.9623-3.2761 4.2539-7.684 4.3828-12.031 8e-3 -0.18712 8e-3 -0.37417 0.0117-0.56107 2e-3 -0.1761 0.0129-0.35318 0.0103-0.52883v-213.63c1e-3 -0.22448 1.5e-4 -0.44633 0-0.67095v-2.7729c0.0502-3.4678-0.99406-6.8456-2.8228-9.7222-0.0597-0.0967-0.12444-0.18907-0.18604-0.28417-0.15444-0.2334-0.3083-0.4668-0.47315-0.69293-0.12627-0.1737-0.25983-0.34042-0.39258-0.50827-0.16326-0.20835-0.32742-0.41558-0.4995-0.61673-0.0151-0.0172-0.0303-0.0338-0.0455-0.051-2.0672-2.3977-4.7456-4.2667-7.8149-5.2544-0.16024-0.0517-0.32381-0.0954-0.48486-0.14498-2.0828-0.73897-4.2686-1.1996-6.4263-1.3858-0.0246 0-0.0501 0-0.0747-7e-3 -2.8062-0.34673-5.6544-0.38258-8.4639-0.0908-3.2436 0.27338-6.4316 0.97575-9.3428 2.3262-1.1902 0.52073-2.3045 1.1766-3.331 1.9468-0.19953 0.14385-0.40242 0.27967-0.59766 0.43215-3.2062 2.4502-5.2577 6.0481-6.1641 9.9272-0.0337 0.14145-0.0619 0.28395-0.0923 0.4263-0.0514 0.2433-0.0982 0.48728-0.14062 0.73238-0.0269 0.15817-0.0551 0.31567-0.0776 0.4746-0.16979 1.1402-0.24787 2.2931-0.2256 3.4395v76.491h-114.12v-76.491c0.0225-1.1566-0.0569-2.32-0.22998-3.4702-0.0195-0.1353-0.0433-0.26948-0.0659-0.40425-0.0436-0.255-0.0932-0.50865-0.14648-0.76178-0.0327-0.1536-0.0629-0.30727-0.0996-0.4599-0.9091-3.8703-2.9584-7.4585-6.1582-9.9038-0.20175-0.1575-0.41183-0.2985-0.61816-0.44678-1.0309-0.77122-2.1488-1.427-3.3442-1.9468-2.9013-1.34-6.0759-2.039-9.3062-2.3116-1.1343-0.1179-2.2755-0.1884-3.4175-0.20062z" fill="#2db9dc"/>
 <path id="path16" d="m348.6 280.91c11.94-1.29 24.19-1.54 36.01 0.85 7.68 1.71 15.41 5.27 20.17 11.78 3.95 5.31 5.48 12.05 5.49 18.58v242.99c-0.02 9.33-4.28 18.95-12.42 23.94-11.19 7.11-25.01 7.21-37.81 7.03-11.3-0.23-23.53-1.89-32.41-9.5-6.41-5.51-9.195-14.16-9.155-22.42v-241.01c-0.14-7.69 1.765-15.78 7.105-21.56 5.88-6.48 14.59-9.39 23.02-10.68z" fill="#e93d25"/>
</svg>
