<svg width="600pt" height="133.03pt" version="1.1" viewBox="0 0 600 133.03" xmlns="http://www.w3.org/2000/svg">
 <g transform="matrix(.33648 0 0 .33648 -136.4 -122.28)" fill="#6ac079">
  <path d="m1069.9 367.89c3.89-4.9 11.55-5.9 16.71-2.46 2.72 1.72 4.3 4.69 5.3 7.67l29.27 93.33 44.53-84.74c2-3.77 3.49-8.33 7.49-10.47 6.16-3.4 14.66-0.42 17.59 5.92 1.74 4.05 1.13 8.8-1.02 12.58l-68.59 132.55c-3.32 6.69-12.83 8.71-18.69 4.27-3.76-2.81-6.2593-8.2166-4.55-12.46l8.64-19.05-38.39-113.14c-1.7-4.55-1.76-10.24 1.71-14z"/>
  <path d="m920.92 366.85c2.99-2.72 7.17-3.3 11.07-3.17l92.01 0.22c5.26 0.03 11.39-0.36 15.46 3.64 3.29 2.81 3.95 7.36 3.86 11.44l-0.15 98.35c5.69 0.51 11.47-0.39 17.11 0.63 7.69 1.89 11.58 11.97 7.25 18.6-2.1 3.71-6.23 6.5098-10.5 6.4998h-23.101c-3.0101 0.05-6.0339-0.0653-8.8694-1.0998-4.15-1.96-7.34-6.21-7.3-10.9l0.06-102.29-54.66-0.12 0.3 102.41c-0.02 6.83-6.77 12.31-13.43 11.64-6.47-0.23-12.02-6.19-11.67-12.69l-0.68-101.52c-5.73-0.14-12.36 0.96-17.08-3.07-5.53-4.64-5.33-14.12 0.32-18.57z"/>
  <path d="m793.98 371.95 90.05-5.42c4.5-0.16 9.1 2.1 11.21 6.18 2.1 4.51 1.91 10.33-1.31 14.28-2.55 3-6.59 4.05-10.37 4.25l-56.33 3.27 1.9 32.3 55.83-3.4c3.81-0.22 8.13-0.24 11.15 2.49 5.72 4.52 6.3 14.11 0.86 19.08-2.81 3.06-7.17 3.44-11.06 3.66l-55.01 3.71 1.84 31.16 55.21-3.38c3.93-0.18 8.43-0.57 11.59 2.29 6.4 4.38 6.7 14.94 0.6 19.71-4.05 3.83-9.99 3.14-15.1 3.51l-58.96 3.93c-4.65 0.16-10.16 0.82-13.65-2.99-4.68-4.1-4.17-10.79-4.61-16.41l-6.24-93.88c-4.77-0.05-10.02 1.19-14.31-1.53-6.72-3.82-7.7-14.36-2.01-19.5 2.34-2.22 5.58-3.09 8.72-3.31z"/>
  <path d="m1241.4 377.52c4.02-0.59 8.04 0.4 12.01 1.04l103.02 17.09c6.04 0.78 10.45 6.38 10.46 12.37l6.07 103.9c5.91 0.34 11.97-1.23 17.77 0.33 7.09 2.63 10.17 12.17 5.99 18.47-1.94 3.11-5.2 5.53-8.93 5.79l-25.88 1.71c-6.54 0.52-13.15-4.74-13.39-11.43l-6.31-107.76-35.64-5.75-15.36 93.63c5.65 1.46 11.81 1.18 17.09 3.89 7.14 3.91 7.9 15.11 1.68 20.22-3.39 3.24-8.41 3.41-12.76 2.62l-23.86-4.09c-5.4-0.98-9.48-6.1-9.53-11.52 0.01-3.92 0.97-7.75 1.57-11.6l16-97.5-30.23-4.88-44.96 84.87c4.54 2.79 9.59 4.78 13.86 8.02 6.08 4.98 5.31 15.69-1.41 19.77-3.99 2.8-9.52 2.56-13.7 0.34l-21-11.04c-4.03-1.92-7.35-5.66-7.64-10.26-0.71-5.86 3.26-10.7 5.77-15.61l50.53-95.52c1.75-3.45 4.92-6.3 8.78-7.1z"/>
  <path d="m672.42 393.36 72.6-12.41c4.11-0.74 8.73-0.83 12.18 1.89 3.55 2.37 4.69 6.75 5.32 10.72l17.05 106.86c0.69 4.21 0.19 9.04-2.98 12.18-4.59 4.69-13.04 5.44-17.81 0.6-3.99-3.48-4.16-9.1-5.05-13.93l-14.89-92.03-35.74 6.08c1.43 6.66 3.7 13.12 4.82 19.86 3.4 19.39 2.87 39.72-3.19 58.55-4.37 13.68-12.34 26.34-23.49 35.49-6.88 5.35-14.76 9.41-23.1 11.93l-71.58 20.16c-6.66 2.05-14.27-2.1-15.91-8.91l-28.68-99.39c-1.11-4.01-2.53-7.95-3.14-12.07-0.71-6.09 3.87-11.97 9.76-13.29l65.33-18.86c4.29-1.29 9.39-1.86 13.11 1.18 5.35 3.53 6.89 11.25 3.51 16.65-1.8 2.93-4.93 4.73-8.16 5.68l-55.22 16.02 8.76 30.49 55.76-15.98c4.1-1.14 8.81-0.44 12.06 2.43 5.27 4.22 5.8 12.86 1.38 17.87-1.91 2.31-4.75 3.56-7.56 4.39l-54.51 15.75 8.96 31.17 62.59-17.88c14.62-5.53 23.43-20.12 27.28-34.61 5.24-20.45 3.6-42.59-3.85-62.28-5.76 0.46-12.08 3.1-17.47-0.2-7.26-3.52-7.68-14.72-1.79-19.7 3.66-3.46 8.98-3.53 13.65-4.41z"/>
  <path d="m1416.4 407.51c4.41-1.86 9.21-0.38 13.72 0.3l84.02 13.96c5.92 0.76 10.63 6.26 10.47 12.24 0.39 6.79-5.78 12.93-12.58 12.4l-59.72-9.33-5.08 31.55 55.72 9.37c4.5 0.65 8.77 3.52 10.08 8.05 2.86 7.69-3.65 17.08-12 16.42l-58.15-8.97-4.79 31.21 57.54 9.58c4.15 0.66 8.28 2.91 10.08 6.88 3.57 7.25-1.5 17.22-9.82 17.67-7.65 0.08-15.09-2.12-22.64-3.07l-48.87-8.08c-3.55-0.68-7.46-1.29-10.09-3.99-3.21-3.33-4.23-8.22-3.21-12.67l15.8-98.58c-5.65-0.83-12.47-1.09-15.96-6.38-4.73-6.08-1.53-15.83 5.48-18.56z"/>
  <path d="m501.71 442.7c4.36-1.92 9.87-2.16 13.81 0.83 3.44 2.56 4.77 6.82 6.41 10.59 2.09 5.17 4.53 10.2 6.43 15.46 1.76 4.66 1.11 10.57-2.81 13.95-5.01 5.12-14.6 4.61-18.77-1.31-2.69-3.91-3.99-8.55-5.9-12.84l-21.63 8.5 33.67 82.6c6.76-1.84 13.53-7.36 20.75-4.2 8.22 3.11 11.073 16.747 3.55 20.92l-25.763 11.668c-2.931 1.0175-5.9422 1.5433-9.0568 0.61152-4.37-1.12-7.37-4.84-8.86-8.92l-37.88-92.66-21.66 8.39c1.12 6.63 6.3 13.1 3.21 19.94-2.59 7.12-11.98 9.54-18.23 5.82-4.05-2.24-5.43-7.01-7.01-11.03-1.94-5.95-4.56-11.67-6.23-17.7-1.52-5.72 1.65-12.21 7.2-14.35z"/>
 </g>
 <g transform="matrix(.33648 0 0 .33648 -136.4 -122.28)">
  <g fill="#a3d063">
   <path d="m2148.3 531.29c4.89-1.88 11.22-1.61 14.94 2.51 4.9 4.59 4.79 13.58-0.67 17.69-2.83 2.03-6.18 3.13-9.31 4.55 11.1 31.93 22.91 63.61 34.4 95.41 1.76 4.58 0.88 10.04-2.58 13.6-5.56 6.3-17.48 4.54-20.55-3.47l-14.69-39.6-37.13 13.12c1.04 11.01 0.61 22.27-2.62 32.91-4.23 13.71-13.42 25.75-25.38 33.64-10.79 7.61-23.52 11.82-36.25 14.88-4.42 0.96-8.92 2.17-13.46 1.7-4.88-0.57-8.75-4.67-9.94-9.28l-17.54-80-42.14 89.4c-2.4 4.59-3.95 9.71-7.23 13.79-3.36 4.22-9.57 4.89-14.34 2.98-4.4-2-6.97-6.58-7.68-11.21l-18.78-96.62c-5.45-0.11-11.25 2.49-16.37-0.3-7.05-3.45-8.82-13.89-3.55-19.61 3.39-3.97 8.93-4.35 13.72-5.26 5.31-0.79 10.5-2.44 15.9-2.7 4.04-0.19 8.22 1.65 10.49 5.09 2.18 3.16 2.44 7.12 3.22 10.78l13.29 71 46.26-97.01c2.78-7.02 12.04-10.05 18.38-5.88 4.7 2.65 5.77 8.33 6.88 13.15l22.21 95.1c13.68-3.48 27.08-10.99 34.59-23.31 4.76-7.56 7.06-16.51 7.16-25.4-0.21-1.29 0.31-3.62-1.48-3.89-3.09-1.02-6.32-1.54-9.32-2.77-8.87-3.73-16.43-10.49-21.07-18.93-7.75-13.92-6.76-32.23 2.53-45.19 4.83-6.89 11.67-12.38 19.58-15.34zm-53.72 46.22c-4.58 1.71-9.57 3.34-12.68 7.36-7.4 9.43-2.93 25.93 8.94 29.28 8.23 2.45 16.03-2.15 23.63-4.66l27.19-10.26-12.19-34.05z"/>
   <path d="m1194.1 554.92c4.69-0.76 10.16-1.37 14.08 1.93 6.69 4.73 6.23 16.31-0.81 20.49-5.43 3.25-12.1 2.21-17.89 4.37l15.1 94.73 29.75 5.12 18.43-105.99c0.81-6.35 6.81-11.43 13.26-10.75l24.18 3.89c4 0.58 8.22 2.06 10.52 5.62 4.4 5.99 2.16 15.5-4.64 18.66-6.61 3.04-13.73-0.54-20.53-0.89l-15.37 93.67 35.37 5.83 38.72-94.27c1.63-4.29 3.34-9.17 7.72-11.41 3.96-2.43 8.89-1.57 12.93 0.22l20.47 8.54c4.56 1.93 8.32 6.26 8.38 11.39 0.5 7.28-6.36 14.2-13.72 13.15-5.26-0.88-9.85-3.86-14.96-5.28l-36.82 89.24c-2.09 4.64-3.29 10.22-7.62 13.37-5.05 3.35-11.31 1.59-16.81 0.71l-93.4-15.77c-5.02-0.96-10.54-1-14.87-4.02-3.22-2.23-4.39-6.2-5.01-9.86l-17.04-108.02c-0.68-5.06-2.36-10.74 0.68-15.38 1.84-3.34 5.27-5.54 9.05-5.97z"/>
   <path d="m1856.8 612.38c9.65 1.34 19.19 5.78 25.36 13.51 7.91 9.48 10 22.85 7.45 34.7-1.17 5.85-4.87 10.63-8.46 15.19 15.22 6.62 22.53 25.14 19.42 40.86-3.06 17.92-19.27 32.55-37.51 33.37l-61.03 5.12c-4.6 0.52-9.68-0.8-12.38-4.81-3.18-4.14-2.82-9.63-3.24-14.55l-7.7-105.84c-0.64-6.52 4.77-12.72 11.26-13.17zm-51.58 27.61 2.18 33.72 34.59-2.54c6.71-1.1 14.96 0.44 19.99-5.19 5.85-7.01 4.64-18.2-0.96-24.99-3.89-4.64-10.39-5.06-15.98-4.52zm4.01 56.38 2.08 32.8 41.93-3.04c6.12-0.62 13.09-0.48 17.91-4.97 6.34-6.01 6.12-16.73 1.35-23.63-3.44-4.78-9.76-5.96-15.27-5.28z"/>
  </g>
  <g fill="#a2d063">
   <path d="m1405.3 596.29c3.42-3.24 8.47-3.28 12.86-2.55l59.12 9.88c5.04 0.92 10.71 0.83 14.9 4.24 5.4 4.3 5.74 13.33 0.82 18.13-2.86 2.83-7.08 3.96-11 3.24-19.28-2.89-38.41-6.72-57.74-9.18-1.85 10.45-3.98 20.89-4.99 31.46l54.91 9.28c3.17 0.67 6.58 1.7 8.62 4.42 3.23 3.87 3.86 9.66 1.56 14.14-2.54 4.31-7.83 6.78-12.77 6.05l-56.46-9.17-5.06 31.65 58.22 9.77c3.45 0.6 7.12 1.84 9.31 4.77 4 5.25 3.07 13.8-2.53 17.59-3.08 2.54-7.29 2.8-11.07 2.16l-82.53-13.63c-5.2-1.06-11.19-0.9-15.36-4.62-5.85-5.05-5.24-15.36 1.25-19.59 5.21-3.49 11.59-1.17 17.29-0.67l15.21-91.79c0.99-5.36 0.88-11.77 5.44-15.58z"/>
   <path d="m1744 619.1c4.08-0.12 8.7-0.05 11.77 3.1 5.99 5.18 3.9 13.87 4.58 20.84-0.25 6.65 2.02 14.73-3.34 19.98-5.92 6.31-17.8 3.89-20.75-4.25-1.48-5.07-0.61-10.45-1.29-15.63l-23.21 0.6 2.02 90.06c6.46 0.33 13.65-1.73 19.51 1.92 6.48 4.2 6.6 14.55 0.78 19.39-3.76 3.61-9.31 3.2-14.11 3.3l-19.89 0.34c-6.56-0.2-11.77-6.43-11.49-12.86l-2.09-101.54-23.93 0.24c-0.54 6.34 1.32 13.62-2.94 19.02-3.82 5.15-11.79 6.55-17.01 2.74-3.1-2.05-5.21-5.56-5.22-9.32-0.26-7.68 0.05-15.36 0.09-23.04-0.06-4.49 2.35-9.07 6.41-11.14 3.69-2.04 8.03-1.51 12.09-1.75z"/>
  </g>
  <path d="m1549.2 616.21c15.35-4.87 32.56-5.32 47.53 1.13 9.87 3.88 18.27 10.87 24.84 19.1 3.1 3.78 5.82 8.63 4.73 13.69-3.8088 8.1366-12.978 23.936-18.82 28.24-4.89 2.66-11.75 2.01-15.56-2.25-3.7-3.67-4.56-9.77-2.12-14.35l9.17-13.77c-17.92-18.48-53.13-11.95-63.93 11.19-5.73 11.28-6.69 24.36-5.4 36.77 1.04 9.99 5.36 19.76 12.79 26.63 7.6 7.18 18.29 10.27 28.59 10.05 12.53 0.33 25.15-4.71 33.53-14.12 4.64-5.84 14.57-6.17 19.49-0.53 4.09 4.39 4.31 11.81 0.49 16.46-21.97 25.84-63.51 31.1-91.77 12.79-14.87-9.75-24.62-26.11-27.6-43.5-3.16-19.31-1.24-40.04 8.15-57.45 7.42-14.21 20.64-25.21 35.89-30.08z" fill="#a4cf63"/>
 </g>
</svg>
