<?xml version="1.0" encoding="UTF-8"?>
<svg id="svg23" width="380.68pt" height="226.95pt" version="1.1" viewBox="0 0 380.68 226.95" xmlns="http://www.w3.org/2000/svg" xmlns:cc="http://creativecommons.org/ns#" xmlns:dc="http://purl.org/dc/elements/1.1/" xmlns:rdf="http://www.w3.org/1999/02/22-rdf-syntax-ns#">
 <metadata id="metadata29">
  <rdf:RDF>
   <cc:Work rdf:about="">
    <dc:format>image/svg+xml</dc:format>
    <dc:type rdf:resource="http://purl.org/dc/dcmitype/StillImage"/>
    <dc:title/>
   </cc:Work>
  </rdf:RDF>
 </metadata>
 <g id="#231f20ff" transform="translate(-37.545 -124.96)" fill="#fff">
  <path id="path7" d="m37.545 174.21v-49.245h185.88v34.185c-3.19-9.62-10.45-18.07-20.3-21.12-11.75-4.05-25.63 0.14-33.31 9.87-5.67 6.88-8.04 16.28-6.31 25.03 1.75 9.26 8.09 17.48 16.55 21.63 5.81 2.97 12.48 3.53 18.91 3.45h25.211l35.079-73.045h53.11v91.405l19.21 11.05h-70.79l18.965-11.05v-87.87l-47.835 98.92h-37.91c-15.8 0.25-31.53-6.51-42.67-17.67-11.32-11.12-18.16-26.88-17.79-42.81-0.13-10.1 2.64-20.155 7.57-28.945h-28.87v77.895l19.96 11.53h-70.6l17.805-11.53v-62.835h-29.515z"/>
  <path id="path9" d="m345.32 124.96h72.53v36.845c-1.58-12.51-13.27-22.82-25.68-24.35-12.77-1.93-26.24 5.43-31.45 17.25-5.03 10.4-3.17 23.55 4.45 32.2 5.65 6.61 14.25 10.425 22.9 10.605h29.25v29.71h-29.25c-0.68057 0-2.475 0.12945-3.5476 0.45029-14.172 4.3985-26.363 17.103-27.453 32.315 10.11-15 33.27-17.19 47.04-6.15 7.26 6.03 12.49 14.68 13.72 24.1 2.06 14.02-4.17 28.85-15.45 37.36-13.09 9.53-33.98 8.82-44.6-4.14-9.73-11.93-12.29-28.09-10.96-43.05 0.87-16.7 7.1-34.29 21.2-44.3-17.69-6.08-31.97-21.06-37.39-38.94-6.6-20.65-0.59-44.595 14.69-59.905m30.15 131.76c-6.79 2.72-9.59 10.49-9.9 17.29-0.66 9.64 0.04 19.94 4.75 28.58 3.26 5.53 8.94 10.64 15.77 10.15 5.04-0.12 9.49-3.7 11.43-8.23 2.9-6.77 2.66-14.31 2.42-21.52-0.79-8.23-3.07-16.85-9-22.93-3.83-4.16-10.26-5.47-15.47-3.34z"/>
  <path id="path11" d="m383.39 151.62c7.01-2.49 15.48 0.4 19.35 6.79 4.93 7.48 2.23 18.69-5.66 23.02-7.74 4.72-19.03 1.61-22.93-6.67-4.7-8.45-0.08-20.34 9.24-23.14z"/>
  <path id="path13" d="m118.62 252.7c5.27-4.66 13.95-6.53 19.98-2.26 4.75 3.42 3.82 11.82-1.77 13.85-4.29 1.97-8.56-0.98-12.86-1.24-1.37-0.19-2.14 1.28-2.8 2.23-2.55 4.83-3.44 10.81-7.93 14.4 9.65 8.2 13.49 20.93 21.65 30.35 2.48 2.96 6.55 3.04 10.09 3.2-0.01 2.06 0 4.12 0.03 6.19h-23.82c-6.25-9.09-12.29-18.37-17.6-28.04-1.52-2.58-2.965-6.03-6.545-5.58v21.19c-0.12434 5.6523 6.5472 6.1659 11.46 6.1997v6.23h-38.535v-6.22c3.15-0.35 9.775-0.36462 9.775-6.2097v-48.66c0-2.8307-6.325-2.6203-9.775-2.6003v-6.76h38.535v6.72c-3.74 0.36-11.46-0.71212-11.46 2.6403v19.8c3.93-0.22 7.775-1.53 10.315-4.71 5.04-6.18 5.35-15.09 11.26-20.72z"/>
  <path id="path15" d="m171.94 248.97h66.035c-0.03 2.26-0.02 4.49-0.04 6.76-7.3384 0-10.259-0.59896-10.57 6.54v43.83c0 7.8017 3.7027 6.6265 10.58 7.065 0.01 2.08 0.03 4.165 0.08 6.255h-39.82c0.06-2.09 0.08-4.185 0.1-6.255 6.082 0.12541 12.61 0.24706 12.61-7.065 0.19-16.22-0.13-32.46 0.14-48.68h-19.21c-0.08 12.22 0.21 24.43-0.22 36.65-0.65 6.77-0.47 14.19-4.67 19.95-4.8 6.35-14.06 8.33-21.33 5.5-6.75-2.76-6.42-14.99 1.28-16.21 4.53-1.19 7.5 2.96 11 4.85 2.5-0.83 2.95-4.05 3.54-6.29 1.56-11.22 0.77-22.58 0.96-33.86-0.24-3.55 0.11-7.44-1.65-10.65-2.53-1.89-5.8575-2.01-8.815-2.01z"/>
  <path id="path17" d="m253.8 254.99v-6.02h36.105c-0.02 2.19-0.03 4.33-0.08 6.53-10.469 0-9.9579 1.6294-5.92 10.55l14.84 29.38 13.72-32.35c2.7834-7.7635 1.1518-7.7-5.72-7.7 0.03-2.15 0.04-4.26 0.05-6.41h26.46c0.03 2.08 0.03 4.09 0.05 6.18-3.36 0.28-7 1.37-8.47 4.72l-30.33 71.51c-3.51 8.15-9.52 15.74-18 19.01-5.16 2.22-11.86 2.33-16.16-1.73-3.19-2.68-4.31-7.67-2.1-11.3 1.48-2.8 4.71-3.99 7.69-4.33 4.26-0.29 8.02 2.1 12.12 2.79 3.3-0.97 5.33-4.09 6.79-7 2.12-4.46 3.84-9.1 5.87-13.6l-23.84-48.13c-6.1607-12.726-6.3084-12.1-13.075-12.1z"/>
 </g>
 <g id="#ea2526ff" transform="translate(-37.545 -124.96)">
  <path id="path20" d="m190.56 150.97c10.45-2.31 21.14 7.49 19.5 18.11-0.88 9.83-11.72 17.1-21.12 13.87-8.26-2.15-13.55-11.33-11.41-19.58 1.33-6.28 6.8-11.21 13.03-12.4z" fill="#ea2526"/>
 </g>
</svg>
