<svg enable-background="new 0 0 841.89 595.275" version="1.1" viewBox="0 0 3713.9 4416" xml:space="preserve" xmlns="http://www.w3.org/2000/svg"><g transform="matrix(0 -17.034 17.034 0 -770.28 4416)" fill="#834d5f" shape-rendering="auto"><path d="m2.4258 45.689c-0.48824-1.69e-4 -0.92178 0.3122-1.0762 0.77539l-1.291 3.877c-0.038762 0.11585-0.058548 0.23721-0.058594 0.35938 0 0.17374 0.008422 0.35541 0.087891 0.59375s0.28 0.58524 0.6582 0.77344c0.37821 0.1882 0.77429 0.14013 1.0117 0.06055 0.23743-0.07958 0.38892-0.18318 0.52734-0.28711 0.065025-0.04881 0.12461-0.10447 0.17773-0.16602 1.8644-2.1625 3.3974-3.0137 4.3105-3.0137 0.43642 0 0.56075 0.09201 0.60742 0.13867 0.046675 0.04666 0.13867 0.17165 0.13867 0.60742v15.037c0 0.25-0.033095 0.26944-0.078125 0.31445s-0.20102 0.15141-0.5918 0.20703c-0.14922 0.02158-0.29265 0.07271-0.42188 0.15039-0.33938 0.20294-0.84766 0.57661-0.84766 1.3262s0.50828 1.1213 0.84766 1.3242c0.17578 0.10568 0.37693 0.1617 0.58203 0.16211h5.5195c0.20576-5.2e-5 0.40764-0.05609 0.58398-0.16211 0.33853-0.20346 0.84375-0.57787 0.84375-1.3242 0-0.74634-0.50522-1.1208-0.84375-1.3242-0.12967-0.07861-0.27379-0.13041-0.42383-0.15234-0.39213-0.05607-0.54703-0.16225-0.5918-0.20703-0.04476-0.04478-0.07813-0.06439-0.07813-0.31445v-15.037c0-0.43637 0.09052-0.56119 0.13672-0.60742 0.04619-0.04623 0.17035-0.13867 0.60742-0.13867 0.90953 0 2.4454 0.85034 4.3105 3.0137 0.05251 0.06144 0.11144 0.1171 0.17579 0.16602 0.1385 0.10432 0.28961 0.20736 0.52734 0.28711 0.23774 0.07975 0.63399 0.12907 1.0117-0.05859 0.37773-0.18766 0.58029-0.53485 0.66016-0.77344 0.07987-0.23858 0.08789-0.42148 0.08789-0.5957-4.4e-5 -0.12217-0.01983-0.24352-0.05859-0.35938l-1.291-3.877c-0.15439-0.46319-0.58793-0.77556-1.0762-0.77539z" color="#000000" color-rendering="auto" dominant-baseline="auto" enable-background="accumulate" image-rendering="auto" solid-color="#000000" style="font-feature-settings:normal;font-variant-alternates:normal;font-variant-caps:normal;font-variant-ligatures:normal;font-variant-numeric:normal;font-variant-position:normal;isolation:auto;mix-blend-mode:normal;shape-padding:0;text-decoration-color:#000000;text-decoration-line:none;text-decoration-style:solid;text-indent:0;text-orientation:mixed;text-transform:none;white-space:normal"/><path d="m31.912 45.689c-0.2051 4.06e-4 -0.40625 0.05643-0.58203 0.16211-0.33938 0.20294-0.84766 0.57466-0.84766 1.3242s0.50828 1.1232 0.84766 1.3262c0.12878 0.07675 0.27151 0.1272 0.41992 0.14844 0.39156 0.05645 0.54845 0.16568 0.59375 0.21094s0.08008 0.06324 0.08008 0.3125v15.27c0 0.30588-0.05408 0.34705-0.08008 0.37305s-0.13844 0.1144-0.51172 0.14062c-0.17741 0.01264-0.34936 0.06683-0.50195 0.1582-0.33938 0.20294-0.84766 0.57661-0.84766 1.3262s0.50828 1.1213 0.84766 1.3242c0.17578 0.10568 0.37693 0.1617 0.58203 0.16211h15.389c0.46799-3.54e-4 0.8877-0.28817 1.0566-0.72461l1.6445-4.2285c0.02849-0.07252 0.04944-0.14779 0.0625-0.22461 0.03288-0.19769 0.06217-0.402-2e-3 -0.70117-0.06413-0.29917-0.34878-0.77316-0.78516-0.94727-0.43638-0.1741-0.7729-0.0808-0.99609-2e-3 -0.22319 0.07884-0.38509 0.17677-0.55078 0.28711-0.10115 0.06727-0.19084 0.15036-0.26562 0.24609-1.8225 2.3335-3.6191 3.3223-5.5664 3.3223h-4.2305c-0.43833 0-0.56164-0.09095-0.60742-0.13672-0.04579-0.04577-0.13867-0.16975-0.13867-0.60742v-7.3262h4.2715c0.59354 0 0.90038 0.1321 1.1055 0.31055 0.20509 0.17845 0.38457 0.47462 0.47461 1.0742 0.02198 0.14639 0.07241 0.28705 0.14844 0.41406 0.10582 0.17696 0.23251 0.35949 0.46875 0.53711s0.65126 0.3291 1.043 0.26367c0.78342-0.13085 1.0003-0.63543 1.1797-0.99414 0.07901-0.15696 0.12047-0.33013 0.12109-0.50586v-5.2871c-5.2e-5 -0.20576-0.05609-0.40764-0.16211-0.58398-0.20346-0.33853-0.57788-0.84375-1.3242-0.84375-0.74634 0-1.1208 0.50522-1.3242 0.84375-0.07695 0.12746-0.12806 0.26882-0.15039 0.41602-0.09008 0.60103-0.26978 0.89622-0.47461 1.0742-0.20483 0.178-0.51182 0.31055-1.1055 0.31055h-4.2715v-4.5059c0-0.43637 0.09246-0.56119 0.13867-0.60742s0.1697-0.13867 0.60742-0.13867h3.877c1.9831 0 3.4156 0.84092 4.6758 2.8711 0.06773 0.10942 0.15359 0.20651 0.25391 0.28711 0.15191 0.12199 0.30973 0.2358 0.54492 0.33008s0.61531 0.17891 1.0273 0.01367c0.41204-0.16523 0.66247-0.54111 0.75586-0.80273s0.10156-0.46385 0.10156-0.66016c2.53e-4 -0.09012-0.01024-0.17994-0.03125-0.26758l-0.93945-3.877c-0.12328-0.50932-0.57949-0.86783-1.1035-0.86719z" color="#000000" color-rendering="auto" dominant-baseline="auto" enable-background="accumulate" image-rendering="auto" solid-color="#000000" style="font-feature-settings:normal;font-variant-alternates:normal;font-variant-caps:normal;font-variant-ligatures:normal;font-variant-numeric:normal;font-variant-position:normal;isolation:auto;mix-blend-mode:normal;shape-padding:0;text-decoration-color:#000000;text-decoration-line:none;text-decoration-style:solid;text-indent:0;text-orientation:mixed;text-transform:none;white-space:normal"/><path d="m63.516 45.691c-0.17572 6.24e-4 -0.3489 0.04208-0.50586 0.12109-0.1851 0.09255-0.36621 0.1963-0.55859 0.38867-0.19237 0.19238-0.42187 0.53986-0.42187 0.97656s0.2295 0.78614 0.42187 0.97852c0.19238 0.19238 0.37349 0.29612 0.55859 0.38867 0.0693 0.03468 0.14192 0.06216 0.2168 0.08203 0.57262 0.15095 0.88272 0.36562 1.0742 0.60742s0.31445 0.56109 0.31445 1.1152c0 1.3098-0.0439 2.2664-0.10937 2.7988-0.69842 5.6646-1.6289 9.5711-2.5918 11.496-0.1898 0.3792-0.37399 0.60692-0.48633 0.70312-0.11233 0.0962-0.11529 0.08008-0.14453 0.08008-0.33421 0-0.41193-0.05988-0.48828-0.13672-2e-3 -2e-3 -4e-3 -0.0039-6e-3 -0.0059-0.11609-0.11498-0.0869-0.08628-0.0879-0.08789 0.32793-0.18791 0.64934-0.38957 0.91406-0.6543 0.50112-0.50111 0.68555-1.1976 0.68555-1.8574 0-0.59702-0.27016-1.2104-0.68555-1.625-0.5021-0.50293-1.202-0.68359-1.8594-0.68359-0.91067 0-1.726 0.63198-2.1602 1.3945-0.01 0.01669-0.0186 0.03363-0.0273 0.05078-0.32745 0.65213-0.47461 1.387-0.47461 2.1543 0 1.3403 0.47827 2.5916 1.3906 3.5039 0.68491 0.68491 1.647 0.91992 2.6816 0.91992 1.4236 0 2.692-0.88953 3.4512-2.2168 6.7e-4 -0.0013 1e-3 -0.0026 2e-3 -0.0039 1.5567-2.7506 2.5244-7.9564 3.3164-16.074v-2e-3c0.0544-0.57381 0.20378-0.80829 0.51953-1.0293s0.92212-0.41211 1.877-0.41211h1.5273c0.35868 0 0.4244 0.07284 0.43165 0.08008 7e-3 0.0072 0.0781 0.07296 0.0781 0.43164v15.273c0 0.25-0.0331 0.2714-0.0781 0.31641s-0.20103 0.15141-0.5918 0.20703c-0.14909 0.02098-0.2925 0.07144-0.42188 0.14844-0.33938 0.20294-0.84765 0.57661-0.84765 1.3262 0 0.74956 0.50827 1.1232 0.84765 1.3262 0.17598 0.10499 0.37711 0.16034 0.58203 0.16016h5.5195c0.20576-5.3e-5 0.40763-0.05609 0.58398-0.16211 0.33853-0.20346 0.84375-0.57787 0.84375-1.3242 0-0.74634-0.50522-1.1208-0.84375-1.3242-0.12982-0.07792-0.27393-0.12906-0.42383-0.15039-0.39217-0.05608-0.54677-0.16398-0.5918-0.20898-0.045-0.04501-0.0801-0.06479-0.0801-0.31445v-15.271c0-0.24966 0.0331-0.26748 0.0781-0.3125 0.0451-0.04501 0.20297-0.15442 0.59571-0.21094 0.14922-0.02159 0.29264-0.07271 0.42187-0.15039 0.33853-0.20346 0.84375-0.57787 0.84375-1.3242 0-0.74634-0.50522-1.1208-0.84375-1.3242-0.17635-0.10602-0.37822-0.16206-0.58398-0.16211z" color="#000000" color-rendering="auto" dominant-baseline="auto" enable-background="accumulate" image-rendering="auto" solid-color="#000000" style="font-feature-settings:normal;font-variant-alternates:normal;font-variant-caps:normal;font-variant-ligatures:normal;font-variant-numeric:normal;font-variant-position:normal;isolation:auto;mix-blend-mode:normal;shape-padding:0;text-decoration-color:#000000;text-decoration-line:none;text-decoration-style:solid;text-indent:0;text-orientation:mixed;text-transform:none;white-space:normal"/><path d="m92.061 45.689c-0.2051 4.06e-4 -0.40625 0.05643-0.58203 0.16211-0.33938 0.20294-0.8457 0.57466-0.8457 1.3242 1e-6 0.74956 0.50632 1.1232 0.8457 1.3262 0.12878 0.07675 0.27151 0.1272 0.41992 0.14844 0.39156 0.05645 0.54845 0.16568 0.59375 0.21094s0.08008 0.06324 0.08008 0.3125v15.27c0 0.30588-0.05408 0.34705-0.08008 0.37305s-0.13844 0.1144-0.51172 0.14062c-0.17741 0.01264-0.34936 0.06683-0.50195 0.1582-0.33938 0.20294-0.8457 0.57661-0.8457 1.3262 1e-6 0.74956 0.50632 1.1213 0.8457 1.3242 0.17578 0.10568 0.37693 0.1617 0.58203 0.16211h15.391c0.46799-3.54e-4 0.8877-0.28817 1.0566-0.72461l1.6445-4.2285c0.0286-0.07315 0.0496-0.14908 0.0625-0.22656 0.0325-0.19771 0.0608-0.40421-4e-3 -0.70312-0.0647-0.29891-0.34927-0.77162-0.78516-0.94531s-0.7709-0.07885-0.99414 0-0.38704 0.17677-0.55273 0.28711c-0.10046 0.06744-0.18948 0.15052-0.26368 0.24609-1.8237 2.3339-3.6211 3.3223-5.5684 3.3223h-4.2285c-0.43833 0-0.56359-0.09095-0.60938-0.13672-0.04578-0.04577-0.13672-0.16975-0.13672-0.60742v-7.3262h4.2695c0.59354 0 0.90038 0.1321 1.1055 0.31055 0.20508 0.17845 0.38457 0.47462 0.47461 1.0742 0.022 0.14639 0.0724 0.28705 0.14843 0.41406 0.10582 0.17696 0.23251 0.35949 0.46875 0.53711s0.65321 0.3291 1.0449 0.26367c0.78343-0.13085 1.0003-0.63543 1.1797-0.99414 0.0783-0.15712 0.11912-0.33029 0.11914-0.50586v-5.2871c-5e-5 -0.20576-0.0561-0.40764-0.16211-0.58398-0.20346-0.33853-0.57787-0.84375-1.3242-0.84375-0.74634 0-1.1208 0.50522-1.3242 0.84375-0.0769 0.12746-0.12806 0.26882-0.15039 0.41602-0.0901 0.60103-0.26979 0.89622-0.47461 1.0742-0.20483 0.178-0.51183 0.31055-1.1055 0.31055h-4.2695v-4.5059c0-0.43637 0.09051-0.56119 0.13672-0.60742s0.17165-0.13867 0.60938-0.13867h3.875c1.9843 0 3.4145 0.84243 4.6758 2.873 0.0679 0.10872 0.15376 0.20514 0.25391 0.28516 0.1519 0.12199 0.30972 0.2358 0.54492 0.33008 0.23519 0.09428 0.61531 0.17891 1.0273 0.01367 0.41204-0.16523 0.66248-0.54111 0.75586-0.80273 0.0934-0.26162 0.10156-0.46385 0.10156-0.66016 2.7e-4 -0.09012-0.0102-0.17994-0.0312-0.26758l-0.93945-3.877c-0.12311-0.50861-0.57827-0.86692-1.1016-0.86719z" color="#000000" color-rendering="auto" dominant-baseline="auto" enable-background="accumulate" image-rendering="auto" solid-color="#000000" style="font-feature-settings:normal;font-variant-alternates:normal;font-variant-caps:normal;font-variant-ligatures:normal;font-variant-numeric:normal;font-variant-position:normal;isolation:auto;mix-blend-mode:normal;shape-padding:0;text-decoration-color:#000000;text-decoration-line:none;text-decoration-style:solid;text-indent:0;text-orientation:mixed;text-transform:none;white-space:normal"/><path d="m136.82 45.221c-0.88614 0-1.7233 0.4354-2.3457 1.084-0.62243 0.64858-1.1005 1.5031-1.5254 2.5664-6.7e-4 2e-3 -1e-3 0.0039-2e-3 0.0059-0.85502 2.1727-1.555 3.757-2.0586 4.6934-6.7e-4 0.0013-1e-3 0.0026-2e-3 0.0039-0.4611 0.86409-0.95938 1.1621-2.0547 1.1621h-1.6856v-5.5625c0-0.25006 0.0333-0.26966 0.0781-0.31445s0.20106-0.15248 0.59375-0.20898c0.14994-0.02133 0.29409-0.07248 0.42394-0.15042 0.33853-0.20346 0.8418-0.57787 0.8418-1.3242 0-0.74634-0.50327-1.1208-0.8418-1.3242-0.17635-0.10602-0.37822-0.16206-0.58398-0.16211h-5.5215c-0.2051 4.04e-4 -0.40626 0.05643-0.58204 0.16211-0.33938 0.20294-0.8457 0.57466-0.8457 1.3242s0.50632 1.1232 0.8457 1.3262c0.12879 0.07675 0.27152 0.1272 0.41993 0.14844 0.39156 0.05645 0.54845 0.16568 0.59375 0.21094s0.0801 0.06324 0.0801 0.3125v15.271c0 0.25-0.035 0.2714-0.0801 0.31641-0.045 0.04501-0.20103 0.15141-0.5918 0.20703-0.14909 0.02098-0.2925 0.07144-0.42188 0.14844-0.33938 0.20294-0.8457 0.57661-0.8457 1.3262s0.50632 1.1232 0.8457 1.3262c0.17598 0.105 0.37712 0.16034 0.58204 0.16016h5.5215c0.20576-5.3e-5 0.40763-0.05609 0.58398-0.16211 0.33853-0.20346 0.8418-0.57787 0.8418-1.3242 0-0.74634-0.50327-1.1208-0.8418-1.3242-0.12982-0.07792-0.27392-0.12906-0.42382-0.15039-0.39213-0.05607-0.54899-0.1642-0.59375-0.20898-0.0448-0.04478-0.0781-0.06439-0.0781-0.31445v-6.7363h1.6856l0.11883-0.0016 0.0433 0.07978c8e-3 0.01648 0.0165 0.03276 0.0254 0.04883 1.3558 2.4107 2.7102 4.7804 4.0664 7.1172-0.0657 0.0261-0.063 0.03282-0.14648 0.06055-0.12692 0.04266-0.24529 0.10746-0.34961 0.19141-0.30427 0.2431-0.7207 0.54731-0.7207 1.2969 0 0.37478 0.19609 0.75576 0.40625 0.96484 0.21015 0.20909 0.41453 0.3078 0.60351 0.38281 0.13302 0.05283 0.27484 0.08 0.41797 0.08008h5.873c0.14457-2.02e-4 0.28776-0.02805 0.42187-0.08203 0.18876-0.07531 0.39207-0.17331 0.60157-0.38281s0.40429-0.58972 0.40429-0.96289c0-0.74634-0.41362-1.0534-0.71679-1.2969-0.12313-0.09862-0.26549-0.17046-0.41797-0.21094-0.98633-0.26213-1.5724-0.66804-1.9414-1.1953-1.5748-2.4014-3.1522-4.9632-4.7305-7.6582 0.22699-0.24101 0.47966-0.45078 0.65625-0.74609 4e-3 -0.0065 8e-3 -0.01298 0.0117-0.01953 0.66912-1.1715 1.388-2.7338 2.1836-4.7207v-2e-3c0.11307-0.28339 0.22675-0.42518 0.26563-0.46094 0.23425 0.0078 0.4295 0.0503 0.48066 0.05124 0.18097 0.03704 0.25213 0.07407 0.37646 0.11111 0.21585 0.05283 0.43201 0.07209 0.64291 0.07209 0.61854 0 1.2865-0.17208 1.7695-0.6543s0.65625-1.1508 0.65625-1.7715c0-0.72411-0.29001-1.4625-0.79883-1.9746l-6e-3 -0.0039c-0.57952-0.57583-1.3922-0.80078-2.209-0.80078z" color="#000000" color-rendering="auto" dominant-baseline="auto" enable-background="accumulate" image-rendering="auto" solid-color="#000000" style="font-feature-settings:normal;font-variant-alternates:normal;font-variant-caps:normal;font-variant-ligatures:normal;font-variant-numeric:normal;font-variant-position:normal;isolation:auto;mix-blend-mode:normal;shape-padding:0;text-decoration-color:#000000;text-decoration-line:none;text-decoration-style:solid;text-indent:0;text-orientation:mixed;text-transform:none;white-space:normal"/><path d="m159.96 45.221c-0.47131 0-0.63875 0.12867-0.85547 0.23633-0.0874 0.04339-0.16877 0.09788-0.24219 0.16211-0.50631 0.44262-1.3231 0.95282-2.4356 1.4707-0.11898 0.05575-0.22736 0.13175-0.32031 0.22461-0.1373 0.13687-0.27423 0.28799-0.39062 0.53906-0.1164 0.25107-0.19453 0.67944-0.0391 1.0684 0.15547 0.38892 0.45604 0.60751 0.67969 0.71875 0.17274 0.08592 0.31591 0.11259 0.46289 0.14258l-4.9726 13.447c-0.36002 0.95671-0.90889 1.4654-1.957 1.7754-0.0639 0.0186-0.12593 0.04279-0.18554 0.07227-0.18511 0.09256-0.36622 0.1963-0.5586 0.38867-0.19237 0.19238-0.41992 0.54182-0.41992 0.97852s0.22755 0.78614 0.41992 0.97852c0.19238 0.19238 0.37349 0.29612 0.5586 0.38867 0.15771 0.07863 0.33158 0.11943 0.50781 0.11914h5.4023c0.14379 1.72e-4 0.2863-0.027 0.41993-0.08008 0.18886-0.07516 0.39173-0.17352 0.60156-0.38281s0.40625-0.59087 0.40625-0.96484c0-0.74795-0.41503-1.0516-0.71875-1.2949-0.14202-0.11432-0.30952-0.1927-0.48828-0.22852-0.30708-0.06095-0.55798-0.14615-0.76758-0.25195-0.0374-0.01905-0.0759-0.036-0.11524-0.05078-0.13162-0.04905-0.10332-0.05689-0.0918-0.03711v-0.08984c0.35991-1.0742 0.68804-1.9943 0.97265-2.709l2e-3 -2e-3 0.0528-0.13618 0.08 0.0014 6.6623 0.0033 0.0486 0.13149-0.0234-0.06055 0.92773 2.5547c0.0159 0.04915 0.0182 0.15319 0.0293 0.22852-0.16842 0.10842-0.51516 0.27938-1.0527 0.44727-0.0577 0.01827-0.11389 0.04113-0.16797 0.06836-0.18511 0.09256-0.36817 0.1963-0.56055 0.38867-0.19237 0.19238-0.41992 0.54182-0.41992 0.97852s0.22755 0.78419 0.41992 0.97656c0.19238 0.19238 0.37544 0.29612 0.56055 0.38867 0.15696 0.07901 0.33014 0.12047 0.50586 0.12109h6.8144c0.14391-4.5e-4 0.28642-0.02829 0.41992-0.08203 0.18876-0.07531 0.39207-0.17331 0.60156-0.38281 0.2095-0.2095 0.4043-0.58972 0.4043-0.96289 0-0.74634-0.41362-1.0534-0.7168-1.2969-0.12313-0.09862-0.26548-0.17046-0.41796-0.21094-0.95118-0.25257-1.3682-0.6126-1.6055-1.1309l-6.791-17.566c-0.0307-0.07834-0.07-0.15301-0.11719-0.22266-0.30096-0.44763-0.91473-0.85547-1.5293-0.85547zm-0.70508 7.252 2.3047 6.2578h-4.6113z" color="#000000" color-rendering="auto" dominant-baseline="auto" enable-background="accumulate" image-rendering="auto" solid-color="#000000" style="font-feature-settings:normal;font-variant-alternates:normal;font-variant-caps:normal;font-variant-ligatures:normal;font-variant-numeric:normal;font-variant-position:normal;isolation:auto;mix-blend-mode:normal;shape-padding:0;text-decoration-color:#000000;text-decoration-line:none;text-decoration-style:solid;text-indent:0;text-orientation:mixed;text-transform:none;white-space:normal"/><path d="m180.4 45.689c-0.2051 4.06e-4 -0.40625 0.05643-0.58203 0.16211-0.33938 0.20294-0.84766 0.57466-0.84766 1.3242s0.50828 1.1232 0.84766 1.3262c0.12878 0.07675 0.27151 0.1272 0.41992 0.14844 0.39156 0.05645 0.54845 0.16568 0.59375 0.21094s0.0781 0.06324 0.0781 0.3125v15.271c0 0.25-0.0331 0.2714-0.0781 0.31641s-0.20103 0.15141-0.5918 0.20703c-0.14908 0.02098-0.29249 0.07144-0.42187 0.14844-0.33938 0.20294-0.84766 0.57661-0.84766 1.3262s0.50828 1.1232 0.84766 1.3262c0.17598 0.10499 0.37711 0.16034 0.58203 0.16016h5.5215c0.20577-5.1e-5 0.40764-0.05609 0.58399-0.16211 0.33853-0.20346 0.84179-0.57787 0.84179-1.3242 0-0.74634-0.50326-1.1208-0.84179-1.3242-0.12982-0.07792-0.27393-0.12906-0.42383-0.15039-0.39213-0.05607-0.54899-0.1642-0.59375-0.20898-0.0448-0.04478-0.0781-0.06439-0.0781-0.31445v-7.5586h9.2441v7.5586c0 0.30588-0.0541 0.349-0.0801 0.375s-0.13648 0.11245-0.50976 0.13867c-0.17808 0.01234-0.35073 0.06654-0.50391 0.1582-0.33938 0.20294-0.8457 0.57661-0.8457 1.3262s0.50632 1.1232 0.8457 1.3262c0.17598 0.10499 0.37711 0.16034 0.58203 0.16016h5.5215c0.20576-5.3e-5 0.40763-0.05609 0.58398-0.16211 0.33853-0.20346 0.84375-0.57787 0.84375-1.3242 0-0.74634-0.50522-1.1208-0.84375-1.3242-0.12982-0.07792-0.27393-0.12906-0.42383-0.15039-0.39212-0.05607-0.54703-0.1642-0.59179-0.20898-0.0448-0.04478-0.0801-0.06439-0.0801-0.31445v-15.271c0-0.25006 0.0353-0.26966 0.0801-0.31445s0.20106-0.15248 0.59375-0.20898c0.14922-0.02159 0.29264-0.07271 0.42186-0.15039 0.33853-0.20346 0.84375-0.57787 0.84375-1.3242 0-0.74634-0.50522-1.1208-0.84375-1.3242-0.17635-0.10602-0.37822-0.16206-0.58398-0.16211h-5.5215c-0.2051 4.06e-4 -0.40625 0.05643-0.58203 0.16211-0.33938 0.20294-0.8457 0.57466-0.8457 1.3242s0.50632 1.1232 0.8457 1.3262c0.12879 0.07675 0.27152 0.1272 0.41993 0.14844 0.39156 0.05645 0.54845 0.16568 0.59374 0.21094 0.0453 0.04526 0.0801 0.06324 0.0801 0.3125v4.7402h-9.2441v-4.7402c0-0.25006 0.0333-0.26966 0.0781-0.31445s0.20106-0.15248 0.59375-0.20898c0.1499-0.02133 0.29402-0.07247 0.42384-0.15039 0.33853-0.20346 0.84179-0.57787 0.84179-1.3242 0-0.74634-0.50326-1.1208-0.84179-1.3242-0.17635-0.10602-0.37822-0.16206-0.58399-0.16211z" color="#000000" color-rendering="auto" dominant-baseline="auto" enable-background="accumulate" image-rendering="auto" solid-color="#000000" style="font-feature-settings:normal;font-variant-alternates:normal;font-variant-caps:normal;font-variant-ligatures:normal;font-variant-numeric:normal;font-variant-position:normal;isolation:auto;mix-blend-mode:normal;shape-padding:0;text-decoration-color:#000000;text-decoration-line:none;text-decoration-style:solid;text-indent:0;text-orientation:mixed;text-transform:none;white-space:normal"/><path d="m220.11 45.221c-0.47131 0-0.63875 0.12867-0.85547 0.23633-0.0874 0.04339-0.16877 0.09788-0.24219 0.16211-0.50631 0.44262-1.3231 0.95282-2.4356 1.4707-0.11898 0.05575-0.22736 0.13175-0.32031 0.22461-0.1373 0.13687-0.27423 0.28799-0.39062 0.53906-0.1164 0.25107-0.19453 0.67944-0.0391 1.0684 0.15547 0.38892 0.45604 0.60751 0.67969 0.71875 0.17274 0.08592 0.31591 0.11259 0.46289 0.14258l-4.9726 13.447c-0.36002 0.95671-0.90889 1.4654-1.957 1.7754-0.0639 0.0186-0.12593 0.04279-0.18554 0.07227-0.18511 0.09256-0.36622 0.1963-0.5586 0.38867-0.19237 0.19238-0.41992 0.54182-0.41992 0.97852s0.22755 0.78614 0.41992 0.97852c0.19238 0.19238 0.37349 0.29612 0.5586 0.38867 0.15771 0.07863 0.33158 0.11943 0.50781 0.11914h5.4023c0.14379 1.72e-4 0.2863-0.027 0.41993-0.08008 0.18886-0.07516 0.39173-0.17352 0.60156-0.38281s0.40625-0.59087 0.40625-0.96484c0-0.74795-0.41503-1.0516-0.71875-1.2949-0.14202-0.11432-0.30952-0.1927-0.48828-0.22852-0.30708-0.06095-0.55798-0.14615-0.76758-0.25195-0.0374-0.01905-0.0759-0.036-0.11524-0.05078-0.13162-0.04905-0.10332-0.05689-0.0918-0.03711v-0.08984c0.35991-1.0742 0.68804-1.9943 0.97265-2.709l2e-3 -2e-3 0.0528-0.13618 0.08 0.0014 6.6623 0.0033 0.0486 0.13149-0.0234-0.06055 0.92773 2.5547c0.0159 0.04915 0.0182 0.15319 0.0293 0.22852-0.16842 0.10842-0.51516 0.27938-1.0527 0.44727-0.0577 0.01827-0.11389 0.04113-0.16797 0.06836-0.18511 0.09256-0.36817 0.1963-0.56055 0.38867-0.19237 0.19238-0.41992 0.54182-0.41992 0.97852s0.22755 0.78419 0.41992 0.97656c0.19238 0.19238 0.37544 0.29612 0.56055 0.38867 0.15696 0.07901 0.33014 0.12047 0.50586 0.12109h6.8144c0.14391-4.5e-4 0.28642-0.02829 0.41992-0.08203 0.18876-0.07531 0.39207-0.17331 0.60156-0.38281 0.2095-0.2095 0.4043-0.58972 0.4043-0.96289 0-0.74634-0.41362-1.0534-0.7168-1.2969-0.12313-0.09862-0.26548-0.17046-0.41796-0.21094-0.95118-0.25257-1.3682-0.6126-1.6055-1.1309l-6.791-17.566c-0.0307-0.07834-0.07-0.15301-0.11719-0.22266-0.30096-0.44763-0.91473-0.85547-1.5293-0.85547zm-0.70508 7.252 2.3047 6.2578h-4.6113z" color="#000000" color-rendering="auto" dominant-baseline="auto" enable-background="accumulate" image-rendering="auto" solid-color="#000000" style="font-feature-settings:normal;font-variant-alternates:normal;font-variant-caps:normal;font-variant-ligatures:normal;font-variant-numeric:normal;font-variant-position:normal;isolation:auto;mix-blend-mode:normal;shape-padding:0;text-decoration-color:#000000;text-decoration-line:none;text-decoration-style:solid;text-indent:0;text-orientation:mixed;text-transform:none;white-space:normal"/><path d="m243.96 45.691c-0.17572 6.24e-4 -0.3489 0.04208-0.50586 0.12109-0.1851 0.09255-0.36621 0.1963-0.55859 0.38867-0.19237 0.19238-0.42187 0.53986-0.42187 0.97656s0.2295 0.78614 0.42187 0.97852c0.19238 0.19238 0.37349 0.29612 0.55859 0.38867 0.0693 0.03468 0.14192 0.06216 0.2168 0.08203 0.57262 0.15095 0.88272 0.36562 1.0742 0.60742s0.31445 0.56109 0.31445 1.1152c0 1.3098-0.0439 2.2664-0.10937 2.7988-0.69842 5.6646-1.6289 9.5711-2.5918 11.496-0.1898 0.3792-0.37399 0.60692-0.48633 0.70312-0.11233 0.0962-0.11529 0.08008-0.14453 0.08008-0.33421 0-0.41193-0.05988-0.48828-0.13672-2e-3 -2e-3 -4e-3 -0.0039-6e-3 -0.0059-0.11609-0.11498-0.0869-0.08628-0.0879-0.08789 0.32793-0.18791 0.64934-0.38957 0.91406-0.6543 0.50112-0.50111 0.68555-1.1976 0.68555-1.8574 0-0.59702-0.27016-1.2104-0.68555-1.625-0.5021-0.50293-1.202-0.68359-1.8594-0.68359-0.91067 0-1.726 0.63198-2.1602 1.3945-0.01 0.01669-0.0186 0.03363-0.0273 0.05078-0.32745 0.65213-0.47461 1.387-0.47461 2.1543 0 1.3403 0.47827 2.5916 1.3906 3.5039 0.68491 0.68491 1.647 0.91992 2.6816 0.91992 1.4236 0 2.692-0.88953 3.4512-2.2168 6.7e-4 -0.0013 1e-3 -0.0026 2e-3 -0.0039 1.5567-2.7506 2.5244-7.9564 3.3164-16.074v-2e-3c0.0544-0.57381 0.20378-0.80829 0.51953-1.0293s0.92212-0.41211 1.877-0.41211h1.5273c0.35868 0 0.4244 0.07284 0.43165 0.08008 7e-3 0.0072 0.0781 0.07296 0.0781 0.43164v15.273c0 0.25-0.0331 0.2714-0.0781 0.31641s-0.20103 0.15141-0.5918 0.20703c-0.14909 0.02098-0.2925 0.07144-0.42188 0.14844-0.33938 0.20294-0.84765 0.57661-0.84765 1.3262 0 0.74956 0.50827 1.1232 0.84765 1.3262 0.17598 0.10499 0.37711 0.16034 0.58203 0.16016h5.5195c0.20576-5.3e-5 0.40763-0.05609 0.58398-0.16211 0.33853-0.20346 0.84375-0.57787 0.84375-1.3242 0-0.74634-0.50522-1.1208-0.84375-1.3242-0.12982-0.07792-0.27393-0.12906-0.42383-0.15039-0.39217-0.05608-0.54677-0.16398-0.5918-0.20898-0.045-0.04501-0.0801-0.06479-0.0801-0.31445v-15.271c0-0.24966 0.0331-0.26748 0.0781-0.3125 0.0451-0.04501 0.20297-0.15442 0.59571-0.21094 0.14922-0.02159 0.29264-0.07271 0.42187-0.15039 0.33853-0.20346 0.84375-0.57787 0.84375-1.3242 0-0.74634-0.50522-1.1208-0.84375-1.3242-0.17635-0.10602-0.37822-0.16206-0.58398-0.16211z" color="#000000" color-rendering="auto" dominant-baseline="auto" enable-background="accumulate" image-rendering="auto" solid-color="#000000" style="font-feature-settings:normal;font-variant-alternates:normal;font-variant-caps:normal;font-variant-ligatures:normal;font-variant-numeric:normal;font-variant-position:normal;isolation:auto;mix-blend-mode:normal;shape-padding:0;text-decoration-color:#000000;text-decoration-line:none;text-decoration-style:solid;text-indent:0;text-orientation:mixed;text-transform:none;white-space:normal"/></g><g transform="matrix(0 -31.767 31.767 0 -904.53 15764)" fill="#834d5f" shape-rendering="auto"><path d="m359.65 45.689c-0.48824-1.69e-4 -0.92178 0.3122-1.0762 0.77539l-1.291 3.877c-0.0388 0.11585-0.0586 0.23721-0.0586 0.35938 0 0.17374 8e-3 0.35541 0.0879 0.59375 0.0795 0.23834 0.28 0.58524 0.6582 0.77344 0.37821 0.1882 0.77625 0.14013 1.0137 0.06055 0.23742-0.07958 0.38696-0.18318 0.52539-0.28711 0.065-0.04881 0.12461-0.10447 0.17773-0.16602 1.8644-2.1625 3.3974-3.0137 4.3106-3.0137 0.43642 0 0.5627 0.09201 0.60937 0.13867 0.0467 0.04666 0.13672 0.17165 0.13672 0.60742v15.037c0 0.25-0.0331 0.26944-0.0781 0.31445s-0.20103 0.15141-0.5918 0.20703c-0.14923 0.02158-0.29265 0.07271-0.42188 0.15039-0.33938 0.20294-0.84765 0.57661-0.84765 1.3262s0.50827 1.1213 0.84765 1.3242c0.17578 0.10568 0.37694 0.16171 0.58204 0.16211h5.5195c0.20642 3.01e-4 0.40902-0.05575 0.58593-0.16211 0.33853-0.20346 0.8418-0.57787 0.8418-1.3242 0-0.74634-0.50327-1.1208-0.8418-1.3242-0.12967-0.07861-0.27378-0.13041-0.42382-0.15234-0.39213-0.05607-0.54899-0.16225-0.59375-0.20703-0.0448-0.04478-0.0781-0.06439-0.0781-0.31445v-15.037c0-0.43637 0.0905-0.56119 0.13672-0.60742 0.0462-0.04623 0.17035-0.13867 0.60742-0.13867 0.90953 0 2.4454 0.85034 4.3106 3.0137 0.0531 0.06155 0.11271 0.11721 0.17773 0.16602 0.13866 0.1041 0.28985 0.20763 0.52735 0.28711 0.23749 0.07948 0.63208 0.12874 1.0098-0.05859 0.37768-0.18734 0.58017-0.53467 0.66016-0.77344 0.08-0.23877 0.0898-0.42148 0.0898-0.5957-5e-5 -0.12217-0.0198-0.24352-0.0586-0.35938l-1.293-3.877c-0.15439-0.46319-0.58793-0.77556-1.0762-0.77539z" color="#000000" color-rendering="auto" dominant-baseline="auto" enable-background="accumulate" image-rendering="auto" solid-color="#000000" style="font-feature-settings:normal;font-variant-alternates:normal;font-variant-caps:normal;font-variant-ligatures:normal;font-variant-numeric:normal;font-variant-position:normal;isolation:auto;mix-blend-mode:normal;shape-padding:0;text-decoration-color:#000000;text-decoration-line:none;text-decoration-style:solid;text-indent:0;text-orientation:mixed;text-transform:none;white-space:normal"/><path d="m389.14 45.689c-0.2051 4.06e-4 -0.40625 0.05643-0.58203 0.16211-0.33938 0.20294-0.84571 0.57466-0.84571 1.3242s0.50633 1.1232 0.84571 1.3262c0.12878 0.07675 0.27151 0.1272 0.41992 0.14844 0.39156 0.05645 0.54845 0.16568 0.59375 0.21094s0.0801 0.06324 0.0801 0.3125v15.27c0 0.30588-0.0541 0.34705-0.0801 0.37305s-0.13844 0.1144-0.51172 0.14062c-0.17741 0.01264-0.34936 0.06683-0.50195 0.1582-0.33938 0.20294-0.84571 0.57661-0.84571 1.3262s0.50633 1.1213 0.84571 1.3242c0.17578 0.10568 0.37693 0.1617 0.58203 0.16211h15.391c0.46799-3.54e-4 0.8877-0.28817 1.0566-0.72461l1.6445-4.2285c0.0286-0.07315 0.0496-0.14908 0.0625-0.22656 0.0324-0.19771 0.0608-0.40421-4e-3 -0.70312-0.0647-0.29891-0.34927-0.77162-0.78516-0.94531s-0.7709-0.07885-0.99414 0-0.38704 0.17677-0.55273 0.28711c-0.10115 0.06727-0.19084 0.15036-0.26563 0.24609-1.8225 2.3335-3.6191 3.3223-5.5664 3.3223h-4.2285c-0.43767 0-0.56165-0.09095-0.60742-0.13672-0.0458-0.04577-0.13867-0.16975-0.13867-0.60742v-7.3262h4.2695c0.59292 0 0.90011 0.13196 1.1055 0.31055 0.20535 0.17858 0.38505 0.47526 0.47461 1.0742 0.022 0.14639 0.0724 0.28705 0.14843 0.41406 0.10582 0.17696 0.23251 0.35949 0.46875 0.53711 0.23625 0.17762 0.65126 0.3291 1.043 0.26367 0.78343-0.13085 1.0023-0.63543 1.1816-0.99414 0.0783-0.15712 0.11912-0.33029 0.11914-0.50586v-5.2871c-5e-5 -0.20576-0.0561-0.40764-0.1621-0.58398-0.20347-0.33853-0.57788-0.84375-1.3242-0.84375-0.74635 0-1.1208 0.50522-1.3242 0.84375-0.077 0.12746-0.12806 0.26882-0.15039 0.41602-0.0896 0.60063-0.26973 0.89622-0.47461 1.0742-0.20488 0.178-0.51183 0.31055-1.1055 0.31055h-4.2695v-4.5059c0-0.43637 0.0925-0.56119 0.13867-0.60742 0.0462-0.04623 0.17035-0.13867 0.60742-0.13867h3.877c1.9843 0 3.4138 0.84141 4.6719 2.8711 0.0683 0.10957 0.15485 0.20667 0.25586 0.28711 0.15209 0.12183 0.30984 0.23603 0.54492 0.33008s0.61349 0.1806 1.0254 0.01563 0.66431-0.54291 0.75781-0.80469 0.10157-0.46385 0.10157-0.66016c2.7e-4 -0.09012-0.0102-0.17994-0.0312-0.26758l-0.93946-3.877c-0.12311-0.50861-0.57827-0.86692-1.1016-0.86719z" color="#000000" color-rendering="auto" dominant-baseline="auto" enable-background="accumulate" image-rendering="auto" solid-color="#000000" style="font-feature-settings:normal;font-variant-alternates:normal;font-variant-caps:normal;font-variant-ligatures:normal;font-variant-numeric:normal;font-variant-position:normal;isolation:auto;mix-blend-mode:normal;shape-padding:0;text-decoration-color:#000000;text-decoration-line:none;text-decoration-style:solid;text-indent:0;text-orientation:mixed;text-transform:none;white-space:normal"/><path d="m426.97 45.221c-0.47131 0-0.63875 0.12867-0.85547 0.23633-0.0874 0.04339-0.16877 0.09788-0.24219 0.16211-0.50631 0.44262-1.3231 0.95282-2.4356 1.4707-0.11898 0.05575-0.22736 0.13175-0.32031 0.22461-0.1373 0.13687-0.27423 0.28799-0.39062 0.53906-0.1164 0.25107-0.19453 0.67944-0.0391 1.0684 0.15547 0.38892 0.45604 0.60751 0.67969 0.71875 0.17274 0.08592 0.31591 0.11259 0.46289 0.14258l-4.9726 13.447c-0.36002 0.95671-0.90889 1.4654-1.957 1.7754-0.0639 0.0186-0.12593 0.04279-0.18554 0.07227-0.18511 0.09256-0.36622 0.1963-0.5586 0.38867-0.19237 0.19238-0.41992 0.54182-0.41992 0.97852s0.22755 0.78614 0.41992 0.97852c0.19238 0.19238 0.37349 0.29612 0.5586 0.38867 0.15771 0.07863 0.33158 0.11943 0.50781 0.11914h5.4023c0.14379 1.72e-4 0.2863-0.027 0.41993-0.08008 0.18886-0.07516 0.39173-0.17352 0.60156-0.38281s0.40625-0.59087 0.40625-0.96484c0-0.74795-0.41503-1.0516-0.71875-1.2949-0.14202-0.11432-0.30952-0.1927-0.48828-0.22852-0.30708-0.06095-0.55798-0.14615-0.76758-0.25195-0.0374-0.01905-0.0759-0.036-0.11524-0.05078-0.13162-0.04905-0.10332-0.05689-0.0918-0.03711v-0.08984c0.35991-1.0742 0.68804-1.9943 0.97265-2.709l2e-3 -2e-3 0.0528-0.13618 0.08 0.0014 6.6623 0.0033 0.0486 0.13149-0.0234-0.06055 0.92773 2.5547c0.0159 0.04915 0.0182 0.15319 0.0293 0.22852-0.16842 0.10842-0.51516 0.27938-1.0527 0.44727-0.0577 0.01827-0.11389 0.04113-0.16797 0.06836-0.18511 0.09256-0.36817 0.1963-0.56055 0.38867-0.19237 0.19238-0.41992 0.54182-0.41992 0.97852s0.22755 0.78419 0.41992 0.97656c0.19238 0.19238 0.37544 0.29612 0.56055 0.38867 0.15696 0.07901 0.33014 0.12047 0.50586 0.12109h6.8144c0.14391-4.5e-4 0.28642-0.02829 0.41992-0.08203 0.18876-0.07531 0.39207-0.17331 0.60156-0.38281 0.2095-0.2095 0.4043-0.58972 0.4043-0.96289 0-0.74634-0.41362-1.0534-0.7168-1.2969-0.12313-0.09862-0.26548-0.17046-0.41796-0.21094-0.95118-0.25257-1.3682-0.6126-1.6055-1.1309l-6.791-17.566c-0.0307-0.07834-0.07-0.15301-0.11719-0.22266-0.30096-0.44763-0.91473-0.85547-1.5293-0.85547zm-0.70508 7.252 2.3047 6.2578h-4.6113z" color="#000000" color-rendering="auto" dominant-baseline="auto" enable-background="accumulate" image-rendering="auto" solid-color="#000000" style="font-feature-settings:normal;font-variant-alternates:normal;font-variant-caps:normal;font-variant-ligatures:normal;font-variant-numeric:normal;font-variant-position:normal;isolation:auto;mix-blend-mode:normal;shape-padding:0;text-decoration-color:#000000;text-decoration-line:none;text-decoration-style:solid;text-indent:0;text-orientation:mixed;text-transform:none;white-space:normal"/><path d="m449.87 45.689c-0.48824-1.69e-4 -0.92178 0.3122-1.0762 0.77539l-1.291 3.877c-0.0388 0.11585-0.0585 0.23721-0.0586 0.35938 0 0.17374 8e-3 0.35541 0.0879 0.59375 0.0795 0.23834 0.27999 0.58524 0.6582 0.77344s0.77429 0.14013 1.0117 0.06055c0.23742-0.07958 0.38892-0.18318 0.52734-0.28711 0.065-0.04881 0.12462-0.10446 0.17774-0.16602 1.8642-2.1624 3.3988-3.0137 4.3105-3.0137 0.43642 0 0.561 0.09223 0.60742 0.13867 0.0464 0.04644 0.13868 0.17135 0.13868 0.60742v15.037c0 0.2504-0.0353 0.26968-0.0801 0.31445s-0.20046 0.15138-0.5918 0.20703c-0.14922 0.02158-0.29264 0.07271-0.42187 0.15039-0.33938 0.20294-0.84766 0.57661-0.84766 1.3262s0.50828 1.1213 0.84766 1.3242c0.17578 0.10568 0.37693 0.1617 0.58203 0.16211h5.5215c0.20577-5.1e-5 0.40764-0.05609 0.58399-0.16211 0.33853-0.20346 0.84375-0.57787 0.84375-1.3242 0-0.74634-0.50522-1.1208-0.84375-1.3242-0.12967-0.07861-0.27379-0.13041-0.42383-0.15234-0.39218-0.05608-0.54872-0.16202-0.59375-0.20703-0.045-0.04501-0.0781-0.06479-0.0781-0.31445v-15.037c0-0.43637 0.0905-0.56119 0.13672-0.60742 0.0462-0.04623 0.17165-0.13867 0.60938-0.13867 0.90814 0 2.4455 0.85048 4.3105 3.0137 0.0531 0.06155 0.11271 0.11721 0.17774 0.16602 0.13842 0.10393 0.28796 0.20752 0.52539 0.28711 0.23743 0.07958 0.63546 0.12765 1.0137-0.06055 0.37821-0.1882 0.57874-0.5351 0.6582-0.77344 0.0795-0.23834 0.0879-0.42001 0.0879-0.59375-5e-5 -0.12217-0.0198-0.24352-0.0586-0.35938l-1.293-3.877c-0.15416-0.46251-0.58669-0.77472-1.0742-0.77539z" color="#000000" color-rendering="auto" dominant-baseline="auto" enable-background="accumulate" image-rendering="auto" solid-color="#000000" style="font-feature-settings:normal;font-variant-alternates:normal;font-variant-caps:normal;font-variant-ligatures:normal;font-variant-numeric:normal;font-variant-position:normal;isolation:auto;mix-blend-mode:normal;shape-padding:0;text-decoration-color:#000000;text-decoration-line:none;text-decoration-style:solid;text-indent:0;text-orientation:mixed;text-transform:none;white-space:normal"/><path d="m479.36 45.689c-0.2051 4.06e-4 -0.40625 0.05643-0.58203 0.16211-0.33938 0.20294-0.84766 0.57466-0.84766 1.3242s0.50828 1.1232 0.84766 1.3262c0.12878 0.07675 0.27151 0.1272 0.41992 0.14844 0.39212 0.05648 0.5487 0.16396 0.59375 0.20898 0.045 0.04502 0.0781 0.06479 0.0781 0.31445v15.271c0 0.2504-0.0333 0.27163-0.0781 0.31641-0.0448 0.04477-0.20046 0.15138-0.5918 0.20703-0.14908 0.02098-0.29249 0.07144-0.42187 0.14844-0.33938 0.20294-0.84766 0.57661-0.84766 1.3262s0.50828 1.1232 0.84766 1.3262c0.17598 0.10499 0.37711 0.16034 0.58203 0.16016h5.5215c0.2051-4.06e-4 0.40625-0.05643 0.58203-0.16211 0.33896-0.2032 0.84571-0.57627 0.84571-1.3242 0-0.74795-0.50675-1.121-0.84571-1.3242-0.12923-0.07768-0.27265-0.12881-0.42187-0.15039-0.39157-0.05604-0.54873-0.16397-0.59375-0.20898-0.045-0.04502-0.0781-0.06479-0.0781-0.31445v-4.7402h3.6816c2.6466 0 4.9183-0.8062 6.5586-2.4453v-2e-3c1.1266-1.1279 1.625-2.7643 1.625-4.6777 0-1.8108-0.63625-3.4534-1.8594-4.6777-1.5111-1.5111-3.6997-2.2129-6.3223-2.2129zm5.7559 2.9727h1.998c1.5858 0 2.6432 0.41507 3.4277 1.1973 0.61714 0.62097 0.95898 1.4826 0.95898 2.8379 0 1.3978-0.31762 2.1965-0.72656 2.6055-0.95977 0.96058-2.1364 1.4297-3.7793 1.4297h-2.6251l2.8e-4 -7.3242c2e-5 -0.43637 0.0925-0.56119 0.13868-0.60742 0.0462-0.04623 0.16969-0.13867 0.60742-0.13867z" color="#000000" color-rendering="auto" dominant-baseline="auto" enable-background="accumulate" image-rendering="auto" solid-color="#000000" style="font-feature-settings:normal;font-variant-alternates:normal;font-variant-caps:normal;font-variant-ligatures:normal;font-variant-numeric:normal;font-variant-position:normal;isolation:auto;mix-blend-mode:normal;shape-padding:0;text-decoration-color:#000000;text-decoration-line:none;text-decoration-style:solid;text-indent:0;text-orientation:mixed;text-transform:none;white-space:normal"/></g><g transform="matrix(38.931 0 0 38.931 -9370.8 0)" fill="#b3b3b3"><path d="m336.1 30.85v-30.85h-55.402v30.85h13.508v-16.17h7.849v24.563h-21.344v14.68h55.302v-14.68h-20.449v-24.563h7.027v16.17z"/><path d="m336.1 90.358v-30.85h-55.402v30.85h13.508v-16.17h7.849v24.564h-21.344v14.679h55.302v-14.679h-20.449v-24.564h7.027v16.17z"/></g></svg>
