<svg id="a" width="1944.9" height="802.67" version="1.1" viewBox="0 0 1823.4 752.5" xmlns="http://www.w3.org/2000/svg">
 <link id="b" href="" rel="stylesheet" type="text/css"/>
 <style id="c" type="text/css"/>
 <path id="d" d="m126.5 251.74c-69.864 0-126.5 56.636-126.5 126.5s56.636 126.5 126.5 126.5h1570.4c69.864 0 126.5-56.636 126.5-126.5s-56.636-126.5-126.5-126.5z" fill="#009dd5"/>
 <path id="e" d="m1193.9 704.97 49.619-173.47-171.31 56.562z" fill="#009dd5" fill-rule="evenodd"/>
 <path id="f" d="m931.51 0a376.25 376.25 0 0 0-18.271 0.91406 376.25 376.25 0 0 0-5.9062 0.29492 376.25 376.25 0 0 0-29.814 3.1523 376.25 376.25 0 0 0-8.8945 1.3457 376.25 376.25 0 0 0-26.312 5.4824 376.25 376.25 0 0 0-11.727 2.9941 376.25 376.25 0 0 0-22.602 7.125 376.25 376.25 0 0 0-14.414 5.2617 376.25 376.25 0 0 0-18.785 8.0605 376.25 376.25 0 0 0-9.4746 4.0664 376.25 376.25 0 0 0-9.418 5.0586 376.25 376.25 0 0 0-8.168 4.3887 376.25 376.25 0 0 0-17.127 10.502 376.25 376.25 0 0 0-15.785 10.303 376.25 376.25 0 0 0-14.947 11.363 376.25 376.25 0 0 0-14.643 11.801 376.25 376.25 0 0 0-13.756 12.814 376.25 376.25 0 0 0-13.369 13.182 376.25 376.25 0 0 0-12.428 14.146 376.25 376.25 0 0 0-11.988 14.453 376.25 376.25 0 0 0-10.918 15.266 376.25 376.25 0 0 0-10.512 15.617 376.25 376.25 0 0 0-9.3457 16.291 376.25 376.25 0 0 0-8.8867 16.564 376.25 376.25 0 0 0-7.6836 17.166 376.25 376.25 0 0 0-7.1856 17.357 376.25 376.25 0 0 0-5.9297 17.846 376.25 376.25 0 0 0-5.4141 17.982 376.25 376.25 0 0 0-4.1211 18.361 376.25 376.25 0 0 0-3.5918 18.428 376.25 376.25 0 0 0-2.2656 18.674 376.25 376.25 0 0 0-1.8594 20.059 376.25 376.25 0 0 0-0.32812 9.2227 376.25 376.25 0 0 0-0.37891 10.707 376.25 376.25 0 0 0 0.54102 10.83 376.25 376.25 0 0 0 0.9375 18.729 376.25 376.25 0 0 0 2.0195 18.721 376.25 376.25 0 0 0 2.8066 18.562 376.25 376.25 0 0 0 3.875 18.406 376.25 376.25 0 0 0 4.6465 18.191 376.25 376.25 0 0 0 5.6856 17.904 376.25 376.25 0 0 0 6.4551 17.684 376.25 376.25 0 0 0 7.4355 17.227 376.25 376.25 0 0 0 4.2949 9.9473 376.25 376.25 0 0 0 5.0586 9.418 376.25 376.25 0 0 0 4.3887 8.168 376.25 376.25 0 0 0 10.502 17.127 376.25 376.25 0 0 0 10.303 15.785 376.25 376.25 0 0 0 11.363 14.947 376.25 376.25 0 0 0 11.801 14.643 376.25 376.25 0 0 0 12.814 13.756 376.25 376.25 0 0 0 13.182 13.369 376.25 376.25 0 0 0 14.146 12.428 376.25 376.25 0 0 0 14.453 11.988 376.25 376.25 0 0 0 15.266 10.918 376.25 376.25 0 0 0 15.617 10.512 376.25 376.25 0 0 0 16.291 9.3457 376.25 376.25 0 0 0 16.564 8.8867 376.25 376.25 0 0 0 17.166 7.6836 376.25 376.25 0 0 0 17.357 7.1856 376.25 376.25 0 0 0 17.846 5.9297 376.25 376.25 0 0 0 17.982 5.4141 376.25 376.25 0 0 0 18.361 4.1211 376.25 376.25 0 0 0 18.428 3.5918 376.25 376.25 0 0 0 18.674 2.2656 376.25 376.25 0 0 0 20.059 1.8594 376.25 376.25 0 0 0 9.2227 0.32812 376.25 376.25 0 0 0 10.707 0.37891 376.25 376.25 0 0 0 10.311-0.53711 376.25 376.25 0 0 0 20.381-1.0644 376.25 376.25 0 0 0 15.291-1.6484 376.25 376.25 0 0 0 23.4-3.5898 376.25 376.25 0 0 0 11.857-2.4961 376.25 376.25 0 0 0 26.031-6.707 376.25 376.25 0 0 0 8.5469-2.7148 376.25 376.25 0 0 0 28.158-10.346 376.25 376.25 0 0 0 5.4258-2.3418 376.25 376.25 0 0 0 16.799-7.252 376.25 376.25 0 0 0 12.305-6.8848 376.25 376.25 0 0 0 5.8594-3.2774 376.25 376.25 0 0 0 73.455-53.877l-41.965-44.592a314.66 314.66 0 0 1-37.861 30.076 314.66 314.66 0 0 1-24.289 15.117 314.66 314.66 0 0 1-3.2304 1.7988 314.66 314.66 0 0 1-53.949 23.268 314.66 314.66 0 0 1-2.6738 0.93555 314.66 314.66 0 0 1-24.74 6.4961 314.66 314.66 0 0 1-6.4512 1.5566 314.66 314.66 0 0 1-21.416 3.3867 314.66 314.66 0 0 1-10.449 1.4375 314.66 314.66 0 0 1-17.783 1.0098 314.66 314.66 0 0 1-15.096 0.55664 314.66 314.66 0 0 1-15.76-0.78907 314.66 314.66 0 0 1-15.625-0.99023 314.66 314.66 0 0 1-15.576-2.3535 314.66 314.66 0 0 1-15.498-2.5527 314.66 314.66 0 0 1-15.24-3.8926 314.66 314.66 0 0 1-15.164-4.0879 314.66 314.66 0 0 1-14.84-5.416 314.66 314.66 0 0 1-14.615-5.5566 314.66 314.66 0 0 1-14.266-6.8906 314.66 314.66 0 0 1-13.959-6.9727 314.66 314.66 0 0 1-13.467-8.2578 314.66 314.66 0 0 1-13.238-8.3594 314.66 314.66 0 0 1-12.531-9.5254 314.66 314.66 0 0 1-12.377-9.6719 314.66 314.66 0 0 1-11.484-10.697 314.66 314.66 0 0 1-11.389-10.896 314.66 314.66 0 0 1-10.363-11.799 314.66 314.66 0 0 1-10.219-11.947 314.66 314.66 0 0 1-9.1504-12.795 314.66 314.66 0 0 1-8.9785-12.916 314.66 314.66 0 0 1-7.7988-13.594 314.66 314.66 0 0 1-7.6641-13.781 314.66 314.66 0 0 1-10.969-24.51 314.66 314.66 0 0 1-5.1836-14.805 314.66 314.66 0 0 1-4.9688-14.957 314.66 314.66 0 0 1-3.6895-15.295 314.66 314.66 0 0 1-3.4355-15.309 314.66 314.66 0 0 1-2.1504-15.631 314.66 314.66 0 0 1-1.8887-15.562 314.66 314.66 0 0 1-0.98828-26.834 314.66 314.66 0 0 1 0.78907-15.76 314.66 314.66 0 0 1 0.99023-15.625 314.66 314.66 0 0 1 2.3535-15.576 314.66 314.66 0 0 1 2.5527-15.498 314.66 314.66 0 0 1 3.8926-15.24 314.66 314.66 0 0 1 4.0879-15.164 314.66 314.66 0 0 1 5.416-14.84 314.66 314.66 0 0 1 5.5566-14.615 314.66 314.66 0 0 1 6.8906-14.266 314.66 314.66 0 0 1 6.9727-13.959 314.66 314.66 0 0 1 8.2578-13.467 314.66 314.66 0 0 1 8.3594-13.238 314.66 314.66 0 0 1 9.5254-12.531 314.66 314.66 0 0 1 9.6719-12.377 314.66 314.66 0 0 1 10.697-11.484 314.66 314.66 0 0 1 10.896-11.389 314.66 314.66 0 0 1 11.799-10.363 314.66 314.66 0 0 1 11.947-10.219 314.66 314.66 0 0 1 12.795-9.1504 314.66 314.66 0 0 1 12.916-8.9785 314.66 314.66 0 0 1 13.594-7.7988 314.66 314.66 0 0 1 13.781-7.6641 314.66 314.66 0 0 1 13.734-6.1465 314.66 314.66 0 0 1 16.473-6.9785 314.66 314.66 0 0 1 9.9258-3.2988 314.66 314.66 0 0 1 20.781-6.4453 314.66 314.66 0 0 1 6.4473-1.4453 314.66 314.66 0 0 1 25.08-5.1035 314.66 314.66 0 0 1 2.8535-0.34766 314.66 314.66 0 0 1 58.598-2.9531 314.66 314.66 0 0 1 3.7852 0.18945 314.66 314.66 0 0 1 28.416 2.8301 314.66 314.66 0 0 1 47.258 10.26l17.951-58.543a376.25 376.25 0 0 0-89.697-15.889 376.25 376.25 0 0 0-6.7148-0.35352 376.25 376.25 0 0 0-14.072-0.73828z" fill="#009dd5"/>
 <path id="g" d="m931.51 42.34a333.91 333.91 0 0 0-333.91 333.91 333.91 333.91 0 0 0 333.91 333.91 333.91 333.91 0 0 0 333.91-333.91 333.91 333.91 0 0 0-333.91-333.91zm0 19.246a314.66 314.66 0 0 1 314.66 314.66 314.66 314.66 0 0 1-314.66 314.66 314.66 314.66 0 0 1-314.66-314.66 314.66 314.66 0 0 1 314.66-314.66z" fill="#009dd5"/>
 <path id="h" d="m137.85 316.59-6.5352 32.209h36.721l-15.559 76.709h41.699l15.561-76.709h36.721l6.5352-32.209zm150.83 25.518c-18.776 0-33.351 6.3795-43.725 19.139-8.0912 9.9584-12.137 21.058-12.137 33.299 0 5.4978 1.0892 10.372 3.2676 14.625 1.7635 3.5269 4.253 6.5883 7.4688 9.1816 4.4605 3.6306 10.062 6.1708 16.805 7.623 4.4605 0.93359 9.8559 1.4004 16.184 1.4004 5.6016 0 11.67-0.41428 18.205-1.2441 6.5352-0.72613 12.759-1.8678 18.672-3.4238l4.3555-21.16c-4.5642 1.556-9.7496 2.9039-15.559 4.0449-5.7053 1.0373-10.789 1.5566-15.25 1.5566-6.4314 0-10.994-1.2973-13.691-3.8906-1.8672-1.7634-2.8008-4.15-2.8008-7.1582 0-0.51866 0.0506-1.1411 0.1543-1.8672h54.461l1.0879-4.8223c1.3485-5.7053 2.0234-10.84 2.0234-15.404 0-4.1493-0.56988-7.8837-1.7109-11.203-1.8672-5.0829-5.0842-9.3891-9.6484-12.916-6.8464-5.1866-16.233-7.7793-28.162-7.7793zm214.77 0c-18.776 0-33.349 6.3795-43.723 19.139-8.0912 9.9584-12.137 21.058-12.137 33.299 0 5.4978 1.0892 10.372 3.2676 14.625 1.7635 3.5269 4.253 6.5883 7.4688 9.1816 4.4605 3.6306 10.062 6.1708 16.805 7.623 4.4605 0.93359 9.8539 1.4004 16.182 1.4004 5.6016 0 11.67-0.41428 18.205-1.2441 6.5352-0.72613 12.759-1.8678 18.672-3.4238l4.3574-21.16c-4.5642 1.556-9.7515 2.9039-15.561 4.0449-5.7053 1.0373-10.788 1.5566-15.248 1.5566-6.4314 0-10.996-1.2973-13.693-3.8906-1.8672-1.7634-2.8008-4.15-2.8008-7.1582 0-0.51866 0.0525-1.1411 0.15625-1.8672h54.459l1.0898-4.8223c1.3485-5.7053 2.0215-10.84 2.0215-15.404 0-4.1493-0.56987-7.8837-1.7109-11.203-1.8672-5.0829-5.0822-9.3891-9.6465-12.916-6.8464-5.1866-16.235-7.7793-28.164-7.7793zm398.55 0c-18.776 0-33.349 6.3795-43.723 19.139-8.0912 9.9584-12.137 21.058-12.137 33.299 0 5.4978 1.0892 10.372 3.2676 14.625 1.7635 3.5269 4.253 6.5883 7.4688 9.1816 4.4605 3.6306 10.062 6.1708 16.805 7.623 4.4605 0.93359 9.8539 1.4004 16.182 1.4004 5.6016 0 11.67-0.41428 18.205-1.2441 6.5352-0.72613 12.759-1.8678 18.672-3.4238l4.3574-21.16c-4.5642 1.556-9.7515 2.9039-15.561 4.0449-5.7053 1.0373-10.788 1.5566-15.248 1.5566-6.4314 0-10.996-1.2973-13.693-3.8906-1.8672-1.7634-2.8008-4.15-2.8008-7.1582 0-0.51866 0.0525-1.1411 0.15625-1.8672h54.459l1.0898-4.8223c1.3485-5.7053 2.0215-10.84 2.0215-15.404 0-4.1493-0.56988-7.8837-1.7109-11.203-1.8672-5.0829-5.0822-9.3891-9.6465-12.916-6.8464-5.1866-16.235-7.7793-28.164-7.7793zm251.55 0c-18.776 0-33.351 6.3795-43.725 19.139-8.0911 9.9584-12.137 21.058-12.137 33.299 0 5.4978 1.0892 10.372 3.2676 14.625 1.7634 3.5269 4.253 6.5883 7.4687 9.1816 4.4605 3.6306 10.062 6.1708 16.805 7.623 4.4605 0.93359 9.8559 1.4004 16.184 1.4004 5.6016 0 11.67-0.41428 18.205-1.2441 6.5351-0.72613 12.759-1.8678 18.672-3.4238l4.3554-21.16c-4.5642 1.556-9.7495 2.9039-15.559 4.0449-5.7053 1.0373-10.79 1.5566-15.25 1.5566-6.4314 0-10.994-1.2973-13.691-3.8906-1.8672-1.7634-2.8008-4.15-2.8008-7.1582 0-0.51866 0.051-1.1411 0.1543-1.8672h54.461l1.0879-4.8223c1.3485-5.7053 2.0234-10.84 2.0234-15.404 0-4.1493-0.5699-7.8837-1.7109-11.203-1.8672-5.0829-5.0842-9.3891-9.6485-12.916-6.8463-5.1866-16.233-7.7793-28.162-7.7793zm106.42 0c-20.747 0-36.618 6.2239-47.613 18.672-8.4024 9.5434-12.604 20.488-12.604 32.832 0 7.8837 2.1783 14.574 6.5351 20.072 7.1576 9.1285 19.502 13.691 37.033 13.691 5.0829 0 9.959-0.3112 14.627-0.93359 4.7717-0.51867 9.6477-1.5553 14.627-3.1113l4.8223-23.496c-3.0083 1.2448-6.1202 2.2834-9.336 3.1133-3.2157 0.72613-6.2751 1.0879-9.1796 1.0879-5.0829 0-9.181-1.2448-12.293-3.7344-3.0083-2.5933-4.5117-6.2226-4.5117-10.891 0-6.224 2.0228-11.619 6.0683-16.184 4.5643-5.1866 10.841-7.7793 18.828-7.7793 1.8671 0 4.2517 0.31119 7.1562 0.93359 3.0083 0.51866 5.9646 1.4522 8.8691 2.8008l4.668-23.34c-4.4605-1.2448-8.8173-2.1784-13.07-2.8008-4.1493-0.6224-9.0254-0.9336-14.627-0.9336zm-903.46 1.8672-7.002 33.92c-2.1784 10.581-4.2012 17.688-6.0684 21.318-1.8672 3.5269-4.3568 5.2891-7.4688 5.2891-2.2821 0-4.3049-0.36176-6.0684-1.0879l-4.9785 21.006c3.5269 1.1411 6.845 1.9191 9.957 2.334 3.112 0.41493 6.6402 0.62109 10.582 0.62109 4.7717 0 8.9204-0.56988 12.447-1.7109 4.7717-1.556 8.8698-4.2537 12.293-8.0918 3.5269-3.9418 6.3277-9.1797 8.4023-15.715 1.1411-3.5269 2.7496-10.476 4.8242-20.85l2.8008-13.693h13.381l-11.826 58.193h39.211l16.65-81.533zm206.68 0-16.65 81.533h39.211l11.826-58.193h14.004l-11.826 58.193h39.211l16.65-81.533zm99.863 0 13.07 83.557-1.2461 2.6445c-1.3485 2.8008-3.5775 4.773-6.6894 5.9141-1.9709 0.72613-4.1493 1.0879-6.5352 1.0879-4.1493 0-8.0393-0.62239-11.67-1.8672l-4.668 23.029c8.5061 2.0747 16.13 3.1113 22.873 3.1113 11.514 0 21.317-2.5927 29.408-7.7793 8.0912-5.1866 15.144-13.486 21.16-24.896l44.812-84.801h-38.432l-20.852 51.348-0.6211-51.348zm102.61 0-4.8242 23.34h21.785l-11.826 58.193h39.211l11.826-58.193h21.783l4.8242-23.34zm196.08 0-16.65 81.533h132.26l16.65-81.533h-35.789l-11.824 58.193h-12.449l11.826-58.193h-35.787l-11.826 58.193h-12.449l11.826-58.193zm335.84 0-4.8242 23.34h21.785l-11.826 58.193h39.211l11.826-58.193h21.783l4.8242-23.34zm94.01 0-16.65 81.533h60.217c10.788 0 19.451-2.9038 25.986-8.7129 5.7053-5.0829 8.5567-11.048 8.5567-17.895 0-4.4605-1.451-8.1424-4.3555-11.047-2.9045-2.9045-6.7439-4.7192-11.516-5.4453 6.7426-1.6597 11.827-4.7211 15.25-9.1816 3.0082-3.8381 4.5117-8.1949 4.5117-13.07 0-5.3941-1.9197-9.4397-5.7578-12.137s-9.5953-4.0449-17.272-4.0449zm105.41 0-16.648 81.533h38.744l25.674-38.121h0.7773l-7.7793 38.121h35.787l16.65-81.533h-38.434l-25.984 38.121h-0.7793l7.7812-38.121zm139.68 0c-11.826 0-21.42 3.4757-28.785 10.426-6.5352 6.224-9.8027 13.537-9.8027 21.939 0 4.5642 1.2953 8.3492 3.8886 11.357 2.0747 2.3858 4.7724 4.2025 8.0918 5.4473l-23.807 32.363h40.301l15.248-27.074h4.2012l-5.4453 27.074h39.211l16.648-81.533zm-212.88 17.428h4.8223c3.2157 0 5.5496 0.51736 7.0019 1.5547 1.4523 0.9336 2.1797 2.334 2.1797 4.2012 0 1.9709-0.6749 3.6825-2.0234 5.1348-2.0747 2.1784-5.4453 3.2676-10.113 3.2676h-4.8242zm-1136.7 0.1543c2.0747 0 3.8893 0.72743 5.4453 2.1797 1.6597 1.3485 2.4902 3.7856 2.4902 7.3125l-0.4668 4.8242-0.31055 1.7109h-20.229l0.31055-1.5566c1.1411-5.9128 3.3194-10.061 6.5352-12.447 1.7635-1.3485 3.8388-2.0234 6.2246-2.0234zm214.77 0c2.0746 0 3.8913 0.72743 5.4473 2.1797 1.6597 1.3485 2.4883 3.7856 2.4883 7.3125l-0.46679 4.8242-0.31055 1.7109h-20.229l0.3125-1.5566c1.1411-5.9128 3.3194-10.061 6.5352-12.447 1.7635-1.3485 3.8368-2.0234 6.2227-2.0234zm398.55 0c2.0746 0 3.8913 0.72743 5.4473 2.1797 1.6597 1.3485 2.4883 3.7856 2.4883 7.3125l-0.46679 4.8242-0.31055 1.7109h-20.229l0.3125-1.5566c1.1411-5.9128 3.3194-10.061 6.5352-12.447 1.7635-1.3485 3.8368-2.0234 6.2227-2.0234zm251.55 0c2.0746 0 3.8893 0.72743 5.4453 2.1797 1.6597 1.3485 2.4902 3.7856 2.4902 7.3125l-0.4668 4.8242-0.3105 1.7109h-20.228l0.3105-1.5566c1.1411-5.9128 3.3195-10.061 6.5352-12.447 1.7634-1.3485 3.8387-2.0234 6.2246-2.0234zm498.7 1.7129h3.2676l-3.7343 18.359h-2.9571c-2.3858 0-4.5117-0.6224-6.3789-1.8672-1.7634-1.3485-2.6445-3.2157-2.6445-5.6016 0-2.8008 0.8811-5.1853 2.6445-7.1562 2.1784-2.4896 5.446-3.7344 9.8027-3.7344zm-233.11 28.629h5.6015c2.5934 0 4.8748 0.41623 6.8457 1.2461 1.971 0.72613 2.9571 2.5408 2.9571 5.4453 0 2.5933-0.8811 4.7192-2.6446 6.3789-2.1783 2.0747-5.654 3.1133-10.426 3.1133h-5.6016z" fill="#fff" font-family="sans-serif" font-size="155.6px" letter-spacing="0px" text-align="center" text-anchor="middle" word-spacing="0px"/>
</svg>
