<svg width="175.98mm" height="211.67mm" version="1.1" viewBox="0 0 175.98 211.67" xmlns="http://www.w3.org/2000/svg">
 <g transform="translate(21.998 56.833)">
  <path d="m133.14-10.152h-0.29245l21.144-21.125v-25.556l-64.789 64.758c12.302 0 24.591-6e-3 36.887-6e-3 2.1841 0 4.1629 0.88369 5.5878 2.3085 1.4374 1.4375 2.3272 3.4286 2.3272 5.6189v83.17c0 2.1902-0.88987 4.1691-2.3272 5.6126-1.425 1.4252-3.4037 2.3085-5.5878 2.3085h-120.15c-2.1841 0-4.1628-0.8837-5.594-2.3085-1.4374-1.4446-2.3272-3.4226-2.3272-5.6128v-83.17c0-2.1904 0.88987-4.1816 2.3272-5.6189 1.4312-1.4252 3.4099-2.3085 5.594-2.3085 27.69 0 55.38 6e-3 83.07 6e-3l-64.782-64.757v25.556l21.138 21.125h-46.482c-5.7185 0-10.92 2.3521-14.71 6.1354-3.7708 3.771-6.1043 8.9729-6.1043 14.691v93.512c0 5.7184 2.3334 10.914 6.1043 14.691 3.7895 3.7833 8.9915 6.1354 14.71 6.1354h134.26c5.7185 0 10.927-2.3521 14.71-6.1354 3.7708-3.777 6.1167-8.9728 6.1167-14.691v-93.512c0-5.7184-2.3459-10.92-6.1167-14.691-3.7833-3.7833-8.9915-6.1354-14.71-6.1354m-120.98 65.025c-3.7459 0-6.8136-3.0615-6.8136-6.8074v-25.879c0-3.7459 3.0677-6.8136 6.8136-6.8136h25.879c3.7459 0 6.8074 3.0677 6.8074 6.8136v25.879c0 3.7459-3.0615 6.8074-6.8074 6.8074zm0 44.479c-3.7459 0-6.8136-3.0615-6.8136-6.8074v-25.879c0-3.7523 3.0677-6.8138 6.8136-6.8138h25.879c3.7459 0 6.8074 3.0615 6.8074 6.8138v25.879c0 3.7459-3.0615 6.8074-6.8074 6.8074zm44.335-44.479c-3.7459 0-6.8074-3.0615-6.8074-6.8074v-25.879c0-3.7459 3.0615-6.8136 6.8074-6.8136h25.879c3.746 0 6.8074 3.0677 6.8074 6.8136v25.879c0 3.7459-3.0615 6.8074-6.8074 6.8074zm0 44.479c-3.7459 0-6.8074-3.0615-6.8074-6.8074v-25.879c0-3.7523 3.0615-6.8138 6.8074-6.8138h25.879c3.746 0 6.8074 3.0615 6.8074 6.8138v25.879c0 3.7459-3.0615 6.8074-6.8074 6.8074zm-77.072 33.409c-0.26758 0-0.51028 0.0705-0.72794 0.19226-0.20531 0.12347-0.37341 0.28575-0.50411 0.50446-0.11818 0.21167-0.18044 0.44802-0.18662 0.72848v1.4128c0.0062 0.2681 0.06879 0.50975 0.18662 0.72847 0.13053 0.20461 0.29862 0.37923 0.50411 0.50446 0.21784 0.12347 0.46054 0.17992 0.72794 0.17992h6.7203v15.967c0 0.26105 0.06174 0.50447 0.19297 0.70907 0.12523 0.20461 0.29862 0.37394 0.51646 0.49212 0.20531 0.12347 0.44185 0.18697 0.70942 0.18697h2.8312c0.2614 0 0.49776-0.0529 0.70942-0.18697 0.21784-0.12347 0.38576-0.28574 0.51646-0.49212 0.12523-0.2046 0.18662-0.44802 0.19297-0.70907v-15.967h6.7203c0.27375 0 0.51646-0.0705 0.72177-0.17991 0.21149-0.12347 0.37958-0.29809 0.50411-0.50447 0.12523-0.21695 0.19297-0.46036 0.19297-0.72847v-1.4128c0-0.28045-0.06879-0.51681-0.19297-0.72847-0.12523-0.21696-0.29245-0.37923-0.50411-0.50447-0.20531-0.12347-0.44802-0.19226-0.72177-0.19226zm41.765 0h-17.355c-0.2614 0-0.49776 0.0705-0.70942 0.19226-0.21149 0.12347-0.38576 0.28575-0.51646 0.49741-0.12523 0.20461-0.18662 0.43567-0.19297 0.69672v18.773c0.00619 0.26811 0.06879 0.51681 0.19297 0.72848 0.11818 0.22401 0.29245 0.39157 0.49776 0.5221 0.21784 0.12347 0.46054 0.19226 0.72794 0.19226h17.292c0.26758 0 0.51028-0.0706 0.72177-0.19226 0.21149-0.12347 0.37958-0.2928 0.50411-0.50976 0.12523-0.21166 0.18662-0.44802 0.19297-0.70907v-1.4499c-0.0062-0.26811-0.06879-0.49212-0.19297-0.70378-0.12523-0.20461-0.28628-0.36688-0.49159-0.49741-0.21149-0.12347-0.44185-0.17991-0.70307-0.17991h-13.067v-4.449h11.281c0.2614 0 0.49159-0.0705 0.70307-0.19226 0.21784-0.12347 0.3921-0.2928 0.51646-0.50975 0.13053-0.20461 0.18662-0.44802 0.19297-0.70908v-1.4128c-0.0062-0.27339-0.06174-0.4974-0.19297-0.70907-0.12523-0.22401-0.29862-0.39157-0.51646-0.51681-0.21149-0.12347-0.44185-0.19226-0.70307-0.19931h-11.281v-4.4118h13.098c0.2614 0 0.49776-0.0706 0.70307-0.17992 0.21784-0.12347 0.38576-0.29809 0.51646-0.50446 0.13053-0.21696 0.19297-0.46037 0.19914-0.72847v-1.4129c-0.0062-0.28045-0.06879-0.51681-0.19914-0.72847-0.13052-0.21872-0.29862-0.37923-0.51646-0.50446-0.20531-0.12347-0.44185-0.19226-0.70307-0.19226m24.996 20.192v-18.767c0-0.25575-0.05644-0.48506-0.16757-0.69672-0.11818-0.21695-0.2614-0.39158-0.45419-0.5221-0.19279-0.12347-0.39828-0.19932-0.64099-0.20461h-7.5229c-1.1014 0-2.1779 0.0706-3.2233 0.24871-1.0516 0.17638-2.0348 0.46742-2.937 0.89074-0.90221 0.42862-1.6862 1.0266-2.3459 1.7921-0.65968 0.76552-1.1511 1.7427-1.4809 2.9308l-3.8206 14.48c-0.05644 0.2293-0.04939 0.44097 0.02469 0.62794 0.06879 0.19226 0.19914 0.34924 0.36706 0.46036 0.16757 0.12347 0.36706 0.17639 0.59742 0.17639h3.049c0.27375 0 0.52898-0.0705 0.77151-0.18697 0.24271-0.12347 0.45419-0.28574 0.63464-0.50446 0.18044-0.21167 0.31114-0.45331 0.38576-0.72142l3.4472-12.905c0.16757-0.62265 0.44185-1.1518 0.81508-1.6122 0.38576-0.44802 0.84012-0.80256 1.3815-1.046 0.53516-0.24341 1.1262-0.37923 1.7796-0.37923h3.6713v15.942c0 0.26811 0.06879 0.50976 0.19279 0.72142 0.12523 0.21872 0.29862 0.38629 0.51028 0.50447 0.21149 0.12347 0.45419 0.18696 0.7156 0.18696h2.8624c0.2614 0 0.49159-0.0705 0.70307-0.18696 0.20531-0.12347 0.37958-0.28575 0.49776-0.50447 0.11818-0.21166 0.18662-0.45331 0.18662-0.72142m23.085-20.193h-17.355c-0.2614 0-0.49776 0.0705-0.70942 0.19226-0.21149 0.12347-0.38576 0.28574-0.51028 0.49741-0.13053 0.2046-0.19279 0.43567-0.19914 0.69672v18.773c0.0061 0.26811 0.06879 0.51681 0.19279 0.72847 0.12523 0.22401 0.29245 0.39158 0.50411 0.5221 0.21149 0.12348 0.45419 0.19227 0.72177 0.19227h17.292c0.27375 0 0.51028-0.0706 0.72177-0.19227 0.21784-0.12347 0.37958-0.2928 0.50411-0.50975 0.13053-0.21166 0.18662-0.44802 0.19279-0.70907v-1.4499c-0.0061-0.26811-0.06173-0.49212-0.19279-0.70378-0.12523-0.20461-0.28627-0.36688-0.49159-0.49741-0.21149-0.12347-0.4355-0.17991-0.70307-0.17991h-13.067v-4.449h11.281c0.2614 0 0.49776-0.0706 0.70942-0.19226 0.21149-0.12347 0.38576-0.2928 0.51028-0.50976 0.13052-0.20461 0.19279-0.44802 0.19914-0.70907v-1.4128c-0.0061-0.2734-0.06879-0.49741-0.19914-0.70907-0.12523-0.22401-0.29862-0.39158-0.51028-0.51681-0.21149-0.12347-0.44802-0.19226-0.70942-0.19932h-11.281v-4.4118h13.098c0.2614 0 0.49776-0.0705 0.70942-0.17991 0.21784-0.12347 0.38576-0.29809 0.51028-0.50446 0.13052-0.21696 0.19279-0.46037 0.19914-0.72848v-1.4128c-0.0061-0.28045-0.06879-0.51681-0.19914-0.72847-0.12523-0.21872-0.29245-0.37923-0.51028-0.50447-0.21149-0.12347-0.44802-0.19226-0.70942-0.19226m4.6233 17.361h-1.1698c-0.2614 0-0.49776 0.0705-0.70942 0.17991-0.21784 0.12347-0.38576 0.2928-0.51646 0.49741-0.12523 0.21166-0.18662 0.43567-0.19279 0.70378v1.4499c0.0061 0.26105 0.06879 0.49741 0.19279 0.70907 0.13053 0.21695 0.29862 0.38628 0.51646 0.50975 0.21149 0.12348 0.44802 0.19227 0.70942 0.19227h21.885c0.2614 0 0.49776-0.0706 0.70942-0.18697 0.21149-0.12347 0.38576-0.28575 0.51646-0.49212 0.12523-0.20461 0.18662-0.44096 0.18662-0.69672v-18.842c0-0.26105-0.06173-0.49212-0.18662-0.69673-0.13052-0.21166-0.30497-0.37393-0.51646-0.4974s-0.44802-0.19226-0.70942-0.19226h-8.139c-1.1014 0-2.1654 0.0882-3.2046 0.25576-1.0329 0.17638-1.9974 0.47271-2.8872 0.90309-0.87734 0.43567-1.6365 1.046-2.2712 1.8108-0.63464 0.7708-1.1014 1.7603-1.4063 2.9555zm8.3257-10.136c0.14287-0.61559 0.37958-1.1395 0.70307-1.5804 0.32984-0.44096 0.74047-0.78492 1.2321-1.0213 0.49159-0.24342 1.0641-0.37394 1.6988-0.37394h4.4989v13.111h-10.665zm29.003-3.5842c1.537 0 2.7752 0.28574 3.721 0.8343 0.95196 0.55914 1.6365 1.3688 2.0783 2.4267 0.4355 1.0707 0.64716 2.3708 0.64099 3.9264 6e-3 1.5363-0.20532 2.8499-0.64099 3.9078-0.44185 1.0707-1.1262 1.8854-2.0783 2.4392-0.94578 0.55385-2.1841 0.82196-3.721 0.82725-1.537-6e-3 -2.7752-0.2734-3.7273-0.82725-0.95195-0.55385-1.6365-1.3688-2.0721-2.4392-0.4355-1.0583-0.65333-2.3708-0.64099-3.9078-0.0126-1.5557 0.20532-2.856 0.64099-3.9264 0.4355-1.0583 1.12-1.8667 2.0721-2.4267 0.95213-0.54679 2.1903-0.8343 3.7273-0.8343m-12.115 7.1868c0.0061 1.9976 0.27375 3.7087 0.8089 5.1337 0.53516 1.4252 1.3192 2.5946 2.3583 3.4907 1.0329 0.90133 2.3023 1.561 3.8019 1.9912 1.5058 0.42333 3.2108 0.64028 5.146 0.62793 1.929 0.0127 3.6402-0.2046 5.1398-0.62793 1.4996-0.42862 2.769-1.0883 3.8082-1.9912 1.0267-0.89604 1.817-2.0658 2.3583-3.4907 0.52898-1.4252 0.80273-3.1361 0.80273-5.1337 0-2.0036-0.27375-3.7147-0.80273-5.1459-0.54133-1.4305-1.3315-2.5948-2.3583-3.4847-1.0391-0.90839-2.3086-1.5734-3.8082-1.9912-1.4996-0.42862-3.2108-0.63499-5.1398-0.62793-1.9352-6e-3 -3.6402 0.19931-5.146 0.62793-1.4996 0.41627-2.769 1.083-3.8019 1.9912-1.0391 0.88898-1.8232 2.0535-2.3583 3.4847-0.53516 1.4305-0.80273 3.1423-0.8089 5.1459m42.164 10.778c0.2614 0 0.51646-0.0529 0.75916-0.18697 0.24889-0.12347 0.4729-0.28045 0.65951-0.48506 0.19279-0.19931 0.32984-0.43567 0.42932-0.67908l5.3016-14.822v14.729c6e-3 0.26811 0.0688 0.51681 0.18662 0.72848 0.13052 0.22401 0.29862 0.39157 0.51028 0.5221 0.21784 0.12347 0.45419 0.19226 0.72177 0.19226h2.713c0.27375 0 0.51646-0.0529 0.72794-0.19226 0.21149-0.12347 0.37958-0.29809 0.50411-0.5221 0.11818-0.21167 0.18662-0.46037 0.18662-0.72848v-18.705c0-0.2734-0.0688-0.51681-0.18662-0.72847-0.12523-0.22401-0.29244-0.40393-0.49158-0.52916-0.21784-0.12347-0.44802-0.19226-0.70943-0.19932h-6.1354c-0.26758 6e-3 -0.52898 0.0706-0.77152 0.19932-0.2427 0.12347-0.46054 0.29809-0.64098 0.51681-0.18044 0.20461-0.31732 0.45331-0.40445 0.70907l-4.4429 12.874-4.4304-12.874c-0.0935-0.25576-0.22401-0.50447-0.40446-0.70907-0.18661-0.21696-0.39828-0.39158-0.64716-0.51681-0.2427-0.12347-0.49776-0.19227-0.77151-0.19932h-6.1292c-0.26757 6e-3 -0.49776 0.0705-0.70942 0.19932-0.20531 0.12347-0.36706 0.30514-0.49159 0.52915-0.12523 0.21167-0.18044 0.45331-0.19279 0.72848v18.705c0.0126 0.26811 0.0688 0.51681 0.19279 0.72847 0.12524 0.22401 0.29245 0.39158 0.50411 0.5221 0.21784 0.12347 0.46055 0.19226 0.72177 0.19226h2.713c0.27375 0 0.51028-0.0705 0.72794-0.19226 0.20532-0.12347 0.37959-0.29809 0.49776-0.5221 0.12524-0.21166 0.18662-0.46036 0.19279-0.72847v-14.729l5.3016 14.822c0.0988 0.24341 0.24271 0.47977 0.42932 0.67908 0.19279 0.20461 0.41698 0.36688 0.65969 0.48506 0.24888 0.12347 0.50411 0.18697 0.76533 0.18697z" fill="#0aafde"/>
 </g>
</svg>
