<svg id="a" width="211.67mm" height="56.637mm" version="1.1" viewBox="0 0 211.67 56.637" xmlns="http://www.w3.org/2000/svg">
 <g id="b" transform="translate(27.865 -95.101)">
  <g id="c" transform="matrix(3.4391 0 0 -3.4391 -2071.7 677.26)">
   <path id="d" d="m594.29 165.44v1.003c0.144 0.548 0.274 1.098 0.551 1.504 0.731 1.068 1.966 1.268 3.761 1.303 1.809 0.036 3.536 0.035 5.314 0 0.865-0.017 1.819-0.014 2.457-0.25 2.504-0.927 2.5-5.125 0.25-6.167-0.516-0.239-1.044-0.19-1.855-0.301 0.012-1.725 0.132-3.626 0.201-5.465 0.024-0.643 0.102-1.26-0.05-1.805-0.74-2.64-6.028-2.781-7.12-0.351-0.457 1.019-0.15 2.814-0.1 4.011 0.05 1.178 0.096 2.301 0.151 3.61-2.217-0.061-3.26 1.052-3.56 2.908" fill="#c2304c"/>
   <path id="e" d="m648.24 169.15v-1.755h1.755c0.116 0.485 0.017 1.187 0.05 1.755h1.003v-4.613h-1.003v1.956h-1.755c-0.117-0.552-0.017-1.32-0.05-1.956h-1.003v4.613z" fill="#e3ad40"/>
   <path id="f" d="m652.05 169.15c1.31-0.136 2.22 0.306 3.058-0.351 1.083-0.849 0.906-3.388-0.15-4.011-0.742-0.438-1.807-0.176-2.958-0.251 0.033 1.521-0.067 3.176 0.05 4.613m2.507-3.61c0.406 0.356 0.547 2.054 0 2.557-0.471 0.434-0.964 0.163-1.655 0.251v-3.008c0.704 0.085 1.228-0.174 1.655 0.2" fill="#e3ad40"/>
   <path id="g" d="m621.36 157.92c-0.336 0.864-0.693 1.873-1.103 2.908-0.388 0.978-0.954 1.987-1.053 2.958-0.042 0.41 0.093 0.708 0.151 0.952 0.103 0.44 0.599 0.746 1.103 0.953 1.208 0.497 3.162 0.323 3.86-0.602 0.681-0.902 0.648-2.63 1.103-3.86 0.245 0.167 0.206 0.517 0.251 0.752 0.052 0.272 0.102 0.545 0.15 0.802 0.189 1.019 0.366 1.898 0.953 2.507 0.808 0.839 3.177 1.004 4.311 0.15 0.344-0.258 0.691-0.666 0.752-1.203 0.103-0.905-0.521-1.974-0.852-2.757-0.75-1.777-1.24-3.373-2.005-5.164-0.262-0.612-0.609-1.199-1.003-1.705-0.134-0.172-0.24-0.399-0.351-0.501-0.035-0.032-0.189-0.051-0.251-0.101-0.372-0.294-0.877-0.659-1.353-0.902-0.747-0.154-1.731-0.403-2.758-0.251-0.177 0.027-0.406 0.097-0.601 0.151-1.424 0.387-3.014 1.784-2.257 3.86 0.179 0.489 0.619 0.702 0.953 1.053" fill="#e3ad40"/>
   <path id="h" d="m613.79 160.78c-0.351-0.357-0.424-0.952-0.552-1.504-0.38-1.646-0.517-3.922-1.504-5.064-0.938-1.086-3.488-1.639-4.813-0.551-1.421 1.167-1.339 4.699 0.903 4.963 0.316 3.309 1.179 6.067 3.86 7.019 2.08 0.739 5.122 0.129 6.167-1.103 0.933-1.1 1.151-2.842 1.304-4.913 0.105-1.431 0.272-2.856 0.15-4.161-0.032-0.341-0.142-0.774-0.251-1.003-0.729-1.537-3.491-1.878-4.763-0.652-1.418 1.368-0.262 4.699-0.501 6.969" fill="#661729"/>
   <path id="i" d="m639.26 161.78c0.194 0.161 0.247 0.469 0.301 0.702 0.225 0.978 0.315 2.028 0.952 2.657 1.055 1.041 3.639 0.929 4.713 0 1.332-1.151 1.624-4.466 1.955-6.718 0.13-0.882 0.343-1.71 0.402-2.457 0.069-0.885-0.099-1.673-0.452-2.105-0.689-0.846-2.156-1.24-3.409-0.702-1.035 0.443-1.494 1.445-1.755 2.707-0.405-0.889-0.39-2.013-1.053-2.557-0.716-0.588-2.344-0.564-3.058-0.05-0.811 0.584-0.828 1.951-1.153 2.908-0.466-1.166-0.674-2.448-1.705-2.958-1.1-0.545-2.625-0.211-3.309 0.501-0.93 0.97-0.583 2.511-0.3 4.212 0.402 2.419 0.762 5.773 2.055 7.119 0.819 0.852 2.86 1.2 4.212 0.451 0.326-0.181 0.765-0.663 0.952-1.053 0.346-0.719 0.374-1.703 0.652-2.657" fill="#7abd4a"/>
  </g>
 </g>
</svg>
