<?xml version="1.0" encoding="UTF-8"?>
<svg id="svg24" width="617.02pt" height="400.97pt" version="1.1" viewBox="0 0 617.02 400.97" xmlns="http://www.w3.org/2000/svg" xmlns:cc="http://creativecommons.org/ns#" xmlns:dc="http://purl.org/dc/elements/1.1/" xmlns:rdf="http://www.w3.org/1999/02/22-rdf-syntax-ns#">
 <metadata id="metadata30">
  <rdf:RDF>
   <cc:Work rdf:about="">
    <dc:format>image/svg+xml</dc:format>
    <dc:type rdf:resource="http://purl.org/dc/dcmitype/StillImage"/>
    <dc:title/>
   </cc:Work>
  </rdf:RDF>
 </metadata>
 <g id="#fc000bff" transform="translate(-171.49 -69.564)" fill="#fc000b">
  <path id="path11" d="m582.43 70.7c2.57-1.31 5.59-1.6 8.22-0.27 28.91 12.03 57.72 24.33 86.65 36.3 3.24 1.37 5.98 4.45 5.6 8.17 0.03 19.06 0.07 38.12-0.02 57.17 0.25 4.37-3.84 6.88-7.37 8.28-28.11 11.87-56.25 23.64-84.37 35.49-2.87 1.37-6.19 1.01-9.02-0.26-26.7-11.2-53.39-22.45-80.09-33.64-3.37-1.43-7.23-2.36-9.63-5.34-1.59-1.81-1.49-4.38-1.5-6.64 0.09-18.69-0.07-37.38 0.08-56.07-0.03-4.02 3.84-6.35 7.11-7.72 28.1-11.87 56.24-23.61 84.34-35.47"/>
  <path id="path13" d="m738.25 130.12c1.5-0.78 3.26-0.74 4.78 0.04 14.05 5.9 28.1 11.82 42.16 17.71 1.31 0.48 2.3 1.49 3.32 2.43-0.09 10.27 0.01 20.54-0.04 30.8 0.38 2.53-2.47 3.46-4.26 4.31-13.57 5.67-27.12 11.36-40.65 17.08-1.67 0.75-3.6 1.06-5.28 0.22-13.9-5.75-27.71-11.69-41.62-17.42-1.82-0.78-4.31-1.8-4.03-4.23-0.02-9.72-0.02-19.44 0.01-29.16-0.23-2.04 1.63-3.37 3.31-3.98 14.1-5.95 28.2-11.86 42.3-17.8z"/>
  <path id="path15" d="m371.4 153.68c5.48-2.76 11.9-1.9 17.21 0.78 58.2 24.52 116.43 48.94 174.64 73.44 6.39 2.55 13.27 4.56 18.51 9.24 3.35 2.97 5.3 7.39 5.05 11.88 0 41.66 0.01 83.31 0 124.97 0.09 3.67-1.1 7.42-3.71 10.07-4.48 4.74-10.72 7.07-16.59 9.56-59.88 25.19-119.77 50.34-179.65 75.52-6.02 2.59-12.89 1.23-18.68-1.3-58.19-24.43-116.35-48.93-174.55-73.35-6.44-2.5-13.44-4.68-18.33-9.85-2.47-2.55-4.03-6.03-3.79-9.62 0.06-43.01-0.06-86.02 0.06-129.03 1.02-7.93 9.03-11.85 15.54-14.8 61.4-25.9 122.88-51.64 184.29-77.51"/>
  <path id="path17" d="m679.5 196.68c1.85-0.8 4.01-0.77 5.85 0.07 21.59 9.07 43.17 18.19 64.79 27.2 1.95 0.98 4.2 2.61 4.13 5.06 0.05 14.68 0.01 29.37 0.02 44.05 0.36 3.13-2.66 4.96-5.13 6.01-21.11 8.93-42.27 17.76-63.39 26.67-2.35 1.26-5.07 0.84-7.38-0.22-21.31-8.96-42.6-17.97-63.94-26.84-2.27-0.93-4.31-3.06-4.07-5.67-0.01-14.64-0.06-29.28 0.02-43.92-0.02-2.85 2.78-4.46 5.08-5.46 21.32-9.02 42.69-17.95 64.02-26.95z"/>
 </g>
 <g id="#ffffffff" transform="translate(-171.49 -69.564)" fill="#fff">
  <path id="path2" d="m562.26 106.24c5.93-1.88 12.47-0.22 17.53 3.18l-6.57 11.78c-4.73-2.85-10.95-3.75-15.82-0.72-6.67 3.76-8.98 11.68-10.88 18.59l-7.85 43.505h-12.72l13.14-75.54h11.66l-1.73 10.885c3.51-4.72 7.42-9.78 13.24-11.68z"/>
  <path id="path4" d="m595.97 107.04h12.92c-2.47 14.28-5.04 28.525-7.52 42.805-0.65 4.04-1.41 8.1-1.44 12.21 0.03 4.66 3.27 9.02 7.8 10.21 6.64 1.74 13.87-0.19 19.3-4.23 6.15-4.42 8.42-12.09 9.79-19.17 2.48-13.92 4.96-27.885 7.36-41.825h12.85l-13.3 75.545h-11.45l1.9-10.96c-5.52 6.09-12.77 11.03-21.07 12.08-7.89 1.06-16.8-0.29-22.6-6.17-4.72-5.28-4.41-13-3.42-19.57 2.82-16.98 5.98-33.955 8.88-50.925z"/>
  <path id="path6" d="m275.31 365 46.478-107.55h27.39l4.9 54.385 25.87-54.385 27.425-2.5e-4v107.55h-27.535v-44.03l-19.02 44.03-39.05 2.5e-4v-44.03l-19.46 44.03z"/>
  <path id="path8" d="m425.48 257.46 65.495-2.5e-4c8.48 0.07 17.45 0.96525 24.68 5.8152 7.6 4.8 12.57 13.65 12.21 22.71 0.11 8.82-5.09 17.31-12.9 21.37 6 2.35 11.97 5.9 15.04 11.8 4.15 7.62 4.07 17.01 1.16 25.04-3.1 8.5-10.42 15.01-18.83 18.06-6.45 2.52-13.47 3.11-20.33 2.94h-66.525v-107.74m27.375 23.825v17.2h40c4.33-0.04 7.88-4.25 7.56-8.5 0.41-4.6-3.1727-8.7-8.3-8.7h-39.26m0 40.605v19.315h43.15c3.21 0.19 6.55-1.13 8.36-3.87 3.86-5.47 0.89-14.895-6.31-15.445z"/>
 </g>
 <path id="path6-0" d="m53.474 187.89h72.145v23.775h-22.005v83.775l-28.235 2.5e-4v-83.775h-21.905z" fill="#fff"/>
</svg>
