<?xml version="1.0" encoding="UTF-8"?>
<svg id="Слой_1" data-name="Слой 1" version="1.1" viewBox="0 0 270 62.7" xmlns="http://www.w3.org/2000/svg" xmlns:cc="http://creativecommons.org/ns#" xmlns:dc="http://purl.org/dc/elements/1.1/" xmlns:rdf="http://www.w3.org/1999/02/22-rdf-syntax-ns#">
 <metadata id="metadata29">
  <rdf:RDF>
   <cc:Work rdf:about="">
    <dc:format>image/svg+xml</dc:format>
    <dc:type rdf:resource="http://purl.org/dc/dcmitype/StillImage"/>
    <dc:title>logo</dc:title>
   </cc:Work>
  </rdf:RDF>
 </metadata>
 <g id="g24" fill="#00f">
  <path id="path8" class="cls-1" transform="translate(-255.6 -469.05)" d="m512.18 514.13a28.36 28.36 0 0 1-8 0.52 20.71 20.71 0 0 1-9.56-2.69c-4.53-2.75-6.67-7-7-12.13s-0.25-10.16-0.16-15.24a16.31 16.31 0 0 1 2.59-8.88c2.7-4.1 6.76-5.94 11.43-6.33a72.26 72.26 0 0 1 10.3 0 34.6 34.6 0 0 1 10.68 2.33c2.06 0.79 3.23 2.12 3.1 4.41v51.52c0 0.54 0 1.08-0.06 1.61-0.14 1.74-0.78 2.39-2.5 2.42h-7.39c-1.78 0-2.47-0.67-2.53-2.48-0.09-2.81-0.06-5.62-0.07-8.43v-6.74a6.29 6.29 0 0 0-0.83 0.11zm0.86-12v-20c0-0.92-0.3-1.3-1.18-1.42a22.35 22.35 0 0 0-7.16-0.19 5.23 5.23 0 0 0-4.67 4.95c-0.19 2.64-0.11 5.3-0.12 8a42 42 0 0 0 0.1 4.35c0.35 3.53 2.27 5.47 5.81 5.65 2.35 0.12 4.71-0.09 7.15-0.16 0.03-0.64 0.03-0.92 0.03-1.19z"/>
  <path id="path10" class="cls-1" transform="translate(-255.6 -469.05)" d="m426.29 486.38a2.15 2.15 0 0 0-0.3 0.44c-1.48 5.2-4.36 9.7-7 14.31-0.41 0.71-0.82 1.42-1.24 2.13a2.88 2.88 0 0 1-2.66 1.51h-4.09a3.26 3.26 0 0 1-3-1.75c-3-5.23-6.3-10.29-7.95-16.17a4.64 4.64 0 0 0-0.23-0.44l-0.23 0.06a7.19 7.19 0 0 0 0.13 0.83c2.16 7.72 2.1 15.61 1.93 23.51 0 1.92-0.84 2.65-2.79 2.68s-3.92 0-5.88 0-2.66-0.68-2.67-2.71q0-12.84 0-25.69v-11.57c0-2.38 0.71-3.13 3.08-3.2 1.87-0.05 3.73 0 5.6 0a4 4 0 0 1 3.82 2.29c1.54 2.9 3.16 5.76 4.74 8.63l5.48 10c0.25-0.44 0.44-0.75 0.61-1.07 3.15-5.75 6.34-11.49 9.43-17.27a4.36 4.36 0 0 1 4.32-2.59h5.5c2.25 0.06 2.95 0.74 3 3v37.92c-0.1 1.4-0.7 2.16-2.09 2.21-2.4 0.09-4.81 0.09-7.21 0-1.44-0.05-2.09-0.77-2.13-2.26-0.17-8.05-0.44-16.11 2-24a4.84 4.84 0 0 0 0.13-0.64s-0.21-0.05-0.3-0.16z"/>
  <path id="path12" class="cls-1" transform="translate(-255.6 -469.05)" d="M468.23,495.83H446.8a13.33,13.33,0,0,1-1.79-.1c-2.09-.26-3.18-1.28-3.28-3.36a65.56,65.56,0,0,1,0-7c.42-7.07,3.87-12.08,10.52-14.68,4.83-1.89,9.87-1.93,14.92-1.13,8.25,1.3,13.49,6.74,14.19,15,.3,3.58.21,7.19.2,10.79a33.25,33.25,0,0,1-.41,5.56c-1.16,6.39-4.75,10.8-11.06,12.65a30.4,30.4,0,0,1-19.51-.69,13.58,13.58,0,0,1-7.38-6.35c-1-1.82-.59-3.13,1.21-4.13s3.4-1.8,5.14-2.62c1.58-.74,2.53-.48,3.69.83a14.11,14.11,0,0,0,2,2c2.49,1.85,5.36,2.05,8.31,1.67a6.31,6.31,0,0,0,3.87-1.79c1.8-1.89,1.69-4.23,1.64-6.61C468.72,495.86,468.47,495.83,468.23,495.83Zm.69-9.11c.66-4.15-1.46-6.75-4.66-7.39a12.3,12.3,0,0,0-5.63.08,5.35,5.35,0,0,0-4.23,4.66c-.12.84-.11,1.69-.18,2.65Z"/>
  <path id="path14" class="cls-1" transform="translate(-255.6 -469.05)" d="m383.18 492c-0.09 2.75 0 5.51-0.32 8.23-0.76 6.82-4.53 11.32-11.09 13.27a28.28 28.28 0 0 1-17.95-0.35c-6.35-2.27-9.72-7-10.14-13.62a134.33 134.33 0 0 1 0-15.15c0.38-7.64 5.58-13.27 13.2-14.7a31.27 31.27 0 0 1 14.89 0.54 15 15 0 0 1 11.13 13.37c0.23 2.82 0.19 5.64 0.28 8.41zm-27.11-0.17h0.05c0 2.17-0.09 4.36 0 6.53a4.88 4.88 0 0 0 3.22 4.5 11 11 0 0 0 6.69 0.39 5.28 5.28 0 0 0 4.44-5.15c0.09-4.16 0.1-8.33 0-12.5a5 5 0 0 0-3.56-4.85 11.58 11.58 0 0 0-5.78-0.39c-3.1 0.48-5 2.38-5.07 5.79 0 1.92 0.01 3.85 0.01 5.71z"/>
  <path id="path16" class="cls-1" transform="translate(-255.6 -469.05)" d="m323.89 485.76v-12.39c0-2.28 0.72-3 3-3.06s4.42 0 6.64 0 2.88 0.81 2.88 3q0 18.62 0 37.24c0 2.21-0.76 3-3 3s-4.49 0-6.73 0c-2 0-2.79-0.81-2.8-2.85v-13.3h-12.88v12.94c0 2.4-0.73 3.12-3.1 3.14h-6.54s-2.87-0.78-2.87-2.88q0-18.71 0-37.43c0-2.05 0.74-2.81 2.8-2.86 2.31-0.05 4.61-0.05 6.92 0 2 0 2.78 0.82 2.79 2.86v12.58z"/>
  <path id="path18" class="cls-1" transform="translate(-255.6 -469.05)" d="m268.13 481.67h-10.19a2.12 2.12 0 0 1-2.31-2.32q-0.07-3.26 0-6.53a2.17 2.17 0 0 1 2.21-2.44 11.23 11.23 0 0 1 1.42-0.05h30.42c3 0 3.62 0.62 3.61 3.6 0 1.8 0 3.6-0.06 5.4-0.08 1.64-0.81 2.32-2.47 2.35h-10.03v28c0 3.28-0.53 3.81-3.77 3.81h-5.78c-2.26 0-3-0.77-3-3q0-13.79 0-27.57z"/>
 </g>
</svg>
