<svg id="a" width="211.67mm" height="210.24mm" version="1.1" viewBox="0 0 211.67 210.24" xmlns="http://www.w3.org/2000/svg">
 <g id="b">
  <path id="c" d="m0 0h211.67v210.24h-211.67z" fill="#27974d"/>
  <path id="d" d="m0 0h139.34v210.24h-139.34z" fill="#2ab04c"/>
  <path id="e" d="m0 0h69.699v210.24h-69.699z" fill="#40ba47"/>
 </g>
 <path id="f" d="m32.252 126.93v-76.707h-21.311v-18.078h72.752v18.078h-27.807v76.707z" fill="#fff" stroke-width="6.1806"/>
 <g id="g" transform="matrix(.30468 0 0 .30468 -.25671 -1.3423)" fill="#fff">
  <path id="h" d="m57.56 529.93 66.02 0.13-0.05 81.75h-16.77l-0.1-68.17-32.25 0.01-0.09 68.16h-16.77z"/>
  <path id="i" d="m153.24 529.97 58.12-0.04 0.01 81.87-16.74 0.03-0.14-68.07-24.82 0.05-0.33 49.12c-0.23 6.05-1.11 13.2-6.66 16.82-6.64 3.89-14.7 2.3-21.98 2l-0.01-12.8c3.63-0.13 7.71 0.65 10.94-1.43 1.61-1.72 1.54-4.29 1.67-6.48z"/>
  <path id="j" d="m259.16 529.96 17.72-0.01 33.21 81.85h-18.23l-7.22-18.58-33.2 0.01-6.78 18.56-17.81 0.01 32.31-81.84m8.63 19.16-11.16 30.3h22.62z"/>
  <path id="k" d="m325.7 529.95h16.77l0.11 32.26 32.69-0.06-0.02-32.14 16.76-0.06v81.85h-16.74v-35.79l-32.84 0.06v35.76l-16.73-0.03z"/>
  <path id="l" d="m416.03 529.95 61.46 0.06-0.04 13.76-44.68 0.04v18.13l41.59 0.07 0.02 13.58-41.61 0.14v22.27h46.23l-0.01 13.76-62.96 0.05z"/>
  <path id="m" d="m494.06 530h65.88l-0.01 13.75-24.47-0.04-0.11 68.05-16.65-0.02-0.14-68.05-24.49 0.06z"/>
  <path id="n" d="m594.11 530 17.61 0.01 33.14 81.72-18.08 0.03-7.2-18.58-33.31-0.06-6.78 18.58-17.63 0.06 32.25-81.76m8.43 19.08-11.14 30.42h22.78z"/>
 </g>
 <path id="o" d="m130.94 32.149c13.494 0.01212 26.99 0.0091 40.484 0.01515 5.5062 0.03939 11.134 0.93943 16.034 3.5517 4.7318 2.5152 8.7411 6.6245 10.516 11.719 1.5153 4.3547 1.5488 9.1549 0.44513 13.61-1.4909 5.8639-5.6526 10.916-10.942 13.834-1.9574 1.1-4.1068 1.794-6.2654 2.3789 5.7471 1.4849 11.308 4.4153 15.04 9.1064 2.9269 3.6304 4.3995 8.2609 4.6099 12.873 0.29878 5.3093-0.69514 10.828-3.6068 15.361-3.5824 5.6305-9.6039 9.4125-16.019 11.079-5.4727 1.5182-11.202 1.4273-16.83 1.391-11.156-6e-3 -22.31 6e-3 -33.466 0.0121v-94.931m24.153 37.604c3.0153-0.01211 6.0229 0.03636 9.0382-0.02727 3.0458-0.11212 6.3325-0.92731 8.4179-3.2941 2.1586-2.3092 2.8111-5.6426 2.4391-8.6973-0.21037-2.3758-1.0305-4.8366-2.8812-6.4487-1.933-1.7001-4.5977-2.2061-7.0947-2.3486-3.3019-0.08485-6.6205-3e-3 -9.9194-0.04546v20.861m0 39.771c2.8019 0.0364 5.5872 3e-3 8.3891 0.0182 2.4848 0.0121 5.0489-0.3485 7.2441-1.5788 2.1678-1.1667 3.7989-3.2092 4.5367-5.5396 0.80795-2.591 0.936-5.3881 0.40854-8.0488-0.52135-2.6334-1.994-5.1335-4.2501-6.6548-2.2226-1.5061-4.9818-1.988-7.6252-1.9607-2.9056 0.0091-5.8006 0-8.7031 3e-3v23.762z" fill="#fff" stroke-width=".30396"/>
 <path id="p" d="m84.305 88.535h19.024v38.4h23.641v-94.786h-23.641v37.164h-19.024v-14.29h-23.628v71.911h23.628z" fill="#fff" stroke-width="6.1806"/>
</svg>
