<svg width="211.67mm" height="210.24mm" version="1.1" viewBox="0 0 211.67 210.24" xmlns="http://www.w3.org/2000/svg">
 <path d="m0 0h211.67v210.24h-211.67z" fill="#27974d"/>
 <path d="m0 0h139.34v210.24h-139.34z" fill="#2ab04c"/>
 <path d="m0 0h69.699v210.24h-69.699z" fill="#40ba47"/>
 <g transform="matrix(6.1806 0 0 -6.1806 33.044 165.12)">
  <path d="m0 0h-1.009v-3.242h-0.832v3.242h-1.009v0.776h2.85zm26.264-3.242h-0.833v1.77h-1.229v-1.77h-0.832v4.018h0.832v-1.469h1.229v1.469h0.833zm-3.359 0h-0.861l-0.223 0.811h-1.198l-0.222-0.811h-0.84l1.193 4.018h0.959zm-1.285 1.549-0.398 1.441-0.396-1.441zm-2.2 1.693h-1.008v-3.242h-0.833v3.242h-1.008v0.776h2.849zm-4.282-3.321c-0.24 0-0.46 0.045-0.664 0.133-0.203 0.087-0.377 0.218-0.523 0.393-0.146 0.176-0.26 0.393-0.34 0.654s-0.119 0.563-0.119 0.905c0 0.316 0.038 0.607 0.114 0.866 0.077 0.259 0.188 0.481 0.334 0.667 0.141 0.178 0.313 0.315 0.521 0.412 0.207 0.099 0.434 0.146 0.68 0.146 0.136 0 0.259-0.01 0.368-0.029 0.109-0.018 0.209-0.043 0.303-0.073 0.096-0.034 0.185-0.073 0.263-0.115l0.206-0.117v-0.975h-0.095l-0.152 0.153-0.21 0.177c-0.078 0.057-0.165 0.105-0.258 0.145-0.094 0.039-0.191 0.059-0.297 0.059-0.117 0-0.228-0.022-0.334-0.068-0.105-0.047-0.202-0.123-0.293-0.229-0.085-0.101-0.154-0.239-0.207-0.407-0.053-0.169-0.078-0.374-0.078-0.615 0-0.252 0.027-0.462 0.084-0.632 0.058-0.169 0.129-0.303 0.217-0.399 0.088-0.099 0.186-0.169 0.295-0.212 0.108-0.043 0.214-0.065 0.32-0.065 0.102 0 0.202 0.02 0.301 0.057 0.099 0.039 0.19 0.09 0.273 0.154l0.198 0.168 0.15 0.153h0.086v-0.961l-0.231-0.126-0.232-0.103c-0.106-0.037-0.205-0.066-0.297-0.087-0.093-0.019-0.22-0.029-0.383-0.029m-2.048 2.829c0-0.181-0.026-0.357-0.076-0.528-0.051-0.171-0.122-0.316-0.217-0.433-0.129-0.158-0.272-0.277-0.43-0.359-0.158-0.081-0.356-0.122-0.592-0.122h-0.517v-1.308h-0.833v4.018h1.37c0.206 0 0.379-0.021 0.519-0.066 0.141-0.043 0.266-0.109 0.375-0.197 0.129-0.108 0.228-0.243 0.298-0.408 0.069-0.166 0.103-0.365 0.103-0.597m-0.862-0.024c0 0.113-0.024 0.211-0.072 0.293l-0.172 0.17-0.255 0.074c-0.082 2e-3 -0.19 5e-3 -0.329 5e-3h-0.142v-1.204h0.238c0.142 0 0.258 0.012 0.35 0.032 0.092 0.022 0.17 0.066 0.232 0.13l0.115 0.207c0.024 0.08 0.035 0.177 0.035 0.293m-2.267-2.726h-0.861l-0.224 0.811h-1.197l-0.223-0.811h-0.839l1.193 4.018h0.959zm-1.286 1.549-0.398 1.441-0.396-1.441zm-2.199 1.693h-1.009v-3.242h-0.833v3.242h-1.008v0.776h2.85zm-2.991-3.242h-0.862l-0.222 0.811h-1.197l-0.224-0.811h-0.839l1.193 4.018h0.958zm-1.286 1.549-0.397 1.441-0.397-1.441z" fill="#fff"/>
 </g>
 <g transform="translate(1.7576e-6 5.9843e-6)" fill="#fff">
  <path d="m32.252 126.93v-76.707h-21.311v-18.078h72.752v18.078h-27.807v76.707z" stroke-width="6.1806"/>
  <path d="m130.94 32.149c13.494 0.01212 26.99 0.0091 40.484 0.01515 5.5062 0.03939 11.134 0.93943 16.034 3.5517 4.7318 2.5152 8.7411 6.6245 10.516 11.719 1.5153 4.3547 1.5488 9.1549 0.44513 13.61-1.4909 5.8639-5.6526 10.916-10.942 13.834-1.9574 1.1-4.1068 1.794-6.2654 2.3789 5.7471 1.4849 11.308 4.4153 15.04 9.1064 2.9269 3.6304 4.3995 8.2609 4.6099 12.873 0.29878 5.3093-0.69514 10.828-3.6068 15.361-3.5824 5.6305-9.6039 9.4125-16.019 11.079-5.4727 1.5182-11.202 1.4273-16.83 1.391-11.156-6e-3 -22.31 6e-3 -33.466 0.0121v-94.931m24.153 37.604c3.0153-0.01211 6.0229 0.03636 9.0382-0.02727 3.0458-0.11212 6.3325-0.92731 8.4179-3.2941 2.1586-2.3092 2.8111-5.6426 2.4391-8.6973-0.21037-2.3758-1.0305-4.8366-2.8812-6.4487-1.933-1.7001-4.5977-2.2061-7.0947-2.3486-3.3019-0.08485-6.6205-3e-3 -9.9194-0.04546v20.861m0 39.771c2.8019 0.0364 5.5872 3e-3 8.3891 0.0182 2.4848 0.0121 5.0489-0.3485 7.2441-1.5788 2.1678-1.1667 3.7989-3.2092 4.5367-5.5396 0.80795-2.591 0.936-5.3881 0.40854-8.0488-0.52135-2.6334-1.994-5.1335-4.2501-6.6548-2.2226-1.5061-4.9818-1.988-7.6252-1.9607-2.9056 0.0091-5.8006 0-8.7031 3e-3v23.762z" stroke-width=".30396"/>
  <path d="m84.305 88.535h19.024v38.4h23.641v-94.786h-23.641v37.164h-19.024v-14.29h-23.628v71.911h23.628z" stroke-width="6.1806"/>
 </g>
</svg>
