<svg id="a" enable-background="new 0 0 595.28 841.89" version="1.1" viewBox="0 0 513.45 470.29" xml:space="preserve" xmlns="http://www.w3.org/2000/svg"><g id="b" transform="translate(-44.373 -164.89)"><g id="c" fill="#d3d2d5"><path id="d" d="m391.25 498.03c-91.995 0-166.57-74.576-166.57-166.57s74.577-166.57 166.57-166.57c91.994 0 166.57 74.577 166.57 166.57 0 91.995-74.577 166.57-166.57 166.57z"/><circle id="e" cx="391.25" cy="331.46" r="166.57"/></g><path id="f" d="m170.42 196.54c25.936-3.608 51.056-19.789 76.682-27.707-11.641-2.577-23.736-3.947-36.153-3.947-30.712 0-59.477 8.321-84.18 22.819 11.868 8.875 27.863 11.033 43.651 8.835z" fill="#2a3b8e"/><g id="g"><path id="h" d="m367.02 273.16c-17.429 13.008-43.829 18.151-61.723 17.167-37.6-2.069-105.51-70.463-149.22-78.65-27.281-5.109-53.281 1.404-71.315 12.014-1.107 0.652-2.086 1.505-2.899 2.5-13.746 16.835-24.259 36.409-30.605 57.778 32.873-45.313 77.329-27.063 121.58 5.146 70.154 51.061 139.62 98.73 197.87 73.208 2.734-1.198 4.631-3.765 5.061-6.72 1.146-7.883 1.743-15.943 1.743-24.144 0-20.511-3.716-40.153-10.497-58.299z" fill="#c40006"/></g><g id="i"><path id="j" d="m55.901 389.49c-0.538 0.259-0.795 0.897-0.582 1.455 6.353 16.611 15.284 31.946 26.311 45.51 0.255 0.313 0.658 0.465 1.057 0.404 39.955-5.998 79.814 30.14 119.31 60.729 0.187 0.145 0.412 0.228 0.647 0.239 2.749 0.135 5.515 0.204 8.297 0.204 33.221 0 64.163-9.733 90.147-26.492-2.984-1.926-5.902-3.946-8.752-6.054-120.93-4.105-147.97-118.57-236.44-75.995z" fill="#6fa9de"/></g><g id="k"><path id="l" d="m136.46 435.5c-16.137-1.402-41.847-6.578-66.695-15.623 29.46 46.938 81.67 78.149 141.18 78.149 4.737 0 9.424-0.208 14.06-0.596 37.13-28.852 74.564-62.152 112.11-60.337 1.598 0.077 3.143-0.62 4.14-1.871 11.106-13.93 20.02-29.685 26.232-46.737 0.439-1.204 0.064-2.562-0.917-3.386-42.685-35.821-153.97 57.064-230.1 50.401z" fill="#2a3b8e"/></g><g id="m"><path id="n" d="m253.72 289.75c41.034-29.874 82.251-47.713 114.24-14.007-12.503-35.233-36.523-65.006-67.539-84.797-2.818-1.799-6.109-2.743-9.452-2.675-10.816 0.22-22.871 1.505-36.39 3.993-63.286 11.641-123.6 65.236-173.51 34.903-22.953 28.547-36.697 64.811-36.697 104.29 0 8.595 0.661 17.035 1.917 25.279 0.14 0.917 0.693 1.727 1.5 2.185 59.841 33.976 132.5-15.725 205.93-69.172z" fill="#6fa9de"/></g></g><path id="o" d="m73.679 394.56c2.79 2.97 3.96 6.569 3.96 11.069 0 11.25-7.56 18.359-19.619 18.359h-26.819v-64.077h25.739c12.06 0 19.799 6.84 19.799 17.639 0 6.12-2.61 10.62-7.919 13.59 2.519 1.35 3.509 2.071 4.859 3.42zm-17.729-8.729c5.13 0 8.28-2.79 8.28-7.38s-3.15-7.38-8.28-7.38h-12.24v14.76zm0.81 26.999c5.129 0 8.37-3.061 8.37-7.92 0-4.86-3.24-7.83-8.37-7.83h-13.05v15.75z" fill="#fff"/><path id="p" d="m128.73 423.99v-37.349l-12.239 24.299h-8.46l-12.33-24.299v37.349h-12.509v-64.077h12.33l16.739 34.648 16.649-34.648h12.33v64.077z" fill="#fff"/><path id="q" d="m147.08 423.99v-64.077h42.208v11.159h-29.699v15.029h25.289v11.16h-25.289v15.569h29.699v11.159h-42.208z" fill="#fff"/><path id="r" d="m217.44 424.53c-7.02 0-12.779-2.52-17.279-7.02-6.479-6.48-6.3-14.489-6.3-25.56 0-11.069-0.18-19.079 6.3-25.559 4.5-4.5 10.26-7.02 17.279-7.02 11.97 0 21.329 6.84 23.579 20.249h-12.689c-1.26-5.13-4.5-9.09-10.799-9.09-3.42 0-6.21 1.26-8.01 3.33-2.43 2.7-3.15 5.76-3.15 18.089 0 12.33 0.72 15.39 3.15 18.09 1.8 2.069 4.59 3.33 8.01 3.33 6.3 0 9.54-3.96 10.799-9.09h12.689c-2.249 13.411-11.699 20.251-23.579 20.251z" fill="#fff"/><path id="s" d="m270.98 371.07v52.918h-12.51v-52.918h-16.739v-11.159h45.989v11.159z" fill="#fff"/><path id="t" d="m291.52 423.99v-64.077h42.207v11.159h-29.698v15.029h25.289v11.16h-25.289v15.569h29.698v11.159h-42.207z" fill="#fff"/><path id="u" d="m335.35 397.24v-11.136h27.72v11.136z" fill="#fff"/><path id="v" d="m393.94 359.91c12.33 0 21.149 8.279 21.149 19.979s-8.729 19.979-21.149 19.979h-12.33v24.119h-12.509v-64.077zm-0.629 28.709c5.579 0 9.27-3.42 9.27-8.73s-3.69-8.819-9.27-8.819h-11.7v17.55h11.7z" fill="#fff"/><path id="w" d="m444.01 424.44v-7.65c-18.72-0.989-26.369-10.619-26.369-27.269 0-16.56 8.729-25.199 26.369-26.278v-6.391h12.419v6.391c17.729 1.079 26.368 9.719 26.368 26.278 0 16.649-7.559 26.279-26.368 27.269v7.65zm0.18-50.488c-10.35 0.45-14.039 5.58-14.039 16.109 0 10.17 3.869 15.659 14.039 16.289zm12.148 32.398c10.17-0.63 14.04-6.119 14.04-16.289 0-10.529-3.69-15.659-14.04-16.109z" fill="#fff"/><g id="x" transform="translate(-44.373 -164.89)" fill="#fff"><path id="y" d="m82.135 618.88v12.933h-2.271v-12.933h-4.121v-2.039h10.514v2.039z"/><path id="z" d="m93.514 631.81v-14.972h9.589v2.039h-7.318v4.374h6.224v2.019h-6.224v4.501h7.318v2.039z"/><path id="aa" d="m119.57 631.81v-12.933h-4.311v4.731c0 6.287-1.514 8.201-4.521 8.201h-0.946v-2.039h0.399c1.661 0 2.86-1.053 2.86-6.477v-6.456h8.789v14.972h-2.27z"/><path id="ab" d="m130.15 631.81v-14.972h9.588v2.039h-7.317v4.374h6.224v2.019h-6.224v4.501h7.317v2.039z"/><path id="ac" d="m147.28 631.81v-14.972h2.271v7.107l5.593-7.107h2.796l-5.761 7.065 6.287 7.906h-2.881l-6.035-7.822v7.822h-2.27z"/><path id="ad" d="m174.91 631.81-1.051-3.008h-5.909l-1.051 3.008h-2.397l5.488-14.972h1.829l5.467 14.972zm-3.953-11.586-2.355 6.645h4.647z"/><path id="ae" d="m192.66 631.81v-6.54h-6.056v6.54h-2.271v-14.972h2.271v6.413h6.056v-6.413h2.292v14.972z"/><path id="af" d="m212.39 631.81-1.051-3.008h-5.909l-1.051 3.008h-2.397l5.488-14.972h1.83l5.467 14.972zm-3.953-11.586-2.355 6.645h4.647z"/><path id="ag" d="m230.78 631.81v-12.933h-4.311v4.731c0 6.287-1.514 8.201-4.521 8.201h-0.946v-2.039h0.4c1.661 0 2.859-1.053 2.859-6.477v-6.456h8.79v14.972h-2.271z"/><path id="ah" d="m256.2 631.94c-1.556 0-2.902-0.567-3.932-1.598-1.472-1.472-1.451-3.134-1.451-6.014 0-2.881-0.021-4.542 1.451-6.015 1.03-1.03 2.376-1.598 3.932-1.598 2.754 0 4.815 1.619 5.341 4.604h-2.313c-0.357-1.514-1.367-2.564-3.028-2.564-0.883 0-1.682 0.337-2.208 0.904-0.736 0.799-0.904 1.66-0.904 4.668 0 3.007 0.168 3.868 0.904 4.668 0.526 0.567 1.325 0.903 2.208 0.903 1.661 0 2.691-1.051 3.049-2.564h2.292c-0.505 2.987-2.629 4.606-5.341 4.606z"/><path id="ai" d="m279.5 624.54c0 2.461-0.021 4.332-1.451 5.804-1.03 1.051-2.376 1.598-3.953 1.598-1.556 0-2.902-0.547-3.932-1.598-1.43-1.452-1.451-3.491-1.451-5.72v-0.988c0-2.46 0.189-4.059 1.451-5.32 1.03-1.03 2.397-1.598 3.932-1.598 1.556 0 2.923 0.567 3.953 1.598 1.156 1.178 1.451 2.839 1.451 4.963zm-3.174-4.856c-0.589-0.61-1.367-0.926-2.229-0.926-0.841 0-1.64 0.315-2.229 0.926-0.841 0.882-0.862 2.354-0.862 4.268v1.283c0 1.534 0.063 2.943 0.862 3.742 0.61 0.61 1.367 0.925 2.229 0.925 0.883 0 1.661-0.314 2.229-0.925 0.883-0.926 0.883-2.25 0.883-4.795-1e-3 -2.271-0.043-3.617-0.883-4.498z"/><path id="aj" d="m293.42 631.81h-6.056v-14.972h5.825c2.733 0 4.521 1.599 4.521 4.037 0 1.515-0.694 2.607-2.019 3.26 1.472 0.693 2.25 1.767 2.25 3.47 0 2.586-1.724 4.205-4.521 4.205zm-0.42-12.932h-3.364v4.29h3.364c1.514 0 2.439-0.798 2.439-2.144s-0.925-2.146-2.439-2.146zm0.189 6.33h-3.554v4.563h3.554c1.514 0 2.46-0.885 2.46-2.293 0-1.387-0.946-2.27-2.46-2.27z"/><path id="ak" d="m305.7 631.81v-14.972h9.589v2.039h-7.317v4.374h6.224v2.019h-6.224v4.501h7.317v2.039z"/><path id="al" d="m328.53 618.88v12.933h-2.271v-12.933h-4.121v-2.039h10.514v2.039z"/><path id="am" d="m347.34 631.81-1.05-3.008h-5.909l-1.052 3.008h-2.396l5.488-14.972h1.829l5.467 14.972zm-3.953-11.586-2.354 6.645h4.647z"/><path id="an" d="m371.52 631.92v-1.871c-4.395-0.188-6.182-2.375-6.182-6.287 0-3.869 1.956-5.888 6.182-6.097v-1.452h2.271v1.452c4.227 0.209 6.183 2.228 6.183 6.097 0 3.912-1.788 6.099-6.183 6.287v1.871zm0-12.301c-2.986 0.105-3.911 1.557-3.911 4.248 0 2.649 0.987 4.143 3.911 4.268zm2.271 8.516c2.924-0.125 3.911-1.618 3.911-4.268 0-2.691-0.925-4.143-3.911-4.248z"/><path id="ao" d="m387.46 631.81v-14.972h9.589v2.039h-7.318v4.374h6.225v2.019h-6.225v4.501h7.318v2.039z"/><path id="ap" d="m415.58 616.84v12.933h1.766v5.403h-2.229v-3.364h-9.084v3.364h-2.208v-5.403h1.305c1.303-2.019 1.828-4.963 1.828-8.517v-4.416zm-6.435 5.383c0 2.86-0.358 5.447-1.472 7.55h5.635v-10.894h-4.163z"/><path id="aq" d="m424.66 631.81v-14.972h9.589v2.039h-7.317v4.374h6.224v2.019h-6.224v4.501h7.317v2.039z"/><path id="ar" d="m447.43 625.93h-3.405v5.888h-2.271v-14.972h5.677c2.839 0 4.794 1.851 4.794 4.542s-1.956 4.542-4.795 4.542zm-0.147-7.045h-3.259v5.006h3.259c1.64 0 2.67-0.969 2.67-2.503 0-1.556-1.03-2.503-2.67-2.503z"/><path id="as" d="m467.4 631.81-1.051-3.008h-5.908l-1.052 3.008h-2.397l5.489-14.972h1.828l5.468 14.972zm-3.953-11.586-2.355 6.645h4.647z"/><path id="at" d="m486.98 635.18v-3.364h-10.156v-14.972h2.271v12.933h6.056v-12.933h2.271v12.933h1.767v5.403z"/><path id="au" d="m505.26 631.81v-10.871l-6.707 10.871h-2.062v-14.972h2.271v10.851l6.688-10.851h2.081v14.972z"/><path id="av" d="m524.61 631.81v-10.871l-6.709 10.871h-2.06v-14.972h2.271v10.851l6.686-10.851h2.082v14.972z"/></g></svg>
