<svg version="1.1" viewBox="0 0 800 270.46" xml:space="preserve" xmlns="http://www.w3.org/2000/svg">
<g transform="matrix(2.3859 0 0 2.3859 -368.87 -374.7)" fill="#2eb4b5">
	<path d="m193 244.1c-0.6 0-1.2-0.2-1.7-0.6-1.2-1-1.5-2.7-0.5-4 10.5-13.7 15.5-48 9.3-64.5-0.8-2-2-3.7-3.6-5.1-13.1 3.8-31.7 6.4-38.8 1.2-2.1-1.5-3.1-3.6-3.1-6 0-1.9 0.8-3.6 2.3-4.9 4.1-3.6 12.6-3.5 21.2-2.7 4.4 0.4 12.9 1.7 19.5 6.1l1.8-0.6c13.3-4.8 33.7-7.6 47.2 0.1 1.4 0.8 1.8 2.5 1 3.9s-2.5 1.8-3.9 1c-10.7-6.2-28.3-4.5-41.4-0.1 1.2 1.5 2.2 3.2 2.9 5.1 7 18.5 1.8 54.5-10.1 69.9-0.4 0.8-1.3 1.2-2.1 1.2zm-23.4-81.3c-3.7 0-7.5 0.4-9 1.7-0.3 0.3-0.4 0.5-0.4 0.8s0 0.7 0.7 1.2c3.8 2.8 16.3 2.3 28.7-0.7-4.8-1.9-9.8-2.5-12-2.7-1.7 0-4.8-0.3-8-0.3z"/>
	<path d="m265 228.4c-0.5 0-0.9-0.1-1.4-0.4-1.4-0.8-1.9-2.5-1.1-3.9 0.1-0.2 13-23.9 7-36.8-0.4-0.5-1.1-1.1-1.9-1-1.6 0.1-3.5 2-5.1 5.1l-0.1 0.2c-1.9 3.1-4.1 5-6.1 6.2-0.2 3.4-0.8 6.9-1.8 10-3.3 10.4-10.1 16.9-18.6 17.7h-0.3c-7.7 0-13.6-3.4-16.8-9.7-4.7-9.3-2.1-22.4 2.9-29.2 3.2-4.3 7.3-6.3 11.5-5.6 1.5 0.3 2.6 1.7 2.3 3.3-0.3 1.5-1.7 2.6-3.3 2.3-2.6-0.4-4.7 1.6-6 3.4-4.1 5.5-6 16.2-2.4 23.3 2.2 4.3 6.1 6.5 11.6 6.6 8.6-0.9 12.4-9.9 13.6-13.8 0.7-2.2 1.2-4.4 1.4-6.5-1.2 0.1-2.2 0-2.9-0.2-4.6-0.8-8.5-4.2-9.3-8.2-0.7-3.4 0.7-6.7 4-8.9l0.4-0.2c4.7-2.2 7.9-0.4 9.3 0.9 2.1 1.8 3.3 4.7 3.9 8 0.6-0.6 1.1-1.4 1.7-2.2 3.4-6.7 7.5-8 9.7-8.1 2.8-0.2 5.4 1.1 7.1 3.6l0.2 0.4c7.6 15.5-6.5 41.2-7.1 42.3-0.4 0.9-1.4 1.4-2.4 1.4zm-19.8-41.2c-1.8 1.3-1.5 2.5-1.4 2.9 0.3 1.5 2.1 3.4 4.8 3.8 0.7 0.1 1.3 0.1 2 0.1-0.3-3.2-1.1-5.6-2.4-6.7-0.3-0.3-1.1-0.9-3-0.1z"/>
	<path d="m324.7 270.4c-5.8 0-12.2-4.2-12.4-11.6-0.1-5.9 3.4-12.1 9.7-17 3.9-3 11.5-7.6 24.2-10.1 0.3-2.8 0.5-5.7 0.6-8.7-3.8 2.4-8.2 3.7-12.9 3.6-5.1-0.1-9.4-2.4-12.4-6.6-0.1-0.2-0.2-0.3-0.3-0.5-4.5 4.3-10.8 6.5-14.6 6.5-7.2 0-13.8-4.1-16.2-10.2-0.6-1.5-1-3.2-1.2-5-1.9 0.5-3.8 0.8-5.7 0.9-2.3 0.1-17.8-0.9-18.9-8.7-0.2-1.6 0.9-3 2.4-3.2 1.6-0.2 3 0.9 3.2 2.4 0.2 1.6 8.5 4.1 13 3.8 2-0.1 3.9-0.4 5.9-1 0.1-1.8 0.3-3.5 0.5-5.1 1.5-10.4 4.2-16.5 8.4-18.5 3.6-1.7 6.1-0.6 7.3 0.2 2.2 1.5 3.4 4.5 3.1 8-0.7 9.2-6.5 15.8-13.7 19.2 0.1 2 0.4 3.6 0.9 4.9 1.6 3.9 6.1 6.7 11 6.7 3.1 0 8.8-2.4 12-6.4-2.6-7.8-1.9-17.6 0.5-24.7 0.9-2.7 3.6-8.9 8.7-9.1 2.6-0.1 4.8 0.9 6 2.8 4 6-2 19.2-2.1 19.3-1.9 4-4.5 8.5-6.8 12.4 0.4 0.8 0.8 1.5 1.2 2.1 2 2.8 4.5 4.2 7.8 4.2h0.3c5.1 0 9.2-2 12.4-4.9 0-0.6-0.1-1.2-0.1-1.9-1.1-7.9-0.8-26 5.1-32.1 2.1-2.2 4.3-2.4 5.9-2.3 1.7 0.2 3.2 1 4.2 2.5 2.6 3.5 1.8 9.5 1.2 12.8-2 9.9-5.6 17.7-10.5 23.1 0.1 4.3 0 8.4-0.4 12.5 14.3-1.8 34-0.9 60.5 6.5 1.5 0.4 2.4 2 2 3.5s-2 2.4-3.5 2c-26.7-7.4-46.2-8-59.8-6-1.9 10.8-5.9 20.3-11.4 26.3-4.4 4.6-9.6 7.4-15.1 7.4zm20.5-32.7c-10.9 2.4-17 6.3-19.7 8.4-4.9 3.8-7.6 8.3-7.5 12.3 0.1 4.3 4.2 6 6.8 6 3.9 0 7.6-1.9 10.9-5.5 4.4-4.9 7.7-12.4 9.5-21.2zm11.6-52.3c-0.2 0-0.5 0.1-1 0.6-3.1 3.2-4.5 14.5-4 23.5 3.4-5.9 5-12.4 5.6-15.5 0.9-4.4 0.5-7.4-0.2-8.4-0.1-0.2-0.2-0.2-0.3-0.2h-0.1zm-28.5 0.3h-0.2c-0.9 0-2.6 2.2-3.6 5.3-1.7 5.1-2.3 10.8-1.6 15.9 1.4-2.4 2.7-4.9 3.8-7.2 1.9-4.2 3.9-11.8 2.5-13.8-0.1 0-0.2-0.2-0.9-0.2zm-26.5 0.4c-0.3 0-0.8 0.1-1.3 0.4-0.8 0.4-3.6 2.5-5.2 14.1-0.1 0.5-0.1 1-0.2 1.5 4.2-2.9 7.3-7.2 7.8-13 0.1-1.7-0.4-2.7-0.7-2.9-0.2 0-0.3-0.1-0.4-0.1z"/>
	<path d="m385.9 226.3h-1.1c-5.4-0.3-10.1-2.8-13-6.9-3.7-5.3-4.5-12.7-2.3-20.9 3.9-14.2 13.6-17.2 17.6-17.8 5.9-0.9 11.6 1 14.2 4.9 1.8 2.7 1.8 5.9 0 8.9-0.8 1.3-2.6 1.7-3.9 0.9s-1.7-2.6-0.9-3.9c0.8-1.4 0.5-2.2 0.1-2.8-1.1-1.7-4.5-3.1-8.6-2.4-2.9 0.5-10 2.7-13 13.8-1.8 6.5-1.3 12.2 1.4 16.1 2 2.7 5 4.3 8.7 4.5 8.1 0.5 16-7.2 16.3-12.1 0.1-1.6 1.5-2.7 3-2.6 1.6 0.1 2.7 1.5 2.6 3-0.4 7.9-10.4 17.3-21.1 17.3z"/>
	<path d="m437.7 246c-4.3 0-8.9-0.3-13.7-0.9-1.6-0.2-2.7-1.6-2.5-3.2s1.6-2.7 3.2-2.5c17.8 2.2 48.9 1.8 57.9-26.2 3.3-10.3 1.5-20.9-4.8-28.4-6.8-8.1-18.2-11.6-31.9-9.7-15.4 2.1-22.1 14.1-23.1 23.8-1 9.3 2.8 21.9 16.9 27.1 1.5 0.5 2.2 2.2 1.7 3.6-0.5 1.5-2.2 2.2-3.6 1.7-14.1-5.2-22.2-18.1-20.6-33 1.4-12.6 10.5-26.4 28-28.8 15.7-2.1 28.9 2 37 11.7 7.5 9 9.7 21.6 5.8 33.7-6.6 20.4-24.2 31.1-50.3 31.1z"/>
	<path d="m463.6 216.3c-2 0-4.3-0.3-6.1-1.5-1.2-0.8-2-2-2.2-3.4-0.3-2.1-1.1-13.5 0.8-16.8s8-3.1 8.3-3.1c5.1 0.2 8.5 2.9 8.6 7 0 1.5-0.4 2.9-1.3 4 1.9 1.1 3.3 2.8 3.5 5.4 0.2 2.4-0.6 6.6-8 8.1 0 0-1.6 0.3-3.6 0.3zm-2.7-6c0.9 0.4 3.5 0.5 5.2 0.2 2.4-0.5 3.5-1.2 3.5-2.1 0-0.6-1-2.1-8.9-2 0 1.4 0.1 2.8 0.2 3.9zm0.1-12.7c-0.2 0.6-0.3 1.6-0.3 2.9 3.5-0.1 5.7-0.6 6.5-1.4 0.1-0.1 0.2-0.2 0.2-0.5 0-1.4-3-1.5-3.1-1.5-0.9 0-2.6 0.2-3.3 0.5z"/>
	<path d="m451.3 197.7c-0.2 0-0.5 0-0.7-0.1 0 0-6.1-1.4-16.9 0.1-1.5 0.2-3-0.9-3.2-2.4-0.2-1.6 0.9-3 2.4-3.2 12-1.6 18.8 0 19.1 0.1 1.5 0.4 2.4 1.9 2.1 3.4-0.4 1.3-1.6 2.1-2.8 2.1z"/>
	<path d="m442.5 215.8c-1.6 0-3-1.3-3-2.9v-17.5c0-1.6 1.4-2.9 3-2.9s3 1.3 3 2.9v17.5c0 1.6-1.4 2.9-3 2.9z"/>
</g>
</svg>
