<svg id="a" width="351.81pt" height="351.53pt" version="1.1" viewBox="0 0 351.81 351.53" xmlns="http://www.w3.org/2000/svg">
 <ellipse id="b" cx="175.9" cy="175.76" rx="175.9" ry="175.76" fill="#da4143" style="paint-order:normal"/>
 <path id="c" d="m129.69 181.3h-0.24892c-3.0286 4.8126-8.0279 6.2025-13.712 6.2025-3.8791 0-7.6753-1.058-10.559-3.1116v38.293h-4.3562v-5.186h-0.14521c-2.8419 4.1903-7.945 5.9743-12.052 5.9743-9.6667 0-16.492-6.9492-16.492-16.305 0-9.3348 6.8248-16.284 16.492-16.284 4.1073 0 9.2104 1.784 12.052 5.9535h0.14521v-18.338c-0.39414-1.1617-0.66381-2.4063-0.66381-3.8169 0-13.878 16.201-14.853 26.884-14.853h2.6552v-1.1617c0-5.2482-4.0866-8.0072-9.7912-8.0072-4.4392 0-8.5465 1.784-11.388 4.4392l-5.6009-5.6009c4.7089-4.8126 11.388-6.8455 18.151-6.8455 18.255 0 18.255 13.172 18.255 19.23v24.561h-9.6252zm66.962-12.467c0.70529 6.3062 5.5179 10.144 11.471 10.144 5.352 0 8.8162-2.4893 11.492-5.7876l7.6545 5.7876c-3.9206 4.8126-8.671 7.3226-13.816 8.1731v4.5222h8.9407v3.9828h-8.9407v18.275c0 4.6467 1.784 5.5801 4.5015 5.5801 1.535 0 3.1946-0.47711 4.5014-1.2032l0.20744 4.0451c-1.5973 0.72604-3.7132 1.1202-5.8913 1.1202-3.319 0-7.696-1.4521-7.696-8.2769v-27.693c-12.841-0.0415-23.109-9.0236-23.109-22.424 0-13.442 10.31-22.424 23.213-22.424 11.949 0 20.039 8.3598 20.039 23.233v2.9456zm95.111 17.757h-11.223v-18.794h-18.773v-11.223h18.773v-18.773h11.223v18.773h18.794v11.223h-18.794zm-133.76-0.14521-17.446-42.733h11.658l11.388 29.913h0.1867l11.492-29.913h10.953l-16.823 42.733zm-102.77 1.058c-11.305 0-13.961-5.0615-13.961-15.122v-43.998h10.683v15.33h11.741v9.0859h-11.741v18.69c0 4.2733 1.2446 6.9492 5.9535 6.9492 1.867 0 4.46-0.35265 5.7876-1.3484v9.0029c-2.2196 1.058-5.9535 1.4106-8.4636 1.4106zm37.526-34.705c-10.061 0-11.492 8.4636-11.492 10.766v22.881h-10.683v-42.733h10.683v6.0365h0.18669c2.3026-4.8956 7.0115-7.0944 12.633-7.0944 1.3276 0 2.5723 0.24892 3.8169 0.62232v10.31c-1.7632-0.43563-3.4642-0.78828-5.1445-0.78828zm47.628 54.37c0-9.3348 6.8248-16.284 15.641-16.284 9.4178 0.0622 14.832 7.0115 14.832 15.496v1.9914h-25.826c0.53935 6.2232 5.2275 11.14 11.388 11.14 4.6467 0 8.2146-2.593 9.9364-5.3727l3.3813 2.7797c-3.651 4.6259-8.2146 6.5551-13.318 6.5551-9.2104 0-16.035-6.9492-16.035-16.305zm144.34 1.2032c0.5186 6.2232 5.2275 11.14 11.388 11.14 4.6259 0 8.2146-2.593 9.9364-5.3727l3.3813 2.7797c-3.651 4.6259-8.2146 6.5551-13.318 6.5551-9.2103 0-16.035-6.9492-16.035-16.305 0-9.3348 6.8248-16.284 15.641-16.284 9.397 0.0622 14.832 7.0115 14.832 15.496v1.9914zm-160.41 9.397h0.12447l9.8742-26.096h4.9578l-12.571 31.012h-4.9163l-12.571-31.012h5.2275zm126.75 4.9163c-0.1867-1.6595-0.1867-3.319-0.1867-4.9786h-0.12446c-1.9292 3.3813-6.3062 5.7668-10.414 5.7668-7.8827 0-11.658-4.4392-11.658-12.115v-19.686h4.377v17.155c0 6.887 1.9292 10.662 8.4221 10.662 0.93348 0 9.397-0.58083 9.397-11.907v-15.911h4.377v24.188c0 1.6595 0.18669 4.5637 0.3319 6.8248zm-188.02 0c-0.12446-1.5766-0.0622-2.7175-0.0622-4.377h-0.12446c-2.5308 4.1073-5.9535 5.1653-10.932 5.1653-5.4972 0-10.662-3.0494-10.662-9.0651 0-10.082 11.866-10.745 19.271-10.745h2.1989v-0.78827c0-5.3727-2.593-8.0072-7.9657-8.0072-3.6302 0-6.8248 1.2446-9.4593 3.6302l-2.6552-3.1116c2.8419-2.9042 7.2812-4.5015 13.11-4.5015 6.0987 0 11.326 3.4435 11.326 10.994v13.836c0 2.3856-0.0622 5.3105 0.18669 6.97zm171.14-94.634h10.683v58.394h-10.683zm-133.18 79.118c0-6.9492-5.2275-12.322-12.384-12.322-7.2189 0-11.72 5.3727-11.72 12.322 0 6.97 4.5014 12.322 11.72 12.322 7.1567 0 12.384-5.352 12.384-12.322zm164.73-9.7289h0.12446c1.2446-3.319 4.5015-6.5551 9.9364-6.5551 1.2446 0 2.3026 0.12447 3.2361 0.39414l-0.85051 4.3148c-0.53934-0.20744-1.3276-0.33191-2.5308-0.33191-6.6173 0-9.5837 5.7668-9.5837 9.9364v17.487h-4.377v-21.325c0-2.8004-0.1452-5.1653-0.26967-9.6875h4.3148zm-136.66-30.141h-2.2196c-5.8706 0-16.035 0.45637-16.035 6.5966 0 3.9206 4.0243 5.6009 7.4886 5.6009 7.3019 0 10.766-3.8169 10.766-9.7912zm89.469-6.4929c-0.083-6.2232-4.1696-10.144-10.849-10.144-6.3269 0-10.248 4.0036-11.036 10.144zm-52.441 43.998c0-5.912-3.7754-9.9364-10.061-9.9364-5.6839 0-10.87 4.8334-10.87 9.9364zm139.69 0c0-5.912-3.7754-9.9364-10.061-9.9364-5.7046 0-10.87 4.8334-10.87 9.9364zm-243.06 2.4478h-2.2611c-4.4392 0-14.438 0.3319-14.438 6.5551 0 4.1073 3.7754 5.7046 7.2812 5.7046 6.3684 0 9.4178-4.5222 9.4178-10.019zm112.79-15.579c0.12446 2.2611 0.3319 5.1653 0.3319 6.8248v24.188h4.3562v-15.911c0-11.326 8.4843-11.907 9.4178-11.907 6.4929 0 8.4013 3.7754 8.4013 10.662v17.155h4.377v-19.686c0-7.6753-3.7754-12.115-11.658-12.115-4.1073 0-8.4636 2.3856-10.393 5.7668h-0.14521c0-1.6595 0-3.319-0.1867-4.9786z" fill="#fff" stroke-width="2.0744"/>
</svg>
