<?xml version="1.0" encoding="UTF-8"?>
<!-- Created with Inkscape (http://www.inkscape.org/) -->
<svg id="svg6654" width="211.67mm" height="152.91mm" version="1.1" viewBox="0 0 211.67 152.91" xmlns="http://www.w3.org/2000/svg" xmlns:cc="http://creativecommons.org/ns#" xmlns:dc="http://purl.org/dc/elements/1.1/" xmlns:rdf="http://www.w3.org/1999/02/22-rdf-syntax-ns#">
 <defs id="defs6648">
  <clipPath id="clipPath1320">
   <path id="path1318" d="m0 0h595.28v841.89h-595.28z"/>
  </clipPath>
 </defs>
 <metadata id="metadata6651">
  <rdf:RDF>
   <cc:Work rdf:about="">
    <dc:format>image/svg+xml</dc:format>
    <dc:type rdf:resource="http://purl.org/dc/dcmitype/StillImage"/>
    <dc:title/>
   </cc:Work>
  </rdf:RDF>
 </metadata>
 <g id="layer1" transform="translate(23.167 -.37212)">
  <g id="g1314" transform="matrix(6.063 0 0 -6.063 -2527.6 1746.6)">
   <g id="g1316" clip-path="url(#clipPath1320)">
    <g id="g1322" transform="translate(428.2 287.91)">
     <path id="path1324" d="m0 0h0.016v-4e-3c0.709-1e-3 1.399-0.081 2.062-0.228 0.672-0.15 1.311-0.367 1.91-0.643 2.87-1.326 4.97-4.04 5.437-7.282l9.456-2.706 0.805-0.231v-3.355l-0.597-0.311-7.576-3.944-0.481-0.25-0.492 0.228-4.307 2.003c-0.062-0.054-0.125-0.106-0.189-0.159-0.281-0.231-0.56-0.438-0.837-0.618-1.498-0.981-3.287-1.552-5.207-1.552h-1e-3v5e-3c-2.633 0-5.014 1.065-6.735 2.786-1.72 1.721-2.785 4.101-2.786 6.732h-4e-3v0.013l4e-3 5e-3c1e-3 0.111 5e-3 0.213 9e-3 0.309v8e-3l6e-3 0.09-4.621 1.849-0.696 0.278v2.556l0.688 0.283 3.545 1.46 0.358 0.148 0.364-0.104 2.598-0.744c0.098 0.116 0.197 0.23 0.3 0.34 0.287 0.307 0.589 0.593 0.905 0.855 1.649 1.364 3.762 2.183 6.066 2.183m16.178-21.655h1.263c0.525 0 0.932-0.408 0.935-0.922 1e-3 -0.223-0.102-0.458-0.259-0.597 0.255-0.151 0.379-0.522 0.379-0.809 0-0.553-0.392-1.02-0.976-1.02h-1.342zm0.561-1.863v-0.924h0.781c0.269 0 0.415 0.214 0.415 0.459s-0.146 0.465-0.415 0.465zm0 1.302v-0.761h0.72c0.227 0 0.367 0.208 0.357 0.417-0.01 0.207-0.166 0.344-0.375 0.344zm-5.246-2.787v3.348h3.709v-3.348h-0.56v2.787h-1.015v-2.787h-0.56v2.787h-1.013v-2.787zm-21.939 0v3.347h1.343c0.66 0 0.976-0.635 0.976-1.209s-0.317-1.183-0.976-1.183h-0.782v-0.955zm0.561 2.786v-1.294h0.782c0.316 0 0.416 0.395 0.416 0.646s-0.101 0.648-0.416 0.648zm18.41-2.786v3.348h1.342c0.659 0 0.977-0.635 0.977-1.209 0-0.575-0.318-1.183-0.977-1.183h-0.78v-0.956zm0.562 2.787v-1.294h0.78c0.316 0 0.417 0.395 0.417 0.646s-0.101 0.648-0.417 0.648zm-2.664 0.029h-3e-3c-0.609-2e-3 -1.048-0.56-1.048-1.14v-5e-3c1e-3 -0.58 0.44-1.138 1.048-1.138h5e-3c0.608 0 1.046 0.56 1.046 1.14v4e-3c0 0.581-0.435 1.139-1.048 1.139m-1e-3 0.561h1e-3c0.923-1e-3 1.608-0.809 1.609-1.7v-4e-3c0-0.89-0.688-1.699-1.607-1.701h-5e-3c-0.919 0-1.608 0.81-1.609 1.699v5e-3c1e-3 0.89 0.69 1.7 1.609 1.701zm-10.711-3.377v3.348h0.561v-1.36c0.973-0.065 1.215 0.694 1.209 1.36h0.701v-0.543h-0.213c-0.082-0.393-0.336-0.818-0.667-1.042 0.376-0.275 0.613-0.787 0.678-1.24h0.278v-0.523h-0.781c-0.042 0.767-0.177 1.497-1.205 1.479v-1.479zm6.016 0.524h0.299c0.014 0.597 0.073 1.247 0.294 1.782 0.278 0.676 0.793 1.16 1.744 1.156l0.279-3e-3v-3.459h-0.561v2.88c-0.494-0.08-0.781-0.386-0.946-0.787-0.272-0.661-0.251-1.389-0.254-2.093h-0.855zm-1.727 2.292h-3e-3c-0.608-2e-3 -1.047-0.56-1.047-1.14v-5e-3c1e-3 -0.58 0.44-1.138 1.049-1.138h4e-3c0.608 0 1.046 0.56 1.046 1.14v4e-3c0 0.581-0.436 1.139-1.049 1.139m0 0.561c0.923-1e-3 1.609-0.809 1.61-1.7v-4e-3c-1e-3 -0.89-0.689-1.699-1.607-1.701h-4e-3c-0.919 0-1.609 0.81-1.61 1.699v5e-3c1e-3 0.89 0.689 1.7 1.608 1.701zm-6.953-0.03v-2.199l1.166 2.2h0.554v-3.348h-0.562v2.156l-1.141-2.156h-0.578v3.347zm-8.083-3.347v3.348h3.708v-3.348h-0.56v2.787h-1.014v-2.787h-0.561v2.787h-1.013v-2.787z" fill="#fff"/>
    </g>
    <g id="g1326" transform="translate(428.2 287.91)">
     <path id="path1328" d="m0 0h0.016v-4e-3c0.709-1e-3 1.399-0.081 2.062-0.228 0.672-0.15 1.311-0.367 1.91-0.643 2.87-1.326 4.97-4.04 5.437-7.282l9.456-2.706 0.805-0.231v-3.355l-0.597-0.311-7.576-3.944-0.481-0.25-0.492 0.228-4.307 2.003c-0.062-0.054-0.125-0.106-0.189-0.159-0.281-0.231-0.56-0.438-0.837-0.618-1.498-0.981-3.287-1.552-5.207-1.552h-1e-3v5e-3c-2.633 0-5.014 1.065-6.735 2.786-1.72 1.721-2.785 4.101-2.786 6.732h-4e-3v0.013l4e-3 5e-3c1e-3 0.111 5e-3 0.213 9e-3 0.309v8e-3l6e-3 0.09-4.621 1.849-0.696 0.278v2.556l0.688 0.283 3.545 1.46 0.358 0.148 0.364-0.104 2.598-0.744c0.098 0.116 0.197 0.23 0.3 0.34 0.287 0.307 0.589 0.593 0.905 0.855 1.649 1.364 3.762 2.183 6.066 2.183zm16.178-21.655h1.263c0.525 0 0.932-0.408 0.935-0.922 1e-3 -0.223-0.102-0.458-0.259-0.597 0.255-0.151 0.379-0.522 0.379-0.809 0-0.553-0.392-1.02-0.976-1.02h-1.342zm0.561-1.863v-0.924h0.781c0.269 0 0.415 0.214 0.415 0.459s-0.146 0.465-0.415 0.465zm0 1.302v-0.761h0.72c0.227 0 0.367 0.208 0.357 0.417-0.01 0.207-0.166 0.344-0.375 0.344zm-5.246-2.787v3.348h3.709v-3.348h-0.56v2.787h-1.015v-2.787h-0.56v2.787h-1.013v-2.787zm-21.939 0v3.347h1.343c0.66 0 0.976-0.635 0.976-1.209s-0.317-1.183-0.976-1.183h-0.782v-0.955zm0.561 2.786v-1.294h0.782c0.316 0 0.416 0.395 0.416 0.646s-0.101 0.648-0.416 0.648zm18.41-2.786v3.348h1.342c0.659 0 0.977-0.635 0.977-1.209 0-0.575-0.318-1.183-0.977-1.183h-0.78v-0.956zm0.562 2.787v-1.294h0.78c0.316 0 0.417 0.395 0.417 0.646s-0.101 0.648-0.417 0.648zm-2.664 0.029h-3e-3c-0.609-2e-3 -1.048-0.56-1.048-1.14v-5e-3c1e-3 -0.58 0.44-1.138 1.048-1.138h5e-3c0.608 0 1.046 0.56 1.046 1.14v4e-3c0 0.581-0.435 1.139-1.048 1.139zm-1e-3 0.561h1e-3c0.923-1e-3 1.608-0.809 1.609-1.7v-4e-3c0-0.89-0.688-1.699-1.607-1.701h-5e-3c-0.919 0-1.608 0.81-1.609 1.699v5e-3c1e-3 0.89 0.69 1.7 1.609 1.701zm-10.711-3.377v3.348h0.561v-1.36c0.973-0.065 1.215 0.694 1.209 1.36h0.701v-0.543h-0.213c-0.082-0.393-0.336-0.818-0.667-1.042 0.376-0.275 0.613-0.787 0.678-1.24h0.278v-0.523h-0.781c-0.042 0.767-0.177 1.497-1.205 1.479v-1.479zm6.016 0.524h0.299c0.014 0.597 0.073 1.247 0.294 1.782 0.278 0.676 0.793 1.16 1.744 1.156l0.279-3e-3v-3.459h-0.561v2.88c-0.494-0.08-0.781-0.386-0.946-0.787-0.272-0.661-0.251-1.389-0.254-2.093h-0.855zm-1.727 2.292h-3e-3c-0.608-2e-3 -1.047-0.56-1.047-1.14v-5e-3c1e-3 -0.58 0.44-1.138 1.049-1.138h4e-3c0.608 0 1.046 0.56 1.046 1.14v4e-3c0 0.581-0.436 1.139-1.049 1.139zm0 0.561c0.923-1e-3 1.609-0.809 1.61-1.7v-4e-3c-1e-3 -0.89-0.689-1.699-1.607-1.701h-4e-3c-0.919 0-1.609 0.81-1.61 1.699v5e-3c1e-3 0.89 0.689 1.7 1.608 1.701zm-6.953-0.03v-2.199l1.166 2.2h0.554v-3.348h-0.562v2.156l-1.141-2.156h-0.578v3.347zm-8.083-3.347v3.348h3.708v-3.348h-0.56v2.787h-1.014v-2.787h-0.561v2.787h-1.013v-2.787z" fill="none" stroke="#fff" stroke-miterlimit="22.926" stroke-width=".189"/>
    </g>
    <g id="g1330" transform="translate(428.2 287.91)">
     <path id="path1332" d="m0 0h0.016v-4e-3c0.709-1e-3 1.399-0.08 2.062-0.228 0.672-0.15 1.311-0.367 1.91-0.643 2.87-1.326 4.97-4.04 5.437-7.282l9.456-2.707 0.805-0.23v-3.355l-0.597-0.311-7.576-3.944-0.481-0.25-0.492 0.228-4.307 2.003c-0.062-0.054-0.125-0.106-0.189-0.159-0.281-0.231-0.56-0.438-0.836-0.619-1.498-0.98-3.288-1.551-5.208-1.551h-1e-3v4e-3c-2.633 1e-3 -5.014 1.066-6.735 2.787-1.72 1.721-2.785 4.101-2.785 6.732h-5e-3v0.013l5e-3 4e-3c0 0.111 4e-3 0.214 9e-3 0.31v9e-3l5e-3 0.089-4.62 1.849-0.697 0.278v2.556l0.688 0.283 3.545 1.46 0.358 0.148 0.364-0.104 2.598-0.744c0.098 0.116 0.198 0.23 0.3 0.34 0.286 0.307 0.589 0.593 0.905 0.855 1.648 1.363 3.762 2.183 6.066 2.183" fill="#2056ae"/>
    </g>
    <g id="g1334" transform="translate(417.75 262.91)">
     <path id="path1336" d="m0 0v3.347h1.342c0.66 0 0.977-0.636 0.977-1.209 0-0.575-0.317-1.183-0.977-1.183h-0.781v-0.955zm0.561 2.786v-1.295h0.781c0.316 0 0.416 0.395 0.416 0.647 0 0.25-0.1 0.648-0.416 0.648zm18.41-2.786v3.348h1.342c0.659 0 0.977-0.636 0.977-1.21s-0.318-1.182-0.977-1.182h-0.781v-0.956zm0.561 2.787v-1.295h0.781c0.315 0 0.416 0.395 0.416 0.646s-0.101 0.649-0.416 0.649zm-2.663 0.028h-4e-3c-0.608-1e-3 -1.047-0.559-1.047-1.14v-4e-3c0-0.58 0.44-1.138 1.048-1.138h4e-3c0.609 0 1.047 0.559 1.047 1.139v4e-3c0 0.581-0.436 1.139-1.048 1.139m-1e-3 0.561h1e-3c0.923 0 1.608-0.809 1.609-1.7v-4e-3c-1e-3 -0.89-0.689-1.699-1.608-1.7h-4e-3c-0.919 0-1.608 0.809-1.609 1.699v4e-3c1e-3 0.89 0.69 1.7 1.608 1.701zm-10.712-3.376v3.348h0.561v-1.36c0.974-0.065 1.216 0.693 1.21 1.36h0.701v-0.543h-0.213c-0.082-0.394-0.336-0.818-0.667-1.042 0.376-0.276 0.613-0.787 0.678-1.24h0.278v-0.523h-0.781c-0.042 0.767-0.177 1.496-1.206 1.478v-1.478zm6.017 0.523h0.299c0.014 0.597 0.073 1.247 0.293 1.782 0.279 0.676 0.794 1.16 1.744 1.155l0.28-1e-3v-3.459h-0.561v2.879c-0.494-0.079-0.781-0.385-0.946-0.786-0.272-0.662-0.251-1.39-0.254-2.093h-0.855zm-1.726 2.292h-4e-3c-0.608-1e-3 -1.047-0.559-1.047-1.14v-4e-3c0-0.581 0.44-1.138 1.049-1.138h3e-3c0.608 0 1.047 0.559 1.047 1.139v4e-3c0 0.581-0.435 1.139-1.048 1.139m-1e-3 0.561h1e-3c0.922 0 1.608-0.809 1.609-1.7v-4e-3c0-0.89-0.689-1.699-1.608-1.7h-3e-3c-0.919 0-1.609 0.809-1.61 1.699v4e-3c1e-3 0.89 0.69 1.7 1.608 1.701zm-6.953-0.03v-2.198l1.166 2.2h0.553v-3.348h-0.561v2.156l-1.142-2.156h-0.577v3.346zm-8.084-3.346v3.348h3.709v-3.348h-0.56v2.787h-1.014v-2.787h-0.561v2.787h-1.013v-2.787z" fill="#2056ae"/>
    </g>
    <g id="g1338" transform="translate(444.37 266.26)">
     <path id="path1340" d="m0 0h1.263c0.525 0 0.932-0.409 0.935-0.923 1e-3 -0.223-0.101-0.457-0.259-0.596 0.255-0.151 0.379-0.522 0.379-0.809 0-0.554-0.391-1.02-0.977-1.02h-1.341zm0.561-1.863v-0.924h0.78c0.27 0 0.417 0.214 0.417 0.459 0 0.244-0.147 0.465-0.417 0.465zm0 1.302v-0.762h0.72c0.227 0 0.367 0.209 0.357 0.417-0.01 0.207-0.166 0.345-0.375 0.345zm-5.246-2.787v3.348h3.709v-3.348h-0.561v2.787h-1.014v-2.787h-0.56v2.787h-1.013v-2.787z" fill="#ed1c24"/>
    </g>
    <g id="g1342" transform="translate(419.5 279.33)">
     <path id="path1344" d="m0 0-4.764 1.9-0.635 0.263v1.519l0.663 0.25 2.987 1.125 0.321 0.121 0.326-0.097 2.729-0.85c0.109 0.159 0.213 0.283 0.282 0.375l0.029 0.045 0.028 0.032c0.676 0.814 1.5 1.507 2.432 2.04 0.184 0.105 0.37 0.203 0.558 0.293 1.156 0.556 2.45 0.868 3.815 0.869h1e-3c3.46 0 6.466-2.003 7.92-4.909 0.282-0.562 0.506-1.163 0.664-1.792 0.099-0.395 0.172-0.8 0.216-1.212l9.355-2.807 0.73-0.219v-2.431l-0.559-0.284-6.987-3.554-0.437-0.222-0.449 0.206-4.339 1.987c-0.559-0.536-1.186-0.999-1.866-1.373-0.174-0.096-0.355-0.187-0.542-0.274-1.13-0.525-2.386-0.818-3.705-0.818h-2e-3c-2.437 0-4.65 0.994-6.253 2.597-1.603 1.602-2.596 3.815-2.596 6.253v1e-3c0 0.218 0.031 0.557 0.07 0.891 1e-3 2e-3 8e-3 0.072 8e-3 0.075" fill="#fff"/>
    </g>
    <g id="g1346" transform="translate(428.27 286.19)">
     <path id="path1348" d="m0 0c4.312 0 7.829-3.517 7.829-7.829s-3.517-7.829-7.829-7.829-7.829 3.517-7.829 7.829 3.517 7.829 7.829 7.829" fill="#2056ae"/>
    </g>
   </g>
  </g>
  <g id="g1350" transform="matrix(6.063 0 0 -6.063 -11.138 41.671)">
   <path id="path1352" d="m0 0 8.813-3.539 4.575 2.715 0.252 0.575-9.784 3.176-3.78-1.815z" fill="#fff"/>
  </g>
  <g id="g1354" transform="matrix(6.063 0 0 -6.063 46.851 43.127)">
   <path id="path1356" d="m0 0 3.576 1.343 4.063-1.382v-4.353l-3.83-1.979-3.809 2.047z" fill="#00adef"/>
  </g>
  <g id="g1358" transform="matrix(6.063 0 0 -6.063 93.164 43.362)">
   <path id="path1360" d="m0 0v-4.353l-3.83-1.979 0.013 4.828z" fill="#0d8ad5"/>
  </g>
  <g id="g1362" transform="matrix(6.063 0 0 -6.063 46.851 43.127)">
   <path id="path1364" d="m0 0 3.576 1.343 4.063-1.382-3.83-1.503z" fill="#52c2f1"/>
  </g>
  <g id="g1366" transform="matrix(6.063 0 0 -6.063 103.46 53.927)">
   <path id="path1368" d="m0 0-5.526-2.633v-0.713l10.726-4.912 6.987 3.554v1.046z" fill="#ed1c24"/>
  </g>
  <g id="g1370" transform="matrix(6.063 0 0 -6.063 134.99 96.55)">
   <path id="path1372" d="m0 0-1e-3 -1.228 6.987 3.555v1.045z" fill="#d1252e"/>
  </g>
 </g>
</svg>
