<?xml version="1.0" encoding="UTF-8"?>
<svg id="svg20" width="978.25pt" height="312.84pt" version="1.1" viewBox="0 0 978.25 312.84" xmlns="http://www.w3.org/2000/svg" xmlns:cc="http://creativecommons.org/ns#" xmlns:dc="http://purl.org/dc/elements/1.1/" xmlns:rdf="http://www.w3.org/1999/02/22-rdf-syntax-ns#">
 <metadata id="metadata26">
  <rdf:RDF>
   <cc:Work rdf:about="">
    <dc:format>image/svg+xml</dc:format>
    <dc:type rdf:resource="http://purl.org/dc/dcmitype/StillImage"/>
    <dc:title/>
   </cc:Work>
  </rdf:RDF>
 </metadata>
 <path id="path7" d="m418.02 0h94.17l-20.32 213.3h-53.01z" fill="#f37020"/>
 <path id="path9" d="m625.85 36.375c27.6-9.94 58.51-8.87 85.91 1.16 2.75 1.04 5.9 1.71 8.17 3.69v69.67c-5.11-5.17-10.09-10.67-16.5-14.29-13.25-8.15-29.42-11.69-44.83-9.29-15.11 2-29.47 10.06-38.41 22.49-4.7946 6.0156-8.1972 13-10.268 20.38-3.4522 14.266-3.318 29.625 1.246 42.49 3.9072 10.775 10.835 20.441 20.222 27.11 11.73 8.68 26.64 11.79 41.01 11.37 12.73-0.87 25.11-5.43 35.53-12.75 4.42-3.03 7.88-7.25 12-10.64v69.91c-8.34 3.5-17.21 5.15-25.87 7.65-21.01 5.2-43.33 3.61-63.97-2.51-20.71-6.49-39.48-18.62-54.68-34.03-4.26-4.16-7.58-9.13-11.08-13.91-12.24-17.84-18.03-39.54-18.67-61.02-0.68-18.32 2.63-36.84 10.24-53.55 7.08-15.49 16.99-29.93 30.28-40.74 11.43-10.38 25.26-17.83 39.67-23.19z" fill="#f37020"/>
 <path id="path11" d="m0 35.435h157.02v50.105h-48.675v176.92h-59.125v-176.92h-49.22z" fill="#f37020"/>
 <path id="path13" d="m196.96 35.425h86.405c12.67-0.15 25.51 1.14 37.59 5.12 8.53 3.45 17.15 7.36 23.87 13.83 13.46 12.58 20.32 31.22 20.04 49.47 0.46 17.23-5 34.96-16.59 47.92-8.56 9.42-20.45 15.28-32.85 17.68l70.88 92.92h-73.62l-56.35-86.68v86.68h-59.375v-226.94m59.375 45.47v56.03c10.43 0.82 21.37-0.06 31.23-3.7 6.07-2.15 11.24-6.97 13.39-13.08 3.2-8.4 3-18.42-1.67-26.24-3.96-6.17-10.85-9.87-17.89-11.32-8.12-1.69-16.78-2.57-25.06-1.69z" fill="#f37020"/>
 <path id="path15" d="m896.92 35.45h73.27l-89.68 107.38 97.74 119.62h-75.881l-77.599-98.515v98.515h-59.2v-226.99h59.2v93.495z" fill="#f37020"/>
 <path id="path4503" d="m503.93 274a39.056 38.836 0 0 1-39.056 38.836 39.056 38.836 0 0 1-39.056-38.836 39.056 38.836 0 0 1 39.056-38.836 39.056 38.836 0 0 1 39.056 38.836z" fill="#f37020" style="paint-order:normal"/>
</svg>
