<?xml version="1.0" encoding="UTF-8"?>
<svg viewBox="0 0 169 45" xmlns="http://www.w3.org/2000/svg">
 <path d="M10.77 27.58l8.64-8.42L.09.34h17.52l19.2 18.7-8.77 8.54z" fill="#1e3c96"/>
 <path d="m45.84 44.91-17.79-17.33h17.52l17.78 17.33z" fill="#c8140a"/>
 <path d="M129.05 15.66c-.08 1.03-.16 2.06-.27 3.1-.1 1.03-.26 2.16-.47 3.2-.57 3-2.13 4.9-5.07 5.06h-.89v-3.57c1.63.05 2.1-.58 2.4-2.13.2-1.02.38-2.37.5-3.77.19-1.8.33-3.6.43-5.41h10.91V27h-3.65V15.66zm-69.32-3.52v3.51h-4.22V27h-3.64V15.65h-4.22v-3.51zm54.05 3.4c-2.37 0-3.74 1.67-3.74 4.02 0 2.34 1.34 4.02 3.74 4.02s3.7-1.7 3.7-4.05c0-2.33-1.32-4-3.7-4zm.02 11.58c-4.4 0-7.4-3.09-7.4-7.56s2.95-7.55 7.4-7.55 7.34 3.06 7.34 7.52-2.94 7.59-7.34 7.59zm-16.91-9.75h.43l4.25-5.23h4.68l-5.91 6.9 6.4 7.95h-4.82l-4.67-6.25h-.36v6.25h-3.64V12.14h3.64zm-28.5-5.23c3.2 0 5.66 2.11 5.66 5.43s-2.5 5.4-5.7 5.4h-2.54v4.02h-3.64V12.14zm2 5.44c0-1.31-.73-1.92-1.99-1.92h-2.62v3.8h2.68c1.21 0 1.94-.63 1.94-1.88zm15.14-5.44h3.77v14.85h-3.51v-9.34l-5.5 9.34h-3.77V12.14h3.52v9.29zm64.94 7.39c0-2.35-1.32-4-3.7-4-2.37 0-3.74 1.68-3.74 4.03 0 2.34 1.34 4.02 3.75 4.02 2.4 0 3.7-1.72 3.7-4.05zm-3.68 7.59c-4.38 0-7.4-3.09-7.4-7.55s2.94-7.55 7.4-7.55 7.33 3.06 7.33 7.52-2.95 7.58-7.33 7.58zm16.26-14.98c3.19 0 5.65 2.11 5.65 5.43s-2.49 5.4-5.69 5.4h-2.54v4.02h-3.65V12.14zm2 5.44c0-1.31-.72-1.92-1.97-1.92h-2.61v3.8h2.67c1.2 0 1.93-.63 1.93-1.88z" fill="#1e3c96"/>
</svg>
