<?xml version="1.0" encoding="UTF-8"?>
<!-- Generator: Adobe Illustrator 22.1.0, SVG Export Plug-In . SVG Version: 6.00 Build 0)  -->
<svg id="tricolor-logo" width="800" height="604.59" version="1.1" viewBox="0 0 800 604.59" xml:space="preserve" xmlns="http://www.w3.org/2000/svg" xmlns:cc="http://creativecommons.org/ns#" xmlns:dc="http://purl.org/dc/elements/1.1/" xmlns:rdf="http://www.w3.org/1999/02/22-rdf-syntax-ns#"><metadata id="metadata12"><rdf:RDF><cc:Work rdf:about=""><dc:format>image/svg+xml</dc:format><dc:type rdf:resource="http://purl.org/dc/dcmitype/StillImage"/><dc:title/></cc:Work></rdf:RDF></metadata>
<path id="Path_4" d="m215.97 285.93 88.213-88.213-196.96-197.72h178.71l196.2 196.2-89.734 89.734z" fill="#004d9f" stroke-width="7.6046"/>
<path id="Path_5" d="m573.38 465.4-178.71-177.19 2.2814-2.2814h174.14l181.75 179.47z" fill="#e60f2a" stroke-width="7.6046"/>
<path id="Path_6" d="m629.66 554.37c0-6.8441-3.8023-9.8859-10.646-9.8859h-13.688v19.772h14.449c5.3232 0.76046 9.8859-3.0418 10.646-7.6046 0-0.76045 0-1.5209-0.76046-2.2814zm-44.106-28.897h33.46c15.97-0.76045 29.658 11.407 30.418 27.376 0.76045 15.97-11.407 29.658-27.376 30.418h-3.0418-13.688v21.293h-19.772zm-14.449 39.544c0 22.053-18.251 39.544-39.544 39.544-22.053 0-39.544-18.251-39.544-39.544 0-22.053 18.251-39.544 39.544-39.544 20.532-0.76045 38.023 14.449 39.544 34.981v4.5627zm-19.772 0c1.5209-10.646-6.0836-19.772-16.73-21.293h-3.0418c-11.407-0.76045-22.053 8.365-22.814 19.772-0.76046 11.407 8.365 22.053 19.772 22.814 11.407 0.76045 22.053-8.365 22.814-19.772 0-0.76045 0.76045-1.5209 0-1.5209zm-377.19 9.8859 29.658-49.43h20.532v78.327h-19.011v-49.43l-30.418 49.43h-20.532v-78.327h19.011zm-52.471-20.532c0-6.8441-3.8023-9.8859-10.646-9.8859h-13.688v19.772h14.449c5.3232 0.76046 9.8859-3.0418 10.646-7.6046 0-0.76045 0-1.5209-0.76046-2.2814zm-44.106-28.897h33.46c15.97-0.76045 29.658 11.407 30.418 27.376 0.76045 15.97-11.407 29.658-27.376 30.418h-3.0418-13.688v21.293h-19.772zm186.31 27.376h2.2814l22.814-27.376h25.095l-31.939 36.502 34.221 41.825h-25.856l-24.335-32.7h-2.2814v32.7h-19.772v-78.327h19.772zm130.04 11.407c1.5209-20.532-14.449-38.783-34.981-39.544h-4.5627c-22.053 0-39.544 18.251-39.544 40.304 0 21.293 17.49 38.783 39.544 39.544 20.532 0.76045 38.783-15.209 39.544-36.502v-3.8023zm-19.011 0c-0.76045 11.407-9.8859 19.772-21.293 19.011-11.407-0.76046-19.772-9.8859-19.011-21.293 0.76046-10.646 9.1255-19.011 19.772-19.011 10.646 0 19.772 8.365 19.772 19.011 0.76045 0.76046 0.76045 1.5209 0.76045 2.2814zm-310.27-38.783v19.011h-22.814v60.076h-19.011v-60.076h-22.814v-19.011zm371.86 18.251c-0.76046 5.3232-0.76046 10.646-1.5209 16.73-0.76046 6.0836-1.5209 11.407-2.2814 16.73-3.0418 15.97-11.407 25.856-27.376 26.616h-4.5627v-18.251c8.365 0 11.407-3.0418 12.928-11.407 0.76046-5.3232 2.2814-12.167 3.0418-19.772 0.76045-9.8859 1.5209-19.011 2.2814-28.897h58.555v78.327h-19.772v-60.076z" fill="#004d9f" stroke-width="7.6046"/>
<g id="g832" transform="scale(7.6046)" fill="#e60f2a">
	<path id="Path_7" d="m96.8 79.4v-10.3h4.4c0.5 0 0.9 0.1 1.4 0.2 0.4 0.1 0.8 0.3 1.1 0.6s0.5 0.6 0.7 0.9c0.2 0.4 0.2 0.8 0.2 1.2 0 0.5-0.1 1-0.4 1.5-0.1 0.2-0.2 0.3-0.4 0.5 0.2 0.1 0.3 0.2 0.5 0.4s0.3 0.4 0.5 0.7c0.1 0.2 0.2 0.5 0.3 0.7 0 0.2 0.1 0.5 0.1 0.7 0 0.8-0.4 1.7-1 2.2-0.3 0.3-0.7 0.5-1.1 0.6-0.4 0.2-0.9 0.2-1.3 0.2zm4.6-2.3c0.2 0 0.4 0 0.6-0.1 0.1-0.1 0.3-0.2 0.3-0.3 0.1-0.1 0.1-0.3 0.1-0.5s0-0.3-0.1-0.5c-0.1-0.1-0.2-0.3-0.3-0.3-0.2-0.1-0.4-0.1-0.6-0.1h-2.1v1.8zm-0.3-4c0.2 0 0.3 0 0.5-0.1l0.3-0.3c0.1-0.1 0.1-0.3 0.1-0.4s0-0.3-0.1-0.4l-0.3-0.3c-0.2-0.1-0.3-0.1-0.5-0.1h-1.8v1.7z"/>
	<path id="Path_8" d="m95 69.1v2.4h-3v7.9h-2.6v-7.9h-3v-2.4z"/>
</g>
</svg>
