<?xml version="1.0" encoding="UTF-8"?>
<!-- Generator: Adobe Illustrator 16.0.2, SVG Export Plug-In . SVG Version: 6.00 Build 0)  -->
<svg id="Layer_1" width="386.8" height="116.3" enable-background="new 0 0 388 117" version="1.1" viewBox="0 0 386.8 116.3" xml:space="preserve" xmlns="http://www.w3.org/2000/svg" xmlns:cc="http://creativecommons.org/ns#" xmlns:dc="http://purl.org/dc/elements/1.1/" xmlns:rdf="http://www.w3.org/1999/02/22-rdf-syntax-ns#"><metadata id="metadata37"><rdf:RDF><cc:Work rdf:about=""><dc:format>image/svg+xml</dc:format><dc:type rdf:resource="http://purl.org/dc/dcmitype/StillImage"/><dc:title/></cc:Work></rdf:RDF></metadata><g id="g30" transform="translate(-1.195 -.35)" fill="#c6a160"><path id="path2" d="m348.5 66.57-0.998-2.737h-6.93l-1.026 2.737h-3.937l6.275-16.198h4.306l6.246 16.198zm-4.448-12.747-2.51 6.958h5.048z"/><path id="path4" d="m273.35 66.57v-16.198h13.432v3.023h-9.981v13.148h-3.45v0.027z"/><path id="path6" d="m305.86 66.57v-16.198h7.586c3.508 0 5.447 2.367 5.447 5.219 0 2.823-1.939 5.219-5.447 5.219h-4.136v5.76zm9.496-10.979c0-1.369-1.026-2.196-2.367-2.196h-3.679v4.363h3.679c1.341 0.029 2.367-0.826 2.367-2.167z"/><path id="path8" d="m385.38 63.548-5.077-13.148h-4.334l-5.076 13.147h-2.625v3.022h19.736v-3.022h-2.624zm-10.638 0 3.365-9.411 3.394 9.411z"/><path id="path10" d="m47.91 66-0.998-2.737h-6.93l-1.027 2.737h-3.936l6.274-16.198h4.335l6.246 16.198zm-4.478-12.748-2.509 6.958h5.048z"/><path id="path12" d="m69.527 66v-16.198h7.558c3.508 0 5.447 2.367 5.447 5.219 0 2.824-1.939 5.22-5.447 5.22h-4.135v5.759zm9.497-10.951c0-1.369-1.026-2.196-2.367-2.196h-3.651v4.364h3.651c1.341 0 2.367-0.856 2.367-2.168z"/><path id="path14" d="m104.29 49.83v5.761h4.135c3.508 0 5.447 2.396 5.447 5.219 0 2.852-1.911 5.219-5.447 5.219h-7.586v-16.199zm0 8.784v4.363h3.65c1.369 0 2.367-0.827 2.367-2.196 0-1.34-1.027-2.196-2.367-2.196h-3.65z"/><polygon id="polygon16" points="15.769 62.978 15.769 49.83 12.29 49.83 12.29 62.978 4.646 62.978 4.646 49.83 1.195 49.83 1.195 66 13.772 66 19.191 66 19.191 62.978"/><rect id="rect18" x="153.2" y="18.031" width="16.199" height="16.199"/><rect id="rect20" x="153.2" y="82.77" width="16.199" height="16.199"/><rect id="rect22" x="217.97" y="18.031" width="16.199" height="16.199"/><rect id="rect24" x="217.97" y="82.77" width="16.199" height="16.199"/><polygon id="polygon26" points="201.77 0.35 185.6 0.35 185.6 50.4 135.04 50.4 135.04 66.6 185.6 66.6 185.6 116.65 201.77 116.65 201.77 66.6 252.33 66.6 252.33 50.4 201.77 50.4"/><rect id="rect28" x="185.6" y="50.4" width="16.199" height="16.199"/></g></svg>
