<?xml version="1.0" encoding="UTF-8"?>
<!-- Created with Inkscape (http://www.inkscape.org/) -->
<svg id="svg6409" width="211.67mm" height="56.701mm" version="1.1" viewBox="0 0 211.67 56.701" xmlns="http://www.w3.org/2000/svg" xmlns:cc="http://creativecommons.org/ns#" xmlns:dc="http://purl.org/dc/elements/1.1/" xmlns:rdf="http://www.w3.org/1999/02/22-rdf-syntax-ns#">
 <metadata id="metadata6406">
  <rdf:RDF>
   <cc:Work rdf:about="">
    <dc:format>image/svg+xml</dc:format>
    <dc:type rdf:resource="http://purl.org/dc/dcmitype/StillImage"/>
    <dc:title/>
   </cc:Work>
  </rdf:RDF>
 </metadata>
 <g id="layer1" transform="translate(27.009 -94.811)">
  <path id="path668" d="m-27.009 151.51h179.81c17.518 0 31.855-14.337 31.855-31.858v-24.843h-179.81c-17.518 0-31.855 14.333-31.855 31.855z" fill="#f2582b"/>
  <path id="path672" d="m39.652 146.43h110.84c15.528 0 28.233-12.705 28.233-28.237v-18.302h-139.08zm-45.971-8.1354h6.5113v-23.085h6.8473l10.566 23.085h5.0291l13.067-28.543h-6.5113l-9.0688 19.806-9.0688-19.806h-24.843v5.4584h7.4708z" fill="#fff"/>
  <path id="path676" d="m43.996 138.3h6.5151v-17.94c5.5107-9.6811 13.392-5.3688 13.392-0.40639v18.347h6.5151v-17.275c5.5219-10.536 13.758-6.1417 13.758-1.0716v18.347h6.5113v-20.684c0-7.1647-12.855-12.926-21.778-4.1554-3.3378-4.3646-11.604-6.5599-18.399-1.5943v-2.1095h-6.5151zm75.295 0h6.5113v-28.543h-6.5113v2.509c-2.8562-2.1505-6.5225-3.4461-10.517-3.4461-9.1024 0-16.487 6.7093-16.487 14.979 0 8.2735 7.385 14.979 16.487 14.979 3.9949 0 7.6613-1.2955 10.517-3.446zm-10.517-24.04c5.7982 0 10.499 4.2712 10.499 9.5393s-4.7006 9.5393-10.499 9.5393c-5.8019 0-10.499-4.2712-10.499-9.5393s4.6968-9.5393 10.499-9.5393m45.262 24.04h9.6251v-5.4137h-9.6251v-23.129h-6.5113v22.457c0 3.3527 3.3079 6.0857 6.5113 6.0857m-17.734 0h9.6214v-5.4137h-9.6214v-23.129h-6.5151v22.457c0 3.3527 3.3079 6.0857 6.5151 6.0857" fill="#f2582b"/>
 </g>
</svg>
