<svg id="a" width="958.08pt" height="484.93pt" version="1.1" viewBox="0 0 958.08 484.93" xmlns="http://www.w3.org/2000/svg">
 <g id="b" transform="translate(-21.01,-7.42)" fill="#ed920d">
  <path id="c" d="m21.01 7.44c48.13 3.38 95.03 21.75 132.76 51.79 11.76 9.3 22.63 19.71 32.49 30.99 23.4-26.77 52.62-48.46 85.17-62.8 25.3-11.22 52.575-17.98 80.185-20v120.21c-30.75 4.41-59.465 21.05-78.705 45.42-17.35 21.61-27.03 49.24-26.8 76.97-0.19 28.91 10.44 57.68 29.22 79.64 19.17 22.79 46.785 38.25 76.285 42.48v120.21c-36.71-2.65-72.775-13.82-104.52-32.45-22.84-13.33-43.41-30.47-60.84-50.34-34.4 39.6-81.87 67.68-133.28 78.28-10.54 2.22-21.22 3.7-31.96 4.51v-120.24c30.53-4.34 59.02-20.81 78.24-44.89 16.28-20.06 25.91-45.37 27.08-71.18 1.67-30.59-8.64-61.63-28.38-85.08-19.19-23.21-47.09-39.05-76.94-43.3z"/>
  <path id="d" d="m387.63 7.44c51.53 3.59 101.62 24.44 140.64 58.27 8.8 7.56 17.01 15.8 24.67 24.51 22.79-26.09 51.11-47.34 82.66-61.69 26.01-11.86 54.135-19.05 82.645-21.09v120.21c-35.4 4.98-67.895 26.43-86.725 56.75-18.93 29.76-23.81 67.81-13.46 101.47 8.96 29.85 29.83 55.82 56.88 71.26 13.31 7.67 28.095 12.76 43.305 14.99v120.22c-38.09-2.73-75.465-14.68-108.06-34.57-21.41-13-40.76-29.37-57.24-48.23-22.91 26.31-51.51 47.64-83.31 61.99-25.83 11.7-53.72 18.78-82 20.81v-120.22c33.96-4.79 65.3-24.68 84.38-53.13 13.95-20.45 21.39-45.21 21.13-69.96-0.05-26.53-9.06-52.92-25.24-73.95-19.24-25.44-48.65-42.94-80.27-47.43z"/>
  <path id="e" d="m754.26 7.44c37.56 2.66 74.43 14.32 106.71 33.7 30.56 18.27 57.01 43.35 76.91 72.87 27.42 40.67 42.5 89.86 41.12 138.98v237.26h-119.12v-236.24c0.04-9.4-0.515-18.84-2.375-28.07-5.58-29.05-22.25-55.7-45.64-73.73-16.66-12.99-36.71-21.51-57.6-24.57v-120.19m182.62 234.07v19.36h28.985v-19.36h-28.985m0 36.125v19.235h28.985v-19.235h-28.985m0 36.125v19.23h28.985v-19.23h-28.985m0 36.12v19.235h28.985v-19.235h-28.985m0 36.13v19.23h28.985v-19.23h-28.985m0 36v19.355h28.985v-19.355h-28.985m0 36.12v19.36h28.985v-19.36z"/>
 </g>
</svg>
