<?xml version="1.0" encoding="UTF-8"?>
<svg id="svg92" width="1135.2" height="389" enable-background="new 0 0 595.28 202.996" Googl="true" version="1.1" viewBox="0 0 1135.2 389" xml:space="preserve" xmlns="http://www.w3.org/2000/svg" xmlns:cc="http://creativecommons.org/ns#" xmlns:dc="http://purl.org/dc/elements/1.1/" xmlns:rdf="http://www.w3.org/1999/02/22-rdf-syntax-ns#" xmlns:xlink="http://www.w3.org/1999/xlink"><metadata id="metadata98"><rdf:RDF><cc:Work rdf:about=""><dc:format>image/svg+xml</dc:format><dc:type rdf:resource="http://purl.org/dc/dcmitype/StillImage"/><dc:title/></cc:Work></rdf:RDF></metadata><defs id="defs96"><linearGradient id="linearGradient4581" x1="211.49" x2="513.49" y1="105.16" y2="105.16" gradientTransform="matrix(1.9163 0 0 1.9163 -2.7772 2.5782e-6)" gradientUnits="userSpaceOnUse"><stop id="stop81" stop-color="#368EC0" offset="0"/><stop id="stop83" stop-color="#0C375A" offset="1"/></linearGradient><clipPath id="clipPath16628"><path id="path16626" d="m0 0h595.28v907.09h-595.28z"/></clipPath></defs><circle id="circle2" cx="194.5" cy="194.5" r="194.5" fill="#fff" stroke-width="1.9163"/><linearGradient id="j" x1="162.58" x2="162.61" y1="183.59" y2="183.59" gradientUnits="userSpaceOnUse"><stop id="stop4" stop-color="#3992C4" offset="0"/><stop id="stop6" stop-color="#0C375A" offset="1"/></linearGradient><polygon id="polygon9" transform="matrix(1.9163 0 0 1.9163 -2.7772 2.5782e-6)" points="162.61 183.61 162.6 183.58 162.58 183.59" fill="url(#j)"/><linearGradient id="i" x1="43.283" x2="43.305" y1="183.61" y2="183.61" gradientUnits="userSpaceOnUse"><stop id="stop11" stop-color="#3992C4" offset="0"/><stop id="stop13" stop-color="#0C375A" offset="1"/></linearGradient><polygon id="polygon16" transform="matrix(1.9163 0 0 1.9163 -2.7772 2.5782e-6)" points="43.283 183.63 43.305 183.61 43.291 183.6" fill="url(#i)"/><linearGradient id="h" x1="152.43" x2="186.33" y1="115.22" y2="129.03" gradientTransform="matrix(1.9163 0 0 1.9163 -2.7772 2.5782e-6)" gradientUnits="userSpaceOnUse"><stop id="stop18" stop-color="#368EC0" offset="0"/><stop id="stop20" stop-color="#0C375A" offset="1"/></linearGradient><path id="path23" d="m265.15 217.46 43.643 134.32c32.115-23.298 57.426-56.593 70.624-97.214 13.195-40.613 12.293-82.418 0.0115-120.14z" fill="url(#h)" stroke-width="1.9163"/><linearGradient id="g" x1="102.94" x2="102.94" y1="200.87" y2="146.76" gradientTransform="matrix(1.9163 0 0 1.9163 -2.7772 2.5782e-6)" gradientUnits="userSpaceOnUse"><stop id="stop25" stop-color="#368EC0" offset="0"/><stop id="stop27" stop-color="#0C375A" offset="1"/></linearGradient><path id="path30" d="m80.206 351.84c16.097 11.687 34.265 21.094 54.205 27.573 61.5 19.983 125.74 7.6554 174.37-27.609l-114.26-83.014z" fill="url(#g)" stroke-width="1.9163"/><linearGradient id="f" x1="31.961" x2="44.198" y1="111.26" y2="145.35" gradientTransform="matrix(1.9163 0 0 1.9163 -2.7772 2.5782e-6)" gradientUnits="userSpaceOnUse"><stop id="stop32" stop-color="#368EC0" offset="0"/><stop id="stop34" stop-color="#0C375A" offset="1"/></linearGradient><path id="path37" d="m9.5616 134.42c-26.692 82.177 4.2924 169.24 70.618 217.42l43.662-134.38-114.28-83.029z" fill="url(#f)" stroke-width="1.9163"/><linearGradient id="e" x1="157.61" x2="116.53" y1="29.609" y2="64.573" gradientTransform="matrix(1.9163 0 0 1.9163 -2.7772 2.5782e-6)" gradientUnits="userSpaceOnUse"><stop id="stop39" stop-color="#368EC0" offset="0"/><stop id="stop41" stop-color="#0C375A" offset="1"/></linearGradient><path id="path44" d="m379.42 134.38c-18.615-57.114-63.336-104.85-124.84-124.83-19.948-6.4808-40.184-9.5506-60.082-9.5545l43.664 134.38z" fill="url(#e)" stroke-width="1.9163"/><linearGradient id="d" x1="77.617" x2="46.441" y1="70.411" y2="22.336" gradientTransform="matrix(1.9163 0 0 1.9163 -2.7772 2.5782e-6)" gradientUnits="userSpaceOnUse"><stop id="stop46" stop-color="#368EC0" offset="0"/><stop id="stop48" stop-color="#0C375A" offset="1"/></linearGradient><path id="path51" d="m194.49 2.5782e-6c-81.974-0.0134-158.21 52.208-184.92 134.38h141.26z" fill="url(#d)" stroke-width="1.9163"/><linearGradient id="c" x1="102.94" x2="102.94" y1="-28.016" y2="56.392" gradientTransform="matrix(1.9163 0 0 1.9163 -2.7772 2.5782e-6)" gradientUnits="userSpaceOnUse"><stop id="stop53" stop-color="#fff" offset="0"/><stop id="stop55" stop-color="#fff" stop-opacity="0" offset="1"/></linearGradient><path id="path58" d="m194.48 10.863c-101.25 0-183.63 82.376-183.63 183.63 0 101.26 82.376 183.63 183.63 183.63 101.26 0 183.63-82.376 183.63-183.63 0-101.26-82.378-183.63-183.63-183.63zm0 334.67c-83.284 0-151.04-67.757-151.04-151.04 0-83.284 67.757-151.04 151.04-151.04 83.284 0 151.04 67.757 151.04 151.04 0 83.284-67.757 151.04-151.04 151.04z" fill="url(#c)" opacity=".3" stroke-width="1.9163"/><path id="path65" d="m459.73 161.53h-40.943v-27.295h111.49v27.295h-40.943v107.26h-29.602z" fill="url(#linearGradient4581)" stroke-width="1.9163"/><linearGradient id="l" x1="211.49" x2="513.49" y1="105.41" y2="105.41" gradientTransform="matrix(1.9163 0 0 1.9163 -2.7772 2.5782e-6)" gradientUnits="userSpaceOnUse"><stop id="stop67" stop-color="#368EC0" offset="0"/><stop id="stop69" stop-color="#0C375A" offset="1"/></linearGradient><path id="path72" d="m533.93 134.24h32.678l35.177 94.765 35.177-94.765h31.908l-54.399 135.52h-26.143z" fill="url(#l)" stroke-width="1.9163"/><linearGradient id="k" x1="211.49" x2="513.49" y1="104.91" y2="104.91" gradientTransform="matrix(1.9163 0 0 1.9163 -2.7772 2.5782e-6)" gradientUnits="userSpaceOnUse"><stop id="stop74" stop-color="#368EC0" offset="0"/><stop id="stop76" stop-color="#0C375A" offset="1"/></linearGradient><path id="path79" d="m730.84 163.26-23.451 5.766-6.1512-24.22 38.636-11.534h20.184v135.52h-29.217z" fill="url(#k)" stroke-width="1.9163"/><path id="path86" d="m766.6 201.9v-0.38516c0-39.021 24.22-69.585 59.973-69.585 35.562 0 59.59 30.179 59.59 69.2v0.38517c0 39.021-24.028 69.585-59.973 69.585-35.947 0-59.59-30.179-59.59-69.2zm89.19 0v-0.38516c0-24.413-11.917-42.867-29.6-42.867s-29.219 17.877-29.219 42.481v0.38517c0 24.605 11.726 42.865 29.602 42.865s29.217-18.068 29.217-42.48z" fill="url(#linearGradient4581)" stroke-width="1.9163"/><path id="path88" d="m892.06 201.9v-0.38516c0-39.021 24.22-69.585 59.973-69.585 35.562 0 59.59 30.179 59.59 69.2v0.38517c0 39.021-24.028 69.585-59.973 69.585-35.947 0-59.59-30.179-59.59-69.2zm89.19 0v-0.38516c0-24.413-11.917-42.867-29.6-42.867-17.685 0-29.219 17.877-29.219 42.481v0.38517c0 24.605 11.726 42.865 29.602 42.865s29.217-18.068 29.217-42.48z" fill="url(#linearGradient4581)" stroke-width="1.9163"/><path id="path90" d="m1015.6 201.9v-0.38516c0-39.021 24.22-69.585 59.973-69.585 35.562 0 59.59 30.179 59.59 69.2v0.38517c0 39.021-24.028 69.585-59.973 69.585-35.949 0-59.59-30.179-59.59-69.2zm89.188 0v-0.38516c0-24.413-11.917-42.867-29.6-42.867s-29.219 17.877-29.219 42.481v0.38517c0 24.605 11.726 42.865 29.602 42.865s29.217-18.068 29.217-42.48z" fill="url(#linearGradient4581)" stroke-width="1.9163"/><g id="g26876" transform="matrix(8.7197 0 0 -11.173 -1998.4 5499.4)" fill="#fff"><g id="g16612" transform="translate(236.1 482.49)"><path id="path16614" d="m0 0h0.357l-1.097-1.866h-0.36l-0.991 1.866h0.418l0.774-1.536z" fill="#fff"/></g><path id="path16616" d="m236.68 480.63h0.348v1.867h-0.348z"/><g id="g16618" transform="translate(239.45 480.63)"><path id="path16620" d="m0 0-0.241 0.486h-1.157l-0.275-0.486h-0.426l1.116 1.866h0.425l0.968-1.866zm-1.221 0.801h0.825l-0.387 0.777z" fill="#fff"/></g><g id="g16622"><g id="g16624" clip-path="url(#clipPath16628)" fill="#fff"><g id="g16630" transform="translate(241.77 482)" fill="#fff"><path id="path16632" d="m0 0c-0.14 0.111-0.515 0.209-0.835 0.209-0.291 0-0.542-0.087-0.542-0.288 0-0.339 1.544 0.026 1.544-0.688 0-0.349-0.344-0.671-0.979-0.671-0.634 0-0.941 0.217-1.054 0.338l0.235 0.262c0.262-0.217 0.55-0.278 0.812-0.278 0.269 0 0.61 0.069 0.61 0.297 0 0.444-1.562-0.027-1.562 0.74 0 0.375 0.428 0.61 0.978 0.61 0.468 0 0.817-0.148 0.983-0.261z" fill="#fff"/></g></g></g><g id="g16634" transform="translate(244.06 480.63)"><path id="path16636" d="m0 0-0.241 0.486h-1.157l-0.275-0.486h-0.426l1.116 1.866h0.425l0.968-1.866zm-1.221 0.801h0.825l-0.386 0.777z" fill="#fff"/></g><g id="g16638" transform="translate(246.16 482.17)"><path id="path16640" d="m0 0h-0.769v-1.541h-0.349v1.541h-0.748v0.315h1.866z" fill="#fff"/></g></g></svg>
