<?xml version="1.0" encoding="UTF-8"?>
<svg id="svg156" width="800" height="251.54" version="1.1" viewBox="0 0 800 251.54" xmlns="http://www.w3.org/2000/svg" xmlns:cc="http://creativecommons.org/ns#" xmlns:dc="http://purl.org/dc/elements/1.1/" xmlns:rdf="http://www.w3.org/1999/02/22-rdf-syntax-ns#" xmlns:xlink="http://www.w3.org/1999/xlink">
 <metadata id="metadata160">
  <rdf:RDF>
   <cc:Work rdf:about="">
    <dc:format>image/svg+xml</dc:format>
    <dc:type rdf:resource="http://purl.org/dc/dcmitype/StillImage"/>
    <dc:title>TV1000Premium_Color</dc:title>
   </cc:Work>
  </rdf:RDF>
 </metadata>
 <defs id="defs76">
  <style id="style2">.cls-1{fill:none;}.cls-2{isolation:isolate;}.cls-3{fill:#bbbdc0;}.cls-4{clip-path:url(#clip-path);}.cls-5{fill:url(#linear-gradient);}.cls-6{clip-path:url(#clip-path-2);}.cls-7{fill:url(#linear-gradient-2);}.cls-8{clip-path:url(#clip-path-3);}.cls-9{fill:url(#linear-gradient-3);}.cls-10{clip-path:url(#clip-path-4);}.cls-11{fill:url(#linear-gradient-4);}.cls-12{clip-path:url(#clip-path-5);}.cls-13{fill:url(#linear-gradient-5);}.cls-14{mix-blend-mode:overlay;fill:url(#linear-gradient-6);}.cls-15{fill:url(#linear-gradient-7);}.cls-16{fill:url(#linear-gradient-8);}.cls-17{fill:url(#linear-gradient-9);}.cls-18{fill:url(#linear-gradient-10);}.cls-19{fill:url(#linear-gradient-11);}.cls-20{fill:url(#linear-gradient-12);}.cls-21{fill:url(#linear-gradient-13);}.cls-22{fill:url(#linear-gradient-14);}.cls-23{fill:url(#linear-gradient-15);}.cls-24{fill:url(#linear-gradient-16);}.cls-25{fill:url(#linear-gradient-17);}.cls-26{fill:url(#linear-gradient-18);}.cls-27{fill:url(#linear-gradient-19);}.cls-28{fill:#fff;}</style>
  <clipPath id="clip-path">
   <path id="path4" class="cls-1" d="m16 21.94h-8.54l1.88 5.58s5.45 1.84 5.42 1.89l1.62-3z" fill="none"/>
  </clipPath>
  <linearGradient id="linear-gradient" x1="10.82" x2="14.43" y1="23.91" y2="27.87" gradientUnits="userSpaceOnUse">
   <stop id="stop7" stop-color="#58030c" offset=".27"/>
   <stop id="stop9" stop-color="#e94c5a" offset="1"/>
  </linearGradient>
  <clipPath id="clip-path-2">
   <path id="path12" class="cls-1" d="m16 21.81 9.44 0.24-1.59 5.37s-9.07 1.94-9.1 2l1.62-3z" fill="none"/>
  </clipPath>
  <linearGradient id="linear-gradient-2" x1="12.02" x2="20.24" y1="34.62" y2="24.83" gradientUnits="userSpaceOnUse">
   <stop id="stop15" stop-color="#710f12" offset=".69"/>
   <stop id="stop17" stop-color="#e03d4c" offset=".98"/>
  </linearGradient>
  <clipPath id="clip-path-3">
   <path id="path20" class="cls-1" d="m24.11 38.82 1.34-16.77-1.2 5.27s-9.46 2-9.49 2.09 6 6.41 6 6.41z" fill="none"/>
  </clipPath>
  <linearGradient id="linear-gradient-3" x1="22.95" x2="18.3" y1="33.66" y2="30.98" gradientUnits="userSpaceOnUse">
   <stop id="stop23" stop-color="#710f12" offset=".31"/>
   <stop id="stop25" stop-color="#ef5462" offset=".84"/>
  </linearGradient>
  <clipPath id="clip-path-4">
   <path id="path28" class="cls-1" d="m24.11 38.82-2.8-1.88-3.19-4.57s-3.33-3-3.36-3l-3.61 8.32z" fill="none"/>
  </clipPath>
  <linearGradient id="linear-gradient-4" x1="-323.81" x2="-323.81" y1="5.51" y2="10.87" gradientTransform="rotate(187.41 -153.31 10.56)" gradientUnits="userSpaceOnUse">
   <stop id="stop31" stop-color="#ef505e" offset=".34"/>
   <stop id="stop33" stop-color="#6c0d0f" offset="1"/>
  </linearGradient>
  <clipPath id="clip-path-5">
   <path id="path36" class="cls-1" d="m8.28 36.23-0.51-6.79 1.11-2.07s5.91 2 5.88 2l-3.42 7.92z" fill="none"/>
  </clipPath>
  <linearGradient id="linear-gradient-5" x1="15.58" x2="16.55" y1="26.63" y2="32.14" gradientTransform="rotate(7.41 16.115 29.739)" gradientUnits="userSpaceOnUse">
   <stop id="stop39" stop-color="#f05b69" offset=".43"/>
   <stop id="stop41" stop-color="#38000d" offset="1"/>
  </linearGradient>
  <linearGradient id="linear-gradient-6" x1="13.53" x2="18.72" y1="24.16" y2="35.29" gradientTransform="matrix(19.665 0 0 19.665 -191.52 -458.78)" gradientUnits="userSpaceOnUse">
   <stop id="stop44" stop-color="#f1abaa" offset="0"/>
   <stop id="stop46" stop-color="#f1abaa" stop-opacity=".88" offset=".04"/>
   <stop id="stop48" stop-color="#f1abaa" stop-opacity=".57" offset=".13"/>
   <stop id="stop50" stop-color="#f1abaa" stop-opacity=".07" offset=".26"/>
   <stop id="stop52" stop-color="#f1abaa" stop-opacity="0" offset=".28"/>
  </linearGradient>
  <linearGradient id="linear-gradient-7" x1="21.02" x2="48.53" y1="36.5" y2="9" gradientUnits="userSpaceOnUse">
   <stop id="stop55" stop-color="#d01c52" offset=".16"/>
   <stop id="stop57" stop-color="#b31745" offset=".27"/>
   <stop id="stop59" stop-color="#690924" offset=".51"/>
   <stop id="stop61" stop-color="#3a000f" offset=".66"/>
  </linearGradient>
  <linearGradient id="linear-gradient-8" x1="30.04" x2="57.55" y1="45.52" y2="18.02" gradientTransform="matrix(19.665 0 0 19.665 -191.52 -458.78)" xlink:href="#linear-gradient-7"/>
  <linearGradient id="linear-gradient-9" x1="32.28" x2="59.79" y1="47.76" y2="20.26" gradientTransform="matrix(19.665 0 0 19.665 -191.52 -458.78)" xlink:href="#linear-gradient-7"/>
  <linearGradient id="linear-gradient-10" x1="27.8" x2="55.31" y1="43.28" y2="15.78" gradientTransform="matrix(19.665 0 0 19.665 -191.52 -458.78)" xlink:href="#linear-gradient-7"/>
  <linearGradient id="linear-gradient-11" x1="23.22" x2="50.72" y1="38.7" y2="11.19" xlink:href="#linear-gradient-7"/>
  <linearGradient id="linear-gradient-12" x1="26.18" x2="53.68" y1="41.66" y2="14.15" xlink:href="#linear-gradient-7"/>
  <linearGradient id="linear-gradient-13" x1="26.66" x2="54.16" y1="42.14" y2="14.63" xlink:href="#linear-gradient-7"/>
  <linearGradient id="linear-gradient-14" x1="24.09" x2="51.59" y1="39.57" y2="12.06" gradientTransform="matrix(19.665 0 0 19.665 -191.52 -458.78)" xlink:href="#linear-gradient-7"/>
  <linearGradient id="linear-gradient-15" x1="22.96" x2="50.47" y1="38.44" y2="10.94" xlink:href="#linear-gradient-7"/>
  <linearGradient id="linear-gradient-16" x1="18.4" x2="45.9" y1="33.88" y2="6.37" gradientTransform="matrix(19.665 0 0 19.665 -191.52 -458.78)" xlink:href="#linear-gradient-7"/>
  <linearGradient id="linear-gradient-17" x1="24.93" x2="52.44" y1="40.41" y2="12.91" gradientTransform="matrix(19.665 0 0 19.665 -191.52 -458.78)" xlink:href="#linear-gradient-7"/>
  <linearGradient id="linear-gradient-18" x1="20.14" x2="47.65" y1="35.62" y2="8.12" gradientTransform="matrix(19.665 0 0 19.665 -191.52 -458.78)" xlink:href="#linear-gradient-7"/>
  <linearGradient id="linear-gradient-19" x1="21.48" x2="48.99" y1="36.96" y2="9.46" xlink:href="#linear-gradient-7"/>
  <linearGradient id="linearGradient969" x1="21.02" x2="48.53" y1="36.5" y2="9" gradientUnits="userSpaceOnUse" xlink:href="#linear-gradient-7"/>
  <clipPath id="clipPath16628-3">
   <path id="path16626-3" d="m0 0h595.28v907.09h-595.28z"/>
  </clipPath>
 </defs>
 <title id="title78">TV1000Premium_Color</title>
 <g id="g84" class="cls-4" transform="matrix(19.665 0 0 19.665 -191.52 -458.78)" clip-path="url(#clip-path)" style="isolation:isolate">
  <circle id="circle82" class="cls-5" cx="16.13" cy="29.73" r="6.39" fill="url(#linear-gradient)"/>
 </g>
 <g id="g88" class="cls-6" transform="matrix(19.665 0 0 19.665 -191.52 -458.78)" clip-path="url(#clip-path-2)" style="isolation:isolate">
  <circle id="circle86" class="cls-7" cx="16.13" cy="29.73" r="6.39" fill="url(#linear-gradient-2)"/>
 </g>
 <g id="g92" class="cls-8" transform="matrix(19.665 0 0 19.665 -191.52 -458.78)" clip-path="url(#clip-path-3)" style="isolation:isolate">
  <circle id="circle90" class="cls-9" cx="16.13" cy="29.73" r="6.39" fill="url(#linear-gradient-3)"/>
 </g>
 <g id="g96" class="cls-10" transform="matrix(19.665 0 0 19.665 -191.52 -458.78)" clip-path="url(#clip-path-4)" style="isolation:isolate">
  <circle id="circle94" class="cls-11" transform="rotate(-7.41 16.141 29.734)" cx="16.13" cy="29.73" r="6.39" fill="url(#linear-gradient-4)"/>
 </g>
 <g id="g100" class="cls-12" transform="matrix(19.665 0 0 19.665 -191.52 -458.78)" clip-path="url(#clip-path-5)" style="isolation:isolate">
  <circle id="circle98" class="cls-13" transform="rotate(-7.41 16.141 29.734)" cx="16.13" cy="29.73" r="6.39" fill="url(#linear-gradient-5)"/>
 </g>
 <path id="RING" class="cls-14" d="m232.25 125.85a106.78 106.78 0 1 1-106.58-106.78 106.58 106.58 0 0 1 106.58 106.78zm-106.58-120.74a120.74 120.74 0 1 0 120.74 120.74 120.74 120.74 0 0 0-120.74-120.74z" fill="url(#linear-gradient-6)" stroke-width="19.665" style="isolation:isolate;mix-blend-mode:overlay"/>
 <g id="g917">
  <polygon id="polygon109" class="cls-15" transform="matrix(19.665 0 0 19.665 -191.52 -458.78)" points="25.96 34.18 27.02 34.18 27.02 30.33 28.49 30.33 28.49 29.36 24.49 29.36 24.49 30.33 25.96 30.33" fill="url(#linearGradient969)" style="isolation:isolate"/>
  <path id="path111" class="cls-16" d="m700.07 200.97a52.308 52.308 0 0 0 11.799-35.003 52.505 52.505 0 0 0-11.799-34.806 39.329 39.329 0 0 0-60.764 0 52.308 52.308 0 0 0-11.799 35.003 53.291 53.291 0 0 0 11.602 35.003 40.509 40.509 0 0 0 60.96 0zm-51.128-35.003a37.756 37.756 0 0 1 5.1128-21.828 17.108 17.108 0 0 1 14.945-8.4558 17.305 17.305 0 0 1 14.945 8.6524 37.363 37.363 0 0 1 5.8994 21.631 39.329 39.329 0 0 1-5.7028 21.631 17.305 17.305 0 0 1-14.945 8.4558 17.698 17.698 0 0 1-15.142-8.6524 39.329 39.329 0 0 1-5.1128-21.434z" fill="url(#linear-gradient-8)" stroke-width="19.665" style="isolation:isolate"/>
  <path id="path113" class="cls-17" d="m757.88 116.81a37.953 37.953 0 0 0-30.48 14.159 52.308 52.308 0 0 0-11.799 35.003 52.308 52.308 0 0 0 11.799 35.003 39.329 39.329 0 0 0 60.764 0 52.308 52.308 0 0 0 11.799-35.003 53.488 53.488 0 0 0-11.602-34.806 39.329 39.329 0 0 0-30.48-14.355zm19.665 49.358a39.329 39.329 0 0 1-5.5061 21.631 17.698 17.698 0 0 1-15.142 8.4558 17.305 17.305 0 0 1-14.945-8.6524 37.363 37.363 0 0 1-5.8994-21.631 37.756 37.756 0 0 1 5.7027-21.434 17.502 17.502 0 0 1 14.945-8.4558 17.895 17.895 0 0 1 15.142 8.6524 39.329 39.329 0 0 1 5.7027 21.631z" fill="url(#linear-gradient-9)" stroke-width="19.665" style="isolation:isolate"/>
  <path id="path115" class="cls-18" d="m611.97 200.97a52.308 52.308 0 0 0 11.799-35.003 52.505 52.505 0 0 0-11.799-34.806 39.329 39.329 0 0 0-60.764 0 52.308 52.308 0 0 0-11.799 35.003 53.291 53.291 0 0 0 11.602 35.003 40.509 40.509 0 0 0 60.96 0zm-51.128-35.003a36.183 36.183 0 0 1 5.7027-21.434 16.912 16.912 0 0 1 14.945-8.4558 17.698 17.698 0 0 1 14.945 8.6524 37.363 37.363 0 0 1 5.8994 21.631 39.329 39.329 0 0 1-5.7027 21.631 17.305 17.305 0 0 1-14.945 8.4558 17.698 17.698 0 0 1-15.142-8.6524 39.329 39.329 0 0 1-5.7027-21.828z" fill="url(#linear-gradient-10)" stroke-width="19.665" style="isolation:isolate"/>
  <polygon id="polygon117" class="cls-19" transform="matrix(19.665 0 0 19.665 -191.52 -458.78)" points="33.53 29.36 32.38 29.36 31.12 32.75 29.86 29.36 28.69 29.36 30.64 34.22 31.58 34.22" fill="url(#linear-gradient-11)" style="isolation:isolate"/>
  <polygon id="polygon119" class="cls-20" transform="matrix(19.665 0 0 19.665 -191.52 -458.78)" points="36.93 34.18 36.93 29.32 36.21 29.32 34.82 29.73 35.05 30.6 35.89 30.4 35.89 34.18" fill="url(#linear-gradient-12)" style="isolation:isolate"/>
  <polygon id="polygon125" class="cls-21" transform="matrix(19.665 0 0 19.665 -191.52 -458.78)" points="41.45 28.14 42.26 26.91 42.26 28.79 42.88 28.79 42.88 25.91 42.2 25.91 41.45 27.13 40.69 25.91 40.01 25.91 40.01 28.79 40.63 28.79 40.63 26.92 41.43 28.14" fill="url(#linear-gradient-13)" style="isolation:isolate"/>
  <rect id="rect127" class="cls-22" x="516.21" y="50.735" width="12.389" height="56.634" fill="url(#linear-gradient-14)" stroke-width="19.665" style="isolation:isolate"/>
  <polygon id="polygon129" class="cls-23" transform="matrix(19.665 0 0 19.665 -191.52 -458.78)" points="33.24 28.79 33.24 26.92 34.04 28.14 34.06 28.14 34.87 26.91 34.87 28.79 35.5 28.79 35.5 25.91 34.81 25.91 34.06 27.13 33.3 25.91 32.62 25.91 32.62 28.79" fill="url(#linear-gradient-15)" style="isolation:isolate"/>
  <path id="path131" class="cls-24" d="m312.28 90.261a25.171 25.171 0 0 0 16.518-5.1128 18.091 18.091 0 0 0 6.4893-14.748 19.665 19.665 0 0 0-5.8994-14.159 23.008 23.008 0 0 0-15.928-5.3095h-23.008v56.634h12.389v-17.108zm-9.439-28.317h9.6357a11.995 11.995 0 0 1 7.4726 2.1631 8.2591 8.2591 0 0 1 2.5564 6.4893 7.8659 7.8659 0 0 1-2.5564 6.096 10.422 10.422 0 0 1-7.2759 2.3598h-9.8323z" fill="url(#linear-gradient-16)" stroke-width="19.665" style="isolation:isolate"/>
  <path id="path133" class="cls-25" d="m537.05 50.735v32.25a25.564 25.564 0 0 0 6.4893 19.665 24.974 24.974 0 0 0 18.091 6.2927 24.581 24.581 0 0 0 18.091-6.4893 24.974 24.974 0 0 0 6.686-19.665v-32.053h-12.585v32.447a14.355 14.355 0 0 1-3.1463 10.029 11.602 11.602 0 0 1-9.0457 3.5396 11.209 11.209 0 0 1-8.8491-3.5396 15.338 15.338 0 0 1-3.343-10.422v-32.053z" fill="url(#linear-gradient-17)" stroke-width="19.665" style="isolation:isolate"/>
  <path id="path135" class="cls-26" d="m389.96 69.613a18.091 18.091 0 0 0-4.7195-12.979 23.008 23.008 0 0 0-16.518-5.7028h-25.957v56.634h12.585v-18.091h9.6357l12.192 18.091h14.552l-13.765-19.665a17.108 17.108 0 0 0 11.995-18.288zm-12.585 0a7.4726 7.4726 0 0 1-2.5564 5.8994 10.226 10.226 0 0 1-6.8826 2.1631h-12.585v-16.322h12.192a11.405 11.405 0 0 1 7.2759 2.1631 6.8826 6.8826 0 0 1 2.5564 5.8994z" fill="url(#linear-gradient-18)" stroke-width="19.665" style="isolation:isolate"/>
  <polygon id="polygon137" class="cls-27" transform="matrix(19.665 0 0 19.665 -191.52 -458.78)" points="30.63 27.62 31.99 27.62 31.99 27.06 30.63 27.06 30.63 26.47 32.17 26.47 32.17 25.91 30 25.91 30 28.79 32.19 28.79 32.19 28.22 30.63 28.22" fill="url(#linear-gradient-19)" style="isolation:isolate"/>
 </g>
 <polygon id="polygon139" class="cls-28" transform="matrix(19.665 0 0 19.665 -191.52 -458.78)" points="16.13 32.16 19.88 34.9 18.44 30.48 22.2 27.75 17.55 27.75 16.13 23.33 14.69 27.75 10.04 27.75 13.82 30.48 12.38 34.9" fill="#fff" style="isolation:isolate"/>
 <g id="g26876" transform="matrix(5.6386 0 0 -7.225 -1292.3 3556.2)" fill="#fff">
  <g id="g16612" transform="translate(236.1,482.49)">
   <path id="path16614" d="m0 0h0.357l-1.097-1.866h-0.36l-0.991 1.866h0.418l0.774-1.536z" fill="#fff"/>
  </g>
  <path id="path16616" d="m236.68 480.63h0.348v1.867h-0.348z"/>
  <g id="g16618" transform="translate(239.45,480.63)">
   <path id="path16620" d="m0 0-0.241 0.486h-1.157l-0.275-0.486h-0.426l1.116 1.866h0.425l0.968-1.866zm-1.221 0.801h0.825l-0.387 0.777z" fill="#fff"/>
  </g>
  <g id="g16622">
   <g id="g16624" clip-path="url(#clipPath16628-3)" fill="#fff">
    <g id="g16630" transform="translate(241.77,482)" fill="#fff">
     <path id="path16632" d="m0 0c-0.14 0.111-0.515 0.209-0.835 0.209-0.291 0-0.542-0.087-0.542-0.288 0-0.339 1.544 0.026 1.544-0.688 0-0.349-0.344-0.671-0.979-0.671-0.634 0-0.941 0.217-1.054 0.338l0.235 0.262c0.262-0.217 0.55-0.278 0.812-0.278 0.269 0 0.61 0.069 0.61 0.297 0 0.444-1.562-0.027-1.562 0.74 0 0.375 0.428 0.61 0.978 0.61 0.468 0 0.817-0.148 0.983-0.261z" fill="#fff"/>
    </g>
   </g>
  </g>
  <g id="g16634" transform="translate(244.06,480.63)">
   <path id="path16636" d="m0 0-0.241 0.486h-1.157l-0.275-0.486h-0.426l1.116 1.866h0.425l0.968-1.866zm-1.221 0.801h0.825l-0.386 0.777z" fill="#fff"/>
  </g>
  <g id="g16638" transform="translate(246.16,482.17)">
   <path id="path16640" d="m0 0h-0.769v-1.541h-0.349v1.541h-0.748v0.315h1.866z" fill="#fff"/>
  </g>
 </g>
</svg>
