<svg width="800" height="512.78" version="1.1" viewBox="0 0 800 512.78" xml:space="preserve" xmlns="http://www.w3.org/2000/svg">
<g transform="translate(-294.2 -1083.7)" display="none">
	<path d="m762.7 787h-532.3c-36.7 0-66.5-29.8-66.5-66.5v-469.4h598.8c36.7 0 66.5 29.8 66.5 66.5v402.8c0 36.8-29.8 66.6-66.5 66.6z" display="inline" fill="#39b54a"/>
	<path d="m607.8 310.8 37.1-4.8c0.7 14.1 18.8 14.4 19.4 0l37.6 4.8c-2.6 7.5-8.2 13.5-12.9 18.3s-10.1 8.2-16 10.4c-5.9 2.1-12 3.2-18.2 3.2-9.6 0-18.6-2.6-27.1-7.8-8.3-5.2-16.3-13.2-19.9-24.1" display="inline" fill="#fff"/>
	<polygon points="639.1 349.9 603.5 349.9 603.5 442.8 603.5 483.2 641.9 483.2 670.5 411.7 670.5 483.2 706.2 483.2 706.2 405.4 706.2 349.9 667.8 349.9 639.1 421.5" display="inline" fill="#fff"/>
	<path d="m332.1 505.5h-44l-42.9 138.1h-11.5v51.6h45.4v-16h58.8v16h46.8v-51.6h-10.5zm-40.9 138.4 17.9-69.9 17.2 69.9zm248.1 35.7 16.2-169.2h54.6l21.1 87.2 21.8-87.2h53.2l15.2 169.2h-43.9l-5.7-82.5-23.1 82.5h-38.8l-20.7-82.5-4.3 82.5zm-155.6-84.5c0-54.3 26-87.5 75.8-87.5s75.7 33.2 75.7 87.5c0 53.8-26.4 87.6-75.7 87.6-49.4-0.1-75.8-33.8-75.8-87.6m49.6 0c0 26.5 5.9 51.1 25.9 51.1s25.9-24.6 25.9-51.1c0-27.9-5.9-51.5-25.9-51.5s-25.9 23.6-25.9 51.5" display="inline" fill="#fff"/>
	<path d="m367.5 350.1h57.4c23.3 0.5 36.5 9.1 37.3 32.8 0.5 14-5.1 25-17 29.7v0.4c15.9 4.1 21.8 16.6 21.8 31.7 0 13.2-7.5 27.1-18.7 33.7-5.8 3.5-11.5 4.9-20.1 4.9h-60.6v-133.2zm36 103.4h11.1c6.4 0 11.9-3.7 11.9-11.7s-5.3-12.4-11.9-12.4h-11.1zm-0.3-52.9h11.1c4.6 0 7-1 8.7-3s2.6-4.3 2.6-7c0-3.1-1-5.7-2.9-7.7s-4.2-3-8.4-3h-11.1z" display="inline" fill="#fff"/>
	<polygon points="257.4 379.9 257.4 350.2 358.9 350.2 354.8 379.9 324.2 379.9 324.2 483.2 288.3 483.2 288.3 379.9" display="inline" fill="#fff"/>
	<path d="m474.8 416.8c0 42.4 20.8 68.9 59.6 68.9 38.9 0 59.6-26.5 59.6-68.9 0-42.8-20.4-68.9-59.6-68.9-39.1 0-59.6 26.1-59.6 68.9m39.1 0c0-22 4.6-40.5 20.4-40.5s20.4 18.5 20.4 40.5c0 20.9-4.7 40.2-20.4 40.2s-20.4-19.3-20.4-40.2" display="inline" fill="#fff"/>
	<path d="m1004.2 577.3c0 24.8-20.1 45-45 45h-135.8c-24.8 0-45-20.1-45-45v-134.9c0-24.8 20.1-45 45-45h135.8c24.8 0 45 20.1 45 45z" display="inline" fill="#ed1c24"/>
	<polygon points="929 525.4 907 456.9 886.7 456.9 877.4 456.9 801.9 456.9 801.9 482.8 830 482.8 830 562.7 858.7 562.7 858.7 482.8 885.7 482.8 911.3 562.7 946.5 562.7 980.7 456.9 951 456.9" display="inline" fill="#fff"/>
</g>
<g transform="translate(-294.2 -1083.7)" display="none">
	<path d="m1752.3 788.6h-532.3c-36.7 0-66.5-29.8-66.5-66.5v-469.3h598.8c36.7 0 66.5 29.8 66.5 66.5v402.8c0.1 36.8-29.7 66.5-66.5 66.5z" display="inline" fill="#39b54a"/>
	<path d="m1597.4 312.5 37.1-4.8c0.7 14.1 18.8 14.4 19.4 0l37.6 4.8c-2.6 7.5-8.2 13.5-12.9 18.3s-10.1 8.2-16 10.4c-5.9 2.1-12 3.2-18.2 3.2-9.6 0-18.6-2.6-27.1-7.8-8.3-5.2-16.2-13.3-19.9-24.1" display="inline" fill="#fff"/>
	<polygon points="1628.8 351.5 1593.1 351.5 1593.1 444.5 1593.1 484.8 1631.6 484.8 1660.2 413.4 1660.2 484.8 1695.8 484.8 1695.8 407 1695.8 351.5 1657.4 351.5 1628.8 423.1" display="inline" fill="#fff"/>
	<path d="m1321.8 507.2h-44l-42.9 138.1h-11.5v51.6h45.4v-16h58.8v16h46.8v-51.6h-10.5zm-40.9 138.3 17.9-69.9 17.2 69.9zm248 35.7 16.2-169.2h54.6l21.1 87.2 21.8-87.2h53.2l15.2 169.2h-43.9l-5.7-82.5-23.1 82.5h-38.8l-20.7-82.5-4.3 82.5zm-155.5-84.5c0-54.3 26-87.5 75.8-87.5s75.7 33.2 75.7 87.5c0 53.8-26.4 87.6-75.7 87.6-49.4 0-75.8-33.8-75.8-87.6m49.6 0c0 26.5 5.9 51.1 25.9 51.1s25.9-24.6 25.9-51.1c0-27.9-5.9-51.5-25.9-51.5-20 0.1-25.9 23.6-25.9 51.5" display="inline" fill="#fff"/>
	<path d="m1357.2 351.7h57.4c23.3 0.5 36.5 9.1 37.3 32.8 0.5 14-5.1 25-17 29.7v0.4c15.9 4.1 21.8 16.6 21.8 31.7 0 13.2-7.5 27.1-18.7 33.7-5.8 3.5-11.5 4.9-20.1 4.9h-60.6v-133.2zm35.9 103.4h11.1c6.4 0 11.9-3.7 11.9-11.7s-5.3-12.4-11.9-12.4h-11.1zm-0.3-52.8h11.1c4.6 0 7-1 8.7-3s2.6-4.3 2.6-7c0-3.1-1-5.7-2.9-7.7s-4.2-3-8.4-3h-11.1z" display="inline" fill="#fff"/>
	<polygon points="1247.1 381.6 1247.1 351.8 1348.6 351.8 1344.5 381.6 1313.8 381.6 1313.8 484.8 1277.9 484.8 1277.9 381.6" display="inline" fill="#fff"/>
	<path d="m1464.5 418.4c0 42.4 20.8 68.9 59.6 68.9 38.9 0 59.6-26.5 59.6-68.9 0-42.8-20.4-68.9-59.6-68.9s-59.6 26.2-59.6 68.9m39.1 0c0-22 4.7-40.5 20.4-40.5 15.8 0 20.4 18.5 20.4 40.5 0 20.9-4.7 40.2-20.4 40.2-15.8 0-20.4-19.3-20.4-40.2" display="inline" fill="#fff"/>
	<path d="m1993.8 578.9c0 24.8-20.1 45-45 45h-135.8c-24.8 0-45-20.1-45-45v-134.9c0-24.8 20.1-45 45-45h135.8c24.8 0 45 20.1 45 45z" display="inline" fill="#ed1c24"/>
	<path d="m1948.8 399c24.8 0 45 20.1 45 45v134.9c0 24.8-20.1 45-45 45h-135.8c-24.8 0-45-20.1-45-45v-134.9c0-24.8 20.1-45 45-45h135.8m0-6.5h-135.8c-28.4 0-51.5 23.1-51.5 51.5v134.9c0 28.4 23.1 51.5 51.5 51.5h135.8c28.4 0 51.5-23.1 51.5-51.5v-134.9c0-28.4-23.1-51.5-51.5-51.5z" display="inline" fill="#fff"/>
	<polygon points="1918.6 527 1896.6 458.5 1876.4 458.5 1867.1 458.5 1791.6 458.5 1791.6 484.4 1819.6 484.4 1819.6 564.4 1848.3 564.4 1848.3 484.4 1875.3 484.4 1901 564.4 1936.2 564.4 1970.3 458.5 1940.6 458.5" display="inline" fill="#fff"/>
</g>
<g transform="translate(-294.2 -1083.7)" display="none">
	<path d="m1380.3 1379.6h-1013.9c-70 0-126.7-57.1-126.7-127.6v-900.2h1140.6c70 0 126.7 57.1 126.7 127.6v772.6c0 70.4-56.7 127.6-126.7 127.6z" display="inline" fill="#39b54a"/>
	<path d="m1507.1 1138.5v114.5c0 64.3-52.3 116.6-116.6 116.6h-1023.5c-64.3 0-116.6-52.3-116.6-116.6v-891.2h1140.1c64.3 0 116.6 52.3 116.6 116.6v96.2c7.8-0.1 15.4 0 22.8 0v-96.2c0-76.8-62.5-139.3-139.3-139.3h-1162.9v913.9c0 76.8 62.5 139.3 139.3 139.3h1023.6c76.8 0 139.3-62.5 139.3-139.3v-114.5h-22.8z" display="inline" fill="#fff"/>
	<path d="m1085.8 465.3 71.3-9.3c1.3 27.1 36.2 27.8 37.4 0l72.4 9.3c-5 14.3-15.7 26-24.8 35.2-9.1 9.1-19.3 15.8-30.7 20-11.3 4.1-23 6.2-35.1 6.2-18.4 0-35.8-5-52-15.1-16.2-10-31.5-25.5-38.5-46.3" display="inline" fill="#fff"/>
	<polygon points="1146.1 540.3 1077.5 540.3 1077.5 719.1 1077.5 796.7 1151.5 796.7 1206.5 659.3 1206.5 796.7 1275.1 796.7 1275.1 647 1275.1 540.3 1201.2 540.3 1146.1 678" display="inline" fill="#fff"/>
	<path d="m555.7 839.7h-84.7l-82.5 265.7h-22.2v99.2h87.4v-30.7h113.1v30.7h90.1v-99.2h-20.1zm-78.7 266 34.5-134.4 33.2 134.4zm477.1 68.6 31.1-325.5h105.1l40.6 167.8 41.8-167.8h102.3l29.1 325.5h-84.3l-11-158.6-44.4 158.6h-74.6l-39.9-158.6-8.3 158.6zm-299.2-162.5c0-104.4 50-168.3 145.7-168.3s145.7 63.9 145.7 168.3c0 103.5-50.8 168.4-145.7 168.4s-145.7-64.9-145.7-168.4m95.4 0c0 51 11.4 98.3 49.9 98.3s49.9-47.2 49.9-98.3c0-53.7-11.3-98.9-49.9-98.9-38.5 0-49.9 45.2-49.9 98.9" display="inline" fill="#fff"/>
	<path d="m623.8 540.8h110.4c44.8 1.1 70.2 17.4 71.7 63 0.9 27-9.7 48.1-32.8 57v0.7c30.6 7.8 42 32 42 61 0 25.3-14.4 52-36 64.7-11.2 6.6-22 9.4-38.7 9.4h-116.6zm69.1 198.8h21.4c12.2 0 22.9-7.2 22.9-22.6s-10.2-23.9-22.9-23.9h-21.4zm-0.6-101.7h21.3c8.9 0 13.5-1.9 16.8-5.8s5-8.3 5-13.4c0-6-1.9-10.9-5.6-14.7s-8-5.7-16.2-5.7h-21.3z" display="inline" fill="#fff"/>
	<polygon points="412 598.1 412 540.9 607.3 540.9 599.4 598.1 540.4 598.1 540.4 796.7 471.4 796.7 471.4 598.1" display="inline" fill="#fff"/>
	<path d="m830.2 669c0 81.5 40 132.5 114.7 132.5s114.7-51 114.7-132.5c0-82.2-39.3-132.5-114.7-132.5s-114.7 50.3-114.7 132.5m75.1 0c0-42.3 8.9-77.9 39.3-77.9 30.3 0 39.3 35.6 39.3 77.9 0 40.2-9 77.4-39.3 77.4-30.4-0.1-39.3-37.3-39.3-77.4" display="inline" fill="#fff"/>
	<path d="m1847.2 980.1c0 48.8-39.6 88.4-88.4 88.4h-266.8c-48.8 0-88.4-39.6-88.4-88.4v-265.2c0-48.8 39.6-88.4 88.4-88.4h266.8c48.8 0 88.4 39.6 88.4 88.4z" display="inline" fill="#ed1c24"/>
	<polygon points="1699.4 878.1 1656.2 743.5 1616.3 743.5 1598.1 743.5 1449.7 743.5 1449.7 794.4 1504.8 794.4 1504.8 951.5 1561.2 951.5 1561.2 794.4 1614.4 794.4 1664.7 951.5 1733.9 951.5 1801.1 743.5 1742.6 743.5" display="inline" fill="#fff"/>
</g>
<path d="m561.16 506.59h-493.63c-34.076 0-61.697-27.828-61.697-62.11v-438.28h555.33c34.076 0 61.697 27.828 61.697 62.11v376.12c0 34.334-27.622 62.162-61.697 62.162z" fill="#39b54a" stroke-width=".5163"/><g transform="matrix(.5163 0 0 .5163 -151.89 -311.48)" fill="#fff"><path d="m1500.7 1300v165.1c0 60.6-49.3 109.9-109.9 109.9h-965.2c-60.6 0-109.9-49.3-109.9-109.9v-840.3h1075.1c60.6 0 109.9 49.3 109.9 109.9v130h21.5v-130c0-72.4-58.9-131.4-131.4-131.4h-1096.6v861.8c0 72.4 58.9 131.4 131.4 131.4h965.2c72.4 0 131.4-58.9 131.4-131.4v-165.6c-7.2 0-14.3 0.5-21.5 0.5z"/><path d="m1744.9 852.1h-265.3c-54.5 0-98.8 44.3-98.8 98.8v263.7c0 54.5 44.3 98.8 98.8 98.8h265.3c54.5 0 98.8-44.3 98.8-98.8v-263.7c0-54.5-44.3-98.8-98.8-98.8z"/></g><path d="m788.49 312.1c0 23.75-19.258 43.059-43.059 43.059h-129.9c-23.75 0-43.059-19.258-43.059-43.059v-129.13c0-23.75 19.258-43.059 43.059-43.059h129.9c23.75 0 43.059 19.258 43.059 43.059z" fill="#ed1c24" stroke-width=".5163"/><g transform="matrix(.5163 0 0 .5163 -151.89 -311.48)" fill="#fff"><path d="m1103.4 722.3 67.3-8.7c1.2 25.6 34.1 26.2 35.3 0l68.2 8.7c-4.7 13.5-14.8 24.6-23.4 33.2s-18.2 14.9-28.9 18.8-21.7 5.8-33.1 5.8c-17.4 0-33.8-4.7-49.1-14.2-15.3-9.4-29.7-23.9-36.3-43.6"/><path d="m1212.2 793.1-51.9 129.8v-129.8h-64.7v241.8h69.7l51.9-129.7v129.7h64.7v-241.8z"/><path d="m603.5 1075.4h-79.8l-77.8 250.5h-20.9v93.5h82.4v-28.9h106.6v28.9h85v-93.5h-19zm-74.2 250.8 32.5-126.7 31.3 126.7zm449.9 64.8 29.3-306.9h99.1l38.3 158.2 39.5-158.2h96.5l27.5 306.9h-79.5l-10.4-149.6-41.8 149.6h-70.3l-37.6-149.6-7.8 149.6zm-282.1-153.3c0-98.5 47.1-158.7 137.4-158.7s137.3 60.2 137.3 158.7c0 97.6-47.9 158.8-137.3 158.8-89.6 0-137.4-61.2-137.4-158.8m89.9 0c0 48.1 10.7 92.7 47 92.7s47-44.5 47-92.7c0-50.6-10.7-93.3-47-93.3s-47 42.7-47 93.3"/><path d="m667.7 793.5h104.1c42.2 1 66.2 16.4 67.6 59.4 0.9 25.5-9.2 45.4-30.9 53.8v0.7c28.8 7.4 39.6 30.2 39.6 57.5 0 23.9-13.6 49.1-33.9 61-10.6 6.3-20.8 8.9-36.5 8.9h-110zm65.2 187.5h20.1c11.5 0 21.6-6.7 21.6-21.3 0-14.5-9.6-22.6-21.6-22.6h-20.2v43.9zm-0.5-95.9h20.1c8.4 0 12.7-1.8 15.9-5.5 3.1-3.6 4.7-7.9 4.7-12.7 0-5.7-1.8-10.3-5.3-13.9s-7.6-5.4-15.3-5.4h-20.1z"/><path d="m524 1034.8v-187.2h-56v-53.9h184.1l-7.4 53.9h-55.6v187.2z"/><path d="m862.3 914.4c0 76.9 37.7 125 108.1 125 70.5 0 108.1-48.1 108.1-125 0-77.5-37.1-124.9-108.1-124.9s-108.1 47.4-108.1 124.9m70.9 0c0-39.8 8.4-73.5 37-73.5s37 33.6 37 73.5c0 37.9-8.4 73-37 73s-37-35.1-37-73"/><path d="m1777.9 984.7h-55.1l-40.8 126.9-40.7-126.9h-194.8v47.9h52v148.2h53.2v-148.2h50.1l47.5 148.2h65.2z"/></g>
</svg>
