<svg id="a" enable-background="new 0 0 478 454" version="1.1" viewBox="0 0 476.95 453.39" xml:space="preserve" xmlns="http://www.w3.org/2000/svg"><path id="b" d="m0 222.11 41.874 41.875 8.808-8.81 12.775 12.775-0.908-24.641 201.44-201.44-41.874-41.874z"/><path id="c" d="m214.33 27.963-10.975 10.975 2.4043 2.4043 2.584-2.5859 10.682 21.768-2.5664 2.5684 2.6621 2.6641 8.2051-8.2051-2.6641-2.6641-2.5879 2.5879-11.08-21.369 0.27539-0.27539 21.414 11.037-2.6641 2.6621 2.6641 2.6641 8.4492-8.4492-2.6641-2.6641-2.3945 2.3945-21.914-10.535 2.5742-2.5742-2.4043-2.4023zm-23.271 23.271-10.883 10.883 2.4023 2.4043 2.5879-2.5879 10.412 22.039-2.5762 2.5742 2.6641 2.6641 8.3867-8.3887-2.6621-2.6641-2.5879 2.5879-3.1914-6.4492 7.6699-7.6719 6.4043 3.2383-2.6465 2.6484 2.6621 2.6641 8.3418-8.3438-2.6621-2.6621-2.3828 2.3828-22.184-10.27 2.6465-2.6445-2.4023-2.4043zm-2.8125 7.623 11.74 6.0762-6.0801 6.0742-5.9492-11.859 0.28906-0.29102zm-16.006 11.195-8.1426 8.1426 2.6641 2.6641 2.4942-2.4961 6.0918 6.0918-9.2598 9.2617-6.0918-6.0938 2.5098-2.5098-2.6621-2.6621-8.1445 8.1426 2.6641 2.6641 2.418-2.418 15.965 15.963-2.418 2.4199 2.6621 2.6621 8.1445-8.1426-2.6641-2.6641-2.5098 2.5117-7.209-7.209 9.2598-9.2617 7.209 7.209-2.4941 2.4941 2.6621 2.6641 8.1426-8.1426-2.6621-2.6641-2.4336 2.4336-15.965-15.963 2.4336-2.4336-2.6641-2.6641zm-28.398 28.4-10.883 10.883 2.4023 2.4023 2.5879-2.5879 10.412 22.039-2.5762 2.5762 2.6621 2.6621 8.3887-8.3887-2.6621-2.6621-2.5879 2.5859-3.1914-6.4492 7.6699-7.6719 6.4043 3.2383-2.6484 2.6484 2.6641 2.6641 8.3418-8.3418-2.6621-2.6641-2.3828 2.3828-22.184-10.268 2.6465-2.6465-2.4024-2.4023zm-2.8164 7.627 11.74 6.0703-6.0703 6.0703-5.959-11.852 0.28907-0.28906zm-15.496 10.686-8.3418 8.3418 2.6621 2.6621 2.4336-2.4336 0.56055 14.213 15.16 1.998-2.2949 2.2949 2.6621 2.6641 8.6484-8.6484-2.6641-2.6641-2.2813 2.2812-15.316-1.8398-0.83008-13.941 2.2637-2.2656-2.6621-2.6621zm-10.102 10.102-8.6191 8.6172 2.6641 2.6641 2.6641-2.6641 15.963 15.965-2.6621 2.6621 2.6621 2.6641 8.3281-8.3262-2.6641-2.6641-2.4492 2.4492-15.965-15.965 2.7402-2.7402-2.6621-2.6621zm-11.668 11.666-17.693 17.695 2.6621 2.6621 2.7559-2.7539 15.965 15.965-2.7558 2.7539 2.6641 2.6641 17.693-17.695-6.5352-6.5352-2.6328 2.6328 3.873 3.873-9.0918 9.0918-6.9648-6.9648 7.9121-7.9141-2.6621-2.6621-7.9141 7.9121-6.3379-6.3359 9.0937-9.0918 3.75 3.75 2.6328-2.6328-6.4141-6.4141zm-25.258 25.26-10.977 10.975 2.4043 2.4023 2.5859-2.584 10.68 21.768-2.5664 2.5684 2.6641 2.6621 8.2031-8.2031-2.6621-2.6641-2.5879 2.5859-11.082-21.367 0.27539-0.27539 21.414 11.035-2.6641 2.6641 2.6641 2.6641 8.4492-8.4512-2.6641-2.6621-2.3945 2.3945-21.914-10.535 2.5742-2.5742-2.4023-2.4023zm-18.738 18.738-17.695 17.693 2.6641 2.6641 2.7539-2.7559 15.965 15.965-2.7559 2.7559 2.6641 2.6621 17.695-17.693-6.5371-6.5371-2.6328 2.6348 3.873 3.873-9.0918 9.0918-6.9648-6.9648 7.9141-7.9141-2.6641-2.6641-7.9121 7.9141-6.3379-6.3359 9.0918-9.0938 3.75 3.75 2.6328-2.6328-6.4121-6.4121zm-20.064 20.062-17.25 17.252 8.0977 8.0957 2.6328-2.6328-5.4355-5.4336 4.3945-4.3926 15.963 15.965-2.7227 2.7246 2.6621 2.6641 8.7109-8.709-2.6641-2.6641-2.7715 2.7695-15.965-15.965 4.3789-4.377 5.4336 5.4336 2.6328-2.6328-8.0977-8.0977z" fill="#9ffc25"/><path id="d" d="m277.91 453.39-199.05-199.05 199.05-199.05 199.05 199.05z"/><path id="e" d="m114.77 254.34 163.14 163.14 163.14-163.14-163.14-163.14z" fill="#9ffc25"/><path id="f" d="m329.98 243.42v-7.904h5.859v-30.987h-5.859v-7.908h22.51v7.908h-4.81v17.165l12.75-13.64v-3.525h-4.781v-7.908h22.546v7.908h-5.922v30.987h5.922v7.904h-22.546v-7.904h4.781v-17.806l-12.75 13.641v4.165h4.81v7.904zm29.914-62.274h7.266c-0.313 3.365-1.744 6.214-4.289 8.545-2.545 2.333-5.467 3.5-8.766 3.5-3.275 0-6.189-1.167-8.746-3.5-2.558-2.331-3.99-5.18-4.308-8.545h7.269c0.94 3.275 2.869 4.912 5.785 4.912 2.9 0 4.828-1.638 5.789-4.912"/><g id="g"><polygon id="h" points="187.1 204.53 187.1 215.42 179.06 215.42 179.06 196.62 221.48 196.62 221.48 215.42 213.54 215.42 213.54 204.53 206.31 204.53 206.31 235.51 213.34 235.51 213.34 243.42 187.1 243.42 187.1 235.51 194.13 235.51 194.13 204.53"/><path id="i" d="m226.91 243.42v-7.904h5.752v-30.987h-5.752v-7.908h21.362c4.733 0 8.254 0.277 10.568 0.826 2.308 0.549 4.304 1.885 5.987 4.005 1.681 2.118 2.522 4.601 2.522 7.45 0 4.553-2.2 7.773-6.595 9.656 5.606 2.087 8.415 5.82 8.415 11.204 0 3.095-0.872 5.748-2.61 7.956-1.737 2.209-3.981 3.714-6.729 4.509-2.746 0.795-6.599 1.193-11.558 1.193zm17.93-28.328h3.432c2.378 0 4.128-0.402 5.25-1.21s1.682-2.232 1.682-4.274c0-1.861-0.542-3.173-1.63-3.935-1.089-0.763-2.99-1.144-5.705-1.144h-3.029zm0 20.424h3.432c3.118 0 5.295-0.449 6.527-1.347 1.235-0.897 1.853-2.479 1.853-4.743 0-2.378-0.669-4.043-2-4.996-1.339-0.955-3.461-1.429-6.38-1.429h-3.432z"/><path id="j" d="m300.45 195.91c8.074 0 14.428 2.334 19.06 6.996 4.631 4.661 6.946 10.343 6.946 17.044 0 6.724-2.319 12.411-6.963 17.063-4.644 4.649-10.989 6.974-19.043 6.974-8.364 0-14.791-2.389-19.279-7.178-4.482-4.784-6.725-10.404-6.725-16.859 0-6.68 2.304-12.356 6.913-17.028 4.608-4.674 10.973-7.012 19.091-7.012m0 8.546c-3.589 0-6.632 1.347-9.132 4.035-2.502 2.687-3.754 6.631-3.754 11.829 0 4.595 1.234 8.268 3.702 11.022 2.467 2.756 5.526 4.135 9.184 4.135 3.591 0 6.638-1.351 9.151-4.05 2.512-2.699 3.768-6.592 3.768-11.679 0-4.546-1.2-8.232-3.599-11.056-2.401-2.823-5.505-4.236-9.32-4.236"/><path id="k" d="m222.75 306.21h-35.273v9.066h-10.367v-18.227h6.704l10.542-35.896h-7.232v-9.162h35.471v9.162h-7.297l11.351 35.896h6.471v18.227h-10.37zm-9.347-9.16-9.302-33.597-10.21 33.597z"/><path id="l" d="m265.39 251.18c9.354 0 16.716 2.7 22.081 8.101 5.365 5.405 8.05 11.985 8.05 19.748 0 7.793-2.692 14.381-8.07 19.771-5.38 5.389-12.734 8.081-22.061 8.081-9.693 0-17.138-2.77-22.334-8.317-5.198-5.544-7.797-12.054-7.797-19.534 0-7.737 2.669-14.312 8.012-19.729 5.34-5.416 12.708-8.121 22.119-8.121m0 9.9c-4.161 0-7.686 1.558-10.583 4.674-2.896 3.114-4.345 7.681-4.345 13.703 0 5.324 1.43 9.581 4.286 12.772 2.857 3.19 6.407 4.79 10.642 4.79 4.157 0 7.688-1.564 10.602-4.691 2.912-3.13 4.366-7.64 4.366-13.534 0-5.268-1.392-9.537-4.171-12.808-2.785-3.271-6.38-4.906-10.797-4.906"/><polygon id="m" points="326.6 251.99 338.52 283.75 350.46 251.99 378.18 251.99 378.18 261.15 371.17 261.15 371.17 297.05 378.18 297.05 378.18 306.21 350.9 306.21 350.9 297.05 357.44 297.05 357.44 261.15 356.16 261.15 339.39 306.21 333.54 306.21 316.52 261.15 315.23 261.15 315.23 297.05 322.32 297.05 322.32 306.21 299.41 306.21 299.41 297.05 306.42 297.05 306.42 261.15 299.41 261.15 299.41 251.99"/></g></svg>
