<svg enable-background="new 0 0 478 454" version="1.1" viewBox="0 0 476.95 453.39" xml:space="preserve" xmlns="http://www.w3.org/2000/svg"><polygon points="194.13 235.51 194.13 204.53 187.1 204.53 187.1 215.42 179.06 215.42 179.06 196.62 221.48 196.62 221.48 215.42 213.54 215.42 213.54 204.53 206.31 204.53 206.31 235.51 213.34 235.51 213.34 243.42 187.1 243.42 187.1 235.51" fill="#0bebda"/><path d="m226.91 243.42v-7.904h5.752v-30.987h-5.752v-7.908h21.362c4.733 0 8.254 0.277 10.568 0.826 2.308 0.549 4.304 1.885 5.987 4.005 1.681 2.118 2.522 4.601 2.522 7.45 0 4.553-2.2 7.773-6.595 9.656 5.606 2.087 8.415 5.82 8.415 11.204 0 3.095-0.872 5.748-2.61 7.956-1.737 2.209-3.981 3.714-6.729 4.509-2.746 0.795-6.599 1.193-11.558 1.193zm17.93-28.328h3.432c2.378 0 4.128-0.402 5.25-1.21s1.682-2.232 1.682-4.274c0-1.861-0.542-3.173-1.63-3.935-1.089-0.763-2.99-1.144-5.705-1.144h-3.029zm0 20.424h3.432c3.118 0 5.295-0.449 6.527-1.347 1.235-0.897 1.853-2.479 1.853-4.743 0-2.378-0.669-4.043-2-4.996-1.339-0.955-3.461-1.429-6.38-1.429h-3.432z" fill="#0bebda"/><path d="m300.45 195.91c8.074 0 14.428 2.334 19.06 6.996 4.631 4.661 6.946 10.343 6.946 17.044 0 6.724-2.319 12.411-6.963 17.063-4.644 4.649-10.989 6.974-19.043 6.974-8.364 0-14.791-2.389-19.279-7.178-4.482-4.784-6.725-10.404-6.725-16.859 0-6.68 2.304-12.356 6.913-17.028 4.608-4.674 10.973-7.012 19.091-7.012m0 8.546c-3.589 0-6.632 1.347-9.132 4.035-2.502 2.687-3.754 6.631-3.754 11.829 0 4.595 1.234 8.268 3.702 11.022 2.467 2.756 5.526 4.135 9.184 4.135 3.591 0 6.638-1.351 9.151-4.05 2.512-2.699 3.768-6.592 3.768-11.679 0-4.546-1.2-8.232-3.599-11.056-2.401-2.823-5.505-4.236-9.32-4.236" fill="#0bebda"/><path d="m329.98 243.42v-7.904h5.859v-30.987h-5.859v-7.908h22.51v7.908h-4.81v17.165l12.75-13.64v-3.525h-4.781v-7.908h22.546v7.908h-5.922v30.987h5.922v7.904h-22.546v-7.904h4.781v-17.806l-12.75 13.641v4.165h4.81v7.904zm29.914-62.274h7.266c-0.313 3.365-1.744 6.214-4.289 8.545-2.545 2.333-5.467 3.5-8.766 3.5-3.275 0-6.189-1.167-8.746-3.5-2.558-2.331-3.99-5.18-4.308-8.545h7.269c0.94 3.275 2.869 4.912 5.785 4.912 2.9 0 4.828-1.638 5.789-4.912" fill="#0bebda"/><path d="m222.75 306.21h-35.273v9.066h-10.367v-18.227h6.704l10.542-35.896h-7.232v-9.162h35.471v9.162h-7.297l11.351 35.896h6.471v18.227h-10.37zm-9.347-9.16-9.302-33.597-10.21 33.597z" fill="#fff000"/><path d="m265.39 251.18c9.354 0 16.716 2.7 22.081 8.101 5.365 5.405 8.05 11.985 8.05 19.748 0 7.793-2.692 14.381-8.07 19.771-5.38 5.389-12.734 8.081-22.061 8.081-9.693 0-17.138-2.77-22.334-8.317-5.198-5.544-7.797-12.054-7.797-19.534 0-7.737 2.669-14.312 8.012-19.729 5.34-5.416 12.708-8.121 22.119-8.121m0 9.9c-4.161 0-7.686 1.558-10.583 4.674-2.896 3.114-4.345 7.681-4.345 13.703 0 5.324 1.43 9.581 4.286 12.772 2.857 3.19 6.407 4.79 10.642 4.79 4.157 0 7.688-1.564 10.602-4.691 2.912-3.13 4.366-7.64 4.366-13.534 0-5.268-1.392-9.537-4.171-12.808-2.785-3.271-6.38-4.906-10.797-4.906" fill="#fff000"/><polygon points="306.42 297.05 306.42 261.15 299.41 261.15 299.41 251.99 326.6 251.99 338.52 283.75 350.46 251.99 378.18 251.99 378.18 261.15 371.17 261.15 371.17 297.05 378.18 297.05 378.18 306.21 350.9 306.21 350.9 297.05 357.44 297.05 357.44 261.15 356.16 261.15 339.39 306.21 333.54 306.21 316.52 261.15 315.23 261.15 315.23 297.05 322.32 297.05 322.32 306.21 299.41 306.21 299.41 297.05" fill="#fff000"/><path d="m277.91 453.39-199.05-199.05 199.05-199.05 199.05 199.05zm-163.14-199.05 163.14 163.14 163.14-163.14-163.14-163.14z" fill="#fff000"/><path d="m199.99 64.933-11.74-6.075-0.29 0.291 5.95 11.858z" fill="#0bebda"/><polygon points="152.77 112.15 141.03 106.08 140.74 106.37 146.7 118.22" fill="#0bebda"/><path d="m0 222.11 41.874 41.875 8.808-8.81 12.775 12.775-0.908-24.641 201.44-201.44-41.874-41.874zm47.8-11.419-2.632 2.633-5.434-5.434-4.378 4.378 15.965 15.965 2.77-2.771 2.664 2.664-8.71 8.709-2.663-2.663 2.724-2.725-15.964-15.965-4.393 4.393 5.434 5.434-2.633 2.633-8.097-8.097 17.25-17.251zm18.38-21.747-2.633 2.633-3.75-3.75-9.092 9.092 6.337 6.337 7.914-7.914 2.663 2.664-7.914 7.913 6.965 6.965 9.092-9.092-3.873-3.873 2.633-2.633 6.536 6.536-17.694 17.694-2.664-2.663 2.755-2.755-15.964-15.965-2.755 2.755-2.664-2.663 17.695-17.694zm39.127-9.371-8.45 8.45-2.663-2.664 2.663-2.663-21.413-11.036-0.276 0.276 11.082 21.367 2.587-2.586 2.663 2.663-8.204 8.204-2.663-2.663 2.567-2.567-10.681-21.769-2.586 2.585-2.403-2.403 10.975-10.975 2.403 2.404-2.574 2.573 21.915 10.535 2.394-2.394zm4.87-34.626-2.632 2.633-3.75-3.75-9.093 9.092 6.337 6.336 7.914-7.913 2.663 2.663-7.913 7.914 6.964 6.964 9.092-9.092-3.872-3.872 2.632-2.633 6.536 6.536-17.694 17.694-2.663-2.663 2.755-2.755-15.965-15.965-2.755 2.755-2.663-2.663 17.694-17.694zm26.254 3.502-8.327 8.327-2.663-2.664 2.663-2.663-15.964-15.965-2.664 2.664-2.663-2.664 8.618-8.617 2.663 2.663-2.74 2.74 15.965 15.965 2.449-2.449zm10.592-10.592-8.648 8.648-2.663-2.663 2.296-2.296-15.161-1.998-0.559-14.212-2.434 2.434-2.663-2.663 8.342-8.342 2.663 2.663-2.265 2.265 0.83 13.941 15.318 1.84 2.281-2.281zm23.807-23.807-8.342 8.342-2.663-2.664 2.648-2.648-6.405-3.238-7.67 7.671 3.192 6.45 2.587-2.586 2.663 2.663-8.388 8.388-2.663-2.663 2.576-2.576-10.412-22.038-2.588 2.588-2.403-2.404 10.883-10.882 2.403 2.403-2.646 2.645 22.183 10.268 2.382-2.383zm4.078-41.334-2.433 2.434 15.964 15.964 2.434-2.434 2.663 2.664-8.143 8.143-2.663-2.664 2.495-2.494-7.21-7.21-9.26 9.261 7.209 7.209 2.511-2.51 2.663 2.663-8.143 8.143-2.663-2.663 2.418-2.419-15.965-15.964-2.418 2.418-2.663-2.663 8.143-8.143 2.663 2.663-2.51 2.51 6.092 6.092 9.26-9.26-6.092-6.092-2.495 2.495-2.663-2.663 8.143-8.143zm43.139-5.883-8.342 8.342-2.663-2.664 2.648-2.648-6.405-3.238-7.67 7.671 3.192 6.45 2.587-2.587 2.663 2.664-8.388 8.388-2.663-2.664 2.576-2.575-10.412-22.038-2.588 2.587-2.403-2.403 10.883-10.883 2.403 2.404-2.646 2.645 22.183 10.268 2.382-2.383zm23.089-23.089-8.449 8.449-2.663-2.663 2.663-2.663-21.414-11.036-0.275 0.275 11.081 21.368 2.587-2.587 2.664 2.663-8.205 8.205-2.663-2.664 2.567-2.567-10.681-21.769-2.585 2.586-2.403-2.403 10.974-10.975 2.404 2.403-2.574 2.574 21.914 10.535 2.395-2.394z" fill="#0bebda"/></svg>
