<?xml version="1.0" encoding="UTF-8"?>
<!-- Created with Inkscape (http://www.inkscape.org/) -->
<svg id="svg853" width="425.45" height="71.395" version="1.1" viewBox="0 0 112.57 18.89" xmlns="http://www.w3.org/2000/svg" xmlns:cc="http://creativecommons.org/ns#" xmlns:dc="http://purl.org/dc/elements/1.1/" xmlns:rdf="http://www.w3.org/1999/02/22-rdf-syntax-ns#">
 <metadata id="metadata850">
  <rdf:RDF>
   <cc:Work rdf:about="">
    <dc:format>image/svg+xml</dc:format>
    <dc:type rdf:resource="http://purl.org/dc/dcmitype/StillImage"/>
    <dc:title/>
   </cc:Work>
  </rdf:RDF>
 </metadata>
 <g id="layer1" transform="translate(73.292 -139.39)">
  <path id="path9" class="fil1" d="m-39.19 143.86h-3.6777v13.332h-3.0717v-13.332h-3.5941v-2.3822h10.344zm6.039 9.2987 0.12538 0.66867h0.08358l0.12538-0.62688 2.7165-11.723h3.1971l-4.4926 15.714h-3.1553l-4.4926-15.714h3.218zm62.479-5.015-1.0448-0.0418c-0.33434 0-0.60598 0.10448-0.83584 0.27165-0.22986 0.18806-0.39702 0.43881-0.5224 0.75226v8.0659h-3.0299v-11.681h2.821l0.12538 1.6508c0.22986-0.60599 0.5015-1.0448 0.85674-1.3791 0.35523-0.33433 0.75226-0.5015 1.212-0.5015 0.12538 0 0.25075 0.0209 0.37613 0.0418 0.10448 0.0209 0.22986 0.0627 0.35523 0.10448zm7.1255 7.3763c-0.31344 0.60598-0.71046 1.0657-1.1702 1.4-0.45971 0.33434-1.003 0.48061-1.609 0.50151-1.0448-0.0209-1.8806-0.43882-2.4866-1.2747-0.58509-0.83584-0.89853-2.1523-0.89853-3.9076v-6.7285h3.0508v6.7494c0 1.0448 0.10448 1.7553 0.31344 2.1732 0.18806 0.39703 0.5224 0.58509 0.96122 0.58509 0.35523 0 0.64778-0.0627 0.91942-0.18806 0.27165-0.14627 0.5015-0.33434 0.68957-0.58509v-8.7345h3.0508v11.681h-2.4866z" fill="#f24646" stroke-width=".020896"/>
  <path id="path11" class="fil2" d="m-16.539 143.86h-3.6986v13.332h-3.0508v-13.332h-3.5941v-2.3822h10.344zm6.0389 9.2987 0.12538 0.66867h0.08358l0.12538-0.62688 2.7165-11.723h3.1971l-4.4926 15.714h-3.1553l-4.4926-15.714h3.218zm15.003-2.9254h-4.8061v4.5762h5.7673v2.3822h-8.7972v-15.714h8.7554v2.3822h-5.7255v4.012h4.8061zm5.5374 0.64778v6.3106h-3.0508v-15.714h4.7016c1.5672 0 2.8001 0.41792 3.6986 1.212 0.89853 0.81495 1.3373 1.9642 1.3373 3.406 0 0.81495-0.18806 1.5254-0.56419 2.1105-0.37613 0.60598-0.91942 1.0866-1.6299 1.4418 0.81494 0.27164 1.4 0.71046 1.7762 1.3582 0.35523 0.62688 0.5224 1.4209 0.5224 2.3612v1.1493c0 0.43881 0.06269 0.89853 0.16717 1.3791 0.08358 0.4806 0.27165 0.83584 0.5224 1.0657v0.22986h-3.1344c-0.25075-0.25075-0.41792-0.62688-0.48061-1.1284-0.08358-0.5224-0.10448-1.0448-0.10448-1.5672v-1.1075c0-0.79405-0.16717-1.4209-0.5015-1.8597-0.33434-0.41792-0.81494-0.64778-1.4209-0.64778zm0-2.3822h1.6299c0.66867 0 1.1702-0.18806 1.5045-0.58508 0.33434-0.39703 0.5224-0.94032 0.5224-1.6717 0-0.73136-0.18806-1.3164-0.5224-1.7344-0.33434-0.43881-0.83584-0.64777-1.4836-0.64777h-1.6508z" fill="#fff" stroke-width=".020896"/>
  <path id="path15" class="fil3" d="m19.361 154.39h1.9015c0.31344 0 0.56419 0.25075 0.56419 0.5433v1.9224c0 0.29255-0.25075 0.5433-0.56419 0.5433h-1.9015c-0.29254 0-0.5433-0.25075-0.5433-0.5433v-1.9224c0-0.29255 0.25075-0.5433 0.5433-0.5433z" fill="#f24646" stroke-width=".020896"/>
  <g id="g27" transform="matrix(.020896 0 0 .020896 -75.57 137.34)">
   <path id="path19" class="fil3" d="m312 98h497c112 0 203 92 203 204v496c0 112-91 204-203 204h-497c-112 0-203-92-203-204v-496c0-112 91-204 203-204z" fill="#f24646"/>
   <path id="path21" class="fil4" d="m563 461h-69v248h-56v-248h-67v-44h192zm90 173 2 13h1l3-12 50-218h60l-84 292h-59l-83-292h60z" fill="#fff"/>
   <path id="path23" class="fil0" d="m566 160c223 0 403 180 403 403 0 222-180 402-403 402-222 0-402-180-402-402h64c0 187 151 338 338 338s339-151 339-338-152-339-339-339z" fill="#fff"/>
   <path id="path25" class="fil5" d="m164 563c0-223 180-403 402-403v64c-187 0-338 152-338 339z" fill="#ff5c73"/>
  </g>
 </g>
</svg>
