<?xml version="1.0" encoding="UTF-8"?>
<!-- Creator: CorelDRAW X8 -->
<svg id="svg2" width="230.98" height="69.114" fill-rule="evenodd" version="1.1" viewBox="0 0 4757.3 1423.6" xml:space="preserve" xmlns="http://www.w3.org/2000/svg" xmlns:cc="http://creativecommons.org/ns#" xmlns:dc="http://purl.org/dc/elements/1.1/" xmlns:rdf="http://www.w3.org/1999/02/22-rdf-syntax-ns#"><metadata id="metadata53"><rdf:RDF><cc:Work rdf:about=""><dc:format>image/svg+xml</dc:format><dc:type rdf:resource="http://purl.org/dc/dcmitype/StillImage"/><dc:title/></cc:Work></rdf:RDF></metadata><path id="path11" class="fil0 str0" d="m2.6429 4.7805h2097v570h-212v269h212v577h-561v-932h-1536v-484zm2759 931h1720c10-1 20-2 30-2 134 0 243 109 243 243 0 132-104 239-235 243v1h-1758v-485zm0-931h1720c10-2 20-2 30-2 134 0 243 109 243 243 0 131-104 238-235 243h-1758v-484z" fill="#4766a7" stroke="#2b2a29" stroke-width="5.5609"/><polygon id="polygon13" class="fil1 str0" transform="translate(-.35708 -.21953)" points="2462 844 2462 575 2752 575 2752 844" fill="#e5097f" stroke="#2b2a29" stroke-width="5.5609"/><polygon id="polygon15" class="fil2 str0" transform="translate(-.35708 -.21953)" points="2462 1129 2462 844 2194 844 2194 1129" fill="#009846" stroke="#2b2a29" stroke-width="5.5609"/><polygon id="polygon17" class="fil3 str0" transform="translate(-.35708 -.21953)" points="2188 844 2188 573 1888 573 1888 844" fill="#ffed00" stroke="#2b2a29" stroke-width="5.5609"/><polygon id="polygon19" class="fil4 str0" transform="translate(-.35708 -.21953)" points="2462 576 2462 290 2194 290 2194 576" fill="#008dd2" stroke="#2b2a29" stroke-width="5.5609"/></svg>
