<?xml version="1.0" encoding="UTF-8"?>
<!-- Created with Inkscape (http://www.inkscape.org/) -->
<svg id="svg3010" width="800" height="553.72" version="1.1" viewBox="0 0 750 519.12" xmlns="http://www.w3.org/2000/svg" xmlns:cc="http://creativecommons.org/ns#" xmlns:dc="http://purl.org/dc/elements/1.1/" xmlns:rdf="http://www.w3.org/1999/02/22-rdf-syntax-ns#">
 <metadata id="metadata3015">
  <rdf:RDF>
   <cc:Work rdf:about="">
    <dc:format>image/svg+xml</dc:format>
    <dc:type rdf:resource="http://purl.org/dc/dcmitype/StillImage"/>
    <dc:title/>
   </cc:Work>
  </rdf:RDF>
 </metadata>
 <g id="layer1" transform="translate(-191.43 70.939)" stroke-width="6.25">
  <path id="rect2993" d="m191.43-70.939v519.12h750v-519.12z" fill="#fff"/>
  <path id="rect2993-4" d="m698.83 45.088 9.8447 0.3125 9.5713 0.85944 9.2588 1.4846 9.0243 2.1096 8.8682 2.6956 8.79 3.3597 8.6727 3.9848 8.6728 4.688 8.3603 5.1958 7.8524 5.5084 7.2664 5.8599 6.7584 6.3288 6.3679 6.7976 5.86 7.2664 5.5084 7.8524 5.1958 8.3602 4.688 8.6727 3.9848 8.673 3.3597 8.7898 2.6956 8.8682 2.1096 9.0244 1.4845 9.2586 0.8595 9.5324 0.3125 9.8056-0.3125 9.8449-0.8595 9.5711-1.4845 9.2589-2.1096 9.0244-2.6956 8.8682-3.3597 8.7898-3.9848 8.673-4.688 8.6727-5.1958 8.3602-5.5084 7.8524-5.86 7.2664-6.3679 6.7584-6.7584 6.368-7.2664 5.8599-7.8524 5.5083-8.3603 5.1958-8.6728 4.688-8.6727 3.985-8.79 3.3597-8.8682 2.6956-9.0243 2.1096-9.2588 1.4844-9.5322 0.85942-9.8448 0.31252-9.8057-0.31252-9.5713-0.85942-9.2588-1.4844-9.0244-2.1096-8.8681-2.6956-8.7899-3.3597-8.6728-3.985-8.6728-4.688-8.3602-5.1958-7.8524-5.5083-7.2664-5.8599-6.7976-6.368-6.3288-6.7584-5.899-7.2664-5.4693-7.8524-5.1959-8.3602-3.0081-5.4304-2.7347-5.4301-2.5003-5.4303-2.1877-5.4693-1.9924-5.4693-1.758-5.5475-1.4454-5.6254-1.2502-5.6647h-112v103.41h-58.795v-103.41h-110.75v-58.913h110.75v-103.45h58.795v103.45h112.36l1.2501-5.4693 1.5235-5.352 1.6799-5.3132 1.9533-5.313 2.1487-5.235 2.4222-5.2348 2.6565-5.1958 2.8909-5.2351 5.1959-8.3602 5.4693-7.8524 5.899-7.2664 6.3288-6.7976 6.7976-6.3288 7.2664-5.8599 7.8524-5.5084 8.3602-5.1958 8.6728-4.688 8.6728-3.9848 8.7899-3.3597 8.8681-2.6956 9.0244-2.1096 9.2588-1.4846 9.5322-0.85944zm0 63.366-5.5866 0.15626-5.3521 0.50811-5.2349 0.82032-5.0787 1.1722-5.0005 1.5236-4.9224 1.9142-4.9224 2.2657-4.8443 2.6174-4.7661 2.93-4.3754 3.0862-4.102 3.3208-3.8285 3.594-3.5941 3.8286-3.3207 4.102-3.0863 4.3756-2.93 4.766-2.6174 4.8443-2.2659 4.9224-1.9142 4.9223-1.5236 5.0004-1.172 5.1179-0.8204 5.1958-0.5082 5.3912-0.1562 5.5474 0.1562 5.5865 0.5082 5.3522 0.8204 5.235 1.172 5.1176 1.5236 5.0005 1.9142 4.9223 2.2659 4.9226 2.6174 4.8441 2.93 4.7662 3.0863 4.3756 3.3207 4.1018 3.5941 3.8286 3.8285 3.5942 4.102 3.3206 4.3754 3.0864 4.7661 2.9299 4.8443 2.6174 4.9224 2.2659 4.9224 1.8753 5.0005 1.5626 5.0787 1.1329 5.2349 0.8595 5.3521 0.50812 5.5866 0.15625 5.5865-0.15625 5.3521-0.50812 5.2349-0.8595 5.1177-1.1329 5.0005-1.5626 4.9224-1.8753 4.8834-2.2659 4.8833-2.6174 4.727-2.9299 4.4145-3.0864 4.1021-3.3206 3.8284-3.5942 3.5942-3.8286 3.3206-4.1018 3.0863-4.3756 2.93-4.7662 2.6174-4.8441 2.2659-4.9226 1.8752-4.9223 1.5627-5.0005 1.1329-5.1176 0.8595-5.235 0.4687-5.3522 0.1957-5.5865-0.1957-5.5474-0.4687-5.3912-0.8595-5.1958-1.1329-5.1179-1.5627-5.0004-1.8752-4.9223-2.2659-4.9224-2.6174-4.8443-2.93-4.766-3.0863-4.3756-3.3206-4.102-3.5942-3.8286-3.8284-3.594-4.1021-3.3208-4.4145-3.0862-4.727-2.93-4.8833-2.6174-4.8834-2.2657-4.9224-1.9142-5.0005-1.5236-5.1177-1.1722-5.2349-0.82032-5.3521-0.50811z"/>
 </g>
</svg>
