<?xml version="1.0" encoding="UTF-8"?>
<!-- Generator: Adobe Illustrator 18.0.0, SVG Export Plug-In . SVG Version: 6.00 Build 0)  -->
<svg id="Layer_1" width="452.67" height="117.2" enable-background="new 39.5 636 533.6 117.2" version="1.1" viewBox="39.5 636 452.67 117.2" xml:space="preserve" xmlns="http://www.w3.org/2000/svg" xmlns:cc="http://creativecommons.org/ns#" xmlns:dc="http://purl.org/dc/elements/1.1/" xmlns:rdf="http://www.w3.org/1999/02/22-rdf-syntax-ns#"><metadata id="metadata11"><rdf:RDF><cc:Work rdf:about=""><dc:format>image/svg+xml</dc:format><dc:type rdf:resource="http://purl.org/dc/dcmitype/StillImage"/><dc:title/></cc:Work></rdf:RDF></metadata>
<path id="path4" d="m370.4 740.2h105.7l-3.5 13h-105.7zm-216.3 12.9h39.6l13.3-48h46.3l7-25.6h-85.9zm150.3-26.5c-1.1-0.7-1.8-1.4-2.1-2.5v-1.8l15.4-56.1c0.4-1.8 1.4-2.8 2.5-3.5s3.2-1.1 6-1.1h42.7l7-25.6h-60c-10.9 0-18.6 1.4-23.1 3.9s-7.4 7-9.5 13.3l-21.7 79.9c-0.4 1.1-0.4 2.5-0.7 3.5 0 1.4 0 2.5 0.4 3.5 1.1 3.9 3.5 7 7.7 9.5 4.2 2.1 9.1 3.5 15.1 3.5h63.1l7-25.6h-46c-1.5-0.2-2.7-0.6-3.8-0.9zm-32.2-90.2h-85.9l-7 25.6h85.9zm-144.3-0.3-24.2 86.9c-0.4 1.8-1.4 2.8-2.5 3.5s-3.2 1.1-6 1.1h-7c-1.4 0-2.8-0.4-3.9-0.7-1.1-0.7-1.8-1.4-2.1-2.5v-1.8l23.8-86.2h-38.8v-0.3l-27 97.1c-0.4 1.1-0.4 2.5-0.7 3.5 0 1.4 0 2.5 0.4 3.5 1.1 3.9 3.5 7 7.7 9.5 4.2 2.1 9.1 3.5 15.1 3.5h44.9c10.9 0 18.6-1.4 23.1-3.9 4.6-2.5 7.4-7 9.5-13.3l27.7-99.9z" fill="#d20a0a"/>
<g id="g936" fill="#fff"><path id="path6-6" d="m389.24 674.71 3.6453-12.71h50.17l-3.7412 12.71h-17.651l-14.581 52.808h-14.677l14.677-52.808h-17.843" stroke-width=".95928"/><path id="path22" d="m450.13 662.03h29.507c7.9335 0 13.637 3.3538 12.352 9.134l-3.8953 14.465c-1.2999 4.2273-4.9348 6.0941-8.2945 7.5026 4.2284 2.7795 6.9224 5.071 5.3909 10.817l-3.9377 14.223c-2.3276 7.9767-12.767 9.4198-21.337 9.4198h-27.975m25.625-38.781h10.161c3.8676 0 5.4513-1.211 6.275-3.7921l2.0045-7.2377c0.68683-2.9337-0.94053-4.2022-4.2434-4.2022h-9.9388zm-3.1206 11.177-4.3032 15.522h12.117c3.4783 0 5.8242-1.032 6.6784-3.5616l2.1903-7.9522c0.53729-2.3839-1.2792-4.0082-4.2574-4.0082z" stroke-width=".58003"/></g></svg>
