<svg width="1015.9" height="263.1" version="1.1" viewBox="0 0 1015.9 263.1" xml:space="preserve" xmlns="http://www.w3.org/2000/svg">
<g fill="#d20a0a"><polygon transform="translate(-451.95 -409.1)" points="782.8 409.1 976.1 409.1 960.1 466.9 766.7 466.9"/><polygon transform="translate(-451.95 -409.1)" points="949 506.8 755.6 506.8 709.8 672.1 799.2 672.1 829 564.7 933 564.7"/><path d="m596.35 203.2c-2.4-1.3-3.8-3.1-4.4-5.3-0.2-0.7-0.2-1.3-0.2-2 0-0.6 0.1-1.3 0.3-1.9l35-126.3c1-3.7 2.8-6.2 5.3-7.6s6.9-2.2 13.2-2.2h96.6l16.1-57.9h-135.4c-24.7 0-41.9 2.9-51.9 8.5-10 5.5-17 15.4-21 29.9l-50 180.1c-0.8 2.7-1.2 5.4-1.3 7.9-0.2 2.8 0.2 5.4 0.8 8 2.3 8.8 8 15.7 17.3 21 9.1 5.1 20.5 7.7 34.1 7.7h141.8l16.1-57.9h-103.7c-3.4 0-6.3-0.7-8.7-2" clip-rule="evenodd" fill-rule="evenodd"/><path d="m61.952 0-60.6 218.5c-0.8 2.7-1.2 5.4-1.3 7.9-0.2 2.8 0.2 5.4 0.8 8 2.3 8.8 8 15.7 17.3 21 9.1 5.1 20.5 7.7 34.1 7.7h100.8c24.7 0 41.9-2.9 51.9-8.5 10-5.5 17-15.4 21-29.9l62.3-224.7h-89.5l-54.2 195.4c-1 3.7-2.8 6.2-5.3 7.6s-6.9 2.2-13.2 2.2h-15.4c-3.5 0-6.4-0.7-8.7-2-2.4-1.3-3.8-3.1-4.4-5.3-0.2-0.7-0.2-1.3-0.2-2 0-0.6 0.1-1.3 0.3-1.9l53.8-194z" clip-rule="evenodd" fill-rule="evenodd"/><polygon transform="translate(-451.95 -409.1)" points="1189.2 672.1 1425 672.1 1433 643.2 1197.2 643.2"/></g>
<polygon transform="translate(-451.95 -409.1)" points="1277.7 495.8 1237.7 495.8 1245.8 467 1358.6 467 1350.6 495.8 1310.6 495.8 1277.7 614.3 1244.8 614.3" fill="#fff"/>
<path d="m881.85 205.2 40.9-147.2h58.4c26.9 0 36.2 9.3 34.6 24.5-0.2 2.4-0.7 4.9-1.4 7.5l-4.2 15c-2.9 10.6-8.1 18.1-23.9 23.4 10.8 2.9 17.3 11.3 16.2 22.5-0.2 1.5-0.5 3.1-0.9 4.9l-4.1 14.4c-5.9 20.6-18.7 34.9-52.4 34.9h-63.2zm87.5-52c0.6-6.2-3-9.5-10.8-9.5h-26.9l-10 35.4h22.9c10.4 0 18.7-2.2 21.6-13.3l2.5-9.1c0.3-1.3 0.7-2.8 0.7-3.5m11.1-58.3c0.3-1.1 0.7-2.2 0.8-3.1 0.5-5.1-2.3-7.7-10.3-7.7h-22.7l-9.7 34.7h21.8c10 0 14.9-4.6 16.7-11z" fill="#fff"/>
</svg>
