<svg width="650.55pt" height="130.91pt" version="1.1" viewBox="0 0 650.55 130.91" xmlns="http://www.w3.org/2000/svg">
 <path d="m360.75 0.19c8.55-0.51 17.18 0.3 25.62 1.73 8.45 1.73 17.08 6.04 21.25 13.96 6.25 11.31 4.55 24.7 4.81 37.1-0.03 12 0.92 25.28-6.39 35.6-6.7 9.3-18.84 12.09-29.66 12.76-9.46 1.16-19.02 0.46-28.42-0.85-9.32-1.45-19.05-5.76-23.7-14.42-6.45-11.6-4.49-25.37-4.83-38.09-0.07-12.31-0.67-26.24 7.7-36.29 8.34-9.46 21.8-10.8 33.62-11.5m-4.95 23.38c-3.16 0.51-5.84 2.76-7.02 5.71-1.64 4.02-1.31 8.46-1.38 12.71l0.13 24.06c0.13 4.28 1.34 9.28 5.5 11.36 4.5 2.04 9.6 1.49 14.41 1.62 4.5-0.15 9.56 0.14 13.35-2.72 3.03-2.86 3.53-7.33 3.63-11.27l0.04-26.07c-0.05-4.2-0.06-8.83-2.7-12.34-2.47-2.99-6.63-3.49-10.25-3.61-5.24-0.07-10.54-0.39-15.71 0.55z" fill="#ff6a00"/>
 <path d="m481.12 7.64c8.95-7.45 21.35-7.18 32.35-7.64 9.83 0.85 21 0.17 29.05 6.9 7.62 6.25 8.81 16.83 8.86 26.05-0.42 8.28-1.19 18.14-8.72 23.25-11.64 7.44-25.84 8.42-38.77 12.32-5 1.31-6.1 6.975-6.39 11.405h53.93v20.97h-78.345v-21.905c0.1-6.6-0.055-13.84 3.955-19.45 4.27-5.75 11.43-8.07 18.01-10.04 8.14-2.5 16.57-3.9 24.76-6.22 2.35-0.84 5.48-1.74 6.16-4.5 0.77-4.1 0.74-8.38 0.04-12.49-0.48-2.79-3.01-4.72-5.74-4.97-4.94-0.6-9.94-0.47-14.89-0.18-2.44 0.14-5.32 0.95-6.28 3.46-1.35 4.02-1.15 8.335-1.49 12.505h-24.44c-0.72-10.19-0.04-22.055 7.95-29.465z" fill="#ff6a00"/>
 <path d="m0 1.08h29.3l17.59 42.605h2.03l16.89-42.605h30.02l-37.64 77.63c-4.12 7.76-8.8 16.08-16.98 20.15-8.61 4.17-18.575 3.12-27.725 1.86v-21.227c4.97 0.38849 9.875 0.81679 14.825 0.23679 2.88-0.27 5.2-2.91 5.46-5.73z" fill="#ff6a00"/>
 <path d="m603.62 1.08h38.805v60.82h8.125v20.07h-8.12v18.94h-25v-18.94h-52.073v-29.019l38.263-51.871m-17.43 60.82h31.115v-41.02z" fill="#ff6a00"/>
 <path d="m233.44 1.9697v8.9458c-11.43 0.25-23.531-0.77504-34.301 3.835-6.9 2.89-11.499 9.5594-13.289 16.649-2.94 11.76-2.9711 24.131-0.85108 36.031 1.45 7.73 5.34 15.699 12.75 19.229 11 5.47 23.811 3.9701 35.691 4.3901v9.8599h26.982v-9.8599c11.88-0.42 24.689 1.0799 35.689-4.3901 7.41-3.53 11.3-11.499 12.75-19.229 2.12-11.9 2.0904-24.271-0.84961-36.031-1.79-7.09-6.3905-13.759-13.291-16.649-10.77-4.61-22.869-3.585-34.299-3.835v-8.9458h-26.981zm-10.625 32.095h10.625v33.825h-10.625c-1.9614 0-3.675-0.1797-4.8354-0.52881-5.5-1.73-6.4596-8.361-6.5596-13.311 0.06-6.05-0.79137-13.449 4.0986-17.969 2.3167-1.4887 4.5965-2.0156 7.2964-2.0156zm37.607 0h10.623c2.6999 0 4.9797 0.52696 7.2964 2.0156 4.89 4.52 4.0401 11.919 4.1001 17.969-0.1 4.95-1.0596 11.581-6.5596 13.311-1.1605 0.34911-2.8755 0.52881-4.8369 0.52881h-10.623z" fill="#ff6a00"/>
 <path d="m135.09 32.62c8.15-3.65 17.66-3.15 25.98-0.32 5.89 2.03 10.45 7.17 11.91 13.22 2.17 8.66 1.34 17.67 1.42 26.5-0.45 7.83-0.8 16.48-6.14 22.75-4.58 5.53-12.18 6.67-18.93 7.14-4.53 0.08-9.19-0.52-13.36-2.4-3.85-1.79-6.3202-5.4615-8.48-8.94v40.34h-22.99v-99.87h22.77c-0.34 3.74-0.54 7.48-0.44 11.24 2.2415-4.0253 4.1-7.89 8.26-9.66m-1.35 14.76c-4.43 0.8-5.83 5.7-6.09 9.57-0.33 6.56-0.53 13.18 0.23 19.7 0.39 4.37 3.96 8.26 8.49 8.28 4.51 0.27 10.63 0.65 13.06-4.08 2.73-5.89 1.87-12.61 2.01-18.91-0.17-4.68 0.02-10.62-4.4-13.54-4.05-2.08-8.94-1.68-13.3-1.02z" fill="#ff6a00"/>
</svg>
