<svg width="248.91" height="94.935" version="1.1" viewBox="0 0 65.857 25.118" xmlns="http://www.w3.org/2000/svg">
 <g transform="translate(49.937 -136.27)" fill-rule="evenodd">
  <path d="m-25.851 147.77c-0.35398 1.4877-2.1191 2.6954-3.9429 2.6954-1.8237 0-3.0136-1.2077-2.66-2.6954 0.35479-1.4883 2.1202-2.6938 3.9427-2.6938 1.8237 0 3.0134 1.2055 2.6602 2.6938" fill="#4dbd40"/>
  <path d="m-24.783 152.54c-3.1382 3.6836-8.4077 6.214-13.799 6.214-7.6062 0-12.573-5.0323-11.095-11.24 1.4781-6.2086 8.842-11.241 16.448-11.241 5.8262 0 10.104 2.9533 11.122 7.1262-1.3221-0.96079-3.9733-1.1014-6.2254-1.1014-2.3327 0-5.0235 0.1439-6.7591 1.1332-0.91479 0.5322-1.8289 1.4667-2.1648 2.9336h-2.053l0.70933-3.832h-3.5653s-1.5884-0.0865-1.8407 1.265c-0.25153 1.3509-1.7056 9.1467-1.7056 9.1467l3.1403 9e-3c0.80592 0 2.1715-0.0275 2.4208-2.0151 0.13561-0.73152 0.39282-2.1179 0.39282-2.1179h2.0535c-0.37349 1.7037 0.29831 2.6756 1.008 3.2063 1.3999 0.9724 3.9914 1.2162 6.3432 1.2162 1.7926 0 3.9398-0.15459 5.5701-0.7028" fill="#ed1443"/>
  <path d="m-20.152 148.82h0.49071l0.26871-1.4587h0.54469l0.1524-0.355h-1.7416l-0.06382 0.355h0.6175zm1.5007 0h1.2316l0.06389-0.355h-0.7408l0.0714-0.38269h0.65228l0.06389-0.355h-0.65218l0.0695-0.36601h0.65521l0.13049-0.355h-1.2128zm1.6142-8e-3c0.0231 5e-3 0.0472 0.01 0.0726 0.0129 0.02498 3e-3 0.0495 5e-3 0.07239 7e-3 0.02299 2e-3 0.04262 2e-3 0.05909 2e-3 0.1046 3.4e-4 0.19943-0.0133 0.28522-0.0418 0.0859-0.0278 0.16281-0.0728 0.23128-0.13441 0.07729-0.0711 0.14721-0.16601 0.20902-0.28479 0.06198-0.11829 0.12128-0.26289 0.17791-0.433 0.0568-0.17071 0.11589-0.36862 0.17699-0.59511h0.32311l-0.27083 1.4754h0.49093l0.33239-1.8137h-1.254c-0.03842 0.156-0.07832 0.3048-0.11843 0.44492-0.03958 0.14041-0.08128 0.26981-0.12467 0.38718-0.04293 0.118-0.08901 0.22063-0.13783 0.30861-0.04879 0.0877-0.10139 0.15691-0.15829 0.20782-0.0326 0.029-0.06699 0.051-0.10361 0.0656-0.03637 0.0151-0.07539 0.0224-0.11779 0.0224-0.01281 0-0.02519-3.4e-4 -0.03729-2e-3 -0.0123-1e-3 -0.025-4e-3 -0.03962-7e-3l-0.06858 0.37719zm2.2679 8e-3h1.2316l0.06392-0.355h-0.7408l0.0714-0.38269h0.65228l0.06378-0.355h-0.65218l0.0695-0.36601h0.65521l0.13049-0.355h-1.2127zm1.7635 0h0.49068l0.1106-0.5945h0.07613c0.10777-3.4e-4 0.2051-7e-3 0.2933-0.0217 0.08819-0.0137 0.16658-0.0334 0.2359-0.0582 0.10509-0.0381 0.18969-0.0875 0.2546-0.14848 0.06509-0.0617 0.11169-0.1317 0.13949-0.211 0.02769-0.079 0.03821-0.16482 0.03171-0.25689-0.0057-0.0735-0.02453-0.14002-0.05711-0.19943-0.03281-0.0594-0.0768-0.11109-0.13219-0.15497-0.05532-0.0448-0.12033-0.0804-0.19452-0.10813-0.05479-0.0205-0.1155-0.0358-0.1814-0.0457-0.06629-0.01-0.1415-0.0147-0.2249-0.0147h-0.5099zm0.66308-0.93299 0.0985-0.5424h0.08223c0.0381 0 0.07158 4e-3 0.1016 9e-3 0.02928 6e-3 0.055 0.0138 0.07818 0.0238 0.04001 0.0183 0.06999 0.0436 0.08862 0.0753 0.01886 0.0322 0.02928 0.0673 0.0315 0.1063 4e-3 0.0582-6e-3 0.10967-0.03073 0.15508-0.02426 0.0454-0.06138 0.0826-0.11208 0.11179-0.03351 0.0195-0.07303 0.0345-0.1192 0.0447-0.04572 0.0106-0.0961 0.016-0.15219 0.016zm0.72701 0.93299h0.54441l0.24229-0.43229h0.6301l0.11543 0.43229h0.51329l-0.54522-1.8221h-0.42108zm0.98192-0.768 0.17487-0.34949c0.01029-0.0199 0.02082-0.0435 0.0315-0.07 0.01132-0.0272 0.0218-0.0533 0.03122-0.0785h0.0061c0.0036 0.0274 0.0086 0.0541 0.01418 0.0793 0.0051 0.025 0.01061 0.0486 0.01521 0.0692l0.07839 0.34949zm1.1096 1.2907h0.49078l0.09659-0.52271h1.146l-0.09652 0.52271h0.4875l0.16351-0.8805h-0.3103l0.26889-1.4559h-1.2253c-0.03979 0.16051-0.08329 0.3097-0.13039 0.44683-0.04692 0.13748-0.09952 0.26497-0.1584 0.3834-0.05891 0.1179-0.12541 0.22867-0.2002 0.33217-0.0744 0.10301-0.15949 0.2007-0.25471 0.29351h-0.11751zm1.4901-0.8805h-0.65239l-2.65e-4 -6e-3c0.09352-0.10548 0.17332-0.2166 0.23971-0.3333 0.06618-0.11709 0.12358-0.24049 0.17131-0.36978 0.04829-0.1294 0.09098-0.2654 0.12887-0.40891h0.31662zm1.0636 0.35779h0.4971l0.9078-0.87521c0.04752-0.0456 0.09401-0.0913 0.1398-0.13768 0.0453-0.0463 0.08971-0.092 0.13229-0.13759h0.0065c-0.0076 0.0303-0.01397 0.0588-0.02008 0.0859-0.0059 0.027-0.01162 0.0533-0.01601 0.0791l-0.17819 0.98549h0.49068l0.33242-1.8137h-0.5001l-0.89553 0.8697c-0.0489 0.0483-0.09729 0.0956-0.14478 0.14312-0.0478 0.0471-0.09532 0.0949-0.14231 0.14319h-0.0064c0.0086-0.0346 0.0168-0.069 0.02379-0.1028 0.0073-0.0335 0.01341-0.0665 0.01923-0.0985l0.17699-0.95472h-0.48729zm3.3645 0.0275c0.1445-3.4e-4 0.27771-0.0187 0.39938-0.0556 0.12181-0.0362 0.23033-0.088 0.3247-0.15522 0.09461-0.0667 0.17413-0.1464 0.23823-0.2388 0.06417-0.0922 0.11098-0.19409 0.14079-0.30578 0.03009-0.11152 0.04029-0.23051 0.032-0.35652-0.0088-0.11589-0.03641-0.21968-0.0841-0.31179-0.04759-0.0922-0.11271-0.1706-0.19459-0.2359-0.0822-0.0651-0.17889-0.11469-0.29062-0.14901-0.11169-0.0345-0.2359-0.0516-0.37289-0.052-0.14422 3.4e-4 -0.2776 0.019-0.39892 0.0557-0.12209 0.0362-0.2298 0.088-0.32498 0.1549-0.09451 0.0669-0.17382 0.14672-0.23841 0.23912-0.06399 0.0922-0.11081 0.19388-0.14041 0.30578-0.0297 0.11152-0.04039 0.2303-0.03221 0.35641 0.0087 0.1161 0.03641 0.21979 0.08393 0.31211 0.04829 0.0921 0.11268 0.17049 0.19487 0.23558 0.08213 0.0651 0.17893 0.1148 0.29083 0.14912 0.11148 0.0344 0.23569 0.0515 0.37239 0.0519zm0.01341-0.3495c-0.08682 0-0.162-0.0167-0.22581-0.0487-0.06389-0.0316-0.1148-0.079-0.15229-0.1404-0.03701-0.0618-0.0586-0.13769-0.06551-0.22659-0.0052-0.075 1.06e-4 -0.14891 0.01619-0.22151 0.01622-0.072 0.04163-0.13938 0.0762-0.20288 0.0345-0.0632 0.07701-0.11882 0.12813-0.1668 0.05147-0.0482 0.10957-0.0856 0.1754-0.11271 0.06509-0.0277 0.13638-0.0413 0.21368-0.0417 0.087 0 0.1627 0.0159 0.2268 0.0481 0.0641 0.0321 0.11409 0.079 0.15159 0.14072 0.03732 0.062 0.05941 0.13709 0.0654 0.2267 0.0054 0.0752 0 0.14901-0.01619 0.22091-0.0158 0.0726-0.04078 0.13998-0.07528 0.2032-0.03482 0.0629-0.07811 0.11878-0.1288 0.16707-0.05101 0.0483-0.10961 0.0858-0.17473 0.11282-0.06579 0.0276-0.13709 0.0411-0.21477 0.0418zm1.2894 0.32198h0.49068l0.13751-0.75127h0.27559c0.02421-3.5e-4 0.04872 0.0128 0.07352 0.0403 0.02447 0.0278 0.04608 0.073 0.06519 0.13561l0.1669 0.57538h0.554l-0.2848-0.7239c-0.01662-0.0449-0.04022-0.0839-0.0695-0.11801-0.02903-0.0333-0.06682-0.0575-0.11151-0.072l-2.65e-4 -5e-3c0.04868-0.0141 0.09017-0.0353 0.1246-0.0634 0.03369-0.0282 0.06329-0.0603 0.08717-0.0965 0.02432-0.0361 0.0453-0.0735 0.06431-0.11222 0.01918-0.0383 0.0375-0.075 0.05489-0.10999 0.01842-0.0352 0.03842-0.0655 0.06032-0.0914 0.01717-0.0197 0.0362-0.0352 0.058-0.0476 0.02127-0.0118 0.04868-0.0179 0.08297-0.0183 0.02061 0 0.04131 2e-3 0.0629 6e-3 0.02082 4e-3 0.04283 0.0104 0.06551 0.0187l0.06361-0.36051c-0.03782-0.0115-0.0811-0.0205-0.13021-0.0277-0.04851-7e-3 -0.09768-0.011-0.14778-0.011-0.0671 0-0.12573 7e-3 -0.17611 0.0208-0.04971 0.0137-0.0925 0.0325-0.12901 0.0568-0.037 0.0244-0.06851 0.0525-0.09518 0.0851-0.0376 0.0453-0.06911 0.0937-0.09451 0.14563-0.02529 0.0525-0.04872 0.10379-0.06992 0.15459-0.02127 0.0513-0.04438 0.0977-0.06939 0.14009-0.025 0.0419-0.05599 0.076-0.0926 0.10121-0.03701 0.0252-0.08368 0.0384-0.13981 0.0388h-0.18697l0.1331-0.72362h-0.4907l-0.33239 1.8137zm3.0226 0.0275c0.14457-3.4e-4 0.27788-0.0187 0.39927-0.0556 0.12202-0.0362 0.23029-0.088 0.3248-0.15522 0.0944-0.0667 0.17392-0.1464 0.23819-0.23879 0.06431-0.0922 0.11112-0.1941 0.14062-0.30579 0.03041-0.11151 0.04061-0.23051 0.032-0.35652-0.0085-0.11589-0.03619-0.21967-0.08371-0.31178-0.04769-0.0922-0.11278-0.17061-0.19498-0.23591-0.08202-0.0651-0.17889-0.11468-0.29062-0.14901-0.11179-0.0345-0.2358-0.0516-0.3725-0.052-0.1446 3.4e-4 -0.27799 0.019-0.39927 0.0557-0.12192 0.0362-0.22984 0.088-0.32473 0.15491-0.09468 0.0669-0.17399 0.14672-0.23837 0.23911-0.06431 0.0922-0.11091 0.19388-0.14041 0.30579-0.0297 0.11151-0.0406 0.23029-0.03249 0.35641 0.0088 0.1161 0.03658 0.21978 0.08407 0.3121 0.04822 0.0921 0.11282 0.1705 0.19491 0.23558 0.08192 0.0651 0.17911 0.1148 0.29069 0.14912 0.11151 0.0344 0.23562 0.0515 0.37253 0.0519zm0.01347-0.34949c-0.087 0-0.1621-0.0167-0.22609-0.0487-0.06389-0.0316-0.11469-0.079-0.15208-0.14041-0.03711-0.0618-0.05881-0.13769-0.06562-0.22659-0.0053-0.075 2.64e-4 -0.14891 0.0163-0.22151 0.01619-0.072 0.04142-0.13938 0.07609-0.20288 0.0345-0.0632 0.07722-0.11882 0.12809-0.16679 0.05172-0.0482 0.1095-0.0856 0.17533-0.11272 0.06509-0.0277 0.13638-0.0413 0.214-0.0417 0.0871 0 0.1627 0.0159 0.22669 0.0481 0.06389 0.0321 0.1143 0.079 0.15169 0.14073 0.03701 0.062 0.05909 0.13709 0.06551 0.22669 5e-3 0.0752-2.65e-4 0.14901-0.01651 0.22091-0.01601 0.0726-0.04089 0.13998-0.07539 0.2032-0.03461 0.0629-0.07772 0.11878-0.12862 0.16708-0.05119 0.0483-0.10979 0.0858-0.1748 0.11281-0.06569 0.0276-0.13709 0.0411-0.2146 0.0418zm1.2891 0.32198h0.49068l0.1294-0.6881c0.0054-0.029 0.0114-0.0624 0.01831-0.1005 0.0073-0.038 0.01421-0.0774 0.02148-0.11769 0.0066-0.041 0.0122-0.0796 0.01701-0.11582 5e-3 -0.0367 0.0075-0.0676 0.0086-0.0928h0.01241c0.0114 0.0263 0.02267 0.0512 0.0344 0.074 0.01109 0.0231 0.02318 0.0455 0.03538 0.068 0.0123 0.022 0.02572 0.0454 0.04001 0.07l0.27499 0.48991h0.21851l0.43081-0.4952c0.0205-0.0233 0.0423-0.0473 0.06308-0.072 0.0213-0.0248 0.04131-0.0486 0.0604-0.0718 0.01902-0.0232 0.03542-0.0443 0.049-0.0629h0.0094c-0.0073 0.0248-0.0149 0.0594-0.02278 0.10248-0.0077 0.0432-0.01733 0.0947-0.02893 0.15343l-0.15868 0.85898h0.49089l0.33239-1.8137h-0.5067l-0.54148 0.63292c-0.0471 0.0533-0.08742 0.1016-0.12171 0.14471-0.0345 0.0431-0.06371 0.0827-0.08791 0.11959h-0.0061c-0.01331-0.0304-0.03299-0.0702-0.05888-0.11881-0.02572-0.0487-0.0562-0.10541-0.09112-0.17011l-0.3338-0.60831h-0.44637zm2.6662 0h0.49079l0.26892-1.4559h0.817l-0.26899 1.4559h0.49068l0.33292-1.8137h-1.7955zm2.1215 0h0.54451l0.24208-0.4323h0.62992l0.11561 0.4323h0.51329l-0.54522-1.8221h-0.42108zm0.98182-0.768 0.17498-0.3495c0.01029-0.0199 0.02082-0.0435 0.0315-0.07 0.0113-0.0272 0.02151-0.0533 0.0308-0.0785h0.0065c0.0036 0.0274 0.0085 0.0541 0.01389 0.0793 0.0054 0.025 0.0109 0.0486 0.01543 0.0692l0.07821 0.3495zm1.3802 0.768h0.49072l0.13511-0.7432h0.92149l-0.13501 0.7432h0.49071l0.3326-1.8137h-0.49072l-0.13081 0.71292h-0.92138l0.1306-0.71292h-0.49078zm2.4381 0h0.49689l0.90802-0.87521c0.04738-0.0456 0.09409-0.0913 0.13981-0.13769 0.0454-0.0463 0.08967-0.092 0.1324-0.13758h0.0062c-0.0073 0.0303-0.01378 0.0588-0.0199 0.0859-6e-3 0.027-0.01151 0.0533-0.01588 0.0791l-0.17833 0.98548h0.49071l0.3326-1.8137h-0.50023l-0.8956 0.86971c-0.04879 0.0483-0.0973 0.0956-0.14478 0.14312-0.04791 0.0471-0.09511 0.0949-0.14242 0.14319h-0.0065c0.0087-0.0346 0.0168-0.069 0.0241-0.1028 0.0071-0.0335 0.01331-0.0665 0.01897-0.0985l0.17713-0.95472h-0.48751zm2.3147 0h0.54772l0.28889-0.48719c0.0278-0.048 0.05369-0.0849 0.07719-0.11049 0.02342-0.0258 0.04611-0.0432 0.06812-0.0523 0.02148-0.01 0.04459-0.0138 0.0672-0.0134h0.24387l-0.12178 0.6634h0.491l0.33239-1.8137h-0.82931c-0.11917 7.1e-4 -0.2286 0.0143-0.32819 0.0421-0.09931 0.0281-0.1844 0.0682-0.2564 0.12068-0.07158 0.0522-0.1265 0.11529-0.16281 0.18892-0.03669 0.0735-0.05249 0.15659-0.04678 0.24818 0.0037 0.0517 0.0176 0.10093 0.04078 0.14841 0.02402 0.0472 0.05651 0.0893 0.09761 0.12739 0.04149 0.0377 0.09031 0.0688 0.14718 0.0931l2.64e-4 6e-3c-0.04022 0.015-0.07532 0.0348-0.1064 0.0592-0.0303 0.0246-0.05712 0.0509-0.0798 0.0783-0.0232 0.0279-0.0423 0.0545-0.05853 0.0797l-0.4124 0.62219zm1.1585-1.0018c-0.0622-3.4e-4 -0.11412-9e-3 -0.15632-0.0254-0.04191-0.0162-0.07348-0.0398-0.09571-0.0695-0.0223-0.0304-0.0345-0.0658-0.03739-0.10611-0.0028-0.0453 0.0041-0.0852 0.02082-0.1192 0.0163-0.0342 0.04078-0.0624 0.07211-0.0852 0.03157-0.0227 0.0678-0.0395 0.10978-0.0511 0.04149-0.0114 0.0858-0.0171 0.13272-0.0171h0.2376l-0.0871 0.4736z" fill="#7b7979"/>
  <path d="m1.6069 156.98c-0.2921 0-0.67169-0.0516-1.0377-0.2062l0.81238-4.4338c0.13603-0.0348 0.42622-0.086 0.71942-0.086 1.0486 0 1.9247 0.53269 1.9703 1.8741 0.05161 1.5284-0.89969 2.8519-2.4644 2.8519zm-5.757-0.38249c-0.13981 0.0427-0.27728 0.0855-0.39338 0.1208-0.60099 0.2075-1.2646 0.34759-1.7305 0.34759-0.635 0-1.004-0.22338-1.0186-0.65299-0.0424-1.2554 4.4912-0.84201 4.3925-3.7645-0.0447-1.3213-1.0573-2.2851-3.0503-2.2851-0.92198 0-1.8218 0.16972-3.074 0.62011l0.69571 1.5884s0.2885-0.0797 0.82229-0.22342c0.53301-0.1427 1.0029-0.19699 1.2895-0.19699 0.6362 0 1.0029 0.17099 1.0163 0.5661 0.0453 1.3415-4.4912 0.84198-4.3911 3.7984 0.05232 1.5475 1.351 2.3549 3.1556 2.3549 1.0455 0 2.4549-0.398 3.3635-0.8491 0 0-0.4784-1.1182-0.53171-1.2292-0.08361-0.17568-0.2946-0.27259-0.54582-0.19498zm-10.678 0.4341c-0.82529 0-1.3224-0.48119-1.3606-1.6147-0.0628-1.8568 0.80229-3.2143 1.9539-3.2143 0.82511 0 1.3216 0.48151 1.3601 1.6155 0.06279 1.8562-0.80211 3.2135-1.9534 3.2135zm0.66819-6.6683c-1.9414 0-3.4642 1.2543-4.054 3.1111h-1.24l0.5461-2.9227h-2.3138l-1.5115 8.1568s0.87662 0.0104 1.5278-0.01c0.47441-0.0141 0.79749-0.3303 0.90999-0.73191h0.0035l0.45949-2.4641h1.3956c-0.01389 0.0858 0.01101 0.32632 0.01619 0.48041 0.2837 1.7698 1.5756 2.8873 3.5179 2.8873 2.6122 0 4.4261-2.2336 4.3295-5.0863-0.07059-2.0967-1.4726-3.4207-3.5867-3.4207zm26.136 6.635s-0.52169 0.0628-0.88328 0.0843c-0.24021 0.0133-0.59803 0.0253-0.89433 7.1e-4 -0.4469-0.0378-0.79798-0.24081-0.8159-0.77421-0.01008-0.29171 0.08481-0.54959 0.2837-0.75529 0.34823-0.36093 1.0293-0.55002 2.1288-0.55002l0.5618-2e-3 -0.38079 1.9964zm2.7907-4.0738c-0.07218-2.1308-1.8737-2.5612-3.3169-2.5612-1.0489 0-2.1246 0.25181-3.2847 0.70792l0.61401 1.4819s0.58561-0.16146 0.9851-0.26878c0.3979-0.10851 0.89009-0.18521 1.2805-0.18521 1.066 0 1.389 0.41282 1.4098 1.031 0.0021 0.0688-0.01019 0.22341-0.02402 0.34371l-0.77219 0.0179c-1.495 0-2.8262 0.29231-3.6426 1.0479-0.5328 0.49809-0.83598 1.1685-0.80398 2.1138 0.0441 1.306 0.92078 2.1401 2.3299 2.2081 0.72503 0.0357 1.339 9e-3 2.0962-0.0358 0.7977-0.0481 2.1964-0.15579 2.1964-0.15579l0.17322-0.94181c0.1132-0.58949 0.2473-1.3441 0.33048-1.7698l0.12922-0.7257 0.1723-0.93592-0.0021-1e-3c0.08181-0.4669 0.1439-0.94319 0.1294-1.371zm-12.678-2.5615c-0.80832 0-1.8163 0.15568-2.7351 0.44711l-1.951 10.569s0.86568 0.0265 1.5926-3e-3c0.4457-0.0192 0.77001-0.3319 0.83979-0.7003l0.38371-2.08c0.5395 0.1892 1.0758 0.2752 1.6423 0.2752 2.6635 0 4.6063-2.0111 4.5062-4.9666-0.07158-2.1142-1.5115-3.5413-4.2785-3.5413" fill="#7b7979"/>
 </g>
</svg>
