<svg width="600pt" height="399.38pt" version="1.1" viewBox="0 0 600 399.38" xmlns="http://www.w3.org/2000/svg">
 <g transform="matrix(2.2142 0 0 2.2142 -254.31 -111.13)">
  <path d="m321.63 54.82c2.59-2.95 6.37-5.07 10.41-4.55 7.84 0.77 15.97 2.59 22.43 7.34 3.95 3.01 5.08 8.49 3.66 13.11 6.1-1.05 12.88-2.37 18.71 0.4 6.19 4 8.79 11.79 8.99 18.86 0 5.34-1.39 11.66-6.41 14.5-5.61 3.07-12.04 4.2-18.35 4.71 1.4 3.11 3.14 6.34 2.77 9.87-0.28 3.74-2.58 7.12-5.77 9.01-6.34 3.96-13.56 6.61-20.97 7.63-3.39 0.57-6.61-0.88-9.31-2.79-1.68 1.37-3.52 2.54-5.53 3.39 3.81 1.27 8.1 2.43 10.54 5.89 2.16 2.82 2.63 6.58 1.83 9.98-3.56 17.51-8.46 34.71-13.71 51.77-1.45 5.07-6.73 8.64-11.98 8.03-6.84-0.65-13.63-2.24-19.98-4.87-4.36-1.89-6.36-6.62-6.77-11.09-1.71 2.37-3.48 4.94-6.29 6.09-4.29 1.88-9.09 0.61-13.57 0.44-2.67 10.12-10.02 18.73-19.38 23.3-12.53 6.16-28.18 6.54-40.51-0.32-4.38-2.75-6.38-8.71-4.44-13.52 1.55-3.88 3.45-7.61 5.08-11.46-1.73-1.5-3.38-3.07-4.97-4.7-5.28 4.64-12.19 6.87-18.97 8.26-4.51 0.76-9.79 1.43-13.58-1.74-7.24-6.09-10.4-16.54-7.86-25.64 0.7-2.59 2.47-4.79 4.71-6.23 4.93-3.23 10.65-4.96 16.36-6.2-1.37-3.35-2.41-6.82-3.12-10.36-9.17 3.49-19.49 4.34-28.91 1.36-5.07-1.59-8.55-7.11-7.64-12.37 0.8-4.33 2.12-8.53 3.09-12.82-5.52-3.03-10.28-7.35-13.91-12.5-5.55-7.48-8.08-16.57-11.84-24.98-1.59-3.33-2.29-7.33-0.64-10.79 1.1-2.74 3.46-4.67 5.96-6.1 6.08-3.55 12.51-6.59 19.26-8.63 2.69-0.94 5.51-0.29 8.15 0.47 1.44-2.01 3.09-3.98 5.42-4.98 6.72-3.22 13.95-5.4 21.31-6.53 5.1-1 10.62 1.97 12.53 6.81 1.45 3.55 2.3 7.31 3.37 10.99 7.32-0.98 15.37-3.26 22.39 0.02 6.68-3.71 14.73-2.91 22.08-2.62 1.49-5.52 6.89-9.49 12.65-8.91 7.43 0.46 15.96 0.29 21.95 5.4 3.77-1.98 8.1-1.79 12.23-1.68-0.02-4.92 2.87-9.92 7.7-11.47 7.51-2.21 15.42-3 23.23-2.9 2.87-0.04 5.41 1.42 7.6 3.12" fill="#0d3b99"/>
 </g>
 <g transform="matrix(2.2142 0 0 2.2142 -254.31 -111.13)" fill="#fff">
  <path d="m316.46 85.26c4.67-8.02 9.56-15.91 14.69-23.64 5.67 0.58 11.33 1.91 16.34 4.72-3.03 8.44-8.29 15.83-13.28 23.2 6.87 9 13.77 18.18 18.48 28.53-5.12 3.23-10.9 5.34-16.86 6.36-4.92-6.37-9.18-13.23-13.09-20.25-1.41 1.62-2.83 3.23-4.24 4.85 0.38 5.37 0.8 10.74 0.87 16.13-6.21 1.42-12.59 2.02-18.95 1.61-3.04-19.46-4.34-39.15-5.48-58.8 0.06-0.66 0.17-2 0.23-2.66 6.05-1.7 12.39-2.15 18.65-2.21 1.24 7.34 1.88 14.76 2.64 22.16z"/>
  <path d="m159.58 72.92c5.87-2.75 12.13-4.62 18.53-5.63 4.45 14.53 7.75 29.38 11.24 44.16 1.92 7.87 0.22 16.64-5.05 22.87-8.03 9.49-21.81 13.45-33.75 10.2 1.47-5.85 2.92-11.71 4.41-17.56 7 1.96 14.71-2.83 15.5-10.16-5.59 3.56-12.38 6.37-19.08 4.5-8.51-2.4-14.28-10.05-17.87-17.73-2.4-5.73-4.79-11.47-7.04-17.27 5.66-3.36 11.62-6.21 17.87-8.27 3.2 6.05 6.22 12.19 9.26 18.32 1.39 2.76 3.32 5.62 6.39 6.66 2.44 0.88 4.88-0.32 7.1-1.22-2.41-9.65-4.99-19.25-7.51-28.87z"/>
  <path d="m242.02 122.82c1.15-16.41 3.03-32.8 5.68-49.04 5-0.04 10.01 0.48 14.85 1.79-0.34 7.21-1.05 14.4-1.84 21.58 5.39-6.6 10.7-13.27 16.39-19.61 5.15-0.26 10.3 0.26 15.34 1.28-1.16 16.41-3.03 32.8-5.67 49.04-5.01 0.06-10.01-0.48-14.85-1.78 0.34-7.22 1.03-14.42 1.84-21.61-5.45 6.65-10.96 13.25-16.65 19.69-5.06 0.13-10.13-0.31-15.09-1.34z"/>
  <path d="m353.41 83.34c5.77-2.44 12.1-3.56 18.35-3.05 3.31 4.18 4.29 9.94 2.58 14.98-5.76 2.59-12.14 3.62-18.42 3.2-3.33-4.24-4.39-10.03-2.51-15.13z"/>
  <path d="m221.37 83.08c5.43-0.81 10.96-0.89 16.4-0.15 1.36 17.78 1.18 35.63 0.74 53.45-5.44 0.88-10.97 1.07-16.45 0.65-0.54-6.18-0.63-12.38-0.79-18.58l-9.24 0.26c0.5 6.19 0.92 12.38 1.2 18.59-5.31 1.46-10.84 1.7-16.31 1.59-2.9-17.63-3.99-35.52-4.9-53.34 5.34-1.27 10.82-1.88 16.32-1.89 0.99 5.81 1.48 11.69 2.15 17.55l10.58-0.37c0.01-5.92-0.02-11.85 0.3-17.76z"/>
  <path d="m263.13 136.32c5.54-0.01 11.06 0.71 16.43 2.06 3.87 6.6 7.18 13.5 10.35 20.45 5.85-4.83 11.61-9.8 17.8-14.2 5.5 0.73 10.91 2.09 16.02 4.3-3.45 17.5-8.42 34.65-13.61 51.7-5.48-0.61-10.87-1.9-16.04-3.79 1.4-8.19 3.69-16.21 6.31-24.08-4.24 5.21-9.75 9.22-15.49 12.63-4.18-4.73-7.52-10.18-9.62-16.13-1.07 7.51-2.27 15.02-3.9 22.44-5.49-0.13-10.96-0.91-16.21-2.53 1.55-17.76 4.64-35.35 7.96-52.85z"/>
  <path d="m230.18 147.82c6.2-1.64 12.61-2.36 19.02-2.24 1.79 14.75 2.39 29.62 3.21 44.45 0.69 8.53-2.85 17.41-9.75 22.63-9.49 7.2-23.06 8.45-33.8 3.35l7.34-16.35c3.38 1.21 7.25 1.8 10.58 0.11 3.11-1.35 5.08-4.27 6.37-7.28-5.93 2.36-12.82 3.97-18.92 1.25-7.83-3.45-12.2-11.63-14.51-19.47-1.57-6.35-2.8-12.77-4.16-19.16 6.1-2.32 12.42-4.06 18.89-4.95 2.06 6.54 3.96 13.13 5.88 19.72 0.91 3.01 2.45 6.24 5.48 7.58 2.15 0.98 4.5 0.24 6.67-0.24-0.74-9.8-1.5-19.6-2.3-29.4z"/>
  <path d="m168.24 179.41c5.19-3.27 11.36-4.79 17.44-5.15 3.84 3.72 5.44 9.37 4.41 14.58-5.43 3.24-11.66 5.09-17.99 5.33-3.56-3.82-5.99-9.73-3.86-14.76z"/>
 </g>
</svg>
