<svg width="1470.4" height="716.69" version="1.1" viewBox="0 0 1470.4 716.69" xml:space="preserve" xmlns="http://www.w3.org/2000/svg">
<path d="m1431.7 571.7c-35.6 45.1-40.6 29-40.6 28.1 2.2-55.4 17.4-110.3 30.8-163.8 4.4-17.6 9.4-35.3 10.7-53.5 1.2-18.2-1.7-37.4-11.8-52.2-9.6-14-26.6-23-42.5-19.8-1 0.2-1.9 0.8-2.5 1.7-0.7 4.3-1.6 8.6-2.5 13.1v0.2c-2.2 13.1-48.3 155.5-88.9 154.5-9-0.2-11.9-14.6-12.6-24.5-2.5-38 3.3-76.3 13.6-112.8 6-21.3 14.5-43.4 31.5-56.5s44.8-12.6 55.9 6.4c11.5-31.1-54-69.9-104.7-48.8-29.7 12.4-44.7 47.5-52.3 80.4-7.1 30.7-10.1 62.6-8.8 94.2 1.5 37.2 13.2 81.4 53.9 85.5 53.1 5.2 89.8-66.1 95.6-75.8l-20.8 81c-15.7 67.5 6.9 99.3 22.8 109.9 17.8 11.8 42.3 9.5 59-3.8 11.8-9.4 19.6-23.7 22.7-39 1-5.4-5.2-8.6-8.5-4.5z" fill="#e15a0d"/><path d="m996.66 259.7c14.4-50.8 31.9-88.9 5.3-106.4-9.4-6.2-20.7-7.6-31.5-9.8-5.4-1.1-10.2 3.3-10.6 9.4-0.9 14.8-5.6 29.4-9.6 43.8-13.3 47.6-22.4 93.9-21.5 143.7 0.3 18.1 4.4 40.2 10.1 57.2s16.2 32.6 30.9 40.4c13.2 7 28.9 7.2 42.7 1.7s25.6-16.2 34.1-29.3c15.9-24.4 20.5-57.3 12-85.8-8-27.4-34.5-54.5-61.9-64.9zm26.1 137.4c-2.1 3.3-8.7 8.3-12.2 9.6-6.7 2.5-14.8 1.8-18.5-6.3-19.1-41.7-9.1-84.8-0.6-120.7 19.6 9.7 29.2 20.3 33.3 27.5 15.4 26.7 14.4 64-2 89.9z" fill="#e15a0d"/><g transform="translate(-6464.6 -6833.8)" fill="#e15a0d">
		<path d="m6826.3 7134.7v0.2c1.6-0.6 0.8-0.4 0-0.2z"/>
		<path d="m6775 6904.8c-4.3-17.1-19.2-29.2-36.4-29 0 0-1.8 0.1-2.4 0.1-16.2 1.5-28.2 14.8-30 30.6-0.4 3.6 4 33.1 4.1 33.1 1.1 8.6 12.3 120.9-21 159.7-6.2 7.2-12.3 11.9-19.4 12.3-0.3 0-14.9 2.4-25.6-12.8-19.6-28.1-38.7-176.5-60.9-221.6-9.8-20.1-31.6-33.7-53.5-35.5-24.3-2-48.5 13.8-58.9 36.4-7.3 15.9-8.1 34.5-3.5 51.5 1.6 5.7 10.2 5.6 10.9-0.3 0.8-7.1 2.2-14.1 4.1-20.5 3.3-13.1 8.6-22.8 15-26.8 2-1.3 4.1-2 6.4-2.1 12.1-0.5 23.2 18.1 28 44.3 0.3 1.6 0.6 3.3 0.8 5v0.2c18.5 108.8 36.3 178.2 38.9 183.9 23 48.8 76.1 43.5 80.9 43.1 26.9-2.2 43.4-16.8 56.7-34.3 9.6-12.6 21.9-49.2 23.1-52.5 5.4 33.2 10.8 66.3 16.2 99.4-9 4.9-17.1 9.9-24.6 14.9-34.5 23.3-53.5 47.8-69.3 76.3-27.8 50.3-40.1 109.5-34.6 167.1 4.2 44.3 21.9 91.4 60.2 112.4 30.7 16.9 69.8 13 99.7-5.1s51.1-49 63-82.5 12.7-68.6 12.1-104.2c-1.3-77.5-70.5-405.1-80-443.1zm-54.2 605.8h-0.1c-63 14-114.9-150-25.3-264.3 14.9-19 33.8-36.7 57.2-51.9v0.1 0.2c0.8 3.8 8.1 55.4 18.3 112.1 32.6 182.3-41.1 201.8-50.1 203.8z"/>
	</g><path d="m1465.2 17.1c-11.8 12.5-45.1 52.7-182 17.8-36.1-9.2-84.7-9.1-128.7 26.4 47.5-11.1 61.2 4.7 106 23 64.5 26.3 120.7-0.5 141-13 0.5-0.3 1 0.4 0.5 0.8-71.8 56.7-138.2 28.6-154.1 20.4-4.9-2.5-9.8-4.8-14.9-6.7-20.2-7.9-37.4-11.3-52.1-11.4-35.3-0.2-64.8 26.7-68.6 61.8v0.4c-4.4 40.7 83.4 76.3 83.1 110.3 0 1.2-1.4 2-2.5 1.4-13.7-8.1-48.1-30.8-78.7-12.9-55.5 32.5-47.1 143.1-27.6 185.8 8.2 18 29.9 38.7 51.9 32.3 38.4-11.2 89.5-138.3 73.6-221-9.3-48.5-81-80.2-58.9-116.1 9.2-14.9 30.5-24.6 114.9 15.1 99.1 46.6 191.7-48.3 202.3-111.8 0.6-3-3.1-4.8-5.2-2.6zm-288.2 338.1c-11.3 36.3-27.7 61.8-38.8 59-12.5-3.2-13.6-41-2.5-84.3 1.9-7.3 13.9-46 26.1-61.9 8.8-11.4 18.8-10.4 25.6-7.2 4.8 2.3 7.7 7.4 7.3 12.7-1.6 27.7-7.5 55.4-17.7 81.7z" fill="#e15a0d"/><path d="m908.16 201.2c-6.4-15.7-24.7-27-40.7-25.6-2.9 0.3-5.1 2.7-5.2 5.7 0 0 0.3 10.5 0.5 12.3-7.7-7.5-22.4-13.4-24.1-14-25.4-9-52.1-16.4-77.1 2.8-62 47.6-21 180.4-18.8 186.8 0 0 15.6 41.2 42.7 46.2 31.4 5.8 64.4-31.8 76.2-85.9v4.4c0.1 4.8-3.6 80.2-3.6 80.2-6.6 2.6-78.5 33.2-117.8 112-16.9 33.9-23.8 72.2-17.9 109.6 5.6 35.2 20.8 63.2 44.1 72.4 96.8 38.3 154.2-128.2 150.7-332.4-1.3-73.6-6.2-167.9-9-174.5zm-52.7 347.3c-5.9 61.2-16.2 111-42 124-77.4 39-77.7-187.3 46.7-235.3 1.6 40.3-1.7 79.2-4.7 111.3zm4.6-290.5c-3.5 73.4-36.3 133.9-48.4 131.4-19.6-4-46.8-111.1 5.4-186.4 4.6-6.6 13.7-6.6 20.6-5 10.6 2.4 18.4 12.5 21.9 26.1 2.1 8 1.2 17.8 0.5 33.9z" fill="#e15a0d"/><path d="m543.26 376c-2.3-7.5-13-7.1-14.7 0.6-4.1 19.2-10.6 42-19.3 51.9-6.5 7.3-17.7 11.9-31 2.3-43-31-34.9-179.7-26.4-191.5 4.4-6.2 9.6-6.6 14.5-5.5 19.8 4.9 22.3 31 22.2 50 0 2.5 1.1 5 3.2 6.4 4.6 3 8.5-3 9.6-8 4.2-19.5-1.1-41.3-14.1-55.9-13.1-14.6-33.7-21.4-52-16.4-15.3 4.1-29.3 11.6-41.7 30.8-8.9 13.8-29.1 71.3 2.2 156.8 31.4 85.5 92.3 71 105.4 63.7 31.6-17.7 40.7-61.1 42.1-85.2z" fill="#e15a0d"/><path d="m754.66 412.6c-1.1-4-6.5-4.8-8.6-1.2-7.4 12.1-19.8 30.4-25 21.6-1.4-3.1-6.2-24-13.9-150.5-0.9-15-7.8-29.7-17.8-39.4-6.6-6.3-15.4-10-23.9-9.6-1.9-21.9-32.8-33.8-34.3-34.4-23.5-6.9-50.4-8.8-70 7.9-19.6 16.8-25.5 48-24.7 76.1 3.4 113.3 43.8 138.3 70.4 136.1 5.7-0.5 23.4-1.5 43.1-56.7 3.1-8.8 6.3-17.7 8.8-26.7l0.2 4.3c0.8 13.5 4.5 69.9 28.2 102 9.9 13.4 28.1 18.6 42.9 10.9 4.8-2.5 9.3-6.1 13.2-11.2 5.9-7.6 10-17.1 11.6-27.1 0-0.7-0.1-1.4-0.2-2.1zm-100.8-151.4c-0.3 15.1-6.2 65.3-26.7 118.2-2.4 6.1-5.9 13-11.7 13.8-7.5 1-12.4-8.6-14.7-16.8-7.9-27.7-24.1-119.3 21.6-151.1 3.6-1.9 7.2-2.6 10.7-2.1 16.3 2.4 21.1 23.1 20.8 38z" fill="#e15a0d"/><path d="m1182.8 0" fill="#e14a2f"/>
</svg>
