<svg width="211.67mm" height="103.45mm" version="1.1" viewBox="0 0 211.67 103.45" xmlns="http://www.w3.org/2000/svg">
 <defs>
  <clipPath id="a">
   <path d="m0 0h595.28v841.89h-595.28z"/>
  </clipPath>
  <clipPath id="b">
   <path d="m0 0h595.28v841.89h-595.28z"/>
  </clipPath>
 </defs>
 <g transform="translate(27.009 -50.275)">
  <g transform="matrix(3.7335 0 0 -3.7335 -132.84 2038.1)">
   <g clip-path="url(#b)">
    <g transform="translate(29.35 519.69)">
     <path d="m0 0 1.703-3.128h0.016l1.377 3.128h0.942l-2.132-4.513c-0.181-0.389-0.429-0.676-0.744-0.859-0.314-0.184-0.69-0.277-1.131-0.277l-0.056 0.638c0.266 0.016 0.494 0.075 0.686 0.175 0.192 0.102 0.34 0.277 0.443 0.526l0.187 0.451-2.295 3.859z" fill="#f14528"/>
    </g>
    <g transform="translate(35.762 519.77)">
     <path d="m0 0c0.234 0 0.452-0.031 0.657-0.093 0.205-0.064 0.391-0.149 0.557-0.258 0.166-0.108 0.307-0.236 0.427-0.381 0.12-0.146 0.208-0.297 0.265-0.459l-0.607-0.25c-0.088 0.224-0.234 0.404-0.44 0.541-0.204 0.139-0.467 0.207-0.788 0.207-0.437 0-0.764-0.123-0.986-0.369-0.219-0.247-0.33-0.594-0.33-1.04v-1.641c0-0.41 0.112-0.746 0.338-1.003 0.226-0.261 0.553-0.39 0.985-0.39 0.326 0 0.585 0.064 0.778 0.19 0.192 0.127 0.34 0.332 0.443 0.612l0.63-0.233c-0.129-0.416-0.357-0.726-0.681-0.927-0.323-0.203-0.735-0.303-1.233-0.303-0.321 0-0.613 0.048-0.874 0.147-0.263 0.099-0.488 0.237-0.674 0.416-0.187 0.18-0.33 0.395-0.432 0.647-0.101 0.25-0.152 0.53-0.152 0.836v1.642c0 0.325 0.05 0.619 0.148 0.878 0.098 0.261 0.238 0.483 0.421 0.667 0.181 0.183 0.403 0.324 0.664 0.42 0.263 0.095 0.556 0.144 0.884 0.144" fill="#f14528"/>
    </g>
   </g>
  </g>
  <g transform="matrix(3.7335 0 0 -3.7335 27.344 97.82)">
   <path d="m0 0v-5.641h-0.864v4.94h-2.467v-4.94h-0.863v5.641z" fill="#f14528"/>
  </g>
  <g transform="matrix(3.7335 0 0 -3.7335 46.632 97.82)">
   <path d="m0 0v-0.716h-2.879v-1.711h2.264v-0.638h-2.264v-1.867h2.996v-0.709h-3.86v5.641z" fill="#f14528"/>
  </g>
  <g transform="matrix(3.7335 0 0 -3.7335 56.279 108.22)">
   <path d="m0 0-1.837 2.785h0.973l1.433-2.31 1.415 2.31h0.973l-1.836-2.817 1.868-2.824h-0.974l-1.471 2.365-1.454-2.365h-0.965z" fill="#f14528"/>
  </g>
  <g transform="matrix(3.7335 0 0 -3.7335 -132.84 2038.1)">
   <g clip-path="url(#a)">
    <g transform="translate(83.246 531.24)">
     <path d="m0 0c-0.67 0.387-1.372 0.677-2.086 0.873-1.555 0.427-3.174 0.41-4.684-5e-3 -0.279-0.596-0.531-1.209-0.754-1.836-0.097-0.279-0.189-0.558-0.276-0.842-0.133-0.435-0.245-0.877-0.348-1.323 0.5-0.285 0.979-0.605 1.436-0.955 0.058 0.034 0.11 0.071 0.167 0.104 0.695 0.4 1.405 0.754 2.125 1.064 0.052 0.023 0.105 0.046 0.159 0.069 1.052 0.442 2.125 0.787 3.21 1.039 0.942 0.219 1.893 0.368 2.845 0.448-0.526 0.518-1.123 0.978-1.794 1.364" fill="#67a31e"/>
    </g>
    <g transform="translate(56.494 516.95)">
     <path d="m0 0c0-1.088 0.146-2.175 0.435-3.229 0.251-0.921 0.607-1.807 1.059-2.633 0.411-0.751 0.899-1.458 1.459-2.108 0.076 0.668 0.176 1.334 0.298 1.991 0.08 0.428 0.169 0.85 0.263 1.253 0.387 1.664 0.927 3.306 1.606 4.883 0.457 1.058 0.973 2.089 1.539 3.068 0.413 0.719 0.87 1.435 1.355 2.13-1.357-0.204-2.702-0.507-4.004-0.904-1.23-0.373-2.445-0.836-3.616-1.38-0.262-1.004-0.394-2.037-0.394-3.071" fill="#f14528"/>
    </g>
    <g transform="translate(64.508 522.31)">
     <path d="m0 0c-0.486-0.695-0.942-1.411-1.356-2.13-0.565-0.979-1.082-2.01-1.538-3.068-0.68-1.577-1.219-3.219-1.607-4.883-0.093-0.403-0.183-0.825-0.263-1.253-0.121-0.657-0.221-1.323-0.298-1.991-0.559 0.65-1.048 1.357-1.459 2.108-0.451 0.826-0.808 1.712-1.058 2.633-0.29 1.054-0.435 2.141-0.435 3.229 0 1.034 0.132 2.067 0.393 3.071 1.171 0.544 2.387 1.007 3.617 1.38 1.301 0.397 2.647 0.7 4.004 0.904" fill="#f14528"/>
    </g>
    <g transform="translate(80.542 520.2)">
     <path d="m0 0c-0.254 0.916-0.61 1.801-1.064 2.627-0.406 0.742-0.89 1.442-1.443 2.086-0.075-0.66-0.175-1.321-0.295-1.968-0.08-0.429-0.167-0.852-0.263-1.257-0.386-1.667-0.928-3.313-1.608-4.893-0.456-1.058-0.974-2.091-1.539-3.068-0.41-0.712-0.864-1.422-1.346-2.115 1.351 0.205 2.692 0.507 3.992 0.902 1.228 0.373 2.444 0.836 3.615 1.378 0.256 1.002 0.388 2.03 0.388 3.059 0 1.094-0.147 2.187-0.437 3.249" fill="#f14528"/>
    </g>
    <g transform="translate(80.591 513.89)">
     <path d="m0 0c-1.172-0.542-2.387-1.005-3.615-1.378-1.3-0.395-2.641-0.697-3.992-0.902 0.482 0.693 0.936 1.403 1.346 2.115 0.564 0.977 1.083 2.01 1.539 3.068 0.68 1.58 1.222 3.226 1.607 4.893 0.096 0.405 0.183 0.827 0.263 1.257 0.121 0.647 0.22 1.308 0.295 1.968 0.554-0.644 1.038-1.344 1.444-2.086 0.454-0.826 0.81-1.711 1.064-2.627 0.29-1.062 0.436-2.155 0.436-3.249 0-1.029-0.131-2.058-0.387-3.059" fill="#f14528"/>
    </g>
    <g transform="translate(75.987 526.81)">
     <path d="m0 0c-0.352 0.261-0.716 0.5-1.082 0.714l-0.136 0.081c-0.928 0.525-1.911 0.927-2.928 1.192-1.73 0.453-3.593 0.518-5.356 0.191 0.884-0.654 1.73-1.361 2.527-2.105 1.191-1.116 2.293-2.335 3.274-3.628l0.149-0.204c0.69-0.923 1.326-1.889 1.893-2.869 0.414-0.718 0.805-1.467 1.163-2.234 0.5 1.278 0.91 2.593 1.217 3.919 0.094 0.399 0.18 0.81 0.257 1.222 0.158 0.857 0.278 1.727 0.357 2.588-0.374 0.369-0.786 0.721-1.228 1.055z" fill="#f14528"/>
    </g>
    <g transform="translate(76.965 523.09)">
     <path d="m0 0c-0.077-0.412-0.163-0.822-0.257-1.222-0.307-1.326-0.717-2.641-1.217-3.919-0.358 0.768-0.749 1.516-1.163 2.234-0.567 0.98-1.203 1.946-1.893 2.87l-0.149 0.203c-0.981 1.293-2.083 2.512-3.274 3.628-0.797 0.744-1.643 1.451-2.527 2.105 1.763 0.327 3.626 0.262 5.356-0.191 1.017-0.265 2-0.666 2.928-1.192l0.136-0.081c0.366-0.214 0.73-0.453 1.082-0.714l0.107-0.078c0.442-0.334 0.854-0.686 1.228-1.055-0.079-0.861-0.199-1.731-0.357-2.588" fill="#f14528"/>
    </g>
    <g transform="translate(65.188 510.66)">
     <path d="m0 0-0.151 0.204c-0.683 0.918-1.317 1.88-1.883 2.859-0.414 0.719-0.805 1.467-1.162 2.231-0.499-1.271-0.908-2.584-1.217-3.908-0.09-0.393-0.177-0.805-0.255-1.221-0.158-0.856-0.28-1.734-0.36-2.609 1.528-1.499 3.42-2.575 5.48-3.113 1.728-0.449 3.589-0.516 5.355-0.186-0.882 0.654-1.729 1.359-2.523 2.104-1.195 1.115-2.298 2.341-3.284 3.639" fill="#f14528"/>
    </g>
    <g transform="translate(65.64 505.11)">
     <path d="m0 0c-2.06 0.538-3.952 1.614-5.48 3.113 0.08 0.875 0.201 1.753 0.36 2.609 0.078 0.416 0.164 0.828 0.255 1.221 0.309 1.324 0.718 2.637 1.217 3.908 0.357-0.764 0.747-1.512 1.162-2.231 0.566-0.979 1.199-1.941 1.883-2.859l0.151-0.204c0.985-1.298 2.089-2.524 3.283-3.639 0.795-0.745 1.642-1.45 2.524-2.104-1.766-0.33-3.627-0.263-5.355 0.186" fill="#f14528"/>
    </g>
    <g transform="translate(66.222 510.62)">
     <path d="m0 0c0.852-1.07 1.787-2.083 2.787-3.017 0.937-0.877 1.948-1.698 3.005-2.444 2.051 0.569 3.929 1.674 5.434 3.199 0.805 0.816 1.49 1.736 2.037 2.736 0.316 0.574 0.583 1.178 0.802 1.804-1.006-0.437-2.04-0.816-3.084-1.133-1.63-0.496-3.323-0.851-5.029-1.051-1.978-0.234-3.971-0.264-5.952-0.094" fill="#f14528"/>
    </g>
    <g transform="translate(80.287 512.9)">
     <path d="m0 0c-0.219-0.626-0.486-1.23-0.801-1.804-0.547-1-1.233-1.92-2.038-2.736-1.505-1.525-3.383-2.63-5.434-3.199-1.057 0.745-2.067 1.567-3.004 2.444-1 0.934-1.936 1.947-2.788 3.017 1.982-0.17 3.974-0.14 5.952 0.094 1.706 0.2 3.399 0.555 5.029 1.051 1.044 0.317 2.079 0.696 3.084 1.133" fill="#f14528"/>
    </g>
    <g transform="translate(65.468 528.75)">
     <path d="m0 0c-2.051-0.567-3.929-1.669-5.436-3.192-0.805-0.814-1.49-1.734-2.036-2.733-0.315-0.573-0.585-1.178-0.806-1.803 1.008 0.436 2.042 0.817 3.085 1.133 1.635 0.498 3.333 0.851 5.044 1.053 1.967 0.232 3.956 0.263 5.933 0.091-0.852 1.067-1.784 2.076-2.779 3.005-0.938 0.878-1.949 1.701-3.005 2.446" fill="#f14528"/>
    </g>
    <g transform="translate(65.318 523.21)">
     <path d="m0 0c-1.71-0.202-3.409-0.555-5.043-1.053-1.044-0.316-2.077-0.697-3.085-1.133 0.22 0.625 0.49 1.23 0.805 1.803 0.546 0.999 1.232 1.919 2.037 2.733 1.506 1.523 3.384 2.625 5.435 3.192 1.057-0.745 2.067-1.568 3.005-2.446 0.995-0.929 1.928-1.938 2.78-3.005-1.977 0.172-3.966 0.14-5.934-0.091" fill="#f14528"/>
    </g>
   </g>
  </g>
 </g>
</svg>
