<svg width="211.67mm" height="70.419mm" version="1.1" viewBox="0 0 211.67 70.419" xmlns="http://www.w3.org/2000/svg">
 <defs>
  <linearGradient id="d" x2="1" gradientTransform="matrix(16.176 0 0 -16.176 383.08 291.09)" gradientUnits="userSpaceOnUse">
   <stop stop-color="#191a38" offset="0"/>
   <stop stop-color="#191a38" offset=".0074076"/>
   <stop stop-color="#2156a3" offset=".51099"/>
   <stop stop-color="#4a8bd1" offset="1"/>
  </linearGradient>
  <clipPath id="j">
   <path d="m373.45 297.18h4.487v-5.734h-4.487z"/>
  </clipPath>
  <linearGradient id="f" x2="1" gradientTransform="matrix(1.2722 7.1787 7.1787 -1.2722 375.25 292.57)" gradientUnits="userSpaceOnUse">
   <stop stop-color="#fff" offset="0"/>
   <stop stop-color="#4a8bd1" offset=".60989"/>
   <stop stop-color="#4a8bd1" offset=".67548"/>
   <stop stop-color="#4a8bd1" offset="1"/>
  </linearGradient>
  <clipPath id="k">
   <path d="m379 295.8h3.019v-6.405h-3.019z"/>
  </clipPath>
  <linearGradient id="g" x2="1" gradientTransform="matrix(4.2764 5.6351 5.6351 -4.2764 378.43 291.01)" gradientUnits="userSpaceOnUse">
   <stop stop-color="#fff" offset="0"/>
   <stop stop-color="#fff" offset=".0050507"/>
   <stop stop-color="#3153a0" offset=".22358"/>
   <stop stop-color="#3153a0" offset=".61539"/>
   <stop stop-color="#3153a0" offset="1"/>
  </linearGradient>
  <clipPath id="l">
   <path d="m376.02 297.53h3.853v-0.909h-3.853z"/>
  </clipPath>
  <linearGradient id="h" x2="1" gradientTransform="matrix(2.0217 2.677 2.677 -2.0217 376.76 295.49)" gradientUnits="userSpaceOnUse">
   <stop stop-color="#fff" offset="0"/>
   <stop stop-color="#fff" offset=".0050507"/>
   <stop stop-color="#3153a0" offset=".23698"/>
   <stop stop-color="#3153a0" offset=".92857"/>
   <stop stop-color="#3153a0" offset="1"/>
  </linearGradient>
  <clipPath id="m">
   <path d="m374.64 292h5.822v-3.054h-5.822z"/>
  </clipPath>
  <radialGradient id="a" cx="0" cy="0" r="1" gradientTransform="matrix(6.4401 .0040137 .0040137 -6.4532 373.25 290.53)" gradientUnits="userSpaceOnUse">
   <stop stop-color="#fff" offset="0"/>
   <stop stop-color="#fff" offset=".31853"/>
   <stop stop-color="#5ba2de" offset="1"/>
  </radialGradient>
  <clipPath id="n">
   <path d="m373.45 297.53h8.568v-8.586h-8.568z"/>
  </clipPath>
  <linearGradient id="i" x2="1" gradientTransform="matrix(3.8711 -7.5549 -7.5549 -3.8711 376.19 296.45)" gradientUnits="userSpaceOnUse">
   <stop stop-color="#4a8bd1" offset="0"/>
   <stop stop-color="#191a38" offset="1"/>
  </linearGradient>
  <radialGradient id="b" cx="0" cy="0" r="1" gradientTransform="matrix(7.7813 .0054788 .0054788 -7.7969 380.62 291.5)" gradientUnits="userSpaceOnUse">
   <stop stop-color="#2156a3" offset="0"/>
   <stop stop-color="#2156a3" offset=".51099"/>
   <stop stop-color="#1b1938" offset="1"/>
  </radialGradient>
  <radialGradient id="c" cx="0" cy="0" r="1" gradientTransform="matrix(3.9974 .0024911 .0024911 -4.0055 377.75 293.24)" gradientUnits="userSpaceOnUse">
   <stop stop-color="#fff" offset="0"/>
   <stop stop-color="#fff" offset=".3427"/>
   <stop stop-color="#fff" offset=".51929"/>
   <stop stop-color="#f5f7ea" offset=".64044"/>
   <stop stop-color="#f5f7ea" offset=".69997"/>
   <stop stop-color="#939b9c" offset=".94943"/>
   <stop stop-color="#939b9c" offset="1"/>
  </radialGradient>
  <linearGradient id="e" x2="1" gradientTransform="matrix(48.522 29.211 -29.211 48.522 -17.905 78.787)" gradientUnits="userSpaceOnUse">
   <stop stop-color="#4a8bd1" offset="0"/>
   <stop stop-color="#fff" offset=".20091"/>
   <stop stop-color="#fff" offset="1"/>
  </linearGradient>
 </defs>
 <g transform="translate(21.562 -79.929)">
  <g transform="matrix(8.2006 0 0 -8.2006 -3084.1 2519.9)">
   <path d="m383.08 290.13 16.176-1e-3v1.922l-16.176 4e-3z" fill="url(#d)"/>
  </g>
  <g transform="matrix(8.2006 0 0 -8.2006 70.812 97.842)">
   <path d="m0 0c-0.019-0.051-0.69-1.842-0.69-1.842s-0.673 1.791-0.691 1.842h-0.834c0.045-0.107 1.216-2.829 1.236-2.875h0.572c0.019 0.046 1.19 2.768 1.235 2.875z" fill="#050301"/>
  </g>
  <path d="m81.873 121.33h6.5933v-23.487h-6.5933z" fill="#050301"/>
  <g transform="matrix(8.2006 0 0 -8.2006 105.12 106.32)">
   <path d="m0 0 0.369-0.986h-0.738zm-0.288 1.033c-0.021-0.046-1.191-2.768-1.236-2.875h0.833c0.017 0.044 0.121 0.323 0.121 0.323h1.14s0.104-0.279 0.121-0.323h0.828c-0.046 0.107-1.216 2.829-1.236 2.875z" fill="#050301"/>
  </g>
  <g transform="matrix(8.2006 0 0 -8.2006 155.97 106.32)">
   <path d="m0 0 0.37-0.986h-0.738zm-0.288 1.033c-0.02-0.046-1.19-2.768-1.236-2.875h0.834c0.016 0.044 0.121 0.323 0.121 0.323h1.14s0.104-0.279 0.12-0.323h0.828c-0.046 0.107-1.215 2.829-1.235 2.875z" fill="#050301"/>
  </g>
  <g transform="matrix(8.2006 0 0 -8.2006 128.82 97.633)">
   <path d="m0 0c-0.725 0-1.078-0.241-1.078-0.737v-0.342c0-0.262 0.105-0.458 0.297-0.55 0.144-0.075 0.311-0.097 0.742-0.097h0.565c0.18 0 0.253-0.07 0.253-0.241v-0.04c0-0.173-0.075-0.247-0.253-0.247h-0.616c-0.091 0-0.154 0.019-0.194 0.061-0.032 0.033-0.047 0.079-0.052 0.138-0.07-3e-3 -0.658-0.027-0.735-0.03 0.089-0.593 0.384-0.815 1.071-0.815h0.448c0.725 0 1.078 0.243 1.078 0.742v0.341c0 0.262-0.105 0.458-0.296 0.551-0.145 0.075-0.311 0.096-0.743 0.096h-0.565c-0.18 0-0.253 0.071-0.253 0.243v0.039c0 0.173 0.076 0.247 0.253 0.247h0.616c0.092 0 0.154-0.019 0.194-0.062 0.031-0.032 0.048-0.078 0.051-0.136 0.073 6e-3 0.657 0.054 0.735 0.06-0.114 0.573-0.399 0.779-1.07 0.779z" fill="#050301"/>
  </g>
  <g transform="matrix(8.2006 0 0 -8.2006 166.6 97.842)">
   <path d="m0 0v-0.688h1.03v-2.176h0.804v2.176h1.032v0.688z" fill="#050301"/>
  </g>
  <g transform="matrix(8.2006 0 0 -8.2006 65.071 138.35)">
   <path d="m0 0c-0.216 0-0.414 0.04-0.582 0.112l0.05 0.36c0.179-0.083 0.362-0.128 0.55-0.128 0.156 0 0.218 0.03 0.218 0.077 0 0.118-0.813-7e-3 -0.813 0.493 0 0.235 0.181 0.453 0.667 0.453 0.17 0 0.386-0.028 0.537-0.077l-0.055-0.342c-0.174 0.043-0.34 0.068-0.475 0.068-0.195 0-0.225-0.033-0.225-0.07 0-0.13 0.811 0.019 0.811-0.49 0-0.279-0.274-0.456-0.683-0.456" fill="#fff"/>
  </g>
  <g transform="matrix(8.2006 0 0 -8.2006 78.042 130.05)">
   <path d="m0 0h-0.198v-0.339h0.198c0.167 0 0.232 0.034 0.232 0.167 0 0.132-0.057 0.172-0.232 0.172m0-0.653h-0.198v-0.333h-0.474v1.316h0.672c0.507 0 0.716-0.2 0.716-0.505 0-0.266-0.216-0.478-0.716-0.478" fill="#fff"/>
  </g>
  <g transform="matrix(8.2006 0 0 -8.2006 92.049 130.08)">
   <path d="m0 0c-0.246 0-0.327-0.095-0.327-0.323s0.081-0.33 0.327-0.33c0.247 0 0.328 0.102 0.328 0.33s-0.073 0.323-0.328 0.323m0-1.009c-0.588 0-0.827 0.302-0.827 0.684 0 0.383 0.239 0.681 0.827 0.681 0.59 0 0.827-0.298 0.827-0.681 0-0.381-0.237-0.684-0.827-0.684" fill="#fff"/>
  </g>
  <g transform="matrix(8.2006 0 0 -8.2006 106.6 130.02)">
   <path d="m0 0h-0.227v-0.299h0.222c0.144 0 0.203 0.039 0.203 0.159 0 0.101-0.051 0.14-0.198 0.14m0.414-0.5 0.411-0.49h-0.567l-0.262 0.398h-0.223v-0.398h-0.473v1.317h0.717c0.436 0 0.678-0.159 0.678-0.446 0-0.165-0.105-0.327-0.281-0.381" fill="#fff"/>
  </g>
  <g transform="matrix(8.2006 0 0 -8.2006 121.43 130.35)">
   <path d="m0 0v-0.949h-0.476v0.949h-0.46l0.01 0.367h1.379l0.01-0.367z" fill="#fff"/>
  </g>
  <g transform="matrix(8.2006 0 0 -8.2006 -3084.1 2519.9)">
   <path d="m377.74 297.25c-2.208-2e-3 -3.996-1.796-3.996-4.008 2e-3 -2.212 1.793-4.005 4.001-4.003 2.208 1e-3 3.996 1.795 3.995 4.008-2e-3 2.212-1.791 4.003-3.998 4.003z" fill="url(#c)"/>
  </g>
  <g transform="matrix(8.2006 0 0 -8.2006 -3084.1 2519.9)">
   <path d="m377.73 297.53c-2.366-2e-3 -4.282-1.925-4.28-4.296 0-0.316 0.052-0.625 0.142-0.918 0.118-0.341 0.282-0.594 0.582-0.708 0.459-0.175 0.813-0.177 1.054-0.187 0.224-7e-3 0.459 1e-3 0.691 0.025 0.728 0.074 1.458 0.241 2.151 0.48 0.154 0.054 0.401 0.146 0.652 0.263 0.251 0.114 0.508 0.259 0.671 0.391 0.073 0.056 0.124 0.111 0.151 0.146-8e-3 9e-3 -0.018 0.019-0.03 0.031-0.155 0.142-0.405 0.275-0.704 0.383-0.297 0.108-0.636 0.192-0.96 0.276-1.03 0.267-1.482 0.348-2.551 0.542 0 0-0.71 0.109-0.706 0.122 0.475 1.376 2.614 2.722 5.274 2.877-0.63 0.364-1.355 0.573-2.134 0.573zm2.511-1.732c-0.933 0-1.864-0.185-2.645-0.488-0.324-0.125-0.622-0.271-0.883-0.429 0.434-0.088 0.851-0.184 1.43-0.335 0.315-0.082 0.688-0.173 1.064-0.308 0.376-0.138 0.761-0.318 1.091-0.617 0.248-0.22 0.435-0.538 0.432-0.886 0-0.186-0.05-0.358-0.122-0.499-0.072-0.143-0.164-0.261-0.262-0.364-0.197-0.206-0.425-0.361-0.659-0.497-0.465-0.27-0.961-0.456-1.236-0.552-0.775-0.268-1.591-0.455-2.414-0.539-0.253-0.025-0.525-0.046-0.807-0.046-0.194 0-0.394 0.011-0.596 0.038 0.781-0.821 1.882-1.332 3.102-1.331 2.366 1e-3 4.283 1.924 4.281 4.294-1e-3 0.936-0.301 1.801-0.809 2.507l-0.442 0.032c-0.174 0.013-0.348 0.02-0.522 0.02z" fill="url(#b)"/>
  </g>
  <g transform="matrix(8.2006 0 0 -8.2006 -3084.1 2519.9)">
   <g clip-path="url(#n)" opacity=".32001">
    <path d="m377.74 297.53c-2.366-2e-3 -4.283-1.925-4.281-4.296 0-0.316 0.053-0.625 0.142-0.918 0.118-0.341 0.283-0.594 0.583-0.708 0.458-0.175 0.813-0.178 1.053-0.187 0.225-7e-3 0.46 1e-3 0.691 0.025 0.729 0.074 1.459 0.241 2.152 0.48 0.154 0.054 0.4 0.146 0.652 0.263 0.251 0.115 0.508 0.258 0.671 0.391 0.073 0.056 0.123 0.111 0.151 0.146-8e-3 9e-3 -0.018 0.019-0.031 0.031-0.155 0.142-0.405 0.274-0.703 0.382s-0.636 0.193-0.96 0.277c-1.03 0.267-1.482 0.348-2.551 0.542 0 0-0.71 0.109-0.706 0.122 0.474 1.375 2.613 2.722 5.273 2.877-0.628 0.364-1.354 0.573-2.13 0.573zm-0.134-2.22c-0.324-0.125-0.622-0.271-0.883-0.429 0.434-0.088 0.851-0.184 1.43-0.335 0.314-0.082 0.688-0.173 1.064-0.309 0.376-0.137 0.761-0.318 1.091-0.616 0.248-0.22 0.435-0.538 0.432-0.887 0-0.185-0.05-0.357-0.122-0.499s-0.164-0.26-0.262-0.363c-0.197-0.206-0.425-0.362-0.659-0.497-0.465-0.27-0.961-0.456-1.237-0.552-0.775-0.268-1.59-0.455-2.413-0.539-0.254-0.025-0.525-0.046-0.807-0.046-0.194 0-0.395 0.011-0.597 0.038 0.781-0.821 1.882-1.332 3.103-1.331 2.366 0 4.282 1.924 4.281 4.294-1e-3 0.936-0.301 1.801-0.809 2.506l-0.442 0.033c-0.175 0.013-0.35 0.02-0.525 0.02-0.934 0-1.864-0.185-2.645-0.488" fill="url(#i)"/>
   </g>
  </g>
  <g transform="matrix(8.2006 0 0 -8.2006 -3084.1 2519.9)">
   <g clip-path="url(#m)" opacity=".31">
    <path d="m380.35 291.87c-0.197-0.206-0.425-0.36-0.659-0.497-0.401-0.232-0.824-0.403-1.109-0.506-0.247-0.473-0.769-0.835-1.322-0.952-0.358-0.077-0.967-0.096-1.785 0.321l-0.01 5e-3c-0.069-2e-3 -0.16-5e-3 -0.231-5e-3 -0.194 0-0.394 0.012-0.597 0.038 0.782-0.821 1.882-1.332 3.103-1.331 0.684 1e-3 1.33 0.162 1.904 0.448 0.685 0.958 0.786 1.976 0.816 2.606-0.036-0.045-0.073-0.087-0.11-0.127" fill="url(#a)"/>
   </g>
  </g>
  <g transform="matrix(8.2006 0 0 -8.2006 -3084.1 2519.9)">
   <g clip-path="url(#l)" opacity=".35001">
    <path d="m377.73 297.53c-0.61 0-1.19-0.13-1.716-0.36h1e-3c2e-3 0 3e-3 1e-3 5e-3 2e-3 0.013 2e-3 0.029 2e-3 0.042 3e-3 0.042 4e-3 0.085 6e-3 0.127 6e-3 0.195 1e-3 0.39-0.022 0.582-0.062 0.375-0.076 0.753-0.212 1.072-0.43 0.017-0.012 0.034-0.024 0.051-0.037 0.014-0.01 0.028-0.02 0.042-0.029 0-1e-3 1e-3 -1e-3 2e-3 -2e-3 2e-3 1e-3 0.024 7e-3 0.037 0.011 0.046 0.013 0.092 0.026 0.138 0.038 0.027 7e-3 0.054 0.016 0.081 0.022 0.048 0.012 0.095 0.025 0.144 0.037 0.026 6e-3 0.052 0.012 0.079 0.019 0.051 0.011 0.102 0.023 0.153 0.034 0.025 5e-3 0.049 0.011 0.074 0.016 0.058 0.012 0.115 0.023 0.173 0.032 0.02 4e-3 0.039 9e-3 0.058 0.011 0.152 0.027 0.306 0.051 0.464 0.07 0.174 0.02 0.349 0.037 0.527 0.046-0.628 0.364-1.353 0.573-2.131 0.573zm-1.717-0.361 1e-3 1e-3c-1e-3 0-1e-3 0-1e-3 -1e-3" fill="url(#h)"/>
   </g>
  </g>
  <g transform="matrix(8.2006 0 0 -8.2006 -3084.1 2519.9)">
   <g clip-path="url(#k)" opacity=".14999">
    <path d="m379 295.7c0.503-0.356 1.054-1.113 1.351-2.119l-1e-3 1e-3v-1e-3c0 1e-3 -2e-3 3e-3 -3e-3 4e-3 1e-3 -1e-3 3e-3 -3e-3 3e-3 -4e-3 0.223-0.217 0.384-0.514 0.381-0.838 0-0.186-0.05-0.358-0.122-0.499-0.044-0.088-0.096-0.166-0.151-0.237-0.031-0.63-0.132-1.649-0.817-2.606 1.41 0.703 2.378 2.162 2.377 3.847-1e-3 0.935-0.3 1.8-0.808 2.506l-0.443 0.033c-0.174 0.013-0.349 0.019-0.525 0.019-0.419 0-0.837-0.038-1.242-0.106" fill="url(#g)"/>
   </g>
  </g>
  <g transform="matrix(8.2006 0 0 -8.2006 -3084.1 2519.9)">
   <g clip-path="url(#j)" opacity=".31">
    <path d="m376.19 297.18c-0.042 0-0.085-2e-3 -0.127-6e-3 -0.012-1e-3 -0.027-1e-3 -0.04-3e-3 -0.029-0.013-0.057-0.026-0.086-0.039-0.043-0.02-0.086-0.041-0.129-0.062-0.027-0.014-0.055-0.028-0.082-0.043-0.028-0.015-0.057-0.031-0.086-0.047-0.023-0.014-0.048-0.027-0.071-0.041-0.029-0.017-0.058-0.034-0.086-0.051-0.023-0.014-0.046-0.03-0.069-0.045-0.049-0.032-0.097-0.064-0.145-0.098-0.021-0.015-0.041-0.029-0.062-0.044-0.028-0.021-0.056-0.042-0.083-0.063-0.019-0.015-0.039-0.031-0.058-0.046-0.028-0.022-0.055-0.043-0.082-0.066-0.016-0.014-0.033-0.03-0.05-0.044-0.048-0.041-0.095-0.084-0.141-0.128-0.018-0.017-0.036-0.033-0.053-0.051-0.025-0.024-0.049-0.049-0.074-0.074-0.017-0.018-0.034-0.036-0.051-0.054-0.024-0.025-0.048-0.05-0.071-0.076-0.016-0.018-0.033-0.037-0.049-0.056-0.039-0.045-0.076-0.091-0.113-0.138-0.017-0.021-0.034-0.042-0.051-0.064-0.019-0.026-0.038-0.052-0.057-0.078-0.018-0.023-0.035-0.048-0.052-0.073-0.018-0.024-0.035-0.049-0.052-0.074-0.029-0.045-0.059-0.091-0.087-0.137-0.014-0.023-0.028-0.046-0.041-0.071-0.018-0.029-0.036-0.059-0.053-0.09-0.012-0.024-0.026-0.047-0.038-0.072-0.018-0.034-0.036-0.069-0.053-0.103-0.01-0.021-0.021-0.041-0.03-0.06-0.025-0.053-0.049-0.106-0.072-0.159-8e-3 -0.02-0.017-0.042-0.025-0.063-0.016-0.038-0.031-0.075-0.045-0.114-8e-3 -0.022-0.017-0.044-0.025-0.067-0.016-0.044-0.031-0.09-0.045-0.135-5e-3 -0.014-0.01-0.028-0.014-0.042-0.018-0.059-0.035-0.118-0.05-0.177-5e-3 -0.019-9e-3 -0.039-0.015-0.058-0.011-0.044-0.02-0.088-0.03-0.133-4e-3 -0.021-9e-3 -0.041-0.013-0.061-0.011-0.055-0.021-0.111-0.03-0.168l-3e-3 -0.021c-0.01-0.064-0.017-0.128-0.025-0.192-1e-3 -0.019-3e-3 -0.038-5e-3 -0.057-4e-3 -0.048-8e-3 -0.097-0.011-0.145-1e-3 -0.019-2e-3 -0.039-2e-3 -0.059-4e-3 -0.066-6e-3 -0.131-6e-3 -0.198 0-0.316 0.053-0.625 0.142-0.918 0.014-0.039 0.028-0.075 0.043-0.111 3e-3 -0.011 8e-3 -0.021 0.012-0.031 0.012-0.026 0.023-0.052 0.034-0.076 6e-3 -0.011 0.01-0.021 0.016-0.031 0.016-0.032 0.033-0.063 0.051-0.092 2e-3 -4e-3 5e-3 -7e-3 7e-3 -0.011 0.016-0.026 0.033-0.051 0.052-0.076 8e-3 -9e-3 0.015-0.018 0.022-0.027 0.014-0.018 0.03-0.036 0.045-0.052 8e-3 -8e-3 0.016-0.017 0.025-0.025 0.023-0.022 0.046-0.043 0.07-0.062 1e-3 -1e-3 2e-3 -1e-3 2e-3 -2e-3 2e-3 -1e-3 4e-3 -2e-3 5e-3 -3e-3 0.028-0.022 0.059-0.042 0.092-0.06 0.033-0.019 0.069-0.035 0.107-0.049 0.03-0.012 0.06-0.023 0.089-0.033 0.01-3e-3 0.02-6e-3 0.029-0.01 0.019-6e-3 0.039-0.012 0.058-0.018 0.011-3e-3 0.022-6e-3 0.032-9e-3 0.017-6e-3 0.035-0.01 0.053-0.016 9e-3 -3e-3 0.02-5e-3 0.031-8e-3 0.017-4e-3 0.034-8e-3 0.05-0.013 0.01-1e-3 0.02-4e-3 0.029-6e-3 0.018-4e-3 0.035-8e-3 0.053-0.012 8e-3 -1e-3 0.016-2e-3 0.025-4e-3 0.018-4e-3 0.036-7e-3 0.053-0.01 7e-3 -2e-3 0.014-3e-3 0.021-4e-3 0.019-3e-3 0.038-6e-3 0.057-9e-3 5e-3 0 9e-3 -1e-3 0.014-1e-3 0.022-4e-3 0.044-7e-3 0.065-9e-3h4e-3c-0.183 0.423-0.305 0.868-0.348 1.327-0.022 0.227-0.025 0.456-7e-3 0.684 0.017 0.207 0.043 0.426 0.11 0.623 0.044 0.13 0.105 0.256 0.172 0.375 2e-3 4e-3 4e-3 7e-3 5e-3 0.011 0.024 0.04 0.047 0.079 0.072 0.117 2e-3 4e-3 4e-3 6e-3 6e-3 0.01 3e-3 5e-3 6e-3 0.01 9e-3 0.014 0.018 0.028 0.038 0.054 0.056 0.081 0.036 0.052 0.074 0.103 0.116 0.154 1e-3 3e-3 3e-3 6e-3 6e-3 8e-3 0.02 0.026 0.041 0.051 0.063 0.075 0.598 0.701 1.601 1.325 2.839 1.695-0.334 0.256-0.757 0.415-1.167 0.498-3e-3 1e-3 -7e-3 2e-3 -0.01 2e-3 -0.176 0.036-0.356 0.059-0.537 0.06z" fill="url(#f)"/>
   </g>
  </g>
  <path d="m12.43 98.143c-2.6488 1.0169-5.0844 2.2224-7.2248 3.5099 3.5509 0.72166 6.9705 1.5089 11.711 2.7472 2.5832 0.67246 5.642 1.4187 8.7337 2.534 3.0752 1.1235 6.2325 2.6078 8.9387 5.0516 0.09021 0.082 0.31983 0.28702 0.41003 0.36903-0.94307-3.3541-4.2807-12.408-11.071-17.344-4.0347 0.69705-8.0038 1.7713-11.497 3.1326" fill="url(#e)" opacity=".17"/>
 </g>
</svg>
