<?xml version="1.0" encoding="UTF-8"?>
<!-- Created with Inkscape (http://www.inkscape.org/) -->
<svg id="svg1704" width="800" height="128.96" version="1.1" viewBox="0 0 211.67 34.121" xmlns="http://www.w3.org/2000/svg" xmlns:cc="http://creativecommons.org/ns#" xmlns:dc="http://purl.org/dc/elements/1.1/" xmlns:rdf="http://www.w3.org/1999/02/22-rdf-syntax-ns#">
 <defs id="defs1698">
  <clipPath id="clipPath330">
   <path id="path328" d="m166.68 212.69h83.805v25.787h-83.805z"/>
  </clipPath>
  <linearGradient id="linearGradient320" x2="1" gradientTransform="matrix(0 11.219 11.219 0 178.55 219.78)" gradientUnits="userSpaceOnUse">
   <stop id="stop314" stop-color="#2e66a4" offset="0"/>
   <stop id="stop316" stop-color="#2e66a4" offset=".3706"/>
   <stop id="stop318" stop-color="#005180" offset="1"/>
  </linearGradient>
  <clipPath id="clipPath296">
   <path id="path294" d="m166.68 212.69h83.805v25.787h-83.805z"/>
  </clipPath>
  <linearGradient id="linearGradient286" x2="1" gradientTransform="matrix(0 11.219 11.219 0 192.25 219.78)" gradientUnits="userSpaceOnUse">
   <stop id="stop280" stop-color="#2e66a4" offset="0"/>
   <stop id="stop282" stop-color="#2e66a4" offset=".3706"/>
   <stop id="stop284" stop-color="#005180" offset="1"/>
  </linearGradient>
  <linearGradient id="linearGradient264" x2="1" gradientTransform="matrix(0 11.219 11.219 0 185.68 219.78)" gradientUnits="userSpaceOnUse">
   <stop id="stop258" stop-color="#2e66a4" offset="0"/>
   <stop id="stop260" stop-color="#2e66a4" offset=".3706"/>
   <stop id="stop262" stop-color="#005180" offset="1"/>
  </linearGradient>
  <clipPath id="clipPath236">
   <path id="path234" d="m166.68 212.69h83.805v25.787h-83.805z"/>
  </clipPath>
 </defs>
 <metadata id="metadata1701">
  <rdf:RDF>
   <cc:Work rdf:about="">
    <dc:format>image/svg+xml</dc:format>
    <dc:type rdf:resource="http://purl.org/dc/dcmitype/StillImage"/>
    <dc:title/>
   </cc:Work>
  </rdf:RDF>
 </metadata>
 <g id="layer1" transform="translate(29.233 -116.68)">
  <g id="g230" transform="matrix(3.0543 0 0 -3.0543 -560.47 822.74)">
   <g id="g232" clip-path="url(#clipPath236)">
    <g id="g238" transform="translate(184.63 227.32)">
     <path id="path240" d="m0 0v1.604c0 1.152 0.934 2.087 2.086 2.087v-1.605c0-1.152-0.934-2.086-2.086-2.086" fill="#fcbc49"/>
    </g>
    <g id="g242" transform="translate(181.34 227.43)">
     <path id="path244" d="m0 0c0.592-0.354 1.214-0.655 1.844-0.913l0.804 2.024v2.467c-0.797-0.098-1.696-1.163-1.973-1.933z" fill="#005180"/>
    </g>
   </g>
  </g>
  <g id="g246" transform="matrix(3.0543 0 0 -3.0543 -560.47 822.74)">
   <g id="g248">
    <g id="g254">
     <g id="g256">
      <path id="path266" d="m184.63 222.17c0-1.153 0.934-2.087 2.086-2.087v5.385c-0.624 0.114-1.287 0.284-2.086 0.536z" fill="url(#linearGradient264)"/>
     </g>
    </g>
   </g>
  </g>
  <g id="g268" transform="matrix(3.0543 0 0 -3.0543 -560.47 822.74)">
   <g id="g270">
    <g id="g276">
     <g id="g278">
      <path id="path288" d="m193.69 225.42c-1.09-0.381-2.812-0.479-4.233-0.314-0.584 0.047-1.297 0.126-2.086 0.26v-5.276c1.152 0 2.086 0.934 2.086 2.087v0.843c0.872-0.047 1.636-0.052 2.14-0.052 1.467 0 2.979 0.31 4.084 1.163 0.917 0.708 1.414 1.694 1.445 2.853-1.271-0.82-2.451-1.292-3.436-1.564" fill="url(#linearGradient286)"/>
     </g>
    </g>
   </g>
  </g>
  <g id="g290" transform="matrix(3.0543 0 0 -3.0543 -560.47 822.74)">
   <g id="g292" clip-path="url(#clipPath296)">
    <g id="g298" transform="translate(189.46 225.11)">
     <path id="path300" d="m0 0v2.373c0 0.931 0.393 1.564 0.982 1.6h3.636c0.443-0.035 0.771-0.41 0.903-0.994 0.041-0.257 0.064-0.579 0.064-0.986 0-0.563-0.202-0.981-0.637-1.317-0.183-0.141-0.427-0.261-0.716-0.362 0.986 0.272 2.166 0.744 3.436 1.564 2e-3 0.038 4e-3 0.076 4e-3 0.115 0 0.312-9e-3 0.646-0.044 0.985h6e-3c-9e-3 0.069-0.019 0.137-0.031 0.205-0.054 0.398-0.15 0.798-0.318 1.177-0.451 1.015-1.315 1.607-2.452 1.691l-0.282 0.012h-3.517l-0.283-0.012c-1.136-0.084-2-0.676-2.451-1.691-0.162-0.366-0.257-0.752-0.312-1.136-0.039-0.219-0.064-0.448-0.071-0.684h-4e-3v-2.281c0.79-0.133 1.503-0.212 2.087-0.259" fill="#005180"/>
    </g>
   </g>
  </g>
  <g id="g302" transform="matrix(3.0543 0 0 -3.0543 -560.47 822.74)">
   <g id="g304">
    <g id="g310">
     <g id="g312">
      <path id="path322" d="m173.93 228.54 2.795-7.031c0.307-0.854 1.117-1.423 2.024-1.423h0.417c0.907 0 1.717 0.569 2.024 1.423l1.991 5.008c-0.631 0.257-1.252 0.559-1.844 0.913l-2.085-5.081c-0.035-0.098-0.124-0.165-0.226-0.175h-0.136c-0.103 0.01-0.191 0.077-0.227 0.175l-2.792 6.816c-0.277 0.77-1.143 1.745-1.941 1.843z" fill="url(#linearGradient320)"/>
     </g>
    </g>
   </g>
  </g>
  <g id="g324" transform="matrix(3.0543 0 0 -3.0543 -560.47 822.74)">
   <g id="g326" clip-path="url(#clipPath330)">
    <g id="g332" transform="translate(211.12 230.98)">
     <path id="path334" d="m0 0c-6.067 0-10.986-4.918-10.986-10.986h32.109c6.067 0 10.985 4.919 10.985 10.986z" fill="#fcbc49"/>
    </g>
    <g id="g336" transform="translate(210.38 223.55)">
     <path id="path338" d="m0 0c-0.042-0.03-0.099-0.066-0.173-0.108-0.073-0.041-0.166-0.081-0.278-0.119-0.111-0.037-0.242-0.07-0.394-0.096-0.151-0.026-0.323-0.04-0.515-0.04-0.28 0-0.545 0.045-0.794 0.133-0.249 0.089-0.47 0.219-0.661 0.389-0.19 0.17-0.342 0.381-0.453 0.635-0.111 0.253-0.167 0.544-0.167 0.873 0 0.325 0.054 0.616 0.161 0.873 0.108 0.256 0.256 0.473 0.443 0.649 0.187 0.175 0.405 0.31 0.654 0.402 0.25 0.093 0.516 0.139 0.8 0.139 0.272 0 0.495-0.023 0.668-0.068 0.174-0.045 0.311-0.101 0.412-0.167 0.1-0.066 0.17-0.134 0.209-0.204 0.04-0.07 0.06-0.128 0.06-0.173 0-0.049-0.011-0.097-0.031-0.142-0.021-0.045-0.046-0.086-0.074-0.122s-0.058-0.067-0.088-0.093c-0.03-0.027-0.057-0.046-0.079-0.057-0.038 0.042-0.09 0.087-0.156 0.136s-0.145 0.095-0.236 0.136c-0.09 0.042-0.192 0.077-0.306 0.105-0.113 0.028-0.236 0.043-0.368 0.043-0.193 0-0.372-0.034-0.539-0.1-0.166-0.066-0.309-0.162-0.43-0.289-0.121-0.126-0.217-0.28-0.287-0.459-0.07-0.18-0.105-0.383-0.105-0.609 0-0.231 0.037-0.434 0.111-0.61 0.074-0.175 0.175-0.323 0.303-0.442 0.129-0.119 0.28-0.209 0.454-0.269 0.174-0.061 0.361-0.091 0.561-0.091 0.238 0 0.443 0.03 0.615 0.091 0.172 0.06 0.298 0.117 0.377 0.17l0.3-0.516z" fill="#fff"/>
    </g>
    <g id="g340" transform="translate(213.64 223.81)">
     <path id="path342" d="m0 0c0.196 0 0.378 0.036 0.544 0.108 0.166 0.071 0.31 0.171 0.431 0.297 0.121 0.127 0.216 0.277 0.286 0.451s0.105 0.365 0.105 0.573c0 0.207-0.035 0.399-0.105 0.575s-0.165 0.327-0.286 0.453c-0.121 0.127-0.265 0.225-0.431 0.295s-0.348 0.105-0.544 0.105c-0.197 0-0.378-0.035-0.544-0.105-0.167-0.07-0.311-0.168-0.434-0.295-0.123-0.126-0.218-0.277-0.286-0.453s-0.102-0.368-0.102-0.575c0-0.208 0.034-0.399 0.102-0.573s0.163-0.324 0.286-0.451c0.123-0.126 0.267-0.226 0.434-0.297 0.166-0.072 0.347-0.108 0.544-0.108m0 3.475c0.295 0 0.568-0.052 0.819-0.156s0.471-0.247 0.658-0.431c0.187-0.183 0.333-0.399 0.439-0.649 0.106-0.249 0.159-0.519 0.159-0.81 0-0.292-0.053-0.562-0.159-0.811s-0.252-0.466-0.439-0.649-0.407-0.327-0.658-0.431-0.524-0.156-0.819-0.156-0.568 0.052-0.819 0.156c-0.252 0.104-0.471 0.248-0.658 0.431s-0.333 0.4-0.439 0.649-0.159 0.519-0.159 0.811c0 0.291 0.053 0.561 0.159 0.81 0.106 0.25 0.252 0.466 0.439 0.649 0.187 0.184 0.406 0.327 0.658 0.431 0.251 0.104 0.524 0.156 0.819 0.156" fill="#fff"/>
    </g>
    <g id="g344" transform="translate(217.27 223.29)">
     <path id="path346" d="m0 0c4e-3 0.098 0.01 0.24 0.02 0.425 9e-3 0.185 0.02 0.392 0.034 0.621 0.013 0.228 0.026 0.467 0.04 0.714 0.013 0.248 0.026 0.486 0.039 0.714 0.013 0.229 0.026 0.435 0.037 0.618 0.011 0.184 0.021 0.324 0.028 0.423 8e-3 0.136 0.053 0.232 0.136 0.289 0.083 0.056 0.178 0.085 0.284 0.085 0.117 0 0.213-0.017 0.289-0.051s0.128-0.066 0.159-0.097c0.045-0.09 0.114-0.229 0.207-0.416 0.092-0.187 0.192-0.39 0.3-0.607s0.215-0.432 0.323-0.643c0.108-0.212 0.198-0.388 0.269-0.527 0.065 0.128 0.145 0.288 0.241 0.479 0.097 0.19 0.193 0.383 0.289 0.578 0.097 0.194 0.188 0.378 0.273 0.55s0.15 0.305 0.195 0.399c0.053 0.11 0.119 0.193 0.199 0.25 0.079 0.056 0.181 0.085 0.306 0.085 0.109 0 0.202-0.014 0.277-0.043 0.076-0.028 0.123-0.052 0.142-0.071 8e-3 -0.105 0.017-0.259 0.029-0.459 0.011-0.2 0.023-0.422 0.036-0.666 0.014-0.244 0.028-0.499 0.043-0.765 0.015-0.267 0.03-0.522 0.045-0.765 0.015-0.244 0.028-0.465 0.037-0.664 0.01-0.198 0.018-0.35 0.026-0.456h-0.664c-3e-3 0.06-9e-3 0.165-0.017 0.315-7e-3 0.149-0.017 0.322-0.028 0.518-0.011 0.197-0.023 0.404-0.034 0.621s-0.023 0.423-0.034 0.618-0.022 0.366-0.031 0.516c-0.01 0.149-0.016 0.252-0.02 0.309-0.034-0.068-0.079-0.159-0.136-0.272-0.057-0.114-0.118-0.238-0.184-0.372s-0.135-0.275-0.207-0.422-0.141-0.288-0.207-0.422c-0.066-0.135-0.127-0.259-0.182-0.374-0.054-0.116-0.099-0.207-0.133-0.275h-0.555c-0.046 0.102-0.112 0.242-0.199 0.422-0.087 0.179-0.18 0.371-0.28 0.575-0.101 0.204-0.201 0.407-0.301 0.607s-0.19 0.374-0.269 0.521c-4e-3 -0.09-0.01-0.211-0.02-0.362-9e-3 -0.152-0.019-0.32-0.028-0.505-0.01-0.185-0.02-0.377-0.031-0.575-0.012-0.199-0.022-0.391-0.032-0.576-9e-3 -0.185-0.018-0.353-0.025-0.504-8e-3 -0.151-0.013-0.272-0.017-0.363z" fill="#fff"/>
    </g>
    <g id="g348" transform="translate(223.29 226.8)">
     <path id="path350" d="m0 0c0 0.257 0.138 0.386 0.414 0.386h2.177c0.227 0 0.34-0.103 0.34-0.307 0-0.071-0.012-0.137-0.034-0.195-0.023-0.059-0.04-0.097-0.051-0.116h-2.16v-0.975h1.825c0.223 0 0.335-0.102 0.335-0.307 0-0.071-0.011-0.137-0.031-0.195-0.021-0.059-0.039-0.097-0.054-0.116h-2.075v-1.06h2.211v-0.618h-2.897z" fill="#fff"/>
    </g>
    <g id="g352" transform="translate(228.5 223.88)">
     <path id="path354" d="m0 0c0.023-8e-3 0.083-0.016 0.181-0.026 0.099-9e-3 0.236-0.014 0.414-0.014 0.514 0 0.907 0.122 1.179 0.366s0.408 0.589 0.408 1.035c0 0.203-0.031 0.392-0.093 0.564s-0.158 0.319-0.286 0.442c-0.129 0.122-0.293 0.219-0.494 0.289-0.2 0.07-0.438 0.105-0.714 0.105-0.181 0-0.322-5e-3 -0.422-0.014-0.1-0.01-0.158-0.017-0.173-0.02zm-0.675 2.931c0 0.098 0.019 0.176 0.057 0.232 0.038 0.057 0.105 0.099 0.201 0.128 0.097 0.028 0.225 0.046 0.386 0.054 0.16 7e-3 0.365 0.011 0.615 0.011 0.359 0 0.681-0.046 0.966-0.139 0.286-0.093 0.528-0.225 0.726-0.397s0.35-0.382 0.456-0.629c0.106-0.248 0.159-0.524 0.159-0.83 0-0.31-0.051-0.589-0.153-0.837-0.102-0.247-0.252-0.458-0.451-0.632-0.198-0.174-0.444-0.307-0.737-0.399-0.292-0.093-0.63-0.139-1.011-0.139-0.405 0-0.703 8e-3 -0.896 0.025s-0.299 0.028-0.318 0.031z" fill="#fff"/>
    </g>
    <g id="g356" transform="translate(233.85 224.75)">
     <path id="path358" d="m0 0c-0.091 0.106-0.192 0.232-0.303 0.38-0.112 0.147-0.224 0.296-0.338 0.445-0.113 0.149-0.219 0.291-0.317 0.425s-0.178 0.245-0.238 0.332c-0.068 0.094-0.134 0.191-0.198 0.292-0.065 0.1-0.097 0.19-0.097 0.269 0 0.087 0.028 0.156 0.085 0.207s0.132 0.076 0.227 0.076c0.075 0 0.137-9e-3 0.184-0.028s0.08-0.032 0.099-0.04c0.057-0.087 0.136-0.204 0.238-0.351 0.102-0.148 0.213-0.305 0.332-0.474 0.119-0.168 0.239-0.335 0.36-0.501 0.121-0.167 0.229-0.31 0.323-0.431 0.091 0.121 0.184 0.25 0.281 0.388 0.096 0.138 0.191 0.276 0.283 0.414 0.093 0.138 0.182 0.273 0.267 0.405 0.085 0.133 0.161 0.252 0.229 0.358 0.042 0.064 0.095 0.123 0.159 0.178s0.155 0.082 0.272 0.082c0.102 0 0.187-0.02 0.255-0.059 0.068-0.04 0.11-0.067 0.125-0.082-0.034-0.069-0.085-0.158-0.153-0.27-0.068-0.111-0.147-0.234-0.235-0.368-0.089-0.134-0.185-0.276-0.287-0.425-0.102-0.15-0.205-0.297-0.309-0.443-0.104-0.145-0.205-0.285-0.303-0.419s-0.187-0.254-0.266-0.36v-1.462h-0.675z" fill="#fff"/>
    </g>
    <g id="g360" transform="translate(210.38 223.55)">
     <path id="path362" d="m0 0c-0.042-0.03-0.099-0.066-0.173-0.108-0.073-0.041-0.166-0.081-0.278-0.119-0.111-0.037-0.242-0.07-0.394-0.096-0.151-0.026-0.323-0.04-0.515-0.04-0.28 0-0.545 0.045-0.794 0.133-0.249 0.089-0.47 0.219-0.661 0.389-0.19 0.17-0.342 0.381-0.453 0.635-0.111 0.253-0.167 0.544-0.167 0.873 0 0.325 0.054 0.616 0.161 0.873 0.108 0.256 0.256 0.473 0.443 0.649 0.187 0.175 0.405 0.31 0.654 0.402 0.25 0.093 0.516 0.139 0.8 0.139 0.272 0 0.495-0.023 0.668-0.068 0.174-0.045 0.311-0.101 0.412-0.167 0.1-0.066 0.17-0.134 0.209-0.204 0.04-0.07 0.06-0.128 0.06-0.173 0-0.049-0.011-0.097-0.031-0.142-0.021-0.045-0.046-0.086-0.074-0.122s-0.058-0.067-0.088-0.093c-0.03-0.027-0.057-0.046-0.079-0.057-0.038 0.042-0.09 0.087-0.156 0.136s-0.145 0.095-0.236 0.136c-0.09 0.042-0.192 0.077-0.306 0.105-0.113 0.028-0.236 0.043-0.368 0.043-0.193 0-0.372-0.034-0.539-0.1-0.166-0.066-0.309-0.162-0.43-0.289-0.121-0.126-0.217-0.28-0.287-0.459-0.07-0.18-0.105-0.383-0.105-0.609 0-0.231 0.037-0.434 0.111-0.61 0.074-0.175 0.175-0.323 0.303-0.442 0.129-0.119 0.28-0.209 0.454-0.269 0.174-0.061 0.361-0.091 0.561-0.091 0.238 0 0.443 0.03 0.615 0.091 0.172 0.06 0.298 0.117 0.377 0.17l0.3-0.516z" fill="#fff"/>
    </g>
    <g id="g364" transform="translate(213.64 223.81)">
     <path id="path366" d="m0 0c0.196 0 0.378 0.036 0.544 0.108 0.166 0.071 0.31 0.171 0.431 0.297 0.121 0.127 0.216 0.277 0.286 0.451s0.105 0.365 0.105 0.573c0 0.207-0.035 0.399-0.105 0.575s-0.165 0.327-0.286 0.453c-0.121 0.127-0.265 0.225-0.431 0.295s-0.348 0.105-0.544 0.105c-0.197 0-0.378-0.035-0.544-0.105-0.167-0.07-0.311-0.168-0.434-0.295-0.123-0.126-0.218-0.277-0.286-0.453s-0.102-0.368-0.102-0.575c0-0.208 0.034-0.399 0.102-0.573s0.163-0.324 0.286-0.451c0.123-0.126 0.267-0.226 0.434-0.297 0.166-0.072 0.347-0.108 0.544-0.108m0 3.475c0.295 0 0.568-0.052 0.819-0.156s0.471-0.247 0.658-0.431c0.187-0.183 0.333-0.399 0.439-0.649 0.106-0.249 0.159-0.519 0.159-0.81 0-0.292-0.053-0.562-0.159-0.811s-0.252-0.466-0.439-0.649-0.407-0.327-0.658-0.431-0.524-0.156-0.819-0.156-0.568 0.052-0.819 0.156c-0.252 0.104-0.471 0.248-0.658 0.431s-0.333 0.4-0.439 0.649-0.159 0.519-0.159 0.811c0 0.291 0.053 0.561 0.159 0.81 0.106 0.25 0.252 0.466 0.439 0.649 0.187 0.184 0.406 0.327 0.658 0.431 0.251 0.104 0.524 0.156 0.819 0.156" fill="#fff"/>
    </g>
    <g id="g368" transform="translate(217.27 223.29)">
     <path id="path370" d="m0 0c4e-3 0.098 0.01 0.24 0.02 0.425 9e-3 0.185 0.02 0.392 0.034 0.621 0.013 0.228 0.026 0.467 0.04 0.714 0.013 0.248 0.026 0.486 0.039 0.714 0.013 0.229 0.026 0.435 0.037 0.618 0.011 0.184 0.021 0.324 0.028 0.423 8e-3 0.136 0.053 0.232 0.136 0.289 0.083 0.056 0.178 0.085 0.284 0.085 0.117 0 0.213-0.017 0.289-0.051s0.128-0.066 0.159-0.097c0.045-0.09 0.114-0.229 0.207-0.416 0.092-0.187 0.192-0.39 0.3-0.607s0.215-0.432 0.323-0.643c0.108-0.212 0.198-0.388 0.269-0.527 0.065 0.128 0.145 0.288 0.241 0.479 0.097 0.19 0.193 0.383 0.289 0.578 0.097 0.194 0.188 0.378 0.273 0.55s0.15 0.305 0.195 0.399c0.053 0.11 0.119 0.193 0.199 0.25 0.079 0.056 0.181 0.085 0.306 0.085 0.109 0 0.202-0.014 0.277-0.043 0.076-0.028 0.123-0.052 0.142-0.071 8e-3 -0.105 0.017-0.259 0.029-0.459 0.011-0.2 0.023-0.422 0.036-0.666 0.014-0.244 0.028-0.499 0.043-0.765 0.015-0.267 0.03-0.522 0.045-0.765 0.015-0.244 0.028-0.465 0.037-0.664 0.01-0.198 0.018-0.35 0.026-0.456h-0.664c-3e-3 0.06-9e-3 0.165-0.017 0.315-7e-3 0.149-0.017 0.322-0.028 0.518-0.011 0.197-0.023 0.404-0.034 0.621s-0.023 0.423-0.034 0.618-0.022 0.366-0.031 0.516c-0.01 0.149-0.016 0.252-0.02 0.309-0.034-0.068-0.079-0.159-0.136-0.272-0.057-0.114-0.118-0.238-0.184-0.372s-0.135-0.275-0.207-0.422-0.141-0.288-0.207-0.422c-0.066-0.135-0.127-0.259-0.182-0.374-0.054-0.116-0.099-0.207-0.133-0.275h-0.555c-0.046 0.102-0.112 0.242-0.199 0.422-0.087 0.179-0.18 0.371-0.28 0.575-0.101 0.204-0.201 0.407-0.301 0.607s-0.19 0.374-0.269 0.521c-4e-3 -0.09-0.01-0.211-0.02-0.362-9e-3 -0.152-0.019-0.32-0.028-0.505-0.01-0.185-0.02-0.377-0.031-0.575-0.012-0.199-0.022-0.391-0.032-0.576-9e-3 -0.185-0.018-0.353-0.025-0.504-8e-3 -0.151-0.013-0.272-0.017-0.363z" fill="#fff"/>
    </g>
    <g id="g372" transform="translate(223.29 226.8)">
     <path id="path374" d="m0 0c0 0.257 0.138 0.386 0.414 0.386h2.177c0.227 0 0.34-0.103 0.34-0.307 0-0.071-0.012-0.137-0.034-0.195-0.023-0.059-0.04-0.097-0.051-0.116h-2.16v-0.975h1.825c0.223 0 0.335-0.102 0.335-0.307 0-0.071-0.011-0.137-0.031-0.195-0.021-0.059-0.039-0.097-0.054-0.116h-2.075v-1.06h2.211v-0.618h-2.897z" fill="#fff"/>
    </g>
    <g id="g376" transform="translate(228.5 223.88)">
     <path id="path378" d="m0 0c0.023-8e-3 0.083-0.016 0.181-0.026 0.099-9e-3 0.236-0.014 0.414-0.014 0.514 0 0.907 0.122 1.179 0.366s0.408 0.589 0.408 1.035c0 0.203-0.031 0.392-0.093 0.564s-0.158 0.319-0.286 0.442c-0.129 0.122-0.293 0.219-0.494 0.289-0.2 0.07-0.438 0.105-0.714 0.105-0.181 0-0.322-5e-3 -0.422-0.014-0.1-0.01-0.158-0.017-0.173-0.02zm-0.675 2.931c0 0.098 0.019 0.176 0.057 0.232 0.038 0.057 0.105 0.099 0.201 0.128 0.097 0.028 0.225 0.046 0.386 0.054 0.16 7e-3 0.365 0.011 0.615 0.011 0.359 0 0.681-0.046 0.966-0.139 0.286-0.093 0.528-0.225 0.726-0.397s0.35-0.382 0.456-0.629c0.106-0.248 0.159-0.524 0.159-0.83 0-0.31-0.051-0.589-0.153-0.837-0.102-0.247-0.252-0.458-0.451-0.632-0.198-0.174-0.444-0.307-0.737-0.399-0.292-0.093-0.63-0.139-1.011-0.139-0.405 0-0.703 8e-3 -0.896 0.025s-0.299 0.028-0.318 0.031z" fill="#fff"/>
    </g>
    <g id="g380" transform="translate(233.85 224.75)">
     <path id="path382" d="m0 0c-0.091 0.106-0.192 0.232-0.303 0.38-0.112 0.147-0.224 0.296-0.338 0.445-0.113 0.149-0.219 0.291-0.317 0.425s-0.178 0.245-0.238 0.332c-0.068 0.094-0.134 0.191-0.198 0.292-0.065 0.1-0.097 0.19-0.097 0.269 0 0.087 0.028 0.156 0.085 0.207s0.132 0.076 0.227 0.076c0.075 0 0.137-9e-3 0.184-0.028s0.08-0.032 0.099-0.04c0.057-0.087 0.136-0.204 0.238-0.351 0.102-0.148 0.213-0.305 0.332-0.474 0.119-0.168 0.239-0.335 0.36-0.501 0.121-0.167 0.229-0.31 0.323-0.431 0.091 0.121 0.184 0.25 0.281 0.388 0.096 0.138 0.191 0.276 0.283 0.414 0.093 0.138 0.182 0.273 0.267 0.405 0.085 0.133 0.161 0.252 0.229 0.358 0.042 0.064 0.095 0.123 0.159 0.178s0.155 0.082 0.272 0.082c0.102 0 0.187-0.02 0.255-0.059 0.068-0.04 0.11-0.067 0.125-0.082-0.034-0.069-0.085-0.158-0.153-0.27-0.068-0.111-0.147-0.234-0.235-0.368-0.089-0.134-0.185-0.276-0.287-0.425-0.102-0.15-0.205-0.297-0.309-0.443-0.104-0.145-0.205-0.285-0.303-0.419s-0.187-0.254-0.266-0.36v-1.462h-0.675z" fill="#fff"/>
    </g>
   </g>
  </g>
 </g>
</svg>
