<svg id="j" version="1.1" viewBox="0 0 799.01 125.93" xmlns="http://www.w3.org/2000/svg" xmlns:xlink="http://www.w3.org/1999/xlink">
 <defs id="k">
  <linearGradient id="b" x1="635.42" x2="635.42" y1="92.663" y2="218.6" data-name="Безымянный градиент 38" gradientUnits="userSpaceOnUse">
   <stop id="l" stop-color="#00b092" offset="0"/>
   <stop id="m" stop-color="#01a78b" offset=".18812"/>
   <stop id="n" stop-color="#028d79" offset=".50144"/>
   <stop id="o" stop-color="#05645a" offset=".89916"/>
   <stop id="p" stop-color="#065852" offset="1"/>
  </linearGradient>
  <filter id="q" color-interpolation-filters="sRGB" filterUnits="userSpaceOnUse">
   <feColorMatrix id="r" values="-1 0 0 0 1 0 -1 0 0 1 0 0 -1 0 1 0 0 0 1 0"/>
  </filter>
  <mask id="i" x="302.97778" y="-2.20967" width="498.24" height="130.32" maskUnits="userSpaceOnUse"></mask>
  <mask id="s" x="614.01778" y="44.59033" width="21.36" height="24.48" maskUnits="userSpaceOnUse"></mask>
  <mask id="t" x="527.13778" y="43.87033" width="24.96" height="20.64" maskUnits="userSpaceOnUse"></mask>
  <linearGradient id="h" x1="215.1" x2="215.1" y1="94.406" y2="135.78" gradientTransform="translate(-83.415 -92.663)" xlink:href="#b"/>
  <linearGradient id="a" x1="215.1" x2="215.1" y1="220.28" y2="94.505" gradientUnits="userSpaceOnUse">
   <stop id="u" stop-color="#3260a0" offset=".3706"/>
   <stop id="v" stop-color="#184b7f" offset="1"/>
  </linearGradient>
  <linearGradient id="g" x1="288.77" x2="288.77" y1="220.28" y2="94.506" gradientTransform="translate(-83.415 -92.663)" xlink:href="#a"/>
  <linearGradient id="f" x1="135.26" x2="135.26" y1="220.28" y2="94.505" gradientTransform="translate(-83.415 -92.663)" xlink:href="#a"/>
  <linearGradient id="d" x1="635.42" x2="635.42" y1="92.663" y2="218.6" gradientTransform="translate(-83.415 -92.663)" gradientUnits="userSpaceOnUse" xlink:href="#b"/>
  <linearGradient id="c" x1="215.1" x2="215.1" y1="220.28" y2="94.505" gradientTransform="translate(-83.415 -92.663)" gradientUnits="userSpaceOnUse" xlink:href="#a"/>
  <filter id="e" x="-.014054" y="-.0821" width="1.0281" height="1.1642" color-interpolation-filters="sRGB">
   <feGaussianBlur id="w" stdDeviation="1.6725096"/>
  </filter>
 </defs>
 <path id="x" d="m430.94 6.1e-4c-69.551-3.3137e-5 -125.93 56.382-125.93 125.93v6e-5h368.08c69.551 1e-5 125.93-56.382 125.93-125.93v-2.4e-4z" fill="url(#d)" style="isolation:isolate"/>
 <g id="y" fill="#fff" filter="url(#e)">
  <path id="z" d="m444.56 64.226q-3.7245-3.0808-11.104-4.4349l-7.5829-1.4213a17.181 17.181 0 0 1-6.6691-2.3365 4.705 4.705 0 0 1-1.9961-4.0284 6.3541 6.3541 0 0 1 0.54114-2.6743 5.0173 5.0173 0 0 1 1.7602-2.031 9.4757 9.4757 0 0 1 3.283-1.3204 23.364 23.364 0 0 1 5.1118-0.47382 27.316 27.316 0 0 1 5.6194 0.54242 29.611 29.611 0 0 1 4.502 1.2854 18.295 18.295 0 0 1 3.2505 1.5921 9.7472 9.7472 0 0 1 1.9299 1.5224 7.458 7.458 0 0 0 1.7592-1.8615 4.8258 4.8258 0 0 0 0.94873-2.8775 3.2489 3.2489 0 0 0-0.677-2.0311 7.7414 7.7414 0 0 0-1.7604-1.6244q-0.54291-0.3392-1.6931-0.94763a17.653 17.653 0 0 0-3.046-1.1857 33.095 33.095 0 0 0-4.6044-0.9812 43.506 43.506 0 0 0-6.3636-0.4065 28.443 28.443 0 0 0-8.5305 1.1172 17.24 17.24 0 0 0-5.8224 3.0134 11.233 11.233 0 0 0-3.3514 4.4685 14.169 14.169 0 0 0-1.0498 5.4161 11.375 11.375 0 0 0 1.2181 5.4496 11.802 11.802 0 0 0 3.2504 3.8252 17.087 17.087 0 0 0 4.6716 2.5048 31.422 31.422 0 0 0 5.4834 1.4225l7.4473 1.354a30.403 30.403 0 0 1 3.623 0.81171 9.4594 9.4594 0 0 1 2.708 1.253 5.3072 5.3072 0 0 1 1.6919 1.8615 6.1119 6.1119 0 0 1-1.9624 7.5493q-2.5397 1.7262-8.4294 1.7268a32.325 32.325 0 0 1-6.127-0.5423 34.74 34.74 0 0 1-5.0107-1.3204 28.579 28.579 0 0 1-3.6892-1.5572 18.698 18.698 0 0 1-2.2342-1.3192l-3.5209 6.2963q0.81151 0.543 2.572 1.4887a30.317 30.317 0 0 0 4.4012 1.8627 43.454 43.454 0 0 0 6.0258 1.5573 40.053 40.053 0 0 0 7.447 0.64209 32.131 32.131 0 0 0 8.4968-1.0149 17.758 17.758 0 0 0 6.1616-2.9113 12.764 12.764 0 0 0 3.7578-4.5021 13.075 13.075 0 0 0 1.2855-5.8562q1.3e-4 -5.8226-3.7229-8.9033z" style="isolation:isolate"/>
  <path id="aa" d="m496.9 39.752h-25.998q-4.9422 0-4.9423 4.6031v41.841h34.597v-7.3798h-26.405v-12.66h24.779a5.4275 5.4275 0 0 0 0.64331-1.3889 6.956 6.956 0 0 0 0.37268-2.3353q0-3.6561-3.9948-3.6556h-21.8v-11.645h25.795a11.048 11.048 0 0 0 0.60974-1.3889 6.423 6.423 0 0 0 0.40527-2.3352q0-3.6563-4.062-3.6557z" style="isolation:isolate"/>
  <path id="ab" d="m555.24 76.412q-1.4215-2.5378-2.8776-4.9086-1.4557-2.3684-2.8777-4.3326a15.242 15.242 0 0 0 6.3986-4.9423 14.51 14.51 0 0 0-2.945-19.092q-5.2813-4.062-15.91-4.062-5.2813 0-8.0568 0.23694-2.7777 0.238-3.7915 0.44006a5.802 5.802 0 0 0-2.6406 1.2854 3.9464 3.9464 0 0 0-1.0835 3.1145v42.044h7.8535v-17.332q0.88036 0.13532 2.9788 0.3042 2.0977 0.16965 4.4685 0.16962 1.0822 0 2.3363-0.0685 1.2519-0.0667 2.4038-0.20209 0.94683 1.286 2.3689 3.6893 1.4215 2.4044 2.844 5.0096 1.4213 2.6082 2.6406 4.9423 1.2175 2.3358 1.7593 3.4873h9.3434q-1.1506-2.2349-2.4711-4.7391-1.3203-2.5037-2.7416-5.0446zm-5.9247-18.821a6.1088 6.1088 0 0 1-2.1658 2.607 11.677 11.677 0 0 1-3.9946 1.6919 26.07 26.07 0 0 1-6.1268 0.60974 47.46 47.46 0 0 1-5.078-0.20331q-1.7626-0.202-2.6409-0.338v-15.64a17.843 17.843 0 0 1 2.3364-0.27051q1.793-0.13532 5.1792-0.13593a25.359 25.359 0 0 1 6.3973 0.677 11.348 11.348 0 0 1 4.0284 1.8278 6.4493 6.4493 0 0 1 2.0995 2.6407 8.3451 8.3451 0 0 1 0.60852 3.1818 8.5187 8.5187 0 0 1-0.64331 3.3514z" style="isolation:isolate"/>
  <path id="ac" d="m582.82 39.752a4.8693 4.8693 0 0 0-3.1145 0.91394 3.369 3.369 0 0 0-1.1508 2.809v42.721h8.0568v-45.633q-0.3391-0.13531-1.4214-0.47381a7.9443 7.9443 0 0 0-2.3701-0.33792z" style="isolation:isolate"/>
  <path id="ad" d="m644.42 73.231q-1.7948-4.5023-3.8938-9.5467-2.0995-5.0415-4.0957-9.6813-1.9984-4.6356-3.7241-8.361-1.7263-3.7229-2.8091-5.6193a3.5004 3.5004 0 0 0-0.50855-0.30542q-0.44017-0.2362-1.0823-0.50744a9.951 9.951 0 0 0-1.49-0.47376 7.3563 7.3563 0 0 0-1.7268-0.20325 6.873 6.873 0 0 0-3.926 1.0498 8.7136 8.7136 0 0 0-2.7766 3.7578q-2.4368 5.4167-4.9087 11.103-2.4708 5.6873-4.7725 11.205-2.302 5.5195-4.4014 10.765-2.0976 5.249-3.7903 9.7836h8.124q0.74342-2.0979 1.929-5.2466 1.1851-3.1493 2.6743-6.8723h22.682q0.54089 1.3546 1.218 3.1145 0.6764 1.7606 1.3203 3.4861 0.64233 1.7262 1.1846 3.2167 0.54126 1.4898 0.88012 2.3016h8.937q-0.54273-1.4882-1.895-4.976-1.3565-3.4866-3.1482-7.9894zm-28.334-6.2626q1.0155-2.6408 2.1668-5.4161 1.151-2.7759 2.3018-5.4497 1.1506-2.6749 2.2341-5.0782 1.0821-2.4025 1.9636-4.2989 0.60973 1.2176 1.6584 3.5882 1.0496 2.3701 2.2341 5.2465 1.1832 2.8789 2.4038 5.89 1.2195 3.0141 2.167 5.5182z" style="isolation:isolate"/>
  <path id="ae" d="m669.85 40.563q-0.33911-0.13531-1.4214-0.47381a7.9443 7.9443 0 0 0-2.3701-0.3379 4.8689 4.8689 0 0 0-3.1145 0.91394 3.3691 3.3691 0 0 0-1.1509 2.809v42.721h31.956v-7.3798h-23.9z" style="isolation:isolate"/>
 </g>
 <g id="af" fill="#fff">
  <path id="ag" d="m444.56 64.226q-3.7245-3.0808-11.104-4.4349l-7.5829-1.4213a17.181 17.181 0 0 1-6.6691-2.3365 4.705 4.705 0 0 1-1.9961-4.0284 6.3541 6.3541 0 0 1 0.54114-2.6743 5.0173 5.0173 0 0 1 1.7602-2.031 9.4757 9.4757 0 0 1 3.283-1.3204 23.364 23.364 0 0 1 5.1118-0.47382 27.316 27.316 0 0 1 5.6194 0.54242 29.611 29.611 0 0 1 4.502 1.2854 18.295 18.295 0 0 1 3.2505 1.5921 9.7472 9.7472 0 0 1 1.9299 1.5224 7.458 7.458 0 0 0 1.7592-1.8615 4.8258 4.8258 0 0 0 0.94873-2.8775 3.2489 3.2489 0 0 0-0.677-2.0311 7.7414 7.7414 0 0 0-1.7604-1.6244q-0.54291-0.3392-1.6931-0.94763a17.653 17.653 0 0 0-3.046-1.1857 33.095 33.095 0 0 0-4.6044-0.9812 43.506 43.506 0 0 0-6.3636-0.4065 28.443 28.443 0 0 0-8.5305 1.1172 17.24 17.24 0 0 0-5.8224 3.0134 11.233 11.233 0 0 0-3.3514 4.4685 14.169 14.169 0 0 0-1.0498 5.4161 11.375 11.375 0 0 0 1.2181 5.4496 11.802 11.802 0 0 0 3.2504 3.8252 17.087 17.087 0 0 0 4.6716 2.5048 31.422 31.422 0 0 0 5.4834 1.4225l7.4473 1.354a30.403 30.403 0 0 1 3.623 0.81171 9.4594 9.4594 0 0 1 2.708 1.253 5.3072 5.3072 0 0 1 1.6919 1.8615 6.1119 6.1119 0 0 1-1.9624 7.5493q-2.5397 1.7262-8.4294 1.7268a32.325 32.325 0 0 1-6.127-0.5423 34.74 34.74 0 0 1-5.0107-1.3204 28.579 28.579 0 0 1-3.6892-1.5572 18.698 18.698 0 0 1-2.2342-1.3192l-3.5209 6.2963q0.81151 0.543 2.572 1.4887a30.317 30.317 0 0 0 4.4012 1.8627 43.454 43.454 0 0 0 6.0258 1.5573 40.053 40.053 0 0 0 7.447 0.64209 32.131 32.131 0 0 0 8.4968-1.0149 17.758 17.758 0 0 0 6.1616-2.9113 12.764 12.764 0 0 0 3.7578-4.5021 13.075 13.075 0 0 0 1.2855-5.8562q1.3e-4 -5.8226-3.7229-8.9033z" style="isolation:isolate"/>
  <path id="ah" d="m496.9 39.752h-25.998q-4.9422 0-4.9423 4.6031v41.841h34.597v-7.3798h-26.405v-12.66h24.779a5.4275 5.4275 0 0 0 0.64331-1.3889 6.956 6.956 0 0 0 0.37268-2.3353q0-3.6561-3.9948-3.6556h-21.8v-11.645h25.795a11.048 11.048 0 0 0 0.60974-1.3889 6.423 6.423 0 0 0 0.40527-2.3352q0-3.6563-4.062-3.6557z" style="isolation:isolate"/>
  <path id="ai" d="m555.24 76.412q-1.4215-2.5378-2.8776-4.9086-1.4557-2.3684-2.8777-4.3326a15.242 15.242 0 0 0 6.3986-4.9423 14.51 14.51 0 0 0-2.945-19.092q-5.2813-4.062-15.91-4.062-5.2813 0-8.0568 0.23694-2.7777 0.238-3.7915 0.44006a5.802 5.802 0 0 0-2.6406 1.2854 3.9464 3.9464 0 0 0-1.0835 3.1145v42.044h7.8535v-17.332q0.88036 0.13532 2.9788 0.3042 2.0977 0.16965 4.4685 0.16962 1.0822 0 2.3363-0.0685 1.2519-0.0667 2.4038-0.20209 0.94683 1.286 2.3689 3.6893 1.4215 2.4044 2.844 5.0096 1.4213 2.6082 2.6406 4.9423 1.2175 2.3358 1.7593 3.4873h9.3434q-1.1506-2.2349-2.4711-4.7391-1.3203-2.5037-2.7416-5.0446zm-5.9247-18.821a6.1088 6.1088 0 0 1-2.1658 2.607 11.677 11.677 0 0 1-3.9946 1.6919 26.07 26.07 0 0 1-6.1268 0.60974 47.46 47.46 0 0 1-5.078-0.20331q-1.7626-0.202-2.6409-0.338v-15.64a17.843 17.843 0 0 1 2.3364-0.27051q1.793-0.13532 5.1792-0.13593a25.359 25.359 0 0 1 6.3973 0.677 11.348 11.348 0 0 1 4.0284 1.8278 6.4493 6.4493 0 0 1 2.0995 2.6407 8.3451 8.3451 0 0 1 0.60852 3.1818 8.5187 8.5187 0 0 1-0.64331 3.3514z" style="isolation:isolate"/>
  <path id="aj" d="m582.82 39.752a4.8693 4.8693 0 0 0-3.1145 0.91394 3.369 3.369 0 0 0-1.1508 2.809v42.721h8.0568v-45.633q-0.3391-0.13531-1.4214-0.47381a7.9443 7.9443 0 0 0-2.3701-0.33792z" style="isolation:isolate"/>
  <path id="ak" d="m644.42 73.231q-1.7948-4.5023-3.8938-9.5467-2.0995-5.0415-4.0957-9.6813-1.9984-4.6356-3.7241-8.361-1.7263-3.7229-2.8091-5.6193a3.5004 3.5004 0 0 0-0.50855-0.30542q-0.44017-0.2362-1.0823-0.50744a9.951 9.951 0 0 0-1.49-0.47376 7.3563 7.3563 0 0 0-1.7268-0.20325 6.873 6.873 0 0 0-3.926 1.0498 8.7136 8.7136 0 0 0-2.7766 3.7578q-2.4368 5.4167-4.9087 11.103-2.4708 5.6873-4.7725 11.205-2.302 5.5195-4.4014 10.765-2.0976 5.249-3.7903 9.7836h8.124q0.74342-2.0979 1.929-5.2466 1.1851-3.1493 2.6743-6.8723h22.682q0.54089 1.3546 1.218 3.1145 0.6764 1.7606 1.3203 3.4861 0.64233 1.7262 1.1846 3.2167 0.54126 1.4898 0.88012 2.3016h8.937q-0.54273-1.4882-1.895-4.976-1.3565-3.4866-3.1482-7.9894zm-28.334-6.2626q1.0155-2.6408 2.1668-5.4161 1.151-2.7759 2.3018-5.4497 1.1506-2.6749 2.2341-5.0782 1.0821-2.4025 1.9636-4.2989 0.60973 1.2176 1.6584 3.5882 1.0496 2.3701 2.2341 5.2465 1.1832 2.8789 2.4038 5.89 1.2195 3.0141 2.167 5.5182z" style="isolation:isolate"/>
  <path id="al" d="m669.85 40.563q-0.33911-0.13531-1.4214-0.47381a7.9443 7.9443 0 0 0-2.3701-0.3379 4.8689 4.8689 0 0 0-3.1145 0.91394 3.3691 3.3691 0 0 0-1.1509 2.809v42.721h31.956v-7.3798h-23.9z" style="isolation:isolate"/>
 </g>
 <path id="am" d="m221.52 64.449a28.793 28.793 0 0 0 8.02-4.0616c4.8726-3.7642 7.1421-8.4561 7.1421-14.765a71.354 71.354 0 0 0-0.72-11.048c-1.4774-6.5522-5.1588-10.753-10.117-11.143l-40.76-6e-5c-6.6096 0.39837-11.014 7.4931-11.014 17.938v26.601c15.929 1.8495 35.23 0.75499 47.45-3.5212z" fill="none" style="isolation:isolate"/>
 <g id="an" mask="url(#i)" style="isolation:isolate">
  <g id="ao" opacity=".27" style="mix-blend-mode:screen">
   <path id="ap" transform="translate(-83.415 -92.663)" d="m514.35 92.663c-69.551-3.3e-5 -125.93 56.382-125.93 125.93v6e-5h368.08c69.551 1e-5 125.93-56.382 125.93-125.93v-2.4e-4z" fill="#fff" mask="none"/>
  </g>
 </g>
 <path id="aq" d="m119.99 25.134v17.984h3e-3a23.39 23.39 0 0 0 23.39-23.39v-17.984h-2e-3a23.39 23.39 0 0 0-23.39 23.39z" fill="url(#h)" style="isolation:isolate"/>
 <path id="ar" d="m90.589 23.414-7.5666 18.445a153.61 153.61 0 0 0 20.674 10.231l9.015-22.683v-27.663c-8.9402 1.1016-19.019 13.038-22.123 21.67z" fill="#184b7f" style="isolation:isolate"/>
 <path id="as" d="m119.99 67.995v32.925a23.393 23.393 0 0 0 23.393 23.393v-60.369a190.91 190.91 0 0 1-23.392-6.0082z" fill="url(#c)" style="isolation:isolate"/>
 <path id="at" d="m174.07 67.97v-3e-3c-6.5474-0.52648-14.545-1.4153-23.393-2.9033v59.14a23.393 23.393 0 0 0 23.393-23.393v-9.459c9.7725 0.529 18.328 0.58648 23.996 0.58648 16.437 0 33.385-3.4681 45.775-13.039a40.53 40.53 0 0 0 16.2-31.983 139.53 139.53 0 0 1-38.521 17.532c-12.219 4.2762-31.521 5.3707-47.45 3.5212z" fill="url(#g)" style="isolation:isolate"/>
 <path id="au" d="m259.65 34.584c-0.0955-0.77856-0.21314-1.5449-0.34107-2.305a48.728 48.728 0 0 0-3.57-13.188c-5.0518-11.382-14.745-18.023-27.483-18.962l-3.1721-0.12823h-39.418l-3.1722 0.12811c-12.738 0.93951-22.432 7.5805-27.483 18.963a48.231 48.231 0 0 0-3.4971 12.729 53.764 53.764 0 0 0-0.80053 7.6758h-0.0361v25.568c8.8472 1.488 16.845 2.3768 23.393 2.9033v-26.598c0-10.445 4.4043-17.54 11.014-17.938l40.76 6e-5c4.9586 0.39026 8.64 4.5908 10.117 11.143a71.354 71.354 0 0 1 0.72 11.048c0 6.3091-2.2695 11.001-7.1421 14.765a28.793 28.793 0 0 1-8.02 4.0616 139.53 139.53 0 0 0 38.521-17.532c0.0116-0.43145 0.0337-0.85882 0.0337-1.2946a107.28 107.28 0 0 0-0.48828-11.038z" fill="#184b7f" style="isolation:isolate"/>
 <path id="av" d="m59.657 98.816a3.0081 3.0081 0 0 1-2.5334 1.9705h-1.5362a3.008 3.008 0 0 1-2.5336-1.9705l-31.305-76.407c-3.104-8.6321-12.809-19.564-21.749-20.666v27.663l31.329 78.831a24.113 24.113 0 0 0 22.69 15.953h4.6726a24.112 24.112 0 0 0 22.69-15.953l22.315-56.147a153.61 153.61 0 0 1-20.674-10.231z" fill="url(#f)" style="isolation:isolate"/>
</svg>
