<?xml version="1.0" encoding="UTF-8"?>
<!-- Created with Inkscape (http://www.inkscape.org/) -->
<svg id="svg1704" width="800" height="128.82" version="1.1" viewBox="0 0 211.67 34.083" xmlns="http://www.w3.org/2000/svg" xmlns:cc="http://creativecommons.org/ns#" xmlns:dc="http://purl.org/dc/elements/1.1/" xmlns:rdf="http://www.w3.org/1999/02/22-rdf-syntax-ns#">
 <defs id="defs1698">
  <clipPath id="clipPath646">
   <path id="path644" d="m254.09 240.08h83.806v25.787h-83.806z"/>
  </clipPath>
  <linearGradient id="linearGradient636" x2="1" gradientTransform="matrix(0 10.555 10.555 0 265.93 247.58)" gradientUnits="userSpaceOnUse">
   <stop id="stop630" stop-color="#2e66a4" offset="0"/>
   <stop id="stop632" stop-color="#2e66a4" offset=".3706"/>
   <stop id="stop634" stop-color="#005180" offset="1"/>
  </linearGradient>
  <clipPath id="clipPath612">
   <path id="path610" d="m254.09 240.08h83.806v25.787h-83.806z"/>
  </clipPath>
  <linearGradient id="linearGradient602" x2="1" gradientTransform="matrix(0 10.555 10.555 0 279.64 247.58)" gradientUnits="userSpaceOnUse">
   <stop id="stop596" stop-color="#2e66a4" offset="0"/>
   <stop id="stop598" stop-color="#2e66a4" offset=".3706"/>
   <stop id="stop600" stop-color="#005180" offset="1"/>
  </linearGradient>
  <linearGradient id="linearGradient580" x2="1" gradientTransform="matrix(0 10.555 10.555 0 273.06 247.58)" gradientUnits="userSpaceOnUse">
   <stop id="stop574" stop-color="#2e66a4" offset="0"/>
   <stop id="stop576" stop-color="#2e66a4" offset=".3706"/>
   <stop id="stop578" stop-color="#005180" offset="1"/>
  </linearGradient>
  <clipPath id="clipPath552">
   <path id="path550" d="m254.09 240.08h83.806v25.787h-83.806z"/>
  </clipPath>
 </defs>
 <metadata id="metadata1701">
  <rdf:RDF>
   <cc:Work rdf:about="">
    <dc:format>image/svg+xml</dc:format>
    <dc:type rdf:resource="http://purl.org/dc/dcmitype/StillImage"/>
    <dc:title/>
   </cc:Work>
  </rdf:RDF>
 </metadata>
 <g id="layer1" transform="translate(29.245 -116.72)">
  <g id="g546" transform="matrix(3.0512 0 0 -3.0512 -826.53 905.62)">
   <g id="g548" clip-path="url(#clipPath552)">
    <g id="g554" transform="translate(272.02 254.72)">
     <path id="path556" d="m0 0v1.606c0 1.153 0.935 2.088 2.088 2.088h1e-3v-1.605c0-1.154-0.936-2.089-2.089-2.089" fill="#925397"/>
    </g>
    <g id="g558" transform="translate(268.72 254.83)">
     <path id="path560" d="m0 0c0.593-0.354 1.215-0.656 1.846-0.914l0.805 2.026v2.47c-0.798-0.098-1.698-1.164-1.975-1.935z" fill="#005180"/>
    </g>
   </g>
  </g>
  <g id="g562" transform="matrix(3.0512 0 0 -3.0512 -826.53 905.62)">
   <g id="g564">
    <g id="g570">
     <g id="g572">
      <path id="path582" d="m272.02 249.55c0-1.153 0.935-2.089 2.089-2.089v5.391c-0.626 0.113-1.289 0.283-2.089 0.536z" fill="url(#linearGradient580)"/>
     </g>
    </g>
   </g>
  </g>
  <g id="g584" transform="matrix(3.0512 0 0 -3.0512 -826.53 905.62)">
   <g id="g586">
    <g id="g592">
     <g id="g594">
      <path id="path604" d="m281.08 252.81c-1.091-0.383-2.815-0.48-4.237-0.315v1e-3c-0.585 0.047-1.298 0.126-2.089 0.259v-5.281c1.154 0 2.089 0.935 2.089 2.089v0.845c0.872-0.048 1.636-0.053 2.143-0.053 1.467 0 2.981 0.31 4.087 1.164 0.918 0.709 1.416 1.695 1.446 2.856-1.271-0.821-2.453-1.293-3.439-1.565" fill="url(#linearGradient602)"/>
     </g>
    </g>
   </g>
  </g>
  <g id="g606" transform="matrix(3.0512 0 0 -3.0512 -826.53 905.62)">
   <g id="g608" clip-path="url(#clipPath612)">
    <g id="g614" transform="translate(276.85 252.5)">
     <path id="path616" d="m0 0v2.375c0 0.933 0.393 1.566 0.983 1.602h3.64c0.443-0.035 0.771-0.41 0.903-0.995 0.041-0.257 0.065-0.58 0.065-0.987 0-0.563-0.203-0.982-0.638-1.318-0.183-0.141-0.428-0.262-0.716-0.363 0.986 0.272 2.167 0.745 3.439 1.566 1e-3 0.038 3e-3 0.076 3e-3 0.115 0 0.313-8e-3 0.646-0.043 0.986h6e-3c-9e-3 0.069-0.019 0.138-0.031 0.206-0.054 0.398-0.151 0.799-0.319 1.177-0.451 1.016-1.316 1.609-2.454 1.693h-4.086c-1.137-0.084-2.003-0.677-2.454-1.693-0.162-0.365-0.257-0.752-0.312-1.136-0.039-0.22-0.064-0.449-0.071-0.686h-4e-3v-2.283c0.79-0.133 1.504-0.212 2.089-0.259" fill="#005180"/>
    </g>
   </g>
  </g>
  <g id="g618" transform="matrix(3.0512 0 0 -3.0512 -826.53 905.62)">
   <g id="g620">
    <g id="g626">
     <g id="g628">
      <path id="path638" d="m261.3 255.94 2.798-7.039c0.307-0.854 1.118-1.423 2.026-1.423h0.417c0.908 0 1.719 0.569 2.026 1.423l1.993 5.014c-0.631 0.258-1.253 0.559-1.846 0.914l-2.087-5.086c-0.035-0.098-0.124-0.166-0.226-0.176h-0.137c-0.102 0.01-0.191 0.078-0.226 0.176l-2.796 6.822c-0.277 0.771-1.143 1.747-1.942 1.846z" fill="url(#linearGradient636)"/>
     </g>
    </g>
   </g>
  </g>
  <g id="g640" transform="matrix(3.0512 0 0 -3.0512 -826.53 905.62)">
   <g id="g642" clip-path="url(#clipPath646)">
    <g id="g648" transform="translate(298.53 258.38)">
     <path id="path650" d="m0 0c-6.073 0-10.997-4.923-10.997-10.997h32.142c6.073 0 10.996 4.924 10.996 10.997z" fill="#925397"/>
    </g>
    <g id="g652" transform="translate(295.18 252.64)">
     <path id="path654" d="m0 0c0.026-4e-3 0.1-0.014 0.221-0.031s0.276-0.026 0.466-0.026c0.208 0 0.382 0.019 0.522 0.057s0.25 0.091 0.332 0.159c0.081 0.068 0.139 0.147 0.173 0.235 0.034 0.089 0.051 0.185 0.051 0.287 0 0.095-0.015 0.186-0.046 0.275-0.03 0.089-0.087 0.168-0.17 0.236s-0.198 0.123-0.343 0.164c-0.146 0.042-0.332 0.063-0.559 0.063-0.182 0-0.327-4e-3 -0.437-0.012-0.11-7e-3 -0.18-0.015-0.21-0.022zm-0.658 1.566c0 0.121 0.03 0.208 0.09 0.261 0.061 0.053 0.135 0.089 0.222 0.108 0.06 0.011 0.17 0.024 0.329 0.037s0.386 0.02 0.681 0.02c0.605 0 1.055-0.119 1.35-0.358 0.296-0.238 0.443-0.556 0.443-0.953 0-0.185-0.031-0.358-0.094-0.519-0.062-0.161-0.161-0.3-0.297-0.417-0.137-0.118-0.315-0.209-0.534-0.276-0.219-0.066-0.486-0.099-0.8-0.099-0.079 0-0.16 3e-3 -0.241 9e-3 -0.081 5e-3 -0.156 0.011-0.224 0.016-0.068 6e-3 -0.127 0.013-0.176 0.02-0.049 8e-3 -0.08 0.012-0.091 0.012v-1.385h-0.658z" fill="#fff"/>
    </g>
    <g id="g656" transform="translate(299.02 252.71)">
     <path id="path658" d="m0 0c0.049-8e-3 0.123-0.017 0.221-0.028 0.099-0.012 0.24-0.017 0.426-0.017 0.204 0 0.375 0.017 0.513 0.051s0.25 0.081 0.335 0.142c0.085 0.06 0.146 0.133 0.182 0.218s0.054 0.179 0.054 0.281c0 0.094-0.017 0.183-0.051 0.267-0.034 0.083-0.093 0.157-0.176 0.221s-0.196 0.115-0.338 0.153-0.321 0.057-0.536 0.057c-0.189 0-0.334-4e-3 -0.434-0.011-0.101-8e-3 -0.166-0.015-0.196-0.023zm-0.658 1.492c0 0.121 0.03 0.208 0.09 0.262 0.061 0.052 0.135 0.088 0.222 0.107 0.057 0.012 0.162 0.024 0.318 0.037 0.155 0.013 0.38 0.02 0.675 0.02 0.594 0 1.038-0.114 1.333-0.34 0.295-0.227 0.443-0.536 0.443-0.925 0-0.273-0.065-0.498-0.196-0.676-0.13-0.177-0.309-0.316-0.536-0.414 0.079-0.11 0.16-0.231 0.241-0.363 0.081-0.133 0.162-0.27 0.241-0.411 0.08-0.142 0.156-0.283 0.23-0.423s0.143-0.273 0.207-0.397h-0.783c-0.03 0.064-0.079 0.161-0.147 0.292-0.068 0.13-0.142 0.268-0.222 0.414-0.079 0.145-0.159 0.286-0.238 0.42s-0.146 0.237-0.199 0.309c-0.064-7e-3 -0.131-0.013-0.201-0.017s-0.135-5e-3 -0.196-5e-3c-0.132 0-0.257 4e-3 -0.374 0.014-0.118 9e-3 -0.201 0.018-0.25 0.025v-1.452h-0.658z" fill="#fff"/>
    </g>
    <g id="g660" transform="translate(302.26 254.19)">
     <path id="path662" d="m0 0c0 0.257 0.138 0.386 0.414 0.386h2.179c0.227 0 0.341-0.102 0.341-0.306 0-0.072-0.012-0.138-0.034-0.196-0.023-0.059-0.04-0.098-0.051-0.117h-2.162v-0.976h1.827c0.223 0 0.335-0.102 0.335-0.306 0-0.072-0.011-0.137-0.032-0.196-0.02-0.059-0.038-0.097-0.053-0.116h-2.077v-1.061h2.213v-0.619h-2.9z" fill="#fff"/>
    </g>
    <g id="g664" transform="translate(305.94 250.68)">
     <path id="path666" d="m0 0c4e-3 0.098 0.01 0.24 0.02 0.426 9e-3 0.185 0.02 0.392 0.034 0.621 0.013 0.229 0.026 0.467 0.04 0.715 0.013 0.248 0.026 0.486 0.039 0.715 0.014 0.229 0.026 0.435 0.037 0.618 0.012 0.184 0.021 0.325 0.029 0.423 7e-3 0.136 0.053 0.233 0.136 0.29 0.083 0.056 0.178 0.085 0.284 0.085 0.117 0 0.213-0.017 0.289-0.051s0.128-0.067 0.159-0.097c0.045-0.091 0.114-0.23 0.207-0.417s0.193-0.39 0.301-0.607c0.108-0.218 0.215-0.432 0.323-0.644s0.198-0.388 0.27-0.528c0.064 0.129 0.144 0.289 0.241 0.48 0.096 0.191 0.193 0.384 0.289 0.578 0.097 0.195 0.187 0.379 0.273 0.551 0.085 0.172 0.15 0.305 0.195 0.4 0.053 0.11 0.12 0.193 0.199 0.25 0.079 0.056 0.182 0.085 0.306 0.085 0.11 0 0.203-0.014 0.279-0.043 0.075-0.028 0.122-0.052 0.141-0.071 8e-3 -0.106 0.017-0.259 0.029-0.459 0.011-0.201 0.023-0.423 0.037-0.667 0.013-0.244 0.027-0.499 0.042-0.766s0.03-0.522 0.046-0.766c0.015-0.244 0.027-0.466 0.036-0.664 0.01-0.199 0.018-0.351 0.026-0.457h-0.664c-4e-3 0.061-9e-3 0.165-0.017 0.315-8e-3 0.149-0.017 0.322-0.028 0.519-0.012 0.197-0.023 0.404-0.034 0.622-0.012 0.217-0.023 0.423-0.034 0.618-0.012 0.195-0.022 0.367-0.032 0.516-9e-3 0.15-0.016 0.253-0.02 0.31-0.034-0.068-0.079-0.159-0.136-0.273-0.056-0.113-0.118-0.237-0.184-0.371-0.066-0.135-0.135-0.276-0.207-0.423-0.072-0.148-0.141-0.289-0.207-0.423-0.067-0.134-0.127-0.259-0.182-0.374-0.055-0.116-0.099-0.208-0.133-0.276h-0.556c-0.046 0.103-0.112 0.243-0.199 0.423s-0.181 0.372-0.281 0.576-0.201 0.407-0.301 0.607c-0.1 0.201-0.19 0.375-0.269 0.522-4e-3 -0.09-0.011-0.212-0.02-0.363-0.01-0.151-0.019-0.319-0.028-0.505-0.01-0.185-0.02-0.377-0.032-0.576-0.011-0.198-0.021-0.391-0.031-0.576-9e-3 -0.185-0.018-0.354-0.025-0.505-8e-3 -0.151-0.014-0.272-0.017-0.363z" fill="#fff"/>
    </g>
    <g id="g668" transform="translate(311.14 254.26)">
     <path id="path670" d="m0 0c0 0.106 0.032 0.184 0.096 0.235 0.065 0.051 0.152 0.077 0.262 0.077 0.071 0 0.138-9e-3 0.198-0.028 0.061-0.019 0.1-0.033 0.119-0.04v-3.825h-0.675z" fill="#fff"/>
    </g>
    <g id="g672" transform="translate(312.73 254.19)">
     <path id="path674" d="m0 0c0 0.257 0.138 0.386 0.414 0.386h2.179c0.227 0 0.341-0.102 0.341-0.306 0-0.072-0.012-0.138-0.034-0.196-0.023-0.059-0.04-0.098-0.051-0.117h-2.162v-0.976h1.827c0.223 0 0.335-0.102 0.335-0.306 0-0.072-0.011-0.137-0.032-0.196-0.02-0.059-0.038-0.097-0.053-0.116h-2.077v-1.061h2.213v-0.619h-2.9z" fill="#fff"/>
    </g>
    <g id="g676" transform="translate(317.09 252.71)">
     <path id="path678" d="m0 0c0.049-8e-3 0.123-0.017 0.221-0.028 0.099-0.012 0.24-0.017 0.426-0.017 0.204 0 0.375 0.017 0.513 0.051s0.25 0.081 0.335 0.142c0.085 0.06 0.146 0.133 0.182 0.218s0.054 0.179 0.054 0.281c0 0.094-0.017 0.183-0.051 0.267-0.034 0.083-0.093 0.157-0.176 0.221s-0.196 0.115-0.338 0.153-0.321 0.057-0.536 0.057c-0.189 0-0.334-4e-3 -0.434-0.011-0.101-8e-3 -0.166-0.015-0.196-0.023zm-0.658 1.492c0 0.121 0.03 0.208 0.09 0.262 0.061 0.052 0.135 0.088 0.222 0.107 0.057 0.012 0.162 0.024 0.318 0.037 0.155 0.013 0.38 0.02 0.675 0.02 0.594 0 1.038-0.114 1.333-0.34 0.295-0.227 0.443-0.536 0.443-0.925 0-0.273-0.065-0.498-0.196-0.676-0.13-0.177-0.309-0.316-0.536-0.414 0.079-0.11 0.16-0.231 0.241-0.363 0.081-0.133 0.162-0.27 0.241-0.411 0.08-0.142 0.156-0.283 0.23-0.423s0.143-0.273 0.207-0.397h-0.783c-0.03 0.064-0.079 0.161-0.147 0.292-0.068 0.13-0.142 0.268-0.222 0.414-0.079 0.145-0.159 0.286-0.238 0.42s-0.146 0.237-0.199 0.309c-0.064-7e-3 -0.131-0.013-0.201-0.017s-0.135-5e-3 -0.196-5e-3c-0.132 0-0.257 4e-3 -0.374 0.014-0.118 9e-3 -0.201 0.018-0.25 0.025v-1.452h-0.658z" fill="#fff"/>
    </g>
    <g id="g680" transform="translate(320.33 254.19)">
     <path id="path682" d="m0 0c0 0.257 0.138 0.386 0.414 0.386h2.179c0.227 0 0.341-0.102 0.341-0.306 0-0.072-0.012-0.138-0.034-0.196-0.023-0.059-0.04-0.098-0.051-0.117h-2.162v-0.976h1.827c0.223 0 0.335-0.102 0.335-0.306 0-0.072-0.011-0.137-0.031-0.196-0.021-0.059-0.039-0.097-0.054-0.116h-2.077v-1.061h2.213v-0.619h-2.9z" fill="#fff"/>
    </g>
    <g id="g684" transform="translate(295.18 252.64)">
     <path id="path686" d="m0 0c0.026-4e-3 0.1-0.014 0.221-0.031s0.276-0.026 0.466-0.026c0.208 0 0.382 0.019 0.522 0.057s0.25 0.091 0.332 0.159c0.081 0.068 0.139 0.147 0.173 0.235 0.034 0.089 0.051 0.185 0.051 0.287 0 0.095-0.015 0.186-0.046 0.275-0.03 0.089-0.087 0.168-0.17 0.236s-0.198 0.123-0.343 0.164c-0.146 0.042-0.332 0.063-0.559 0.063-0.182 0-0.327-4e-3 -0.437-0.012-0.11-7e-3 -0.18-0.015-0.21-0.022zm-0.658 1.566c0 0.121 0.03 0.208 0.09 0.261 0.061 0.053 0.135 0.089 0.222 0.108 0.06 0.011 0.17 0.024 0.329 0.037s0.386 0.02 0.681 0.02c0.605 0 1.055-0.119 1.35-0.358 0.296-0.238 0.443-0.556 0.443-0.953 0-0.185-0.031-0.358-0.094-0.519-0.062-0.161-0.161-0.3-0.297-0.417-0.137-0.118-0.315-0.209-0.534-0.276-0.219-0.066-0.486-0.099-0.8-0.099-0.079 0-0.16 3e-3 -0.241 9e-3 -0.081 5e-3 -0.156 0.011-0.224 0.016-0.068 6e-3 -0.127 0.013-0.176 0.02-0.049 8e-3 -0.08 0.012-0.091 0.012v-1.385h-0.658z" fill="#fff"/>
    </g>
    <g id="g688" transform="translate(299.02 252.71)">
     <path id="path690" d="m0 0c0.049-8e-3 0.123-0.017 0.221-0.028 0.099-0.012 0.24-0.017 0.426-0.017 0.204 0 0.375 0.017 0.513 0.051s0.25 0.081 0.335 0.142c0.085 0.06 0.146 0.133 0.182 0.218s0.054 0.179 0.054 0.281c0 0.094-0.017 0.183-0.051 0.267-0.034 0.083-0.093 0.157-0.176 0.221s-0.196 0.115-0.338 0.153-0.321 0.057-0.536 0.057c-0.189 0-0.334-4e-3 -0.434-0.011-0.101-8e-3 -0.166-0.015-0.196-0.023zm-0.658 1.492c0 0.121 0.03 0.208 0.09 0.262 0.061 0.052 0.135 0.088 0.222 0.107 0.057 0.012 0.162 0.024 0.318 0.037 0.155 0.013 0.38 0.02 0.675 0.02 0.594 0 1.038-0.114 1.333-0.34 0.295-0.227 0.443-0.536 0.443-0.925 0-0.273-0.065-0.498-0.196-0.676-0.13-0.177-0.309-0.316-0.536-0.414 0.079-0.11 0.16-0.231 0.241-0.363 0.081-0.133 0.162-0.27 0.241-0.411 0.08-0.142 0.156-0.283 0.23-0.423s0.143-0.273 0.207-0.397h-0.783c-0.03 0.064-0.079 0.161-0.147 0.292-0.068 0.13-0.142 0.268-0.222 0.414-0.079 0.145-0.159 0.286-0.238 0.42s-0.146 0.237-0.199 0.309c-0.064-7e-3 -0.131-0.013-0.201-0.017s-0.135-5e-3 -0.196-5e-3c-0.132 0-0.257 4e-3 -0.374 0.014-0.118 9e-3 -0.201 0.018-0.25 0.025v-1.452h-0.658z" fill="#fff"/>
    </g>
    <g id="g692" transform="translate(302.26 254.19)">
     <path id="path694" d="m0 0c0 0.257 0.138 0.386 0.414 0.386h2.179c0.227 0 0.341-0.102 0.341-0.306 0-0.072-0.012-0.138-0.034-0.196-0.023-0.059-0.04-0.098-0.051-0.117h-2.162v-0.976h1.827c0.223 0 0.335-0.102 0.335-0.306 0-0.072-0.011-0.137-0.032-0.196-0.02-0.059-0.038-0.097-0.053-0.116h-2.077v-1.061h2.213v-0.619h-2.9z" fill="#fff"/>
    </g>
    <g id="g696" transform="translate(305.94 250.68)">
     <path id="path698" d="m0 0c4e-3 0.098 0.01 0.24 0.02 0.426 9e-3 0.185 0.02 0.392 0.034 0.621 0.013 0.229 0.026 0.467 0.04 0.715 0.013 0.248 0.026 0.486 0.039 0.715 0.014 0.229 0.026 0.435 0.037 0.618 0.012 0.184 0.021 0.325 0.029 0.423 7e-3 0.136 0.053 0.233 0.136 0.29 0.083 0.056 0.178 0.085 0.284 0.085 0.117 0 0.213-0.017 0.289-0.051s0.128-0.067 0.159-0.097c0.045-0.091 0.114-0.23 0.207-0.417s0.193-0.39 0.301-0.607c0.108-0.218 0.215-0.432 0.323-0.644s0.198-0.388 0.27-0.528c0.064 0.129 0.144 0.289 0.241 0.48 0.096 0.191 0.193 0.384 0.289 0.578 0.097 0.195 0.187 0.379 0.273 0.551 0.085 0.172 0.15 0.305 0.195 0.4 0.053 0.11 0.12 0.193 0.199 0.25 0.079 0.056 0.182 0.085 0.306 0.085 0.11 0 0.203-0.014 0.279-0.043 0.075-0.028 0.122-0.052 0.141-0.071 8e-3 -0.106 0.017-0.259 0.029-0.459 0.011-0.201 0.023-0.423 0.037-0.667 0.013-0.244 0.027-0.499 0.042-0.766s0.03-0.522 0.046-0.766c0.015-0.244 0.027-0.466 0.036-0.664 0.01-0.199 0.018-0.351 0.026-0.457h-0.664c-4e-3 0.061-9e-3 0.165-0.017 0.315-8e-3 0.149-0.017 0.322-0.028 0.519-0.012 0.197-0.023 0.404-0.034 0.622-0.012 0.217-0.023 0.423-0.034 0.618-0.012 0.195-0.022 0.367-0.032 0.516-9e-3 0.15-0.016 0.253-0.02 0.31-0.034-0.068-0.079-0.159-0.136-0.273-0.056-0.113-0.118-0.237-0.184-0.371-0.066-0.135-0.135-0.276-0.207-0.423-0.072-0.148-0.141-0.289-0.207-0.423-0.067-0.134-0.127-0.259-0.182-0.374-0.055-0.116-0.099-0.208-0.133-0.276h-0.556c-0.046 0.103-0.112 0.243-0.199 0.423s-0.181 0.372-0.281 0.576-0.201 0.407-0.301 0.607c-0.1 0.201-0.19 0.375-0.269 0.522-4e-3 -0.09-0.011-0.212-0.02-0.363-0.01-0.151-0.019-0.319-0.028-0.505-0.01-0.185-0.02-0.377-0.032-0.576-0.011-0.198-0.021-0.391-0.031-0.576-9e-3 -0.185-0.018-0.354-0.025-0.505-8e-3 -0.151-0.014-0.272-0.017-0.363z" fill="#fff"/>
    </g>
    <g id="g700" transform="translate(311.14 254.26)">
     <path id="path702" d="m0 0c0 0.106 0.032 0.184 0.096 0.235 0.065 0.051 0.152 0.077 0.262 0.077 0.071 0 0.138-9e-3 0.198-0.028 0.061-0.019 0.1-0.033 0.119-0.04v-3.825h-0.675z" fill="#fff"/>
    </g>
    <g id="g704" transform="translate(312.73 254.19)">
     <path id="path706" d="m0 0c0 0.257 0.138 0.386 0.414 0.386h2.179c0.227 0 0.341-0.102 0.341-0.306 0-0.072-0.012-0.138-0.034-0.196-0.023-0.059-0.04-0.098-0.051-0.117h-2.162v-0.976h1.827c0.223 0 0.335-0.102 0.335-0.306 0-0.072-0.011-0.137-0.032-0.196-0.02-0.059-0.038-0.097-0.053-0.116h-2.077v-1.061h2.213v-0.619h-2.9z" fill="#fff"/>
    </g>
    <g id="g708" transform="translate(317.09 252.71)">
     <path id="path710" d="m0 0c0.049-8e-3 0.123-0.017 0.221-0.028 0.099-0.012 0.24-0.017 0.426-0.017 0.204 0 0.375 0.017 0.513 0.051s0.25 0.081 0.335 0.142c0.085 0.06 0.146 0.133 0.182 0.218s0.054 0.179 0.054 0.281c0 0.094-0.017 0.183-0.051 0.267-0.034 0.083-0.093 0.157-0.176 0.221s-0.196 0.115-0.338 0.153-0.321 0.057-0.536 0.057c-0.189 0-0.334-4e-3 -0.434-0.011-0.101-8e-3 -0.166-0.015-0.196-0.023zm-0.658 1.492c0 0.121 0.03 0.208 0.09 0.262 0.061 0.052 0.135 0.088 0.222 0.107 0.057 0.012 0.162 0.024 0.318 0.037 0.155 0.013 0.38 0.02 0.675 0.02 0.594 0 1.038-0.114 1.333-0.34 0.295-0.227 0.443-0.536 0.443-0.925 0-0.273-0.065-0.498-0.196-0.676-0.13-0.177-0.309-0.316-0.536-0.414 0.079-0.11 0.16-0.231 0.241-0.363 0.081-0.133 0.162-0.27 0.241-0.411 0.08-0.142 0.156-0.283 0.23-0.423s0.143-0.273 0.207-0.397h-0.783c-0.03 0.064-0.079 0.161-0.147 0.292-0.068 0.13-0.142 0.268-0.222 0.414-0.079 0.145-0.159 0.286-0.238 0.42s-0.146 0.237-0.199 0.309c-0.064-7e-3 -0.131-0.013-0.201-0.017s-0.135-5e-3 -0.196-5e-3c-0.132 0-0.257 4e-3 -0.374 0.014-0.118 9e-3 -0.201 0.018-0.25 0.025v-1.452h-0.658z" fill="#fff"/>
    </g>
    <g id="g712" transform="translate(320.33 254.19)">
     <path id="path714" d="m0 0c0 0.257 0.138 0.386 0.414 0.386h2.179c0.227 0 0.341-0.102 0.341-0.306 0-0.072-0.012-0.138-0.034-0.196-0.023-0.059-0.04-0.098-0.051-0.117h-2.162v-0.976h1.827c0.223 0 0.335-0.102 0.335-0.306 0-0.072-0.011-0.137-0.031-0.196-0.021-0.059-0.039-0.097-0.054-0.116h-2.077v-1.061h2.213v-0.619h-2.9z" fill="#fff"/>
    </g>
   </g>
  </g>
 </g>
</svg>
