<svg id="i" version="1.1" viewBox="0 0 793.09 126.77" xmlns="http://www.w3.org/2000/svg" xmlns:xlink="http://www.w3.org/1999/xlink">
 <defs id="j">
  <linearGradient id="b" x1="644.16" x2="644.16" y1="151.23" y2="131.83" gradientUnits="userSpaceOnUse">
   <stop id="k" stop-color="#1b6ab2" offset="0"/>
   <stop id="l" stop-color="#3dbbd3" offset="1"/>
  </linearGradient>
  <linearGradient id="g" x1="629.01" x2="629.01" y1="210.26" y2="84.541" gradientTransform="translate(-82.51 -84.017)" xlink:href="#b"/>
  <linearGradient id="f" x1="216.94" x2="216.94" y1="127.9" y2="85.666" gradientTransform="translate(-82.51 -84.017)" xlink:href="#b"/>
  <linearGradient id="a" x1="216.94" x2="216.94" y1="212.16" y2="97.305" gradientUnits="userSpaceOnUse">
   <stop id="m" stop-color="#3260a0" offset=".3706"/>
   <stop id="n" stop-color="#184b7f" offset="1"/>
  </linearGradient>
  <linearGradient id="h" x1="292.14" x2="292.14" y1="212.16" y2="97.305" gradientTransform="translate(-82.51 -84.017)" xlink:href="#a"/>
  <linearGradient id="e" x1="135.44" x2="135.44" y1="212.16" y2="97.305" gradientTransform="translate(-82.51 -84.017)" xlink:href="#a"/>
  <linearGradient id="c" x1="216.94" x2="216.94" y1="212.16" y2="97.305" gradientTransform="translate(-82.51 -84.017)" gradientUnits="userSpaceOnUse" xlink:href="#a"/>
  <filter id="d" x="-.013694" y="-.096984" width="1.0274" height="1.194" color-interpolation-filters="sRGB">
   <feGaussianBlur id="o" stdDeviation="1.8930886"/>
  </filter>
 </defs>
 <path id="p" d="m793.09 0.52399v-1.9e-4h-367.46c-69.434 2.761e-5 -125.72 56.287-125.72 125.72v1.2e-4h367.46c69.434 4e-5 125.72-56.287 125.72-125.72z" fill="url(#g)" style="isolation:isolate"/>
 <g id="q" fill="#fff" filter="url(#d)">
  <path id="r" d="m427.94 72.824q-0.26075-4.1839-0.51984-8.7576-0.25827-4.5737-0.48571-8.7592-0.22906-4.1838-0.42237-7.622-0.19491-3.4383-0.32324-5.2552a5.344 5.344 0 0 0-1.6229-0.81061 9.0917 9.0917 0 0 0-3.1791-0.48736 5.889 5.889 0 0 0-3.5024 0.97308 7.3142 7.3142 0 0 0-2.271 2.8542q-0.77975 1.6229-2.2385 4.5745-1.4596 2.9533-3.1141 6.2932-1.6545 3.3408-3.3091 6.6165-1.6521 3.2774-2.7567 5.4826-1.2329-2.4001-3.0816-6.0333-1.8496-3.6331-3.6973-7.3637-1.8495-3.7307-3.439-6.9414-1.5887-3.2116-2.3669-4.7695a6.3863 6.3863 0 0 0-1.8178-1.1014 8.0796 8.0796 0 0 0-3.3074-0.58484 5.6232 5.6232 0 0 0-3.2441 0.97308 4.0008 4.0008 0 0 0-1.5579 3.309q-0.12909 1.6887-0.32324 4.8328-0.195 3.1483-0.42236 7.0714-0.22669 3.9256-0.45325 8.1744-0.22906 4.2497-0.45484 8.1744-0.22906 3.9256-0.38989 7.1039-0.16086 3.1799-0.22583 4.8653h7.6545q0.0634-1.557 0.195-4.1522 0.12918-2.5927 0.29242-5.7734 0.16086-3.1774 0.35577-6.584t0.35736-6.5856q0.16086-3.1775 0.32489-5.7734 0.16086-2.5952 0.22583-4.1522 1.3621 2.5292 3.0816 5.9683 1.7179 3.4382 3.439 6.9414 1.7179 3.504 3.2116 6.5856 1.4913 3.08 2.271 4.8328h6.3566q0.58474-1.1672 1.5254-3.1467 0.938-1.9785 2.076-4.2821 1.133-2.3026 2.3669-4.8328 1.2329-2.5293 2.3685-4.8328 1.1355-2.3026 2.1086-4.2496 0.97219-1.947 1.5563-3.1141 0.0658 0.97228 0.22742 3.5349 0.16077 2.5658 0.35736 5.905 0.19492 3.3408 0.38825 7.0714 0.19491 3.7306 0.38989 7.1038 0.19491 3.3724 0.32489 5.9358 0.12918 2.5634 0.195 3.5999h7.5895q-0.13155-1.8154-0.29241-5.2227-0.16087-3.4041-0.42082-7.5895z" style="isolation:isolate"/>
  <path id="s" d="m473.62 41.133h-24.911q-4.7369 0-4.737 4.4121v40.092h33.152v-7.0714h-25.301v-12.132h23.743a5.2012 5.2012 0 0 0 0.61731-1.3289 6.6781 6.6781 0 0 0 0.35578-2.2385q0-3.504-3.8273-3.504h-20.889v-11.159h24.716a10.251 10.251 0 0 0 0.58477-1.3304 6.1682 6.1682 0 0 0 0.38831-2.2369q2e-5 -3.504-3.8922-3.504z" style="isolation:isolate"/>
  <path id="t" d="m500.95 51.318a15.045 15.045 0 0 1 5.1902-3.2766 18.5 18.5 0 0 1 6.6165-1.1356 20.248 20.248 0 0 1 4.2821 0.42237 23.754 23.754 0 0 1 3.5348 1.0381 13.243 13.243 0 0 1 4.5745 2.8867 8.984 8.984 0 0 0 0.90814-0.71314 8.0055 8.0055 0 0 0 1.0055-1.0705 7.193 7.193 0 0 0 0.84314-1.363 3.6391 3.6391 0 0 0 0.35736-1.5887 3.3146 3.3146 0 0 0-0.5523-1.7836 5.7457 5.7457 0 0 0-1.7187-1.6554 11.849 11.849 0 0 0-1.7837-0.973 21.812 21.812 0 0 0-2.7584-1.0056 27.897 27.897 0 0 0-3.7623-0.81061 32.253 32.253 0 0 0-4.8004-0.32489 28.655 28.655 0 0 0-9.7631 1.6228 22.765 22.765 0 0 0-7.8186 4.6704 21.568 21.568 0 0 0-5.1902 7.3962 24.432 24.432 0 0 0-1.8812 9.7956 25.168 25.168 0 0 0 1.9136 10.153 19.987 19.987 0 0 0 5.3202 7.2988 22.941 22.941 0 0 0 8.1418 4.412 34.417 34.417 0 0 0 10.38 1.4913q2.5293 0 4.8653-0.13 2.3368-0.12918 4.2496-0.32324 1.9128-0.195 3.2766-0.35742a18.076 18.076 0 0 0 1.8811-0.29242v-20.501q0-4.4104-4.607-4.4105h-13.428a5.1154 5.1154 0 0 0-0.61731 1.2963 6.6132 6.6132 0 0 0-0.35577 2.271q0 3.3749 3.8273 3.374h7.5895v11.742a14.653 14.653 0 0 1-2.206 0.25989q-1.7496 0.13164-4.1506 0.13a25.595 25.595 0 0 1-7.2988-0.97308 15.933 15.933 0 0 1-5.6776-2.9517 12.881 12.881 0 0 1-3.6973-5.0928 19.152 19.152 0 0 1-1.298-7.3962 18.896 18.896 0 0 1 1.2005-6.9089 14.486 14.486 0 0 1 3.4066-5.2227z" style="isolation:isolate"/>
  <path id="u" d="m580.59 73.214q-1.7204-4.3154-3.7298-9.1475-2.0128-4.8344-3.9248-9.2774-1.9153-4.4445-3.569-8.0119-1.6545-3.5674-2.6918-5.3851a3.485 3.485 0 0 0-0.48737-0.29242q-0.4215-0.22661-1.038-0.48572a9.4237 9.4237 0 0 0-1.4263-0.4549 7.0657 7.0657 0 0 0-1.6553-0.19488 6.5958 6.5958 0 0 0-3.7623 1.0056 8.3403 8.3403 0 0 0-2.6592 3.6014q-2.3369 5.1902-4.7045 10.639-2.3685 5.4509-4.5729 10.738-2.2052 5.2876-4.2172 10.314-2.0103 5.0294-3.6323 9.3749h7.7845q0.714-2.0103 1.8487-5.0278 1.1354-3.0167 2.5634-6.584h21.732q0.519 1.2988 1.168 2.9841 0.64809 1.6862 1.2654 3.34 0.61652 1.6545 1.1355 3.0816 0.51663 1.428 0.84314 2.2061h8.5626q-0.519-1.4255-1.8162-4.7678-1.2988-3.3408-3.0166-7.6546zm-27.15-6.0025q0.97219-2.5292 2.076-5.1885 1.1015-2.6609 2.2061-5.2227 1.1014-2.5634 2.141-4.867 1.0356-2.3002 1.8812-4.118 0.58237 1.1672 1.5888 3.4374 1.0064 2.2711 2.141 5.0278 1.1355 2.7584 2.3035 5.6451 1.1672 2.8875 2.076 5.286z" style="isolation:isolate"/>
  <path id="v" d="m631.17 41.133a4.5346 4.5346 0 0 0-2.9517 0.87561 3.2816 3.2816 0 0 0-1.0706 2.6934v14.273h-22.835v-17.064c-0.21777-0.0861-0.6709-0.23718-1.363-0.45324a7.5877 7.5877 0 0 0-2.271-0.32489 4.674 4.674 0 0 0-2.9841 0.87561 3.2316 3.2316 0 0 0-1.103 2.6934v40.935h7.7212v-19.591h22.835v19.591h7.7212v-43.661a7.6444 7.6444 0 0 0-1.363-0.51818 7.8273 7.8273 0 0 0-2.3359-0.32489z" style="isolation:isolate"/>
  <path id="w" d="m654.54 41.133a4.6742 4.6742 0 0 0-2.9841 0.87561 3.2316 3.2316 0 0 0-1.103 2.6934v40.935h7.7212v-43.726c-0.21777-0.0861-0.6709-0.23718-1.363-0.45324a7.5871 7.5871 0 0 0-2.2711-0.32489z" style="isolation:isolate"/>
  <path id="x" d="m673.17 48.204h12.975v37.433h7.7195v-37.433h16.349a5.1959 5.1959 0 0 0 0.61718-1.3304 6.6616 6.6616 0 0 0 0.35572-2.2369q0-3.504-3.8272-3.504h-37.043a10.461 10.461 0 0 0-0.58484 1.3304 6.1834 6.1834 0 0 0-0.38831 2.2385q4e-5 3.5016 3.8274 3.5024z" style="isolation:isolate"/>
 </g>
 <g id="y" fill="#fff">
  <path id="z" d="m427.94 72.824q-0.26075-4.1839-0.51984-8.7576-0.25827-4.5737-0.48571-8.7592-0.22906-4.1838-0.42237-7.622-0.19491-3.4383-0.32324-5.2552a5.344 5.344 0 0 0-1.6229-0.81061 9.0917 9.0917 0 0 0-3.1791-0.48736 5.889 5.889 0 0 0-3.5024 0.97308 7.3142 7.3142 0 0 0-2.271 2.8542q-0.77975 1.6229-2.2385 4.5745-1.4596 2.9533-3.1141 6.2932-1.6545 3.3408-3.3091 6.6165-1.6521 3.2774-2.7567 5.4826-1.2329-2.4001-3.0816-6.0333-1.8496-3.6331-3.6973-7.3637-1.8495-3.7307-3.439-6.9414-1.5887-3.2116-2.3669-4.7695a6.3863 6.3863 0 0 0-1.8178-1.1014 8.0796 8.0796 0 0 0-3.3074-0.58484 5.6232 5.6232 0 0 0-3.2441 0.97308 4.0008 4.0008 0 0 0-1.5579 3.309q-0.12909 1.6887-0.32324 4.8328-0.195 3.1483-0.42236 7.0714-0.22669 3.9256-0.45325 8.1744-0.22906 4.2497-0.45484 8.1744-0.22906 3.9256-0.38989 7.1039-0.16086 3.1799-0.22583 4.8653h7.6545q0.0634-1.557 0.195-4.1522 0.12918-2.5927 0.29242-5.7734 0.16086-3.1774 0.35577-6.584t0.35736-6.5856q0.16086-3.1775 0.32489-5.7734 0.16086-2.5952 0.22583-4.1522 1.3621 2.5292 3.0816 5.9683 1.7179 3.4382 3.439 6.9414 1.7179 3.504 3.2116 6.5856 1.4913 3.08 2.271 4.8328h6.3566q0.58474-1.1672 1.5254-3.1467 0.938-1.9785 2.076-4.2821 1.133-2.3026 2.3669-4.8328 1.2329-2.5293 2.3685-4.8328 1.1355-2.3026 2.1086-4.2496 0.97219-1.947 1.5563-3.1141 0.0658 0.97228 0.22742 3.5349 0.16077 2.5658 0.35736 5.905 0.19492 3.3408 0.38825 7.0714 0.19491 3.7306 0.38989 7.1038 0.19491 3.3724 0.32489 5.9358 0.12918 2.5634 0.195 3.5999h7.5895q-0.13155-1.8154-0.29241-5.2227-0.16087-3.4041-0.42082-7.5895z" style="isolation:isolate"/>
  <path id="aa" d="m473.62 41.133h-24.911q-4.7369 0-4.737 4.4121v40.092h33.152v-7.0714h-25.301v-12.132h23.743a5.2012 5.2012 0 0 0 0.61731-1.3289 6.6781 6.6781 0 0 0 0.35578-2.2385q0-3.504-3.8273-3.504h-20.889v-11.159h24.716a10.251 10.251 0 0 0 0.58477-1.3304 6.1682 6.1682 0 0 0 0.38831-2.2369q2e-5 -3.504-3.8922-3.504z" style="isolation:isolate"/>
  <path id="ab" d="m500.95 51.318a15.045 15.045 0 0 1 5.1902-3.2766 18.5 18.5 0 0 1 6.6165-1.1356 20.248 20.248 0 0 1 4.2821 0.42237 23.754 23.754 0 0 1 3.5348 1.0381 13.243 13.243 0 0 1 4.5745 2.8867 8.984 8.984 0 0 0 0.90814-0.71314 8.0055 8.0055 0 0 0 1.0055-1.0705 7.193 7.193 0 0 0 0.84314-1.363 3.6391 3.6391 0 0 0 0.35736-1.5887 3.3146 3.3146 0 0 0-0.5523-1.7836 5.7457 5.7457 0 0 0-1.7187-1.6554 11.849 11.849 0 0 0-1.7837-0.973 21.812 21.812 0 0 0-2.7584-1.0056 27.897 27.897 0 0 0-3.7623-0.81061 32.253 32.253 0 0 0-4.8004-0.32489 28.655 28.655 0 0 0-9.7631 1.6228 22.765 22.765 0 0 0-7.8186 4.6704 21.568 21.568 0 0 0-5.1902 7.3962 24.432 24.432 0 0 0-1.8812 9.7956 25.168 25.168 0 0 0 1.9136 10.153 19.987 19.987 0 0 0 5.3202 7.2988 22.941 22.941 0 0 0 8.1418 4.412 34.417 34.417 0 0 0 10.38 1.4913q2.5293 0 4.8653-0.13 2.3368-0.12918 4.2496-0.32324 1.9128-0.195 3.2766-0.35742a18.076 18.076 0 0 0 1.8811-0.29242v-20.501q0-4.4104-4.607-4.4105h-13.428a5.1154 5.1154 0 0 0-0.61731 1.2963 6.6132 6.6132 0 0 0-0.35577 2.271q0 3.3749 3.8273 3.374h7.5895v11.742a14.653 14.653 0 0 1-2.206 0.25989q-1.7496 0.13164-4.1506 0.13a25.595 25.595 0 0 1-7.2988-0.97308 15.933 15.933 0 0 1-5.6776-2.9517 12.881 12.881 0 0 1-3.6973-5.0928 19.152 19.152 0 0 1-1.298-7.3962 18.896 18.896 0 0 1 1.2005-6.9089 14.486 14.486 0 0 1 3.4066-5.2227z" style="isolation:isolate"/>
  <path id="ac" d="m580.59 73.214q-1.7204-4.3154-3.7298-9.1475-2.0128-4.8344-3.9248-9.2774-1.9153-4.4445-3.569-8.0119-1.6545-3.5674-2.6918-5.3851a3.485 3.485 0 0 0-0.48737-0.29242q-0.4215-0.22661-1.038-0.48572a9.4237 9.4237 0 0 0-1.4263-0.4549 7.0657 7.0657 0 0 0-1.6553-0.19488 6.5958 6.5958 0 0 0-3.7623 1.0056 8.3403 8.3403 0 0 0-2.6592 3.6014q-2.3369 5.1902-4.7045 10.639-2.3685 5.4509-4.5729 10.738-2.2052 5.2876-4.2172 10.314-2.0103 5.0294-3.6323 9.3749h7.7845q0.714-2.0103 1.8487-5.0278 1.1354-3.0167 2.5634-6.584h21.732q0.519 1.2988 1.168 2.9841 0.64809 1.6862 1.2654 3.34 0.61652 1.6545 1.1355 3.0816 0.51663 1.428 0.84314 2.2061h8.5626q-0.519-1.4255-1.8162-4.7678-1.2988-3.3408-3.0166-7.6546zm-27.15-6.0025q0.97219-2.5292 2.076-5.1885 1.1015-2.6609 2.2061-5.2227 1.1014-2.5634 2.141-4.867 1.0356-2.3002 1.8812-4.118 0.58237 1.1672 1.5888 3.4374 1.0064 2.2711 2.141 5.0278 1.1355 2.7584 2.3035 5.6451 1.1672 2.8875 2.076 5.286z" style="isolation:isolate"/>
  <path id="ad" d="m631.17 41.133a4.5346 4.5346 0 0 0-2.9517 0.87561 3.2816 3.2816 0 0 0-1.0706 2.6934v14.273h-22.835v-17.064c-0.21777-0.0861-0.6709-0.23718-1.363-0.45324a7.5877 7.5877 0 0 0-2.271-0.32489 4.674 4.674 0 0 0-2.9841 0.87561 3.2316 3.2316 0 0 0-1.103 2.6934v40.935h7.7212v-19.591h22.835v19.591h7.7212v-43.661a7.6444 7.6444 0 0 0-1.363-0.51818 7.8273 7.8273 0 0 0-2.3359-0.32489z" style="isolation:isolate"/>
  <path id="ae" d="m654.54 41.133a4.6742 4.6742 0 0 0-2.9841 0.87561 3.2316 3.2316 0 0 0-1.103 2.6934v40.935h7.7212v-43.726c-0.21777-0.0861-0.6709-0.23718-1.363-0.45324a7.5871 7.5871 0 0 0-2.2711-0.32489z" style="isolation:isolate"/>
  <path id="af" d="m673.17 48.204h12.975v37.433h7.7195v-37.433h16.349a5.1959 5.1959 0 0 0 0.61718-1.3304 6.6616 6.6616 0 0 0 0.35572-2.2369q0-3.504-3.8272-3.504h-37.043a10.461 10.461 0 0 0-0.58484 1.3304 6.1834 6.1834 0 0 0-0.38831 2.2385q4e-5 3.5016 3.8274 3.5024z" style="isolation:isolate"/>
 </g>
 <path id="ag" d="m226.13 65.66a29.39 29.39 0 0 0 8.187-4.1461c4.9741-3.8424 7.2907-8.6321 7.2907-15.073a72.853 72.853 0 0 0-0.7348-11.278c-1.5082-6.6886-5.2663-10.976-10.328-11.375l-41.609-1.9e-4c-6.7471 0.40674-11.243 7.6491-11.243 18.311v27.155c16.26 1.8879 35.963 0.77069 48.437-3.5945z" fill="none" style="isolation:isolate"/>
 <path id="ah" d="m122.49 25.527v18.358h2e-3a23.877 23.877 0 0 0 23.877-23.877v-18.358h-2e-3a23.877 23.877 0 0 0-23.877 23.877z" fill="url(#f)" style="isolation:isolate"/>
 <path id="ai" d="m92.475 23.771-7.7242 18.829h7e-5a156.81 156.81 0 0 0 21.104 10.444l9.2026-23.156v-28.239c-9.1262 1.1246-19.414 13.309-22.583 22.121z" fill="#184b7f" style="isolation:isolate"/>
 <path id="aj" d="m122.49 69.279v33.61a23.879 23.879 0 0 0 23.88 23.88v-61.625a194.86 194.86 0 0 1-23.879-6.1332z" fill="url(#c)" style="isolation:isolate"/>
 <path id="ak" d="m177.69 69.254v-3e-3c-6.6836-0.53748-14.848-1.4449-23.88-2.9638v60.371a23.88 23.88 0 0 0 23.88-23.88v-9.656c9.9758 0.54 18.709 0.59876 24.495 0.59876 16.779 0 34.08-3.5404 46.728-13.31a41.374 41.374 0 0 0 16.537-32.649 142.44 142.44 0 0 1-39.323 17.897c-12.474 4.3652-32.177 5.4825-48.437 3.5945z" fill="url(#h)" style="isolation:isolate"/>
 <path id="al" d="m265.05 35.173c-0.0975-0.7948-0.21759-1.577-0.34814-2.3529a49.741 49.741 0 0 0-3.6444-13.463c-5.1569-11.619-15.052-18.398-28.055-19.357l-46.716-7e-5c-13.003 0.959-22.899 7.7384-28.055 19.357a49.233 49.233 0 0 0-3.5699 12.994 54.911 54.911 0 0 0-0.8172 7.8356h-0.0368v26.101c9.0313 1.5189 17.196 2.4263 23.88 2.9638v-27.152c0-10.662 4.496-17.905 11.243-18.311l41.609 1.9e-4c5.0618 0.39825 8.8199 4.6862 10.328 11.375a72.853 72.853 0 0 1 0.7348 11.278c0 6.4404-2.3166 11.23-7.2907 15.073a29.39 29.39 0 0 1-8.187 4.1461 142.44 142.44 0 0 0 39.323-17.897c0.0118-0.44043 0.0345-0.87671 0.0345-1.3215a109.5 109.5 0 0 0-0.49859-11.268z" fill="#184b7f" style="isolation:isolate"/>
 <path id="am" d="m84.751 42.6-23.851 58.142a3.0706 3.0706 0 0 1-2.5862 2.0114h-1.5682a3.0706 3.0706 0 0 1-2.5863-2.0114l-31.957-77.997c-3.1686-8.8118-13.075-19.971-22.201-21.096v28.239l31.982 80.471a24.615 24.615 0 0 0 23.162 16.285h4.7698a24.615 24.615 0 0 0 23.162-16.285l22.779-57.316a156.81 156.81 0 0 1-21.104-10.444z" fill="url(#e)" style="isolation:isolate"/>
</svg>
