<?xml version="1.0" encoding="UTF-8"?>
<!-- Created with Inkscape (http://www.inkscape.org/) -->
<svg id="svg1704" width="800" height="128.82" version="1.1" viewBox="0 0 211.67 34.083" xmlns="http://www.w3.org/2000/svg" xmlns:cc="http://creativecommons.org/ns#" xmlns:dc="http://purl.org/dc/elements/1.1/" xmlns:rdf="http://www.w3.org/1999/02/22-rdf-syntax-ns#">
 <defs id="defs1698">
  <clipPath id="clipPath484">
   <path id="path482" d="m254.09 212.69h83.806v25.787h-83.806z"/>
  </clipPath>
  <linearGradient id="linearGradient474" x2="1" gradientTransform="matrix(0 10.046 10.046 0 265.93 219.96)" gradientUnits="userSpaceOnUse">
   <stop id="stop468" stop-color="#2e66a4" offset="0"/>
   <stop id="stop470" stop-color="#2e66a4" offset=".3706"/>
   <stop id="stop472" stop-color="#005180" offset="1"/>
  </linearGradient>
  <clipPath id="clipPath450">
   <path id="path448" d="m254.09 212.69h83.806v25.787h-83.806z"/>
  </clipPath>
  <linearGradient id="linearGradient440" x2="1" gradientTransform="matrix(0 10.046 10.046 0 279.64 219.96)" gradientUnits="userSpaceOnUse">
   <stop id="stop434" stop-color="#2e66a4" offset="0"/>
   <stop id="stop436" stop-color="#2e66a4" offset=".3706"/>
   <stop id="stop438" stop-color="#005180" offset="1"/>
  </linearGradient>
  <linearGradient id="linearGradient418" x2="1" gradientTransform="matrix(0 10.046 10.046 0 273.06 219.96)" gradientUnits="userSpaceOnUse">
   <stop id="stop412" stop-color="#2e66a4" offset="0"/>
   <stop id="stop414" stop-color="#2e66a4" offset=".3706"/>
   <stop id="stop416" stop-color="#005180" offset="1"/>
  </linearGradient>
  <clipPath id="clipPath390">
   <path id="path388" d="m254.09 212.69h83.806v25.787h-83.806z"/>
  </clipPath>
 </defs>
 <metadata id="metadata1701">
  <rdf:RDF>
   <cc:Work rdf:about="">
    <dc:format>image/svg+xml</dc:format>
    <dc:type rdf:resource="http://purl.org/dc/dcmitype/StillImage"/>
    <dc:title/>
   </cc:Work>
  </rdf:RDF>
 </metadata>
 <g id="layer1" transform="translate(29.245 -116.72)">
  <g id="g384" transform="matrix(3.0512 0 0 -3.0512 -826.53 822.06)">
   <g id="g386" clip-path="url(#clipPath390)">
    <g id="g392" transform="translate(272.02 227.33)">
     <path id="path394" d="m0 0v1.606c0 1.153 0.935 2.088 2.088 2.088h1e-3v-1.605c0-1.154-0.936-2.089-2.089-2.089" fill="#30bfd3"/>
    </g>
    <g id="g396" transform="translate(268.72 227.44)">
     <path id="path398" d="m0 0c0.593-0.354 1.215-0.656 1.846-0.914l0.805 2.026v2.47c-0.798-0.098-1.698-1.164-1.975-1.935z" fill="#005180"/>
    </g>
   </g>
  </g>
  <g id="g400" transform="matrix(3.0512 0 0 -3.0512 -826.53 822.06)">
   <g id="g402">
    <g id="g408">
     <g id="g410">
      <path id="path420" d="m272.02 222.17c0-1.153 0.935-2.089 2.089-2.089v5.391c-0.626 0.113-1.289 0.283-2.089 0.536z" fill="url(#linearGradient418)"/>
     </g>
    </g>
   </g>
  </g>
  <g id="g422" transform="matrix(3.0512 0 0 -3.0512 -826.53 822.06)">
   <g id="g424">
    <g id="g430">
     <g id="g432">
      <path id="path442" d="m281.08 225.42c-1.091-0.383-2.815-0.48-4.237-0.315v1e-3c-0.585 0.047-1.298 0.126-2.089 0.259v-5.281c1.154 0 2.089 0.935 2.089 2.089v0.845c0.872-0.048 1.636-0.053 2.143-0.053 1.467 0 2.981 0.31 4.087 1.164 0.918 0.709 1.416 1.695 1.446 2.856-1.271-0.821-2.453-1.293-3.439-1.565" fill="url(#linearGradient440)"/>
     </g>
    </g>
   </g>
  </g>
  <g id="g444" transform="matrix(3.0512 0 0 -3.0512 -826.53 822.06)">
   <g id="g446" clip-path="url(#clipPath450)">
    <g id="g452" transform="translate(276.85 225.11)">
     <path id="path454" d="m0 0v2.375c0 0.933 0.393 1.566 0.983 1.602h3.64c0.443-0.035 0.771-0.41 0.903-0.995 0.041-0.257 0.065-0.58 0.065-0.987 0-0.563-0.203-0.982-0.638-1.318-0.183-0.141-0.428-0.262-0.716-0.363 0.986 0.272 2.167 0.745 3.439 1.566 1e-3 0.038 3e-3 0.076 3e-3 0.115 0 0.313-8e-3 0.646-0.043 0.986h6e-3c-9e-3 0.069-0.019 0.138-0.031 0.206-0.054 0.398-0.151 0.799-0.319 1.177-0.451 1.016-1.316 1.609-2.454 1.693h-4.086c-1.137-0.084-2.003-0.677-2.454-1.693-0.162-0.365-0.257-0.752-0.312-1.136-0.039-0.22-0.064-0.449-0.071-0.686h-4e-3v-2.283c0.79-0.133 1.504-0.212 2.089-0.259" fill="#005180"/>
    </g>
   </g>
  </g>
  <g id="g456" transform="matrix(3.0512 0 0 -3.0512 -826.53 822.06)">
   <g id="g458">
    <g id="g464">
     <g id="g466">
      <path id="path476" d="m261.3 228.55 2.798-7.039c0.307-0.854 1.118-1.424 2.026-1.424h0.417c0.908 0 1.719 0.57 2.026 1.424l1.993 5.014c-0.631 0.258-1.253 0.559-1.846 0.914l-2.087-5.086c-0.035-0.098-0.124-0.166-0.226-0.176h-0.137c-0.102 0.01-0.191 0.078-0.226 0.176l-2.796 6.822c-0.277 0.771-1.143 1.747-1.942 1.846z" fill="url(#linearGradient474)"/>
     </g>
    </g>
   </g>
  </g>
  <g id="g478" transform="matrix(3.0512 0 0 -3.0512 -826.53 822.06)">
   <g id="g480" clip-path="url(#clipPath484)">
    <g id="g486" transform="translate(298.53 230.99)">
     <path id="path488" d="m0 0c-6.073 0-10.997-4.923-10.997-10.997h32.142c6.073 0 10.996 4.924 10.996 10.997z" fill="#30bfd3"/>
    </g>
    <g id="g490" transform="translate(294.49 223.3)">
     <path id="path492" d="m0 0c4e-3 0.098 0.01 0.24 0.02 0.426 9e-3 0.185 0.02 0.392 0.034 0.621 0.013 0.229 0.026 0.467 0.04 0.715 0.013 0.248 0.026 0.486 0.039 0.715 0.014 0.229 0.026 0.435 0.037 0.618 0.012 0.184 0.021 0.325 0.029 0.423 7e-3 0.136 0.053 0.233 0.136 0.29 0.083 0.056 0.178 0.085 0.284 0.085 0.117 0 0.213-0.017 0.289-0.051s0.128-0.067 0.159-0.097c0.045-0.091 0.114-0.23 0.207-0.417s0.193-0.39 0.301-0.607c0.108-0.218 0.215-0.432 0.323-0.644s0.198-0.388 0.27-0.528c0.064 0.129 0.144 0.288 0.241 0.48 0.096 0.191 0.193 0.384 0.289 0.578 0.097 0.195 0.187 0.379 0.273 0.551 0.085 0.172 0.15 0.305 0.195 0.4 0.053 0.11 0.12 0.193 0.199 0.25 0.079 0.056 0.182 0.085 0.306 0.085 0.11 0 0.203-0.015 0.279-0.043 0.075-0.028 0.122-0.052 0.141-0.071 8e-3 -0.106 0.017-0.259 0.029-0.459 0.011-0.201 0.023-0.423 0.037-0.667 0.013-0.244 0.027-0.5 0.042-0.766 0.015-0.267 0.03-0.522 0.046-0.766 0.015-0.244 0.027-0.466 0.036-0.664 0.01-0.199 0.018-0.351 0.026-0.457h-0.664c-4e-3 0.06-9e-3 0.165-0.017 0.315-8e-3 0.149-0.017 0.322-0.028 0.519-0.012 0.197-0.023 0.404-0.034 0.621-0.012 0.218-0.023 0.424-0.034 0.619-0.012 0.195-0.022 0.367-0.032 0.516-9e-3 0.15-0.016 0.253-0.02 0.31-0.034-0.068-0.079-0.159-0.136-0.273-0.056-0.113-0.118-0.237-0.184-0.372-0.066-0.134-0.135-0.275-0.207-0.422-0.072-0.148-0.141-0.289-0.207-0.423-0.067-0.134-0.127-0.259-0.182-0.374-0.055-0.116-0.099-0.208-0.133-0.276h-0.556c-0.046 0.102-0.112 0.243-0.199 0.423s-0.181 0.372-0.281 0.576-0.201 0.407-0.301 0.607c-0.1 0.201-0.19 0.375-0.269 0.522-4e-3 -0.091-0.011-0.212-0.02-0.363-0.01-0.151-0.019-0.32-0.028-0.505-0.01-0.185-0.02-0.377-0.032-0.576-0.011-0.198-0.021-0.391-0.031-0.576-9e-3 -0.185-0.018-0.354-0.025-0.505-8e-3 -0.151-0.014-0.272-0.017-0.363z" fill="#fff"/>
    </g>
    <g id="g494" transform="translate(300.14 226.8)">
     <path id="path496" d="m0 0c0 0.257 0.138 0.386 0.414 0.386h2.179c0.227 0 0.341-0.102 0.341-0.307 0-0.071-0.012-0.137-0.034-0.195-0.023-0.059-0.04-0.098-0.051-0.117h-2.162v-0.976h1.827c0.223 0 0.335-0.102 0.335-0.306 0-0.072-0.011-0.137-0.031-0.196-0.021-0.059-0.039-0.097-0.054-0.116h-2.077v-1.061h2.213v-0.619h-2.9z" fill="#fff"/>
    </g>
    <g id="g498" transform="translate(306.85 224.86)">
     <path id="path500" d="m0 0h-0.664c-0.223 0-0.335 0.098-0.335 0.295 0 0.076 0.011 0.142 0.032 0.199 0.02 0.056 0.038 0.094 0.054 0.113h1.174c0.269 0 0.403-0.128 0.403-0.386v-1.793c-0.03-7e-3 -0.085-0.016-0.164-0.025-0.08-0.01-0.176-0.02-0.287-0.032-0.112-0.011-0.236-0.02-0.372-0.028s-0.278-0.011-0.425-0.011c-0.329 0-0.632 0.043-0.908 0.13-0.277 0.087-0.514 0.216-0.712 0.386-0.199 0.17-0.354 0.383-0.466 0.638-0.111 0.256-0.167 0.552-0.167 0.889 0 0.317 0.055 0.603 0.164 0.856 0.11 0.254 0.261 0.469 0.454 0.647s0.421 0.314 0.684 0.409c0.263 0.094 0.548 0.142 0.854 0.142 0.155 0 0.295-0.01 0.42-0.029s0.235-0.042 0.329-0.071c0.095-0.028 0.175-0.057 0.241-0.087 0.066-0.031 0.119-0.059 0.156-0.086 0.069-0.045 0.119-0.093 0.151-0.144s0.048-0.103 0.048-0.156c0-0.05-0.01-0.096-0.031-0.139-0.021-0.044-0.046-0.084-0.074-0.12s-0.058-0.067-0.088-0.093c-0.03-0.027-0.057-0.048-0.079-0.063-0.042 0.042-0.096 0.085-0.162 0.131-0.066 0.045-0.146 0.086-0.238 0.122-0.093 0.036-0.196 0.066-0.31 0.091-0.113 0.024-0.238 0.037-0.374 0.037-0.212 0-0.405-0.034-0.579-0.1s-0.325-0.162-0.454-0.286c-0.129-0.125-0.228-0.278-0.298-0.457-0.07-0.18-0.105-0.381-0.105-0.604 0-0.25 0.038-0.466 0.114-0.647 0.075-0.182 0.183-0.33 0.323-0.446 0.14-0.115 0.306-0.201 0.497-0.258s0.403-0.085 0.638-0.085c0.14 0 0.261 3e-3 0.363 0.011s0.167 0.015 0.193 0.023z" fill="#fff"/>
    </g>
    <g id="g502" transform="translate(311.15 224.91)">
     <path id="path504" d="m0 0c-0.053 0.14-0.114 0.294-0.182 0.462-0.068 0.169-0.135 0.333-0.201 0.494s-0.129 0.308-0.187 0.44c-0.059 0.132-0.105 0.233-0.139 0.301-0.05-0.106-0.104-0.226-0.165-0.361-0.061-0.134-0.123-0.276-0.187-0.425-0.064-0.15-0.129-0.302-0.193-0.457s-0.125-0.306-0.182-0.454zm-2.741-1.612c0.095 0.254 0.201 0.527 0.318 0.82s0.24 0.594 0.369 0.903c0.128 0.308 0.262 0.621 0.4 0.939 0.138 0.317 0.275 0.628 0.411 0.93 0.068 0.152 0.146 0.257 0.233 0.315 0.087 0.059 0.197 0.088 0.329 0.088 0.049 0 0.097-5e-3 0.145-0.017 0.047-0.011 0.089-0.024 0.125-0.039 0.035-0.016 0.066-0.03 0.09-0.043 0.025-0.013 0.039-0.022 0.043-0.026 0.06-0.106 0.139-0.263 0.235-0.471 0.097-0.208 0.201-0.441 0.313-0.7 0.111-0.26 0.226-0.53 0.343-0.812s0.226-0.548 0.326-0.8c0.1-0.251 0.188-0.475 0.264-0.67 0.076-0.194 0.129-0.333 0.159-0.417h-0.749c-0.019 0.046-0.044 0.11-0.074 0.193-0.03 0.084-0.063 0.173-0.099 0.27-0.036 0.096-0.073 0.194-0.111 0.292s-0.072 0.185-0.102 0.261h-1.901c-0.083-0.208-0.158-0.4-0.224-0.576s-0.12-0.322-0.162-0.44z" fill="#fff"/>
    </g>
    <g id="g506" transform="translate(313.49 226.88)">
     <path id="path508" d="m0 0c0 0.106 0.032 0.184 0.096 0.236 0.065 0.051 0.152 0.076 0.261 0.076 0.072 0 0.139-9e-3 0.199-0.028 0.061-0.019 0.1-0.032 0.119-0.04v-1.492h1.998v1.248c0 0.106 0.031 0.184 0.093 0.236 0.063 0.051 0.149 0.076 0.259 0.076 0.075 0 0.143-9e-3 0.204-0.028 0.06-0.019 0.1-0.034 0.119-0.046v-3.819h-0.675v1.714h-1.998v-1.714h-0.675z" fill="#fff"/>
    </g>
    <g id="g510" transform="translate(318.2 226.88)">
     <path id="path512" d="m0 0c0 0.106 0.032 0.184 0.096 0.236 0.065 0.051 0.152 0.076 0.261 0.076 0.072 0 0.139-9e-3 0.199-0.028 0.061-0.019 0.1-0.032 0.119-0.04v-3.825h-0.675z" fill="#fff"/>
    </g>
    <g id="g514" transform="translate(321.32 226.57)">
     <path id="path516" d="m0 0h-1.135c-0.223 0-0.335 0.102-0.335 0.306 0 0.072 0.012 0.137 0.034 0.196 0.023 0.059 0.04 0.098 0.051 0.117h3.241c0.223 0 0.334-0.103 0.334-0.307 0-0.072-0.01-0.137-0.031-0.196-0.021-0.058-0.039-0.097-0.054-0.116h-1.43v-3.274h-0.675z" fill="#fff"/>
    </g>
    <g id="g518" transform="translate(294.49 223.3)">
     <path id="path520" d="m0 0c4e-3 0.098 0.01 0.24 0.02 0.426 9e-3 0.185 0.02 0.392 0.034 0.621 0.013 0.229 0.026 0.467 0.04 0.715 0.013 0.248 0.026 0.486 0.039 0.715 0.014 0.229 0.026 0.435 0.037 0.618 0.012 0.184 0.021 0.325 0.029 0.423 7e-3 0.136 0.053 0.233 0.136 0.29 0.083 0.056 0.178 0.085 0.284 0.085 0.117 0 0.213-0.017 0.289-0.051s0.128-0.067 0.159-0.097c0.045-0.091 0.114-0.23 0.207-0.417s0.193-0.39 0.301-0.607c0.108-0.218 0.215-0.432 0.323-0.644s0.198-0.388 0.27-0.528c0.064 0.129 0.144 0.288 0.241 0.48 0.096 0.191 0.193 0.384 0.289 0.578 0.097 0.195 0.187 0.379 0.273 0.551 0.085 0.172 0.15 0.305 0.195 0.4 0.053 0.11 0.12 0.193 0.199 0.25 0.079 0.056 0.182 0.085 0.306 0.085 0.11 0 0.203-0.015 0.279-0.043 0.075-0.028 0.122-0.052 0.141-0.071 8e-3 -0.106 0.017-0.259 0.029-0.459 0.011-0.201 0.023-0.423 0.037-0.667 0.013-0.244 0.027-0.5 0.042-0.766 0.015-0.267 0.03-0.522 0.046-0.766 0.015-0.244 0.027-0.466 0.036-0.664 0.01-0.199 0.018-0.351 0.026-0.457h-0.664c-4e-3 0.06-9e-3 0.165-0.017 0.315-8e-3 0.149-0.017 0.322-0.028 0.519-0.012 0.197-0.023 0.404-0.034 0.621-0.012 0.218-0.023 0.424-0.034 0.619-0.012 0.195-0.022 0.367-0.032 0.516-9e-3 0.15-0.016 0.253-0.02 0.31-0.034-0.068-0.079-0.159-0.136-0.273-0.056-0.113-0.118-0.237-0.184-0.372-0.066-0.134-0.135-0.275-0.207-0.422-0.072-0.148-0.141-0.289-0.207-0.423-0.067-0.134-0.127-0.259-0.182-0.374-0.055-0.116-0.099-0.208-0.133-0.276h-0.556c-0.046 0.102-0.112 0.243-0.199 0.423s-0.181 0.372-0.281 0.576-0.201 0.407-0.301 0.607c-0.1 0.201-0.19 0.375-0.269 0.522-4e-3 -0.091-0.011-0.212-0.02-0.363-0.01-0.151-0.019-0.32-0.028-0.505-0.01-0.185-0.02-0.377-0.032-0.576-0.011-0.198-0.021-0.391-0.031-0.576-9e-3 -0.185-0.018-0.354-0.025-0.505-8e-3 -0.151-0.014-0.272-0.017-0.363z" fill="#fff"/>
    </g>
    <g id="g522" transform="translate(300.14 226.8)">
     <path id="path524" d="m0 0c0 0.257 0.138 0.386 0.414 0.386h2.179c0.227 0 0.341-0.102 0.341-0.307 0-0.071-0.012-0.137-0.034-0.195-0.023-0.059-0.04-0.098-0.051-0.117h-2.162v-0.976h1.827c0.223 0 0.335-0.102 0.335-0.306 0-0.072-0.011-0.137-0.031-0.196-0.021-0.059-0.039-0.097-0.054-0.116h-2.077v-1.061h2.213v-0.619h-2.9z" fill="#fff"/>
    </g>
    <g id="g526" transform="translate(306.85 224.86)">
     <path id="path528" d="m0 0h-0.664c-0.223 0-0.335 0.098-0.335 0.295 0 0.076 0.011 0.142 0.032 0.199 0.02 0.056 0.038 0.094 0.054 0.113h1.174c0.269 0 0.403-0.128 0.403-0.386v-1.793c-0.03-7e-3 -0.085-0.016-0.164-0.025-0.08-0.01-0.176-0.02-0.287-0.032-0.112-0.011-0.236-0.02-0.372-0.028s-0.278-0.011-0.425-0.011c-0.329 0-0.632 0.043-0.908 0.13-0.277 0.087-0.514 0.216-0.712 0.386-0.199 0.17-0.354 0.383-0.466 0.638-0.111 0.256-0.167 0.552-0.167 0.889 0 0.317 0.055 0.603 0.164 0.856 0.11 0.254 0.261 0.469 0.454 0.647s0.421 0.314 0.684 0.409c0.263 0.094 0.548 0.142 0.854 0.142 0.155 0 0.295-0.01 0.42-0.029s0.235-0.042 0.329-0.071c0.095-0.028 0.175-0.057 0.241-0.087 0.066-0.031 0.119-0.059 0.156-0.086 0.069-0.045 0.119-0.093 0.151-0.144s0.048-0.103 0.048-0.156c0-0.05-0.01-0.096-0.031-0.139-0.021-0.044-0.046-0.084-0.074-0.12s-0.058-0.067-0.088-0.093c-0.03-0.027-0.057-0.048-0.079-0.063-0.042 0.042-0.096 0.085-0.162 0.131-0.066 0.045-0.146 0.086-0.238 0.122-0.093 0.036-0.196 0.066-0.31 0.091-0.113 0.024-0.238 0.037-0.374 0.037-0.212 0-0.405-0.034-0.579-0.1s-0.325-0.162-0.454-0.286c-0.129-0.125-0.228-0.278-0.298-0.457-0.07-0.18-0.105-0.381-0.105-0.604 0-0.25 0.038-0.466 0.114-0.647 0.075-0.182 0.183-0.33 0.323-0.446 0.14-0.115 0.306-0.201 0.497-0.258s0.403-0.085 0.638-0.085c0.14 0 0.261 3e-3 0.363 0.011s0.167 0.015 0.193 0.023z" fill="#fff"/>
    </g>
    <g id="g530" transform="translate(311.15 224.91)">
     <path id="path532" d="m0 0c-0.053 0.14-0.114 0.294-0.182 0.462-0.068 0.169-0.135 0.333-0.201 0.494s-0.129 0.308-0.187 0.44c-0.059 0.132-0.105 0.233-0.139 0.301-0.05-0.106-0.104-0.226-0.165-0.361-0.061-0.134-0.123-0.276-0.187-0.425-0.064-0.15-0.129-0.302-0.193-0.457s-0.125-0.306-0.182-0.454zm-2.741-1.612c0.095 0.254 0.201 0.527 0.318 0.82s0.24 0.594 0.369 0.903c0.128 0.308 0.262 0.621 0.4 0.939 0.138 0.317 0.275 0.628 0.411 0.93 0.068 0.152 0.146 0.257 0.233 0.315 0.087 0.059 0.197 0.088 0.329 0.088 0.049 0 0.097-5e-3 0.145-0.017 0.047-0.011 0.089-0.024 0.125-0.039 0.035-0.016 0.066-0.03 0.09-0.043 0.025-0.013 0.039-0.022 0.043-0.026 0.06-0.106 0.139-0.263 0.235-0.471 0.097-0.208 0.201-0.441 0.313-0.7 0.111-0.26 0.226-0.53 0.343-0.812s0.226-0.548 0.326-0.8c0.1-0.251 0.188-0.475 0.264-0.67 0.076-0.194 0.129-0.333 0.159-0.417h-0.749c-0.019 0.046-0.044 0.11-0.074 0.193-0.03 0.084-0.063 0.173-0.099 0.27-0.036 0.096-0.073 0.194-0.111 0.292s-0.072 0.185-0.102 0.261h-1.901c-0.083-0.208-0.158-0.4-0.224-0.576s-0.12-0.322-0.162-0.44z" fill="#fff"/>
    </g>
    <g id="g534" transform="translate(313.49 226.88)">
     <path id="path536" d="m0 0c0 0.106 0.032 0.184 0.096 0.236 0.065 0.051 0.152 0.076 0.261 0.076 0.072 0 0.139-9e-3 0.199-0.028 0.061-0.019 0.1-0.032 0.119-0.04v-1.492h1.998v1.248c0 0.106 0.031 0.184 0.093 0.236 0.063 0.051 0.149 0.076 0.259 0.076 0.075 0 0.143-9e-3 0.204-0.028 0.06-0.019 0.1-0.034 0.119-0.046v-3.819h-0.675v1.714h-1.998v-1.714h-0.675z" fill="#fff"/>
    </g>
    <g id="g538" transform="translate(318.2 226.88)">
     <path id="path540" d="m0 0c0 0.106 0.032 0.184 0.096 0.236 0.065 0.051 0.152 0.076 0.261 0.076 0.072 0 0.139-9e-3 0.199-0.028 0.061-0.019 0.1-0.032 0.119-0.04v-3.825h-0.675z" fill="#fff"/>
    </g>
    <g id="g542" transform="translate(321.32 226.57)">
     <path id="path544" d="m0 0h-1.135c-0.223 0-0.335 0.102-0.335 0.306 0 0.072 0.012 0.137 0.034 0.196 0.023 0.059 0.04 0.098 0.051 0.117h3.241c0.223 0 0.334-0.103 0.334-0.307 0-0.072-0.01-0.137-0.031-0.196-0.021-0.058-0.039-0.097-0.054-0.116h-1.43v-3.274h-0.675z" fill="#fff"/>
    </g>
   </g>
  </g>
 </g>
</svg>
