<svg id="i" width="789.68" height="123.77" version="1.1" viewBox="0 0 789.69 123.77" xmlns="http://www.w3.org/2000/svg" xmlns:xlink="http://www.w3.org/1999/xlink">
 <defs id="j">
  <linearGradient id="b" x1="629.01" x2="629.01" y1="210.26" y2="84.541" gradientUnits="userSpaceOnUse">
   <stop id="k" stop-color="#d96814" offset="0"/>
   <stop id="l" stop-color="#fbbf3f" offset=".99737"/>
  </linearGradient>
  <linearGradient id="f" x1="134.29" x2="134.29" y1="43.971" y2="1.7784" gradientTransform="translate(0 -3)" xlink:href="#b"/>
  <linearGradient id="a" x1="217.21" x2="217.21" y1="214.16" y2="85.896" gradientUnits="userSpaceOnUse">
   <stop id="m" stop-color="#3260a0" offset=".3706"/>
   <stop id="n" stop-color="#184b7f" offset="1"/>
  </linearGradient>
  <linearGradient id="h" x1="292.33" x2="292.33" y1="214.16" y2="85.896" gradientTransform="translate(-82.915 -87.016)" xlink:href="#a"/>
  <linearGradient id="g" x1="135.79" x2="135.79" y1="214.16" y2="85.896" gradientTransform="translate(-82.915 -87.016)" xlink:href="#a"/>
  <linearGradient id="d" x1="629.01" x2="629.01" y1="210.26" y2="84.541" gradientTransform="translate(-82.915 -87.016)" gradientUnits="userSpaceOnUse" xlink:href="#b"/>
  <linearGradient id="c" x1="217.21" x2="217.21" y1="214.16" y2="85.896" gradientTransform="translate(-82.915 -87.016)" gradientUnits="userSpaceOnUse" xlink:href="#a"/>
  <filter id="e" x="-.013686" y="-.097397" width="1.0274" height="1.1948" color-interpolation-filters="sRGB">
   <feGaussianBlur id="o" stdDeviation="1.9012445"/>
  </filter>
 </defs>
 <path id="p" d="m792.69-2.4755v-1.9e-4h-367.46a125.72 125.72 0 0 0-125.72 125.72v1.2e-4h367.46a125.72 125.72 0 0 0 125.72-125.72z" fill="url(#d)" style="isolation:isolate"/>
 <g id="q" transform="translate(0 -3)" fill="#fff" filter="url(#e)">
  <path id="r" d="m416.7 82.653a20.742 20.742 0 0 1-1.9786 1.233 18.828 18.828 0 0 1-3.1775 1.3629 31.038 31.038 0 0 1-4.5096 1.103 34.718 34.718 0 0 1-5.9034 0.45323 26.894 26.894 0 0 1-9.0825-1.5238 22.673 22.673 0 0 1-7.5587-4.4446 20.802 20.802 0 0 1-5.1902-7.2663 24.586 24.586 0 0 1-1.9136-9.9905 25.663 25.663 0 0 1 1.8487-9.9905 21.396 21.396 0 0 1 5.0602-7.4287 21.993 21.993 0 0 1 7.4937-4.6054 26.082 26.082 0 0 1 9.1474-1.5904 31.043 31.043 0 0 1 7.6545 0.77975 15.892 15.892 0 0 1 4.7045 1.9136 7.3024 7.3024 0 0 1 2.3994 2.3344 4.2921 4.2921 0 0 1 0.68228 1.9786 3.8636 3.8636 0 0 1-0.35738 1.6228 6.8248 6.8248 0 0 1-0.84311 1.3938 7.9087 7.9087 0 0 1-1.0056 1.0705 4.5122 4.5122 0 0 1-0.90808 0.64979 12.76 12.76 0 0 0-1.7837-1.5578 15.154 15.154 0 0 0-2.6934-1.5562 20.17 20.17 0 0 0-3.5024-1.2005 17.333 17.333 0 0 0-4.2171-0.48734 16.551 16.551 0 0 0-6.1633 1.1355 13.759 13.759 0 0 0-4.9303 3.3091 15.785 15.785 0 0 0-3.2766 5.2552 19.084 19.084 0 0 0-1.2005 6.9739 17.92 17.92 0 0 0 1.2655 6.9739 14.342 14.342 0 0 0 3.4715 5.0602 14.544 14.544 0 0 0 5.1886 3.0816 19.423 19.423 0 0 0 6.4232 1.038 21.282 21.282 0 0 0 7.0389-1.038 20.378 20.378 0 0 0 4.3146-1.9461l3.439 5.9034z" style="isolation:isolate"/>
  <path id="s" d="m454.04 39.965a24.305 24.305 0 0 1 9.3749 1.7853 23.431 23.431 0 0 1 7.5246 4.9303 22.657 22.657 0 0 1 5.0278 7.4271 24.604 24.604 0 0 1 0 18.555 22.664 22.664 0 0 1-5.0278 7.4287 23.431 23.431 0 0 1-7.5246 4.9303 25.529 25.529 0 0 1-18.75 0 23.421 23.421 0 0 1-7.5262-4.9303 22.714 22.714 0 0 1-5.0278-7.4287 24.604 24.604 0 0 1 0-18.555 22.707 22.707 0 0 1 5.0278-7.4271 23.421 23.421 0 0 1 7.5262-4.9303 24.293 24.293 0 0 1 9.3749-1.7853zm0 39.769a15.545 15.545 0 0 0 6.2282-1.233 14.91 14.91 0 0 0 4.9303-3.4049 16.051 16.051 0 0 0 3.2766-5.1577 17.423 17.423 0 0 0 1.1989-6.5532 17.67 17.67 0 0 0-1.1989-6.584 15.975 15.975 0 0 0-3.2766-5.1902 14.546 14.546 0 0 0-4.9303-3.374 16.757 16.757 0 0 0-12.456 0 14.856 14.856 0 0 0-4.9628 3.374 15.252 15.252 0 0 0-3.2766 5.1902 18.095 18.095 0 0 0-1.168 6.584 17.842 17.842 0 0 0 1.168 6.5532 15.132 15.132 0 0 0 8.2394 8.5626 15.534 15.534 0 0 0 6.2282 1.233z" style="isolation:isolate"/>
  <path id="t" d="m495.54 85.637q0.0634-1.6862 0.2258-4.8653 0.16326-3.1775 0.38988-7.1038 0.22661-3.9231 0.45485-8.1744 0.22662-4.2472 0.45323-8.1744 0.22662-3.9231 0.42237-7.0714 0.19493-3.1458 0.32327-4.8328a4.0007 4.0007 0 0 1 1.5579-3.3091 5.6233 5.6233 0 0 1 3.2441-0.97306 8.0801 8.0801 0 0 1 3.3074 0.58481 6.3875 6.3875 0 0 1 1.8178 1.1014q0.77731 1.5571 2.3669 4.7695 1.5887 3.2116 3.439 6.9414 1.8495 3.7306 3.6973 7.3638 1.8495 3.6332 3.0816 6.0333 1.1038-2.2052 2.7567-5.4826 1.6545-3.275 3.3091-6.6165 1.6545-3.3407 3.1141-6.2932 1.4596-2.9509 2.2385-4.5745a7.3141 7.3141 0 0 1 2.271-2.8542 5.8891 5.8891 0 0 1 3.5024-0.97306 9.0913 9.0913 0 0 1 3.1791 0.48734 5.344 5.344 0 0 1 1.6228 0.81061q0.12915 1.8178 0.32327 5.2552 0.19494 3.4382 0.42236 7.622 0.22662 4.1838 0.48572 8.7592 0.2583 4.5737 0.51984 8.7576 0.25829 4.1838 0.42074 7.5896 0.16326 3.4065 0.2924 5.2227h-7.5896q-0.0658-1.0356-0.19494-3.5998-0.13158-2.5634-0.32489-5.9358-0.19494-3.3724-0.38988-7.1038-0.19249-3.7306-0.38825-7.0714-0.19494-3.3407-0.35738-5.905-0.16326-2.561-0.22743-3.5349-0.58238 1.1672-1.5562 3.1141-0.97226 1.9469-2.1086 4.2496-1.1355 2.3027-2.3685 4.8328-1.233 2.5293-2.3669 4.8328-1.1355 2.3051-2.0761 4.2821-0.943 1.9786-1.5254 3.1466h-6.3566q-0.77976-1.752-2.271-4.8328-1.4937-3.0824-3.2116-6.5856-1.7203-3.504-3.439-6.9414-1.7179-3.4382-3.0816-5.9683-0.0634 1.5571-0.2258 4.1522-0.16326 2.5951-0.3249 5.7734-0.16326 3.1799-0.35738 6.5856-0.19494 3.4041-0.35577 6.584-0.16326 3.1799-0.2924 5.7734-0.13158 2.5975-0.19494 4.1522z" style="isolation:isolate"/>
  <path id="u" d="m564.47 45.545q0-4.4105 4.737-4.4121h24.911q3.8939 0 3.8922 3.504a6.1684 6.1684 0 0 1-0.38825 2.2369 10.254 10.254 0 0 1-0.58481 1.3304h-24.716v11.159h20.889q3.8281 0 3.8273 3.504a6.6783 6.6783 0 0 1-0.35577 2.2385 5.2026 5.2026 0 0 1-0.6173 1.3288h-23.743v12.132h25.301v7.0714h-33.152z" style="isolation:isolate"/>
  <path id="v" d="m616.35 45.35a4.7318 4.7318 0 0 1 0.64979-2.6593 3.9901 3.9901 0 0 1 2.3019-1.4604 19.357 19.357 0 0 1 4.4121-0.61567q2.7559-0.12915 7.0389-0.13a35.774 35.774 0 0 1 11.061 1.5887 23.683 23.683 0 0 1 8.3043 4.542 19.583 19.583 0 0 1 5.2227 7.2013 23.961 23.961 0 0 1 1.8162 9.5032 24.899 24.899 0 0 1-1.7512 9.5698 19.221 19.221 0 0 1-5.1577 7.2338 23.23 23.23 0 0 1-8.4343 4.5729 38.454 38.454 0 0 1-11.579 1.5904q-6.9446 0-10.25-0.2924-3.3091-0.29241-3.634-0.35739zm7.7211 33.541a13.273 13.273 0 0 0 2.0761 0.2924q1.6862 0.16083 4.7354 0.16083 8.8209 0 13.495-4.183 4.6712-4.1863 4.6704-11.841a18.812 18.812 0 0 0-1.0705-6.4541 13.038 13.038 0 0 0-3.2766-5.0602 15.368 15.368 0 0 0-5.6434-3.3091 24.9 24.9 0 0 0-8.1744-1.2005q-3.1141 0-4.8328 0.16244-1.7203 0.16326-1.9786 0.22743z" style="isolation:isolate"/>
  <path id="w" d="m685.29 68.9q-1.5571-1.8154-3.4715-4.3471-1.9128-2.5293-3.8598-5.0927-1.9469-2.561-3.6323-4.8653-1.6886-2.3027-2.7259-3.7948-1.1672-1.6228-2.2694-3.3416a5.876 5.876 0 0 1-1.103-3.0816 3.0266 3.0266 0 0 1 0.97307-2.3685 3.732 3.732 0 0 1 2.5943-0.87559 5.7658 5.7658 0 0 1 2.1086 0.32489c0.541 0.21606 0.91783 0.36713 1.1355 0.45323q0.97225 1.4937 2.7242 4.0222 1.752 2.5318 3.7964 5.4176 2.042 2.8875 4.1181 5.7409 2.0761 2.8558 3.6989 4.9319 1.5571-2.0761 3.2116-4.4446t3.2425-4.7354q1.5912-2.3685 3.0492-4.6395 1.4596-2.2686 2.6284-4.0872a9.4285 9.4285 0 0 1 1.8162-2.0436 4.6639 4.6639 0 0 1 3.1141-0.94057 5.7249 5.7249 0 0 1 2.9192 0.68065 9.1222 9.1222 0 0 1 1.4279 0.9422q-0.58482 1.1672-1.7528 3.0816-1.1672 1.9128-2.6918 4.2155-1.5254 2.3051-3.2766 4.8669-1.752 2.5634-3.5349 5.0602-1.7861 2.4976-3.4715 4.8003-1.6862 2.3027-3.0492 4.1197v16.737h-7.7195z" style="isolation:isolate"/>
  <path id="x" d="m416.7 82.653a20.742 20.742 0 0 1-1.9786 1.233 18.828 18.828 0 0 1-3.1775 1.3629 31.038 31.038 0 0 1-4.5096 1.103 34.718 34.718 0 0 1-5.9034 0.45323 26.894 26.894 0 0 1-9.0825-1.5238 22.673 22.673 0 0 1-7.5587-4.4446 20.802 20.802 0 0 1-5.1902-7.2663 24.586 24.586 0 0 1-1.9136-9.9905 25.663 25.663 0 0 1 1.8487-9.9905 21.396 21.396 0 0 1 5.0602-7.4287 21.993 21.993 0 0 1 7.4937-4.6054 26.082 26.082 0 0 1 9.1474-1.5904 31.043 31.043 0 0 1 7.6545 0.77975 15.892 15.892 0 0 1 4.7045 1.9136 7.3024 7.3024 0 0 1 2.3994 2.3344 4.2921 4.2921 0 0 1 0.68228 1.9786 3.8636 3.8636 0 0 1-0.35738 1.6228 6.8248 6.8248 0 0 1-0.84311 1.3938 7.9087 7.9087 0 0 1-1.0056 1.0705 4.5122 4.5122 0 0 1-0.90808 0.64979 12.76 12.76 0 0 0-1.7837-1.5578 15.154 15.154 0 0 0-2.6934-1.5562 20.17 20.17 0 0 0-3.5024-1.2005 17.333 17.333 0 0 0-4.2171-0.48734 16.551 16.551 0 0 0-6.1633 1.1355 13.759 13.759 0 0 0-4.9303 3.3091 15.785 15.785 0 0 0-3.2766 5.2552 19.084 19.084 0 0 0-1.2005 6.9739 17.92 17.92 0 0 0 1.2655 6.9739 14.342 14.342 0 0 0 3.4715 5.0602 14.544 14.544 0 0 0 5.1886 3.0816 19.423 19.423 0 0 0 6.4232 1.038 21.282 21.282 0 0 0 7.0389-1.038 20.378 20.378 0 0 0 4.3146-1.9461l3.439 5.9034z" style="isolation:isolate"/>
  <path id="y" d="m454.04 39.965a24.305 24.305 0 0 1 9.3749 1.7853 23.431 23.431 0 0 1 7.5246 4.9303 22.657 22.657 0 0 1 5.0278 7.4271 24.604 24.604 0 0 1 0 18.555 22.664 22.664 0 0 1-5.0278 7.4287 23.431 23.431 0 0 1-7.5246 4.9303 25.529 25.529 0 0 1-18.75 0 23.421 23.421 0 0 1-7.5262-4.9303 22.714 22.714 0 0 1-5.0278-7.4287 24.604 24.604 0 0 1 0-18.555 22.707 22.707 0 0 1 5.0278-7.4271 23.421 23.421 0 0 1 7.5262-4.9303 24.293 24.293 0 0 1 9.3749-1.7853zm0 39.769a15.545 15.545 0 0 0 6.2282-1.233 14.91 14.91 0 0 0 4.9303-3.4049 16.051 16.051 0 0 0 3.2766-5.1577 17.423 17.423 0 0 0 1.1989-6.5532 17.67 17.67 0 0 0-1.1989-6.584 15.975 15.975 0 0 0-3.2766-5.1902 14.546 14.546 0 0 0-4.9303-3.374 16.757 16.757 0 0 0-12.456 0 14.856 14.856 0 0 0-4.9628 3.374 15.252 15.252 0 0 0-3.2766 5.1902 18.095 18.095 0 0 0-1.168 6.584 17.842 17.842 0 0 0 1.168 6.5532 15.132 15.132 0 0 0 8.2394 8.5626 15.534 15.534 0 0 0 6.2282 1.233z" style="isolation:isolate"/>
  <path id="z" d="m495.54 85.637q0.0634-1.6862 0.2258-4.8653 0.16326-3.1775 0.38988-7.1038 0.22661-3.9231 0.45485-8.1744 0.22662-4.2472 0.45323-8.1744 0.22662-3.9231 0.42237-7.0714 0.19493-3.1458 0.32327-4.8328a4.0007 4.0007 0 0 1 1.5579-3.3091 5.6233 5.6233 0 0 1 3.2441-0.97306 8.0801 8.0801 0 0 1 3.3074 0.58481 6.3875 6.3875 0 0 1 1.8178 1.1014q0.77731 1.5571 2.3669 4.7695 1.5887 3.2116 3.439 6.9414 1.8495 3.7306 3.6973 7.3638 1.8495 3.6332 3.0816 6.0333 1.1038-2.2052 2.7567-5.4826 1.6545-3.275 3.3091-6.6165 1.6545-3.3407 3.1141-6.2932 1.4596-2.9509 2.2385-4.5745a7.3141 7.3141 0 0 1 2.271-2.8542 5.8891 5.8891 0 0 1 3.5024-0.97306 9.0913 9.0913 0 0 1 3.1791 0.48734 5.344 5.344 0 0 1 1.6228 0.81061q0.12915 1.8178 0.32327 5.2552 0.19494 3.4382 0.42236 7.622 0.22662 4.1838 0.48572 8.7592 0.2583 4.5737 0.51984 8.7576 0.25829 4.1838 0.42074 7.5896 0.16326 3.4065 0.2924 5.2227h-7.5896q-0.0658-1.0356-0.19494-3.5998-0.13158-2.5634-0.32489-5.9358-0.19494-3.3724-0.38988-7.1038-0.19249-3.7306-0.38825-7.0714-0.19494-3.3407-0.35738-5.905-0.16326-2.561-0.22743-3.5349-0.58238 1.1672-1.5562 3.1141-0.97226 1.9469-2.1086 4.2496-1.1355 2.3027-2.3685 4.8328-1.233 2.5293-2.3669 4.8328-1.1355 2.3051-2.0761 4.2821-0.943 1.9786-1.5254 3.1466h-6.3566q-0.77976-1.752-2.271-4.8328-1.4937-3.0824-3.2116-6.5856-1.7203-3.504-3.439-6.9414-1.7179-3.4382-3.0816-5.9683-0.0634 1.5571-0.2258 4.1522-0.16326 2.5951-0.3249 5.7734-0.16326 3.1799-0.35738 6.5856-0.19494 3.4041-0.35577 6.584-0.16326 3.1799-0.2924 5.7734-0.13158 2.5975-0.19494 4.1522z" style="isolation:isolate"/>
  <path id="aa" d="m564.47 45.545q0-4.4105 4.737-4.4121h24.911q3.8939 0 3.8922 3.504a6.1684 6.1684 0 0 1-0.38825 2.2369 10.254 10.254 0 0 1-0.58481 1.3304h-24.716v11.159h20.889q3.8281 0 3.8273 3.504a6.6783 6.6783 0 0 1-0.35577 2.2385 5.2026 5.2026 0 0 1-0.6173 1.3288h-23.743v12.132h25.301v7.0714h-33.152z" style="isolation:isolate"/>
  <path id="ab" d="m616.35 45.35a4.7318 4.7318 0 0 1 0.64979-2.6593 3.9901 3.9901 0 0 1 2.3019-1.4604 19.357 19.357 0 0 1 4.4121-0.61567q2.7559-0.12915 7.0389-0.13a35.774 35.774 0 0 1 11.061 1.5887 23.683 23.683 0 0 1 8.3043 4.542 19.583 19.583 0 0 1 5.2227 7.2013 23.961 23.961 0 0 1 1.8162 9.5032 24.899 24.899 0 0 1-1.7512 9.5698 19.221 19.221 0 0 1-5.1577 7.2338 23.23 23.23 0 0 1-8.4343 4.5729 38.454 38.454 0 0 1-11.579 1.5904q-6.9446 0-10.25-0.2924-3.3091-0.29241-3.634-0.35739zm7.7211 33.541a13.273 13.273 0 0 0 2.0761 0.2924q1.6862 0.16083 4.7354 0.16083 8.8209 0 13.495-4.183 4.6712-4.1863 4.6704-11.841a18.812 18.812 0 0 0-1.0705-6.4541 13.038 13.038 0 0 0-3.2766-5.0602 15.368 15.368 0 0 0-5.6434-3.3091 24.9 24.9 0 0 0-8.1744-1.2005q-3.1141 0-4.8328 0.16244-1.7203 0.16326-1.9786 0.22743z" style="isolation:isolate"/>
  <path id="ac" d="m685.29 68.9q-1.5571-1.8154-3.4715-4.3471-1.9128-2.5293-3.8598-5.0927-1.9469-2.561-3.6323-4.8653-1.6886-2.3027-2.7259-3.7948-1.1672-1.6228-2.2694-3.3416a5.876 5.876 0 0 1-1.103-3.0816 3.0266 3.0266 0 0 1 0.97307-2.3685 3.732 3.732 0 0 1 2.5943-0.87559 5.7658 5.7658 0 0 1 2.1086 0.32489c0.541 0.21606 0.91783 0.36713 1.1355 0.45323q0.97225 1.4937 2.7242 4.0222 1.752 2.5318 3.7964 5.4176 2.042 2.8875 4.1181 5.7409 2.0761 2.8558 3.6989 4.9319 1.5571-2.0761 3.2116-4.4446t3.2425-4.7354q1.5912-2.3685 3.0492-4.6395 1.4596-2.2686 2.6284-4.0872a9.4285 9.4285 0 0 1 1.8162-2.0436 4.6639 4.6639 0 0 1 3.1141-0.94057 5.7249 5.7249 0 0 1 2.9192 0.68065 9.1222 9.1222 0 0 1 1.4279 0.9422q-0.58482 1.1672-1.7528 3.0816-1.1672 1.9128-2.6918 4.2155-1.5254 2.3051-3.2766 4.8669-1.752 2.5634-3.5349 5.0602-1.7861 2.4976-3.4715 4.8003-1.6862 2.3027-3.0492 4.1197v16.737h-7.7195z" style="isolation:isolate"/>
 </g>
 <g id="ad" transform="translate(0 -3)" fill="#fff">
  <path id="ae" d="m416.7 82.653a20.742 20.742 0 0 1-1.9786 1.233 18.828 18.828 0 0 1-3.1775 1.3629 31.038 31.038 0 0 1-4.5096 1.103 34.718 34.718 0 0 1-5.9034 0.45323 26.894 26.894 0 0 1-9.0825-1.5238 22.673 22.673 0 0 1-7.5587-4.4446 20.802 20.802 0 0 1-5.1902-7.2663 24.586 24.586 0 0 1-1.9136-9.9905 25.663 25.663 0 0 1 1.8487-9.9905 21.396 21.396 0 0 1 5.0602-7.4287 21.993 21.993 0 0 1 7.4937-4.6054 26.082 26.082 0 0 1 9.1474-1.5904 31.043 31.043 0 0 1 7.6545 0.77975 15.892 15.892 0 0 1 4.7045 1.9136 7.3024 7.3024 0 0 1 2.3994 2.3344 4.2921 4.2921 0 0 1 0.68228 1.9786 3.8636 3.8636 0 0 1-0.35738 1.6228 6.8248 6.8248 0 0 1-0.84311 1.3938 7.9087 7.9087 0 0 1-1.0056 1.0705 4.5122 4.5122 0 0 1-0.90808 0.64979 12.76 12.76 0 0 0-1.7837-1.5578 15.154 15.154 0 0 0-2.6934-1.5562 20.17 20.17 0 0 0-3.5024-1.2005 17.333 17.333 0 0 0-4.2171-0.48734 16.551 16.551 0 0 0-6.1633 1.1355 13.759 13.759 0 0 0-4.9303 3.3091 15.785 15.785 0 0 0-3.2766 5.2552 19.084 19.084 0 0 0-1.2005 6.9739 17.92 17.92 0 0 0 1.2655 6.9739 14.342 14.342 0 0 0 3.4715 5.0602 14.544 14.544 0 0 0 5.1886 3.0816 19.423 19.423 0 0 0 6.4232 1.038 21.282 21.282 0 0 0 7.0389-1.038 20.378 20.378 0 0 0 4.3146-1.9461l3.439 5.9034z" style="isolation:isolate"/>
  <path id="af" d="m454.04 39.965a24.305 24.305 0 0 1 9.3749 1.7853 23.431 23.431 0 0 1 7.5246 4.9303 22.657 22.657 0 0 1 5.0278 7.4271 24.604 24.604 0 0 1 0 18.555 22.664 22.664 0 0 1-5.0278 7.4287 23.431 23.431 0 0 1-7.5246 4.9303 25.529 25.529 0 0 1-18.75 0 23.421 23.421 0 0 1-7.5262-4.9303 22.714 22.714 0 0 1-5.0278-7.4287 24.604 24.604 0 0 1 0-18.555 22.707 22.707 0 0 1 5.0278-7.4271 23.421 23.421 0 0 1 7.5262-4.9303 24.293 24.293 0 0 1 9.3749-1.7853zm0 39.769a15.545 15.545 0 0 0 6.2282-1.233 14.91 14.91 0 0 0 4.9303-3.4049 16.051 16.051 0 0 0 3.2766-5.1577 17.423 17.423 0 0 0 1.1989-6.5532 17.67 17.67 0 0 0-1.1989-6.584 15.975 15.975 0 0 0-3.2766-5.1902 14.546 14.546 0 0 0-4.9303-3.374 16.757 16.757 0 0 0-12.456 0 14.856 14.856 0 0 0-4.9628 3.374 15.252 15.252 0 0 0-3.2766 5.1902 18.095 18.095 0 0 0-1.168 6.584 17.842 17.842 0 0 0 1.168 6.5532 15.132 15.132 0 0 0 8.2394 8.5626 15.534 15.534 0 0 0 6.2282 1.233z" style="isolation:isolate"/>
  <path id="ag" d="m495.54 85.637q0.0634-1.6862 0.2258-4.8653 0.16326-3.1775 0.38988-7.1038 0.22661-3.9231 0.45485-8.1744 0.22662-4.2472 0.45323-8.1744 0.22662-3.9231 0.42237-7.0714 0.19493-3.1458 0.32327-4.8328a4.0007 4.0007 0 0 1 1.5579-3.3091 5.6233 5.6233 0 0 1 3.2441-0.97306 8.0801 8.0801 0 0 1 3.3074 0.58481 6.3875 6.3875 0 0 1 1.8178 1.1014q0.77731 1.5571 2.3669 4.7695 1.5887 3.2116 3.439 6.9414 1.8495 3.7306 3.6973 7.3638 1.8495 3.6332 3.0816 6.0333 1.1038-2.2052 2.7567-5.4826 1.6545-3.275 3.3091-6.6165 1.6545-3.3407 3.1141-6.2932 1.4596-2.9509 2.2385-4.5745a7.3141 7.3141 0 0 1 2.271-2.8542 5.8891 5.8891 0 0 1 3.5024-0.97306 9.0913 9.0913 0 0 1 3.1791 0.48734 5.344 5.344 0 0 1 1.6228 0.81061q0.12915 1.8178 0.32327 5.2552 0.19494 3.4382 0.42236 7.622 0.22662 4.1838 0.48572 8.7592 0.2583 4.5737 0.51984 8.7576 0.25829 4.1838 0.42074 7.5896 0.16326 3.4065 0.2924 5.2227h-7.5896q-0.0658-1.0356-0.19494-3.5998-0.13158-2.5634-0.32489-5.9358-0.19494-3.3724-0.38988-7.1038-0.19249-3.7306-0.38825-7.0714-0.19494-3.3407-0.35738-5.905-0.16326-2.561-0.22743-3.5349-0.58238 1.1672-1.5562 3.1141-0.97226 1.9469-2.1086 4.2496-1.1355 2.3027-2.3685 4.8328-1.233 2.5293-2.3669 4.8328-1.1355 2.3051-2.0761 4.2821-0.943 1.9786-1.5254 3.1466h-6.3566q-0.77976-1.752-2.271-4.8328-1.4937-3.0824-3.2116-6.5856-1.7203-3.504-3.439-6.9414-1.7179-3.4382-3.0816-5.9683-0.0634 1.5571-0.2258 4.1522-0.16326 2.5951-0.3249 5.7734-0.16326 3.1799-0.35738 6.5856-0.19494 3.4041-0.35577 6.584-0.16326 3.1799-0.2924 5.7734-0.13158 2.5975-0.19494 4.1522z" style="isolation:isolate"/>
  <path id="ah" d="m564.47 45.545q0-4.4105 4.737-4.4121h24.911q3.8939 0 3.8922 3.504a6.1684 6.1684 0 0 1-0.38825 2.2369 10.254 10.254 0 0 1-0.58481 1.3304h-24.716v11.159h20.889q3.8281 0 3.8273 3.504a6.6783 6.6783 0 0 1-0.35577 2.2385 5.2026 5.2026 0 0 1-0.6173 1.3288h-23.743v12.132h25.301v7.0714h-33.152z" style="isolation:isolate"/>
  <path id="ai" d="m616.35 45.35a4.7318 4.7318 0 0 1 0.64979-2.6593 3.9901 3.9901 0 0 1 2.3019-1.4604 19.357 19.357 0 0 1 4.4121-0.61567q2.7559-0.12915 7.0389-0.13a35.774 35.774 0 0 1 11.061 1.5887 23.683 23.683 0 0 1 8.3043 4.542 19.583 19.583 0 0 1 5.2227 7.2013 23.961 23.961 0 0 1 1.8162 9.5032 24.899 24.899 0 0 1-1.7512 9.5698 19.221 19.221 0 0 1-5.1577 7.2338 23.23 23.23 0 0 1-8.4343 4.5729 38.454 38.454 0 0 1-11.579 1.5904q-6.9446 0-10.25-0.2924-3.3091-0.29241-3.634-0.35739zm7.7211 33.541a13.273 13.273 0 0 0 2.0761 0.2924q1.6862 0.16083 4.7354 0.16083 8.8209 0 13.495-4.183 4.6712-4.1863 4.6704-11.841a18.812 18.812 0 0 0-1.0705-6.4541 13.038 13.038 0 0 0-3.2766-5.0602 15.368 15.368 0 0 0-5.6434-3.3091 24.9 24.9 0 0 0-8.1744-1.2005q-3.1141 0-4.8328 0.16244-1.7203 0.16326-1.9786 0.22743z" style="isolation:isolate"/>
  <path id="aj" d="m685.29 68.9q-1.5571-1.8154-3.4715-4.3471-1.9128-2.5293-3.8598-5.0927-1.9469-2.561-3.6323-4.8653-1.6886-2.3027-2.7259-3.7948-1.1672-1.6228-2.2694-3.3416a5.876 5.876 0 0 1-1.103-3.0816 3.0266 3.0266 0 0 1 0.97307-2.3685 3.732 3.732 0 0 1 2.5943-0.87559 5.7658 5.7658 0 0 1 2.1086 0.32489c0.541 0.21606 0.91783 0.36713 1.1355 0.45323q0.97225 1.4937 2.7242 4.0222 1.752 2.5318 3.7964 5.4176 2.042 2.8875 4.1181 5.7409 2.0761 2.8558 3.6989 4.9319 1.5571-2.0761 3.2116-4.4446t3.2425-4.7354q1.5912-2.3685 3.0492-4.6395 1.4596-2.2686 2.6284-4.0872a9.4285 9.4285 0 0 1 1.8162-2.0436 4.6639 4.6639 0 0 1 3.1141-0.94057 5.7249 5.7249 0 0 1 2.9192 0.68065 9.1222 9.1222 0 0 1 1.4279 0.9422q-0.58482 1.1672-1.7528 3.0816-1.1672 1.9128-2.6918 4.2155-1.5254 2.3051-3.2766 4.8669-1.752 2.5634-3.5349 5.0602-1.7861 2.4976-3.4715 4.8003-1.6862 2.3027-3.0492 4.1197v16.737h-7.7195z" style="isolation:isolate"/>
  <path id="ak" d="m416.7 82.653a20.742 20.742 0 0 1-1.9786 1.233 18.828 18.828 0 0 1-3.1775 1.3629 31.038 31.038 0 0 1-4.5096 1.103 34.718 34.718 0 0 1-5.9034 0.45323 26.894 26.894 0 0 1-9.0825-1.5238 22.673 22.673 0 0 1-7.5587-4.4446 20.802 20.802 0 0 1-5.1902-7.2663 24.586 24.586 0 0 1-1.9136-9.9905 25.663 25.663 0 0 1 1.8487-9.9905 21.396 21.396 0 0 1 5.0602-7.4287 21.993 21.993 0 0 1 7.4937-4.6054 26.082 26.082 0 0 1 9.1474-1.5904 31.043 31.043 0 0 1 7.6545 0.77975 15.892 15.892 0 0 1 4.7045 1.9136 7.3024 7.3024 0 0 1 2.3994 2.3344 4.2921 4.2921 0 0 1 0.68228 1.9786 3.8636 3.8636 0 0 1-0.35738 1.6228 6.8248 6.8248 0 0 1-0.84311 1.3938 7.9087 7.9087 0 0 1-1.0056 1.0705 4.5122 4.5122 0 0 1-0.90808 0.64979 12.76 12.76 0 0 0-1.7837-1.5578 15.154 15.154 0 0 0-2.6934-1.5562 20.17 20.17 0 0 0-3.5024-1.2005 17.333 17.333 0 0 0-4.2171-0.48734 16.551 16.551 0 0 0-6.1633 1.1355 13.759 13.759 0 0 0-4.9303 3.3091 15.785 15.785 0 0 0-3.2766 5.2552 19.084 19.084 0 0 0-1.2005 6.9739 17.92 17.92 0 0 0 1.2655 6.9739 14.342 14.342 0 0 0 3.4715 5.0602 14.544 14.544 0 0 0 5.1886 3.0816 19.423 19.423 0 0 0 6.4232 1.038 21.282 21.282 0 0 0 7.0389-1.038 20.378 20.378 0 0 0 4.3146-1.9461l3.439 5.9034z" style="isolation:isolate"/>
  <path id="al" d="m454.04 39.965a24.305 24.305 0 0 1 9.3749 1.7853 23.431 23.431 0 0 1 7.5246 4.9303 22.657 22.657 0 0 1 5.0278 7.4271 24.604 24.604 0 0 1 0 18.555 22.664 22.664 0 0 1-5.0278 7.4287 23.431 23.431 0 0 1-7.5246 4.9303 25.529 25.529 0 0 1-18.75 0 23.421 23.421 0 0 1-7.5262-4.9303 22.714 22.714 0 0 1-5.0278-7.4287 24.604 24.604 0 0 1 0-18.555 22.707 22.707 0 0 1 5.0278-7.4271 23.421 23.421 0 0 1 7.5262-4.9303 24.293 24.293 0 0 1 9.3749-1.7853zm0 39.769a15.545 15.545 0 0 0 6.2282-1.233 14.91 14.91 0 0 0 4.9303-3.4049 16.051 16.051 0 0 0 3.2766-5.1577 17.423 17.423 0 0 0 1.1989-6.5532 17.67 17.67 0 0 0-1.1989-6.584 15.975 15.975 0 0 0-3.2766-5.1902 14.546 14.546 0 0 0-4.9303-3.374 16.757 16.757 0 0 0-12.456 0 14.856 14.856 0 0 0-4.9628 3.374 15.252 15.252 0 0 0-3.2766 5.1902 18.095 18.095 0 0 0-1.168 6.584 17.842 17.842 0 0 0 1.168 6.5532 15.132 15.132 0 0 0 8.2394 8.5626 15.534 15.534 0 0 0 6.2282 1.233z" style="isolation:isolate"/>
  <path id="am" d="m495.54 85.637q0.0634-1.6862 0.2258-4.8653 0.16326-3.1775 0.38988-7.1038 0.22661-3.9231 0.45485-8.1744 0.22662-4.2472 0.45323-8.1744 0.22662-3.9231 0.42237-7.0714 0.19493-3.1458 0.32327-4.8328a4.0007 4.0007 0 0 1 1.5579-3.3091 5.6233 5.6233 0 0 1 3.2441-0.97306 8.0801 8.0801 0 0 1 3.3074 0.58481 6.3875 6.3875 0 0 1 1.8178 1.1014q0.77731 1.5571 2.3669 4.7695 1.5887 3.2116 3.439 6.9414 1.8495 3.7306 3.6973 7.3638 1.8495 3.6332 3.0816 6.0333 1.1038-2.2052 2.7567-5.4826 1.6545-3.275 3.3091-6.6165 1.6545-3.3407 3.1141-6.2932 1.4596-2.9509 2.2385-4.5745a7.3141 7.3141 0 0 1 2.271-2.8542 5.8891 5.8891 0 0 1 3.5024-0.97306 9.0913 9.0913 0 0 1 3.1791 0.48734 5.344 5.344 0 0 1 1.6228 0.81061q0.12915 1.8178 0.32327 5.2552 0.19494 3.4382 0.42236 7.622 0.22662 4.1838 0.48572 8.7592 0.2583 4.5737 0.51984 8.7576 0.25829 4.1838 0.42074 7.5896 0.16326 3.4065 0.2924 5.2227h-7.5896q-0.0658-1.0356-0.19494-3.5998-0.13158-2.5634-0.32489-5.9358-0.19494-3.3724-0.38988-7.1038-0.19249-3.7306-0.38825-7.0714-0.19494-3.3407-0.35738-5.905-0.16326-2.561-0.22743-3.5349-0.58238 1.1672-1.5562 3.1141-0.97226 1.9469-2.1086 4.2496-1.1355 2.3027-2.3685 4.8328-1.233 2.5293-2.3669 4.8328-1.1355 2.3051-2.0761 4.2821-0.943 1.9786-1.5254 3.1466h-6.3566q-0.77976-1.752-2.271-4.8328-1.4937-3.0824-3.2116-6.5856-1.7203-3.504-3.439-6.9414-1.7179-3.4382-3.0816-5.9683-0.0634 1.5571-0.2258 4.1522-0.16326 2.5951-0.3249 5.7734-0.16326 3.1799-0.35738 6.5856-0.19494 3.4041-0.35577 6.584-0.16326 3.1799-0.2924 5.7734-0.13158 2.5975-0.19494 4.1522z" style="isolation:isolate"/>
  <path id="an" d="m564.47 45.545q0-4.4105 4.737-4.4121h24.911q3.8939 0 3.8922 3.504a6.1684 6.1684 0 0 1-0.38825 2.2369 10.254 10.254 0 0 1-0.58481 1.3304h-24.716v11.159h20.889q3.8281 0 3.8273 3.504a6.6783 6.6783 0 0 1-0.35577 2.2385 5.2026 5.2026 0 0 1-0.6173 1.3288h-23.743v12.132h25.301v7.0714h-33.152z" style="isolation:isolate"/>
  <path id="ao" d="m616.35 45.35a4.7318 4.7318 0 0 1 0.64979-2.6593 3.9901 3.9901 0 0 1 2.3019-1.4604 19.357 19.357 0 0 1 4.4121-0.61567q2.7559-0.12915 7.0389-0.13a35.774 35.774 0 0 1 11.061 1.5887 23.683 23.683 0 0 1 8.3043 4.542 19.583 19.583 0 0 1 5.2227 7.2013 23.961 23.961 0 0 1 1.8162 9.5032 24.899 24.899 0 0 1-1.7512 9.5698 19.221 19.221 0 0 1-5.1577 7.2338 23.23 23.23 0 0 1-8.4343 4.5729 38.454 38.454 0 0 1-11.579 1.5904q-6.9446 0-10.25-0.2924-3.3091-0.29241-3.634-0.35739zm7.7211 33.541a13.273 13.273 0 0 0 2.0761 0.2924q1.6862 0.16083 4.7354 0.16083 8.8209 0 13.495-4.183 4.6712-4.1863 4.6704-11.841a18.812 18.812 0 0 0-1.0705-6.4541 13.038 13.038 0 0 0-3.2766-5.0602 15.368 15.368 0 0 0-5.6434-3.3091 24.9 24.9 0 0 0-8.1744-1.2005q-3.1141 0-4.8328 0.16244-1.7203 0.16326-1.9786 0.22743z" style="isolation:isolate"/>
  <path id="ap" d="m685.29 68.9q-1.5571-1.8154-3.4715-4.3471-1.9128-2.5293-3.8598-5.0927-1.9469-2.561-3.6323-4.8653-1.6886-2.3027-2.7259-3.7948-1.1672-1.6228-2.2694-3.3416a5.876 5.876 0 0 1-1.103-3.0816 3.0266 3.0266 0 0 1 0.97307-2.3685 3.732 3.732 0 0 1 2.5943-0.87559 5.7658 5.7658 0 0 1 2.1086 0.32489c0.541 0.21606 0.91783 0.36713 1.1355 0.45323q0.97225 1.4937 2.7242 4.0222 1.752 2.5318 3.7964 5.4176 2.042 2.8875 4.1181 5.7409 2.0761 2.8558 3.6989 4.9319 1.5571-2.0761 3.2116-4.4446t3.2425-4.7354q1.5912-2.3685 3.0492-4.6395 1.4596-2.2686 2.6284-4.0872a9.4285 9.4285 0 0 1 1.8162-2.0436 4.6639 4.6639 0 0 1 3.1141-0.94057 5.7249 5.7249 0 0 1 2.9192 0.68065 9.1222 9.1222 0 0 1 1.4279 0.9422q-0.58482 1.1672-1.7528 3.0816-1.1672 1.9128-2.6918 4.2155-1.5254 2.3051-3.2766 4.8669-1.752 2.5634-3.5349 5.0602-1.7861 2.4976-3.4715 4.8003-1.6862 2.3027-3.0492 4.1197v16.737h-7.7195z" style="isolation:isolate"/>
 </g>
 <path id="aq" d="m146.22-1.2216h3e-3v18.34a23.853 23.853 0 0 1-23.853 23.853h-3e-3v-18.34a23.853 23.853 0 0 1 23.853-23.853z" fill="url(#f)" style="isolation:isolate"/>
 <path id="ar" d="m84.664 39.687a156.64 156.64 0 0 0 21.083 10.433l9.1933-23.132v-28.21c-9.1169 1.1234-19.395 13.296-22.56 22.099l-7.7163 18.81z" fill="#184b7f" style="isolation:isolate"/>
 <path id="as" d="m122.36 56.081-5.1e-4 10.258v33.576a23.855 23.855 0 0 0 23.855 23.855v-61.562a194.67 194.67 0 0 1-23.855-6.1269z" fill="url(#c)" style="isolation:isolate"/>
 <path id="at" d="m225.9 62.723c-12.461 4.3608-32.144 5.4769-48.388 3.5908v-3e-3c-6.6768-0.53693-14.833-1.4434-23.855-2.9608v60.309a23.855 23.855 0 0 0 23.855-23.855v-9.6462c9.9656 0.53948 18.69 0.59815 24.47 0.59815 16.762 0 34.045-3.5367 46.68-13.297a41.332 41.332 0 0 0 16.52-32.615 142.29 142.29 0 0 1-39.282 17.879z" fill="url(#h)" style="isolation:isolate"/>
 <path id="au" d="m177.51 66.311v-27.124c0-10.651 4.4913-17.886 11.232-18.293l41.566 1.8e-4c5.0566 0.39789 8.8109 4.6814 10.318 11.363a72.784 72.784 0 0 1 0.734 11.267c0 6.4339-2.3142 11.219-7.2832 15.057a29.36 29.36 0 0 1-8.1786 4.1419 142.29 142.29 0 0 0 39.282-17.879c0.0118-0.44 0.0344-0.87579 0.0344-1.3201a109.38 109.38 0 0 0-0.49806-11.256h0.0672c-0.0974-0.794-0.21733-1.5754-0.3478-2.3506a49.691 49.691 0 0 0-3.6406-13.449c-5.1516-11.607-15.037-18.379-28.027-19.337l-3.235-0.13066h-40.198l-3.2349 0.13057c-12.99 0.95808-22.875 7.7304-28.027 19.337a49.184 49.184 0 0 0-3.5662 12.981 54.853 54.853 0 0 0-0.81639 7.8275h-0.0368v26.074c9.0221 1.5174 17.178 2.4238 23.855 2.9608z" fill="#184b7f" style="isolation:isolate"/>
 <path id="av" d="m55.088 123.65h4.765a24.589 24.589 0 0 0 23.139-16.269l22.756-57.257a156.64 156.64 0 0 1-21.083-10.433h-9e-5l-23.827 58.083a3.0675 3.0675 0 0 1-2.5836 2.0094h-1.5666a3.0675 3.0675 0 0 1-2.5837-2.0094l-31.924-77.917c-3.1654-8.8028-13.062-19.951-22.179-21.074v28.21l31.949 80.389a24.589 24.589 0 0 0 23.139 16.269z" fill="url(#g)" style="isolation:isolate"/>
</svg>
