<?xml version="1.0" encoding="UTF-8"?>
<svg id="svg39" width="956.74pt" height="395.66pt" version="1.1" viewBox="0 0 956.74 395.66" xmlns="http://www.w3.org/2000/svg" xmlns:cc="http://creativecommons.org/ns#" xmlns:dc="http://purl.org/dc/elements/1.1/" xmlns:rdf="http://www.w3.org/1999/02/22-rdf-syntax-ns#">
 <metadata id="metadata45">
  <rdf:RDF>
   <cc:Work rdf:about="">
    <dc:format>image/svg+xml</dc:format>
    <dc:type rdf:resource="http://purl.org/dc/dcmitype/StillImage"/>
    <dc:title/>
   </cc:Work>
  </rdf:RDF>
 </metadata>
 <g id="#9f0090ff" transform="translate(-60.146 -56.354)" fill="#9f0090">
  <path id="path7" d="m64.4 56.48c6.85-0.24 13.72 0.33 20.58 0.29 37.33 1.53 74.73 1.3 112.06-0.02 5.85-0.04 11.7-0.38 17.55-0.31 2.95 4.71 2.76 10.83 0.7 15.84-0.33 1.31-1.64 1.68-2.79 1.96-6.32 1.44-12.83 2.18-19 4.25-3.29 1.09-6.47 3.25-7.79 6.58-0.53 3.18 0.81 6.25 1.69 9.23 6.94 20.58 15.44 40.59 23.19 60.87l58.78 150.49h1.21l39.57-94.51c12.49-32 24.85-64.05 36.84-96.24 3-8.59 6.53-17.06 8.47-25.96 0.72-2.65-0.18-5.54-2.81-6.68-9.22-4.84-19.88-5.6-29.78-8.35-3.14-1.53-3.5-5.77-3.58-8.87 0.05-3.76 2.15-9.19 6.71-8.66 29.64 1.16 59.31 1.94 88.97 1.06 7.58-0.36 15.16-0.88 22.74-1.06 3.05 4.39 3.55 10.22 1.8 15.2-0.71 2.81-4.09 2.64-6.34 3.24-10.25 2.11-21.29 3.06-30.1 9.23-6.39 4.48-10.1 11.54-14.05 18.05-9.52 16.73-17.2 34.42-24.97 52.01l-45.99 109.09-33.7 84.27c-7.12 18.85-14 37.78-21.33 56.55-0.84 1.71-1.3 3.96-3.23 4.79-3.93 2-8.36 2.86-12.74 2.91-5.45 0.08-11.34 0.5-16.16-2.54-1.9-0.93-2.36-3.16-3.16-4.92-7.66-20.41-14.26-41.22-22.59-61.38l-82.64-208.4c-4.99-12.2-9.59-24.58-15.57-36.34-2.6-4.87-5.39-9.86-9.7-13.43-5.3-4.08-12.1-5.11-18.39-6.77-5.03-1.34-10.13-2.4-15.13-3.84-2.35-0.56-2.99-3.27-3.37-5.32-0.6-4.34-0.05-9.8 4.05-12.31z"/>
  <path id="path9" d="m643.43 195.61c6.1-1.16 13.06 1.29 15.79 7.16 3.99 9.58-0.01 22.37-9.75 26.74-7.19 3.56-17.62 2.19-21.64-5.37-5.76-11.49 2.89-27.04 15.6-28.53z"/>
  <path id="path11" d="m389.52 196.71c6.22-2.35 14.69-1.92 18.82 3.96 5.49 8.6 2.63 21.24-5.53 27.15-7.43 5.52-20.05 4.85-24.76-3.86-4.82-10.1 1.2-23.31 11.47-27.25z"/>
  <path id="path13" d="m459.92 228.99c5.27-1.39 11.41-1 15.46 3.04-2.1 8.04-4.63 15.96-7.05 23.9 8.3 0.63 16.65-0.32 24.94 0.58 1.47 3.39 0.8 6.97-0.11 10.41 7.96-7.41 17.7-14.02 28.92-14.49 5.22-0.32 11.62 1.39 13.55 6.84 2.63 8.01-1.11 16.16-3.53 23.73-2.28 7.47-5.57 14.64-7.09 22.32 1.38-1.43 2.63-2.99 3.58-4.73 6.06-11.01 12.5-21.88 20.22-31.83 5.1-6.45 10.93-13.18 19.1-15.58 4.92-1.59 11.09-0.85 14.45 3.42 3.53 4.66 3.51 10.93 2.77 16.46-1.38 7.01-4.81 14.08-10.88 18.16-2.52 1.49-5.89 2.96-8.63 1.18-4.9773-3.8466-2.8757-11.697-6.6426-16.065-0.93983-1.3018-2.4593-1.0138-3.708-0.50317-2.8469 1.1905-4.8143 4.3802-6.7395 6.678-15.77 22.93-25.75 49.11-36.22 74.72-1.18 3.96-5.67 5.11-9.3 5.37-5.48 0.28-11.7 0.2-16.13-3.49-2.31-2.08-1.74-5.49-0.89-8.11 7.1-22.08 14.7-44 22.01-66.01 1.39-4.48 4.01-9.33 2-14.03-9.81 1.36-16.37 9.75-23.22 16.09-1.96-1.06-4.31-2.45-4.27-5 1.57-4.9 5.31-8.68 8.34-12.73-8.24 0.08-16.47-0.06-24.69 0.02-1.51-0.27-1.82 1.55-2.33 2.53-7.55 21.13-15.21 42.23-22.78 63.36-0.87 2.13-0.91 4.45-0.86 6.72 1.75 0.47 3.56 0.47 5.17-0.48 9.58-4.59 17.18-12.24 24.87-19.37 2.34 0.97 5.18 2.72 4.5 5.72-1.04 2.67-3.23 4.69-5.07 6.84-10.4 11.12-23.07 20.42-37.47 25.6-5.11 1.71-10.56 2.89-15.96 2.25-6.08-1-10.72-7.4-9.4-13.5 1.53-9.56 5.45-18.5 8.45-27.65 5.81-17.36 12.15-34.55 17.71-51.99-6.63-0.24-13.28 0.34-19.89-0.34-0.77-3.31-0.18-7.89 3.43-9.23 6.85-1.72 13.84-2.81 20.71-4.45 2.12-0.71 3.18-2.94 4.57-4.53 4.25-5.75 8.58-11.45 12.8-17.22 1.44-1.85 2.9-3.99 5.31-4.61z"/>
  <path id="path15" d="m884.15 251.06c1.28-2.46 4.37-2.65 6.82-2.7 7.22-0.32 14.92 1.93 19.7 7.63-9.59 24.12-19.38 48.17-27.95 72.68-1.56 4.68-3.91 9.23-4.03 14.27 1.76-0.2 3.64-0.15 5.29-0.96 7.9-3.69 14.59-9.37 21.1-15.07 2.29 0.88 3.79 2.78 4.65 5.03-8.82 12.57-21.7 22.22-36.03 27.66-5.62 2-11.6 3.46-17.6 2.98-5.63-0.67-9.62-6.96-8.13-12.37 2.45-9.78 7.34-18.75 10.1-28.42-3.66 3.14-6.25 7.26-9.6 10.7-10.13 10.75-21.6 20.65-35.2 26.72-5.4 2.27-11.27 4.01-17.17 3.34-8.06-1.29-14.45-9.39-13.53-17.56 0.43-4.83 1.72-9.56 3.37-14.11 10.38-27.69 29.76-52.61 55.67-67.31 7.49-4.16 15.87-7.04 24.49-7.39 4.91-0.22 8.82 3.17 12.75 5.6 1.82-3.55 3.32-7.26 5.3-10.72m-35.63 24.43c-10.48 11.89-18.75 25.69-24.78 40.32-2.93 7.38-5.62 15.16-5.28 23.21-0.03 1.81 0.91 3.77 2.63 4.55 3.83 0.28 6.83-2.65 9.7-4.78 19.05-16.52 32.17-38.73 41.83-61.76-2.01-4.13-4.71-9.08-9.77-9.7-6.04-0.74-10.54 4.22-14.33 8.16z"/>
  <path id="path17" d="m373.7 254.71c4.45-1.37 9.14-2.77 13.84-2.09 4.86 1.2 9.16 5.3 9.91 10.34-0.08 4.51-2.15 8.68-3.71 12.83-8.61 20.11-17.08 40.27-25.7 60.36-0.77 2.13-2.48 4.75-0.28 6.63 9.61-3.74 17.58-10.55 25.39-17.11 2.65 1.04 5.79 3.99 3.81 6.96-9.72 12.11-22.77 21.6-37.31 27.05-6.14 2.01-12.74 3.77-19.22 2.65-4.84-1.66-9.91-6.43-8.82-11.99 0.98-5.34 3.57-10.19 5.52-15.21 7.9-18.76 15.65-37.6 23.63-56.33 0.74-1.77 0.89-3.7 1.04-5.6-9.67 2.1-16.76 9.73-24.71 15.09-1.66-1.4-3.83-2.81-3.7-5.27 1.67-3.06 4.26-5.49 6.78-7.87 9.67-8.92 21.01-16.24 33.53-20.44z"/>
  <path id="path19" d="m617.12 257.06c5.12-2.23 10.52-3.93 16.08-4.55 5.53-0.81 11.03 2.93 13.12 7.95 1.48 4.33-0.51 8.81-1.98 12.87-7.93 18.97-16.09 37.85-24.1 56.79-1.62 3.87-3.8 7.62-4.13 11.89 1.48 0.33 3.03 0.25 4.39-0.52 8.06-3.87 14.88-9.77 21.82-15.3 2.85-0.63 4.27 2.72 5.29 4.81-4.95 7.44-11.91 13.29-19.09 18.5-10.19 7.02-21.94 12.77-34.52 13.19-5.48 0.54-10.43-3.47-12.53-8.27-1.15-4.62 1.28-9.11 2.79-13.36 7.66-18.3 15.3-36.61 22.99-54.9 1.3083-3.2474 2.938-6.4341 3.8124-9.8341 1.0926-3.4363-0.17352-3.2526-2.9615-2.303-2.1215 0.73411-4.0805 1.9735-6.0008 3.127-4.69 2.89-8.98 6.33-13.31 9.7-3.01 3.13-7.46-2.66-4.74-5.46 8.8-10.66 20.54-18.67 33.07-24.33z"/>
  <path id="path21" d="m749.96 254.25c6.32-1.9 13.6-3.04 19.7 0.17 5.26 2.68 8.13 8.79 7.61 14.57-0.58 6.77-2.29 13.41-4.6 19.78-5.91 15.79-12.74 31.21-19.2 46.77-0.77 1.92-1.62 4-1.03 6.1 1.66 1.78 3.78 0.02 5.5-0.74 7.54-4.41 13.72-10.68 20.01-16.66 2.27 0.8 3.89 2.39 4.59 4.71-7.24 12.3-18.48 22.1-31.27 28.31-7.26 3.4-15.22 5.6-23.28 5.43-5.9 0.04-11.78-5.53-10.73-11.64 0.42-4.49 2.27-8.68 3.98-12.81 8.43-19.86 17.12-39.65 24.09-60.09 0.82-2.82 2.5-6.94-0.82-8.77-4.1-0.98-7.64 2.13-10.58 4.53-12.5 11.37-21.12 26.2-29.26 40.82-6.76 12.46-12.95 25.22-18.96 38.05-1.29 2.59-2.18 5.56-4.37 7.55-3.9 2.64-8.91 2.48-13.41 2.26-3.69-0.35-7.93-1.15-10.32-4.26-1.85-2.3-0.84-5.27 0.03-7.73 8.14-22.85 16.22-45.73 24.36-68.59 0.77929-2.0492 0.9442-4.2338 0.71265-6.3847-0.067-2.4909-0.92195-2.5578-3.0194-2.173-8.2812 1.542-14.413 8.5555-21.023 13.368-2.61 0.59-5.62-2.54-3.86-4.98 2.57-4.57 6.06-8.58 9.88-12.15 10.28-9.32 23.27-16.47 37.34-17.26 3.73-0.19 8.41 0.62 10.14 4.4 2.66 5.32-0.37 11.07-2.1 16.19-3.29 9.38-7.78 18.39-10.16 28.05 6.06-7.04 10.99-15.02 17.22-21.96 9.07-10.33 19.41-20.58 32.83-24.86z"/>
  <path id="path23" d="m60.4 445.02h954.94v6.99h-954.94z"/>
 </g>
 <g id="#d881c8ff" transform="translate(-60.146 -56.354)" fill="#d881c8">
  <path id="path26" d="m469.94 59.865h197.01v65.335h-66.87v129.73c0.09 4.15-4.31 5.47-7.09 7.51-1.9-4.86-3.38-10.4-7.87-13.58-7.41-5.42-17.75-4.48-25.48-0.26-6.21 3.15-10.71 8.56-15.47 13.47-1.13-3.2-1.89-6.61-3.83-9.45-2.27-2.91-6.22-4.76-9.2-6.84v-120.58h-61.2z"/>
  <path id="path28" d="m696.69 59.96h69.8l67.98 198.88c-14.43 9.43-27.36 21.22-37.27 35.37-4.88 6.56-8.67 13.81-12.9 20.78l-5.55-15.84c-1.43-3.88 1.03-7.63 2.02-11.3 2.26-7.64 4.63-15.58 3.67-23.63-0.95-7.33-5.84-14.13-12.7-17-3.68-1.45-7.63-1.93-11.5-2.54z"/>
  <path id="path30" d="m947.29 59.96h69.6l-99.77 270.26c-1.97-4.16-4.32-9.07-9.36-9.97-7.27-2.23-11.61 5.39-16.93 8.74l23.09-61.11c1.58-4.35 4.48-8.68 3.71-13.49-1.7-5.47-6.96-8.93-12.04-10.93-6.09-2.15-12.82-3.79-19.2-1.98-2.3 0.6-4.5 1.46-6.73 2.24 7.04-20.41 14.98-40.5 22.23-60.83 15.21-40.89 30.1-82.08 45.4-122.93z"/>
  <path id="path32" d="m536.71 318.68c5.31-10.87 10.71-21.81 17.82-31.63 1.78 4.54 3.18 10.17 8.19 12.19 5.58 2.86 11.96 0.62 16.76-2.73 3.23-2.5 7.52-0.57 11.09-1.98 2.44-1.23 4.51-3.06 6.74-4.62-6.71 17.77-14.73 35.03-21.62 52.73-1.52 4.43-3.06 9.36-1.3 13.97 2.54 6.99 9.12 12.68 16.67 13.26 2.69 0.29 6.31 0.28 9.02 0.35v46.955h-68.94v-81.205c-0.06-6.31 3.17-11.7 5.57-17.29z"/>
  <path id="path34" d="m835.03 308.99c3.18-6.05 6.27-12.26 10.81-17.43l4.07 12.31c-0.87 3.08-3 5.6-4.82 8.19-5.52 7.22-11.37 14.33-18.48 20.05 1.16-8.21 4.86-15.73 8.42-23.12z"/>
  <path id="path36" d="m868.62 368.76c17.5-3.93 32.37-15.05 44.4-27.95l-28.18 76.285h-65.51l-15.85-47.025c4.91-1.58 9.99-2.71 14.68-4.92 7.88-3.58 14.85-8.8 21.72-14 0.8 5.29 1.91 11.09 6.28 14.7 6.09 5.51 15.04 4.77 22.46 2.91z"/>
 </g>
</svg>
