<svg width="359.87pt" height="113.86pt" version="1.1" viewBox="0 0 359.87 113.86" xmlns="http://www.w3.org/2000/svg">
 <defs>
  <linearGradient id="a" x1="228.15" x2="360.93" y1="55.572" y2="145.36" gradientUnits="userSpaceOnUse">
   <stop stop-color="#dd137b" offset="0"/>
   <stop stop-color="#c90832" offset="1"/>
  </linearGradient>
 </defs>
 <g transform="translate(-20.07 -43.009)" fill="url(#a)">
  <path d="m234.24 43.3c1.23-0.23 2.48-0.315 3.74-0.285h123.02c5.89 0 11.59 3.275 14.85 8.155 3.63 5.44 4.82 12.28 3.67 18.7l-5.08 65.02c-1.17 10.9-9.99 21.355-21.35 21.975h-123.16c-5.21 0.09-10.52-1.945-14.03-5.855-4.49-4.79-6.2-11.64-5.59-18.07l5.04-67c0.81-10.45 8.34-20.54 18.89-22.64" fill="url(#a)"/>
 </g>
 <path d="m272.55 77.521 3.8243-43.423c6.4088 0.05112 12.818-0.06389 19.226 0.05112 4.4827 0.19168 9.6728 1.2204 12.173 4.9966 1.9822 3.2778 1.9892 7.514 0.21012 10.868-1.0856 2.1469-3.404 3.3289-5.3582 4.7218 2.8857 1.5015 5.5753 3.6292 6.6049 6.6131 1.5899 4.7857-0.60937 10.46-5.2181 13.207-3.6772 2.2746-8.2229 2.9839-12.594 2.9711-6.2898 6e-3 -12.58 6e-3 -18.869-6e-3m11.095-36.974-0.97357 11.952h7.2046c2.2831 0 4.5543-0.07767 6.7757-0.60062 3.8173-0.83063 5.9746-4.8688 4.7418-8.1785-1.0926-2.2746-4.0624-2.888-6.5139-3.0733-1.359-0.08358-2.7189-0.09998-4.0794-0.09998h-7.1553m-2.5005 30.529h7.9912c1.4743 0 2.9482-0.023 4.4202-0.0981 2.5495-0.20446 5.3932-0.94564 6.8361-3.0222 2.0662-2.8816 1.2257-7.5843-2.6476-8.76-2.0227-0.58417-4.1014-0.81537-6.2023-0.81537h-9.361z" fill="#fff" stroke-width=".66898"/>
 <path d="m89.29 22.571c8.81-2.37 18.71-1.3 26.47 3.66 8.81 5.57 15.28 15.24 15.69 25.81 1.09 16.18-9.25 31.89-23.78 38.57-9.98 4.36-22.26 4.05-31.55-1.87-7.16-4.65-12.56-12.1-14.38-20.47-1.99-10.09 0.09-20.96 6-29.41 5.25-7.46 12.61-13.85 21.55-16.29m3.04 11.09c-14.32 3.49-22.81 20.54-17.97 34.26 2.69 7.78 10.15 13.98 18.57 13.97 7.41 0.66 14.77-2.67 19.56-8.27 8.53-9.05 9.68-24.85 0.93-34.14-5.19-5.85-13.69-7.43-21.09-5.82z" fill="#3a362e"/>
 <path d="m0 91.671 5.46-67.96c9.15 0.08 18.3-0.1 27.45 0.08 6.4 0.3 13.81 1.91 17.38 7.82 2.83 5.13 2.84 11.76 0.3 17.01-1.55 3.36-4.86 5.21-7.65 7.39 4.12 2.35 7.96 5.68 9.43 10.35 2.27 7.49-0.87 16.37-7.45 20.67-5.25 3.56-11.74 4.67-17.98 4.65-8.98 0.01-17.96 0.01-26.94-0.01m15.84-57.866-1.39 18.706h10.286c3.2596 0 6.5023-0.12156 9.6738-0.94002 5.45-1.3 8.53-7.62 6.77-12.8-1.56-3.56-5.8-4.52-9.3-4.81-1.9403-0.1308-3.8819-0.15647-5.8243-0.15647h-10.216m-3.57 47.78h11.409c2.105 0 4.2092-0.036 6.3108-0.1536 3.64-0.32 7.7-1.48 9.76-4.73 2.95-4.51 1.75-11.87-3.78-13.71-2.8878-0.91427-5.8557-1.2761-8.8552-1.2761h-13.365z" fill="#3a362e"/>
 <path d="m133.83 23.736h48.03l-0.69 10.87h-18.31l-4.28 57.07h-11.63l4.3-57.07h-18.17z" fill="#3a362e"/>
 <path d="m235.92 34.136h34.413l-0.49438 6.9438h-13.119l-3.0666 36.456h-8.3327l3.0809-36.456h-13.018z" fill="#fff" stroke-width=".67653"/>
</svg>
