<?xml version="1.0" encoding="UTF-8"?>
<!-- Created with Inkscape (http://www.inkscape.org/) -->
<svg id="svg2" width="705.01" height="800" version="1.1" viewBox="0 0 705.01 800" xml:space="preserve" xmlns="http://www.w3.org/2000/svg" xmlns:cc="http://creativecommons.org/ns#" xmlns:dc="http://purl.org/dc/elements/1.1/" xmlns:rdf="http://www.w3.org/1999/02/22-rdf-syntax-ns#"><metadata id="metadata8"><rdf:RDF><cc:Work rdf:about=""><dc:format>image/svg+xml</dc:format><dc:type rdf:resource="http://purl.org/dc/dcmitype/StillImage"/><dc:title/></cc:Work></rdf:RDF></metadata><defs id="defs6"><clipPath id="clipPath366"><path id="path364" d="m0 0h839.06v595.28h-839.06z"/></clipPath></defs><g id="g10" transform="matrix(1.3333 0 0 -1.3333 -244.69 1243.2)"><g id="g360" transform="matrix(9.4848 0 0 9.4848 -85.342 -2820.4)"><g id="g362" clip-path="url(#clipPath366)"><g id="g368" transform="translate(44.489 346.54)"><path id="path370" d="m0 0c0.04 0.082 0.034 0.181-0.015 0.258l-3.117 4.794 2.768 3.358c0.061 0.073 0.076 0.178 0.038 0.267-0.037 0.089-0.12 0.147-0.212 0.147h-0.897c-0.067 0-0.131-0.031-0.175-0.086l-2.469-3.031v2.868c0 0.137-0.104 0.249-0.233 0.249h-0.713c-0.128 0-0.232-0.112-0.232-0.249v-2.866l-2.456 3.029c-0.044 0.054-0.108 0.086-0.176 0.086h-0.897c-0.091 0-0.174-0.058-0.212-0.147-0.037-0.089-0.023-0.194 0.038-0.267l2.768-3.358-3.129-4.794c-0.049-0.076-0.055-0.176-0.015-0.258s0.119-0.134 0.206-0.134h0.86c0.077 0 0.148 0.04 0.191 0.108l2.699 4.183 0.123-0.146v-3.896c0-0.137 0.104-0.249 0.232-0.249h0.713c0.129 0 0.233 0.112 0.233 0.249v3.896l0.124 0.146 2.71-4.184c0.044-0.067 0.115-0.107 0.191-0.107h0.848c0.087 0 0.166 0.052 0.206 0.134" fill="#49b072"/></g><g id="g372" transform="translate(52.521 346.66)"><path id="path374" d="m0 0v8.46c0 0.137-0.104 0.248-0.232 0.248h-0.836c-0.078 0-0.151-0.042-0.194-0.112l-3.975-6.497v6.361c0 0.137-0.104 0.248-0.232 0.248h-0.725c-0.128 0-0.232-0.111-0.232-0.248v-8.46c0-0.138 0.104-0.249 0.232-0.249h0.787c0.078 0 0.151 0.042 0.194 0.113l4.011 6.586v-6.45c0-0.138 0.104-0.249 0.232-0.249h0.738c0.128 0 0.232 0.111 0.232 0.249" fill="#49b072"/></g><g id="g376" transform="translate(59.969 351.76)"><path id="path378" d="m0 0c0.234 0.378 0.352 0.803 0.352 1.264v0.171c0 0.01 0 0.02-2e-3 0.031-0.091 0.804-0.425 1.367-0.992 1.674-0.524 0.283-1.1 0.44-1.721 0.468h-2.84c-0.128 0-0.232-0.111-0.232-0.249v-8.459c0-0.138 0.104-0.249 0.232-0.249h3.015c0.578 9e-3 1.134 0.108 1.651 0.296 0.571 0.207 0.963 0.715 1.164 1.508 2e-3 8e-3 3e-3 0.017 5e-3 0.025l0.049 0.33c9e-3 0.059 0.016 0.121 0.021 0.186 4e-3 0.063 6e-3 0.124 6e-3 0.183 0 0.541-0.15 1.048-0.447 1.506-0.204 0.316-0.464 0.562-0.774 0.737 0.201 0.158 0.373 0.351 0.513 0.578m-4.245 2.425h1.513c0.629 0 1.116-0.1 1.448-0.298 0.292-0.174 0.434-0.491 0.434-0.968 0-0.835-0.341-0.986-0.452-1.035-0.369-0.163-0.786-0.25-1.233-0.258h-1.71zm3.751-5.219c0-0.911-0.361-1.063-0.479-1.113-0.389-0.163-0.852-0.246-1.378-0.246h-1.894v2.862h1.931c0.514 0 0.962-0.111 1.331-0.331 0.329-0.196 0.489-0.58 0.489-1.172" fill="#49b072"/></g><g id="g380" transform="translate(68.931 346.52)"><path id="path382" d="m0 0c0.043 0.067 0.053 0.153 0.026 0.23l-2.987 8.459c-0.034 0.097-0.121 0.161-0.217 0.161h-0.885c-0.097 0-0.183-0.064-0.217-0.161l-2.987-8.459c-0.027-0.077-0.018-0.163 0.026-0.23 0.043-0.067 0.115-0.108 0.191-0.108h0.762c0.097 0 0.184 0.065 0.218 0.163l0.841 2.446h3.217l0.841-2.446c0.033-0.098 0.12-0.163 0.218-0.163h0.762c0.076 0 0.148 0.041 0.191 0.108m-4.821 3.685 1.2 3.396 1.201-3.396z" fill="#49b072"/></g><g id="g384" transform="translate(76.308 355.37)"><path id="path386" d="m0 0h-3.012c-0.101 0-0.204-2e-3 -0.31-7e-3 -0.106-4e-3 -0.209-0.011-0.312-0.02-0.2-0.019-0.398-0.054-0.589-0.106-0.2-0.053-0.392-0.134-0.574-0.241-0.313-0.188-0.565-0.448-0.749-0.774-0.18-0.317-0.432-0.934-0.365-1.534 0.068-0.6 0.175-0.854 0.412-1.247 0.156-0.259 0.354-0.473 0.592-0.639-0.244-0.173-0.406-0.389-0.483-0.644-0.1-0.33-0.163-0.721-0.189-1.162 0-5e-3 -0.013-0.117-0.012-0.14l-0.097-1.264c-9e-3 -0.049-0.029-0.237-0.034-0.275-0.014-0.07-0.033-0.137-0.058-0.198-0.022-0.051-0.056-0.102-0.1-0.15-0.044-0.046-0.068-0.11-0.068-0.176v-0.131c0-0.138 0.104-0.249 0.232-0.249h0.811c0.091 0 0.174 0.057 0.212 0.146 0.091 0.215 0.153 0.466 0.185 0.745 0.029 0.258 0.052 0.528 0.069 0.82l0.037 0.752c7e-3 0.154 0.022 0.298 0.046 0.434 0.06 0.398 0.19 0.644 0.388 0.732 0.249 0.11 0.567 0.165 0.944 0.165h2.054v-3.545c0-0.138 0.104-0.249 0.232-0.249h0.738c0.128 0 0.232 0.111 0.232 0.249v8.459c0 0.138-0.104 0.249-0.232 0.249m-0.97-3.979h-2.001c-0.432 8e-3 -0.742 0.081-1.198 0.28-0.803 0.405-0.493 1.781-0.215 2.101s0.842 0.386 1.057 0.404c0.055 7e-3 0.109 0.011 0.162 0.011h2.195z" fill="#49b072"/></g><g id="g388" transform="translate(34.54 343.29)"><path id="path390" d="m0 0h-5.962c-0.128 0-0.232-0.111-0.232-0.249v-8.459c0-0.138 0.104-0.249 0.232-0.249h0.725c0.129 0 0.233 0.111 0.233 0.249v7.525h4.034v-7.525c0-0.138 0.104-0.249 0.233-0.249h0.737c0.128 0 0.232 0.111 0.232 0.249v8.459c0 0.138-0.104 0.249-0.232 0.249" fill="#49b072"/></g><g id="g392" transform="translate(41.896 342.73)"><path id="path394" d="m0 0c-0.532 0.372-1.197 0.561-1.977 0.561h-2.753c-0.129 0-0.233-0.112-0.233-0.249v-8.46c0-0.137 0.104-0.249 0.233-0.249h0.725c0.128 0 0.232 0.112 0.232 0.249v3.428h1.442c0.81 9e-3 1.536 0.181 2.16 0.513 0.677 0.361 1.02 1.092 1.02 2.174 0 0.954-0.286 1.638-0.849 2.033m-0.897-3.235c-0.406-0.192-0.885-0.289-1.424-0.289h-1.452v2.902h1.759c0.487 0 0.895-0.106 1.213-0.313 0.285-0.186 0.423-0.545 0.423-1.098 0-0.645-0.169-1.038-0.519-1.202" fill="#49b072"/></g><g id="g396" transform="translate(50.05 343.29)"><path id="path398" d="m0 0h-0.836c-0.078 0-0.151-0.042-0.194-0.112l-3.974-6.497v6.36c0 0.138-0.104 0.249-0.233 0.249h-0.725c-0.128 0-0.232-0.111-0.232-0.249v-8.459c0-0.138 0.104-0.249 0.232-0.249h0.787c0.078 0 0.151 0.042 0.194 0.112l4.011 6.586v-6.449c0-0.138 0.104-0.249 0.232-0.249h0.738c0.128 0 0.232 0.111 0.232 0.249v8.459c0 0.138-0.104 0.249-0.232 0.249" fill="#49b072"/></g><g id="g400" transform="translate(57.406 342.73)"><path id="path402" d="m0 0c-0.532 0.372-1.197 0.561-1.977 0.561h-2.754c-0.128 0-0.232-0.112-0.232-0.249v-8.46c0-0.137 0.104-0.249 0.232-0.249h0.726c0.128 0 0.232 0.112 0.232 0.249v3.428h1.442c0.809 9e-3 1.536 0.181 2.16 0.513 0.677 0.361 1.02 1.092 1.02 2.174 0 0.954-0.286 1.638-0.849 2.033m-0.897-3.235c-0.406-0.192-0.885-0.289-1.424-0.289h-1.452v2.902h1.759c0.487 0 0.895-0.106 1.213-0.313 0.285-0.186 0.423-0.545 0.423-1.098 0-0.645-0.169-1.038-0.519-1.202" fill="#49b072"/></g><g id="g404" transform="translate(66.114 341.85)"><path id="path406" d="m0 0c-0.481 0.87-1.237 1.403-2.251 1.582-0.438 0.066-0.808 0.069-0.893 0.069-1.193 0-2.133-0.463-2.795-1.375-0.649-0.893-0.977-2.008-0.977-3.315 0-1.252 0.317-2.35 0.942-3.263 0.641-0.938 1.622-1.413 2.916-1.413s2.272 0.475 2.905 1.414c0.616 0.913 0.929 2.01 0.929 3.262 0 0-4e-3 0.267-0.013 0.328-0.045 0.963-0.301 1.875-0.763 2.711m-0.438-3.243c0-0.046-0.017-0.334-0.024-0.409l-0.024-0.243c-0.076-0.748-0.35-1.385-0.814-1.895-0.463-0.509-1.038-0.755-1.758-0.755-0.931 0-1.582 0.341-1.991 1.042-0.425 0.729-0.641 1.558-0.641 2.464v0.216c0.016 0.493 0.093 0.978 0.229 1.442 0.13 0.442 0.367 0.834 0.7 1.159 0.232 0.216 0.5 0.387 0.796 0.508 0.296 0.12 0.601 0.181 0.907 0.181l0.264 1e-3c0.813-0.072 1.379-0.415 1.731-1.045 0.368-0.661 0.574-1.391 0.612-2.172 1e-3 -0.01 0.013-0.109 0.013-0.152z" fill="#49b072"/></g><g id="g408" transform="translate(75.222 335.51)"><path id="path410" d="m0 0h-0.382v7.525c0 0.138-0.104 0.249-0.233 0.249h-5.298c-0.128 0-0.232-0.111-0.232-0.249v-2.299c0-0.203-4e-3 -0.408-0.012-0.622-8e-3 -0.516-0.023-1.03-0.043-1.528-0.02-0.488-0.051-0.923-0.091-1.291-0.016-0.142-0.033-0.295-0.049-0.459-0.016-0.151-0.039-0.304-0.071-0.461-0.032-0.179-0.072-0.357-0.118-0.532-0.031-0.116-0.066-0.227-0.104-0.333h-0.324c-0.129 0-0.233-0.111-0.233-0.249v-2.609c0-0.137 0.104-0.249 0.233-0.249h0.725c0.128 0 0.232 0.112 0.232 0.249v1.675h5.03v-1.675c0-0.137 0.104-0.249 0.232-0.249h0.738c0.128 0 0.232 0.112 0.232 0.249v2.609c0 0.138-0.104 0.249-0.232 0.249m-1.585 0h-3.769c0.011 0.039 0.021 0.079 0.03 0.121 0.037 0.164 0.073 0.332 0.106 0.504 0.034 0.181 0.062 0.356 0.083 0.523 0.021 0.168 0.036 0.321 0.044 0.452 0.033 0.401 0.058 0.795 0.074 1.17 0.017 0.38 0.029 0.755 0.037 1.12 8e-3 0.189 0.013 0.379 0.013 0.572v2.103h3.382z" fill="#49b072"/></g><g id="g412" transform="translate(84.08 334.67)"><path id="path414" d="m0 0-2.987 8.46c-0.034 0.096-0.121 0.16-0.217 0.16h-0.885c-0.097 0-0.183-0.064-0.218-0.16l-2.987-8.46c-0.027-0.077-0.017-0.162 0.027-0.23 0.043-0.067 0.114-0.107 0.191-0.107h0.762c0.097 0 0.184 0.065 0.218 0.163l0.841 2.446h3.216l0.841-2.446c0.034-0.098 0.121-0.163 0.218-0.163h0.763c0.076 0 0.147 0.04 0.191 0.107 0.043 0.068 0.053 0.153 0.026 0.23m-4.847 3.455 1.2 3.396 1.2-3.396z" fill="#49b072"/></g><g id="g416" transform="translate(65.873 389.38)"><path id="path418" d="m0 0c-0.543-1.063-0.896-0.686-1.439-1.268s-0.287-1.886 0.352-2.536c1.025 0.45 2.27 1.473 1.087 3.804" fill="#49b072"/></g><g id="g420" transform="translate(68.312 380.79)"><path id="path422" d="M 0,0 C 0.796,0.005 1.885,0.329 1.681,2.227 1.05,1.673 0.911,2.028 0.401,1.795 -0.108,1.562 -0.265,0.619 0,0" fill="#49b072"/></g><g id="g424" transform="translate(57.263 387.54)"><path id="path426" d="m0 0c-0.489-0.955-0.806-0.617-1.293-1.139-0.488-0.523-0.259-1.694 0.315-2.279 0.922 0.403 2.041 1.325 0.978 3.418" fill="#49b072"/></g><g id="g428" transform="translate(54.026 383.76)"><path id="path430" d="m0 0c-0.861-0.579-0.983-0.118-1.647-0.319-0.665-0.202-0.996-1.343-0.761-2.155 0.988-0.13 2.383 0.09 2.408 2.474" fill="#49b072"/></g><g id="g432" transform="translate(54.3 389.41)"><path id="path434" d="m0 0c-0.171-1.186-0.618-0.962-0.94-1.702-0.323-0.738 0.325-1.856 1.125-2.231 0.813 0.787 1.649 2.191-0.185 3.933" fill="#49b072"/></g><g id="g436" transform="translate(43.822 379.53)"><path id="path438" d="m0 0c0.583-0.459 1.757-0.085 2.298 0.585-0.504 0.93-1.556 2.011-3.592 0.655 1.025-0.411 0.709-0.783 1.294-1.24" fill="#49b072"/></g><g id="g440" transform="translate(44.561 376.52)"><path id="path442" d="m0 0c0.969 0.319 0.933-0.144 1.603-0.128 0.67 0.017 1.336 0.999 1.38 1.819-0.859 0.38-2.2 0.536-2.983-1.691" fill="#49b072"/></g><g id="g444" transform="translate(46.334 374.67)"><path id="path446" d="M 0,0 C 0.911,0.474 0.943,0.011 1.602,0.138 2.262,0.265 2.779,1.347 2.704,2.164 1.801,2.394 0.452,2.33 0,0" fill="#49b072"/></g><g id="g448" transform="translate(50.605 386.33)"><path id="path450" d="m0 0c0.808-0.539 0.496-0.839 0.928-1.355 0.431-0.517 1.464-0.348 2.005 0.199-0.305 0.944-1.051 2.114-2.933 1.156" fill="#49b072"/></g><g id="g452" transform="translate(47.686 381.44)"><path id="path454" d="m0 0c0.388-0.662 1.566-0.684 2.263-0.188-0.169 1.112-0.789 2.564-3.053 1.885 0.803-0.764 0.402-1.034 0.79-1.697" fill="#49b072"/></g><g id="g456" transform="translate(51.031 383.09)"><path id="path458" d="m0 0c-0.509 0.862-0.107 0.987-0.285 1.653-0.18 0.666-1.179 0.994-1.887 0.754-0.108-0.992 0.089-2.393 2.172-2.407" fill="#49b072"/></g><g id="g460" transform="translate(64.758 381.83)"><path id="path462" d="m0 0c-0.457-0.087-0.747-0.826-0.639-1.385 0.651-0.153 1.594-0.106 1.758 1.481-0.609-0.326-0.664-8e-3 -1.119-0.096" fill="#49b072"/></g><g id="g464" transform="translate(60.063 383.41)"><path id="path466" d="m0 0c0.566-0.817 1.718-0.55 2.109-0.909 0.045 1.004-0.318 2.473-2.414 2.343 0.28-0.585-0.084-0.873 0.305-1.434" fill="#49b072"/></g><g id="g468" transform="translate(55.308 380.58)"><path id="path470" d="M 0,0 C 0.727,-0.221 1.331,0.549 1.742,0.526 1.316,1.182 0.42,1.92 -0.843,0.746 -0.402,0.523 -0.5,0.152 0,0" fill="#49b072"/></g><g id="g472" transform="translate(48.672 374.35)"><path id="path474" d="m0 0c0.484-0.066 0.496-0.452 1.016-0.432 0.755 0.03 1.109 0.963 1.507 1.075-0.594 0.484-1.659 0.891-2.523-0.643" fill="#49b072"/></g><g id="g476" transform="translate(50.128 372.74)"><path id="path478" d="M 0,0 C 0.424,-0.013 0.467,-0.345 0.916,-0.28 1.568,-0.183 1.798,0.659 2.134,0.794 1.579,1.159 0.623,1.411 0,0" fill="#49b072"/></g><g id="g480" transform="translate(64.986 383.44)"><path id="path482" d="M 0,0 C 0.787,-0.835 2.154,-1.662 3.69,0.417 2.565,0.537 2.751,1.032 2.04,1.339 1.326,1.646 0.308,0.886 0,0" fill="#49b072"/></g><g id="g484" transform="translate(61.428 385.81)"><path id="path486" d="m0 0c0.354-1.15 1.761-1.186 2.176-1.631 0.303 0.946-0.092 2.817-2.126 3.306 0.118-0.703-0.091-0.986-0.05-1.675" fill="#49b072"/></g><g id="g488" transform="translate(58.125 382.22)"><path id="path490" d="m0 0c0.383-0.319 0.398-0.58 0.734-0.929 0.712-0.436 1.486 0.278 1.912 0.256-0.265 0.668-1.327 1.469-2.646 0.673" fill="#49b072"/></g><g id="g492" transform="translate(59.354 384.85)"><path id="path494" d="m0 0c-0.484-8e-3 -0.617 0.129-1.175 0.083-0.556-0.045-0.937-1.063-1.283-1.33 0.596-0.345 2.05-0.365 2.458 1.247" fill="#49b072"/></g><g id="g496" transform="translate(41.158 374.57)"><path id="path498" d="m0 0c0.652-0.591 1.845-1.611 3.281-2.837 3.436-2.931 9.187-7.837 10.719-9.793 0.231-0.3 0.571-0.475 0.948-0.479h5e-3c0.352 0 0.687 0.159 0.917 0.434 1.556 1.835 6.609 6.2 10.307 9.397 1.789 1.545 3.333 2.88 3.983 3.5 1.913 1.831 3.958 5.174 3.958 9.064 0 6.512-4.941 11.81-11.015 11.81-3.117 0-6.082-1.431-8.158-3.884-2.076 2.453-5.04 3.884-8.156 3.884-6.075 0-11.016-5.298-11.016-11.81 0-3.612 1.422-6.737 4.227-9.286m6.789 18.933c2.903 0 5.644-1.522 7.334-4.072l0.822-1.24 0.823 1.24c1.689 2.55 4.432 4.072 7.335 4.072 4.96 0 8.997-4.328 8.997-9.647 0-3.174-1.696-5.929-3.284-7.448-0.612-0.585-2.212-1.969-3.914-3.44-2.063-1.783-4.546-3.929-6.639-5.825-0.66 1.315-2.012 2.517-2.721 4.091-1.041 2.308-0.372 7.098 2.654 7.867 3.025 0.769 3.916 0 4.743 0 0.826 0 2.642 1.643 4.12 1.691-1.217 0.231-2.068-0.608-3.229-0.747-1.164-0.141-2.534 0.387-3.359 0.345 1.674 0.915 3.555 3.592 3.157 5.19 0 0-2.222-4.298-6.463-5.581-0.065 1.188-0.739 2.423-1.044 2.842-0.304 0.42-0.467 0.588-0.383 0.76-0.193-0.015-0.674 0.173-0.584 0.525-0.302-0.052-1.575 0.177-1.77 0.605-0.196 0.428-0.134 0.67-0.056 0.749-0.254-0.068-0.368-0.819-0.596-0.574-0.229 0.243-0.352 0.269-0.352 0.269s0.67-1.108 1.509-1.685c0.84-0.579 2.602-2.413 2.521-3.83-0.71-0.427-3.491-3.565-3.638-5.332-0.995 0.996-3.305 3.334-2.653 9.12-0.342-0.385-0.903-1.526-0.859-3.567 0 0 0.076-1.77 0.141-2.086-0.554 0.117-2.544 0.675-3.142 1.668-0.598 0.99-1.098 0.734-1.273 0.664-0.173-0.07 0.601-0.7 1.48-1.901 0.837-1.14 2.663-1.306 3.044-1.468 0 0 0.754-2.378 2.117-3.589 1.362-1.213 2.819-4.033 3.179-6.76 0.102-0.774 0.072-1.697 0.165-2.405 0 0-1e-3 0-1e-3 -1e-3 -2.142 2.353-7.064 6.551-10.431 9.423-1.415 1.208-2.593 2.213-3.234 2.795-2.332 2.119-3.514 4.688-3.514 7.635 0 5.319 4.036 9.647 8.998 9.647" fill="#49b072"/></g></g></g></g></svg>
