<?xml version="1.0" encoding="UTF-8"?>
<!-- Generator: Adobe Illustrator 16.0.0, SVG Export Plug-In . SVG Version: 6.00 Build 0)  -->
<svg id="Layer_1" width="800" height="232.75" enable-background="new 0 0 185 68" version="1.1" viewBox="0 0 800 232.75" xml:space="preserve" xmlns="http://www.w3.org/2000/svg" xmlns:cc="http://creativecommons.org/ns#" xmlns:dc="http://purl.org/dc/elements/1.1/" xmlns:rdf="http://www.w3.org/1999/02/22-rdf-syntax-ns#"><metadata id="metadata83"><rdf:RDF><cc:Work rdf:about=""><dc:format>image/svg+xml</dc:format><dc:type rdf:resource="http://purl.org/dc/dcmitype/StillImage"/><dc:title>Group</dc:title></cc:Work></rdf:RDF></metadata><title id="title2">Group</title><desc id="desc4">Created using Figma</desc><g id="g174" transform="matrix(3.8791 0 0 -3.8791 -99027 5245.5)"><g id="g180"><g id="g182"><g id="path192"><g id="g14" transform="matrix(1.25,0,0,-1.25,11346,-5169)"><linearGradient id="path0_fill_1_" x1="11139" x2="11140" y1="-4777.3" y2="-4777.3" gradientTransform="matrix(0 48.634 -47.813 0 -217008 -546945)" gradientUnits="userSpaceOnUse"><stop id="stop6" stop-color="#127BCA" offset="0"/><stop id="stop8" stop-color="#127BCA" offset=".005"/><stop id="stop10" stop-color="#2154AB" offset="1"/></linearGradient><path id="path0_fill" d="m11359-5217c-1.916 0-3.576 1.347-4.004 3.247l-9.02 40.137c-0.01 0.044-0.02 0.089-0.03 0.134v1.606c0.239 1.228 1.017 2.288 2.093 2.876h110.36c1.022-0.557 1.796-1.543 2.069-2.756l9.02-40.136c0.587-2.615-1.366-5.108-4.004-5.108h-106.49z" fill="url(#path0_fill_1_)"/></g></g></g></g></g><g id="g196" transform="matrix(3.8791 0 0 -3.8791 -99498 5245.5)"><g id="g202"><g id="g204"><g id="path212"><g id="g27" transform="matrix(1.25 0 0 -1.25 11467 -5169)"><linearGradient id="path1_fill_1_" x1="11139" x2="11140" y1="-4777.3" y2="-4777.3" gradientTransform="matrix(0 48.492 -47.673 0 -216259 -545364)" gradientUnits="userSpaceOnUse"><stop id="stop21" stop-color="#ED2025" offset="0"/><stop id="stop23" stop-color="#B6141A" offset="1"/></linearGradient><path id="path1_fill" d="m11481-5217c-1.915 0-3.577 1.347-4.004 3.247l-9.02 40.137c-0.05 0.221-0.08 0.441-0.1 0.66v0.558c0.1 1.445 0.934 2.729 2.16 3.398h30.234c1.021-0.557 1.797-1.543 2.069-2.756l9.019-40.136c0.588-2.615-1.365-5.108-4.003-5.108h-26.359z" fill="url(#path1_fill_1_)"/></g></g></g></g></g><g id="g1117" transform="matrix(4.8489 0 0 4.8489 -88.758 21.097)"><g id="g222" transform="matrix(.79998 0 0 -.79998 -20518 1072.3)"><g id="path224"><g id="g35" transform="matrix(1.25 0 0 -1.25 11489 -5175.4)"><path id="path2_fill" d="m11501-5210.1v16.479c-0.328-0.199-0.67-0.38-1.028-0.536l-7.179-3.116v-12.827h-4.183v15.638l9.72 4.22c1.622 0.703 2.67 2.318 2.67 4.111v10.794h4.184v-34.763z"/></g></g></g><g id="g226" transform="matrix(.79998 0 0 -.79998 -20502 1072.3)"><g id="path228"><g id="g40" transform="matrix(1.25 0 0 -1.25 11469 -5175.4)"><path id="path3_fill" d="m11487-5175.4h-17.678v-10.794c0-3.5 2.046-6.651 5.212-8.026l7.179-3.116v-5.731c0-1.553-1.242-2.816-2.768-2.816h-7.531v-4.255h7.531c3.832 0 6.951 3.172 6.951 7.071v8.542l-9.72 4.219c-1.622 0.704-2.671 2.319-2.671 4.112v6.605h13.494v4.189z"/></g></g></g><g id="g230" transform="matrix(.79998 0 0 -.79998 -20486 1072.3)"><g id="path232"><g id="g45" transform="matrix(1.25 0 0 -1.25 11449 -5175.4)"><path id="path4_fill" d="m11459-5210h-9.586v10.513c0 3.226 1.746 6.15 4.502 7.656-2.756 1.506-4.502 4.429-4.502 7.656v8.765h4.184v-8.765c0-1.783 1.041-3.386 2.652-4.084l2.899-1.259 2.596 1.126v12.981h4.184v-27.542c0-3.885-3.107-7.047-6.929-7.047zm2.745 16.982-5.495-2.386c-1.611-0.7-2.652-2.302-2.652-4.084v-6.258h5.402c1.514 0 2.745 1.253 2.745 2.792z"/></g></g></g><g id="g234" transform="matrix(.79998 0 0 -.79998 -20469 1072.3)"><g id="path236"><g id="g50" transform="matrix(1.25 0 0 -1.25 11428 -5175.4)"><path id="path5_fill" d="m11442-5175.4h4.184v-34.763h-4.314l-9.631 23.922v-23.83h-4.183v34.671h4.293l9.651-23.86z"/></g></g></g><g id="g238" transform="matrix(.79998 0 0 -.79998 -20453 1072.3)"><g id="path240"><g id="g55" transform="matrix(1.25 0 0 -1.25 11407 -5175.4)"><path id="path6_fill" d="m11424-5210.1h-17.513v4.255h6.664v30.508h4.184v-30.508h6.665z"/></g></g></g><g id="g242" transform="matrix(.79998 0 0 -.79998 -20437 1072.3)"><g id="path244"><g id="g60" transform="matrix(1.25 0 0 -1.25 11387 -5175.4)"><path id="path7_fill" d="m11399-5210.1v17.108l-5.495-2.385c-1.611-0.7-2.652-2.302-2.652-4.084v-10.639h-4.184v10.639c0 3.489 2.039 6.628 5.193 7.998l7.138 3.098v5.947c0 1.541-1.231 2.793-2.745 2.793h-7.494v4.241h7.494c3.82 0 6.929-3.147 6.929-7.034v-27.682z"/></g></g></g><g id="g246" transform="matrix(.79998 0 0 -.79998 -20421 1072.3)"><g id="path248"><g id="g65" transform="matrix(1.25 0 0 -1.25 11367 -5175.4)"><path id="path8_fill" d="m11384-5201.4v-8.692h-4.184v8.692c0 1.782-1.041 3.384-2.651 4.083l-2.9 1.258-2.597-1.126v-12.999h-4.183v34.763h4.183v-17.138l5.497 2.386c1.61 0.699 2.651 2.302 2.651 4.083v10.669h4.184v-10.669c0-3.226-1.745-6.15-4.502-7.655 2.757-1.504 4.502-4.429 4.502-7.655z"/></g></g></g><g id="g250" transform="matrix(.79998 0 0 -.79998 -20405 1072.3)"><g id="path252"><g id="g70" transform="matrix(1.25 0 0 -1.25 11347 -5175.4)"><path id="path9_fill" d="m11357-5210h-9.586v10.513c0 3.226 1.746 6.15 4.502 7.656-2.756 1.506-4.502 4.429-4.502 7.656v8.765h4.184v-8.765c0-1.783 1.041-3.386 2.65-4.084l2.901-1.259 2.596 1.126v12.981h4.184v-27.542c0-3.885-3.108-7.047-6.929-7.047zm2.745 16.982-5.495-2.386c-1.611-0.7-2.652-2.302-2.652-4.084v-6.258h5.402c1.514 0 2.745 1.253 2.745 2.792z"/></g></g></g></g></svg>
