<?xml version="1.0" encoding="UTF-8"?>
<!-- Generator: Adobe Illustrator 22.1.0, SVG Export Plug-In . SVG Version: 6.00 Build 0)  -->
<svg id="Слой_1" width="800" height="574.63" space="preserve" version="1.1" viewBox="0 0 800 574.63" xmlns="http://www.w3.org/2000/svg" xmlns:cc="http://creativecommons.org/ns#" xmlns:dc="http://purl.org/dc/elements/1.1/" xmlns:rdf="http://www.w3.org/1999/02/22-rdf-syntax-ns#">
 <metadata id="metadata91">
  <rdf:RDF>
   <cc:Work rdf:about="">
    <dc:format>image/svg+xml</dc:format>
    <dc:type rdf:resource="http://purl.org/dc/dcmitype/StillImage"/>
    <dc:title/>
   </cc:Work>
  </rdf:RDF>
 </metadata>
 <link id="dark-mode" href="" rel="stylesheet" type="text/css"/>
 <style id="dark-mode-custom-style" type="text/css"/>
 <style id="style2" type="text/css">.st0{fill:#FCEEDE;}
	.st1{fill:#8C6239;}
	.st2{fill:#C69C6D;}
	.st3{fill:#FFD797;}</style>
 <g id="g84" transform="scale(2.333)">
  <path id="path4" class="st0" d="m172.1 6c57.3 0 105.1 41.3 115.2 95.8h36.1c7.5 0 13.5 6.1 13.5 13.5v74.9c0 7.5-6.1 13.5-13.5 13.5h-66.4c-21.4 22.5-51.6 36.6-85 36.6s-63.6-14.1-85-36.6h-67.5c-7.5 0-13.5-6.1-13.5-13.5v-74.9c0-7.5 6.1-13.5 13.5-13.5h37.4c10.1-54.5 57.9-95.8 115.2-95.8m0-6c-28.9 0-57 10.3-79.2 28.9-20.5 17.3-34.9 40.9-40.8 66.9h-32.6c-10.7 0-19.5 8.7-19.5 19.5v74.9c0 10.8 8.8 19.5 19.5 19.5h65.1c11 11.1 23.8 19.9 38.1 26.2 15.6 6.9 32.2 10.4 49.4 10.4s33.8-3.5 49.4-10.4c14.3-6.3 27.1-15.1 38.1-26.2h63.8c10.8 0 19.5-8.8 19.5-19.5v-74.9c0-10.8-8.8-19.5-19.5-19.5h-31.2c-5.9-26-20.3-49.6-40.9-66.9-22.1-18.6-50.3-28.9-79.2-28.9z" fill="#fceede"/>
  <circle id="ellipse6" class="st1" transform="matrix(.3827 -.9239 .9239 .3827 -7.9268 234.47)" cx="171.5" cy="123.2" r="114.2" fill="#8c6239"/>
  <g id="g46" fill="#c69c6d">
   <path id="path8" class="st2" d="m196.5 11.8h-50c-6.5 1.5-12.8 3.5-18.9 6h87.8c-6.1-2.6-12.4-4.6-18.9-6z"/>
   <path id="path10" class="st2" d="m227.4 23.8h-112.2c-3.3 1.8-6.4 3.9-9.5 6h131.2c-3-2.2-6.2-4.2-9.5-6z"/>
   <path id="path12" class="st2" d="m244.9 35.8h-146.8c-2.3 1.9-4.5 3.9-6.6 6h160.1c-2.2-2.1-4.4-4.1-6.7-6z"/>
   <path id="path14" class="st2" d="m257.2 47.8h-171.4c-1.7 1.9-3.4 3.9-4.9 6h181.3c-1.6-2.1-3.3-4.1-5-6z"/>
   <path id="path16" class="st2" d="m266.4 59.8h-189.9c-1.3 2-2.6 4-3.8 6h197.4c-1.1-2.1-2.4-4.1-3.7-6z"/>
   <path id="path18" class="st2" d="m273.4 71.8h-203.9c-1 2-1.9 4-2.8 6h209.5c-0.8-2.1-1.8-4.1-2.8-6z"/>
   <path id="path20" class="st2" d="m278.7 83.8h-214.4c-0.7 2-1.4 4-2 6h218.4c-0.6-2.1-1.3-4.1-2-6z"/>
   <path id="path22" class="st2" d="m282.3 95.8h-221.7c-0.5 2-0.9 4-1.3 6h224.3c-0.3-2.1-0.8-4.1-1.3-6z"/>
   <path id="path24" class="st2" d="m284.6 107.8h-226.2c-0.3 2-0.5 4-0.7 6h227.6c-0.2-2.1-0.4-4.1-0.7-6z"/>
   <path id="path26" class="st2" d="m285.6 119.8h-228.2c0 1.1-0.1 2.3-0.1 3.4v2.6h228.3v-2.6c0.1-1.2 0-2.3 0-3.4z"/>
   <path id="path28" class="st2" d="m58.2 137.8h226.5c0.3-2 0.5-4 0.6-6h-227.7l0.6 6z"/>
   <path id="path30" class="st2" d="m60.4 149.8h222.1c0.5-2 0.9-4 1.3-6h-224.6c0.3 2 0.8 4 1.2 6z"/>
   <path id="path32" class="st2" d="m64 161.8h215c0.7-2 1.4-4 2-6h-218.9c0.6 2 1.2 4 1.9 6z"/>
   <path id="path34" class="st2" d="m69.1 173.8h204.7c1-2 1.9-4 2.8-6h-210.2c0.8 2 1.8 4 2.7 6z"/>
   <path id="path36" class="st2" d="m76 185.8h191c1.3-2 2.5-4 3.7-6h-198.4c1.2 2 2.4 4 3.7 6z"/>
   <path id="path38" class="st2" d="m85.1 197.8h172.9c1.7-1.9 3.3-3.9 4.8-6h-182.6c1.6 2 3.2 4 4.9 6z"/>
   <path id="path40" class="st2" d="m97.1 209.8h148.8c2.2-1.9 4.4-3.9 6.5-6h-161.8c2.1 2 4.3 4 6.5 6z"/>
   <path id="path42" class="st2" d="m113.9 221.8h115.2c3.2-1.9 6.2-3.9 9.2-6h-133.6c3 2.1 6 4.1 9.2 6z"/>
   <path id="path44" class="st2" d="m143 233.8h57c6-1.5 11.8-3.6 17.4-6h-91.6c5.4 2.4 11.2 4.4 17.2 6z"/>
  </g>
  <path id="path48" class="st1" d="m171.5 240.3c-64.6 0-117.2-52.6-117.2-117.2 0-64.5 52.6-117.1 117.2-117.1s117.2 52.6 117.2 117.2-52.6 117.1-117.2 117.1zm0-228.3c-61.3 0-111.2 49.9-111.2 111.2s49.9 111.2 111.2 111.2 111.2-49.9 111.2-111.2-49.9-111.2-111.2-111.2z" fill="#8c6239"/>
  <path id="path50" class="st1" d="m337.1 190.2c0 7.5-6.1 13.5-13.5 13.5h-304c-7.5 0-13.5-6.1-13.5-13.5v-74.9c0-7.5 6.1-13.5 13.5-13.5h303.9c7.5 0 13.5 6.1 13.5 13.5v74.9z" fill="#8c6239"/>
  <g id="g60">
   <g id="g56">
    <path id="path52" class="st3" d="m265.9 95.3c-5.9-0.2-10-0.7-12.2-2 2.6-1.1 4.4-4 4.8-6.3-25.1-1.1-34.3-10.3-34.3-10.5-2.9-13.1-9.1-27.9-13.9-35.7-4.6-7.5-19.5-14.6-41.2-14.4-10.9 0.1-19.9 1.9-26.7 4.6l1.9 8.4-6.6-6.2c-4.3 2.3-7.8 5.9-9.6 8.7-4.7 7.5-9.6 22.2-12.4 34.7-0.1 0.3-12.6 11.1-32.4 8.5 1 3.2 3 5.5 4.7 5.9-5.1 3.1-8 3.2-13.4 3.3 7.1 13.4 29.7 9.7 34.3 9.5 4.2-0.2 11-2.2 14.5-5.1 0.1 2.1-2.8 5.5-4.3 7.4 2.6 3.3 42.7 3.1 43.9 1.1 1.2-1.9 1.7-6.3 2.2-8.3 0.4 3 0.6 8.3 2.1 8.7 0.7 0.2 3.5 0.3 5.8-0.2-0.6-1.1-2.1-5.4-2.4-15 2.3 9 7.1 14.4 12 14.9 5.5 0.5 48.2 1.4 58-3.1-3-1.4-7-4-7.8-6.1 3.7-0.1 22.3 9.3 33-2.8z" fill="#ffd797"/>
    <path id="path54" class="st1" d="m170 26.5c21.2 0 35.8 6.9 40.3 14.4 4.8 7.8 10.9 22.6 13.9 35.7 0 0.2 9.3 9.3 34.3 10.5-0.4 2.2-2.2 5.2-4.8 6.3 2.2 1.3 6.3 1.8 12.2 2-4.2 4.7-9.6 6.2-14.9 6.2-8.2 0-16-3.5-18.3-3.6 0.7 2 4.8 4.7 7.8 6.1-6.2 2.8-25.4 3.5-40.1 3.5-8.7 0-15.9-0.2-17.9-0.4-4.9-0.5-9.6-5.8-12-14.9 0.2 9.6 1.8 13.9 2.4 15-1.2 0.2-2.5 0.3-3.6 0.3-1 0-1.9-0.1-2.2-0.1-1.5-0.3-1.6-5.7-2.1-8.7-0.6 2.1-1 6.4-2.2 8.3-0.6 0.9-9.1 1.4-18.5 1.4-11.3 0-24-0.8-25.4-2.5 1.5-1.9 4.4-5.3 4.3-7.4-3.4 2.9-10.3 4.8-14.5 5.1-1.7 0.1-5.8 0.7-10.7 0.7-8.4 0-19.1-1.7-23.5-10.1 5.5-0.1 8.4-0.1 13.4-3.3-1.7-0.4-3.7-2.7-4.7-5.9 2.1 0.3 4.2 0.4 6.2 0.4 16.2 0 26.2-8.6 26.2-8.9 2.8-12.5 7.7-27.2 12.4-34.7 1.8-2.8 5.3-6.4 9.6-8.7l6.6 6.2-1.9-8.4c6.9-2.7 15.8-4.4 26.7-4.6 0.4 0.1 0.7 0.1 1 0.1m0-4.9h-1c-10.7 0.1-20.5 1.8-28.5 4.9l-5.2 2.4c-5.4 2.9-9.4 7.3-11.4 10.4-5.1 8.1-9.9 22.9-12.7 34.6-15 9.1-35.1 5.3-35.1 5.3s2.4 8.6 3.4 9.9c-1.4 0.2-13.1 0.3-13.1 0.3l3.7 7.1c4.5 8.5 13.8 12.8 27.9 12.8 3.8 0 12.7-0.6 16.1-1.4l0.9 1.2c1.3 1.6 3.5 4.4 29.2 4.4 4.9 0 9.5-0.1 12.9-0.4 3.6-0.3 5.9-0.6 7.5-1.3 0.4 0.2 5.7 1.1 9.2 0.3l4.5-0.9c1.2 0.5 2.4 0.8 3.6 0.9 2.4 0.2 9.9 0.5 18.4 0.5 15.3 0 35-0.7 42.1-3.9l4.9-2.3c1.2 0.1 2.4 0.2 3.6 0.2 7.7 0 13.9-2.6 18.5-7.8l7-7.8-10.5-0.3c-1.3 0-2.4-0.1-3.5-0.2 0.3-0.8 0.5-1.6 0.7-2.3l1-5.5-5.6-0.3c-18.7-0.9-27.6-6.3-30.1-8.2-3.3-13.6-9.5-28-14.1-35.6-6-10.5-23.5-17-44.3-17z" fill="#8c6239"/>
   </g>
   <path id="path58" class="st1" d="m218 56.8h-96.8c-2.2 6-4.2 13-5.6 20h108.6c-1.5-7-3.7-14-6.2-20z" fill="#8c6239"/>
  </g>
  <g id="g82" fill="#fceede">
   <path id="path62" class="st0" d="m34 149.3 1 0.8c0.4 0.3 0.8 0.6 1.1 1 0.9 0.9 1.7 1.9 2.4 3 1.8 3.1 2.7 7.1 2.6 12.1-0.1 5.3-0.8 9.3-2.3 12.9-1.4 3.6-3.4 5.9-5.9 6.9-0.9 0.4-1.9 0.6-2.9 0.6-2.5 0-5-1.2-7.6-3.5l3.2-3.3c0.9 0.8 1.8 1.5 2.6 1.9 1.1 0.5 2 0.6 2.8 0.3 1.4-0.6 2.6-2.2 3.6-4.9 1.1-3.1 1.7-6.4 1.8-10.9 0.1-4-0.6-7.2-1.9-9.5-0.5-0.9-1-1.6-1.7-2.3-0.3-0.3-0.6-0.5-0.9-0.8l-0.5-0.3-0.4-0.3-0.2-0.1-0.2-0.2-0.5-0.4c-0.4-0.4-0.7-0.7-0.9-1.1-0.6-1-0.6-2.1 0.1-3.2 0.3-0.5 0.7-1.1 1.1-1.7l1.1-1.5c2.2-3 3.5-5.5 3.8-7.5 0.5-3.1 0.4-5.8 0-8.1-0.4-1.9-1.1-3.2-2-4-0.2-0.2-0.4-0.3-0.6-0.4-0.3-0.1-0.6-0.1-0.9-0.1-2 0.5-3.2 2.2-3.5 5.2l-4-0.3-0.5 0.1v-0.1l-1.4-7.2 4.5-0.8 0.2 1.2 0.8-0.7c0.3-0.3 0.6-0.5 0.8-0.7 0.7-0.4 1.3-0.7 2-0.9 2-0.5 3.9 0 5.7 1.5 1.7 1.5 2.8 3.6 3.4 6.3 0.6 2.8 0.6 6.1 0.1 9.7-0.4 2.7-1.9 5.9-4.6 9.4l-0.7 1z"/>
   <path id="path64" class="st0" d="m76.2 182.1v4.5l-10.3-0.1v-4.5h2.8c0-4.3-0.2-9.5-0.5-14.6-2.7-0.1-6.9-0.1-12.6 0.1-0.6 6.3-1 11.5-1.2 14.5h3.7v4.5h-10.9v-4.5h2.6c0.2-2.9 0.5-7.6 1.1-13.2 0.6-6.4 1.3-12.5 2.1-18.2 1.1-8.8 2.2-14.9 3.2-19.8 0.9-4.1 1.7-6.9 2.5-8.5s1.9-2.4 3.2-2.4c0.4 0 0.8 0.1 1.1 0.2 0.5 0.2 0.9 0.5 1.3 0.9 2.4 2.4 4.5 10.2 6.5 24.8 1.7 13.1 2.6 25.4 2.6 36.2h2.8zm-20.1-19.1c5.5-0.2 9.4-0.2 11.8-0.1-1.5-18.4-3.5-30.2-5.9-36.7-0.9 2.9-1.9 8.1-3.1 15.8-0.9 6.3-1.9 12.9-2.8 21z"/>
   <path id="path66" class="st0" d="m98.3 127.8v-3.2h-9.3c-0.2 7.5 0.7 18.2 0.6 31.1-0.1 12.3-0.6 21.1-0.4 26.4h2.8v4.5h-9.7v-4.5h2.2c-0.1-5.3 0.4-14.1 0.5-26.5 0-12.7-0.8-23.4-0.6-31h-3.2v-4.5h10.5c3.5 0 6.5 0.1 9 0.2l2.2 0.1v7.5h-4.6z"/>
   <path id="path68" class="st0" d="m114.4 186.5c-0.9-0.3-1.7-0.8-2.4-1.6-2.4-2.3-4.2-6.7-5.3-13.1-1-5.4-1.2-11.8-1.1-18.6 0.2-21.3 4-32.9 11.3-32.9 4.2 0 7.2 3.3 9 10 1.3 4.7 2 12.7 2.1 21.8 0.1 7.3-0.5 13.8-1.3 19-1 6.8-2.7 11.4-5.2 13.8-1.4 1.4-3.1 2.1-5 2.1-0.8-0.1-1.5-0.3-2.1-0.5zm-2-55.2c-1.4 5.1-2.2 13-2.3 21.8-0.1 6.7 0.1 13 1.1 18.3s2.3 8.7 3.9 10.3c0.3 0.3 0.6 0.5 0.8 0.6h0.5c0.2 0 0.5 0 0.7-0.1 0.3-0.1 0.7-0.3 1-0.7 1.6-1.6 2.9-5 3.8-10.2 0.8-5.2 1.5-11.8 1.4-19.4-0.2-10.5-1.1-19-2.9-23.4-0.6-1.5-1.3-2.6-2.1-3.3-0.3-0.3-0.6-0.5-0.9-0.6-0.2-0.1-0.5-0.1-0.7-0.1-1.6 0.1-3.1 2.4-4.3 6.8z"/>
   <path id="path70" class="st0" d="m154 135.7c0 3.4-0.8 6.5-2.3 9.1-1.9 3.5-5 6.1-9.3 7.9v0.6c0.4 13.7 0.3 23.3 0.2 28.7h2.6v4.5h-10.4v-4.5h3.2c0.1-5.5 0.2-15.1-0.2-28.6l-0.1-2.6c-0.1-4.8-0.3-10.1-0.4-15.7 0-2.1-0.1-3.9-0.1-6 0-1.6-0.1-3.2-0.1-4.6h-2.3v-4.5h5.9c0.8 0 1.6 0.1 2.4 0.3 2.5 0.5 4.6 1.6 6.3 3.2 3.2 2.9 4.7 6.8 4.6 12.2zm-11.7 12.2c1.9-1.1 3.5-2.4 4.6-4.1 1.6-2.2 2.4-5 2.5-8.2 0.1-4.2-1-6.9-3.1-8.8-0.7-0.6-1.4-1.1-2.3-1.4-0.7-0.3-1.4-0.5-2.2-0.7v4.2c0 1.9 0.1 3.4 0.1 5.2 0.1 5 0.2 9.6 0.4 13.8z"/>
   <path id="path72" class="st0" d="m169.1 186.6c-0.9-0.3-1.7-0.8-2.4-1.6-2.4-2.3-4.2-6.7-5.3-13.1-1-5.4-1.4-12-1.3-18.8 0.2-21.3 4-32.9 11.3-32.9 4.2 0 7.2 3.3 9 10 1.3 4.7 2 12.7 2.1 21.8 0.1 7.3-0.3 14-1.1 19.1-1 6.8-2.7 11.4-5.2 13.8-1.4 1.4-3.1 2.1-5 2.1-0.7 0-1.4-0.1-2.1-0.4zm-2.2-55.3c-1.4 5.1-2.2 13-2.3 21.8-0.1 6.7 0.3 13.2 1.3 18.4 1 5.3 2.3 8.7 3.9 10.3 0.3 0.3 0.6 0.5 0.8 0.6h0.5c0.2 0 0.5 0 0.7-0.1 0.3-0.1 0.7-0.3 1-0.7 1.6-1.6 2.9-5 3.8-10.2 0.8-5.2 1.3-12 1.1-19.5-0.2-10.5-1.1-19-2.9-23.4-0.6-1.5-1.3-2.6-2.1-3.3-0.3-0.3-0.6-0.5-0.9-0.6-0.2-0.1-0.5-0.1-0.7-0.1-1.5 0.1-3 2.4-4.2 6.8z"/>
   <path id="path74" class="st0" d="m211.7 182.2c1.1 0.4 1.9 0.9 2.2 1.4 1.1 1.7 2.1 3.5 3 5.5 0.3 0.7 0.5 1.3 0.8 1.9 0.1 0.2 0.2 0.4 0.2 0.6l0.1 0.2v0.1l-4.4 1.4v-0.3l-0.1-0.3c-0.1-0.2-0.2-0.5-0.3-0.7-0.1-0.3-0.2-0.6-0.4-0.9-0.8-1.7-1.6-3.3-2.5-4.7-1.6-0.6-5-1-10.3-1.2-5.4-0.1-8.8 0.1-10.1 0.8-0.3 0.8-0.7 2.1-1.1 3.9-0.2 0.7-0.3 1.4-0.5 2.1-0.1 0.6-0.2 1.1-0.3 1.6l-4.6-0.8v-0.5c0.1-0.3 0.1-0.6 0.2-0.9 0.2-0.9 0.4-1.7 0.5-2.4 0.5-2.4 1-4.1 1.4-5.1 0.4-0.9 1.2-1.6 2.5-2.1 0.2-0.6 0.5-1.3 0.8-2 0.3-1 0.7-2.1 1-3.2 0.9-3.1 1.7-6.7 2.4-10.7 2-11.5 2.9-25.3 2.8-41.3h-2.8v-4.6h2.8l13.5 0.2h5.8v4.5h-3.5c0 5.2 0.2 15.3 0.4 30.4 0.1 4.9 0.2 10.4 0.3 16.5v6.3c0.2 2.4 0.2 3.8 0.2 4.3zm-18.2-1.5c0.5 0 1.2-0.1 2.1-0.1h3.3c3.1 0 5.9 0.2 8.2 0.5-0.1-2.9-0.1-6.7-0.2-11.3-0.1-5.6-0.2-11-0.3-16.2-0.2-14.2-0.3-23.9-0.4-29l-6.5-0.1c0.1 14.4-0.6 27-2.1 37.7-0.6 4.1-1.3 7.9-2.1 11.4-0.6 2.7-1.3 5-2 7.1z"/>
   <path id="path76" class="st0" d="m235.1 120.2h9.4v4.5h-1.8c-0.1 5.1-0.2 14-0.1 29 0 5.4 0.1 11 0.1 17v11.4h1.4v4.5h-7.8v-4.5h1.8c0-3.6-0.1-7.4-0.1-12.3 0-6.5-0.1-12.6-0.1-18.3h-9.1c0.2 15.9 0.2 25.8 0 30.6h2.3v4.5h-8.5v-4.5h1.5c0.2-3.3 0.2-8.9 0.1-17.7 0-3.3 0-7.3-0.1-11.9v-27.8h-2.2v-4.5h9.3v4.5h-2.5c0 3.8 0 8.4 0.1 16v6.3c3-0.1 6-0.1 9.2 0 0-11.4 0-18.1 0.1-22.4h-2.9v-4.4z"/>
   <path id="path78" class="st0" d="m271.7 156.4c1.9 3.7 2.7 7.7 2.4 12.2s-1.6 8.4-3.9 11.6c-3 4.2-7 6.3-12 6.3-0.3 0-0.7 0-1.4-0.1h-5.9v-4.5h3.4v-0.4c-0.1-1.9-0.1-4.3-0.1-7.3 0-6.2 0.1-13.5 0.2-22.1 0.1-5.5 0.2-11.4 0.3-17.7 0-2.4 0.1-4.8 0.1-7.1 0-1.9 0.1-1.3 0.1-2.7h-2.6v-4.5h10.7v4.5h-3.4c-0.1 4.7-0.2 6.4-0.3 9.7-0.1 4.7-0.2 8.9-0.2 12.8 5.7 1 9.9 4.1 12.6 9.3zm-4.4 21.3c1.8-2.6 2.9-5.7 3.1-9.4s-0.4-7-1.9-9.9c-0.8-1.5-1.8-2.9-3-3.9-1.5-1.3-3.4-2.2-5.5-2.7-0.2 16.2-0.3 26.3-0.1 30.3 1.7-0.1 3.2-0.6 4.6-1.6 1-0.7 2-1.7 2.8-2.8zm8.5-57.5h10.7v4.5h-3.3c0.1 4.7 0.2 13.2 0.1 28.2 0 5.2-0.1 10.8-0.1 16.9v12.4h2.1v4.5h-9.4v-4.5h2.6v-12.3c0-6.1 0.1-11.8 0.1-17 0-15.1 0-23.5-0.1-28.1h-2.7z"/>
   <path id="path80" class="st0" d="m315.4 121h5.2v4.5h-2.8c0.5 5.2 0.4 21.5-0.3 50.4 0 1-0.1 2.2-0.1 3.4v2.9h2.8v4.5h-10.7v-4.5h3.3v-10.4c0-1.8 0.1-3.4 0.1-4.8 0.1-4 0.1-8.1 0.2-11.4 0.2-9 0.3-16.2 0.2-21.4-0.6 2.3-1.4 5.3-2.4 9l-1.8 7.2-0.6 2.3c-2.5 9.9-4.4 17.7-5.7 22.5-1.4 5-2.3 8.1-2.9 9.4-0.7 1.5-1.6 2.3-2.6 2.3h-0.5c-1.2-0.1-1.9-0.9-2.3-2.3-0.3-1.4-0.5-4.7-0.6-9.9-0.1-5.1-0.1-12.9 0.1-22.3 0.1-5 0.2-10.5 0.3-16.5 0.1-2.2 0.1-4.5 0.2-6.8 0.1-1.7 0.1-2.2 0.1-3.9h-3.1l-0.1-4.5 10.2-0.2 0.1 4.5h-2.5c-0.3 8.8-0.5 16.1-0.6 24.3-0.2 9.8-0.2 18-0.1 23.8 0.8-2.8 1.6-6.8 2.7-10.8 0.8-3 1.7-6.6 2.7-10.6 3.6-14.2 5.9-21.8 7-25.2 0.9-2.9 1.7-4.5 2.6-4.9l0.8-0.3h1.1zm-5.4-12.6c-0.5 0.8-2 2.8-2.8 3.5-0.8-0.6-2.2-2.1-2.9-2.9l-4.1 2.1c1.6 2.6 3.5 3.8 4.7 5 0.6 0.6 1.1 0.9 1.6 1.1 0.2 0.1 0.3 0.1 0.5 0.2h0.3c1 0 1.4-0.2 2.2-1.1s2.7-2.6 4.2-5.2z"/>
  </g>
 </g>
</svg>
