<?xml version="1.0" encoding="UTF-8"?>
<svg id="Слой_1" width="214.03" height="60.16" data-name="Слой 1" version="1.1" viewBox="0 0 214.03 60.16" xmlns="http://www.w3.org/2000/svg" xmlns:cc="http://creativecommons.org/ns#" xmlns:dc="http://purl.org/dc/elements/1.1/" xmlns:rdf="http://www.w3.org/1999/02/22-rdf-syntax-ns#">
 <metadata id="metadata17">
  <rdf:RDF>
   <cc:Work rdf:about="">
    <dc:format>image/svg+xml</dc:format>
    <dc:type rdf:resource="http://purl.org/dc/dcmitype/StillImage"/>
    <dc:title>logo</dc:title>
   </cc:Work>
  </rdf:RDF>
 </metadata>
 <defs id="defs4">
  <style id="style2">.cls-1{fill:#fff;}.cls-2{fill:#8dbf3f;}.cls-3{fill:#c5d22e;}</style>
 </defs>
 <title id="title6">logo</title>
 <polygon id="polygon8" class="cls-1" points="0.76 13.77 14.7 0.07 213.55 0.07 213.55 60.13 0.76 60.13" fill="#fff"/>
 <path id="path10" class="cls-2" d="m28.14 42.23a2.48 2.48 0 0 0 1.17-0.92 2.41 2.41 0 0 0 0.43-1.39 2 2 0 0 0-0.72-1.62 3.62 3.62 0 0 0-2.29-0.59h-1.75v4.8h0.82a6.7 6.7 0 0 0 2.3-0.29m-28.1 17.67v0.27h133.22l30.08-30.08h-163.3zm23.51-23.64h3a7 7 0 0 1 2.74 0.42 3.36 3.36 0 0 1 1.51 1.3 3.56 3.56 0 0 1 0.56 1.95 3.5 3.5 0 0 1-0.49 1.82 3.61 3.61 0 0 1-1.43 1.33 5.54 5.54 0 0 1 1.8 0.93 3.73 3.73 0 0 1 1 1.3 3.88 3.88 0 0 1 0.35 1.65 4 4 0 0 1-1.32 3.05 5 5 0 0 1-3.54 1.25h-4.18zm-10.22 0h8.22v1.47h-3.34v13.53h-1.53v-13.53h-3.35zm190.18-6.17v16.15l-7.54-7.54-21.47 21.47h39.53v-30.08zm-173 18.38a2.62 2.62 0 0 0-0.19-3.22 3.36 3.36 0 0 0-1.8-1 13.13 13.13 0 0 0-2.67-0.18h-0.85v5.74h1.84a6.67 6.67 0 0 0 2.41-0.32 2.74 2.74 0 0 0 1.27-1.02z" fill="#8dbf3f"/>
 <path id="path12" class="cls-3" d="m82.65 11.61a6.35 6.35 0 0 0-3.21-0.87 6.41 6.41 0 0 0-5.49 3.21 6.5 6.5 0 0 0-0.84 3.28 6.31 6.31 0 0 0 6.32 6.36 6.42 6.42 0 0 0 3.23-0.85 6.07 6.07 0 0 0 2.32-2.32 6.51 6.51 0 0 0 0.83-3.27 6.35 6.35 0 0 0-0.83-3.23 6.22 6.22 0 0 0-2.34-2.31m-16.24-0.22a6.48 6.48 0 0 0-2.19-0.26h-2.65v5.09h2.54a6.65 6.65 0 0 0 2.25-0.28 2.31 2.31 0 0 0 1.12-0.91 2.51 2.51 0 0 0 0.41-1.4 2.47 2.47 0 0 0-0.41-1.38 2.25 2.25 0 0 0-1.07-0.85zm28.4 4.26a2.48 2.48 0 0 0 1.17-0.92 2.41 2.41 0 0 0 0.43-1.39 2 2 0 0 0-0.72-1.62 3.62 3.62 0 0 0-2.29-0.59h-1.74v4.8h0.86a6.7 6.7 0 0 0 2.29-0.28zm-42.3-4a6.35 6.35 0 0 0-3.21-0.87 6.41 6.41 0 0 0-5.49 3.21 6.5 6.5 0 0 0-0.84 3.28 6.31 6.31 0 0 0 6.32 6.36 6.42 6.42 0 0 0 3.23-0.85 6.07 6.07 0 0 0 2.32-2.32 6.51 6.51 0 0 0 0.83-3.27 6.35 6.35 0 0 0-0.83-3.23 6.22 6.22 0 0 0-2.28-2.35zm-24.4 11.62h9.16l-4.69-10.47zm185.62-23.27h-200.07l-13.65 13.65v16.43h163.3l12-12-7.5-7.56h35.71v19.56h10.52v-30.08zm-191.08 23.8a5.1 5.1 0 0 1-3.63 1.24 5.62 5.62 0 0 1-2.8-0.67 6.64 6.64 0 0 1-2.24-2.34l1.16-0.68a5.59 5.59 0 0 0 1.95 2 4.33 4.33 0 0 0 1.89 0.43 3.69 3.69 0 0 0 2.43-0.83 3 3 0 0 0 1-2.43 3 3 0 0 0-0.34-1.47 2.71 2.71 0 0 0-1-1 3.42 3.42 0 0 0-1.18-0.49 11.62 11.62 0 0 0-1.85-0.1h-0.23v-1.36h0.5q3.34 0 3.34-2.7a2.57 2.57 0 0 0-2.68-2.73 3.93 3.93 0 0 0-2.84 1.37l-1-0.92a5 5 0 0 1 3.91-1.84 4.43 4.43 0 0 1 3.05 1.06 3.75 3.75 0 0 1-1.05 6.19 3.82 3.82 0 0 1 3 4 4.29 4.29 0 0 1-1.39 3.27zm17.57 3.11h-1.48v-2.24h-12.06v2.24h-1.48v-3.64h1.22l5.89-13.61h0.5l6.22 13.61h1.17zm14.78-4.16a7.6 7.6 0 0 1-5.59 2.29 7.68 7.68 0 0 1-5.6-2.24 7.51 7.51 0 0 1-2.3-5.53 8 8 0 0 1 1-4 7.73 7.73 0 0 1 6.76-3.94 7.78 7.78 0 0 1 5.7 2.27 8 8 0 0 1 0 11.19zm13.66-6.61a3.91 3.91 0 0 1-2.19 1.31 19.38 19.38 0 0 1-3.81 0.24h-1.09v7h-1.5v-15h3a17.24 17.24 0 0 1 3.47 0.22 3.85 3.85 0 0 1 2.1 1.3 4.2 4.2 0 0 1 0 4.95zm16.44 6.61a7.6 7.6 0 0 1-5.59 2.29 7.68 7.68 0 0 1-5.63-2.28 7.51 7.51 0 0 1-2.3-5.53 8 8 0 0 1 1-4 7.73 7.73 0 0 1 6.76-3.94 7.78 7.78 0 0 1 5.71 2.27 8 8 0 0 1 0 11.19zm12.8 0.67a5 5 0 0 1-3.54 1.25h-4.12v-15h3a7 7 0 0 1 2.74 0.42 3.36 3.36 0 0 1 1.51 1.3 3.56 3.56 0 0 1 0.56 1.95 3.5 3.5 0 0 1-0.49 1.82 3.61 3.61 0 0 1-1.43 1.33 5.54 5.54 0 0 1 1.8 0.93 3.73 3.73 0 0 1 1 1.3 3.88 3.88 0 0 1 0.35 1.65 4 4 0 0 1-1.39 3.05zm16.94-0.67a7.6 7.6 0 0 1-5.59 2.29 7.68 7.68 0 0 1-5.63-2.28 7.51 7.51 0 0 1-2.3-5.53 8 8 0 0 1 1-4 7.73 7.73 0 0 1 6.76-3.94 7.78 7.78 0 0 1 5.71 2.27 8 8 0 0 1 0 11.19zm13.7-11.62h-7.1v4.67h7v1.47h-7v5.9h7v1.47h-8.54v-15h8.6zm-16.14 0.48a6.35 6.35 0 0 0-3.21-0.87 6.41 6.41 0 0 0-5.49 3.21 6.5 6.5 0 0 0-0.84 3.28 6.31 6.31 0 0 0 6.32 6.36 6.42 6.42 0 0 0 3.23-0.85 6.07 6.07 0 0 0 2.32-2.32 6.51 6.51 0 0 0 0.83-3.27 6.35 6.35 0 0 0-0.83-3.23 6.22 6.22 0 0 0-2.34-2.31zm-17.18 6a13.12 13.12 0 0 0-2.67-0.18h-0.85v5.75h1.86a6.68 6.68 0 0 0 2.41-0.32 2.74 2.74 0 0 0 1.23-1 2.62 2.62 0 0 0-0.19-3.22 3.36 3.36 0 0 0-1.8-1.01z" fill="#c5d22e"/>
</svg>
