<svg version="1.1" viewBox="0 0 1451.2 528.4" xml:space="preserve" xmlns="http://www.w3.org/2000/svg">
<g transform="translate(-6475.2 -6661.7)">
							<path d="m7661.1 6664h-227.6c-18.3 0-33.1 14.8-33.1 33.1v234.1-0.1c2.2 143.4 119.1 259 263 259 139.2 0 253.1-108.1 262.4-244.9 10.6-154.6-109.8-281.2-264.7-281.2zm210.4 290.6c-11.9 94.1-86.6 168.7-180.6 180.6-137.4 17.4-253-98.2-235.6-235.6 11.9-94.1 86.6-168.7 180.6-180.6 137.5-17.4 253.1 98.2 235.6 235.6z" fill="#a5e750"/>
									<path d="m7655.8 6786.9-0.6 123.2-86.2-88c-9.5-9.7-14.6-22.4-14.5-36 0.1-13.5 5.5-26.2 15.1-35.6 4.7-4.7 10.4-8.3 16.7-10.8 6.2-2.5 12.6-3.7 19-3.7 9.9 0 19.7 3 28.3 8.9 14.2 9.5 22.3 24.9 22.2 42z" fill="#a5e750"/>
									<path d="m7757 6823.1-87.1 87.1 0.7-123.2c0.1-13.6 5.4-26.4 15.1-35.8 9.7-9.5 22.5-14.6 35.6-14.6 6.7 0 13.4 1.3 19.8 4 7.9 3.3 14.6 8.4 19.7 14.7s8.7 13.9 10.3 22.3c3 16.8-2 33.4-14.1 45.5z" fill="#a5e750"/>
									<path d="m7838.5 6905.7c-9.4 9.2-21.8 14.3-35.1 14.4l-123.2 0.6 87.1-87 0.4-0.4c9.6-9.4 22.3-14.5 35.4-14.5 3.4 0 6.8 0.3 10.3 1 16.8 3.4 30.1 14.5 36.6 30.4 7.9 19.1 3.4 40.9-11.5 55.5z" fill="#a5e750"/>
									<path d="m7850.5 7004.7c-2.7 6.5-6.5 12.2-11.4 16.9-9.3 9.1-21.7 14.2-34.9 14.4-13.5 0.2-26.4-5-36.1-14.5l-87.9-86.3 123.2-0.5h0.2c8.4 0 16.6 2.1 23.8 5.9s13.5 9.4 18.2 16.5c9.6 14.1 11.4 31.9 4.9 47.6z" fill="#a5e750"/>
		<g fill="#a5e750">
			<path d="m6547.2 6710.1c0-6.1-1.7-11.1-5.1-14.8s-8.1-5.5-13.9-5.5c-5.1 0-9.4 1.8-12.6 5.4-2.2 2.4-3.6 5.3-4.3 8.7-0.7 3.3-3.5 5.6-6.9 5.6h-20.1c-4.3 0-7.6-3.9-6.9-8.2 0.9-6.1 3-11.6 6.1-16.7 4.5-7.3 10.7-12.9 18.6-16.9s16.6-6 26.1-6c16.7 0 29.7 4.2 39 12.5s14 20.1 14 35.2c0 7.7-1.9 14.7-5.8 21s-9.2 11.4-16 15c7.7 3.2 13.6 8.1 17.8 14.7 4.1 6.6 6.2 14.7 6.2 24.5 0 15.1-5 27.1-15.1 36-10.1 8.8-23.4 13.3-40.1 13.3-10.1 0-19.3-2-27.5-5.9s-14.6-9.5-19.1-16.8c-3.3-5.3-5.4-11.3-6.3-18.1-0.6-4.2 2.7-8 6.9-8h20.3c3.3 0 6.1 2.3 6.8 5.5 0.8 3.5 2.4 6.5 4.8 9.2 3.6 4.1 8.3 6.1 14.1 6.1 6.5 0 11.6-2 15.4-6.1s5.8-9.3 5.8-15.8c0-8.7-1.7-14.9-5-18.7s-8.1-5.6-14.4-5.6h-10.2c-3.9 0-7-3.1-7-7v-13.3c0-3.9 3.1-7 7-7h10.3c11.5 0 17.1-7.5 17.1-22.3z"/>
			<path d="m6599.6 6804.6c5.4-6.1 9.2-12.3 11.5-18.6 2.3-6.2 3.6-14.9 4-26.2l0.8-46c0.1-3.8 3.2-6.9 7-6.9h67.4c3.9 0 7 3.1 7 7v90.6h16.5v57.6c0 3.9-3.1 7-7 7h-18.6c-3.9 0-7-3.1-7-7v-30.5h-57.5v30.5c0 3.9-3.1 7-7 7h-19.4c-3.9 0-7-3.1-7-7v-57.6h9.3zm36.2 0h29v-69.9h-16.6l-0.1 12.3c-0.2 23.9-4.3 43.1-12.3 57.6z"/>
			<path d="m6717.4 6765.3c0-18.9 4.5-33.7 13.4-44.5s21.2-16.1 37-16.1c15.9 0 28.3 5.4 37.2 16.1 8.9 10.8 13.4 25.7 13.4 44.7v8c0 19-4.4 33.8-13.3 44.5-8.8 10.7-21.2 16-37.1 16-16 0-28.4-5.4-37.3-16.1s-13.3-25.6-13.3-44.7zm32.7 8.2c0 22.3 6 33.4 17.9 33.4 11 0 16.9-9.3 17.8-27.9l0.1-13.7c0-11.4-1.6-19.8-4.7-25.3-3.2-5.5-7.6-8.2-13.4-8.2-5.5 0-9.9 2.7-13 8.2s-4.7 13.9-4.7 25.3z"/>
			<path d="m6926.6 6773.2c0 19.6-3.4 34.6-10.1 45.1s-16.7 15.7-30 15.7c-10.1 0-18.3-4.1-24.4-12.3v51c0 3.9-3.1 7-7 7h-18.6c-3.9 0-7-3.1-7-7v-158.7c0-3.9 3.1-7 7-7h16.9c3.6 0 6.6 2.7 7 6.3l0.5 5.1c6.2-9.1 14.7-13.7 25.5-13.7 13.3 0 23.3 4.8 30 14.5s10.2 24.5 10.3 44.5v9.5zm-32.5-8.1c0-12.1-1.3-20.6-4-25.6s-7.1-7.5-13.4-7.5c-6.7 0-11.6 2.8-14.6 8.4v58.4c2.9 5.4 7.9 8.1 14.9 8.1 6.5 0 10.9-2.7 13.4-8.2s3.7-13.9 3.7-25.5z"/>
			<path d="m6933.3 6765.3c0-18.9 4.5-33.7 13.4-44.5s21.2-16.1 37-16.1c15.9 0 28.3 5.4 37.2 16.1 8.9 10.8 13.4 25.7 13.4 44.7v8c0 19-4.4 33.8-13.3 44.5-8.8 10.7-21.2 16-37.1 16-16 0-28.4-5.4-37.3-16.1s-13.3-25.6-13.3-44.7zm32.8 8.2c0 22.3 6 33.4 17.9 33.4 11 0 16.9-9.3 17.8-27.9l0.1-13.7c0-11.4-1.6-19.8-4.7-25.3-3.2-5.5-7.6-8.2-13.4-8.2-5.5 0-9.9 2.7-13 8.2s-4.7 13.9-4.7 25.3z"/>
			<path d="m7047.5 6824.7v-110.7c0-3.9 3.1-7 7-7h38.3c14.5 0 25.7 3 33.5 9s11.7 14.6 11.7 25.8c0 5.8-1.7 10.9-5 15.5s-8.2 8.1-14.6 10.5c7.8 1.6 13.9 4.9 18.4 9.7 4.5 4.9 6.7 11 6.7 18.5 0 23.7-14.9 35.6-44.8 35.6h-44.2c-3.9 0.1-7-3.1-7-6.9zm32.5-67.1h13.3c4.4 0 7.5-0.9 9.3-2.8s2.7-4.7 2.7-8.4c0-8.1-3.8-12.3-11.3-12.6h-14zm0 22.4v24.8h19.5c4.2 0 7.2-1 8.9-3.1s2.5-5.1 2.5-9.1c0-4.6-0.9-7.8-2.8-9.7s-4.5-2.8-8-2.9z"/>
			<path d="m7149.9 6765.3c0-18.9 4.5-33.7 13.4-44.5s21.2-16.1 37-16.1c15.9 0 28.3 5.4 37.2 16.1 8.9 10.8 13.4 25.7 13.4 44.7v8c0 19-4.4 33.8-13.3 44.5-8.8 10.7-21.2 16-37.1 16-16 0-28.4-5.4-37.3-16.1s-13.3-25.6-13.3-44.7zm32.7 8.2c0 22.3 6 33.4 17.9 33.4 11 0 16.9-9.3 17.8-27.9l0.1-13.7c0-11.4-1.6-19.8-4.7-25.3-3.2-5.5-7.6-8.2-13.4-8.2-5.5 0-9.9 2.7-13 8.2s-4.7 13.9-4.7 25.3z"/>
			<path d="m7312.3 6834c-16.8 0-29.8-5-39.2-15s-14.1-24.3-14.1-42.9v-9.9c0-19.7 4.3-34.8 12.9-45.5s20.9-16 37-16c15.7 0 27.5 5 35.4 15s11.9 24.8 12.1 44.5v9c0 3.9-3.1 7-7 7h-57.9c0.5 9.3 2.5 16 6.1 20.3s9.2 6.4 16.7 6.4c8.3 0 15.6-2.2 21.8-6.5 3.2-2.2 7.7-1.3 9.8 2l5.6 8.7c1.8 2.7 1.5 6.4-0.9 8.7-3.6 3.6-8.2 6.6-13.7 9.1-7.4 3.4-15.7 5.1-24.6 5.1zm-20.5-76.6h32.6v-3c-0.2-7.5-1.4-13.1-3.7-16.9s-6.3-5.8-12-5.8-9.8 2-12.4 6.1-4.1 10.7-4.5 19.6z"/>
		</g>
		<g fill="#a5e750">
			<path d="m7247.9 6881.9h-25v90.9c0 3.9-3.1 7-7 7h-18.6c-3.9 0-7-3.1-7-7v-90.9h-24.8c-3.9 0-7-3.1-7-7v-12.9c0-3.9 3.1-7 7-7h82.5c3.9 0 7 3.1 7 7v12.9c-0.1 3.8-3.3 7-7.1 7z"/>
			<path d="m7263.3 6972.7v-110.7c0-3.9 3.1-7 7-7h38.3c14.5 0 25.7 3 33.5 9s11.7 14.6 11.7 25.8c0 5.8-1.7 10.9-5 15.5s-8.2 8.1-14.6 10.5c7.8 1.6 13.9 4.9 18.4 9.7 4.5 4.9 6.7 11 6.7 18.5 0 23.7-14.9 35.6-44.8 35.6h-44.2c-3.9 0.1-7-3-7-6.9zm32.5-67.1h13.3c4.4 0 7.5-0.9 9.3-2.8s2.7-4.7 2.7-8.4c0-8.1-3.8-12.3-11.3-12.6h-13.9v23.8zm0 22.5v24.8h19.5c4.2 0 7.2-1 8.9-3.1s2.5-5.1 2.5-9.1c0-4.6-0.9-7.8-2.8-9.7-1.8-1.8-4.5-2.8-8-2.9z"/>
		</g>
	</g>
</svg>
