<svg id="a" version="1.1" viewBox="0 0 223.7 104.6" xml:space="preserve" xmlns="http://www.w3.org/2000/svg">
<g id="b" transform="translate(-89.3,-279)">
		<rect id="c" x="208.4" y="279" width="104.6" height="104.6" fill="#e31a1a"/>
		<path id="d" d="m160.2 324.1c0.1 0.2 0.1 0.2 0.2 0zm0.2 0zm-28.7 36.6c-0.1-0.3-0.1-0.4 0.1-0.4 0.2 0.1 0.2 0.2-0.1 0.4m-0.7-0.7c-0.1-0.1 0-0.1 0-0.2 0 0 0.1 0.1 0 0.2 0.1-0.1 0.1 0 0 0m-1.3 1.9c-0.4-1.1-0.2-1.6 0.9-2.5-0.1 1-0.3 1.9-0.9 2.5m-0.3 1.2c-0.1-0.2-0.1-0.3 0.1-0.3 0.1 0.2 0.1 0.3-0.1 0.3m-2-4.5c0.1 0.1 0 0.1 0 0m-1.7-3.9m-0.5 2.9c-0.5-0.4-0.5-0.7-0.4-1.1 0-0.2 0.1-0.2 0.2-0.1 0.3 0.3 0.2 0.6 0.2 1.2m-2.9 3.1c0-0.4 0-0.7 0.6-0.6 0 0.4-0.4 0.5-0.6 0.6m-1.6-1c-0.4 0.3-0.9 0.4-1.5 0.5-0.3 0-0.4 0.1-0.3 0.3 0.2-0.1 0.5-0.1 0.7 0h0.1v0.1s-0.1 0-0.1 0.1c-0.2 0.2-0.4 0.2-0.6 0.1-0.3 0.1-0.6 0.3-0.8 0.4-0.5 0-0.7-0.4-1.1-0.6-1.2 0.2-2.3 0.2-3.5-0.7 0.7-0.4 1.4-0.1 2 0-0.9-0.4-1.8-0.9-2.9-0.4 1.4-3 1.7-6.3 3.2-9.3 1.4 0.5 2.9 0.9 4.1 1.7 1.2 0.7 1.7 2 1.9 3.4 0.1 1.7-0.3 3.1-1.2 4.4m0.4 1.4c-0.1 0.1-0.3 0.1-0.4 0.2-0.1 0-0.3 0.1-0.4 0.1-0.2 0.1-0.5 0.1-0.7 0-0.2 0.1-0.3 0.1-0.5-0.1h0.4c0.2-0.2 0.4-0.2 0.6-0.1 0.1 0 0.3-0.1 0.4-0.1 0.1-0.1 0.3-0.1 0.4-0.2 0.1-0.2 0.3-0.3 0.5-0.3 0.1 0.2 0 0.5-0.3 0.5m-13.8 9.2c0.7-0.3 0.7-0.3 1.5 0.3-0.6 0-1-0.2-1.5-0.3m-7.3 9.9c-0.2 0-0.3 0.1-0.5 0.1-0.3-0.4 0-0.5 0.3-0.5 0.2 0 0.3 0.2 0.2 0.4m-2-0.5c0-0.1 0.1-0.1 0 0 0.1 0 0.1 0 0 0m30.5-37.2c-3-2.5-6.3-4.2-10-5.4-1.2-0.4-2.3-0.9-3.6-0.9-2.2 0.1-4.4-0.1-6.7 0.9-0.7 1.4-1.6 2.8-2.2 4.5-0.8 2.7-1.5 5.5-3 7.9-0.1 0.2-0.1 0.4-0.2 0.6-0.6 1.7-1 3.5-1.7 5.2-1.1 2.7-2.2 5.4-3.6 8-2.3 4.4-4.4 8.9-6.1 13.6-0.2 0.5-0.3 1-0.1 1.7 0.1 0.2 0.3 0.4 0.5 0.7 0.2 0.2 0.3 0.6 0.6 0.8 0.3 0 0.3-0.5 0.7-0.1 0.3 0.2-0.1 0.8 0.3 1 0.6 0 0.6-0.6 0.8-1v-0.2c0.1 0 0.1 0.1 0.2 0.1 0.4 0.3 0 0.9 0.5 1.2 0.7-0.4 1 0.1 1.5 0.4 0.2 0.3-0.4 0.5 0 0.8 0.7-0.6 0.6-1.9 1.5-2.4 0 0.3 0.1 0.7 0.1 1 0.2-0.1 0.4-0.3 0.4-0.3 0.5-0.1 0.5 0.4 0.9 0.3 0.3 0 0.5-0.2 0.7-0.5 0.4 0.4 0.5 0.8 0.6 1.4 1.2-1 2-2 2.5-3.4 0.9-2.6 2.5-4.9 3.8-7.4 0.9 0.3 1.6 0.7 2.3 1.1 1.7 0.7 3.4 1.4 5.1 1.8-2.1-0.6-4.1-1.7-6.1-2.5 0-0.1 0.1-0.2 0.1-0.3 1.3 0.5 2.6 1.1 3.7 1.6 2.6-1.1 4.8 0.4 7 0.7-0.5 0.4-0.9 0.8-1.5 0.5-1.1 0.4-2.2-0.1-3.2-0.1 0.7 0.3 1.5 0.4 2.3 0.5 2 0.3 3.9-0.3 5.9-0.1 0.3-0.3 0.5-0.8 1.1-0.9 2.1-0.6 3.8-2.1 5.7-3.1 0.9-0.5 1.8-1.2 2-2.3 0.2-1 0.6-1.9 1.2-2.7 0.5-0.8 0.9-1.5 1.1-2.4 1.3-4.4 1.4-8.9-0.4-13.2-1-2.8-2.4-5.2-4.7-7.1m12.5-56.2v0.2s-0.1 0-0.1-0.1 0.1-0.1 0.1-0.1m2 38.7c1.2 0.4 1.6 0.7 2.9 2.4-1.2-0.4-2.2-1.1-3.1-2.2l-0.2-0.2c0.2-0.2 0.3-0.1 0.4 0m3.4 1.8 0.1 0.1-0.1 0.1-0.1-0.1s0.1 0 0.1-0.1m-47.4 1.7c-0.7 1.2-1.6 2.1-2.7 2.6 1-1.9 1.4-2.2 2.5-2.8 0.1-0.1 0.2-0.3 0.3-0.1-0.1 0.1-0.1 0.2-0.1 0.3m-9.7-1.7c0.7 2.1 2.1 4 3.1 6.2 0.7 0.8 1.5 1.6 2.3 2.4 2.4-0.1 4.2-1.2 5.7-3.2 2.4-3.2 4.7-6.5 7.6-9.1 1.7-1.5 3.1-3.3 4.7-5 0.3-0.3 0.5-0.7 0.9-0.8 0 0 0.4 2.5 0.5 3.4 0.1 0.8 0.1 1.5 0.2 2.3 0.1 1.2 0.1 2.5 0.2 3.7 0 1.3 0.2 2.6 0.7 3.9 0.3 0.7 0.6 1.5 1.2 1.8 0.8 0.3 1.2 1.1 1.8 1.5 0.5-0.1 0.9 0.1 1.4 0.3 1.5 0.5 3 0.5 4.2-0.5 1.7-1.4 2.7-3.5 2.8-5.8 0.2-2 0.1-6 0-8.7 0-1.1 1.2-1.8 2-1.2 1.4 1.1 3.3 2.5 4.3 3.2 3.3 2.2 6 5.1 8.9 7.9 1.8 1.8 3.8 2.6 6.1 2.3 0.7-0.9 1.3-1.8 1.9-2.7 0.6-2.2 1.7-4.4 2.1-6.6-5.2-4.8-14.8-13.1-18-15.9-0.6-0.5-0.7-1.5-0.2-2.1 4.3-6 9-11.6 12.3-18.1-0.3-0.6-0.5-1.2-0.6-1.4-2.2-1.3-4-2.9-6.3-3.9-0.5 0-1.1 0-1.8 0.1-4.1 4.4-7.4 9.6-11.3 14.3-0.7 0.9-2.1 0.5-2.3-0.7-0.1-0.8-0.2-1.5-0.2-1.9 0.2-2.6 0.2-5.3-0.6-7.7-0.5-1.5-0.9-3.2-2.5-3.8-2.5 0.5-4.9 0.4-7.3 0.7-0.5 0.6-0.8 1.2-1 1.9-0.2 0.5-0.2 1.2-0.6 1.6-0.5 0.5-0.6 1.2-0.6 1.9-0.1 2.8-0.1 5.5 0 8.3 0 0.4-0.4 0.6-0.7 0.3-2.2-2.2-8.9-8.8-12.9-12-0.7 0-1.4 0.1-1.8 0.2-2.1 1.3-3.7 3.1-5.7 4.8-0.1 0.3-0.2 0.9-0.4 1.5 3.5 4.9 7.8 9.1 12.1 13.3 2.1 2.1 2.3 5.6 0.4 7.8-3.4 4.3-9.2 11.2-12.6 15.5m51.4 48.9c0 0.1-0.1 0.2-0.1 0.3 0-0.1 0-0.2 0.1-0.3m18.5-21.7c-0.2-1.5 0.1-2.8 0.5-4.1 0.3-1 1.6-1.3 2.3-0.4s1.3 1.8 1.8 2.8c-1.4 0.9-3 1-4.6 1.7m-16 21.9h0.1zm46.7-11c0-0.9-0.4-1.6-0.9-2.3-0.9-1.1-2.6-4.6-3.9-6.5-1.4-2-2.6-4.2-4.3-5.8-1.4-1.4-2.9-2.8-4.3-4.2-2.3-2.4-5.4-5.1-6.7-8.3-0.6-1.3-0.1-2.2 1.4-2.2 1.4 0-1.9-2-2.6-3.1-0.9-1.7-2.2-2.9-3.5-4.1-1.6-1.4-3-3.1-5.3-3.3 0 0.1 0 0.3-0.2 0.3-0.1 0-0.1-0.1-0.1-0.2-2.2 0.6-4.7 0-6.9 1.2-0.2 0.7-0.4 1.3-0.6 1.9-1.4 4.3 0.7 1.1-0.7 5.4-0.7 2.3-3.7 12.4-4.6 14.6-1.2 3.1-2 6.3-2.9 9.5-0.3 1.1-0.2 2.2-0.6 3.2-0.6 1.6-0.6 3.4-1.2 5-0.7 1.7-0.6 3.4-0.8 5.2 0.1 0.8-0.2 1.9-0.3 2.7-0.1 0.6-0.1 1.2-0.2 1.7 0.1-0.3 0.2-0.5 0.4-0.6s0.5 0.1 0.5 0.4c0.1 0.2 0 0.5 0 0.7s0 0.5 0.2 0.7c0.3 0.2 0.7 0.1 1 0.2 0.7 0.1 1.2 1.2 1.9 0.9 0.2-0.1 0.4-0.2 0.5-0.2 0.3 0 0.5 0.5 0.6 0.8 0.3 0.7 1 1.2 1.8 1.1 0.3 0 0.7-0.1 1 0.1l0.3 0.3c0.5 0.5 1.2 0.6 1.9 0.8 1.3 0.2 2.2-2.9 2.5-3.7 0.5-1.5 1-3 1.7-4.3 1.3-2.4 3.7-4.1 6.3-4.8 1-0.3 1.9-0.5 2.6-0.6 0.6-0.1 1.5-0.3 2-0.5 2.1-0.6 4.2-1.4 6.5-1.9 2.2 2.8 4.2 5.8 7.1 8.2 1.4 0 2.8 0.2 4.1-0.2 1.1-0.3 1.6-1.1 2.5-1.6 0.3-0.2 0.6-0.2 0.9-0.4 1.2-0.6 1.3-2.3 2.2-3.3 0.1-0.1 0.2-0.2 0.3-0.4 0.5-0.6 0.4-1.8 0.4-2.4m-40.3-49.6zm-0.9-0.5zm32.7-31zm-30.3 31.5zm22.6-14.7c0.4 1.6 0.8 3 0.8 4.6-1 0.1-2.8-0.1-3.9-0.5 0.6-1.8 2.1-2.7 3.1-4.1m-23.7 13c0.6 0.7-0.2 1.1-0.4 1.6 0.6 0 0.7 0.8 1.3 0.8 0.1 0 0.2-0.1 0.2-0.1 0.1 0.2 0 0.2-0.1 0.3-0.2 0.5 0.2 0.7 0.4 0.9 0.3 0.2 0.6-0.3 0.9 0.1 0 0.5-0.1 1.1 0.1 1.5 0.5 0.6 1 0.9 1.6 1.1 0.1 1 0.8 1.2 1.5 1.8 2.8-1.8 5-4.2 7.1-6.7 0.4 0 5 0.7 7 1.3 0.4 0.1 1.2 0.3 1.7 0.4 0.8 0.1 1.7 0.3 2.5 0.4 1.7 0.3 3.1 1.6 3.5 3.3 0.4 2 0.8 3.9 1.7 5.8 1.6 0.8 3.1 2 5.2 1.1 0.2-0.1 0.4-0.1 0.6 0 0.7 0.2 1.3-0.1 1.9-0.5s1-1.1 1.9-1.1c0.1-2.4 0.5-4.7-0.2-7.1-0.4-1.1-0.3-2.1 0.6-2.9-0.1-1.7-0.4-3.2-0.6-4.8-0.7-5.1-1.3-10.2-2.2-15.3-0.2-1.1-0.7-2.1-0.8-3.2-0.1-1.5-0.5-2.9-1.1-4.3-0.6-1.6-1-3.4-2.7-4.3 0 0.1-0.1 0.2-0.2 0.1v-0.2c-1.9-0.4-3.5-1.7-5.5-1.6-0.4 0.4-0.7 0.8-1.1 1.2-2.5 2.6-4.6 5.7-7.1 8.3-1.4 1.5-2.5 3.1-3.9 4.5-2 1.8-3.7 3.9-5.5 6-0.6 0.7-0.9 1.5-1.6 2.1-1 1-1.6 2.3-2.7 3.2-1 0.9-1.8 1.9-2.3 3.1-0.6 1.6-2.2 2.6-2.9 4.1 0.4 0 0.6-0.7 1.2-0.9m31.2-29.9z" fill="#e31a1a"/>
		<path id="e" d="m241.5 371-0.2 1h1.1v0.9h-1.3l-0.3 1.8h-1l0.3-1.8h-0.8l-0.3 1.8h-0.9l0.3-1.8h-1v-0.9h1.2l0.2-1h-1.1v-0.9h1.3l0.3-1.8h1l-0.3 1.8h0.9l0.3-1.8h0.9l-0.3 1.8h1v0.9zm-2 1h0.9l0.2-1h-0.9z" fill="#fff"/>
		<polygon id="f" points="243.2 369.4 243.2 368.3 247.8 368.3 247.8 369.2 244.8 373.6 247.9 373.6 247.9 374.7 243.2 374.7 243.2 373.8 246.2 369.4" fill="#fff"/>
		<polygon id="g" points="250.3 374.7 248.9 374.7 248.9 368.3 250.3 368.3 250.3 370.8 252.8 370.8 252.8 368.3 254.1 368.3 254.1 374.7 252.8 374.7 252.8 371.9 250.3 371.9" fill="#fff"/>
		<path id="h" d="m259.7 374.7-0.5-1.5h-2.3l-0.5 1.5h-1.4l2.3-6.4h1.7l2.3 6.4zm-0.8-2.7c-0.4-1.4-0.7-2.2-0.7-2.3-0.1-0.2-0.1-0.3-0.1-0.4-0.1 0.4-0.4 1.3-0.8 2.8h1.6z" fill="#fff"/>
		<path id="i" d="m263.3 372.2v2.4h-1.4v-6.4h1.9c0.9 0 1.5 0.2 1.9 0.5s0.6 0.8 0.6 1.4c0 0.4-0.1 0.7-0.3 1s-0.5 0.5-0.9 0.7c1 1.4 1.6 2.4 1.9 2.8h-1.5l-1.5-2.4zm0-1.1h0.4c0.4 0 0.7-0.1 0.9-0.2s0.3-0.4 0.3-0.7-0.1-0.5-0.3-0.6-0.5-0.2-1-0.2h-0.4v1.7z" fill="#fff"/>
		<path id="j" d="m271.7 374.7-0.5-1.5h-2.3l-0.5 1.5h-1.4l2.3-6.4h1.7l2.3 6.4zm-0.8-2.7c-0.4-1.4-0.7-2.2-0.7-2.3-0.1-0.2-0.1-0.3-0.1-0.4-0.1 0.4-0.4 1.3-0.8 2.8h1.6z" fill="#fff"/>
		<polygon id="k" points="273.4 368.3 278.2 368.3 278.2 369.4 276.5 369.4 276.5 374.7 275.1 374.7 275.1 369.4 273.4 369.4" fill="#fff"/>
		<path id="l" d="m282.8 368.3h1.4l-2.2 6.4h-1.5l-2.2-6.4h1.4l1.2 3.8c0.1 0.2 0.1 0.5 0.2 0.8s0.1 0.5 0.1 0.6c0-0.3 0.1-0.7 0.3-1.4z" fill="#fff"/>
		<path id="m" d="m247.5 339.8s-0.1 0.1 0 0.1h0.1l-0.1-0.1c0.1 0 0.1 0 0 0" fill="#fff"/>
		<path id="n" d="m257.6 305.4-30.6 0.6c-0.9 0.1-1.3 0.5-1.4 1.4l-0.4 10.3c0 1 0.8 1.6 1.6 1.4l9.4-1.8-0.4 14.6-0.3 8.4h0.1s-0.1 0-0.1 0.1l-0.3 10.9c-0.1 0.8 0.6 1.4 1.4 1.4l9.3-0.2c0.8-0.1 1.3-0.5 1.3-1.4l0.1-0.5 0.3-12.2 0.1-1.6 0.5-20.6 9.3-0.3c0.8-0.1 1.2-0.5 1.3-1.4l0.2-7.7c0.1-0.8-0.6-1.4-1.4-1.4" fill="#fff"/>
		<path id="o" d="m295.2 307.7-6.7-2.7-1-0.3c-0.8-0.3-1.6 0.1-1.8 0.9l-8 25.1-4.4-18.5-0.1-0.3-1.2-5.1c-0.2-0.8-0.6-1.1-1.4-1.1h-8.1c-0.9 0-1.5 0.8-1.4 1.7l1.1 5.1v0.1l3.4 16.6 4.9 22.5c0.1 0.8 0.6 1.1 1.4 1.1l9.6-0.2c0.7-0.1 1.1-0.3 1.3-1l2.2-7.1 10.8-35c0.5-1 0.2-1.6-0.6-1.8" fill="#fff"/>
	</g>
</svg>
