<?xml version="1.0" encoding="UTF-8"?>
<!-- Generator: Adobe Illustrator 16.0.0, SVG Export Plug-In . SVG Version: 6.00 Build 0)  -->
<svg id="svg24" width="214.26" height="215.09" enable-background="new 0 0 283.464 283.464" version="1.1" viewBox="0 0 214.26 215.09" xml:space="preserve" xmlns="http://www.w3.org/2000/svg" xmlns:cc="http://creativecommons.org/ns#" xmlns:dc="http://purl.org/dc/elements/1.1/" xmlns:rdf="http://www.w3.org/1999/02/22-rdf-syntax-ns#"><metadata id="metadata30"><rdf:RDF><cc:Work rdf:about=""><dc:format>image/svg+xml</dc:format><dc:type rdf:resource="http://purl.org/dc/dcmitype/StillImage"/><dc:title/></cc:Work></rdf:RDF></metadata><g id="g20" transform="translate(-34.6 -34.186)" fill="#ee2534"><path id="path4" d="m155.03 102.44c1.348 1.087 0.103 2.125-0.051 3.168 1.132-0.289 1.583 1.197 2.665 1.029 0.132-0.079 0.261-0.158 0.395-0.23 0.297 0.248 0.055 0.385-0.118 0.534-0.11 0.899 0.59 1.229 0.997 1.551 0.708 0.333 1.057-0.722 1.682-0.109 0.19 0.977 0.224 2.032 0.736 2.753 1.086 0.951 2.252 1.232 3.285 1.408 0.49 1.793 2.003 1.97 3.498 2.79 4.488-4.329 7.652-9.573 10.615-14.993 0.848-0.116 9.557-0.614 13.493-0.205 0.882 0.092 2.327 0.116 3.212 0.082 1.584-0.053 3.165-0.147 4.763-0.211 3.35-0.137 6.426 1.806 7.719 4.897 1.458 3.47 3.028 6.9 5.348 10.021 3.266 0.836 6.561 2.531 9.979 0.13 0.303-0.209 0.771-0.291 1.158-0.273 1.44 0.056 2.305-0.748 3.267-1.709 0.934-0.932 1.416-2.398 3.106-2.75-0.776-4.412-0.759-8.969-3.048-13.008-1.088-1.92-1.28-3.79 0.117-5.588-0.802-3.046-1.995-5.849-2.981-8.716-3.161-9.194-6.306-18.396-9.839-27.458-0.765-1.953-2.138-3.691-2.608-5.644-0.675-2.84-2.101-5.228-3.633-7.54-1.776-2.684-3.195-5.839-6.633-6.989-0.033 0.208-0.109 0.401-0.362 0.315-0.081-0.032-0.101-0.225-0.148-0.348-3.599 7e-3 -7.072-1.907-10.753-0.837-0.563 0.913-1.056 1.736-1.575 2.543-3.729 5.815-6.354 12.244-9.972 18.109-1.983 3.214-3.395 6.749-5.629 9.805-3.039 4.157-5.468 8.684-8.019 13.134-0.837 1.463-1.129 3.184-2.13 4.576-1.552 2.158-2.146 4.797-3.734 6.946-1.46 1.985-2.625 4.201-3.006 6.64-0.518 3.283-3.035 5.608-3.784 8.766 0.762-0.766 0.925-1.995 1.988-2.589zm39.101-33.007c1.276 2.741 2.654 5.291 3.274 8.132-1.76 0.624-5.23 0.885-7.433 0.498 0.331-3.518 2.759-5.789 4.159-8.63zm-36.401 35.634-0.1 0.131-0.05-0.161z"/><path id="path6" d="m196.72 198.39c1.701-0.827 3.32-1.56 4.575-2.015 1.021-0.37 2.622-1.121 3.578-1.628 3.703-1.972 7.317-4.115 11.316-5.858 3.839 3.247 7.456 6.771 11.613 9.684l2.376-0.589c0.873-0.225 1.722-0.262 1.956-0.1 0.076 0.078 0.012 0.186-0.159 0.301 0.685-0.152 1.37-0.305 2.062-0.46 1.043-0.239 2.093-0.481 3.144-0.722 2.154-0.492 4.329-0.989 6.525-1.49-3.108 0.628-6.212 1.248-9.309 1.854-0.434 0.081-0.792 0.066-0.812-0.044 0.021-0.111 0.372-0.271 0.833-0.369 3.616-0.706 7.236-1.43 10.86-2.164 0.119-0.08 0.235-0.163 0.346-0.256 1.935-1.618 1.492-4.758 2.845-6.883 0.147-0.242 0.331-0.479 0.368-0.759 0.135-1.028-0.394-3.268-0.601-4.378-0.305-1.683-1.306-2.903-2.615-3.966-2.09-1.696-6.448-7.543-9.599-10.694-3.26-3.191-6.358-6.745-10.212-9.218-3.183-2.042-6.409-4.043-9.526-6.181-5.229-3.595-11.906-7.447-15.541-12.846-1.514-2.253-1.022-4.022 1.737-4.525 2.532-0.458-4.325-2.918-5.888-4.816-2.271-2.763-5.116-4.628-8.046-6.352-3.405-2.004-6.658-4.721-11.072-4.135 0.097 0.246 0.124 0.501-0.203 0.541-0.105 0.01-0.23-0.196-0.353-0.303-3.94 1.944-8.802 1.689-12.282 4.841-0.132 1.311-0.23 2.482-0.371 3.653-0.983 8.397 1.641 1.83 0.806 10.226-0.46 4.599-2.187 24.289-3.006 28.851-1.116 6.211-1.361 12.493-1.783 18.763-0.138 2.054 0.46 4.107 0.104 6.176-0.556 3.206 0.21 6.429-0.383 9.647-0.619 3.318 0.138 6.557 0.427 9.871 0.546 1.337 0.292 3.665 0.355 5.112 0.05 1.087 0.322 2.216 0.255 3.316 0.048-0.51 0.127-1.017 0.578-1.267 0.395-0.227 0.917 0.063 1.137 0.466 0.222 0.401 0.233 0.879 0.304 1.328 0.073 0.45 0.237 0.938 0.637 1.165 0.562 0.322 1.255-0.02 1.9-0.089 1.354-0.148 2.633 1.786 3.927 0.998 0.321-0.195 0.584-0.51 0.952-0.551 0.643-0.076 1.02 0.673 1.375 1.215 0.771 1.178 2.323 1.777 3.688 1.425 0.631-0.161 1.284-0.507 1.894-0.286 0.289 0.105 0.51 0.322 0.762 0.499 1.063 0.756 2.479 0.736 3.786 0.685 2.407-0.094 2.975-6.104 3.229-7.786 0.434-2.913 0.648-5.883 1.564-8.697 1.589-4.879 5.346-8.959 9.947-11.19zm-30.96 22.017 0.149-0.143 0.054 0.18zm20.665-54.439c0.153-2.011 2.55-2.977 4.064-1.644 1.644 1.448 3.159 2.839 4.444 4.535-2.121 2.259-4.999 3.012-7.828 4.865-0.942-2.738-0.878-5.218-0.68-7.756z"/><path id="path8" d="m126.12 164c-6.431-3.493-13.334-5.493-20.547-6.25-2.279-0.239-4.64-0.86-6.968-0.312-4.053 0.955-8.263 1.445-12.162 4.15-0.716 2.757-1.971 5.81-2.317 9.088-0.557 5.292-0.669 10.65-2.563 15.727-0.127 0.342-0.108 0.737-0.147 1.107-0.376 3.431-0.513 6.911-1.173 10.284-1.059 5.416-2.139 10.822-3.635 16.158-2.533 9.02-4.861 18.107-6.254 27.399-0.157 1.06-0.114 2.04 0.346 3.123 0.346 0.299 0.746 0.692 1.198 1.019 0.515 0.368 0.746 1.072 1.392 1.213 0.474-0.07 0.422-1.036 1.216-0.487 0.632 0.331 0.129 1.448 0.989 1.786 1.118-0.294 0.833-1.311 1.047-2.065-3e-3 -0.142-6e-3 -0.275-7e-3 -0.431 0.121 0.067 0.235 0.131 0.348 0.192 0.864 0.365 0.362 1.655 1.331 1.952 1.077-0.977 1.994-0.114 2.887 0.191 0.403 0.48-0.616 1.087 0.308 1.434 1.102-1.478 0.418-3.677 1.958-4.971 0.172 0.603 0.343 1.205 0.514 1.811 0.29-0.327 0.58-0.66 0.672-0.764 0.903-0.457 1.138 0.576 1.768 0.283 0.595-0.158 0.869-0.601 1.047-1.126 0.843 0.506 1.303 1.328 1.622 2.407 1.903-2.27 2.965-4.537 3.294-7.246 0.641-5.224 2.726-10.045 4.34-15.144 1.727 0.146 3.201 0.732 4.734 1.068 3.359 0.74 6.741 1.365 10.206 1.358-4.191-0.342-8.192-1.582-12.297-2.338 0.032-0.195 0.059-0.383 0.089-0.577 2.621 0.528 5.232 1.059 7.532 1.524 4.507-2.939 8.956-1.087 13.304-1.239-0.737 0.876-1.352 1.827-2.648 1.593l-0.01-0.011c-1.878 1.12-4.057 0.563-6.048 1.077 1.483 0.289 2.96 0.089 4.45 0.043 3.791-0.122 7.148-1.978 10.887-2.388 0.521-0.726 0.723-1.649 1.633-2.114 3.717-1.894 6.205-5.298 9.435-7.804 1.561-1.214 2.848-2.961 2.784-5.004-0.066-1.971 0.468-3.668 1.158-5.411 0.615-1.571 1.073-3.204 1.229-4.89 0.792-8.73-0.713-16.925-5.633-24.36-2.983-4.505-6.479-8.43-11.309-11.055zm-42.699 80.24c0.044-0.058 0.094-0.122 0.094-0.122 0.122 0.077 0.08 0.122-0.094 0.122zm3.92 0.225c-0.288 0.151-0.575 0.302-0.857 0.447-0.635-0.669-0.241-1.005 0.334-1.116 0.425-0.085 0.549 0.286 0.523 0.669zm9.743-21.153c1.112-0.797 1.112-0.797 2.949-0.075-1.092 0.308-1.945 0.211-2.949 0.075zm18.105-21.75c-0.516 0.39-1.033 0.777-1.379 1.035-0.971 0.233-1.376-0.497-2.189-0.648-2.051 0.867-4.285 1.217-6.778 0.076 1.24-0.983 2.494-0.641 3.686-0.661-1.808-0.469-3.621-1.008-5.526 0.435 1.456-6.115 0.773-12.359 2.38-18.513 2.857 0.326 5.664 0.645 8.241 1.627 2.453 0.938 3.936 3.048 4.825 5.542 0.993 2.775 0.681 5.471-0.481 8.381-0.528 0.767-1.579 1.17-2.656 1.494-0.454 0.138-0.659 0.29-0.391 0.75 0.395-0.238 0.818-0.324 1.272-0.232 0.076-0.038 0.15-0.09 0.229-0.102 0.028-4e-3 0.11 0.125 0.097 0.147-0.039 0.067-0.118 0.113-0.179 0.169-0.23 0.521-0.702 0.481-1.151 0.5zm4.078-0.39c-0.221 0.145-0.438 0.294-0.663 0.441-0.23 0.133-0.459 0.271-0.687 0.411-0.361 0.336-0.792 0.38-1.257 0.289-0.288 0.221-0.576 0.402-0.885-0.076 0.255-0.071 0.489-0.136 0.726-0.203 0.257-0.464 0.696-0.445 1.136-0.425 0.231-0.139 0.463-0.274 0.695-0.41 0.216-0.157 0.431-0.313 0.645-0.469 0.185-0.383 0.417-0.708 0.893-0.726 0.014 0.499-0.02 0.969-0.603 1.168zm2.049-1.166c-0.231-0.703-0.202-1.216 0.839-1.412 0.139 0.849-0.426 1.039-0.839 1.412zm3.102-8.767c-0.094-0.405 0.059-0.45 0.374-0.261 0.567 0.474 0.48 1.128 0.696 2.101-1.102-0.499-1.194-1.11-1.07-1.84zm5.561 3.05c0.179 0.093 0.082 0.138 0 0zm5.355 7.557c-0.338-0.263-0.194-0.447 0.084-0.613 0.26 0.261 0.277 0.465-0.084 0.613zm0.082-2.341c-1.082-1.997-0.966-2.813 0.805-4.898 0.116 1.827 0.237 3.407-0.805 4.898zm1.838-4.1c-0.056-0.028-0.159-0.064-0.159-0.094 5e-3 -0.066 0.044-0.151 0.102-0.188 0.025-0.019 0.113 0.054 0.171 0.086-0.035 0.067-0.075 0.131-0.114 0.196zm1.468 0.988c-0.328-0.453-0.289-0.663 0.013-0.831 0.437 0.18 0.463 0.417-0.013 0.831z"/><path id="path10" d="m154.98 105.63c2e-3 -6e-3 2e-3 -0.016 2e-3 -0.023-4e-3 1e-3 -0.01 2e-3 -0.014 4e-3z"/><path id="path12" d="m160.69 130.24c0.36-4.393 1.582-8.753 1.477-12.942l2e-3 -4e-3c-11.441-6.997-32.325-18.813-39.35-22.776-1.319-0.742-1.883-2.461-1.247-3.851 5.8-12.708 12.341-24.803 16.09-38.231-0.702-1.068-1.293-1.963-1.619-2.458-4.551-1.687-8.532-3.947-13.159-4.869-0.921 0.148-2.087 0.436-3.387 0.84-6.015 9.745-10.199 20.616-15.548 30.802-0.996 1.893-3.641 1.618-4.45-0.441-0.539-1.371-0.994-2.699-1.082-3.472-0.567-4.93-1.531-9.842-3.977-14.129-1.488-2.607-2.813-5.632-6.061-6.098-4.409 1.82-8.972 2.559-13.263 4.087-0.782 1.243-0.999 2.581-1.107 3.982-0.084 1.068 0.069 2.214-0.482 3.181-0.672 1.178-0.564 2.51-0.342 3.762 0.904 5.13 1.792 10.256 3.041 15.325 0.182 0.729-0.529 1.3-1.137 0.893-4.929-3.29-19.744-13.069-28.361-17.444-1.321 0.328-2.465 0.69-3.329 1.042-3.471 3.2-5.691 7.202-8.699 11.009-0.02 0.599-0.058 1.666-0.102 2.94 8.383 7.83 17.913 13.896 27.473 20.166 4.677 3.065 6.29 9.5 3.587 14.364-5.224 9.403-13.415 24.267-18.202 33.608 2.092 3.63 5.404 6.715 7.999 10.276 1.672 1.139 3.387 2.304 5.188 3.529h1e-3c4.394-1.09 7.333-3.752 9.432-8.056 3.292-6.746 6.236-13.727 10.714-19.756 2.544-3.427 4.599-7.281 6.875-10.94 0.397-0.633 0.633-1.411 1.378-1.847 0.076 0.064 1.771 4.527 2.296 6.181 0.403 1.368 0.803 2.745 1.215 4.117 0.616 2.248 1.185 4.508 1.723 6.779 0.581 2.459 1.371 4.802 2.769 6.912 0.78 1.177 1.71 2.601 2.839 2.856 1.562 0.35 2.552 1.562 3.94 2.101 0.879-0.396 1.785-0.085 2.711 0.011 2.894 0.304 5.806-0.197 7.668-2.463 2.671-3.238 3.622-7.391 3.085-11.818-0.456-3.775-2.121-11.115-3.312-16.12-0.5-2.103 1.46-3.813 3.317-2.887 3.082 1.542 6.959 3.428 9.121 4.298 6.959 2.82 13.112 7.241 19.432 11.29 4.037 2.582 7.933 3.321 12.25 1.964 0.901-1.985 1.759-3.874 2.593-5.713zm-32.455-75.2c0.021 0.143 0.045 0.287 0.062 0.431-0.066-0.025-0.172-0.036-0.195-0.081-0.096-0.217-0.038-0.34 0.133-0.35zm-62.202 94.034c-0.828 2.418-2.138 4.415-4.082 5.871 1.214-3.827 1.723-4.618 3.669-6.134 0.124-0.229 0.223-0.53 0.562-0.241-0.051 0.161-0.099 0.336-0.149 0.504zm80.042-22.487c-0.13-0.118-0.262-0.238-0.391-0.356 0.141-0.418 0.377-0.212 0.607-0.083 2.449 0.282 3.292 0.691 6.326 3.326-2.42-0.228-4.579-1.256-6.542-2.887zm7.377 2.016c-0.072-0.054-0.199-0.097-0.214-0.166-0.012-0.066 0.08-0.155 0.128-0.234 0.074 0.054 0.2 0.097 0.214 0.165 0.011 0.065-0.081 0.155-0.128 0.235z"/><path id="path14" d="m161 220.94c-0.029 0.173-0.063 0.348-0.117 0.518 0.062-0.148 0.093-0.33 0.117-0.518z"/><polygon id="polygon16" points="153.04 105.04 153.04 105.04 153.04 105.03"/><path id="path18" d="m178.27 117.84c-0.142 0.031-0.283 0.058-0.422 0.086l0.015-2e-3c0.21 0.336 0.341 0.285 0.407-0.084z"/></g></svg>
