<?xml version="1.0" encoding="UTF-8"?>
<!-- Created with Inkscape (http://www.inkscape.org/) -->
<svg id="svg2" width="988.38" height="802.67" version="1.1" viewBox="0 0 926.61 752.5" xmlns="http://www.w3.org/2000/svg" xmlns:cc="http://creativecommons.org/ns#" xmlns:dc="http://purl.org/dc/elements/1.1/" xmlns:rdf="http://www.w3.org/1999/02/22-rdf-syntax-ns#">
 <link id="dark-mode" href="" rel="stylesheet" type="text/css"/>
 <style id="dark-mode-custom-style" type="text/css"/>
 <metadata id="metadata8">
  <rdf:RDF>
   <cc:Work rdf:about="">
    <dc:format>image/svg+xml</dc:format>
    <dc:type rdf:resource="http://purl.org/dc/dcmitype/StillImage"/>
    <dc:title/>
   </cc:Work>
  </rdf:RDF>
 </metadata>
 <g id="g4152" transform="translate(-448.38)" fill="#018f4d">
  <path id="path3356" d="m574.88 251.74c-69.864 0-126.5 56.636-126.5 126.5s56.636 126.5 126.5 126.5h673.61c69.864 0 126.5-56.636 126.5-126.5s-56.636-126.5-126.5-126.5z"/>
  <path id="path4188" d="m1193.9 704.97 49.619-173.47-171.31 56.562z" fill-rule="evenodd"/>
  <path id="path3386" d="m931.51 0a376.25 376.25 0 0 0-18.271 0.91406 376.25 376.25 0 0 0-5.9062 0.29492 376.25 376.25 0 0 0-29.814 3.1523 376.25 376.25 0 0 0-8.8945 1.3457 376.25 376.25 0 0 0-26.312 5.4824 376.25 376.25 0 0 0-11.727 2.9941 376.25 376.25 0 0 0-22.602 7.125 376.25 376.25 0 0 0-14.414 5.2617 376.25 376.25 0 0 0-18.785 8.0605 376.25 376.25 0 0 0-9.4746 4.0664 376.25 376.25 0 0 0-9.418 5.0586 376.25 376.25 0 0 0-8.168 4.3887 376.25 376.25 0 0 0-17.127 10.502 376.25 376.25 0 0 0-15.785 10.303 376.25 376.25 0 0 0-14.947 11.363 376.25 376.25 0 0 0-14.643 11.801 376.25 376.25 0 0 0-13.756 12.814 376.25 376.25 0 0 0-13.369 13.182 376.25 376.25 0 0 0-12.428 14.146 376.25 376.25 0 0 0-11.988 14.453 376.25 376.25 0 0 0-10.918 15.266 376.25 376.25 0 0 0-10.512 15.617 376.25 376.25 0 0 0-9.3457 16.291 376.25 376.25 0 0 0-8.8867 16.564 376.25 376.25 0 0 0-7.6836 17.166 376.25 376.25 0 0 0-7.1856 17.357 376.25 376.25 0 0 0-5.9297 17.846 376.25 376.25 0 0 0-5.4141 17.982 376.25 376.25 0 0 0-4.1211 18.361 376.25 376.25 0 0 0-3.5918 18.428 376.25 376.25 0 0 0-2.2656 18.674 376.25 376.25 0 0 0-1.8594 20.059 376.25 376.25 0 0 0-0.32812 9.2227 376.25 376.25 0 0 0-0.37891 10.707 376.25 376.25 0 0 0 0.54102 10.83 376.25 376.25 0 0 0 0.9375 18.729 376.25 376.25 0 0 0 2.0195 18.721 376.25 376.25 0 0 0 2.8066 18.562 376.25 376.25 0 0 0 3.875 18.406 376.25 376.25 0 0 0 4.6465 18.191 376.25 376.25 0 0 0 5.6856 17.904 376.25 376.25 0 0 0 6.4551 17.684 376.25 376.25 0 0 0 7.4355 17.227 376.25 376.25 0 0 0 4.2949 9.9473 376.25 376.25 0 0 0 5.0586 9.418 376.25 376.25 0 0 0 4.3887 8.168 376.25 376.25 0 0 0 10.502 17.127 376.25 376.25 0 0 0 10.303 15.785 376.25 376.25 0 0 0 11.363 14.947 376.25 376.25 0 0 0 11.801 14.643 376.25 376.25 0 0 0 12.814 13.756 376.25 376.25 0 0 0 13.182 13.369 376.25 376.25 0 0 0 14.146 12.428 376.25 376.25 0 0 0 14.453 11.988 376.25 376.25 0 0 0 15.266 10.918 376.25 376.25 0 0 0 15.617 10.512 376.25 376.25 0 0 0 16.291 9.3457 376.25 376.25 0 0 0 16.564 8.8867 376.25 376.25 0 0 0 17.166 7.6836 376.25 376.25 0 0 0 17.357 7.1856 376.25 376.25 0 0 0 17.846 5.9297 376.25 376.25 0 0 0 17.982 5.4141 376.25 376.25 0 0 0 18.361 4.1211 376.25 376.25 0 0 0 18.428 3.5918 376.25 376.25 0 0 0 18.674 2.2656 376.25 376.25 0 0 0 20.059 1.8594 376.25 376.25 0 0 0 9.2227 0.32812 376.25 376.25 0 0 0 10.707 0.37891 376.25 376.25 0 0 0 10.311-0.53711 376.25 376.25 0 0 0 20.381-1.0644 376.25 376.25 0 0 0 15.291-1.6484 376.25 376.25 0 0 0 23.4-3.5898 376.25 376.25 0 0 0 11.857-2.4961 376.25 376.25 0 0 0 26.031-6.707 376.25 376.25 0 0 0 8.5469-2.7148 376.25 376.25 0 0 0 28.158-10.346 376.25 376.25 0 0 0 5.4258-2.3418 376.25 376.25 0 0 0 16.799-7.252 376.25 376.25 0 0 0 12.305-6.8848 376.25 376.25 0 0 0 5.8594-3.2774 376.25 376.25 0 0 0 73.455-53.877l-41.965-44.592a314.66 314.66 0 0 1-37.861 30.076 314.66 314.66 0 0 1-24.289 15.117 314.66 314.66 0 0 1-3.2304 1.7988 314.66 314.66 0 0 1-53.949 23.268 314.66 314.66 0 0 1-2.6738 0.93555 314.66 314.66 0 0 1-24.74 6.4961 314.66 314.66 0 0 1-6.4512 1.5566 314.66 314.66 0 0 1-21.416 3.3867 314.66 314.66 0 0 1-10.449 1.4375 314.66 314.66 0 0 1-17.783 1.0098 314.66 314.66 0 0 1-15.096 0.55664 314.66 314.66 0 0 1-15.76-0.78907 314.66 314.66 0 0 1-15.625-0.99023 314.66 314.66 0 0 1-15.576-2.3535 314.66 314.66 0 0 1-15.498-2.5527 314.66 314.66 0 0 1-15.24-3.8926 314.66 314.66 0 0 1-15.164-4.0879 314.66 314.66 0 0 1-14.84-5.416 314.66 314.66 0 0 1-14.615-5.5566 314.66 314.66 0 0 1-14.266-6.8906 314.66 314.66 0 0 1-13.959-6.9727 314.66 314.66 0 0 1-13.467-8.2578 314.66 314.66 0 0 1-13.238-8.3594 314.66 314.66 0 0 1-12.531-9.5254 314.66 314.66 0 0 1-12.377-9.6719 314.66 314.66 0 0 1-11.484-10.697 314.66 314.66 0 0 1-11.389-10.896 314.66 314.66 0 0 1-10.363-11.799 314.66 314.66 0 0 1-10.219-11.947 314.66 314.66 0 0 1-9.1504-12.795 314.66 314.66 0 0 1-8.9785-12.916 314.66 314.66 0 0 1-7.7988-13.594 314.66 314.66 0 0 1-7.6641-13.781 314.66 314.66 0 0 1-10.969-24.51 314.66 314.66 0 0 1-5.1836-14.805 314.66 314.66 0 0 1-4.9688-14.957 314.66 314.66 0 0 1-3.6895-15.295 314.66 314.66 0 0 1-3.4355-15.309 314.66 314.66 0 0 1-2.1504-15.631 314.66 314.66 0 0 1-1.8887-15.562 314.66 314.66 0 0 1-0.98828-26.834 314.66 314.66 0 0 1 0.78907-15.76 314.66 314.66 0 0 1 0.99023-15.625 314.66 314.66 0 0 1 2.3535-15.576 314.66 314.66 0 0 1 2.5527-15.498 314.66 314.66 0 0 1 3.8926-15.24 314.66 314.66 0 0 1 4.0879-15.164 314.66 314.66 0 0 1 5.416-14.84 314.66 314.66 0 0 1 5.5566-14.615 314.66 314.66 0 0 1 6.8906-14.266 314.66 314.66 0 0 1 6.9727-13.959 314.66 314.66 0 0 1 8.2578-13.467 314.66 314.66 0 0 1 8.3594-13.238 314.66 314.66 0 0 1 9.5254-12.531 314.66 314.66 0 0 1 9.6719-12.377 314.66 314.66 0 0 1 10.697-11.484 314.66 314.66 0 0 1 10.896-11.389 314.66 314.66 0 0 1 11.799-10.363 314.66 314.66 0 0 1 11.947-10.219 314.66 314.66 0 0 1 12.795-9.1504 314.66 314.66 0 0 1 12.916-8.9785 314.66 314.66 0 0 1 13.594-7.7988 314.66 314.66 0 0 1 13.781-7.6641 314.66 314.66 0 0 1 13.734-6.1465 314.66 314.66 0 0 1 16.473-6.9785 314.66 314.66 0 0 1 9.9258-3.2988 314.66 314.66 0 0 1 20.781-6.4453 314.66 314.66 0 0 1 6.4473-1.4453 314.66 314.66 0 0 1 25.08-5.1035 314.66 314.66 0 0 1 2.8535-0.34766 314.66 314.66 0 0 1 58.598-2.9531 314.66 314.66 0 0 1 3.7852 0.18945 314.66 314.66 0 0 1 28.416 2.8301 314.66 314.66 0 0 1 47.258 10.26l17.951-58.543a376.25 376.25 0 0 0-89.697-15.889 376.25 376.25 0 0 0-6.7148-0.35352 376.25 376.25 0 0 0-14.072-0.73828z"/>
  <path id="path3386-6" d="m931.51 42.34a333.91 333.91 0 0 0-333.91 333.91 333.91 333.91 0 0 0 333.91 333.91 333.91 333.91 0 0 0 333.91-333.91 333.91 333.91 0 0 0-333.91-333.91zm0 19.246a314.66 314.66 0 0 1 314.66 314.66 314.66 314.66 0 0 1-314.66 314.66 314.66 314.66 0 0 1-314.66-314.66 314.66 314.66 0 0 1 314.66-314.66z"/>
 </g>
 <path id="text4160" d="m165.25 318.22-5.7207 28.6h52.59l-64.506 48.777-6.832 33.842h102.8l6.0371-29.711h-54.496l62.441-47.666 6.832-33.842zm384.79 0-6.6738 32.889h37.496l-15.887 78.33h42.58l15.887-78.33h37.496l6.6738-32.889zm123.31 0 17.16 111.22h50.365l63.711-111.22h-43.691l-34.16 66.572h-0.63477l-6.9922-66.572zm-351.4 26.057c-19.278 0-34.635 5.5619-46.074 16.684-10.168 9.9566-15.254 22.031-15.254 36.225 0 8.4737 2.4905 15.571 7.4688 21.291 7.5204 8.5796 19.965 12.869 37.336 12.869 18.43 0 33.365-5.2443 44.805-15.73 10.698-9.8507 16.047-21.819 16.047-35.906 0-9.9566-3.2825-18.059-9.8496-24.309-7.7322-7.4145-19.226-11.123-34.479-11.123zm115.86 0c-19.278 0-34.637 5.5619-46.076 16.684-10.168 9.9566-15.252 22.031-15.252 36.225 0 8.4737 2.4885 15.571 7.4668 21.291 7.5204 8.5796 19.967 12.869 37.338 12.869 18.43 0 33.365-5.2443 44.805-15.73 10.698-9.8507 16.047-21.819 16.047-35.906 0-9.9566-3.2844-18.059-9.8516-24.309-7.7322-7.4145-19.224-11.123-34.477-11.123zm-120.31 23.834c2.0125 0 3.5482 0.63519 4.6074 1.9062 1.0592 1.2711 1.5879 3.2832 1.5879 6.0371 0 3.0717-0.4764 6.7783-1.4297 11.121-0.84736 4.3428-1.8544 8.1559-3.0195 11.439-1.1651 3.1776-2.6466 5.4551-4.4473 6.832-1.6947 1.377-3.6023 2.0664-5.7207 2.0664-1.5888 0-2.9657-0.58292-4.1308-1.748-1.1651-1.1651-1.748-3.1772-1.748-6.0371 0-3.3895 0.58291-7.7332 1.748-13.029 1.1651-5.2961 2.3832-9.268 3.6543-11.916 0.95329-2.0125 1.9061-3.4417 2.8594-4.2891 1.6947-1.5888 3.7088-2.3828 6.0391-2.3828zm115.86 0c2.0125 0 3.5482 0.63519 4.6074 1.9062 1.0592 1.2711 1.5898 3.2832 1.5898 6.0371 0 3.0717-0.47639 6.7783-1.4297 11.121-0.84737 4.3428-1.8544 8.1559-3.0195 11.439-1.1651 3.1776-2.6486 5.4551-4.4492 6.832-1.6947 1.377-3.6003 2.0664-5.7188 2.0664-1.5888 0-2.9657-0.58292-4.1309-1.748s-1.748-3.1772-1.748-6.0371c0-3.3895 0.58292-7.7332 1.748-13.029 1.1651-5.2961 2.3832-9.268 3.6543-11.916 0.95329-2.0125 1.9061-3.4417 2.8594-4.2891 1.6947-1.5888 3.7068-2.3828 6.0371-2.3828z" fill="#fff" font-family="sans-serif" font-size="158.88px" letter-spacing="0px" word-spacing="0px"/>
</svg>
