<?xml version="1.0" encoding="UTF-8"?>
<!-- Generator: Adobe Illustrator 22.1.0, SVG Export Plug-In . SVG Version: 6.00 Build 0)  -->
<svg id="Layer_1" width="800" height="800" version="1.1" viewBox="0 0 800 800" xml:space="preserve" xmlns="http://www.w3.org/2000/svg" xmlns:cc="http://creativecommons.org/ns#" xmlns:dc="http://purl.org/dc/elements/1.1/" xmlns:rdf="http://www.w3.org/1999/02/22-rdf-syntax-ns#"><metadata id="metadata13"><rdf:RDF><cc:Work rdf:about=""><dc:format>image/svg+xml</dc:format><dc:type rdf:resource="http://purl.org/dc/dcmitype/StillImage"/><dc:title/></cc:Work></rdf:RDF></metadata>
<rect id="rect2" x="-376.85" y="176.95" width="1e3" height="1e3" display="none" stroke="#000" stroke-miterlimit="10"/>
<path id="path4" d="m770.27 471.97-298.29 298.29c-39.643 39.643-103.98 39.643-143.95 0l-298.29-298.29c-39.643-39.643-39.643-103.98 0-143.95l298.29-298.29c39.643-39.643 103.98-39.643 143.95 0l298.29 298.29c39.642 39.968 39.642 104.31 0 143.95z" fill="#fff" stroke-width="3.2494"/>
<path id="path6" d="m435.91 632.49h-12.348v-16.247h12.348c2.5995 0 4.5491 0.64988 5.8489 2.2746 1.6247 1.6247 2.5995 3.5743 2.5995 5.524 0 2.5995-0.97481 4.5492-2.5995 6.1738-1.2998 1.2998-3.2494 2.2746-5.8489 2.2746zm-193.01-207.96c-7.7985-59.139-46.791-86.109-46.791-86.109-5.8489-4.5492-7.7985-12.673-4.2242-19.496 3.8993-7.1487 13.323-10.073 20.471-5.8489 14.947 8.1235 32.169 12.673 49.391 12.673 56.539 0 102.36-45.816 102.36-102.36 0-51.015-37.693-93.582-86.434-101.06l-224.86 224.86c-16.897 16.897-24.045 39.643-21.771 61.738 84.159-10.398 151.75-1.6247 211.86 15.597zm206.66 239.16c1.6247-1.6247 2.2746-3.2494 2.2746-5.524 0-1.9496-0.64988-3.5743-2.5995-5.524-1.6247-1.6247-3.5743-2.5995-5.8489-2.5995h-19.821v15.922h20.471c2.2746 0 3.8993-0.64988 5.524-2.2746zm-206.66-207.96c-57.839-17.547-121.85-26.97-202.11-18.197 3.2494 5.524 7.1487 11.048 12.023 15.922l108.85 108.85c43.542-17.547 75.711-58.164 81.235-106.58zm439.97-67.912c-29.894 0-54.265 24.37-54.265 54.265s24.37 54.265 54.265 54.265c12.998 0 25.02-4.5492 34.119-12.348l7.7985-7.7985c7.7985-9.4232 12.348-21.121 12.348-34.119 0-30.219-24.37-54.265-54.265-54.265zm-205.36-78.31c-39.968 0-72.461 32.494-72.461 72.461 0 39.968 32.494 72.461 72.461 72.461s72.461-32.494 72.461-72.461c0-39.968-32.494-72.461-72.461-72.461zm287.9 115.03c-8.1235-38.343-41.917-67.262-82.534-67.262-46.466 0-84.484 38.018-84.484 84.484 0 43.867 33.794 80.26 76.686 84.159l-22.746 22.746c-112.43-0.32494-191.39-35.093-273.92-71.812-33.794-14.947-67.912-29.894-104.31-42.567-0.97482-28.27-9.4232-55.565-24.37-78.96 3.8993 0.32494 8.1235 0.64988 12.023 0.64988 73.111 0 132.58-59.464 132.58-132.58 0-58.814-38.668-108.85-91.633-126.08l43.867-43.867c29.569-29.569 77.336-29.569 106.9 0l293.74 293.74c21.121 20.471 27.295 51.015 18.197 77.336zm-185.22-42.567c0-56.539-46.141-102.68-102.68-102.68s-102.68 46.141-102.68 102.68 46.141 102.68 102.68 102.68 102.68-46.141 102.68-102.68zm-214.13 122.5c75.386 33.469 152.72 67.587 257.03 73.436l-169.62 169.62c-29.569 29.569-77.336 29.569-106.9 0l-162.14-162.14c45.816-23.071 79.61-67.262 87.734-119.58 32.169 11.048 62.713 24.695 93.907 38.668zm39.968 170.59c0 2.5995 0.97482 4.5491 2.5995 6.1738 1.6247 1.9496 3.8993 2.5995 6.4988 2.5995h30.219c6.4988-0.64988 12.348-3.2494 17.222-8.1235 4.5492-4.8741 6.8237-10.723 7.1487-17.547 0-4.8741-1.2998-9.4232-3.8993-13.647-1.9496-2.9244-4.2242-5.524-7.1487-7.4736 2.2746-3.8993 3.5743-8.1235 3.5743-12.998 0-7.1487-2.5995-12.998-7.4736-18.197-4.8741-4.8741-11.048-7.4736-17.872-7.7985h-21.771c-2.5995 0-4.5492 0.97481-6.4988 2.5995-1.6247 1.6247-2.5995 3.8993-2.5995 6.1738zm-19.171-77.336h-45.816c-2.5995 0-4.5492 0.97481-6.1738 2.5995-1.6247 1.6247-2.5995 3.8993-2.5995 6.4988 0 2.2746 0.97482 4.5492 2.5995 6.1738 1.6247 1.6247 3.8993 2.5995 6.1738 2.5995h13.972v59.464c0 2.5995 0.97482 4.5491 2.5995 6.1738 1.6247 1.9496 3.8993 2.5995 6.4988 2.5995 2.2746 0 4.5492-0.97482 6.1738-2.5995 1.6247-1.6247 2.5995-3.8993 2.5995-6.1738v-59.464h13.972c2.2746 0 4.2242-0.64988 6.1738-2.2746l0.32494-0.32494c1.6247-1.9496 2.2746-3.8993 2.2746-6.1738s-0.64988-4.2242-2.2746-6.1738l-0.32494-0.32494c-2.2746-1.9496-4.2242-2.5995-6.1738-2.5995z" fill="#009d4f" stroke-width="3.2494"/>
</svg>
