<svg width="639.14pt" height="441.36pt" version="1.1" viewBox="0 0 639.14 441.36" xmlns="http://www.w3.org/2000/svg">
 <g transform="translate(-45.89 -23.963)" fill="#28bda8">
  <path d="m59.52 35.53c7.16-7.24 17.22-11.55 27.42-11.54 47.02 0.09 94.04 0.01 141.06 0.04 7.8 0.08 15.79-0.71 23.37 1.61 13.84 3.96 24.48 15.92 28.37 29.58 2.24 7.01 1.97 14.46 1.54 21.71 11.63-16.21 26.75-30.09 44.65-39.08 19.03-9.91 40.76-14.44 62.16-13.66 26.93 1.18 53.49 11.12 74.05 28.64 13.57 11.2 24.1 25.65 31.97 41.3 3.21-2.79 5.88-6.12 8.94-9.07 18.68-17.97 44.09-28.69 69.99-29.58 33.16-1.76 66.82 12.93 87.68 38.83 23.13 27.77 30.74 67.84 18.56 101.98-11.52 33.76-41.7 59.83-76.35 67.62-36.17 8.74-76.76-2.22-102.74-29.1-6.33-5.9-10.93-13.26-16.09-20.12-8.65 11.38-18.73 21.81-30.67 29.75-20.85 14.29-46.17 21.86-71.42 21.62-27.03-0.11-54.03-9.03-75.44-25.6-24.52-18.58-41.43-47.04-45.45-77.6-2.52-16.43-0.98-33.32 3.34-49.31 0.93-3.86 2.74-7.48 3.34-11.41-4.6-8.33-11.9-15.09-20.12-19.82-6.42-3.81-13.31-7.21-20.79-8.2-1.96-0.29-3.97-0.09-5.78 0.73 4.1 10.3 8.95 20.82 8.5 32.17 0.07 4.54-1.41 8.93-3.81 12.74-4.44 0.32-9.01 0.18-13.25 1.73-6.79 2.53-13 7.01-16.8 13.26-6.36 10.13-8.27 22.34-14.42 32.58-1.61 2.48-4.3 3.98-7.03 4.93-7.99 2.72-16.46 3.37-24.61 5.44-3.17 9.21-2.03 20.49 4.62 27.95 4.27 5.1 10.45 7.98 16.4 10.65 7.32 3.15 15.41 4.01 23.31 3.74 12.91-0.03 25.13-5.2 38-5.62 3.48-0.01 7.32 0.14 10.15 2.46 7.68 6.6 14.16 14.66 22.84 20.09 4.05 2.84 8.72 5.28 11.34 9.67 2.74 4.23 1.98 10.49-2.06 13.66-2.71 2.65-6.72 2.66-10.25 2.68-57.03-0.05-114.06 0.16-171.09-0.01-12.44-0.25-25.06-5.05-33.39-14.52-10.18-11.45-16.56-27.8-12.18-43.04 2.52-10.39 9.56-18.73 16.42-26.58 17.49-20.84 34.97-41.68 52.55-62.45 1.75-1.97 3.39-4.03 4.94-6.17-13.11-0.48-26.23 0.02-39.35-0.23-8.01-0.45-15.76-3.83-21.69-9.22-9.16-8.24-14.31-20.52-14.36-32.78 0.46-11.96 4.94-24.03 13.63-32.45z"/>
  <path d="m56.89 291.9c6.47-6.66 16.06-9.29 25.13-9.15 28.99-0.01 57.98-0.05 86.97 0.02 9.19-0.06 18.53 3.59 24.57 10.64 5.52 6.12 7.68 14.5 7.6 22.59-0.08 35.66 0.1 71.34-0.08 107-0.78 8.02 1.24 16.71-2.98 24.07-9.31 17.08-34.03 22.66-50.04 11.84-5.77-3.8-9.36-10.09-11.39-16.55-1.7019-4.9316-1.295-12.237-1.295-18.36v-74.87h-22.2v83.88c0 7.4688-1.105 11.85-4.455 16.73-9.93 14.17-30.93 18.92-46.08 10.63-8.98-4.52-14.15-14.6-14.92-24.33-0.06-40.35 0.01-80.7-0.03-121.05 0-8.47 3.01-17.14 9.2-23.09z"/>
  <path d="m262.29 293.3c7.32-7.74 18.41-10.46 28.74-10.53 8.14-0.32 16.69 0.93 23.55 5.63 6.32 4.22 10.34 11.03 12.97 18.02 14.07 36.42 29.05 72.48 43.26 108.84 2.86 6.94 4.63 14.57 3.34 22.09-1.46 9.32-7.83 17.25-15.7 22.15-8.62 5.51-19.69 6.24-29.36 3.39-7.78-2.37-13.59-8.77-17.2-15.84-2.73-4.9-4.1-10.4-6.53-15.44-2.33-0.91-4.91-0.56-7.35-0.65-6.56 0.17-13.14-0.19-19.69 0.25-4.34 10.73-8.73 22.63-19.11 28.97-13.72 9.17-33.49 4.74-43.55-7.84-8.43-10.06-9.86-24.74-5.05-36.75 12.95-32.94 26.21-65.75 39.42-98.58 3.53-8.14 5.87-17.21 12.26-23.71z"/>
  <path d="m390.4 294.42c6.26-8 16.64-11.88 26.61-11.67 17.34 0.07 34.68-0.22 52.01 0.21 16.59 0.12 32.87 7.77 43.82 20.18 10.2 11.34 15.99 26.58 15.77 41.84 0.37 16.48-6.43 32.93-18.1 44.53-10.6 10.75-25.39 17.34-40.52 17.66-6.91 0.2-13.83 0.02-20.75 0.15-0.39 11.37 0.83 22.94-1.78 34.12-3.48 13.76-17.58 23.1-31.46 22.85-9.27 0.41-19.11-2.89-25.16-10.14-4.75-5.93-7.52-13.5-7.42-21.12 0.02-38.69-0.02-77.38 0.01-116.07-0.04-7.98 1.89-16.22 6.97-22.54z"/>
  <path d="m547.57 290.59c14.44-12.59 39.49-9.36 50.28 6.48 3.5 4.9 4.36 10.97 5.4 16.75 8.28-6.91 16.18-14.25 24.64-20.94 6.24-5.24 13.75-9.61 22.06-10.02 16.06-0.97 31.71 12.05 33.35 28.12 1.18 8.9-1.9 17.95-7.42 24.9-10.65 14.09-23.83 26.04-34.91 39.76 10.81 10.64 21.93 20.98 32.41 31.95 5.27 5.58 9.23 12.66 9.93 20.4 0.83 8.69-0.74 18.07-6.35 25-7.86 9.55-21.24 14.61-33.36 11.3-10.01-2.73-17.58-10.17-25.73-16.15-4.96-3.58-9.32-7.94-14.48-11.24-2.28 7.19-4.9 14.65-10.62 19.88-7.84 7.85-19.85 9.82-30.41 7.8-10.35-2.36-19.14-10.41-22.61-20.42-2.43-6.43-1.84-13.42-2.04-20.17-0.06-36.33 0.05-72.66-0.04-108.99-0.23-8.99 3.31-18.21 9.9-24.41z"/>
 </g>
</svg>
