<?xml version="1.0" encoding="UTF-8"?>
<svg id="svg31" width="800" height="226.01" version="1.1" viewBox="0 0 800 226.01" xmlns="http://www.w3.org/2000/svg" xmlns:cc="http://creativecommons.org/ns#" xmlns:dc="http://purl.org/dc/elements/1.1/" xmlns:rdf="http://www.w3.org/1999/02/22-rdf-syntax-ns#">
 <metadata id="metadata35">
  <rdf:RDF>
   <cc:Work rdf:about="">
    <dc:format>image/svg+xml</dc:format>
    <dc:type rdf:resource="http://purl.org/dc/dcmitype/StillImage"/>
    <dc:title>Медиагруппа ЗВЕЗДА гор</dc:title>
   </cc:Work>
  </rdf:RDF>
 </metadata>
<!-- Generator: Sketch 43.1 (39012) - http://www.bohemiancoding.com/sketch -->
 <title id="title2">Медиагруппа ЗВЕЗДА гор</title>
 <desc id="desc4">Created with Sketch.</desc>
 <g id="g1015" transform="matrix(3.5088 0 0 3.5088 -1.8718 -2.7002)" fill="#57809f" fill-rule="evenodd">
  <path id="Fill-114" d="m80.453 17.196h-1.0904v-6.1545h1.754l1.6365 4.714 1.5504-4.714h1.754v6.1545h-1.0904v-4.8411l-1.6348 4.8411h-1.1665l-1.7126-4.8592z"/>
  <path id="Fill-115" d="m95.337 13.624h2.8444v0.98175h-2.8444v1.6104h3.5096v0.9801h-4.6v-6.1545h4.6v0.9801h-3.5096z"/>
  <path id="Fill-116" d="m111.43 16.216v-4.1943h-2.3083l-0.62216 3.6663c-0.0414 0.24585-0.0927 0.41745-0.15223 0.528zm1.754 2.1648h-1.0888v-1.1847h-4.4378v1.1847h-1.0822v-2.1648h0.31439c0.21345 0 0.34914-0.0264 0.41698-0.12705 0.0695-0.1023 0.0695-0.13695 0.10259-0.30855l0.74957-4.7388h4.3617v5.1744h0.66353z"/>
  <path id="Fill-118" transform="translate(77.77 10.355)" d="m47.467 6.8407v-4.4154l-2.7335 4.4154h-1.337v-6.1545h1.0904v4.4666l2.7683-4.4666h1.3022v6.1545z"/>
  <path id="Fill-120" d="m137.88 14.988-0.88525-2.899-0.88691 2.899zm1.84 2.2077h-1.1583l-0.36734-1.2094h-2.3927l-0.36569 1.2094h-1.1682l2.0022-6.1545h1.4478z"/>
  <path id="Fill-122" transform="translate(77.77 10.355)" d="m69.894 0.68624h4.3948v0.9801h-3.3044v5.1744h-1.0904z"/>
  <path id="Fill-124" d="m163.87 12.278c0-0.23925-0.0513-0.25575-0.35741-0.25575h-2.4622v1.8332h2.4622c0.33094 0 0.35741-0.01815 0.35741-0.2475zm-2.8196 4.9186h-1.0904v-6.1545h3.867c0.81741 0 1.1252 0.1782 1.1252 0.90255v1.9866c0 0.72435-0.30777 0.9042-1.1252 0.9042h-2.7765z"/>
  <path id="Fill-126" transform="translate(77.77 10.355)" d="m96.59 6.8407h-1.2178l1.9674-2.6598-2.5896-3.4947h1.2178l1.9856 2.6598 1.9757-2.6598h1.2178z"/>
  <path id="Fill-128" transform="translate(77.77 10.355)" d="m114.34 6.8407h-1.0822v-5.1744h-3.2101v5.1744h-1.0904v-6.1545h5.3827z"/>
  <path id="Fill-130" transform="translate(77.77 10.355)" d="m127.91 6.8407h-1.0822v-5.1744h-3.2101v5.1744h-1.0904v-6.1545h5.3827z"/>
  <path id="Fill-132" d="m217.24 14.988-0.88525-2.899-0.88691 2.899zm1.84 2.2077h-1.1583l-0.36733-1.2094h-2.3927l-0.36568 1.2094h-1.1682l2.0022-6.1545h1.4478z"/>
 </g>
 <g id="g1025" transform="scale(3.5088)" fill="#d73230" fill-rule="evenodd">
  <path id="Fill-112" d="m37.892 29.886h22.83l7.1978-5.2998h-25.877l-8.0831-24.587-8.0798 24.587h-25.879l7.1978 5.2998h22.633l4.1284-12.347z"/>
  <path id="Fill-113" d="m20.84 39.903-7.8696 24.509 20.988-15.093 20.99 15.093-7.868-24.509 6.3258-4.6448h-13.8l4.7638 14.932-10.411-7.694-10.906 7.694 4.9855-14.932h-13.525z"/>
  <path id="Fill-134" d="m82.837 49.807c-3.1538 0-4.6265-0.594-4.6265-3.7042v-3.8445h4.4858v2.5162c0 0.97845 0.14065 1.0131 1.4727 1.0131h8.8327c1.2956 0 1.4363-0.03465 1.4363-1.0131v-4.5094c0-1.0131-0.24489-1.0478-1.4363-1.0478h-6.2034v-4.0194h6.1686c1.2956 0 1.4363-0.03465 1.4363-1.0131v-4.5441c0-1.0131-0.24489-1.0478-1.4363-1.0478h-8.7979c-1.2261 0-1.4727 0.03465-1.4727 1.0478v2.4816h-4.4858v-3.8445c0-3.1102 1.4727-3.7042 4.6265-3.7042h11.426c3.1555 0 4.6265 0.594 4.6265 3.7042v5.7321c0 1.8876-0.48978 2.8314-1.6464 3.3198 1.1566 0.4554 1.6464 1.4322 1.6464 3.2852v5.4879c0 3.1102-1.471 3.7042-4.6265 3.7042z"/>
  <path id="Fill-136" d="m120.22 40.266c0-1.0131-0.24489-1.0494-1.4727-1.0494h-10.163v6.572h10.163c1.2973 0 1.4727-0.03465 1.4727-1.0148zm0-10.624c0-1.0148-0.24489-1.0494-1.4727-1.0494h-10.163v6.6066h10.163c1.2973 0 1.4727-0.0363 1.4727-1.0131zm-16.123 20.166v-25.235h15.948c3.1555 0 4.6265 0.594 4.6265 3.7042v5.7338c0 1.886-0.49144 2.8298-1.6828 3.3198 1.1914 0.45375 1.7176 1.4322 1.7176 3.2852v5.4862c0 3.1119-1.471 3.7059-4.6265 3.7059z"/>
  <path id="Fill-138" d="m134.37 39.183v6.605h14.44v4.0194h-18.926v-25.233h18.926v4.0194h-14.44v6.5703h11.707v4.0194z"/>
  <path id="Fill-140" d="m156.99 49.807c-3.1538 0-4.6265-0.594-4.6265-3.7042v-3.8445h4.4858v2.5162c0 0.97845 0.14065 1.0131 1.4727 1.0131h8.8327c1.2956 0 1.4363-0.03465 1.4363-1.0131v-4.5094c0-1.0131-0.2449-1.0478-1.4363-1.0478h-6.205v-4.0194h6.1703c1.2956 0 1.4363-0.03465 1.4363-1.0131v-4.5441c0-1.0131-0.24489-1.0478-1.4363-1.0478h-8.7979c-1.2261 0-1.4727 0.03465-1.4727 1.0478v2.4816h-4.4858v-3.8445c0-3.1102 1.4727-3.7042 4.6265-3.7042h11.426c3.1555 0 4.6265 0.594 4.6265 3.7042v5.7321c0 1.8876-0.48978 2.8314-1.6464 3.3198 1.1566 0.4554 1.6464 1.4322 1.6464 3.2852v5.4879c0 3.1102-1.471 3.7042-4.6265 3.7042z"/>
  <path id="Fill-142" d="m195.58 28.593h-9.4978l-2.5598 15.028c-0.17374 0.9438-0.34913 1.6434-0.63043 2.1664h12.688zm2.7335 26.073v-4.8592h-18.261v4.8592h-4.4511v-8.8786h1.2973c1.8929 0 1.9624-0.7689 2.1378-1.782l3.0843-19.432h17.945v21.214h2.7335v8.8786z"/>
  <path id="Fill-144" d="m216.79 28.872-3.6452 11.883h7.2905zm6.4483 20.935-1.5074-4.9632h-9.847l-1.5074 4.9632h-4.8019l8.2353-25.233h5.9585l8.237 25.233z"/>
 </g>
 <path id="Fill-112-8" d="m132.95 104.86h80.104l-25.669 18.849h-48.421l16.715 52.395-36.53-26.996-38.266 26.996 17.493-52.395h-47.457l-25.667-18.849h79.413l14.486-43.323z" fill="#fff" fill-rule="evenodd"/>
</svg>
